<?xml version="1.0" encoding="UTF-8" standalone="no"?><svg xmlns="http://www.w3.org/2000/svg" xmlns:xlink="http://www.w3.org/1999/xlink" contentStyleType="text/css" height="714px" preserveAspectRatio="none" style="width:1118px;height:714px;background:#FFFFFF;" version="1.1" viewBox="0 0 1118 714" width="1118px" zoomAndPan="magnify"><defs/><g><rect fill="#FFFFFF" height="546.8797" style="stroke:#181818;stroke-width:1.0;" width="10" x="413" y="84.4799"/><rect fill="#FFFFFF" height="46.24" style="stroke:#181818;stroke-width:1.0;" width="10" x="418" y="462.8797"/><rect fill="#FFFFFF" height="41.24" style="stroke:#181818;stroke-width:1.0;" width="10" x="635" y="158.9599"/><rect fill="#FFFFFF" height="41.24" style="stroke:#181818;stroke-width:1.0;" width="10" x="836.5" y="241.4398"/><rect fill="#FFFFFF" height="41.24" style="stroke:#181818;stroke-width:1.0;" width="10" x="1020" y="323.9198"/><rect fill="none" height="244.1999" style="stroke:#000000;stroke-width:1.5;" width="1100.5" x="11" y="380.1598"/><line style="stroke:#181818;stroke-width:0.5;stroke-dasharray:5.0,5.0;" x1="417.5" x2="417.5" y1="74.4799" y2="641.3596"/><line style="stroke:#181818;stroke-width:0.5;stroke-dasharray:5.0,5.0;" x1="639.5" x2="639.5" y1="74.4799" y2="641.3596"/><line style="stroke:#181818;stroke-width:0.5;stroke-dasharray:5.0,5.0;" x1="841.5" x2="841.5" y1="74.4799" y2="641.3596"/><line style="stroke:#181818;stroke-width:0.5;stroke-dasharray:5.0,5.0;" x1="1024.5" x2="1024.5" y1="74.4799" y2="641.3596"/><rect fill="#E3E3E3" height="41.24" rx="2.5" ry="2.5" style="stroke:#181818;stroke-width:0.5;" width="235" x="300.5" y="32.24"/><text fill="#000000" font-family="sans-serif" font-size="20" lengthAdjust="spacing" textLength="221" x="307.5" y="60.62">:{NameOfUC}Controller</text><rect fill="#E3E3E3" height="41.24" rx="2.5" ry="2.5" style="stroke:#181818;stroke-width:0.5;" width="235" x="300.5" y="640.3596"/><text fill="#000000" font-family="sans-serif" font-size="20" lengthAdjust="spacing" textLength="221" x="307.5" y="668.7396">:{NameOfUC}Controller</text><rect fill="#E3E3E3" height="41.24" rx="2.5" ry="2.5" style="stroke:#181818;stroke-width:0.5;" width="189" x="545.5" y="32.24"/><text fill="#000000" font-family="sans-serif" font-size="20" lengthAdjust="spacing" textLength="175" x="552.5" y="60.62">ApplicationSession</text><rect fill="#E3E3E3" height="41.24" rx="2.5" ry="2.5" style="stroke:#181818;stroke-width:0.5;" width="189" x="545.5" y="640.3596"/><text fill="#000000" font-family="sans-serif" font-size="20" lengthAdjust="spacing" textLength="175" x="552.5" y="668.7396">ApplicationSession</text><rect fill="#E3E3E3" height="68.4799" rx="2.5" ry="2.5" style="stroke:#181818;stroke-width:0.5;" width="194" x="744.5" y="5"/><text fill="#000000" font-family="sans-serif" font-size="20" lengthAdjust="spacing" textLength="106" x="788.5" y="33.38">appSession</text><text fill="#000000" font-family="sans-serif" font-size="20" lengthAdjust="spacing" textLength="180" x="751.5" y="60.62">:ApplicationSession</text><rect fill="#E3E3E3" height="68.4799" rx="2.5" ry="2.5" style="stroke:#181818;stroke-width:0.5;" width="194" x="744.5" y="640.3596"/><text fill="#000000" font-family="sans-serif" font-size="20" lengthAdjust="spacing" textLength="106" x="788.5" y="668.7396">appSession</text><text fill="#000000" font-family="sans-serif" font-size="20" lengthAdjust="spacing" textLength="180" x="751.5" y="695.9796">:ApplicationSession</text><rect fill="#E3E3E3" height="68.4799" rx="2.5" ry="2.5" style="stroke:#181818;stroke-width:0.5;" width="153" x="948.5" y="5"/><text fill="#000000" font-family="sans-serif" font-size="20" lengthAdjust="spacing" textLength="139" x="955.5" y="33.38">currentSession</text><text fill="#000000" font-family="sans-serif" font-size="20" lengthAdjust="spacing" textLength="120" x="965" y="60.62">:UserSession</text><rect fill="#E3E3E3" height="68.4799" rx="2.5" ry="2.5" style="stroke:#181818;stroke-width:0.5;" width="153" x="948.5" y="640.3596"/><text fill="#000000" font-family="sans-serif" font-size="20" lengthAdjust="spacing" textLength="139" x="955.5" y="668.7396">currentSession</text><text fill="#000000" font-family="sans-serif" font-size="20" lengthAdjust="spacing" textLength="120" x="965" y="695.9796">:UserSession</text><rect fill="#FFFFFF" height="546.8797" style="stroke:#181818;stroke-width:1.0;" width="10" x="413" y="84.4799"/><rect fill="#FFFFFF" height="46.24" style="stroke:#181818;stroke-width:1.0;" width="10" x="418" y="462.8797"/><rect fill="#FFFFFF" height="41.24" style="stroke:#181818;stroke-width:1.0;" width="10" x="635" y="158.9599"/><rect fill="#FFFFFF" height="41.24" style="stroke:#181818;stroke-width:1.0;" width="10" x="836.5" y="241.4398"/><rect fill="#FFFFFF" height="41.24" style="stroke:#181818;stroke-width:1.0;" width="10" x="1020" y="323.9198"/><ellipse cx="7.5" cy="116.9699" fill="none" rx="4" ry="4" style="stroke:#181818;stroke-width:1.5;"/><polygon fill="#181818" points="401,113.7199,411,117.7199,401,121.7199,405,117.7199" style="stroke:#181818;stroke-width:1.0;"/><line style="stroke:#181818;stroke-width:1.0;" x1="12" x2="407" y1="117.7199" y2="117.7199"/><text fill="#000000" font-family="sans-serif" font-size="20" font-weight="bold" lengthAdjust="spacing" textLength="11" x="15" y="109.8599">1</text><text fill="#000000" font-family="sans-serif" font-size="20" lengthAdjust="spacing" textLength="70" x="30" y="109.8599">create()</text><polygon fill="#181818" points="623,154.9599,633,158.9599,623,162.9599,627,158.9599" style="stroke:#181818;stroke-width:1.0;"/><line style="stroke:#181818;stroke-width:1.0;" x1="423" x2="629" y1="158.9599" y2="158.9599"/><text fill="#000000" font-family="sans-serif" font-size="20" font-weight="bold" lengthAdjust="spacing" textLength="11" x="430" y="151.0999">2</text><text fill="#000000" font-family="sans-serif" font-size="20" lengthAdjust="spacing" textLength="120" x="445" y="151.0999">getinstance()</text><polygon fill="#181818" points="434,196.1999,424,200.1999,434,204.1999,430,200.1999" style="stroke:#181818;stroke-width:1.0;"/><line style="stroke:#181818;stroke-width:1.0;stroke-dasharray:2.0,2.0;" x1="428" x2="639" y1="200.1999" y2="200.1999"/><text fill="#000000" font-family="sans-serif" font-size="20" font-weight="bold" lengthAdjust="spacing" textLength="11" x="440" y="192.3399">3</text><text fill="#000000" font-family="sans-serif" font-size="20" lengthAdjust="spacing" textLength="106" x="455" y="192.3399">appSession</text><polygon fill="#181818" points="824.5,237.4398,834.5,241.4398,824.5,245.4398,828.5,241.4398" style="stroke:#181818;stroke-width:1.0;"/><line style="stroke:#181818;stroke-width:1.0;" x1="423" x2="830.5" y1="241.4398" y2="241.4398"/><text fill="#000000" font-family="sans-serif" font-size="20" font-weight="bold" lengthAdjust="spacing" textLength="11" x="430" y="233.5799">4</text><text fill="#000000" font-family="sans-serif" font-size="20" lengthAdjust="spacing" textLength="184" x="445" y="233.5799">getCurrentSession()</text><polygon fill="#181818" points="434,278.6798,424,282.6798,434,286.6798,430,282.6798" style="stroke:#181818;stroke-width:1.0;"/><line style="stroke:#181818;stroke-width:1.0;stroke-dasharray:2.0,2.0;" x1="428" x2="840.5" y1="282.6798" y2="282.6798"/><text fill="#000000" font-family="sans-serif" font-size="20" font-weight="bold" lengthAdjust="spacing" textLength="11" x="440" y="274.8198">5</text><text fill="#000000" font-family="sans-serif" font-size="20" lengthAdjust="spacing" textLength="139" x="455" y="274.8198">currentSession</text><polygon fill="#181818" points="1008,319.9198,1018,323.9198,1008,327.9198,1012,323.9198" style="stroke:#181818;stroke-width:1.0;"/><line style="stroke:#181818;stroke-width:1.0;" x1="423" x2="1014" y1="323.9198" y2="323.9198"/><text fill="#000000" font-family="sans-serif" font-size="20" font-weight="bold" lengthAdjust="spacing" textLength="11" x="430" y="316.0598">6</text><text fill="#000000" font-family="sans-serif" font-size="20" lengthAdjust="spacing" textLength="305" x="445" y="316.0598">isLoggedInWithRole(USER_ROLE)</text><polygon fill="#181818" points="434,361.1598,424,365.1598,434,369.1598,430,365.1598" style="stroke:#181818;stroke-width:1.0;"/><line style="stroke:#181818;stroke-width:1.0;stroke-dasharray:2.0,2.0;" x1="428" x2="1024" y1="365.1598" y2="365.1598"/><text fill="#000000" font-family="sans-serif" font-size="20" font-weight="bold" lengthAdjust="spacing" textLength="11" x="440" y="357.2998">7</text><text fill="#000000" font-family="sans-serif" font-size="20" lengthAdjust="spacing" textLength="68" x="455" y="357.2998">answer</text><path d="M11,380.1598 L83,380.1598 L83,399.3997 L73,409.3997 L11,409.3997 L11,380.1598 " fill="#EEEEEE" style="stroke:#000000;stroke-width:1.5;"/><rect fill="none" height="244.1999" style="stroke:#000000;stroke-width:1.5;" width="1100.5" x="11" y="380.1598"/><text fill="#000000" font-family="sans-serif" font-size="20" font-weight="bold" lengthAdjust="spacing" textLength="27" x="26" y="402.5398">alt</text><text fill="#000000" font-family="sans-serif" font-size="20" font-weight="bold" lengthAdjust="spacing" textLength="151" x="98" y="403.5398">[answer = true]</text><line style="stroke:#181818;stroke-width:1.0;" x1="423" x2="470" y1="449.8797" y2="449.8797"/><line style="stroke:#181818;stroke-width:1.0;" x1="470" x2="470" y1="449.8797" y2="462.8797"/><line style="stroke:#181818;stroke-width:1.0;" x1="429" x2="470" y1="462.8797" y2="462.8797"/><polygon fill="#181818" points="439,458.8797,429,462.8797,439,466.8797,435,462.8797" style="stroke:#181818;stroke-width:1.0;"/><text fill="#000000" font-family="sans-serif" font-size="20" font-weight="bold" lengthAdjust="spacing" textLength="11" x="435" y="442.0197">8</text><text fill="#000000" font-family="sans-serif" font-size="20" lengthAdjust="spacing" textLength="163" x="450" y="442.0197">doesOtherThing()</text><ellipse cx="7.5" cy="508.3697" fill="none" rx="4" ry="4" style="stroke:#181818;stroke-width:1.5;"/><polygon fill="#181818" points="24.5,505.1197,14.5,509.1197,24.5,513.1197,20.5,509.1197" style="stroke:#181818;stroke-width:1.0;"/><line style="stroke:#181818;stroke-width:1.0;stroke-dasharray:2.0,2.0;" x1="22.5" x2="412" y1="509.1197" y2="509.1197"/><text fill="#000000" font-family="sans-serif" font-size="20" font-weight="bold" lengthAdjust="spacing" textLength="11" x="25" y="501.2597">9</text><text fill="#000000" font-family="sans-serif" font-size="20" lengthAdjust="spacing" textLength="23" x="40" y="501.2597">ok</text><polygon fill="#FFFFFF" points="1013,519.1197,1023,523.1197,1013,527.1197,1017,523.1197" style="stroke:#FFFFFF;stroke-width:1.0;"/><line style="stroke:#FFFFFF;stroke-width:1.0;" x1="423" x2="1019" y1="523.1197" y2="523.1197"/><line style="stroke:#000000;stroke-width:1.0;stroke-dasharray:2.0,2.0;" x1="11" x2="1111.5" y1="532.1197" y2="532.1197"/><ellipse cx="7.5" cy="590.6096" fill="none" rx="4" ry="4" style="stroke:#181818;stroke-width:1.5;"/><polygon fill="#181818" points="24.5,587.3596,14.5,591.3596,24.5,595.3596,20.5,591.3596" style="stroke:#181818;stroke-width:1.0;"/><line style="stroke:#181818;stroke-width:1.0;stroke-dasharray:2.0,2.0;" x1="22.5" x2="412" y1="591.3596" y2="591.3596"/><text fill="#000000" font-family="sans-serif" font-size="20" font-weight="bold" lengthAdjust="spacing" textLength="22" x="25" y="583.4997">10</text><text fill="#000000" font-family="sans-serif" font-size="20" lengthAdjust="spacing" textLength="360" x="51" y="583.4997">illegalStateException("Not Authorized")</text><!--SRC=[XPHFYzim4CNl-XGYFJHx22mzXdOXc2mOGhBO6tf8owAL9xQ8h37IkDcswNUl_2-HqopLnSPwx_atOutTGPbAM55gb0V8U0PxKMjwH4Ef-WNyqprpWuINQ50M5alWP6i8TYeX3oA7b7vgu1Oa2PFhKE0AaU5HcPplXNR0cAW9JLs-WcNiOw4ou7j4UiKtvWsafAg48JwP_rwB4ZRxRVGdyamMjGOxuSBnw3bPZRMBgj9A2b9eKd3ENrhXukafNQPfl5b7OxsegbxtpSp_Qux7PbbR2xv9vu2j0niwestIEtsnajGFGT11xt3sqDxnEPSM_FFf7UD-jS_yNa3i9JcGCivtL3QwLdZE2slZ_GhTiykRBjMsoWnkXhp34NSSqQZedlf6Jdm39WvXnjrx7oWU0rrwwZEKMs6UGnQRhugA13LCj-aoUKasg-KLMV0j1h0WAcoISKT_8gzuma_PvchgbVnBDmddr06qYyiGt8OAiC-5F_fzlyPapO7WmThXvzbiyEFXl1VYX9xB7757M5sHx3uS2qNm_U5M2mAh1LUNNHdGZESWEPrEx2QPydEO2vsI1rg-IQYQmPbEraXyKLE1rlyyiidTFq5WigPzZ5tNynS0]--></g></svg>