<?xml version="1.0" encoding="us-ascii" standalone="no"?><svg xmlns="http://www.w3.org/2000/svg" xmlns:xlink="http://www.w3.org/1999/xlink" contentStyleType="text/css" height="544px" preserveAspectRatio="none" style="width:388px;height:544px;background:#FFFFFF;" version="1.1" viewBox="0 0 388 544" width="388px" zoomAndPan="magnify"><defs/><g><rect fill="#FFFFFF" height="379.5703" style="stroke:#181818;stroke-width:1.0;" width="10" x="82" y="90.5332"/><rect fill="#FFFFFF" height="133.8242" style="stroke:#181818;stroke-width:1.0;" width="10" x="227" y="158.1152"/><rect fill="none" height="334.2793" style="stroke:#000000;stroke-width:1.5;" width="362.5" x="19.5" y="105.5332"/><line style="stroke:#181818;stroke-width:0.5;stroke-dasharray:5.0,5.0;" x1="86.5" x2="86.5" y1="57.2422" y2="488.1035"/><line style="stroke:#181818;stroke-width:0.5;stroke-dasharray:5.0,5.0;" x1="231.5" x2="231.5" y1="165.9453" y2="488.1035"/><rect fill="#E3E3E3" height="51.2422" rx="2.5" ry="2.5" style="stroke:#181818;stroke-width:0.5;" width="115" x="29.5" y="5"/><text fill="#000000" font-family="sans-serif" font-size="14" lengthAdjust="spacing" textLength="94" x="40" y="27.1074">jobsRepository</text><text fill="#000000" font-family="sans-serif" font-size="14" lengthAdjust="spacing" textLength="101" x="36.5" y="45.7285">:JobsRepository</text><rect fill="#E3E3E3" height="51.2422" rx="2.5" ry="2.5" style="stroke:#181818;stroke-width:0.5;" width="115" x="29.5" y="487.1035"/><text fill="#000000" font-family="sans-serif" font-size="14" lengthAdjust="spacing" textLength="94" x="40" y="509.2109">jobsRepository</text><text fill="#000000" font-family="sans-serif" font-size="14" lengthAdjust="spacing" textLength="101" x="36.5" y="527.832">:JobsRepository</text><rect fill="#E3E3E3" height="51.2422" rx="2.5" ry="2.5" style="stroke:#181818;stroke-width:0.5;" width="49" x="207.5" y="487.1035"/><text fill="#000000" font-family="sans-serif" font-size="14" lengthAdjust="spacing" textLength="35" x="214.5" y="509.2109">name</text><text fill="#000000" font-family="sans-serif" font-size="14" lengthAdjust="spacing" textLength="26" x="219" y="527.832">:Job</text><rect fill="#FFFFFF" height="379.5703" style="stroke:#181818;stroke-width:1.0;" width="10" x="82" y="90.5332"/><rect fill="#FFFFFF" height="133.8242" style="stroke:#181818;stroke-width:1.0;" width="10" x="227" y="158.1152"/><polygon fill="#181818" points="70,86.5332,80,90.5332,70,94.5332,74,90.5332" style="stroke:#181818;stroke-width:1.0;"/><line style="stroke:#181818;stroke-width:1.0;" x1="0" x2="76" y1="90.5332" y2="90.5332"/><text fill="#000000" font-family="sans-serif" font-size="13" font-weight="bold" lengthAdjust="spacing" textLength="14" x="7" y="85.2705">10</text><text fill="#000000" font-family="sans-serif" font-size="13" lengthAdjust="spacing" textLength="36" x="25" y="85.2705">create</text><path d="M19.5,105.5332 L133.5,105.5332 L133.5,114.8242 L123.5,124.8242 L19.5,124.8242 L19.5,105.5332 " fill="#EEEEEE" style="stroke:#000000;stroke-width:1.5;"/><rect fill="none" height="334.2793" style="stroke:#000000;stroke-width:1.5;" width="362.5" x="19.5" y="105.5332"/><text fill="#000000" font-family="sans-serif" font-size="13" font-weight="bold" lengthAdjust="spacing" textLength="69" x="34.5" y="120.5615">Create Job</text><polygon fill="#181818" points="195.5,144.1152,205.5,148.1152,195.5,152.1152,199.5,148.1152" style="stroke:#181818;stroke-width:1.0;"/><line style="stroke:#181818;stroke-width:1.0;" x1="92" x2="201.5" y1="148.1152" y2="148.1152"/><text fill="#000000" font-family="sans-serif" font-size="13" font-weight="bold" lengthAdjust="spacing" textLength="14" x="99" y="142.8525">11</text><text fill="#000000" font-family="sans-serif" font-size="13" lengthAdjust="spacing" textLength="36" x="117" y="142.8525">create</text><rect fill="#E3E3E3" height="51.2422" rx="2.5" ry="2.5" style="stroke:#181818;stroke-width:0.5;" width="49" x="207.5" y="124.8242"/><text fill="#000000" font-family="sans-serif" font-size="14" lengthAdjust="spacing" textLength="35" x="214.5" y="146.9316">name</text><text fill="#000000" font-family="sans-serif" font-size="14" lengthAdjust="spacing" textLength="26" x="219" y="165.5527">:Job</text><line style="stroke:#181818;stroke-width:1.0;" x1="237" x2="279" y1="210.3574" y2="210.3574"/><line style="stroke:#181818;stroke-width:1.0;" x1="279" x2="279" y1="210.3574" y2="223.3574"/><line style="stroke:#181818;stroke-width:1.0;" x1="238" x2="279" y1="223.3574" y2="223.3574"/><polygon fill="#181818" points="248,219.3574,238,223.3574,248,227.3574,244,223.3574" style="stroke:#181818;stroke-width:1.0;"/><text fill="#000000" font-family="sans-serif" font-size="13" font-weight="bold" lengthAdjust="spacing" textLength="14" x="244" y="205.0947">12</text><text fill="#000000" font-family="sans-serif" font-size="13" lengthAdjust="spacing" textLength="108" x="262" y="205.0947">validateSkill(name)</text><polygon fill="#181818" points="103,250.6484,93,254.6484,103,258.6484,99,254.6484" style="stroke:#181818;stroke-width:1.0;"/><line style="stroke:#181818;stroke-width:1.0;stroke-dasharray:2.0,2.0;" x1="97" x2="226" y1="254.6484" y2="254.6484"/><text fill="#000000" font-family="sans-serif" font-size="13" font-weight="bold" lengthAdjust="spacing" textLength="14" x="109" y="249.3857">13</text><text fill="#000000" font-family="sans-serif" font-size="13" lengthAdjust="spacing" textLength="32" x="127" y="249.3857">name</text><line style="stroke:#181818;stroke-width:1.0;" x1="92" x2="134" y1="290.9395" y2="290.9395"/><line style="stroke:#181818;stroke-width:1.0;" x1="134" x2="134" y1="290.9395" y2="303.9395"/><line style="stroke:#181818;stroke-width:1.0;" x1="87" x2="134" y1="303.9395" y2="303.9395"/><polygon fill="#181818" points="97,299.9395,87,303.9395,97,307.9395,93,303.9395" style="stroke:#181818;stroke-width:1.0;"/><text fill="#000000" font-family="sans-serif" font-size="13" font-weight="bold" lengthAdjust="spacing" textLength="14" x="99" y="285.6768">14</text><text fill="#000000" font-family="sans-serif" font-size="13" lengthAdjust="spacing" textLength="103" x="117" y="285.6768">validateJob(name)</text><line style="stroke:#181818;stroke-width:1.0;" x1="92" x2="134" y1="330.2305" y2="330.2305"/><line style="stroke:#181818;stroke-width:1.0;" x1="134" x2="134" y1="330.2305" y2="343.2305"/><line style="stroke:#181818;stroke-width:1.0;" x1="93" x2="134" y1="343.2305" y2="343.2305"/><polygon fill="#181818" points="103,339.2305,93,343.2305,103,347.2305,99,343.2305" style="stroke:#181818;stroke-width:1.0;"/><text fill="#000000" font-family="sans-serif" font-size="13" font-weight="bold" lengthAdjust="spacing" textLength="14" x="99" y="324.9678">15</text><text fill="#000000" font-family="sans-serif" font-size="13" lengthAdjust="spacing" textLength="81" x="117" y="324.9678">addJob(name)</text><line style="stroke:#181818;stroke-width:1.0;" x1="92" x2="134" y1="374.5215" y2="374.5215"/><line style="stroke:#181818;stroke-width:1.0;" x1="134" x2="134" y1="374.5215" y2="387.5215"/><line style="stroke:#181818;stroke-width:1.0;" x1="93" x2="134" y1="387.5215" y2="387.5215"/><polygon fill="#181818" points="103,383.5215,93,387.5215,103,391.5215,99,387.5215" style="stroke:#181818;stroke-width:1.0;"/><text fill="#000000" font-family="sans-serif" font-size="13" font-weight="bold" lengthAdjust="spacing" textLength="14" x="99" y="369.2588">16</text><text fill="#000000" font-family="sans-serif" font-size="13" lengthAdjust="spacing" textLength="53" x="117" y="369.2588">true/false</text><line style="stroke:#181818;stroke-width:1.0;" x1="92" x2="134" y1="418.8125" y2="418.8125"/><line style="stroke:#181818;stroke-width:1.0;" x1="134" x2="134" y1="418.8125" y2="431.8125"/><line style="stroke:#181818;stroke-width:1.0;" x1="93" x2="134" y1="431.8125" y2="431.8125"/><polygon fill="#181818" points="103,427.8125,93,431.8125,103,435.8125,99,431.8125" style="stroke:#181818;stroke-width:1.0;"/><text fill="#000000" font-family="sans-serif" font-size="13" font-weight="bold" lengthAdjust="spacing" textLength="14" x="99" y="413.5498">17</text><text fill="#000000" font-family="sans-serif" font-size="13" lengthAdjust="spacing" textLength="53" x="117" y="413.5498">true/false</text><polygon fill="#181818" points="11,466.1035,1,470.1035,11,474.1035,7,470.1035" style="stroke:#181818;stroke-width:1.0;"/><line style="stroke:#181818;stroke-width:1.0;stroke-dasharray:2.0,2.0;" x1="5" x2="86" y1="470.1035" y2="470.1035"/><text fill="#000000" font-family="sans-serif" font-size="13" font-weight="bold" lengthAdjust="spacing" textLength="14" x="17" y="464.8408">18</text><text fill="#000000" font-family="sans-serif" font-size="13" lengthAdjust="spacing" textLength="45" x="35" y="464.8408">jobsList</text><!--SRC=[fL9DIyGm4BtdLmnxqeMYNei88WYAiBAzUfbDncvicfGaNTb_Rz9gQ5C_a9rJUFFUl7bXN2DrXnPRQ8qsV6zDI-1jJyobJeUymPegVrG4bhX7NQifmUrHc7UfQtX5vOYn07l9POVQm-hDxDoMEkEaD_Rueil76R02T327vdgDBOsgWVgytTm_LDNjXZ7ilT5zkoCBLvUikCd6bC0jeG_x8FVo45wv3uIghUaxk1kOiSy6DDQS365-ybwlqt38AdbD5iqvgJKRMi81bHH1MpLIgRCO_FnNyI8ob11L2yqoIlvLNzO1_pJEPmZw9jh_ZL28dpt-biVRl1ZFx2Jne2OjniTrKIn_CXxkatIUiKdqx88-0000]--></g></svg>