<?xml version="1.0" encoding="us-ascii" standalone="no"?><svg xmlns="http://www.w3.org/2000/svg" xmlns:xlink="http://www.w3.org/1999/xlink" contentStyleType="text/css" height="727px" preserveAspectRatio="none" style="width:663px;height:727px;background:#FFFFFF;" version="1.1" viewBox="0 0 663 727" width="663px" zoomAndPan="magnify"><defs/><g><rect fill="#FFFFFF" height="504.6172" style="stroke:#181818;stroke-width:1.0;" width="10" x="76" y="112.2422"/><rect fill="#FFFFFF" height="149.4551" style="stroke:#181818;stroke-width:1.0;" width="10" x="286" y="135.5332"/><rect fill="#FFFFFF" height="228.998" style="stroke:#181818;stroke-width:1.0;" width="10" x="286" y="316.2793"/><rect fill="#FFFFFF" height="31.291" style="stroke:#181818;stroke-width:1.0;" width="10" x="286" y="576.5684"/><rect fill="#FFFFFF" height="108.1641" style="stroke:#181818;stroke-width:1.0;" width="10" x="439.5" y="176.8242"/><rect fill="#FFFFFF" height="149.125" style="stroke:#181818;stroke-width:1.0;" width="10" x="439.5" y="347.5703"/><rect fill="#FFFFFF" height="86.543" style="stroke:#181818;stroke-width:1.0;" width="10" x="584.5" y="378.8613"/><rect fill="none" height="192.707" style="stroke:#000000;stroke-width:1.5;" width="647" x="10" y="242.4063"/><line style="stroke:#181818;stroke-width:0.5;stroke-dasharray:5.0,5.0;" x1="81" x2="81" y1="102.2422" y2="625.8594"/><line style="stroke:#181818;stroke-width:0.5;stroke-dasharray:5.0,5.0;" x1="290.5" x2="290.5" y1="102.2422" y2="625.8594"/><line style="stroke:#181818;stroke-width:0.5;stroke-dasharray:5.0,5.0;" x1="444" x2="444" y1="175.3438" y2="625.8594"/><line style="stroke:#181818;stroke-width:0.5;stroke-dasharray:5.0,5.0;" x1="589" x2="589" y1="102.2422" y2="625.8594"/><text fill="#000000" font-family="sans-serif" font-size="14" lengthAdjust="spacing" textLength="116" x="20" y="80.1074">Human Resources</text><text fill="#000000" font-family="sans-serif" font-size="14" lengthAdjust="spacing" textLength="56" x="50" y="98.7285">Manager</text><ellipse cx="81" cy="13.5" fill="#E3E3E3" rx="8" ry="8" style="stroke:#181818;stroke-width:0.5;"/><path d="M81,21.5 L81,48.5 M68,29.5 L94,29.5 M81,48.5 L68,63.5 M81,48.5 L94,63.5 " fill="none" style="stroke:#181818;stroke-width:0.5;"/><text fill="#000000" font-family="sans-serif" font-size="14" lengthAdjust="spacing" textLength="116" x="20" y="639.9668">Human Resources</text><text fill="#000000" font-family="sans-serif" font-size="14" lengthAdjust="spacing" textLength="56" x="50" y="658.5879">Manager</text><ellipse cx="81" cy="670.6016" fill="#E3E3E3" rx="8" ry="8" style="stroke:#181818;stroke-width:0.5;"/><path d="M81,678.6016 L81,705.6016 M68,686.6016 L94,686.6016 M81,705.6016 L68,720.6016 M81,705.6016 L94,720.6016 " fill="none" style="stroke:#181818;stroke-width:0.5;"/><rect fill="#E3E3E3" height="32.6211" rx="2.5" ry="2.5" style="stroke:#181818;stroke-width:0.5;" width="105" x="238.5" y="68.6211"/><text fill="#000000" font-family="sans-serif" font-size="14" lengthAdjust="spacing" textLength="91" x="245.5" y="90.7285">:RegisterJobUI</text><rect fill="#E3E3E3" height="32.6211" rx="2.5" ry="2.5" style="stroke:#181818;stroke-width:0.5;" width="105" x="238.5" y="624.8594"/><text fill="#000000" font-family="sans-serif" font-size="14" lengthAdjust="spacing" textLength="91" x="245.5" y="646.9668">:RegisterJobUI</text><rect fill="#E3E3E3" height="32.6211" rx="2.5" ry="2.5" style="stroke:#181818;stroke-width:0.5;" width="155" x="367" y="624.8594"/><text fill="#000000" font-family="sans-serif" font-size="14" lengthAdjust="spacing" textLength="141" x="374" y="646.9668">:RegisterJobController</text><rect fill="#E3E3E3" height="51.2422" rx="2.5" ry="2.5" style="stroke:#181818;stroke-width:0.5;" width="115" x="532" y="50"/><text fill="#000000" font-family="sans-serif" font-size="14" lengthAdjust="spacing" textLength="94" x="542.5" y="72.1074">jobsRepository</text><text fill="#000000" font-family="sans-serif" font-size="14" lengthAdjust="spacing" textLength="101" x="539" y="90.7285">:JobsRepository</text><rect fill="#E3E3E3" height="51.2422" rx="2.5" ry="2.5" style="stroke:#181818;stroke-width:0.5;" width="115" x="532" y="624.8594"/><text fill="#000000" font-family="sans-serif" font-size="14" lengthAdjust="spacing" textLength="94" x="542.5" y="646.9668">jobsRepository</text><text fill="#000000" font-family="sans-serif" font-size="14" lengthAdjust="spacing" textLength="101" x="539" y="665.5879">:JobsRepository</text><rect fill="#FFFFFF" height="504.6172" style="stroke:#181818;stroke-width:1.0;" width="10" x="76" y="112.2422"/><rect fill="#FFFFFF" height="149.4551" style="stroke:#181818;stroke-width:1.0;" width="10" x="286" y="135.5332"/><rect fill="#FFFFFF" height="228.998" style="stroke:#181818;stroke-width:1.0;" width="10" x="286" y="316.2793"/><rect fill="#FFFFFF" height="31.291" style="stroke:#181818;stroke-width:1.0;" width="10" x="286" y="576.5684"/><rect fill="#FFFFFF" height="108.1641" style="stroke:#181818;stroke-width:1.0;" width="10" x="439.5" y="176.8242"/><rect fill="#FFFFFF" height="149.125" style="stroke:#181818;stroke-width:1.0;" width="10" x="439.5" y="347.5703"/><rect fill="#FFFFFF" height="86.543" style="stroke:#181818;stroke-width:1.0;" width="10" x="584.5" y="378.8613"/><polygon fill="#181818" points="274,131.5332,284,135.5332,274,139.5332,278,135.5332" style="stroke:#181818;stroke-width:1.0;"/><line style="stroke:#181818;stroke-width:1.0;" x1="86" x2="280" y1="135.5332" y2="135.5332"/><text fill="#000000" font-family="sans-serif" font-size="13" font-weight="bold" lengthAdjust="spacing" textLength="7" x="93" y="130.2705">1</text><text fill="#000000" font-family="sans-serif" font-size="13" lengthAdjust="spacing" textLength="138" x="104" y="130.2705">asks to regist a new job</text><polygon fill="#181818" points="355,162.8242,365,166.8242,355,170.8242,359,166.8242" style="stroke:#181818;stroke-width:1.0;"/><line style="stroke:#181818;stroke-width:1.0;" x1="296" x2="361" y1="166.8242" y2="166.8242"/><text fill="#000000" font-family="sans-serif" font-size="13" font-weight="bold" lengthAdjust="spacing" textLength="7" x="303" y="161.5615">2</text><text fill="#000000" font-family="sans-serif" font-size="13" lengthAdjust="spacing" textLength="36" x="314" y="161.5615">create</text><rect fill="#E3E3E3" height="32.6211" rx="2.5" ry="2.5" style="stroke:#181818;stroke-width:0.5;" width="155" x="367" y="143.5332"/><text fill="#000000" font-family="sans-serif" font-size="14" lengthAdjust="spacing" textLength="141" x="374" y="165.6406">:RegisterJobController</text><rect fill="none" height="43.252" style="stroke:#000000;stroke-width:1.5;" width="161" x="364" y="187.1543"/><path d="M364,187.1543 L426,187.1543 L426,196.1543 L416,206.1543 L364,206.1543 L364,187.1543 " fill="#EEEEEE" style="stroke:#000000;stroke-width:2.0;"/><text fill="#000000" font-family="sans-serif" font-size="13" font-weight="bold" lengthAdjust="spacing" textLength="17" x="377" y="203.1826">ref</text><text fill="#000000" font-family="sans-serif" font-size="12" lengthAdjust="spacing" textLength="111" x="389" y="223.1035">Get Jobs Repository</text><path d="M10,242.4063 L83,242.4063 L83,251.6973 L73,261.6973 L10,261.6973 L10,242.4063 " fill="#EEEEEE" style="stroke:#000000;stroke-width:1.5;"/><rect fill="none" height="192.707" style="stroke:#000000;stroke-width:1.5;" width="647" x="10" y="242.4063"/><text fill="#000000" font-family="sans-serif" font-size="13" font-weight="bold" lengthAdjust="spacing" textLength="28" x="25" y="257.4346">loop</text><text fill="#000000" font-family="sans-serif" font-size="11" font-weight="bold" lengthAdjust="spacing" textLength="90" x="98" y="256.2764">[while intended]</text><polygon fill="#181818" points="97,280.9883,87,284.9883,97,288.9883,93,284.9883" style="stroke:#181818;stroke-width:1.0;"/><line style="stroke:#181818;stroke-width:1.0;stroke-dasharray:2.0,2.0;" x1="91" x2="290" y1="284.9883" y2="284.9883"/><text fill="#000000" font-family="sans-serif" font-size="13" font-weight="bold" lengthAdjust="spacing" textLength="7" x="103" y="279.7256">7</text><text fill="#000000" font-family="sans-serif" font-size="13" lengthAdjust="spacing" textLength="129" x="114" y="279.7256">requests the job name</text><polygon fill="#181818" points="274,312.2793,284,316.2793,274,320.2793,278,316.2793" style="stroke:#181818;stroke-width:1.0;"/><line style="stroke:#181818;stroke-width:1.0;" x1="86" x2="280" y1="316.2793" y2="316.2793"/><text fill="#000000" font-family="sans-serif" font-size="13" font-weight="bold" lengthAdjust="spacing" textLength="7" x="93" y="311.0166">8</text><text fill="#000000" font-family="sans-serif" font-size="13" lengthAdjust="spacing" textLength="95" x="104" y="311.0166">type the new job</text><polygon fill="#181818" points="427.5,343.5703,437.5,347.5703,427.5,351.5703,431.5,347.5703" style="stroke:#181818;stroke-width:1.0;"/><line style="stroke:#181818;stroke-width:1.0;" x1="296" x2="433.5" y1="347.5703" y2="347.5703"/><text fill="#000000" font-family="sans-serif" font-size="13" font-weight="bold" lengthAdjust="spacing" textLength="7" x="303" y="342.3076">9</text><text fill="#000000" font-family="sans-serif" font-size="13" lengthAdjust="spacing" textLength="36" x="314" y="342.3076">create</text><polygon fill="#181818" points="572.5,374.8613,582.5,378.8613,572.5,382.8613,576.5,378.8613" style="stroke:#181818;stroke-width:1.0;"/><line style="stroke:#181818;stroke-width:1.0;" x1="449.5" x2="578.5" y1="378.8613" y2="378.8613"/><text fill="#000000" font-family="sans-serif" font-size="13" font-weight="bold" lengthAdjust="spacing" textLength="14" x="456.5" y="373.5986">10</text><text fill="#000000" font-family="sans-serif" font-size="13" lengthAdjust="spacing" textLength="36" x="474.5" y="373.5986">create</text><rect fill="none" height="43.252" style="stroke:#000000;stroke-width:1.5;" width="121" x="529" y="386.8613"/><path d="M529,386.8613 L591,386.8613 L591,395.8613 L581,405.8613 L529,405.8613 L529,386.8613 " fill="#EEEEEE" style="stroke:#000000;stroke-width:2.0;"/><text fill="#000000" font-family="sans-serif" font-size="13" font-weight="bold" lengthAdjust="spacing" textLength="17" x="542" y="402.8896">ref</text><text fill="#000000" font-family="sans-serif" font-size="12" lengthAdjust="spacing" textLength="72" x="553.5" y="422.8105">Get Jobs List</text><polygon fill="#181818" points="460.5,461.4043,450.5,465.4043,460.5,469.4043,456.5,465.4043" style="stroke:#181818;stroke-width:1.0;"/><line style="stroke:#181818;stroke-width:1.0;stroke-dasharray:2.0,2.0;" x1="454.5" x2="588.5" y1="465.4043" y2="465.4043"/><text fill="#000000" font-family="sans-serif" font-size="13" font-weight="bold" lengthAdjust="spacing" textLength="14" x="466.5" y="460.1416">18</text><text fill="#000000" font-family="sans-serif" font-size="13" lengthAdjust="spacing" textLength="45" x="484.5" y="460.1416">jobsList</text><polygon fill="#181818" points="307,492.6953,297,496.6953,307,500.6953,303,496.6953" style="stroke:#181818;stroke-width:1.0;"/><line style="stroke:#181818;stroke-width:1.0;stroke-dasharray:2.0,2.0;" x1="301" x2="443.5" y1="496.6953" y2="496.6953"/><text fill="#000000" font-family="sans-serif" font-size="13" font-weight="bold" lengthAdjust="spacing" textLength="14" x="313" y="491.4326">19</text><text fill="#000000" font-family="sans-serif" font-size="13" lengthAdjust="spacing" textLength="45" x="331" y="491.4326">jobsList</text><polygon fill="#181818" points="97,541.2773,87,545.2773,97,549.2773,93,545.2773" style="stroke:#181818;stroke-width:1.0;"/><line style="stroke:#181818;stroke-width:1.0;stroke-dasharray:2.0,2.0;" x1="91" x2="290" y1="545.2773" y2="545.2773"/><text fill="#000000" font-family="sans-serif" font-size="13" font-weight="bold" lengthAdjust="spacing" textLength="14" x="103" y="531.3691">20</text><text fill="#000000" font-family="sans-serif" font-size="13" lengthAdjust="spacing" textLength="95" x="121" y="522.7236">list all registered</text><text fill="#000000" font-family="sans-serif" font-size="13" lengthAdjust="spacing" textLength="142" x="125" y="540.0146">jobs and asks to confirm</text><polygon fill="#181818" points="274,572.5684,284,576.5684,274,580.5684,278,576.5684" style="stroke:#181818;stroke-width:1.0;"/><line style="stroke:#181818;stroke-width:1.0;" x1="86" x2="280" y1="576.5684" y2="576.5684"/><text fill="#000000" font-family="sans-serif" font-size="13" font-weight="bold" lengthAdjust="spacing" textLength="14" x="93" y="571.3057">21</text><text fill="#000000" font-family="sans-serif" font-size="13" lengthAdjust="spacing" textLength="94" x="111" y="571.3057">confirms all jobs</text><polygon fill="#181818" points="97,603.8594,87,607.8594,97,611.8594,93,607.8594" style="stroke:#181818;stroke-width:1.0;"/><line style="stroke:#181818;stroke-width:1.0;stroke-dasharray:2.0,2.0;" x1="91" x2="290" y1="607.8594" y2="607.8594"/><text fill="#000000" font-family="sans-serif" font-size="13" font-weight="bold" lengthAdjust="spacing" textLength="14" x="103" y="602.5967">22</text><text fill="#000000" font-family="sans-serif" font-size="13" lengthAdjust="spacing" textLength="158" x="121" y="602.5967">displays operation success</text><!--SRC=[TLEnSjim3Dtv5JYFkSlGgJqFNJ8qoIMBscnUO0gsMLE0IbBn-UyBKfOgCQacYNmFUEy1YcV7FGRie1CMUmhI4QGma8dpJO_sZ4VwcQwU891Do4U_1CGJjd9nV8G3-aZ6e4qIOFCuTCZGK9GXM8exVaNMGc436E6nUJLAJyww7Zd1PjlGqSL4uLdsRqy5y_RqVyY3S0hY_QtSmw_cPGt-BVlOK2_HgPZhZhVFguF2MX-fy2493zsU0dmfDjmx9YfQ3UYZBt3_NNN1Lkdd24aqaQm949Wke4t_qLH-OIbSILdXtPqIRI2zNPGlsasW0yYxTYwVcVU3Kb482ud4hNOy6DDInVSYFLnEJeVaE2cEsh7zmjJNSZ1fKb7Pq5OB_Xae9hLpecm163igqBfBTPOTVWWcNNigbQP0YeW5PQbXp6KEPGKTVKte_9Nnwvd1vzHwiFbo3hYwd1hCSR_eFClf7BQ-h9VZcp6LZlkR5HMKDw_KM2HL2nhTJ95znXZTh-Raow9vVziv2jJkk901LUgqaLRuu4BtSKUgoIs7TkF4KZvNNA_nIaRhOk_n6a5w2fYSCCJ1wXyUwmv_0G00]--></g></svg>