<?xml version="1.0" encoding="UTF-8" standalone="no"?><svg xmlns="http://www.w3.org/2000/svg" xmlns:xlink="http://www.w3.org/1999/xlink" contentStyleType="text/css" height="944px" preserveAspectRatio="none" style="width:918px;height:944px;background:#FFFFFF;" version="1.1" viewBox="0 0 918 944" width="918px" zoomAndPan="magnify"><defs/><g><rect fill="#FFFFFF" height="687.3195" style="stroke:#181818;stroke-width:1.0;" width="10" x="103" y="129.4799"/><rect fill="#FFFFFF" height="211.4398" style="stroke:#181818;stroke-width:1.0;" width="10" x="411" y="162.7199"/><rect fill="#FFFFFF" height="309.9198" style="stroke:#181818;stroke-width:1.0;" width="10" x="411" y="415.3997"/><rect fill="#FFFFFF" height="41.24" style="stroke:#181818;stroke-width:1.0;" width="10" x="411" y="766.5595"/><rect fill="#FFFFFF" height="160.1999" style="stroke:#181818;stroke-width:1.0;" width="10" x="621.5" y="213.9599"/><rect fill="#FFFFFF" height="200.1999" style="stroke:#181818;stroke-width:1.0;" width="10" x="621.5" y="456.6397"/><rect fill="#FFFFFF" height="117.7199" style="stroke:#181818;stroke-width:1.0;" width="10" x="818.5" y="497.8797"/><rect fill="none" height="275.9198" style="stroke:#000000;stroke-width:1.5;" width="902" x="10" y="299.4398"/><line style="stroke:#181818;stroke-width:0.5;stroke-dasharray:5.0,5.0;" x1="108" x2="108" y1="119.4799" y2="825.7995"/><line style="stroke:#181818;stroke-width:0.5;stroke-dasharray:5.0,5.0;" x1="416" x2="416" y1="119.4799" y2="825.7995"/><line style="stroke:#181818;stroke-width:0.5;stroke-dasharray:5.0,5.0;" x1="626" x2="626" y1="206.8399" y2="825.7995"/><line style="stroke:#181818;stroke-width:0.5;stroke-dasharray:5.0,5.0;" x1="823" x2="823" y1="119.4799" y2="825.7995"/><text fill="#000000" font-family="sans-serif" font-size="20" lengthAdjust="spacing" textLength="170" x="20" y="86.38">Human Resources</text><text fill="#000000" font-family="sans-serif" font-size="20" lengthAdjust="spacing" textLength="83" x="63.5" y="113.62">Manager</text><ellipse cx="108" cy="13.5" fill="#E3E3E3" rx="8" ry="8" style="stroke:#181818;stroke-width:0.5;"/><path d="M108,21.5 L108,48.5 M95,29.5 L121,29.5 M108,48.5 L95,63.5 M108,48.5 L121,63.5 " fill="none" style="stroke:#181818;stroke-width:0.5;"/><text fill="#000000" font-family="sans-serif" font-size="20" lengthAdjust="spacing" textLength="170" x="20" y="846.1795">Human Resources</text><text fill="#000000" font-family="sans-serif" font-size="20" lengthAdjust="spacing" textLength="83" x="63.5" y="873.4195">Manager</text><ellipse cx="108" cy="887.7794" fill="#E3E3E3" rx="8" ry="8" style="stroke:#181818;stroke-width:0.5;"/><path d="M108,895.7794 L108,922.7794 M95,903.7794 L121,903.7794 M108,922.7794 L95,937.7794 M108,922.7794 L121,937.7794 " fill="none" style="stroke:#181818;stroke-width:0.5;"/><rect fill="#E3E3E3" height="41.24" rx="2.5" ry="2.5" style="stroke:#181818;stroke-width:0.5;" width="146" x="343" y="77.24"/><text fill="#000000" font-family="sans-serif" font-size="20" lengthAdjust="spacing" textLength="132" x="350" y="105.62">:RegisterJobUI</text><rect fill="#E3E3E3" height="41.24" rx="2.5" ry="2.5" style="stroke:#181818;stroke-width:0.5;" width="146" x="343" y="824.7995"/><text fill="#000000" font-family="sans-serif" font-size="20" lengthAdjust="spacing" textLength="132" x="350" y="853.1795">:RegisterJobUI</text><rect fill="#E3E3E3" height="41.24" rx="2.5" ry="2.5" style="stroke:#181818;stroke-width:0.5;" width="217" x="518" y="824.7995"/><text fill="#000000" font-family="sans-serif" font-size="20" lengthAdjust="spacing" textLength="203" x="525" y="853.1795">:RegisterJobController</text><rect fill="#E3E3E3" height="68.4799" rx="2.5" ry="2.5" style="stroke:#181818;stroke-width:0.5;" width="157" x="745" y="50"/><text fill="#000000" font-family="sans-serif" font-size="20" lengthAdjust="spacing" textLength="138" x="754.5" y="78.38">jobsRepository</text><text fill="#000000" font-family="sans-serif" font-size="20" lengthAdjust="spacing" textLength="143" x="752" y="105.62">:JobsRepository</text><rect fill="#E3E3E3" height="68.4799" rx="2.5" ry="2.5" style="stroke:#181818;stroke-width:0.5;" width="157" x="745" y="824.7995"/><text fill="#000000" font-family="sans-serif" font-size="20" lengthAdjust="spacing" textLength="138" x="754.5" y="853.1795">jobsRepository</text><text fill="#000000" font-family="sans-serif" font-size="20" lengthAdjust="spacing" textLength="143" x="752" y="880.4195">:JobsRepository</text><rect fill="#FFFFFF" height="687.3195" style="stroke:#181818;stroke-width:1.0;" width="10" x="103" y="129.4799"/><rect fill="#FFFFFF" height="211.4398" style="stroke:#181818;stroke-width:1.0;" width="10" x="411" y="162.7199"/><rect fill="#FFFFFF" height="309.9198" style="stroke:#181818;stroke-width:1.0;" width="10" x="411" y="415.3997"/><rect fill="#FFFFFF" height="41.24" style="stroke:#181818;stroke-width:1.0;" width="10" x="411" y="766.5595"/><rect fill="#FFFFFF" height="160.1999" style="stroke:#181818;stroke-width:1.0;" width="10" x="621.5" y="213.9599"/><rect fill="#FFFFFF" height="200.1999" style="stroke:#181818;stroke-width:1.0;" width="10" x="621.5" y="456.6397"/><rect fill="#FFFFFF" height="117.7199" style="stroke:#181818;stroke-width:1.0;" width="10" x="818.5" y="497.8797"/><polygon fill="#181818" points="399,158.7199,409,162.7199,399,166.7199,403,162.7199" style="stroke:#181818;stroke-width:1.0;"/><line style="stroke:#181818;stroke-width:1.0;" x1="113" x2="405" y1="162.7199" y2="162.7199"/><text fill="#000000" font-family="sans-serif" font-size="20" font-weight="bold" lengthAdjust="spacing" textLength="11" x="120" y="154.8599">1</text><text fill="#000000" font-family="sans-serif" font-size="20" lengthAdjust="spacing" textLength="218" x="135" y="154.8599">asks to regist a new job</text><polygon fill="#181818" points="506,199.9599,516,203.9599,506,207.9599,510,203.9599" style="stroke:#181818;stroke-width:1.0;"/><line style="stroke:#181818;stroke-width:1.0;" x1="421" x2="512" y1="203.9599" y2="203.9599"/><text fill="#000000" font-family="sans-serif" font-size="20" font-weight="bold" lengthAdjust="spacing" textLength="11" x="428" y="196.0999">2</text><text fill="#000000" font-family="sans-serif" font-size="20" lengthAdjust="spacing" textLength="58" x="443" y="196.0999">create</text><rect fill="#E3E3E3" height="41.24" rx="2.5" ry="2.5" style="stroke:#181818;stroke-width:0.5;" width="217" x="518" y="170.7199"/><text fill="#000000" font-family="sans-serif" font-size="20" lengthAdjust="spacing" textLength="203" x="525" y="199.0999">:RegisterJobController</text><rect fill="none" height="64.4799" style="stroke:#000000;stroke-width:1.5;" width="223" x="515" y="222.9599"/><path d="M515,222.9599 L589,222.9599 L589,241.9599 L579,251.9599 L515,251.9599 L515,222.9599 " fill="#EEEEEE" style="stroke:#000000;stroke-width:2.0;"/><text fill="#000000" font-family="sans-serif" font-size="20" font-weight="bold" lengthAdjust="spacing" textLength="29" x="528" y="246.3399">ref</text><text fill="#000000" font-family="sans-serif" font-size="20" lengthAdjust="spacing" textLength="181" x="536" y="277.3399">Get Jobs Repository</text><path d="M10,299.4398 L98,299.4398 L98,318.6798 L88,328.6798 L10,328.6798 L10,299.4398 " fill="#EEEEEE" style="stroke:#000000;stroke-width:1.5;"/><rect fill="none" height="275.9198" style="stroke:#000000;stroke-width:1.5;" width="902" x="10" y="299.4398"/><text fill="#000000" font-family="sans-serif" font-size="20" font-weight="bold" lengthAdjust="spacing" textLength="43" x="25" y="321.8198">loop</text><text fill="#000000" font-family="sans-serif" font-size="20" font-weight="bold" lengthAdjust="spacing" textLength="164" x="113" y="322.8198">[while intended]</text><polygon fill="#181818" points="124,370.1598,114,374.1598,124,378.1598,120,374.1598" style="stroke:#181818;stroke-width:1.0;"/><line style="stroke:#181818;stroke-width:1.0;stroke-dasharray:2.0,2.0;" x1="118" x2="415" y1="374.1598" y2="374.1598"/><text fill="#000000" font-family="sans-serif" font-size="20" font-weight="bold" lengthAdjust="spacing" textLength="11" x="130" y="366.2998">7</text><text fill="#000000" font-family="sans-serif" font-size="20" lengthAdjust="spacing" textLength="208" x="145" y="366.2998">requests the job name</text><polygon fill="#181818" points="399,411.3997,409,415.3997,399,419.3997,403,415.3997" style="stroke:#181818;stroke-width:1.0;"/><line style="stroke:#181818;stroke-width:1.0;" x1="113" x2="405" y1="415.3997" y2="415.3997"/><text fill="#000000" font-family="sans-serif" font-size="20" font-weight="bold" lengthAdjust="spacing" textLength="11" x="120" y="407.5398">8</text><text fill="#000000" font-family="sans-serif" font-size="20" lengthAdjust="spacing" textLength="153" x="135" y="407.5398">type the new job</text><polygon fill="#181818" points="609.5,452.6397,619.5,456.6397,609.5,460.6397,613.5,456.6397" style="stroke:#181818;stroke-width:1.0;"/><line style="stroke:#181818;stroke-width:1.0;" x1="421" x2="615.5" y1="456.6397" y2="456.6397"/><text fill="#000000" font-family="sans-serif" font-size="20" font-weight="bold" lengthAdjust="spacing" textLength="11" x="428" y="448.7797">9</text><text fill="#000000" font-family="sans-serif" font-size="20" lengthAdjust="spacing" textLength="58" x="443" y="448.7797">create</text><polygon fill="#181818" points="806.5,493.8797,816.5,497.8797,806.5,501.8797,810.5,497.8797" style="stroke:#181818;stroke-width:1.0;"/><line style="stroke:#181818;stroke-width:1.0;" x1="631.5" x2="812.5" y1="497.8797" y2="497.8797"/><text fill="#000000" font-family="sans-serif" font-size="20" font-weight="bold" lengthAdjust="spacing" textLength="22" x="638.5" y="490.0197">10</text><text fill="#000000" font-family="sans-serif" font-size="20" lengthAdjust="spacing" textLength="58" x="664.5" y="490.0197">create</text><rect fill="none" height="64.4799" style="stroke:#000000;stroke-width:1.5;" width="163" x="742" y="505.8797"/><path d="M742,505.8797 L816,505.8797 L816,524.8797 L806,534.8797 L742,534.8797 L742,505.8797 " fill="#EEEEEE" style="stroke:#000000;stroke-width:2.0;"/><text fill="#000000" font-family="sans-serif" font-size="20" font-weight="bold" lengthAdjust="spacing" textLength="29" x="755" y="529.2597">ref</text><text fill="#000000" font-family="sans-serif" font-size="20" lengthAdjust="spacing" textLength="114" x="766.5" y="560.2597">Get Jobs List</text><polygon fill="#181818" points="642.5,611.5996,632.5,615.5996,642.5,619.5996,638.5,615.5996" style="stroke:#181818;stroke-width:1.0;"/><line style="stroke:#181818;stroke-width:1.0;stroke-dasharray:2.0,2.0;" x1="636.5" x2="822.5" y1="615.5996" y2="615.5996"/><text fill="#000000" font-family="sans-serif" font-size="20" font-weight="bold" lengthAdjust="spacing" textLength="22" x="648.5" y="607.7396">18</text><text fill="#000000" font-family="sans-serif" font-size="20" lengthAdjust="spacing" textLength="71" x="674.5" y="607.7396">jobsList</text><polygon fill="#181818" points="432,652.8396,422,656.8396,432,660.8396,428,656.8396" style="stroke:#181818;stroke-width:1.0;"/><line style="stroke:#181818;stroke-width:1.0;stroke-dasharray:2.0,2.0;" x1="426" x2="625.5" y1="656.8396" y2="656.8396"/><text fill="#000000" font-family="sans-serif" font-size="20" font-weight="bold" lengthAdjust="spacing" textLength="22" x="438" y="648.9796">19</text><text fill="#000000" font-family="sans-serif" font-size="20" lengthAdjust="spacing" textLength="71" x="464" y="648.9796">jobsList</text><polygon fill="#181818" points="124,721.3195,114,725.3195,124,729.3195,120,725.3195" style="stroke:#181818;stroke-width:1.0;"/><line style="stroke:#181818;stroke-width:1.0;stroke-dasharray:2.0,2.0;" x1="118" x2="415" y1="725.3195" y2="725.3195"/><text fill="#000000" font-family="sans-serif" font-size="20" font-weight="bold" lengthAdjust="spacing" textLength="22" x="130" y="703.8396">20</text><text fill="#000000" font-family="sans-serif" font-size="20" lengthAdjust="spacing" textLength="153" x="156" y="690.2196">list all registered</text><text fill="#000000" font-family="sans-serif" font-size="20" lengthAdjust="spacing" textLength="228" x="161" y="717.4596">jobs and asks to confirm</text><polygon fill="#181818" points="399,762.5595,409,766.5595,399,770.5595,403,766.5595" style="stroke:#181818;stroke-width:1.0;"/><line style="stroke:#181818;stroke-width:1.0;" x1="113" x2="405" y1="766.5595" y2="766.5595"/><text fill="#000000" font-family="sans-serif" font-size="20" font-weight="bold" lengthAdjust="spacing" textLength="22" x="120" y="758.6995">21</text><text fill="#000000" font-family="sans-serif" font-size="20" lengthAdjust="spacing" textLength="153" x="146" y="758.6995">confirms all jobs</text><polygon fill="#181818" points="124,803.7995,114,807.7995,124,811.7995,120,807.7995" style="stroke:#181818;stroke-width:1.0;"/><line style="stroke:#181818;stroke-width:1.0;stroke-dasharray:2.0,2.0;" x1="118" x2="415" y1="807.7995" y2="807.7995"/><text fill="#000000" font-family="sans-serif" font-size="20" font-weight="bold" lengthAdjust="spacing" textLength="22" x="130" y="799.9395">22</text><text fill="#000000" font-family="sans-serif" font-size="20" lengthAdjust="spacing" textLength="248" x="156" y="799.9395">displays operation success</text><!--SRC=[TLEnRjim4Dtv5GUF0GAqNHfuw1AWJO9aKPBDovawsQmfdafICTolxv6oN599D4daUtVllJk5Wt43UkmjwmErq5A7euq_sSLdyvVWsnSLPWZqx5ZlFVS4qOzKt0oe3xYZvtYo19vqHBUp9I3iiUMZSJleq0PI2dLa3wkxiKS73GKUlQQmSK_ef91V0GQuQvwKqAFHPa0NORLkQ6T29F_0szVxZ7cz_nnoAouyMtikT_lIFDRWtxmD3GqSZ8WvRTpweJh8hFf8X8-HtTXloSFNRCEyOQIiLO4yyWBNFqGNh8L-211P4acQ0C7H4QJfVvh8poo12oaflBeIelOajqNvh5rvwe3Vf7F-JBnV5BD2A2IIQwLZfrHB2xvb7k2uDp8auwBWg9tQ5wQ-vuDPauXAXjPIyCz88OgTFIKBuB2d35rsMPmbX- -2YQU1SgKva2oYe9GQfbmkeLJGoTUCJby9NyyCFgOk1vikBm4lBkS6bxWVPPxvz1AslDJBSQFKGiVrsOe8IfkNQnH9BGLDRkR8Fc9CxgivsRnerfvtZZor6vV9W29rtaZDhZE-VxyZYycLGpjpGYwVAjPhNCbeJHWidWBmG1wZOGTXrFA7XsM7Vm00]--></g></svg>