<?xml version="1.0" encoding="us-ascii" standalone="no"?><svg xmlns="http://www.w3.org/2000/svg" xmlns:xlink="http://www.w3.org/1999/xlink" contentStyleType="text/css" height="741px" preserveAspectRatio="none" style="width:818px;height:741px;background:#FFFFFF;" version="1.1" viewBox="0 0 818 741" width="818px" zoomAndPan="magnify"><defs/><g><rect fill="#FFFFFF" height="518.6172" style="stroke:#181818;stroke-width:1.0;" width="10" x="76" y="112.2422"/><rect fill="#FFFFFF" height="180.7461" style="stroke:#181818;stroke-width:1.0;" width="10" x="369" y="135.5332"/><rect fill="#FFFFFF" height="211.707" style="stroke:#181818;stroke-width:1.0;" width="10" x="369" y="347.5703"/><rect fill="#FFFFFF" height="31.291" style="stroke:#181818;stroke-width:1.0;" width="10" x="369" y="590.5684"/><rect fill="#FFFFFF" height="81.873" style="stroke:#181818;stroke-width:1.0;" width="10" x="549" y="176.8242"/><rect fill="#FFFFFF" height="149.125" style="stroke:#181818;stroke-width:1.0;" width="10" x="549" y="378.8613"/><rect fill="#FFFFFF" height="86.543" style="stroke:#181818;stroke-width:1.0;" width="10" x="713.5" y="410.1523"/><rect fill="none" height="192.707" style="stroke:#000000;stroke-width:1.5;" width="802" x="10" y="273.6973"/><line style="stroke:#181818;stroke-width:0.5;stroke-dasharray:5.0,5.0;" x1="81" x2="81" y1="102.2422" y2="639.8594"/><line style="stroke:#181818;stroke-width:0.5;stroke-dasharray:5.0,5.0;" x1="374" x2="374" y1="102.2422" y2="639.8594"/><line style="stroke:#181818;stroke-width:0.5;stroke-dasharray:5.0,5.0;" x1="554" x2="554" y1="175.3438" y2="639.8594"/><line style="stroke:#181818;stroke-width:0.5;stroke-dasharray:5.0,5.0;" x1="718" x2="718" y1="102.2422" y2="639.8594"/><text fill="#000000" font-family="sans-serif" font-size="14" lengthAdjust="spacing" textLength="116" x="20" y="80.1074">Human Resources</text><text fill="#000000" font-family="sans-serif" font-size="14" lengthAdjust="spacing" textLength="56" x="50" y="98.7285">Manager</text><ellipse cx="81" cy="13.5" fill="#E3E3E3" rx="8" ry="8" style="stroke:#181818;stroke-width:0.5;"/><path d="M81,21.5 L81,48.5 M68,29.5 L94,29.5 M81,48.5 L68,63.5 M81,48.5 L94,63.5 " fill="none" style="stroke:#181818;stroke-width:0.5;"/><text fill="#000000" font-family="sans-serif" font-size="14" lengthAdjust="spacing" textLength="116" x="20" y="653.9668">Human Resources</text><text fill="#000000" font-family="sans-serif" font-size="14" lengthAdjust="spacing" textLength="56" x="50" y="672.5879">Manager</text><ellipse cx="81" cy="684.6016" fill="#E3E3E3" rx="8" ry="8" style="stroke:#181818;stroke-width:0.5;"/><path d="M81,692.6016 L81,719.6016 M68,700.6016 L94,700.6016 M81,719.6016 L68,734.6016 M81,719.6016 L94,734.6016 " fill="none" style="stroke:#181818;stroke-width:0.5;"/><rect fill="#E3E3E3" height="32.6211" rx="2.5" ry="2.5" style="stroke:#181818;stroke-width:0.5;" width="92" x="328" y="68.6211"/><text fill="#000000" font-family="sans-serif" font-size="14" lengthAdjust="spacing" textLength="78" x="335" y="90.7285">:RegistJobUI</text><rect fill="#E3E3E3" height="32.6211" rx="2.5" ry="2.5" style="stroke:#181818;stroke-width:0.5;" width="92" x="328" y="638.8594"/><text fill="#000000" font-family="sans-serif" font-size="14" lengthAdjust="spacing" textLength="78" x="335" y="660.9668">:RegistJobUI</text><rect fill="#E3E3E3" height="32.6211" rx="2.5" ry="2.5" style="stroke:#181818;stroke-width:0.5;" width="142" x="483" y="638.8594"/><text fill="#000000" font-family="sans-serif" font-size="14" lengthAdjust="spacing" textLength="128" x="490" y="660.9668">:RegistJobController</text><rect fill="#E3E3E3" height="51.2422" rx="2.5" ry="2.5" style="stroke:#181818;stroke-width:0.5;" width="167" x="635" y="50"/><text fill="#000000" font-family="sans-serif" font-size="14" lengthAdjust="spacing" textLength="152" x="642.5" y="72.1074">registedJobsRepository:</text><text fill="#000000" font-family="sans-serif" font-size="14" lengthAdjust="spacing" textLength="153" x="642" y="90.7285">RegistedJobsRepository</text><rect fill="#E3E3E3" height="51.2422" rx="2.5" ry="2.5" style="stroke:#181818;stroke-width:0.5;" width="167" x="635" y="638.8594"/><text fill="#000000" font-family="sans-serif" font-size="14" lengthAdjust="spacing" textLength="152" x="642.5" y="660.9668">registedJobsRepository:</text><text fill="#000000" font-family="sans-serif" font-size="14" lengthAdjust="spacing" textLength="153" x="642" y="679.5879">RegistedJobsRepository</text><rect fill="#FFFFFF" height="518.6172" style="stroke:#181818;stroke-width:1.0;" width="10" x="76" y="112.2422"/><rect fill="#FFFFFF" height="180.7461" style="stroke:#181818;stroke-width:1.0;" width="10" x="369" y="135.5332"/><rect fill="#FFFFFF" height="211.707" style="stroke:#181818;stroke-width:1.0;" width="10" x="369" y="347.5703"/><rect fill="#FFFFFF" height="31.291" style="stroke:#181818;stroke-width:1.0;" width="10" x="369" y="590.5684"/><rect fill="#FFFFFF" height="81.873" style="stroke:#181818;stroke-width:1.0;" width="10" x="549" y="176.8242"/><rect fill="#FFFFFF" height="149.125" style="stroke:#181818;stroke-width:1.0;" width="10" x="549" y="378.8613"/><rect fill="#FFFFFF" height="86.543" style="stroke:#181818;stroke-width:1.0;" width="10" x="713.5" y="410.1523"/><polygon fill="#181818" points="357,131.5332,367,135.5332,357,139.5332,361,135.5332" style="stroke:#181818;stroke-width:1.0;"/><line style="stroke:#181818;stroke-width:1.0;" x1="86" x2="363" y1="135.5332" y2="135.5332"/><text fill="#000000" font-family="sans-serif" font-size="13" font-weight="bold" lengthAdjust="spacing" textLength="7" x="93" y="130.2705">1</text><text fill="#000000" font-family="sans-serif" font-size="13" lengthAdjust="spacing" textLength="138" x="104" y="130.2705">asks to regist a new job</text><polygon fill="#181818" points="471,162.8242,481,166.8242,471,170.8242,475,166.8242" style="stroke:#181818;stroke-width:1.0;"/><line style="stroke:#181818;stroke-width:1.0;" x1="379" x2="477" y1="166.8242" y2="166.8242"/><text fill="#000000" font-family="sans-serif" font-size="13" font-weight="bold" lengthAdjust="spacing" textLength="7" x="386" y="161.5615">2</text><text fill="#000000" font-family="sans-serif" font-size="13" lengthAdjust="spacing" textLength="36" x="397" y="161.5615">create</text><rect fill="#E3E3E3" height="32.6211" rx="2.5" ry="2.5" style="stroke:#181818;stroke-width:0.5;" width="142" x="483" y="143.5332"/><text fill="#000000" font-family="sans-serif" font-size="14" lengthAdjust="spacing" textLength="128" x="490" y="165.6406">:RegistJobController</text><rect fill="none" height="43.252" style="stroke:#000000;stroke-width:1.5;" width="172" x="480" y="187.1543"/><path d="M480,187.1543 L542,187.1543 L542,196.1543 L532,206.1543 L480,206.1543 L480,187.1543 " fill="#EEEEEE" style="stroke:#000000;stroke-width:2.0;"/><text fill="#000000" font-family="sans-serif" font-size="13" font-weight="bold" lengthAdjust="spacing" textLength="17" x="493" y="203.1826">ref</text><text fill="#000000" font-family="sans-serif" font-size="12" lengthAdjust="spacing" textLength="164" x="484" y="223.1035">Get Registed Jobs Repository</text><polygon fill="#181818" points="390,254.6973,380,258.6973,390,262.6973,386,258.6973" style="stroke:#181818;stroke-width:1.0;"/><line style="stroke:#181818;stroke-width:1.0;stroke-dasharray:2.0,2.0;" x1="384" x2="553" y1="258.6973" y2="258.6973"/><text fill="#000000" font-family="sans-serif" font-size="13" font-weight="bold" lengthAdjust="spacing" textLength="7" x="396" y="253.4346">3</text><text fill="#000000" font-family="sans-serif" font-size="13" lengthAdjust="spacing" textLength="135" x="407" y="253.4346">registedJobsRepository</text><path d="M10,273.6973 L83,273.6973 L83,282.9883 L73,292.9883 L10,292.9883 L10,273.6973 " fill="#EEEEEE" style="stroke:#000000;stroke-width:1.5;"/><rect fill="none" height="192.707" style="stroke:#000000;stroke-width:1.5;" width="802" x="10" y="273.6973"/><text fill="#000000" font-family="sans-serif" font-size="13" font-weight="bold" lengthAdjust="spacing" textLength="28" x="25" y="288.7256">loop</text><text fill="#000000" font-family="sans-serif" font-size="11" font-weight="bold" lengthAdjust="spacing" textLength="90" x="98" y="287.5674">[while intended]</text><polygon fill="#181818" points="97,312.2793,87,316.2793,97,320.2793,93,316.2793" style="stroke:#181818;stroke-width:1.0;"/><line style="stroke:#181818;stroke-width:1.0;stroke-dasharray:2.0,2.0;" x1="91" x2="373" y1="316.2793" y2="316.2793"/><text fill="#000000" font-family="sans-serif" font-size="13" font-weight="bold" lengthAdjust="spacing" textLength="7" x="103" y="311.0166">4</text><text fill="#000000" font-family="sans-serif" font-size="13" lengthAdjust="spacing" textLength="129" x="114" y="311.0166">requests the job name</text><polygon fill="#181818" points="357,343.5703,367,347.5703,357,351.5703,361,347.5703" style="stroke:#181818;stroke-width:1.0;"/><line style="stroke:#181818;stroke-width:1.0;" x1="86" x2="363" y1="347.5703" y2="347.5703"/><text fill="#000000" font-family="sans-serif" font-size="13" font-weight="bold" lengthAdjust="spacing" textLength="7" x="93" y="342.3076">5</text><text fill="#000000" font-family="sans-serif" font-size="13" lengthAdjust="spacing" textLength="95" x="104" y="342.3076">type the new job</text><polygon fill="#181818" points="537,374.8613,547,378.8613,537,382.8613,541,378.8613" style="stroke:#181818;stroke-width:1.0;"/><line style="stroke:#181818;stroke-width:1.0;stroke-dasharray:2.0,2.0;" x1="379" x2="543" y1="378.8613" y2="378.8613"/><text fill="#000000" font-family="sans-serif" font-size="13" font-weight="bold" lengthAdjust="spacing" textLength="7" x="386" y="373.5986">6</text><text fill="#000000" font-family="sans-serif" font-size="13" lengthAdjust="spacing" textLength="56" x="397" y="373.5986">createJob</text><polygon fill="#181818" points="701.5,406.1523,711.5,410.1523,701.5,414.1523,705.5,410.1523" style="stroke:#181818;stroke-width:1.0;"/><line style="stroke:#181818;stroke-width:1.0;stroke-dasharray:2.0,2.0;" x1="559" x2="707.5" y1="410.1523" y2="410.1523"/><text fill="#000000" font-family="sans-serif" font-size="13" font-weight="bold" lengthAdjust="spacing" textLength="7" x="566" y="404.8896">7</text><text fill="#000000" font-family="sans-serif" font-size="13" lengthAdjust="spacing" textLength="56" x="577" y="404.8896">createJob</text><rect fill="none" height="43.252" style="stroke:#000000;stroke-width:1.5;" width="173" x="632" y="418.1523"/><path d="M632,418.1523 L694,418.1523 L694,427.1523 L684,437.1523 L632,437.1523 L632,418.1523 " fill="#EEEEEE" style="stroke:#000000;stroke-width:2.0;"/><text fill="#000000" font-family="sans-serif" font-size="13" font-weight="bold" lengthAdjust="spacing" textLength="17" x="645" y="434.1807">ref</text><text fill="#000000" font-family="sans-serif" font-size="12" lengthAdjust="spacing" textLength="125" x="656" y="454.1016">Get Registed Jobs List</text><polygon fill="#181818" points="570,492.6953,560,496.6953,570,500.6953,566,496.6953" style="stroke:#181818;stroke-width:1.0;"/><line style="stroke:#181818;stroke-width:1.0;stroke-dasharray:2.0,2.0;" x1="564" x2="717.5" y1="496.6953" y2="496.6953"/><text fill="#000000" font-family="sans-serif" font-size="13" font-weight="bold" lengthAdjust="spacing" textLength="7" x="576" y="491.4326">8</text><text fill="#000000" font-family="sans-serif" font-size="13" lengthAdjust="spacing" textLength="94" x="587" y="491.4326">registedJobsList</text><polygon fill="#181818" points="390,523.9863,380,527.9863,390,531.9863,386,527.9863" style="stroke:#181818;stroke-width:1.0;"/><line style="stroke:#181818;stroke-width:1.0;stroke-dasharray:2.0,2.0;" x1="384" x2="553" y1="527.9863" y2="527.9863"/><text fill="#000000" font-family="sans-serif" font-size="13" font-weight="bold" lengthAdjust="spacing" textLength="7" x="396" y="522.7236">9</text><text fill="#000000" font-family="sans-serif" font-size="13" lengthAdjust="spacing" textLength="94" x="407" y="522.7236">registedJobsList</text><polygon fill="#181818" points="97,555.2773,87,559.2773,97,563.2773,93,559.2773" style="stroke:#181818;stroke-width:1.0;"/><line style="stroke:#181818;stroke-width:1.0;stroke-dasharray:2.0,2.0;" x1="91" x2="373" y1="559.2773" y2="559.2773"/><text fill="#000000" font-family="sans-serif" font-size="13" font-weight="bold" lengthAdjust="spacing" textLength="14" x="103" y="554.0146">10</text><text fill="#000000" font-family="sans-serif" font-size="13" lengthAdjust="spacing" textLength="241" x="121" y="554.0146">list all registered jobs and asks to confirm</text><polygon fill="#181818" points="357,586.5684,367,590.5684,357,594.5684,361,590.5684" style="stroke:#181818;stroke-width:1.0;"/><line style="stroke:#181818;stroke-width:1.0;" x1="86" x2="363" y1="590.5684" y2="590.5684"/><text fill="#000000" font-family="sans-serif" font-size="13" font-weight="bold" lengthAdjust="spacing" textLength="14" x="93" y="585.3057">11</text><text fill="#000000" font-family="sans-serif" font-size="13" lengthAdjust="spacing" textLength="94" x="111" y="585.3057">confirms all jobs</text><polygon fill="#181818" points="97,617.8594,87,621.8594,97,625.8594,93,621.8594" style="stroke:#181818;stroke-width:1.0;"/><line style="stroke:#181818;stroke-width:1.0;stroke-dasharray:2.0,2.0;" x1="91" x2="373" y1="621.8594" y2="621.8594"/><text fill="#000000" font-family="sans-serif" font-size="13" font-weight="bold" lengthAdjust="spacing" textLength="14" x="103" y="616.5967">12</text><text fill="#000000" font-family="sans-serif" font-size="13" lengthAdjust="spacing" textLength="158" x="121" y="616.5967">displays operation success</text><!--SRC=[ZLInRkCm3Dtp5KJ60Xbk3GwtTBYsQ1TVktLXP2PH8ukk93V8tn-bnePKoqMrsB0U7zzxeknFslRei8EEBQkZuuuWk85MVjhfKPtmGF_2nH0uKW7jmUG0VyIMpzeUO8_6qsg5Ah23zTtGeOM6F0zEaN-rJsY5oAq1FTmrJoif3rhf7cs0zRQXW_RXWNSlzmdnShy4k6KR71jpfRfzRXvBg4j8QWNh6-hPQn5qsRxQfhgHMEfROcO8R8TkHmv-9Mlw0mCb_I1Bdh3v8s9XAomd3u7XipqWM3h36-yISAeKNt1TKYMrKV_DZTGhHmAOTgUAP73ywcWF_25gYgzn_QKmkO1e0p8V8uXi6obo2RytcqGc2kh1JU2MvfeCSm_devRXq3O8FRM5gkXHJCQS8l_xG3v8IaUAoO35ZchqMKXvmk7IKwhDarrAD-iUrOxvFjJAPc6cG69fVIwWnbOmDjz7MHpb3x3r0twKzmAM7w-ypoWMt8mPVHc16NrsGZ_GF6MOpcwHk3PLiyanwKOPCz8uYU0jHe3YUBnuYkrUksv9Si4-7xPyqAvCFhMCVQftk53OQjyRl7ZWdXm6pHRyeEJ7zrbRzliF]--></g></svg>