<?xml version="1.0" encoding="us-ascii" standalone="no"?><svg xmlns="http://www.w3.org/2000/svg" xmlns:xlink="http://www.w3.org/1999/xlink" contentStyleType="text/css" height="513px" preserveAspectRatio="none" style="width:400px;height:513px;background:#FFFFFF;" version="1.1" viewBox="0 0 400 513" width="400px" zoomAndPan="magnify"><defs/><g><!--class Job--><g id="elem_Job"><rect codeLine="6" fill="#F1F1F1" height="85.2422" id="Job" rx="2.5" ry="2.5" style="stroke:#181818;stroke-width:0.5;" width="93" x="287" y="421"/><ellipse cx="319.55" cy="437" fill="#ADD1B2" rx="11" ry="11" style="stroke:#181818;stroke-width:1.0;"/><path d="M322.3156,432.875 Q322.4719,432.6563 322.6594,432.5469 Q322.8469,432.4375 323.0656,432.4375 Q323.4406,432.4375 323.675,432.7031 Q323.9094,432.9531 323.9094,433.5625 L323.9094,435.0156 Q323.9094,435.625 323.675,435.8906 Q323.4406,436.1563 323.0656,436.1563 Q322.7219,436.1563 322.5188,435.9531 Q322.3156,435.7656 322.2063,435.25 Q322.1594,434.8906 321.9719,434.7031 Q321.6438,434.3281 321.0344,434.1094 Q320.425,433.8906 319.8,433.8906 Q319.0344,433.8906 318.3938,434.2188 Q317.7688,434.5469 317.2688,435.2969 Q316.7844,436.0469 316.7844,437.0781 L316.7844,438.1719 Q316.7844,439.4063 317.675,440.2344 Q318.5656,441.0469 320.1594,441.0469 Q321.0969,441.0469 321.7531,440.7969 Q322.1438,440.6406 322.5656,440.2031 Q322.8313,439.9375 322.9719,439.8594 Q323.1281,439.7813 323.3313,439.7813 Q323.6594,439.7813 323.9094,440.0469 Q324.175,440.2969 324.175,440.6406 Q324.175,440.9844 323.8313,441.3906 Q323.3313,441.9688 322.5344,442.2969 Q321.4563,442.75 320.1594,442.75 Q318.6438,442.75 317.4406,442.125 Q316.4563,441.625 315.7688,440.5625 Q315.0813,439.4844 315.0813,438.2031 L315.0813,437.0469 Q315.0813,435.7188 315.6906,434.5781 Q316.3156,433.4219 317.4094,432.8125 Q318.5031,432.1875 319.7375,432.1875 Q320.4719,432.1875 321.1125,432.3594 Q321.7688,432.5156 322.3156,432.875 Z " fill="#000000"/><text fill="#000000" font-family="sans-serif" font-size="14" lengthAdjust="spacing" textLength="22" x="337.45" y="442.7969">Job</text><line style="stroke:#181818;stroke-width:0.5;" x1="288" x2="379" y1="453" y2="453"/><text fill="#000000" font-family="sans-serif" font-size="14" lengthAdjust="spacing" textLength="81" x="293" y="472.1074">-String name</text><line style="stroke:#181818;stroke-width:0.5;" x1="288" x2="379" y1="479.6211" y2="479.6211"/><text fill="#000000" font-family="sans-serif" font-size="14" lengthAdjust="spacing" textLength="75" x="293" y="498.7285">+registJob()</text></g><!--class RegistedJobsRepository--><g id="elem_RegistedJobsRepository"><rect codeLine="11" fill="#F1F1F1" height="66.6211" id="RegistedJobsRepository" rx="2.5" ry="2.5" style="stroke:#181818;stroke-width:0.5;" width="185" x="158" y="275"/><ellipse cx="173" cy="291" fill="#ADD1B2" rx="11" ry="11" style="stroke:#181818;stroke-width:1.0;"/><path d="M175.7656,286.875 Q175.9219,286.6563 176.1094,286.5469 Q176.2969,286.4375 176.5156,286.4375 Q176.8906,286.4375 177.125,286.7031 Q177.3594,286.9531 177.3594,287.5625 L177.3594,289.0156 Q177.3594,289.625 177.125,289.8906 Q176.8906,290.1563 176.5156,290.1563 Q176.1719,290.1563 175.9688,289.9531 Q175.7656,289.7656 175.6563,289.25 Q175.6094,288.8906 175.4219,288.7031 Q175.0938,288.3281 174.4844,288.1094 Q173.875,287.8906 173.25,287.8906 Q172.4844,287.8906 171.8438,288.2188 Q171.2188,288.5469 170.7188,289.2969 Q170.2344,290.0469 170.2344,291.0781 L170.2344,292.1719 Q170.2344,293.4063 171.125,294.2344 Q172.0156,295.0469 173.6094,295.0469 Q174.5469,295.0469 175.2031,294.7969 Q175.5938,294.6406 176.0156,294.2031 Q176.2813,293.9375 176.4219,293.8594 Q176.5781,293.7813 176.7813,293.7813 Q177.1094,293.7813 177.3594,294.0469 Q177.625,294.2969 177.625,294.6406 Q177.625,294.9844 177.2813,295.3906 Q176.7813,295.9688 175.9844,296.2969 Q174.9063,296.75 173.6094,296.75 Q172.0938,296.75 170.8906,296.125 Q169.9063,295.625 169.2188,294.5625 Q168.5313,293.4844 168.5313,292.2031 L168.5313,291.0469 Q168.5313,289.7188 169.1406,288.5781 Q169.7656,287.4219 170.8594,286.8125 Q171.9531,286.1875 173.1875,286.1875 Q173.9219,286.1875 174.5625,286.3594 Q175.2188,286.5156 175.7656,286.875 Z " fill="#000000"/><text fill="#000000" font-family="sans-serif" font-size="14" lengthAdjust="spacing" textLength="153" x="187" y="296.7969">RegistedJobsRepository</text><line style="stroke:#181818;stroke-width:0.5;" x1="159" x2="342" y1="307" y2="307"/><line style="stroke:#181818;stroke-width:0.5;" x1="159" x2="342" y1="315" y2="315"/><text fill="#000000" font-family="sans-serif" font-size="14" lengthAdjust="spacing" textLength="100" x="164" y="334.1074">+getRegistJob()</text></g><!--class Repositories--><g id="elem_Repositories"><rect codeLine="15" fill="#F1F1F1" height="103.8633" id="Repositories" rx="2.5" ry="2.5" style="stroke:#181818;stroke-width:0.5;" width="203" x="7" y="141"/><ellipse cx="64.75" cy="157" fill="#ADD1B2" rx="11" ry="11" style="stroke:#181818;stroke-width:1.0;"/><path d="M67.5156,152.875 Q67.6719,152.6563 67.8594,152.5469 Q68.0469,152.4375 68.2656,152.4375 Q68.6406,152.4375 68.875,152.7031 Q69.1094,152.9531 69.1094,153.5625 L69.1094,155.0156 Q69.1094,155.625 68.875,155.8906 Q68.6406,156.1563 68.2656,156.1563 Q67.9219,156.1563 67.7188,155.9531 Q67.5156,155.7656 67.4063,155.25 Q67.3594,154.8906 67.1719,154.7031 Q66.8438,154.3281 66.2344,154.1094 Q65.625,153.8906 65,153.8906 Q64.2344,153.8906 63.5938,154.2188 Q62.9688,154.5469 62.4688,155.2969 Q61.9844,156.0469 61.9844,157.0781 L61.9844,158.1719 Q61.9844,159.4063 62.875,160.2344 Q63.7656,161.0469 65.3594,161.0469 Q66.2969,161.0469 66.9531,160.7969 Q67.3438,160.6406 67.7656,160.2031 Q68.0313,159.9375 68.1719,159.8594 Q68.3281,159.7813 68.5313,159.7813 Q68.8594,159.7813 69.1094,160.0469 Q69.375,160.2969 69.375,160.6406 Q69.375,160.9844 69.0313,161.3906 Q68.5313,161.9688 67.7344,162.2969 Q66.6563,162.75 65.3594,162.75 Q63.8438,162.75 62.6406,162.125 Q61.6563,161.625 60.9688,160.5625 Q60.2813,159.4844 60.2813,158.2031 L60.2813,157.0469 Q60.2813,155.7188 60.8906,154.5781 Q61.5156,153.4219 62.6094,152.8125 Q63.7031,152.1875 64.9375,152.1875 Q65.6719,152.1875 66.3125,152.3594 Q66.9688,152.5156 67.5156,152.875 Z " fill="#000000"/><text fill="#000000" font-family="sans-serif" font-size="14" lengthAdjust="spacing" textLength="79" x="85.25" y="162.7969">Repositories</text><line style="stroke:#181818;stroke-width:0.5;" x1="8" x2="209" y1="173" y2="173"/><line style="stroke:#181818;stroke-width:0.5;" x1="8" x2="209" y1="181" y2="181"/><text fill="#000000" font-family="sans-serif" font-size="14" lengthAdjust="spacing" textLength="89" x="13" y="200.1074">-repositories()</text><text fill="#000000" font-family="sans-serif" font-size="14" lengthAdjust="spacing" textLength="182" x="13" y="218.7285">+getInstance() : Repositories</text><text fill="#000000" font-family="sans-serif" font-size="14" lengthAdjust="spacing" textLength="191" x="13" y="237.3496">+getRegistedJobsRepository()</text></g><!--class RegistJobController--><g id="elem_RegistJobController"><rect codeLine="21" fill="#F1F1F1" height="103.8633" id="RegistJobController" rx="2.5" ry="2.5" style="stroke:#181818;stroke-width:0.5;" width="156" x="172.5" y="7"/><ellipse cx="187.5" cy="23" fill="#ADD1B2" rx="11" ry="11" style="stroke:#181818;stroke-width:1.0;"/><path d="M190.2656,18.875 Q190.4219,18.6563 190.6094,18.5469 Q190.7969,18.4375 191.0156,18.4375 Q191.3906,18.4375 191.625,18.7031 Q191.8594,18.9531 191.8594,19.5625 L191.8594,21.0156 Q191.8594,21.625 191.625,21.8906 Q191.3906,22.1563 191.0156,22.1563 Q190.6719,22.1563 190.4688,21.9531 Q190.2656,21.7656 190.1563,21.25 Q190.1094,20.8906 189.9219,20.7031 Q189.5938,20.3281 188.9844,20.1094 Q188.375,19.8906 187.75,19.8906 Q186.9844,19.8906 186.3438,20.2188 Q185.7188,20.5469 185.2188,21.2969 Q184.7344,22.0469 184.7344,23.0781 L184.7344,24.1719 Q184.7344,25.4063 185.625,26.2344 Q186.5156,27.0469 188.1094,27.0469 Q189.0469,27.0469 189.7031,26.7969 Q190.0938,26.6406 190.5156,26.2031 Q190.7813,25.9375 190.9219,25.8594 Q191.0781,25.7813 191.2813,25.7813 Q191.6094,25.7813 191.8594,26.0469 Q192.125,26.2969 192.125,26.6406 Q192.125,26.9844 191.7813,27.3906 Q191.2813,27.9688 190.4844,28.2969 Q189.4063,28.75 188.1094,28.75 Q186.5938,28.75 185.3906,28.125 Q184.4063,27.625 183.7188,26.5625 Q183.0313,25.4844 183.0313,24.2031 L183.0313,23.0469 Q183.0313,21.7188 183.6406,20.5781 Q184.2656,19.4219 185.3594,18.8125 Q186.4531,18.1875 187.6875,18.1875 Q188.4219,18.1875 189.0625,18.3594 Q189.7188,18.5156 190.2656,18.875 Z " fill="#000000"/><text fill="#000000" font-family="sans-serif" font-size="14" lengthAdjust="spacing" textLength="124" x="201.5" y="28.7969">RegistJobController</text><line style="stroke:#181818;stroke-width:0.5;" x1="173.5" x2="327.5" y1="39" y2="39"/><line style="stroke:#181818;stroke-width:0.5;" x1="173.5" x2="327.5" y1="47" y2="47"/><text fill="#000000" font-family="sans-serif" font-size="14" lengthAdjust="spacing" textLength="137" x="178.5" y="66.1074">+registJobController()</text><text fill="#000000" font-family="sans-serif" font-size="14" lengthAdjust="spacing" textLength="100" x="178.5" y="84.7285">+getRegistJob()</text><text fill="#000000" font-family="sans-serif" font-size="14" lengthAdjust="spacing" textLength="110" x="178.5" y="103.3496">+registJob(name)</text></g><!--class RegistJobUI--><g id="elem_RegistJobUI"><rect codeLine="27" fill="#F1F1F1" height="48" id="RegistJobUI" rx="2.5" ry="2.5" style="stroke:#181818;stroke-width:0.5;" width="106" x="31.5" y="35"/><ellipse cx="46.5" cy="51" fill="#ADD1B2" rx="11" ry="11" style="stroke:#181818;stroke-width:1.0;"/><path d="M49.2656,46.875 Q49.4219,46.6563 49.6094,46.5469 Q49.7969,46.4375 50.0156,46.4375 Q50.3906,46.4375 50.625,46.7031 Q50.8594,46.9531 50.8594,47.5625 L50.8594,49.0156 Q50.8594,49.625 50.625,49.8906 Q50.3906,50.1563 50.0156,50.1563 Q49.6719,50.1563 49.4688,49.9531 Q49.2656,49.7656 49.1563,49.25 Q49.1094,48.8906 48.9219,48.7031 Q48.5938,48.3281 47.9844,48.1094 Q47.375,47.8906 46.75,47.8906 Q45.9844,47.8906 45.3438,48.2188 Q44.7188,48.5469 44.2188,49.2969 Q43.7344,50.0469 43.7344,51.0781 L43.7344,52.1719 Q43.7344,53.4063 44.625,54.2344 Q45.5156,55.0469 47.1094,55.0469 Q48.0469,55.0469 48.7031,54.7969 Q49.0938,54.6406 49.5156,54.2031 Q49.7813,53.9375 49.9219,53.8594 Q50.0781,53.7813 50.2813,53.7813 Q50.6094,53.7813 50.8594,54.0469 Q51.125,54.2969 51.125,54.6406 Q51.125,54.9844 50.7813,55.3906 Q50.2813,55.9688 49.4844,56.2969 Q48.4063,56.75 47.1094,56.75 Q45.5938,56.75 44.3906,56.125 Q43.4063,55.625 42.7188,54.5625 Q42.0313,53.4844 42.0313,52.2031 L42.0313,51.0469 Q42.0313,49.7188 42.6406,48.5781 Q43.2656,47.4219 44.3594,46.8125 Q45.4531,46.1875 46.6875,46.1875 Q47.4219,46.1875 48.0625,46.3594 Q48.7188,46.5156 49.2656,46.875 Z " fill="#000000"/><text fill="#000000" font-family="sans-serif" font-size="14" lengthAdjust="spacing" textLength="74" x="60.5" y="56.7969">RegistJobUI</text><line style="stroke:#181818;stroke-width:0.5;" x1="32.5" x2="136.5" y1="67" y2="67"/><line style="stroke:#181818;stroke-width:0.5;" x1="32.5" x2="136.5" y1="75" y2="75"/></g><!--link RegistJobUI to RegistJobController--><g id="link_RegistJobUI_RegistJobController"><path codeLine="30" d="M137.99,59 C139.17,59 139.83,59 139.83,59 C139.83,59 151.1,59 166.34,59 " fill="none" id="RegistJobUI-to-RegistJobController" style="stroke:#181818;stroke-width:1.0;stroke-dasharray:7.0,7.0;"/><polygon fill="#181818" points="172.34,59,163.34,55,167.34,59,163.34,63,172.34,59" style="stroke:#181818;stroke-width:1.0;"/></g><!--link RegistJobController to Repositories--><g id="link_RegistJobController_Repositories"><path codeLine="32" d="M195.6,111.03 C185.14,120.76 178.583,126.8433 168.113,136.5833 " fill="none" id="RegistJobController-to-Repositories" style="stroke:#181818;stroke-width:1.0;stroke-dasharray:7.0,7.0;"/><polygon fill="#181818" points="163.72,140.67,173.034,137.4686,167.3809,137.2644,167.585,131.6112,163.72,140.67" style="stroke:#181818;stroke-width:1.0;"/><text fill="#000000" font-family="sans-serif" font-size="13" lengthAdjust="spacing" textLength="67" x="111.66" y="121.8783">repositories</text></g><!--link Repositories to RegistedJobsRepository--><g id="link_Repositories_RegistedJobsRepository"><path codeLine="34" d="M172.44,245.11 C185.1,255.23 193.3724,261.8448 205.0124,271.1448 " fill="none" id="Repositories-to-RegistedJobsRepository" style="stroke:#181818;stroke-width:1.0;"/><polygon fill="#181818" points="209.7,274.89,205.1655,266.1471,205.7937,271.769,200.1718,272.3972,209.7,274.89" style="stroke:#181818;stroke-width:1.0;"/><text fill="#000000" font-family="sans-serif" font-size="13" lengthAdjust="spacing" textLength="7" x="198.2883" y="266.8607">1</text></g><!--link RegistJobController to Job--><g id="link_RegistJobController_Job"><path codeLine="36" d="M328.69,104.29 C362.08,123.2 393.5,141 393.5,141 C393.5,141 393.5,245 393.5,245 C393.5,245 361.5,391 361.5,391 C361.5,391 358.1379,399.5931 351.9779,415.3231 " fill="none" id="RegistJobController-to-Job" style="stroke:#181818;stroke-width:1.0;stroke-dasharray:7.0,7.0;"/><polygon fill="#181818" points="349.79,420.91,356.7964,413.9883,351.6132,416.2543,349.3472,411.0711,349.79,420.91" style="stroke:#181818;stroke-width:1.0;"/></g><!--link RegistJobController to RegistedJobsRepository--><g id="link_RegistJobController_RegistedJobsRepository"><path codeLine="37" d="M248.6,111.3 C248,127.37 247.5,141 247.5,141 C247.5,141 247.5,245 247.5,245 C247.5,245 247.9108,253.667 248.6408,268.797 " fill="none" id="RegistJobController-to-RegistedJobsRepository" style="stroke:#181818;stroke-width:1.0;stroke-dasharray:7.0,7.0;"/><polygon fill="#181818" points="248.93,274.79,252.4916,265.6077,248.689,269.7958,244.5009,265.9932,248.93,274.79" style="stroke:#181818;stroke-width:1.0;"/><text fill="#000000" font-family="sans-serif" font-size="13" lengthAdjust="spacing" textLength="140" x="248.5" y="198.5283">RegistedJobsRepository</text></g><!--link RegistedJobsRepository to Job--><g id="link_RegistedJobsRepository_Job"><path codeLine="40" d="M268.31,342.32 C280.79,365.33 294.699,390.986 308.109,415.706 " fill="none" id="RegistedJobsRepository-to-Job" style="stroke:#181818;stroke-width:1.0;"/><polygon fill="#181818" points="310.97,420.98,310.1945,411.1617,308.5858,416.585,303.1625,414.9764,310.97,420.98" style="stroke:#181818;stroke-width:1.0;"/><text fill="#000000" font-family="sans-serif" font-size="13" lengthAdjust="spacing" textLength="57" x="295.5" y="387.0283">RegistJob</text><text fill="#000000" font-family="sans-serif" font-size="13" lengthAdjust="spacing" textLength="7" x="263.7695" y="363.6796">1</text><text fill="#000000" font-family="sans-serif" font-size="13" lengthAdjust="spacing" textLength="5" x="301.9808" y="409.8809">*</text></g><!--SRC=[TL91JiCm4Bpx5QkSMgeWkEPG2N4AnqGym4sNODMrBQyH2eY_ixPASDFOjypCxap6ffCoJdfv1YU7anon3vD6y3W4QKQDWcO1lSkZ_LHcX3UfAMUqCXWcX-2idk97nWrQ4Zs5uDNX8s0xMDEhBuG78H83B_O0tmBurD2pYjSRUSQ4x3Z7g2YmPhCLFtyZNGBno31rw2ofOFrqsRA34KEtFdQHAgJPqcSWY-SDhI4kOC3D5fghoQN9CiPjKEQVhGdUQer-JkblkTm__uDb5R6VDPVNbhSpd0Ft-xKKcIQBbhHPHyrLEt4c8-izL8zLuIuA-zc0aI9NkDUcQ28A4p5O7GFULUbzDVyT2F4B]--></g></svg>