<?xml version="1.0" encoding="UTF-8" standalone="no"?><svg xmlns="http://www.w3.org/2000/svg" xmlns:xlink="http://www.w3.org/1999/xlink" contentStyleType="text/css" height="685px" preserveAspectRatio="none" style="width:567px;height:685px;background:#FFFFFF;" version="1.1" viewBox="0 0 567 685" width="567px" zoomAndPan="magnify"><defs/><g><rect fill="#FFFFFF" height="476.3997" style="stroke:#181818;stroke-width:1.0;" width="10" x="116" y="117.7199"/><rect fill="#FFFFFF" height="170.9599" style="stroke:#181818;stroke-width:1.0;" width="10" x="332" y="205.1999"/><rect fill="none" height="421.1598" style="stroke:#000000;stroke-width:1.5;" width="528.5" x="32.5" y="132.7199"/><line style="stroke:#181818;stroke-width:0.5;stroke-dasharray:5.0,5.0;" x1="120.5" x2="120.5" y1="74.4799" y2="612.1197"/><line style="stroke:#181818;stroke-width:0.5;stroke-dasharray:5.0,5.0;" x1="336.5" x2="336.5" y1="211.6999" y2="612.1197"/><rect fill="#E3E3E3" height="68.4799" rx="2.5" ry="2.5" style="stroke:#181818;stroke-width:0.5;" width="157" x="42.5" y="5"/><text fill="#000000" font-family="sans-serif" font-size="20" lengthAdjust="spacing" textLength="138" x="52" y="33.38">jobsRepository</text><text fill="#000000" font-family="sans-serif" font-size="20" lengthAdjust="spacing" textLength="143" x="49.5" y="60.62">:JobsRepository</text><rect fill="#E3E3E3" height="68.4799" rx="2.5" ry="2.5" style="stroke:#181818;stroke-width:0.5;" width="157" x="42.5" y="611.1197"/><text fill="#000000" font-family="sans-serif" font-size="20" lengthAdjust="spacing" textLength="138" x="52" y="639.4997">jobsRepository</text><text fill="#000000" font-family="sans-serif" font-size="20" lengthAdjust="spacing" textLength="143" x="49.5" y="666.7396">:JobsRepository</text><rect fill="#E3E3E3" height="68.4799" rx="2.5" ry="2.5" style="stroke:#181818;stroke-width:0.5;" width="67" x="303.5" y="611.1197"/><text fill="#000000" font-family="sans-serif" font-size="20" lengthAdjust="spacing" textLength="53" x="310.5" y="639.4997">name</text><text fill="#000000" font-family="sans-serif" font-size="20" lengthAdjust="spacing" textLength="34" x="320" y="666.7396">:Job</text><rect fill="#FFFFFF" height="476.3997" style="stroke:#181818;stroke-width:1.0;" width="10" x="116" y="117.7199"/><rect fill="#FFFFFF" height="170.9599" style="stroke:#181818;stroke-width:1.0;" width="10" x="332" y="205.1999"/><polygon fill="#181818" points="104,113.7199,114,117.7199,104,121.7199,108,117.7199" style="stroke:#181818;stroke-width:1.0;"/><line style="stroke:#181818;stroke-width:1.0;" x1="0" x2="110" y1="117.7199" y2="117.7199"/><text fill="#000000" font-family="sans-serif" font-size="20" font-weight="bold" lengthAdjust="spacing" textLength="22" x="7" y="109.8599">10</text><text fill="#000000" font-family="sans-serif" font-size="20" lengthAdjust="spacing" textLength="58" x="33" y="109.8599">create</text><path d="M32.5,132.7199 L181.5,132.7199 L181.5,151.9599 L171.5,161.9599 L32.5,161.9599 L32.5,132.7199 " fill="#EEEEEE" style="stroke:#000000;stroke-width:1.5;"/><rect fill="none" height="421.1598" style="stroke:#000000;stroke-width:1.5;" width="528.5" x="32.5" y="132.7199"/><text fill="#000000" font-family="sans-serif" font-size="20" font-weight="bold" lengthAdjust="spacing" textLength="104" x="47.5" y="155.0999">Create Job</text><polygon fill="#181818" points="291.5,191.1999,301.5,195.1999,291.5,199.1999,295.5,195.1999" style="stroke:#181818;stroke-width:1.0;"/><line style="stroke:#181818;stroke-width:1.0;" x1="126" x2="297.5" y1="195.1999" y2="195.1999"/><text fill="#000000" font-family="sans-serif" font-size="20" font-weight="bold" lengthAdjust="spacing" textLength="22" x="133" y="187.3399">11</text><text fill="#000000" font-family="sans-serif" font-size="20" lengthAdjust="spacing" textLength="58" x="159" y="187.3399">create</text><rect fill="#E3E3E3" height="68.4799" rx="2.5" ry="2.5" style="stroke:#181818;stroke-width:0.5;" width="67" x="303.5" y="161.9599"/><text fill="#000000" font-family="sans-serif" font-size="20" lengthAdjust="spacing" textLength="53" x="310.5" y="190.3399">name</text><text fill="#000000" font-family="sans-serif" font-size="20" lengthAdjust="spacing" textLength="34" x="320" y="217.5799">:Job</text><line style="stroke:#181818;stroke-width:1.0;" x1="342" x2="384" y1="274.6798" y2="274.6798"/><line style="stroke:#181818;stroke-width:1.0;" x1="384" x2="384" y1="274.6798" y2="287.6798"/><line style="stroke:#181818;stroke-width:1.0;" x1="343" x2="384" y1="287.6798" y2="287.6798"/><polygon fill="#181818" points="353,283.6798,343,287.6798,353,291.6798,349,287.6798" style="stroke:#181818;stroke-width:1.0;"/><text fill="#000000" font-family="sans-serif" font-size="20" font-weight="bold" lengthAdjust="spacing" textLength="22" x="349" y="266.8198">12</text><text fill="#000000" font-family="sans-serif" font-size="20" lengthAdjust="spacing" textLength="174" x="375" y="266.8198">validateSkill(name)</text><polygon fill="#181818" points="137,324.9198,127,328.9198,137,332.9198,133,328.9198" style="stroke:#181818;stroke-width:1.0;"/><line style="stroke:#181818;stroke-width:1.0;stroke-dasharray:2.0,2.0;" x1="131" x2="331" y1="328.9198" y2="328.9198"/><text fill="#000000" font-family="sans-serif" font-size="20" font-weight="bold" lengthAdjust="spacing" textLength="22" x="143" y="321.0598">13</text><text fill="#000000" font-family="sans-serif" font-size="20" lengthAdjust="spacing" textLength="53" x="169" y="321.0598">name</text><line style="stroke:#181818;stroke-width:1.0;" x1="126" x2="168" y1="375.1598" y2="375.1598"/><line style="stroke:#181818;stroke-width:1.0;" x1="168" x2="168" y1="375.1598" y2="388.1598"/><line style="stroke:#181818;stroke-width:1.0;" x1="121" x2="168" y1="388.1598" y2="388.1598"/><polygon fill="#181818" points="131,384.1598,121,388.1598,131,392.1598,127,388.1598" style="stroke:#181818;stroke-width:1.0;"/><text fill="#000000" font-family="sans-serif" font-size="20" font-weight="bold" lengthAdjust="spacing" textLength="22" x="133" y="367.2998">14</text><text fill="#000000" font-family="sans-serif" font-size="20" lengthAdjust="spacing" textLength="166" x="159" y="367.2998">validateJob(name)</text><line style="stroke:#181818;stroke-width:1.0;" x1="126" x2="168" y1="424.3997" y2="424.3997"/><line style="stroke:#181818;stroke-width:1.0;" x1="168" x2="168" y1="424.3997" y2="437.3997"/><line style="stroke:#181818;stroke-width:1.0;" x1="127" x2="168" y1="437.3997" y2="437.3997"/><polygon fill="#181818" points="137,433.3997,127,437.3997,137,441.3997,133,437.3997" style="stroke:#181818;stroke-width:1.0;"/><text fill="#000000" font-family="sans-serif" font-size="20" font-weight="bold" lengthAdjust="spacing" textLength="22" x="133" y="416.5398">15</text><text fill="#000000" font-family="sans-serif" font-size="20" lengthAdjust="spacing" textLength="129" x="159" y="416.5398">addJob(name)</text><line style="stroke:#181818;stroke-width:1.0;" x1="126" x2="168" y1="478.6397" y2="478.6397"/><line style="stroke:#181818;stroke-width:1.0;" x1="168" x2="168" y1="478.6397" y2="491.6397"/><line style="stroke:#181818;stroke-width:1.0;" x1="127" x2="168" y1="491.6397" y2="491.6397"/><polygon fill="#181818" points="137,487.6397,127,491.6397,137,495.6397,133,491.6397" style="stroke:#181818;stroke-width:1.0;"/><text fill="#000000" font-family="sans-serif" font-size="20" font-weight="bold" lengthAdjust="spacing" textLength="22" x="133" y="470.7797">16</text><text fill="#000000" font-family="sans-serif" font-size="20" lengthAdjust="spacing" textLength="89" x="159" y="470.7797">true/false</text><line style="stroke:#181818;stroke-width:1.0;" x1="126" x2="168" y1="532.8797" y2="532.8797"/><line style="stroke:#181818;stroke-width:1.0;" x1="168" x2="168" y1="532.8797" y2="545.8797"/><line style="stroke:#181818;stroke-width:1.0;" x1="127" x2="168" y1="545.8797" y2="545.8797"/><polygon fill="#181818" points="137,541.8797,127,545.8797,137,549.8797,133,545.8797" style="stroke:#181818;stroke-width:1.0;"/><text fill="#000000" font-family="sans-serif" font-size="20" font-weight="bold" lengthAdjust="spacing" textLength="22" x="133" y="525.0197">17</text><text fill="#000000" font-family="sans-serif" font-size="20" lengthAdjust="spacing" textLength="89" x="159" y="525.0197">true/false</text><polygon fill="#181818" points="11,590.1197,1,594.1197,11,598.1197,7,594.1197" style="stroke:#181818;stroke-width:1.0;"/><line style="stroke:#181818;stroke-width:1.0;stroke-dasharray:2.0,2.0;" x1="5" x2="120" y1="594.1197" y2="594.1197"/><text fill="#000000" font-family="sans-serif" font-size="20" font-weight="bold" lengthAdjust="spacing" textLength="22" x="17" y="586.2597">18</text><text fill="#000000" font-family="sans-serif" font-size="20" lengthAdjust="spacing" textLength="71" x="43" y="586.2597">jobsList</text><!--SRC=[fLB1IWCn4BtdAuQUjB1OFIuYY51GX4htwcMQJBTniycIP2lrwqssTjdDgaMSKtZpthnvOLmbTOCMQsLuHG84RR5LVccqB-G7mSs2kHC5QgCDtrbJ4tZRqg3J8A-mfC8V584bxb6NQaXmEnJcNUeIjgWSCHPWBxbiK7kOlPcDMrDZdFJ67bvr_ZG2Pe0Enj1Ohx6cewgZlgnNoyUYk5ynXgqtkgqtPE5wmRAxP4mEt1Bwi0zoB_VXbVf0gDAQje67ZXdxh4DZZSaGvlVUyta_79BglGQBffo-DHgQmnwL545RL5AfYnZyybVn93Ba45KJpJHA-bKdwu1_6QSp17qJxUz6ACJF7kVbyJQlZcVsBt6d9YsEZziic_vaFDndwJnZW-Z91Nq2]--></g></svg>