<?xml version="1.0" encoding="UTF-8" standalone="no"?><svg xmlns="http://www.w3.org/2000/svg" xmlns:xlink="http://www.w3.org/1999/xlink" contentStyleType="text/css" height="417px" preserveAspectRatio="none" style="width:541px;height:417px;background:#FFFFFF;" version="1.1" viewBox="0 0 541 417" width="541px" zoomAndPan="magnify"><defs/><g><rect fill="#FFFFFF" height="216.1999" style="stroke:#181818;stroke-width:1.0;" width="10" x="123.5" y="117.7199"/><rect fill="#FFFFFF" height="41.24" style="stroke:#181818;stroke-width:1.0;" width="10" x="309" y="195.1999"/><rect fill="#FFFFFF" height="41.24" style="stroke:#181818;stroke-width:1.0;" width="10" x="453" y="277.6798"/><rect fill="none" height="194.1999" style="stroke:#000000;stroke-width:1.5;" width="525" x="10" y="132.7199"/><line style="stroke:#181818;stroke-width:0.5;stroke-dasharray:5.0,5.0;" x1="128" x2="128" y1="74.4799" y2="343.9198"/><line style="stroke:#181818;stroke-width:0.5;stroke-dasharray:5.0,5.0;" x1="314" x2="314" y1="74.4799" y2="343.9198"/><line style="stroke:#181818;stroke-width:0.5;stroke-dasharray:5.0,5.0;" x1="458" x2="458" y1="74.4799" y2="343.9198"/><rect fill="#E3E3E3" height="41.24" rx="2.5" ry="2.5" style="stroke:#181818;stroke-width:0.5;" width="217" x="20" y="32.24"/><text fill="#000000" font-family="sans-serif" font-size="20" lengthAdjust="spacing" textLength="203" x="27" y="60.62">:RegisterJobController</text><rect fill="#E3E3E3" height="41.24" rx="2.5" ry="2.5" style="stroke:#181818;stroke-width:0.5;" width="217" x="20" y="342.9198"/><text fill="#000000" font-family="sans-serif" font-size="20" lengthAdjust="spacing" textLength="203" x="27" y="371.2998">:RegisterJobController</text><rect fill="#E3E3E3" height="41.24" rx="2.5" ry="2.5" style="stroke:#181818;stroke-width:0.5;" width="134" x="247" y="32.24"/><text fill="#000000" font-family="sans-serif" font-size="20" lengthAdjust="spacing" textLength="120" x="254" y="60.62">:Repositories</text><rect fill="#E3E3E3" height="41.24" rx="2.5" ry="2.5" style="stroke:#181818;stroke-width:0.5;" width="134" x="247" y="342.9198"/><text fill="#000000" font-family="sans-serif" font-size="20" lengthAdjust="spacing" textLength="120" x="254" y="371.2998">:Repositories</text><rect fill="#E3E3E3" height="68.4799" rx="2.5" ry="2.5" style="stroke:#181818;stroke-width:0.5;" width="134" x="391" y="5"/><text fill="#000000" font-family="sans-serif" font-size="20" lengthAdjust="spacing" textLength="111" x="402.5" y="33.38">repositories</text><text fill="#000000" font-family="sans-serif" font-size="20" lengthAdjust="spacing" textLength="120" x="398" y="60.62">:Repositories</text><rect fill="#E3E3E3" height="68.4799" rx="2.5" ry="2.5" style="stroke:#181818;stroke-width:0.5;" width="134" x="391" y="342.9198"/><text fill="#000000" font-family="sans-serif" font-size="20" lengthAdjust="spacing" textLength="111" x="402.5" y="371.2998">repositories</text><text fill="#000000" font-family="sans-serif" font-size="20" lengthAdjust="spacing" textLength="120" x="398" y="398.5398">:Repositories</text><rect fill="#FFFFFF" height="216.1999" style="stroke:#181818;stroke-width:1.0;" width="10" x="123.5" y="117.7199"/><rect fill="#FFFFFF" height="41.24" style="stroke:#181818;stroke-width:1.0;" width="10" x="309" y="195.1999"/><rect fill="#FFFFFF" height="41.24" style="stroke:#181818;stroke-width:1.0;" width="10" x="453" y="277.6798"/><polygon fill="#181818" points="111.5,113.7199,121.5,117.7199,111.5,121.7199,115.5,117.7199" style="stroke:#181818;stroke-width:1.0;"/><line style="stroke:#181818;stroke-width:1.0;" x1="0" x2="117.5" y1="117.7199" y2="117.7199"/><text fill="#000000" font-family="sans-serif" font-size="20" font-weight="bold" lengthAdjust="spacing" textLength="11" x="7" y="109.8599">2</text><text fill="#000000" font-family="sans-serif" font-size="20" lengthAdjust="spacing" textLength="58" x="22" y="109.8599">create</text><path d="M10,132.7199 L249,132.7199 L249,151.9599 L239,161.9599 L10,161.9599 L10,132.7199 " fill="#EEEEEE" style="stroke:#000000;stroke-width:1.5;"/><rect fill="none" height="194.1999" style="stroke:#000000;stroke-width:1.5;" width="525" x="10" y="132.7199"/><text fill="#000000" font-family="sans-serif" font-size="20" font-weight="bold" lengthAdjust="spacing" textLength="194" x="25" y="155.0999">Get Jobs Repository</text><polygon fill="#181818" points="297,191.1999,307,195.1999,297,199.1999,301,195.1999" style="stroke:#181818;stroke-width:1.0;"/><line style="stroke:#181818;stroke-width:1.0;" x1="133.5" x2="303" y1="195.1999" y2="195.1999"/><text fill="#000000" font-family="sans-serif" font-size="20" font-weight="bold" lengthAdjust="spacing" textLength="11" x="140.5" y="187.3399">3</text><text fill="#000000" font-family="sans-serif" font-size="20" lengthAdjust="spacing" textLength="122" x="155.5" y="187.3399">getInstance()</text><polygon fill="#181818" points="144.5,232.4398,134.5,236.4398,144.5,240.4398,140.5,236.4398" style="stroke:#181818;stroke-width:1.0;"/><line style="stroke:#181818;stroke-width:1.0;stroke-dasharray:2.0,2.0;" x1="138.5" x2="313" y1="236.4398" y2="236.4398"/><text fill="#000000" font-family="sans-serif" font-size="20" font-weight="bold" lengthAdjust="spacing" textLength="11" x="150.5" y="228.5799">4</text><text fill="#000000" font-family="sans-serif" font-size="20" lengthAdjust="spacing" textLength="111" x="165.5" y="228.5799">repositories</text><polygon fill="#181818" points="441,273.6798,451,277.6798,441,281.6798,445,277.6798" style="stroke:#181818;stroke-width:1.0;"/><line style="stroke:#181818;stroke-width:1.0;" x1="133.5" x2="447" y1="277.6798" y2="277.6798"/><text fill="#000000" font-family="sans-serif" font-size="20" font-weight="bold" lengthAdjust="spacing" textLength="11" x="140.5" y="269.8198">5</text><text fill="#000000" font-family="sans-serif" font-size="20" lengthAdjust="spacing" textLength="180" x="155.5" y="269.8198">getJobsRepository()</text><polygon fill="#181818" points="144.5,314.9198,134.5,318.9198,144.5,322.9198,140.5,318.9198" style="stroke:#181818;stroke-width:1.0;"/><line style="stroke:#181818;stroke-width:1.0;stroke-dasharray:2.0,2.0;" x1="138.5" x2="457" y1="318.9198" y2="318.9198"/><text fill="#000000" font-family="sans-serif" font-size="20" font-weight="bold" lengthAdjust="spacing" textLength="11" x="150.5" y="311.0598">6</text><text fill="#000000" font-family="sans-serif" font-size="20" lengthAdjust="spacing" textLength="138" x="165.5" y="311.0598">jobsRepository</text><!--SRC=[ZP4nJyCm48Lt_ufJ9nWgeOuPa50b4AW3QZgoN9rhwiQn8_i2AhyUno6DGrE9cwpSU- - -k_XAcGOTrjhAYWeew82jvcThE5VV1Ai7uGS9rDPOUNIs9c3NKj9fK5POKivdJU18CffIfm9_nC9-ALF20RKd8R1bQzfwJqw8864bLOE6OP5jgLIUoRtP_JfWEAirkGMWX_LkkxaIDzOhjawHZvhBXtEkEeOmPMfnYUF3N0UyRvvsAHwiX83bOnmE6KX7o2HGileCZvu9GfNEjWsy44C0Jpb4R0yLOqBS36T8BubVZG_NatHtF_5T1iujE55sDPU-_5qYW_G44sj1_nypBDBTgoVlzXvjj_Zx-_u5ZYaZuMaITOjnZ29JYAGHVuhu0G00]--></g></svg>