<?xml version="1.0" encoding="us-ascii" standalone="no"?><svg xmlns="http://www.w3.org/2000/svg" xmlns:xlink="http://www.w3.org/1999/xlink" contentStyleType="text/css" height="632px" preserveAspectRatio="none" style="width:634px;height:632px;background:#FFFFFF;" version="1.1" viewBox="0 0 634 632" width="634px" zoomAndPan="magnify"><defs/><g><!--class RegisterJobUI--><g id="elem_RegisterJobUI"><rect codeLine="7" fill="#F1F1F1" height="48" id="RegisterJobUI" rx="2.5" ry="2.5" style="stroke:#181818;stroke-width:0.5;" width="119" x="7" y="35"/><ellipse cx="22" cy="51" fill="#ADD1B2" rx="11" ry="11" style="stroke:#181818;stroke-width:1.0;"/><path d="M24.7656,46.875 Q24.9219,46.6563 25.1094,46.5469 Q25.2969,46.4375 25.5156,46.4375 Q25.8906,46.4375 26.125,46.7031 Q26.3594,46.9531 26.3594,47.5625 L26.3594,49.0156 Q26.3594,49.625 26.125,49.8906 Q25.8906,50.1563 25.5156,50.1563 Q25.1719,50.1563 24.9688,49.9531 Q24.7656,49.7656 24.6563,49.25 Q24.6094,48.8906 24.4219,48.7031 Q24.0938,48.3281 23.4844,48.1094 Q22.875,47.8906 22.25,47.8906 Q21.4844,47.8906 20.8438,48.2188 Q20.2188,48.5469 19.7188,49.2969 Q19.2344,50.0469 19.2344,51.0781 L19.2344,52.1719 Q19.2344,53.4063 20.125,54.2344 Q21.0156,55.0469 22.6094,55.0469 Q23.5469,55.0469 24.2031,54.7969 Q24.5938,54.6406 25.0156,54.2031 Q25.2813,53.9375 25.4219,53.8594 Q25.5781,53.7813 25.7813,53.7813 Q26.1094,53.7813 26.3594,54.0469 Q26.625,54.2969 26.625,54.6406 Q26.625,54.9844 26.2813,55.3906 Q25.7813,55.9688 24.9844,56.2969 Q23.9063,56.75 22.6094,56.75 Q21.0938,56.75 19.8906,56.125 Q18.9063,55.625 18.2188,54.5625 Q17.5313,53.4844 17.5313,52.2031 L17.5313,51.0469 Q17.5313,49.7188 18.1406,48.5781 Q18.7656,47.4219 19.8594,46.8125 Q20.9531,46.1875 22.1875,46.1875 Q22.9219,46.1875 23.5625,46.3594 Q24.2188,46.5156 24.7656,46.875 Z " fill="#000000"/><text fill="#000000" font-family="sans-serif" font-size="14" lengthAdjust="spacing" textLength="87" x="36" y="56.7969">RegisterJobUI</text><line style="stroke:#181818;stroke-width:0.5;" x1="8" x2="125" y1="67" y2="67"/><line style="stroke:#181818;stroke-width:0.5;" x1="8" x2="125" y1="75" y2="75"/></g><!--class RegisterJobController--><g id="elem_RegisterJobController"><rect codeLine="10" fill="#F1F1F1" height="85.2422" id="RegisterJobController" rx="2.5" ry="2.5" style="stroke:#181818;stroke-width:0.5;" width="169" x="161" y="16.5"/><ellipse cx="176" cy="32.5" fill="#ADD1B2" rx="11" ry="11" style="stroke:#181818;stroke-width:1.0;"/><path d="M178.7656,28.375 Q178.9219,28.1563 179.1094,28.0469 Q179.2969,27.9375 179.5156,27.9375 Q179.8906,27.9375 180.125,28.2031 Q180.3594,28.4531 180.3594,29.0625 L180.3594,30.5156 Q180.3594,31.125 180.125,31.3906 Q179.8906,31.6563 179.5156,31.6563 Q179.1719,31.6563 178.9688,31.4531 Q178.7656,31.2656 178.6563,30.75 Q178.6094,30.3906 178.4219,30.2031 Q178.0938,29.8281 177.4844,29.6094 Q176.875,29.3906 176.25,29.3906 Q175.4844,29.3906 174.8438,29.7188 Q174.2188,30.0469 173.7188,30.7969 Q173.2344,31.5469 173.2344,32.5781 L173.2344,33.6719 Q173.2344,34.9063 174.125,35.7344 Q175.0156,36.5469 176.6094,36.5469 Q177.5469,36.5469 178.2031,36.2969 Q178.5938,36.1406 179.0156,35.7031 Q179.2813,35.4375 179.4219,35.3594 Q179.5781,35.2813 179.7813,35.2813 Q180.1094,35.2813 180.3594,35.5469 Q180.625,35.7969 180.625,36.1406 Q180.625,36.4844 180.2813,36.8906 Q179.7813,37.4688 178.9844,37.7969 Q177.9063,38.25 176.6094,38.25 Q175.0938,38.25 173.8906,37.625 Q172.9063,37.125 172.2188,36.0625 Q171.5313,34.9844 171.5313,33.7031 L171.5313,32.5469 Q171.5313,31.2188 172.1406,30.0781 Q172.7656,28.9219 173.8594,28.3125 Q174.9531,27.6875 176.1875,27.6875 Q176.9219,27.6875 177.5625,27.8594 Q178.2188,28.0156 178.7656,28.375 Z " fill="#000000"/><text fill="#000000" font-family="sans-serif" font-size="14" lengthAdjust="spacing" textLength="137" x="190" y="38.2969">RegisterJobController</text><line style="stroke:#181818;stroke-width:0.5;" x1="162" x2="329" y1="48.5" y2="48.5"/><line style="stroke:#181818;stroke-width:0.5;" x1="162" x2="329" y1="56.5" y2="56.5"/><text fill="#000000" font-family="sans-serif" font-size="14" lengthAdjust="spacing" textLength="155" x="167" y="75.6074">+RegisterJobController()</text><text fill="#000000" font-family="sans-serif" font-size="14" lengthAdjust="spacing" textLength="89" x="167" y="94.2285">+getJobsList()</text></g><!--class Job--><g id="elem_Job"><rect codeLine="15" fill="#F1F1F1" height="196.9688" id="Job" rx="2.5" ry="2.5" style="stroke:#181818;stroke-width:0.5;" width="136" x="197.5" y="429"/><ellipse cx="250.25" cy="445" fill="#ADD1B2" rx="11" ry="11" style="stroke:#181818;stroke-width:1.0;"/><path d="M253.0156,440.875 Q253.1719,440.6563 253.3594,440.5469 Q253.5469,440.4375 253.7656,440.4375 Q254.1406,440.4375 254.375,440.7031 Q254.6094,440.9531 254.6094,441.5625 L254.6094,443.0156 Q254.6094,443.625 254.375,443.8906 Q254.1406,444.1563 253.7656,444.1563 Q253.4219,444.1563 253.2188,443.9531 Q253.0156,443.7656 252.9063,443.25 Q252.8594,442.8906 252.6719,442.7031 Q252.3438,442.3281 251.7344,442.1094 Q251.125,441.8906 250.5,441.8906 Q249.7344,441.8906 249.0938,442.2188 Q248.4688,442.5469 247.9688,443.2969 Q247.4844,444.0469 247.4844,445.0781 L247.4844,446.1719 Q247.4844,447.4063 248.375,448.2344 Q249.2656,449.0469 250.8594,449.0469 Q251.7969,449.0469 252.4531,448.7969 Q252.8438,448.6406 253.2656,448.2031 Q253.5313,447.9375 253.6719,447.8594 Q253.8281,447.7813 254.0313,447.7813 Q254.3594,447.7813 254.6094,448.0469 Q254.875,448.2969 254.875,448.6406 Q254.875,448.9844 254.5313,449.3906 Q254.0313,449.9688 253.2344,450.2969 Q252.1563,450.75 250.8594,450.75 Q249.3438,450.75 248.1406,450.125 Q247.1563,449.625 246.4688,448.5625 Q245.7813,447.4844 245.7813,446.2031 L245.7813,445.0469 Q245.7813,443.7188 246.3906,442.5781 Q247.0156,441.4219 248.1094,440.8125 Q249.2031,440.1875 250.4375,440.1875 Q251.1719,440.1875 251.8125,440.3594 Q252.4688,440.5156 253.0156,440.875 Z " fill="#000000"/><text fill="#000000" font-family="sans-serif" font-size="14" lengthAdjust="spacing" textLength="22" x="270.75" y="450.7969">Job</text><line style="stroke:#181818;stroke-width:0.5;" x1="198.5" x2="332.5" y1="461" y2="461"/><text fill="#000000" font-family="sans-serif" font-size="14" lengthAdjust="spacing" textLength="81" x="203.5" y="480.1074">-String name</text><line style="stroke:#181818;stroke-width:0.5;" x1="198.5" x2="332.5" y1="487.6211" y2="487.6211"/><text fill="#000000" font-family="sans-serif" font-size="14" lengthAdjust="spacing" textLength="75" x="203.5" y="506.7285">+Job(name)</text><text fill="#000000" font-family="sans-serif" font-size="14" lengthAdjust="spacing" textLength="74" x="203.5" y="525.3496">+getName()</text><text fill="#000000" font-family="sans-serif" font-size="14" lengthAdjust="spacing" textLength="73" x="203.5" y="543.9707">+setName()</text><text fill="#000000" font-family="sans-serif" font-size="14" lengthAdjust="spacing" textLength="60" x="203.5" y="562.5918">+equals()</text><text fill="#000000" font-family="sans-serif" font-size="14" lengthAdjust="spacing" textLength="67" x="203.5" y="581.2129">+toString()</text><text fill="#000000" font-family="sans-serif" font-size="14" lengthAdjust="spacing" textLength="52" x="203.5" y="599.834">+clone()</text><text fill="#000000" font-family="sans-serif" font-size="14" lengthAdjust="spacing" textLength="124" x="203.5" y="618.4551">+validateJob(name)</text></g><!--class JobsRepository--><g id="elem_JobsRepository"><rect codeLine="26" fill="#F1F1F1" height="178.3477" id="JobsRepository" rx="2.5" ry="2.5" style="stroke:#181818;stroke-width:0.5;" width="168" x="302.5" y="190"/><ellipse cx="335.05" cy="206" fill="#ADD1B2" rx="11" ry="11" style="stroke:#181818;stroke-width:1.0;"/><path d="M337.8156,201.875 Q337.9719,201.6563 338.1594,201.5469 Q338.3469,201.4375 338.5656,201.4375 Q338.9406,201.4375 339.175,201.7031 Q339.4094,201.9531 339.4094,202.5625 L339.4094,204.0156 Q339.4094,204.625 339.175,204.8906 Q338.9406,205.1563 338.5656,205.1563 Q338.2219,205.1563 338.0188,204.9531 Q337.8156,204.7656 337.7063,204.25 Q337.6594,203.8906 337.4719,203.7031 Q337.1438,203.3281 336.5344,203.1094 Q335.925,202.8906 335.3,202.8906 Q334.5344,202.8906 333.8938,203.2188 Q333.2688,203.5469 332.7688,204.2969 Q332.2844,205.0469 332.2844,206.0781 L332.2844,207.1719 Q332.2844,208.4063 333.175,209.2344 Q334.0656,210.0469 335.6594,210.0469 Q336.5969,210.0469 337.2531,209.7969 Q337.6438,209.6406 338.0656,209.2031 Q338.3313,208.9375 338.4719,208.8594 Q338.6281,208.7813 338.8313,208.7813 Q339.1594,208.7813 339.4094,209.0469 Q339.675,209.2969 339.675,209.6406 Q339.675,209.9844 339.3313,210.3906 Q338.8313,210.9688 338.0344,211.2969 Q336.9563,211.75 335.6594,211.75 Q334.1438,211.75 332.9406,211.125 Q331.9563,210.625 331.2688,209.5625 Q330.5813,208.4844 330.5813,207.2031 L330.5813,206.0469 Q330.5813,204.7188 331.1906,203.5781 Q331.8156,202.4219 332.9094,201.8125 Q334.0031,201.1875 335.2375,201.1875 Q335.9719,201.1875 336.6125,201.3594 Q337.2688,201.5156 337.8156,201.875 Z " fill="#000000"/><text fill="#000000" font-family="sans-serif" font-size="14" lengthAdjust="spacing" textLength="97" x="352.95" y="211.7969">JobsRepository</text><line style="stroke:#181818;stroke-width:0.5;" x1="303.5" x2="469.5" y1="222" y2="222"/><text fill="#000000" font-family="sans-serif" font-size="14" lengthAdjust="spacing" textLength="117" x="308.5" y="241.1074">-List&lt;Job&gt; jobsList</text><line style="stroke:#181818;stroke-width:0.5;" x1="303.5" x2="469.5" y1="248.6211" y2="248.6211"/><text fill="#000000" font-family="sans-serif" font-size="14" lengthAdjust="spacing" textLength="115" x="308.5" y="267.7285">+JobsRepository()</text><text fill="#000000" font-family="sans-serif" font-size="14" lengthAdjust="spacing" textLength="156" x="308.5" y="286.3496">+Optional&lt;Job&gt; add(job)</text><text fill="#000000" font-family="sans-serif" font-size="14" lengthAdjust="spacing" textLength="99" x="308.5" y="304.9707">+addJob(name)</text><text fill="#000000" font-family="sans-serif" font-size="14" lengthAdjust="spacing" textLength="124" x="308.5" y="323.5918">+validateJob(name)</text><text fill="#000000" font-family="sans-serif" font-size="14" lengthAdjust="spacing" textLength="105" x="308.5" y="342.2129">-validateJob(job)</text><text fill="#000000" font-family="sans-serif" font-size="14" lengthAdjust="spacing" textLength="89" x="308.5" y="360.834">+getJobsList()</text></g><!--class Repositories--><g id="elem_Repositories"><rect codeLine="36" fill="#F1F1F1" height="103.8633" id="Repositories" rx="2.5" ry="2.5" style="stroke:#181818;stroke-width:0.5;" width="194" x="433.5" y="7"/><ellipse cx="486.75" cy="23" fill="#ADD1B2" rx="11" ry="11" style="stroke:#181818;stroke-width:1.0;"/><path d="M489.5156,18.875 Q489.6719,18.6563 489.8594,18.5469 Q490.0469,18.4375 490.2656,18.4375 Q490.6406,18.4375 490.875,18.7031 Q491.1094,18.9531 491.1094,19.5625 L491.1094,21.0156 Q491.1094,21.625 490.875,21.8906 Q490.6406,22.1563 490.2656,22.1563 Q489.9219,22.1563 489.7188,21.9531 Q489.5156,21.7656 489.4063,21.25 Q489.3594,20.8906 489.1719,20.7031 Q488.8438,20.3281 488.2344,20.1094 Q487.625,19.8906 487,19.8906 Q486.2344,19.8906 485.5938,20.2188 Q484.9688,20.5469 484.4688,21.2969 Q483.9844,22.0469 483.9844,23.0781 L483.9844,24.1719 Q483.9844,25.4063 484.875,26.2344 Q485.7656,27.0469 487.3594,27.0469 Q488.2969,27.0469 488.9531,26.7969 Q489.3438,26.6406 489.7656,26.2031 Q490.0313,25.9375 490.1719,25.8594 Q490.3281,25.7813 490.5313,25.7813 Q490.8594,25.7813 491.1094,26.0469 Q491.375,26.2969 491.375,26.6406 Q491.375,26.9844 491.0313,27.3906 Q490.5313,27.9688 489.7344,28.2969 Q488.6563,28.75 487.3594,28.75 Q485.8438,28.75 484.6406,28.125 Q483.6563,27.625 482.9688,26.5625 Q482.2813,25.4844 482.2813,24.2031 L482.2813,23.0469 Q482.2813,21.7188 482.8906,20.5781 Q483.5156,19.4219 484.6094,18.8125 Q485.7031,18.1875 486.9375,18.1875 Q487.6719,18.1875 488.3125,18.3594 Q488.9688,18.5156 489.5156,18.875 Z " fill="#000000"/><text fill="#000000" font-family="sans-serif" font-size="14" lengthAdjust="spacing" textLength="79" x="507.25" y="28.7969">Repositories</text><line style="stroke:#181818;stroke-width:0.5;" x1="434.5" x2="626.5" y1="39" y2="39"/><line style="stroke:#181818;stroke-width:0.5;" x1="434.5" x2="626.5" y1="47" y2="47"/><text fill="#000000" font-family="sans-serif" font-size="14" lengthAdjust="spacing" textLength="94" x="439.5" y="66.1074">-Repositories()</text><text fill="#000000" font-family="sans-serif" font-size="14" lengthAdjust="spacing" textLength="182" x="439.5" y="84.7285">+getInstance() : Repositories</text><text fill="#000000" font-family="sans-serif" font-size="14" lengthAdjust="spacing" textLength="135" x="439.5" y="103.3496">+getJobsRepository()</text></g><!--link RegisterJobUI to RegisterJobController--><g id="link_RegisterJobUI_RegisterJobController"><path codeLine="42" d="M126,59 C126.11,59 126.17,59 126.17,59 C126.17,59 138.52,59 154.88,59 " fill="none" id="RegisterJobUI-to-RegisterJobController" style="stroke:#181818;stroke-width:1.0;stroke-dasharray:7.0,7.0;"/><polygon fill="#181818" points="160.88,59,151.88,55,155.88,59,151.88,63,160.88,59" style="stroke:#181818;stroke-width:1.0;"/></g><!--link RegisterJobController to Repositories--><g id="link_RegisterJobController_Repositories"><path codeLine="44" d="M330.24,59 C362.64,59 393.85,59 427.33,59 " fill="none" id="RegisterJobController-to-Repositories" style="stroke:#181818;stroke-width:1.0;stroke-dasharray:7.0,7.0;"/><polygon fill="#181818" points="433.33,59,424.33,55,428.33,59,424.33,63,433.33,59" style="stroke:#181818;stroke-width:1.0;"/><text fill="#000000" font-family="sans-serif" font-size="13" lengthAdjust="spacing" textLength="67" x="348.25" y="52.0283">repositories</text></g><!--link Repositories to JobsRepository--><g id="link_Repositories_JobsRepository"><path codeLine="46" d="M496.74,111.11 C481.28,134.52 465.8065,157.9333 448.1665,184.6433 " fill="none" id="Repositories-to-JobsRepository" style="stroke:#181818;stroke-width:1.0;"/><polygon fill="#181818" points="444.86,189.65,453.1576,184.3444,447.6155,185.4778,446.482,179.9356,444.86,189.65" style="stroke:#181818;stroke-width:1.0;"/><text fill="#000000" font-family="sans-serif" font-size="13" lengthAdjust="spacing" textLength="7" x="442.2317" y="178.8786">1</text></g><!--link RegisterJobController to Job--><g id="link_RegisterJobController_Job"><path codeLine="48" d="M247.29,101.81 C250.43,174.94 256.7336,321.8955 261.0536,422.8755 " fill="none" id="RegisterJobController-to-Job" style="stroke:#181818;stroke-width:1.0;stroke-dasharray:7.0,7.0;"/><polygon fill="#181818" points="261.31,428.87,264.9217,419.7073,261.0963,423.8746,256.929,420.0492,261.31,428.87" style="stroke:#181818;stroke-width:1.0;"/><text fill="#000000" font-family="sans-serif" font-size="13" lengthAdjust="spacing" textLength="20" x="259.5" y="284.5283">Job</text></g><!--link RegisterJobController to JobsRepository--><g id="link_RegisterJobController_JobsRepository"><path codeLine="49" d="M272.35,101.52 C288.49,126.47 306.4115,154.1719 326.1315,184.6619 " fill="none" id="RegisterJobController-to-JobsRepository" style="stroke:#181818;stroke-width:1.0;stroke-dasharray:7.0,7.0;"/><polygon fill="#181818" points="329.39,189.7,327.861,179.9706,326.6746,185.5016,321.1436,184.3152,329.39,189.7" style="stroke:#181818;stroke-width:1.0;"/><text fill="#000000" font-family="sans-serif" font-size="13" lengthAdjust="spacing" textLength="89" x="309.5" y="156.0283">JobsRepository</text></g><!--link JobsRepository to Job--><g id="link_JobsRepository_Job"><path codeLine="51" d="M343.16,368.3 C333.53,387.91 325.9155,403.4347 316.1055,423.4047 " fill="none" id="JobsRepository-to-Job" style="stroke:#181818;stroke-width:1.0;"/><polygon fill="#181818" points="313.46,428.79,321.0184,422.4757,315.6646,424.3022,313.838,418.9484,313.46,428.79" style="stroke:#181818;stroke-width:1.0;"/><text fill="#000000" font-family="sans-serif" font-size="13" lengthAdjust="spacing" textLength="7" x="332.2811" y="390.425">1</text><text fill="#000000" font-family="sans-serif" font-size="13" lengthAdjust="spacing" textLength="5" x="311.9405" y="417.6224">*</text></g><!--SRC=[VL9DJyCm3BtdLqGx3T0GN2iq2N4gGY1juWTahIbXML9Y3rGG_nstAvdRRVHGoNulpyyVkBQ-Dj5iT6sAjQbWIOq37Q4Wuoi72XC1NqqPFgslz8jnA15dFL1JWww3Qzf0O8KpYBT4qQws17aH_D9-WRvIIdMGNa1baI3UXzLphh_Lpn7WBdYAmJc8JD3yNHn7fsSzMW4nW0zCuLoIv5mlCDDBjiIzUBE1_X6ZqpOK8eyS9b4SnV2-vK6aaC9ECYKA5_oU_M6SBGt1legqXGke0reAiKaEM_StZCtrMz_BtgZWfmfFDTdWZTkzCMKvvNT_88VZ_WuTxUhAl50uCTDan08cwp8fbv9xvBigU2ew6v26DGRDSQNXZLpEZsz_m1Cdq_65oOpFMrHM0t0sc-l9zMGquvFIhDqULTR-_-V83MS7yYD2ww1pSjuvKRy0]--></g></svg>