<?xml version="1.0" encoding="us-ascii" standalone="no"?><svg xmlns="http://www.w3.org/2000/svg" xmlns:xlink="http://www.w3.org/1999/xlink" contentStyleType="text/css" height="710px" preserveAspectRatio="none" style="width:785px;height:710px;background:#FFFFFF;" version="1.1" viewBox="0 0 785 710" width="785px" zoomAndPan="magnify"><defs/><g><rect fill="#FFFFFF" height="487.3262" style="stroke:#181818;stroke-width:1.0;" width="10" x="76" y="112.2422"/><rect fill="#FFFFFF" height="149.4551" style="stroke:#181818;stroke-width:1.0;" width="10" x="369" y="135.5332"/><rect fill="#FFFFFF" height="211.707" style="stroke:#181818;stroke-width:1.0;" width="10" x="369" y="316.2793"/><rect fill="#FFFFFF" height="31.291" style="stroke:#181818;stroke-width:1.0;" width="10" x="369" y="559.2773"/><rect fill="#FFFFFF" height="351.1621" style="stroke:#181818;stroke-width:1.0;" width="10" x="516" y="176.8242"/><rect fill="#FFFFFF" height="149.125" style="stroke:#181818;stroke-width:1.0;" width="10" x="521" y="347.5703"/><rect fill="#FFFFFF" height="86.543" style="stroke:#181818;stroke-width:1.0;" width="10" x="680.5" y="378.8613"/><rect fill="none" height="192.707" style="stroke:#000000;stroke-width:1.5;" width="769" x="10" y="242.4063"/><line style="stroke:#181818;stroke-width:0.5;stroke-dasharray:5.0,5.0;" x1="81" x2="81" y1="102.2422" y2="608.5684"/><line style="stroke:#181818;stroke-width:0.5;stroke-dasharray:5.0,5.0;" x1="374" x2="374" y1="102.2422" y2="608.5684"/><line style="stroke:#181818;stroke-width:0.5;stroke-dasharray:5.0,5.0;" x1="521" x2="521" y1="175.3438" y2="608.5684"/><line style="stroke:#181818;stroke-width:0.5;stroke-dasharray:5.0,5.0;" x1="685" x2="685" y1="102.2422" y2="608.5684"/><text fill="#000000" font-family="sans-serif" font-size="14" lengthAdjust="spacing" textLength="116" x="20" y="80.1074">Human Resources</text><text fill="#000000" font-family="sans-serif" font-size="14" lengthAdjust="spacing" textLength="56" x="50" y="98.7285">Manager</text><ellipse cx="81" cy="13.5" fill="#E3E3E3" rx="8" ry="8" style="stroke:#181818;stroke-width:0.5;"/><path d="M81,21.5 L81,48.5 M68,29.5 L94,29.5 M81,48.5 L68,63.5 M81,48.5 L94,63.5 " fill="none" style="stroke:#181818;stroke-width:0.5;"/><text fill="#000000" font-family="sans-serif" font-size="14" lengthAdjust="spacing" textLength="116" x="20" y="622.6758">Human Resources</text><text fill="#000000" font-family="sans-serif" font-size="14" lengthAdjust="spacing" textLength="56" x="50" y="641.2969">Manager</text><ellipse cx="81" cy="653.3105" fill="#E3E3E3" rx="8" ry="8" style="stroke:#181818;stroke-width:0.5;"/><path d="M81,661.3105 L81,688.3105 M68,669.3105 L94,669.3105 M81,688.3105 L68,703.3105 M81,688.3105 L94,703.3105 " fill="none" style="stroke:#181818;stroke-width:0.5;"/><rect fill="#E3E3E3" height="32.6211" rx="2.5" ry="2.5" style="stroke:#181818;stroke-width:0.5;" width="92" x="328" y="68.6211"/><text fill="#000000" font-family="sans-serif" font-size="14" lengthAdjust="spacing" textLength="78" x="335" y="90.7285">:RegistJobUI</text><rect fill="#E3E3E3" height="32.6211" rx="2.5" ry="2.5" style="stroke:#181818;stroke-width:0.5;" width="92" x="328" y="607.5684"/><text fill="#000000" font-family="sans-serif" font-size="14" lengthAdjust="spacing" textLength="78" x="335" y="629.6758">:RegistJobUI</text><rect fill="#E3E3E3" height="32.6211" rx="2.5" ry="2.5" style="stroke:#181818;stroke-width:0.5;" width="142" x="450" y="607.5684"/><text fill="#000000" font-family="sans-serif" font-size="14" lengthAdjust="spacing" textLength="128" x="457" y="629.6758">:RegistJobController</text><rect fill="#E3E3E3" height="51.2422" rx="2.5" ry="2.5" style="stroke:#181818;stroke-width:0.5;" width="167" x="602" y="50"/><text fill="#000000" font-family="sans-serif" font-size="14" lengthAdjust="spacing" textLength="152" x="609.5" y="72.1074">registedJobsRepository:</text><text fill="#000000" font-family="sans-serif" font-size="14" lengthAdjust="spacing" textLength="153" x="609" y="90.7285">RegistedJobsRepository</text><rect fill="#E3E3E3" height="51.2422" rx="2.5" ry="2.5" style="stroke:#181818;stroke-width:0.5;" width="167" x="602" y="607.5684"/><text fill="#000000" font-family="sans-serif" font-size="14" lengthAdjust="spacing" textLength="152" x="609.5" y="629.6758">registedJobsRepository:</text><text fill="#000000" font-family="sans-serif" font-size="14" lengthAdjust="spacing" textLength="153" x="609" y="648.2969">RegistedJobsRepository</text><rect fill="#FFFFFF" height="487.3262" style="stroke:#181818;stroke-width:1.0;" width="10" x="76" y="112.2422"/><rect fill="#FFFFFF" height="149.4551" style="stroke:#181818;stroke-width:1.0;" width="10" x="369" y="135.5332"/><rect fill="#FFFFFF" height="211.707" style="stroke:#181818;stroke-width:1.0;" width="10" x="369" y="316.2793"/><rect fill="#FFFFFF" height="31.291" style="stroke:#181818;stroke-width:1.0;" width="10" x="369" y="559.2773"/><rect fill="#FFFFFF" height="351.1621" style="stroke:#181818;stroke-width:1.0;" width="10" x="516" y="176.8242"/><rect fill="#FFFFFF" height="149.125" style="stroke:#181818;stroke-width:1.0;" width="10" x="521" y="347.5703"/><rect fill="#FFFFFF" height="86.543" style="stroke:#181818;stroke-width:1.0;" width="10" x="680.5" y="378.8613"/><polygon fill="#181818" points="357,131.5332,367,135.5332,357,139.5332,361,135.5332" style="stroke:#181818;stroke-width:1.0;"/><line style="stroke:#181818;stroke-width:1.0;" x1="86" x2="363" y1="135.5332" y2="135.5332"/><text fill="#000000" font-family="sans-serif" font-size="13" font-weight="bold" lengthAdjust="spacing" textLength="7" x="93" y="130.2705">1</text><text fill="#000000" font-family="sans-serif" font-size="13" lengthAdjust="spacing" textLength="138" x="104" y="130.2705">asks to regist a new job</text><polygon fill="#181818" points="438,162.8242,448,166.8242,438,170.8242,442,166.8242" style="stroke:#181818;stroke-width:1.0;"/><line style="stroke:#181818;stroke-width:1.0;" x1="379" x2="444" y1="166.8242" y2="166.8242"/><text fill="#000000" font-family="sans-serif" font-size="13" font-weight="bold" lengthAdjust="spacing" textLength="7" x="386" y="161.5615">2</text><text fill="#000000" font-family="sans-serif" font-size="13" lengthAdjust="spacing" textLength="36" x="397" y="161.5615">create</text><rect fill="#E3E3E3" height="32.6211" rx="2.5" ry="2.5" style="stroke:#181818;stroke-width:0.5;" width="142" x="450" y="143.5332"/><text fill="#000000" font-family="sans-serif" font-size="14" lengthAdjust="spacing" textLength="128" x="457" y="165.6406">:RegistJobController</text><rect fill="none" height="43.252" style="stroke:#000000;stroke-width:1.5;" width="172" x="447" y="187.1543"/><path d="M447,187.1543 L509,187.1543 L509,196.1543 L499,206.1543 L447,206.1543 L447,187.1543 " fill="#EEEEEE" style="stroke:#000000;stroke-width:2.0;"/><text fill="#000000" font-family="sans-serif" font-size="13" font-weight="bold" lengthAdjust="spacing" textLength="17" x="460" y="203.1826">ref</text><text fill="#000000" font-family="sans-serif" font-size="12" lengthAdjust="spacing" textLength="164" x="451" y="223.1035">Get Registed Jobs Repository</text><path d="M10,242.4063 L83,242.4063 L83,251.6973 L73,261.6973 L10,261.6973 L10,242.4063 " fill="#EEEEEE" style="stroke:#000000;stroke-width:1.5;"/><rect fill="none" height="192.707" style="stroke:#000000;stroke-width:1.5;" width="769" x="10" y="242.4063"/><text fill="#000000" font-family="sans-serif" font-size="13" font-weight="bold" lengthAdjust="spacing" textLength="28" x="25" y="257.4346">loop</text><text fill="#000000" font-family="sans-serif" font-size="11" font-weight="bold" lengthAdjust="spacing" textLength="90" x="98" y="256.2764">[while intended]</text><polygon fill="#181818" points="97,280.9883,87,284.9883,97,288.9883,93,284.9883" style="stroke:#181818;stroke-width:1.0;"/><line style="stroke:#181818;stroke-width:1.0;stroke-dasharray:2.0,2.0;" x1="91" x2="373" y1="284.9883" y2="284.9883"/><text fill="#000000" font-family="sans-serif" font-size="13" font-weight="bold" lengthAdjust="spacing" textLength="7" x="103" y="279.7256">7</text><text fill="#000000" font-family="sans-serif" font-size="13" lengthAdjust="spacing" textLength="129" x="114" y="279.7256">requests the job name</text><polygon fill="#181818" points="357,312.2793,367,316.2793,357,320.2793,361,316.2793" style="stroke:#181818;stroke-width:1.0;"/><line style="stroke:#181818;stroke-width:1.0;" x1="86" x2="363" y1="316.2793" y2="316.2793"/><text fill="#000000" font-family="sans-serif" font-size="13" font-weight="bold" lengthAdjust="spacing" textLength="7" x="93" y="311.0166">8</text><text fill="#000000" font-family="sans-serif" font-size="13" lengthAdjust="spacing" textLength="95" x="104" y="311.0166">type the new job</text><polygon fill="#181818" points="509,343.5703,519,347.5703,509,351.5703,513,347.5703" style="stroke:#181818;stroke-width:1.0;"/><line style="stroke:#181818;stroke-width:1.0;stroke-dasharray:2.0,2.0;" x1="379" x2="515" y1="347.5703" y2="347.5703"/><text fill="#000000" font-family="sans-serif" font-size="13" font-weight="bold" lengthAdjust="spacing" textLength="7" x="386" y="342.3076">9</text><text fill="#000000" font-family="sans-serif" font-size="13" lengthAdjust="spacing" textLength="36" x="397" y="342.3076">create</text><polygon fill="#181818" points="668.5,374.8613,678.5,378.8613,668.5,382.8613,672.5,378.8613" style="stroke:#181818;stroke-width:1.0;"/><line style="stroke:#181818;stroke-width:1.0;stroke-dasharray:2.0,2.0;" x1="531" x2="674.5" y1="378.8613" y2="378.8613"/><text fill="#000000" font-family="sans-serif" font-size="13" font-weight="bold" lengthAdjust="spacing" textLength="14" x="538" y="373.5986">10</text><text fill="#000000" font-family="sans-serif" font-size="13" lengthAdjust="spacing" textLength="36" x="556" y="373.5986">create</text><rect fill="none" height="43.252" style="stroke:#000000;stroke-width:1.5;" width="173" x="599" y="386.8613"/><path d="M599,386.8613 L661,386.8613 L661,395.8613 L651,405.8613 L599,405.8613 L599,386.8613 " fill="#EEEEEE" style="stroke:#000000;stroke-width:2.0;"/><text fill="#000000" font-family="sans-serif" font-size="13" font-weight="bold" lengthAdjust="spacing" textLength="17" x="612" y="402.8896">ref</text><text fill="#000000" font-family="sans-serif" font-size="12" lengthAdjust="spacing" textLength="125" x="623" y="422.8105">Get Registed Jobs List</text><polygon fill="#181818" points="542,461.4043,532,465.4043,542,469.4043,538,465.4043" style="stroke:#181818;stroke-width:1.0;"/><line style="stroke:#181818;stroke-width:1.0;stroke-dasharray:2.0,2.0;" x1="536" x2="684.5" y1="465.4043" y2="465.4043"/><text fill="#000000" font-family="sans-serif" font-size="13" font-weight="bold" lengthAdjust="spacing" textLength="14" x="548" y="460.1416">14</text><text fill="#000000" font-family="sans-serif" font-size="13" lengthAdjust="spacing" textLength="94" x="566" y="460.1416">registedJobsList</text><polygon fill="#181818" points="390,492.6953,380,496.6953,390,500.6953,386,496.6953" style="stroke:#181818;stroke-width:1.0;"/><line style="stroke:#181818;stroke-width:1.0;stroke-dasharray:2.0,2.0;" x1="384" x2="515" y1="496.6953" y2="496.6953"/><text fill="#000000" font-family="sans-serif" font-size="13" font-weight="bold" lengthAdjust="spacing" textLength="14" x="396" y="491.4326">15</text><text fill="#000000" font-family="sans-serif" font-size="13" lengthAdjust="spacing" textLength="94" x="414" y="491.4326">registedJobsList</text><polygon fill="#181818" points="97,523.9863,87,527.9863,97,531.9863,93,527.9863" style="stroke:#181818;stroke-width:1.0;"/><line style="stroke:#181818;stroke-width:1.0;stroke-dasharray:2.0,2.0;" x1="91" x2="373" y1="527.9863" y2="527.9863"/><text fill="#000000" font-family="sans-serif" font-size="13" font-weight="bold" lengthAdjust="spacing" textLength="14" x="103" y="522.7236">16</text><text fill="#000000" font-family="sans-serif" font-size="13" lengthAdjust="spacing" textLength="241" x="121" y="522.7236">list all registered jobs and asks to confirm</text><polygon fill="#181818" points="357,555.2773,367,559.2773,357,563.2773,361,559.2773" style="stroke:#181818;stroke-width:1.0;"/><line style="stroke:#181818;stroke-width:1.0;" x1="86" x2="363" y1="559.2773" y2="559.2773"/><text fill="#000000" font-family="sans-serif" font-size="13" font-weight="bold" lengthAdjust="spacing" textLength="14" x="93" y="554.0146">17</text><text fill="#000000" font-family="sans-serif" font-size="13" lengthAdjust="spacing" textLength="94" x="111" y="554.0146">confirms all jobs</text><polygon fill="#181818" points="97,586.5684,87,590.5684,97,594.5684,93,590.5684" style="stroke:#181818;stroke-width:1.0;"/><line style="stroke:#181818;stroke-width:1.0;stroke-dasharray:2.0,2.0;" x1="91" x2="373" y1="590.5684" y2="590.5684"/><text fill="#000000" font-family="sans-serif" font-size="13" font-weight="bold" lengthAdjust="spacing" textLength="14" x="103" y="585.3057">18</text><text fill="#000000" font-family="sans-serif" font-size="13" lengthAdjust="spacing" textLength="158" x="121" y="585.3057">displays operation success</text><!--SRC=[ZLGzJyCm4DtpAquTaHYGa90wi33m8LW2R2nNvzgwTNp1TgZwxpcR9jXg8jLB8z-xv_VUsVLxRJjqs4BBbjNMSKiGN4-L7oiTgZrkw3qS3O4Z5T1kJ0xmMspueEq6rcWyLHMgm0uMJtsB5chot3j5_ik-eHKYjm3qy5I_LT8UjD8TsW2BPKqRxSCBhpwV4-BpUGxmm3OuDkP4zV1HlvPGbv3K2DRNrB7N8kYu_BBrP26nJ9V4J1_OzksA7DmaQ_e70oNz84j-uVfUnC9IMFOU0iFVyO1WwG0xNYNWs2c-uBIaItgZ_gihwLUE131MnuvaSDXrj0R-4JN5RboF54ON46r0vcC0aMqYHPKs37C7XwsMmMeRf4HDmPXvloiAKRWeZ-QNGlVTamzYVKlHBbXi_rqqDEKyZoqSEqgzULnpaMMdnm0k32skk97wfYTzddz1DtCzPjAwkIqguymkO9cUvAjy5x1XZgVlCuePaqDkQMp_Y3FwR6eNQ1wZJVES9Sv8Y-aKjycafsFCGECaWbsC0CNnyC8KsxLsxPpaWlty0kQNxyJaqv7ndCd7MYXijEyC7ZrmHmw3PWk-L_8FzzTRdlSB]--></g></svg>