<?xml version="1.0" encoding="us-ascii" standalone="no"?><svg xmlns="http://www.w3.org/2000/svg" xmlns:xlink="http://www.w3.org/1999/xlink" contentStyleType="text/css" height="380px" preserveAspectRatio="none" style="width:350px;height:380px;background:#FFFFFF;" version="1.1" viewBox="0 0 350 380" width="350px" zoomAndPan="magnify"><defs/><g><rect fill="#FFFFFF" height="215.4063" style="stroke:#181818;stroke-width:1.0;" width="10" x="131" y="90.5332"/><rect fill="none" height="170.1152" style="stroke:#000000;stroke-width:1.5;" width="302" x="42.5" y="105.5332"/><line style="stroke:#181818;stroke-width:0.5;stroke-dasharray:5.0,5.0;" x1="135.5" x2="135.5" y1="57.2422" y2="323.9395"/><line style="stroke:#181818;stroke-width:0.5;stroke-dasharray:5.0,5.0;" x1="299.5" x2="299.5" y1="165.9453" y2="323.9395"/><rect fill="#E3E3E3" height="51.2422" rx="2.5" ry="2.5" style="stroke:#181818;stroke-width:0.5;" width="167" x="52.5" y="5"/><text fill="#000000" font-family="sans-serif" font-size="14" lengthAdjust="spacing" textLength="152" x="60" y="27.1074">registedJobsRepository:</text><text fill="#000000" font-family="sans-serif" font-size="14" lengthAdjust="spacing" textLength="153" x="59.5" y="45.7285">RegistedJobsRepository</text><rect fill="#E3E3E3" height="51.2422" rx="2.5" ry="2.5" style="stroke:#181818;stroke-width:0.5;" width="167" x="52.5" y="322.9395"/><text fill="#000000" font-family="sans-serif" font-size="14" lengthAdjust="spacing" textLength="152" x="60" y="345.0469">registedJobsRepository:</text><text fill="#000000" font-family="sans-serif" font-size="14" lengthAdjust="spacing" textLength="153" x="59.5" y="363.668">RegistedJobsRepository</text><rect fill="#E3E3E3" height="51.2422" rx="2.5" ry="2.5" style="stroke:#181818;stroke-width:0.5;" width="69" x="265.5" y="322.9395"/><text fill="#000000" font-family="sans-serif" font-size="14" lengthAdjust="spacing" textLength="55" x="272.5" y="345.0469">name</text><text fill="#000000" font-family="sans-serif" font-size="14" lengthAdjust="spacing" textLength="26" x="287" y="363.668">:Job</text><rect fill="#FFFFFF" height="215.4063" style="stroke:#181818;stroke-width:1.0;" width="10" x="131" y="90.5332"/><polygon fill="#181818" points="119,86.5332,129,90.5332,119,94.5332,123,90.5332" style="stroke:#181818;stroke-width:1.0;"/><line style="stroke:#181818;stroke-width:1.0;" x1="0" x2="125" y1="90.5332" y2="90.5332"/><text fill="#000000" font-family="sans-serif" font-size="13" font-weight="bold" lengthAdjust="spacing" textLength="14" x="7" y="85.2705">10</text><text fill="#000000" font-family="sans-serif" font-size="13" lengthAdjust="spacing" textLength="36" x="25" y="85.2705">create</text><path d="M42.5,105.5332 L168.5,105.5332 L168.5,114.8242 L158.5,124.8242 L42.5,124.8242 L42.5,105.5332 " fill="#EEEEEE" style="stroke:#000000;stroke-width:1.5;"/><rect fill="none" height="170.1152" style="stroke:#000000;stroke-width:1.5;" width="302" x="42.5" y="105.5332"/><text fill="#000000" font-family="sans-serif" font-size="13" font-weight="bold" lengthAdjust="spacing" textLength="81" x="57.5" y="120.5615">Create a Job</text><polygon fill="#181818" points="253.5,144.1152,263.5,148.1152,253.5,152.1152,257.5,148.1152" style="stroke:#181818;stroke-width:1.0;"/><line style="stroke:#181818;stroke-width:1.0;" x1="141" x2="259.5" y1="148.1152" y2="148.1152"/><text fill="#000000" font-family="sans-serif" font-size="13" font-weight="bold" lengthAdjust="spacing" textLength="14" x="148" y="142.8525">11</text><text fill="#000000" font-family="sans-serif" font-size="13" lengthAdjust="spacing" textLength="36" x="166" y="142.8525">create</text><rect fill="#E3E3E3" height="51.2422" rx="2.5" ry="2.5" style="stroke:#181818;stroke-width:0.5;" width="69" x="265.5" y="124.8242"/><text fill="#000000" font-family="sans-serif" font-size="14" lengthAdjust="spacing" textLength="55" x="272.5" y="146.9316">name</text><text fill="#000000" font-family="sans-serif" font-size="14" lengthAdjust="spacing" textLength="26" x="287" y="165.5527">:Job</text><line style="stroke:#181818;stroke-width:1.0;" x1="141" x2="183" y1="210.3574" y2="210.3574"/><line style="stroke:#181818;stroke-width:1.0;" x1="183" x2="183" y1="210.3574" y2="223.3574"/><line style="stroke:#181818;stroke-width:1.0;" x1="142" x2="183" y1="223.3574" y2="223.3574"/><polygon fill="#181818" points="152,219.3574,142,223.3574,152,227.3574,148,223.3574" style="stroke:#181818;stroke-width:1.0;"/><text fill="#000000" font-family="sans-serif" font-size="13" font-weight="bold" lengthAdjust="spacing" textLength="14" x="148" y="205.0947">12</text><text fill="#000000" font-family="sans-serif" font-size="13" lengthAdjust="spacing" textLength="100" x="166" y="205.0947">addJob(name)</text><line style="stroke:#181818;stroke-width:1.0;" x1="141" x2="183" y1="254.6484" y2="254.6484"/><line style="stroke:#181818;stroke-width:1.0;" x1="183" x2="183" y1="254.6484" y2="267.6484"/><line style="stroke:#181818;stroke-width:1.0;" x1="142" x2="183" y1="267.6484" y2="267.6484"/><polygon fill="#181818" points="152,263.6484,142,267.6484,152,271.6484,148,267.6484" style="stroke:#181818;stroke-width:1.0;"/><text fill="#000000" font-family="sans-serif" font-size="13" font-weight="bold" lengthAdjust="spacing" textLength="14" x="148" y="249.3857">13</text><text fill="#000000" font-family="sans-serif" font-size="13" lengthAdjust="spacing" textLength="122" x="166" y="249.3857">validateJob(name)</text><polygon fill="#181818" points="11,301.9395,1,305.9395,11,309.9395,7,305.9395" style="stroke:#181818;stroke-width:1.0;"/><line style="stroke:#181818;stroke-width:1.0;stroke-dasharray:2.0,2.0;" x1="5" x2="135" y1="305.9395" y2="305.9395"/><text fill="#000000" font-family="sans-serif" font-size="13" font-weight="bold" lengthAdjust="spacing" textLength="14" x="17" y="300.6768">14</text><text fill="#000000" font-family="sans-serif" font-size="13" lengthAdjust="spacing" textLength="94" x="35" y="300.6768">registedJobsList</text><!--SRC=[dL71QiCm3BthAqHFMo6mNiCOZC6WOxGZkVQYs5hgDRQCxNJqx-Us8-jOGc4wFQJtdfxik3FEKo2BLfoeRH3Bc4BF48U99xMZbkjqw1W3gqIkxIu9SKjQFerhyPswo02vdOmodbp2MU3MnCJwHPfOiPTeaeH3kN7Lw626575yzDltGveLMTwuChDEghTg_RoiwySr0FL9N6yR3hYuW-9Xmh545PWI0wbazXbCRGRCrGRfFJwT54YOAUV-iSPrc3SFgURpOTrrrLHUqiVMpVVnjpy1_cUtfyxedEYl9pjz1lT5CMLSukNdlcO4eFdgMtu1]--></g></svg>