<?xml version="1.0" encoding="UTF-8" standalone="no"?><svg xmlns="http://www.w3.org/2000/svg" xmlns:xlink="http://www.w3.org/1999/xlink" contentStyleType="text/css" height="1362px" preserveAspectRatio="none" style="width:1549px;height:1362px;background:#FFFFFF;" version="1.1" viewBox="0 0 1549 1362" width="1549px" zoomAndPan="magnify"><defs/><g><rect fill="#FFFFFF" height="1105.2393" style="stroke:#181818;stroke-width:1.0;" width="10" x="103" y="129.4799"/><rect fill="#FFFFFF" height="306.9198" style="stroke:#181818;stroke-width:1.0;" width="10" x="411" y="162.7199"/><rect fill="#FFFFFF" height="632.3596" style="stroke:#181818;stroke-width:1.0;" width="10" x="411" y="510.8797"/><rect fill="#FFFFFF" height="41.24" style="stroke:#181818;stroke-width:1.0;" width="10" x="411" y="1184.4793"/><rect fill="#FFFFFF" height="165.9599" style="stroke:#181818;stroke-width:1.0;" width="10" x="621.5" y="213.9599"/><rect fill="#FFFFFF" height="522.6397" style="stroke:#181818;stroke-width:1.0;" width="10" x="621.5" y="552.1197"/><rect fill="#FFFFFF" height="41.24" style="stroke:#181818;stroke-width:1.0;" width="10" x="807" y="256.1999"/><rect fill="#FFFFFF" height="41.24" style="stroke:#181818;stroke-width:1.0;" width="10" x="951" y="338.6798"/><rect fill="#FFFFFF" height="440.1598" style="stroke:#181818;stroke-width:1.0;" width="10" x="1106.5" y="593.3596"/><rect fill="#FFFFFF" height="170.9599" style="stroke:#181818;stroke-width:1.0;" width="10" x="1322.5" y="644.5996"/><rect fill="none" height="598.3596" style="stroke:#000000;stroke-width:1.5;" width="1533.5" x="10" y="394.9198"/><line style="stroke:#181818;stroke-width:0.5;stroke-dasharray:5.0,5.0;" x1="108" x2="108" y1="119.4799" y2="1243.7193"/><line style="stroke:#181818;stroke-width:0.5;stroke-dasharray:5.0,5.0;" x1="416" x2="416" y1="119.4799" y2="1243.7193"/><line style="stroke:#181818;stroke-width:0.5;stroke-dasharray:5.0,5.0;" x1="626" x2="626" y1="206.8399" y2="1243.7193"/><line style="stroke:#181818;stroke-width:0.5;stroke-dasharray:5.0,5.0;" x1="812" x2="812" y1="119.4799" y2="1243.7193"/><line style="stroke:#181818;stroke-width:0.5;stroke-dasharray:5.0,5.0;" x1="956" x2="956" y1="119.4799" y2="1243.7193"/><line style="stroke:#181818;stroke-width:0.5;stroke-dasharray:5.0,5.0;" x1="1111" x2="1111" y1="119.4799" y2="1243.7193"/><line style="stroke:#181818;stroke-width:0.5;stroke-dasharray:5.0,5.0;" x1="1327" x2="1327" y1="651.0996" y2="1243.7193"/><text fill="#000000" font-family="sans-serif" font-size="20" lengthAdjust="spacing" textLength="170" x="20" y="86.38">Human Resources</text><text fill="#000000" font-family="sans-serif" font-size="20" lengthAdjust="spacing" textLength="83" x="63.5" y="113.62">Manager</text><ellipse cx="108" cy="13.5" fill="#E3E3E3" rx="8" ry="8" style="stroke:#181818;stroke-width:0.5;"/><path d="M108,21.5 L108,48.5 M95,29.5 L121,29.5 M108,48.5 L95,63.5 M108,48.5 L121,63.5 " fill="none" style="stroke:#181818;stroke-width:0.5;"/><text fill="#000000" font-family="sans-serif" font-size="20" lengthAdjust="spacing" textLength="170" x="20" y="1264.0993">Human Resources</text><text fill="#000000" font-family="sans-serif" font-size="20" lengthAdjust="spacing" textLength="83" x="63.5" y="1291.3393">Manager</text><ellipse cx="108" cy="1305.6992" fill="#E3E3E3" rx="8" ry="8" style="stroke:#181818;stroke-width:0.5;"/><path d="M108,1313.6992 L108,1340.6992 M95,1321.6992 L121,1321.6992 M108,1340.6992 L95,1355.6992 M108,1340.6992 L121,1355.6992 " fill="none" style="stroke:#181818;stroke-width:0.5;"/><rect fill="#E3E3E3" height="41.24" rx="2.5" ry="2.5" style="stroke:#181818;stroke-width:0.5;" width="146" x="343" y="77.24"/><text fill="#000000" font-family="sans-serif" font-size="20" lengthAdjust="spacing" textLength="132" x="350" y="105.62">:RegisterJobUI</text><rect fill="#E3E3E3" height="41.24" rx="2.5" ry="2.5" style="stroke:#181818;stroke-width:0.5;" width="146" x="343" y="1242.7193"/><text fill="#000000" font-family="sans-serif" font-size="20" lengthAdjust="spacing" textLength="132" x="350" y="1271.0993">:RegisterJobUI</text><rect fill="#E3E3E3" height="41.24" rx="2.5" ry="2.5" style="stroke:#181818;stroke-width:0.5;" width="217" x="518" y="1242.7193"/><text fill="#000000" font-family="sans-serif" font-size="20" lengthAdjust="spacing" textLength="203" x="525" y="1271.0993">:RegisterJobController</text><rect fill="#E3E3E3" height="41.24" rx="2.5" ry="2.5" style="stroke:#181818;stroke-width:0.5;" width="134" x="745" y="77.24"/><text fill="#000000" font-family="sans-serif" font-size="20" lengthAdjust="spacing" textLength="120" x="752" y="105.62">:Repositories</text><rect fill="#E3E3E3" height="41.24" rx="2.5" ry="2.5" style="stroke:#181818;stroke-width:0.5;" width="134" x="745" y="1242.7193"/><text fill="#000000" font-family="sans-serif" font-size="20" lengthAdjust="spacing" textLength="120" x="752" y="1271.0993">:Repositories</text><rect fill="#E3E3E3" height="68.4799" rx="2.5" ry="2.5" style="stroke:#181818;stroke-width:0.5;" width="134" x="889" y="50"/><text fill="#000000" font-family="sans-serif" font-size="20" lengthAdjust="spacing" textLength="111" x="900.5" y="78.38">repositories</text><text fill="#000000" font-family="sans-serif" font-size="20" lengthAdjust="spacing" textLength="120" x="896" y="105.62">:Repositories</text><rect fill="#E3E3E3" height="68.4799" rx="2.5" ry="2.5" style="stroke:#181818;stroke-width:0.5;" width="134" x="889" y="1242.7193"/><text fill="#000000" font-family="sans-serif" font-size="20" lengthAdjust="spacing" textLength="111" x="900.5" y="1271.0993">repositories</text><text fill="#000000" font-family="sans-serif" font-size="20" lengthAdjust="spacing" textLength="120" x="896" y="1298.3393">:Repositories</text><rect fill="#E3E3E3" height="68.4799" rx="2.5" ry="2.5" style="stroke:#181818;stroke-width:0.5;" width="157" x="1033" y="50"/><text fill="#000000" font-family="sans-serif" font-size="20" lengthAdjust="spacing" textLength="138" x="1042.5" y="78.38">jobsRepository</text><text fill="#000000" font-family="sans-serif" font-size="20" lengthAdjust="spacing" textLength="143" x="1040" y="105.62">:JobsRepository</text><rect fill="#E3E3E3" height="68.4799" rx="2.5" ry="2.5" style="stroke:#181818;stroke-width:0.5;" width="157" x="1033" y="1242.7193"/><text fill="#000000" font-family="sans-serif" font-size="20" lengthAdjust="spacing" textLength="138" x="1042.5" y="1271.0993">jobsRepository</text><text fill="#000000" font-family="sans-serif" font-size="20" lengthAdjust="spacing" textLength="143" x="1040" y="1298.3393">:JobsRepository</text><rect fill="#E3E3E3" height="68.4799" rx="2.5" ry="2.5" style="stroke:#181818;stroke-width:0.5;" width="67" x="1294" y="1242.7193"/><text fill="#000000" font-family="sans-serif" font-size="20" lengthAdjust="spacing" textLength="53" x="1301" y="1271.0993">name</text><text fill="#000000" font-family="sans-serif" font-size="20" lengthAdjust="spacing" textLength="34" x="1310.5" y="1298.3393">:Job</text><rect fill="#FFFFFF" height="1105.2393" style="stroke:#181818;stroke-width:1.0;" width="10" x="103" y="129.4799"/><rect fill="#FFFFFF" height="306.9198" style="stroke:#181818;stroke-width:1.0;" width="10" x="411" y="162.7199"/><rect fill="#FFFFFF" height="632.3596" style="stroke:#181818;stroke-width:1.0;" width="10" x="411" y="510.8797"/><rect fill="#FFFFFF" height="41.24" style="stroke:#181818;stroke-width:1.0;" width="10" x="411" y="1184.4793"/><rect fill="#FFFFFF" height="165.9599" style="stroke:#181818;stroke-width:1.0;" width="10" x="621.5" y="213.9599"/><rect fill="#FFFFFF" height="522.6397" style="stroke:#181818;stroke-width:1.0;" width="10" x="621.5" y="552.1197"/><rect fill="#FFFFFF" height="41.24" style="stroke:#181818;stroke-width:1.0;" width="10" x="807" y="256.1999"/><rect fill="#FFFFFF" height="41.24" style="stroke:#181818;stroke-width:1.0;" width="10" x="951" y="338.6798"/><rect fill="#FFFFFF" height="440.1598" style="stroke:#181818;stroke-width:1.0;" width="10" x="1106.5" y="593.3596"/><rect fill="#FFFFFF" height="170.9599" style="stroke:#181818;stroke-width:1.0;" width="10" x="1322.5" y="644.5996"/><polygon fill="#181818" points="399,158.7199,409,162.7199,399,166.7199,403,162.7199" style="stroke:#181818;stroke-width:1.0;"/><line style="stroke:#181818;stroke-width:1.0;" x1="113" x2="405" y1="162.7199" y2="162.7199"/><text fill="#000000" font-family="sans-serif" font-size="20" font-weight="bold" lengthAdjust="spacing" textLength="11" x="120" y="154.8599">1</text><text fill="#000000" font-family="sans-serif" font-size="20" lengthAdjust="spacing" textLength="218" x="135" y="154.8599">asks to regist a new job</text><polygon fill="#181818" points="506,199.9599,516,203.9599,506,207.9599,510,203.9599" style="stroke:#181818;stroke-width:1.0;"/><line style="stroke:#181818;stroke-width:1.0;" x1="421" x2="512" y1="203.9599" y2="203.9599"/><text fill="#000000" font-family="sans-serif" font-size="20" font-weight="bold" lengthAdjust="spacing" textLength="11" x="428" y="196.0999">2</text><text fill="#000000" font-family="sans-serif" font-size="20" lengthAdjust="spacing" textLength="58" x="443" y="196.0999">create</text><rect fill="#E3E3E3" height="41.24" rx="2.5" ry="2.5" style="stroke:#181818;stroke-width:0.5;" width="217" x="518" y="170.7199"/><text fill="#000000" font-family="sans-serif" font-size="20" lengthAdjust="spacing" textLength="203" x="525" y="199.0999">:RegisterJobController</text><polygon fill="#181818" points="795,252.1999,805,256.1999,795,260.1999,799,256.1999" style="stroke:#181818;stroke-width:1.0;"/><line style="stroke:#181818;stroke-width:1.0;" x1="631.5" x2="801" y1="256.1999" y2="256.1999"/><text fill="#000000" font-family="sans-serif" font-size="20" font-weight="bold" lengthAdjust="spacing" textLength="11" x="638.5" y="248.3399">3</text><text fill="#000000" font-family="sans-serif" font-size="20" lengthAdjust="spacing" textLength="122" x="653.5" y="248.3399">getInstance()</text><polygon fill="#181818" points="642.5,293.4398,632.5,297.4398,642.5,301.4398,638.5,297.4398" style="stroke:#181818;stroke-width:1.0;"/><line style="stroke:#181818;stroke-width:1.0;stroke-dasharray:2.0,2.0;" x1="636.5" x2="811" y1="297.4398" y2="297.4398"/><text fill="#000000" font-family="sans-serif" font-size="20" font-weight="bold" lengthAdjust="spacing" textLength="11" x="648.5" y="289.5799">4</text><text fill="#000000" font-family="sans-serif" font-size="20" lengthAdjust="spacing" textLength="111" x="663.5" y="289.5799">repositories</text><polygon fill="#181818" points="939,334.6798,949,338.6798,939,342.6798,943,338.6798" style="stroke:#181818;stroke-width:1.0;"/><line style="stroke:#181818;stroke-width:1.0;" x1="631.5" x2="945" y1="338.6798" y2="338.6798"/><text fill="#000000" font-family="sans-serif" font-size="20" font-weight="bold" lengthAdjust="spacing" textLength="11" x="638.5" y="330.8198">5</text><text fill="#000000" font-family="sans-serif" font-size="20" lengthAdjust="spacing" textLength="180" x="653.5" y="330.8198">getJobsRepository()</text><polygon fill="#181818" points="637.5,375.9198,627.5,379.9198,637.5,383.9198,633.5,379.9198" style="stroke:#181818;stroke-width:1.0;"/><line style="stroke:#181818;stroke-width:1.0;stroke-dasharray:2.0,2.0;" x1="631.5" x2="955" y1="379.9198" y2="379.9198"/><text fill="#000000" font-family="sans-serif" font-size="20" font-weight="bold" lengthAdjust="spacing" textLength="11" x="643.5" y="372.0598">6</text><text fill="#000000" font-family="sans-serif" font-size="20" lengthAdjust="spacing" textLength="138" x="658.5" y="372.0598">jobsRepository</text><path d="M10,394.9198 L98,394.9198 L98,414.1598 L88,424.1598 L10,424.1598 L10,394.9198 " fill="#EEEEEE" style="stroke:#000000;stroke-width:1.5;"/><rect fill="none" height="598.3596" style="stroke:#000000;stroke-width:1.5;" width="1533.5" x="10" y="394.9198"/><text fill="#000000" font-family="sans-serif" font-size="20" font-weight="bold" lengthAdjust="spacing" textLength="43" x="25" y="417.2998">loop</text><text fill="#000000" font-family="sans-serif" font-size="20" font-weight="bold" lengthAdjust="spacing" textLength="164" x="113" y="418.2998">[while intended]</text><polygon fill="#181818" points="124,465.6397,114,469.6397,124,473.6397,120,469.6397" style="stroke:#181818;stroke-width:1.0;"/><line style="stroke:#181818;stroke-width:1.0;stroke-dasharray:2.0,2.0;" x1="118" x2="415" y1="469.6397" y2="469.6397"/><text fill="#000000" font-family="sans-serif" font-size="20" font-weight="bold" lengthAdjust="spacing" textLength="11" x="130" y="461.7797">7</text><text fill="#000000" font-family="sans-serif" font-size="20" lengthAdjust="spacing" textLength="208" x="145" y="461.7797">requests the job name</text><polygon fill="#181818" points="399,506.8797,409,510.8797,399,514.8797,403,510.8797" style="stroke:#181818;stroke-width:1.0;"/><line style="stroke:#181818;stroke-width:1.0;" x1="113" x2="405" y1="510.8797" y2="510.8797"/><text fill="#000000" font-family="sans-serif" font-size="20" font-weight="bold" lengthAdjust="spacing" textLength="11" x="120" y="503.0197">8</text><text fill="#000000" font-family="sans-serif" font-size="20" lengthAdjust="spacing" textLength="153" x="135" y="503.0197">type the new job</text><polygon fill="#181818" points="609.5,548.1197,619.5,552.1197,609.5,556.1197,613.5,552.1197" style="stroke:#181818;stroke-width:1.0;"/><line style="stroke:#181818;stroke-width:1.0;" x1="421" x2="615.5" y1="552.1197" y2="552.1197"/><text fill="#000000" font-family="sans-serif" font-size="20" font-weight="bold" lengthAdjust="spacing" textLength="11" x="428" y="544.2597">9</text><text fill="#000000" font-family="sans-serif" font-size="20" lengthAdjust="spacing" textLength="58" x="443" y="544.2597">create</text><polygon fill="#181818" points="1094.5,589.3596,1104.5,593.3596,1094.5,597.3596,1098.5,593.3596" style="stroke:#181818;stroke-width:1.0;"/><line style="stroke:#181818;stroke-width:1.0;" x1="631.5" x2="1100.5" y1="593.3596" y2="593.3596"/><text fill="#000000" font-family="sans-serif" font-size="20" font-weight="bold" lengthAdjust="spacing" textLength="22" x="638.5" y="585.4997">10</text><text fill="#000000" font-family="sans-serif" font-size="20" lengthAdjust="spacing" textLength="58" x="664.5" y="585.4997">create</text><polygon fill="#181818" points="1282,630.5996,1292,634.5996,1282,638.5996,1286,634.5996" style="stroke:#181818;stroke-width:1.0;"/><line style="stroke:#181818;stroke-width:1.0;" x1="1116.5" x2="1288" y1="634.5996" y2="634.5996"/><text fill="#000000" font-family="sans-serif" font-size="20" font-weight="bold" lengthAdjust="spacing" textLength="22" x="1123.5" y="626.7396">11</text><text fill="#000000" font-family="sans-serif" font-size="20" lengthAdjust="spacing" textLength="58" x="1149.5" y="626.7396">create</text><rect fill="#E3E3E3" height="68.4799" rx="2.5" ry="2.5" style="stroke:#181818;stroke-width:0.5;" width="67" x="1294" y="601.3596"/><text fill="#000000" font-family="sans-serif" font-size="20" lengthAdjust="spacing" textLength="53" x="1301" y="629.7396">name</text><text fill="#000000" font-family="sans-serif" font-size="20" lengthAdjust="spacing" textLength="34" x="1310.5" y="656.9796">:Job</text><line style="stroke:#181818;stroke-width:1.0;" x1="1332.5" x2="1374.5" y1="714.0796" y2="714.0796"/><line style="stroke:#181818;stroke-width:1.0;" x1="1374.5" x2="1374.5" y1="714.0796" y2="727.0796"/><line style="stroke:#181818;stroke-width:1.0;" x1="1333.5" x2="1374.5" y1="727.0796" y2="727.0796"/><polygon fill="#181818" points="1343.5,723.0796,1333.5,727.0796,1343.5,731.0796,1339.5,727.0796" style="stroke:#181818;stroke-width:1.0;"/><text fill="#000000" font-family="sans-serif" font-size="20" font-weight="bold" lengthAdjust="spacing" textLength="22" x="1339.5" y="706.2196">12</text><text fill="#000000" font-family="sans-serif" font-size="20" lengthAdjust="spacing" textLength="166" x="1365.5" y="706.2196">validateJob(name)</text><polygon fill="#181818" points="1127.5,764.3195,1117.5,768.3195,1127.5,772.3195,1123.5,768.3195" style="stroke:#181818;stroke-width:1.0;"/><line style="stroke:#181818;stroke-width:1.0;stroke-dasharray:2.0,2.0;" x1="1121.5" x2="1321.5" y1="768.3195" y2="768.3195"/><text fill="#000000" font-family="sans-serif" font-size="20" font-weight="bold" lengthAdjust="spacing" textLength="22" x="1133.5" y="760.4596">13</text><text fill="#000000" font-family="sans-serif" font-size="20" lengthAdjust="spacing" textLength="53" x="1159.5" y="760.4596">name</text><line style="stroke:#181818;stroke-width:1.0;" x1="1116.5" x2="1158.5" y1="814.5595" y2="814.5595"/><line style="stroke:#181818;stroke-width:1.0;" x1="1158.5" x2="1158.5" y1="814.5595" y2="827.5595"/><line style="stroke:#181818;stroke-width:1.0;" x1="1111.5" x2="1158.5" y1="827.5595" y2="827.5595"/><polygon fill="#181818" points="1121.5,823.5595,1111.5,827.5595,1121.5,831.5595,1117.5,827.5595" style="stroke:#181818;stroke-width:1.0;"/><text fill="#000000" font-family="sans-serif" font-size="20" font-weight="bold" lengthAdjust="spacing" textLength="22" x="1123.5" y="806.6995">14</text><text fill="#000000" font-family="sans-serif" font-size="20" lengthAdjust="spacing" textLength="166" x="1149.5" y="806.6995">validateJob(name)</text><line style="stroke:#181818;stroke-width:1.0;" x1="1116.5" x2="1158.5" y1="863.7995" y2="863.7995"/><line style="stroke:#181818;stroke-width:1.0;" x1="1158.5" x2="1158.5" y1="863.7995" y2="876.7995"/><line style="stroke:#181818;stroke-width:1.0;" x1="1117.5" x2="1158.5" y1="876.7995" y2="876.7995"/><polygon fill="#181818" points="1127.5,872.7995,1117.5,876.7995,1127.5,880.7995,1123.5,876.7995" style="stroke:#181818;stroke-width:1.0;"/><text fill="#000000" font-family="sans-serif" font-size="20" font-weight="bold" lengthAdjust="spacing" textLength="22" x="1123.5" y="855.9395">15</text><text fill="#000000" font-family="sans-serif" font-size="20" lengthAdjust="spacing" textLength="129" x="1149.5" y="855.9395">addJob(name)</text><line style="stroke:#181818;stroke-width:1.0;" x1="1116.5" x2="1158.5" y1="918.0395" y2="918.0395"/><line style="stroke:#181818;stroke-width:1.0;" x1="1158.5" x2="1158.5" y1="918.0395" y2="931.0395"/><line style="stroke:#181818;stroke-width:1.0;" x1="1117.5" x2="1158.5" y1="931.0395" y2="931.0395"/><polygon fill="#181818" points="1127.5,927.0395,1117.5,931.0395,1127.5,935.0395,1123.5,931.0395" style="stroke:#181818;stroke-width:1.0;"/><text fill="#000000" font-family="sans-serif" font-size="20" font-weight="bold" lengthAdjust="spacing" textLength="22" x="1123.5" y="910.1795">16</text><text fill="#000000" font-family="sans-serif" font-size="20" lengthAdjust="spacing" textLength="89" x="1149.5" y="910.1795">true/false</text><line style="stroke:#181818;stroke-width:1.0;" x1="1116.5" x2="1158.5" y1="972.2794" y2="972.2794"/><line style="stroke:#181818;stroke-width:1.0;" x1="1158.5" x2="1158.5" y1="972.2794" y2="985.2794"/><line style="stroke:#181818;stroke-width:1.0;" x1="1117.5" x2="1158.5" y1="985.2794" y2="985.2794"/><polygon fill="#181818" points="1127.5,981.2794,1117.5,985.2794,1127.5,989.2794,1123.5,985.2794" style="stroke:#181818;stroke-width:1.0;"/><text fill="#000000" font-family="sans-serif" font-size="20" font-weight="bold" lengthAdjust="spacing" textLength="22" x="1123.5" y="964.4195">17</text><text fill="#000000" font-family="sans-serif" font-size="20" lengthAdjust="spacing" textLength="89" x="1149.5" y="964.4195">true/false</text><polygon fill="#181818" points="642.5,1029.5194,632.5,1033.5194,642.5,1037.5194,638.5,1033.5194" style="stroke:#181818;stroke-width:1.0;"/><line style="stroke:#181818;stroke-width:1.0;stroke-dasharray:2.0,2.0;" x1="636.5" x2="1110.5" y1="1033.5194" y2="1033.5194"/><text fill="#000000" font-family="sans-serif" font-size="20" font-weight="bold" lengthAdjust="spacing" textLength="22" x="648.5" y="1025.6594">18</text><text fill="#000000" font-family="sans-serif" font-size="20" lengthAdjust="spacing" textLength="71" x="674.5" y="1025.6594">jobsList</text><polygon fill="#181818" points="432,1070.7594,422,1074.7594,432,1078.7594,428,1074.7594" style="stroke:#181818;stroke-width:1.0;"/><line style="stroke:#181818;stroke-width:1.0;stroke-dasharray:2.0,2.0;" x1="426" x2="625.5" y1="1074.7594" y2="1074.7594"/><text fill="#000000" font-family="sans-serif" font-size="20" font-weight="bold" lengthAdjust="spacing" textLength="22" x="438" y="1066.8994">19</text><text fill="#000000" font-family="sans-serif" font-size="20" lengthAdjust="spacing" textLength="71" x="464" y="1066.8994">jobsList</text><polygon fill="#181818" points="124,1139.2393,114,1143.2393,124,1147.2393,120,1143.2393" style="stroke:#181818;stroke-width:1.0;"/><line style="stroke:#181818;stroke-width:1.0;stroke-dasharray:2.0,2.0;" x1="118" x2="415" y1="1143.2393" y2="1143.2393"/><text fill="#000000" font-family="sans-serif" font-size="20" font-weight="bold" lengthAdjust="spacing" textLength="22" x="130" y="1121.7594">20</text><text fill="#000000" font-family="sans-serif" font-size="20" lengthAdjust="spacing" textLength="153" x="156" y="1108.1394">list all registered</text><text fill="#000000" font-family="sans-serif" font-size="20" lengthAdjust="spacing" textLength="228" x="161" y="1135.3794">jobs and asks to confirm</text><polygon fill="#181818" points="399,1180.4793,409,1184.4793,399,1188.4793,403,1184.4793" style="stroke:#181818;stroke-width:1.0;"/><line style="stroke:#181818;stroke-width:1.0;" x1="113" x2="405" y1="1184.4793" y2="1184.4793"/><text fill="#000000" font-family="sans-serif" font-size="20" font-weight="bold" lengthAdjust="spacing" textLength="22" x="120" y="1176.6193">21</text><text fill="#000000" font-family="sans-serif" font-size="20" lengthAdjust="spacing" textLength="153" x="146" y="1176.6193">confirms all jobs</text><polygon fill="#181818" points="124,1221.7193,114,1225.7193,124,1229.7193,120,1225.7193" style="stroke:#181818;stroke-width:1.0;"/><line style="stroke:#181818;stroke-width:1.0;stroke-dasharray:2.0,2.0;" x1="118" x2="415" y1="1225.7193" y2="1225.7193"/><text fill="#000000" font-family="sans-serif" font-size="20" font-weight="bold" lengthAdjust="spacing" textLength="22" x="130" y="1217.8593">22</text><text fill="#000000" font-family="sans-serif" font-size="20" lengthAdjust="spacing" textLength="248" x="156" y="1217.8593">displays operation success</text><!--SRC=[dLN1Rk8m4BtdAqQSMgHgsproMAcgL9MAgYjeRroCFO0NnyxQJX7xzJjs8CJ1KQlc59nvRyRlpGnk9tN5B2kLuJiK873DQkKVZVOB-G_XvstXJY5G6cturfeImTiQErygndTiWmj_K0WMkMTwexe1Rik4sKkzWJLJ3ek2SMyiZ9xgaccOepErvUYM-eLf8h8ZO0wUvYy5mRtaicBQmsWonurq7kspMRrFOypxT3ZaWMvXZL97keUt-UmYk39EKYKINOnf3muB6QxWZKuXjeDOwak2txFxjnJnnwpScPOmpyb1HAL7ALwp4XjKas3- -ZXTBEvVISEQoglB5LguYuhA3-OnobO0FVG2Dxz88fWGSkV06p8do0CCDEw1Iek1BPJKZ0VX8HY1WsZZCH5mYnHn_jnYegpjSVWLS1aXYMI3VgeTTGV7g-jBgfpwRLHuSgmtnoedqFMcXGdy6lsfy61WKsbgIgxUQ7PIO4IVAqgzpzMKKdG-d6LLnbImtqeQBQazQe4YoHcCeep1xQ31tngT9w-t6D93Q9ySVzVgVhFuGuMHeDiaWusIDalRAPyqIbVpL6aOfkZDIKBM8mbMdaPbF1wcxCnJQ-BfA26Pm0TJKX26Cbq5MQ-paDnz4XCk2qrFSebodTCM_dLY9iGbv-UmiEr_D8lxMw169-hSvgMFFNOEDFCoe_rKzEwQyxrfdbFB3Y7FJPUCYOfBKAdZFaIBOgaZ2J0jsct9ZLvBMnPPre61wWxI4UzYgi2UNxT9QKAwIh630rEXPLxIYdCrfpz7bylu7m00]--></g></svg>