<?xml version="1.0" encoding="UTF-8" standalone="no"?><svg xmlns="http://www.w3.org/2000/svg" xmlns:xlink="http://www.w3.org/1999/xlink" contentStyleType="text/css" height="853px" preserveAspectRatio="none" style="width:865px;height:853px;background:#FFFFFF;" version="1.1" viewBox="0 0 865 853" width="865px" zoomAndPan="magnify"><defs/><g><!--class RegisterJobUI--><g id="elem_RegisterJobUI"><rect codeLine="7" fill="#F1F1F1" height="53.24" id="RegisterJobUI" rx="2.5" ry="2.5" style="stroke:#181818;stroke-width:0.5;" width="161" x="7" y="47.86"/><ellipse cx="23" cy="66.48" fill="#ADD1B2" rx="12" ry="12" style="stroke:#181818;stroke-width:1.0;"/><path d="M22.5156,73.6831 Q20.4531,73.6831 19.125,72.8081 Q17.7969,71.9331 17.1406,70.355 Q16.5,68.7612 16.5,66.6362 Q16.5,64.2612 17.2656,62.5581 Q18.0469,60.8394 19.5469,59.9175 Q21.0625,58.9956 23.2656,58.9956 Q24.2969,58.9956 25.0781,59.2144 Q25.875,59.4175 26.7031,59.8237 L25.7344,62.1987 Q25,61.8237 24.3594,61.6831 Q23.7344,61.5425 23.1563,61.5425 Q21.7813,61.5425 20.9531,62.1675 Q20.1406,62.7769 19.7813,63.9019 Q19.4375,65.0269 19.4375,66.5269 Q19.4375,68.8862 20.2813,70.0112 Q21.125,71.1362 23,71.1362 Q23.7031,71.1362 24.4219,70.9644 Q25.1563,70.7769 26.1406,70.3394 L26.1406,72.9331 Q25.2813,73.3237 24.3438,73.4956 Q23.4219,73.6831 22.5156,73.6831 Z " fill="#000000"/><text fill="#000000" font-family="sans-serif" font-size="20" lengthAdjust="spacing" textLength="127" x="38" y="74.24">RegisterJobUI</text><line style="stroke:#181818;stroke-width:0.5;" x1="8" x2="167" y1="85.1" y2="85.1"/><line style="stroke:#181818;stroke-width:0.5;" x1="8" x2="167" y1="93.1" y2="93.1"/></g><!--class RegisterJobController--><g id="elem_RegisterJobController"><rect codeLine="10" fill="#F1F1F1" height="107.7199" id="RegisterJobController" rx="2.5" ry="2.5" style="stroke:#181818;stroke-width:0.5;" width="233" x="203" y="20.62"/><ellipse cx="219.45" cy="39.24" fill="#ADD1B2" rx="12" ry="12" style="stroke:#181818;stroke-width:1.0;"/><path d="M218.9656,46.4431 Q216.9031,46.4431 215.575,45.5681 Q214.2469,44.6931 213.5906,43.115 Q212.95,41.5212 212.95,39.3962 Q212.95,37.0212 213.7156,35.3181 Q214.4969,33.5994 215.9969,32.6775 Q217.5125,31.7556 219.7156,31.7556 Q220.7469,31.7556 221.5281,31.9744 Q222.325,32.1775 223.1531,32.5837 L222.1844,34.9587 Q221.45,34.5837 220.8094,34.4431 Q220.1844,34.3025 219.6063,34.3025 Q218.2313,34.3025 217.4031,34.9275 Q216.5906,35.5369 216.2313,36.6619 Q215.8875,37.7869 215.8875,39.2869 Q215.8875,41.6462 216.7313,42.7712 Q217.575,43.8962 219.45,43.8962 Q220.1531,43.8962 220.8719,43.7244 Q221.6063,43.5369 222.5906,43.0994 L222.5906,45.6931 Q221.7313,46.0837 220.7938,46.2556 Q219.8719,46.4431 218.9656,46.4431 Z " fill="#000000"/><text fill="#000000" font-family="sans-serif" font-size="20" lengthAdjust="spacing" textLength="198" x="234.55" y="47">RegisterJobController</text><line style="stroke:#181818;stroke-width:0.5;" x1="204" x2="435" y1="57.86" y2="57.86"/><line style="stroke:#181818;stroke-width:0.5;" x1="204" x2="435" y1="65.86" y2="65.86"/><text fill="#000000" font-family="sans-serif" font-size="20" lengthAdjust="spacing" textLength="221" x="209" y="91.24">+RegisterJobController()</text><text fill="#000000" font-family="sans-serif" font-size="20" lengthAdjust="spacing" textLength="124" x="209" y="118.4799">+getJobsList()</text></g><!--class Job--><g id="elem_Job"><rect codeLine="15" fill="#F1F1F1" height="271.1598" id="Job" rx="2.5" ry="2.5" style="stroke:#181818;stroke-width:0.5;" width="189" x="254" y="574.96"/><ellipse cx="329.5" cy="593.58" fill="#ADD1B2" rx="12" ry="12" style="stroke:#181818;stroke-width:1.0;"/><path d="M329.0156,600.7831 Q326.9531,600.7831 325.625,599.9081 Q324.2969,599.0331 323.6406,597.455 Q323,595.8612 323,593.7362 Q323,591.3612 323.7656,589.6581 Q324.5469,587.9394 326.0469,587.0175 Q327.5625,586.0956 329.7656,586.0956 Q330.7969,586.0956 331.5781,586.3144 Q332.375,586.5175 333.2031,586.9237 L332.2344,589.2987 Q331.5,588.9237 330.8594,588.7831 Q330.2344,588.6425 329.6563,588.6425 Q328.2813,588.6425 327.4531,589.2675 Q326.6406,589.8769 326.2813,591.0019 Q325.9375,592.1269 325.9375,593.6269 Q325.9375,595.9862 326.7813,597.1112 Q327.625,598.2362 329.5,598.2362 Q330.2031,598.2362 330.9219,598.0644 Q331.6563,597.8769 332.6406,597.4394 L332.6406,600.0331 Q331.7813,600.4237 330.8438,600.5956 Q329.9219,600.7831 329.0156,600.7831 Z " fill="#000000"/><text fill="#000000" font-family="sans-serif" font-size="20" lengthAdjust="spacing" textLength="29" x="351.5" y="601.34">Job</text><line style="stroke:#181818;stroke-width:0.5;" x1="255" x2="442" y1="612.2" y2="612.2"/><text fill="#000000" font-family="sans-serif" font-size="20" lengthAdjust="spacing" textLength="119" x="260" y="637.58">-String name</text><line style="stroke:#181818;stroke-width:0.5;" x1="255" x2="442" y1="647.4399" y2="647.4399"/><text fill="#000000" font-family="sans-serif" font-size="20" lengthAdjust="spacing" textLength="105" x="260" y="672.8199">+Job(name)</text><text fill="#000000" font-family="sans-serif" font-size="20" lengthAdjust="spacing" textLength="109" x="260" y="700.0599">+getName()</text><text fill="#000000" font-family="sans-serif" font-size="20" lengthAdjust="spacing" textLength="107" x="260" y="727.2999">+setName()</text><text fill="#000000" font-family="sans-serif" font-size="20" lengthAdjust="spacing" textLength="84" x="260" y="754.5399">+equals()</text><text fill="#000000" font-family="sans-serif" font-size="20" lengthAdjust="spacing" textLength="97" x="260" y="781.7798">+toString()</text><text fill="#000000" font-family="sans-serif" font-size="20" lengthAdjust="spacing" textLength="73" x="260" y="809.0198">+clone()</text><text fill="#000000" font-family="sans-serif" font-size="20" lengthAdjust="spacing" textLength="177" x="260" y="836.2598">+validateJob(name)</text></g><!--class JobsRepository--><g id="elem_JobsRepository"><rect codeLine="26" fill="#F1F1F1" height="243.9198" id="JobsRepository" rx="2.5" ry="2.5" style="stroke:#181818;stroke-width:0.5;" width="235" x="410" y="250.96"/><ellipse cx="454.35" cy="269.58" fill="#ADD1B2" rx="12" ry="12" style="stroke:#181818;stroke-width:1.0;"/><path d="M453.8656,276.7831 Q451.8031,276.7831 450.475,275.9081 Q449.1469,275.0331 448.4906,273.455 Q447.85,271.8612 447.85,269.7362 Q447.85,267.3612 448.6156,265.6581 Q449.3969,263.9394 450.8969,263.0175 Q452.4125,262.0956 454.6156,262.0956 Q455.6469,262.0956 456.4281,262.3144 Q457.225,262.5175 458.0531,262.9237 L457.0844,265.2987 Q456.35,264.9237 455.7094,264.7831 Q455.0844,264.6425 454.5063,264.6425 Q453.1313,264.6425 452.3031,265.2675 Q451.4906,265.8769 451.1313,267.0019 Q450.7875,268.1269 450.7875,269.6269 Q450.7875,271.9862 451.6313,273.1112 Q452.475,274.2362 454.35,274.2362 Q455.0531,274.2362 455.7719,274.0644 Q456.5063,273.8769 457.4906,273.4394 L457.4906,276.0331 Q456.6313,276.4237 455.6938,276.5956 Q454.7719,276.7831 453.8656,276.7831 Z " fill="#000000"/><text fill="#000000" font-family="sans-serif" font-size="20" lengthAdjust="spacing" textLength="138" x="475.65" y="277.34">JobsRepository</text><line style="stroke:#181818;stroke-width:0.5;" x1="411" x2="644" y1="288.2" y2="288.2"/><text fill="#000000" font-family="sans-serif" font-size="20" lengthAdjust="spacing" textLength="165" x="416" y="313.58">-List&lt;Job&gt; jobsList</text><line style="stroke:#181818;stroke-width:0.5;" x1="411" x2="644" y1="323.4399" y2="323.4399"/><text fill="#000000" font-family="sans-serif" font-size="20" lengthAdjust="spacing" textLength="161" x="416" y="348.8199">+JobsRepository()</text><text fill="#000000" font-family="sans-serif" font-size="20" lengthAdjust="spacing" textLength="223" x="416" y="376.0599">+Optional&lt;Job&gt; add(job)</text><text fill="#000000" font-family="sans-serif" font-size="20" lengthAdjust="spacing" textLength="140" x="416" y="403.2999">+addJob(name)</text><text fill="#000000" font-family="sans-serif" font-size="20" lengthAdjust="spacing" textLength="177" x="416" y="430.5399">+validateJob(name)</text><text fill="#000000" font-family="sans-serif" font-size="20" lengthAdjust="spacing" textLength="148" x="416" y="457.7798">-validateJob(job)</text><text fill="#000000" font-family="sans-serif" font-size="20" lengthAdjust="spacing" textLength="124" x="416" y="485.0198">+getJobsList()</text></g><!--class Repositories--><g id="elem_Repositories"><rect codeLine="36" fill="#F1F1F1" height="134.9599" id="Repositories" rx="2.5" ry="2.5" style="stroke:#181818;stroke-width:0.5;" width="275" x="583" y="7"/><ellipse cx="658.5" cy="25.62" fill="#ADD1B2" rx="12" ry="12" style="stroke:#181818;stroke-width:1.0;"/><path d="M658.0156,32.8231 Q655.9531,32.8231 654.625,31.9481 Q653.2969,31.0731 652.6406,29.495 Q652,27.9012 652,25.7762 Q652,23.4012 652.7656,21.6981 Q653.5469,19.9794 655.0469,19.0575 Q656.5625,18.1356 658.7656,18.1356 Q659.7969,18.1356 660.5781,18.3544 Q661.375,18.5575 662.2031,18.9637 L661.2344,21.3387 Q660.5,20.9637 659.8594,20.8231 Q659.2344,20.6825 658.6563,20.6825 Q657.2813,20.6825 656.4531,21.3075 Q655.6406,21.9169 655.2813,23.0419 Q654.9375,24.1669 654.9375,25.6669 Q654.9375,28.0262 655.7813,29.1512 Q656.625,30.2762 658.5,30.2762 Q659.2031,30.2762 659.9219,30.1044 Q660.6563,29.9169 661.6406,29.4794 L661.6406,32.0731 Q660.7813,32.4637 659.8438,32.6356 Q658.9219,32.8231 658.0156,32.8231 Z " fill="#000000"/><text fill="#000000" font-family="sans-serif" font-size="20" lengthAdjust="spacing" textLength="115" x="680.5" y="33.38">Repositories</text><line style="stroke:#181818;stroke-width:0.5;" x1="584" x2="857" y1="44.24" y2="44.24"/><line style="stroke:#181818;stroke-width:0.5;" x1="584" x2="857" y1="52.24" y2="52.24"/><text fill="#000000" font-family="sans-serif" font-size="20" lengthAdjust="spacing" textLength="133" x="589" y="77.62">-Repositories()</text><text fill="#000000" font-family="sans-serif" font-size="20" lengthAdjust="spacing" textLength="263" x="589" y="104.8599">+getInstance() : Repositories</text><text fill="#000000" font-family="sans-serif" font-size="20" lengthAdjust="spacing" textLength="191" x="589" y="132.0999">+getJobsRepository()</text></g><!--link RegisterJobUI to RegisterJobController--><g id="link_RegisterJobUI_RegisterJobController"><path codeLine="42" d="M168.32,74.48 C177.43,74.48 186.87,74.48 196.38,74.48 " fill="none" id="RegisterJobUI-to-RegisterJobController" style="stroke:#181818;stroke-width:1.0;stroke-dasharray:7.0,7.0;"/><polygon fill="#181818" points="201.11,74.48,192.11,70.48,196.11,74.48,192.11,78.48,201.11,74.48" style="stroke:#181818;stroke-width:1.0;"/></g><!--link RegisterJobController to Repositories--><g id="link_RegisterJobController_Repositories"><path codeLine="44" d="M436.29,74.48 C480.02,74.48 530.21,74.48 576.13,74.48 " fill="none" id="RegisterJobController-to-Repositories" style="stroke:#181818;stroke-width:1.0;stroke-dasharray:7.0,7.0;"/><polygon fill="#181818" points="581.07,74.48,572.07,70.48,576.07,74.48,572.07,78.48,581.07,74.48" style="stroke:#181818;stroke-width:1.0;"/><text fill="#000000" font-family="sans-serif" font-size="20" lengthAdjust="spacing" textLength="111" x="454" y="64.86">repositories</text></g><!--link Repositories to JobsRepository--><g id="link_Repositories_JobsRepository"><path codeLine="46" d="M676.95,142.27 C656.97,172.91 632.61,210.26 609.41,245.85 " fill="none" id="Repositories-to-JobsRepository" style="stroke:#181818;stroke-width:1.0;"/><polygon fill="#181818" points="606.82,249.82,615.0902,244.4717,609.5539,245.6336,608.392,240.0974,606.82,249.82" style="stroke:#181818;stroke-width:1.0;"/><text fill="#000000" font-family="sans-serif" font-size="20" lengthAdjust="spacing" textLength="11" x="599.4378" y="237.2306">1</text></g><!--link RegisterJobController to Job--><g id="link_RegisterJobController_Job"><path codeLine="48" d="M321.69,128.81 C326.49,245.66 337.5,513.96 337.5,513.96 C337.5,513.96 338.82,537.51 340.55,568.26 " fill="none" id="RegisterJobController-to-Job" style="stroke:#181818;stroke-width:1.0;stroke-dasharray:7.0,7.0;"/><polygon fill="#181818" points="340.82,572.99,344.3,563.7765,340.5348,567.9981,336.3131,564.2329,340.82,572.99" style="stroke:#181818;stroke-width:1.0;"/><text fill="#000000" font-family="sans-serif" font-size="20" lengthAdjust="spacing" textLength="29" x="338.5" y="380.34">Job</text></g><!--link RegisterJobController to JobsRepository--><g id="link_RegisterJobController_JobsRepository"><path codeLine="49" d="M356.93,128.74 C379.92,161.46 410.4,204.84 439.24,245.86 " fill="none" id="RegisterJobController-to-JobsRepository" style="stroke:#181818;stroke-width:1.0;stroke-dasharray:7.0,7.0;"/><polygon fill="#181818" points="442.06,249.87,440.1576,240.2066,439.185,245.7792,433.6124,244.8066,442.06,249.87" style="stroke:#181818;stroke-width:1.0;"/><text fill="#000000" font-family="sans-serif" font-size="20" lengthAdjust="spacing" textLength="138" x="406.5" y="194.34">JobsRepository</text></g><!--link JobsRepository to Job--><g id="link_JobsRepository_Job"><path codeLine="51" d="M463.38,493.84 C450.42,518.18 436.68,543.98 423.38,568.94 " fill="none" id="JobsRepository-to-Job" style="stroke:#181818;stroke-width:1.0;"/><polygon fill="#181818" points="421.09,573.25,428.8425,567.1755,423.434,568.8335,421.7761,563.4251,421.09,573.25" style="stroke:#181818;stroke-width:1.0;"/><text fill="#000000" font-family="sans-serif" font-size="20" lengthAdjust="spacing" textLength="11" x="447.7024" y="524.2594">1</text><text fill="#000000" font-family="sans-serif" font-size="20" lengthAdjust="spacing" textLength="11" x="412.8027" y="561.2702">*</text></g><!--SRC=[VLBRIWCn47tFLuG-LQLIVLoaK0IX8WejVi0qErrZqsHDfieg_hkpsssQtRRkmyBCEJbpvXBMsfRWOMESMcCkSrp1rj23ixJGtoXlnoBiAR84jOO25rGPb1uLWIqC9eJm1hdxqhQGAp0XHOosI5M9idIcgeC4KmP2c19vlTmIpfIpJUcn4AA1v1mB7GZzerk-pkIF-3q1tBDZxun1pmJ9tzLfT7ZHeWKI0-69APoBafnh1KPomPQu5miRR1ynEgp3HEIPmoWQUZ5-R7aGCIItaum9PPmzi3_1w1m83rLIMs6EfGkQdA-Ymzhz7MCJ-TxsSZ2Qy6E5bvAqis1sRo3FX_nk3tBOx-_OqQvkcayKpimq6j4OelKqcIvbPWFVbUAfoAn3wjReDCULkZToFJcz_GulEPc6dvZC-BoJog83ZaOJERWPz6PyLfgrwwFAwl__d7J3sP5yZr0xQ9nSDax47m00]--></g></svg>