<?xml version="1.0" encoding="us-ascii" standalone="no"?><svg xmlns="http://www.w3.org/2000/svg" xmlns:xlink="http://www.w3.org/1999/xlink" contentStyleType="text/css" height="908px" preserveAspectRatio="none" style="width:1147px;height:908px;background:#FFFFFF;" version="1.1" viewBox="0 0 1147 908" width="1147px" zoomAndPan="magnify"><defs/><g><rect fill="#FFFFFF" height="685.1016" style="stroke:#181818;stroke-width:1.0;" width="10" x="76" y="112.2422"/><rect fill="#FFFFFF" height="257.6582" style="stroke:#181818;stroke-width:1.0;" width="10" x="369" y="135.5332"/><rect fill="#FFFFFF" height="301.2793" style="stroke:#181818;stroke-width:1.0;" width="10" x="369" y="424.4824"/><rect fill="#FFFFFF" height="31.291" style="stroke:#181818;stroke-width:1.0;" width="10" x="369" y="757.0527"/><rect fill="#FFFFFF" height="158.7852" style="stroke:#181818;stroke-width:1.0;" width="10" x="549" y="176.8242"/><rect fill="#FFFFFF" height="238.6973" style="stroke:#181818;stroke-width:1.0;" width="10" x="549" y="455.7734"/><rect fill="#FFFFFF" height="31.291" style="stroke:#181818;stroke-width:1.0;" width="10" x="678.5" y="210.4453"/><rect fill="#FFFFFF" height="31.291" style="stroke:#181818;stroke-width:1.0;" width="10" x="785.5" y="273.0273"/><rect fill="#FFFFFF" height="176.1152" style="stroke:#181818;stroke-width:1.0;" width="10" x="927.5" y="487.0645"/><rect fill="none" height="282.2793" style="stroke:#000000;stroke-width:1.5;" width="1131" x="10" y="350.6094"/><line style="stroke:#181818;stroke-width:0.5;stroke-dasharray:5.0,5.0;" x1="81" x2="81" y1="102.2422" y2="806.3438"/><line style="stroke:#181818;stroke-width:0.5;stroke-dasharray:5.0,5.0;" x1="374" x2="374" y1="102.2422" y2="806.3438"/><line style="stroke:#181818;stroke-width:0.5;stroke-dasharray:5.0,5.0;" x1="554" x2="554" y1="175.3438" y2="806.3438"/><line style="stroke:#181818;stroke-width:0.5;stroke-dasharray:5.0,5.0;" x1="683" x2="683" y1="102.2422" y2="806.3438"/><line style="stroke:#181818;stroke-width:0.5;stroke-dasharray:5.0,5.0;" x1="790" x2="790" y1="102.2422" y2="806.3438"/><line style="stroke:#181818;stroke-width:0.5;stroke-dasharray:5.0,5.0;" x1="932" x2="932" y1="102.2422" y2="806.3438"/><line style="stroke:#181818;stroke-width:0.5;stroke-dasharray:5.0,5.0;" x1="1096" x2="1096" y1="536.1855" y2="806.3438"/><text fill="#000000" font-family="sans-serif" font-size="14" lengthAdjust="spacing" textLength="116" x="20" y="80.1074">Human Resources</text><text fill="#000000" font-family="sans-serif" font-size="14" lengthAdjust="spacing" textLength="56" x="50" y="98.7285">Manager</text><ellipse cx="81" cy="13.5" fill="#E3E3E3" rx="8" ry="8" style="stroke:#181818;stroke-width:0.5;"/><path d="M81,21.5 L81,48.5 M68,29.5 L94,29.5 M81,48.5 L68,63.5 M81,48.5 L94,63.5 " fill="none" style="stroke:#181818;stroke-width:0.5;"/><text fill="#000000" font-family="sans-serif" font-size="14" lengthAdjust="spacing" textLength="116" x="20" y="820.4512">Human Resources</text><text fill="#000000" font-family="sans-serif" font-size="14" lengthAdjust="spacing" textLength="56" x="50" y="839.0723">Manager</text><ellipse cx="81" cy="851.0859" fill="#E3E3E3" rx="8" ry="8" style="stroke:#181818;stroke-width:0.5;"/><path d="M81,859.0859 L81,886.0859 M68,867.0859 L94,867.0859 M81,886.0859 L68,901.0859 M81,886.0859 L94,901.0859 " fill="none" style="stroke:#181818;stroke-width:0.5;"/><rect fill="#E3E3E3" height="32.6211" rx="2.5" ry="2.5" style="stroke:#181818;stroke-width:0.5;" width="92" x="328" y="68.6211"/><text fill="#000000" font-family="sans-serif" font-size="14" lengthAdjust="spacing" textLength="78" x="335" y="90.7285">:RegistJobUI</text><rect fill="#E3E3E3" height="32.6211" rx="2.5" ry="2.5" style="stroke:#181818;stroke-width:0.5;" width="92" x="328" y="805.3438"/><text fill="#000000" font-family="sans-serif" font-size="14" lengthAdjust="spacing" textLength="78" x="335" y="827.4512">:RegistJobUI</text><rect fill="#E3E3E3" height="32.6211" rx="2.5" ry="2.5" style="stroke:#181818;stroke-width:0.5;" width="142" x="483" y="805.3438"/><text fill="#000000" font-family="sans-serif" font-size="14" lengthAdjust="spacing" textLength="128" x="490" y="827.4512">:RegistJobController</text><rect fill="#E3E3E3" height="32.6211" rx="2.5" ry="2.5" style="stroke:#181818;stroke-width:0.5;" width="97" x="635" y="68.6211"/><text fill="#000000" font-family="sans-serif" font-size="14" lengthAdjust="spacing" textLength="83" x="642" y="90.7285">:Repositories</text><rect fill="#E3E3E3" height="32.6211" rx="2.5" ry="2.5" style="stroke:#181818;stroke-width:0.5;" width="97" x="635" y="805.3438"/><text fill="#000000" font-family="sans-serif" font-size="14" lengthAdjust="spacing" textLength="83" x="642" y="827.4512">:Repositories</text><rect fill="#E3E3E3" height="51.2422" rx="2.5" ry="2.5" style="stroke:#181818;stroke-width:0.5;" width="97" x="742" y="50"/><text fill="#000000" font-family="sans-serif" font-size="14" lengthAdjust="spacing" textLength="74" x="753.5" y="72.1074">repositories</text><text fill="#000000" font-family="sans-serif" font-size="14" lengthAdjust="spacing" textLength="83" x="749" y="90.7285">:Repositories</text><rect fill="#E3E3E3" height="51.2422" rx="2.5" ry="2.5" style="stroke:#181818;stroke-width:0.5;" width="97" x="742" y="805.3438"/><text fill="#000000" font-family="sans-serif" font-size="14" lengthAdjust="spacing" textLength="74" x="753.5" y="827.4512">repositories</text><text fill="#000000" font-family="sans-serif" font-size="14" lengthAdjust="spacing" textLength="83" x="749" y="846.0723">:Repositories</text><rect fill="#E3E3E3" height="51.2422" rx="2.5" ry="2.5" style="stroke:#181818;stroke-width:0.5;" width="167" x="849" y="50"/><text fill="#000000" font-family="sans-serif" font-size="14" lengthAdjust="spacing" textLength="152" x="856.5" y="72.1074">registedJobsRepository:</text><text fill="#000000" font-family="sans-serif" font-size="14" lengthAdjust="spacing" textLength="153" x="856" y="90.7285">RegistedJobsRepository</text><rect fill="#E3E3E3" height="51.2422" rx="2.5" ry="2.5" style="stroke:#181818;stroke-width:0.5;" width="167" x="849" y="805.3438"/><text fill="#000000" font-family="sans-serif" font-size="14" lengthAdjust="spacing" textLength="152" x="856.5" y="827.4512">registedJobsRepository:</text><text fill="#000000" font-family="sans-serif" font-size="14" lengthAdjust="spacing" textLength="153" x="856" y="846.0723">RegistedJobsRepository</text><rect fill="#E3E3E3" height="51.2422" rx="2.5" ry="2.5" style="stroke:#181818;stroke-width:0.5;" width="69" x="1062" y="805.3438"/><text fill="#000000" font-family="sans-serif" font-size="14" lengthAdjust="spacing" textLength="55" x="1069" y="827.4512">jobName</text><text fill="#000000" font-family="sans-serif" font-size="14" lengthAdjust="spacing" textLength="26" x="1083.5" y="846.0723">:Job</text><rect fill="#FFFFFF" height="685.1016" style="stroke:#181818;stroke-width:1.0;" width="10" x="76" y="112.2422"/><rect fill="#FFFFFF" height="257.6582" style="stroke:#181818;stroke-width:1.0;" width="10" x="369" y="135.5332"/><rect fill="#FFFFFF" height="301.2793" style="stroke:#181818;stroke-width:1.0;" width="10" x="369" y="424.4824"/><rect fill="#FFFFFF" height="31.291" style="stroke:#181818;stroke-width:1.0;" width="10" x="369" y="757.0527"/><rect fill="#FFFFFF" height="158.7852" style="stroke:#181818;stroke-width:1.0;" width="10" x="549" y="176.8242"/><rect fill="#FFFFFF" height="238.6973" style="stroke:#181818;stroke-width:1.0;" width="10" x="549" y="455.7734"/><rect fill="#FFFFFF" height="31.291" style="stroke:#181818;stroke-width:1.0;" width="10" x="678.5" y="210.4453"/><rect fill="#FFFFFF" height="31.291" style="stroke:#181818;stroke-width:1.0;" width="10" x="785.5" y="273.0273"/><rect fill="#FFFFFF" height="176.1152" style="stroke:#181818;stroke-width:1.0;" width="10" x="927.5" y="487.0645"/><polygon fill="#181818" points="357,131.5332,367,135.5332,357,139.5332,361,135.5332" style="stroke:#181818;stroke-width:1.0;"/><line style="stroke:#181818;stroke-width:1.0;" x1="86" x2="363" y1="135.5332" y2="135.5332"/><text fill="#000000" font-family="sans-serif" font-size="13" font-weight="bold" lengthAdjust="spacing" textLength="7" x="93" y="130.2705">1</text><text fill="#000000" font-family="sans-serif" font-size="13" lengthAdjust="spacing" textLength="138" x="104" y="130.2705">asks to regist a new job</text><polygon fill="#181818" points="471,162.8242,481,166.8242,471,170.8242,475,166.8242" style="stroke:#181818;stroke-width:1.0;"/><line style="stroke:#181818;stroke-width:1.0;" x1="379" x2="477" y1="166.8242" y2="166.8242"/><text fill="#000000" font-family="sans-serif" font-size="13" font-weight="bold" lengthAdjust="spacing" textLength="7" x="386" y="161.5615">2</text><text fill="#000000" font-family="sans-serif" font-size="13" lengthAdjust="spacing" textLength="36" x="397" y="161.5615">create</text><rect fill="#E3E3E3" height="32.6211" rx="2.5" ry="2.5" style="stroke:#181818;stroke-width:0.5;" width="142" x="483" y="143.5332"/><text fill="#000000" font-family="sans-serif" font-size="14" lengthAdjust="spacing" textLength="128" x="490" y="165.6406">:RegistJobController</text><polygon fill="#181818" points="666.5,206.4453,676.5,210.4453,666.5,214.4453,670.5,210.4453" style="stroke:#181818;stroke-width:1.0;"/><line style="stroke:#181818;stroke-width:1.0;" x1="559" x2="672.5" y1="210.4453" y2="210.4453"/><text fill="#000000" font-family="sans-serif" font-size="13" font-weight="bold" lengthAdjust="spacing" textLength="7" x="566" y="205.1826">3</text><text fill="#000000" font-family="sans-serif" font-size="13" lengthAdjust="spacing" textLength="75" x="577" y="205.1826">getInstance()</text><polygon fill="#181818" points="570,237.7363,560,241.7363,570,245.7363,566,241.7363" style="stroke:#181818;stroke-width:1.0;"/><line style="stroke:#181818;stroke-width:1.0;stroke-dasharray:2.0,2.0;" x1="564" x2="682.5" y1="241.7363" y2="241.7363"/><text fill="#000000" font-family="sans-serif" font-size="13" font-weight="bold" lengthAdjust="spacing" textLength="7" x="576" y="236.4736">4</text><text fill="#000000" font-family="sans-serif" font-size="13" lengthAdjust="spacing" textLength="67" x="587" y="236.4736">repositories</text><polygon fill="#181818" points="773.5,269.0273,783.5,273.0273,773.5,277.0273,777.5,273.0273" style="stroke:#181818;stroke-width:1.0;"/><line style="stroke:#181818;stroke-width:1.0;" x1="559" x2="779.5" y1="273.0273" y2="273.0273"/><text fill="#000000" font-family="sans-serif" font-size="13" font-weight="bold" lengthAdjust="spacing" textLength="7" x="566" y="267.7646">5</text><text fill="#000000" font-family="sans-serif" font-size="13" lengthAdjust="spacing" textLength="166" x="577" y="267.7646">getRegistedJobsRepository()</text><polygon fill="#181818" points="570,300.3184,560,304.3184,570,308.3184,566,304.3184" style="stroke:#181818;stroke-width:1.0;"/><line style="stroke:#181818;stroke-width:1.0;stroke-dasharray:2.0,2.0;" x1="564" x2="789.5" y1="304.3184" y2="304.3184"/><text fill="#000000" font-family="sans-serif" font-size="13" font-weight="bold" lengthAdjust="spacing" textLength="7" x="576" y="299.0557">6</text><text fill="#000000" font-family="sans-serif" font-size="13" lengthAdjust="spacing" textLength="135" x="587" y="299.0557">registedJobsRepository</text><polygon fill="#181818" points="390,331.6094,380,335.6094,390,339.6094,386,335.6094" style="stroke:#181818;stroke-width:1.0;"/><line style="stroke:#181818;stroke-width:1.0;stroke-dasharray:2.0,2.0;" x1="384" x2="553" y1="335.6094" y2="335.6094"/><text fill="#000000" font-family="sans-serif" font-size="13" font-weight="bold" lengthAdjust="spacing" textLength="7" x="396" y="330.3467">7</text><text fill="#000000" font-family="sans-serif" font-size="13" lengthAdjust="spacing" textLength="135" x="407" y="330.3467">registedJobsRepository</text><path d="M10,350.6094 L83,350.6094 L83,359.9004 L73,369.9004 L10,369.9004 L10,350.6094 " fill="#EEEEEE" style="stroke:#000000;stroke-width:1.5;"/><rect fill="none" height="282.2793" style="stroke:#000000;stroke-width:1.5;" width="1131" x="10" y="350.6094"/><text fill="#000000" font-family="sans-serif" font-size="13" font-weight="bold" lengthAdjust="spacing" textLength="28" x="25" y="365.6377">loop</text><text fill="#000000" font-family="sans-serif" font-size="11" font-weight="bold" lengthAdjust="spacing" textLength="90" x="98" y="364.4795">[while intended]</text><polygon fill="#181818" points="97,389.1914,87,393.1914,97,397.1914,93,393.1914" style="stroke:#181818;stroke-width:1.0;"/><line style="stroke:#181818;stroke-width:1.0;stroke-dasharray:2.0,2.0;" x1="91" x2="373" y1="393.1914" y2="393.1914"/><text fill="#000000" font-family="sans-serif" font-size="13" font-weight="bold" lengthAdjust="spacing" textLength="7" x="103" y="387.9287">8</text><text fill="#000000" font-family="sans-serif" font-size="13" lengthAdjust="spacing" textLength="129" x="114" y="387.9287">requests the job name</text><polygon fill="#181818" points="357,420.4824,367,424.4824,357,428.4824,361,424.4824" style="stroke:#181818;stroke-width:1.0;"/><line style="stroke:#181818;stroke-width:1.0;" x1="86" x2="363" y1="424.4824" y2="424.4824"/><text fill="#000000" font-family="sans-serif" font-size="13" font-weight="bold" lengthAdjust="spacing" textLength="7" x="93" y="419.2197">9</text><text fill="#000000" font-family="sans-serif" font-size="13" lengthAdjust="spacing" textLength="95" x="104" y="419.2197">type the new job</text><polygon fill="#181818" points="537,451.7734,547,455.7734,537,459.7734,541,455.7734" style="stroke:#181818;stroke-width:1.0;"/><line style="stroke:#181818;stroke-width:1.0;stroke-dasharray:2.0,2.0;" x1="379" x2="543" y1="455.7734" y2="455.7734"/><text fill="#000000" font-family="sans-serif" font-size="13" font-weight="bold" lengthAdjust="spacing" textLength="14" x="386" y="450.5107">10</text><text fill="#000000" font-family="sans-serif" font-size="13" lengthAdjust="spacing" textLength="56" x="404" y="450.5107">createJob</text><polygon fill="#181818" points="915.5,483.0645,925.5,487.0645,915.5,491.0645,919.5,487.0645" style="stroke:#181818;stroke-width:1.0;"/><line style="stroke:#181818;stroke-width:1.0;stroke-dasharray:2.0,2.0;" x1="559" x2="921.5" y1="487.0645" y2="487.0645"/><text fill="#000000" font-family="sans-serif" font-size="13" font-weight="bold" lengthAdjust="spacing" textLength="14" x="566" y="481.8018">11</text><text fill="#000000" font-family="sans-serif" font-size="13" lengthAdjust="spacing" textLength="56" x="584" y="481.8018">createJob</text><polygon fill="#181818" points="1050,514.3555,1060,518.3555,1050,522.3555,1054,518.3555" style="stroke:#181818;stroke-width:1.0;"/><line style="stroke:#181818;stroke-width:1.0;" x1="937.5" x2="1056" y1="518.3555" y2="518.3555"/><text fill="#000000" font-family="sans-serif" font-size="13" font-weight="bold" lengthAdjust="spacing" textLength="14" x="944.5" y="513.0928">12</text><text fill="#000000" font-family="sans-serif" font-size="13" lengthAdjust="spacing" textLength="57" x="962.5" y="513.0928">create job</text><rect fill="#E3E3E3" height="51.2422" rx="2.5" ry="2.5" style="stroke:#181818;stroke-width:0.5;" width="69" x="1062" y="495.0645"/><text fill="#000000" font-family="sans-serif" font-size="14" lengthAdjust="spacing" textLength="55" x="1069" y="517.1719">jobName</text><text fill="#000000" font-family="sans-serif" font-size="14" lengthAdjust="spacing" textLength="26" x="1083.5" y="535.793">:Job</text><polygon fill="#181818" points="948.5,576.5977,938.5,580.5977,948.5,584.5977,944.5,580.5977" style="stroke:#181818;stroke-width:1.0;"/><line style="stroke:#181818;stroke-width:1.0;" x1="942.5" x2="1095.5" y1="580.5977" y2="580.5977"/><text fill="#000000" font-family="sans-serif" font-size="13" font-weight="bold" lengthAdjust="spacing" textLength="14" x="954.5" y="575.335">13</text><text fill="#000000" font-family="sans-serif" font-size="13" lengthAdjust="spacing" textLength="104" x="972.5" y="575.335">addJob (jobName)</text><line style="stroke:#181818;stroke-width:1.0;" x1="937.5" x2="979.5" y1="611.8887" y2="611.8887"/><line style="stroke:#181818;stroke-width:1.0;" x1="979.5" x2="979.5" y1="611.8887" y2="624.8887"/><line style="stroke:#181818;stroke-width:1.0;" x1="938.5" x2="979.5" y1="624.8887" y2="624.8887"/><polygon fill="#181818" points="948.5,620.8887,938.5,624.8887,948.5,628.8887,944.5,624.8887" style="stroke:#181818;stroke-width:1.0;"/><text fill="#000000" font-family="sans-serif" font-size="13" font-weight="bold" lengthAdjust="spacing" textLength="14" x="944.5" y="606.626">14</text><text fill="#000000" font-family="sans-serif" font-size="13" lengthAdjust="spacing" textLength="122" x="962.5" y="606.626">validateJob(jobName)</text><polygon fill="#181818" points="570,659.1797,560,663.1797,570,667.1797,566,663.1797" style="stroke:#181818;stroke-width:1.0;"/><line style="stroke:#181818;stroke-width:1.0;stroke-dasharray:2.0,2.0;" x1="564" x2="931.5" y1="663.1797" y2="663.1797"/><text fill="#000000" font-family="sans-serif" font-size="13" font-weight="bold" lengthAdjust="spacing" textLength="14" x="576" y="657.917">15</text><text fill="#000000" font-family="sans-serif" font-size="13" lengthAdjust="spacing" textLength="94" x="594" y="657.917">registedJobsList</text><polygon fill="#181818" points="390,690.4707,380,694.4707,390,698.4707,386,694.4707" style="stroke:#181818;stroke-width:1.0;"/><line style="stroke:#181818;stroke-width:1.0;stroke-dasharray:2.0,2.0;" x1="384" x2="553" y1="694.4707" y2="694.4707"/><text fill="#000000" font-family="sans-serif" font-size="13" font-weight="bold" lengthAdjust="spacing" textLength="14" x="396" y="689.208">16</text><text fill="#000000" font-family="sans-serif" font-size="13" lengthAdjust="spacing" textLength="94" x="414" y="689.208">registedJobsList</text><polygon fill="#181818" points="97,721.7617,87,725.7617,97,729.7617,93,725.7617" style="stroke:#181818;stroke-width:1.0;"/><line style="stroke:#181818;stroke-width:1.0;stroke-dasharray:2.0,2.0;" x1="91" x2="373" y1="725.7617" y2="725.7617"/><text fill="#000000" font-family="sans-serif" font-size="13" font-weight="bold" lengthAdjust="spacing" textLength="14" x="103" y="720.499">17</text><text fill="#000000" font-family="sans-serif" font-size="13" lengthAdjust="spacing" textLength="241" x="121" y="720.499">list all registered jobs and asks to confirm</text><polygon fill="#181818" points="357,753.0527,367,757.0527,357,761.0527,361,757.0527" style="stroke:#181818;stroke-width:1.0;"/><line style="stroke:#181818;stroke-width:1.0;" x1="86" x2="363" y1="757.0527" y2="757.0527"/><text fill="#000000" font-family="sans-serif" font-size="13" font-weight="bold" lengthAdjust="spacing" textLength="14" x="93" y="751.79">18</text><text fill="#000000" font-family="sans-serif" font-size="13" lengthAdjust="spacing" textLength="94" x="111" y="751.79">confirms all jobs</text><polygon fill="#181818" points="97,784.3438,87,788.3438,97,792.3438,93,788.3438" style="stroke:#181818;stroke-width:1.0;"/><line style="stroke:#181818;stroke-width:1.0;stroke-dasharray:2.0,2.0;" x1="91" x2="373" y1="788.3438" y2="788.3438"/><text fill="#000000" font-family="sans-serif" font-size="13" font-weight="bold" lengthAdjust="spacing" textLength="14" x="103" y="783.0811">19</text><text fill="#000000" font-family="sans-serif" font-size="13" lengthAdjust="spacing" textLength="158" x="121" y="783.0811">displays operation success</text><!--SRC=[bLN1Rk8m4BtdAqQSMYGEUqMhbQfAgrBHxIgqDouccO8NnyxQJX5_lsCx2J5nscvEmPxtvkNDip57BckcMGMLageuQ5KXMDrWPlgTcXL7jiUDFGi4ZOLbSY-61UR0IdNYSWzlJ1ZCCbPOfM7sq5HCGev6DRf0ivLFJ1AHdW4py90_PGItlE0ranPconpttDX7jNjT-OhNrLJ1lP9MAo5QglkNV3qghPNXf8AZyJNzmdd3dNohP0pH0yHMZWb-h-zUhX5E3fOao5pebrkP9pTQ6QcjcFUFslrY5P88gWgzy-UVgytcxfciRKXvK-rGmpTlD7zd5hsR6T13Bx3uGTx1af170rP140eC99w0s7rX3oMR_O9x24PWv-TyJWI5HgguRFSOxtY_x7uvNC9Z8jcZNKb3eIdmvdPCbHfCN-MU5EkYLRc4uTXwM8bVe- -4kza6fUdvf7JxF4H2FSjGMNBK2Oqn5StW-s8HjFqFosKcGgaQJWTEnvLBYxB4CXBgfamoNLHSWxyD6aj1EQ0B1qZANef_c9DXokovHWyUfkiwOOdsmQKGiSSKB7nG10q3yr5BsG93lWWuo4FIpwWuf2xPm8MbEuppUTSk-km-3bqTJEgb8rgw9RXfp_pjMCZ7OgPutvdWPJ3YYflYyEMFRQTq5SCrlKKKqN7xtDv-Y3u-ayp9Q8_YA_pD9aJ7ex5qqp30PDbVW8MIRrnNsPHgp_z1v8TnRxcCR-ewfM_JI6J9JItOsO2gKJFBwGOpJK5_YG4ST_m7]--></g></svg>