<?xml version="1.0" encoding="us-ascii" standalone="no"?><svg xmlns="http://www.w3.org/2000/svg" xmlns:xlink="http://www.w3.org/1999/xlink" contentStyleType="text/css" height="889px" preserveAspectRatio="none" style="width:1114px;height:889px;background:#FFFFFF;" version="1.1" viewBox="0 0 1114 889" width="1114px" zoomAndPan="magnify"><defs/><g><rect fill="#FFFFFF" height="666.8105" style="stroke:#181818;stroke-width:1.0;" width="10" x="76" y="112.2422"/><rect fill="#FFFFFF" height="226.3672" style="stroke:#181818;stroke-width:1.0;" width="10" x="369" y="135.5332"/><rect fill="#FFFFFF" height="314.2793" style="stroke:#181818;stroke-width:1.0;" width="10" x="369" y="393.1914"/><rect fill="#FFFFFF" height="31.291" style="stroke:#181818;stroke-width:1.0;" width="10" x="369" y="738.7617"/><rect fill="#FFFFFF" height="127.4941" style="stroke:#181818;stroke-width:1.0;" width="10" x="516" y="176.8242"/><rect fill="#FFFFFF" height="251.6973" style="stroke:#181818;stroke-width:1.0;" width="10" x="516" y="424.4824"/><rect fill="#FFFFFF" height="31.291" style="stroke:#181818;stroke-width:1.0;" width="10" x="645.5" y="210.4453"/><rect fill="#FFFFFF" height="31.291" style="stroke:#181818;stroke-width:1.0;" width="10" x="752.5" y="273.0273"/><rect fill="#FFFFFF" height="189.1152" style="stroke:#181818;stroke-width:1.0;" width="10" x="894.5" y="455.7734"/><rect fill="none" height="295.2793" style="stroke:#000000;stroke-width:1.5;" width="1098" x="10" y="319.3184"/><line style="stroke:#181818;stroke-width:0.5;stroke-dasharray:5.0,5.0;" x1="81" x2="81" y1="102.2422" y2="788.0527"/><line style="stroke:#181818;stroke-width:0.5;stroke-dasharray:5.0,5.0;" x1="374" x2="374" y1="102.2422" y2="788.0527"/><line style="stroke:#181818;stroke-width:0.5;stroke-dasharray:5.0,5.0;" x1="521" x2="521" y1="175.3438" y2="788.0527"/><line style="stroke:#181818;stroke-width:0.5;stroke-dasharray:5.0,5.0;" x1="650" x2="650" y1="102.2422" y2="788.0527"/><line style="stroke:#181818;stroke-width:0.5;stroke-dasharray:5.0,5.0;" x1="757" x2="757" y1="102.2422" y2="788.0527"/><line style="stroke:#181818;stroke-width:0.5;stroke-dasharray:5.0,5.0;" x1="899" x2="899" y1="102.2422" y2="788.0527"/><line style="stroke:#181818;stroke-width:0.5;stroke-dasharray:5.0,5.0;" x1="1063" x2="1063" y1="504.8945" y2="788.0527"/><text fill="#000000" font-family="sans-serif" font-size="14" lengthAdjust="spacing" textLength="116" x="20" y="80.1074">Human Resources</text><text fill="#000000" font-family="sans-serif" font-size="14" lengthAdjust="spacing" textLength="56" x="50" y="98.7285">Manager</text><ellipse cx="81" cy="13.5" fill="#E3E3E3" rx="8" ry="8" style="stroke:#181818;stroke-width:0.5;"/><path d="M81,21.5 L81,48.5 M68,29.5 L94,29.5 M81,48.5 L68,63.5 M81,48.5 L94,63.5 " fill="none" style="stroke:#181818;stroke-width:0.5;"/><text fill="#000000" font-family="sans-serif" font-size="14" lengthAdjust="spacing" textLength="116" x="20" y="802.1602">Human Resources</text><text fill="#000000" font-family="sans-serif" font-size="14" lengthAdjust="spacing" textLength="56" x="50" y="820.7813">Manager</text><ellipse cx="81" cy="832.7949" fill="#E3E3E3" rx="8" ry="8" style="stroke:#181818;stroke-width:0.5;"/><path d="M81,840.7949 L81,867.7949 M68,848.7949 L94,848.7949 M81,867.7949 L68,882.7949 M81,867.7949 L94,882.7949 " fill="none" style="stroke:#181818;stroke-width:0.5;"/><rect fill="#E3E3E3" height="32.6211" rx="2.5" ry="2.5" style="stroke:#181818;stroke-width:0.5;" width="92" x="328" y="68.6211"/><text fill="#000000" font-family="sans-serif" font-size="14" lengthAdjust="spacing" textLength="78" x="335" y="90.7285">:RegistJobUI</text><rect fill="#E3E3E3" height="32.6211" rx="2.5" ry="2.5" style="stroke:#181818;stroke-width:0.5;" width="92" x="328" y="787.0527"/><text fill="#000000" font-family="sans-serif" font-size="14" lengthAdjust="spacing" textLength="78" x="335" y="809.1602">:RegistJobUI</text><rect fill="#E3E3E3" height="32.6211" rx="2.5" ry="2.5" style="stroke:#181818;stroke-width:0.5;" width="142" x="450" y="787.0527"/><text fill="#000000" font-family="sans-serif" font-size="14" lengthAdjust="spacing" textLength="128" x="457" y="809.1602">:RegistJobController</text><rect fill="#E3E3E3" height="32.6211" rx="2.5" ry="2.5" style="stroke:#181818;stroke-width:0.5;" width="97" x="602" y="68.6211"/><text fill="#000000" font-family="sans-serif" font-size="14" lengthAdjust="spacing" textLength="83" x="609" y="90.7285">:Repositories</text><rect fill="#E3E3E3" height="32.6211" rx="2.5" ry="2.5" style="stroke:#181818;stroke-width:0.5;" width="97" x="602" y="787.0527"/><text fill="#000000" font-family="sans-serif" font-size="14" lengthAdjust="spacing" textLength="83" x="609" y="809.1602">:Repositories</text><rect fill="#E3E3E3" height="51.2422" rx="2.5" ry="2.5" style="stroke:#181818;stroke-width:0.5;" width="97" x="709" y="50"/><text fill="#000000" font-family="sans-serif" font-size="14" lengthAdjust="spacing" textLength="74" x="720.5" y="72.1074">repositories</text><text fill="#000000" font-family="sans-serif" font-size="14" lengthAdjust="spacing" textLength="83" x="716" y="90.7285">:Repositories</text><rect fill="#E3E3E3" height="51.2422" rx="2.5" ry="2.5" style="stroke:#181818;stroke-width:0.5;" width="97" x="709" y="787.0527"/><text fill="#000000" font-family="sans-serif" font-size="14" lengthAdjust="spacing" textLength="74" x="720.5" y="809.1602">repositories</text><text fill="#000000" font-family="sans-serif" font-size="14" lengthAdjust="spacing" textLength="83" x="716" y="827.7813">:Repositories</text><rect fill="#E3E3E3" height="51.2422" rx="2.5" ry="2.5" style="stroke:#181818;stroke-width:0.5;" width="167" x="816" y="50"/><text fill="#000000" font-family="sans-serif" font-size="14" lengthAdjust="spacing" textLength="152" x="823.5" y="72.1074">registedJobsRepository:</text><text fill="#000000" font-family="sans-serif" font-size="14" lengthAdjust="spacing" textLength="153" x="823" y="90.7285">RegistedJobsRepository</text><rect fill="#E3E3E3" height="51.2422" rx="2.5" ry="2.5" style="stroke:#181818;stroke-width:0.5;" width="167" x="816" y="787.0527"/><text fill="#000000" font-family="sans-serif" font-size="14" lengthAdjust="spacing" textLength="152" x="823.5" y="809.1602">registedJobsRepository:</text><text fill="#000000" font-family="sans-serif" font-size="14" lengthAdjust="spacing" textLength="153" x="823" y="827.7813">RegistedJobsRepository</text><rect fill="#E3E3E3" height="51.2422" rx="2.5" ry="2.5" style="stroke:#181818;stroke-width:0.5;" width="69" x="1029" y="787.0527"/><text fill="#000000" font-family="sans-serif" font-size="14" lengthAdjust="spacing" textLength="55" x="1036" y="809.1602">name</text><text fill="#000000" font-family="sans-serif" font-size="14" lengthAdjust="spacing" textLength="26" x="1050.5" y="827.7813">:Job</text><rect fill="#FFFFFF" height="666.8105" style="stroke:#181818;stroke-width:1.0;" width="10" x="76" y="112.2422"/><rect fill="#FFFFFF" height="226.3672" style="stroke:#181818;stroke-width:1.0;" width="10" x="369" y="135.5332"/><rect fill="#FFFFFF" height="314.2793" style="stroke:#181818;stroke-width:1.0;" width="10" x="369" y="393.1914"/><rect fill="#FFFFFF" height="31.291" style="stroke:#181818;stroke-width:1.0;" width="10" x="369" y="738.7617"/><rect fill="#FFFFFF" height="127.4941" style="stroke:#181818;stroke-width:1.0;" width="10" x="516" y="176.8242"/><rect fill="#FFFFFF" height="251.6973" style="stroke:#181818;stroke-width:1.0;" width="10" x="516" y="424.4824"/><rect fill="#FFFFFF" height="31.291" style="stroke:#181818;stroke-width:1.0;" width="10" x="645.5" y="210.4453"/><rect fill="#FFFFFF" height="31.291" style="stroke:#181818;stroke-width:1.0;" width="10" x="752.5" y="273.0273"/><rect fill="#FFFFFF" height="189.1152" style="stroke:#181818;stroke-width:1.0;" width="10" x="894.5" y="455.7734"/><polygon fill="#181818" points="357,131.5332,367,135.5332,357,139.5332,361,135.5332" style="stroke:#181818;stroke-width:1.0;"/><line style="stroke:#181818;stroke-width:1.0;" x1="86" x2="363" y1="135.5332" y2="135.5332"/><text fill="#000000" font-family="sans-serif" font-size="13" font-weight="bold" lengthAdjust="spacing" textLength="7" x="93" y="130.2705">1</text><text fill="#000000" font-family="sans-serif" font-size="13" lengthAdjust="spacing" textLength="138" x="104" y="130.2705">asks to regist a new job</text><polygon fill="#181818" points="438,162.8242,448,166.8242,438,170.8242,442,166.8242" style="stroke:#181818;stroke-width:1.0;"/><line style="stroke:#181818;stroke-width:1.0;" x1="379" x2="444" y1="166.8242" y2="166.8242"/><text fill="#000000" font-family="sans-serif" font-size="13" font-weight="bold" lengthAdjust="spacing" textLength="7" x="386" y="161.5615">2</text><text fill="#000000" font-family="sans-serif" font-size="13" lengthAdjust="spacing" textLength="36" x="397" y="161.5615">create</text><rect fill="#E3E3E3" height="32.6211" rx="2.5" ry="2.5" style="stroke:#181818;stroke-width:0.5;" width="142" x="450" y="143.5332"/><text fill="#000000" font-family="sans-serif" font-size="14" lengthAdjust="spacing" textLength="128" x="457" y="165.6406">:RegistJobController</text><polygon fill="#181818" points="633.5,206.4453,643.5,210.4453,633.5,214.4453,637.5,210.4453" style="stroke:#181818;stroke-width:1.0;"/><line style="stroke:#181818;stroke-width:1.0;" x1="526" x2="639.5" y1="210.4453" y2="210.4453"/><text fill="#000000" font-family="sans-serif" font-size="13" font-weight="bold" lengthAdjust="spacing" textLength="7" x="533" y="205.1826">3</text><text fill="#000000" font-family="sans-serif" font-size="13" lengthAdjust="spacing" textLength="75" x="544" y="205.1826">getInstance()</text><polygon fill="#181818" points="537,237.7363,527,241.7363,537,245.7363,533,241.7363" style="stroke:#181818;stroke-width:1.0;"/><line style="stroke:#181818;stroke-width:1.0;stroke-dasharray:2.0,2.0;" x1="531" x2="649.5" y1="241.7363" y2="241.7363"/><text fill="#000000" font-family="sans-serif" font-size="13" font-weight="bold" lengthAdjust="spacing" textLength="7" x="543" y="236.4736">4</text><text fill="#000000" font-family="sans-serif" font-size="13" lengthAdjust="spacing" textLength="67" x="554" y="236.4736">repositories</text><polygon fill="#181818" points="740.5,269.0273,750.5,273.0273,740.5,277.0273,744.5,273.0273" style="stroke:#181818;stroke-width:1.0;"/><line style="stroke:#181818;stroke-width:1.0;" x1="526" x2="746.5" y1="273.0273" y2="273.0273"/><text fill="#000000" font-family="sans-serif" font-size="13" font-weight="bold" lengthAdjust="spacing" textLength="7" x="533" y="267.7646">5</text><text fill="#000000" font-family="sans-serif" font-size="13" lengthAdjust="spacing" textLength="166" x="544" y="267.7646">getRegistedJobsRepository()</text><polygon fill="#181818" points="532,300.3184,522,304.3184,532,308.3184,528,304.3184" style="stroke:#181818;stroke-width:1.0;"/><line style="stroke:#181818;stroke-width:1.0;stroke-dasharray:2.0,2.0;" x1="526" x2="756.5" y1="304.3184" y2="304.3184"/><text fill="#000000" font-family="sans-serif" font-size="13" font-weight="bold" lengthAdjust="spacing" textLength="7" x="538" y="299.0557">6</text><text fill="#000000" font-family="sans-serif" font-size="13" lengthAdjust="spacing" textLength="135" x="549" y="299.0557">registedJobsRepository</text><path d="M10,319.3184 L83,319.3184 L83,328.6094 L73,338.6094 L10,338.6094 L10,319.3184 " fill="#EEEEEE" style="stroke:#000000;stroke-width:1.5;"/><rect fill="none" height="295.2793" style="stroke:#000000;stroke-width:1.5;" width="1098" x="10" y="319.3184"/><text fill="#000000" font-family="sans-serif" font-size="13" font-weight="bold" lengthAdjust="spacing" textLength="28" x="25" y="334.3467">loop</text><text fill="#000000" font-family="sans-serif" font-size="11" font-weight="bold" lengthAdjust="spacing" textLength="90" x="98" y="333.1885">[while intended]</text><polygon fill="#181818" points="97,357.9004,87,361.9004,97,365.9004,93,361.9004" style="stroke:#181818;stroke-width:1.0;"/><line style="stroke:#181818;stroke-width:1.0;stroke-dasharray:2.0,2.0;" x1="91" x2="373" y1="361.9004" y2="361.9004"/><text fill="#000000" font-family="sans-serif" font-size="13" font-weight="bold" lengthAdjust="spacing" textLength="7" x="103" y="356.6377">7</text><text fill="#000000" font-family="sans-serif" font-size="13" lengthAdjust="spacing" textLength="129" x="114" y="356.6377">requests the job name</text><polygon fill="#181818" points="357,389.1914,367,393.1914,357,397.1914,361,393.1914" style="stroke:#181818;stroke-width:1.0;"/><line style="stroke:#181818;stroke-width:1.0;" x1="86" x2="363" y1="393.1914" y2="393.1914"/><text fill="#000000" font-family="sans-serif" font-size="13" font-weight="bold" lengthAdjust="spacing" textLength="7" x="93" y="387.9287">8</text><text fill="#000000" font-family="sans-serif" font-size="13" lengthAdjust="spacing" textLength="95" x="104" y="387.9287">type the new job</text><polygon fill="#181818" points="504,420.4824,514,424.4824,504,428.4824,508,424.4824" style="stroke:#181818;stroke-width:1.0;"/><line style="stroke:#181818;stroke-width:1.0;" x1="379" x2="510" y1="424.4824" y2="424.4824"/><text fill="#000000" font-family="sans-serif" font-size="13" font-weight="bold" lengthAdjust="spacing" textLength="7" x="386" y="419.2197">9</text><text fill="#000000" font-family="sans-serif" font-size="13" lengthAdjust="spacing" textLength="36" x="397" y="419.2197">create</text><polygon fill="#181818" points="882.5,451.7734,892.5,455.7734,882.5,459.7734,886.5,455.7734" style="stroke:#181818;stroke-width:1.0;"/><line style="stroke:#181818;stroke-width:1.0;" x1="526" x2="888.5" y1="455.7734" y2="455.7734"/><text fill="#000000" font-family="sans-serif" font-size="13" font-weight="bold" lengthAdjust="spacing" textLength="14" x="533" y="450.5107">10</text><text fill="#000000" font-family="sans-serif" font-size="13" lengthAdjust="spacing" textLength="36" x="551" y="450.5107">create</text><polygon fill="#181818" points="1017,483.0645,1027,487.0645,1017,491.0645,1021,487.0645" style="stroke:#181818;stroke-width:1.0;"/><line style="stroke:#181818;stroke-width:1.0;" x1="904.5" x2="1023" y1="487.0645" y2="487.0645"/><text fill="#000000" font-family="sans-serif" font-size="13" font-weight="bold" lengthAdjust="spacing" textLength="14" x="911.5" y="481.8018">11</text><text fill="#000000" font-family="sans-serif" font-size="13" lengthAdjust="spacing" textLength="36" x="929.5" y="481.8018">create</text><rect fill="#E3E3E3" height="51.2422" rx="2.5" ry="2.5" style="stroke:#181818;stroke-width:0.5;" width="69" x="1029" y="463.7734"/><text fill="#000000" font-family="sans-serif" font-size="14" lengthAdjust="spacing" textLength="55" x="1036" y="485.8809">name</text><text fill="#000000" font-family="sans-serif" font-size="14" lengthAdjust="spacing" textLength="26" x="1050.5" y="504.502">:Job</text><line style="stroke:#181818;stroke-width:1.0;" x1="904.5" x2="946.5" y1="549.3066" y2="549.3066"/><line style="stroke:#181818;stroke-width:1.0;" x1="946.5" x2="946.5" y1="549.3066" y2="562.3066"/><line style="stroke:#181818;stroke-width:1.0;" x1="905.5" x2="946.5" y1="562.3066" y2="562.3066"/><polygon fill="#181818" points="915.5,558.3066,905.5,562.3066,915.5,566.3066,911.5,562.3066" style="stroke:#181818;stroke-width:1.0;"/><text fill="#000000" font-family="sans-serif" font-size="13" font-weight="bold" lengthAdjust="spacing" textLength="14" x="911.5" y="544.0439">12</text><text fill="#000000" font-family="sans-serif" font-size="13" lengthAdjust="spacing" textLength="100" x="929.5" y="544.0439">addJob(name)</text><line style="stroke:#181818;stroke-width:1.0;" x1="904.5" x2="946.5" y1="593.5977" y2="593.5977"/><line style="stroke:#181818;stroke-width:1.0;" x1="946.5" x2="946.5" y1="593.5977" y2="606.5977"/><line style="stroke:#181818;stroke-width:1.0;" x1="905.5" x2="946.5" y1="606.5977" y2="606.5977"/><polygon fill="#181818" points="915.5,602.5977,905.5,606.5977,915.5,610.5977,911.5,606.5977" style="stroke:#181818;stroke-width:1.0;"/><text fill="#000000" font-family="sans-serif" font-size="13" font-weight="bold" lengthAdjust="spacing" textLength="14" x="911.5" y="588.335">13</text><text fill="#000000" font-family="sans-serif" font-size="13" lengthAdjust="spacing" textLength="122" x="929.5" y="588.335">validateJob(name)</text><polygon fill="#181818" points="537,640.8887,527,644.8887,537,648.8887,533,644.8887" style="stroke:#181818;stroke-width:1.0;"/><line style="stroke:#181818;stroke-width:1.0;stroke-dasharray:2.0,2.0;" x1="531" x2="898.5" y1="644.8887" y2="644.8887"/><text fill="#000000" font-family="sans-serif" font-size="13" font-weight="bold" lengthAdjust="spacing" textLength="14" x="543" y="639.626">14</text><text fill="#000000" font-family="sans-serif" font-size="13" lengthAdjust="spacing" textLength="94" x="561" y="639.626">registedJobsList</text><polygon fill="#181818" points="390,672.1797,380,676.1797,390,680.1797,386,676.1797" style="stroke:#181818;stroke-width:1.0;"/><line style="stroke:#181818;stroke-width:1.0;stroke-dasharray:2.0,2.0;" x1="384" x2="520" y1="676.1797" y2="676.1797"/><text fill="#000000" font-family="sans-serif" font-size="13" font-weight="bold" lengthAdjust="spacing" textLength="14" x="396" y="670.917">15</text><text fill="#000000" font-family="sans-serif" font-size="13" lengthAdjust="spacing" textLength="94" x="414" y="670.917">registedJobsList</text><polygon fill="#181818" points="97,703.4707,87,707.4707,97,711.4707,93,707.4707" style="stroke:#181818;stroke-width:1.0;"/><line style="stroke:#181818;stroke-width:1.0;stroke-dasharray:2.0,2.0;" x1="91" x2="373" y1="707.4707" y2="707.4707"/><text fill="#000000" font-family="sans-serif" font-size="13" font-weight="bold" lengthAdjust="spacing" textLength="14" x="103" y="702.208">16</text><text fill="#000000" font-family="sans-serif" font-size="13" lengthAdjust="spacing" textLength="241" x="121" y="702.208">list all registered jobs and asks to confirm</text><polygon fill="#181818" points="357,734.7617,367,738.7617,357,742.7617,361,738.7617" style="stroke:#181818;stroke-width:1.0;"/><line style="stroke:#181818;stroke-width:1.0;" x1="86" x2="363" y1="738.7617" y2="738.7617"/><text fill="#000000" font-family="sans-serif" font-size="13" font-weight="bold" lengthAdjust="spacing" textLength="14" x="93" y="733.499">17</text><text fill="#000000" font-family="sans-serif" font-size="13" lengthAdjust="spacing" textLength="94" x="111" y="733.499">confirms all jobs</text><polygon fill="#181818" points="97,766.0527,87,770.0527,97,774.0527,93,770.0527" style="stroke:#181818;stroke-width:1.0;"/><line style="stroke:#181818;stroke-width:1.0;stroke-dasharray:2.0,2.0;" x1="91" x2="373" y1="770.0527" y2="770.0527"/><text fill="#000000" font-family="sans-serif" font-size="13" font-weight="bold" lengthAdjust="spacing" textLength="14" x="103" y="764.79">18</text><text fill="#000000" font-family="sans-serif" font-size="13" lengthAdjust="spacing" textLength="158" x="121" y="764.79">displays operation success</text><!--SRC=[hLN1Rjim3BtxAuYSsW0zx9h3WAB0q0pfEZZjBHV5OXqjikI9SeFy_IZ5qUn4MRDXkjWG-HwVoIUPjigqmea66cjijN6sGV2kmu9If1NLLjIuz7kDuB3omjHwc40R8UrEcHhUX2Oi2b5vws3os3N2G8baErSXhSoJC4pa9Y087ikdWk5ULQeLniDaLcAjo7-rwzTvp7YTNqfuiCOxgtLFzV1IBivIMqkALIYac9CszaiLv7jhnX0tGApCES7tnVtBAIB8GSc2w3VzR6NARA2NaGkDUN_OzJVH88lWh4FjyldBVBcyV-RMTgoyQzReu5Dij7eN7cCtWHS_uUupjmvc3DmIU0i7dI30u0wOl8YP2SfjXdunZC6XdTCf4rGEEQ58uGI93OV12Xi1ckaoyzJevuRODXNUt1OZOABCpGTELexzhXSyW-40Hr29VwoI_P0mxOFo_CGkVaUqoQdmo3PKcZN11SsHiSW4uXHIG5lRmcwZ-8mguz58b2F6C5jM40mI5Fpia3pROuF14c3OS0UkGG5snfcf_Bx5YFeBC_sRat8zofZon4KVTlPWf2nvcFlnf4sdgTJrw7o4Jw8CMpVzmRxz3uplGYl9uaQqYPUdVtMDVaOmjkM2touVecoJCsCyckQC-MCxZ-ogu_sbzP78eGpU8n16fckkikPDkUOg5_Uv54a3Kzx68n5IKQl5di2sw8HNVFbGL_5_ZJ8LVm40]--></g></svg>