<?xml version="1.0" encoding="us-ascii" standalone="no"?><svg xmlns="http://www.w3.org/2000/svg" xmlns:xlink="http://www.w3.org/1999/xlink" contentStyleType="text/css" height="465px" preserveAspectRatio="none" style="width:634px;height:465px;background:#FFFFFF;" version="1.1" viewBox="0 0 634 465" width="634px" zoomAndPan="magnify"><defs/><g><!--class RegisterJobUI--><g id="elem_RegisterJobUI"><rect codeLine="7" fill="#F1F1F1" height="48" id="RegisterJobUI" rx="2.5" ry="2.5" style="stroke:#181818;stroke-width:0.5;" width="119" x="7" y="35"/><ellipse cx="22" cy="51" fill="#ADD1B2" rx="11" ry="11" style="stroke:#181818;stroke-width:1.0;"/><path d="M24.7656,46.875 Q24.9219,46.6563 25.1094,46.5469 Q25.2969,46.4375 25.5156,46.4375 Q25.8906,46.4375 26.125,46.7031 Q26.3594,46.9531 26.3594,47.5625 L26.3594,49.0156 Q26.3594,49.625 26.125,49.8906 Q25.8906,50.1563 25.5156,50.1563 Q25.1719,50.1563 24.9688,49.9531 Q24.7656,49.7656 24.6563,49.25 Q24.6094,48.8906 24.4219,48.7031 Q24.0938,48.3281 23.4844,48.1094 Q22.875,47.8906 22.25,47.8906 Q21.4844,47.8906 20.8438,48.2188 Q20.2188,48.5469 19.7188,49.2969 Q19.2344,50.0469 19.2344,51.0781 L19.2344,52.1719 Q19.2344,53.4063 20.125,54.2344 Q21.0156,55.0469 22.6094,55.0469 Q23.5469,55.0469 24.2031,54.7969 Q24.5938,54.6406 25.0156,54.2031 Q25.2813,53.9375 25.4219,53.8594 Q25.5781,53.7813 25.7813,53.7813 Q26.1094,53.7813 26.3594,54.0469 Q26.625,54.2969 26.625,54.6406 Q26.625,54.9844 26.2813,55.3906 Q25.7813,55.9688 24.9844,56.2969 Q23.9063,56.75 22.6094,56.75 Q21.0938,56.75 19.8906,56.125 Q18.9063,55.625 18.2188,54.5625 Q17.5313,53.4844 17.5313,52.2031 L17.5313,51.0469 Q17.5313,49.7188 18.1406,48.5781 Q18.7656,47.4219 19.8594,46.8125 Q20.9531,46.1875 22.1875,46.1875 Q22.9219,46.1875 23.5625,46.3594 Q24.2188,46.5156 24.7656,46.875 Z " fill="#000000"/><text fill="#000000" font-family="sans-serif" font-size="14" lengthAdjust="spacing" textLength="87" x="36" y="56.7969">RegisterJobUI</text><line style="stroke:#181818;stroke-width:0.5;" x1="8" x2="125" y1="67" y2="67"/><line style="stroke:#181818;stroke-width:0.5;" x1="8" x2="125" y1="75" y2="75"/></g><!--class RegisterJobController--><g id="elem_RegisterJobController"><rect codeLine="10" fill="#F1F1F1" height="85.2422" id="RegisterJobController" rx="2.5" ry="2.5" style="stroke:#181818;stroke-width:0.5;" width="169" x="161" y="16.5"/><ellipse cx="176" cy="32.5" fill="#ADD1B2" rx="11" ry="11" style="stroke:#181818;stroke-width:1.0;"/><path d="M178.7656,28.375 Q178.9219,28.1563 179.1094,28.0469 Q179.2969,27.9375 179.5156,27.9375 Q179.8906,27.9375 180.125,28.2031 Q180.3594,28.4531 180.3594,29.0625 L180.3594,30.5156 Q180.3594,31.125 180.125,31.3906 Q179.8906,31.6563 179.5156,31.6563 Q179.1719,31.6563 178.9688,31.4531 Q178.7656,31.2656 178.6563,30.75 Q178.6094,30.3906 178.4219,30.2031 Q178.0938,29.8281 177.4844,29.6094 Q176.875,29.3906 176.25,29.3906 Q175.4844,29.3906 174.8438,29.7188 Q174.2188,30.0469 173.7188,30.7969 Q173.2344,31.5469 173.2344,32.5781 L173.2344,33.6719 Q173.2344,34.9063 174.125,35.7344 Q175.0156,36.5469 176.6094,36.5469 Q177.5469,36.5469 178.2031,36.2969 Q178.5938,36.1406 179.0156,35.7031 Q179.2813,35.4375 179.4219,35.3594 Q179.5781,35.2813 179.7813,35.2813 Q180.1094,35.2813 180.3594,35.5469 Q180.625,35.7969 180.625,36.1406 Q180.625,36.4844 180.2813,36.8906 Q179.7813,37.4688 178.9844,37.7969 Q177.9063,38.25 176.6094,38.25 Q175.0938,38.25 173.8906,37.625 Q172.9063,37.125 172.2188,36.0625 Q171.5313,34.9844 171.5313,33.7031 L171.5313,32.5469 Q171.5313,31.2188 172.1406,30.0781 Q172.7656,28.9219 173.8594,28.3125 Q174.9531,27.6875 176.1875,27.6875 Q176.9219,27.6875 177.5625,27.8594 Q178.2188,28.0156 178.7656,28.375 Z " fill="#000000"/><text fill="#000000" font-family="sans-serif" font-size="14" lengthAdjust="spacing" textLength="137" x="190" y="38.2969">RegisterJobController</text><line style="stroke:#181818;stroke-width:0.5;" x1="162" x2="329" y1="48.5" y2="48.5"/><line style="stroke:#181818;stroke-width:0.5;" x1="162" x2="329" y1="56.5" y2="56.5"/><text fill="#000000" font-family="sans-serif" font-size="14" lengthAdjust="spacing" textLength="155" x="167" y="75.6074">+RegisterJobController()</text><text fill="#000000" font-family="sans-serif" font-size="14" lengthAdjust="spacing" textLength="89" x="167" y="94.2285">+getJobsList()</text></g><!--class Job--><g id="elem_Job"><rect codeLine="15" fill="#F1F1F1" height="103.8633" id="Job" rx="2.5" ry="2.5" style="stroke:#181818;stroke-width:0.5;" width="136" x="197.5" y="355"/><ellipse cx="250.25" cy="371" fill="#ADD1B2" rx="11" ry="11" style="stroke:#181818;stroke-width:1.0;"/><path d="M253.0156,366.875 Q253.1719,366.6563 253.3594,366.5469 Q253.5469,366.4375 253.7656,366.4375 Q254.1406,366.4375 254.375,366.7031 Q254.6094,366.9531 254.6094,367.5625 L254.6094,369.0156 Q254.6094,369.625 254.375,369.8906 Q254.1406,370.1563 253.7656,370.1563 Q253.4219,370.1563 253.2188,369.9531 Q253.0156,369.7656 252.9063,369.25 Q252.8594,368.8906 252.6719,368.7031 Q252.3438,368.3281 251.7344,368.1094 Q251.125,367.8906 250.5,367.8906 Q249.7344,367.8906 249.0938,368.2188 Q248.4688,368.5469 247.9688,369.2969 Q247.4844,370.0469 247.4844,371.0781 L247.4844,372.1719 Q247.4844,373.4063 248.375,374.2344 Q249.2656,375.0469 250.8594,375.0469 Q251.7969,375.0469 252.4531,374.7969 Q252.8438,374.6406 253.2656,374.2031 Q253.5313,373.9375 253.6719,373.8594 Q253.8281,373.7813 254.0313,373.7813 Q254.3594,373.7813 254.6094,374.0469 Q254.875,374.2969 254.875,374.6406 Q254.875,374.9844 254.5313,375.3906 Q254.0313,375.9688 253.2344,376.2969 Q252.1563,376.75 250.8594,376.75 Q249.3438,376.75 248.1406,376.125 Q247.1563,375.625 246.4688,374.5625 Q245.7813,373.4844 245.7813,372.2031 L245.7813,371.0469 Q245.7813,369.7188 246.3906,368.5781 Q247.0156,367.4219 248.1094,366.8125 Q249.2031,366.1875 250.4375,366.1875 Q251.1719,366.1875 251.8125,366.3594 Q252.4688,366.5156 253.0156,366.875 Z " fill="#000000"/><text fill="#000000" font-family="sans-serif" font-size="14" lengthAdjust="spacing" textLength="22" x="270.75" y="376.7969">Job</text><line style="stroke:#181818;stroke-width:0.5;" x1="198.5" x2="332.5" y1="387" y2="387"/><text fill="#000000" font-family="sans-serif" font-size="14" lengthAdjust="spacing" textLength="81" x="203.5" y="406.1074">-String name</text><line style="stroke:#181818;stroke-width:0.5;" x1="198.5" x2="332.5" y1="413.6211" y2="413.6211"/><text fill="#000000" font-family="sans-serif" font-size="14" lengthAdjust="spacing" textLength="75" x="203.5" y="432.7285">+Job(name)</text><text fill="#000000" font-family="sans-serif" font-size="14" lengthAdjust="spacing" textLength="124" x="203.5" y="451.3496">+validateJob(name)</text></g><!--class JobsRepository--><g id="elem_JobsRepository"><rect codeLine="21" fill="#F1F1F1" height="103.8633" id="JobsRepository" rx="2.5" ry="2.5" style="stroke:#181818;stroke-width:0.5;" width="136" x="302.5" y="190"/><ellipse cx="320.65" cy="206" fill="#ADD1B2" rx="11" ry="11" style="stroke:#181818;stroke-width:1.0;"/><path d="M323.4156,201.875 Q323.5719,201.6563 323.7594,201.5469 Q323.9469,201.4375 324.1656,201.4375 Q324.5406,201.4375 324.775,201.7031 Q325.0094,201.9531 325.0094,202.5625 L325.0094,204.0156 Q325.0094,204.625 324.775,204.8906 Q324.5406,205.1563 324.1656,205.1563 Q323.8219,205.1563 323.6188,204.9531 Q323.4156,204.7656 323.3063,204.25 Q323.2594,203.8906 323.0719,203.7031 Q322.7438,203.3281 322.1344,203.1094 Q321.525,202.8906 320.9,202.8906 Q320.1344,202.8906 319.4938,203.2188 Q318.8688,203.5469 318.3688,204.2969 Q317.8844,205.0469 317.8844,206.0781 L317.8844,207.1719 Q317.8844,208.4063 318.775,209.2344 Q319.6656,210.0469 321.2594,210.0469 Q322.1969,210.0469 322.8531,209.7969 Q323.2438,209.6406 323.6656,209.2031 Q323.9313,208.9375 324.0719,208.8594 Q324.2281,208.7813 324.4313,208.7813 Q324.7594,208.7813 325.0094,209.0469 Q325.275,209.2969 325.275,209.6406 Q325.275,209.9844 324.9313,210.3906 Q324.4313,210.9688 323.6344,211.2969 Q322.5563,211.75 321.2594,211.75 Q319.7438,211.75 318.5406,211.125 Q317.5563,210.625 316.8688,209.5625 Q316.1813,208.4844 316.1813,207.2031 L316.1813,206.0469 Q316.1813,204.7188 316.7906,203.5781 Q317.4156,202.4219 318.5094,201.8125 Q319.6031,201.1875 320.8375,201.1875 Q321.5719,201.1875 322.2125,201.3594 Q322.8688,201.5156 323.4156,201.875 Z " fill="#000000"/><text fill="#000000" font-family="sans-serif" font-size="14" lengthAdjust="spacing" textLength="97" x="335.35" y="211.7969">JobsRepository</text><line style="stroke:#181818;stroke-width:0.5;" x1="303.5" x2="437.5" y1="222" y2="222"/><line style="stroke:#181818;stroke-width:0.5;" x1="303.5" x2="437.5" y1="230" y2="230"/><text fill="#000000" font-family="sans-serif" font-size="14" lengthAdjust="spacing" textLength="89" x="308.5" y="249.1074">+getJobsList()</text><text fill="#000000" font-family="sans-serif" font-size="14" lengthAdjust="spacing" textLength="99" x="308.5" y="267.7285">+addJob(name)</text><text fill="#000000" font-family="sans-serif" font-size="14" lengthAdjust="spacing" textLength="124" x="308.5" y="286.3496">+validateJob(name)</text></g><!--class Repositories--><g id="elem_Repositories"><rect codeLine="27" fill="#F1F1F1" height="103.8633" id="Repositories" rx="2.5" ry="2.5" style="stroke:#181818;stroke-width:0.5;" width="194" x="433.5" y="7"/><ellipse cx="486.75" cy="23" fill="#ADD1B2" rx="11" ry="11" style="stroke:#181818;stroke-width:1.0;"/><path d="M489.5156,18.875 Q489.6719,18.6563 489.8594,18.5469 Q490.0469,18.4375 490.2656,18.4375 Q490.6406,18.4375 490.875,18.7031 Q491.1094,18.9531 491.1094,19.5625 L491.1094,21.0156 Q491.1094,21.625 490.875,21.8906 Q490.6406,22.1563 490.2656,22.1563 Q489.9219,22.1563 489.7188,21.9531 Q489.5156,21.7656 489.4063,21.25 Q489.3594,20.8906 489.1719,20.7031 Q488.8438,20.3281 488.2344,20.1094 Q487.625,19.8906 487,19.8906 Q486.2344,19.8906 485.5938,20.2188 Q484.9688,20.5469 484.4688,21.2969 Q483.9844,22.0469 483.9844,23.0781 L483.9844,24.1719 Q483.9844,25.4063 484.875,26.2344 Q485.7656,27.0469 487.3594,27.0469 Q488.2969,27.0469 488.9531,26.7969 Q489.3438,26.6406 489.7656,26.2031 Q490.0313,25.9375 490.1719,25.8594 Q490.3281,25.7813 490.5313,25.7813 Q490.8594,25.7813 491.1094,26.0469 Q491.375,26.2969 491.375,26.6406 Q491.375,26.9844 491.0313,27.3906 Q490.5313,27.9688 489.7344,28.2969 Q488.6563,28.75 487.3594,28.75 Q485.8438,28.75 484.6406,28.125 Q483.6563,27.625 482.9688,26.5625 Q482.2813,25.4844 482.2813,24.2031 L482.2813,23.0469 Q482.2813,21.7188 482.8906,20.5781 Q483.5156,19.4219 484.6094,18.8125 Q485.7031,18.1875 486.9375,18.1875 Q487.6719,18.1875 488.3125,18.3594 Q488.9688,18.5156 489.5156,18.875 Z " fill="#000000"/><text fill="#000000" font-family="sans-serif" font-size="14" lengthAdjust="spacing" textLength="79" x="507.25" y="28.7969">Repositories</text><line style="stroke:#181818;stroke-width:0.5;" x1="434.5" x2="626.5" y1="39" y2="39"/><line style="stroke:#181818;stroke-width:0.5;" x1="434.5" x2="626.5" y1="47" y2="47"/><text fill="#000000" font-family="sans-serif" font-size="14" lengthAdjust="spacing" textLength="94" x="439.5" y="66.1074">-Repositories()</text><text fill="#000000" font-family="sans-serif" font-size="14" lengthAdjust="spacing" textLength="182" x="439.5" y="84.7285">+getInstance() : Repositories</text><text fill="#000000" font-family="sans-serif" font-size="14" lengthAdjust="spacing" textLength="135" x="439.5" y="103.3496">+getJobsRepository()</text></g><!--link RegisterJobUI to RegisterJobController--><g id="link_RegisterJobUI_RegisterJobController"><path codeLine="33" d="M126,59 C126.11,59 126.17,59 126.17,59 C126.17,59 138.52,59 154.88,59 " fill="none" id="RegisterJobUI-to-RegisterJobController" style="stroke:#181818;stroke-width:1.0;stroke-dasharray:7.0,7.0;"/><polygon fill="#181818" points="160.88,59,151.88,55,155.88,59,151.88,63,160.88,59" style="stroke:#181818;stroke-width:1.0;"/></g><!--link RegisterJobController to Repositories--><g id="link_RegisterJobController_Repositories"><path codeLine="35" d="M330.24,59 C362.64,59 393.85,59 427.33,59 " fill="none" id="RegisterJobController-to-Repositories" style="stroke:#181818;stroke-width:1.0;stroke-dasharray:7.0,7.0;"/><polygon fill="#181818" points="433.33,59,424.33,55,428.33,59,424.33,63,433.33,59" style="stroke:#181818;stroke-width:1.0;"/><text fill="#000000" font-family="sans-serif" font-size="13" lengthAdjust="spacing" textLength="67" x="348.25" y="52.0283">repositories</text></g><!--link Repositories to JobsRepository--><g id="link_Repositories_JobsRepository"><path codeLine="37" d="M485.08,111.38 C463.37,135.94 441.4235,160.7643 419.7335,185.3043 " fill="none" id="Repositories-to-JobsRepository" style="stroke:#181818;stroke-width:1.0;"/><polygon fill="#181818" points="415.76,189.8,424.7174,185.7055,419.0713,186.0536,418.7232,180.4075,415.76,189.8" style="stroke:#181818;stroke-width:1.0;"/><text fill="#000000" font-family="sans-serif" font-size="13" lengthAdjust="spacing" textLength="7" x="414.3715" y="178.7005">1</text></g><!--link RegisterJobController to Job--><g id="link_RegisterJobController_Job"><path codeLine="39" d="M247.91,101.74 C251.59,165.27 258.224,280.12 262.194,348.85 " fill="none" id="RegisterJobController-to-Job" style="stroke:#181818;stroke-width:1.0;stroke-dasharray:7.0,7.0;"/><polygon fill="#181818" points="262.54,354.84,266.0143,345.6243,262.2517,349.8483,258.0277,346.0856,262.54,354.84" style="stroke:#181818;stroke-width:1.0;"/><text fill="#000000" font-family="sans-serif" font-size="13" lengthAdjust="spacing" textLength="20" x="260.5" y="247.5283">Job</text></g><!--link RegisterJobController to JobsRepository--><g id="link_RegisterJobController_JobsRepository"><path codeLine="40" d="M274.18,101.53 C292.34,127.83 312.5515,157.0821 331.8515,185.0421 " fill="none" id="RegisterJobController-to-JobsRepository" style="stroke:#181818;stroke-width:1.0;stroke-dasharray:7.0,7.0;"/><polygon fill="#181818" points="335.26,189.98,333.4392,180.3009,332.4196,185.8651,326.8554,184.8455,335.26,189.98" style="stroke:#181818;stroke-width:1.0;"/><text fill="#000000" font-family="sans-serif" font-size="13" lengthAdjust="spacing" textLength="89" x="313.5" y="156.0283">JobsRepository</text></g><!--link JobsRepository to Job--><g id="link_JobsRepository_Job"><path codeLine="42" d="M337.57,294.13 C325.12,313.45 314.1989,330.3957 301.7489,349.7257 " fill="none" id="JobsRepository-to-Job" style="stroke:#181818;stroke-width:1.0;"/><polygon fill="#181818" points="298.5,354.77,306.7362,349.3695,301.2074,350.5664,300.0105,345.0377,298.5,354.77" style="stroke:#181818;stroke-width:1.0;"/><text fill="#000000" font-family="sans-serif" font-size="13" lengthAdjust="spacing" textLength="7" x="325.9024" y="315.9539">1</text><text fill="#000000" font-family="sans-serif" font-size="13" lengthAdjust="spacing" textLength="5" x="297.5984" y="343.6665">*</text></g><!--SRC=[bL91JiCm4Bpx5QkUKb0GN7EeX3W5SMh40xR94gowTkGre83uEviqf7O9IFWGoJFZyNWslDUsGuy7wB3UOqjLw0s1fpgWRGqfdWNyZ8rxqxQ59pGSCqPR2dr7q3dJ3vk8gmqotuRWzUubK5axM-btWckbr4Z1bbhDWVozspsMyA4-5uWxPuDtnf0N0SYwN6QpzSIs58JW1v48DbiADXdaK4aaUOl50qs7XCs6xRV9AnhTOA0J7XlnbZh7EZZVpw7IQuyODiq_Z6TJJJn7ZS7uYQLbcL9DsHgAH9J6EGKzTf4sVhLPxZBHHGCOzL78GdwMw6QLa7c-WTNDwgolNwt5UnXHCNp_riJj5p_ipmH3WZ79nPX4VG40]--></g></svg>