<?xml version="1.0" encoding="us-ascii" standalone="no"?><svg xmlns="http://www.w3.org/2000/svg" xmlns:xlink="http://www.w3.org/1999/xlink" contentStyleType="text/css" height="1071px" preserveAspectRatio="none" style="width:1099px;height:1071px;background:#FFFFFF;" version="1.1" viewBox="0 0 1099 1071" width="1099px" zoomAndPan="magnify"><defs/><g><rect fill="#FFFFFF" height="848.2656" style="stroke:#181818;stroke-width:1.0;" width="10" x="76" y="112.2422"/><rect fill="#FFFFFF" height="226.3672" style="stroke:#181818;stroke-width:1.0;" width="10" x="286" y="135.5332"/><rect fill="#FFFFFF" height="495.7344" style="stroke:#181818;stroke-width:1.0;" width="10" x="286" y="393.1914"/><rect fill="#FFFFFF" height="31.291" style="stroke:#181818;stroke-width:1.0;" width="10" x="286" y="920.2168"/><rect fill="#FFFFFF" height="127.4941" style="stroke:#181818;stroke-width:1.0;" width="10" x="439.5" y="176.8242"/><rect fill="#FFFFFF" height="415.8613" style="stroke:#181818;stroke-width:1.0;" width="10" x="439.5" y="424.4824"/><rect fill="#FFFFFF" height="31.291" style="stroke:#181818;stroke-width:1.0;" width="10" x="575.5" y="210.4453"/><rect fill="#FFFFFF" height="31.291" style="stroke:#181818;stroke-width:1.0;" width="10" x="682.5" y="273.0273"/><rect fill="#FFFFFF" height="353.2793" style="stroke:#181818;stroke-width:1.0;" width="10" x="798.5" y="455.7734"/><rect fill="#FFFFFF" height="133.8242" style="stroke:#181818;stroke-width:1.0;" width="10" x="943.5" y="497.0645"/><rect fill="none" height="459.4434" style="stroke:#000000;stroke-width:1.5;" width="1083.5" x="10" y="319.3184"/><line style="stroke:#181818;stroke-width:0.5;stroke-dasharray:5.0,5.0;" x1="81" x2="81" y1="102.2422" y2="969.5078"/><line style="stroke:#181818;stroke-width:0.5;stroke-dasharray:5.0,5.0;" x1="290.5" x2="290.5" y1="102.2422" y2="969.5078"/><line style="stroke:#181818;stroke-width:0.5;stroke-dasharray:5.0,5.0;" x1="444" x2="444" y1="175.3438" y2="969.5078"/><line style="stroke:#181818;stroke-width:0.5;stroke-dasharray:5.0,5.0;" x1="580" x2="580" y1="102.2422" y2="969.5078"/><line style="stroke:#181818;stroke-width:0.5;stroke-dasharray:5.0,5.0;" x1="687" x2="687" y1="102.2422" y2="969.5078"/><line style="stroke:#181818;stroke-width:0.5;stroke-dasharray:5.0,5.0;" x1="803" x2="803" y1="102.2422" y2="969.5078"/><line style="stroke:#181818;stroke-width:0.5;stroke-dasharray:5.0,5.0;" x1="948" x2="948" y1="504.8945" y2="969.5078"/><text fill="#000000" font-family="sans-serif" font-size="14" lengthAdjust="spacing" textLength="116" x="20" y="80.1074">Human Resources</text><text fill="#000000" font-family="sans-serif" font-size="14" lengthAdjust="spacing" textLength="56" x="50" y="98.7285">Manager</text><ellipse cx="81" cy="13.5" fill="#E3E3E3" rx="8" ry="8" style="stroke:#181818;stroke-width:0.5;"/><path d="M81,21.5 L81,48.5 M68,29.5 L94,29.5 M81,48.5 L68,63.5 M81,48.5 L94,63.5 " fill="none" style="stroke:#181818;stroke-width:0.5;"/><text fill="#000000" font-family="sans-serif" font-size="14" lengthAdjust="spacing" textLength="116" x="20" y="983.6152">Human Resources</text><text fill="#000000" font-family="sans-serif" font-size="14" lengthAdjust="spacing" textLength="56" x="50" y="1002.2363">Manager</text><ellipse cx="81" cy="1014.25" fill="#E3E3E3" rx="8" ry="8" style="stroke:#181818;stroke-width:0.5;"/><path d="M81,1022.25 L81,1049.25 M68,1030.25 L94,1030.25 M81,1049.25 L68,1064.25 M81,1049.25 L94,1064.25 " fill="none" style="stroke:#181818;stroke-width:0.5;"/><rect fill="#E3E3E3" height="32.6211" rx="2.5" ry="2.5" style="stroke:#181818;stroke-width:0.5;" width="105" x="238.5" y="68.6211"/><text fill="#000000" font-family="sans-serif" font-size="14" lengthAdjust="spacing" textLength="91" x="245.5" y="90.7285">:RegisterJobUI</text><rect fill="#E3E3E3" height="32.6211" rx="2.5" ry="2.5" style="stroke:#181818;stroke-width:0.5;" width="105" x="238.5" y="968.5078"/><text fill="#000000" font-family="sans-serif" font-size="14" lengthAdjust="spacing" textLength="91" x="245.5" y="990.6152">:RegisterJobUI</text><rect fill="#E3E3E3" height="32.6211" rx="2.5" ry="2.5" style="stroke:#181818;stroke-width:0.5;" width="155" x="367" y="968.5078"/><text fill="#000000" font-family="sans-serif" font-size="14" lengthAdjust="spacing" textLength="141" x="374" y="990.6152">:RegisterJobController</text><rect fill="#E3E3E3" height="32.6211" rx="2.5" ry="2.5" style="stroke:#181818;stroke-width:0.5;" width="97" x="532" y="68.6211"/><text fill="#000000" font-family="sans-serif" font-size="14" lengthAdjust="spacing" textLength="83" x="539" y="90.7285">:Repositories</text><rect fill="#E3E3E3" height="32.6211" rx="2.5" ry="2.5" style="stroke:#181818;stroke-width:0.5;" width="97" x="532" y="968.5078"/><text fill="#000000" font-family="sans-serif" font-size="14" lengthAdjust="spacing" textLength="83" x="539" y="990.6152">:Repositories</text><rect fill="#E3E3E3" height="51.2422" rx="2.5" ry="2.5" style="stroke:#181818;stroke-width:0.5;" width="97" x="639" y="50"/><text fill="#000000" font-family="sans-serif" font-size="14" lengthAdjust="spacing" textLength="74" x="650.5" y="72.1074">repositories</text><text fill="#000000" font-family="sans-serif" font-size="14" lengthAdjust="spacing" textLength="83" x="646" y="90.7285">:Repositories</text><rect fill="#E3E3E3" height="51.2422" rx="2.5" ry="2.5" style="stroke:#181818;stroke-width:0.5;" width="97" x="639" y="968.5078"/><text fill="#000000" font-family="sans-serif" font-size="14" lengthAdjust="spacing" textLength="74" x="650.5" y="990.6152">repositories</text><text fill="#000000" font-family="sans-serif" font-size="14" lengthAdjust="spacing" textLength="83" x="646" y="1009.2363">:Repositories</text><rect fill="#E3E3E3" height="51.2422" rx="2.5" ry="2.5" style="stroke:#181818;stroke-width:0.5;" width="115" x="746" y="50"/><text fill="#000000" font-family="sans-serif" font-size="14" lengthAdjust="spacing" textLength="94" x="756.5" y="72.1074">jobsRepository</text><text fill="#000000" font-family="sans-serif" font-size="14" lengthAdjust="spacing" textLength="101" x="753" y="90.7285">:JobsRepository</text><rect fill="#E3E3E3" height="51.2422" rx="2.5" ry="2.5" style="stroke:#181818;stroke-width:0.5;" width="115" x="746" y="968.5078"/><text fill="#000000" font-family="sans-serif" font-size="14" lengthAdjust="spacing" textLength="94" x="756.5" y="990.6152">jobsRepository</text><text fill="#000000" font-family="sans-serif" font-size="14" lengthAdjust="spacing" textLength="101" x="753" y="1009.2363">:JobsRepository</text><rect fill="#E3E3E3" height="51.2422" rx="2.5" ry="2.5" style="stroke:#181818;stroke-width:0.5;" width="49" x="924" y="968.5078"/><text fill="#000000" font-family="sans-serif" font-size="14" lengthAdjust="spacing" textLength="35" x="931" y="990.6152">name</text><text fill="#000000" font-family="sans-serif" font-size="14" lengthAdjust="spacing" textLength="26" x="935.5" y="1009.2363">:Job</text><rect fill="#FFFFFF" height="848.2656" style="stroke:#181818;stroke-width:1.0;" width="10" x="76" y="112.2422"/><rect fill="#FFFFFF" height="226.3672" style="stroke:#181818;stroke-width:1.0;" width="10" x="286" y="135.5332"/><rect fill="#FFFFFF" height="495.7344" style="stroke:#181818;stroke-width:1.0;" width="10" x="286" y="393.1914"/><rect fill="#FFFFFF" height="31.291" style="stroke:#181818;stroke-width:1.0;" width="10" x="286" y="920.2168"/><rect fill="#FFFFFF" height="127.4941" style="stroke:#181818;stroke-width:1.0;" width="10" x="439.5" y="176.8242"/><rect fill="#FFFFFF" height="415.8613" style="stroke:#181818;stroke-width:1.0;" width="10" x="439.5" y="424.4824"/><rect fill="#FFFFFF" height="31.291" style="stroke:#181818;stroke-width:1.0;" width="10" x="575.5" y="210.4453"/><rect fill="#FFFFFF" height="31.291" style="stroke:#181818;stroke-width:1.0;" width="10" x="682.5" y="273.0273"/><rect fill="#FFFFFF" height="353.2793" style="stroke:#181818;stroke-width:1.0;" width="10" x="798.5" y="455.7734"/><rect fill="#FFFFFF" height="133.8242" style="stroke:#181818;stroke-width:1.0;" width="10" x="943.5" y="497.0645"/><polygon fill="#181818" points="274,131.5332,284,135.5332,274,139.5332,278,135.5332" style="stroke:#181818;stroke-width:1.0;"/><line style="stroke:#181818;stroke-width:1.0;" x1="86" x2="280" y1="135.5332" y2="135.5332"/><text fill="#000000" font-family="sans-serif" font-size="13" font-weight="bold" lengthAdjust="spacing" textLength="7" x="93" y="130.2705">1</text><text fill="#000000" font-family="sans-serif" font-size="13" lengthAdjust="spacing" textLength="138" x="104" y="130.2705">asks to regist a new job</text><polygon fill="#181818" points="355,162.8242,365,166.8242,355,170.8242,359,166.8242" style="stroke:#181818;stroke-width:1.0;"/><line style="stroke:#181818;stroke-width:1.0;" x1="296" x2="361" y1="166.8242" y2="166.8242"/><text fill="#000000" font-family="sans-serif" font-size="13" font-weight="bold" lengthAdjust="spacing" textLength="7" x="303" y="161.5615">2</text><text fill="#000000" font-family="sans-serif" font-size="13" lengthAdjust="spacing" textLength="36" x="314" y="161.5615">create</text><rect fill="#E3E3E3" height="32.6211" rx="2.5" ry="2.5" style="stroke:#181818;stroke-width:0.5;" width="155" x="367" y="143.5332"/><text fill="#000000" font-family="sans-serif" font-size="14" lengthAdjust="spacing" textLength="141" x="374" y="165.6406">:RegisterJobController</text><polygon fill="#181818" points="563.5,206.4453,573.5,210.4453,563.5,214.4453,567.5,210.4453" style="stroke:#181818;stroke-width:1.0;"/><line style="stroke:#181818;stroke-width:1.0;" x1="449.5" x2="569.5" y1="210.4453" y2="210.4453"/><text fill="#000000" font-family="sans-serif" font-size="13" font-weight="bold" lengthAdjust="spacing" textLength="7" x="456.5" y="205.1826">3</text><text fill="#000000" font-family="sans-serif" font-size="13" lengthAdjust="spacing" textLength="75" x="467.5" y="205.1826">getInstance()</text><polygon fill="#181818" points="460.5,237.7363,450.5,241.7363,460.5,245.7363,456.5,241.7363" style="stroke:#181818;stroke-width:1.0;"/><line style="stroke:#181818;stroke-width:1.0;stroke-dasharray:2.0,2.0;" x1="454.5" x2="579.5" y1="241.7363" y2="241.7363"/><text fill="#000000" font-family="sans-serif" font-size="13" font-weight="bold" lengthAdjust="spacing" textLength="7" x="466.5" y="236.4736">4</text><text fill="#000000" font-family="sans-serif" font-size="13" lengthAdjust="spacing" textLength="67" x="477.5" y="236.4736">repositories</text><polygon fill="#181818" points="670.5,269.0273,680.5,273.0273,670.5,277.0273,674.5,273.0273" style="stroke:#181818;stroke-width:1.0;"/><line style="stroke:#181818;stroke-width:1.0;" x1="449.5" x2="676.5" y1="273.0273" y2="273.0273"/><text fill="#000000" font-family="sans-serif" font-size="13" font-weight="bold" lengthAdjust="spacing" textLength="7" x="456.5" y="267.7646">5</text><text fill="#000000" font-family="sans-serif" font-size="13" lengthAdjust="spacing" textLength="115" x="467.5" y="267.7646">getJobsRepository()</text><polygon fill="#181818" points="455.5,300.3184,445.5,304.3184,455.5,308.3184,451.5,304.3184" style="stroke:#181818;stroke-width:1.0;"/><line style="stroke:#181818;stroke-width:1.0;stroke-dasharray:2.0,2.0;" x1="449.5" x2="686.5" y1="304.3184" y2="304.3184"/><text fill="#000000" font-family="sans-serif" font-size="13" font-weight="bold" lengthAdjust="spacing" textLength="7" x="461.5" y="299.0557">6</text><text fill="#000000" font-family="sans-serif" font-size="13" lengthAdjust="spacing" textLength="89" x="472.5" y="299.0557">JobsRepository</text><path d="M10,319.3184 L83,319.3184 L83,328.6094 L73,338.6094 L10,338.6094 L10,319.3184 " fill="#EEEEEE" style="stroke:#000000;stroke-width:1.5;"/><rect fill="none" height="459.4434" style="stroke:#000000;stroke-width:1.5;" width="1083.5" x="10" y="319.3184"/><text fill="#000000" font-family="sans-serif" font-size="13" font-weight="bold" lengthAdjust="spacing" textLength="28" x="25" y="334.3467">loop</text><text fill="#000000" font-family="sans-serif" font-size="11" font-weight="bold" lengthAdjust="spacing" textLength="90" x="98" y="333.1885">[while intended]</text><polygon fill="#181818" points="97,357.9004,87,361.9004,97,365.9004,93,361.9004" style="stroke:#181818;stroke-width:1.0;"/><line style="stroke:#181818;stroke-width:1.0;stroke-dasharray:2.0,2.0;" x1="91" x2="290" y1="361.9004" y2="361.9004"/><text fill="#000000" font-family="sans-serif" font-size="13" font-weight="bold" lengthAdjust="spacing" textLength="7" x="103" y="356.6377">7</text><text fill="#000000" font-family="sans-serif" font-size="13" lengthAdjust="spacing" textLength="129" x="114" y="356.6377">requests the job name</text><polygon fill="#181818" points="274,389.1914,284,393.1914,274,397.1914,278,393.1914" style="stroke:#181818;stroke-width:1.0;"/><line style="stroke:#181818;stroke-width:1.0;" x1="86" x2="280" y1="393.1914" y2="393.1914"/><text fill="#000000" font-family="sans-serif" font-size="13" font-weight="bold" lengthAdjust="spacing" textLength="7" x="93" y="387.9287">8</text><text fill="#000000" font-family="sans-serif" font-size="13" lengthAdjust="spacing" textLength="95" x="104" y="387.9287">type the new job</text><polygon fill="#181818" points="427.5,420.4824,437.5,424.4824,427.5,428.4824,431.5,424.4824" style="stroke:#181818;stroke-width:1.0;"/><line style="stroke:#181818;stroke-width:1.0;" x1="296" x2="433.5" y1="424.4824" y2="424.4824"/><text fill="#000000" font-family="sans-serif" font-size="13" font-weight="bold" lengthAdjust="spacing" textLength="7" x="303" y="419.2197">9</text><text fill="#000000" font-family="sans-serif" font-size="13" lengthAdjust="spacing" textLength="36" x="314" y="419.2197">create</text><polygon fill="#181818" points="786.5,451.7734,796.5,455.7734,786.5,459.7734,790.5,455.7734" style="stroke:#181818;stroke-width:1.0;"/><line style="stroke:#181818;stroke-width:1.0;" x1="449.5" x2="792.5" y1="455.7734" y2="455.7734"/><text fill="#000000" font-family="sans-serif" font-size="13" font-weight="bold" lengthAdjust="spacing" textLength="14" x="456.5" y="450.5107">10</text><text fill="#000000" font-family="sans-serif" font-size="13" lengthAdjust="spacing" textLength="36" x="474.5" y="450.5107">create</text><polygon fill="#181818" points="912,483.0645,922,487.0645,912,491.0645,916,487.0645" style="stroke:#181818;stroke-width:1.0;"/><line style="stroke:#181818;stroke-width:1.0;" x1="808.5" x2="918" y1="487.0645" y2="487.0645"/><text fill="#000000" font-family="sans-serif" font-size="13" font-weight="bold" lengthAdjust="spacing" textLength="14" x="815.5" y="481.8018">11</text><text fill="#000000" font-family="sans-serif" font-size="13" lengthAdjust="spacing" textLength="36" x="833.5" y="481.8018">create</text><rect fill="#E3E3E3" height="51.2422" rx="2.5" ry="2.5" style="stroke:#181818;stroke-width:0.5;" width="49" x="924" y="463.7734"/><text fill="#000000" font-family="sans-serif" font-size="14" lengthAdjust="spacing" textLength="35" x="931" y="485.8809">name</text><text fill="#000000" font-family="sans-serif" font-size="14" lengthAdjust="spacing" textLength="26" x="935.5" y="504.502">:Job</text><line style="stroke:#181818;stroke-width:1.0;" x1="953.5" x2="995.5" y1="549.3066" y2="549.3066"/><line style="stroke:#181818;stroke-width:1.0;" x1="995.5" x2="995.5" y1="549.3066" y2="562.3066"/><line style="stroke:#181818;stroke-width:1.0;" x1="954.5" x2="995.5" y1="562.3066" y2="562.3066"/><polygon fill="#181818" points="964.5,558.3066,954.5,562.3066,964.5,566.3066,960.5,562.3066" style="stroke:#181818;stroke-width:1.0;"/><text fill="#000000" font-family="sans-serif" font-size="13" font-weight="bold" lengthAdjust="spacing" textLength="14" x="960.5" y="544.0439">12</text><text fill="#000000" font-family="sans-serif" font-size="13" lengthAdjust="spacing" textLength="103" x="978.5" y="544.0439">validateJob(name)</text><polygon fill="#181818" points="819.5,589.5977,809.5,593.5977,819.5,597.5977,815.5,593.5977" style="stroke:#181818;stroke-width:1.0;"/><line style="stroke:#181818;stroke-width:1.0;stroke-dasharray:2.0,2.0;" x1="813.5" x2="942.5" y1="593.5977" y2="593.5977"/><text fill="#000000" font-family="sans-serif" font-size="13" font-weight="bold" lengthAdjust="spacing" textLength="14" x="825.5" y="588.335">13</text><text fill="#000000" font-family="sans-serif" font-size="13" lengthAdjust="spacing" textLength="32" x="843.5" y="588.335">name</text><line style="stroke:#181818;stroke-width:1.0;" x1="808.5" x2="850.5" y1="629.8887" y2="629.8887"/><line style="stroke:#181818;stroke-width:1.0;" x1="850.5" x2="850.5" y1="629.8887" y2="642.8887"/><line style="stroke:#181818;stroke-width:1.0;" x1="803.5" x2="850.5" y1="642.8887" y2="642.8887"/><polygon fill="#181818" points="813.5,638.8887,803.5,642.8887,813.5,646.8887,809.5,642.8887" style="stroke:#181818;stroke-width:1.0;"/><text fill="#000000" font-family="sans-serif" font-size="13" font-weight="bold" lengthAdjust="spacing" textLength="14" x="815.5" y="624.626">14</text><text fill="#000000" font-family="sans-serif" font-size="13" lengthAdjust="spacing" textLength="103" x="833.5" y="624.626">validateJob(name)</text><line style="stroke:#181818;stroke-width:1.0;" x1="808.5" x2="850.5" y1="669.1797" y2="669.1797"/><line style="stroke:#181818;stroke-width:1.0;" x1="850.5" x2="850.5" y1="669.1797" y2="682.1797"/><line style="stroke:#181818;stroke-width:1.0;" x1="809.5" x2="850.5" y1="682.1797" y2="682.1797"/><polygon fill="#181818" points="819.5,678.1797,809.5,682.1797,819.5,686.1797,815.5,682.1797" style="stroke:#181818;stroke-width:1.0;"/><text fill="#000000" font-family="sans-serif" font-size="13" font-weight="bold" lengthAdjust="spacing" textLength="14" x="815.5" y="663.917">15</text><text fill="#000000" font-family="sans-serif" font-size="13" lengthAdjust="spacing" textLength="81" x="833.5" y="663.917">addJob(name)</text><line style="stroke:#181818;stroke-width:1.0;" x1="808.5" x2="850.5" y1="713.4707" y2="713.4707"/><line style="stroke:#181818;stroke-width:1.0;" x1="850.5" x2="850.5" y1="713.4707" y2="726.4707"/><line style="stroke:#181818;stroke-width:1.0;" x1="809.5" x2="850.5" y1="726.4707" y2="726.4707"/><polygon fill="#181818" points="819.5,722.4707,809.5,726.4707,819.5,730.4707,815.5,726.4707" style="stroke:#181818;stroke-width:1.0;"/><text fill="#000000" font-family="sans-serif" font-size="13" font-weight="bold" lengthAdjust="spacing" textLength="14" x="815.5" y="708.208">16</text><text fill="#000000" font-family="sans-serif" font-size="13" lengthAdjust="spacing" textLength="53" x="833.5" y="708.208">true/false</text><line style="stroke:#181818;stroke-width:1.0;" x1="808.5" x2="850.5" y1="757.7617" y2="757.7617"/><line style="stroke:#181818;stroke-width:1.0;" x1="850.5" x2="850.5" y1="757.7617" y2="770.7617"/><line style="stroke:#181818;stroke-width:1.0;" x1="809.5" x2="850.5" y1="770.7617" y2="770.7617"/><polygon fill="#181818" points="819.5,766.7617,809.5,770.7617,819.5,774.7617,815.5,770.7617" style="stroke:#181818;stroke-width:1.0;"/><text fill="#000000" font-family="sans-serif" font-size="13" font-weight="bold" lengthAdjust="spacing" textLength="14" x="815.5" y="752.499">17</text><text fill="#000000" font-family="sans-serif" font-size="13" lengthAdjust="spacing" textLength="53" x="833.5" y="752.499">true/false</text><polygon fill="#181818" points="460.5,805.0527,450.5,809.0527,460.5,813.0527,456.5,809.0527" style="stroke:#181818;stroke-width:1.0;"/><line style="stroke:#181818;stroke-width:1.0;stroke-dasharray:2.0,2.0;" x1="454.5" x2="802.5" y1="809.0527" y2="809.0527"/><text fill="#000000" font-family="sans-serif" font-size="13" font-weight="bold" lengthAdjust="spacing" textLength="14" x="466.5" y="803.79">18</text><text fill="#000000" font-family="sans-serif" font-size="13" lengthAdjust="spacing" textLength="45" x="484.5" y="803.79">jobsList</text><polygon fill="#181818" points="307,836.3438,297,840.3438,307,844.3438,303,840.3438" style="stroke:#181818;stroke-width:1.0;"/><line style="stroke:#181818;stroke-width:1.0;stroke-dasharray:2.0,2.0;" x1="301" x2="443.5" y1="840.3438" y2="840.3438"/><text fill="#000000" font-family="sans-serif" font-size="13" font-weight="bold" lengthAdjust="spacing" textLength="14" x="313" y="835.0811">19</text><text fill="#000000" font-family="sans-serif" font-size="13" lengthAdjust="spacing" textLength="45" x="331" y="835.0811">jobsList</text><polygon fill="#181818" points="97,884.9258,87,888.9258,97,892.9258,93,888.9258" style="stroke:#181818;stroke-width:1.0;"/><line style="stroke:#181818;stroke-width:1.0;stroke-dasharray:2.0,2.0;" x1="91" x2="290" y1="888.9258" y2="888.9258"/><text fill="#000000" font-family="sans-serif" font-size="13" font-weight="bold" lengthAdjust="spacing" textLength="14" x="103" y="875.0176">20</text><text fill="#000000" font-family="sans-serif" font-size="13" lengthAdjust="spacing" textLength="95" x="121" y="866.3721">list all registered</text><text fill="#000000" font-family="sans-serif" font-size="13" lengthAdjust="spacing" textLength="142" x="125" y="883.6631">jobs and asks to confirm</text><polygon fill="#181818" points="274,916.2168,284,920.2168,274,924.2168,278,920.2168" style="stroke:#181818;stroke-width:1.0;"/><line style="stroke:#181818;stroke-width:1.0;" x1="86" x2="280" y1="920.2168" y2="920.2168"/><text fill="#000000" font-family="sans-serif" font-size="13" font-weight="bold" lengthAdjust="spacing" textLength="14" x="93" y="914.9541">21</text><text fill="#000000" font-family="sans-serif" font-size="13" lengthAdjust="spacing" textLength="94" x="111" y="914.9541">confirms all jobs</text><polygon fill="#181818" points="97,947.5078,87,951.5078,97,955.5078,93,951.5078" style="stroke:#181818;stroke-width:1.0;"/><line style="stroke:#181818;stroke-width:1.0;stroke-dasharray:2.0,2.0;" x1="91" x2="290" y1="951.5078" y2="951.5078"/><text fill="#000000" font-family="sans-serif" font-size="13" font-weight="bold" lengthAdjust="spacing" textLength="14" x="103" y="946.2451">22</text><text fill="#000000" font-family="sans-serif" font-size="13" lengthAdjust="spacing" textLength="158" x="121" y="946.2451">displays operation success</text><!--SRC=[dLN1Rjim3BtxAuYSsW35i6iE0ue2GrEawE2qjrmKctMqo98doGtozwDaHxOS6ItgaqFpFLBlKOmvSjampMgebLJ5GQiQmUeMCnE-DAmuiWgtzYmGD1QMoKgC4yo1bUh4PGNlJ1ZCCbPOfM7nsDPCGev6jRf0ivFFJ1AHNW0py9W_PmItlE0DanOMgnmhRYpg9xL_M_kSj_LyoeEILYiXUhg7rtnpbTmemwaJZiRdXC1vozqHh98nH8yGEtbDy6Tp_neZ_ggz6MW9ynG5F2eEnNZ9QknGNO7yvVTwkxr_8GrRQg-jzwZXfrUKVp2BNhOCwA4NkFj54i6Aa4S3Lf4vJXvW8F44r9fF351IqmVSGp02Ez6MIo8eD5B6y3bWlAmXx7uvN4988gdGhgMXwIZmvlQQAgL-o79FYlMkxt85Osy2hCIlqLyQTmPsdSQcfFhrPaSDUlJGqSJNH4ynnUZ38AjGge7JWTFLujAYBB6CQZgZgA9pssdmhqLZoUi3Ed_1ZK-AVsprT5ZikK5FC1wIsK69XoLCoYU3CjOybWdcAIPwHcGJ4cVbvQeib_EKe_iKJBo48f8LV331Iy9GfHidwsqIaZfFPC9ret4aLIWrEQ7nhnEpihpc_1pcjlsFRd5_2zJfH9FRlKon_UIGJcvNRcW_PPEpfdplXkSoidF8OUYYQoBy4XIYtuUeiTn9Jm9Cbc5R5ag-SrrdITQP2pM-I3tU-5AEFRrkezPARXh1pWPKWvfPJYlEj0NzEPfKnVy0]--></g></svg>