<?xml version="1.0" encoding="us-ascii" standalone="no"?><svg xmlns="http://www.w3.org/2000/svg" xmlns:xlink="http://www.w3.org/1999/xlink" contentStyleType="text/css" height="1450px" preserveAspectRatio="none" style="width:1834px;height:1450px;background:#FFFFFF;" version="1.1" viewBox="0 0 1834 1450" width="1834px" zoomAndPan="magnify"><defs/><g><rect fill="#FFFFFF" height="1227.2129" style="stroke:#181818;stroke-width:1.0;" width="10" x="59" y="112.2422"/><rect fill="#FFFFFF" height="340.8223" style="stroke:#181818;stroke-width:1.0;" width="10" x="458" y="135.5332"/><rect fill="#FFFFFF" height="831.8086" style="stroke:#181818;stroke-width:1.0;" width="10" x="458" y="507.6465"/><rect fill="#FFFFFF" height="517.2383" style="stroke:#181818;stroke-width:1.0;" width="10" x="463" y="750.6348"/><rect fill="#FFFFFF" height="31.291" style="stroke:#181818;stroke-width:1.0;" width="10" x="463" y="1299.1641"/><rect fill="#FFFFFF" height="190.0762" style="stroke:#181818;stroke-width:1.0;" width="10" x="690" y="176.8242"/><rect fill="#FFFFFF" height="680.3535" style="stroke:#181818;stroke-width:1.0;" width="10" x="690" y="556.2285"/><rect fill="#FFFFFF" height="31.291" style="stroke:#181818;stroke-width:1.0;" width="10" x="838" y="210.4453"/><rect fill="#FFFFFF" height="31.291" style="stroke:#181818;stroke-width:1.0;" width="10" x="974" y="273.0273"/><rect fill="#FFFFFF" height="31.291" style="stroke:#181818;stroke-width:1.0;" width="10" x="974" y="335.6094"/><rect fill="#FFFFFF" height="506.6074" style="stroke:#181818;stroke-width:1.0;" width="10" x="1128" y="604.8105"/><rect fill="#FFFFFF" height="31.291" style="stroke:#181818;stroke-width:1.0;" width="10" x="1133" y="1080.127"/><rect fill="#FFFFFF" height="349.2012" style="stroke:#181818;stroke-width:1.0;" width="10" x="1359.5" y="887.3809"/><rect fill="#FFFFFF" height="31.291" style="stroke:#181818;stroke-width:1.0;" width="10" x="1364.5" y="1174"/><rect fill="none" height="667.9355" style="stroke:#000000;stroke-width:1.5;" width="1818.5" x="10" y="381.9004"/><line style="stroke:#181818;stroke-width:0.5;stroke-dasharray:5.0,5.0;" x1="64" x2="64" y1="102.2422" y2="1348.4551"/><line style="stroke:#181818;stroke-width:0.5;stroke-dasharray:5.0,5.0;" x1="462.5" x2="462.5" y1="102.2422" y2="1348.4551"/><line style="stroke:#181818;stroke-width:0.5;stroke-dasharray:5.0,5.0;" x1="694.5" x2="694.5" y1="175.3438" y2="1348.4551"/><line style="stroke:#181818;stroke-width:0.5;stroke-dasharray:5.0,5.0;" x1="842.5" x2="842.5" y1="102.2422" y2="1348.4551"/><line style="stroke:#181818;stroke-width:0.5;stroke-dasharray:5.0,5.0;" x1="978.5" x2="978.5" y1="102.2422" y2="1348.4551"/><line style="stroke:#181818;stroke-width:0.5;stroke-dasharray:5.0,5.0;" x1="1132.5" x2="1132.5" y1="102.2422" y2="1348.4551"/><line style="stroke:#181818;stroke-width:0.5;stroke-dasharray:5.0,5.0;" x1="1364.5" x2="1364.5" y1="102.2422" y2="1348.4551"/><line style="stroke:#181818;stroke-width:0.5;stroke-dasharray:5.0,5.0;" x1="1651.5" x2="1651.5" y1="653.9316" y2="1348.4551"/><line style="stroke:#181818;stroke-width:0.5;stroke-dasharray:5.0,5.0;" x1="1755.5" x2="1755.5" y1="938.3174" y2="1348.4551"/><text fill="#000000" font-family="sans-serif" font-size="14" lengthAdjust="spacing" textLength="82" x="20" y="80.1074">Vehicle Fleet</text><text fill="#000000" font-family="sans-serif" font-size="14" lengthAdjust="spacing" textLength="56" x="33" y="98.7285">Manager</text><ellipse cx="64" cy="13.5" fill="#E3E3E3" rx="8" ry="8" style="stroke:#181818;stroke-width:0.5;"/><path d="M64,21.5 L64,48.5 M51,29.5 L77,29.5 M64,48.5 L51,63.5 M64,48.5 L77,63.5 " fill="none" style="stroke:#181818;stroke-width:0.5;"/><text fill="#000000" font-family="sans-serif" font-size="14" lengthAdjust="spacing" textLength="82" x="20" y="1362.5625">Vehicle Fleet</text><text fill="#000000" font-family="sans-serif" font-size="14" lengthAdjust="spacing" textLength="56" x="33" y="1381.1836">Manager</text><ellipse cx="64" cy="1393.1973" fill="#E3E3E3" rx="8" ry="8" style="stroke:#181818;stroke-width:0.5;"/><path d="M64,1401.1973 L64,1428.1973 M51,1409.1973 L77,1409.1973 M64,1428.1973 L51,1443.1973 M64,1428.1973 L77,1443.1973 " fill="none" style="stroke:#181818;stroke-width:0.5;"/><rect fill="#E3E3E3" height="32.6211" rx="2.5" ry="2.5" style="stroke:#181818;stroke-width:0.5;" width="129" x="398.5" y="68.6211"/><text fill="#000000" font-family="sans-serif" font-size="14" lengthAdjust="spacing" textLength="115" x="405.5" y="90.7285">:RegisterVehicleUI</text><rect fill="#E3E3E3" height="32.6211" rx="2.5" ry="2.5" style="stroke:#181818;stroke-width:0.5;" width="129" x="398.5" y="1347.4551"/><text fill="#000000" font-family="sans-serif" font-size="14" lengthAdjust="spacing" textLength="115" x="405.5" y="1369.5625">:RegisterVehicleUI</text><rect fill="#E3E3E3" height="32.6211" rx="2.5" ry="2.5" style="stroke:#181818;stroke-width:0.5;" width="179" x="605.5" y="1347.4551"/><text fill="#000000" font-family="sans-serif" font-size="14" lengthAdjust="spacing" textLength="165" x="612.5" y="1369.5625">:RegisterVehicleController</text><rect fill="#E3E3E3" height="32.6211" rx="2.5" ry="2.5" style="stroke:#181818;stroke-width:0.5;" width="97" x="794.5" y="68.6211"/><text fill="#000000" font-family="sans-serif" font-size="14" lengthAdjust="spacing" textLength="83" x="801.5" y="90.7285">:Repositories</text><rect fill="#E3E3E3" height="32.6211" rx="2.5" ry="2.5" style="stroke:#181818;stroke-width:0.5;" width="97" x="794.5" y="1347.4551"/><text fill="#000000" font-family="sans-serif" font-size="14" lengthAdjust="spacing" textLength="83" x="801.5" y="1369.5625">:Repositories</text><rect fill="#E3E3E3" height="51.2422" rx="2.5" ry="2.5" style="stroke:#181818;stroke-width:0.5;" width="97" x="930.5" y="50"/><text fill="#000000" font-family="sans-serif" font-size="14" lengthAdjust="spacing" textLength="74" x="942" y="72.1074">repositories</text><text fill="#000000" font-family="sans-serif" font-size="14" lengthAdjust="spacing" textLength="83" x="937.5" y="90.7285">:Repositories</text><rect fill="#E3E3E3" height="51.2422" rx="2.5" ry="2.5" style="stroke:#181818;stroke-width:0.5;" width="97" x="930.5" y="1347.4551"/><text fill="#000000" font-family="sans-serif" font-size="14" lengthAdjust="spacing" textLength="74" x="942" y="1369.5625">repositories</text><text fill="#000000" font-family="sans-serif" font-size="14" lengthAdjust="spacing" textLength="83" x="937.5" y="1388.1836">:Repositories</text><rect fill="#E3E3E3" height="51.2422" rx="2.5" ry="2.5" style="stroke:#181818;stroke-width:0.5;" width="191" x="1037.5" y="50"/><text fill="#000000" font-family="sans-serif" font-size="14" lengthAdjust="spacing" textLength="176" x="1045" y="72.1074">registedVehiclesRepository:</text><text fill="#000000" font-family="sans-serif" font-size="14" lengthAdjust="spacing" textLength="177" x="1044.5" y="90.7285">RegistedVehiclesRepository</text><rect fill="#E3E3E3" height="51.2422" rx="2.5" ry="2.5" style="stroke:#181818;stroke-width:0.5;" width="191" x="1037.5" y="1347.4551"/><text fill="#000000" font-family="sans-serif" font-size="14" lengthAdjust="spacing" textLength="176" x="1045" y="1369.5625">registedVehiclesRepository:</text><text fill="#000000" font-family="sans-serif" font-size="14" lengthAdjust="spacing" textLength="177" x="1044.5" y="1388.1836">RegistedVehiclesRepository</text><rect fill="#E3E3E3" height="51.2422" rx="2.5" ry="2.5" style="stroke:#181818;stroke-width:0.5;" width="252" x="1238.5" y="50"/><text fill="#000000" font-family="sans-serif" font-size="14" lengthAdjust="spacing" textLength="237" x="1246" y="72.1074">registedPlateCertificationsRepository:</text><text fill="#000000" font-family="sans-serif" font-size="14" lengthAdjust="spacing" textLength="238" x="1245.5" y="90.7285">RegistedPlateCertificationsRepository</text><rect fill="#E3E3E3" height="51.2422" rx="2.5" ry="2.5" style="stroke:#181818;stroke-width:0.5;" width="252" x="1238.5" y="1347.4551"/><text fill="#000000" font-family="sans-serif" font-size="14" lengthAdjust="spacing" textLength="237" x="1246" y="1369.5625">registedPlateCertificationsRepository:</text><text fill="#000000" font-family="sans-serif" font-size="14" lengthAdjust="spacing" textLength="238" x="1245.5" y="1388.1836">RegistedPlateCertificationsRepository</text><rect fill="#E3E3E3" height="51.2422" rx="2.5" ry="2.5" style="stroke:#181818;stroke-width:0.5;" width="64" x="1619.5" y="1347.4551"/><text fill="#000000" font-family="sans-serif" font-size="14" lengthAdjust="spacing" textLength="44" x="1629.5" y="1369.5625">vehicle</text><text fill="#000000" font-family="sans-serif" font-size="14" lengthAdjust="spacing" textLength="50" x="1626.5" y="1388.1836">:Vehicle</text><rect fill="#E3E3E3" height="51.2422" rx="2.5" ry="2.5" style="stroke:#181818;stroke-width:0.5;" width="125" x="1693.5" y="1347.4551"/><text fill="#000000" font-family="sans-serif" font-size="14" lengthAdjust="spacing" textLength="106" x="1703" y="1369.5625">plateCertification</text><text fill="#000000" font-family="sans-serif" font-size="14" lengthAdjust="spacing" textLength="111" x="1700.5" y="1388.1836">:PlateCertification</text><rect fill="#FFFFFF" height="1227.2129" style="stroke:#181818;stroke-width:1.0;" width="10" x="59" y="112.2422"/><rect fill="#FFFFFF" height="340.8223" style="stroke:#181818;stroke-width:1.0;" width="10" x="458" y="135.5332"/><rect fill="#FFFFFF" height="831.8086" style="stroke:#181818;stroke-width:1.0;" width="10" x="458" y="507.6465"/><rect fill="#FFFFFF" height="517.2383" style="stroke:#181818;stroke-width:1.0;" width="10" x="463" y="750.6348"/><rect fill="#FFFFFF" height="31.291" style="stroke:#181818;stroke-width:1.0;" width="10" x="463" y="1299.1641"/><rect fill="#FFFFFF" height="190.0762" style="stroke:#181818;stroke-width:1.0;" width="10" x="690" y="176.8242"/><rect fill="#FFFFFF" height="680.3535" style="stroke:#181818;stroke-width:1.0;" width="10" x="690" y="556.2285"/><rect fill="#FFFFFF" height="31.291" style="stroke:#181818;stroke-width:1.0;" width="10" x="838" y="210.4453"/><rect fill="#FFFFFF" height="31.291" style="stroke:#181818;stroke-width:1.0;" width="10" x="974" y="273.0273"/><rect fill="#FFFFFF" height="31.291" style="stroke:#181818;stroke-width:1.0;" width="10" x="974" y="335.6094"/><rect fill="#FFFFFF" height="506.6074" style="stroke:#181818;stroke-width:1.0;" width="10" x="1128" y="604.8105"/><rect fill="#FFFFFF" height="31.291" style="stroke:#181818;stroke-width:1.0;" width="10" x="1133" y="1080.127"/><rect fill="#FFFFFF" height="349.2012" style="stroke:#181818;stroke-width:1.0;" width="10" x="1359.5" y="887.3809"/><rect fill="#FFFFFF" height="31.291" style="stroke:#181818;stroke-width:1.0;" width="10" x="1364.5" y="1174"/><polygon fill="#181818" points="446,131.5332,456,135.5332,446,139.5332,450,135.5332" style="stroke:#181818;stroke-width:1.0;"/><line style="stroke:#181818;stroke-width:1.0;" x1="69" x2="452" y1="135.5332" y2="135.5332"/><text fill="#000000" font-family="sans-serif" font-size="13" font-weight="bold" lengthAdjust="spacing" textLength="7" x="76" y="130.2705">1</text><text fill="#000000" font-family="sans-serif" font-size="13" lengthAdjust="spacing" textLength="171" x="87" y="130.2705">asks to register a new vehicle</text><polygon fill="#181818" points="593.5,162.8242,603.5,166.8242,593.5,170.8242,597.5,166.8242" style="stroke:#181818;stroke-width:1.0;"/><line style="stroke:#181818;stroke-width:1.0;" x1="468" x2="599.5" y1="166.8242" y2="166.8242"/><text fill="#000000" font-family="sans-serif" font-size="13" font-weight="bold" lengthAdjust="spacing" textLength="7" x="475" y="161.5615">2</text><text fill="#000000" font-family="sans-serif" font-size="13" lengthAdjust="spacing" textLength="36" x="486" y="161.5615">create</text><rect fill="#E3E3E3" height="32.6211" rx="2.5" ry="2.5" style="stroke:#181818;stroke-width:0.5;" width="179" x="605.5" y="143.5332"/><text fill="#000000" font-family="sans-serif" font-size="14" lengthAdjust="spacing" textLength="165" x="612.5" y="165.6406">:RegisterVehicleController</text><polygon fill="#181818" points="826,206.4453,836,210.4453,826,214.4453,830,210.4453" style="stroke:#181818;stroke-width:1.0;"/><line style="stroke:#181818;stroke-width:1.0;" x1="700" x2="832" y1="210.4453" y2="210.4453"/><text fill="#000000" font-family="sans-serif" font-size="13" font-weight="bold" lengthAdjust="spacing" textLength="7" x="707" y="205.1826">3</text><text fill="#000000" font-family="sans-serif" font-size="13" lengthAdjust="spacing" textLength="75" x="718" y="205.1826">getInstance()</text><polygon fill="#181818" points="711,237.7363,701,241.7363,711,245.7363,707,241.7363" style="stroke:#181818;stroke-width:1.0;"/><line style="stroke:#181818;stroke-width:1.0;stroke-dasharray:2.0,2.0;" x1="705" x2="842" y1="241.7363" y2="241.7363"/><text fill="#000000" font-family="sans-serif" font-size="13" font-weight="bold" lengthAdjust="spacing" textLength="7" x="717" y="236.4736">4</text><text fill="#000000" font-family="sans-serif" font-size="13" lengthAdjust="spacing" textLength="67" x="728" y="236.4736">repositories</text><polygon fill="#181818" points="962,269.0273,972,273.0273,962,277.0273,966,273.0273" style="stroke:#181818;stroke-width:1.0;"/><line style="stroke:#181818;stroke-width:1.0;" x1="700" x2="968" y1="273.0273" y2="273.0273"/><text fill="#000000" font-family="sans-serif" font-size="13" font-weight="bold" lengthAdjust="spacing" textLength="7" x="707" y="267.7646">5</text><text fill="#000000" font-family="sans-serif" font-size="13" lengthAdjust="spacing" textLength="189" x="718" y="267.7646">getRegistedVehiclesRepository()</text><polygon fill="#181818" points="711,300.3184,701,304.3184,711,308.3184,707,304.3184" style="stroke:#181818;stroke-width:1.0;"/><line style="stroke:#181818;stroke-width:1.0;stroke-dasharray:2.0,2.0;" x1="705" x2="978" y1="304.3184" y2="304.3184"/><text fill="#000000" font-family="sans-serif" font-size="13" font-weight="bold" lengthAdjust="spacing" textLength="7" x="717" y="299.0557">6</text><text fill="#000000" font-family="sans-serif" font-size="13" lengthAdjust="spacing" textLength="158" x="728" y="299.0557">registedVehiclesRepository</text><polygon fill="#181818" points="962,331.6094,972,335.6094,962,339.6094,966,335.6094" style="stroke:#181818;stroke-width:1.0;"/><line style="stroke:#181818;stroke-width:1.0;" x1="700" x2="968" y1="335.6094" y2="335.6094"/><text fill="#000000" font-family="sans-serif" font-size="13" font-weight="bold" lengthAdjust="spacing" textLength="7" x="707" y="330.3467">7</text><text fill="#000000" font-family="sans-serif" font-size="13" lengthAdjust="spacing" textLength="244" x="718" y="330.3467">getRegistedPlateCertificationsRepository()</text><polygon fill="#181818" points="706,362.9004,696,366.9004,706,370.9004,702,366.9004" style="stroke:#181818;stroke-width:1.0;"/><line style="stroke:#181818;stroke-width:1.0;stroke-dasharray:2.0,2.0;" x1="700" x2="978" y1="366.9004" y2="366.9004"/><text fill="#000000" font-family="sans-serif" font-size="13" font-weight="bold" lengthAdjust="spacing" textLength="7" x="712" y="361.6377">8</text><text fill="#000000" font-family="sans-serif" font-size="13" lengthAdjust="spacing" textLength="218" x="723" y="361.6377">RegistedPlateCertificationsRepository</text><path d="M10,381.9004 L83,381.9004 L83,391.1914 L73,401.1914 L10,401.1914 L10,381.9004 " fill="#EEEEEE" style="stroke:#000000;stroke-width:1.5;"/><rect fill="none" height="667.9355" style="stroke:#000000;stroke-width:1.5;" width="1818.5" x="10" y="381.9004"/><text fill="#000000" font-family="sans-serif" font-size="13" font-weight="bold" lengthAdjust="spacing" textLength="28" x="25" y="396.9287">loop</text><text fill="#000000" font-family="sans-serif" font-size="11" font-weight="bold" lengthAdjust="spacing" textLength="90" x="98" y="395.7705">[while intended]</text><polygon fill="#181818" points="80,472.3555,70,476.3555,80,480.3555,76,476.3555" style="stroke:#181818;stroke-width:1.0;"/><line style="stroke:#181818;stroke-width:1.0;stroke-dasharray:2.0,2.0;" x1="74" x2="462" y1="476.3555" y2="476.3555"/><text fill="#000000" font-family="sans-serif" font-size="13" font-weight="bold" lengthAdjust="spacing" textLength="7" x="86" y="445.1563">9</text><text fill="#000000" font-family="sans-serif" font-size="13" lengthAdjust="spacing" textLength="269" x="97" y="419.2197">requests vehicle data (i.e. Brand, Model, Type,</text><text fill="#000000" font-family="sans-serif" font-size="13" lengthAdjust="spacing" textLength="274" x="97" y="436.5107">Tare,Gross Weight, Current Km, Register Date,</text><text fill="#000000" font-family="sans-serif" font-size="13" lengthAdjust="spacing" textLength="354" x="97" y="453.8018">Acquisition Date, Maintenance/Checkup Frequency (in Kms),</text><text fill="#000000" font-family="sans-serif" font-size="13" lengthAdjust="spacing" textLength="75" x="101" y="471.0928">vehicle plate)</text><polygon fill="#181818" points="446,503.6465,456,507.6465,446,511.6465,450,507.6465" style="stroke:#181818;stroke-width:1.0;"/><line style="stroke:#181818;stroke-width:1.0;" x1="69" x2="452" y1="507.6465" y2="507.6465"/><text fill="#000000" font-family="sans-serif" font-size="13" font-weight="bold" lengthAdjust="spacing" textLength="14" x="76" y="502.3838">10</text><text fill="#000000" font-family="sans-serif" font-size="13" lengthAdjust="spacing" textLength="262" x="94" y="502.3838">write the values of the new vehicle's attributes</text><polygon fill="#181818" points="678,552.2285,688,556.2285,678,560.2285,682,556.2285" style="stroke:#181818;stroke-width:1.0;"/><line style="stroke:#181818;stroke-width:1.0;" x1="468" x2="684" y1="556.2285" y2="556.2285"/><text fill="#000000" font-family="sans-serif" font-size="13" font-weight="bold" lengthAdjust="spacing" textLength="14" x="475" y="542.3203">11</text><text fill="#000000" font-family="sans-serif" font-size="13" lengthAdjust="spacing" textLength="147" x="493" y="533.6748">createVehicle(currentKm,</text><text fill="#000000" font-family="sans-serif" font-size="13" lengthAdjust="spacing" textLength="171" x="497" y="550.9658">acquisitionDate,maintenance)</text><polygon fill="#181818" points="1116,600.8105,1126,604.8105,1116,608.8105,1120,604.8105" style="stroke:#181818;stroke-width:1.0;"/><line style="stroke:#181818;stroke-width:1.0;" x1="700" x2="1122" y1="604.8105" y2="604.8105"/><text fill="#000000" font-family="sans-serif" font-size="13" font-weight="bold" lengthAdjust="spacing" textLength="14" x="707" y="590.9023">12</text><text fill="#000000" font-family="sans-serif" font-size="13" lengthAdjust="spacing" textLength="147" x="725" y="582.2568">createVehicle(currentKm,</text><text fill="#000000" font-family="sans-serif" font-size="13" lengthAdjust="spacing" textLength="171" x="729" y="599.5479">acquisitionDate,maintenance)</text><polygon fill="#181818" points="1607.5,649.3926,1617.5,653.3926,1607.5,657.3926,1611.5,653.3926" style="stroke:#181818;stroke-width:1.0;"/><line style="stroke:#181818;stroke-width:1.0;" x1="1138" x2="1613.5" y1="653.3926" y2="653.3926"/><text fill="#000000" font-family="sans-serif" font-size="13" font-weight="bold" lengthAdjust="spacing" textLength="14" x="1145" y="639.4844">13</text><text fill="#000000" font-family="sans-serif" font-size="13" lengthAdjust="spacing" textLength="147" x="1163" y="630.8389">createVehicle(currentKm,</text><text fill="#000000" font-family="sans-serif" font-size="13" lengthAdjust="spacing" textLength="171" x="1167" y="648.1299">acquisitionDate,maintenance)</text><rect fill="#E3E3E3" height="51.2422" rx="2.5" ry="2.5" style="stroke:#181818;stroke-width:0.5;" width="64" x="1619.5" y="612.8105"/><text fill="#000000" font-family="sans-serif" font-size="14" lengthAdjust="spacing" textLength="44" x="1629.5" y="634.918">vehicle</text><text fill="#000000" font-family="sans-serif" font-size="14" lengthAdjust="spacing" textLength="50" x="1626.5" y="653.5391">:Vehicle</text><line style="stroke:#181818;stroke-width:1.0;" x1="1138" x2="1180" y1="698.3438" y2="698.3438"/><line style="stroke:#181818;stroke-width:1.0;" x1="1180" x2="1180" y1="698.3438" y2="711.3438"/><line style="stroke:#181818;stroke-width:1.0;" x1="1139" x2="1180" y1="711.3438" y2="711.3438"/><polygon fill="#181818" points="1149,707.3438,1139,711.3438,1149,715.3438,1145,711.3438" style="stroke:#181818;stroke-width:1.0;"/><text fill="#000000" font-family="sans-serif" font-size="13" font-weight="bold" lengthAdjust="spacing" textLength="14" x="1145" y="693.0811">14</text><text fill="#000000" font-family="sans-serif" font-size="13" lengthAdjust="spacing" textLength="111" x="1163" y="693.0811">addVehicle(vehicle)</text><line style="stroke:#181818;stroke-width:1.0;" x1="1138" x2="1185" y1="737.6348" y2="737.6348"/><line style="stroke:#181818;stroke-width:1.0;" x1="1185" x2="1185" y1="737.6348" y2="750.6348"/><line style="stroke:#181818;stroke-width:1.0;" x1="1144" x2="1185" y1="750.6348" y2="750.6348"/><polygon fill="#181818" points="1154,746.6348,1144,750.6348,1154,754.6348,1150,750.6348" style="stroke:#181818;stroke-width:1.0;"/><text fill="#000000" font-family="sans-serif" font-size="13" font-weight="bold" lengthAdjust="spacing" textLength="14" x="1150" y="732.3721">15</text><text fill="#000000" font-family="sans-serif" font-size="13" lengthAdjust="spacing" textLength="133" x="1168" y="732.3721">validateVehicle(vehicle)</text><polygon fill="#181818" points="678,817.5078,688,821.5078,678,825.5078,682,821.5078" style="stroke:#181818;stroke-width:1.0;"/><line style="stroke:#181818;stroke-width:1.0;" x1="473" x2="684" y1="821.5078" y2="821.5078"/><text fill="#000000" font-family="sans-serif" font-size="13" font-weight="bold" lengthAdjust="spacing" textLength="14" x="480" y="798.9541">16</text><text fill="#000000" font-family="sans-serif" font-size="13" lengthAdjust="spacing" textLength="174" x="498" y="781.6631">createPlateCertification(brand,</text><text fill="#000000" font-family="sans-serif" font-size="13" lengthAdjust="spacing" textLength="171" x="502" y="798.9541">model,type,tare,grossWeight,</text><text fill="#000000" font-family="sans-serif" font-size="13" lengthAdjust="spacing" textLength="106" x="502" y="816.2451">registerDate,plate)</text><polygon fill="#181818" points="1347.5,883.3809,1357.5,887.3809,1347.5,891.3809,1351.5,887.3809" style="stroke:#181818;stroke-width:1.0;"/><line style="stroke:#181818;stroke-width:1.0;" x1="700" x2="1353.5" y1="887.3809" y2="887.3809"/><text fill="#000000" font-family="sans-serif" font-size="13" font-weight="bold" lengthAdjust="spacing" textLength="14" x="707" y="864.8271">17</text><text fill="#000000" font-family="sans-serif" font-size="13" lengthAdjust="spacing" textLength="174" x="725" y="847.5361">createPlateCertification(brand,</text><text fill="#000000" font-family="sans-serif" font-size="13" lengthAdjust="spacing" textLength="171" x="729" y="864.8271">model,type,tare,grossWeight,</text><text fill="#000000" font-family="sans-serif" font-size="13" lengthAdjust="spacing" textLength="106" x="729" y="882.1182">registerDate,plate)</text><polygon fill="#181818" points="1681.5,949.2539,1691.5,953.2539,1681.5,957.2539,1685.5,953.2539" style="stroke:#181818;stroke-width:1.0;"/><line style="stroke:#181818;stroke-width:1.0;" x1="1369.5" x2="1687.5" y1="953.2539" y2="953.2539"/><text fill="#000000" font-family="sans-serif" font-size="13" font-weight="bold" lengthAdjust="spacing" textLength="14" x="1376.5" y="930.7002">18</text><text fill="#000000" font-family="sans-serif" font-size="13" lengthAdjust="spacing" textLength="174" x="1394.5" y="913.4092">createPlateCertification(brand,</text><text fill="#000000" font-family="sans-serif" font-size="13" lengthAdjust="spacing" textLength="171" x="1398.5" y="930.7002">model,type,tare,grossWeight,</text><text fill="#000000" font-family="sans-serif" font-size="13" lengthAdjust="spacing" textLength="106" x="1398.5" y="947.9912">registerDate,plate)</text><rect fill="#E3E3E3" height="51.2422" rx="2.5" ry="2.5" style="stroke:#181818;stroke-width:0.5;" width="125" x="1693.5" y="899.0117"/><text fill="#000000" font-family="sans-serif" font-size="14" lengthAdjust="spacing" textLength="106" x="1703" y="921.1191">plateCertification</text><text fill="#000000" font-family="sans-serif" font-size="14" lengthAdjust="spacing" textLength="111" x="1700.5" y="939.7402">:PlateCertification</text><line style="stroke:#181818;stroke-width:1.0;" x1="1369.5" x2="1411.5" y1="984.5449" y2="984.5449"/><line style="stroke:#181818;stroke-width:1.0;" x1="1411.5" x2="1411.5" y1="984.5449" y2="997.5449"/><line style="stroke:#181818;stroke-width:1.0;" x1="1370.5" x2="1411.5" y1="997.5449" y2="997.5449"/><polygon fill="#181818" points="1380.5,993.5449,1370.5,997.5449,1380.5,1001.5449,1376.5,997.5449" style="stroke:#181818;stroke-width:1.0;"/><text fill="#000000" font-family="sans-serif" font-size="13" font-weight="bold" lengthAdjust="spacing" textLength="14" x="1376.5" y="979.2822">19</text><text fill="#000000" font-family="sans-serif" font-size="13" lengthAdjust="spacing" textLength="223" x="1394.5" y="979.2822">addPlateCertification(plateCertification)</text><line style="stroke:#181818;stroke-width:1.0;" x1="1369.5" x2="1411.5" y1="1028.8359" y2="1028.8359"/><line style="stroke:#181818;stroke-width:1.0;" x1="1411.5" x2="1411.5" y1="1028.8359" y2="1041.8359"/><line style="stroke:#181818;stroke-width:1.0;" x1="1370.5" x2="1411.5" y1="1041.8359" y2="1041.8359"/><polygon fill="#181818" points="1380.5,1037.8359,1370.5,1041.8359,1380.5,1045.8359,1376.5,1041.8359" style="stroke:#181818;stroke-width:1.0;"/><text fill="#000000" font-family="sans-serif" font-size="13" font-weight="bold" lengthAdjust="spacing" textLength="14" x="1376.5" y="1023.5732">20</text><text fill="#000000" font-family="sans-serif" font-size="13" lengthAdjust="spacing" textLength="245" x="1394.5" y="1023.5732">validatePlateCertification(plateCertification)</text><polygon fill="#181818" points="1121,1076.127,1131,1080.127,1121,1084.127,1125,1080.127" style="stroke:#181818;stroke-width:1.0;"/><line style="stroke:#181818;stroke-width:1.0;" x1="700" x2="1127" y1="1080.127" y2="1080.127"/><text fill="#000000" font-family="sans-serif" font-size="13" font-weight="bold" lengthAdjust="spacing" textLength="14" x="707" y="1074.8643">21</text><text fill="#000000" font-family="sans-serif" font-size="13" lengthAdjust="spacing" textLength="148" x="725" y="1074.8643">getRegistedVehiclesList()</text><polygon fill="#181818" points="711,1107.418,701,1111.418,711,1115.418,707,1111.418" style="stroke:#181818;stroke-width:1.0;"/><line style="stroke:#181818;stroke-width:1.0;stroke-dasharray:2.0,2.0;" x1="705" x2="1132" y1="1111.418" y2="1111.418"/><text fill="#000000" font-family="sans-serif" font-size="13" font-weight="bold" lengthAdjust="spacing" textLength="14" x="717" y="1106.1553">22</text><text fill="#000000" font-family="sans-serif" font-size="13" lengthAdjust="spacing" textLength="117" x="735" y="1106.1553">registedVehiclesList</text><polygon fill="#181818" points="484,1138.709,474,1142.709,484,1146.709,480,1142.709" style="stroke:#181818;stroke-width:1.0;"/><line style="stroke:#181818;stroke-width:1.0;stroke-dasharray:2.0,2.0;" x1="478" x2="689" y1="1142.709" y2="1142.709"/><text fill="#000000" font-family="sans-serif" font-size="13" font-weight="bold" lengthAdjust="spacing" textLength="14" x="490" y="1137.4463">23</text><text fill="#000000" font-family="sans-serif" font-size="13" lengthAdjust="spacing" textLength="117" x="508" y="1137.4463">registedVehiclesList</text><polygon fill="#181818" points="1352.5,1170,1362.5,1174,1352.5,1178,1356.5,1174" style="stroke:#181818;stroke-width:1.0;"/><line style="stroke:#181818;stroke-width:1.0;" x1="700" x2="1358.5" y1="1174" y2="1174"/><text fill="#000000" font-family="sans-serif" font-size="13" font-weight="bold" lengthAdjust="spacing" textLength="14" x="707" y="1168.7373">24</text><text fill="#000000" font-family="sans-serif" font-size="13" lengthAdjust="spacing" textLength="203" x="725" y="1168.7373">getRegistedPlateCertificationsList()</text><polygon fill="#181818" points="711,1201.291,701,1205.291,711,1209.291,707,1205.291" style="stroke:#181818;stroke-width:1.0;"/><line style="stroke:#181818;stroke-width:1.0;stroke-dasharray:2.0,2.0;" x1="705" x2="1358.5" y1="1205.291" y2="1205.291"/><text fill="#000000" font-family="sans-serif" font-size="13" font-weight="bold" lengthAdjust="spacing" textLength="14" x="717" y="1200.0283">25</text><text fill="#000000" font-family="sans-serif" font-size="13" lengthAdjust="spacing" textLength="172" x="735" y="1200.0283">registedPlateCertificationsList</text><polygon fill="#181818" points="484,1232.582,474,1236.582,484,1240.582,480,1236.582" style="stroke:#181818;stroke-width:1.0;"/><line style="stroke:#181818;stroke-width:1.0;stroke-dasharray:2.0,2.0;" x1="478" x2="694" y1="1236.582" y2="1236.582"/><text fill="#000000" font-family="sans-serif" font-size="13" font-weight="bold" lengthAdjust="spacing" textLength="14" x="490" y="1231.3193">26</text><text fill="#000000" font-family="sans-serif" font-size="13" lengthAdjust="spacing" textLength="172" x="508" y="1231.3193">registedPlateCertificationsList</text><polygon fill="#181818" points="80,1263.873,70,1267.873,80,1271.873,76,1267.873" style="stroke:#181818;stroke-width:1.0;"/><line style="stroke:#181818;stroke-width:1.0;stroke-dasharray:2.0,2.0;" x1="74" x2="457" y1="1267.873" y2="1267.873"/><text fill="#000000" font-family="sans-serif" font-size="13" font-weight="bold" lengthAdjust="spacing" textLength="14" x="86" y="1262.6104">27</text><text fill="#000000" font-family="sans-serif" font-size="13" lengthAdjust="spacing" textLength="283" x="104" y="1262.6104">shows all registered vehicles and asks to confirm</text><polygon fill="#181818" points="451,1295.1641,461,1299.1641,451,1303.1641,455,1299.1641" style="stroke:#181818;stroke-width:1.0;"/><line style="stroke:#181818;stroke-width:1.0;" x1="69" x2="457" y1="1299.1641" y2="1299.1641"/><text fill="#000000" font-family="sans-serif" font-size="13" font-weight="bold" lengthAdjust="spacing" textLength="14" x="76" y="1293.9014">28</text><text fill="#000000" font-family="sans-serif" font-size="13" lengthAdjust="spacing" textLength="116" x="94" y="1293.9014">confirms all vehicles</text><polygon fill="#181818" points="80,1326.4551,70,1330.4551,80,1334.4551,76,1330.4551" style="stroke:#181818;stroke-width:1.0;"/><line style="stroke:#181818;stroke-width:1.0;stroke-dasharray:2.0,2.0;" x1="74" x2="457" y1="1330.4551" y2="1330.4551"/><text fill="#000000" font-family="sans-serif" font-size="13" font-weight="bold" lengthAdjust="spacing" textLength="14" x="86" y="1325.1924">29</text><text fill="#000000" font-family="sans-serif" font-size="13" lengthAdjust="spacing" textLength="158" x="104" y="1325.1924">displays operation success</text><!--SRC=[lLTTRzem57tdLrprPO1efxtoCAbZPKA3jQAqUq6QtEG25i5ERQU8VxyRuuI4V2pfslgbmhuVvzhdtDpgBHSXKsm7Eocajr5oXs1KX1sTdeJCsx8rtfj3WA3GCqoiWwo1tZ1VxhbOmue56ZiTvXcfuE8HDzmZdt60Q9PYnWI5KHV0D3oEPnroDjpZ8HC6BePpN7DjK3cdXucrUvZKcusaC4e6WGixMiod1OTGQavuE6fhasuSxdbSY94Yxw8o7ajH370tlLwSUrXGlWEbJoc6Ip6lF7HmgexBSzm5pE08wMJ5FMQu5ENfQkrocMijyo1UZY3fLXpSusFUJ4OFqzkyQLY8Ibx5LEcDtlmPtSmNa_5aTBsOtFuY4aNqCj7k2HLyiPJYB-HicGEqw2zSVYM2m912R3KO2UwE530Gk0U7jcFjqm14AN2Bd2b4J9f-dy9u2icWanwdBfPMa5dnHknQmYMAiqOp4Pfauc6tryavfY7BM0XdgopwfGCyX2nDSwu-rcOfBIH-WIFoQZvMrc85SGxUHioYhQHv1NORjI7OMWh_5-vc8gaheMJVyiaU15A6iDzmwf9S61G- -Zbs4ewOwF7zFKUeZKv83Jup3Bhy2g_WcsB27y1C-XWCO748SG1BiM0A1p-Kr1f-8rzlp016aL98ulov6oI5AVXEY6BxQ-yvubGFbURsPinYYddyURH1Rnk5CBP0X7UWt882wTvWAL9GLlJkkZFrakGAcjqhJYTcW_320YeDvCh-oWZtamPcZE9FaI6ADr1n8c57igvth9VA9OpiL9yjRtUghjTEyrLCXZV8VzOa6edcs2igKSKSEdReVl_r2Dibh3wbRkqdsrttq6yPdTZ4_Ko5QOf2ZZ8kPLUHLyKcq7sosgFBsrdrcLXy9bRUEbQU4nuT9vycUx5E9cL9prbMstVWdO2L8YkmidbBB7lP-i9SbpyR2axy_O2NQ0MsaQ6bVWdougZqSOWIkRI0HL-fJYM-HbsoPCoOqgzkhphkQtfYquRYL0x5AIL6LHasDsUr1jNC-n_td7nCM-5kssBgvwpM3_Uwjj62-yNdh83TvctgKRTyfdV7Kpjp5cPBlP5x6hM28EsDw2Sp6EqBF_q7ovDYnTMkqO3dR8-1asZbKrmEZSyrTPu33OGXAbiPwCZpKEkIh7y1]--></g></svg>