<?xml version="1.0" encoding="us-ascii" standalone="no"?><svg xmlns="http://www.w3.org/2000/svg" xmlns:xlink="http://www.w3.org/1999/xlink" contentStyleType="text/css" height="872px" preserveAspectRatio="none" style="width:1511px;height:872px;background:#FFFFFF;" version="1.1" viewBox="0 0 1511 872" width="1511px" zoomAndPan="magnify"><defs/><g><rect fill="#FFFFFF" height="649.4512" style="stroke:#181818;stroke-width:1.0;" width="10" x="59" y="112.2422"/><rect fill="#FFFFFF" height="218.998" style="stroke:#181818;stroke-width:1.0;" width="10" x="458" y="135.5332"/><rect fill="#FFFFFF" height="304.2891" style="stroke:#181818;stroke-width:1.0;" width="10" x="458" y="385.8223"/><rect fill="#FFFFFF" height="31.291" style="stroke:#181818;stroke-width:1.0;" width="10" x="458" y="721.4023"/><rect fill="#FFFFFF" height="30" style="stroke:#181818;stroke-width:1.0;" width="10" x="629" y="166.8242"/><rect fill="#FFFFFF" height="61.291" style="stroke:#181818;stroke-width:1.0;" width="10" x="629" y="417.1133"/><rect fill="#FFFFFF" height="30" style="stroke:#181818;stroke-width:1.0;" width="10" x="1012" y="448.4043"/><rect fill="#FFFFFF" height="62.582" style="stroke:#181818;stroke-width:1.0;" width="10" x="1012" y="596.2383"/><rect fill="#FFFFFF" height="452.7051" style="stroke:#181818;stroke-width:1.0;" width="10" x="1191.5" y="112.2422"/><rect fill="none" height="274.5801" style="stroke:#000000;stroke-width:1.5;" width="1296.5" x="10" y="260.0762"/><line style="stroke:#181818;stroke-width:0.5;stroke-dasharray:5.0,5.0;" x1="64" x2="64" y1="102.2422" y2="770.6934"/><line style="stroke:#181818;stroke-width:0.5;stroke-dasharray:5.0,5.0;" x1="462.5" x2="462.5" y1="102.2422" y2="770.6934"/><line style="stroke:#181818;stroke-width:0.5;stroke-dasharray:5.0,5.0;" x1="633.5" x2="633.5" y1="102.2422" y2="770.6934"/><line style="stroke:#181818;stroke-width:0.5;stroke-dasharray:5.0,5.0;" x1="781.5" x2="781.5" y1="102.2422" y2="770.6934"/><line style="stroke:#181818;stroke-width:0.5;stroke-dasharray:5.0,5.0;" x1="888.5" x2="888.5" y1="102.2422" y2="770.6934"/><line style="stroke:#181818;stroke-width:0.5;stroke-dasharray:5.0,5.0;" x1="1016.5" x2="1016.5" y1="102.2422" y2="770.6934"/><line style="stroke:#181818;stroke-width:0.5;stroke-dasharray:5.0,5.0;" x1="1196.5" x2="1196.5" y1="102.2422" y2="770.6934"/><line style="stroke:#181818;stroke-width:0.5;stroke-dasharray:5.0,5.0;" x1="1338.5" x2="1338.5" y1="102.2422" y2="770.6934"/><line style="stroke:#181818;stroke-width:0.5;stroke-dasharray:5.0,5.0;" x1="1442.5" x2="1442.5" y1="102.2422" y2="770.6934"/><text fill="#000000" font-family="sans-serif" font-size="14" lengthAdjust="spacing" textLength="82" x="20" y="80.1074">Vehicle Fleet</text><text fill="#000000" font-family="sans-serif" font-size="14" lengthAdjust="spacing" textLength="56" x="33" y="98.7285">Manager</text><ellipse cx="64" cy="13.5" fill="#E3E3E3" rx="8" ry="8" style="stroke:#181818;stroke-width:0.5;"/><path d="M64,21.5 L64,48.5 M51,29.5 L77,29.5 M64,48.5 L51,63.5 M64,48.5 L77,63.5 " fill="none" style="stroke:#181818;stroke-width:0.5;"/><text fill="#000000" font-family="sans-serif" font-size="14" lengthAdjust="spacing" textLength="82" x="20" y="784.8008">Vehicle Fleet</text><text fill="#000000" font-family="sans-serif" font-size="14" lengthAdjust="spacing" textLength="56" x="33" y="803.4219">Manager</text><ellipse cx="64" cy="815.4355" fill="#E3E3E3" rx="8" ry="8" style="stroke:#181818;stroke-width:0.5;"/><path d="M64,823.4355 L64,850.4355 M51,831.4355 L77,831.4355 M64,850.4355 L51,865.4355 M64,850.4355 L77,865.4355 " fill="none" style="stroke:#181818;stroke-width:0.5;"/><rect fill="#E3E3E3" height="32.6211" rx="2.5" ry="2.5" style="stroke:#181818;stroke-width:0.5;" width="129" x="398.5" y="68.6211"/><text fill="#000000" font-family="sans-serif" font-size="14" lengthAdjust="spacing" textLength="115" x="405.5" y="90.7285">:RegisterVehicleUI</text><rect fill="#E3E3E3" height="32.6211" rx="2.5" ry="2.5" style="stroke:#181818;stroke-width:0.5;" width="129" x="398.5" y="769.6934"/><text fill="#000000" font-family="sans-serif" font-size="14" lengthAdjust="spacing" textLength="115" x="405.5" y="791.8008">:RegisterVehicleUI</text><rect fill="#E3E3E3" height="32.6211" rx="2.5" ry="2.5" style="stroke:#181818;stroke-width:0.5;" width="179" x="544.5" y="68.6211"/><text fill="#000000" font-family="sans-serif" font-size="14" lengthAdjust="spacing" textLength="165" x="551.5" y="90.7285">:RegisterVehicleController</text><rect fill="#E3E3E3" height="32.6211" rx="2.5" ry="2.5" style="stroke:#181818;stroke-width:0.5;" width="179" x="544.5" y="769.6934"/><text fill="#000000" font-family="sans-serif" font-size="14" lengthAdjust="spacing" textLength="165" x="551.5" y="791.8008">:RegisterVehicleController</text><rect fill="#E3E3E3" height="32.6211" rx="2.5" ry="2.5" style="stroke:#181818;stroke-width:0.5;" width="97" x="733.5" y="68.6211"/><text fill="#000000" font-family="sans-serif" font-size="14" lengthAdjust="spacing" textLength="83" x="740.5" y="90.7285">:Repositories</text><rect fill="#E3E3E3" height="32.6211" rx="2.5" ry="2.5" style="stroke:#181818;stroke-width:0.5;" width="97" x="733.5" y="769.6934"/><text fill="#000000" font-family="sans-serif" font-size="14" lengthAdjust="spacing" textLength="83" x="740.5" y="791.8008">:Repositories</text><rect fill="#E3E3E3" height="51.2422" rx="2.5" ry="2.5" style="stroke:#181818;stroke-width:0.5;" width="97" x="840.5" y="50"/><text fill="#000000" font-family="sans-serif" font-size="14" lengthAdjust="spacing" textLength="74" x="852" y="72.1074">repositories</text><text fill="#000000" font-family="sans-serif" font-size="14" lengthAdjust="spacing" textLength="83" x="847.5" y="90.7285">:Repositories</text><rect fill="#E3E3E3" height="51.2422" rx="2.5" ry="2.5" style="stroke:#181818;stroke-width:0.5;" width="97" x="840.5" y="769.6934"/><text fill="#000000" font-family="sans-serif" font-size="14" lengthAdjust="spacing" textLength="74" x="852" y="791.8008">repositories</text><text fill="#000000" font-family="sans-serif" font-size="14" lengthAdjust="spacing" textLength="83" x="847.5" y="810.4219">:Repositories</text><rect fill="#E3E3E3" height="51.2422" rx="2.5" ry="2.5" style="stroke:#181818;stroke-width:0.5;" width="139" x="947.5" y="50"/><text fill="#000000" font-family="sans-serif" font-size="14" lengthAdjust="spacing" textLength="125" x="954.5" y="72.1074">VehiclesRepository:</text><text fill="#000000" font-family="sans-serif" font-size="14" lengthAdjust="spacing" textLength="121" x="956.5" y="90.7285">VehiclesRepository</text><rect fill="#E3E3E3" height="51.2422" rx="2.5" ry="2.5" style="stroke:#181818;stroke-width:0.5;" width="139" x="947.5" y="769.6934"/><text fill="#000000" font-family="sans-serif" font-size="14" lengthAdjust="spacing" textLength="125" x="954.5" y="791.8008">VehiclesRepository:</text><text fill="#000000" font-family="sans-serif" font-size="14" lengthAdjust="spacing" textLength="121" x="956.5" y="810.4219">VehiclesRepository</text><rect fill="#E3E3E3" height="51.2422" rx="2.5" ry="2.5" style="stroke:#181818;stroke-width:0.5;" width="200" x="1096.5" y="50"/><text fill="#000000" font-family="sans-serif" font-size="14" lengthAdjust="spacing" textLength="186" x="1103.5" y="72.1074">PlateCertificationsRepository:</text><text fill="#000000" font-family="sans-serif" font-size="14" lengthAdjust="spacing" textLength="182" x="1105.5" y="90.7285">PlateCertificationsRepository</text><rect fill="#E3E3E3" height="51.2422" rx="2.5" ry="2.5" style="stroke:#181818;stroke-width:0.5;" width="200" x="1096.5" y="769.6934"/><text fill="#000000" font-family="sans-serif" font-size="14" lengthAdjust="spacing" textLength="186" x="1103.5" y="791.8008">PlateCertificationsRepository:</text><text fill="#000000" font-family="sans-serif" font-size="14" lengthAdjust="spacing" textLength="182" x="1105.5" y="810.4219">PlateCertificationsRepository</text><rect fill="#E3E3E3" height="51.2422" rx="2.5" ry="2.5" style="stroke:#181818;stroke-width:0.5;" width="64" x="1306.5" y="50"/><text fill="#000000" font-family="sans-serif" font-size="14" lengthAdjust="spacing" textLength="44" x="1316.5" y="72.1074">vehicle</text><text fill="#000000" font-family="sans-serif" font-size="14" lengthAdjust="spacing" textLength="50" x="1313.5" y="90.7285">:Vehicle</text><rect fill="#E3E3E3" height="51.2422" rx="2.5" ry="2.5" style="stroke:#181818;stroke-width:0.5;" width="64" x="1306.5" y="769.6934"/><text fill="#000000" font-family="sans-serif" font-size="14" lengthAdjust="spacing" textLength="44" x="1316.5" y="791.8008">vehicle</text><text fill="#000000" font-family="sans-serif" font-size="14" lengthAdjust="spacing" textLength="50" x="1313.5" y="810.4219">:Vehicle</text><rect fill="#E3E3E3" height="51.2422" rx="2.5" ry="2.5" style="stroke:#181818;stroke-width:0.5;" width="125" x="1380.5" y="50"/><text fill="#000000" font-family="sans-serif" font-size="14" lengthAdjust="spacing" textLength="106" x="1390" y="72.1074">plateCertification</text><text fill="#000000" font-family="sans-serif" font-size="14" lengthAdjust="spacing" textLength="111" x="1387.5" y="90.7285">:PlateCertification</text><rect fill="#E3E3E3" height="51.2422" rx="2.5" ry="2.5" style="stroke:#181818;stroke-width:0.5;" width="125" x="1380.5" y="769.6934"/><text fill="#000000" font-family="sans-serif" font-size="14" lengthAdjust="spacing" textLength="106" x="1390" y="791.8008">plateCertification</text><text fill="#000000" font-family="sans-serif" font-size="14" lengthAdjust="spacing" textLength="111" x="1387.5" y="810.4219">:PlateCertification</text><rect fill="#FFFFFF" height="649.4512" style="stroke:#181818;stroke-width:1.0;" width="10" x="59" y="112.2422"/><rect fill="#FFFFFF" height="218.998" style="stroke:#181818;stroke-width:1.0;" width="10" x="458" y="135.5332"/><rect fill="#FFFFFF" height="304.2891" style="stroke:#181818;stroke-width:1.0;" width="10" x="458" y="385.8223"/><rect fill="#FFFFFF" height="31.291" style="stroke:#181818;stroke-width:1.0;" width="10" x="458" y="721.4023"/><rect fill="#FFFFFF" height="30" style="stroke:#181818;stroke-width:1.0;" width="10" x="629" y="166.8242"/><rect fill="#FFFFFF" height="61.291" style="stroke:#181818;stroke-width:1.0;" width="10" x="629" y="417.1133"/><rect fill="#FFFFFF" height="30" style="stroke:#181818;stroke-width:1.0;" width="10" x="1012" y="448.4043"/><rect fill="#FFFFFF" height="62.582" style="stroke:#181818;stroke-width:1.0;" width="10" x="1012" y="596.2383"/><rect fill="#FFFFFF" height="452.7051" style="stroke:#181818;stroke-width:1.0;" width="10" x="1191.5" y="112.2422"/><polygon fill="#181818" points="446,131.5332,456,135.5332,446,139.5332,450,135.5332" style="stroke:#181818;stroke-width:1.0;"/><line style="stroke:#181818;stroke-width:1.0;" x1="69" x2="452" y1="135.5332" y2="135.5332"/><text fill="#000000" font-family="sans-serif" font-size="13" font-weight="bold" lengthAdjust="spacing" textLength="7" x="76" y="130.2705">1</text><text fill="#000000" font-family="sans-serif" font-size="13" lengthAdjust="spacing" textLength="171" x="87" y="130.2705">asks to register a new vehicle</text><polygon fill="#181818" points="617,162.8242,627,166.8242,617,170.8242,621,166.8242" style="stroke:#181818;stroke-width:1.0;"/><line style="stroke:#181818;stroke-width:1.0;" x1="468" x2="623" y1="166.8242" y2="166.8242"/><text fill="#000000" font-family="sans-serif" font-size="13" font-weight="bold" lengthAdjust="spacing" textLength="7" x="475" y="161.5615">2</text><text fill="#000000" font-family="sans-serif" font-size="13" lengthAdjust="spacing" textLength="36" x="486" y="161.5615">create</text><rect fill="none" height="43.252" style="stroke:#000000;stroke-width:1.5;" width="185" x="541.5" y="204.8242"/><path d="M541.5,204.8242 L603.5,204.8242 L603.5,213.8242 L593.5,223.8242 L541.5,223.8242 L541.5,204.8242 " fill="#EEEEEE" style="stroke:#000000;stroke-width:2.0;"/><text fill="#000000" font-family="sans-serif" font-size="13" font-weight="bold" lengthAdjust="spacing" textLength="17" x="554.5" y="220.8525">ref</text><text fill="#000000" font-family="sans-serif" font-size="12" lengthAdjust="spacing" textLength="131" x="568.5" y="240.7734">Get Vehicles Repository</text><path d="M10,260.0762 L83,260.0762 L83,269.3672 L73,279.3672 L10,279.3672 L10,260.0762 " fill="#EEEEEE" style="stroke:#000000;stroke-width:1.5;"/><rect fill="none" height="274.5801" style="stroke:#000000;stroke-width:1.5;" width="1296.5" x="10" y="260.0762"/><text fill="#000000" font-family="sans-serif" font-size="13" font-weight="bold" lengthAdjust="spacing" textLength="28" x="25" y="275.1045">loop</text><text fill="#000000" font-family="sans-serif" font-size="11" font-weight="bold" lengthAdjust="spacing" textLength="90" x="98" y="273.9463">[while intended]</text><polygon fill="#181818" points="80,350.5313,70,354.5313,80,358.5313,76,354.5313" style="stroke:#181818;stroke-width:1.0;"/><line style="stroke:#181818;stroke-width:1.0;stroke-dasharray:2.0,2.0;" x1="74" x2="462" y1="354.5313" y2="354.5313"/><text fill="#000000" font-family="sans-serif" font-size="13" font-weight="bold" lengthAdjust="spacing" textLength="7" x="86" y="323.332">9</text><text fill="#000000" font-family="sans-serif" font-size="13" lengthAdjust="spacing" textLength="269" x="97" y="297.3955">requests vehicle data (i.e. Brand, Model, Type,</text><text fill="#000000" font-family="sans-serif" font-size="13" lengthAdjust="spacing" textLength="274" x="97" y="314.6865">Tare,Gross Weight, Current Km, Register Date,</text><text fill="#000000" font-family="sans-serif" font-size="13" lengthAdjust="spacing" textLength="354" x="97" y="331.9775">Acquisition Date, Maintenance/Checkup Frequency (in Kms),</text><text fill="#000000" font-family="sans-serif" font-size="13" lengthAdjust="spacing" textLength="75" x="101" y="349.2686">vehicle plate)</text><polygon fill="#181818" points="446,381.8223,456,385.8223,446,389.8223,450,385.8223" style="stroke:#181818;stroke-width:1.0;"/><line style="stroke:#181818;stroke-width:1.0;" x1="69" x2="452" y1="385.8223" y2="385.8223"/><text fill="#000000" font-family="sans-serif" font-size="13" font-weight="bold" lengthAdjust="spacing" textLength="14" x="76" y="380.5596">10</text><text fill="#000000" font-family="sans-serif" font-size="13" lengthAdjust="spacing" textLength="262" x="94" y="380.5596">write the values of the new vehicle's attributes</text><polygon fill="#181818" points="617,413.1133,627,417.1133,617,421.1133,621,417.1133" style="stroke:#181818;stroke-width:1.0;"/><line style="stroke:#181818;stroke-width:1.0;" x1="468" x2="623" y1="417.1133" y2="417.1133"/><text fill="#000000" font-family="sans-serif" font-size="13" font-weight="bold" lengthAdjust="spacing" textLength="14" x="475" y="411.8506">11</text><text fill="#000000" font-family="sans-serif" font-size="13" lengthAdjust="spacing" textLength="36" x="493" y="411.8506">create</text><polygon fill="#181818" points="1000,444.4043,1010,448.4043,1000,452.4043,1004,448.4043" style="stroke:#181818;stroke-width:1.0;"/><line style="stroke:#181818;stroke-width:1.0;" x1="639" x2="1006" y1="448.4043" y2="448.4043"/><text fill="#000000" font-family="sans-serif" font-size="13" font-weight="bold" lengthAdjust="spacing" textLength="14" x="646" y="443.1416">12</text><text fill="#000000" font-family="sans-serif" font-size="13" lengthAdjust="spacing" textLength="36" x="664" y="443.1416">create</text><rect fill="none" height="43.252" style="stroke:#000000;stroke-width:1.5;" width="355" x="944.5" y="486.4043"/><path d="M944.5,486.4043 L1006.5,486.4043 L1006.5,495.4043 L996.5,505.4043 L944.5,505.4043 L944.5,486.4043 " fill="#EEEEEE" style="stroke:#000000;stroke-width:2.0;"/><text fill="#000000" font-family="sans-serif" font-size="13" font-weight="bold" lengthAdjust="spacing" textLength="17" x="957.5" y="502.4326">ref</text><text fill="#000000" font-family="sans-serif" font-size="12" lengthAdjust="spacing" textLength="92" x="1076" y="522.3535">Get Vehicles List</text><polygon fill="#181818" points="645,560.9473,635,564.9473,645,568.9473,641,564.9473" style="stroke:#181818;stroke-width:1.0;"/><line style="stroke:#181818;stroke-width:1.0;stroke-dasharray:2.0,2.0;" x1="639" x2="1195.5" y1="564.9473" y2="564.9473"/><text fill="#000000" font-family="sans-serif" font-size="13" font-weight="bold" lengthAdjust="spacing" textLength="14" x="651" y="559.6846">31</text><text fill="#000000" font-family="sans-serif" font-size="13" lengthAdjust="spacing" textLength="124" x="669" y="559.6846">plateCertificationsList</text><polygon fill="#181818" points="479,592.2383,469,596.2383,479,600.2383,475,596.2383" style="stroke:#181818;stroke-width:1.0;"/><line style="stroke:#181818;stroke-width:1.0;stroke-dasharray:2.0,2.0;" x1="473" x2="633" y1="596.2383" y2="596.2383"/><text fill="#000000" font-family="sans-serif" font-size="13" font-weight="bold" lengthAdjust="spacing" textLength="14" x="485" y="590.9756">32</text><text fill="#000000" font-family="sans-serif" font-size="13" lengthAdjust="spacing" textLength="124" x="503" y="590.9756">plateCertificationsList</text><polygon fill="#181818" points="645,623.5293,635,627.5293,645,631.5293,641,627.5293" style="stroke:#181818;stroke-width:1.0;"/><line style="stroke:#181818;stroke-width:1.0;stroke-dasharray:2.0,2.0;" x1="639" x2="1011" y1="627.5293" y2="627.5293"/><text fill="#000000" font-family="sans-serif" font-size="13" font-weight="bold" lengthAdjust="spacing" textLength="14" x="651" y="622.2666">33</text><text fill="#000000" font-family="sans-serif" font-size="13" lengthAdjust="spacing" textLength="67" x="669" y="622.2666">vehiclesList</text><polygon fill="#181818" points="479,654.8203,469,658.8203,479,662.8203,475,658.8203" style="stroke:#181818;stroke-width:1.0;"/><line style="stroke:#181818;stroke-width:1.0;stroke-dasharray:2.0,2.0;" x1="473" x2="633" y1="658.8203" y2="658.8203"/><text fill="#000000" font-family="sans-serif" font-size="13" font-weight="bold" lengthAdjust="spacing" textLength="14" x="485" y="653.5576">34</text><text fill="#000000" font-family="sans-serif" font-size="13" lengthAdjust="spacing" textLength="67" x="503" y="653.5576">vehiclesList</text><polygon fill="#181818" points="80,686.1113,70,690.1113,80,694.1113,76,690.1113" style="stroke:#181818;stroke-width:1.0;"/><line style="stroke:#181818;stroke-width:1.0;stroke-dasharray:2.0,2.0;" x1="74" x2="462" y1="690.1113" y2="690.1113"/><text fill="#000000" font-family="sans-serif" font-size="13" font-weight="bold" lengthAdjust="spacing" textLength="14" x="86" y="684.8486">35</text><text fill="#000000" font-family="sans-serif" font-size="13" lengthAdjust="spacing" textLength="283" x="104" y="684.8486">shows all registered vehicles and asks to confirm</text><polygon fill="#181818" points="446,717.4023,456,721.4023,446,725.4023,450,721.4023" style="stroke:#181818;stroke-width:1.0;"/><line style="stroke:#181818;stroke-width:1.0;" x1="69" x2="452" y1="721.4023" y2="721.4023"/><text fill="#000000" font-family="sans-serif" font-size="13" font-weight="bold" lengthAdjust="spacing" textLength="14" x="76" y="716.1396">36</text><text fill="#000000" font-family="sans-serif" font-size="13" lengthAdjust="spacing" textLength="116" x="94" y="716.1396">confirms all vehicles</text><polygon fill="#181818" points="80,748.6934,70,752.6934,80,756.6934,76,752.6934" style="stroke:#181818;stroke-width:1.0;"/><line style="stroke:#181818;stroke-width:1.0;stroke-dasharray:2.0,2.0;" x1="74" x2="462" y1="752.6934" y2="752.6934"/><text fill="#000000" font-family="sans-serif" font-size="13" font-weight="bold" lengthAdjust="spacing" textLength="14" x="86" y="747.4307">37</text><text fill="#000000" font-family="sans-serif" font-size="13" lengthAdjust="spacing" textLength="158" x="104" y="747.4307">displays operation success</text><!--SRC=[bLJ1Rjf04BtxAqPSsaWcLTHJKHM9kX1PXIOY9hqWLPlrW5VOkyxk6iJVTrWROsEmL0v87izxysRcZSrMo9nfba6cfEA9LXc2rGLwfdwJCxvb6torXnH18xTCRj9cWabOhFP2Rc3DKeEUnxXL6WPlc0XEc6cAQ5TopYJHw04m0s_JkKTWAxZ8cRGm62rm8un5NO6MeSjRXlrfWP9MgpIjQ8DeCUi0ScK4wH5eN4uTEBoAOoDMoJP4Dn0hsILucOsZDg8IOyxKevNi1ilEE-4srqlAB0P8aRNWp0ebsxIzxqjzVHdjOhjI37LPoIebJi9WENjkf-OTLa9rIzKJclmD9eied8R1E0gVVvCf2ffqaRsZXWTd4R4Zi7E2HtymVAHjmuZmMmDMaTFAJGC3YNkef9w1P0sF00GxRfs0N2F5pmdE39x6DQWTqRX7eDyJsdeB3JTuA6CgklPYlA18bSfXdmYoif2MqZ1kTlFDoI0Tnov6HF5HeB7cf1XYPXby5lTu3pyqax4FSnLZwaDqoD67bOoOHlz9AsFW3ufDOdq82gsHnluhy-5aUVX9aexvO_vH219DuwvYS-Q4CSdnIv0WtnOvJ9qGoGzKMnAHkVDNiXRbrdddDPiz3hIvYBqM5BK9mewbr1AejNjgREEJ0MQj5k-5HNDhDRSsuzPs75ld8guiyyhPd5VRVUdt7q771ZEQS6s0vb2krBtq1y4QVkultB3DruTo0j-7mtuGJQDxVCOfRaZfhriD-xJQMtnzRTTYh-whCaH9qoxMUlL_esrVbadKdWoNflMt0UEQ7UYowcy7Lt8jTDRdxYgbv3kHj2pSgXqBGqCxq17agDt4m1ISep4NHVu1]--></g></svg>