<?xml version="1.0" encoding="us-ascii" standalone="no"?><svg xmlns="http://www.w3.org/2000/svg" xmlns:xlink="http://www.w3.org/1999/xlink" contentStyleType="text/css" height="997.8px" preserveAspectRatio="none" style="width:1199px;height:997px;background:#FFFFFF;" version="1.1" viewBox="0 0 1199 997" width="1199.4px" zoomAndPan="magnify"><defs/><g><rect fill="#FFFFFF" height="864.5754" style="stroke:#181818;stroke-width:0.6;" width="6" x="35.4" y="67.3453"/><rect fill="#FFFFFF" height="204.4934" style="stroke:#181818;stroke-width:0.6;" width="6" x="274.8" y="81.3199"/><rect fill="#FFFFFF" height="584.3836" style="stroke:#181818;stroke-width:0.6;" width="6" x="274.8" y="304.5879"/><rect fill="#FFFFFF" height="18.7746" style="stroke:#181818;stroke-width:0.6;" width="6" x="274.8" y="907.7461"/><rect fill="#FFFFFF" height="114.0457" style="stroke:#181818;stroke-width:0.6;" width="6" x="409.2" y="106.0945"/><rect fill="#FFFFFF" height="202.5422" style="stroke:#181818;stroke-width:0.6;" width="6" x="409.2" y="333.7371"/><rect fill="#FFFFFF" height="294.3938" style="stroke:#181818;stroke-width:0.6;" width="6" x="409.2" y="575.8031"/><rect fill="#FFFFFF" height="18.7746" style="stroke:#181818;stroke-width:0.6;" width="6" x="498" y="126.2672"/><rect fill="#FFFFFF" height="18.7746" style="stroke:#181818;stroke-width:0.6;" width="6" x="579.6" y="163.8164"/><rect fill="#FFFFFF" height="18.7746" style="stroke:#181818;stroke-width:0.6;" width="6" x="579.6" y="201.3656"/><rect fill="#FFFFFF" height="154.6184" style="stroke:#181818;stroke-width:0.6;" width="6" x="672" y="362.8863"/><rect fill="#FFFFFF" height="18.7746" style="stroke:#181818;stroke-width:0.6;" width="6" x="672" y="795.0984"/><rect fill="#FFFFFF" height="160.9969" style="stroke:#181818;stroke-width:0.6;" width="6" x="810.9" y="615.327"/><rect fill="#FFFFFF" height="18.7746" style="stroke:#181818;stroke-width:0.6;" width="6" x="810.9" y="832.6477"/><rect fill="#FFFFFF" height="47.5453" style="stroke:#181818;stroke-width:0.6;" width="6" x="983.1" y="398.0355"/><rect fill="#FFFFFF" height="39.3492" style="stroke:#181818;stroke-width:0.6;" width="6" x="1088.1" y="660.8508"/><rect fill="none" height="529.009" style="stroke:#000000;stroke-width:0.8999999999999999;" width="1190.1" x="6" y="229.1402"/><line style="stroke:#181818;stroke-width:0.3;stroke-dasharray:5.0,5.0;" x1="38.4" x2="38.4" y1="61.3453" y2="937.3207"/><line style="stroke:#181818;stroke-width:0.3;stroke-dasharray:5.0,5.0;" x1="277.5" x2="277.5" y1="61.3453" y2="937.3207"/><line style="stroke:#181818;stroke-width:0.3;stroke-dasharray:5.0,5.0;" x1="411.9" x2="411.9" y1="105.2063" y2="937.3207"/><line style="stroke:#181818;stroke-width:0.3;stroke-dasharray:5.0,5.0;" x1="500.7" x2="500.7" y1="61.3453" y2="937.3207"/><line style="stroke:#181818;stroke-width:0.3;stroke-dasharray:5.0,5.0;" x1="582.3" x2="582.3" y1="61.3453" y2="937.3207"/><line style="stroke:#181818;stroke-width:0.3;stroke-dasharray:5.0,5.0;" x1="674.7" x2="674.7" y1="61.3453" y2="937.3207"/><line style="stroke:#181818;stroke-width:0.3;stroke-dasharray:5.0,5.0;" x1="813.9" x2="813.9" y1="61.3453" y2="937.3207"/><line style="stroke:#181818;stroke-width:0.3;stroke-dasharray:5.0,5.0;" x1="986.1" x2="986.1" y1="392.359" y2="937.3207"/><line style="stroke:#181818;stroke-width:0.3;stroke-dasharray:5.0,5.0;" x1="1090.8" x2="1090.8" y1="645.8889" y2="937.3207"/><text fill="#000000" font-family="sans-serif" font-size="8.4" lengthAdjust="spacing" textLength="49.2" x="12" y="48.0645">Vehicle Fleet</text><text fill="#000000" font-family="sans-serif" font-size="8.4" lengthAdjust="spacing" textLength="33.6" x="19.8" y="59.2371">Manager</text><ellipse cx="38.4" cy="8.1" fill="#E3E3E3" rx="4.8" ry="4.8" style="stroke:#181818;stroke-width:0.3;"/><path d="M38.4,12.9 L38.4,29.1 M30.6,17.7 L46.2,17.7 M38.4,29.1 L30.6,38.1 M38.4,29.1 L46.2,38.1 " fill="none" style="stroke:#181818;stroke-width:0.3;"/><text fill="#000000" font-family="sans-serif" font-size="8.4" lengthAdjust="spacing" textLength="49.2" x="12" y="945.7852">Vehicle Fleet</text><text fill="#000000" font-family="sans-serif" font-size="8.4" lengthAdjust="spacing" textLength="33.6" x="19.8" y="956.9578">Manager</text><ellipse cx="38.4" cy="964.166" fill="#E3E3E3" rx="4.8" ry="4.8" style="stroke:#181818;stroke-width:0.3;"/><path d="M38.4,968.966 L38.4,985.166 M30.6,973.766 L46.2,973.766 M38.4,985.166 L30.6,994.166 M38.4,985.166 L46.2,994.166 " fill="none" style="stroke:#181818;stroke-width:0.3;"/><rect fill="#E3E3E3" height="19.5727" rx="1.5" ry="1.5" style="stroke:#181818;stroke-width:0.3;" width="77.4" x="239.1" y="41.1727"/><text fill="#000000" font-family="sans-serif" font-size="8.4" lengthAdjust="spacing" textLength="69" x="243.3" y="54.4371">:RegisterVehicleUI</text><rect fill="#E3E3E3" height="19.5727" rx="1.5" ry="1.5" style="stroke:#181818;stroke-width:0.3;" width="77.4" x="239.1" y="936.7207"/><text fill="#000000" font-family="sans-serif" font-size="8.4" lengthAdjust="spacing" textLength="69" x="243.3" y="949.9852">:RegisterVehicleUI</text><rect fill="#E3E3E3" height="19.5727" rx="1.5" ry="1.5" style="stroke:#181818;stroke-width:0.3;" width="107.4" x="358.5" y="936.7207"/><text fill="#000000" font-family="sans-serif" font-size="8.4" lengthAdjust="spacing" textLength="99" x="362.7" y="949.9852">:RegisterVehicleController</text><rect fill="#E3E3E3" height="19.5727" rx="1.5" ry="1.5" style="stroke:#181818;stroke-width:0.3;" width="58.2" x="471.9" y="41.1727"/><text fill="#000000" font-family="sans-serif" font-size="8.4" lengthAdjust="spacing" textLength="49.8" x="476.1" y="54.4371">:Repositories</text><rect fill="#E3E3E3" height="19.5727" rx="1.5" ry="1.5" style="stroke:#181818;stroke-width:0.3;" width="58.2" x="471.9" y="936.7207"/><text fill="#000000" font-family="sans-serif" font-size="8.4" lengthAdjust="spacing" textLength="49.8" x="476.1" y="949.9852">:Repositories</text><rect fill="#E3E3E3" height="30.7453" rx="1.5" ry="1.5" style="stroke:#181818;stroke-width:0.3;" width="58.2" x="553.5" y="30"/><text fill="#000000" font-family="sans-serif" font-size="8.4" lengthAdjust="spacing" textLength="44.4" x="560.4" y="43.2645">repositories</text><text fill="#000000" font-family="sans-serif" font-size="8.4" lengthAdjust="spacing" textLength="49.8" x="557.7" y="54.4371">:Repositories</text><rect fill="#E3E3E3" height="30.7453" rx="1.5" ry="1.5" style="stroke:#181818;stroke-width:0.3;" width="58.2" x="553.5" y="936.7207"/><text fill="#000000" font-family="sans-serif" font-size="8.4" lengthAdjust="spacing" textLength="44.4" x="560.4" y="949.9852">repositories</text><text fill="#000000" font-family="sans-serif" font-size="8.4" lengthAdjust="spacing" textLength="49.8" x="557.7" y="961.1578">:Repositories</text><rect fill="#E3E3E3" height="30.7453" rx="1.5" ry="1.5" style="stroke:#181818;stroke-width:0.3;" width="114.6" x="617.7" y="30"/><text fill="#000000" font-family="sans-serif" font-size="8.4" lengthAdjust="spacing" textLength="105.6" x="622.2" y="43.2645">registedVehiclesRepository:</text><text fill="#000000" font-family="sans-serif" font-size="8.4" lengthAdjust="spacing" textLength="106.2" x="621.9" y="54.4371">RegistedVehiclesRepository</text><rect fill="#E3E3E3" height="30.7453" rx="1.5" ry="1.5" style="stroke:#181818;stroke-width:0.3;" width="114.6" x="617.7" y="936.7207"/><text fill="#000000" font-family="sans-serif" font-size="8.4" lengthAdjust="spacing" textLength="105.6" x="622.2" y="949.9852">registedVehiclesRepository:</text><text fill="#000000" font-family="sans-serif" font-size="8.4" lengthAdjust="spacing" textLength="106.2" x="621.9" y="961.1578">RegistedVehiclesRepository</text><rect fill="#E3E3E3" height="30.7453" rx="1.5" ry="1.5" style="stroke:#181818;stroke-width:0.3;" width="151.2" x="738.3" y="30"/><text fill="#000000" font-family="sans-serif" font-size="8.4" lengthAdjust="spacing" textLength="142.2" x="742.8" y="43.2645">registedPlateCertificationsRepository:</text><text fill="#000000" font-family="sans-serif" font-size="8.4" lengthAdjust="spacing" textLength="142.8" x="742.5" y="54.4371">RegistedPlateCertificationsRepository</text><rect fill="#E3E3E3" height="30.7453" rx="1.5" ry="1.5" style="stroke:#181818;stroke-width:0.3;" width="151.2" x="738.3" y="936.7207"/><text fill="#000000" font-family="sans-serif" font-size="8.4" lengthAdjust="spacing" textLength="142.2" x="742.8" y="949.9852">registedPlateCertificationsRepository:</text><text fill="#000000" font-family="sans-serif" font-size="8.4" lengthAdjust="spacing" textLength="142.8" x="742.5" y="961.1578">RegistedPlateCertificationsRepository</text><rect fill="#E3E3E3" height="30.7453" rx="1.5" ry="1.5" style="stroke:#181818;stroke-width:0.3;" width="38.4" x="966.9" y="936.7207"/><text fill="#000000" font-family="sans-serif" font-size="8.4" lengthAdjust="spacing" textLength="26.4" x="972.9" y="949.9852">vehicle</text><text fill="#000000" font-family="sans-serif" font-size="8.4" lengthAdjust="spacing" textLength="30" x="971.1" y="961.1578">:Vehicle</text><rect fill="#E3E3E3" height="30.7453" rx="1.5" ry="1.5" style="stroke:#181818;stroke-width:0.3;" width="75" x="1053.6" y="936.7207"/><text fill="#000000" font-family="sans-serif" font-size="8.4" lengthAdjust="spacing" textLength="63.6" x="1059.3" y="949.9852">plateCertification</text><text fill="#000000" font-family="sans-serif" font-size="8.4" lengthAdjust="spacing" textLength="66.6" x="1057.8" y="961.1578">:PlateCertification</text><rect fill="#FFFFFF" height="864.5754" style="stroke:#181818;stroke-width:0.6;" width="6" x="35.4" y="67.3453"/><rect fill="#FFFFFF" height="204.4934" style="stroke:#181818;stroke-width:0.6;" width="6" x="274.8" y="81.3199"/><rect fill="#FFFFFF" height="584.3836" style="stroke:#181818;stroke-width:0.6;" width="6" x="274.8" y="304.5879"/><rect fill="#FFFFFF" height="18.7746" style="stroke:#181818;stroke-width:0.6;" width="6" x="274.8" y="907.7461"/><rect fill="#FFFFFF" height="114.0457" style="stroke:#181818;stroke-width:0.6;" width="6" x="409.2" y="106.0945"/><rect fill="#FFFFFF" height="202.5422" style="stroke:#181818;stroke-width:0.6;" width="6" x="409.2" y="333.7371"/><rect fill="#FFFFFF" height="294.3938" style="stroke:#181818;stroke-width:0.6;" width="6" x="409.2" y="575.8031"/><rect fill="#FFFFFF" height="18.7746" style="stroke:#181818;stroke-width:0.6;" width="6" x="498" y="126.2672"/><rect fill="#FFFFFF" height="18.7746" style="stroke:#181818;stroke-width:0.6;" width="6" x="579.6" y="163.8164"/><rect fill="#FFFFFF" height="18.7746" style="stroke:#181818;stroke-width:0.6;" width="6" x="579.6" y="201.3656"/><rect fill="#FFFFFF" height="154.6184" style="stroke:#181818;stroke-width:0.6;" width="6" x="672" y="362.8863"/><rect fill="#FFFFFF" height="18.7746" style="stroke:#181818;stroke-width:0.6;" width="6" x="672" y="795.0984"/><rect fill="#FFFFFF" height="160.9969" style="stroke:#181818;stroke-width:0.6;" width="6" x="810.9" y="615.327"/><rect fill="#FFFFFF" height="18.7746" style="stroke:#181818;stroke-width:0.6;" width="6" x="810.9" y="832.6477"/><rect fill="#FFFFFF" height="47.5453" style="stroke:#181818;stroke-width:0.6;" width="6" x="983.1" y="398.0355"/><rect fill="#FFFFFF" height="39.3492" style="stroke:#181818;stroke-width:0.6;" width="6" x="1088.1" y="660.8508"/><polygon fill="#181818" points="267.6,78.9199,273.6,81.3199,267.6,83.7199,270,81.3199" style="stroke:#181818;stroke-width:0.6;"/><line style="stroke:#181818;stroke-width:0.6;" x1="41.4" x2="271.2" y1="81.3199" y2="81.3199"/><text fill="#000000" font-family="sans-serif" font-size="7.8" font-weight="bold" lengthAdjust="spacing" textLength="4.2" x="45.6" y="78.1623">1</text><text fill="#000000" font-family="sans-serif" font-size="7.8" lengthAdjust="spacing" textLength="102.6" x="52.2" y="78.1623">asks to register a new vehicle</text><polygon fill="#181818" points="351.3,97.6945,357.3,100.0945,351.3,102.4945,353.7,100.0945" style="stroke:#181818;stroke-width:0.6;"/><line style="stroke:#181818;stroke-width:0.6;" x1="280.8" x2="354.9" y1="100.0945" y2="100.0945"/><text fill="#000000" font-family="sans-serif" font-size="7.8" font-weight="bold" lengthAdjust="spacing" textLength="4.2" x="285" y="96.9369">2</text><text fill="#000000" font-family="sans-serif" font-size="7.8" lengthAdjust="spacing" textLength="21.6" x="291.6" y="96.9369">create</text><rect fill="#E3E3E3" height="19.5727" rx="1.5" ry="1.5" style="stroke:#181818;stroke-width:0.3;" width="107.4" x="358.5" y="86.1199"/><text fill="#000000" font-family="sans-serif" font-size="8.4" lengthAdjust="spacing" textLength="99" x="362.7" y="99.3844">:RegisterVehicleController</text><polygon fill="#181818" points="490.8,123.8672,496.8,126.2672,490.8,128.6672,493.2,126.2672" style="stroke:#181818;stroke-width:0.6;"/><line style="stroke:#181818;stroke-width:0.6;" x1="415.2" x2="494.4" y1="126.2672" y2="126.2672"/><text fill="#000000" font-family="sans-serif" font-size="7.8" font-weight="bold" lengthAdjust="spacing" textLength="4.2" x="419.4" y="123.1096">3</text><text fill="#000000" font-family="sans-serif" font-size="7.8" lengthAdjust="spacing" textLength="45" x="426" y="123.1096">getInstance()</text><polygon fill="#181818" points="421.8,142.6418,415.8,145.0418,421.8,147.4418,419.4,145.0418" style="stroke:#181818;stroke-width:0.6;"/><line style="stroke:#181818;stroke-width:0.6;stroke-dasharray:2.0,2.0;" x1="418.2" x2="500.4" y1="145.0418" y2="145.0418"/><text fill="#000000" font-family="sans-serif" font-size="7.8" font-weight="bold" lengthAdjust="spacing" textLength="4.2" x="425.4" y="141.8842">4</text><text fill="#000000" font-family="sans-serif" font-size="7.8" lengthAdjust="spacing" textLength="40.2" x="432" y="141.8842">repositories</text><polygon fill="#181818" points="572.4,161.4164,578.4,163.8164,572.4,166.2164,574.8,163.8164" style="stroke:#181818;stroke-width:0.6;"/><line style="stroke:#181818;stroke-width:0.6;" x1="415.2" x2="576" y1="163.8164" y2="163.8164"/><text fill="#000000" font-family="sans-serif" font-size="7.8" font-weight="bold" lengthAdjust="spacing" textLength="4.2" x="419.4" y="160.6588">5</text><text fill="#000000" font-family="sans-serif" font-size="7.8" lengthAdjust="spacing" textLength="113.4" x="426" y="160.6588">getRegistedVehiclesRepository()</text><polygon fill="#181818" points="421.8,180.191,415.8,182.591,421.8,184.991,419.4,182.591" style="stroke:#181818;stroke-width:0.6;"/><line style="stroke:#181818;stroke-width:0.6;stroke-dasharray:2.0,2.0;" x1="418.2" x2="582" y1="182.591" y2="182.591"/><text fill="#000000" font-family="sans-serif" font-size="7.8" font-weight="bold" lengthAdjust="spacing" textLength="4.2" x="425.4" y="179.4334">6</text><text fill="#000000" font-family="sans-serif" font-size="7.8" lengthAdjust="spacing" textLength="94.8" x="432" y="179.4334">registedVehiclesRepository</text><polygon fill="#181818" points="572.4,198.9656,578.4,201.3656,572.4,203.7656,574.8,201.3656" style="stroke:#181818;stroke-width:0.6;"/><line style="stroke:#181818;stroke-width:0.6;" x1="415.2" x2="576" y1="201.3656" y2="201.3656"/><text fill="#000000" font-family="sans-serif" font-size="7.8" font-weight="bold" lengthAdjust="spacing" textLength="4.2" x="419.4" y="198.208">7</text><text fill="#000000" font-family="sans-serif" font-size="7.8" lengthAdjust="spacing" textLength="146.4" x="426" y="198.208">getRegistedPlateCertificationsRepository()</text><polygon fill="#181818" points="418.8,217.7402,412.8,220.1402,418.8,222.5402,416.4,220.1402" style="stroke:#181818;stroke-width:0.6;"/><line style="stroke:#181818;stroke-width:0.6;stroke-dasharray:2.0,2.0;" x1="415.2" x2="582" y1="220.1402" y2="220.1402"/><text fill="#000000" font-family="sans-serif" font-size="7.8" font-weight="bold" lengthAdjust="spacing" textLength="4.2" x="422.4" y="216.9826">8</text><text fill="#000000" font-family="sans-serif" font-size="7.8" lengthAdjust="spacing" textLength="130.8" x="429" y="216.9826">RegistedPlateCertificationsRepository</text><path d="M6,229.1402 L49.8,229.1402 L49.8,234.7148 L43.8,240.7148 L6,240.7148 L6,229.1402 " fill="#EEEEEE" style="stroke:#000000;stroke-width:0.8999999999999999;"/><rect fill="none" height="529.009" style="stroke:#000000;stroke-width:0.8999999999999999;" width="1190.1" x="6" y="229.1402"/><text fill="#000000" font-family="sans-serif" font-size="7.8" font-weight="bold" lengthAdjust="spacing" textLength="16.8" x="15" y="238.1572">loop</text><text fill="#000000" font-family="sans-serif" font-size="6.6" font-weight="bold" lengthAdjust="spacing" textLength="54" x="58.8" y="237.4623">[while intended]</text><polygon fill="#181818" points="48,283.4133,42,285.8133,48,288.2133,45.6,285.8133" style="stroke:#181818;stroke-width:0.6;"/><line style="stroke:#181818;stroke-width:0.6;stroke-dasharray:2.0,2.0;" x1="44.4" x2="277.2" y1="285.8133" y2="285.8133"/><text fill="#000000" font-family="sans-serif" font-size="7.8" font-weight="bold" lengthAdjust="spacing" textLength="4.2" x="51.6" y="267.0938">9</text><text fill="#000000" font-family="sans-serif" font-size="7.8" lengthAdjust="spacing" textLength="161.4" x="58.2" y="251.5318">requests vehicle data (i.e. Brand, Model, Type,</text><text fill="#000000" font-family="sans-serif" font-size="7.8" lengthAdjust="spacing" textLength="164.4" x="58.2" y="261.9064">Tare,Gross Weight, Current Km, Register Date,</text><text fill="#000000" font-family="sans-serif" font-size="7.8" lengthAdjust="spacing" textLength="212.4" x="58.2" y="272.2811">Acquisition Date, Maintenance/Checkup Frequency (in Kms),</text><text fill="#000000" font-family="sans-serif" font-size="7.8" lengthAdjust="spacing" textLength="45" x="60.6" y="282.6557">vehicle plate)</text><polygon fill="#181818" points="267.6,302.1879,273.6,304.5879,267.6,306.9879,270,304.5879" style="stroke:#181818;stroke-width:0.6;"/><line style="stroke:#181818;stroke-width:0.6;" x1="41.4" x2="271.2" y1="304.5879" y2="304.5879"/><text fill="#000000" font-family="sans-serif" font-size="7.8" font-weight="bold" lengthAdjust="spacing" textLength="8.4" x="45.6" y="301.4303">10</text><text fill="#000000" font-family="sans-serif" font-size="7.8" lengthAdjust="spacing" textLength="157.2" x="56.4" y="301.4303">write the values of the new vehicle's attributes</text><polygon fill="#181818" points="402,331.3371,408,333.7371,402,336.1371,404.4,333.7371" style="stroke:#181818;stroke-width:0.6;"/><line style="stroke:#181818;stroke-width:0.6;" x1="280.8" x2="405.6" y1="333.7371" y2="333.7371"/><text fill="#000000" font-family="sans-serif" font-size="7.8" font-weight="bold" lengthAdjust="spacing" textLength="8.4" x="285" y="325.3922">11</text><text fill="#000000" font-family="sans-serif" font-size="7.8" lengthAdjust="spacing" textLength="88.2" x="295.8" y="320.2049">createVehicle(currentKm,</text><text fill="#000000" font-family="sans-serif" font-size="7.8" lengthAdjust="spacing" textLength="102.6" x="298.2" y="330.5795">acquisitionDate,maintenance)</text><polygon fill="#181818" points="664.8,360.4863,670.8,362.8863,664.8,365.2863,667.2,362.8863" style="stroke:#181818;stroke-width:0.6;"/><line style="stroke:#181818;stroke-width:0.6;" x1="415.2" x2="668.4" y1="362.8863" y2="362.8863"/><text fill="#000000" font-family="sans-serif" font-size="7.8" font-weight="bold" lengthAdjust="spacing" textLength="8.4" x="419.4" y="354.5414">12</text><text fill="#000000" font-family="sans-serif" font-size="7.8" lengthAdjust="spacing" textLength="88.2" x="430.2" y="349.3541">createVehicle(currentKm,</text><text fill="#000000" font-family="sans-serif" font-size="7.8" lengthAdjust="spacing" textLength="102.6" x="432.6" y="359.7287">acquisitionDate,maintenance)</text><polygon fill="#181818" points="959.7,389.6355,965.7,392.0355,959.7,394.4355,962.1,392.0355" style="stroke:#181818;stroke-width:0.6;"/><line style="stroke:#181818;stroke-width:0.6;" x1="678" x2="963.3" y1="392.0355" y2="392.0355"/><text fill="#000000" font-family="sans-serif" font-size="7.8" font-weight="bold" lengthAdjust="spacing" textLength="8.4" x="682.2" y="383.6906">13</text><text fill="#000000" font-family="sans-serif" font-size="7.8" lengthAdjust="spacing" textLength="88.2" x="693" y="378.5033">createVehicle(currentKm,</text><text fill="#000000" font-family="sans-serif" font-size="7.8" lengthAdjust="spacing" textLength="102.6" x="695.4" y="388.8779">acquisitionDate,maintenance)</text><rect fill="#E3E3E3" height="30.7453" rx="1.5" ry="1.5" style="stroke:#181818;stroke-width:0.3;" width="38.4" x="966.9" y="367.6863"/><text fill="#000000" font-family="sans-serif" font-size="8.4" lengthAdjust="spacing" textLength="26.4" x="972.9" y="380.9508">vehicle</text><text fill="#000000" font-family="sans-serif" font-size="8.4" lengthAdjust="spacing" textLength="30" x="971.1" y="392.1234">:Vehicle</text><line style="stroke:#181818;stroke-width:0.6;" x1="989.1" x2="1014.3" y1="419.0062" y2="419.0062"/><line style="stroke:#181818;stroke-width:0.6;" x1="1014.3" x2="1014.3" y1="419.0062" y2="426.8063"/><line style="stroke:#181818;stroke-width:0.6;" x1="989.7" x2="1014.3" y1="426.8063" y2="426.8063"/><polygon fill="#181818" points="995.7,424.4063,989.7,426.8063,995.7,429.2063,993.3,426.8063" style="stroke:#181818;stroke-width:0.6;"/><text fill="#000000" font-family="sans-serif" font-size="7.8" font-weight="bold" lengthAdjust="spacing" textLength="8.4" x="993.3" y="415.8486">14</text><text fill="#000000" font-family="sans-serif" font-size="7.8" lengthAdjust="spacing" textLength="79.8" x="1004.1" y="415.8486">validateVehicle(vehicle)</text><polygon fill="#181818" points="684.6,443.1809,678.6,445.5809,684.6,447.9809,682.2,445.5809" style="stroke:#181818;stroke-width:0.6;"/><line style="stroke:#181818;stroke-width:0.6;stroke-dasharray:2.0,2.0;" x1="681" x2="985.5" y1="445.5809" y2="445.5809"/><text fill="#000000" font-family="sans-serif" font-size="7.8" font-weight="bold" lengthAdjust="spacing" textLength="8.4" x="688.2" y="442.4232">15</text><text fill="#000000" font-family="sans-serif" font-size="7.8" lengthAdjust="spacing" textLength="23.4" x="699" y="442.4232">vehicle</text><line style="stroke:#181818;stroke-width:0.6;" x1="678" x2="703.2" y1="464.3555" y2="464.3555"/><line style="stroke:#181818;stroke-width:0.6;" x1="703.2" x2="703.2" y1="464.3555" y2="472.1555"/><line style="stroke:#181818;stroke-width:0.6;" x1="678.6" x2="703.2" y1="472.1555" y2="472.1555"/><polygon fill="#181818" points="684.6,469.7555,678.6,472.1555,684.6,474.5555,682.2,472.1555" style="stroke:#181818;stroke-width:0.6;"/><text fill="#000000" font-family="sans-serif" font-size="7.8" font-weight="bold" lengthAdjust="spacing" textLength="8.4" x="682.2" y="461.1979">16</text><text fill="#000000" font-family="sans-serif" font-size="7.8" lengthAdjust="spacing" textLength="79.8" x="693" y="461.1979">validateVehicle(vehicle)</text><line style="stroke:#181818;stroke-width:0.6;" x1="678" x2="703.2" y1="490.9301" y2="490.9301"/><line style="stroke:#181818;stroke-width:0.6;" x1="703.2" x2="703.2" y1="490.9301" y2="498.7301"/><line style="stroke:#181818;stroke-width:0.6;" x1="678.6" x2="703.2" y1="498.7301" y2="498.7301"/><polygon fill="#181818" points="684.6,496.3301,678.6,498.7301,684.6,501.1301,682.2,498.7301" style="stroke:#181818;stroke-width:0.6;"/><text fill="#000000" font-family="sans-serif" font-size="7.8" font-weight="bold" lengthAdjust="spacing" textLength="8.4" x="682.2" y="487.7725">17</text><text fill="#000000" font-family="sans-serif" font-size="7.8" lengthAdjust="spacing" textLength="66.6" x="693" y="487.7725">addVehicle(vehicle)</text><polygon fill="#181818" points="421.8,515.1047,415.8,517.5047,421.8,519.9047,419.4,517.5047" style="stroke:#181818;stroke-width:0.6;"/><line style="stroke:#181818;stroke-width:0.6;stroke-dasharray:2.0,2.0;" x1="418.2" x2="674.4" y1="517.5047" y2="517.5047"/><text fill="#000000" font-family="sans-serif" font-size="7.8" font-weight="bold" lengthAdjust="spacing" textLength="8.4" x="425.4" y="514.3471">18</text><text fill="#000000" font-family="sans-serif" font-size="7.8" lengthAdjust="spacing" textLength="2.4" x="436.2" y="514.3471">&#160;</text><polygon fill="#181818" points="287.4,533.8793,281.4,536.2793,287.4,538.6793,285,536.2793" style="stroke:#181818;stroke-width:0.6;"/><line style="stroke:#181818;stroke-width:0.6;stroke-dasharray:2.0,2.0;" x1="283.8" x2="411.6" y1="536.2793" y2="536.2793"/><text fill="#000000" font-family="sans-serif" font-size="7.8" font-weight="bold" lengthAdjust="spacing" textLength="8.4" x="291" y="533.1217">19</text><text fill="#000000" font-family="sans-serif" font-size="7.8" lengthAdjust="spacing" textLength="2.4" x="301.8" y="533.1217">&#160;</text><polygon fill="#181818" points="402,573.4031,408,575.8031,402,578.2031,404.4,575.8031" style="stroke:#181818;stroke-width:0.6;"/><line style="stroke:#181818;stroke-width:0.6;" x1="280.8" x2="405.6" y1="575.8031" y2="575.8031"/><text fill="#000000" font-family="sans-serif" font-size="7.8" font-weight="bold" lengthAdjust="spacing" textLength="8.4" x="285" y="562.2709">20</text><text fill="#000000" font-family="sans-serif" font-size="7.8" lengthAdjust="spacing" textLength="104.4" x="295.8" y="551.8963">createPlateCertification(brand,</text><text fill="#000000" font-family="sans-serif" font-size="7.8" lengthAdjust="spacing" textLength="102.6" x="298.2" y="562.2709">model,type,tare,grossWeight,</text><text fill="#000000" font-family="sans-serif" font-size="7.8" lengthAdjust="spacing" textLength="63.6" x="298.2" y="572.6455">registerDate,plate)</text><polygon fill="#181818" points="803.7,612.927,809.7,615.327,803.7,617.727,806.1,615.327" style="stroke:#181818;stroke-width:0.6;"/><line style="stroke:#181818;stroke-width:0.6;" x1="415.2" x2="807.3" y1="615.327" y2="615.327"/><text fill="#000000" font-family="sans-serif" font-size="7.8" font-weight="bold" lengthAdjust="spacing" textLength="8.4" x="419.4" y="601.7947">21</text><text fill="#000000" font-family="sans-serif" font-size="7.8" lengthAdjust="spacing" textLength="104.4" x="430.2" y="591.4201">createPlateCertification(brand,</text><text fill="#000000" font-family="sans-serif" font-size="7.8" lengthAdjust="spacing" textLength="102.6" x="432.6" y="601.7947">model,type,tare,grossWeight,</text><text fill="#000000" font-family="sans-serif" font-size="7.8" lengthAdjust="spacing" textLength="63.6" x="432.6" y="612.1693">registerDate,plate)</text><polygon fill="#181818" points="1046.4,652.4508,1052.4,654.8508,1046.4,657.2508,1048.8,654.8508" style="stroke:#181818;stroke-width:0.6;"/><line style="stroke:#181818;stroke-width:0.6;" x1="816.9" x2="1050" y1="654.8508" y2="654.8508"/><text fill="#000000" font-family="sans-serif" font-size="7.8" font-weight="bold" lengthAdjust="spacing" textLength="8.4" x="821.1" y="641.3186">22</text><text fill="#000000" font-family="sans-serif" font-size="7.8" lengthAdjust="spacing" textLength="104.4" x="831.9" y="630.9439">createPlateCertification(brand,</text><text fill="#000000" font-family="sans-serif" font-size="7.8" lengthAdjust="spacing" textLength="102.6" x="834.3" y="641.3186">model,type,tare,grossWeight,</text><text fill="#000000" font-family="sans-serif" font-size="7.8" lengthAdjust="spacing" textLength="63.6" x="834.3" y="651.6932">registerDate,plate)</text><rect fill="#E3E3E3" height="30.7453" rx="1.5" ry="1.5" style="stroke:#181818;stroke-width:0.3;" width="75" x="1053.6" y="622.3055"/><text fill="#000000" font-family="sans-serif" font-size="8.4" lengthAdjust="spacing" textLength="63.6" x="1059.3" y="635.5699">plateCertification</text><text fill="#000000" font-family="sans-serif" font-size="8.4" lengthAdjust="spacing" textLength="66.6" x="1057.8" y="646.7426">:PlateCertification</text><line style="stroke:#181818;stroke-width:0.6;" x1="1094.1" x2="1119.3" y1="673.6254" y2="673.6254"/><line style="stroke:#181818;stroke-width:0.6;" x1="1119.3" x2="1119.3" y1="673.6254" y2="681.4254"/><line style="stroke:#181818;stroke-width:0.6;" x1="1094.7" x2="1119.3" y1="681.4254" y2="681.4254"/><polygon fill="#181818" points="1100.7,679.0254,1094.7,681.4254,1100.7,683.8254,1098.3,681.4254" style="stroke:#181818;stroke-width:0.6;"/><text fill="#000000" font-family="sans-serif" font-size="7.8" font-weight="bold" lengthAdjust="spacing" textLength="8.4" x="1098.3" y="670.4678">23</text><text fill="#000000" font-family="sans-serif" font-size="7.8" lengthAdjust="spacing" textLength="79.8" x="1109.1" y="670.4678">validateVehicle(vehicle)</text><polygon fill="#181818" points="823.5,697.8,817.5,700.2,823.5,702.6,821.1,700.2" style="stroke:#181818;stroke-width:0.6;"/><line style="stroke:#181818;stroke-width:0.6;stroke-dasharray:2.0,2.0;" x1="819.9" x2="1090.5" y1="700.2" y2="700.2"/><text fill="#000000" font-family="sans-serif" font-size="7.8" font-weight="bold" lengthAdjust="spacing" textLength="8.4" x="827.1" y="697.0424">24</text><text fill="#000000" font-family="sans-serif" font-size="7.8" lengthAdjust="spacing" textLength="23.4" x="837.9" y="697.0424">vehicle</text><line style="stroke:#181818;stroke-width:0.6;" x1="816.9" x2="842.1" y1="718.9746" y2="718.9746"/><line style="stroke:#181818;stroke-width:0.6;" x1="842.1" x2="842.1" y1="718.9746" y2="726.7746"/><line style="stroke:#181818;stroke-width:0.6;" x1="817.5" x2="842.1" y1="726.7746" y2="726.7746"/><polygon fill="#181818" points="823.5,724.3746,817.5,726.7746,823.5,729.1746,821.1,726.7746" style="stroke:#181818;stroke-width:0.6;"/><text fill="#000000" font-family="sans-serif" font-size="7.8" font-weight="bold" lengthAdjust="spacing" textLength="8.4" x="821.1" y="715.817">25</text><text fill="#000000" font-family="sans-serif" font-size="7.8" lengthAdjust="spacing" textLength="147" x="831.9" y="715.817">validatePlateCertification(plateCertification)</text><line style="stroke:#181818;stroke-width:0.6;" x1="816.9" x2="842.1" y1="745.5492" y2="745.5492"/><line style="stroke:#181818;stroke-width:0.6;" x1="842.1" x2="842.1" y1="745.5492" y2="753.3492"/><line style="stroke:#181818;stroke-width:0.6;" x1="817.5" x2="842.1" y1="753.3492" y2="753.3492"/><polygon fill="#181818" points="823.5,750.9492,817.5,753.3492,823.5,755.7492,821.1,753.3492" style="stroke:#181818;stroke-width:0.6;"/><text fill="#000000" font-family="sans-serif" font-size="7.8" font-weight="bold" lengthAdjust="spacing" textLength="8.4" x="821.1" y="742.3916">26</text><text fill="#000000" font-family="sans-serif" font-size="7.8" lengthAdjust="spacing" textLength="133.8" x="831.9" y="742.3916">addPlateCertification(plateCertification)</text><polygon fill="#181818" points="421.8,773.9238,415.8,776.3238,421.8,778.7238,419.4,776.3238" style="stroke:#181818;stroke-width:0.6;"/><line style="stroke:#181818;stroke-width:0.6;stroke-dasharray:2.0,2.0;" x1="418.2" x2="813.3" y1="776.3238" y2="776.3238"/><text fill="#000000" font-family="sans-serif" font-size="7.8" font-weight="bold" lengthAdjust="spacing" textLength="8.4" x="425.4" y="773.1662">27</text><text fill="#000000" font-family="sans-serif" font-size="7.8" lengthAdjust="spacing" textLength="2.4" x="436.2" y="773.1662">&#160;</text><polygon fill="#181818" points="664.8,792.6984,670.8,795.0984,664.8,797.4984,667.2,795.0984" style="stroke:#181818;stroke-width:0.6;"/><line style="stroke:#181818;stroke-width:0.6;" x1="415.2" x2="668.4" y1="795.0984" y2="795.0984"/><text fill="#000000" font-family="sans-serif" font-size="7.8" font-weight="bold" lengthAdjust="spacing" textLength="8.4" x="419.4" y="791.9408">28</text><text fill="#000000" font-family="sans-serif" font-size="7.8" lengthAdjust="spacing" textLength="88.8" x="430.2" y="791.9408">getRegistedVehiclesList()</text><polygon fill="#181818" points="421.8,811.473,415.8,813.873,421.8,816.273,419.4,813.873" style="stroke:#181818;stroke-width:0.6;"/><line style="stroke:#181818;stroke-width:0.6;stroke-dasharray:2.0,2.0;" x1="418.2" x2="674.4" y1="813.873" y2="813.873"/><text fill="#000000" font-family="sans-serif" font-size="7.8" font-weight="bold" lengthAdjust="spacing" textLength="8.4" x="425.4" y="810.7154">29</text><text fill="#000000" font-family="sans-serif" font-size="7.8" lengthAdjust="spacing" textLength="70.2" x="436.2" y="810.7154">registedVehiclesList</text><polygon fill="#181818" points="803.7,830.2477,809.7,832.6477,803.7,835.0477,806.1,832.6477" style="stroke:#181818;stroke-width:0.6;"/><line style="stroke:#181818;stroke-width:0.6;" x1="415.2" x2="807.3" y1="832.6477" y2="832.6477"/><text fill="#000000" font-family="sans-serif" font-size="7.8" font-weight="bold" lengthAdjust="spacing" textLength="8.4" x="419.4" y="829.49">30</text><text fill="#000000" font-family="sans-serif" font-size="7.8" lengthAdjust="spacing" textLength="121.8" x="430.2" y="829.49">getRegistedPlateCertificationsList()</text><polygon fill="#181818" points="421.8,849.0223,415.8,851.4223,421.8,853.8223,419.4,851.4223" style="stroke:#181818;stroke-width:0.6;"/><line style="stroke:#181818;stroke-width:0.6;stroke-dasharray:2.0,2.0;" x1="418.2" x2="813.3" y1="851.4223" y2="851.4223"/><text fill="#000000" font-family="sans-serif" font-size="7.8" font-weight="bold" lengthAdjust="spacing" textLength="8.4" x="425.4" y="848.2646">31</text><text fill="#000000" font-family="sans-serif" font-size="7.8" lengthAdjust="spacing" textLength="103.2" x="436.2" y="848.2646">registedPlateCertificationsList</text><polygon fill="#181818" points="287.4,867.7969,281.4,870.1969,287.4,872.5969,285,870.1969" style="stroke:#181818;stroke-width:0.6;"/><line style="stroke:#181818;stroke-width:0.6;stroke-dasharray:2.0,2.0;" x1="283.8" x2="411.6" y1="870.1969" y2="870.1969"/><text fill="#000000" font-family="sans-serif" font-size="7.8" font-weight="bold" lengthAdjust="spacing" textLength="8.4" x="291" y="867.0393">32</text><text fill="#000000" font-family="sans-serif" font-size="7.8" lengthAdjust="spacing" textLength="103.2" x="301.8" y="867.0393">registedPlateCertificationsList</text><polygon fill="#181818" points="48,886.5715,42,888.9715,48,891.3715,45.6,888.9715" style="stroke:#181818;stroke-width:0.6;"/><line style="stroke:#181818;stroke-width:0.6;stroke-dasharray:2.0,2.0;" x1="44.4" x2="277.2" y1="888.9715" y2="888.9715"/><text fill="#000000" font-family="sans-serif" font-size="7.8" font-weight="bold" lengthAdjust="spacing" textLength="8.4" x="51.6" y="885.8139">33</text><text fill="#000000" font-family="sans-serif" font-size="7.8" lengthAdjust="spacing" textLength="169.8" x="62.4" y="885.8139">shows all registered vehicles and asks to confirm</text><polygon fill="#181818" points="267.6,905.3461,273.6,907.7461,267.6,910.1461,270,907.7461" style="stroke:#181818;stroke-width:0.6;"/><line style="stroke:#181818;stroke-width:0.6;" x1="41.4" x2="271.2" y1="907.7461" y2="907.7461"/><text fill="#000000" font-family="sans-serif" font-size="7.8" font-weight="bold" lengthAdjust="spacing" textLength="8.4" x="45.6" y="904.5885">34</text><text fill="#000000" font-family="sans-serif" font-size="7.8" lengthAdjust="spacing" textLength="69.6" x="56.4" y="904.5885">confirms all vehicles</text><polygon fill="#181818" points="48,924.1207,42,926.5207,48,928.9207,45.6,926.5207" style="stroke:#181818;stroke-width:0.6;"/><line style="stroke:#181818;stroke-width:0.6;stroke-dasharray:2.0,2.0;" x1="44.4" x2="277.2" y1="926.5207" y2="926.5207"/><text fill="#000000" font-family="sans-serif" font-size="7.8" font-weight="bold" lengthAdjust="spacing" textLength="8.4" x="51.6" y="923.3631">35</text><text fill="#000000" font-family="sans-serif" font-size="7.8" lengthAdjust="spacing" textLength="94.8" x="62.4" y="923.3631">displays operation success</text><!--SRC=[jLVVJzim47xlNt7YPIqgJ7kjfaciWwaQ3DGLzb9fCidHMgHsi1sg_lSxkyulueHqWxublX_VdR_xSjMFNAHCiGrif93HMiaDWb4P3dHnahBeaQtmbzab20eZmyGggHheDOlbbeiLFB14us308YCL7DtXcaVaSv4WcgMuOeB2g2DW6kukhWRaR7Z4KoOC74tckEBQeF9EjpDdTplhDfjAOPHC4XzskfXVDXnIgJdXuQYTJV5YzulRGemKTHTLyLYAPe2RoxF5Imy7AlQWT9bYiXJpraCFf-qudECcOGQdI2SFF6A6In5ErsbNoznfMGVnl0T9NV5mzvTvFflUNbxNJTD6LF9gfYewUlvdUZvVp2vcqxF5xFedaIYZcyaszwZWawCKVoPdnvm1-1yzmCaNOWbCACwZ1YF1Dqe10u5Ry92TIn64Q5N486SAOPbpV4nX8eLaKJTtj2eSx9Dr2H29_5TePaBJZ4Gu7DN3X9ZdB4AHJZoe2LJvwCnZV3ra5QXjxnvPEzbUOdKaTw-STnLDArzVO2j3j0Ffv1vXwWcg7vM3-2elocjEf4nXk-OaNbmO5376DRvGOaizsusd3BNHESqWPeR1a9_YANnLJCHZk98n9cDOx58Smr8icCBnToMrXj_8LsipXccc5DBC_DYCyqeKV2D4rluiUieu5K2r-7TNp66o3FiuNMFqcALmuO28Q4Uv1GNIe_5I5A3SBFfcLkgjJa5rahQAqwbP8popXCe3-U2UAkFqGGCpHl7xp7XIXgAMevNFbMVDCDgNJ1KJJ5QMw2hSb0ME-WrY6oNXZV9sY7I1fWE5fSjU8u-FtmXHhhdb1UvVL79DxFNnk9BBNzueLvrMm9zFJeg0avg4LkXJWz1TVVjf1yZ_2ylYE5osOuqjSDvRoLwxVkAv3LYoCoWgpMbeojNmtea6KM7ZPCDOrJ1MCbPMChnYq77-bNCqgSvtprdfL4fu9u31cUhMx1eBka7x3yoBHQASk7VjTcY5oNiVE6i1stTaknjXkHZAsJh9mVtheCRtCYoh2rn5SrySlGi4qeMUsLrw-lQtoCOXkyQ1twp0fdP9JyC3lqfTukcL29eBdSrqg03-Yy9qRu5TzRwTOZIxq0AbhI4zeEpxakzMh-Nf_dmKUwTUoosjO4bII1F6-NJJUn4NVuSYAHwuslJT_RpvFdOUCBpWrG35NDCCxMXNJ56vUa1dKOHQ1pB_1G00]--></g></svg>