<?xml version="1.0" encoding="UTF-8" standalone="no"?><svg xmlns="http://www.w3.org/2000/svg" xmlns:xlink="http://www.w3.org/1999/xlink" contentStyleType="text/css" height="2221px" preserveAspectRatio="none" style="width:2912px;height:2221px;background:#FFFFFF;" version="1.1" viewBox="0 0 2912 2221" width="2912px" zoomAndPan="magnify"><defs/><g><rect fill="#FFFFFF" height="1964.0388" style="stroke:#181818;stroke-width:1.0;" width="10" x="75.5" y="129.4799"/><rect fill="#FFFFFF" height="471.1197" style="stroke:#181818;stroke-width:1.0;" width="10" x="680.5" y="162.7199"/><rect fill="#FFFFFF" height="1326.9593" style="stroke:#181818;stroke-width:1.0;" width="10" x="680.5" y="675.0796"/><rect fill="#FFFFFF" height="41.24" style="stroke:#181818;stroke-width:1.0;" width="10" x="680.5" y="2043.2788"/><rect fill="#FFFFFF" height="248.4398" style="stroke:#181818;stroke-width:1.0;" width="10" x="941.5" y="213.9599"/><rect fill="#FFFFFF" height="515.6397" style="stroke:#181818;stroke-width:1.0;" width="10" x="941.5" y="716.3195"/><rect fill="#FFFFFF" height="522.6397" style="stroke:#181818;stroke-width:1.0;" width="10" x="941.5" y="1273.1992"/><rect fill="#FFFFFF" height="123.7199" style="stroke:#181818;stroke-width:1.0;" width="10" x="941.5" y="1837.0789"/><rect fill="#FFFFFF" height="41.24" style="stroke:#181818;stroke-width:1.0;" width="10" x="1145.5" y="256.1999"/><rect fill="#FFFFFF" height="41.24" style="stroke:#181818;stroke-width:1.0;" width="10" x="1295.5" y="338.6798"/><rect fill="#FFFFFF" height="41.24" style="stroke:#181818;stroke-width:1.0;" width="10" x="1295.5" y="421.1598"/><rect fill="#FFFFFF" height="433.1598" style="stroke:#181818;stroke-width:1.0;" width="10" x="1469.5" y="757.5595"/><rect fill="#FFFFFF" height="123.7199" style="stroke:#181818;stroke-width:1.0;" width="10" x="1469.5" y="1837.0789"/><rect fill="#FFFFFF" height="440.1598" style="stroke:#181818;stroke-width:1.0;" width="10" x="1733.5" y="1314.4392"/><rect fill="#FFFFFF" height="170.9599" style="stroke:#181818;stroke-width:1.0;" width="10" x="2185.5" y="808.7995"/><rect fill="#FFFFFF" height="170.9599" style="stroke:#181818;stroke-width:1.0;" width="10" x="2449.5" y="1365.6792"/><rect fill="none" height="1236.9593" style="stroke:#000000;stroke-width:1.5;" width="2896.5" x="10" y="477.3997"/><line style="stroke:#181818;stroke-width:0.5;stroke-dasharray:5.0,5.0;" x1="80" x2="80" y1="119.4799" y2="2102.5188"/><line style="stroke:#181818;stroke-width:0.5;stroke-dasharray:5.0,5.0;" x1="685" x2="685" y1="119.4799" y2="2102.5188"/><line style="stroke:#181818;stroke-width:0.5;stroke-dasharray:5.0,5.0;" x1="946.5" x2="946.5" y1="206.8399" y2="2102.5188"/><line style="stroke:#181818;stroke-width:0.5;stroke-dasharray:5.0,5.0;" x1="1150.5" x2="1150.5" y1="119.4799" y2="2102.5188"/><line style="stroke:#181818;stroke-width:0.5;stroke-dasharray:5.0,5.0;" x1="1300.5" x2="1300.5" y1="119.4799" y2="2102.5188"/><line style="stroke:#181818;stroke-width:0.5;stroke-dasharray:5.0,5.0;" x1="1474.5" x2="1474.5" y1="119.4799" y2="2102.5188"/><line style="stroke:#181818;stroke-width:0.5;stroke-dasharray:5.0,5.0;" x1="1738" x2="1738" y1="119.4799" y2="2102.5188"/><line style="stroke:#181818;stroke-width:0.5;stroke-dasharray:5.0,5.0;" x1="2190" x2="2190" y1="815.2995" y2="2102.5188"/><line style="stroke:#181818;stroke-width:0.5;stroke-dasharray:5.0,5.0;" x1="2454.5" x2="2454.5" y1="1372.1792" y2="2102.5188"/><text fill="#000000" font-family="sans-serif" font-size="20" lengthAdjust="spacing" textLength="115" x="20" y="86.38">Vehicle Fleet</text><text fill="#000000" font-family="sans-serif" font-size="20" lengthAdjust="spacing" textLength="83" x="36" y="113.62">Manager</text><ellipse cx="80.5" cy="13.5" fill="#E3E3E3" rx="8" ry="8" style="stroke:#181818;stroke-width:0.5;"/><path d="M80.5,21.5 L80.5,48.5 M67.5,29.5 L93.5,29.5 M80.5,48.5 L67.5,63.5 M80.5,48.5 L93.5,63.5 " fill="none" style="stroke:#181818;stroke-width:0.5;"/><text fill="#000000" font-family="sans-serif" font-size="20" lengthAdjust="spacing" textLength="115" x="20" y="2122.8988">Vehicle Fleet</text><text fill="#000000" font-family="sans-serif" font-size="20" lengthAdjust="spacing" textLength="83" x="36" y="2150.1388">Manager</text><ellipse cx="80.5" cy="2164.4987" fill="#E3E3E3" rx="8" ry="8" style="stroke:#181818;stroke-width:0.5;"/><path d="M80.5,2172.4987 L80.5,2199.4987 M67.5,2180.4987 L93.5,2180.4987 M80.5,2199.4987 L67.5,2214.4987 M80.5,2199.4987 L93.5,2214.4987 " fill="none" style="stroke:#181818;stroke-width:0.5;"/><rect fill="#E3E3E3" height="41.24" rx="2.5" ry="2.5" style="stroke:#181818;stroke-width:0.5;" width="183" x="594" y="77.24"/><text fill="#000000" font-family="sans-serif" font-size="20" lengthAdjust="spacing" textLength="169" x="601" y="105.62">:RegisterVehicleUI</text><rect fill="#E3E3E3" height="41.24" rx="2.5" ry="2.5" style="stroke:#181818;stroke-width:0.5;" width="183" x="594" y="2101.5188"/><text fill="#000000" font-family="sans-serif" font-size="20" lengthAdjust="spacing" textLength="169" x="601" y="2129.8988">:RegisterVehicleUI</text><rect fill="#E3E3E3" height="41.24" rx="2.5" ry="2.5" style="stroke:#181818;stroke-width:0.5;" width="254" x="819.5" y="2101.5188"/><text fill="#000000" font-family="sans-serif" font-size="20" lengthAdjust="spacing" textLength="240" x="826.5" y="2129.8988">:RegisterVehicleController</text><rect fill="#E3E3E3" height="41.24" rx="2.5" ry="2.5" style="stroke:#181818;stroke-width:0.5;" width="134" x="1083.5" y="77.24"/><text fill="#000000" font-family="sans-serif" font-size="20" lengthAdjust="spacing" textLength="120" x="1090.5" y="105.62">:Repositories</text><rect fill="#E3E3E3" height="41.24" rx="2.5" ry="2.5" style="stroke:#181818;stroke-width:0.5;" width="134" x="1083.5" y="2101.5188"/><text fill="#000000" font-family="sans-serif" font-size="20" lengthAdjust="spacing" textLength="120" x="1090.5" y="2129.8988">:Repositories</text><rect fill="#E3E3E3" height="68.4799" rx="2.5" ry="2.5" style="stroke:#181818;stroke-width:0.5;" width="134" x="1233.5" y="50"/><text fill="#000000" font-family="sans-serif" font-size="20" lengthAdjust="spacing" textLength="111" x="1245" y="78.38">repositories</text><text fill="#000000" font-family="sans-serif" font-size="20" lengthAdjust="spacing" textLength="120" x="1240.5" y="105.62">:Repositories</text><rect fill="#E3E3E3" height="68.4799" rx="2.5" ry="2.5" style="stroke:#181818;stroke-width:0.5;" width="134" x="1233.5" y="2101.5188"/><text fill="#000000" font-family="sans-serif" font-size="20" lengthAdjust="spacing" textLength="111" x="1245" y="2129.8988">repositories</text><text fill="#000000" font-family="sans-serif" font-size="20" lengthAdjust="spacing" textLength="120" x="1240.5" y="2157.1388">:Repositories</text><rect fill="#E3E3E3" height="68.4799" rx="2.5" ry="2.5" style="stroke:#181818;stroke-width:0.5;" width="194" x="1377.5" y="50"/><text fill="#000000" font-family="sans-serif" font-size="20" lengthAdjust="spacing" textLength="180" x="1384.5" y="78.38">VehiclesRepository:</text><text fill="#000000" font-family="sans-serif" font-size="20" lengthAdjust="spacing" textLength="175" x="1387" y="105.62">VehiclesRepository</text><rect fill="#E3E3E3" height="68.4799" rx="2.5" ry="2.5" style="stroke:#181818;stroke-width:0.5;" width="194" x="1377.5" y="2101.5188"/><text fill="#000000" font-family="sans-serif" font-size="20" lengthAdjust="spacing" textLength="180" x="1384.5" y="2129.8988">VehiclesRepository:</text><text fill="#000000" font-family="sans-serif" font-size="20" lengthAdjust="spacing" textLength="175" x="1387" y="2157.1388">VehiclesRepository</text><rect fill="#E3E3E3" height="68.4799" rx="2.5" ry="2.5" style="stroke:#181818;stroke-width:0.5;" width="287" x="1595" y="50"/><text fill="#000000" font-family="sans-serif" font-size="20" lengthAdjust="spacing" textLength="273" x="1602" y="78.38">PlateCertificationsRepository:</text><text fill="#000000" font-family="sans-serif" font-size="20" lengthAdjust="spacing" textLength="268" x="1604.5" y="105.62">PlateCertificationsRepository</text><rect fill="#E3E3E3" height="68.4799" rx="2.5" ry="2.5" style="stroke:#181818;stroke-width:0.5;" width="287" x="1595" y="2101.5188"/><text fill="#000000" font-family="sans-serif" font-size="20" lengthAdjust="spacing" textLength="273" x="1602" y="2129.8988">PlateCertificationsRepository:</text><text fill="#000000" font-family="sans-serif" font-size="20" lengthAdjust="spacing" textLength="268" x="1604.5" y="2157.1388">PlateCertificationsRepository</text><rect fill="#E3E3E3" height="68.4799" rx="2.5" ry="2.5" style="stroke:#181818;stroke-width:0.5;" width="85" x="2148" y="2101.5188"/><text fill="#000000" font-family="sans-serif" font-size="20" lengthAdjust="spacing" textLength="64" x="2158.5" y="2129.8988">vehicle</text><text fill="#000000" font-family="sans-serif" font-size="20" lengthAdjust="spacing" textLength="71" x="2155" y="2157.1388">:Vehicle</text><rect fill="#E3E3E3" height="68.4799" rx="2.5" ry="2.5" style="stroke:#181818;stroke-width:0.5;" width="178" x="2365.5" y="2101.5188"/><text fill="#000000" font-family="sans-serif" font-size="20" lengthAdjust="spacing" textLength="159" x="2375" y="2129.8988">plateCertification</text><text fill="#000000" font-family="sans-serif" font-size="20" lengthAdjust="spacing" textLength="164" x="2372.5" y="2157.1388">:PlateCertification</text><rect fill="#FFFFFF" height="1964.0388" style="stroke:#181818;stroke-width:1.0;" width="10" x="75.5" y="129.4799"/><rect fill="#FFFFFF" height="471.1197" style="stroke:#181818;stroke-width:1.0;" width="10" x="680.5" y="162.7199"/><rect fill="#FFFFFF" height="1326.9593" style="stroke:#181818;stroke-width:1.0;" width="10" x="680.5" y="675.0796"/><rect fill="#FFFFFF" height="41.24" style="stroke:#181818;stroke-width:1.0;" width="10" x="680.5" y="2043.2788"/><rect fill="#FFFFFF" height="248.4398" style="stroke:#181818;stroke-width:1.0;" width="10" x="941.5" y="213.9599"/><rect fill="#FFFFFF" height="515.6397" style="stroke:#181818;stroke-width:1.0;" width="10" x="941.5" y="716.3195"/><rect fill="#FFFFFF" height="522.6397" style="stroke:#181818;stroke-width:1.0;" width="10" x="941.5" y="1273.1992"/><rect fill="#FFFFFF" height="123.7199" style="stroke:#181818;stroke-width:1.0;" width="10" x="941.5" y="1837.0789"/><rect fill="#FFFFFF" height="41.24" style="stroke:#181818;stroke-width:1.0;" width="10" x="1145.5" y="256.1999"/><rect fill="#FFFFFF" height="41.24" style="stroke:#181818;stroke-width:1.0;" width="10" x="1295.5" y="338.6798"/><rect fill="#FFFFFF" height="41.24" style="stroke:#181818;stroke-width:1.0;" width="10" x="1295.5" y="421.1598"/><rect fill="#FFFFFF" height="433.1598" style="stroke:#181818;stroke-width:1.0;" width="10" x="1469.5" y="757.5595"/><rect fill="#FFFFFF" height="123.7199" style="stroke:#181818;stroke-width:1.0;" width="10" x="1469.5" y="1837.0789"/><rect fill="#FFFFFF" height="440.1598" style="stroke:#181818;stroke-width:1.0;" width="10" x="1733.5" y="1314.4392"/><rect fill="#FFFFFF" height="170.9599" style="stroke:#181818;stroke-width:1.0;" width="10" x="2185.5" y="808.7995"/><rect fill="#FFFFFF" height="170.9599" style="stroke:#181818;stroke-width:1.0;" width="10" x="2449.5" y="1365.6792"/><polygon fill="#181818" points="668.5,158.7199,678.5,162.7199,668.5,166.7199,672.5,162.7199" style="stroke:#181818;stroke-width:1.0;"/><line style="stroke:#181818;stroke-width:1.0;" x1="85.5" x2="674.5" y1="162.7199" y2="162.7199"/><text fill="#000000" font-family="sans-serif" font-size="20" font-weight="bold" lengthAdjust="spacing" textLength="11" x="92.5" y="154.8599">1</text><text fill="#000000" font-family="sans-serif" font-size="20" lengthAdjust="spacing" textLength="272" x="107.5" y="154.8599">asks to register a new vehicle</text><polygon fill="#181818" points="807.5,199.9599,817.5,203.9599,807.5,207.9599,811.5,203.9599" style="stroke:#181818;stroke-width:1.0;"/><line style="stroke:#181818;stroke-width:1.0;" x1="690.5" x2="813.5" y1="203.9599" y2="203.9599"/><text fill="#000000" font-family="sans-serif" font-size="20" font-weight="bold" lengthAdjust="spacing" textLength="11" x="697.5" y="196.0999">2</text><text fill="#000000" font-family="sans-serif" font-size="20" lengthAdjust="spacing" textLength="58" x="712.5" y="196.0999">create</text><rect fill="#E3E3E3" height="41.24" rx="2.5" ry="2.5" style="stroke:#181818;stroke-width:0.5;" width="254" x="819.5" y="170.7199"/><text fill="#000000" font-family="sans-serif" font-size="20" lengthAdjust="spacing" textLength="240" x="826.5" y="199.0999">:RegisterVehicleController</text><polygon fill="#181818" points="1133.5,252.1999,1143.5,256.1999,1133.5,260.1999,1137.5,256.1999" style="stroke:#181818;stroke-width:1.0;"/><line style="stroke:#181818;stroke-width:1.0;" x1="951.5" x2="1139.5" y1="256.1999" y2="256.1999"/><text fill="#000000" font-family="sans-serif" font-size="20" font-weight="bold" lengthAdjust="spacing" textLength="11" x="958.5" y="248.3399">3</text><text fill="#000000" font-family="sans-serif" font-size="20" lengthAdjust="spacing" textLength="122" x="973.5" y="248.3399">getInstance()</text><polygon fill="#181818" points="962.5,293.4398,952.5,297.4398,962.5,301.4398,958.5,297.4398" style="stroke:#181818;stroke-width:1.0;"/><line style="stroke:#181818;stroke-width:1.0;stroke-dasharray:2.0,2.0;" x1="956.5" x2="1149.5" y1="297.4398" y2="297.4398"/><text fill="#000000" font-family="sans-serif" font-size="20" font-weight="bold" lengthAdjust="spacing" textLength="11" x="968.5" y="289.5799">4</text><text fill="#000000" font-family="sans-serif" font-size="20" lengthAdjust="spacing" textLength="111" x="983.5" y="289.5799">repositories</text><polygon fill="#181818" points="1283.5,334.6798,1293.5,338.6798,1283.5,342.6798,1287.5,338.6798" style="stroke:#181818;stroke-width:1.0;"/><line style="stroke:#181818;stroke-width:1.0;" x1="951.5" x2="1289.5" y1="338.6798" y2="338.6798"/><text fill="#000000" font-family="sans-serif" font-size="20" font-weight="bold" lengthAdjust="spacing" textLength="11" x="958.5" y="330.8198">5</text><text fill="#000000" font-family="sans-serif" font-size="20" lengthAdjust="spacing" textLength="217" x="973.5" y="330.8198">getVehiclesRepository()</text><polygon fill="#181818" points="962.5,375.9198,952.5,379.9198,962.5,383.9198,958.5,379.9198" style="stroke:#181818;stroke-width:1.0;"/><line style="stroke:#181818;stroke-width:1.0;stroke-dasharray:2.0,2.0;" x1="956.5" x2="1299.5" y1="379.9198" y2="379.9198"/><text fill="#000000" font-family="sans-serif" font-size="20" font-weight="bold" lengthAdjust="spacing" textLength="11" x="968.5" y="372.0598">6</text><text fill="#000000" font-family="sans-serif" font-size="20" lengthAdjust="spacing" textLength="175" x="983.5" y="372.0598">VehiclesRepository</text><polygon fill="#181818" points="1283.5,417.1598,1293.5,421.1598,1283.5,425.1598,1287.5,421.1598" style="stroke:#181818;stroke-width:1.0;"/><line style="stroke:#181818;stroke-width:1.0;" x1="951.5" x2="1289.5" y1="421.1598" y2="421.1598"/><text fill="#000000" font-family="sans-serif" font-size="20" font-weight="bold" lengthAdjust="spacing" textLength="11" x="958.5" y="413.2998">7</text><text fill="#000000" font-family="sans-serif" font-size="20" lengthAdjust="spacing" textLength="310" x="973.5" y="413.2998">getPlateCertificationsRepository()</text><polygon fill="#181818" points="957.5,458.3997,947.5,462.3997,957.5,466.3997,953.5,462.3997" style="stroke:#181818;stroke-width:1.0;"/><line style="stroke:#181818;stroke-width:1.0;stroke-dasharray:2.0,2.0;" x1="951.5" x2="1299.5" y1="462.3997" y2="462.3997"/><text fill="#000000" font-family="sans-serif" font-size="20" font-weight="bold" lengthAdjust="spacing" textLength="11" x="963.5" y="454.5398">8</text><text fill="#000000" font-family="sans-serif" font-size="20" lengthAdjust="spacing" textLength="268" x="978.5" y="454.5398">PlateCertificationsRepository</text><path d="M10,477.3997 L98,477.3997 L98,496.6397 L88,506.6397 L10,506.6397 L10,477.3997 " fill="#EEEEEE" style="stroke:#000000;stroke-width:1.5;"/><rect fill="none" height="1236.9593" style="stroke:#000000;stroke-width:1.5;" width="2896.5" x="10" y="477.3997"/><text fill="#000000" font-family="sans-serif" font-size="20" font-weight="bold" lengthAdjust="spacing" textLength="43" x="25" y="499.7797">loop</text><text fill="#000000" font-family="sans-serif" font-size="20" font-weight="bold" lengthAdjust="spacing" textLength="164" x="113" y="500.7797">[while intended]</text><polygon fill="#181818" points="96.5,629.8396,86.5,633.8396,96.5,637.8396,92.5,633.8396" style="stroke:#181818;stroke-width:1.0;"/><line style="stroke:#181818;stroke-width:1.0;stroke-dasharray:2.0,2.0;" x1="90.5" x2="684.5" y1="633.8396" y2="633.8396"/><text fill="#000000" font-family="sans-serif" font-size="20" font-weight="bold" lengthAdjust="spacing" textLength="11" x="102.5" y="585.1196">9</text><text fill="#000000" font-family="sans-serif" font-size="20" lengthAdjust="spacing" textLength="421" x="117.5" y="544.2597">requests vehicle data (i.e. Brand, Model, Type,</text><text fill="#000000" font-family="sans-serif" font-size="20" lengthAdjust="spacing" textLength="429" x="117.5" y="571.4997">Tare,Gross Weight, Current Km, Register Date,</text><text fill="#000000" font-family="sans-serif" font-size="20" lengthAdjust="spacing" textLength="556" x="117.5" y="598.7396">Acquisition Date, Maintenance/Checkup Frequency (in Kms),</text><text fill="#000000" font-family="sans-serif" font-size="20" lengthAdjust="spacing" textLength="121" x="122.5" y="625.9796">vehicle plate)</text><polygon fill="#181818" points="668.5,671.0796,678.5,675.0796,668.5,679.0796,672.5,675.0796" style="stroke:#181818;stroke-width:1.0;"/><line style="stroke:#181818;stroke-width:1.0;" x1="85.5" x2="674.5" y1="675.0796" y2="675.0796"/><text fill="#000000" font-family="sans-serif" font-size="20" font-weight="bold" lengthAdjust="spacing" textLength="22" x="92.5" y="667.2196">10</text><text fill="#000000" font-family="sans-serif" font-size="20" lengthAdjust="spacing" textLength="428" x="118.5" y="667.2196">write the values of the new vehicle's attributes</text><polygon fill="#181818" points="929.5,712.3195,939.5,716.3195,929.5,720.3195,933.5,716.3195" style="stroke:#181818;stroke-width:1.0;"/><line style="stroke:#181818;stroke-width:1.0;" x1="690.5" x2="935.5" y1="716.3195" y2="716.3195"/><text fill="#000000" font-family="sans-serif" font-size="20" font-weight="bold" lengthAdjust="spacing" textLength="22" x="697.5" y="708.4596">11</text><text fill="#000000" font-family="sans-serif" font-size="20" lengthAdjust="spacing" textLength="58" x="723.5" y="708.4596">create</text><polygon fill="#181818" points="1457.5,753.5595,1467.5,757.5595,1457.5,761.5595,1461.5,757.5595" style="stroke:#181818;stroke-width:1.0;"/><line style="stroke:#181818;stroke-width:1.0;" x1="951.5" x2="1463.5" y1="757.5595" y2="757.5595"/><text fill="#000000" font-family="sans-serif" font-size="20" font-weight="bold" lengthAdjust="spacing" textLength="22" x="958.5" y="749.6995">12</text><text fill="#000000" font-family="sans-serif" font-size="20" lengthAdjust="spacing" textLength="58" x="984.5" y="749.6995">create</text><polygon fill="#181818" points="2136,794.7995,2146,798.7995,2136,802.7995,2140,798.7995" style="stroke:#181818;stroke-width:1.0;"/><line style="stroke:#181818;stroke-width:1.0;" x1="1479.5" x2="2142" y1="798.7995" y2="798.7995"/><text fill="#000000" font-family="sans-serif" font-size="20" font-weight="bold" lengthAdjust="spacing" textLength="22" x="1486.5" y="790.9395">13</text><text fill="#000000" font-family="sans-serif" font-size="20" lengthAdjust="spacing" textLength="58" x="1512.5" y="790.9395">create</text><rect fill="#E3E3E3" height="68.4799" rx="2.5" ry="2.5" style="stroke:#181818;stroke-width:0.5;" width="85" x="2148" y="765.5595"/><text fill="#000000" font-family="sans-serif" font-size="20" lengthAdjust="spacing" textLength="64" x="2158.5" y="793.9395">vehicle</text><text fill="#000000" font-family="sans-serif" font-size="20" lengthAdjust="spacing" textLength="71" x="2155" y="821.1795">:Vehicle</text><line style="stroke:#181818;stroke-width:1.0;" x1="2195.5" x2="2237.5" y1="878.2794" y2="878.2794"/><line style="stroke:#181818;stroke-width:1.0;" x1="2237.5" x2="2237.5" y1="878.2794" y2="891.2794"/><line style="stroke:#181818;stroke-width:1.0;" x1="2196.5" x2="2237.5" y1="891.2794" y2="891.2794"/><polygon fill="#181818" points="2206.5,887.2794,2196.5,891.2794,2206.5,895.2794,2202.5,891.2794" style="stroke:#181818;stroke-width:1.0;"/><text fill="#000000" font-family="sans-serif" font-size="20" font-weight="bold" lengthAdjust="spacing" textLength="22" x="2202.5" y="870.4195">14</text><text fill="#000000" font-family="sans-serif" font-size="20" lengthAdjust="spacing" textLength="214" x="2228.5" y="870.4195">validateVehicle(vehicle)</text><polygon fill="#181818" points="1490.5,928.5194,1480.5,932.5194,1490.5,936.5194,1486.5,932.5194" style="stroke:#181818;stroke-width:1.0;"/><line style="stroke:#181818;stroke-width:1.0;stroke-dasharray:2.0,2.0;" x1="1484.5" x2="2184.5" y1="932.5194" y2="932.5194"/><text fill="#000000" font-family="sans-serif" font-size="20" font-weight="bold" lengthAdjust="spacing" textLength="22" x="1496.5" y="924.6594">15</text><text fill="#000000" font-family="sans-serif" font-size="20" lengthAdjust="spacing" textLength="64" x="1522.5" y="924.6594">vehicle</text><line style="stroke:#181818;stroke-width:1.0;" x1="1479.5" x2="1521.5" y1="978.7594" y2="978.7594"/><line style="stroke:#181818;stroke-width:1.0;" x1="1521.5" x2="1521.5" y1="978.7594" y2="991.7594"/><line style="stroke:#181818;stroke-width:1.0;" x1="1474.5" x2="1521.5" y1="991.7594" y2="991.7594"/><polygon fill="#181818" points="1484.5,987.7594,1474.5,991.7594,1484.5,995.7594,1480.5,991.7594" style="stroke:#181818;stroke-width:1.0;"/><text fill="#000000" font-family="sans-serif" font-size="20" font-weight="bold" lengthAdjust="spacing" textLength="22" x="1486.5" y="970.8994">16</text><text fill="#000000" font-family="sans-serif" font-size="20" lengthAdjust="spacing" textLength="214" x="1512.5" y="970.8994">validateVehicle(vehicle)</text><line style="stroke:#181818;stroke-width:1.0;" x1="1479.5" x2="1521.5" y1="1027.9994" y2="1027.9994"/><line style="stroke:#181818;stroke-width:1.0;" x1="1521.5" x2="1521.5" y1="1027.9994" y2="1040.9994"/><line style="stroke:#181818;stroke-width:1.0;" x1="1480.5" x2="1521.5" y1="1040.9994" y2="1040.9994"/><polygon fill="#181818" points="1490.5,1036.9994,1480.5,1040.9994,1490.5,1044.9994,1486.5,1040.9994" style="stroke:#181818;stroke-width:1.0;"/><text fill="#000000" font-family="sans-serif" font-size="20" font-weight="bold" lengthAdjust="spacing" textLength="22" x="1486.5" y="1020.1394">17</text><text fill="#000000" font-family="sans-serif" font-size="20" lengthAdjust="spacing" textLength="177" x="1512.5" y="1020.1394">addVehicle(vehicle)</text><line style="stroke:#181818;stroke-width:1.0;" x1="1479.5" x2="1521.5" y1="1082.2393" y2="1082.2393"/><line style="stroke:#181818;stroke-width:1.0;" x1="1521.5" x2="1521.5" y1="1082.2393" y2="1095.2393"/><line style="stroke:#181818;stroke-width:1.0;" x1="1480.5" x2="1521.5" y1="1095.2393" y2="1095.2393"/><polygon fill="#181818" points="1490.5,1091.2393,1480.5,1095.2393,1490.5,1099.2393,1486.5,1095.2393" style="stroke:#181818;stroke-width:1.0;"/><text fill="#000000" font-family="sans-serif" font-size="20" font-weight="bold" lengthAdjust="spacing" textLength="22" x="1486.5" y="1074.3794">18</text><text fill="#000000" font-family="sans-serif" font-size="20" lengthAdjust="spacing" textLength="89" x="1512.5" y="1074.3794">true/false</text><line style="stroke:#181818;stroke-width:1.0;" x1="1479.5" x2="1521.5" y1="1136.4793" y2="1136.4793"/><line style="stroke:#181818;stroke-width:1.0;" x1="1521.5" x2="1521.5" y1="1136.4793" y2="1149.4793"/><line style="stroke:#181818;stroke-width:1.0;" x1="1480.5" x2="1521.5" y1="1149.4793" y2="1149.4793"/><polygon fill="#181818" points="1490.5,1145.4793,1480.5,1149.4793,1490.5,1153.4793,1486.5,1149.4793" style="stroke:#181818;stroke-width:1.0;"/><text fill="#000000" font-family="sans-serif" font-size="20" font-weight="bold" lengthAdjust="spacing" textLength="22" x="1486.5" y="1128.6193">19</text><text fill="#000000" font-family="sans-serif" font-size="20" lengthAdjust="spacing" textLength="89" x="1512.5" y="1128.6193">true/false</text><polygon fill="#181818" points="962.5,1186.7193,952.5,1190.7193,962.5,1194.7193,958.5,1190.7193" style="stroke:#181818;stroke-width:1.0;"/><line style="stroke:#181818;stroke-width:1.0;stroke-dasharray:2.0,2.0;" x1="956.5" x2="1473.5" y1="1190.7193" y2="1190.7193"/><text fill="#000000" font-family="sans-serif" font-size="20" font-weight="bold" lengthAdjust="spacing" textLength="22" x="968.5" y="1182.8593">20</text><text fill="#000000" font-family="sans-serif" font-size="20" lengthAdjust="spacing" textLength="5" x="994.5" y="1182.8593"> </text><polygon fill="#181818" points="701.5,1227.9593,691.5,1231.9593,701.5,1235.9593,697.5,1231.9593" style="stroke:#181818;stroke-width:1.0;"/><line style="stroke:#181818;stroke-width:1.0;stroke-dasharray:2.0,2.0;" x1="695.5" x2="945.5" y1="1231.9593" y2="1231.9593"/><text fill="#000000" font-family="sans-serif" font-size="20" font-weight="bold" lengthAdjust="spacing" textLength="22" x="707.5" y="1224.0993">21</text><text fill="#000000" font-family="sans-serif" font-size="20" lengthAdjust="spacing" textLength="5" x="733.5" y="1224.0993"> </text><polygon fill="#181818" points="929.5,1269.1992,939.5,1273.1992,929.5,1277.1992,933.5,1273.1992" style="stroke:#181818;stroke-width:1.0;"/><line style="stroke:#181818;stroke-width:1.0;" x1="690.5" x2="935.5" y1="1273.1992" y2="1273.1992"/><text fill="#000000" font-family="sans-serif" font-size="20" font-weight="bold" lengthAdjust="spacing" textLength="22" x="697.5" y="1265.3393">22</text><text fill="#000000" font-family="sans-serif" font-size="20" lengthAdjust="spacing" textLength="58" x="723.5" y="1265.3393">create</text><polygon fill="#181818" points="1721.5,1310.4392,1731.5,1314.4392,1721.5,1318.4392,1725.5,1314.4392" style="stroke:#181818;stroke-width:1.0;"/><line style="stroke:#181818;stroke-width:1.0;" x1="951.5" x2="1727.5" y1="1314.4392" y2="1314.4392"/><text fill="#000000" font-family="sans-serif" font-size="20" font-weight="bold" lengthAdjust="spacing" textLength="22" x="958.5" y="1306.5792">23</text><text fill="#000000" font-family="sans-serif" font-size="20" lengthAdjust="spacing" textLength="58" x="984.5" y="1306.5792">create</text><polygon fill="#181818" points="2353.5,1351.6792,2363.5,1355.6792,2353.5,1359.6792,2357.5,1355.6792" style="stroke:#181818;stroke-width:1.0;"/><line style="stroke:#181818;stroke-width:1.0;" x1="1743.5" x2="2359.5" y1="1355.6792" y2="1355.6792"/><text fill="#000000" font-family="sans-serif" font-size="20" font-weight="bold" lengthAdjust="spacing" textLength="22" x="1750.5" y="1347.8192">24</text><text fill="#000000" font-family="sans-serif" font-size="20" lengthAdjust="spacing" textLength="58" x="1776.5" y="1347.8192">create</text><rect fill="#E3E3E3" height="68.4799" rx="2.5" ry="2.5" style="stroke:#181818;stroke-width:0.5;" width="178" x="2365.5" y="1322.4392"/><text fill="#000000" font-family="sans-serif" font-size="20" lengthAdjust="spacing" textLength="159" x="2375" y="1350.8192">plateCertification</text><text fill="#000000" font-family="sans-serif" font-size="20" lengthAdjust="spacing" textLength="164" x="2372.5" y="1378.0592">:PlateCertification</text><line style="stroke:#181818;stroke-width:1.0;" x1="2459.5" x2="2501.5" y1="1435.1591" y2="1435.1591"/><line style="stroke:#181818;stroke-width:1.0;" x1="2501.5" x2="2501.5" y1="1435.1591" y2="1448.1591"/><line style="stroke:#181818;stroke-width:1.0;" x1="2460.5" x2="2501.5" y1="1448.1591" y2="1448.1591"/><polygon fill="#181818" points="2470.5,1444.1591,2460.5,1448.1591,2470.5,1452.1591,2466.5,1448.1591" style="stroke:#181818;stroke-width:1.0;"/><text fill="#000000" font-family="sans-serif" font-size="20" font-weight="bold" lengthAdjust="spacing" textLength="22" x="2466.5" y="1427.2992">25</text><text fill="#000000" font-family="sans-serif" font-size="20" lengthAdjust="spacing" textLength="402" x="2492.5" y="1427.2992">validatePlateCertification(plateCertification)</text><polygon fill="#181818" points="1754.5,1485.3991,1744.5,1489.3991,1754.5,1493.3991,1750.5,1489.3991" style="stroke:#181818;stroke-width:1.0;"/><line style="stroke:#181818;stroke-width:1.0;stroke-dasharray:2.0,2.0;" x1="1748.5" x2="2448.5" y1="1489.3991" y2="1489.3991"/><text fill="#000000" font-family="sans-serif" font-size="20" font-weight="bold" lengthAdjust="spacing" textLength="22" x="1760.5" y="1481.5391">26</text><text fill="#000000" font-family="sans-serif" font-size="20" lengthAdjust="spacing" textLength="159" x="1786.5" y="1481.5391">plateCertification</text><line style="stroke:#181818;stroke-width:1.0;" x1="1743.5" x2="1785.5" y1="1535.6391" y2="1535.6391"/><line style="stroke:#181818;stroke-width:1.0;" x1="1785.5" x2="1785.5" y1="1535.6391" y2="1548.6391"/><line style="stroke:#181818;stroke-width:1.0;" x1="1738.5" x2="1785.5" y1="1548.6391" y2="1548.6391"/><polygon fill="#181818" points="1748.5,1544.6391,1738.5,1548.6391,1748.5,1552.6391,1744.5,1548.6391" style="stroke:#181818;stroke-width:1.0;"/><text fill="#000000" font-family="sans-serif" font-size="20" font-weight="bold" lengthAdjust="spacing" textLength="22" x="1750.5" y="1527.7791">27</text><text fill="#000000" font-family="sans-serif" font-size="20" lengthAdjust="spacing" textLength="402" x="1776.5" y="1527.7791">validatePlateCertification(plateCertification)</text><line style="stroke:#181818;stroke-width:1.0;" x1="1743.5" x2="1785.5" y1="1584.8791" y2="1584.8791"/><line style="stroke:#181818;stroke-width:1.0;" x1="1785.5" x2="1785.5" y1="1584.8791" y2="1597.8791"/><line style="stroke:#181818;stroke-width:1.0;" x1="1744.5" x2="1785.5" y1="1597.8791" y2="1597.8791"/><polygon fill="#181818" points="1754.5,1593.8791,1744.5,1597.8791,1754.5,1601.8791,1750.5,1597.8791" style="stroke:#181818;stroke-width:1.0;"/><text fill="#000000" font-family="sans-serif" font-size="20" font-weight="bold" lengthAdjust="spacing" textLength="22" x="1750.5" y="1577.0191">28</text><text fill="#000000" font-family="sans-serif" font-size="20" lengthAdjust="spacing" textLength="365" x="1776.5" y="1577.0191">addPlateCertification(plateCertification)</text><line style="stroke:#181818;stroke-width:1.0;" x1="1743.5" x2="1785.5" y1="1639.119" y2="1639.119"/><line style="stroke:#181818;stroke-width:1.0;" x1="1785.5" x2="1785.5" y1="1639.119" y2="1652.119"/><line style="stroke:#181818;stroke-width:1.0;" x1="1744.5" x2="1785.5" y1="1652.119" y2="1652.119"/><polygon fill="#181818" points="1754.5,1648.119,1744.5,1652.119,1754.5,1656.119,1750.5,1652.119" style="stroke:#181818;stroke-width:1.0;"/><text fill="#000000" font-family="sans-serif" font-size="20" font-weight="bold" lengthAdjust="spacing" textLength="22" x="1750.5" y="1631.2591">29</text><text fill="#000000" font-family="sans-serif" font-size="20" lengthAdjust="spacing" textLength="89" x="1776.5" y="1631.2591">true/false</text><line style="stroke:#181818;stroke-width:1.0;" x1="1743.5" x2="1785.5" y1="1693.359" y2="1693.359"/><line style="stroke:#181818;stroke-width:1.0;" x1="1785.5" x2="1785.5" y1="1693.359" y2="1706.359"/><line style="stroke:#181818;stroke-width:1.0;" x1="1744.5" x2="1785.5" y1="1706.359" y2="1706.359"/><polygon fill="#181818" points="1754.5,1702.359,1744.5,1706.359,1754.5,1710.359,1750.5,1706.359" style="stroke:#181818;stroke-width:1.0;"/><text fill="#000000" font-family="sans-serif" font-size="20" font-weight="bold" lengthAdjust="spacing" textLength="22" x="1750.5" y="1685.499">30</text><text fill="#000000" font-family="sans-serif" font-size="20" lengthAdjust="spacing" textLength="89" x="1776.5" y="1685.499">true/false</text><polygon fill="#181818" points="962.5,1750.599,952.5,1754.599,962.5,1758.599,958.5,1754.599" style="stroke:#181818;stroke-width:1.0;"/><line style="stroke:#181818;stroke-width:1.0;stroke-dasharray:2.0,2.0;" x1="956.5" x2="1737.5" y1="1754.599" y2="1754.599"/><text fill="#000000" font-family="sans-serif" font-size="20" font-weight="bold" lengthAdjust="spacing" textLength="22" x="968.5" y="1746.739">31</text><text fill="#000000" font-family="sans-serif" font-size="20" lengthAdjust="spacing" textLength="201" x="994.5" y="1746.739">plateCertificationsList</text><polygon fill="#181818" points="701.5,1791.839,691.5,1795.839,701.5,1799.839,697.5,1795.839" style="stroke:#181818;stroke-width:1.0;"/><line style="stroke:#181818;stroke-width:1.0;stroke-dasharray:2.0,2.0;" x1="695.5" x2="945.5" y1="1795.839" y2="1795.839"/><text fill="#000000" font-family="sans-serif" font-size="20" font-weight="bold" lengthAdjust="spacing" textLength="22" x="707.5" y="1787.979">32</text><text fill="#000000" font-family="sans-serif" font-size="20" lengthAdjust="spacing" textLength="201" x="733.5" y="1787.979">plateCertificationsList</text><polygon fill="#181818" points="929.5,1833.0789,939.5,1837.0789,929.5,1841.0789,933.5,1837.0789" style="stroke:#181818;stroke-width:1.0;"/><line style="stroke:#181818;stroke-width:1.0;" x1="690.5" x2="935.5" y1="1837.0789" y2="1837.0789"/><text fill="#000000" font-family="sans-serif" font-size="20" font-weight="bold" lengthAdjust="spacing" textLength="22" x="697.5" y="1829.219">33</text><text fill="#000000" font-family="sans-serif" font-size="20" lengthAdjust="spacing" textLength="150" x="723.5" y="1829.219">getVehiclesList()</text><polygon fill="#181818" points="1457.5,1874.3189,1467.5,1878.3189,1457.5,1882.3189,1461.5,1878.3189" style="stroke:#181818;stroke-width:1.0;"/><line style="stroke:#181818;stroke-width:1.0;" x1="951.5" x2="1463.5" y1="1878.3189" y2="1878.3189"/><text fill="#000000" font-family="sans-serif" font-size="20" font-weight="bold" lengthAdjust="spacing" textLength="22" x="958.5" y="1870.4589">34</text><text fill="#000000" font-family="sans-serif" font-size="20" lengthAdjust="spacing" textLength="150" x="984.5" y="1870.4589">getVehiclesList()</text><polygon fill="#181818" points="962.5,1915.5589,952.5,1919.5589,962.5,1923.5589,958.5,1919.5589" style="stroke:#181818;stroke-width:1.0;"/><line style="stroke:#181818;stroke-width:1.0;stroke-dasharray:2.0,2.0;" x1="956.5" x2="1468.5" y1="1919.5589" y2="1919.5589"/><text fill="#000000" font-family="sans-serif" font-size="20" font-weight="bold" lengthAdjust="spacing" textLength="22" x="968.5" y="1911.6989">35</text><text fill="#000000" font-family="sans-serif" font-size="20" lengthAdjust="spacing" textLength="106" x="994.5" y="1911.6989">vehiclesList</text><polygon fill="#181818" points="701.5,1956.7989,691.5,1960.7989,701.5,1964.7989,697.5,1960.7989" style="stroke:#181818;stroke-width:1.0;"/><line style="stroke:#181818;stroke-width:1.0;stroke-dasharray:2.0,2.0;" x1="695.5" x2="945.5" y1="1960.7989" y2="1960.7989"/><text fill="#000000" font-family="sans-serif" font-size="20" font-weight="bold" lengthAdjust="spacing" textLength="22" x="707.5" y="1952.9389">36</text><text fill="#000000" font-family="sans-serif" font-size="20" lengthAdjust="spacing" textLength="106" x="733.5" y="1952.9389">vehiclesList</text><polygon fill="#181818" points="96.5,1998.0388,86.5,2002.0388,96.5,2006.0388,92.5,2002.0388" style="stroke:#181818;stroke-width:1.0;"/><line style="stroke:#181818;stroke-width:1.0;stroke-dasharray:2.0,2.0;" x1="90.5" x2="684.5" y1="2002.0388" y2="2002.0388"/><text fill="#000000" font-family="sans-serif" font-size="20" font-weight="bold" lengthAdjust="spacing" textLength="22" x="102.5" y="1994.1789">37</text><text fill="#000000" font-family="sans-serif" font-size="20" lengthAdjust="spacing" textLength="454" x="128.5" y="1994.1789">shows all registered vehicles and asks to confirm</text><polygon fill="#181818" points="668.5,2039.2788,678.5,2043.2788,668.5,2047.2788,672.5,2043.2788" style="stroke:#181818;stroke-width:1.0;"/><line style="stroke:#181818;stroke-width:1.0;" x1="85.5" x2="674.5" y1="2043.2788" y2="2043.2788"/><text fill="#000000" font-family="sans-serif" font-size="20" font-weight="bold" lengthAdjust="spacing" textLength="22" x="92.5" y="2035.4188">38</text><text fill="#000000" font-family="sans-serif" font-size="20" lengthAdjust="spacing" textLength="188" x="118.5" y="2035.4188">confirms all vehicles</text><polygon fill="#181818" points="96.5,2080.5188,86.5,2084.5188,96.5,2088.5188,92.5,2084.5188" style="stroke:#181818;stroke-width:1.0;"/><line style="stroke:#181818;stroke-width:1.0;stroke-dasharray:2.0,2.0;" x1="90.5" x2="684.5" y1="2084.5188" y2="2084.5188"/><text fill="#000000" font-family="sans-serif" font-size="20" font-weight="bold" lengthAdjust="spacing" textLength="22" x="102.5" y="2076.6588">39</text><text fill="#000000" font-family="sans-serif" font-size="20" lengthAdjust="spacing" textLength="248" x="128.5" y="2076.6588">displays operation success</text><!--SRC=[hLVVRzem47xdhpZrPL11k-qHJPCwLYOqMAUMTYz8aviSO17ir7QAs5-_YnFooqc0TRp5lllkE_kxEwCtN8HCiMqWlGtwuEEIHO4PIs4U-1-4Z-yx-c02MocajrPoYs1KX8MTa7aRji87imyG57g6YLLGDD1hviiT5ojOia1ZfyCy8nLSFE6QU-Gp3X3DGioO81Xr0Kp3qtZM8MV3FHuoOU1YU8yhhWsgrEbnOkqU9-rc8yf5oI18OKVp-wdZ44hDYGz7RMsoXVq3ZnCnKfHTLC5Z8Lo0dzERUTaZ9QDpwE52k8j9vivo6Ujdm0oEa5QMt6E6Ir66RTrF-BLPb8Ez9cGeovHMGl5sCdgStfLDGmULlDnGsGdT_XxTtiyduydePZwv-q6YYEYae-qpAlXW9S9VoTageGFfZpvWy9bk7OQ4iz5W92akkN5W8707AMNhae6GJ38CSYQ8M0cNbmJZAIIBihcLIUOGVyKkDS8W_nMQYT2aUG-xlJ9CdPAiHHtI82KrXAA-hBcFno6BHEFZJPYvOgfoj6ArIzOhPr6ZmmgNtDKDtAenud0YYNQfrl8fBEJN64WPmcxDgTbmOL3uw9VqG05ZQSLd_nAXDleW8_2POT3bLtW5NnGJVXzcqiUW3_DzY7rOY3bJsF-cfDRm2_bgRVemYfH2gedlspuS-X5y9KQn_Ott4d5AW799rsRCSeeLT3rQexU9GXXR8iBRKsn1GBhNNuYCbAsrz10B-HPLNgoKdUAqQzO8hooWz40kxLUXNDvfOCOe_XoPL7Hrg7dfd5Cthf8Qogv6Sda-BaWCdNIYoyi6mBHHsTNqe-0sZC-3qmrZYjvDJwDNyMXAejXh6WYwdRyvQEKw3-pFGsU-NmjyEa8ytg-JIVtFZdbR-3GOdD1BcgwU51S3vCAgBUyQNPuYpDRkqg3HzewKXMY7JbjbPGGMLEosn-gup0AvUmtmkV1SSbrtUlSwxJ5EE3yNz8ppQNtcd9lA8MnbMZGUwXlPKGsUIUoj4Iir-vyXBIPDpKfPdt__Uah3q9dRnqiggTZ3F3iHjwu_b9z5iLVrGPHx7MrEhGFE3NEi9-O39K-ddBYpVK87RJoGxCsZrt97upy8igSq_HSyX09wysHFRK-A9LVRKzyTgNc2VG2iVroK2FbSqnNlwPqIehBt2phoFDIw9l9V]--></g></svg>