<?xml version="1.0" encoding="us-ascii" standalone="no"?><svg xmlns="http://www.w3.org/2000/svg" xmlns:xlink="http://www.w3.org/1999/xlink" contentStyleType="text/css" height="1671px" preserveAspectRatio="none" style="width:1956px;height:1671px;background:#FFFFFF;" version="1.1" viewBox="0 0 1956 1671" width="1956px" zoomAndPan="magnify"><defs/><g><rect fill="#FFFFFF" height="1448.1641" style="stroke:#181818;stroke-width:1.0;" width="10" x="59" y="112.2422"/><rect fill="#FFFFFF" height="340.8223" style="stroke:#181818;stroke-width:1.0;" width="10" x="458" y="135.5332"/><rect fill="#FFFFFF" height="981.1777" style="stroke:#181818;stroke-width:1.0;" width="10" x="458" y="507.6465"/><rect fill="#FFFFFF" height="31.291" style="stroke:#181818;stroke-width:1.0;" width="10" x="458" y="1520.1152"/><rect fill="#FFFFFF" height="190.0762" style="stroke:#181818;stroke-width:1.0;" width="10" x="634" y="176.8242"/><rect fill="#FFFFFF" height="408.8613" style="stroke:#181818;stroke-width:1.0;" width="10" x="634" y="538.9375"/><rect fill="#FFFFFF" height="478.4434" style="stroke:#181818;stroke-width:1.0;" width="10" x="634" y="979.0898"/><rect fill="#FFFFFF" height="31.291" style="stroke:#181818;stroke-width:1.0;" width="10" x="782" y="210.4453"/><rect fill="#FFFFFF" height="31.291" style="stroke:#181818;stroke-width:1.0;" width="10" x="889" y="273.0273"/><rect fill="#FFFFFF" height="31.291" style="stroke:#181818;stroke-width:1.0;" width="10" x="889" y="335.6094"/><rect fill="#FFFFFF" height="346.2793" style="stroke:#181818;stroke-width:1.0;" width="10" x="1017" y="570.2285"/><rect fill="#FFFFFF" height="62.582" style="stroke:#181818;stroke-width:1.0;" width="10" x="1017" y="1394.9512"/><rect fill="#FFFFFF" height="353.2793" style="stroke:#181818;stroke-width:1.0;" width="10" x="1196.5" y="1010.3809"/><rect fill="#FFFFFF" height="133.8242" style="stroke:#181818;stroke-width:1.0;" width="10" x="1483.5" y="611.5195"/><rect fill="#FFFFFF" height="133.8242" style="stroke:#181818;stroke-width:1.0;" width="10" x="1658.5" y="1051.6719"/><rect fill="none" height="951.4688" style="stroke:#000000;stroke-width:1.5;" width="1940.5" x="10" y="381.9004"/><line style="stroke:#181818;stroke-width:0.5;stroke-dasharray:5.0,5.0;" x1="64" x2="64" y1="102.2422" y2="1569.4063"/><line style="stroke:#181818;stroke-width:0.5;stroke-dasharray:5.0,5.0;" x1="462.5" x2="462.5" y1="102.2422" y2="1569.4063"/><line style="stroke:#181818;stroke-width:0.5;stroke-dasharray:5.0,5.0;" x1="638.5" x2="638.5" y1="175.3438" y2="1569.4063"/><line style="stroke:#181818;stroke-width:0.5;stroke-dasharray:5.0,5.0;" x1="786.5" x2="786.5" y1="102.2422" y2="1569.4063"/><line style="stroke:#181818;stroke-width:0.5;stroke-dasharray:5.0,5.0;" x1="893.5" x2="893.5" y1="102.2422" y2="1569.4063"/><line style="stroke:#181818;stroke-width:0.5;stroke-dasharray:5.0,5.0;" x1="1021.5" x2="1021.5" y1="102.2422" y2="1569.4063"/><line style="stroke:#181818;stroke-width:0.5;stroke-dasharray:5.0,5.0;" x1="1201.5" x2="1201.5" y1="102.2422" y2="1569.4063"/><line style="stroke:#181818;stroke-width:0.5;stroke-dasharray:5.0,5.0;" x1="1488.5" x2="1488.5" y1="619.3496" y2="1569.4063"/><line style="stroke:#181818;stroke-width:0.5;stroke-dasharray:5.0,5.0;" x1="1663" x2="1663" y1="1059.502" y2="1569.4063"/><text fill="#000000" font-family="sans-serif" font-size="14" lengthAdjust="spacing" textLength="82" x="20" y="80.1074">Vehicle Fleet</text><text fill="#000000" font-family="sans-serif" font-size="14" lengthAdjust="spacing" textLength="56" x="33" y="98.7285">Manager</text><ellipse cx="64" cy="13.5" fill="#E3E3E3" rx="8" ry="8" style="stroke:#181818;stroke-width:0.5;"/><path d="M64,21.5 L64,48.5 M51,29.5 L77,29.5 M64,48.5 L51,63.5 M64,48.5 L77,63.5 " fill="none" style="stroke:#181818;stroke-width:0.5;"/><text fill="#000000" font-family="sans-serif" font-size="14" lengthAdjust="spacing" textLength="82" x="20" y="1583.5137">Vehicle Fleet</text><text fill="#000000" font-family="sans-serif" font-size="14" lengthAdjust="spacing" textLength="56" x="33" y="1602.1348">Manager</text><ellipse cx="64" cy="1614.1484" fill="#E3E3E3" rx="8" ry="8" style="stroke:#181818;stroke-width:0.5;"/><path d="M64,1622.1484 L64,1649.1484 M51,1630.1484 L77,1630.1484 M64,1649.1484 L51,1664.1484 M64,1649.1484 L77,1664.1484 " fill="none" style="stroke:#181818;stroke-width:0.5;"/><rect fill="#E3E3E3" height="32.6211" rx="2.5" ry="2.5" style="stroke:#181818;stroke-width:0.5;" width="129" x="398.5" y="68.6211"/><text fill="#000000" font-family="sans-serif" font-size="14" lengthAdjust="spacing" textLength="115" x="405.5" y="90.7285">:RegisterVehicleUI</text><rect fill="#E3E3E3" height="32.6211" rx="2.5" ry="2.5" style="stroke:#181818;stroke-width:0.5;" width="129" x="398.5" y="1568.4063"/><text fill="#000000" font-family="sans-serif" font-size="14" lengthAdjust="spacing" textLength="115" x="405.5" y="1590.5137">:RegisterVehicleUI</text><rect fill="#E3E3E3" height="32.6211" rx="2.5" ry="2.5" style="stroke:#181818;stroke-width:0.5;" width="179" x="549.5" y="1568.4063"/><text fill="#000000" font-family="sans-serif" font-size="14" lengthAdjust="spacing" textLength="165" x="556.5" y="1590.5137">:RegisterVehicleController</text><rect fill="#E3E3E3" height="32.6211" rx="2.5" ry="2.5" style="stroke:#181818;stroke-width:0.5;" width="97" x="738.5" y="68.6211"/><text fill="#000000" font-family="sans-serif" font-size="14" lengthAdjust="spacing" textLength="83" x="745.5" y="90.7285">:Repositories</text><rect fill="#E3E3E3" height="32.6211" rx="2.5" ry="2.5" style="stroke:#181818;stroke-width:0.5;" width="97" x="738.5" y="1568.4063"/><text fill="#000000" font-family="sans-serif" font-size="14" lengthAdjust="spacing" textLength="83" x="745.5" y="1590.5137">:Repositories</text><rect fill="#E3E3E3" height="51.2422" rx="2.5" ry="2.5" style="stroke:#181818;stroke-width:0.5;" width="97" x="845.5" y="50"/><text fill="#000000" font-family="sans-serif" font-size="14" lengthAdjust="spacing" textLength="74" x="857" y="72.1074">repositories</text><text fill="#000000" font-family="sans-serif" font-size="14" lengthAdjust="spacing" textLength="83" x="852.5" y="90.7285">:Repositories</text><rect fill="#E3E3E3" height="51.2422" rx="2.5" ry="2.5" style="stroke:#181818;stroke-width:0.5;" width="97" x="845.5" y="1568.4063"/><text fill="#000000" font-family="sans-serif" font-size="14" lengthAdjust="spacing" textLength="74" x="857" y="1590.5137">repositories</text><text fill="#000000" font-family="sans-serif" font-size="14" lengthAdjust="spacing" textLength="83" x="852.5" y="1609.1348">:Repositories</text><rect fill="#E3E3E3" height="51.2422" rx="2.5" ry="2.5" style="stroke:#181818;stroke-width:0.5;" width="139" x="952.5" y="50"/><text fill="#000000" font-family="sans-serif" font-size="14" lengthAdjust="spacing" textLength="125" x="959.5" y="72.1074">VehiclesRepository:</text><text fill="#000000" font-family="sans-serif" font-size="14" lengthAdjust="spacing" textLength="121" x="961.5" y="90.7285">VehiclesRepository</text><rect fill="#E3E3E3" height="51.2422" rx="2.5" ry="2.5" style="stroke:#181818;stroke-width:0.5;" width="139" x="952.5" y="1568.4063"/><text fill="#000000" font-family="sans-serif" font-size="14" lengthAdjust="spacing" textLength="125" x="959.5" y="1590.5137">VehiclesRepository:</text><text fill="#000000" font-family="sans-serif" font-size="14" lengthAdjust="spacing" textLength="121" x="961.5" y="1609.1348">VehiclesRepository</text><rect fill="#E3E3E3" height="51.2422" rx="2.5" ry="2.5" style="stroke:#181818;stroke-width:0.5;" width="200" x="1101.5" y="50"/><text fill="#000000" font-family="sans-serif" font-size="14" lengthAdjust="spacing" textLength="186" x="1108.5" y="72.1074">PlateCertificationsRepository:</text><text fill="#000000" font-family="sans-serif" font-size="14" lengthAdjust="spacing" textLength="182" x="1110.5" y="90.7285">PlateCertificationsRepository</text><rect fill="#E3E3E3" height="51.2422" rx="2.5" ry="2.5" style="stroke:#181818;stroke-width:0.5;" width="200" x="1101.5" y="1568.4063"/><text fill="#000000" font-family="sans-serif" font-size="14" lengthAdjust="spacing" textLength="186" x="1108.5" y="1590.5137">PlateCertificationsRepository:</text><text fill="#000000" font-family="sans-serif" font-size="14" lengthAdjust="spacing" textLength="182" x="1110.5" y="1609.1348">PlateCertificationsRepository</text><rect fill="#E3E3E3" height="51.2422" rx="2.5" ry="2.5" style="stroke:#181818;stroke-width:0.5;" width="64" x="1456.5" y="1568.4063"/><text fill="#000000" font-family="sans-serif" font-size="14" lengthAdjust="spacing" textLength="44" x="1466.5" y="1590.5137">vehicle</text><text fill="#000000" font-family="sans-serif" font-size="14" lengthAdjust="spacing" textLength="50" x="1463.5" y="1609.1348">:Vehicle</text><rect fill="#E3E3E3" height="51.2422" rx="2.5" ry="2.5" style="stroke:#181818;stroke-width:0.5;" width="125" x="1601" y="1568.4063"/><text fill="#000000" font-family="sans-serif" font-size="14" lengthAdjust="spacing" textLength="106" x="1610.5" y="1590.5137">plateCertification</text><text fill="#000000" font-family="sans-serif" font-size="14" lengthAdjust="spacing" textLength="111" x="1608" y="1609.1348">:PlateCertification</text><rect fill="#FFFFFF" height="1448.1641" style="stroke:#181818;stroke-width:1.0;" width="10" x="59" y="112.2422"/><rect fill="#FFFFFF" height="340.8223" style="stroke:#181818;stroke-width:1.0;" width="10" x="458" y="135.5332"/><rect fill="#FFFFFF" height="981.1777" style="stroke:#181818;stroke-width:1.0;" width="10" x="458" y="507.6465"/><rect fill="#FFFFFF" height="31.291" style="stroke:#181818;stroke-width:1.0;" width="10" x="458" y="1520.1152"/><rect fill="#FFFFFF" height="190.0762" style="stroke:#181818;stroke-width:1.0;" width="10" x="634" y="176.8242"/><rect fill="#FFFFFF" height="408.8613" style="stroke:#181818;stroke-width:1.0;" width="10" x="634" y="538.9375"/><rect fill="#FFFFFF" height="478.4434" style="stroke:#181818;stroke-width:1.0;" width="10" x="634" y="979.0898"/><rect fill="#FFFFFF" height="31.291" style="stroke:#181818;stroke-width:1.0;" width="10" x="782" y="210.4453"/><rect fill="#FFFFFF" height="31.291" style="stroke:#181818;stroke-width:1.0;" width="10" x="889" y="273.0273"/><rect fill="#FFFFFF" height="31.291" style="stroke:#181818;stroke-width:1.0;" width="10" x="889" y="335.6094"/><rect fill="#FFFFFF" height="346.2793" style="stroke:#181818;stroke-width:1.0;" width="10" x="1017" y="570.2285"/><rect fill="#FFFFFF" height="62.582" style="stroke:#181818;stroke-width:1.0;" width="10" x="1017" y="1394.9512"/><rect fill="#FFFFFF" height="353.2793" style="stroke:#181818;stroke-width:1.0;" width="10" x="1196.5" y="1010.3809"/><rect fill="#FFFFFF" height="133.8242" style="stroke:#181818;stroke-width:1.0;" width="10" x="1483.5" y="611.5195"/><rect fill="#FFFFFF" height="133.8242" style="stroke:#181818;stroke-width:1.0;" width="10" x="1658.5" y="1051.6719"/><polygon fill="#181818" points="446,131.5332,456,135.5332,446,139.5332,450,135.5332" style="stroke:#181818;stroke-width:1.0;"/><line style="stroke:#181818;stroke-width:1.0;" x1="69" x2="452" y1="135.5332" y2="135.5332"/><text fill="#000000" font-family="sans-serif" font-size="13" font-weight="bold" lengthAdjust="spacing" textLength="7" x="76" y="130.2705">1</text><text fill="#000000" font-family="sans-serif" font-size="13" lengthAdjust="spacing" textLength="171" x="87" y="130.2705">asks to register a new vehicle</text><polygon fill="#181818" points="537.5,162.8242,547.5,166.8242,537.5,170.8242,541.5,166.8242" style="stroke:#181818;stroke-width:1.0;"/><line style="stroke:#181818;stroke-width:1.0;" x1="468" x2="543.5" y1="166.8242" y2="166.8242"/><text fill="#000000" font-family="sans-serif" font-size="13" font-weight="bold" lengthAdjust="spacing" textLength="7" x="475" y="161.5615">2</text><text fill="#000000" font-family="sans-serif" font-size="13" lengthAdjust="spacing" textLength="36" x="486" y="161.5615">create</text><rect fill="#E3E3E3" height="32.6211" rx="2.5" ry="2.5" style="stroke:#181818;stroke-width:0.5;" width="179" x="549.5" y="143.5332"/><text fill="#000000" font-family="sans-serif" font-size="14" lengthAdjust="spacing" textLength="165" x="556.5" y="165.6406">:RegisterVehicleController</text><polygon fill="#181818" points="770,206.4453,780,210.4453,770,214.4453,774,210.4453" style="stroke:#181818;stroke-width:1.0;"/><line style="stroke:#181818;stroke-width:1.0;" x1="644" x2="776" y1="210.4453" y2="210.4453"/><text fill="#000000" font-family="sans-serif" font-size="13" font-weight="bold" lengthAdjust="spacing" textLength="7" x="651" y="205.1826">3</text><text fill="#000000" font-family="sans-serif" font-size="13" lengthAdjust="spacing" textLength="75" x="662" y="205.1826">getInstance()</text><polygon fill="#181818" points="655,237.7363,645,241.7363,655,245.7363,651,241.7363" style="stroke:#181818;stroke-width:1.0;"/><line style="stroke:#181818;stroke-width:1.0;stroke-dasharray:2.0,2.0;" x1="649" x2="786" y1="241.7363" y2="241.7363"/><text fill="#000000" font-family="sans-serif" font-size="13" font-weight="bold" lengthAdjust="spacing" textLength="7" x="661" y="236.4736">4</text><text fill="#000000" font-family="sans-serif" font-size="13" lengthAdjust="spacing" textLength="67" x="672" y="236.4736">repositories</text><polygon fill="#181818" points="877,269.0273,887,273.0273,877,277.0273,881,273.0273" style="stroke:#181818;stroke-width:1.0;"/><line style="stroke:#181818;stroke-width:1.0;" x1="644" x2="883" y1="273.0273" y2="273.0273"/><text fill="#000000" font-family="sans-serif" font-size="13" font-weight="bold" lengthAdjust="spacing" textLength="7" x="651" y="267.7646">5</text><text fill="#000000" font-family="sans-serif" font-size="13" lengthAdjust="spacing" textLength="138" x="662" y="267.7646">getVehiclesRepository()</text><polygon fill="#181818" points="655,300.3184,645,304.3184,655,308.3184,651,304.3184" style="stroke:#181818;stroke-width:1.0;"/><line style="stroke:#181818;stroke-width:1.0;stroke-dasharray:2.0,2.0;" x1="649" x2="893" y1="304.3184" y2="304.3184"/><text fill="#000000" font-family="sans-serif" font-size="13" font-weight="bold" lengthAdjust="spacing" textLength="7" x="661" y="299.0557">6</text><text fill="#000000" font-family="sans-serif" font-size="13" lengthAdjust="spacing" textLength="112" x="672" y="299.0557">VehiclesRepository</text><polygon fill="#181818" points="877,331.6094,887,335.6094,877,339.6094,881,335.6094" style="stroke:#181818;stroke-width:1.0;"/><line style="stroke:#181818;stroke-width:1.0;" x1="644" x2="883" y1="335.6094" y2="335.6094"/><text fill="#000000" font-family="sans-serif" font-size="13" font-weight="bold" lengthAdjust="spacing" textLength="7" x="651" y="330.3467">7</text><text fill="#000000" font-family="sans-serif" font-size="13" lengthAdjust="spacing" textLength="193" x="662" y="330.3467">getPlateCertificationsRepository()</text><polygon fill="#181818" points="650,362.9004,640,366.9004,650,370.9004,646,366.9004" style="stroke:#181818;stroke-width:1.0;"/><line style="stroke:#181818;stroke-width:1.0;stroke-dasharray:2.0,2.0;" x1="644" x2="893" y1="366.9004" y2="366.9004"/><text fill="#000000" font-family="sans-serif" font-size="13" font-weight="bold" lengthAdjust="spacing" textLength="7" x="656" y="361.6377">8</text><text fill="#000000" font-family="sans-serif" font-size="13" lengthAdjust="spacing" textLength="167" x="667" y="361.6377">PlateCertificationsRepository</text><path d="M10,381.9004 L83,381.9004 L83,391.1914 L73,401.1914 L10,401.1914 L10,381.9004 " fill="#EEEEEE" style="stroke:#000000;stroke-width:1.5;"/><rect fill="none" height="951.4688" style="stroke:#000000;stroke-width:1.5;" width="1940.5" x="10" y="381.9004"/><text fill="#000000" font-family="sans-serif" font-size="13" font-weight="bold" lengthAdjust="spacing" textLength="28" x="25" y="396.9287">loop</text><text fill="#000000" font-family="sans-serif" font-size="11" font-weight="bold" lengthAdjust="spacing" textLength="90" x="98" y="395.7705">[while intended]</text><polygon fill="#181818" points="80,472.3555,70,476.3555,80,480.3555,76,476.3555" style="stroke:#181818;stroke-width:1.0;"/><line style="stroke:#181818;stroke-width:1.0;stroke-dasharray:2.0,2.0;" x1="74" x2="462" y1="476.3555" y2="476.3555"/><text fill="#000000" font-family="sans-serif" font-size="13" font-weight="bold" lengthAdjust="spacing" textLength="7" x="86" y="445.1563">9</text><text fill="#000000" font-family="sans-serif" font-size="13" lengthAdjust="spacing" textLength="269" x="97" y="419.2197">requests vehicle data (i.e. Brand, Model, Type,</text><text fill="#000000" font-family="sans-serif" font-size="13" lengthAdjust="spacing" textLength="274" x="97" y="436.5107">Tare,Gross Weight, Current Km, Register Date,</text><text fill="#000000" font-family="sans-serif" font-size="13" lengthAdjust="spacing" textLength="354" x="97" y="453.8018">Acquisition Date, Maintenance/Checkup Frequency (in Kms),</text><text fill="#000000" font-family="sans-serif" font-size="13" lengthAdjust="spacing" textLength="75" x="101" y="471.0928">vehicle plate)</text><polygon fill="#181818" points="446,503.6465,456,507.6465,446,511.6465,450,507.6465" style="stroke:#181818;stroke-width:1.0;"/><line style="stroke:#181818;stroke-width:1.0;" x1="69" x2="452" y1="507.6465" y2="507.6465"/><text fill="#000000" font-family="sans-serif" font-size="13" font-weight="bold" lengthAdjust="spacing" textLength="14" x="76" y="502.3838">10</text><text fill="#000000" font-family="sans-serif" font-size="13" lengthAdjust="spacing" textLength="262" x="94" y="502.3838">write the values of the new vehicle's attributes</text><polygon fill="#181818" points="622,534.9375,632,538.9375,622,542.9375,626,538.9375" style="stroke:#181818;stroke-width:1.0;"/><line style="stroke:#181818;stroke-width:1.0;" x1="468" x2="628" y1="538.9375" y2="538.9375"/><text fill="#000000" font-family="sans-serif" font-size="13" font-weight="bold" lengthAdjust="spacing" textLength="14" x="475" y="533.6748">11</text><text fill="#000000" font-family="sans-serif" font-size="13" lengthAdjust="spacing" textLength="36" x="493" y="533.6748">create</text><polygon fill="#181818" points="1005,566.2285,1015,570.2285,1005,574.2285,1009,570.2285" style="stroke:#181818;stroke-width:1.0;"/><line style="stroke:#181818;stroke-width:1.0;" x1="644" x2="1011" y1="570.2285" y2="570.2285"/><text fill="#000000" font-family="sans-serif" font-size="13" font-weight="bold" lengthAdjust="spacing" textLength="14" x="651" y="564.9658">12</text><text fill="#000000" font-family="sans-serif" font-size="13" lengthAdjust="spacing" textLength="36" x="669" y="564.9658">create</text><polygon fill="#181818" points="1444.5,597.5195,1454.5,601.5195,1444.5,605.5195,1448.5,601.5195" style="stroke:#181818;stroke-width:1.0;"/><line style="stroke:#181818;stroke-width:1.0;" x1="1027" x2="1450.5" y1="601.5195" y2="601.5195"/><text fill="#000000" font-family="sans-serif" font-size="13" font-weight="bold" lengthAdjust="spacing" textLength="14" x="1034" y="596.2568">13</text><text fill="#000000" font-family="sans-serif" font-size="13" lengthAdjust="spacing" textLength="36" x="1052" y="596.2568">create</text><rect fill="#E3E3E3" height="51.2422" rx="2.5" ry="2.5" style="stroke:#181818;stroke-width:0.5;" width="64" x="1456.5" y="578.2285"/><text fill="#000000" font-family="sans-serif" font-size="14" lengthAdjust="spacing" textLength="44" x="1466.5" y="600.3359">vehicle</text><text fill="#000000" font-family="sans-serif" font-size="14" lengthAdjust="spacing" textLength="50" x="1463.5" y="618.957">:Vehicle</text><line style="stroke:#181818;stroke-width:1.0;" x1="1493.5" x2="1535.5" y1="663.7617" y2="663.7617"/><line style="stroke:#181818;stroke-width:1.0;" x1="1535.5" x2="1535.5" y1="663.7617" y2="676.7617"/><line style="stroke:#181818;stroke-width:1.0;" x1="1494.5" x2="1535.5" y1="676.7617" y2="676.7617"/><polygon fill="#181818" points="1504.5,672.7617,1494.5,676.7617,1504.5,680.7617,1500.5,676.7617" style="stroke:#181818;stroke-width:1.0;"/><text fill="#000000" font-family="sans-serif" font-size="13" font-weight="bold" lengthAdjust="spacing" textLength="14" x="1500.5" y="658.499">14</text><text fill="#000000" font-family="sans-serif" font-size="13" lengthAdjust="spacing" textLength="133" x="1518.5" y="658.499">validateVehicle(vehicle)</text><polygon fill="#181818" points="1038,704.0527,1028,708.0527,1038,712.0527,1034,708.0527" style="stroke:#181818;stroke-width:1.0;"/><line style="stroke:#181818;stroke-width:1.0;stroke-dasharray:2.0,2.0;" x1="1032" x2="1482.5" y1="708.0527" y2="708.0527"/><text fill="#000000" font-family="sans-serif" font-size="13" font-weight="bold" lengthAdjust="spacing" textLength="14" x="1044" y="702.79">15</text><text fill="#000000" font-family="sans-serif" font-size="13" lengthAdjust="spacing" textLength="39" x="1062" y="702.79">vehicle</text><line style="stroke:#181818;stroke-width:1.0;" x1="1027" x2="1069" y1="744.3438" y2="744.3438"/><line style="stroke:#181818;stroke-width:1.0;" x1="1069" x2="1069" y1="744.3438" y2="757.3438"/><line style="stroke:#181818;stroke-width:1.0;" x1="1022" x2="1069" y1="757.3438" y2="757.3438"/><polygon fill="#181818" points="1032,753.3438,1022,757.3438,1032,761.3438,1028,757.3438" style="stroke:#181818;stroke-width:1.0;"/><text fill="#000000" font-family="sans-serif" font-size="13" font-weight="bold" lengthAdjust="spacing" textLength="14" x="1034" y="739.0811">16</text><text fill="#000000" font-family="sans-serif" font-size="13" lengthAdjust="spacing" textLength="133" x="1052" y="739.0811">validateVehicle(vehicle)</text><line style="stroke:#181818;stroke-width:1.0;" x1="1027" x2="1069" y1="783.6348" y2="783.6348"/><line style="stroke:#181818;stroke-width:1.0;" x1="1069" x2="1069" y1="783.6348" y2="796.6348"/><line style="stroke:#181818;stroke-width:1.0;" x1="1028" x2="1069" y1="796.6348" y2="796.6348"/><polygon fill="#181818" points="1038,792.6348,1028,796.6348,1038,800.6348,1034,796.6348" style="stroke:#181818;stroke-width:1.0;"/><text fill="#000000" font-family="sans-serif" font-size="13" font-weight="bold" lengthAdjust="spacing" textLength="14" x="1034" y="778.3721">17</text><text fill="#000000" font-family="sans-serif" font-size="13" lengthAdjust="spacing" textLength="111" x="1052" y="778.3721">addVehicle(vehicle)</text><line style="stroke:#181818;stroke-width:1.0;" x1="1027" x2="1069" y1="827.9258" y2="827.9258"/><line style="stroke:#181818;stroke-width:1.0;" x1="1069" x2="1069" y1="827.9258" y2="840.9258"/><line style="stroke:#181818;stroke-width:1.0;" x1="1028" x2="1069" y1="840.9258" y2="840.9258"/><polygon fill="#181818" points="1038,836.9258,1028,840.9258,1038,844.9258,1034,840.9258" style="stroke:#181818;stroke-width:1.0;"/><text fill="#000000" font-family="sans-serif" font-size="13" font-weight="bold" lengthAdjust="spacing" textLength="14" x="1034" y="822.6631">18</text><text fill="#000000" font-family="sans-serif" font-size="13" lengthAdjust="spacing" textLength="53" x="1052" y="822.6631">true/false</text><line style="stroke:#181818;stroke-width:1.0;" x1="1027" x2="1069" y1="872.2168" y2="872.2168"/><line style="stroke:#181818;stroke-width:1.0;" x1="1069" x2="1069" y1="872.2168" y2="885.2168"/><line style="stroke:#181818;stroke-width:1.0;" x1="1028" x2="1069" y1="885.2168" y2="885.2168"/><polygon fill="#181818" points="1038,881.2168,1028,885.2168,1038,889.2168,1034,885.2168" style="stroke:#181818;stroke-width:1.0;"/><text fill="#000000" font-family="sans-serif" font-size="13" font-weight="bold" lengthAdjust="spacing" textLength="14" x="1034" y="866.9541">19</text><text fill="#000000" font-family="sans-serif" font-size="13" lengthAdjust="spacing" textLength="53" x="1052" y="866.9541">true/false</text><polygon fill="#181818" points="655,912.5078,645,916.5078,655,920.5078,651,916.5078" style="stroke:#181818;stroke-width:1.0;"/><line style="stroke:#181818;stroke-width:1.0;stroke-dasharray:2.0,2.0;" x1="649" x2="1021" y1="916.5078" y2="916.5078"/><text fill="#000000" font-family="sans-serif" font-size="13" font-weight="bold" lengthAdjust="spacing" textLength="14" x="661" y="911.2451">20</text><text fill="#000000" font-family="sans-serif" font-size="13" lengthAdjust="spacing" textLength="4" x="679" y="911.2451">&#160;</text><polygon fill="#181818" points="479,943.7988,469,947.7988,479,951.7988,475,947.7988" style="stroke:#181818;stroke-width:1.0;"/><line style="stroke:#181818;stroke-width:1.0;stroke-dasharray:2.0,2.0;" x1="473" x2="638" y1="947.7988" y2="947.7988"/><text fill="#000000" font-family="sans-serif" font-size="13" font-weight="bold" lengthAdjust="spacing" textLength="14" x="485" y="942.5361">21</text><text fill="#000000" font-family="sans-serif" font-size="13" lengthAdjust="spacing" textLength="4" x="503" y="942.5361">&#160;</text><polygon fill="#181818" points="622,975.0898,632,979.0898,622,983.0898,626,979.0898" style="stroke:#181818;stroke-width:1.0;"/><line style="stroke:#181818;stroke-width:1.0;" x1="468" x2="628" y1="979.0898" y2="979.0898"/><text fill="#000000" font-family="sans-serif" font-size="13" font-weight="bold" lengthAdjust="spacing" textLength="14" x="475" y="973.8271">22</text><text fill="#000000" font-family="sans-serif" font-size="13" lengthAdjust="spacing" textLength="36" x="493" y="973.8271">create</text><polygon fill="#181818" points="1184.5,1006.3809,1194.5,1010.3809,1184.5,1014.3809,1188.5,1010.3809" style="stroke:#181818;stroke-width:1.0;"/><line style="stroke:#181818;stroke-width:1.0;" x1="644" x2="1190.5" y1="1010.3809" y2="1010.3809"/><text fill="#000000" font-family="sans-serif" font-size="13" font-weight="bold" lengthAdjust="spacing" textLength="14" x="651" y="1005.1182">23</text><text fill="#000000" font-family="sans-serif" font-size="13" lengthAdjust="spacing" textLength="36" x="669" y="1005.1182">create</text><polygon fill="#181818" points="1589,1037.6719,1599,1041.6719,1589,1045.6719,1593,1041.6719" style="stroke:#181818;stroke-width:1.0;"/><line style="stroke:#181818;stroke-width:1.0;" x1="1206.5" x2="1595" y1="1041.6719" y2="1041.6719"/><text fill="#000000" font-family="sans-serif" font-size="13" font-weight="bold" lengthAdjust="spacing" textLength="14" x="1213.5" y="1036.4092">24</text><text fill="#000000" font-family="sans-serif" font-size="13" lengthAdjust="spacing" textLength="36" x="1231.5" y="1036.4092">create</text><rect fill="#E3E3E3" height="51.2422" rx="2.5" ry="2.5" style="stroke:#181818;stroke-width:0.5;" width="125" x="1601" y="1018.3809"/><text fill="#000000" font-family="sans-serif" font-size="14" lengthAdjust="spacing" textLength="106" x="1610.5" y="1040.4883">plateCertification</text><text fill="#000000" font-family="sans-serif" font-size="14" lengthAdjust="spacing" textLength="111" x="1608" y="1059.1094">:PlateCertification</text><line style="stroke:#181818;stroke-width:1.0;" x1="1668.5" x2="1710.5" y1="1103.9141" y2="1103.9141"/><line style="stroke:#181818;stroke-width:1.0;" x1="1710.5" x2="1710.5" y1="1103.9141" y2="1116.9141"/><line style="stroke:#181818;stroke-width:1.0;" x1="1669.5" x2="1710.5" y1="1116.9141" y2="1116.9141"/><polygon fill="#181818" points="1679.5,1112.9141,1669.5,1116.9141,1679.5,1120.9141,1675.5,1116.9141" style="stroke:#181818;stroke-width:1.0;"/><text fill="#000000" font-family="sans-serif" font-size="13" font-weight="bold" lengthAdjust="spacing" textLength="14" x="1675.5" y="1098.6514">25</text><text fill="#000000" font-family="sans-serif" font-size="13" lengthAdjust="spacing" textLength="245" x="1693.5" y="1098.6514">validatePlateCertification(plateCertification)</text><polygon fill="#181818" points="1217.5,1144.2051,1207.5,1148.2051,1217.5,1152.2051,1213.5,1148.2051" style="stroke:#181818;stroke-width:1.0;"/><line style="stroke:#181818;stroke-width:1.0;stroke-dasharray:2.0,2.0;" x1="1211.5" x2="1657.5" y1="1148.2051" y2="1148.2051"/><text fill="#000000" font-family="sans-serif" font-size="13" font-weight="bold" lengthAdjust="spacing" textLength="14" x="1223.5" y="1142.9424">26</text><text fill="#000000" font-family="sans-serif" font-size="13" lengthAdjust="spacing" textLength="96" x="1241.5" y="1142.9424">plateCertification</text><line style="stroke:#181818;stroke-width:1.0;" x1="1206.5" x2="1248.5" y1="1184.4961" y2="1184.4961"/><line style="stroke:#181818;stroke-width:1.0;" x1="1248.5" x2="1248.5" y1="1184.4961" y2="1197.4961"/><line style="stroke:#181818;stroke-width:1.0;" x1="1201.5" x2="1248.5" y1="1197.4961" y2="1197.4961"/><polygon fill="#181818" points="1211.5,1193.4961,1201.5,1197.4961,1211.5,1201.4961,1207.5,1197.4961" style="stroke:#181818;stroke-width:1.0;"/><text fill="#000000" font-family="sans-serif" font-size="13" font-weight="bold" lengthAdjust="spacing" textLength="14" x="1213.5" y="1179.2334">27</text><text fill="#000000" font-family="sans-serif" font-size="13" lengthAdjust="spacing" textLength="245" x="1231.5" y="1179.2334">validatePlateCertification(plateCertification)</text><line style="stroke:#181818;stroke-width:1.0;" x1="1206.5" x2="1248.5" y1="1223.7871" y2="1223.7871"/><line style="stroke:#181818;stroke-width:1.0;" x1="1248.5" x2="1248.5" y1="1223.7871" y2="1236.7871"/><line style="stroke:#181818;stroke-width:1.0;" x1="1207.5" x2="1248.5" y1="1236.7871" y2="1236.7871"/><polygon fill="#181818" points="1217.5,1232.7871,1207.5,1236.7871,1217.5,1240.7871,1213.5,1236.7871" style="stroke:#181818;stroke-width:1.0;"/><text fill="#000000" font-family="sans-serif" font-size="13" font-weight="bold" lengthAdjust="spacing" textLength="14" x="1213.5" y="1218.5244">28</text><text fill="#000000" font-family="sans-serif" font-size="13" lengthAdjust="spacing" textLength="223" x="1231.5" y="1218.5244">addPlateCertification(plateCertification)</text><line style="stroke:#181818;stroke-width:1.0;" x1="1206.5" x2="1248.5" y1="1268.0781" y2="1268.0781"/><line style="stroke:#181818;stroke-width:1.0;" x1="1248.5" x2="1248.5" y1="1268.0781" y2="1281.0781"/><line style="stroke:#181818;stroke-width:1.0;" x1="1207.5" x2="1248.5" y1="1281.0781" y2="1281.0781"/><polygon fill="#181818" points="1217.5,1277.0781,1207.5,1281.0781,1217.5,1285.0781,1213.5,1281.0781" style="stroke:#181818;stroke-width:1.0;"/><text fill="#000000" font-family="sans-serif" font-size="13" font-weight="bold" lengthAdjust="spacing" textLength="14" x="1213.5" y="1262.8154">29</text><text fill="#000000" font-family="sans-serif" font-size="13" lengthAdjust="spacing" textLength="53" x="1231.5" y="1262.8154">true/false</text><line style="stroke:#181818;stroke-width:1.0;" x1="1206.5" x2="1248.5" y1="1312.3691" y2="1312.3691"/><line style="stroke:#181818;stroke-width:1.0;" x1="1248.5" x2="1248.5" y1="1312.3691" y2="1325.3691"/><line style="stroke:#181818;stroke-width:1.0;" x1="1207.5" x2="1248.5" y1="1325.3691" y2="1325.3691"/><polygon fill="#181818" points="1217.5,1321.3691,1207.5,1325.3691,1217.5,1329.3691,1213.5,1325.3691" style="stroke:#181818;stroke-width:1.0;"/><text fill="#000000" font-family="sans-serif" font-size="13" font-weight="bold" lengthAdjust="spacing" textLength="14" x="1213.5" y="1307.1064">30</text><text fill="#000000" font-family="sans-serif" font-size="13" lengthAdjust="spacing" textLength="53" x="1231.5" y="1307.1064">true/false</text><polygon fill="#181818" points="655,1359.6602,645,1363.6602,655,1367.6602,651,1363.6602" style="stroke:#181818;stroke-width:1.0;"/><line style="stroke:#181818;stroke-width:1.0;stroke-dasharray:2.0,2.0;" x1="649" x2="1200.5" y1="1363.6602" y2="1363.6602"/><text fill="#000000" font-family="sans-serif" font-size="13" font-weight="bold" lengthAdjust="spacing" textLength="14" x="661" y="1358.3975">31</text><text fill="#000000" font-family="sans-serif" font-size="13" lengthAdjust="spacing" textLength="124" x="679" y="1358.3975">plateCertificationsList</text><polygon fill="#181818" points="479,1390.9512,469,1394.9512,479,1398.9512,475,1394.9512" style="stroke:#181818;stroke-width:1.0;"/><line style="stroke:#181818;stroke-width:1.0;stroke-dasharray:2.0,2.0;" x1="473" x2="633" y1="1394.9512" y2="1394.9512"/><text fill="#000000" font-family="sans-serif" font-size="13" font-weight="bold" lengthAdjust="spacing" textLength="14" x="485" y="1389.6885">32</text><text fill="#000000" font-family="sans-serif" font-size="13" lengthAdjust="spacing" textLength="124" x="503" y="1389.6885">plateCertificationsList</text><polygon fill="#181818" points="655,1422.2422,645,1426.2422,655,1430.2422,651,1426.2422" style="stroke:#181818;stroke-width:1.0;"/><line style="stroke:#181818;stroke-width:1.0;stroke-dasharray:2.0,2.0;" x1="649" x2="1016" y1="1426.2422" y2="1426.2422"/><text fill="#000000" font-family="sans-serif" font-size="13" font-weight="bold" lengthAdjust="spacing" textLength="14" x="661" y="1420.9795">33</text><text fill="#000000" font-family="sans-serif" font-size="13" lengthAdjust="spacing" textLength="67" x="679" y="1420.9795">vehiclesList</text><polygon fill="#181818" points="479,1453.5332,469,1457.5332,479,1461.5332,475,1457.5332" style="stroke:#181818;stroke-width:1.0;"/><line style="stroke:#181818;stroke-width:1.0;stroke-dasharray:2.0,2.0;" x1="473" x2="638" y1="1457.5332" y2="1457.5332"/><text fill="#000000" font-family="sans-serif" font-size="13" font-weight="bold" lengthAdjust="spacing" textLength="14" x="485" y="1452.2705">34</text><text fill="#000000" font-family="sans-serif" font-size="13" lengthAdjust="spacing" textLength="67" x="503" y="1452.2705">vehiclesList</text><polygon fill="#181818" points="80,1484.8242,70,1488.8242,80,1492.8242,76,1488.8242" style="stroke:#181818;stroke-width:1.0;"/><line style="stroke:#181818;stroke-width:1.0;stroke-dasharray:2.0,2.0;" x1="74" x2="462" y1="1488.8242" y2="1488.8242"/><text fill="#000000" font-family="sans-serif" font-size="13" font-weight="bold" lengthAdjust="spacing" textLength="14" x="86" y="1483.5615">35</text><text fill="#000000" font-family="sans-serif" font-size="13" lengthAdjust="spacing" textLength="283" x="104" y="1483.5615">shows all registered vehicles and asks to confirm</text><polygon fill="#181818" points="446,1516.1152,456,1520.1152,446,1524.1152,450,1520.1152" style="stroke:#181818;stroke-width:1.0;"/><line style="stroke:#181818;stroke-width:1.0;" x1="69" x2="452" y1="1520.1152" y2="1520.1152"/><text fill="#000000" font-family="sans-serif" font-size="13" font-weight="bold" lengthAdjust="spacing" textLength="14" x="76" y="1514.8525">36</text><text fill="#000000" font-family="sans-serif" font-size="13" lengthAdjust="spacing" textLength="116" x="94" y="1514.8525">confirms all vehicles</text><polygon fill="#181818" points="80,1547.4063,70,1551.4063,80,1555.4063,76,1551.4063" style="stroke:#181818;stroke-width:1.0;"/><line style="stroke:#181818;stroke-width:1.0;stroke-dasharray:2.0,2.0;" x1="74" x2="462" y1="1551.4063" y2="1551.4063"/><text fill="#000000" font-family="sans-serif" font-size="13" font-weight="bold" lengthAdjust="spacing" textLength="14" x="86" y="1546.1436">37</text><text fill="#000000" font-family="sans-serif" font-size="13" lengthAdjust="spacing" textLength="158" x="104" y="1546.1436">displays operation success</text><!--SRC=[hLPDJnin4BtdLuouaA04r6jKLQ9RgA92GJJGIwJAx0w9bOszs5wY_FlEUhtV7snASujtvitp-Fbvz9QBY2csWvqKqjyekKCmAiQHphz4pD-oDVuoXn11eM-OM8Vb0BrXWTnpiOON5ceSZPXlf8AJ9znmdtAkGqIp4hTC48mw0QRXwVfsHCc6-pnYmi39_07NN1jKBkbnOUCU5_rXdXH6oJ1qiDxouQQH44dDYGz7RMFoXSCldcp4I55DKQMCbMW2tDzSBgiPZemkeEShqLnCTzvOhcBTXyoWXxJomdrck1HLsDxlAR- -Y6gnjvGCxTBHIYbUBRp7cxjgQDH0fQncgRn3Lt-yguVbudhXNIuNTpz9535rEjuzeu9FLYByZPAj4aRWVlG7Pb_er65EE5iDHfBYqXC71WBtu2ZRb1o4P99ZK39194euEoCONo55LCEjJFA4v5-IqY8Cob-ZMGXDclTnFAd2j2d9HhGXpHofEPJrPSC3V1-oJ3HfRygiAQOwHojMksIp2XOjEgnnALARXNirHXm6akYNQYkVqa9nZA6K4UmtdCo62uCYmA2Y1ogOI2lf_MkCskXCHX0mms3Cp_4SlYecWYdSoW33AImF4KvX9PPCuVIxabh3R-JhZPc25ok5T2T-xAQG-H5y8qP9_AN_6dFQ0Et5hTqooobHq8MtGNyRHt1jYGZ_GBK50Ud9T2LoKlQkkIQMzbjMUVccx1MdhsQ3yCP2sXx85_klT5rEDJ1Z57-EZHDT6sfnTOwvDqqbTLox5idbOASjA0bsQaLdPncY2nlxwHdG4L3VMD5ps_9TqV59qR5X1MgKdHNQLVUdb3PFEiw34Y_NxqajewjDPJVh8DXyMxgBrWIJiJyEdGL1A_1mX6I0k4XdWNzEB8pdysmsmAswn4MQJW0AwROQI8loXqY_rxywRa6_vzdOqtvSvyIr5xQGS3Dx_6ozZQxAphgRISpD9CwsJfpD6HjzpXvRUusS3LdV_X2XbkUWFXvadMtvrW5VN8EM_JQdbScelyQ0qso25f3lzgTth3jsArdPsklOsTGFiYD7E9BOHolM7EG_GrfCcX9g9dFy-UiRkYsDEUNz2vxwH_P-T-4EUprxFB9uO0gYrTADpmCSjTD0yobBR-IU1eumpFq4WxmKa1FbmxqlnGjNkw6JZWjFiJF0zd6cGYZWcffyeCaeGcKx33hsVTIwfV9V]--></g></svg>