<?xml version="1.0" encoding="us-ascii" standalone="no"?><svg xmlns="http://www.w3.org/2000/svg" xmlns:xlink="http://www.w3.org/1999/xlink" contentStyleType="text/css" height="921px" preserveAspectRatio="none" style="width:1024px;height:921px;background:#FFFFFF;" version="1.1" viewBox="0 0 1024 921" width="1024px" zoomAndPan="magnify"><defs/><g><rect fill="#FFFFFF" height="372.5703" style="stroke:#181818;stroke-width:1.0;" width="10" x="89" y="90.5332"/><rect fill="#FFFFFF" height="31.291" style="stroke:#181818;stroke-width:1.0;" width="10" x="89" y="816.3828"/><rect fill="#FFFFFF" height="133.8242" style="stroke:#181818;stroke-width:1.0;" width="10" x="264" y="158.1152"/><rect fill="#FFFFFF" height="353.2793" style="stroke:#181818;stroke-width:1.0;" width="10" x="439" y="463.1035"/><rect fill="#FFFFFF" height="133.8242" style="stroke:#181818;stroke-width:1.0;" width="10" x="726" y="504.3945"/><rect fill="none" height="680.5586" style="stroke:#000000;stroke-width:1.5;" width="1015" x="3" y="105.5332"/><line style="stroke:#181818;stroke-width:0.5;stroke-dasharray:5.0,5.0;" x1="93.5" x2="93.5" y1="57.2422" y2="865.6738"/><line style="stroke:#181818;stroke-width:0.5;stroke-dasharray:5.0,5.0;" x1="269" x2="269" y1="165.9453" y2="865.6738"/><line style="stroke:#181818;stroke-width:0.5;stroke-dasharray:5.0,5.0;" x1="444" x2="444" y1="57.2422" y2="865.6738"/><line style="stroke:#181818;stroke-width:0.5;stroke-dasharray:5.0,5.0;" x1="730.5" x2="730.5" y1="512.2246" y2="865.6738"/><rect fill="#E3E3E3" height="51.2422" rx="2.5" ry="2.5" style="stroke:#181818;stroke-width:0.5;" width="139" x="24.5" y="5"/><text fill="#000000" font-family="sans-serif" font-size="14" lengthAdjust="spacing" textLength="125" x="31.5" y="27.1074">VehiclesRepository:</text><text fill="#000000" font-family="sans-serif" font-size="14" lengthAdjust="spacing" textLength="121" x="33.5" y="45.7285">VehiclesRepository</text><rect fill="#E3E3E3" height="51.2422" rx="2.5" ry="2.5" style="stroke:#181818;stroke-width:0.5;" width="139" x="24.5" y="864.6738"/><text fill="#000000" font-family="sans-serif" font-size="14" lengthAdjust="spacing" textLength="125" x="31.5" y="886.7813">VehiclesRepository:</text><text fill="#000000" font-family="sans-serif" font-size="14" lengthAdjust="spacing" textLength="121" x="33.5" y="905.4023">VehiclesRepository</text><rect fill="#E3E3E3" height="51.2422" rx="2.5" ry="2.5" style="stroke:#181818;stroke-width:0.5;" width="64" x="237" y="864.6738"/><text fill="#000000" font-family="sans-serif" font-size="14" lengthAdjust="spacing" textLength="44" x="247" y="886.7813">vehicle</text><text fill="#000000" font-family="sans-serif" font-size="14" lengthAdjust="spacing" textLength="50" x="244" y="905.4023">:Vehicle</text><rect fill="#E3E3E3" height="51.2422" rx="2.5" ry="2.5" style="stroke:#181818;stroke-width:0.5;" width="200" x="344" y="5"/><text fill="#000000" font-family="sans-serif" font-size="14" lengthAdjust="spacing" textLength="186" x="351" y="27.1074">PlateCertificationsRepository:</text><text fill="#000000" font-family="sans-serif" font-size="14" lengthAdjust="spacing" textLength="182" x="353" y="45.7285">PlateCertificationsRepository</text><rect fill="#E3E3E3" height="51.2422" rx="2.5" ry="2.5" style="stroke:#181818;stroke-width:0.5;" width="200" x="344" y="864.6738"/><text fill="#000000" font-family="sans-serif" font-size="14" lengthAdjust="spacing" textLength="186" x="351" y="886.7813">PlateCertificationsRepository:</text><text fill="#000000" font-family="sans-serif" font-size="14" lengthAdjust="spacing" textLength="182" x="353" y="905.4023">PlateCertificationsRepository</text><rect fill="#E3E3E3" height="51.2422" rx="2.5" ry="2.5" style="stroke:#181818;stroke-width:0.5;" width="125" x="668.5" y="864.6738"/><text fill="#000000" font-family="sans-serif" font-size="14" lengthAdjust="spacing" textLength="106" x="678" y="886.7813">plateCertification</text><text fill="#000000" font-family="sans-serif" font-size="14" lengthAdjust="spacing" textLength="111" x="675.5" y="905.4023">:PlateCertification</text><rect fill="#FFFFFF" height="372.5703" style="stroke:#181818;stroke-width:1.0;" width="10" x="89" y="90.5332"/><rect fill="#FFFFFF" height="31.291" style="stroke:#181818;stroke-width:1.0;" width="10" x="89" y="816.3828"/><rect fill="#FFFFFF" height="133.8242" style="stroke:#181818;stroke-width:1.0;" width="10" x="264" y="158.1152"/><rect fill="#FFFFFF" height="353.2793" style="stroke:#181818;stroke-width:1.0;" width="10" x="439" y="463.1035"/><rect fill="#FFFFFF" height="133.8242" style="stroke:#181818;stroke-width:1.0;" width="10" x="726" y="504.3945"/><polygon fill="#181818" points="77,86.5332,87,90.5332,77,94.5332,81,90.5332" style="stroke:#181818;stroke-width:1.0;"/><line style="stroke:#181818;stroke-width:1.0;" x1="0" x2="83" y1="90.5332" y2="90.5332"/><text fill="#000000" font-family="sans-serif" font-size="13" font-weight="bold" lengthAdjust="spacing" textLength="14" x="7" y="85.2705">12</text><text fill="#000000" font-family="sans-serif" font-size="13" lengthAdjust="spacing" textLength="36" x="25" y="85.2705">create</text><path d="M3,105.5332 L142,105.5332 L142,114.8242 L132,124.8242 L3,124.8242 L3,105.5332 " fill="#EEEEEE" style="stroke:#000000;stroke-width:1.5;"/><rect fill="none" height="680.5586" style="stroke:#000000;stroke-width:1.5;" width="1015" x="3" y="105.5332"/><text fill="#000000" font-family="sans-serif" font-size="13" font-weight="bold" lengthAdjust="spacing" textLength="94" x="18" y="120.5615">Create Vehicle</text><polygon fill="#181818" points="225,144.1152,235,148.1152,225,152.1152,229,148.1152" style="stroke:#181818;stroke-width:1.0;"/><line style="stroke:#181818;stroke-width:1.0;" x1="99" x2="231" y1="148.1152" y2="148.1152"/><text fill="#000000" font-family="sans-serif" font-size="13" font-weight="bold" lengthAdjust="spacing" textLength="14" x="106" y="142.8525">13</text><text fill="#000000" font-family="sans-serif" font-size="13" lengthAdjust="spacing" textLength="36" x="124" y="142.8525">create</text><rect fill="#E3E3E3" height="51.2422" rx="2.5" ry="2.5" style="stroke:#181818;stroke-width:0.5;" width="64" x="237" y="124.8242"/><text fill="#000000" font-family="sans-serif" font-size="14" lengthAdjust="spacing" textLength="44" x="247" y="146.9316">vehicle</text><text fill="#000000" font-family="sans-serif" font-size="14" lengthAdjust="spacing" textLength="50" x="244" y="165.5527">:Vehicle</text><line style="stroke:#181818;stroke-width:1.0;" x1="274" x2="316" y1="210.3574" y2="210.3574"/><line style="stroke:#181818;stroke-width:1.0;" x1="316" x2="316" y1="210.3574" y2="223.3574"/><line style="stroke:#181818;stroke-width:1.0;" x1="275" x2="316" y1="223.3574" y2="223.3574"/><polygon fill="#181818" points="285,219.3574,275,223.3574,285,227.3574,281,223.3574" style="stroke:#181818;stroke-width:1.0;"/><text fill="#000000" font-family="sans-serif" font-size="13" font-weight="bold" lengthAdjust="spacing" textLength="14" x="281" y="205.0947">14</text><text fill="#000000" font-family="sans-serif" font-size="13" lengthAdjust="spacing" textLength="133" x="299" y="205.0947">validateVehicle(vehicle)</text><polygon fill="#181818" points="110,250.6484,100,254.6484,110,258.6484,106,254.6484" style="stroke:#181818;stroke-width:1.0;"/><line style="stroke:#181818;stroke-width:1.0;stroke-dasharray:2.0,2.0;" x1="104" x2="263" y1="254.6484" y2="254.6484"/><text fill="#000000" font-family="sans-serif" font-size="13" font-weight="bold" lengthAdjust="spacing" textLength="14" x="116" y="249.3857">15</text><text fill="#000000" font-family="sans-serif" font-size="13" lengthAdjust="spacing" textLength="39" x="134" y="249.3857">vehicle</text><line style="stroke:#181818;stroke-width:1.0;" x1="99" x2="141" y1="290.9395" y2="290.9395"/><line style="stroke:#181818;stroke-width:1.0;" x1="141" x2="141" y1="290.9395" y2="303.9395"/><line style="stroke:#181818;stroke-width:1.0;" x1="94" x2="141" y1="303.9395" y2="303.9395"/><polygon fill="#181818" points="104,299.9395,94,303.9395,104,307.9395,100,303.9395" style="stroke:#181818;stroke-width:1.0;"/><text fill="#000000" font-family="sans-serif" font-size="13" font-weight="bold" lengthAdjust="spacing" textLength="14" x="106" y="285.6768">16</text><text fill="#000000" font-family="sans-serif" font-size="13" lengthAdjust="spacing" textLength="133" x="124" y="285.6768">validateVehicle(vehicle)</text><line style="stroke:#181818;stroke-width:1.0;" x1="99" x2="141" y1="330.2305" y2="330.2305"/><line style="stroke:#181818;stroke-width:1.0;" x1="141" x2="141" y1="330.2305" y2="343.2305"/><line style="stroke:#181818;stroke-width:1.0;" x1="100" x2="141" y1="343.2305" y2="343.2305"/><polygon fill="#181818" points="110,339.2305,100,343.2305,110,347.2305,106,343.2305" style="stroke:#181818;stroke-width:1.0;"/><text fill="#000000" font-family="sans-serif" font-size="13" font-weight="bold" lengthAdjust="spacing" textLength="14" x="106" y="324.9678">17</text><text fill="#000000" font-family="sans-serif" font-size="13" lengthAdjust="spacing" textLength="111" x="124" y="324.9678">addVehicle(vehicle)</text><line style="stroke:#181818;stroke-width:1.0;" x1="99" x2="141" y1="374.5215" y2="374.5215"/><line style="stroke:#181818;stroke-width:1.0;" x1="141" x2="141" y1="374.5215" y2="387.5215"/><line style="stroke:#181818;stroke-width:1.0;" x1="100" x2="141" y1="387.5215" y2="387.5215"/><polygon fill="#181818" points="110,383.5215,100,387.5215,110,391.5215,106,387.5215" style="stroke:#181818;stroke-width:1.0;"/><text fill="#000000" font-family="sans-serif" font-size="13" font-weight="bold" lengthAdjust="spacing" textLength="14" x="106" y="369.2588">18</text><text fill="#000000" font-family="sans-serif" font-size="13" lengthAdjust="spacing" textLength="53" x="124" y="369.2588">true/false</text><line style="stroke:#181818;stroke-width:1.0;" x1="99" x2="141" y1="418.8125" y2="418.8125"/><line style="stroke:#181818;stroke-width:1.0;" x1="141" x2="141" y1="418.8125" y2="431.8125"/><line style="stroke:#181818;stroke-width:1.0;" x1="100" x2="141" y1="431.8125" y2="431.8125"/><polygon fill="#181818" points="110,427.8125,100,431.8125,110,435.8125,106,431.8125" style="stroke:#181818;stroke-width:1.0;"/><text fill="#000000" font-family="sans-serif" font-size="13" font-weight="bold" lengthAdjust="spacing" textLength="14" x="106" y="413.5498">19</text><text fill="#000000" font-family="sans-serif" font-size="13" lengthAdjust="spacing" textLength="53" x="124" y="413.5498">true/false</text><polygon fill="#181818" points="427,459.1035,437,463.1035,427,467.1035,431,463.1035" style="stroke:#181818;stroke-width:1.0;"/><line style="stroke:#181818;stroke-width:1.0;" x1="0" x2="433" y1="463.1035" y2="463.1035"/><text fill="#000000" font-family="sans-serif" font-size="13" font-weight="bold" lengthAdjust="spacing" textLength="14" x="7" y="457.8408">20</text><text fill="#000000" font-family="sans-serif" font-size="13" lengthAdjust="spacing" textLength="36" x="25" y="457.8408">create</text><polygon fill="#181818" points="656.5,490.3945,666.5,494.3945,656.5,498.3945,660.5,494.3945" style="stroke:#181818;stroke-width:1.0;"/><line style="stroke:#181818;stroke-width:1.0;" x1="449" x2="662.5" y1="494.3945" y2="494.3945"/><text fill="#000000" font-family="sans-serif" font-size="13" font-weight="bold" lengthAdjust="spacing" textLength="14" x="456" y="489.1318">21</text><text fill="#000000" font-family="sans-serif" font-size="13" lengthAdjust="spacing" textLength="36" x="474" y="489.1318">create</text><rect fill="#E3E3E3" height="51.2422" rx="2.5" ry="2.5" style="stroke:#181818;stroke-width:0.5;" width="125" x="668.5" y="471.1035"/><text fill="#000000" font-family="sans-serif" font-size="14" lengthAdjust="spacing" textLength="106" x="678" y="493.2109">plateCertification</text><text fill="#000000" font-family="sans-serif" font-size="14" lengthAdjust="spacing" textLength="111" x="675.5" y="511.832">:PlateCertification</text><line style="stroke:#181818;stroke-width:1.0;" x1="736" x2="778" y1="556.6367" y2="556.6367"/><line style="stroke:#181818;stroke-width:1.0;" x1="778" x2="778" y1="556.6367" y2="569.6367"/><line style="stroke:#181818;stroke-width:1.0;" x1="737" x2="778" y1="569.6367" y2="569.6367"/><polygon fill="#181818" points="747,565.6367,737,569.6367,747,573.6367,743,569.6367" style="stroke:#181818;stroke-width:1.0;"/><text fill="#000000" font-family="sans-serif" font-size="13" font-weight="bold" lengthAdjust="spacing" textLength="14" x="743" y="551.374">22</text><text fill="#000000" font-family="sans-serif" font-size="13" lengthAdjust="spacing" textLength="245" x="761" y="551.374">validatePlateCertification(plateCertification)</text><polygon fill="#181818" points="460,596.9277,450,600.9277,460,604.9277,456,600.9277" style="stroke:#181818;stroke-width:1.0;"/><line style="stroke:#181818;stroke-width:1.0;stroke-dasharray:2.0,2.0;" x1="454" x2="725" y1="600.9277" y2="600.9277"/><text fill="#000000" font-family="sans-serif" font-size="13" font-weight="bold" lengthAdjust="spacing" textLength="14" x="466" y="595.665">23</text><text fill="#000000" font-family="sans-serif" font-size="13" lengthAdjust="spacing" textLength="96" x="484" y="595.665">plateCertification</text><line style="stroke:#181818;stroke-width:1.0;" x1="449" x2="491" y1="637.2188" y2="637.2188"/><line style="stroke:#181818;stroke-width:1.0;" x1="491" x2="491" y1="637.2188" y2="650.2188"/><line style="stroke:#181818;stroke-width:1.0;" x1="444" x2="491" y1="650.2188" y2="650.2188"/><polygon fill="#181818" points="454,646.2188,444,650.2188,454,654.2188,450,650.2188" style="stroke:#181818;stroke-width:1.0;"/><text fill="#000000" font-family="sans-serif" font-size="13" font-weight="bold" lengthAdjust="spacing" textLength="14" x="456" y="631.9561">24</text><text fill="#000000" font-family="sans-serif" font-size="13" lengthAdjust="spacing" textLength="245" x="474" y="631.9561">validatePlateCertification(plateCertification)</text><line style="stroke:#181818;stroke-width:1.0;" x1="449" x2="491" y1="676.5098" y2="676.5098"/><line style="stroke:#181818;stroke-width:1.0;" x1="491" x2="491" y1="676.5098" y2="689.5098"/><line style="stroke:#181818;stroke-width:1.0;" x1="450" x2="491" y1="689.5098" y2="689.5098"/><polygon fill="#181818" points="460,685.5098,450,689.5098,460,693.5098,456,689.5098" style="stroke:#181818;stroke-width:1.0;"/><text fill="#000000" font-family="sans-serif" font-size="13" font-weight="bold" lengthAdjust="spacing" textLength="14" x="456" y="671.2471">25</text><text fill="#000000" font-family="sans-serif" font-size="13" lengthAdjust="spacing" textLength="223" x="474" y="671.2471">addPlateCertification(plateCertification)</text><line style="stroke:#181818;stroke-width:1.0;" x1="449" x2="491" y1="720.8008" y2="720.8008"/><line style="stroke:#181818;stroke-width:1.0;" x1="491" x2="491" y1="720.8008" y2="733.8008"/><line style="stroke:#181818;stroke-width:1.0;" x1="450" x2="491" y1="733.8008" y2="733.8008"/><polygon fill="#181818" points="460,729.8008,450,733.8008,460,737.8008,456,733.8008" style="stroke:#181818;stroke-width:1.0;"/><text fill="#000000" font-family="sans-serif" font-size="13" font-weight="bold" lengthAdjust="spacing" textLength="14" x="456" y="715.5381">26</text><text fill="#000000" font-family="sans-serif" font-size="13" lengthAdjust="spacing" textLength="53" x="474" y="715.5381">true/false</text><line style="stroke:#181818;stroke-width:1.0;" x1="449" x2="491" y1="765.0918" y2="765.0918"/><line style="stroke:#181818;stroke-width:1.0;" x1="491" x2="491" y1="765.0918" y2="778.0918"/><line style="stroke:#181818;stroke-width:1.0;" x1="450" x2="491" y1="778.0918" y2="778.0918"/><polygon fill="#181818" points="460,774.0918,450,778.0918,460,782.0918,456,778.0918" style="stroke:#181818;stroke-width:1.0;"/><text fill="#000000" font-family="sans-serif" font-size="13" font-weight="bold" lengthAdjust="spacing" textLength="14" x="456" y="759.8291">27</text><text fill="#000000" font-family="sans-serif" font-size="13" lengthAdjust="spacing" textLength="53" x="474" y="759.8291">true/false</text><polygon fill="#181818" points="11,812.3828,1,816.3828,11,820.3828,7,816.3828" style="stroke:#181818;stroke-width:1.0;"/><line style="stroke:#181818;stroke-width:1.0;stroke-dasharray:2.0,2.0;" x1="5" x2="443" y1="816.3828" y2="816.3828"/><text fill="#000000" font-family="sans-serif" font-size="13" font-weight="bold" lengthAdjust="spacing" textLength="14" x="17" y="811.1201">28</text><text fill="#000000" font-family="sans-serif" font-size="13" lengthAdjust="spacing" textLength="124" x="35" y="811.1201">plateCertificationsList</text><polygon fill="#181818" points="11,843.6738,1,847.6738,11,851.6738,7,847.6738" style="stroke:#181818;stroke-width:1.0;"/><line style="stroke:#181818;stroke-width:1.0;stroke-dasharray:2.0,2.0;" x1="5" x2="93" y1="847.6738" y2="847.6738"/><text fill="#000000" font-family="sans-serif" font-size="13" font-weight="bold" lengthAdjust="spacing" textLength="14" x="17" y="842.4111">29</text><text fill="#000000" font-family="sans-serif" font-size="13" lengthAdjust="spacing" textLength="45" x="35" y="842.4111">jobsList</text><!--SRC=[jLLHQy8m47xFhpXySeACxR6CWHG71Pd3kJq98wQnPhP9QLA7_twfgRKbQUkKvKdkllk-BzUxA7UCfpZ32II22xBDH491PJb5iigacEnmHD_L8QQGKQ8mZ-8wG6vnA7uOZs23OqaHqc7524inLp3uf5j6OYeND1MIAP4Tl1MtWmF04knmasjlyYlkbKXJDGtyZzcy2NsBiQ8-rP4D8rWnmPiEElD7sav4KooreDgYNMzePvFbzCkVBfR1I-1Fbi7y5I6SAy7pP4qpU7X4usT79pmW6TMC6amKs-jVhdQ1Fb4cyXJy8_g4GSTCSUmYAFHC3qUZIkQ4FwkLRJupcK2jt8CzZbceqQNAiFnYTuugvor1KvIEUmmx6jGgVg8AgNMRlwlWC6mLk9obMB9xioyt5LVL6jeviN0U85Sxx56o9w1x8ofyjut2fxq2jS5pw3fM1ch7aM-HES-8RN9eRt5jR5jrBkYxJToaxUrNvrlsrolLfMiJqDla6rtgjRd2uAsgZZNx1rhAGqF_D1vVCGrongH2rWVftxQ-VuB2ZlED_HPh8zhp1Fm2]--></g></svg>