<?xml version="1.0" encoding="us-ascii" standalone="no"?><svg xmlns="http://www.w3.org/2000/svg" xmlns:xlink="http://www.w3.org/1999/xlink" contentStyleType="text/css" height="833px" preserveAspectRatio="none" style="width:814px;height:833px;background:#FFFFFF;" version="1.1" viewBox="0 0 814 833" width="814px" zoomAndPan="magnify"><defs/><g><!--class RegisterVehicleUI--><g id="elem_RegisterVehicleUI"><rect codeLine="6" fill="#F1F1F1" height="48" id="RegisterVehicleUI" rx="2.5" ry="2.5" style="stroke:#181818;stroke-width:0.5;" width="143" x="7" y="44"/><ellipse cx="22" cy="60" fill="#ADD1B2" rx="11" ry="11" style="stroke:#181818;stroke-width:1.0;"/><path d="M24.7656,55.875 Q24.9219,55.6563 25.1094,55.5469 Q25.2969,55.4375 25.5156,55.4375 Q25.8906,55.4375 26.125,55.7031 Q26.3594,55.9531 26.3594,56.5625 L26.3594,58.0156 Q26.3594,58.625 26.125,58.8906 Q25.8906,59.1563 25.5156,59.1563 Q25.1719,59.1563 24.9688,58.9531 Q24.7656,58.7656 24.6563,58.25 Q24.6094,57.8906 24.4219,57.7031 Q24.0938,57.3281 23.4844,57.1094 Q22.875,56.8906 22.25,56.8906 Q21.4844,56.8906 20.8438,57.2188 Q20.2188,57.5469 19.7188,58.2969 Q19.2344,59.0469 19.2344,60.0781 L19.2344,61.1719 Q19.2344,62.4063 20.125,63.2344 Q21.0156,64.0469 22.6094,64.0469 Q23.5469,64.0469 24.2031,63.7969 Q24.5938,63.6406 25.0156,63.2031 Q25.2813,62.9375 25.4219,62.8594 Q25.5781,62.7813 25.7813,62.7813 Q26.1094,62.7813 26.3594,63.0469 Q26.625,63.2969 26.625,63.6406 Q26.625,63.9844 26.2813,64.3906 Q25.7813,64.9688 24.9844,65.2969 Q23.9063,65.75 22.6094,65.75 Q21.0938,65.75 19.8906,65.125 Q18.9063,64.625 18.2188,63.5625 Q17.5313,62.4844 17.5313,61.2031 L17.5313,60.0469 Q17.5313,58.7188 18.1406,57.5781 Q18.7656,56.4219 19.8594,55.8125 Q20.9531,55.1875 22.1875,55.1875 Q22.9219,55.1875 23.5625,55.3594 Q24.2188,55.5156 24.7656,55.875 Z " fill="#000000"/><text fill="#000000" font-family="sans-serif" font-size="14" lengthAdjust="spacing" textLength="111" x="36" y="65.7969">RegisterVehicleUI</text><line style="stroke:#181818;stroke-width:0.5;" x1="8" x2="149" y1="76" y2="76"/><line style="stroke:#181818;stroke-width:0.5;" x1="8" x2="149" y1="84" y2="84"/></g><!--class RegisterVehicleController--><g id="elem_RegisterVehicleController"><rect codeLine="9" fill="#F1F1F1" height="103.8633" id="RegisterVehicleController" rx="2.5" ry="2.5" style="stroke:#181818;stroke-width:0.5;" width="193" x="185" y="16"/><ellipse cx="200" cy="32" fill="#ADD1B2" rx="11" ry="11" style="stroke:#181818;stroke-width:1.0;"/><path d="M202.7656,27.875 Q202.9219,27.6563 203.1094,27.5469 Q203.2969,27.4375 203.5156,27.4375 Q203.8906,27.4375 204.125,27.7031 Q204.3594,27.9531 204.3594,28.5625 L204.3594,30.0156 Q204.3594,30.625 204.125,30.8906 Q203.8906,31.1563 203.5156,31.1563 Q203.1719,31.1563 202.9688,30.9531 Q202.7656,30.7656 202.6563,30.25 Q202.6094,29.8906 202.4219,29.7031 Q202.0938,29.3281 201.4844,29.1094 Q200.875,28.8906 200.25,28.8906 Q199.4844,28.8906 198.8438,29.2188 Q198.2188,29.5469 197.7188,30.2969 Q197.2344,31.0469 197.2344,32.0781 L197.2344,33.1719 Q197.2344,34.4063 198.125,35.2344 Q199.0156,36.0469 200.6094,36.0469 Q201.5469,36.0469 202.2031,35.7969 Q202.5938,35.6406 203.0156,35.2031 Q203.2813,34.9375 203.4219,34.8594 Q203.5781,34.7813 203.7813,34.7813 Q204.1094,34.7813 204.3594,35.0469 Q204.625,35.2969 204.625,35.6406 Q204.625,35.9844 204.2813,36.3906 Q203.7813,36.9688 202.9844,37.2969 Q201.9063,37.75 200.6094,37.75 Q199.0938,37.75 197.8906,37.125 Q196.9063,36.625 196.2188,35.5625 Q195.5313,34.4844 195.5313,33.2031 L195.5313,32.0469 Q195.5313,30.7188 196.1406,29.5781 Q196.7656,28.4219 197.8594,27.8125 Q198.9531,27.1875 200.1875,27.1875 Q200.9219,27.1875 201.5625,27.3594 Q202.2188,27.5156 202.7656,27.875 Z " fill="#000000"/><text fill="#000000" font-family="sans-serif" font-size="14" lengthAdjust="spacing" textLength="161" x="214" y="37.7969">RegisterVehicleController</text><line style="stroke:#181818;stroke-width:0.5;" x1="186" x2="377" y1="48" y2="48"/><line style="stroke:#181818;stroke-width:0.5;" x1="186" x2="377" y1="56" y2="56"/><text fill="#000000" font-family="sans-serif" font-size="14" lengthAdjust="spacing" textLength="179" x="191" y="75.1074">+RegisterVehicleController()</text><text fill="#000000" font-family="sans-serif" font-size="14" lengthAdjust="spacing" textLength="113" x="191" y="93.7285">+getVehiclesList()</text><text fill="#000000" font-family="sans-serif" font-size="14" lengthAdjust="spacing" textLength="174" x="191" y="112.3496">+getPlateCertificationsList()</text></g><!--class Repositories--><g id="elem_Repositories"><rect codeLine="15" fill="#F1F1F1" height="122.4844" id="Repositories" rx="2.5" ry="2.5" style="stroke:#181818;stroke-width:0.5;" width="232" x="511.5" y="7"/><ellipse cx="583.75" cy="23" fill="#ADD1B2" rx="11" ry="11" style="stroke:#181818;stroke-width:1.0;"/><path d="M586.5156,18.875 Q586.6719,18.6563 586.8594,18.5469 Q587.0469,18.4375 587.2656,18.4375 Q587.6406,18.4375 587.875,18.7031 Q588.1094,18.9531 588.1094,19.5625 L588.1094,21.0156 Q588.1094,21.625 587.875,21.8906 Q587.6406,22.1563 587.2656,22.1563 Q586.9219,22.1563 586.7188,21.9531 Q586.5156,21.7656 586.4063,21.25 Q586.3594,20.8906 586.1719,20.7031 Q585.8438,20.3281 585.2344,20.1094 Q584.625,19.8906 584,19.8906 Q583.2344,19.8906 582.5938,20.2188 Q581.9688,20.5469 581.4688,21.2969 Q580.9844,22.0469 580.9844,23.0781 L580.9844,24.1719 Q580.9844,25.4063 581.875,26.2344 Q582.7656,27.0469 584.3594,27.0469 Q585.2969,27.0469 585.9531,26.7969 Q586.3438,26.6406 586.7656,26.2031 Q587.0313,25.9375 587.1719,25.8594 Q587.3281,25.7813 587.5313,25.7813 Q587.8594,25.7813 588.1094,26.0469 Q588.375,26.2969 588.375,26.6406 Q588.375,26.9844 588.0313,27.3906 Q587.5313,27.9688 586.7344,28.2969 Q585.6563,28.75 584.3594,28.75 Q582.8438,28.75 581.6406,28.125 Q580.6563,27.625 579.9688,26.5625 Q579.2813,25.4844 579.2813,24.2031 L579.2813,23.0469 Q579.2813,21.7188 579.8906,20.5781 Q580.5156,19.4219 581.6094,18.8125 Q582.7031,18.1875 583.9375,18.1875 Q584.6719,18.1875 585.3125,18.3594 Q585.9688,18.5156 586.5156,18.875 Z " fill="#000000"/><text fill="#000000" font-family="sans-serif" font-size="14" lengthAdjust="spacing" textLength="79" x="604.25" y="28.7969">Repositories</text><line style="stroke:#181818;stroke-width:0.5;" x1="512.5" x2="742.5" y1="39" y2="39"/><line style="stroke:#181818;stroke-width:0.5;" x1="512.5" x2="742.5" y1="47" y2="47"/><text fill="#000000" font-family="sans-serif" font-size="14" lengthAdjust="spacing" textLength="94" x="517.5" y="66.1074">-Repositories()</text><text fill="#000000" font-family="sans-serif" font-size="14" lengthAdjust="spacing" textLength="182" x="517.5" y="84.7285">+getInstance() : Repositories</text><text fill="#000000" font-family="sans-serif" font-size="14" lengthAdjust="spacing" textLength="159" x="517.5" y="103.3496">+getVehiclesRepository()</text><text fill="#000000" font-family="sans-serif" font-size="14" lengthAdjust="spacing" textLength="220" x="517.5" y="121.9707">+getPlateCertificationsRepository()</text></g><!--class Vehicle--><g id="elem_Vehicle"><rect codeLine="22" fill="#F1F1F1" height="141.1055" id="Vehicle" rx="2.5" ry="2.5" style="stroke:#181818;stroke-width:0.5;" width="169" x="198" y="391"/><ellipse cx="255.25" cy="407" fill="#ADD1B2" rx="11" ry="11" style="stroke:#181818;stroke-width:1.0;"/><path d="M258.0156,402.875 Q258.1719,402.6563 258.3594,402.5469 Q258.5469,402.4375 258.7656,402.4375 Q259.1406,402.4375 259.375,402.7031 Q259.6094,402.9531 259.6094,403.5625 L259.6094,405.0156 Q259.6094,405.625 259.375,405.8906 Q259.1406,406.1563 258.7656,406.1563 Q258.4219,406.1563 258.2188,405.9531 Q258.0156,405.7656 257.9063,405.25 Q257.8594,404.8906 257.6719,404.7031 Q257.3438,404.3281 256.7344,404.1094 Q256.125,403.8906 255.5,403.8906 Q254.7344,403.8906 254.0938,404.2188 Q253.4688,404.5469 252.9688,405.2969 Q252.4844,406.0469 252.4844,407.0781 L252.4844,408.1719 Q252.4844,409.4063 253.375,410.2344 Q254.2656,411.0469 255.8594,411.0469 Q256.7969,411.0469 257.4531,410.7969 Q257.8438,410.6406 258.2656,410.2031 Q258.5313,409.9375 258.6719,409.8594 Q258.8281,409.7813 259.0313,409.7813 Q259.3594,409.7813 259.6094,410.0469 Q259.875,410.2969 259.875,410.6406 Q259.875,410.9844 259.5313,411.3906 Q259.0313,411.9688 258.2344,412.2969 Q257.1563,412.75 255.8594,412.75 Q254.3438,412.75 253.1406,412.125 Q252.1563,411.625 251.4688,410.5625 Q250.7813,409.4844 250.7813,408.2031 L250.7813,407.0469 Q250.7813,405.7188 251.3906,404.5781 Q252.0156,403.4219 253.1094,402.8125 Q254.2031,402.1875 255.4375,402.1875 Q256.1719,402.1875 256.8125,402.3594 Q257.4688,402.5156 258.0156,402.875 Z " fill="#000000"/><text fill="#000000" font-family="sans-serif" font-size="14" lengthAdjust="spacing" textLength="46" x="275.75" y="412.7969">Vehicle</text><line style="stroke:#181818;stroke-width:0.5;" x1="199" x2="366" y1="423" y2="423"/><text fill="#000000" font-family="sans-serif" font-size="14" lengthAdjust="spacing" textLength="117" x="204" y="442.1074">-double currentKm</text><text fill="#000000" font-family="sans-serif" font-size="14" lengthAdjust="spacing" textLength="136" x="204" y="460.7285">-Date acquisitionDate</text><text fill="#000000" font-family="sans-serif" font-size="14" lengthAdjust="spacing" textLength="133" x="204" y="479.3496">-double maintenance</text><line style="stroke:#181818;stroke-width:0.5;" x1="199" x2="366" y1="486.8633" y2="486.8633"/><text fill="#000000" font-family="sans-serif" font-size="14" lengthAdjust="spacing" textLength="108" x="204" y="505.9707">+Vehicle(vehicle)</text><text fill="#000000" font-family="sans-serif" font-size="14" lengthAdjust="spacing" textLength="157" x="204" y="524.5918">+validateVehicle(vehicle)</text></g><!--class VehiclesRepository--><g id="elem_VehiclesRepository"><rect codeLine="30" fill="#F1F1F1" height="103.8633" id="VehiclesRepository" rx="2.5" ry="2.5" style="stroke:#181818;stroke-width:0.5;" width="169" x="304" y="208"/><ellipse cx="326.2" cy="224" fill="#ADD1B2" rx="11" ry="11" style="stroke:#181818;stroke-width:1.0;"/><path d="M328.9656,219.875 Q329.1219,219.6563 329.3094,219.5469 Q329.4969,219.4375 329.7156,219.4375 Q330.0906,219.4375 330.325,219.7031 Q330.5594,219.9531 330.5594,220.5625 L330.5594,222.0156 Q330.5594,222.625 330.325,222.8906 Q330.0906,223.1563 329.7156,223.1563 Q329.3719,223.1563 329.1688,222.9531 Q328.9656,222.7656 328.8563,222.25 Q328.8094,221.8906 328.6219,221.7031 Q328.2938,221.3281 327.6844,221.1094 Q327.075,220.8906 326.45,220.8906 Q325.6844,220.8906 325.0438,221.2188 Q324.4188,221.5469 323.9188,222.2969 Q323.4344,223.0469 323.4344,224.0781 L323.4344,225.1719 Q323.4344,226.4063 324.325,227.2344 Q325.2156,228.0469 326.8094,228.0469 Q327.7469,228.0469 328.4031,227.7969 Q328.7938,227.6406 329.2156,227.2031 Q329.4813,226.9375 329.6219,226.8594 Q329.7781,226.7813 329.9813,226.7813 Q330.3094,226.7813 330.5594,227.0469 Q330.825,227.2969 330.825,227.6406 Q330.825,227.9844 330.4813,228.3906 Q329.9813,228.9688 329.1844,229.2969 Q328.1063,229.75 326.8094,229.75 Q325.2938,229.75 324.0906,229.125 Q323.1063,228.625 322.4188,227.5625 Q321.7313,226.4844 321.7313,225.2031 L321.7313,224.0469 Q321.7313,222.7188 322.3406,221.5781 Q322.9656,220.4219 324.0594,219.8125 Q325.1531,219.1875 326.3875,219.1875 Q327.1219,219.1875 327.7625,219.3594 Q328.4188,219.5156 328.9656,219.875 Z " fill="#000000"/><text fill="#000000" font-family="sans-serif" font-size="14" lengthAdjust="spacing" textLength="121" x="341.8" y="229.7969">VehiclesRepository</text><line style="stroke:#181818;stroke-width:0.5;" x1="305" x2="472" y1="240" y2="240"/><line style="stroke:#181818;stroke-width:0.5;" x1="305" x2="472" y1="248" y2="248"/><text fill="#000000" font-family="sans-serif" font-size="14" lengthAdjust="spacing" textLength="113" x="310" y="267.1074">+getVehiclesList()</text><text fill="#000000" font-family="sans-serif" font-size="14" lengthAdjust="spacing" textLength="132" x="310" y="285.7285">+addVehicle(vehicle)</text><text fill="#000000" font-family="sans-serif" font-size="14" lengthAdjust="spacing" textLength="157" x="310" y="304.3496">+validateVehicle(vehicle)</text></g><!--class PlateCertification--><g id="elem_PlateCertification"><rect codeLine="36" fill="#F1F1F1" height="215.5898" id="PlateCertification" rx="2.5" ry="2.5" style="stroke:#181818;stroke-width:0.5;" width="292" x="136.5" y="611"/><ellipse cx="224.75" cy="627" fill="#ADD1B2" rx="11" ry="11" style="stroke:#181818;stroke-width:1.0;"/><path d="M227.5156,622.875 Q227.6719,622.6563 227.8594,622.5469 Q228.0469,622.4375 228.2656,622.4375 Q228.6406,622.4375 228.875,622.7031 Q229.1094,622.9531 229.1094,623.5625 L229.1094,625.0156 Q229.1094,625.625 228.875,625.8906 Q228.6406,626.1563 228.2656,626.1563 Q227.9219,626.1563 227.7188,625.9531 Q227.5156,625.7656 227.4063,625.25 Q227.3594,624.8906 227.1719,624.7031 Q226.8438,624.3281 226.2344,624.1094 Q225.625,623.8906 225,623.8906 Q224.2344,623.8906 223.5938,624.2188 Q222.9688,624.5469 222.4688,625.2969 Q221.9844,626.0469 221.9844,627.0781 L221.9844,628.1719 Q221.9844,629.4063 222.875,630.2344 Q223.7656,631.0469 225.3594,631.0469 Q226.2969,631.0469 226.9531,630.7969 Q227.3438,630.6406 227.7656,630.2031 Q228.0313,629.9375 228.1719,629.8594 Q228.3281,629.7813 228.5313,629.7813 Q228.8594,629.7813 229.1094,630.0469 Q229.375,630.2969 229.375,630.6406 Q229.375,630.9844 229.0313,631.3906 Q228.5313,631.9688 227.7344,632.2969 Q226.6563,632.75 225.3594,632.75 Q223.8438,632.75 222.6406,632.125 Q221.6563,631.625 220.9688,630.5625 Q220.2813,629.4844 220.2813,628.2031 L220.2813,627.0469 Q220.2813,625.7188 220.8906,624.5781 Q221.5156,623.4219 222.6094,622.8125 Q223.7031,622.1875 224.9375,622.1875 Q225.6719,622.1875 226.3125,622.3594 Q226.9688,622.5156 227.5156,622.875 Z " fill="#000000"/><text fill="#000000" font-family="sans-serif" font-size="14" lengthAdjust="spacing" textLength="107" x="245.25" y="632.7969">PlateCertification</text><line style="stroke:#181818;stroke-width:0.5;" x1="137.5" x2="427.5" y1="643" y2="643"/><text fill="#000000" font-family="sans-serif" font-size="14" lengthAdjust="spacing" textLength="83" x="142.5" y="662.1074">-String brand</text><text fill="#000000" font-family="sans-serif" font-size="14" lengthAdjust="spacing" textLength="84" x="142.5" y="680.7285">-String model</text><text fill="#000000" font-family="sans-serif" font-size="14" lengthAdjust="spacing" textLength="73" x="142.5" y="699.3496">-String type</text><text fill="#000000" font-family="sans-serif" font-size="14" lengthAdjust="spacing" textLength="77" x="142.5" y="717.9707">-double tare</text><text fill="#000000" font-family="sans-serif" font-size="14" lengthAdjust="spacing" textLength="131" x="142.5" y="736.5918">-double grossWeight</text><text fill="#000000" font-family="sans-serif" font-size="14" lengthAdjust="spacing" textLength="117" x="142.5" y="755.2129">-Date registerDate</text><text fill="#000000" font-family="sans-serif" font-size="14" lengthAdjust="spacing" textLength="77" x="142.5" y="773.834">-String plate</text><line style="stroke:#181818;stroke-width:0.5;" x1="137.5" x2="427.5" y1="781.3477" y2="781.3477"/><text fill="#000000" font-family="sans-serif" font-size="14" lengthAdjust="spacing" textLength="231" x="142.5" y="800.4551">+PlateCertification(plateCertification)</text><text fill="#000000" font-family="sans-serif" font-size="14" lengthAdjust="spacing" textLength="280" x="142.5" y="819.0762">+validatePlateCertification(plateCertification)</text></g><!--class PlateCertificationsRepository--><g id="elem_PlateCertificationsRepository"><rect codeLine="48" fill="#F1F1F1" height="103.8633" id="PlateCertificationsRepository" rx="2.5" ry="2.5" style="stroke:#181818;stroke-width:0.5;" width="299" x="508" y="208"/><ellipse cx="562.25" cy="224" fill="#ADD1B2" rx="11" ry="11" style="stroke:#181818;stroke-width:1.0;"/><path d="M565.0156,219.875 Q565.1719,219.6563 565.3594,219.5469 Q565.5469,219.4375 565.7656,219.4375 Q566.1406,219.4375 566.375,219.7031 Q566.6094,219.9531 566.6094,220.5625 L566.6094,222.0156 Q566.6094,222.625 566.375,222.8906 Q566.1406,223.1563 565.7656,223.1563 Q565.4219,223.1563 565.2188,222.9531 Q565.0156,222.7656 564.9063,222.25 Q564.8594,221.8906 564.6719,221.7031 Q564.3438,221.3281 563.7344,221.1094 Q563.125,220.8906 562.5,220.8906 Q561.7344,220.8906 561.0938,221.2188 Q560.4688,221.5469 559.9688,222.2969 Q559.4844,223.0469 559.4844,224.0781 L559.4844,225.1719 Q559.4844,226.4063 560.375,227.2344 Q561.2656,228.0469 562.8594,228.0469 Q563.7969,228.0469 564.4531,227.7969 Q564.8438,227.6406 565.2656,227.2031 Q565.5313,226.9375 565.6719,226.8594 Q565.8281,226.7813 566.0313,226.7813 Q566.3594,226.7813 566.6094,227.0469 Q566.875,227.2969 566.875,227.6406 Q566.875,227.9844 566.5313,228.3906 Q566.0313,228.9688 565.2344,229.2969 Q564.1563,229.75 562.8594,229.75 Q561.3438,229.75 560.1406,229.125 Q559.1563,228.625 558.4688,227.5625 Q557.7813,226.4844 557.7813,225.2031 L557.7813,224.0469 Q557.7813,222.7188 558.3906,221.5781 Q559.0156,220.4219 560.1094,219.8125 Q561.2031,219.1875 562.4375,219.1875 Q563.1719,219.1875 563.8125,219.3594 Q564.4688,219.5156 565.0156,219.875 Z " fill="#000000"/><text fill="#000000" font-family="sans-serif" font-size="14" lengthAdjust="spacing" textLength="182" x="582.75" y="229.7969">PlateCertificationsRepository</text><line style="stroke:#181818;stroke-width:0.5;" x1="509" x2="806" y1="240" y2="240"/><line style="stroke:#181818;stroke-width:0.5;" x1="509" x2="806" y1="248" y2="248"/><text fill="#000000" font-family="sans-serif" font-size="14" lengthAdjust="spacing" textLength="174" x="514" y="267.1074">+getPlateCertificationsList()</text><text fill="#000000" font-family="sans-serif" font-size="14" lengthAdjust="spacing" textLength="255" x="514" y="285.7285">+addPlateCertification(plateCertification)</text><text fill="#000000" font-family="sans-serif" font-size="14" lengthAdjust="spacing" textLength="287" x="514" y="304.3496">+validatePlateCertifications(plateCertification)</text></g><!--link RegisterVehicleUI to RegisterVehicleController--><g id="link_RegisterVehicleUI_RegisterVehicleController"><path codeLine="54" d="M150.2,68 C157.03,68 165.43,68 178.82,68 " fill="none" id="RegisterVehicleUI-to-RegisterVehicleController" style="stroke:#181818;stroke-width:1.0;stroke-dasharray:7.0,7.0;"/><polygon fill="#181818" points="184.82,68,175.82,64,179.82,68,175.82,72,184.82,68" style="stroke:#181818;stroke-width:1.0;"/></g><!--link RegisterVehicleController to Repositories--><g id="link_RegisterVehicleController_Repositories"><path codeLine="56" d="M378.34,68 C419.62,68 462.14,68 505.33,68 " fill="none" id="RegisterVehicleController-to-Repositories" style="stroke:#181818;stroke-width:1.0;stroke-dasharray:7.0,7.0;"/><polygon fill="#181818" points="511.33,68,502.33,64,506.33,68,502.33,72,511.33,68" style="stroke:#181818;stroke-width:1.0;"/><text fill="#000000" font-family="sans-serif" font-size="13" lengthAdjust="spacing" textLength="67" x="411.25" y="61.0283">repositories</text></g><!--link Repositories to VehiclesRepository--><g id="link_Repositories_VehiclesRepository"><path codeLine="57" d="M615.34,129.24 C610.25,154.45 605.5,178 605.5,178 C605.5,178 490.5,208 490.5,208 C490.5,208 488.8755,208.8046 478.5655,213.9646 " fill="none" id="Repositories-to-VehiclesRepository" style="stroke:#181818;stroke-width:1.0;"/><polygon fill="#181818" points="473.2,216.65,483.0385,216.199,477.6713,214.4122,479.458,209.0449,473.2,216.65" style="stroke:#181818;stroke-width:1.0;"/><text fill="#000000" font-family="sans-serif" font-size="13" lengthAdjust="spacing" textLength="7" x="481.0553" y="209.0795">1</text></g><!--link RegisterVehicleController to Vehicle--><g id="link_RegisterVehicleController_Vehicle"><path codeLine="59" d="M266.72,120.36 C255.32,159.96 241.5,208 241.5,208 C241.5,208 241.5,312 241.5,312 C241.5,312 250.9739,346.2962 261.6039,384.8162 " fill="none" id="RegisterVehicleController-to-Vehicle" style="stroke:#181818;stroke-width:1.0;stroke-dasharray:7.0,7.0;"/><polygon fill="#181818" points="263.2,390.6,264.6617,380.8602,261.8699,385.7802,256.95,382.9884,263.2,390.6" style="stroke:#181818;stroke-width:1.0;"/><text fill="#000000" font-family="sans-serif" font-size="13" lengthAdjust="spacing" textLength="43" x="242.5" y="265.5283">Vehicle</text></g><!--link RegisterVehicleController to VehiclesRepository--><g id="link_RegisterVehicleController_VehiclesRepository"><path codeLine="60" d="M279.8,120.05 C279.12,140.36 278.5,159 278.5,159 C278.5,159 278.5,178 278.5,178 C278.5,178 292.3477,188.2034 314.3177,204.3734 " fill="none" id="RegisterVehicleController-to-VehiclesRepository" style="stroke:#181818;stroke-width:1.0;stroke-dasharray:7.0,7.0;"/><polygon fill="#181818" points="319.15,207.93,314.2726,199.3736,315.1231,204.9662,309.5306,205.8167,319.15,207.93" style="stroke:#181818;stroke-width:1.0;"/><text fill="#000000" font-family="sans-serif" font-size="13" lengthAdjust="spacing" textLength="112" x="279.5" y="174.0283">VehiclesRepository</text></g><!--link VehiclesRepository to Vehicle--><g id="link_VehiclesRepository_Vehicle"><path codeLine="62" d="M361.34,312.12 C348.64,336.01 336.146,359.5419 322.396,385.4119 " fill="none" id="VehiclesRepository-to-Vehicle" style="stroke:#181818;stroke-width:1.0;"/><polygon fill="#181818" points="319.58,390.71,327.3361,384.6401,321.9266,386.2949,320.2719,380.8855,319.58,390.71" style="stroke:#181818;stroke-width:1.0;"/><text fill="#000000" font-family="sans-serif" font-size="13" lengthAdjust="spacing" textLength="7" x="350.4117" y="333.9427">1</text><text fill="#000000" font-family="sans-serif" font-size="13" lengthAdjust="spacing" textLength="5" x="318.1461" y="379.5711">*</text></g><!--link Repositories to PlateCertificationsRepository--><g id="link_Repositories_PlateCertificationsRepository"><path codeLine="64" d="M640.17,129.03 C643.66,145.54 646.5,159 646.5,159 C646.5,159 648.5033,177.2561 651.2133,201.8661 " fill="none" id="Repositories-to-PlateCertificationsRepository" style="stroke:#181818;stroke-width:1.0;"/><polygon fill="#181818" points="651.87,207.83,654.8609,198.4463,651.3227,202.86,646.9089,199.3219,651.87,207.83" style="stroke:#181818;stroke-width:1.0;"/><text fill="#000000" font-family="sans-serif" font-size="13" lengthAdjust="spacing" textLength="7" x="643.6432" y="196.7345">1</text></g><!--link RegisterVehicleController to PlateCertification--><g id="link_RegisterVehicleController_PlateCertification"><path codeLine="66" d="M255.52,120.03 C215.29,199.05 142.5,342 142.5,342 C142.5,342 142.5,361 142.5,361 C142.5,361 180.5,532 180.5,532 C180.5,532 198.1946,564.2694 220.8746,605.6194 " fill="none" id="RegisterVehicleController-to-PlateCertification" style="stroke:#181818;stroke-width:1.0;stroke-dasharray:7.0,7.0;"/><polygon fill="#181818" points="223.76,610.88,222.939,601.0654,221.3555,606.4961,215.9248,604.9126,223.76,610.88" style="stroke:#181818;stroke-width:1.0;"/><text fill="#000000" font-family="sans-serif" font-size="13" lengthAdjust="spacing" textLength="98" x="143.5" y="357.0283">PlateCertification</text></g><!--link RegisterVehicleController to PlateCertificationsRepository--><g id="link_RegisterVehicleController_PlateCertificationsRepository"><path codeLine="67" d="M369.72,120.15 C418.57,148.47 469.5,178 469.5,178 C469.5,178 495.9195,189.3864 533.4595,205.5564 " fill="none" id="RegisterVehicleController-to-PlateCertificationsRepository" style="stroke:#181818;stroke-width:1.0;stroke-dasharray:7.0,7.0;"/><polygon fill="#181818" points="538.97,207.93,532.2866,200.6959,534.3779,205.952,529.1218,208.0433,538.97,207.93" style="stroke:#181818;stroke-width:1.0;"/><text fill="#000000" font-family="sans-serif" font-size="13" lengthAdjust="spacing" textLength="167" x="470.5" y="174.0283">PlateCertificationsRepository</text></g><!--link PlateCertificationsRepository to PlateCertification--><g id="link_PlateCertificationsRepository_PlateCertification"><path codeLine="69" d="M615.57,312.09 C556.61,383.95 451.5861,511.9417 374.3861,606.0217 " fill="none" id="PlateCertificationsRepository-to-PlateCertification" style="stroke:#181818;stroke-width:1.0;"/><polygon fill="#181818" points="370.58,610.66,379.3813,606.24,373.7517,606.7948,373.1969,601.1652,370.58,610.66" style="stroke:#181818;stroke-width:1.0;"/><text fill="#000000" font-family="sans-serif" font-size="13" lengthAdjust="spacing" textLength="7" x="602.7493" y="333.9088">1</text><text fill="#000000" font-family="sans-serif" font-size="13" lengthAdjust="spacing" textLength="5" x="371.3299" y="599.8617">*</text></g><!--reverse link Vehicle to PlateCertification--><g id="link_Vehicle_PlateCertification"><path codeLine="71" d="M282.5,544.32 C282.5,568.55 282.5,584.31 282.5,610.85 " fill="none" id="Vehicle-backto-PlateCertification" style="stroke:#181818;stroke-width:1.0;"/><polygon fill="#181818" points="282.5,532.32,278.5,538.32,282.5,544.32,286.5,538.32,282.5,532.32" style="stroke:#181818;stroke-width:1.0;"/><text fill="#000000" font-family="sans-serif" font-size="13" lengthAdjust="spacing" textLength="21" x="283.5" y="577.0283">has</text><text fill="#000000" font-family="sans-serif" font-size="13" lengthAdjust="spacing" textLength="7" x="275.1555" y="554.1655">1</text><text fill="#000000" font-family="sans-serif" font-size="13" lengthAdjust="spacing" textLength="7" x="275.2539" y="599.701">1</text></g><!--SRC=[hLJ1JiCm3BttAwATngOYkFQ0XCPbWWDY0ivUwdKHQL8I3pGG_quwqYfPssqWUcbZFzilptRjYr0L62XP1Vm52bpGLY8po0bK8J6nBS2k8TVlGXLi1TA67YaKqhP2LccvhG-1Zqkmzfh8YEM6SCwrMeWFP1T9ilEm1oo49JHFk1PSukESVIPV0ywPLcIqb6WSYBbdEemOdtb4WUITziv1G_kz1C8P6X8hmO64LWqaO51fAqWRWTONJIDZc6-kh5EDu_YCPH6eIwNrReyGYe0jBP-cPPJhpT8T-SOOL7HRUlEDIyU0lsw4I-6orUSueWIX25NDsjFmgSTlF- -6tHj8aRlmZdkVKy2uxT9G3o3F_rokgrMhni9DcnlJfG6LnwPIvoXZKpsuiIO4PizI66tjCufYJQ6onWzV8AjFMid6DEqXEguwflrxdnXqG8s1FWpFVDkIVo9iXnXtL_xyQdYHE_ZWBx2B2nOqSoq9jYxofUaL6rsEUiRqO0LNebcshFaw3Hys8EijsmEi6UwOJbgcIVyz3dRys9LwbYVhCVuwItpd8nGFXuTAz31hnDlX9cawe8bZiGQRV0C0]--></g></svg>