<?xml version="1.0" encoding="UTF-8" standalone="no"?><svg xmlns="http://www.w3.org/2000/svg" xmlns:xlink="http://www.w3.org/1999/xlink" contentStyleType="text/css" height="499px" preserveAspectRatio="none" style="width:661px;height:499px;background:#FFFFFF;" version="1.1" viewBox="0 0 661 499" width="661px" zoomAndPan="magnify"><defs/><g><rect fill="#FFFFFF" height="298.6798" style="stroke:#181818;stroke-width:1.0;" width="10" x="219" y="117.7199"/><rect fill="#FFFFFF" height="41.24" style="stroke:#181818;stroke-width:1.0;" width="10" x="404.5" y="195.1999"/><rect fill="#FFFFFF" height="41.24" style="stroke:#181818;stroke-width:1.0;" width="10" x="573" y="277.6798"/><rect fill="#FFFFFF" height="41.24" style="stroke:#181818;stroke-width:1.0;" width="10" x="573" y="360.1598"/><rect fill="none" height="276.6798" style="stroke:#000000;stroke-width:1.5;" width="549.5" x="105.5" y="132.7199"/><line style="stroke:#181818;stroke-width:0.5;stroke-dasharray:5.0,5.0;" x1="223.5" x2="223.5" y1="74.4799" y2="426.3997"/><line style="stroke:#181818;stroke-width:0.5;stroke-dasharray:5.0,5.0;" x1="409.5" x2="409.5" y1="74.4799" y2="426.3997"/><line style="stroke:#181818;stroke-width:0.5;stroke-dasharray:5.0,5.0;" x1="578" x2="578" y1="74.4799" y2="426.3997"/><rect fill="#E3E3E3" height="41.24" rx="2.5" ry="2.5" style="stroke:#181818;stroke-width:0.5;" width="217" x="115.5" y="32.24"/><text fill="#000000" font-family="sans-serif" font-size="20" lengthAdjust="spacing" textLength="203" x="122.5" y="60.62">:RegisterJobController</text><rect fill="#E3E3E3" height="41.24" rx="2.5" ry="2.5" style="stroke:#181818;stroke-width:0.5;" width="217" x="115.5" y="425.3997"/><text fill="#000000" font-family="sans-serif" font-size="20" lengthAdjust="spacing" textLength="203" x="122.5" y="453.7797">:RegisterJobController</text><rect fill="#E3E3E3" height="41.24" rx="2.5" ry="2.5" style="stroke:#181818;stroke-width:0.5;" width="134" x="342.5" y="32.24"/><text fill="#000000" font-family="sans-serif" font-size="20" lengthAdjust="spacing" textLength="120" x="349.5" y="60.62">:Repositories</text><rect fill="#E3E3E3" height="41.24" rx="2.5" ry="2.5" style="stroke:#181818;stroke-width:0.5;" width="134" x="342.5" y="425.3997"/><text fill="#000000" font-family="sans-serif" font-size="20" lengthAdjust="spacing" textLength="120" x="349.5" y="453.7797">:Repositories</text><rect fill="#E3E3E3" height="68.4799" rx="2.5" ry="2.5" style="stroke:#181818;stroke-width:0.5;" width="134" x="511" y="5"/><text fill="#000000" font-family="sans-serif" font-size="20" lengthAdjust="spacing" textLength="111" x="522.5" y="33.38">repositories</text><text fill="#000000" font-family="sans-serif" font-size="20" lengthAdjust="spacing" textLength="120" x="518" y="60.62">:Repositories</text><rect fill="#E3E3E3" height="68.4799" rx="2.5" ry="2.5" style="stroke:#181818;stroke-width:0.5;" width="134" x="511" y="425.3997"/><text fill="#000000" font-family="sans-serif" font-size="20" lengthAdjust="spacing" textLength="111" x="522.5" y="453.7797">repositories</text><text fill="#000000" font-family="sans-serif" font-size="20" lengthAdjust="spacing" textLength="120" x="518" y="481.0197">:Repositories</text><rect fill="#FFFFFF" height="298.6798" style="stroke:#181818;stroke-width:1.0;" width="10" x="219" y="117.7199"/><rect fill="#FFFFFF" height="41.24" style="stroke:#181818;stroke-width:1.0;" width="10" x="404.5" y="195.1999"/><rect fill="#FFFFFF" height="41.24" style="stroke:#181818;stroke-width:1.0;" width="10" x="573" y="277.6798"/><rect fill="#FFFFFF" height="41.24" style="stroke:#181818;stroke-width:1.0;" width="10" x="573" y="360.1598"/><polygon fill="#181818" points="207,113.7199,217,117.7199,207,121.7199,211,117.7199" style="stroke:#181818;stroke-width:1.0;"/><line style="stroke:#181818;stroke-width:1.0;" x1="0" x2="213" y1="117.7199" y2="117.7199"/><text fill="#000000" font-family="sans-serif" font-size="20" font-weight="bold" lengthAdjust="spacing" textLength="11" x="7" y="109.8599">2</text><text fill="#000000" font-family="sans-serif" font-size="20" lengthAdjust="spacing" textLength="185" x="22" y="109.8599">getTaskCategories()</text><path d="M105.5,132.7199 L384.5,132.7199 L384.5,151.9599 L374.5,161.9599 L105.5,161.9599 L105.5,132.7199 " fill="#EEEEEE" style="stroke:#000000;stroke-width:1.5;"/><rect fill="none" height="276.6798" style="stroke:#000000;stroke-width:1.5;" width="549.5" x="105.5" y="132.7199"/><text fill="#000000" font-family="sans-serif" font-size="20" font-weight="bold" lengthAdjust="spacing" textLength="234" x="120.5" y="155.0999">Get Vehicles Repository</text><polygon fill="#181818" points="392.5,191.1999,402.5,195.1999,392.5,199.1999,396.5,195.1999" style="stroke:#181818;stroke-width:1.0;"/><line style="stroke:#181818;stroke-width:1.0;" x1="229" x2="398.5" y1="195.1999" y2="195.1999"/><text fill="#000000" font-family="sans-serif" font-size="20" font-weight="bold" lengthAdjust="spacing" textLength="11" x="236" y="187.3399">3</text><text fill="#000000" font-family="sans-serif" font-size="20" lengthAdjust="spacing" textLength="122" x="251" y="187.3399">getInstance()</text><polygon fill="#181818" points="240,232.4398,230,236.4398,240,240.4398,236,236.4398" style="stroke:#181818;stroke-width:1.0;"/><line style="stroke:#181818;stroke-width:1.0;stroke-dasharray:2.0,2.0;" x1="234" x2="408.5" y1="236.4398" y2="236.4398"/><text fill="#000000" font-family="sans-serif" font-size="20" font-weight="bold" lengthAdjust="spacing" textLength="11" x="246" y="228.5799">4</text><text fill="#000000" font-family="sans-serif" font-size="20" lengthAdjust="spacing" textLength="111" x="261" y="228.5799">repositories</text><polygon fill="#181818" points="561,273.6798,571,277.6798,561,281.6798,565,277.6798" style="stroke:#181818;stroke-width:1.0;"/><line style="stroke:#181818;stroke-width:1.0;" x1="229" x2="567" y1="277.6798" y2="277.6798"/><text fill="#000000" font-family="sans-serif" font-size="20" font-weight="bold" lengthAdjust="spacing" textLength="11" x="236" y="269.8198">5</text><text fill="#000000" font-family="sans-serif" font-size="20" lengthAdjust="spacing" textLength="217" x="251" y="269.8198">getVehiclesRepository()</text><polygon fill="#181818" points="240,314.9198,230,318.9198,240,322.9198,236,318.9198" style="stroke:#181818;stroke-width:1.0;"/><line style="stroke:#181818;stroke-width:1.0;stroke-dasharray:2.0,2.0;" x1="234" x2="577" y1="318.9198" y2="318.9198"/><text fill="#000000" font-family="sans-serif" font-size="20" font-weight="bold" lengthAdjust="spacing" textLength="11" x="246" y="311.0598">6</text><text fill="#000000" font-family="sans-serif" font-size="20" lengthAdjust="spacing" textLength="175" x="261" y="311.0598">VehiclesRepository</text><polygon fill="#181818" points="561,356.1598,571,360.1598,561,364.1598,565,360.1598" style="stroke:#181818;stroke-width:1.0;"/><line style="stroke:#181818;stroke-width:1.0;" x1="229" x2="567" y1="360.1598" y2="360.1598"/><text fill="#000000" font-family="sans-serif" font-size="20" font-weight="bold" lengthAdjust="spacing" textLength="11" x="236" y="352.2998">7</text><text fill="#000000" font-family="sans-serif" font-size="20" lengthAdjust="spacing" textLength="310" x="251" y="352.2998">getPlateCertificationsRepository()</text><polygon fill="#181818" points="240,397.3997,230,401.3997,240,405.3997,236,401.3997" style="stroke:#181818;stroke-width:1.0;"/><line style="stroke:#181818;stroke-width:1.0;stroke-dasharray:2.0,2.0;" x1="234" x2="577" y1="401.3997" y2="401.3997"/><text fill="#000000" font-family="sans-serif" font-size="20" font-weight="bold" lengthAdjust="spacing" textLength="11" x="246" y="393.5398">8</text><text fill="#000000" font-family="sans-serif" font-size="20" lengthAdjust="spacing" textLength="268" x="261" y="393.5398">PlateCertificationsRepository</text><!--SRC=[bP8zJyCm48Pt_ueJ4moLKDaw8A588527ggsOMAxErRNYs95z0PLVZ-kGr5MY2ZpQxyTpbuHAsmOzriR9YaeeQO-juMTdUQE_2URt8lGIg9rryk1TJS2-fUobGLcXeWqV3O4doMYLoGNXWANxqbR17aqW8R1bPzjwHrw8A64jTOEMuMQn9gK3atzpko9YU6SC-Hl00CLslHo96nSqEwyf9CrmSTpe4qDikRJupF5Xnm6hvTCsnuEv431xJEMm04MynL0LoAIIwVOk5py8bAm_usj72_4exze6NeZXdGvQ6iefHPASJYg8HHCJTBslDiIzIegDlMSecnfxK4qbpdv7Ma2-aC5Iqj-YU-ZJrZhAViQpROgtst9_dTnded745DTbn1XaPQAgeFZfzreYQsSlcVu9TJNkEX_PKcGFwSSGFm00]--></g></svg>