<?xml version="1.0" encoding="us-ascii" standalone="no"?><svg xmlns="http://www.w3.org/2000/svg" xmlns:xlink="http://www.w3.org/1999/xlink" contentStyleType="text/css" height="1429px" preserveAspectRatio="none" style="width:874px;height:1429px;background:#FFFFFF;" version="1.1" viewBox="0 0 874 1429" width="874px" zoomAndPan="magnify"><defs/><g><!--class RegisterVehicleUI--><g id="elem_RegisterVehicleUI"><rect codeLine="6" fill="#F1F1F1" height="48" id="RegisterVehicleUI" rx="2.5" ry="2.5" style="stroke:#181818;stroke-width:0.5;" width="143" x="7" y="44"/><ellipse cx="22" cy="60" fill="#ADD1B2" rx="11" ry="11" style="stroke:#181818;stroke-width:1.0;"/><path d="M24.7656,55.875 Q24.9219,55.6563 25.1094,55.5469 Q25.2969,55.4375 25.5156,55.4375 Q25.8906,55.4375 26.125,55.7031 Q26.3594,55.9531 26.3594,56.5625 L26.3594,58.0156 Q26.3594,58.625 26.125,58.8906 Q25.8906,59.1563 25.5156,59.1563 Q25.1719,59.1563 24.9688,58.9531 Q24.7656,58.7656 24.6563,58.25 Q24.6094,57.8906 24.4219,57.7031 Q24.0938,57.3281 23.4844,57.1094 Q22.875,56.8906 22.25,56.8906 Q21.4844,56.8906 20.8438,57.2188 Q20.2188,57.5469 19.7188,58.2969 Q19.2344,59.0469 19.2344,60.0781 L19.2344,61.1719 Q19.2344,62.4063 20.125,63.2344 Q21.0156,64.0469 22.6094,64.0469 Q23.5469,64.0469 24.2031,63.7969 Q24.5938,63.6406 25.0156,63.2031 Q25.2813,62.9375 25.4219,62.8594 Q25.5781,62.7813 25.7813,62.7813 Q26.1094,62.7813 26.3594,63.0469 Q26.625,63.2969 26.625,63.6406 Q26.625,63.9844 26.2813,64.3906 Q25.7813,64.9688 24.9844,65.2969 Q23.9063,65.75 22.6094,65.75 Q21.0938,65.75 19.8906,65.125 Q18.9063,64.625 18.2188,63.5625 Q17.5313,62.4844 17.5313,61.2031 L17.5313,60.0469 Q17.5313,58.7188 18.1406,57.5781 Q18.7656,56.4219 19.8594,55.8125 Q20.9531,55.1875 22.1875,55.1875 Q22.9219,55.1875 23.5625,55.3594 Q24.2188,55.5156 24.7656,55.875 Z " fill="#000000"/><text fill="#000000" font-family="sans-serif" font-size="14" lengthAdjust="spacing" textLength="111" x="36" y="65.7969">RegisterVehicleUI</text><line style="stroke:#181818;stroke-width:0.5;" x1="8" x2="149" y1="76" y2="76"/><line style="stroke:#181818;stroke-width:0.5;" x1="8" x2="149" y1="84" y2="84"/></g><!--class RegisterVehicleController--><g id="elem_RegisterVehicleController"><rect codeLine="9" fill="#F1F1F1" height="103.8633" id="RegisterVehicleController" rx="2.5" ry="2.5" style="stroke:#181818;stroke-width:0.5;" width="193" x="185" y="16"/><ellipse cx="200" cy="32" fill="#ADD1B2" rx="11" ry="11" style="stroke:#181818;stroke-width:1.0;"/><path d="M202.7656,27.875 Q202.9219,27.6563 203.1094,27.5469 Q203.2969,27.4375 203.5156,27.4375 Q203.8906,27.4375 204.125,27.7031 Q204.3594,27.9531 204.3594,28.5625 L204.3594,30.0156 Q204.3594,30.625 204.125,30.8906 Q203.8906,31.1563 203.5156,31.1563 Q203.1719,31.1563 202.9688,30.9531 Q202.7656,30.7656 202.6563,30.25 Q202.6094,29.8906 202.4219,29.7031 Q202.0938,29.3281 201.4844,29.1094 Q200.875,28.8906 200.25,28.8906 Q199.4844,28.8906 198.8438,29.2188 Q198.2188,29.5469 197.7188,30.2969 Q197.2344,31.0469 197.2344,32.0781 L197.2344,33.1719 Q197.2344,34.4063 198.125,35.2344 Q199.0156,36.0469 200.6094,36.0469 Q201.5469,36.0469 202.2031,35.7969 Q202.5938,35.6406 203.0156,35.2031 Q203.2813,34.9375 203.4219,34.8594 Q203.5781,34.7813 203.7813,34.7813 Q204.1094,34.7813 204.3594,35.0469 Q204.625,35.2969 204.625,35.6406 Q204.625,35.9844 204.2813,36.3906 Q203.7813,36.9688 202.9844,37.2969 Q201.9063,37.75 200.6094,37.75 Q199.0938,37.75 197.8906,37.125 Q196.9063,36.625 196.2188,35.5625 Q195.5313,34.4844 195.5313,33.2031 L195.5313,32.0469 Q195.5313,30.7188 196.1406,29.5781 Q196.7656,28.4219 197.8594,27.8125 Q198.9531,27.1875 200.1875,27.1875 Q200.9219,27.1875 201.5625,27.3594 Q202.2188,27.5156 202.7656,27.875 Z " fill="#000000"/><text fill="#000000" font-family="sans-serif" font-size="14" lengthAdjust="spacing" textLength="161" x="214" y="37.7969">RegisterVehicleController</text><line style="stroke:#181818;stroke-width:0.5;" x1="186" x2="377" y1="48" y2="48"/><line style="stroke:#181818;stroke-width:0.5;" x1="186" x2="377" y1="56" y2="56"/><text fill="#000000" font-family="sans-serif" font-size="14" lengthAdjust="spacing" textLength="179" x="191" y="75.1074">+RegisterVehicleController()</text><text fill="#000000" font-family="sans-serif" font-size="14" lengthAdjust="spacing" textLength="113" x="191" y="93.7285">+getVehiclesList()</text><text fill="#000000" font-family="sans-serif" font-size="14" lengthAdjust="spacing" textLength="174" x="191" y="112.3496">+getPlateCertificationsList()</text></g><!--class Repositories--><g id="elem_Repositories"><rect codeLine="15" fill="#F1F1F1" height="122.4844" id="Repositories" rx="2.5" ry="2.5" style="stroke:#181818;stroke-width:0.5;" width="232" x="511.5" y="7"/><ellipse cx="583.75" cy="23" fill="#ADD1B2" rx="11" ry="11" style="stroke:#181818;stroke-width:1.0;"/><path d="M586.5156,18.875 Q586.6719,18.6563 586.8594,18.5469 Q587.0469,18.4375 587.2656,18.4375 Q587.6406,18.4375 587.875,18.7031 Q588.1094,18.9531 588.1094,19.5625 L588.1094,21.0156 Q588.1094,21.625 587.875,21.8906 Q587.6406,22.1563 587.2656,22.1563 Q586.9219,22.1563 586.7188,21.9531 Q586.5156,21.7656 586.4063,21.25 Q586.3594,20.8906 586.1719,20.7031 Q585.8438,20.3281 585.2344,20.1094 Q584.625,19.8906 584,19.8906 Q583.2344,19.8906 582.5938,20.2188 Q581.9688,20.5469 581.4688,21.2969 Q580.9844,22.0469 580.9844,23.0781 L580.9844,24.1719 Q580.9844,25.4063 581.875,26.2344 Q582.7656,27.0469 584.3594,27.0469 Q585.2969,27.0469 585.9531,26.7969 Q586.3438,26.6406 586.7656,26.2031 Q587.0313,25.9375 587.1719,25.8594 Q587.3281,25.7813 587.5313,25.7813 Q587.8594,25.7813 588.1094,26.0469 Q588.375,26.2969 588.375,26.6406 Q588.375,26.9844 588.0313,27.3906 Q587.5313,27.9688 586.7344,28.2969 Q585.6563,28.75 584.3594,28.75 Q582.8438,28.75 581.6406,28.125 Q580.6563,27.625 579.9688,26.5625 Q579.2813,25.4844 579.2813,24.2031 L579.2813,23.0469 Q579.2813,21.7188 579.8906,20.5781 Q580.5156,19.4219 581.6094,18.8125 Q582.7031,18.1875 583.9375,18.1875 Q584.6719,18.1875 585.3125,18.3594 Q585.9688,18.5156 586.5156,18.875 Z " fill="#000000"/><text fill="#000000" font-family="sans-serif" font-size="14" lengthAdjust="spacing" textLength="79" x="604.25" y="28.7969">Repositories</text><line style="stroke:#181818;stroke-width:0.5;" x1="512.5" x2="742.5" y1="39" y2="39"/><line style="stroke:#181818;stroke-width:0.5;" x1="512.5" x2="742.5" y1="47" y2="47"/><text fill="#000000" font-family="sans-serif" font-size="14" lengthAdjust="spacing" textLength="94" x="517.5" y="66.1074">-Repositories()</text><text fill="#000000" font-family="sans-serif" font-size="14" lengthAdjust="spacing" textLength="182" x="517.5" y="84.7285">+getInstance() : Repositories</text><text fill="#000000" font-family="sans-serif" font-size="14" lengthAdjust="spacing" textLength="159" x="517.5" y="103.3496">+getVehiclesRepository()</text><text fill="#000000" font-family="sans-serif" font-size="14" lengthAdjust="spacing" textLength="220" x="517.5" y="121.9707">+getPlateCertificationsRepository()</text></g><!--class Vehicle--><g id="elem_Vehicle"><rect codeLine="22" fill="#F1F1F1" height="345.9375" id="Vehicle" rx="2.5" ry="2.5" style="stroke:#181818;stroke-width:0.5;" width="264" x="187.5" y="465"/><ellipse cx="292.25" cy="481" fill="#ADD1B2" rx="11" ry="11" style="stroke:#181818;stroke-width:1.0;"/><path d="M295.0156,476.875 Q295.1719,476.6563 295.3594,476.5469 Q295.5469,476.4375 295.7656,476.4375 Q296.1406,476.4375 296.375,476.7031 Q296.6094,476.9531 296.6094,477.5625 L296.6094,479.0156 Q296.6094,479.625 296.375,479.8906 Q296.1406,480.1563 295.7656,480.1563 Q295.4219,480.1563 295.2188,479.9531 Q295.0156,479.7656 294.9063,479.25 Q294.8594,478.8906 294.6719,478.7031 Q294.3438,478.3281 293.7344,478.1094 Q293.125,477.8906 292.5,477.8906 Q291.7344,477.8906 291.0938,478.2188 Q290.4688,478.5469 289.9688,479.2969 Q289.4844,480.0469 289.4844,481.0781 L289.4844,482.1719 Q289.4844,483.4063 290.375,484.2344 Q291.2656,485.0469 292.8594,485.0469 Q293.7969,485.0469 294.4531,484.7969 Q294.8438,484.6406 295.2656,484.2031 Q295.5313,483.9375 295.6719,483.8594 Q295.8281,483.7813 296.0313,483.7813 Q296.3594,483.7813 296.6094,484.0469 Q296.875,484.2969 296.875,484.6406 Q296.875,484.9844 296.5313,485.3906 Q296.0313,485.9688 295.2344,486.2969 Q294.1563,486.75 292.8594,486.75 Q291.3438,486.75 290.1406,486.125 Q289.1563,485.625 288.4688,484.5625 Q287.7813,483.4844 287.7813,482.2031 L287.7813,481.0469 Q287.7813,479.7188 288.3906,478.5781 Q289.0156,477.4219 290.1094,476.8125 Q291.2031,476.1875 292.4375,476.1875 Q293.1719,476.1875 293.8125,476.3594 Q294.4688,476.5156 295.0156,476.875 Z " fill="#000000"/><text fill="#000000" font-family="sans-serif" font-size="14" lengthAdjust="spacing" textLength="46" x="312.75" y="486.7969">Vehicle</text><line style="stroke:#181818;stroke-width:0.5;" x1="188.5" x2="450.5" y1="497" y2="497"/><text fill="#000000" font-family="sans-serif" font-size="14" lengthAdjust="spacing" textLength="117" x="193.5" y="516.1074">-double currentKm</text><text fill="#000000" font-family="sans-serif" font-size="14" lengthAdjust="spacing" textLength="136" x="193.5" y="534.7285">-Date acquisitionDate</text><text fill="#000000" font-family="sans-serif" font-size="14" lengthAdjust="spacing" textLength="133" x="193.5" y="553.3496">-double maintenance</text><text fill="#000000" font-family="sans-serif" font-size="14" lengthAdjust="spacing" textLength="252" x="193.5" y="571.9707">-PlateCertification final plateCertification</text><line style="stroke:#181818;stroke-width:0.5;" x1="188.5" x2="450.5" y1="579.4844" y2="579.4844"/><text fill="#000000" font-family="sans-serif" font-size="14" lengthAdjust="spacing" textLength="108" x="193.5" y="598.5918">+Vehicle(vehicle)</text><text fill="#000000" font-family="sans-serif" font-size="14" lengthAdjust="spacing" textLength="157" x="193.5" y="617.2129">+validateVehicle(vehicle)</text><text fill="#000000" font-family="sans-serif" font-size="14" lengthAdjust="spacing" textLength="106" x="193.5" y="635.834">+getCurrentKm()</text><text fill="#000000" font-family="sans-serif" font-size="14" lengthAdjust="spacing" textLength="105" x="193.5" y="654.4551">+setCurrentKm()</text><text fill="#000000" font-family="sans-serif" font-size="14" lengthAdjust="spacing" textLength="136" x="193.5" y="673.0762">+getAcquisitionDate()</text><text fill="#000000" font-family="sans-serif" font-size="14" lengthAdjust="spacing" textLength="135" x="193.5" y="691.6973">+setAcquisitionDate()</text><text fill="#000000" font-family="sans-serif" font-size="14" lengthAdjust="spacing" textLength="119" x="193.5" y="710.3184">+getMaintenance()</text><text fill="#000000" font-family="sans-serif" font-size="14" lengthAdjust="spacing" textLength="118" x="193.5" y="728.9395">+setMaintenance()</text><text fill="#000000" font-family="sans-serif" font-size="14" lengthAdjust="spacing" textLength="145" x="193.5" y="747.5605">+getPlateCertification()</text><text fill="#000000" font-family="sans-serif" font-size="14" lengthAdjust="spacing" textLength="60" x="193.5" y="766.1816">+equals()</text><text fill="#000000" font-family="sans-serif" font-size="14" lengthAdjust="spacing" textLength="67" x="193.5" y="784.8027">+toString()</text><text fill="#000000" font-family="sans-serif" font-size="14" lengthAdjust="spacing" textLength="52" x="193.5" y="803.4238">+clone()</text></g><!--class VehiclesRepository--><g id="elem_VehiclesRepository"><rect codeLine="41" fill="#F1F1F1" height="178.3477" id="VehiclesRepository" rx="2.5" ry="2.5" style="stroke:#181818;stroke-width:0.5;" width="217" x="275" y="208"/><ellipse cx="318.8" cy="224" fill="#ADD1B2" rx="11" ry="11" style="stroke:#181818;stroke-width:1.0;"/><path d="M321.5656,219.875 Q321.7219,219.6563 321.9094,219.5469 Q322.0969,219.4375 322.3156,219.4375 Q322.6906,219.4375 322.925,219.7031 Q323.1594,219.9531 323.1594,220.5625 L323.1594,222.0156 Q323.1594,222.625 322.925,222.8906 Q322.6906,223.1563 322.3156,223.1563 Q321.9719,223.1563 321.7688,222.9531 Q321.5656,222.7656 321.4563,222.25 Q321.4094,221.8906 321.2219,221.7031 Q320.8938,221.3281 320.2844,221.1094 Q319.675,220.8906 319.05,220.8906 Q318.2844,220.8906 317.6438,221.2188 Q317.0188,221.5469 316.5188,222.2969 Q316.0344,223.0469 316.0344,224.0781 L316.0344,225.1719 Q316.0344,226.4063 316.925,227.2344 Q317.8156,228.0469 319.4094,228.0469 Q320.3469,228.0469 321.0031,227.7969 Q321.3938,227.6406 321.8156,227.2031 Q322.0813,226.9375 322.2219,226.8594 Q322.3781,226.7813 322.5813,226.7813 Q322.9094,226.7813 323.1594,227.0469 Q323.425,227.2969 323.425,227.6406 Q323.425,227.9844 323.0813,228.3906 Q322.5813,228.9688 321.7844,229.2969 Q320.7063,229.75 319.4094,229.75 Q317.8938,229.75 316.6906,229.125 Q315.7063,228.625 315.0188,227.5625 Q314.3313,226.4844 314.3313,225.2031 L314.3313,224.0469 Q314.3313,222.7188 314.9406,221.5781 Q315.5656,220.4219 316.6594,219.8125 Q317.7531,219.1875 318.9875,219.1875 Q319.7219,219.1875 320.3625,219.3594 Q321.0188,219.5156 321.5656,219.875 Z " fill="#000000"/><text fill="#000000" font-family="sans-serif" font-size="14" lengthAdjust="spacing" textLength="121" x="339.2" y="229.7969">VehiclesRepository</text><line style="stroke:#181818;stroke-width:0.5;" x1="276" x2="491" y1="240" y2="240"/><text fill="#000000" font-family="sans-serif" font-size="14" lengthAdjust="spacing" textLength="166" x="281" y="259.1074">-List&lt;Vehicle&gt; vehiclesList</text><line style="stroke:#181818;stroke-width:0.5;" x1="276" x2="491" y1="266.6211" y2="266.6211"/><text fill="#000000" font-family="sans-serif" font-size="14" lengthAdjust="spacing" textLength="113" x="281" y="285.7285">+getVehiclesList()</text><text fill="#000000" font-family="sans-serif" font-size="14" lengthAdjust="spacing" textLength="132" x="281" y="304.3496">+addVehicle(vehicle)</text><text fill="#000000" font-family="sans-serif" font-size="14" lengthAdjust="spacing" textLength="157" x="281" y="322.9707">+validateVehicle(vehicle)</text><text fill="#000000" font-family="sans-serif" font-size="14" lengthAdjust="spacing" textLength="139" x="281" y="341.5918">+VehiclesRepository()</text><text fill="#000000" font-family="sans-serif" font-size="14" lengthAdjust="spacing" textLength="205" x="281" y="360.2129">+Optional&lt;Vehicle&gt; add(vehicle)</text><text fill="#000000" font-family="sans-serif" font-size="14" lengthAdjust="spacing" textLength="109" x="281" y="378.834">+remove(vehicle)</text></g><!--class PlateCertification--><g id="elem_PlateCertification"><rect codeLine="51" fill="#F1F1F1" height="532.1484" id="PlateCertification" rx="2.5" ry="2.5" style="stroke:#181818;stroke-width:0.5;" width="292" x="173.5" y="890"/><ellipse cx="261.75" cy="906" fill="#ADD1B2" rx="11" ry="11" style="stroke:#181818;stroke-width:1.0;"/><path d="M264.5156,901.875 Q264.6719,901.6563 264.8594,901.5469 Q265.0469,901.4375 265.2656,901.4375 Q265.6406,901.4375 265.875,901.7031 Q266.1094,901.9531 266.1094,902.5625 L266.1094,904.0156 Q266.1094,904.625 265.875,904.8906 Q265.6406,905.1563 265.2656,905.1563 Q264.9219,905.1563 264.7188,904.9531 Q264.5156,904.7656 264.4063,904.25 Q264.3594,903.8906 264.1719,903.7031 Q263.8438,903.3281 263.2344,903.1094 Q262.625,902.8906 262,902.8906 Q261.2344,902.8906 260.5938,903.2188 Q259.9688,903.5469 259.4688,904.2969 Q258.9844,905.0469 258.9844,906.0781 L258.9844,907.1719 Q258.9844,908.4063 259.875,909.2344 Q260.7656,910.0469 262.3594,910.0469 Q263.2969,910.0469 263.9531,909.7969 Q264.3438,909.6406 264.7656,909.2031 Q265.0313,908.9375 265.1719,908.8594 Q265.3281,908.7813 265.5313,908.7813 Q265.8594,908.7813 266.1094,909.0469 Q266.375,909.2969 266.375,909.6406 Q266.375,909.9844 266.0313,910.3906 Q265.5313,910.9688 264.7344,911.2969 Q263.6563,911.75 262.3594,911.75 Q260.8438,911.75 259.6406,911.125 Q258.6563,910.625 257.9688,909.5625 Q257.2813,908.4844 257.2813,907.2031 L257.2813,906.0469 Q257.2813,904.7188 257.8906,903.5781 Q258.5156,902.4219 259.6094,901.8125 Q260.7031,901.1875 261.9375,901.1875 Q262.6719,901.1875 263.3125,901.3594 Q263.9688,901.5156 264.5156,901.875 Z " fill="#000000"/><text fill="#000000" font-family="sans-serif" font-size="14" lengthAdjust="spacing" textLength="107" x="282.25" y="911.7969">PlateCertification</text><line style="stroke:#181818;stroke-width:0.5;" x1="174.5" x2="464.5" y1="922" y2="922"/><text fill="#000000" font-family="sans-serif" font-size="14" lengthAdjust="spacing" textLength="83" x="179.5" y="941.1074">-String brand</text><text fill="#000000" font-family="sans-serif" font-size="14" lengthAdjust="spacing" textLength="84" x="179.5" y="959.7285">-String model</text><text fill="#000000" font-family="sans-serif" font-size="14" lengthAdjust="spacing" textLength="73" x="179.5" y="978.3496">-String type</text><text fill="#000000" font-family="sans-serif" font-size="14" lengthAdjust="spacing" textLength="77" x="179.5" y="996.9707">-double tare</text><text fill="#000000" font-family="sans-serif" font-size="14" lengthAdjust="spacing" textLength="131" x="179.5" y="1015.5918">-double grossWeight</text><text fill="#000000" font-family="sans-serif" font-size="14" lengthAdjust="spacing" textLength="117" x="179.5" y="1034.2129">-Date registerDate</text><text fill="#000000" font-family="sans-serif" font-size="14" lengthAdjust="spacing" textLength="77" x="179.5" y="1052.834">-String plate</text><line style="stroke:#181818;stroke-width:0.5;" x1="174.5" x2="464.5" y1="1060.3477" y2="1060.3477"/><text fill="#000000" font-family="sans-serif" font-size="14" lengthAdjust="spacing" textLength="231" x="179.5" y="1079.4551">+PlateCertification(plateCertification)</text><text fill="#000000" font-family="sans-serif" font-size="14" lengthAdjust="spacing" textLength="280" x="179.5" y="1098.0762">+validatePlateCertification(plateCertification)</text><text fill="#000000" font-family="sans-serif" font-size="14" lengthAdjust="spacing" textLength="117" x="179.5" y="1116.6973">+String getBrand()</text><text fill="#000000" font-family="sans-serif" font-size="14" lengthAdjust="spacing" textLength="117" x="179.5" y="1135.3184">+String getModel()</text><text fill="#000000" font-family="sans-serif" font-size="14" lengthAdjust="spacing" textLength="111" x="179.5" y="1153.9395">+String getType()</text><text fill="#000000" font-family="sans-serif" font-size="14" lengthAdjust="spacing" textLength="115" x="179.5" y="1172.5605">+double getTare()</text><text fill="#000000" font-family="sans-serif" font-size="14" lengthAdjust="spacing" textLength="167" x="179.5" y="1191.1816">+double getGrossWeight()</text><text fill="#000000" font-family="sans-serif" font-size="14" lengthAdjust="spacing" textLength="155" x="179.5" y="1209.8027">+Date getRegisterDate()</text><text fill="#000000" font-family="sans-serif" font-size="14" lengthAdjust="spacing" textLength="111" x="179.5" y="1228.4238">+String getPlate()</text><text fill="#000000" font-family="sans-serif" font-size="14" lengthAdjust="spacing" textLength="153" x="179.5" y="1247.0449">+setBrand(String brand)</text><text fill="#000000" font-family="sans-serif" font-size="14" lengthAdjust="spacing" textLength="154" x="179.5" y="1265.666">+setModel(String model)</text><text fill="#000000" font-family="sans-serif" font-size="14" lengthAdjust="spacing" textLength="137" x="179.5" y="1284.2871">+setType(String type)</text><text fill="#000000" font-family="sans-serif" font-size="14" lengthAdjust="spacing" textLength="139" x="179.5" y="1302.9082">+setTare(double tare)</text><text fill="#000000" font-family="sans-serif" font-size="14" lengthAdjust="spacing" textLength="245" x="179.5" y="1321.5293">+setGrossWeight(double grossWeight)</text><text fill="#000000" font-family="sans-serif" font-size="14" lengthAdjust="spacing" textLength="232" x="179.5" y="1340.1504">+setRegisterDate(Date registerDate)</text><text fill="#000000" font-family="sans-serif" font-size="14" lengthAdjust="spacing" textLength="141" x="179.5" y="1358.7715">+setPlate(String plate)</text><text fill="#000000" font-family="sans-serif" font-size="14" lengthAdjust="spacing" textLength="102" x="179.5" y="1377.3926">+int hashCode()</text><text fill="#000000" font-family="sans-serif" font-size="14" lengthAdjust="spacing" textLength="108" x="179.5" y="1396.0137">+String toString()</text><text fill="#000000" font-family="sans-serif" font-size="14" lengthAdjust="spacing" textLength="168" x="179.5" y="1414.6348">+boolean equals(Object o)</text></g><!--class PlateCertificationsRepository--><g id="elem_PlateCertificationsRepository"><rect codeLine="80" fill="#F1F1F1" height="178.3477" id="PlateCertificationsRepository" rx="2.5" ry="2.5" style="stroke:#181818;stroke-width:0.5;" width="340" x="527.5" y="208"/><ellipse cx="602.25" cy="224" fill="#ADD1B2" rx="11" ry="11" style="stroke:#181818;stroke-width:1.0;"/><path d="M605.0156,219.875 Q605.1719,219.6563 605.3594,219.5469 Q605.5469,219.4375 605.7656,219.4375 Q606.1406,219.4375 606.375,219.7031 Q606.6094,219.9531 606.6094,220.5625 L606.6094,222.0156 Q606.6094,222.625 606.375,222.8906 Q606.1406,223.1563 605.7656,223.1563 Q605.4219,223.1563 605.2188,222.9531 Q605.0156,222.7656 604.9063,222.25 Q604.8594,221.8906 604.6719,221.7031 Q604.3438,221.3281 603.7344,221.1094 Q603.125,220.8906 602.5,220.8906 Q601.7344,220.8906 601.0938,221.2188 Q600.4688,221.5469 599.9688,222.2969 Q599.4844,223.0469 599.4844,224.0781 L599.4844,225.1719 Q599.4844,226.4063 600.375,227.2344 Q601.2656,228.0469 602.8594,228.0469 Q603.7969,228.0469 604.4531,227.7969 Q604.8438,227.6406 605.2656,227.2031 Q605.5313,226.9375 605.6719,226.8594 Q605.8281,226.7813 606.0313,226.7813 Q606.3594,226.7813 606.6094,227.0469 Q606.875,227.2969 606.875,227.6406 Q606.875,227.9844 606.5313,228.3906 Q606.0313,228.9688 605.2344,229.2969 Q604.1563,229.75 602.8594,229.75 Q601.3438,229.75 600.1406,229.125 Q599.1563,228.625 598.4688,227.5625 Q597.7813,226.4844 597.7813,225.2031 L597.7813,224.0469 Q597.7813,222.7188 598.3906,221.5781 Q599.0156,220.4219 600.1094,219.8125 Q601.2031,219.1875 602.4375,219.1875 Q603.1719,219.1875 603.8125,219.3594 Q604.4688,219.5156 605.0156,219.875 Z " fill="#000000"/><text fill="#000000" font-family="sans-serif" font-size="14" lengthAdjust="spacing" textLength="182" x="622.75" y="229.7969">PlateCertificationsRepository</text><line style="stroke:#181818;stroke-width:0.5;" x1="528.5" x2="866.5" y1="240" y2="240"/><text fill="#000000" font-family="sans-serif" font-size="14" lengthAdjust="spacing" textLength="289" x="533.5" y="259.1074">-List&lt;PlateCertification&gt; plateCertificationsList</text><line style="stroke:#181818;stroke-width:0.5;" x1="528.5" x2="866.5" y1="266.6211" y2="266.6211"/><text fill="#000000" font-family="sans-serif" font-size="14" lengthAdjust="spacing" textLength="174" x="533.5" y="285.7285">+getPlateCertificationsList()</text><text fill="#000000" font-family="sans-serif" font-size="14" lengthAdjust="spacing" textLength="255" x="533.5" y="304.3496">+addPlateCertification(plateCertification)</text><text fill="#000000" font-family="sans-serif" font-size="14" lengthAdjust="spacing" textLength="287" x="533.5" y="322.9707">+validatePlateCertifications(plateCertification)</text><text fill="#000000" font-family="sans-serif" font-size="14" lengthAdjust="spacing" textLength="200" x="533.5" y="341.5918">+PlateCertificationsRepository()</text><text fill="#000000" font-family="sans-serif" font-size="14" lengthAdjust="spacing" textLength="328" x="533.5" y="360.2129">+Optional&lt;PlateCertification&gt; add(plateCertification)</text><text fill="#000000" font-family="sans-serif" font-size="14" lengthAdjust="spacing" textLength="171" x="533.5" y="378.834">+remove(plateCertification)</text></g><!--link RegisterVehicleUI to RegisterVehicleController--><g id="link_RegisterVehicleUI_RegisterVehicleController"><path codeLine="90" d="M150.2,68 C157.03,68 165.43,68 178.82,68 " fill="none" id="RegisterVehicleUI-to-RegisterVehicleController" style="stroke:#181818;stroke-width:1.0;stroke-dasharray:7.0,7.0;"/><polygon fill="#181818" points="184.82,68,175.82,64,179.82,68,175.82,72,184.82,68" style="stroke:#181818;stroke-width:1.0;"/></g><!--link RegisterVehicleController to Repositories--><g id="link_RegisterVehicleController_Repositories"><path codeLine="92" d="M378.34,68 C419.62,68 462.14,68 505.33,68 " fill="none" id="RegisterVehicleController-to-Repositories" style="stroke:#181818;stroke-width:1.0;stroke-dasharray:7.0,7.0;"/><polygon fill="#181818" points="511.33,68,502.33,64,506.33,68,502.33,72,511.33,68" style="stroke:#181818;stroke-width:1.0;"/><text fill="#000000" font-family="sans-serif" font-size="13" lengthAdjust="spacing" textLength="67" x="411.25" y="61.0283">repositories</text></g><!--link Repositories to VehiclesRepository--><g id="link_Repositories_VehiclesRepository"><path codeLine="93" d="M615.34,129.24 C610.25,154.45 605.5,178 605.5,178 C605.5,178 510.5,208 510.5,208 C510.5,208 508.1016,209.6624 496.9616,217.3824 " fill="none" id="Repositories-to-VehiclesRepository" style="stroke:#181818;stroke-width:1.0;"/><polygon fill="#181818" points="492.03,220.8,501.7057,218.9614,496.1396,217.952,497.149,212.386,492.03,220.8" style="stroke:#181818;stroke-width:1.0;"/><text fill="#000000" font-family="sans-serif" font-size="13" lengthAdjust="spacing" textLength="7" x="499.9071" y="211.8709">1</text></g><!--link RegisterVehicleController to Vehicle--><g id="link_RegisterVehicleController_Vehicle"><path codeLine="95" d="M256,120.36 C236.35,159.96 212.5,208 212.5,208 C212.5,208 212.5,386 212.5,386 C212.5,386 225.0373,415.4105 243.7073,459.2105 " fill="none" id="RegisterVehicleController-to-Vehicle" style="stroke:#181818;stroke-width:1.0;stroke-dasharray:7.0,7.0;"/><polygon fill="#181818" points="246.06,464.73,246.2106,454.8823,244.0994,460.1304,238.8513,458.0192,246.06,464.73" style="stroke:#181818;stroke-width:1.0;"/><text fill="#000000" font-family="sans-serif" font-size="13" lengthAdjust="spacing" textLength="43" x="213.5" y="302.5283">Vehicle</text></g><!--link RegisterVehicleController to VehiclesRepository--><g id="link_RegisterVehicleController_VehiclesRepository"><path codeLine="96" d="M279.8,120.05 C279.12,140.36 278.5,159 278.5,159 C278.5,159 278.5,178 278.5,178 C278.5,178 285.8112,186.2179 301.0112,203.2979 " fill="none" id="RegisterVehicleController-to-VehiclesRepository" style="stroke:#181818;stroke-width:1.0;stroke-dasharray:7.0,7.0;"/><polygon fill="#181818" points="305,207.78,302.0049,198.3976,301.676,204.0449,296.0287,203.716,305,207.78" style="stroke:#181818;stroke-width:1.0;"/><text fill="#000000" font-family="sans-serif" font-size="13" lengthAdjust="spacing" textLength="112" x="279.5" y="174.0283">VehiclesRepository</text></g><!--link VehiclesRepository to Vehicle--><g id="link_VehiclesRepository_Vehicle"><path codeLine="98" d="M366.85,386.18 C362.28,410.41 358.2729,431.6441 353.1329,458.8741 " fill="none" id="VehiclesRepository-to-Vehicle" style="stroke:#181818;stroke-width:1.0;"/><polygon fill="#181818" points="352.02,464.77,357.62,456.6681,352.9474,459.8568,349.7588,455.1842,352.02,464.77" style="stroke:#181818;stroke-width:1.0;"/><text fill="#000000" font-family="sans-serif" font-size="13" lengthAdjust="spacing" textLength="7" x="358.1813" y="408.2951">1</text><text fill="#000000" font-family="sans-serif" font-size="13" lengthAdjust="spacing" textLength="5" x="348.3803" y="453.5717">*</text></g><!--link Repositories to PlateCertificationsRepository--><g id="link_Repositories_PlateCertificationsRepository"><path codeLine="100" d="M646.07,129.24 C653.49,153.27 660.4015,175.6966 668.5015,201.9566 " fill="none" id="Repositories-to-PlateCertificationsRepository" style="stroke:#181818;stroke-width:1.0;"/><polygon fill="#181818" points="670.27,207.69,671.4395,197.9108,668.7962,202.9121,663.7949,200.2688,670.27,207.69" style="stroke:#181818;stroke-width:1.0;"/><text fill="#000000" font-family="sans-serif" font-size="13" lengthAdjust="spacing" textLength="7" x="660.7252" y="196.6161">1</text></g><!--link RegisterVehicleController to PlateCertification--><g id="link_RegisterVehicleController_PlateCertification"><path codeLine="102" d="M246.33,120.05 C232.34,140.36 219.5,159 219.5,159 C219.5,159 118.5,416 118.5,416 C118.5,416 118.5,435 118.5,435 C118.5,435 169.5,811 169.5,811 C169.5,811 181.5723,838.6799 201.5123,884.4199 " fill="none" id="RegisterVehicleController-to-PlateCertification" style="stroke:#181818;stroke-width:1.0;stroke-dasharray:7.0,7.0;"/><polygon fill="#181818" points="203.91,889.92,203.9801,880.0714,201.9119,885.3366,196.6467,883.2684,203.91,889.92" style="stroke:#181818;stroke-width:1.0;"/><text fill="#000000" font-family="sans-serif" font-size="13" lengthAdjust="spacing" textLength="98" x="119.5" y="431.0283">PlateCertification</text></g><!--link RegisterVehicleController to PlateCertificationsRepository--><g id="link_RegisterVehicleController_PlateCertificationsRepository"><path codeLine="103" d="M373.94,120.15 C425.13,148.47 478.5,178 478.5,178 C478.5,178 496.9379,187.934 528.7679,205.084 " fill="none" id="RegisterVehicleController-to-PlateCertificationsRepository" style="stroke:#181818;stroke-width:1.0;stroke-dasharray:7.0,7.0;"/><polygon fill="#181818" points="534.05,207.93,528.0242,200.1396,529.6483,205.5583,524.2296,207.1824,534.05,207.93" style="stroke:#181818;stroke-width:1.0;"/><text fill="#000000" font-family="sans-serif" font-size="13" lengthAdjust="spacing" textLength="167" x="479.5" y="174.0283">PlateCertificationsRepository</text></g><!--link PlateCertificationsRepository to PlateCertification--><g id="link_PlateCertificationsRepository_PlateCertification"><path codeLine="105" d="M658.65,386.09 C606.74,503.76 514.9214,711.9403 438.9314,884.2203 " fill="none" id="PlateCertificationsRepository-to-PlateCertification" style="stroke:#181818;stroke-width:1.0;"/><polygon fill="#181818" points="436.51,889.71,443.8019,883.0897,438.5278,885.1353,436.4823,879.8612,436.51,889.71" style="stroke:#181818;stroke-width:1.0;"/><text fill="#000000" font-family="sans-serif" font-size="13" lengthAdjust="spacing" textLength="7" x="648.0105" y="408.5025">1</text><text fill="#000000" font-family="sans-serif" font-size="13" lengthAdjust="spacing" textLength="5" x="434.9095" y="878.5826">*</text></g><!--reverse link Vehicle to PlateCertification--><g id="link_Vehicle_PlateCertification"><path codeLine="107" d="M319.5,823.18 C319.5,848.53 319.5,863.13 319.5,889.83 " fill="none" id="Vehicle-backto-PlateCertification" style="stroke:#181818;stroke-width:1.0;"/><polygon fill="#181818" points="319.5,811.18,315.5,817.18,319.5,823.18,323.5,817.18,319.5,811.18" style="stroke:#181818;stroke-width:1.0;"/><text fill="#000000" font-family="sans-serif" font-size="13" lengthAdjust="spacing" textLength="21" x="320.5" y="856.0283">has</text><text fill="#000000" font-family="sans-serif" font-size="13" lengthAdjust="spacing" textLength="7" x="312.3523" y="832.8804">1</text><text fill="#000000" font-family="sans-serif" font-size="13" lengthAdjust="spacing" textLength="7" x="312.3961" y="878.7062">1</text></g><!--SRC=[hLPBZzCm4BxdLrXxwYuAWck5AYr5GXMi5crvd9racffrxQpj5XN4VsUIEkwuSLeMqKlh-URnpSFZsaUX6cxuXZMyVEGrBDrU0ZDGEgvg2PaD2dRDA_r3g9gjkBGKaKA1spV06YttxO5WfUJMtZfdHB5ri2YrMegVm5vbMOUm1wY5TM2-mbgK4huisA_izmWuryePBIKOL6BuUJ6kCRds6ZKu3zgFg4hbdoHtC0VZn4gKt0cjUXN2eD5ME6q4M1yqZuJKtq9Ph5e9asisZPI6L0Awlq0eKWoql9l0gDBR0e_brXXGxiF6Yz-XEyRBfwr05-YjFSSM6owK0zMoFW132cmb59Ui6G2Uj-SosHs- -tHsN8eAJKPWp7RUimqbi2aXQjx6AL3zCGYjxewvKOkKE5dxWCBJ5YS-79rUuZYhEWXAgHKasaEQ5mPsR1nvLVrB8NFMUddZiHdR4TznVr8ZTz-qUN9vj4SQf_4DRFIEX0rP9aQbdyT3WLXXkAfYqKPN86DHkphYgNJSd4Xgewtz1g9UEphRnbz_CjZUQJUkFeD4QuVJV5hkPndveDZSjstAaw7yhiqx8V-CoGTndooAiG89yVjZ6GBQ5GAn1rABHA0k7teF3anff-WbwUZIdX6muqoQHw6MD-aYWIZtOLU9OfJ8eCr4yP0IRNWFuWrdQsxNSsH-Mel1zIsqbi1LVytlY-_u-Z5zTj97hlRuYn9k-NyQHZjgvLV2q6IMsE5qKLnwVKvsHYf0kpx6i_6R9AM0fHx-4tWv6t_V1_hapq5dHzxjAKOcZt64vVcCNRs-Icp9in4mHFy6J_jVVwTF9sUQ39jGR1bsJ6y2qooTnzacNaefiT6d2U6plSGvNw1utfnM8i6iBrwdTvFd8pL15hWUiZy0]--></g></svg>