<?xml version="1.0" encoding="UTF-8" standalone="no"?><svg xmlns="http://www.w3.org/2000/svg" xmlns:xlink="http://www.w3.org/1999/xlink" contentStyleType="text/css" height="1130px" preserveAspectRatio="none" style="width:2146px;height:1130px;background:#FFFFFF;" version="1.1" viewBox="0 0 2146 1130" width="2146px" zoomAndPan="magnify"><defs/><g><rect fill="#FFFFFF" height="873.2794" style="stroke:#181818;stroke-width:1.0;" width="10" x="75.5" y="129.4799"/><rect fill="#FFFFFF" height="312.1598" style="stroke:#181818;stroke-width:1.0;" width="10" x="680.5" y="162.7199"/><rect fill="#FFFFFF" height="395.1598" style="stroke:#181818;stroke-width:1.0;" width="10" x="680.5" y="516.1197"/><rect fill="#FFFFFF" height="41.24" style="stroke:#181818;stroke-width:1.0;" width="10" x="680.5" y="952.5194"/><rect fill="#FFFFFF" height="30" style="stroke:#181818;stroke-width:1.0;" width="10" x="936.5" y="203.9599"/><rect fill="#FFFFFF" height="71.24" style="stroke:#181818;stroke-width:1.0;" width="10" x="936.5" y="557.3596"/><rect fill="#FFFFFF" height="30" style="stroke:#181818;stroke-width:1.0;" width="10" x="1458.5" y="598.5996"/><rect fill="#FFFFFF" height="82.4799" style="stroke:#181818;stroke-width:1.0;" width="10" x="1458.5" y="787.5595"/><rect fill="#FFFFFF" height="616.8396" style="stroke:#181818;stroke-width:1.0;" width="10" x="1709" y="129.4799"/><rect fill="none" height="387.6397" style="stroke:#000000;stroke-width:1.5;" width="1857.5" x="10" y="318.4398"/><line style="stroke:#181818;stroke-width:0.5;stroke-dasharray:5.0,5.0;" x1="80" x2="80" y1="119.4799" y2="1011.7594"/><line style="stroke:#181818;stroke-width:0.5;stroke-dasharray:5.0,5.0;" x1="685" x2="685" y1="119.4799" y2="1011.7594"/><line style="stroke:#181818;stroke-width:0.5;stroke-dasharray:5.0,5.0;" x1="941.5" x2="941.5" y1="119.4799" y2="1011.7594"/><line style="stroke:#181818;stroke-width:0.5;stroke-dasharray:5.0,5.0;" x1="1145.5" x2="1145.5" y1="119.4799" y2="1011.7594"/><line style="stroke:#181818;stroke-width:0.5;stroke-dasharray:5.0,5.0;" x1="1289.5" x2="1289.5" y1="119.4799" y2="1011.7594"/><line style="stroke:#181818;stroke-width:0.5;stroke-dasharray:5.0,5.0;" x1="1463.5" x2="1463.5" y1="119.4799" y2="1011.7594"/><line style="stroke:#181818;stroke-width:0.5;stroke-dasharray:5.0,5.0;" x1="1713.5" x2="1713.5" y1="119.4799" y2="1011.7594"/><line style="stroke:#181818;stroke-width:0.5;stroke-dasharray:5.0,5.0;" x1="1909.5" x2="1909.5" y1="119.4799" y2="1011.7594"/><line style="stroke:#181818;stroke-width:0.5;stroke-dasharray:5.0,5.0;" x1="2051.5" x2="2051.5" y1="119.4799" y2="1011.7594"/><text fill="#000000" font-family="sans-serif" font-size="20" lengthAdjust="spacing" textLength="115" x="20" y="86.38">Vehicle Fleet</text><text fill="#000000" font-family="sans-serif" font-size="20" lengthAdjust="spacing" textLength="83" x="36" y="113.62">Manager</text><ellipse cx="80.5" cy="13.5" fill="#E3E3E3" rx="8" ry="8" style="stroke:#181818;stroke-width:0.5;"/><path d="M80.5,21.5 L80.5,48.5 M67.5,29.5 L93.5,29.5 M80.5,48.5 L67.5,63.5 M80.5,48.5 L93.5,63.5 " fill="none" style="stroke:#181818;stroke-width:0.5;"/><text fill="#000000" font-family="sans-serif" font-size="20" lengthAdjust="spacing" textLength="115" x="20" y="1032.1394">Vehicle Fleet</text><text fill="#000000" font-family="sans-serif" font-size="20" lengthAdjust="spacing" textLength="83" x="36" y="1059.3794">Manager</text><ellipse cx="80.5" cy="1073.7393" fill="#E3E3E3" rx="8" ry="8" style="stroke:#181818;stroke-width:0.5;"/><path d="M80.5,1081.7393 L80.5,1108.7393 M67.5,1089.7393 L93.5,1089.7393 M80.5,1108.7393 L67.5,1123.7393 M80.5,1108.7393 L93.5,1123.7393 " fill="none" style="stroke:#181818;stroke-width:0.5;"/><rect fill="#E3E3E3" height="41.24" rx="2.5" ry="2.5" style="stroke:#181818;stroke-width:0.5;" width="183" x="594" y="77.24"/><text fill="#000000" font-family="sans-serif" font-size="20" lengthAdjust="spacing" textLength="169" x="601" y="105.62">:RegisterVehicleUI</text><rect fill="#E3E3E3" height="41.24" rx="2.5" ry="2.5" style="stroke:#181818;stroke-width:0.5;" width="183" x="594" y="1010.7594"/><text fill="#000000" font-family="sans-serif" font-size="20" lengthAdjust="spacing" textLength="169" x="601" y="1039.1394">:RegisterVehicleUI</text><rect fill="#E3E3E3" height="41.24" rx="2.5" ry="2.5" style="stroke:#181818;stroke-width:0.5;" width="254" x="814.5" y="77.24"/><text fill="#000000" font-family="sans-serif" font-size="20" lengthAdjust="spacing" textLength="240" x="821.5" y="105.62">:RegisterVehicleController</text><rect fill="#E3E3E3" height="41.24" rx="2.5" ry="2.5" style="stroke:#181818;stroke-width:0.5;" width="254" x="814.5" y="1010.7594"/><text fill="#000000" font-family="sans-serif" font-size="20" lengthAdjust="spacing" textLength="240" x="821.5" y="1039.1394">:RegisterVehicleController</text><rect fill="#E3E3E3" height="41.24" rx="2.5" ry="2.5" style="stroke:#181818;stroke-width:0.5;" width="134" x="1078.5" y="77.24"/><text fill="#000000" font-family="sans-serif" font-size="20" lengthAdjust="spacing" textLength="120" x="1085.5" y="105.62">:Repositories</text><rect fill="#E3E3E3" height="41.24" rx="2.5" ry="2.5" style="stroke:#181818;stroke-width:0.5;" width="134" x="1078.5" y="1010.7594"/><text fill="#000000" font-family="sans-serif" font-size="20" lengthAdjust="spacing" textLength="120" x="1085.5" y="1039.1394">:Repositories</text><rect fill="#E3E3E3" height="68.4799" rx="2.5" ry="2.5" style="stroke:#181818;stroke-width:0.5;" width="134" x="1222.5" y="50"/><text fill="#000000" font-family="sans-serif" font-size="20" lengthAdjust="spacing" textLength="111" x="1234" y="78.38">repositories</text><text fill="#000000" font-family="sans-serif" font-size="20" lengthAdjust="spacing" textLength="120" x="1229.5" y="105.62">:Repositories</text><rect fill="#E3E3E3" height="68.4799" rx="2.5" ry="2.5" style="stroke:#181818;stroke-width:0.5;" width="134" x="1222.5" y="1010.7594"/><text fill="#000000" font-family="sans-serif" font-size="20" lengthAdjust="spacing" textLength="111" x="1234" y="1039.1394">repositories</text><text fill="#000000" font-family="sans-serif" font-size="20" lengthAdjust="spacing" textLength="120" x="1229.5" y="1066.3794">:Repositories</text><rect fill="#E3E3E3" height="68.4799" rx="2.5" ry="2.5" style="stroke:#181818;stroke-width:0.5;" width="194" x="1366.5" y="50"/><text fill="#000000" font-family="sans-serif" font-size="20" lengthAdjust="spacing" textLength="180" x="1373.5" y="78.38">VehiclesRepository:</text><text fill="#000000" font-family="sans-serif" font-size="20" lengthAdjust="spacing" textLength="175" x="1376" y="105.62">VehiclesRepository</text><rect fill="#E3E3E3" height="68.4799" rx="2.5" ry="2.5" style="stroke:#181818;stroke-width:0.5;" width="194" x="1366.5" y="1010.7594"/><text fill="#000000" font-family="sans-serif" font-size="20" lengthAdjust="spacing" textLength="180" x="1373.5" y="1039.1394">VehiclesRepository:</text><text fill="#000000" font-family="sans-serif" font-size="20" lengthAdjust="spacing" textLength="175" x="1376" y="1066.3794">VehiclesRepository</text><rect fill="#E3E3E3" height="68.4799" rx="2.5" ry="2.5" style="stroke:#181818;stroke-width:0.5;" width="287" x="1570.5" y="50"/><text fill="#000000" font-family="sans-serif" font-size="20" lengthAdjust="spacing" textLength="273" x="1577.5" y="78.38">PlateCertificationsRepository:</text><text fill="#000000" font-family="sans-serif" font-size="20" lengthAdjust="spacing" textLength="268" x="1580" y="105.62">PlateCertificationsRepository</text><rect fill="#E3E3E3" height="68.4799" rx="2.5" ry="2.5" style="stroke:#181818;stroke-width:0.5;" width="287" x="1570.5" y="1010.7594"/><text fill="#000000" font-family="sans-serif" font-size="20" lengthAdjust="spacing" textLength="273" x="1577.5" y="1039.1394">PlateCertificationsRepository:</text><text fill="#000000" font-family="sans-serif" font-size="20" lengthAdjust="spacing" textLength="268" x="1580" y="1066.3794">PlateCertificationsRepository</text><rect fill="#E3E3E3" height="68.4799" rx="2.5" ry="2.5" style="stroke:#181818;stroke-width:0.5;" width="85" x="1867.5" y="50"/><text fill="#000000" font-family="sans-serif" font-size="20" lengthAdjust="spacing" textLength="64" x="1878" y="78.38">vehicle</text><text fill="#000000" font-family="sans-serif" font-size="20" lengthAdjust="spacing" textLength="71" x="1874.5" y="105.62">:Vehicle</text><rect fill="#E3E3E3" height="68.4799" rx="2.5" ry="2.5" style="stroke:#181818;stroke-width:0.5;" width="85" x="1867.5" y="1010.7594"/><text fill="#000000" font-family="sans-serif" font-size="20" lengthAdjust="spacing" textLength="64" x="1878" y="1039.1394">vehicle</text><text fill="#000000" font-family="sans-serif" font-size="20" lengthAdjust="spacing" textLength="71" x="1874.5" y="1066.3794">:Vehicle</text><rect fill="#E3E3E3" height="68.4799" rx="2.5" ry="2.5" style="stroke:#181818;stroke-width:0.5;" width="178" x="1962.5" y="50"/><text fill="#000000" font-family="sans-serif" font-size="20" lengthAdjust="spacing" textLength="159" x="1972" y="78.38">plateCertification</text><text fill="#000000" font-family="sans-serif" font-size="20" lengthAdjust="spacing" textLength="164" x="1969.5" y="105.62">:PlateCertification</text><rect fill="#E3E3E3" height="68.4799" rx="2.5" ry="2.5" style="stroke:#181818;stroke-width:0.5;" width="178" x="1962.5" y="1010.7594"/><text fill="#000000" font-family="sans-serif" font-size="20" lengthAdjust="spacing" textLength="159" x="1972" y="1039.1394">plateCertification</text><text fill="#000000" font-family="sans-serif" font-size="20" lengthAdjust="spacing" textLength="164" x="1969.5" y="1066.3794">:PlateCertification</text><rect fill="#FFFFFF" height="873.2794" style="stroke:#181818;stroke-width:1.0;" width="10" x="75.5" y="129.4799"/><rect fill="#FFFFFF" height="312.1598" style="stroke:#181818;stroke-width:1.0;" width="10" x="680.5" y="162.7199"/><rect fill="#FFFFFF" height="395.1598" style="stroke:#181818;stroke-width:1.0;" width="10" x="680.5" y="516.1197"/><rect fill="#FFFFFF" height="41.24" style="stroke:#181818;stroke-width:1.0;" width="10" x="680.5" y="952.5194"/><rect fill="#FFFFFF" height="30" style="stroke:#181818;stroke-width:1.0;" width="10" x="936.5" y="203.9599"/><rect fill="#FFFFFF" height="71.24" style="stroke:#181818;stroke-width:1.0;" width="10" x="936.5" y="557.3596"/><rect fill="#FFFFFF" height="30" style="stroke:#181818;stroke-width:1.0;" width="10" x="1458.5" y="598.5996"/><rect fill="#FFFFFF" height="82.4799" style="stroke:#181818;stroke-width:1.0;" width="10" x="1458.5" y="787.5595"/><rect fill="#FFFFFF" height="616.8396" style="stroke:#181818;stroke-width:1.0;" width="10" x="1709" y="129.4799"/><polygon fill="#181818" points="668.5,158.7199,678.5,162.7199,668.5,166.7199,672.5,162.7199" style="stroke:#181818;stroke-width:1.0;"/><line style="stroke:#181818;stroke-width:1.0;" x1="85.5" x2="674.5" y1="162.7199" y2="162.7199"/><text fill="#000000" font-family="sans-serif" font-size="20" font-weight="bold" lengthAdjust="spacing" textLength="11" x="92.5" y="154.8599">1</text><text fill="#000000" font-family="sans-serif" font-size="20" lengthAdjust="spacing" textLength="272" x="107.5" y="154.8599">asks to register a new vehicle</text><polygon fill="#181818" points="924.5,199.9599,934.5,203.9599,924.5,207.9599,928.5,203.9599" style="stroke:#181818;stroke-width:1.0;"/><line style="stroke:#181818;stroke-width:1.0;" x1="690.5" x2="930.5" y1="203.9599" y2="203.9599"/><text fill="#000000" font-family="sans-serif" font-size="20" font-weight="bold" lengthAdjust="spacing" textLength="11" x="697.5" y="196.0999">2</text><text fill="#000000" font-family="sans-serif" font-size="20" lengthAdjust="spacing" textLength="58" x="712.5" y="196.0999">create</text><rect fill="none" height="64.4799" style="stroke:#000000;stroke-width:1.5;" width="260" x="811.5" y="241.9599"/><path d="M811.5,241.9599 L885.5,241.9599 L885.5,260.9599 L875.5,270.9599 L811.5,270.9599 L811.5,241.9599 " fill="#EEEEEE" style="stroke:#000000;stroke-width:2.0;"/><text fill="#000000" font-family="sans-serif" font-size="20" font-weight="bold" lengthAdjust="spacing" textLength="29" x="824.5" y="265.3399">ref</text><text fill="#000000" font-family="sans-serif" font-size="20" lengthAdjust="spacing" textLength="218" x="832.5" y="296.3399">Get Vehicles Repository</text><path d="M10,318.4398 L98,318.4398 L98,337.6798 L88,347.6798 L10,347.6798 L10,318.4398 " fill="#EEEEEE" style="stroke:#000000;stroke-width:1.5;"/><rect fill="none" height="387.6397" style="stroke:#000000;stroke-width:1.5;" width="1857.5" x="10" y="318.4398"/><text fill="#000000" font-family="sans-serif" font-size="20" font-weight="bold" lengthAdjust="spacing" textLength="43" x="25" y="340.8198">loop</text><text fill="#000000" font-family="sans-serif" font-size="20" font-weight="bold" lengthAdjust="spacing" textLength="164" x="113" y="341.8198">[while intended]</text><polygon fill="#181818" points="96.5,470.8797,86.5,474.8797,96.5,478.8797,92.5,474.8797" style="stroke:#181818;stroke-width:1.0;"/><line style="stroke:#181818;stroke-width:1.0;stroke-dasharray:2.0,2.0;" x1="90.5" x2="684.5" y1="474.8797" y2="474.8797"/><text fill="#000000" font-family="sans-serif" font-size="20" font-weight="bold" lengthAdjust="spacing" textLength="11" x="102.5" y="426.1597">9</text><text fill="#000000" font-family="sans-serif" font-size="20" lengthAdjust="spacing" textLength="421" x="117.5" y="385.2998">requests vehicle data (i.e. Brand, Model, Type,</text><text fill="#000000" font-family="sans-serif" font-size="20" lengthAdjust="spacing" textLength="429" x="117.5" y="412.5398">Tare,Gross Weight, Current Km, Register Date,</text><text fill="#000000" font-family="sans-serif" font-size="20" lengthAdjust="spacing" textLength="556" x="117.5" y="439.7797">Acquisition Date, Maintenance/Checkup Frequency (in Kms),</text><text fill="#000000" font-family="sans-serif" font-size="20" lengthAdjust="spacing" textLength="121" x="122.5" y="467.0197">vehicle plate)</text><polygon fill="#181818" points="668.5,512.1197,678.5,516.1197,668.5,520.1197,672.5,516.1197" style="stroke:#181818;stroke-width:1.0;"/><line style="stroke:#181818;stroke-width:1.0;" x1="85.5" x2="674.5" y1="516.1197" y2="516.1197"/><text fill="#000000" font-family="sans-serif" font-size="20" font-weight="bold" lengthAdjust="spacing" textLength="22" x="92.5" y="508.2597">10</text><text fill="#000000" font-family="sans-serif" font-size="20" lengthAdjust="spacing" textLength="428" x="118.5" y="508.2597">write the values of the new vehicle's attributes</text><polygon fill="#181818" points="924.5,553.3596,934.5,557.3596,924.5,561.3596,928.5,557.3596" style="stroke:#181818;stroke-width:1.0;"/><line style="stroke:#181818;stroke-width:1.0;" x1="690.5" x2="930.5" y1="557.3596" y2="557.3596"/><text fill="#000000" font-family="sans-serif" font-size="20" font-weight="bold" lengthAdjust="spacing" textLength="22" x="697.5" y="549.4997">11</text><text fill="#000000" font-family="sans-serif" font-size="20" lengthAdjust="spacing" textLength="58" x="723.5" y="549.4997">create</text><polygon fill="#181818" points="1446.5,594.5996,1456.5,598.5996,1446.5,602.5996,1450.5,598.5996" style="stroke:#181818;stroke-width:1.0;"/><line style="stroke:#181818;stroke-width:1.0;" x1="946.5" x2="1452.5" y1="598.5996" y2="598.5996"/><text fill="#000000" font-family="sans-serif" font-size="20" font-weight="bold" lengthAdjust="spacing" textLength="22" x="953.5" y="590.7396">12</text><text fill="#000000" font-family="sans-serif" font-size="20" lengthAdjust="spacing" textLength="58" x="979.5" y="590.7396">create</text><rect fill="none" height="64.4799" style="stroke:#000000;stroke-width:1.5;" width="497" x="1363.5" y="636.5996"/><path d="M1363.5,636.5996 L1437.5,636.5996 L1437.5,655.5996 L1427.5,665.5996 L1363.5,665.5996 L1363.5,636.5996 " fill="#EEEEEE" style="stroke:#000000;stroke-width:2.0;"/><text fill="#000000" font-family="sans-serif" font-size="20" font-weight="bold" lengthAdjust="spacing" textLength="29" x="1376.5" y="659.9796">ref</text><text fill="#000000" font-family="sans-serif" font-size="20" lengthAdjust="spacing" textLength="151" x="1536.5" y="690.9796">Get Vehicles List</text><polygon fill="#181818" points="952.5,742.3195,942.5,746.3195,952.5,750.3195,948.5,746.3195" style="stroke:#181818;stroke-width:1.0;"/><line style="stroke:#181818;stroke-width:1.0;stroke-dasharray:2.0,2.0;" x1="946.5" x2="1713" y1="746.3195" y2="746.3195"/><text fill="#000000" font-family="sans-serif" font-size="20" font-weight="bold" lengthAdjust="spacing" textLength="22" x="958.5" y="738.4596">31</text><text fill="#000000" font-family="sans-serif" font-size="20" lengthAdjust="spacing" textLength="201" x="984.5" y="738.4596">plateCertificationsList</text><polygon fill="#181818" points="701.5,783.5595,691.5,787.5595,701.5,791.5595,697.5,787.5595" style="stroke:#181818;stroke-width:1.0;"/><line style="stroke:#181818;stroke-width:1.0;stroke-dasharray:2.0,2.0;" x1="695.5" x2="940.5" y1="787.5595" y2="787.5595"/><text fill="#000000" font-family="sans-serif" font-size="20" font-weight="bold" lengthAdjust="spacing" textLength="22" x="707.5" y="779.6995">32</text><text fill="#000000" font-family="sans-serif" font-size="20" lengthAdjust="spacing" textLength="201" x="733.5" y="779.6995">plateCertificationsList</text><polygon fill="#181818" points="952.5,824.7995,942.5,828.7995,952.5,832.7995,948.5,828.7995" style="stroke:#181818;stroke-width:1.0;"/><line style="stroke:#181818;stroke-width:1.0;stroke-dasharray:2.0,2.0;" x1="946.5" x2="1457.5" y1="828.7995" y2="828.7995"/><text fill="#000000" font-family="sans-serif" font-size="20" font-weight="bold" lengthAdjust="spacing" textLength="22" x="958.5" y="820.9395">33</text><text fill="#000000" font-family="sans-serif" font-size="20" lengthAdjust="spacing" textLength="106" x="984.5" y="820.9395">vehiclesList</text><polygon fill="#181818" points="701.5,866.0395,691.5,870.0395,701.5,874.0395,697.5,870.0395" style="stroke:#181818;stroke-width:1.0;"/><line style="stroke:#181818;stroke-width:1.0;stroke-dasharray:2.0,2.0;" x1="695.5" x2="940.5" y1="870.0395" y2="870.0395"/><text fill="#000000" font-family="sans-serif" font-size="20" font-weight="bold" lengthAdjust="spacing" textLength="22" x="707.5" y="862.1795">34</text><text fill="#000000" font-family="sans-serif" font-size="20" lengthAdjust="spacing" textLength="106" x="733.5" y="862.1795">vehiclesList</text><polygon fill="#181818" points="96.5,907.2794,86.5,911.2794,96.5,915.2794,92.5,911.2794" style="stroke:#181818;stroke-width:1.0;"/><line style="stroke:#181818;stroke-width:1.0;stroke-dasharray:2.0,2.0;" x1="90.5" x2="684.5" y1="911.2794" y2="911.2794"/><text fill="#000000" font-family="sans-serif" font-size="20" font-weight="bold" lengthAdjust="spacing" textLength="22" x="102.5" y="903.4195">35</text><text fill="#000000" font-family="sans-serif" font-size="20" lengthAdjust="spacing" textLength="454" x="128.5" y="903.4195">shows all registered vehicles and asks to confirm</text><polygon fill="#181818" points="668.5,948.5194,678.5,952.5194,668.5,956.5194,672.5,952.5194" style="stroke:#181818;stroke-width:1.0;"/><line style="stroke:#181818;stroke-width:1.0;" x1="85.5" x2="674.5" y1="952.5194" y2="952.5194"/><text fill="#000000" font-family="sans-serif" font-size="20" font-weight="bold" lengthAdjust="spacing" textLength="22" x="92.5" y="944.6594">36</text><text fill="#000000" font-family="sans-serif" font-size="20" lengthAdjust="spacing" textLength="188" x="118.5" y="944.6594">confirms all vehicles</text><polygon fill="#181818" points="96.5,989.7594,86.5,993.7594,96.5,997.7594,92.5,993.7594" style="stroke:#181818;stroke-width:1.0;"/><line style="stroke:#181818;stroke-width:1.0;stroke-dasharray:2.0,2.0;" x1="90.5" x2="684.5" y1="993.7594" y2="993.7594"/><text fill="#000000" font-family="sans-serif" font-size="20" font-weight="bold" lengthAdjust="spacing" textLength="22" x="102.5" y="985.8994">37</text><text fill="#000000" font-family="sans-serif" font-size="20" lengthAdjust="spacing" textLength="248" x="128.5" y="985.8994">displays operation success</text><!--SRC=[bLN1Zjem4BtdAqPSsfMossvxAgegqHHMgD1TiR2z85LUPq8iZ9sr7H3z-WvE20c1IEM0bF6yDszcdXEx5YfZXcsavckC8SQ4vTADj7BFuY_2fu-1FQR0HYlDKwCt2CxaM3l965-p5JwxlKGmo1rJArbFi2cBzKwe5IHCMWm2nfqsq7l1L732Z2IYMwefKqHZUi0il8oc0O6Tu29Zoa6lFyELi0vD2LgCVTvYt9qMKIz6IrdIHlFPf0N8j1MaHw3rELLW_omEZJYjcX1JGonLc-1fCfWt4QKOUwBkBrKxM7JU2ZUvdYHp62554i6P4rerQJlF2trT6SrYsq8CTLdAAYGEnz5YyjXCpLgiX6gNgYOq_1CDP_FnQ1mDvkF7NsIAd2QTRrxHmBstYDWIs3iXe3-u_KRRXZxXrnQS9gSLcmO62dTGIZq1oHe10GXss3e1kK6AdnAy6GA32UWjqVX7eDy3kceBDJS4g68gcWGndb58hJFOfOAiB9IZD8phtNpnCaZ7eOi-KRpbQ9qzAeQOEGRlnHtUmNV3L1p2LCSeGvZlCmnXgURCOFXWjBNm6yKgTI54kJ58O_-v2U5eUVX1aWxv0_wM2n9DuovZK-Q5CSNnGvGYN-SPZBmGnVTKMn6HlGcNgXBbrtaJr9iz3BI-Y9qH57KfmfP9QWbqufzgstXdWJbdn6lkq5vRpRND-BKTnjQw4HUMUU7Qd5RRFWoxBq7B1XEQS6M0-b0kr3tt1y5gVkukNBFDv_jY0bzlRxj1D8tsvRDUSKrATzrosCVLNkFhQhiIUt5VfI4AccQnnj7_ZRPvisogTsGuAQjt0ttKZkn0DwjwTt2j4c4sNUukKmg-8qd3metQiR0qj3rTWWoDdnZOd7Eqzgp8Fm00]--></g></svg>