<?xml version="1.0" encoding="UTF-8" standalone="no"?><svg xmlns="http://www.w3.org/2000/svg" xmlns:xlink="http://www.w3.org/1999/xlink" contentStyleType="text/css" height="1867px" preserveAspectRatio="none" style="width:1186px;height:1867px;background:#FFFFFF;" version="1.1" viewBox="0 0 1186 1867" width="1186px" zoomAndPan="magnify"><defs/><g><!--class RegisterVehicleUI--><g id="elem_RegisterVehicleUI"><rect codeLine="6" fill="#F1F1F1" height="53.24" id="RegisterVehicleUI" rx="2.5" ry="2.5" style="stroke:#181818;stroke-width:0.5;" width="198" x="7" y="61.48"/><ellipse cx="23" cy="80.1" fill="#ADD1B2" rx="12" ry="12" style="stroke:#181818;stroke-width:1.0;"/><path d="M22.5156,87.3031 Q20.4531,87.3031 19.125,86.4281 Q17.7969,85.5531 17.1406,83.975 Q16.5,82.3812 16.5,80.2562 Q16.5,77.8812 17.2656,76.1781 Q18.0469,74.4594 19.5469,73.5375 Q21.0625,72.6156 23.2656,72.6156 Q24.2969,72.6156 25.0781,72.8344 Q25.875,73.0375 26.7031,73.4437 L25.7344,75.8187 Q25,75.4437 24.3594,75.3031 Q23.7344,75.1625 23.1563,75.1625 Q21.7813,75.1625 20.9531,75.7875 Q20.1406,76.3969 19.7813,77.5219 Q19.4375,78.6469 19.4375,80.1469 Q19.4375,82.5062 20.2813,83.6312 Q21.125,84.7562 23,84.7562 Q23.7031,84.7562 24.4219,84.5844 Q25.1563,84.3969 26.1406,83.9594 L26.1406,86.5531 Q25.2813,86.9437 24.3438,87.1156 Q23.4219,87.3031 22.5156,87.3031 Z " fill="#000000"/><text fill="#000000" font-family="sans-serif" font-size="20" lengthAdjust="spacing" textLength="164" x="38" y="87.86">RegisterVehicleUI</text><line style="stroke:#181818;stroke-width:0.5;" x1="8" x2="204" y1="98.72" y2="98.72"/><line style="stroke:#181818;stroke-width:0.5;" x1="8" x2="204" y1="106.72" y2="106.72"/></g><!--class RegisterVehicleController--><g id="elem_RegisterVehicleController"><rect codeLine="9" fill="#F1F1F1" height="134.9599" id="RegisterVehicleController" rx="2.5" ry="2.5" style="stroke:#181818;stroke-width:0.5;" width="270" x="240" y="20.62"/><ellipse cx="256.45" cy="39.24" fill="#ADD1B2" rx="12" ry="12" style="stroke:#181818;stroke-width:1.0;"/><path d="M255.9656,46.4431 Q253.9031,46.4431 252.575,45.5681 Q251.2469,44.6931 250.5906,43.115 Q249.95,41.5212 249.95,39.3962 Q249.95,37.0212 250.7156,35.3181 Q251.4969,33.5994 252.9969,32.6775 Q254.5125,31.7556 256.7156,31.7556 Q257.7469,31.7556 258.5281,31.9744 Q259.325,32.1775 260.1531,32.5837 L259.1844,34.9587 Q258.45,34.5837 257.8094,34.4431 Q257.1844,34.3025 256.6063,34.3025 Q255.2313,34.3025 254.4031,34.9275 Q253.5906,35.5369 253.2313,36.6619 Q252.8875,37.7869 252.8875,39.2869 Q252.8875,41.6462 253.7313,42.7712 Q254.575,43.8962 256.45,43.8962 Q257.1531,43.8962 257.8719,43.7244 Q258.6063,43.5369 259.5906,43.0994 L259.5906,45.6931 Q258.7313,46.0837 257.7938,46.2556 Q256.8719,46.4431 255.9656,46.4431 Z " fill="#000000"/><text fill="#000000" font-family="sans-serif" font-size="20" lengthAdjust="spacing" textLength="235" x="271.55" y="47">RegisterVehicleController</text><line style="stroke:#181818;stroke-width:0.5;" x1="241" x2="509" y1="57.86" y2="57.86"/><line style="stroke:#181818;stroke-width:0.5;" x1="241" x2="509" y1="65.86" y2="65.86"/><text fill="#000000" font-family="sans-serif" font-size="20" lengthAdjust="spacing" textLength="258" x="246" y="91.24">+RegisterVehicleController()</text><text fill="#000000" font-family="sans-serif" font-size="20" lengthAdjust="spacing" textLength="161" x="246" y="118.4799">+getVehiclesList()</text><text fill="#000000" font-family="sans-serif" font-size="20" lengthAdjust="spacing" textLength="254" x="246" y="145.7199">+getPlateCertificationsList()</text></g><!--class Repositories--><g id="elem_Repositories"><rect codeLine="15" fill="#F1F1F1" height="162.1999" id="Repositories" rx="2.5" ry="2.5" style="stroke:#181818;stroke-width:0.5;" width="333" x="735.5" y="7"/><ellipse cx="840" cy="25.62" fill="#ADD1B2" rx="12" ry="12" style="stroke:#181818;stroke-width:1.0;"/><path d="M839.5156,32.8231 Q837.4531,32.8231 836.125,31.9481 Q834.7969,31.0731 834.1406,29.495 Q833.5,27.9012 833.5,25.7762 Q833.5,23.4012 834.2656,21.6981 Q835.0469,19.9794 836.5469,19.0575 Q838.0625,18.1356 840.2656,18.1356 Q841.2969,18.1356 842.0781,18.3544 Q842.875,18.5575 843.7031,18.9637 L842.7344,21.3387 Q842,20.9637 841.3594,20.8231 Q840.7344,20.6825 840.1563,20.6825 Q838.7813,20.6825 837.9531,21.3075 Q837.1406,21.9169 836.7813,23.0419 Q836.4375,24.1669 836.4375,25.6669 Q836.4375,28.0262 837.2813,29.1512 Q838.125,30.2762 840,30.2762 Q840.7031,30.2762 841.4219,30.1044 Q842.1563,29.9169 843.1406,29.4794 L843.1406,32.0731 Q842.2813,32.4637 841.3438,32.6356 Q840.4219,32.8231 839.5156,32.8231 Z " fill="#000000"/><text fill="#000000" font-family="sans-serif" font-size="20" lengthAdjust="spacing" textLength="115" x="862" y="33.38">Repositories</text><line style="stroke:#181818;stroke-width:0.5;" x1="736.5" x2="1067.5" y1="44.24" y2="44.24"/><line style="stroke:#181818;stroke-width:0.5;" x1="736.5" x2="1067.5" y1="52.24" y2="52.24"/><text fill="#000000" font-family="sans-serif" font-size="20" lengthAdjust="spacing" textLength="133" x="741.5" y="77.62">-Repositories()</text><text fill="#000000" font-family="sans-serif" font-size="20" lengthAdjust="spacing" textLength="263" x="741.5" y="104.8599">+getInstance() : Repositories</text><text fill="#000000" font-family="sans-serif" font-size="20" lengthAdjust="spacing" textLength="228" x="741.5" y="132.0999">+getVehiclesRepository()</text><text fill="#000000" font-family="sans-serif" font-size="20" lengthAdjust="spacing" textLength="321" x="741.5" y="159.3399">+getPlateCertificationsRepository()</text></g><!--class Vehicle--><g id="elem_Vehicle"><rect codeLine="22" fill="#F1F1F1" height="489.0796" id="Vehicle" rx="2.5" ry="2.5" style="stroke:#181818;stroke-width:0.5;" width="386" x="258" y="521.2"/><ellipse cx="413.5" cy="539.82" fill="#ADD1B2" rx="12" ry="12" style="stroke:#181818;stroke-width:1.0;"/><path d="M413.0156,547.0231 Q410.9531,547.0231 409.625,546.1481 Q408.2969,545.2731 407.6406,543.695 Q407,542.1012 407,539.9762 Q407,537.6012 407.7656,535.8981 Q408.5469,534.1794 410.0469,533.2575 Q411.5625,532.3356 413.7656,532.3356 Q414.7969,532.3356 415.5781,532.5544 Q416.375,532.7575 417.2031,533.1637 L416.2344,535.5387 Q415.5,535.1637 414.8594,535.0231 Q414.2344,534.8825 413.6563,534.8825 Q412.2813,534.8825 411.4531,535.5075 Q410.6406,536.1169 410.2813,537.2419 Q409.9375,538.3669 409.9375,539.8669 Q409.9375,542.2262 410.7813,543.3512 Q411.625,544.4762 413.5,544.4762 Q414.2031,544.4762 414.9219,544.3044 Q415.6563,544.1169 416.6406,543.6794 L416.6406,546.2731 Q415.7813,546.6637 414.8438,546.8356 Q413.9219,547.0231 413.0156,547.0231 Z " fill="#000000"/><text fill="#000000" font-family="sans-serif" font-size="20" lengthAdjust="spacing" textLength="66" x="435.5" y="547.58">Vehicle</text><line style="stroke:#181818;stroke-width:0.5;" x1="259" x2="643" y1="558.44" y2="558.44"/><text fill="#000000" font-family="sans-serif" font-size="20" lengthAdjust="spacing" textLength="174" x="264" y="583.82">-double currentKm</text><text fill="#000000" font-family="sans-serif" font-size="20" lengthAdjust="spacing" textLength="200" x="264" y="611.0599">-Date acquisitionDate</text><text fill="#000000" font-family="sans-serif" font-size="20" lengthAdjust="spacing" textLength="196" x="264" y="638.2999">-double maintenance</text><text fill="#000000" font-family="sans-serif" font-size="20" lengthAdjust="spacing" textLength="374" x="264" y="665.5399">-PlateCertification final plateCertification</text><line style="stroke:#181818;stroke-width:0.5;" x1="259" x2="643" y1="675.3999" y2="675.3999"/><text fill="#000000" font-family="sans-serif" font-size="20" lengthAdjust="spacing" textLength="153" x="264" y="700.7799">+Vehicle(vehicle)</text><text fill="#000000" font-family="sans-serif" font-size="20" lengthAdjust="spacing" textLength="225" x="264" y="728.0198">+validateVehicle(vehicle)</text><text fill="#000000" font-family="sans-serif" font-size="20" lengthAdjust="spacing" textLength="155" x="264" y="755.2598">+getCurrentKm()</text><text fill="#000000" font-family="sans-serif" font-size="20" lengthAdjust="spacing" textLength="153" x="264" y="782.4998">+setCurrentKm()</text><text fill="#000000" font-family="sans-serif" font-size="20" lengthAdjust="spacing" textLength="200" x="264" y="809.7398">+getAcquisitionDate()</text><text fill="#000000" font-family="sans-serif" font-size="20" lengthAdjust="spacing" textLength="198" x="264" y="836.9797">+setAcquisitionDate()</text><text fill="#000000" font-family="sans-serif" font-size="20" lengthAdjust="spacing" textLength="173" x="264" y="864.2197">+getMaintenance()</text><text fill="#000000" font-family="sans-serif" font-size="20" lengthAdjust="spacing" textLength="171" x="264" y="891.4597">+setMaintenance()</text><text fill="#000000" font-family="sans-serif" font-size="20" lengthAdjust="spacing" textLength="212" x="264" y="918.6997">+getPlateCertification()</text><text fill="#000000" font-family="sans-serif" font-size="20" lengthAdjust="spacing" textLength="84" x="264" y="945.9396">+equals()</text><text fill="#000000" font-family="sans-serif" font-size="20" lengthAdjust="spacing" textLength="97" x="264" y="973.1796">+toString()</text><text fill="#000000" font-family="sans-serif" font-size="20" lengthAdjust="spacing" textLength="73" x="264" y="1000.4196">+clone()</text></g><!--class VehiclesRepository--><g id="elem_VehiclesRepository"><rect codeLine="41" fill="#F1F1F1" height="134.9599" id="VehiclesRepository" rx="2.5" ry="2.5" style="stroke:#181818;stroke-width:0.5;" width="237" x="424.5" y="278.2"/><ellipse cx="453.1" cy="296.82" fill="#ADD1B2" rx="12" ry="12" style="stroke:#181818;stroke-width:1.0;"/><path d="M452.6156,304.0231 Q450.5531,304.0231 449.225,303.1481 Q447.8969,302.2731 447.2406,300.695 Q446.6,299.1012 446.6,296.9762 Q446.6,294.6012 447.3656,292.8981 Q448.1469,291.1794 449.6469,290.2575 Q451.1625,289.3356 453.3656,289.3356 Q454.3969,289.3356 455.1781,289.5544 Q455.975,289.7575 456.8031,290.1637 L455.8344,292.5387 Q455.1,292.1637 454.4594,292.0231 Q453.8344,291.8825 453.2563,291.8825 Q451.8813,291.8825 451.0531,292.5075 Q450.2406,293.1169 449.8813,294.2419 Q449.5375,295.3669 449.5375,296.8669 Q449.5375,299.2262 450.3813,300.3512 Q451.225,301.4762 453.1,301.4762 Q453.8031,301.4762 454.5219,301.3044 Q455.2563,301.1169 456.2406,300.6794 L456.2406,303.2731 Q455.3813,303.6637 454.4438,303.8356 Q453.5219,304.0231 452.6156,304.0231 Z " fill="#000000"/><text fill="#000000" font-family="sans-serif" font-size="20" lengthAdjust="spacing" textLength="175" x="470.9" y="304.58">VehiclesRepository</text><line style="stroke:#181818;stroke-width:0.5;" x1="425.5" x2="660.5" y1="315.44" y2="315.44"/><line style="stroke:#181818;stroke-width:0.5;" x1="425.5" x2="660.5" y1="323.44" y2="323.44"/><text fill="#000000" font-family="sans-serif" font-size="20" lengthAdjust="spacing" textLength="161" x="430.5" y="348.82">+getVehiclesList()</text><text fill="#000000" font-family="sans-serif" font-size="20" lengthAdjust="spacing" textLength="188" x="430.5" y="376.0599">+addVehicle(vehicle)</text><text fill="#000000" font-family="sans-serif" font-size="20" lengthAdjust="spacing" textLength="225" x="430.5" y="403.2999">+validateVehicle(vehicle)</text></g><!--class PlateCertification--><g id="elem_PlateCertification"><rect codeLine="47" fill="#F1F1F1" height="761.4793" id="PlateCertification" rx="2.5" ry="2.5" style="stroke:#181818;stroke-width:0.5;" width="425" x="238.5" y="1099.28"/><ellipse cx="367" cy="1117.9" fill="#ADD1B2" rx="12" ry="12" style="stroke:#181818;stroke-width:1.0;"/><path d="M366.5156,1125.1031 Q364.4531,1125.1031 363.125,1124.2281 Q361.7969,1123.3531 361.1406,1121.775 Q360.5,1120.1812 360.5,1118.0562 Q360.5,1115.6812 361.2656,1113.9781 Q362.0469,1112.2594 363.5469,1111.3375 Q365.0625,1110.4156 367.2656,1110.4156 Q368.2969,1110.4156 369.0781,1110.6344 Q369.875,1110.8375 370.7031,1111.2437 L369.7344,1113.6187 Q369,1113.2437 368.3594,1113.1031 Q367.7344,1112.9625 367.1563,1112.9625 Q365.7813,1112.9625 364.9531,1113.5875 Q364.1406,1114.1969 363.7813,1115.3219 Q363.4375,1116.4469 363.4375,1117.9469 Q363.4375,1120.3062 364.2813,1121.4312 Q365.125,1122.5562 367,1122.5562 Q367.7031,1122.5562 368.4219,1122.3844 Q369.1563,1122.1969 370.1406,1121.7594 L370.1406,1124.3531 Q369.2813,1124.7437 368.3438,1124.9156 Q367.4219,1125.1031 366.5156,1125.1031 Z " fill="#000000"/><text fill="#000000" font-family="sans-serif" font-size="20" lengthAdjust="spacing" textLength="159" x="389" y="1125.66">PlateCertification</text><line style="stroke:#181818;stroke-width:0.5;" x1="239.5" x2="662.5" y1="1136.52" y2="1136.52"/><text fill="#000000" font-family="sans-serif" font-size="20" lengthAdjust="spacing" textLength="121" x="244.5" y="1161.9">-String brand</text><text fill="#000000" font-family="sans-serif" font-size="20" lengthAdjust="spacing" textLength="125" x="244.5" y="1189.1399">-String model</text><text fill="#000000" font-family="sans-serif" font-size="20" lengthAdjust="spacing" textLength="106" x="244.5" y="1216.3799">-String type</text><text fill="#000000" font-family="sans-serif" font-size="20" lengthAdjust="spacing" textLength="112" x="244.5" y="1243.6199">-double tare</text><text fill="#000000" font-family="sans-serif" font-size="20" lengthAdjust="spacing" textLength="193" x="244.5" y="1270.8599">-double grossWeight</text><text fill="#000000" font-family="sans-serif" font-size="20" lengthAdjust="spacing" textLength="171" x="244.5" y="1298.0998">-Date registerDate</text><text fill="#000000" font-family="sans-serif" font-size="20" lengthAdjust="spacing" textLength="112" x="244.5" y="1325.3398">-String plate</text><line style="stroke:#181818;stroke-width:0.5;" x1="239.5" x2="662.5" y1="1335.1998" y2="1335.1998"/><text fill="#000000" font-family="sans-serif" font-size="20" lengthAdjust="spacing" textLength="341" x="244.5" y="1360.5798">+PlateCertification(plateCertification)</text><text fill="#000000" font-family="sans-serif" font-size="20" lengthAdjust="spacing" textLength="413" x="244.5" y="1387.8198">+validatePlateCertification(plateCertification)</text><text fill="#000000" font-family="sans-serif" font-size="20" lengthAdjust="spacing" textLength="169" x="244.5" y="1415.0597">+String getBrand()</text><text fill="#000000" font-family="sans-serif" font-size="20" lengthAdjust="spacing" textLength="171" x="244.5" y="1442.2997">+String getModel()</text><text fill="#000000" font-family="sans-serif" font-size="20" lengthAdjust="spacing" textLength="157" x="244.5" y="1469.5397">+String getType()</text><text fill="#000000" font-family="sans-serif" font-size="20" lengthAdjust="spacing" textLength="163" x="244.5" y="1496.7797">+double getTare()</text><text fill="#000000" font-family="sans-serif" font-size="20" lengthAdjust="spacing" textLength="243" x="244.5" y="1524.0196">+double getGrossWeight()</text><text fill="#000000" font-family="sans-serif" font-size="20" lengthAdjust="spacing" textLength="222" x="244.5" y="1551.2596">+Date getRegisterDate()</text><text fill="#000000" font-family="sans-serif" font-size="20" lengthAdjust="spacing" textLength="159" x="244.5" y="1578.4996">+String getPlate()</text><text fill="#000000" font-family="sans-serif" font-size="20" lengthAdjust="spacing" textLength="222" x="244.5" y="1605.7396">+setBrand(String brand)</text><text fill="#000000" font-family="sans-serif" font-size="20" lengthAdjust="spacing" textLength="228" x="244.5" y="1632.9795">+setModel(String model)</text><text fill="#000000" font-family="sans-serif" font-size="20" lengthAdjust="spacing" textLength="195" x="244.5" y="1660.2195">+setType(String type)</text><text fill="#000000" font-family="sans-serif" font-size="20" lengthAdjust="spacing" textLength="198" x="244.5" y="1687.4595">+setTare(double tare)</text><text fill="#000000" font-family="sans-serif" font-size="20" lengthAdjust="spacing" textLength="359" x="244.5" y="1714.6995">+setGrossWeight(double grossWeight)</text><text fill="#000000" font-family="sans-serif" font-size="20" lengthAdjust="spacing" textLength="336" x="244.5" y="1741.9394">+setRegisterDate(Date registerDate)</text><text fill="#000000" font-family="sans-serif" font-size="20" lengthAdjust="spacing" textLength="203" x="244.5" y="1769.1794">+setPlate(String plate)</text><text fill="#000000" font-family="sans-serif" font-size="20" lengthAdjust="spacing" textLength="145" x="244.5" y="1796.4194">+int hashCode()</text><text fill="#000000" font-family="sans-serif" font-size="20" lengthAdjust="spacing" textLength="157" x="244.5" y="1823.6594">+String toString()</text><text fill="#000000" font-family="sans-serif" font-size="20" lengthAdjust="spacing" textLength="242" x="244.5" y="1850.8993">+boolean equals(Object o)</text></g><!--class PlateCertificationsRepository--><g id="elem_PlateCertificationsRepository"><rect codeLine="76" fill="#F1F1F1" height="134.9599" id="PlateCertificationsRepository" rx="2.5" ry="2.5" style="stroke:#181818;stroke-width:0.5;" width="435" x="744.5" y="278.2"/><ellipse cx="823.5" cy="296.82" fill="#ADD1B2" rx="12" ry="12" style="stroke:#181818;stroke-width:1.0;"/><path d="M823.0156,304.0231 Q820.9531,304.0231 819.625,303.1481 Q818.2969,302.2731 817.6406,300.695 Q817,299.1012 817,296.9762 Q817,294.6012 817.7656,292.8981 Q818.5469,291.1794 820.0469,290.2575 Q821.5625,289.3356 823.7656,289.3356 Q824.7969,289.3356 825.5781,289.5544 Q826.375,289.7575 827.2031,290.1637 L826.2344,292.5387 Q825.5,292.1637 824.8594,292.0231 Q824.2344,291.8825 823.6563,291.8825 Q822.2813,291.8825 821.4531,292.5075 Q820.6406,293.1169 820.2813,294.2419 Q819.9375,295.3669 819.9375,296.8669 Q819.9375,299.2262 820.7813,300.3512 Q821.625,301.4762 823.5,301.4762 Q824.2031,301.4762 824.9219,301.3044 Q825.6563,301.1169 826.6406,300.6794 L826.6406,303.2731 Q825.7813,303.6637 824.8438,303.8356 Q823.9219,304.0231 823.0156,304.0231 Z " fill="#000000"/><text fill="#000000" font-family="sans-serif" font-size="20" lengthAdjust="spacing" textLength="268" x="845.5" y="304.58">PlateCertificationsRepository</text><line style="stroke:#181818;stroke-width:0.5;" x1="745.5" x2="1178.5" y1="315.44" y2="315.44"/><line style="stroke:#181818;stroke-width:0.5;" x1="745.5" x2="1178.5" y1="323.44" y2="323.44"/><text fill="#000000" font-family="sans-serif" font-size="20" lengthAdjust="spacing" textLength="254" x="750.5" y="348.82">+getPlateCertificationsList()</text><text fill="#000000" font-family="sans-serif" font-size="20" lengthAdjust="spacing" textLength="376" x="750.5" y="376.0599">+addPlateCertification(plateCertification)</text><text fill="#000000" font-family="sans-serif" font-size="20" lengthAdjust="spacing" textLength="423" x="750.5" y="403.2999">+validatePlateCertifications(plateCertification)</text></g><!--link RegisterVehicleUI to RegisterVehicleController--><g id="link_RegisterVehicleUI_RegisterVehicleController"><path codeLine="82" d="M205.4,88.1 C214.52,88.1 223.87,88.1 233.27,88.1 " fill="none" id="RegisterVehicleUI-to-RegisterVehicleController" style="stroke:#181818;stroke-width:1.0;stroke-dasharray:7.0,7.0;"/><polygon fill="#181818" points="238.27,88.1,229.27,84.1,233.27,88.1,229.27,92.1,238.27,88.1" style="stroke:#181818;stroke-width:1.0;"/></g><!--link RegisterVehicleController to Repositories--><g id="link_RegisterVehicleController_Repositories"><path codeLine="84" d="M510.37,88.1 C576.98,88.1 658.03,88.1 729.07,88.1 " fill="none" id="RegisterVehicleController-to-Repositories" style="stroke:#181818;stroke-width:1.0;stroke-dasharray:7.0,7.0;"/><polygon fill="#181818" points="733.96,88.1,724.96,84.1,728.96,88.1,724.96,92.1,733.96,88.1" style="stroke:#181818;stroke-width:1.0;"/><text fill="#000000" font-family="sans-serif" font-size="20" lengthAdjust="spacing" textLength="111" x="567.25" y="78.48">repositories</text></g><!--link Repositories to VehiclesRepository--><g id="link_Repositories_VehiclesRepository"><path codeLine="85" d="M879.43,169.61 C870.8,200.37 863,228.2 863,228.2 C863,228.2 703,258.2 703,258.2 C703,258.2 687.96,266.28 667.1,277.5 " fill="none" id="Repositories-to-VehiclesRepository" style="stroke:#181818;stroke-width:1.0;"/><polygon fill="#181818" points="662.71,279.86,672.5304,279.1112,667.1114,277.4878,668.7348,272.0689,662.71,279.86" style="stroke:#181818;stroke-width:1.0;"/><text fill="#000000" font-family="sans-serif" font-size="20" lengthAdjust="spacing" textLength="11" x="665.5483" y="264.4029">1</text></g><!--link RegisterVehicleController to Vehicle--><g id="link_RegisterVehicleController_Vehicle"><path codeLine="87" d="M351.29,155.93 C334.52,203.2 315,258.2 315,258.2 C315,258.2 315,432.2 315,432.2 C315,432.2 329.42,467.46 348.87,515.02 " fill="none" id="RegisterVehicleController-to-Vehicle" style="stroke:#181818;stroke-width:1.0;stroke-dasharray:7.0,7.0;"/><polygon fill="#181818" points="350.69,519.48,350.9987,509.636,348.8035,514.8495,343.59,512.6544,350.69,519.48" style="stroke:#181818;stroke-width:1.0;"/><text fill="#000000" font-family="sans-serif" font-size="20" lengthAdjust="spacing" textLength="66" x="316" y="353.08">Vehicle</text></g><!--link RegisterVehicleController to VehiclesRepository--><g id="link_RegisterVehicleController_VehiclesRepository"><path codeLine="88" d="M373.18,156 C372.55,179.06 372,199.2 372,199.2 C372,199.2 372,228.2 372,228.2 C372,228.2 404.44,250.2 441.05,275.04 " fill="none" id="RegisterVehicleController-to-VehiclesRepository" style="stroke:#181818;stroke-width:1.0;stroke-dasharray:7.0,7.0;"/><polygon fill="#181818" points="444.76,277.56,439.5432,269.2063,440.6174,274.7602,435.0635,275.8344,444.76,277.56" style="stroke:#181818;stroke-width:1.0;"/><text fill="#000000" font-family="sans-serif" font-size="20" lengthAdjust="spacing" textLength="175" x="373" y="221.58">VehiclesRepository</text></g><!--link VehiclesRepository to Vehicle--><g id="link_VehiclesRepository_Vehicle"><path codeLine="90" d="M528.52,412.06 C522.16,441.01 514.24,477.02 505.92,514.88 " fill="none" id="VehiclesRepository-to-Vehicle" style="stroke:#181818;stroke-width:1.0;"/><polygon fill="#181818" points="504.91,519.49,510.745,511.5557,505.981,514.6061,502.9307,509.8421,504.91,519.49" style="stroke:#181818;stroke-width:1.0;"/><text fill="#000000" font-family="sans-serif" font-size="20" lengthAdjust="spacing" textLength="11" x="515.2098" y="442.69">1</text><text fill="#000000" font-family="sans-serif" font-size="20" lengthAdjust="spacing" textLength="11" x="495.0074" y="507.6862">*</text></g><!--link Repositories to PlateCertificationsRepository--><g id="link_Repositories_PlateCertificationsRepository"><path codeLine="92" d="M920.9,169.47 C928.63,202.33 937.5,240.05 945.02,272.02 " fill="none" id="Repositories-to-PlateCertificationsRepository" style="stroke:#181818;stroke-width:1.0;"/><polygon fill="#181818" points="946.16,276.86,947.9986,267.1843,945.018,271.9922,940.2101,269.0115,946.16,276.86" style="stroke:#181818;stroke-width:1.0;"/><text fill="#000000" font-family="sans-serif" font-size="20" lengthAdjust="spacing" textLength="11" x="933.3454" y="264.3847">1</text></g><!--link RegisterVehicleController to PlateCertification--><g id="link_RegisterVehicleController_PlateCertification"><path codeLine="94" d="M336.2,155.8 C273.79,263.12 158,462.2 158,462.2 C158,462.2 158,491.2 158,491.2 C158,491.2 241,1010.28 241,1010.28 C241,1010.28 256.08,1043.95 278.16,1093.23 " fill="none" id="RegisterVehicleController-to-PlateCertification" style="stroke:#181818;stroke-width:1.0;stroke-dasharray:7.0,7.0;"/><polygon fill="#181818" points="280.13,1097.62,280.0985,1087.7712,278.0847,1093.0575,272.7985,1091.0436,280.13,1097.62" style="stroke:#181818;stroke-width:1.0;"/><text fill="#000000" font-family="sans-serif" font-size="20" lengthAdjust="spacing" textLength="159" x="159" y="484.58">PlateCertification</text></g><!--link RegisterVehicleController to PlateCertificationsRepository--><g id="link_RegisterVehicleController_PlateCertificationsRepository"><path codeLine="95" d="M483.16,156 C520.43,179.06 553,199.2 553,199.2 C553,199.2 585,228.2 585,228.2 C585,228.2 703,258.2 703,258.2 C703,258.2 725.56,265.69 757.36,276.25 " fill="none" id="RegisterVehicleController-to-PlateCertificationsRepository" style="stroke:#181818;stroke-width:1.0;stroke-dasharray:7.0,7.0;"/><polygon fill="#181818" points="761.96,277.78,754.6928,271.1326,757.218,276.1946,752.1561,278.7198,761.96,277.78" style="stroke:#181818;stroke-width:1.0;"/><text fill="#000000" font-family="sans-serif" font-size="20" lengthAdjust="spacing" textLength="268" x="586" y="221.58">PlateCertificationsRepository</text></g><!--link PlateCertificationsRepository to PlateCertification--><g id="link_PlateCertificationsRepository_PlateCertification"><path codeLine="97" d="M932.32,412 C873.35,542.72 737.45,844 625.04,1093.19 " fill="none" id="PlateCertificationsRepository-to-PlateCertification" style="stroke:#181818;stroke-width:1.0;"/><polygon fill="#181818" points="623.01,1097.69,630.3587,1091.1328,625.0672,1093.1328,623.0671,1087.8413,623.01,1097.69" style="stroke:#181818;stroke-width:1.0;"/><text fill="#000000" font-family="sans-serif" font-size="20" lengthAdjust="spacing" textLength="11" x="917.2523" y="442.623">1</text><text fill="#000000" font-family="sans-serif" font-size="20" lengthAdjust="spacing" textLength="11" x="614.7596" y="1085.4402">*</text></g><!--reverse link Vehicle to PlateCertification--><g id="link_Vehicle_PlateCertification"><path codeLine="99" d="M451,1024.58 C451,1048.86 451,1073.79 451,1098.89 " fill="none" id="Vehicle-backto-PlateCertification" style="stroke:#181818;stroke-width:1.0;"/><polygon fill="#181818" points="451,1011.89,447,1017.89,451,1023.89,455,1017.89,451,1011.89" style="stroke:#181818;stroke-width:1.0;"/><text fill="#000000" font-family="sans-serif" font-size="20" lengthAdjust="spacing" textLength="33" x="452" y="1062.66">has</text><text fill="#000000" font-family="sans-serif" font-size="20" lengthAdjust="spacing" textLength="11" x="439.8367" y="1039.4168">1</text><text fill="#000000" font-family="sans-serif" font-size="20" lengthAdjust="spacing" textLength="11" x="439.8883" y="1085.2565">1</text></g><!--SRC=[hLLDRnCn4Btlhx1wIek22iSSAfKWK0GLgENZx7Wd6nF7tjhUee3uxynkrkuuwqs8H2-fvxtnlFbQkutKDRTygupOGCbAMF56-NT6-mVv2zZhwy852gkvsF0A7lnE0RCWFDUL0a9mQrwQdr9NRCMLeuYI6lok1bORjMiF11EAEtVhlPNBniD26Ds5lYwA3c7tK4ddmNw3jHGAlYxOx-BF23X7uTOe1HP93FzUZ3CcbpsZ0j-3xYDIgVspuXxcOBrSIS6zD3fGY8BQEEcDbU3weDF4IEzRQ8TL4p2vPBE4D9GIqTq9GGanokglYOfAqopnA1fhGViFszxy5gzZN3ms4g_0szfpwh7bKdlGhUezC9J0Lb9pnUe1qElkjKoUzhyXdIUkP8ak8p1cEmzgOmbSpeZCspG5oX-3qElkEJVgaJDdQnzHU6nmukFHcmSSPrr5Wr16GwOzf7bnOCV6aPVbkOMCuJ8z2uEnLygMbkioDMrD2IerjJkSZeVdzi1IMUFSTv3LsjCXi_qUaWdhB-tcfaybK-FXM1tcVPPJ7nIh_APDUJAqtxLvP-nVCFbe3icY6IkGCRz_BaD4kq8WTazgaGdKvKC7Sg-KTefEQoUNzeo0dMRIF0grkaaN2KIr3xjAY4aYWpOJuZubsl00uggnDNVhEIe_hCLWZvR6AE0wxDkdvGzyXfWvEkaZEpR-QO_hzf-6qMMzKF7mPNjvC_vU3VZaiUlyo3iqmpwGnoN1fjCRTl7g8lC9EXe1GuGtPHR- -pS-RS0i6pP3R1LsIg-YqYAVnz6Edqefys6SPOndtvBcV4BYSNTQYOooKBoETpMTZjG4LU2M5Ny1]--></g></svg>