<?xml version="1.0" encoding="us-ascii" standalone="no"?><svg xmlns="http://www.w3.org/2000/svg" xmlns:xlink="http://www.w3.org/1999/xlink" contentStyleType="text/css" height="699px" preserveAspectRatio="none" style="width:407px;height:699px;background:#FFFFFF;" version="1.1" viewBox="0 0 407 699" width="407px" zoomAndPan="magnify"><defs/><g><!--class HumanResourcesManager--><g id="elem_HumanResourcesManager"><rect codeLine="11" fill="#F1F1F1" height="36.6211" id="HumanResourcesManager" rx="2.5" ry="2.5" style="stroke:#181818;stroke-width:0.5;" width="174" x="49.5" y="7"/><text fill="#000000" font-family="sans-serif" font-size="14" lengthAdjust="spacing" textLength="168" x="52.5" y="27.1074">HumanResourcesManager</text><line style="stroke:#181818;stroke-width:0.5;" x1="50.5" x2="222.5" y1="35.6211" y2="35.6211"/></g><!--class Skill--><g id="elem_Skill"><rect codeLine="13" fill="#F1F1F1" height="55.2422" id="Skill" rx="2.5" ry="2.5" style="stroke:#181818;stroke-width:0.5;" width="71" x="7" y="485"/><text fill="#000000" font-family="sans-serif" font-size="14" lengthAdjust="spacing" textLength="25" x="30" y="505.1074">Skill</text><line style="stroke:#181818;stroke-width:0.5;" x1="8" x2="77" y1="513.6211" y2="513.6211"/><text fill="#000000" font-family="sans-serif" font-size="14" lengthAdjust="spacing" textLength="59" x="13" y="532.7285">skillName</text></g><!--class Task--><g id="elem_Task"><rect codeLine="17" fill="#F1F1F1" height="55.2422" id="Task" rx="2.5" ry="2.5" style="stroke:#181818;stroke-width:0.5;" width="74" x="242.5" y="485"/><text fill="#000000" font-family="sans-serif" font-size="14" lengthAdjust="spacing" textLength="31" x="264" y="505.1074">Task</text><line style="stroke:#181818;stroke-width:0.5;" x1="243.5" x2="315.5" y1="513.6211" y2="513.6211"/><text fill="#000000" font-family="sans-serif" font-size="14" lengthAdjust="spacing" textLength="62" x="248.5" y="532.7285">taskName</text></g><!--class Collaborator--><g id="elem_Collaborator"><rect codeLine="21" fill="#F1F1F1" height="166.9688" id="Collaborator" rx="2.5" ry="2.5" style="stroke:#181818;stroke-width:0.5;" width="101" x="56" y="239"/><text fill="#000000" font-family="sans-serif" font-size="14" lengthAdjust="spacing" textLength="78" x="67.5" y="259.1074">Collaborator</text><line style="stroke:#181818;stroke-width:0.5;" x1="57" x2="156" y1="267.6211" y2="267.6211"/><text fill="#000000" font-family="sans-serif" font-size="14" lengthAdjust="spacing" textLength="35" x="62" y="286.7285">name</text><text fill="#000000" font-family="sans-serif" font-size="14" lengthAdjust="spacing" textLength="59" x="62" y="305.3496">bornDate</text><text fill="#000000" font-family="sans-serif" font-size="14" lengthAdjust="spacing" textLength="57" x="62" y="323.9707">admDate</text><text fill="#000000" font-family="sans-serif" font-size="14" lengthAdjust="spacing" textLength="89" x="62" y="342.5918">phoneNumber</text><text fill="#000000" font-family="sans-serif" font-size="14" lengthAdjust="spacing" textLength="33" x="62" y="361.2129">email</text><text fill="#000000" font-family="sans-serif" font-size="14" lengthAdjust="spacing" textLength="42" x="62" y="379.834">idCard</text><text fill="#000000" font-family="sans-serif" font-size="14" lengthAdjust="spacing" textLength="60" x="62" y="398.4551">idNumber</text></g><!--class Address--><g id="elem_Address"><rect codeLine="31" fill="#F1F1F1" height="55.2422" id="Address" rx="2.5" ry="2.5" style="stroke:#181818;stroke-width:0.5;" width="90" x="113.5" y="485"/><text fill="#000000" font-family="sans-serif" font-size="14" lengthAdjust="spacing" textLength="52" x="132.5" y="505.1074">Address</text><line style="stroke:#181818;stroke-width:0.5;" x1="114.5" x2="202.5" y1="513.6211" y2="513.6211"/><text fill="#000000" font-family="sans-serif" font-size="14" lengthAdjust="spacing" textLength="78" x="119.5" y="532.7285">doorNumber</text></g><!--class zipCode--><g id="elem_zipCode"><rect codeLine="35" fill="#F1F1F1" height="73.8633" id="zipCode" rx="2.5" ry="2.5" style="stroke:#181818;stroke-width:0.5;" width="57" x="130" y="619"/><text fill="#000000" font-family="sans-serif" font-size="14" lengthAdjust="spacing" textLength="51" x="133" y="639.1074">zipCode</text><line style="stroke:#181818;stroke-width:0.5;" x1="131" x2="186" y1="647.6211" y2="647.6211"/><text fill="#000000" font-family="sans-serif" font-size="14" lengthAdjust="spacing" textLength="29" x="136" y="666.7285">local</text><text fill="#000000" font-family="sans-serif" font-size="14" lengthAdjust="spacing" textLength="36" x="136" y="685.3496">street</text></g><!--class Team--><g id="elem_Team"><rect codeLine="40" fill="#F1F1F1" height="36.6211" id="Team" rx="2.5" ry="2.5" style="stroke:#181818;stroke-width:0.5;" width="42" x="181.5" y="123"/><text fill="#000000" font-family="sans-serif" font-size="14" lengthAdjust="spacing" textLength="36" x="184.5" y="143.1074">Team</text><line style="stroke:#181818;stroke-width:0.5;" x1="182.5" x2="222.5" y1="151.6211" y2="151.6211"/></g><!--class Agenda--><g id="elem_Agenda"><rect fill="#F1F1F1" height="36.6211" id="Agenda" rx="2.5" ry="2.5" style="stroke:#181818;stroke-width:0.5;" width="55" x="345" y="304"/><text fill="#000000" font-family="sans-serif" font-size="14" lengthAdjust="spacing" textLength="49" x="348" y="324.1074">Agenda</text><line style="stroke:#181818;stroke-width:0.5;" x1="346" x2="399" y1="332.6211" y2="332.6211"/></g><!--link HumanResourcesManager to Collaborator--><g id="link_HumanResourcesManager_Collaborator"><path codeLine="42" d="M134.71,44.07 C130.9,81.53 123.5911,153.4124 116.7411,220.7724 " fill="none" id="HumanResourcesManager-to-Collaborator" style="stroke:#181818;stroke-width:1.0;"/><polygon fill="none" points="114.92,238.68,122.7103,221.3794,110.7719,220.1653,114.92,238.68" style="stroke:#181818;stroke-width:1.0;"/></g><!--link HumanResourcesManager to Team--><g id="link_HumanResourcesManager_Team"><path codeLine="43" d="M146.81,44.31 C159.21,65.73 179.89,101.45 192.26,122.81 " fill="none" id="HumanResourcesManager-Team" style="stroke:#181818;stroke-width:1.0;"/><polygon fill="#000000" points="181.0053,87.9726,179.0166,78.6723,173.9298,81.6174,181.0053,87.9726" style="stroke:#000000;stroke-width:1.0;"/><text fill="#000000" font-family="sans-serif" font-size="13" lengthAdjust="spacing" textLength="43" x="187.5" y="89.0283">creates</text><text fill="#000000" font-family="sans-serif" font-size="13" lengthAdjust="spacing" textLength="7" x="141.6402" y="65.7679">1</text><text fill="#000000" font-family="sans-serif" font-size="13" lengthAdjust="spacing" textLength="20" x="166.0615" y="111.614">1..*</text></g><!--link Collaborator to Skill--><g id="link_Collaborator_Skill"><path codeLine="44" d="M78.34,406.23 C68.68,434.6 58.55,464.37 51.53,484.98 " fill="none" id="Collaborator-Skill" style="stroke:#181818;stroke-width:1.0;"/><polygon fill="#000000" points="70.8886,450.3787,76.5858,442.7634,71.0215,440.8691,70.8886,450.3787" style="stroke:#000000;stroke-width:1.0;"/><text fill="#000000" font-family="sans-serif" font-size="13" lengthAdjust="spacing" textLength="30" x="81.5" y="451.0283">owns</text><text fill="#000000" font-family="sans-serif" font-size="13" lengthAdjust="spacing" textLength="5" x="70.801" y="427.9095">*</text><text fill="#000000" font-family="sans-serif" font-size="13" lengthAdjust="spacing" textLength="5" x="48.0401" y="473.6843">*</text></g><!--link Collaborator to Address--><g id="link_Collaborator_Address"><path codeLine="45" d="M129.38,406.23 C137.23,434.6 145.46,464.37 151.16,484.98 " fill="none" id="Collaborator-Address" style="stroke:#181818;stroke-width:1.0;"/><polygon fill="#000000" points="148.8328,450.4646,149.2543,440.9634,143.5891,442.5302,148.8328,450.4646" style="stroke:#000000;stroke-width:1.0;"/><text fill="#000000" font-family="sans-serif" font-size="13" lengthAdjust="spacing" textLength="30" x="156.5" y="451.0283">owns</text><text fill="#000000" font-family="sans-serif" font-size="13" lengthAdjust="spacing" textLength="7" x="123.9849" y="427.9095">1</text><text fill="#000000" font-family="sans-serif" font-size="13" lengthAdjust="spacing" textLength="7" x="141.6532" y="473.6843">1</text></g><!--link Address to zipCode--><g id="link_Address_zipCode"><path codeLine="46" d="M158.5,540.12 C158.5,562.37 158.5,594.33 158.5,618.89 " fill="none" id="Address-zipCode" style="stroke:#181818;stroke-width:1.0;"/><polygon fill="#000000" points="163.5,584.6455,166.4389,575.6004,160.5611,575.6004,163.5,584.6455" style="stroke:#000000;stroke-width:1.0;"/><text fill="#000000" font-family="sans-serif" font-size="13" lengthAdjust="spacing" textLength="30" x="172.5" y="585.0283">owns</text><text fill="#000000" font-family="sans-serif" font-size="13" lengthAdjust="spacing" textLength="7" x="150.7344" y="562.0549">1</text><text fill="#000000" font-family="sans-serif" font-size="13" lengthAdjust="spacing" textLength="7" x="150.8766" y="607.8321">1</text></g><!--link Team to Collaborator--><g id="link_Team_Collaborator"><path codeLine="47" d="M187.02,160.26 C179.94,168.88 171.75,179.61 165.5,190 C156.27,205.33 147.6,222.35 139.89,238.93 " fill="none" id="Team-Collaborator" style="stroke:#181818;stroke-width:1.0;"/><polygon fill="#000000" points="167.9304,203.9347,175.1,197.6858,170.0577,194.6651,167.9304,203.9347" style="stroke:#000000;stroke-width:1.0;"/><text fill="#000000" font-family="sans-serif" font-size="13" lengthAdjust="spacing" textLength="21" x="179.5" y="205.0283">has</text><text fill="#000000" font-family="sans-serif" font-size="13" lengthAdjust="spacing" textLength="7" x="174.9191" y="181.7045">1</text><text fill="#000000" font-family="sans-serif" font-size="13" lengthAdjust="spacing" textLength="20" x="121.9732" y="227.7727">1..*</text></g><!--link Team to Agenda--><g id="link_Team_Agenda"><path codeLine="48" d="M223.57,157.31 C247.89,175.02 288.29,206.38 317.5,239 C335.76,259.39 352.55,286.28 362.66,303.72 " fill="none" id="Team-Agenda" style="stroke:#181818;stroke-width:1.0;"/><polygon fill="#000000" points="293.9438,203.2705,289.8447,194.6886,285.5832,198.737,293.9438,203.2705" style="stroke:#000000;stroke-width:1.0;"/><text fill="#000000" font-family="sans-serif" font-size="13" lengthAdjust="spacing" textLength="21" x="299.5" y="205.0283">has</text><text fill="#000000" font-family="sans-serif" font-size="13" lengthAdjust="spacing" textLength="7" x="231.4017" y="156.7752">1</text><text fill="#000000" font-family="sans-serif" font-size="13" lengthAdjust="spacing" textLength="7" x="351.7414" y="292.8332">1</text></g><!--link Task to Team--><g id="link_Task_Team"><path codeLine="49" d="M269.71,484.93 C262.22,463.79 252.09,433.31 245.5,406 C223.48,314.76 209.39,202.99 204.46,160.26 " fill="none" id="Task-Team" style="stroke:#181818;stroke-width:1.0;"/><polygon fill="#000000" points="249.5148,317.7435,248.4157,327.1904,254.1783,326.0322,249.5148,317.7435" style="stroke:#000000;stroke-width:1.0;"/><text fill="#000000" font-family="sans-serif" font-size="13" lengthAdjust="spacing" textLength="67" x="259.5" y="328.0283">assigned to</text><text fill="#000000" font-family="sans-serif" font-size="13" lengthAdjust="spacing" textLength="20" x="245.1336" y="473.6228">1..*</text><text fill="#000000" font-family="sans-serif" font-size="13" lengthAdjust="spacing" textLength="20" x="182.2993" y="181.7045">1..*</text></g><!--link Agenda to Task--><g id="link_Agenda_Task"><path codeLine="50" d="M363.75,341.19 C347.38,374.28 312.04,445.71 292.74,484.73 " fill="none" id="Agenda-Task" style="stroke:#181818;stroke-width:1.0;"/><polygon fill="#000000" points="317.2829,450.1271,323.9279,443.323,318.6594,440.7167,317.2829,450.1271" style="stroke:#000000;stroke-width:1.0;"/><text fill="#000000" font-family="sans-serif" font-size="13" lengthAdjust="spacing" textLength="21" x="328.5" y="451.0283">has</text><text fill="#000000" font-family="sans-serif" font-size="13" lengthAdjust="spacing" textLength="20" x="338.7109" y="362.6157">1..*</text><text fill="#000000" font-family="sans-serif" font-size="13" lengthAdjust="spacing" textLength="20" x="273.4488" y="473.8296">1..*</text></g><!--SRC=[TP6nJiCm48PtFuMLiL8Hh1qgLMM0WGwK5xZQHsBLzaLdHnKjl3jEd8I4G1R_zdq-t_ydd8slWS59HvvKnUHGHcvGXB5IWpf3YSVuOL4ogWY-j5CWLA3fOdmfty4659EIiX32BaOsfoRYio9_D5UKzq9KHgDKXbLgrMc7iI8TX13T9VdKEF2l6AXXXU45V9g1vUrhg1_Fnbfv4p9zeTK7S2Z6yXk4Sr-DISwBUx8MJiGGYNl8jq0hqh5_X9WteDsewuey7XftGkxswC3OJXcz1zQzx8dnhPtMZ6dDpsWY_arSJRsdb40cB2d8RKDan3YnX2dHDe2_erclrv_RcRL_mEAXI71QxkvMHUwwaOen6GroAsRX5AlCfYK7lf5qyKjiQ5aCVaTky3z11iCZqyqm7slMVYChM7BfhHAzXfzo-y_x-mk3AK5JUjGoKZjLlhc4snP3lsy0]--></g></svg>