<?xml version="1.0" encoding="us-ascii" standalone="no"?><svg xmlns="http://www.w3.org/2000/svg" xmlns:xlink="http://www.w3.org/1999/xlink" contentStyleType="text/css" height="717px" preserveAspectRatio="none" style="width:395px;height:717px;background:#FFFFFF;" version="1.1" viewBox="0 0 395 717" width="395px" zoomAndPan="magnify"><defs/><g><!--class HumanResourcesManager--><g id="elem_HumanResourcesManager"><rect codeLine="11" fill="#F1F1F1" height="36.6211" id="HumanResourcesManager" rx="2.5" ry="2.5" style="stroke:#181818;stroke-width:0.5;" width="174" x="37.5" y="7"/><text fill="#000000" font-family="sans-serif" font-size="14" lengthAdjust="spacing" textLength="168" x="40.5" y="27.1074">HumanResourcesManager</text><line style="stroke:#181818;stroke-width:0.5;" x1="38.5" x2="210.5" y1="35.6211" y2="35.6211"/></g><!--class Skill--><g id="elem_Skill"><rect codeLine="13" fill="#F1F1F1" height="55.2422" id="Skill" rx="2.5" ry="2.5" style="stroke:#181818;stroke-width:0.5;" width="47" x="7" y="503"/><text fill="#000000" font-family="sans-serif" font-size="14" lengthAdjust="spacing" textLength="25" x="18" y="523.1074">Skill</text><line style="stroke:#181818;stroke-width:0.5;" x1="8" x2="53" y1="531.6211" y2="531.6211"/><text fill="#000000" font-family="sans-serif" font-size="14" lengthAdjust="spacing" textLength="35" x="13" y="550.7285">name</text></g><!--class Task--><g id="elem_Task"><rect codeLine="17" fill="#F1F1F1" height="55.2422" id="Task" rx="2.5" ry="2.5" style="stroke:#181818;stroke-width:0.5;" width="47" x="216" y="503"/><text fill="#000000" font-family="sans-serif" font-size="14" lengthAdjust="spacing" textLength="31" x="224" y="523.1074">Task</text><line style="stroke:#181818;stroke-width:0.5;" x1="217" x2="262" y1="531.6211" y2="531.6211"/><text fill="#000000" font-family="sans-serif" font-size="14" lengthAdjust="spacing" textLength="35" x="222" y="550.7285">name</text></g><!--class Collaborator--><g id="elem_Collaborator"><rect codeLine="21" fill="#F1F1F1" height="166.9688" id="Collaborator" rx="2.5" ry="2.5" style="stroke:#181818;stroke-width:0.5;" width="101" x="44" y="257"/><text fill="#000000" font-family="sans-serif" font-size="14" lengthAdjust="spacing" textLength="78" x="55.5" y="277.1074">Collaborator</text><line style="stroke:#181818;stroke-width:0.5;" x1="45" x2="144" y1="285.6211" y2="285.6211"/><text fill="#000000" font-family="sans-serif" font-size="14" lengthAdjust="spacing" textLength="35" x="50" y="304.7285">name</text><text fill="#000000" font-family="sans-serif" font-size="14" lengthAdjust="spacing" textLength="59" x="50" y="323.3496">bornDate</text><text fill="#000000" font-family="sans-serif" font-size="14" lengthAdjust="spacing" textLength="57" x="50" y="341.9707">admDate</text><text fill="#000000" font-family="sans-serif" font-size="14" lengthAdjust="spacing" textLength="89" x="50" y="360.5918">phoneNumber</text><text fill="#000000" font-family="sans-serif" font-size="14" lengthAdjust="spacing" textLength="33" x="50" y="379.2129">email</text><text fill="#000000" font-family="sans-serif" font-size="14" lengthAdjust="spacing" textLength="42" x="50" y="397.834">idCard</text><text fill="#000000" font-family="sans-serif" font-size="14" lengthAdjust="spacing" textLength="60" x="50" y="416.4551">idNumber</text></g><!--class Address--><g id="elem_Address"><rect codeLine="31" fill="#F1F1F1" height="55.2422" id="Address" rx="2.5" ry="2.5" style="stroke:#181818;stroke-width:0.5;" width="90" x="89.5" y="503"/><text fill="#000000" font-family="sans-serif" font-size="14" lengthAdjust="spacing" textLength="52" x="108.5" y="523.1074">Address</text><line style="stroke:#181818;stroke-width:0.5;" x1="90.5" x2="178.5" y1="531.6211" y2="531.6211"/><text fill="#000000" font-family="sans-serif" font-size="14" lengthAdjust="spacing" textLength="78" x="95.5" y="550.7285">doorNumber</text></g><!--class ZipCode--><g id="elem_ZipCode"><rect codeLine="35" fill="#F1F1F1" height="73.8633" id="ZipCode" rx="2.5" ry="2.5" style="stroke:#181818;stroke-width:0.5;" width="59" x="105" y="637"/><text fill="#000000" font-family="sans-serif" font-size="14" lengthAdjust="spacing" textLength="53" x="108" y="657.1074">ZipCode</text><line style="stroke:#181818;stroke-width:0.5;" x1="106" x2="163" y1="665.6211" y2="665.6211"/><text fill="#000000" font-family="sans-serif" font-size="14" lengthAdjust="spacing" textLength="29" x="111" y="684.7285">local</text><text fill="#000000" font-family="sans-serif" font-size="14" lengthAdjust="spacing" textLength="36" x="111" y="703.3496">street</text></g><!--class Team--><g id="elem_Team"><rect codeLine="40" fill="#F1F1F1" height="55.2422" id="Team" rx="2.5" ry="2.5" style="stroke:#181818;stroke-width:0.5;" width="47" x="169" y="123"/><text fill="#000000" font-family="sans-serif" font-size="14" lengthAdjust="spacing" textLength="36" x="174.5" y="143.1074">Team</text><line style="stroke:#181818;stroke-width:0.5;" x1="170" x2="215" y1="151.6211" y2="151.6211"/><text fill="#000000" font-family="sans-serif" font-size="14" lengthAdjust="spacing" textLength="35" x="175" y="170.7285">name</text></g><!--class Agenda--><g id="elem_Agenda"><rect fill="#F1F1F1" height="36.6211" id="Agenda" rx="2.5" ry="2.5" style="stroke:#181818;stroke-width:0.5;" width="55" x="333" y="322"/><text fill="#000000" font-family="sans-serif" font-size="14" lengthAdjust="spacing" textLength="49" x="336" y="342.1074">Agenda</text><line style="stroke:#181818;stroke-width:0.5;" x1="334" x2="387" y1="350.6211" y2="350.6211"/></g><!--link HumanResourcesManager to Collaborator--><g id="link_HumanResourcesManager_Collaborator"><path codeLine="44" d="M122.8,44.23 C118.95,84.38 111.0772,166.5121 104.1272,239.0321 " fill="none" id="HumanResourcesManager-to-Collaborator" style="stroke:#181818;stroke-width:1.0;"/><polygon fill="none" points="102.41,256.95,110.0998,239.6045,98.1545,238.4597,102.41,256.95" style="stroke:#181818;stroke-width:1.0;"/></g><!--link HumanResourcesManager to Team--><g id="link_HumanResourcesManager_Team"><path codeLine="45" d="M134.24,44.12 C145.63,64.72 164.58,99 177.77,122.85 " fill="none" id="HumanResourcesManager-Team" style="stroke:#181818;stroke-width:1.0;"/><polygon fill="#000000" points="168.9193,88.0212,167.1147,78.6834,161.9707,81.5275,168.9193,88.0212" style="stroke:#000000;stroke-width:1.0;"/><text fill="#000000" font-family="sans-serif" font-size="13" lengthAdjust="spacing" textLength="43" x="175.5" y="89.0283">creates</text><text fill="#000000" font-family="sans-serif" font-size="13" lengthAdjust="spacing" textLength="7" x="128.917" y="65.5268">1</text><text fill="#000000" font-family="sans-serif" font-size="13" lengthAdjust="spacing" textLength="20" x="152.0512" y="111.5243">1..*</text></g><!--link Collaborator to Skill--><g id="link_Collaborator_Skill"><path codeLine="46" d="M66.34,424.23 C56.68,452.6 46.55,482.37 39.53,502.98 " fill="none" id="Collaborator-Skill" style="stroke:#181818;stroke-width:1.0;"/><polygon fill="#000000" points="58.8886,468.3787,64.5858,460.7634,59.0215,458.8691,58.8886,468.3787" style="stroke:#000000;stroke-width:1.0;"/><text fill="#000000" font-family="sans-serif" font-size="13" lengthAdjust="spacing" textLength="30" x="69.5" y="469.0283">owns</text><text fill="#000000" font-family="sans-serif" font-size="13" lengthAdjust="spacing" textLength="5" x="58.801" y="445.9095">*</text><text fill="#000000" font-family="sans-serif" font-size="13" lengthAdjust="spacing" textLength="5" x="36.0401" y="491.6843">*</text></g><!--link Collaborator to Address--><g id="link_Collaborator_Address"><path codeLine="47" d="M112.1,424.23 C118.14,452.6 124.47,482.37 128.86,502.98 " fill="none" id="Collaborator-Address" style="stroke:#181818;stroke-width:1.0;"/><polygon fill="#000000" points="128.5408,468.536,129.5325,459.0773,123.7834,460.3008,128.5408,468.536" style="stroke:#000000;stroke-width:1.0;"/><text fill="#000000" font-family="sans-serif" font-size="13" lengthAdjust="spacing" textLength="30" x="136.5" y="469.0283">owns</text><text fill="#000000" font-family="sans-serif" font-size="13" lengthAdjust="spacing" textLength="7" x="106.2677" y="445.9095">1</text><text fill="#000000" font-family="sans-serif" font-size="13" lengthAdjust="spacing" textLength="7" x="119.7464" y="491.6843">1</text></g><!--link Address to ZipCode--><g id="link_Address_ZipCode"><path codeLine="48" d="M134.5,558.12 C134.5,580.37 134.5,612.33 134.5,636.89 " fill="none" id="Address-ZipCode" style="stroke:#181818;stroke-width:1.0;"/><polygon fill="#000000" points="139.5,602.6455,142.4389,593.6004,136.5611,593.6004,139.5,602.6455" style="stroke:#000000;stroke-width:1.0;"/><text fill="#000000" font-family="sans-serif" font-size="13" lengthAdjust="spacing" textLength="30" x="148.5" y="603.0283">owns</text><text fill="#000000" font-family="sans-serif" font-size="13" lengthAdjust="spacing" textLength="7" x="126.7344" y="580.0549">1</text><text fill="#000000" font-family="sans-serif" font-size="13" lengthAdjust="spacing" textLength="7" x="126.8766" y="625.8321">1</text></g><!--link Team to Collaborator--><g id="link_Team_Collaborator"><path codeLine="49" d="M172.62,178.15 C166.15,187.38 159.17,197.93 153.5,208 C144.78,223.48 136.36,240.49 128.74,256.99 " fill="none" id="Team-Collaborator" style="stroke:#181818;stroke-width:1.0;"/><polygon fill="#000000" points="156.0684,222.0144,163.0352,215.5403,157.8992,212.6817,156.0684,222.0144" style="stroke:#000000;stroke-width:1.0;"/><text fill="#000000" font-family="sans-serif" font-size="13" lengthAdjust="spacing" textLength="21" x="167.5" y="223.0283">has</text><text fill="#000000" font-family="sans-serif" font-size="13" lengthAdjust="spacing" textLength="7" x="160.5056" y="200.0915">1</text><text fill="#000000" font-family="sans-serif" font-size="13" lengthAdjust="spacing" textLength="20" x="110.8989" y="245.838">1..*</text></g><!--link Team to Agenda--><g id="link_Team_Agenda"><path codeLine="50" d="M216.08,170.69 C240.05,190.82 277.54,224.06 305.5,257 C323.21,277.87 340.14,304.64 350.42,321.93 " fill="none" id="Team-Agenda" style="stroke:#181818;stroke-width:1.0;"/><polygon fill="#000000" points="285.8205,221.3837,282.0109,212.6695,277.6164,216.573,285.8205,221.3837" style="stroke:#000000;stroke-width:1.0;"/><text fill="#000000" font-family="sans-serif" font-size="13" lengthAdjust="spacing" textLength="21" x="291.5" y="223.0283">has</text><text fill="#000000" font-family="sans-serif" font-size="13" lengthAdjust="spacing" textLength="7" x="224.0348" y="171.1594">1</text><text fill="#000000" font-family="sans-serif" font-size="13" lengthAdjust="spacing" textLength="7" x="339.2611" y="310.7707">1</text></g><!--link Agenda to Task--><g id="link_Agenda_Task"><path codeLine="51" d="M349.12,359.19 C327.82,392.28 281.84,463.71 256.73,502.73 " fill="none" id="Agenda-Task" style="stroke:#181818;stroke-width:1.0;"/><polygon fill="#000000" points="287.7938,467.8499,295.1606,461.8347,290.2181,458.6535,287.7938,467.8499" style="stroke:#000000;stroke-width:1.0;"/><text fill="#000000" font-family="sans-serif" font-size="13" lengthAdjust="spacing" textLength="21" x="299.5" y="469.0283">has</text><text fill="#000000" font-family="sans-serif" font-size="13" lengthAdjust="spacing" textLength="20" x="323.3741" y="380.6157">1..*</text><text fill="#000000" font-family="sans-serif" font-size="13" lengthAdjust="spacing" textLength="20" x="238.3116" y="491.8296">1..*</text></g><!--link Task to Team--><g id="link_Task_Team"><path codeLine="52" d="M236.2,502.95 C227.57,433.58 204.43,247.48 195.8,178.08 " fill="none" id="Task-Team" style="stroke:#181818;stroke-width:1.0;"/><polygon fill="#000000" points="230.883,335.6837,229.0827,345.0224,234.9157,344.297,230.883,335.6837" style="stroke:#000000;stroke-width:1.0;"/><text fill="#000000" font-family="sans-serif" font-size="13" lengthAdjust="spacing" textLength="67" x="240.5" y="346.0283">assigned to</text><text fill="#000000" font-family="sans-serif" font-size="13" lengthAdjust="spacing" textLength="20" x="213.1244" y="491.6474">1..*</text><text fill="#000000" font-family="sans-serif" font-size="13" lengthAdjust="spacing" textLength="20" x="174.2506" y="200.4575">1..*</text></g><!--SRC=[TP8nJyCm48Lt_mehOwLMi7QeL9K11XWe4zlLFXAhjYywEwgWyDznuyHAQCdYkzoNTtvF2KVZMs1mqf4drJ0vb94x5A5CMb17g74VForAHXN1rtOAX0OqdOolvGVOW68oKXP2sCR8vj15V5Baz-OBvPqGZT4ebM6LfFhQOMn81o54_v5yx1puLmpKiSBm33xTWUNvPvplZyPQUHOoFHuSYZ9vWt2yETYHjN0WXaWy1Iv5UkqV8EO6j2jrsv37byuTaFiU7HZRLqRlWFLG3aJPjTMQCPrvZIRYlyIxQNUKZ6V2ae8i6o8ZneaTJ47ExTpEPhbSVczc9ly1g_igmUbOhHPLrbzBnPWi1xaHivYgHMRJaHDVIphvQsoKh4RdXHkJc22ZzSBqTvXVQoQ_bWrSSsbNZLv36G_je32nUFaZYiQbkKPo2YbmKtlKCb92Vm40]--></g></svg>