<?xml version="1.0" encoding="us-ascii" standalone="no"?><svg xmlns="http://www.w3.org/2000/svg" xmlns:xlink="http://www.w3.org/1999/xlink" contentStyleType="text/css" height="717px" preserveAspectRatio="none" style="width:407px;height:717px;background:#FFFFFF;" version="1.1" viewBox="0 0 407 717" width="407px" zoomAndPan="magnify"><defs/><g><!--class HumanResourcesManager--><g id="elem_HumanResourcesManager"><rect codeLine="11" fill="#F1F1F1" height="36.6211" id="HumanResourcesManager" rx="2.5" ry="2.5" style="stroke:#181818;stroke-width:0.5;" width="174" x="49.5" y="7"/><text fill="#000000" font-family="sans-serif" font-size="14" lengthAdjust="spacing" textLength="168" x="52.5" y="27.1074">HumanResourcesManager</text><line style="stroke:#181818;stroke-width:0.5;" x1="50.5" x2="222.5" y1="35.6211" y2="35.6211"/></g><!--class Skill--><g id="elem_Skill"><rect codeLine="13" fill="#F1F1F1" height="55.2422" id="Skill" rx="2.5" ry="2.5" style="stroke:#181818;stroke-width:0.5;" width="71" x="7" y="503"/><text fill="#000000" font-family="sans-serif" font-size="14" lengthAdjust="spacing" textLength="25" x="30" y="523.1074">Skill</text><line style="stroke:#181818;stroke-width:0.5;" x1="8" x2="77" y1="531.6211" y2="531.6211"/><text fill="#000000" font-family="sans-serif" font-size="14" lengthAdjust="spacing" textLength="59" x="13" y="550.7285">skillName</text></g><!--class Task--><g id="elem_Task"><rect codeLine="17" fill="#F1F1F1" height="55.2422" id="Task" rx="2.5" ry="2.5" style="stroke:#181818;stroke-width:0.5;" width="74" x="242.5" y="503"/><text fill="#000000" font-family="sans-serif" font-size="14" lengthAdjust="spacing" textLength="31" x="264" y="523.1074">Task</text><line style="stroke:#181818;stroke-width:0.5;" x1="243.5" x2="315.5" y1="531.6211" y2="531.6211"/><text fill="#000000" font-family="sans-serif" font-size="14" lengthAdjust="spacing" textLength="62" x="248.5" y="550.7285">taskName</text></g><!--class Collaborator--><g id="elem_Collaborator"><rect codeLine="21" fill="#F1F1F1" height="166.9688" id="Collaborator" rx="2.5" ry="2.5" style="stroke:#181818;stroke-width:0.5;" width="101" x="56" y="257"/><text fill="#000000" font-family="sans-serif" font-size="14" lengthAdjust="spacing" textLength="78" x="67.5" y="277.1074">Collaborator</text><line style="stroke:#181818;stroke-width:0.5;" x1="57" x2="156" y1="285.6211" y2="285.6211"/><text fill="#000000" font-family="sans-serif" font-size="14" lengthAdjust="spacing" textLength="35" x="62" y="304.7285">name</text><text fill="#000000" font-family="sans-serif" font-size="14" lengthAdjust="spacing" textLength="59" x="62" y="323.3496">bornDate</text><text fill="#000000" font-family="sans-serif" font-size="14" lengthAdjust="spacing" textLength="57" x="62" y="341.9707">admDate</text><text fill="#000000" font-family="sans-serif" font-size="14" lengthAdjust="spacing" textLength="89" x="62" y="360.5918">phoneNumber</text><text fill="#000000" font-family="sans-serif" font-size="14" lengthAdjust="spacing" textLength="33" x="62" y="379.2129">email</text><text fill="#000000" font-family="sans-serif" font-size="14" lengthAdjust="spacing" textLength="42" x="62" y="397.834">idCard</text><text fill="#000000" font-family="sans-serif" font-size="14" lengthAdjust="spacing" textLength="60" x="62" y="416.4551">idNumber</text></g><!--class Address--><g id="elem_Address"><rect codeLine="31" fill="#F1F1F1" height="55.2422" id="Address" rx="2.5" ry="2.5" style="stroke:#181818;stroke-width:0.5;" width="90" x="113.5" y="503"/><text fill="#000000" font-family="sans-serif" font-size="14" lengthAdjust="spacing" textLength="52" x="132.5" y="523.1074">Address</text><line style="stroke:#181818;stroke-width:0.5;" x1="114.5" x2="202.5" y1="531.6211" y2="531.6211"/><text fill="#000000" font-family="sans-serif" font-size="14" lengthAdjust="spacing" textLength="78" x="119.5" y="550.7285">doorNumber</text></g><!--class ZipCode--><g id="elem_ZipCode"><rect codeLine="35" fill="#F1F1F1" height="73.8633" id="ZipCode" rx="2.5" ry="2.5" style="stroke:#181818;stroke-width:0.5;" width="59" x="129" y="637"/><text fill="#000000" font-family="sans-serif" font-size="14" lengthAdjust="spacing" textLength="53" x="132" y="657.1074">ZipCode</text><line style="stroke:#181818;stroke-width:0.5;" x1="130" x2="187" y1="665.6211" y2="665.6211"/><text fill="#000000" font-family="sans-serif" font-size="14" lengthAdjust="spacing" textLength="29" x="135" y="684.7285">local</text><text fill="#000000" font-family="sans-serif" font-size="14" lengthAdjust="spacing" textLength="36" x="135" y="703.3496">street</text></g><!--class Team--><g id="elem_Team"><rect codeLine="40" fill="#F1F1F1" height="55.2422" id="Team" rx="2.5" ry="2.5" style="stroke:#181818;stroke-width:0.5;" width="47" x="181" y="123"/><text fill="#000000" font-family="sans-serif" font-size="14" lengthAdjust="spacing" textLength="36" x="186.5" y="143.1074">Team</text><line style="stroke:#181818;stroke-width:0.5;" x1="182" x2="227" y1="151.6211" y2="151.6211"/><text fill="#000000" font-family="sans-serif" font-size="14" lengthAdjust="spacing" textLength="35" x="187" y="170.7285">name</text></g><!--class Agenda--><g id="elem_Agenda"><rect fill="#F1F1F1" height="36.6211" id="Agenda" rx="2.5" ry="2.5" style="stroke:#181818;stroke-width:0.5;" width="55" x="345" y="322"/><text fill="#000000" font-family="sans-serif" font-size="14" lengthAdjust="spacing" textLength="49" x="348" y="342.1074">Agenda</text><line style="stroke:#181818;stroke-width:0.5;" x1="346" x2="399" y1="350.6211" y2="350.6211"/></g><!--link HumanResourcesManager to Collaborator--><g id="link_HumanResourcesManager_Collaborator"><path codeLine="44" d="M134.8,44.23 C130.95,84.38 123.0772,166.5121 116.1272,239.0321 " fill="none" id="HumanResourcesManager-to-Collaborator" style="stroke:#181818;stroke-width:1.0;"/><polygon fill="none" points="114.41,256.95,122.0998,239.6045,110.1545,238.4597,114.41,256.95" style="stroke:#181818;stroke-width:1.0;"/></g><!--link HumanResourcesManager to Team--><g id="link_HumanResourcesManager_Team"><path codeLine="45" d="M146.24,44.12 C157.63,64.72 176.58,99 189.77,122.85 " fill="none" id="HumanResourcesManager-Team" style="stroke:#181818;stroke-width:1.0;"/><polygon fill="#000000" points="180.9193,88.0212,179.1147,78.6834,173.9707,81.5275,180.9193,88.0212" style="stroke:#000000;stroke-width:1.0;"/><text fill="#000000" font-family="sans-serif" font-size="13" lengthAdjust="spacing" textLength="43" x="187.5" y="89.0283">creates</text><text fill="#000000" font-family="sans-serif" font-size="13" lengthAdjust="spacing" textLength="7" x="140.917" y="65.5268">1</text><text fill="#000000" font-family="sans-serif" font-size="13" lengthAdjust="spacing" textLength="20" x="164.0512" y="111.5243">1..*</text></g><!--link Collaborator to Skill--><g id="link_Collaborator_Skill"><path codeLine="46" d="M78.34,424.23 C68.68,452.6 58.55,482.37 51.53,502.98 " fill="none" id="Collaborator-Skill" style="stroke:#181818;stroke-width:1.0;"/><polygon fill="#000000" points="70.8886,468.3787,76.5858,460.7634,71.0215,458.8691,70.8886,468.3787" style="stroke:#000000;stroke-width:1.0;"/><text fill="#000000" font-family="sans-serif" font-size="13" lengthAdjust="spacing" textLength="30" x="81.5" y="469.0283">owns</text><text fill="#000000" font-family="sans-serif" font-size="13" lengthAdjust="spacing" textLength="5" x="70.801" y="445.9095">*</text><text fill="#000000" font-family="sans-serif" font-size="13" lengthAdjust="spacing" textLength="5" x="48.0401" y="491.6843">*</text></g><!--link Collaborator to Address--><g id="link_Collaborator_Address"><path codeLine="47" d="M129.38,424.23 C137.23,452.6 145.46,482.37 151.16,502.98 " fill="none" id="Collaborator-Address" style="stroke:#181818;stroke-width:1.0;"/><polygon fill="#000000" points="148.8328,468.4646,149.2543,458.9634,143.5891,460.5302,148.8328,468.4646" style="stroke:#000000;stroke-width:1.0;"/><text fill="#000000" font-family="sans-serif" font-size="13" lengthAdjust="spacing" textLength="30" x="156.5" y="469.0283">owns</text><text fill="#000000" font-family="sans-serif" font-size="13" lengthAdjust="spacing" textLength="7" x="123.9849" y="445.9095">1</text><text fill="#000000" font-family="sans-serif" font-size="13" lengthAdjust="spacing" textLength="7" x="141.6532" y="491.6843">1</text></g><!--link Address to ZipCode--><g id="link_Address_ZipCode"><path codeLine="48" d="M158.5,558.12 C158.5,580.37 158.5,612.33 158.5,636.89 " fill="none" id="Address-ZipCode" style="stroke:#181818;stroke-width:1.0;"/><polygon fill="#000000" points="163.5,602.6455,166.4389,593.6004,160.5611,593.6004,163.5,602.6455" style="stroke:#000000;stroke-width:1.0;"/><text fill="#000000" font-family="sans-serif" font-size="13" lengthAdjust="spacing" textLength="30" x="172.5" y="603.0283">owns</text><text fill="#000000" font-family="sans-serif" font-size="13" lengthAdjust="spacing" textLength="7" x="150.7344" y="580.0549">1</text><text fill="#000000" font-family="sans-serif" font-size="13" lengthAdjust="spacing" textLength="7" x="150.8766" y="625.8321">1</text></g><!--link Team to Collaborator--><g id="link_Team_Collaborator"><path codeLine="49" d="M184.62,178.15 C178.15,187.38 171.17,197.93 165.5,208 C156.78,223.48 148.36,240.49 140.74,256.99 " fill="none" id="Team-Collaborator" style="stroke:#181818;stroke-width:1.0;"/><polygon fill="#000000" points="168.0684,222.0144,175.0352,215.5403,169.8992,212.6817,168.0684,222.0144" style="stroke:#000000;stroke-width:1.0;"/><text fill="#000000" font-family="sans-serif" font-size="13" lengthAdjust="spacing" textLength="21" x="179.5" y="223.0283">has</text><text fill="#000000" font-family="sans-serif" font-size="13" lengthAdjust="spacing" textLength="7" x="172.5056" y="200.0915">1</text><text fill="#000000" font-family="sans-serif" font-size="13" lengthAdjust="spacing" textLength="20" x="122.8989" y="245.838">1..*</text></g><!--link Team to Agenda--><g id="link_Team_Agenda"><path codeLine="50" d="M228.08,170.69 C252.05,190.82 289.54,224.06 317.5,257 C335.21,277.87 352.14,304.64 362.42,321.93 " fill="none" id="Team-Agenda" style="stroke:#181818;stroke-width:1.0;"/><polygon fill="#000000" points="297.8205,221.3837,294.0109,212.6695,289.6164,216.573,297.8205,221.3837" style="stroke:#000000;stroke-width:1.0;"/><text fill="#000000" font-family="sans-serif" font-size="13" lengthAdjust="spacing" textLength="21" x="303.5" y="223.0283">has</text><text fill="#000000" font-family="sans-serif" font-size="13" lengthAdjust="spacing" textLength="7" x="236.0348" y="171.1594">1</text><text fill="#000000" font-family="sans-serif" font-size="13" lengthAdjust="spacing" textLength="7" x="351.2611" y="310.7707">1</text></g><!--link Task to Team--><g id="link_Task_Team"><path codeLine="51" d="M269.62,502.95 C262.08,481.82 251.92,451.35 245.5,424 C224.62,335.04 212.07,227.14 207.05,178.08 " fill="none" id="Task-Team" style="stroke:#181818;stroke-width:1.0;"/><polygon fill="#000000" points="249.5544,335.7357,248.3791,345.1734,254.1509,344.0618,249.5544,335.7357" style="stroke:#000000;stroke-width:1.0;"/><text fill="#000000" font-family="sans-serif" font-size="13" lengthAdjust="spacing" textLength="67" x="259.5" y="346.0283">assigned to</text><text fill="#000000" font-family="sans-serif" font-size="13" lengthAdjust="spacing" textLength="20" x="245.0228" y="491.6474">1..*</text><text fill="#000000" font-family="sans-serif" font-size="13" lengthAdjust="spacing" textLength="20" x="185.3272" y="200.4575">1..*</text></g><!--link Agenda to Task--><g id="link_Agenda_Task"><path codeLine="52" d="M363.75,359.19 C347.38,392.28 312.04,463.71 292.74,502.73 " fill="none" id="Agenda-Task" style="stroke:#181818;stroke-width:1.0;"/><polygon fill="#000000" points="317.2829,468.1271,323.9279,461.323,318.6594,458.7167,317.2829,468.1271" style="stroke:#000000;stroke-width:1.0;"/><text fill="#000000" font-family="sans-serif" font-size="13" lengthAdjust="spacing" textLength="21" x="328.5" y="469.0283">has</text><text fill="#000000" font-family="sans-serif" font-size="13" lengthAdjust="spacing" textLength="20" x="338.7109" y="380.6157">1..*</text><text fill="#000000" font-family="sans-serif" font-size="13" lengthAdjust="spacing" textLength="20" x="273.4488" y="491.8296">1..*</text></g><!--SRC=[TP4nJyCm48Lt_mehOwKYM3jKgie00nqe4zlLFXAhjYywEwgWyDznuYGa1BBuxFVv-Uubd8slWS59HvvKnUHGHcvGX56fGPsXn6DyjoWPLGHVsYaGAj1qCRwKRs03YecaB8ImYv7DgOdugCWVpGVAMo4ger4gmofPTRN3M94EGeZkadne7FXd3DImml04FlN0ylerwCUpiLPUXKnVQEi3E1IZ_0BXtAinbNDnJzR2YHWYSG_v5cYBTEpl8UODQ3VMTKKU3uqx8NTxT61iLncz1zPzsHFZMpkj6TEQdz54_9juDVMUKWAPiAGWsuR8Y74o4gP49zqcuU-GrklrvtOsv3zWSLSaE2qtDwiY-s-aOamZ1xaLivYALMRJagFVIBhu9JPO5iFa8pSaCK66qKUcws7Urin-8ojOSkcj4hs67xdz-_tznO0fIrDwr39IsrM-kOHRYy7l6m00]--></g></svg>