<?xml version="1.0" encoding="UTF-8" standalone="no"?><svg xmlns="http://www.w3.org/2000/svg" xmlns:xlink="http://www.w3.org/1999/xlink" contentStyleType="text/css" height="994px" preserveAspectRatio="none" style="width:619px;height:994px;background:#FFFFFF;" version="1.1" viewBox="0 0 619 994" width="619px" zoomAndPan="magnify"><defs/><g><!--class HumanResourcesManager--><g id="elem_HumanResourcesManager"><rect codeLine="11" fill="#F1F1F1" height="45.24" id="HumanResourcesManager" rx="2.5" ry="2.5" style="stroke:#181818;stroke-width:0.5;" width="254" x="106.5" y="7"/><text fill="#000000" font-family="sans-serif" font-size="20" lengthAdjust="spacing" textLength="248" x="109.5" y="33.38">HumanResourcesManager</text><line style="stroke:#181818;stroke-width:0.5;" x1="107.5" x2="359.5" y1="44.24" y2="44.24"/></g><!--class Skill--><g id="elem_Skill"><rect codeLine="13" fill="#F1F1F1" height="72.4799" id="Skill" rx="2.5" ry="2.5" style="stroke:#181818;stroke-width:0.5;" width="65" x="7" y="687.16"/><text fill="#000000" font-family="sans-serif" font-size="20" lengthAdjust="spacing" textLength="37" x="21" y="713.54">Skill</text><line style="stroke:#181818;stroke-width:0.5;" x1="8" x2="71" y1="724.4" y2="724.4"/><text fill="#000000" font-family="sans-serif" font-size="20" lengthAdjust="spacing" textLength="53" x="13" y="749.78">name</text></g><!--class Task--><g id="elem_Task"><rect codeLine="17" fill="#F1F1F1" height="72.4799" id="Task" rx="2.5" ry="2.5" style="stroke:#181818;stroke-width:0.5;" width="65" x="381" y="687.16"/><text fill="#000000" font-family="sans-serif" font-size="20" lengthAdjust="spacing" textLength="43" x="392" y="713.54">Task</text><line style="stroke:#181818;stroke-width:0.5;" x1="382" x2="445" y1="724.4" y2="724.4"/><text fill="#000000" font-family="sans-serif" font-size="20" lengthAdjust="spacing" textLength="53" x="387" y="749.78">name</text></g><!--class Collaborator--><g id="elem_Collaborator"><rect codeLine="21" fill="#F1F1F1" height="235.9198" id="Collaborator" rx="2.5" ry="2.5" style="stroke:#181818;stroke-width:0.5;" width="148" x="128.5" y="342.24"/><text fill="#000000" font-family="sans-serif" font-size="20" lengthAdjust="spacing" textLength="116" x="144.5" y="368.62">Collaborator</text><line style="stroke:#181818;stroke-width:0.5;" x1="129.5" x2="275.5" y1="379.48" y2="379.48"/><text fill="#000000" font-family="sans-serif" font-size="20" lengthAdjust="spacing" textLength="53" x="134.5" y="404.86">name</text><text fill="#000000" font-family="sans-serif" font-size="20" lengthAdjust="spacing" textLength="88" x="134.5" y="432.0999">bornDate</text><text fill="#000000" font-family="sans-serif" font-size="20" lengthAdjust="spacing" textLength="86" x="134.5" y="459.3399">admDate</text><text fill="#000000" font-family="sans-serif" font-size="20" lengthAdjust="spacing" textLength="136" x="134.5" y="486.5799">phoneNumber</text><text fill="#000000" font-family="sans-serif" font-size="20" lengthAdjust="spacing" textLength="51" x="134.5" y="513.8199">email</text><text fill="#000000" font-family="sans-serif" font-size="20" lengthAdjust="spacing" textLength="61" x="134.5" y="541.0598">idCard</text><text fill="#000000" font-family="sans-serif" font-size="20" lengthAdjust="spacing" textLength="94" x="134.5" y="568.2998">idNumber</text></g><!--class Address--><g id="elem_Address"><rect codeLine="31" fill="#F1F1F1" height="72.4799" id="Address" rx="2.5" ry="2.5" style="stroke:#181818;stroke-width:0.5;" width="133" x="155" y="687.16"/><text fill="#000000" font-family="sans-serif" font-size="20" lengthAdjust="spacing" textLength="76" x="183.5" y="713.54">Address</text><line style="stroke:#181818;stroke-width:0.5;" x1="156" x2="287" y1="724.4" y2="724.4"/><text fill="#000000" font-family="sans-serif" font-size="20" lengthAdjust="spacing" textLength="121" x="161" y="749.78">doorNumber</text></g><!--class ZipCode--><g id="elem_ZipCode"><rect codeLine="35" fill="#F1F1F1" height="99.7199" id="ZipCode" rx="2.5" ry="2.5" style="stroke:#181818;stroke-width:0.5;" width="82" x="180.5" y="888.16"/><text fill="#000000" font-family="sans-serif" font-size="20" lengthAdjust="spacing" textLength="76" x="183.5" y="914.54">ZipCode</text><line style="stroke:#181818;stroke-width:0.5;" x1="181.5" x2="261.5" y1="925.4" y2="925.4"/><text fill="#000000" font-family="sans-serif" font-size="20" lengthAdjust="spacing" textLength="43" x="186.5" y="950.78">local</text><text fill="#000000" font-family="sans-serif" font-size="20" lengthAdjust="spacing" textLength="54" x="186.5" y="978.0199">street</text></g><!--class Team--><g id="elem_Team"><rect codeLine="40" fill="#F1F1F1" height="72.4799" id="Team" rx="2.5" ry="2.5" style="stroke:#181818;stroke-width:0.5;" width="65" x="286" y="161.24"/><text fill="#000000" font-family="sans-serif" font-size="20" lengthAdjust="spacing" textLength="52" x="292.5" y="187.62">Team</text><line style="stroke:#181818;stroke-width:0.5;" x1="287" x2="350" y1="198.48" y2="198.48"/><text fill="#000000" font-family="sans-serif" font-size="20" lengthAdjust="spacing" textLength="53" x="292" y="223.86">name</text></g><!--class Agenda--><g id="elem_Agenda"><rect fill="#F1F1F1" height="45.24" id="Agenda" rx="2.5" ry="2.5" style="stroke:#181818;stroke-width:0.5;" width="77" x="535" y="437.7"/><text fill="#000000" font-family="sans-serif" font-size="20" lengthAdjust="spacing" textLength="71" x="538" y="464.08">Agenda</text><line style="stroke:#181818;stroke-width:0.5;" x1="536" x2="611" y1="474.94" y2="474.94"/></g><!--link HumanResourcesManager to Collaborator--><g id="link_HumanResourcesManager_Collaborator"><path codeLine="44" d="M231.92,52.46 C228.38,101.36 219.59,222.99 212.53,320.59 " fill="none" id="HumanResourcesManager-to-Collaborator" style="stroke:#181818;stroke-width:1.0;"/><polygon fill="none" points="219.51,321.01,211.09,340.46,205.55,320,219.51,321.01" style="stroke:#181818;stroke-width:1.0;"/></g><!--link HumanResourcesManager to Team--><g id="link_HumanResourcesManager_Team"><path codeLine="45" d="M244.79,52.61 C259.06,80.42 283.79,128.61 300.64,161.44 " fill="none" id="HumanResourcesManager-Team" style="stroke:#181818;stroke-width:1.0;"/><polygon fill="#000000" points="284.1526,103.9775,281.7285,88.9549,273.3614,93.2488,284.1526,103.9775" style="stroke:#000000;stroke-width:1.0;"/><text fill="#000000" font-family="sans-serif" font-size="20" lengthAdjust="spacing" textLength="68" x="293.5" y="104.62">creates</text><text fill="#000000" font-family="sans-serif" font-size="20" lengthAdjust="spacing" textLength="11" x="234.9842" y="81.5408">1</text><text fill="#000000" font-family="sans-serif" font-size="20" lengthAdjust="spacing" textLength="32" x="262.8203" y="147.3259">1..*</text></g><!--link Collaborator to Skill--><g id="link_Collaborator_Skill"><path codeLine="46" d="M129.34,578.32 C104.63,617.89 78.88,659.11 61.32,687.23 " fill="none" id="Collaborator-Skill" style="stroke:#181818;stroke-width:1.0;"/><polygon fill="#000000" points="110.2622,629.5653,121.9168,619.7814,113.9401,614.7996,110.2622,629.5653" style="stroke:#000000;stroke-width:1.0;"/><text fill="#000000" font-family="sans-serif" font-size="20" lengthAdjust="spacing" textLength="50" x="127.5" y="630.54">owns</text><text fill="#000000" font-family="sans-serif" font-size="20" lengthAdjust="spacing" textLength="11" x="113.5467" y="607.7279">*</text><text fill="#000000" font-family="sans-serif" font-size="20" lengthAdjust="spacing" textLength="11" x="53.023" y="673.4033">*</text></g><!--link Collaborator to Address--><g id="link_Collaborator_Address"><path codeLine="47" d="M211.03,578.32 C213.91,617.89 216.91,659.11 218.96,687.23 " fill="none" id="Collaborator-Address" style="stroke:#181818;stroke-width:1.0;"/><polygon fill="#000000" points="224.081,630.7589,227.7199,615.9835,218.3401,616.6664,224.081,630.7589" style="stroke:#000000;stroke-width:1.0;"/><text fill="#000000" font-family="sans-serif" font-size="20" lengthAdjust="spacing" textLength="50" x="236.5" y="630.54">owns</text><text fill="#000000" font-family="sans-serif" font-size="20" lengthAdjust="spacing" textLength="11" x="200.2146" y="607.7279">1</text><text fill="#000000" font-family="sans-serif" font-size="20" lengthAdjust="spacing" textLength="11" x="219.4503" y="673.4033">1</text></g><!--link Address to ZipCode--><g id="link_Address_ZipCode"><path codeLine="48" d="M221.5,758.77 C221.5,793.94 221.5,848.7 221.5,888.17 " fill="none" id="Address-ZipCode" style="stroke:#181818;stroke-width:1.0;"/><polygon fill="#000000" points="229.5,831.78,234.2023,817.3079,224.7977,817.3079,229.5,831.78" style="stroke:#000000;stroke-width:1.0;"/><text fill="#000000" font-family="sans-serif" font-size="20" lengthAdjust="spacing" textLength="50" x="242.5" y="831.54">owns</text><text fill="#000000" font-family="sans-serif" font-size="20" lengthAdjust="spacing" textLength="11" x="219.2398" y="788.8763">1</text><text fill="#000000" font-family="sans-serif" font-size="20" lengthAdjust="spacing" textLength="11" x="209.7953" y="874.4486">1</text></g><!--link Team to Collaborator--><g id="link_Team_Collaborator"><path codeLine="49" d="M294.58,232.84 C284.79,247.91 273.83,266.02 265.5,283.24 C256.53,301.79 248.13,321.96 240.57,341.81 " fill="none" id="Team-Collaborator" style="stroke:#181818;stroke-width:1.0;"/><polygon fill="#000000" points="269.9473,305.0279,280.5874,294.1493,272.161,289.9728,269.9473,305.0279" style="stroke:#000000;stroke-width:1.0;"/><text fill="#000000" font-family="sans-serif" font-size="20" lengthAdjust="spacing" textLength="33" x="286.5" y="305.62">has</text><text fill="#000000" font-family="sans-serif" font-size="20" lengthAdjust="spacing" textLength="11" x="267.0313" y="239.5837">1</text><text fill="#000000" font-family="sans-serif" font-size="20" lengthAdjust="spacing" textLength="32" x="209.8459" y="328.572">1..*</text></g><!--link Team to Agenda--><g id="link_Team_Agenda"><path codeLine="50" d="M350.88,223.32 C385.43,250.77 440.92,296.95 483.5,342.24 C512.81,373.41 542.18,413.69 559.06,437.92 " fill="none" id="Team-Agenda" style="stroke:#181818;stroke-width:1.0;"/><polygon fill="#000000" points="463.0703,303.6021,456.3686,289.9404,449.6184,296.4887,463.0703,303.6021" style="stroke:#000000;stroke-width:1.0;"/><text fill="#000000" font-family="sans-serif" font-size="20" lengthAdjust="spacing" textLength="33" x="470.5" y="305.62">has</text><text fill="#000000" font-family="sans-serif" font-size="20" lengthAdjust="spacing" textLength="11" x="359.032" y="226.5777">1</text><text fill="#000000" font-family="sans-serif" font-size="20" lengthAdjust="spacing" textLength="11" x="543.4489" y="424.0259">1</text></g><!--link Agenda to Task--><g id="link_Agenda_Task"><path codeLine="51" d="M560.41,482.56 C532.79,527.59 468.37,632.67 434.76,687.49 " fill="none" id="Agenda-Task" style="stroke:#181818;stroke-width:1.0;"/><polygon fill="#000000" points="482.3183,629.6001,493.8918,619.7203,485.8743,614.8045,482.3183,629.6001" style="stroke:#000000;stroke-width:1.0;"/><text fill="#000000" font-family="sans-serif" font-size="20" lengthAdjust="spacing" textLength="33" x="499.5" y="630.54">has</text><text fill="#000000" font-family="sans-serif" font-size="20" lengthAdjust="spacing" textLength="32" x="521.6829" y="512.2326">1..*</text><text fill="#000000" font-family="sans-serif" font-size="20" lengthAdjust="spacing" textLength="32" x="403.6641" y="673.3983">1..*</text></g><!--link Task to Team--><g id="link_Task_Team"><path codeLine="52" d="M399.34,687.24 C388.21,658.44 373.19,616.26 364.5,578.16 C349.58,512.74 329.56,314.01 321.78,233.09 " fill="none" id="Task-Team" style="stroke:#181818;stroke-width:1.0;"/><polygon fill="#000000" points="371.1533,452.4342,368.9544,467.4914,378.2247,465.9082,371.1533,452.4342" style="stroke:#000000;stroke-width:1.0;"/><text fill="#000000" font-family="sans-serif" font-size="20" lengthAdjust="spacing" textLength="107" x="385.5" y="468.08">assigned to</text><text fill="#000000" font-family="sans-serif" font-size="20" lengthAdjust="spacing" textLength="32" x="362.3448" y="673.4149">1..*</text><text fill="#000000" font-family="sans-serif" font-size="20" lengthAdjust="spacing" textLength="32" x="287.5142" y="263.2391">1..*</text></g><!--SRC=[TPF1JiCm38RlUOgenqcR1iST9ar320vmO9ouUOdNHatYoaarmU3ToPgrQjde9NRzzRT_jmsryGqmE4kgHYqr7g2ryP5yt9albFTB4Nf4ElAaAYQ7CdABeqe3geOIT_7JecHK4Nnfnq2eGDFH-58Um0OKevAo4C8cHZRxDkAp8jzrNWfH6OrI6LP9geiTnefq449q3ycdre5_mq0jAmmluDCCB4y_VNrN6slbISXqUN0eXiexXFfcOKlMmfuO8l4OE0Vfjd-0c1FGReYRYZo-jcwFtENemDWkCdeBh2_XXHXwRRHcJ6TkeuduB_5XcYqbuvb8xmYoR8YC64TsC2roQkVsRkRp-VTwOl8ViBWh4foEnM9MPFsLL8p9Sf1hCLbJCSjiElB6LvAE_Xhh9OlU-S3rcnWXlVM1wMQOZZMHNyaAhhdKgqIlOIXVqel2oEBvYnWqpiarahUG5cvAdtwMI0dz1G00]--></g></svg>