<?xml version="1.0" encoding="UTF-8" standalone="no"?><svg xmlns="http://www.w3.org/2000/svg" xmlns:xlink="http://www.w3.org/1999/xlink" contentStyleType="text/css" height="711px" preserveAspectRatio="none" style="width:1098px;height:711px;background:#FFFFFF;" version="1.1" viewBox="0 0 1098 711" width="1098px" zoomAndPan="magnify"><defs/><g><text fill="#000000" font-family="sans-serif" font-size="14" font-weight="bold" lengthAdjust="spacing" textLength="224" x="438.75" y="29.9659">System Sequence Diagram (SSD)</text><rect fill="#FFFFFF" height="413.6397" style="stroke:#181818;stroke-width:1.0;" width="10" x="103" y="169.5479"/><rect fill="#FFFFFF" height="89.7199" style="stroke:#181818;stroke-width:1.0;" width="10" x="1034" y="202.7878"/><rect fill="#FFFFFF" height="68.4799" style="stroke:#181818;stroke-width:1.0;" width="10" x="1034" y="333.7477"/><rect fill="#FFFFFF" height="48.24" style="stroke:#181818;stroke-width:1.0;" width="10" x="1034" y="443.4677"/><rect fill="#FFFFFF" height="41.24" style="stroke:#181818;stroke-width:1.0;" width="10" x="1034" y="532.9476"/><rect fill="none" height="233.6798" style="stroke:#000000;stroke-width:1.5;" width="1082.5" x="10" y="217.7878"/><line style="stroke:#181818;stroke-width:0.5;stroke-dasharray:5.0,5.0;" x1="108" x2="108" y1="159.5479" y2="592.1876"/><line style="stroke:#181818;stroke-width:0.5;stroke-dasharray:5.0,5.0;" x1="1038.5" x2="1038.5" y1="159.5479" y2="592.1876"/><text fill="#000000" font-family="sans-serif" font-size="20" lengthAdjust="spacing" textLength="170" x="20" y="126.4479">Human Resources</text><text fill="#000000" font-family="sans-serif" font-size="20" lengthAdjust="spacing" textLength="83" x="63.5" y="153.6879">Manager</text><ellipse cx="108" cy="53.5679" fill="#E3E3E3" rx="8" ry="8" style="stroke:#181818;stroke-width:0.5;"/><path d="M108,61.5679 L108,88.5679 M95,69.5679 L121,69.5679 M108,88.5679 L95,103.5679 M108,88.5679 L121,103.5679 " fill="none" style="stroke:#181818;stroke-width:0.5;"/><text fill="#000000" font-family="sans-serif" font-size="20" lengthAdjust="spacing" textLength="170" x="20" y="612.5676">Human Resources</text><text fill="#000000" font-family="sans-serif" font-size="20" lengthAdjust="spacing" textLength="83" x="63.5" y="639.8075">Manager</text><ellipse cx="108" cy="654.1675" fill="#E3E3E3" rx="8" ry="8" style="stroke:#181818;stroke-width:0.5;"/><path d="M108,662.1675 L108,689.1675 M95,670.1675 L121,670.1675 M108,689.1675 L95,704.1675 M108,689.1675 L121,704.1675 " fill="none" style="stroke:#181818;stroke-width:0.5;"/><rect fill="#E3E3E3" height="41.24" rx="2.5" ry="2.5" style="stroke:#181818;stroke-width:0.5;" width="87" x="995.5" y="117.3079"/><text fill="#000000" font-family="sans-serif" font-size="20" lengthAdjust="spacing" textLength="73" x="1002.5" y="145.6879">:System</text><rect fill="#E3E3E3" height="41.24" rx="2.5" ry="2.5" style="stroke:#181818;stroke-width:0.5;" width="87" x="995.5" y="591.1876"/><text fill="#000000" font-family="sans-serif" font-size="20" lengthAdjust="spacing" textLength="73" x="1002.5" y="619.5676">:System</text><rect fill="#FFFFFF" height="413.6397" style="stroke:#181818;stroke-width:1.0;" width="10" x="103" y="169.5479"/><rect fill="#FFFFFF" height="89.7199" style="stroke:#181818;stroke-width:1.0;" width="10" x="1034" y="202.7878"/><rect fill="#FFFFFF" height="68.4799" style="stroke:#181818;stroke-width:1.0;" width="10" x="1034" y="333.7477"/><rect fill="#FFFFFF" height="48.24" style="stroke:#181818;stroke-width:1.0;" width="10" x="1034" y="443.4677"/><rect fill="#FFFFFF" height="41.24" style="stroke:#181818;stroke-width:1.0;" width="10" x="1034" y="532.9476"/><polygon fill="#181818" points="1022,198.7878,1032,202.7878,1022,206.7878,1026,202.7878" style="stroke:#181818;stroke-width:1.0;"/><line style="stroke:#181818;stroke-width:1.0;" x1="113" x2="1028" y1="202.7878" y2="202.7878"/><text fill="#000000" font-family="sans-serif" font-size="20" font-weight="bold" lengthAdjust="spacing" textLength="11" x="120" y="194.9278">1</text><text fill="#000000" font-family="sans-serif" font-size="20" lengthAdjust="spacing" textLength="302" x="135" y="194.9278">asks to regist a new collaborator</text><path d="M10,217.7878 L98,217.7878 L98,237.0278 L88,247.0278 L10,247.0278 L10,217.7878 " fill="#EEEEEE" style="stroke:#000000;stroke-width:1.5;"/><rect fill="none" height="233.6798" style="stroke:#000000;stroke-width:1.5;" width="1082.5" x="10" y="217.7878"/><text fill="#000000" font-family="sans-serif" font-size="20" font-weight="bold" lengthAdjust="spacing" textLength="43" x="25" y="240.1678">loop</text><text fill="#000000" font-family="sans-serif" font-size="20" font-weight="bold" lengthAdjust="spacing" textLength="164" x="113" y="241.1678">[while intended]</text><polygon fill="#181818" points="124,288.5078,114,292.5078,124,296.5078,120,292.5078" style="stroke:#181818;stroke-width:1.0;"/><line style="stroke:#181818;stroke-width:1.0;stroke-dasharray:2.0,2.0;" x1="118" x2="1038" y1="292.5078" y2="292.5078"/><text fill="#000000" font-family="sans-serif" font-size="20" font-weight="bold" lengthAdjust="spacing" textLength="11" x="130" y="284.6478">2</text><text fill="#000000" font-family="sans-serif" font-size="20" lengthAdjust="spacing" textLength="297" x="145" y="284.6478">List all jobs and requests the job</text><polygon fill="#181818" points="1022,329.7477,1032,333.7477,1022,337.7477,1026,333.7477" style="stroke:#181818;stroke-width:1.0;"/><line style="stroke:#181818;stroke-width:1.0;" x1="113" x2="1028" y1="333.7477" y2="333.7477"/><text fill="#000000" font-family="sans-serif" font-size="20" font-weight="bold" lengthAdjust="spacing" textLength="11" x="120" y="325.8877">3</text><text fill="#000000" font-family="sans-serif" font-size="20" lengthAdjust="spacing" textLength="105" x="135" y="325.8877">Select a job</text><polygon fill="#181818" points="124,398.2277,114,402.2277,124,406.2277,120,402.2277" style="stroke:#181818;stroke-width:1.0;"/><line style="stroke:#181818;stroke-width:1.0;stroke-dasharray:2.0,2.0;" x1="118" x2="1038" y1="402.2277" y2="402.2277"/><text fill="#000000" font-family="sans-serif" font-size="20" font-weight="bold" lengthAdjust="spacing" textLength="11" x="130" y="380.7477">4</text><text fill="#000000" font-family="sans-serif" font-size="20" lengthAdjust="spacing" textLength="732" x="145" y="367.1277">requests the fundamental characteristics (i.e. name, birth date, admission date,</text><text fill="#000000" font-family="sans-serif" font-size="20" lengthAdjust="spacing" textLength="877" x="150" y="394.3677">address, contact info (mobile and email), taxpayer number,ID doc type and respective number)</text><polygon fill="#181818" points="1022,439.4677,1032,443.4677,1022,447.4677,1026,443.4677" style="stroke:#181818;stroke-width:1.0;"/><line style="stroke:#181818;stroke-width:1.0;" x1="113" x2="1028" y1="443.4677" y2="443.4677"/><text fill="#000000" font-family="sans-serif" font-size="20" font-weight="bold" lengthAdjust="spacing" textLength="11" x="120" y="435.6077">5</text><text fill="#000000" font-family="sans-serif" font-size="20" lengthAdjust="spacing" textLength="343" x="135" y="435.6077">Type the fundamental characteristics</text><polygon fill="#181818" points="124,487.7076,114,491.7076,124,495.7076,120,491.7076" style="stroke:#181818;stroke-width:1.0;"/><line style="stroke:#181818;stroke-width:1.0;stroke-dasharray:2.0,2.0;" x1="118" x2="1038" y1="491.7076" y2="491.7076"/><text fill="#000000" font-family="sans-serif" font-size="20" font-weight="bold" lengthAdjust="spacing" textLength="11" x="130" y="483.8476">6</text><text fill="#000000" font-family="sans-serif" font-size="20" lengthAdjust="spacing" textLength="502" x="145" y="483.8476">show all the collaborator(s) and requests confirmation</text><polygon fill="#181818" points="1022,528.9476,1032,532.9476,1022,536.9476,1026,532.9476" style="stroke:#181818;stroke-width:1.0;"/><line style="stroke:#181818;stroke-width:1.0;" x1="113" x2="1028" y1="532.9476" y2="532.9476"/><text fill="#000000" font-family="sans-serif" font-size="20" font-weight="bold" lengthAdjust="spacing" textLength="11" x="120" y="525.0876">7</text><text fill="#000000" font-family="sans-serif" font-size="20" lengthAdjust="spacing" textLength="248" x="135" y="525.0876">confirm the collaborator(s)</text><polygon fill="#181818" points="124,570.1876,114,574.1876,124,578.1876,120,574.1876" style="stroke:#181818;stroke-width:1.0;"/><line style="stroke:#181818;stroke-width:1.0;stroke-dasharray:2.0,2.0;" x1="118" x2="1038" y1="574.1876" y2="574.1876"/><text fill="#000000" font-family="sans-serif" font-size="20" font-weight="bold" lengthAdjust="spacing" textLength="11" x="130" y="566.3276">8</text><text fill="#000000" font-family="sans-serif" font-size="20" lengthAdjust="spacing" textLength="248" x="145" y="566.3276">displays operation success</text><!--SRC=[dLCxRzim4DxrAmwUR409YeuUEXb52ZHBr37BYJnBZCcZoZlLTNzzJx8TEAdT0kL4tUjx72Mxm0CMJ36x7NdmjCKnwkVCseHV11y_L78kWPGvkxxaHA1bf8lCW6w77JLwY0I5d29tyR90UlHv7xY3BKQXgjAWLjeSH2b1Gzz7OaUm2TXDvSkcsQog2aVDFAQMYjsTvWABXp4XmnD97eiZUUP7P4Ck2q21XwV7ol0qk30WAopMHu0vURpEWy8FL9ghAx1Z5xZxT2QpjkATW6OJqWLHG63QWyinOfiB6esvwtNEUV0KZ3aFiE-3QGkin9xy73-V4yQTmKseQ_Ww8yG8BxaLGFQ6QcQ86eEUfkXhlwVtaEVCUm4DHTk14RzilyhtAgSt3BOZUqp4YX5SRyjqIiL81oUm3FTq3spf6jfGj0Tl03MWJq4aP3v-FxD5V26HscoqISOjy3R3CkLsicgIJGb3NDMW-7F00nKuBhx-iW6V7UXXe9CzCj0aXKuLg_ymwDiqxH_gRXetnMopVp5G-hoVbpf1N3wSfQpUxjZis8QIKCsiwhg6gq_qr7SDuFRZ_8Ed3p94F0ZaWShC0MHqzbl9BIw_0G00]--></g></svg>