<?xml version="1.0" encoding="us-ascii" standalone="no"?><svg xmlns="http://www.w3.org/2000/svg" xmlns:xlink="http://www.w3.org/1999/xlink" contentStyleType="text/css" height="950px" preserveAspectRatio="none" style="width:872px;height:950px;background:#FFFFFF;" version="1.1" viewBox="0 0 872 950" width="872px" zoomAndPan="magnify"><defs/><g><!--class Organization--><g id="elem_Organization"><rect codeLine="9" fill="#F1F1F1" height="36.6211" id="Organization" rx="2.5" ry="2.5" style="stroke:#181818;stroke-width:0.5;" width="86" x="144.84" y="130.2627"/><text fill="#000000" font-family="sans-serif" font-size="14" lengthAdjust="spacing" textLength="80" x="147.84" y="150.3701">Organization</text><line style="stroke:#181818;stroke-width:0.5;" x1="145.84" x2="229.84" y1="158.8838" y2="158.8838"/></g><!--class HumanResourceManager--><g id="elem_HumanResourceManager"><rect codeLine="12" fill="#F1F1F1" height="185.5898" id="HumanResourceManager" rx="2.5" ry="2.5" style="stroke:#181818;stroke-width:0.5;" width="167" x="497.34" y="55.7627"/><text fill="#000000" font-family="sans-serif" font-size="14" lengthAdjust="spacing" textLength="161" x="500.34" y="75.8701">HumanResourceManager</text><line style="stroke:#181818;stroke-width:0.5;" x1="498.34" x2="663.34" y1="84.3838" y2="84.3838"/><text fill="#000000" font-family="sans-serif" font-size="14" lengthAdjust="spacing" textLength="35" x="503.34" y="103.4912">name</text><text fill="#000000" font-family="sans-serif" font-size="14" lengthAdjust="spacing" textLength="59" x="503.34" y="122.1123">bornDate</text><text fill="#000000" font-family="sans-serif" font-size="14" lengthAdjust="spacing" textLength="57" x="503.34" y="140.7334">admDate</text><text fill="#000000" font-family="sans-serif" font-size="14" lengthAdjust="spacing" textLength="51" x="503.34" y="159.3545">address</text><text fill="#000000" font-family="sans-serif" font-size="14" lengthAdjust="spacing" textLength="89" x="503.34" y="177.9756">phoneNumber</text><text fill="#000000" font-family="sans-serif" font-size="14" lengthAdjust="spacing" textLength="33" x="503.34" y="196.5967">email</text><text fill="#000000" font-family="sans-serif" font-size="14" lengthAdjust="spacing" textLength="42" x="503.34" y="215.2178">idCard</text><text fill="#000000" font-family="sans-serif" font-size="14" lengthAdjust="spacing" textLength="60" x="503.34" y="233.8389">idNumber</text></g><!--class Collaborator--><g id="elem_Collaborator"><rect codeLine="23" fill="#F1F1F1" height="185.5898" id="Collaborator" rx="2.5" ry="2.5" style="stroke:#181818;stroke-width:0.5;" width="101" x="571.34" y="622.7627"/><text fill="#000000" font-family="sans-serif" font-size="14" lengthAdjust="spacing" textLength="78" x="582.84" y="642.8701">Collaborator</text><line style="stroke:#181818;stroke-width:0.5;" x1="572.34" x2="671.34" y1="651.3838" y2="651.3838"/><text fill="#000000" font-family="sans-serif" font-size="14" lengthAdjust="spacing" textLength="35" x="577.34" y="670.4912">name</text><text fill="#000000" font-family="sans-serif" font-size="14" lengthAdjust="spacing" textLength="59" x="577.34" y="689.1123">bornDate</text><text fill="#000000" font-family="sans-serif" font-size="14" lengthAdjust="spacing" textLength="57" x="577.34" y="707.7334">admDate</text><text fill="#000000" font-family="sans-serif" font-size="14" lengthAdjust="spacing" textLength="51" x="577.34" y="726.3545">address</text><text fill="#000000" font-family="sans-serif" font-size="14" lengthAdjust="spacing" textLength="89" x="577.34" y="744.9756">phoneNumber</text><text fill="#000000" font-family="sans-serif" font-size="14" lengthAdjust="spacing" textLength="33" x="577.34" y="763.5967">email</text><text fill="#000000" font-family="sans-serif" font-size="14" lengthAdjust="spacing" textLength="42" x="577.34" y="782.2178">idCard</text><text fill="#000000" font-family="sans-serif" font-size="14" lengthAdjust="spacing" textLength="60" x="577.34" y="800.8389">idNumber</text></g><!--class FleetManager--><g id="elem_FleetManager"><rect codeLine="34" fill="#F1F1F1" height="185.5898" id="FleetManager" rx="2.5" ry="2.5" style="stroke:#181818;stroke-width:0.5;" width="101" x="301.34" y="55.7627"/><text fill="#000000" font-family="sans-serif" font-size="14" lengthAdjust="spacing" textLength="88" x="307.84" y="75.8701">FleetManager</text><line style="stroke:#181818;stroke-width:0.5;" x1="302.34" x2="401.34" y1="84.3838" y2="84.3838"/><text fill="#000000" font-family="sans-serif" font-size="14" lengthAdjust="spacing" textLength="35" x="307.34" y="103.4912">name</text><text fill="#000000" font-family="sans-serif" font-size="14" lengthAdjust="spacing" textLength="59" x="307.34" y="122.1123">bornDate</text><text fill="#000000" font-family="sans-serif" font-size="14" lengthAdjust="spacing" textLength="57" x="307.34" y="140.7334">admDate</text><text fill="#000000" font-family="sans-serif" font-size="14" lengthAdjust="spacing" textLength="51" x="307.34" y="159.3545">address</text><text fill="#000000" font-family="sans-serif" font-size="14" lengthAdjust="spacing" textLength="89" x="307.34" y="177.9756">phoneNumber</text><text fill="#000000" font-family="sans-serif" font-size="14" lengthAdjust="spacing" textLength="33" x="307.34" y="196.5967">email</text><text fill="#000000" font-family="sans-serif" font-size="14" lengthAdjust="spacing" textLength="42" x="307.34" y="215.2178">idCard</text><text fill="#000000" font-family="sans-serif" font-size="14" lengthAdjust="spacing" textLength="60" x="307.34" y="233.8389">idNumber</text></g><!--class Skill--><g id="elem_Skill"><rect codeLine="45" fill="#F1F1F1" height="55.2422" id="Skill" rx="2.5" ry="2.5" style="stroke:#181818;stroke-width:0.5;" width="71" x="593.34" y="887.7627"/><text fill="#000000" font-family="sans-serif" font-size="14" lengthAdjust="spacing" textLength="25" x="616.34" y="907.8701">Skill</text><line style="stroke:#181818;stroke-width:0.5;" x1="594.34" x2="663.34" y1="916.3838" y2="916.3838"/><text fill="#000000" font-family="sans-serif" font-size="14" lengthAdjust="spacing" textLength="59" x="599.34" y="935.4912">skillName</text></g><!--class Job--><g id="elem_Job"><rect codeLine="49" fill="#F1F1F1" height="55.2422" id="Job" rx="2.5" ry="2.5" style="stroke:#181818;stroke-width:0.5;" width="67" x="374.34" y="887.7627"/><text fill="#000000" font-family="sans-serif" font-size="14" lengthAdjust="spacing" textLength="22" x="396.84" y="907.8701">Job</text><line style="stroke:#181818;stroke-width:0.5;" x1="375.34" x2="440.34" y1="916.3838" y2="916.3838"/><text fill="#000000" font-family="sans-serif" font-size="14" lengthAdjust="spacing" textLength="55" x="380.34" y="935.4912">jobName</text></g><!--class Team--><g id="elem_Team"><rect codeLine="53" fill="#F1F1F1" height="36.6211" id="Team" rx="2.5" ry="2.5" style="stroke:#181818;stroke-width:0.5;" width="42" x="703.84" y="413.7627"/><text fill="#000000" font-family="sans-serif" font-size="14" lengthAdjust="spacing" textLength="36" x="706.84" y="433.8701">Team</text><line style="stroke:#181818;stroke-width:0.5;" x1="704.84" x2="744.84" y1="442.3838" y2="442.3838"/></g><!--class Vehicle--><g id="elem_Vehicle"><rect codeLine="56" fill="#F1F1F1" height="222.832" id="Vehicle" rx="2.5" ry="2.5" style="stroke:#181818;stroke-width:0.5;" width="109" x="148.34" y="320.7627"/><text fill="#000000" font-family="sans-serif" font-size="14" lengthAdjust="spacing" textLength="46" x="179.84" y="340.8701">Vehicle</text><line style="stroke:#181818;stroke-width:0.5;" x1="149.34" x2="256.34" y1="349.3838" y2="349.3838"/><text fill="#000000" font-family="sans-serif" font-size="14" lengthAdjust="spacing" textLength="37" x="154.34" y="368.4912">brand</text><text fill="#000000" font-family="sans-serif" font-size="14" lengthAdjust="spacing" textLength="38" x="154.34" y="387.1123">model</text><text fill="#000000" font-family="sans-serif" font-size="14" lengthAdjust="spacing" textLength="27" x="154.34" y="405.7334">type</text><text fill="#000000" font-family="sans-serif" font-size="14" lengthAdjust="spacing" textLength="25" x="154.34" y="424.3545">tare</text><text fill="#000000" font-family="sans-serif" font-size="14" lengthAdjust="spacing" textLength="79" x="154.34" y="442.9756">grossWeight</text><text fill="#000000" font-family="sans-serif" font-size="14" lengthAdjust="spacing" textLength="65" x="154.34" y="461.5967">currentKm</text><text fill="#000000" font-family="sans-serif" font-size="14" lengthAdjust="spacing" textLength="78" x="154.34" y="480.2178">registerDate</text><text fill="#000000" font-family="sans-serif" font-size="14" lengthAdjust="spacing" textLength="97" x="154.34" y="498.8389">acquisitionDate</text><text fill="#000000" font-family="sans-serif" font-size="14" lengthAdjust="spacing" textLength="81" x="154.34" y="517.46">maintenance</text><text fill="#000000" font-family="sans-serif" font-size="14" lengthAdjust="spacing" textLength="31" x="154.34" y="536.0811">plate</text></g><!--class VehicleCheckUp--><g id="elem_VehicleCheckUp"><rect codeLine="69" fill="#F1F1F1" height="92.4844" id="VehicleCheckUp" rx="2.5" ry="2.5" style="stroke:#181818;stroke-width:0.5;" width="109" x="225.34" y="669.7627"/><text fill="#000000" font-family="sans-serif" font-size="14" lengthAdjust="spacing" textLength="103" x="228.34" y="689.8701">VehicleCheckUp</text><line style="stroke:#181818;stroke-width:0.5;" x1="226.34" x2="333.34" y1="698.3838" y2="698.3838"/><text fill="#000000" font-family="sans-serif" font-size="14" lengthAdjust="spacing" textLength="30" x="231.34" y="717.4912">Date</text><text fill="#000000" font-family="sans-serif" font-size="14" lengthAdjust="spacing" textLength="35" x="231.34" y="736.1123">Place</text><text fill="#000000" font-family="sans-serif" font-size="14" lengthAdjust="spacing" textLength="27" x="231.34" y="754.7334">Kms</text></g><!--link Organization to HumanResourceManager--><g id="link_Organization_HumanResourceManager"><path codeLine="75" d="M201.34,130.1327 C231.17,91.4427 306.1,7.6927 381.84,28.7627 C422.45,40.0627 463.07,62.1327 496.92,84.2927 " fill="none" id="Organization-HumanResourceManager" style="stroke:#181818;stroke-width:1.0;"/><polygon fill="#000000" points="355.7809,15.6419,346.3923,14.1239,347.2931,19.9323,355.7809,15.6419" style="stroke:#000000;stroke-width:1.0;"/><text fill="#000000" font-family="sans-serif" font-size="13" lengthAdjust="spacing" textLength="21" x="359.84" y="21.791">has</text><text fill="#000000" font-family="sans-serif" font-size="13" lengthAdjust="spacing" textLength="7" x="197.4025" y="118.955">1</text><text fill="#000000" font-family="sans-serif" font-size="13" lengthAdjust="spacing" textLength="20" x="469.4358" y="75.5342">1..*</text></g><!--link Organization to Collaborator--><g id="link_Organization_Collaborator"><path codeLine="76" d="M204.86,167.4627 C223.55,186.5627 254.77,217.5027 283.84,241.7627 C329.76,280.1027 352.71,276.3827 392.84,320.7627 C475.34,412.0227 542.11,537.7827 581.81,622.4627 " fill="none" id="Organization-Collaborator" style="stroke:#181818;stroke-width:1.0;"/><polygon fill="#000000" points="549.0298,436.2585,545.5225,427.4183,540.9962,431.1682,549.0298,436.2585" style="stroke:#000000;stroke-width:1.0;"/><text fill="#000000" font-family="sans-serif" font-size="13" lengthAdjust="spacing" textLength="21" x="554.84" y="437.791">has</text><text fill="#000000" font-family="sans-serif" font-size="13" lengthAdjust="spacing" textLength="7" x="201.4935" y="188.891">1</text><text fill="#000000" font-family="sans-serif" font-size="13" lengthAdjust="spacing" textLength="20" x="557.8232" y="611.4068">1..*</text></g><!--link Organization to FleetManager--><g id="link_Organization_FleetManager"><path codeLine="77" d="M230.92,148.7627 C252.47,148.7627 278.68,148.7627 301.18,148.7627 " fill="none" id="Organization-FleetManager" style="stroke:#181818;stroke-width:1.0;"/><polygon fill="#000000" points="258.09,136.4082,249.0449,133.4693,249.0449,139.3471,258.09,136.4082" style="stroke:#000000;stroke-width:1.0;"/><text fill="#000000" font-family="sans-serif" font-size="13" lengthAdjust="spacing" textLength="21" x="262.09" y="141.791">has</text><text fill="#000000" font-family="sans-serif" font-size="13" lengthAdjust="spacing" textLength="7" x="238.9259" y="144.3876">1</text><text fill="#000000" font-family="sans-serif" font-size="13" lengthAdjust="spacing" textLength="20" x="273.4079" y="163.925">1..*</text></g><!--link Organization to Skill--><g id="link_Organization_Skill"><path codeLine="78" d="M179.69,167.7427 C166.3,198.3827 140.21,263.0027 130.84,320.7627 C95.66,537.5027 49.71,656.4227 207.84,808.7627 C236.09,835.9827 496.97,888.7327 593.31,907.4627 " fill="none" id="Organization-Skill" style="stroke:#181818;stroke-width:1.0;"/><polygon fill="#000000" points="105.2802,587.7723,103.431,578.4433,98.3007,581.3119,105.2802,587.7723" style="stroke:#000000;stroke-width:1.0;"/><text fill="#000000" font-family="sans-serif" font-size="13" lengthAdjust="spacing" textLength="30" x="111.84" y="588.791">owns</text><text fill="#000000" font-family="sans-serif" font-size="13" lengthAdjust="spacing" textLength="7" x="169.7047" y="188.8986">1</text><text fill="#000000" font-family="sans-serif" font-size="13" lengthAdjust="spacing" textLength="20" x="565.2" y="901.5919">1..*</text></g><!--link Organization to Job--><g id="link_Organization_Job"><path codeLine="79" d="M162.77,167.4427 C134.76,188.7127 90.5,227.1827 68.84,271.7627 C6,401.0727 6.4,450.7527 28.84,592.7627 C44.58,692.4427 28.04,736.8527 98.84,808.7627 C175.19,886.3227 310.83,906.8827 373.87,912.3227 " fill="none" id="Organization-Job" style="stroke:#181818;stroke-width:1.0;"/><polygon fill="#000000" points="35.2033,588.2188,35.5646,578.7151,29.9095,580.3177,35.2033,588.2188" style="stroke:#000000;stroke-width:1.0;"/><text fill="#000000" font-family="sans-serif" font-size="13" lengthAdjust="spacing" textLength="30" x="42.84" y="588.791">owns</text><text fill="#000000" font-family="sans-serif" font-size="13" lengthAdjust="spacing" textLength="7" x="148.0918" y="188.8657">1</text><text fill="#000000" font-family="sans-serif" font-size="13" lengthAdjust="spacing" textLength="20" x="346.3127" y="907.389">1..*</text></g><!--link Organization to Vehicle--><g id="link_Organization_Vehicle"><path codeLine="80" d="M184.2,167.4427 C179.55,191.0827 171.73,234.3627 168.84,271.7627 C167.6,287.7127 168.57,304.3927 170.82,320.7027 " fill="none" id="Organization-Vehicle" style="stroke:#181818;stroke-width:1.0;"/><polygon fill="#000000" points="173.4051,286.3893,177.1196,277.634,171.264,277.1228,173.4051,286.3893" style="stroke:#000000;stroke-width:1.0;"/><text fill="#000000" font-family="sans-serif" font-size="13" lengthAdjust="spacing" textLength="30" x="182.84" y="286.791">owns</text><text fill="#000000" font-family="sans-serif" font-size="13" lengthAdjust="spacing" textLength="7" x="184.1624" y="188.8657">1</text><text fill="#000000" font-family="sans-serif" font-size="13" lengthAdjust="spacing" textLength="20" x="147.9968" y="309.6799">1..*</text></g><!--link HumanResourceManager to Skill--><g id="link_HumanResourceManager_Skill"><path codeLine="81" d="M664.38,200.1027 C703.96,229.5027 746.34,270.6827 763.84,320.7627 C842.87,546.9727 845.8,656.4527 715.84,857.7627 C703.72,876.5227 682.93,890.3627 664.71,899.6527 " fill="none" id="HumanResourceManager-Skill" style="stroke:#181818;stroke-width:1.0;"/><polygon fill="#000000" points="823.8424,588.4082,826.777,579.3617,820.8992,579.3645,823.8424,588.4082" style="stroke:#000000;stroke-width:1.0;"/><text fill="#000000" font-family="sans-serif" font-size="13" lengthAdjust="spacing" textLength="32" x="832.84" y="588.791">regist</text><text fill="#000000" font-family="sans-serif" font-size="13" lengthAdjust="spacing" textLength="7" x="672.404" y="201.1126">1</text><text fill="#000000" font-family="sans-serif" font-size="13" lengthAdjust="spacing" textLength="20" x="672.3072" y="892.6918">1..*</text></g><!--link HumanResourceManager to Job--><g id="link_HumanResourceManager_Job"><path codeLine="82" d="M497.29,238.7227 C478.47,263.5527 460.83,291.7327 449.84,320.7627 C371.7,526.9927 394.68,802.0327 404.46,887.6727 " fill="none" id="HumanResourceManager-Job" style="stroke:#181818;stroke-width:1.0;"/><polygon fill="#000000" points="402.132,588.3578,406.3221,579.82,400.5035,578.9877,402.132,588.3578" style="stroke:#000000;stroke-width:1.0;"/><text fill="#000000" font-family="sans-serif" font-size="13" lengthAdjust="spacing" textLength="32" x="411.84" y="588.791">regist</text><text fill="#000000" font-family="sans-serif" font-size="13" lengthAdjust="spacing" textLength="7" x="482.2651" y="243.2929">1</text><text fill="#000000" font-family="sans-serif" font-size="13" lengthAdjust="spacing" textLength="20" x="381.3659" y="876.3608">1..*</text></g><!--link HumanResourceManager to Collaborator--><g id="link_HumanResourceManager_Collaborator"><path codeLine="83" d="M587.51,241.7927 C595.13,346.7027 607.5,517.2127 615.13,622.3027 " fill="none" id="HumanResourceManager-Collaborator" style="stroke:#181818;stroke-width:1.0;"/><polygon fill="#000000" points="614.202,437.3951,616.4784,428.161,610.6159,428.5865,614.202,437.3951" style="stroke:#000000;stroke-width:1.0;"/><text fill="#000000" font-family="sans-serif" font-size="13" lengthAdjust="spacing" textLength="32" x="622.84" y="437.791">regist</text><text fill="#000000" font-family="sans-serif" font-size="13" lengthAdjust="spacing" textLength="7" x="580.7428" y="263.3029">1</text><text fill="#000000" font-family="sans-serif" font-size="13" lengthAdjust="spacing" textLength="20" x="593.8506" y="611.5515">1..*</text></g><!--link HumanResourceManager to Team--><g id="link_HumanResourceManager_Team"><path codeLine="84" d="M634.89,242.0327 C649.07,267.2827 663.97,294.8427 676.84,320.7627 C692.74,352.8027 708.81,391.3427 717.73,413.4027 " fill="none" id="HumanResourceManager-Team" style="stroke:#181818;stroke-width:1.0;"/><polygon fill="#000000" points="666.0161,285.9098,664.7255,276.4872,659.4335,279.0454,666.0161,285.9098" style="stroke:#000000;stroke-width:1.0;"/><text fill="#000000" font-family="sans-serif" font-size="13" lengthAdjust="spacing" textLength="43" x="672.84" y="286.791">creates</text><text fill="#000000" font-family="sans-serif" font-size="13" lengthAdjust="spacing" textLength="7" x="631.4443" y="263.2414">1</text><text fill="#000000" font-family="sans-serif" font-size="13" lengthAdjust="spacing" textLength="20" x="692.7039" y="402.4924">1..*</text></g><!--link Collaborator to Job--><g id="link_Collaborator_Job"><path codeLine="85" d="M571.12,763.5627 C529.22,802.2327 471.22,855.7627 436.81,887.5227 " fill="none" id="Collaborator-Job" style="stroke:#181818;stroke-width:1.0;"/><polygon fill="#000000" points="497.5143,845.0171,488.8742,848.992,492.8607,853.3114,497.5143,845.0171" style="stroke:#000000;stroke-width:1.0;"/><text fill="#000000" font-family="sans-serif" font-size="13" lengthAdjust="spacing" textLength="67" x="502.84" y="853.791">assigned to</text><text fill="#000000" font-family="sans-serif" font-size="13" lengthAdjust="spacing" textLength="20" x="543.3403" y="765.6712">1..*</text><text fill="#000000" font-family="sans-serif" font-size="13" lengthAdjust="spacing" textLength="7" x="435.3816" y="876.6289">1</text></g><!--link Collaborator to Skill--><g id="link_Collaborator_Skill"><path codeLine="86" d="M625.1,808.8627 C626.12,837.6227 627.17,867.1427 627.89,887.5927 " fill="none" id="Collaborator-Skill" style="stroke:#181818;stroke-width:1.0;"/><polygon fill="#000000" points="630.6629,843.4113,628.0462,852.5548,633.9203,852.3467,630.6629,843.4113" style="stroke:#000000;stroke-width:1.0;"/><text fill="#000000" font-family="sans-serif" font-size="13" lengthAdjust="spacing" textLength="67" x="639.84" y="853.791">assigned to</text><text fill="#000000" font-family="sans-serif" font-size="13" lengthAdjust="spacing" textLength="5" x="620.1558" y="830.378">*</text><text fill="#000000" font-family="sans-serif" font-size="13" lengthAdjust="spacing" textLength="5" x="622.1353" y="876.7142">*</text></g><!--link Team to Collaborator--><g id="link_Team_Collaborator"><path codeLine="87" d="M718.39,450.8727 C706.02,484.6927 678.14,560.8827 655.51,622.7427 " fill="none" id="Team-Collaborator" style="stroke:#181818;stroke-width:1.0;"/><polygon fill="#000000" points="676.1221,588.1038,681.9898,580.6191,676.4698,578.5996,676.1221,588.1038" style="stroke:#000000;stroke-width:1.0;"/><text fill="#000000" font-family="sans-serif" font-size="13" lengthAdjust="spacing" textLength="21" x="686.84" y="588.791">has</text><text fill="#000000" font-family="sans-serif" font-size="13" lengthAdjust="spacing" textLength="7" x="708.7159" y="472.2768">1</text><text fill="#000000" font-family="sans-serif" font-size="13" lengthAdjust="spacing" textLength="20" x="637.4702" y="611.3929">1..*</text></g><!--link FleetManager to Vehicle--><g id="link_FleetManager_Vehicle"><path codeLine="88" d="M303.05,241.9327 C288.45,269.5127 272.35,299.9327 257.41,328.1627 " fill="none" id="FleetManager-Vehicle" style="stroke:#181818;stroke-width:1.0;"/><polygon fill="#000000" points="288.501,285.8274,295.3298,279.2078,290.1348,276.4582,288.501,285.8274" style="stroke:#000000;stroke-width:1.0;"/><text fill="#000000" font-family="sans-serif" font-size="13" lengthAdjust="spacing" textLength="32" x="299.84" y="286.791">regist</text><text fill="#000000" font-family="sans-serif" font-size="13" lengthAdjust="spacing" textLength="7" x="292.21" y="263.4532">1</text><text fill="#000000" font-family="sans-serif" font-size="13" lengthAdjust="spacing" textLength="20" x="265.2795" y="311.4959">1..*</text></g><!--link FleetManager to VehicleCheckUp--><g id="link_FleetManager_VehicleCheckUp"><path codeLine="89" d="M345.47,241.8127 C338.51,331.7127 325.62,472.2027 305.84,592.7627 C301.64,618.3027 295.7,646.5827 290.55,669.4727 " fill="none" id="FleetManager-VehicleCheckUp" style="stroke:#181818;stroke-width:1.0;"/><polygon fill="#000000" points="342.2031,437.3675,346.2702,428.7704,340.4402,428.0217,342.2031,437.3675" style="stroke:#000000;stroke-width:1.0;"/><text fill="#000000" font-family="sans-serif" font-size="13" lengthAdjust="spacing" textLength="32" x="351.84" y="437.791">regist</text><text fill="#000000" font-family="sans-serif" font-size="13" lengthAdjust="spacing" textLength="7" x="337.7452" y="263.3243">1</text><text fill="#000000" font-family="sans-serif" font-size="13" lengthAdjust="spacing" textLength="20" x="270.6543" y="658.4395">1..*</text></g><!--link Vehicle to VehicleCheckUp--><g id="link_Vehicle_VehicleCheckUp"><path codeLine="90" d="M209.56,544.0627 C212.02,560.5727 215.35,577.2427 219.84,592.7627 C227.54,619.4027 240.82,647.2927 252.92,669.6627 " fill="none" id="Vehicle-VehicleCheckUp" style="stroke:#181818;stroke-width:1.0;"/><polygon fill="#000000" points="223.2084,578.6819,223.382,588.1909,228.9381,586.2728,223.2084,578.6819" style="stroke:#000000;stroke-width:1.0;"/><text fill="#000000" font-family="sans-serif" font-size="13" lengthAdjust="spacing" textLength="67" x="233.84" y="588.791">assigned to</text><text fill="#000000" font-family="sans-serif" font-size="13" lengthAdjust="spacing" textLength="7" x="202.7562" y="565.4358">1</text><text fill="#000000" font-family="sans-serif" font-size="13" lengthAdjust="spacing" textLength="5" x="243.5989" y="658.6574">*</text></g><!--SRC=[nLDDZzGm3BttLqHpH685rn52GeCGi69131zdDp5jcCGfJghLBkA_awPfDrcDPdOlq4Dbr-_5p_MBFsWQWC4AwyZ9dfr54NZ4ng-L0UG1Ejo76uE2KGQWpfG0tuDorvewyGECBolIWFUlGc3TZW7VIKTxVOlYMTDhXK9gbl6W55iClLE-QPh44H-v0zAt4BGZyRlvitn_ErgWp-ZTo18_04LX7EiYFWGMKz0wfjSGvWIKBMB5w7sAXzuHNessHKuvMj0cHLhjW5KECsBjltF6G6m0mVtJlcyCOlWFy-uFsfZSq4_nrTHrBRztRIx-T6rT-eBH0CNclc6luxepl6MWkQTr2cSXuMQOTGVWEUZOUVyTTTU7bCkH6IbSsfGnTje7vBjvvQzHUprvPlqMnwI012JdV31JvRwgNO_oy7N8ubRo9mEPTcdzHAfikNc-4K_Z- -BYoUQeCRUY1ozUdc2LTZgFBarm7frMjnNkcaxZuWuVWCe_QaKUlOY9KGiGsxodXt4cGpsEKTt8nr6JHRT2CiQ5JqDLPsLGWY_2ecLqHwX4SEB5FNZ65eFNwDJjfFPvezLLh_7B7Ih6F8zUl5sGbdCM_35mBVul]--></g></svg>