<?xml version="1.0" encoding="us-ascii" standalone="no"?><svg xmlns="http://www.w3.org/2000/svg" xmlns:xlink="http://www.w3.org/1999/xlink" contentStyleType="text/css" height="963px" preserveAspectRatio="none" style="width:1226px;height:963px;background:#FFFFFF;" version="1.1" viewBox="0 0 1226 963" width="1226px" zoomAndPan="magnify"><defs/><g><!--class Collaborator--><g id="elem_Collaborator"><rect codeLine="9" fill="#F1F1F1" height="166.9688" id="Collaborator" rx="2.5" ry="2.5" style="stroke:#181818;stroke-width:0.5;" width="101" x="473.37" y="294"/><text fill="#000000" font-family="sans-serif" font-size="14" lengthAdjust="spacing" textLength="78" x="484.87" y="314.1074">Collaborator</text><line style="stroke:#181818;stroke-width:0.5;" x1="474.37" x2="573.37" y1="322.6211" y2="322.6211"/><text fill="#000000" font-family="sans-serif" font-size="14" lengthAdjust="spacing" textLength="35" x="479.37" y="341.7285">name</text><text fill="#000000" font-family="sans-serif" font-size="14" lengthAdjust="spacing" textLength="59" x="479.37" y="360.3496">bornDate</text><text fill="#000000" font-family="sans-serif" font-size="14" lengthAdjust="spacing" textLength="57" x="479.37" y="378.9707">admDate</text><text fill="#000000" font-family="sans-serif" font-size="14" lengthAdjust="spacing" textLength="89" x="479.37" y="397.5918">phoneNumber</text><text fill="#000000" font-family="sans-serif" font-size="14" lengthAdjust="spacing" textLength="33" x="479.37" y="416.2129">email</text><text fill="#000000" font-family="sans-serif" font-size="14" lengthAdjust="spacing" textLength="42" x="479.37" y="434.834">idCard</text><text fill="#000000" font-family="sans-serif" font-size="14" lengthAdjust="spacing" textLength="60" x="479.37" y="453.4551">idNumber</text></g><!--class Address--><g id="elem_Address"><rect codeLine="19" fill="#F1F1F1" height="55.2422" id="Address" rx="2.5" ry="2.5" style="stroke:#181818;stroke-width:0.5;" width="90" x="703.87" y="558.5"/><text fill="#000000" font-family="sans-serif" font-size="14" lengthAdjust="spacing" textLength="52" x="722.87" y="578.6074">Address</text><line style="stroke:#181818;stroke-width:0.5;" x1="704.87" x2="792.87" y1="587.1211" y2="587.1211"/><text fill="#000000" font-family="sans-serif" font-size="14" lengthAdjust="spacing" textLength="78" x="709.87" y="606.2285">doorNumber</text></g><!--class zipCode--><g id="elem_zipCode"><rect codeLine="23" fill="#F1F1F1" height="73.8633" id="zipCode" rx="2.5" ry="2.5" style="stroke:#181818;stroke-width:0.5;" width="57" x="720.37" y="711"/><text fill="#000000" font-family="sans-serif" font-size="14" lengthAdjust="spacing" textLength="51" x="723.37" y="731.1074">zipCode</text><line style="stroke:#181818;stroke-width:0.5;" x1="721.37" x2="776.37" y1="739.6211" y2="739.6211"/><text fill="#000000" font-family="sans-serif" font-size="14" lengthAdjust="spacing" textLength="29" x="726.37" y="758.7285">local</text><text fill="#000000" font-family="sans-serif" font-size="14" lengthAdjust="spacing" textLength="36" x="726.37" y="777.3496">street</text></g><!--class HumanResourceManager--><g id="elem_HumanResourceManager"><rect codeLine="28" fill="#F1F1F1" height="36.6211" id="HumanResourceManager" rx="2.5" ry="2.5" style="stroke:#181818;stroke-width:0.5;" width="167" x="260.37" y="7"/><text fill="#000000" font-family="sans-serif" font-size="14" lengthAdjust="spacing" textLength="161" x="263.37" y="27.1074">HumanResourceManager</text><line style="stroke:#181818;stroke-width:0.5;" x1="261.37" x2="426.37" y1="35.6211" y2="35.6211"/></g><!--class VehicleFleetManager--><g id="elem_VehicleFleetManager"><rect codeLine="30" fill="#F1F1F1" height="36.6211" id="VehicleFleetManager" rx="2.5" ry="2.5" style="stroke:#181818;stroke-width:0.5;" width="140" x="871.87" y="7"/><text fill="#000000" font-family="sans-serif" font-size="14" lengthAdjust="spacing" textLength="134" x="874.87" y="27.1074">VehicleFleetManager</text><line style="stroke:#181818;stroke-width:0.5;" x1="872.87" x2="1010.87" y1="35.6211" y2="35.6211"/></g><!--class SoftwareQualityTeamManager--><g id="elem_SoftwareQualityTeamManager"><rect codeLine="32" fill="#F1F1F1" height="36.6211" id="SoftwareQualityTeamManager" rx="2.5" ry="2.5" style="stroke:#181818;stroke-width:0.5;" width="197" x="462.37" y="7"/><text fill="#000000" font-family="sans-serif" font-size="14" lengthAdjust="spacing" textLength="191" x="465.37" y="27.1074">SoftwareQualityTeamManager</text><line style="stroke:#181818;stroke-width:0.5;" x1="463.37" x2="658.37" y1="35.6211" y2="35.6211"/></g><!--class GreenSpaceManager--><g id="elem_GreenSpaceManager"><rect codeLine="34" fill="#F1F1F1" height="36.6211" id="GreenSpaceManager" rx="2.5" ry="2.5" style="stroke:#181818;stroke-width:0.5;" width="142" x="694.87" y="7"/><text fill="#000000" font-family="sans-serif" font-size="14" lengthAdjust="spacing" textLength="136" x="697.87" y="27.1074">GreenSpaceManager</text><line style="stroke:#181818;stroke-width:0.5;" x1="695.87" x2="835.87" y1="35.6211" y2="35.6211"/></g><!--class GreenSpaceUser--><g id="elem_GreenSpaceUser"><rect codeLine="36" fill="#F1F1F1" height="36.6211" id="GreenSpaceUser" rx="2.5" ry="2.5" style="stroke:#181818;stroke-width:0.5;" width="115" x="154.37" y="729.5"/><text fill="#000000" font-family="sans-serif" font-size="14" lengthAdjust="spacing" textLength="109" x="157.37" y="749.6074">GreenSpaceUser</text><line style="stroke:#181818;stroke-width:0.5;" x1="155.37" x2="268.37" y1="758.1211" y2="758.1211"/></g><!--class Skill--><g id="elem_Skill"><rect codeLine="38" fill="#F1F1F1" height="55.2422" id="Skill" rx="2.5" ry="2.5" style="stroke:#181818;stroke-width:0.5;" width="71" x="215.37" y="558.5"/><text fill="#000000" font-family="sans-serif" font-size="14" lengthAdjust="spacing" textLength="25" x="238.37" y="578.6074">Skill</text><line style="stroke:#181818;stroke-width:0.5;" x1="216.37" x2="285.37" y1="587.1211" y2="587.1211"/><text fill="#000000" font-family="sans-serif" font-size="14" lengthAdjust="spacing" textLength="59" x="221.37" y="606.2285">skillName</text></g><!--class Job--><g id="elem_Job"><rect codeLine="42" fill="#F1F1F1" height="55.2422" id="Job" rx="2.5" ry="2.5" style="stroke:#181818;stroke-width:0.5;" width="67" x="386.37" y="558.5"/><text fill="#000000" font-family="sans-serif" font-size="14" lengthAdjust="spacing" textLength="22" x="408.87" y="578.6074">Job</text><line style="stroke:#181818;stroke-width:0.5;" x1="387.37" x2="452.37" y1="587.1211" y2="587.1211"/><text fill="#000000" font-family="sans-serif" font-size="14" lengthAdjust="spacing" textLength="55" x="392.37" y="606.2285">jobName</text></g><!--class Task--><g id="elem_Task"><rect codeLine="46" fill="#F1F1F1" height="55.2422" id="Task" rx="2.5" ry="2.5" style="stroke:#181818;stroke-width:0.5;" width="74" x="44.87" y="720.5"/><text fill="#000000" font-family="sans-serif" font-size="14" lengthAdjust="spacing" textLength="31" x="66.37" y="740.6074">Task</text><line style="stroke:#181818;stroke-width:0.5;" x1="45.87" x2="117.87" y1="749.1211" y2="749.1211"/><text fill="#000000" font-family="sans-serif" font-size="14" lengthAdjust="spacing" textLength="62" x="50.87" y="768.2285">taskName</text></g><!--class Team--><g id="elem_Team"><rect codeLine="50" fill="#F1F1F1" height="36.6211" id="Team" rx="2.5" ry="2.5" style="stroke:#181818;stroke-width:0.5;" width="42" x="100.87" y="150.5"/><text fill="#000000" font-family="sans-serif" font-size="14" lengthAdjust="spacing" textLength="36" x="103.87" y="170.6074">Team</text><line style="stroke:#181818;stroke-width:0.5;" x1="101.87" x2="141.87" y1="179.1211" y2="179.1211"/></g><!--class Vehicle--><g id="elem_Vehicle"><rect codeLine="52" fill="#F1F1F1" height="92.4844" id="Vehicle" rx="2.5" ry="2.5" style="stroke:#181818;stroke-width:0.5;" width="109" x="997.37" y="123"/><text fill="#000000" font-family="sans-serif" font-size="14" lengthAdjust="spacing" textLength="46" x="1028.87" y="143.1074">Vehicle</text><line style="stroke:#181818;stroke-width:0.5;" x1="998.37" x2="1105.37" y1="151.6211" y2="151.6211"/><text fill="#000000" font-family="sans-serif" font-size="14" lengthAdjust="spacing" textLength="65" x="1003.37" y="170.7285">currentKm</text><text fill="#000000" font-family="sans-serif" font-size="14" lengthAdjust="spacing" textLength="97" x="1003.37" y="189.3496">acquisitionDate</text><text fill="#000000" font-family="sans-serif" font-size="14" lengthAdjust="spacing" textLength="81" x="1003.37" y="207.9707">maintenance</text></g><!--class PlateCertification--><g id="elem_PlateCertification"><rect codeLine="58" fill="#F1F1F1" height="166.9688" id="PlateCertification" rx="2.5" ry="2.5" style="stroke:#181818;stroke-width:0.5;" width="113" x="995.37" y="294"/><text fill="#000000" font-family="sans-serif" font-size="14" lengthAdjust="spacing" textLength="107" x="998.37" y="314.1074">PlateCertification</text><line style="stroke:#181818;stroke-width:0.5;" x1="996.37" x2="1107.37" y1="322.6211" y2="322.6211"/><text fill="#000000" font-family="sans-serif" font-size="14" lengthAdjust="spacing" textLength="37" x="1001.37" y="341.7285">brand</text><text fill="#000000" font-family="sans-serif" font-size="14" lengthAdjust="spacing" textLength="38" x="1001.37" y="360.3496">model</text><text fill="#000000" font-family="sans-serif" font-size="14" lengthAdjust="spacing" textLength="27" x="1001.37" y="378.9707">type</text><text fill="#000000" font-family="sans-serif" font-size="14" lengthAdjust="spacing" textLength="25" x="1001.37" y="397.5918">tare</text><text fill="#000000" font-family="sans-serif" font-size="14" lengthAdjust="spacing" textLength="79" x="1001.37" y="416.2129">grossWeight</text><text fill="#000000" font-family="sans-serif" font-size="14" lengthAdjust="spacing" textLength="78" x="1001.37" y="434.834">registerDate</text><text fill="#000000" font-family="sans-serif" font-size="14" lengthAdjust="spacing" textLength="31" x="1001.37" y="453.4551">plate</text></g><!--class VehicleCheckUp--><g id="elem_VehicleCheckUp"><rect codeLine="68" fill="#F1F1F1" height="92.4844" id="VehicleCheckUp" rx="2.5" ry="2.5" style="stroke:#181818;stroke-width:0.5;" width="109" x="1005.37" y="540"/><text fill="#000000" font-family="sans-serif" font-size="14" lengthAdjust="spacing" textLength="103" x="1008.37" y="560.1074">VehicleCheckUp</text><line style="stroke:#181818;stroke-width:0.5;" x1="1006.37" x2="1113.37" y1="568.6211" y2="568.6211"/><text fill="#000000" font-family="sans-serif" font-size="14" lengthAdjust="spacing" textLength="28" x="1011.37" y="587.7285">date</text><text fill="#000000" font-family="sans-serif" font-size="14" lengthAdjust="spacing" textLength="34" x="1011.37" y="606.3496">place</text><text fill="#000000" font-family="sans-serif" font-size="14" lengthAdjust="spacing" textLength="25" x="1011.37" y="624.9707">kms</text></g><!--class TypeGarden--><g id="elem_TypeGarden"><rect codeLine="74" fill="#F1F1F1" height="92.4844" id="TypeGarden" rx="2.5" ry="2.5" style="stroke:#181818;stroke-width:0.5;" width="143" x="75.37" y="864"/><text fill="#000000" font-family="sans-serif" font-size="14" lengthAdjust="spacing" textLength="80" x="106.87" y="884.1074">TypeGarden</text><line style="stroke:#181818;stroke-width:0.5;" x1="76.37" x2="217.37" y1="892.6211" y2="892.6211"/><text fill="#000000" font-family="sans-serif" font-size="14" lengthAdjust="spacing" textLength="45" x="81.37" y="911.7285">garden</text><text fill="#000000" font-family="sans-serif" font-size="14" lengthAdjust="spacing" textLength="131" x="81.37" y="930.3496">mediumSizedGarden</text><text fill="#000000" font-family="sans-serif" font-size="14" lengthAdjust="spacing" textLength="114" x="81.37" y="948.9707">largeSizedGarden</text></g><!--class Agenda--><g id="elem_Agenda"><rect codeLine="80" fill="#F1F1F1" height="36.6211" id="Agenda" rx="2.5" ry="2.5" style="stroke:#181818;stroke-width:0.5;" width="55" x="94.37" y="359"/><text fill="#000000" font-family="sans-serif" font-size="14" lengthAdjust="spacing" textLength="49" x="97.37" y="379.1074">Agenda</text><line style="stroke:#181818;stroke-width:0.5;" x1="95.37" x2="148.37" y1="387.6211" y2="387.6211"/></g><!--link HumanResourceManager to Skill--><g id="link_HumanResourceManager_Skill"><path codeLine="82" d="M326.82,44.15 C294.47,79.05 225.12,160.8 199.87,245 C165.83,358.49 215.24,500.4 239.15,558.42 " fill="none" id="HumanResourceManager-Skill" style="stroke:#181818;stroke-width:1.0;"/><polygon fill="#000000" points="204.0297,259.5744,208.4469,251.1518,202.6526,250.1641,204.0297,259.5744" style="stroke:#000000;stroke-width:1.0;"/><text fill="#000000" font-family="sans-serif" font-size="13" lengthAdjust="spacing" textLength="32" x="213.87" y="260.0283">regist</text><text fill="#000000" font-family="sans-serif" font-size="13" lengthAdjust="spacing" textLength="7" x="314.2972" y="65.5649">1</text><text fill="#000000" font-family="sans-serif" font-size="13" lengthAdjust="spacing" textLength="20" x="214.1273" y="547.1105">1..*</text></g><!--link HumanResourceManager to Job--><g id="link_HumanResourceManager_Job"><path codeLine="83" d="M346.27,44.14 C357.28,125.07 403.01,461.12 416.25,558.47 " fill="none" id="HumanResourceManager-Job" style="stroke:#181818;stroke-width:1.0;"/><polygon fill="#000000" points="381.5441,259.5999,383.2367,250.2411,377.4126,251.0336,381.5441,259.5999" style="stroke:#000000;stroke-width:1.0;"/><text fill="#000000" font-family="sans-serif" font-size="13" lengthAdjust="spacing" textLength="32" x="389.87" y="260.0283">regist</text><text fill="#000000" font-family="sans-serif" font-size="13" lengthAdjust="spacing" textLength="7" x="338.9744" y="65.5522">1</text><text fill="#000000" font-family="sans-serif" font-size="13" lengthAdjust="spacing" textLength="20" x="393.1004" y="547.172">1..*</text></g><!--link HumanResourceManager to Collaborator--><g id="link_HumanResourceManager_Collaborator"><path codeLine="84" d="M419.06,44.01 C435.18,50.95 450.69,60.6 461.87,74 C512.94,135.24 525.59,227.44 527.23,293.95 " fill="none" id="HumanResourceManager-Collaborator" style="stroke:#181818;stroke-width:1.0;"/><polygon fill="#000000" points="526.8559,173.7342,525.9605,164.2659,520.5662,166.6005,526.8559,173.7342" style="stroke:#000000;stroke-width:1.0;"/><text fill="#000000" font-family="sans-serif" font-size="13" lengthAdjust="spacing" textLength="32" x="533.87" y="174.5283">regist</text><text fill="#000000" font-family="sans-serif" font-size="13" lengthAdjust="spacing" textLength="7" x="432.2228" y="65.7291">1</text><text fill="#000000" font-family="sans-serif" font-size="13" lengthAdjust="spacing" textLength="20" x="506.6386" y="282.7945">1..*</text></g><!--link HumanResourceManager to Collaborator--><g id="link_HumanResourceManager_Collaborator"><path codeLine="88" d="M364.34,44.04 C373.3,52.45 383.43,63.06 390.87,74 C437.56,142.67 467.8605,213.4685 490.6905,276.7385 " fill="none" id="HumanResourceManager-to-Collaborator" style="stroke:#181818;stroke-width:1.0;"/><polygon fill="none" points="496.8,293.67,496.3344,274.702,485.0467,278.775,496.8,293.67" style="stroke:#181818;stroke-width:1.0;"/></g><!--link HumanResourceManager to Team--><g id="link_HumanResourceManager_Team"><path codeLine="85" d="M260.07,33.31 C203.76,39.82 136.69,52.02 118.87,74 C101.49,95.43 108.36,129.53 115.04,150.24 " fill="none" id="HumanResourceManager-Team" style="stroke:#181818;stroke-width:1.0;"/><polygon fill="#000000" points="119.9775,86.7838,128.8637,83.3945,125.1744,78.8187,119.9775,86.7838" style="stroke:#000000;stroke-width:1.0;"/><text fill="#000000" font-family="sans-serif" font-size="13" lengthAdjust="spacing" textLength="43" x="132.87" y="89.0283">creates</text><text fill="#000000" font-family="sans-serif" font-size="13" lengthAdjust="spacing" textLength="7" x="245.2948" y="30.3067">1</text><text fill="#000000" font-family="sans-serif" font-size="13" lengthAdjust="spacing" textLength="20" x="90.0962" y="139.3591">1..*</text></g><!--link VehicleFleetManager to Collaborator--><g id="link_VehicleFleetManager_Collaborator"><path codeLine="87" d="M889.4,44.05 C870.13,51.73 848.68,61.8 830.87,74 C758.51,123.53 755.24,153.37 692.87,215 C653.61,253.79 621.4411,284.5853 587.6611,316.5153 " fill="none" id="VehicleFleetManager-to-Collaborator" style="stroke:#181818;stroke-width:1.0;"/><polygon fill="none" points="574.58,328.88,591.7826,320.8757,583.5395,312.155,574.58,328.88" style="stroke:#181818;stroke-width:1.0;"/></g><!--link SoftwareQualityTeamManager to Collaborator--><g id="link_SoftwareQualityTeamManager_Collaborator"><path codeLine="89" d="M565.17,44.15 C569.63,63.39 576.29,95.17 578.87,123 C582.63,163.72 585.55,174.66 578.87,215 C574.53,241.15 572.4029,251.752 563.7929,276.602 " fill="none" id="SoftwareQualityTeamManager-to-Collaborator" style="stroke:#181818;stroke-width:1.0;"/><polygon fill="none" points="557.9,293.61,569.4623,278.5663,558.1236,274.6377,557.9,293.61" style="stroke:#181818;stroke-width:1.0;"/></g><!--link GreenSpaceManager to Collaborator--><g id="link_GreenSpaceManager_Collaborator"><path codeLine="90" d="M753.53,44.34 C721.02,91.35 641.8172,205.9146 584.6272,288.6246 " fill="none" id="GreenSpaceManager-to-Collaborator" style="stroke:#181818;stroke-width:1.0;"/><polygon fill="none" points="574.39,303.43,589.5623,292.037,579.6921,285.2122,574.39,303.43" style="stroke:#181818;stroke-width:1.0;"/></g><!--link Collaborator to Job--><g id="link_Collaborator_Job"><path codeLine="92" d="M482.31,461 C464.89,495.61 445.83,533.45 433.41,558.11 " fill="none" id="Collaborator-Job" style="stroke:#181818;stroke-width:1.0;"/><polygon fill="#000000" points="473.1188,496.1797,466.4258,502.9366,471.6756,505.5802,473.1188,496.1797" style="stroke:#000000;stroke-width:1.0;"/><text fill="#000000" font-family="sans-serif" font-size="13" lengthAdjust="spacing" textLength="67" x="479.87" y="506.0283">assigned to</text><text fill="#000000" font-family="sans-serif" font-size="13" lengthAdjust="spacing" textLength="20" x="457.8791" y="482.9484">1..*</text><text fill="#000000" font-family="sans-serif" font-size="13" lengthAdjust="spacing" textLength="7" x="428.6063" y="547.1833">1</text></g><!--link Collaborator to Skill--><g id="link_Collaborator_Skill"><path codeLine="93" d="M473.23,414.76 C443.01,436.58 404.01,465.06 369.87,491 C340.52,513.3 307.68,539.32 283.95,558.33 " fill="none" id="Collaborator-Skill" style="stroke:#181818;stroke-width:1.0;"/><polygon fill="#000000" points="378.8537,497.6239,369.8711,500.7485,373.4232,505.4316,378.8537,497.6239" style="stroke:#000000;stroke-width:1.0;"/><text fill="#000000" font-family="sans-serif" font-size="13" lengthAdjust="spacing" textLength="67" x="383.87" y="506.0283">assigned to</text><text fill="#000000" font-family="sans-serif" font-size="13" lengthAdjust="spacing" textLength="5" x="460.4251" y="416.0361">*</text><text fill="#000000" font-family="sans-serif" font-size="13" lengthAdjust="spacing" textLength="5" x="285.6394" y="547.4515">*</text></g><!--link Collaborator to Address--><g id="link_Collaborator_Address"><path codeLine="94" d="M574.64,425.1 C619.49,466.26 683.29,524.81 719.94,558.45 " fill="none" id="Collaborator-Address" style="stroke:#181818;stroke-width:1.0;"/><polygon fill="#000000" points="672.5538,504.0263,667.877,495.7451,663.9026,500.0756,672.5538,504.0263" style="stroke:#000000;stroke-width:1.0;"/><text fill="#000000" font-family="sans-serif" font-size="13" lengthAdjust="spacing" textLength="30" x="677.87" y="506.0283">owns</text><text fill="#000000" font-family="sans-serif" font-size="13" lengthAdjust="spacing" textLength="7" x="582.2717" y="427.6494">1</text><text fill="#000000" font-family="sans-serif" font-size="13" lengthAdjust="spacing" textLength="7" x="705.4406" y="547.1474">1</text></g><!--link Address to zipCode--><g id="link_Address_zipCode"><path codeLine="95" d="M748.87,613.78 C748.87,640.38 748.87,681.34 748.87,710.83 " fill="none" id="Address-zipCode" style="stroke:#181818;stroke-width:1.0;"/><polygon fill="#000000" points="753.87,676.6455,756.8089,667.6004,750.9311,667.6004,753.87,676.6455" style="stroke:#000000;stroke-width:1.0;"/><text fill="#000000" font-family="sans-serif" font-size="13" lengthAdjust="spacing" textLength="30" x="762.87" y="677.0283">owns</text><text fill="#000000" font-family="sans-serif" font-size="13" lengthAdjust="spacing" textLength="7" x="741.1044" y="635.7499">1</text><text fill="#000000" font-family="sans-serif" font-size="13" lengthAdjust="spacing" textLength="7" x="741.2466" y="699.7614">1</text></g><!--link Team to Collaborator--><g id="link_Team_Collaborator"><path codeLine="97" d="M142.94,182.68 C174.05,201.24 234.24,236.57 286.87,264 C350.07,296.95 424.57,331.66 472.93,353.66 " fill="none" id="Team-Collaborator" style="stroke:#181818;stroke-width:1.0;"/><polygon fill="#000000" points="296.3095,256.9458,289.6305,250.1751,286.9263,255.394,296.3095,256.9458" style="stroke:#000000;stroke-width:1.0;"/><text fill="#000000" font-family="sans-serif" font-size="13" lengthAdjust="spacing" textLength="21" x="300.87" y="260.0283">has</text><text fill="#000000" font-family="sans-serif" font-size="13" lengthAdjust="spacing" textLength="7" x="150.7717" y="181.4662">1</text><text fill="#000000" font-family="sans-serif" font-size="13" lengthAdjust="spacing" textLength="20" x="445.5029" y="346.7665">1..*</text></g><!--link Team to Agenda--><g id="link_Team_Agenda"><path codeLine="98" d="M121.87,187.61 C121.87,226.62 121.87,319.97 121.87,358.94 " fill="none" id="Team-Agenda" style="stroke:#181818;stroke-width:1.0;"/><polygon fill="#000000" points="126.87,259.6455,129.8089,250.6004,123.9311,250.6004,126.87,259.6455" style="stroke:#000000;stroke-width:1.0;"/><text fill="#000000" font-family="sans-serif" font-size="13" lengthAdjust="spacing" textLength="21" x="135.87" y="260.0283">has</text><text fill="#000000" font-family="sans-serif" font-size="13" lengthAdjust="spacing" textLength="7" x="113.9294" y="209.0142">1</text><text fill="#000000" font-family="sans-serif" font-size="13" lengthAdjust="spacing" textLength="7" x="113.7981" y="347.7838">1</text></g><!--link Task to Team--><g id="link_Task_Team"><path codeLine="99" d="M72.82,720.4 C58.59,676.99 31.58,587.92 21.87,510 C6,382.7 82.31,237.23 111.18,187.62 " fill="none" id="Task-Team" style="stroke:#181818;stroke-width:1.0;"/><polygon fill="#000000" points="27.2291,495.6584,23.6482,504.4691,29.5108,504.8912,27.2291,495.6584" style="stroke:#000000;stroke-width:1.0;"/><text fill="#000000" font-family="sans-serif" font-size="13" lengthAdjust="spacing" textLength="67" x="35.87" y="506.0283">assigned to</text><text fill="#000000" font-family="sans-serif" font-size="13" lengthAdjust="spacing" textLength="20" x="48.4147" y="709.0858">1..*</text><text fill="#000000" font-family="sans-serif" font-size="13" lengthAdjust="spacing" textLength="20" x="85.6196" y="209.0268">1..*</text></g><!--link Agenda to Task--><g id="link_Agenda_Task"><path codeLine="100" d="M120.79,396.39 C119.2,421.72 115.97,469.45 111.87,510 C104.12,586.54 91.85,676.6 85.67,720.39 " fill="none" id="Agenda-Task" style="stroke:#181818;stroke-width:1.0;"/><polygon fill="#000000" points="113.3312,591.1164,117.2277,582.4407,111.3841,581.8073,113.3312,591.1164" style="stroke:#000000;stroke-width:1.0;"/><text fill="#000000" font-family="sans-serif" font-size="13" lengthAdjust="spacing" textLength="21" x="122.87" y="591.5283">has</text><text fill="#000000" font-family="sans-serif" font-size="13" lengthAdjust="spacing" textLength="20" x="97.9508" y="417.5228">1..*</text><text fill="#000000" font-family="sans-serif" font-size="13" lengthAdjust="spacing" textLength="20" x="88.8613" y="709.0735">1..*</text></g><!--link VehicleFleetManager to Vehicle--><g id="link_VehicleFleetManager_Vehicle"><path codeLine="102" d="M955.57,44.13 C970.78,63.69 995.9,96.01 1016.68,122.74 " fill="none" id="VehicleFleetManager-Vehicle" style="stroke:#181818;stroke-width:1.0;"/><polygon fill="#000000" points="997.9387,87.593,994.7076,78.6481,990.0671,82.2557,997.9387,87.593" style="stroke:#000000;stroke-width:1.0;"/><text fill="#000000" font-family="sans-serif" font-size="13" lengthAdjust="spacing" textLength="32" x="1003.87" y="89.0283">regist</text><text fill="#000000" font-family="sans-serif" font-size="13" lengthAdjust="spacing" textLength="7" x="951.3113" y="65.5395">1</text><text fill="#000000" font-family="sans-serif" font-size="13" lengthAdjust="spacing" textLength="20" x="990.0427" y="111.7112">1..*</text></g><!--link VehicleFleetManager to VehicleCheckUp--><g id="link_VehicleFleetManager_VehicleCheckUp"><path codeLine="103" d="M940.27,44.11 C935.46,104.34 924.47,306.87 977.87,461 C987.71,489.41 1005.57,517.64 1022.12,539.98 " fill="none" id="VehicleFleetManager-VehicleCheckUp" style="stroke:#181818;stroke-width:1.0;"/><polygon fill="#000000" points="944.6843,259.5788,946.1109,250.1758,940.3115,251.1331,944.6843,259.5788" style="stroke:#000000;stroke-width:1.0;"/><text fill="#000000" font-family="sans-serif" font-size="13" lengthAdjust="spacing" textLength="32" x="952.87" y="260.0283">regist</text><text fill="#000000" font-family="sans-serif" font-size="13" lengthAdjust="spacing" textLength="7" x="940.7806" y="65.5142">1</text><text fill="#000000" font-family="sans-serif" font-size="13" lengthAdjust="spacing" textLength="20" x="994.8083" y="528.6451">1..*</text></g><!--link VehicleFleetManager to Address--><g id="link_VehicleFleetManager_Address"><path codeLine="104" d="M935.77,44.14 C907.8,125.07 791.68,461.12 758.04,558.47 " fill="none" id="VehicleFleetManager-Address" style="stroke:#181818;stroke-width:1.0;"/><polygon fill="#000000" points="868.237,259.3713,873.9689,251.7821,868.4134,249.8624,868.237,259.3713" style="stroke:#000000;stroke-width:1.0;"/><text fill="#000000" font-family="sans-serif" font-size="13" lengthAdjust="spacing" textLength="30" x="878.87" y="260.0283">owns</text><text fill="#000000" font-family="sans-serif" font-size="13" lengthAdjust="spacing" textLength="7" x="926.19" y="65.5522">1</text><text fill="#000000" font-family="sans-serif" font-size="13" lengthAdjust="spacing" textLength="7" x="752.3512" y="547.172">1</text></g><!--link Vehicle to VehicleCheckUp--><g id="link_Vehicle_VehicleCheckUp"><path codeLine="106" d="M1088.81,215.13 C1104.28,237.38 1120.02,265.51 1125.87,294 C1140.79,366.71 1143.84,388.99 1125.87,461 C1118.93,488.8 1104.45,517.21 1090.82,539.8 " fill="none" id="Vehicle-VehicleCheckUp" style="stroke:#181818;stroke-width:1.0;"/><polygon fill="#000000" points="1142.839,372.6456,1139.9562,381.7087,1145.8339,381.6723,1142.839,372.6456" style="stroke:#000000;stroke-width:1.0;"/><text fill="#000000" font-family="sans-serif" font-size="13" lengthAdjust="spacing" textLength="67" x="1151.87" y="383.0283">assigned to</text><text fill="#000000" font-family="sans-serif" font-size="13" lengthAdjust="spacing" textLength="7" x="1086.9305" y="237.5087">1</text><text fill="#000000" font-family="sans-serif" font-size="13" lengthAdjust="spacing" textLength="5" x="1089.9986" y="528.7801">*</text></g><!--link Vehicle to PlateCertification--><g id="link_Vehicle_PlateCertification"><path codeLine="107" d="M1051.87,215.06 C1051.87,238.08 1051.87,266.84 1051.87,293.67 " fill="none" id="Vehicle-PlateCertification" style="stroke:#181818;stroke-width:1.0;"/><polygon fill="#000000" points="1056.87,259.6455,1059.8089,250.6004,1053.9311,250.6004,1056.87,259.6455" style="stroke:#000000;stroke-width:1.0;"/><text fill="#000000" font-family="sans-serif" font-size="13" lengthAdjust="spacing" textLength="30" x="1065.87" y="260.0283">owns</text><text fill="#000000" font-family="sans-serif" font-size="13" lengthAdjust="spacing" textLength="7" x="1044.3341" y="237.428">1</text><text fill="#000000" font-family="sans-serif" font-size="13" lengthAdjust="spacing" textLength="7" x="1044.5692" y="282.7776">1</text></g><!--link Task to TypeGarden--><g id="link_Task_TypeGarden"><path codeLine="109" d="M75.68,775.55 C72.92,792.78 71.69,815.4 78.87,834 C82.98,844.66 89.39,854.74 96.66,863.85 " fill="none" id="Task-TypeGarden" style="stroke:#181818;stroke-width:1.0;"/><polygon fill="#000000" points="85.0258,829.5101,85.7942,820.0306,80.0756,821.3894,85.0258,829.5101" style="stroke:#000000;stroke-width:1.0;"/><text fill="#000000" font-family="sans-serif" font-size="13" lengthAdjust="spacing" textLength="75" x="92.87" y="830.0283">carried out in</text><text fill="#000000" font-family="sans-serif" font-size="13" lengthAdjust="spacing" textLength="20" x="51.9361" y="797.9205">1..*</text><text fill="#000000" font-family="sans-serif" font-size="13" lengthAdjust="spacing" textLength="20" x="67.8167" y="852.8374">1..*</text></g><!--link GreenSpaceUser to TypeGarden--><g id="link_GreenSpaceUser_TypeGarden"><path codeLine="111" d="M204.66,766.73 C195.21,790 178.28,831.67 165.18,863.92 " fill="none" id="GreenSpaceUser-TypeGarden" style="stroke:#181818;stroke-width:1.0;"/><polygon fill="#000000" points="186.9883,829.2779,193.1152,822.0039,187.6695,819.7918,186.9883,829.2779" style="stroke:#000000;stroke-width:1.0;"/><text fill="#000000" font-family="sans-serif" font-size="13" lengthAdjust="spacing" textLength="21" x="197.87" y="830.0283">use</text><text fill="#000000" font-family="sans-serif" font-size="13" lengthAdjust="spacing" textLength="20" x="180.0348" y="788.1664">1..*</text><text fill="#000000" font-family="sans-serif" font-size="13" lengthAdjust="spacing" textLength="20" x="146.4525" y="852.576">1..*</text></g><!--SRC=[bLHDRzim3BtxLmWv3aYnNeEXG95XxJQis9PsEpCIQslHHqR92Dfj_tsqBTjoOWHjBg7CzoYIZsBOQRS70YkiTrvMv2sAI3KMOV3iGUwWn4ryCYW8PGHNcXmGAb3-e5qf7i64t2CDX70T8-bj7V6Zz6wZdr6yBIgjK4XDaWErjiLOUHMAecWvOksDWQqdY9x4dqBmpu75rk3FxZt4xW3A3lQ-yWxlQhj5QizeGPlMqceDf9AP4F_wkwwL8kJ_xXhbFHqZdlL-xJdB3c6yX2viY8GOHznjRS5zn-1halW57BUDin_SFx3INF47mwHJxyO_nWCGVgl1wFXqZs1FGJTyeTkm97ZEzn2caNVQc9HyQEoxffM3-vFV9kSllvswxY7iaY-oUUJa34-hIt1P4w6BdssdalnTww2ZzgDoB8wBwC39BEPNm-urKjIFMaA3J_6s1AuJqB8INVlZqnvJRjGP9VaGVg8kgzYU2KiT8j8u8atyuZZdTOLozx3l9o03oyxQsP3LpTVUy3XXdrlP7hhaKEdQDbEkRiQl1eWVKFPndBqIdOAsYxF3ixXSYELoSNbnyMQHT5obgiJLEOf8d4RSrp4cJ-zrr7OYLa8ISWi3SugvaLykbt-l9jVCnvx1dNaZC-ZJnp83AYRrfaBQalhciKwwTAX4zEBT4JnXCt7EeI-7o6ddh8G_kAPH_GxA8FtI6J15szwpObNG0AUuHJzaWxjvr7cXkNPv-fnMnnp08xg9qGUSLNcQPxySidbwCQb_dI_bddQtnoTC9zX9zAboKqhxDxESCd7ckphk2duNGAGvlg-ZqAuX7Qtiy_GwOCFv3m00]--></g></svg>