<?xml version="1.0" encoding="us-ascii" standalone="no"?><svg xmlns="http://www.w3.org/2000/svg" xmlns:xlink="http://www.w3.org/1999/xlink" contentStyleType="text/css" height="674.1px" preserveAspectRatio="none" style="width:857px;height:674px;background:#FFFFFF;" version="1.1" viewBox="0 0 857 674" width="857.5px" zoomAndPan="magnify"><defs/><g><!--class Collaborator--><g id="elem_Collaborator"><rect codeLine="9" fill="#F1F1F1" height="116.8781" id="Collaborator" rx="1.75" ry="1.75" style="stroke:#181818;stroke-width:0.3499999999999999;" width="70.7" x="330.743" y="205.8"/><text fill="#000000" font-family="sans-serif" font-size="9.8" lengthAdjust="spacing" textLength="54.6" x="338.793" y="219.8752">Collaborator</text><line style="stroke:#181818;stroke-width:0.3499999999999999;" x1="331.443" x2="400.743" y1="225.8348" y2="225.8348"/><text fill="#000000" font-family="sans-serif" font-size="9.8" lengthAdjust="spacing" textLength="24.5" x="334.943" y="239.21">name</text><text fill="#000000" font-family="sans-serif" font-size="9.8" lengthAdjust="spacing" textLength="41.3" x="334.943" y="252.2447">bornDate</text><text fill="#000000" font-family="sans-serif" font-size="9.8" lengthAdjust="spacing" textLength="39.9" x="334.943" y="265.2795">admDate</text><text fill="#000000" font-family="sans-serif" font-size="9.8" lengthAdjust="spacing" textLength="62.3" x="334.943" y="278.3143">phoneNumber</text><text fill="#000000" font-family="sans-serif" font-size="9.8" lengthAdjust="spacing" textLength="23.1" x="334.943" y="291.349">email</text><text fill="#000000" font-family="sans-serif" font-size="9.8" lengthAdjust="spacing" textLength="29.4" x="334.943" y="304.3838">idCard</text><text fill="#000000" font-family="sans-serif" font-size="9.8" lengthAdjust="spacing" textLength="42" x="334.943" y="317.4186">idNumber</text></g><!--class Address--><g id="elem_Address"><rect codeLine="19" fill="#F1F1F1" height="38.6695" id="Address" rx="1.75" ry="1.75" style="stroke:#181818;stroke-width:0.3499999999999999;" width="63" x="492.093" y="390.95"/><text fill="#000000" font-family="sans-serif" font-size="9.8" lengthAdjust="spacing" textLength="36.4" x="505.393" y="405.0252">Address</text><line style="stroke:#181818;stroke-width:0.3499999999999999;" x1="492.793" x2="554.393" y1="410.9848" y2="410.9848"/><text fill="#000000" font-family="sans-serif" font-size="9.8" lengthAdjust="spacing" textLength="54.6" x="496.293" y="424.36">doorNumber</text></g><!--class ZipCode--><g id="elem_ZipCode"><rect codeLine="23" fill="#F1F1F1" height="51.7043" id="ZipCode" rx="1.75" ry="1.75" style="stroke:#181818;stroke-width:0.3499999999999999;" width="41.3" x="502.943" y="497.7"/><text fill="#000000" font-family="sans-serif" font-size="9.8" lengthAdjust="spacing" textLength="37.1" x="505.043" y="511.7752">ZipCode</text><line style="stroke:#181818;stroke-width:0.3499999999999999;" x1="503.643" x2="543.543" y1="517.7348" y2="517.7348"/><text fill="#000000" font-family="sans-serif" font-size="9.8" lengthAdjust="spacing" textLength="20.3" x="507.143" y="531.11">local</text><text fill="#000000" font-family="sans-serif" font-size="9.8" lengthAdjust="spacing" textLength="25.2" x="507.143" y="544.1447">street</text></g><!--class HumanResourceManager--><g id="elem_HumanResourceManager"><rect codeLine="28" fill="#F1F1F1" height="25.6348" id="HumanResourceManager" rx="1.75" ry="1.75" style="stroke:#181818;stroke-width:0.3499999999999999;" width="116.9" x="181.643" y="4.9"/><text fill="#000000" font-family="sans-serif" font-size="9.8" lengthAdjust="spacing" textLength="112.7" x="183.743" y="18.9752">HumanResourceManager</text><line style="stroke:#181818;stroke-width:0.3499999999999999;" x1="182.343" x2="297.843" y1="24.9348" y2="24.9348"/></g><!--class VehicleFleetManager--><g id="elem_VehicleFleetManager"><rect codeLine="30" fill="#F1F1F1" height="25.6348" id="VehicleFleetManager" rx="1.75" ry="1.75" style="stroke:#181818;stroke-width:0.3499999999999999;" width="98" x="609.693" y="4.9"/><text fill="#000000" font-family="sans-serif" font-size="9.8" lengthAdjust="spacing" textLength="93.8" x="611.793" y="18.9752">VehicleFleetManager</text><line style="stroke:#181818;stroke-width:0.3499999999999999;" x1="610.393" x2="706.993" y1="24.9348" y2="24.9348"/></g><!--class SoftwareQualityTeamManager--><g id="elem_SoftwareQualityTeamManager"><rect codeLine="32" fill="#F1F1F1" height="25.6348" id="SoftwareQualityTeamManager" rx="1.75" ry="1.75" style="stroke:#181818;stroke-width:0.3499999999999999;" width="137.9" x="323.043" y="4.9"/><text fill="#000000" font-family="sans-serif" font-size="9.8" lengthAdjust="spacing" textLength="133.7" x="325.143" y="18.9752">SoftwareQualityTeamManager</text><line style="stroke:#181818;stroke-width:0.3499999999999999;" x1="323.743" x2="460.243" y1="24.9348" y2="24.9348"/></g><!--class GreenSpaceManager--><g id="elem_GreenSpaceManager"><rect codeLine="34" fill="#F1F1F1" height="25.6348" id="GreenSpaceManager" rx="1.75" ry="1.75" style="stroke:#181818;stroke-width:0.3499999999999999;" width="99.4" x="485.793" y="4.9"/><text fill="#000000" font-family="sans-serif" font-size="9.8" lengthAdjust="spacing" textLength="95.2" x="487.893" y="18.9752">GreenSpaceManager</text><line style="stroke:#181818;stroke-width:0.3499999999999999;" x1="486.493" x2="584.493" y1="24.9348" y2="24.9348"/></g><!--class GreenSpaceUser--><g id="elem_GreenSpaceUser"><rect codeLine="36" fill="#F1F1F1" height="25.6348" id="GreenSpaceUser" rx="1.75" ry="1.75" style="stroke:#181818;stroke-width:0.3499999999999999;" width="80.5" x="107.443" y="510.65"/><text fill="#000000" font-family="sans-serif" font-size="9.8" lengthAdjust="spacing" textLength="76.3" x="109.543" y="524.7252">GreenSpaceUser</text><line style="stroke:#181818;stroke-width:0.3499999999999999;" x1="108.143" x2="187.243" y1="530.6848" y2="530.6848"/></g><!--class Skill--><g id="elem_Skill"><rect codeLine="38" fill="#F1F1F1" height="38.6695" id="Skill" rx="1.75" ry="1.75" style="stroke:#181818;stroke-width:0.3499999999999999;" width="32.9" x="154.343" y="390.95"/><text fill="#000000" font-family="sans-serif" font-size="9.8" lengthAdjust="spacing" textLength="17.5" x="162.043" y="405.0252">Skill</text><line style="stroke:#181818;stroke-width:0.3499999999999999;" x1="155.043" x2="186.543" y1="410.9848" y2="410.9848"/><text fill="#000000" font-family="sans-serif" font-size="9.8" lengthAdjust="spacing" textLength="24.5" x="158.543" y="424.36">name</text></g><!--class Job--><g id="elem_Job"><rect codeLine="42" fill="#F1F1F1" height="38.6695" id="Job" rx="1.75" ry="1.75" style="stroke:#181818;stroke-width:0.3499999999999999;" width="46.9" x="269.843" y="390.95"/><text fill="#000000" font-family="sans-serif" font-size="9.8" lengthAdjust="spacing" textLength="15.4" x="285.593" y="405.0252">Job</text><line style="stroke:#181818;stroke-width:0.3499999999999999;" x1="270.543" x2="316.043" y1="410.9848" y2="410.9848"/><text fill="#000000" font-family="sans-serif" font-size="9.8" lengthAdjust="spacing" textLength="38.5" x="274.043" y="424.36">name</text></g><!--class Task--><g id="elem_Task"><rect codeLine="46" fill="#F1F1F1" height="38.6695" id="Task" rx="1.75" ry="1.75" style="stroke:#181818;stroke-width:0.3499999999999999;" width="51.8" x="30.793" y="504.35"/><text fill="#000000" font-family="sans-serif" font-size="9.8" lengthAdjust="spacing" textLength="21.7" x="45.843" y="518.4252">Task</text><line style="stroke:#181818;stroke-width:0.3499999999999999;" x1="31.493" x2="81.893" y1="524.3848" y2="524.3848"/><text fill="#000000" font-family="sans-serif" font-size="9.8" lengthAdjust="spacing" textLength="43.4" x="34.993" y="537.76">taskName</text></g><!--class Team--><g id="elem_Team"><rect codeLine="50" fill="#F1F1F1" height="38.6695" id="Team" rx="1.75" ry="1.75" style="stroke:#181818;stroke-width:0.3499999999999999;" width="32.9" x="68.243" y="99.05"/><text fill="#000000" font-family="sans-serif" font-size="9.8" lengthAdjust="spacing" textLength="25.2" x="72.093" y="113.1252">Team</text><line style="stroke:#181818;stroke-width:0.3499999999999999;" x1="68.943" x2="100.443" y1="119.0848" y2="119.0848"/><text fill="#000000" font-family="sans-serif" font-size="9.8" lengthAdjust="spacing" textLength="24.5" x="72.443" y="132.46">name</text></g><!--class Vehicle--><g id="elem_Vehicle"><rect codeLine="54" fill="#F1F1F1" height="64.7391" id="Vehicle" rx="1.75" ry="1.75" style="stroke:#181818;stroke-width:0.3499999999999999;" width="76.3" x="697.543" y="86.1"/><text fill="#000000" font-family="sans-serif" font-size="9.8" lengthAdjust="spacing" textLength="32.2" x="719.593" y="100.1752">Vehicle</text><line style="stroke:#181818;stroke-width:0.3499999999999999;" x1="698.243" x2="773.143" y1="106.1348" y2="106.1348"/><text fill="#000000" font-family="sans-serif" font-size="9.8" lengthAdjust="spacing" textLength="45.5" x="701.743" y="119.51">currentKm</text><text fill="#000000" font-family="sans-serif" font-size="9.8" lengthAdjust="spacing" textLength="67.9" x="701.743" y="132.5447">acquisitionDate</text><text fill="#000000" font-family="sans-serif" font-size="9.8" lengthAdjust="spacing" textLength="56.7" x="701.743" y="145.5795">maintenance</text></g><!--class PlateCertification--><g id="elem_PlateCertification"><rect codeLine="60" fill="#F1F1F1" height="116.8781" id="PlateCertification" rx="1.75" ry="1.75" style="stroke:#181818;stroke-width:0.3499999999999999;" width="79.1" x="696.143" y="205.8"/><text fill="#000000" font-family="sans-serif" font-size="9.8" lengthAdjust="spacing" textLength="74.9" x="698.243" y="219.8752">PlateCertification</text><line style="stroke:#181818;stroke-width:0.3499999999999999;" x1="696.843" x2="774.543" y1="225.8348" y2="225.8348"/><text fill="#000000" font-family="sans-serif" font-size="9.8" lengthAdjust="spacing" textLength="25.9" x="700.343" y="239.21">brand</text><text fill="#000000" font-family="sans-serif" font-size="9.8" lengthAdjust="spacing" textLength="26.6" x="700.343" y="252.2447">model</text><text fill="#000000" font-family="sans-serif" font-size="9.8" lengthAdjust="spacing" textLength="18.9" x="700.343" y="265.2795">type</text><text fill="#000000" font-family="sans-serif" font-size="9.8" lengthAdjust="spacing" textLength="17.5" x="700.343" y="278.3143">tare</text><text fill="#000000" font-family="sans-serif" font-size="9.8" lengthAdjust="spacing" textLength="55.3" x="700.343" y="291.349">grossWeight</text><text fill="#000000" font-family="sans-serif" font-size="9.8" lengthAdjust="spacing" textLength="54.6" x="700.343" y="304.3838">registerDate</text><text fill="#000000" font-family="sans-serif" font-size="9.8" lengthAdjust="spacing" textLength="21.7" x="700.343" y="317.4186">plate</text></g><!--class VehicleCheckUp--><g id="elem_VehicleCheckUp"><rect codeLine="70" fill="#F1F1F1" height="64.7391" id="VehicleCheckUp" rx="1.75" ry="1.75" style="stroke:#181818;stroke-width:0.3499999999999999;" width="76.3" x="703.143" y="378"/><text fill="#000000" font-family="sans-serif" font-size="9.8" lengthAdjust="spacing" textLength="72.1" x="705.243" y="392.0752">VehicleCheckUp</text><line style="stroke:#181818;stroke-width:0.3499999999999999;" x1="703.843" x2="778.743" y1="398.0348" y2="398.0348"/><text fill="#000000" font-family="sans-serif" font-size="9.8" lengthAdjust="spacing" textLength="19.6" x="707.343" y="411.41">date</text><text fill="#000000" font-family="sans-serif" font-size="9.8" lengthAdjust="spacing" textLength="23.8" x="707.343" y="424.4447">place</text><text fill="#000000" font-family="sans-serif" font-size="9.8" lengthAdjust="spacing" textLength="17.5" x="707.343" y="437.4795">kms</text></g><!--class TypeGarden--><g id="elem_TypeGarden"><rect codeLine="76" fill="#F1F1F1" height="64.7391" id="TypeGarden" rx="1.75" ry="1.75" style="stroke:#181818;stroke-width:0.3499999999999999;" width="100.1" x="52.143" y="604.8"/><text fill="#000000" font-family="sans-serif" font-size="9.8" lengthAdjust="spacing" textLength="56" x="74.193" y="618.8752">TypeGarden</text><line style="stroke:#181818;stroke-width:0.3499999999999999;" x1="52.843" x2="151.543" y1="624.8348" y2="624.8348"/><text fill="#000000" font-family="sans-serif" font-size="9.8" lengthAdjust="spacing" textLength="31.5" x="56.343" y="638.21">garden</text><text fill="#000000" font-family="sans-serif" font-size="9.8" lengthAdjust="spacing" textLength="91.7" x="56.343" y="651.2447">mediumSizedGarden</text><text fill="#000000" font-family="sans-serif" font-size="9.8" lengthAdjust="spacing" textLength="79.8" x="56.343" y="664.2795">largeSizedGarden</text></g><!--class Agenda--><g id="elem_Agenda"><rect codeLine="82" fill="#F1F1F1" height="25.6348" id="Agenda" rx="1.75" ry="1.75" style="stroke:#181818;stroke-width:0.3499999999999999;" width="38.5" x="65.443" y="251.3"/><text fill="#000000" font-family="sans-serif" font-size="9.8" lengthAdjust="spacing" textLength="34.3" x="67.543" y="265.3752">Agenda</text><line style="stroke:#181818;stroke-width:0.3499999999999999;" x1="66.143" x2="103.243" y1="271.3348" y2="271.3348"/></g><!--link HumanResourceManager to Skill--><g id="link_HumanResourceManager_Skill"><path codeLine="84" d="M228.165,30.905 C205.513,55.335 156.968,112.56 139.293,171.5 C115.528,250.747 147.56,350.189 163.142,390.866 " fill="none" id="HumanResourceManager-Skill" style="stroke:#181818;stroke-width:0.6999999999999998;"/><polygon fill="#000000" points="142.1708,181.6961,145.3208,175.8311,141.2719,175.0997,142.1708,181.6961" style="stroke:#000000;stroke-width:0.6999999999999998;"/><text fill="#000000" font-family="sans-serif" font-size="9.1" lengthAdjust="spacing" textLength="22.4" x="149.093" y="182.0198">regist</text><text fill="#000000" font-family="sans-serif" font-size="9.1" lengthAdjust="spacing" textLength="4.9" x="219.4009" y="45.8954">1</text><text fill="#000000" font-family="sans-serif" font-size="9.1" lengthAdjust="spacing" textLength="14" x="145.754" y="382.9429">1..*</text></g><!--link HumanResourceManager to Job--><g id="link_HumanResourceManager_Job"><path codeLine="85" d="M241.773,30.898 C249.487,87.549 281.491,322.784 290.766,390.929 " fill="none" id="HumanResourceManager-Job" style="stroke:#181818;stroke-width:0.6999999999999998;"/><polygon fill="#000000" points="266.4649,181.7199,267.6497,175.1688,263.5727,175.7235,266.4649,181.7199" style="stroke:#000000;stroke-width:0.6999999999999998;"/><text fill="#000000" font-family="sans-serif" font-size="9.1" lengthAdjust="spacing" textLength="22.4" x="272.293" y="182.0198">regist</text><text fill="#000000" font-family="sans-serif" font-size="9.1" lengthAdjust="spacing" textLength="4.9" x="236.6661" y="45.8866">1</text><text fill="#000000" font-family="sans-serif" font-size="9.1" lengthAdjust="spacing" textLength="14" x="274.5629" y="383.0204">1..*</text></g><!--link HumanResourceManager to Collaborator--><g id="link_HumanResourceManager_Collaborator"><path codeLine="86" d="M292.733,30.807 C304.01,35.665 314.874,42.42 322.693,51.8 C358.449,94.668 367.304,159.208 368.452,205.765 " fill="none" id="HumanResourceManager-Collaborator" style="stroke:#181818;stroke-width:0.6999999999999998;"/><polygon fill="#000000" points="368.1831,121.6139,367.5564,114.9861,363.7803,116.6203,368.1831,121.6139" style="stroke:#000000;stroke-width:0.6999999999999998;"/><text fill="#000000" font-family="sans-serif" font-size="9.1" lengthAdjust="spacing" textLength="22.4" x="373.093" y="122.1698">regist</text><text fill="#000000" font-family="sans-serif" font-size="9.1" lengthAdjust="spacing" textLength="4.9" x="301.9489" y="46.0104">1</text><text fill="#000000" font-family="sans-serif" font-size="9.1" lengthAdjust="spacing" textLength="14" x="354.0387" y="197.9561">1..*</text></g><!--link HumanResourceManager to Collaborator--><g id="link_HumanResourceManager_Collaborator"><path codeLine="90" d="M254.429,30.828 C260.694,36.715 267.785,44.142 272.993,51.8 C305.683,99.869 326.8934,149.428 342.8744,193.717 " fill="none" id="HumanResourceManager-to-Collaborator" style="stroke:#181818;stroke-width:0.6999999999999998;"/><polygon fill="none" points="347.151,205.569,346.8251,192.2914,338.9237,195.1425,347.151,205.569" style="stroke:#181818;stroke-width:0.6999999999999998;"/></g><!--link HumanResourceManager to Team--><g id="link_HumanResourceManager_Team"><path codeLine="87" d="M181.44,23.317 C142.016,27.874 95.067,36.414 82.593,51.8 C72.086,64.764 74.242,84.343 78.043,98.77 " fill="none" id="HumanResourceManager-Team" style="stroke:#181818;stroke-width:0.6999999999999998;"/><polygon fill="#000000" points="83.2657,60.615,89.593,58.5445,87.1676,55.2209,83.2657,60.615" style="stroke:#000000;stroke-width:0.6999999999999998;"/><text fill="#000000" font-family="sans-serif" font-size="9.1" lengthAdjust="spacing" textLength="30.1" x="92.393" y="62.3198">creates</text><text fill="#000000" font-family="sans-serif" font-size="9.1" lengthAdjust="spacing" textLength="4.9" x="171.098" y="21.2147">1</text><text fill="#000000" font-family="sans-serif" font-size="9.1" lengthAdjust="spacing" textLength="14" x="61.0571" y="91.1198">1..*</text></g><!--link VehicleFleetManager to Collaborator--><g id="link_VehicleFleetManager_Collaborator"><path codeLine="89" d="M621.971,30.835 C608.482,36.211 593.467,43.26 580.993,51.8 C530.341,86.471 528.052,107.359 484.393,150.5 C456.911,177.653 434.401,199.2111 410.748,221.5621 " fill="none" id="VehicleFleetManager-to-Collaborator" style="stroke:#181818;stroke-width:0.6999999999999998;"/><polygon fill="none" points="401.59,230.216,413.6327,224.6148,407.8634,218.5094,401.59,230.216" style="stroke:#181818;stroke-width:0.6999999999999998;"/></g><!--link SoftwareQualityTeamManager to Collaborator--><g id="link_SoftwareQualityTeamManager_Collaborator"><path codeLine="91" d="M395.01,30.905 C398.125,44.373 402.794,66.619 404.593,86.1 C407.232,114.604 409.269,122.262 404.593,150.5 C401.562,168.805 400.073,176.2264 394.046,193.6214 " fill="none" id="SoftwareQualityTeamManager-to-Collaborator" style="stroke:#181818;stroke-width:0.6999999999999998;"/><polygon fill="none" points="389.921,205.527,398.0146,194.9964,390.0775,192.2464,389.921,205.527" style="stroke:#181818;stroke-width:0.6999999999999998;"/></g><!--link GreenSpaceManager to Collaborator--><g id="link_GreenSpaceManager_Collaborator"><path codeLine="92" d="M526.862,31.038 C504.105,63.945 448.6639,144.1408 408.6239,202.0378 " fill="none" id="GreenSpaceManager-to-Collaborator" style="stroke:#181818;stroke-width:0.6999999999999998;"/><polygon fill="none" points="401.457,212.401,412.0783,204.4268,405.1695,199.6489,401.457,212.401" style="stroke:#181818;stroke-width:0.6999999999999998;"/></g><!--link Collaborator to Job--><g id="link_Collaborator_Job"><path codeLine="94" d="M337.008,322.7 C324.807,346.927 311.465,373.415 302.771,390.677 " fill="none" id="Collaborator-Job" style="stroke:#181818;stroke-width:0.6999999999999998;"/><polygon fill="#000000" points="330.5674,347.3259,325.8819,352.0554,329.5567,353.9062,330.5674,347.3259" style="stroke:#000000;stroke-width:0.6999999999999998;"/><text fill="#000000" font-family="sans-serif" font-size="9.1" lengthAdjust="spacing" textLength="46.9" x="335.293" y="354.2198">assigned to</text><text fill="#000000" font-family="sans-serif" font-size="9.1" lengthAdjust="spacing" textLength="14" x="319.9069" y="338.0639">1..*</text><text fill="#000000" font-family="sans-serif" font-size="9.1" lengthAdjust="spacing" textLength="4.9" x="299.4084" y="383.0283">1</text></g><!--link Collaborator to Skill--><g id="link_Collaborator_Skill"><path codeLine="95" d="M330.561,290.717 C309.498,306.04 282.317,325.899 258.293,343.7 C233.555,362.033 205.086,383.516 187.516,396.816 " fill="none" id="Collaborator-Skill" style="stroke:#181818;stroke-width:0.6999999999999998;"/><polygon fill="#000000" points="264.6041,348.3668,258.2932,350.4864,260.7443,353.7911,264.6041,348.3668" style="stroke:#000000;stroke-width:0.6999999999999998;"/><text fill="#000000" font-family="sans-serif" font-size="9.1" lengthAdjust="spacing" textLength="46.9" x="268.093" y="354.2198">assigned to</text><text fill="#000000" font-family="sans-serif" font-size="9.1" lengthAdjust="spacing" textLength="3.5" x="321.5852" y="291.6668">*</text><text fill="#000000" font-family="sans-serif" font-size="9.1" lengthAdjust="spacing" textLength="3.5" x="192.9424" y="389.0615">*</text></g><!--link Collaborator to Address--><g id="link_Collaborator_Address"><path codeLine="96" d="M401.639,297.57 C433.027,326.382 477.687,367.367 503.349,390.915 " fill="none" id="Collaborator-Address" style="stroke:#181818;stroke-width:0.6999999999999998;"/><polygon fill="#000000" points="470.1716,352.8184,466.8979,347.0216,464.1158,350.053,470.1716,352.8184" style="stroke:#000000;stroke-width:0.6999999999999998;"/><text fill="#000000" font-family="sans-serif" font-size="9.1" lengthAdjust="spacing" textLength="21" x="473.893" y="354.2198">owns</text><text fill="#000000" font-family="sans-serif" font-size="9.1" lengthAdjust="spacing" textLength="4.9" x="406.9822" y="299.3546">1</text><text fill="#000000" font-family="sans-serif" font-size="9.1" lengthAdjust="spacing" textLength="4.9" x="493.201" y="383.0032">1</text></g><!--link Address to ZipCode--><g id="link_Address_ZipCode"><path codeLine="97" d="M523.593,429.646 C523.593,448.266 523.593,476.938 523.593,497.581 " fill="none" id="Address-ZipCode" style="stroke:#181818;stroke-width:0.6999999999999998;"/><polygon fill="#000000" points="527.093,473.6519,529.1502,467.3203,525.0358,467.3203,527.093,473.6519" style="stroke:#000000;stroke-width:0.6999999999999998;"/><text fill="#000000" font-family="sans-serif" font-size="9.1" lengthAdjust="spacing" textLength="21" x="533.393" y="473.9198">owns</text><text fill="#000000" font-family="sans-serif" font-size="9.1" lengthAdjust="spacing" textLength="4.9" x="518.1571" y="445.0249">1</text><text fill="#000000" font-family="sans-serif" font-size="9.1" lengthAdjust="spacing" textLength="4.9" x="518.2566" y="489.833">1</text></g><!--link Team to Collaborator--><g id="link_Team_Collaborator"><path codeLine="99" d="M101.311,128.989 C123.557,142.24 164.381,166.131 200.193,184.8 C244.44,207.865 296.59,232.162 330.442,247.562 " fill="none" id="Team-Collaborator" style="stroke:#181818;stroke-width:0.6999999999999998;"/><polygon fill="#000000" points="206.8014,179.8604,202.1237,175.1234,200.2327,178.7776,206.8014,179.8604" style="stroke:#000000;stroke-width:0.6999999999999998;"/><text fill="#000000" font-family="sans-serif" font-size="9.1" lengthAdjust="spacing" textLength="14.7" x="209.993" y="182.0198">has</text><text fill="#000000" font-family="sans-serif" font-size="9.1" lengthAdjust="spacing" textLength="4.9" x="106.6739" y="128.2465">1</text><text fill="#000000" font-family="sans-serif" font-size="9.1" lengthAdjust="spacing" textLength="14" x="311.2439" y="242.7366">1..*</text></g><!--link Team to Agenda--><g id="link_Team_Agenda"><path codeLine="100" d="M84.693,137.599 C84.693,167.566 84.693,225.736 84.693,251.16 " fill="none" id="Team-Agenda" style="stroke:#181818;stroke-width:0.6999999999999998;"/><polygon fill="#000000" points="88.193,181.7519,90.2502,175.4203,86.1358,175.4203,88.193,181.7519" style="stroke:#000000;stroke-width:0.6999999999999998;"/><text fill="#000000" font-family="sans-serif" font-size="9.1" lengthAdjust="spacing" textLength="14.7" x="94.493" y="182.0198">has</text><text fill="#000000" font-family="sans-serif" font-size="9.1" lengthAdjust="spacing" textLength="4.9" x="79.2264" y="153.2616">1</text><text fill="#000000" font-family="sans-serif" font-size="9.1" lengthAdjust="spacing" textLength="4.9" x="79.0427" y="243.3206">1</text></g><!--link Task to Team--><g id="link_Task_Team"><path codeLine="101" d="M50.365,504.28 C40.397,473.893 21.49,411.544 14.693,357 C4.2,272.804 51.31,177.254 73.584,137.683 " fill="none" id="Task-Team" style="stroke:#181818;stroke-width:0.6999999999999998;"/><polygon fill="#000000" points="18.4142,346.9589,15.9609,353.1477,20.0672,353.4078,18.4142,346.9589" style="stroke:#000000;stroke-width:0.6999999999999998;"/><text fill="#000000" font-family="sans-serif" font-size="9.1" lengthAdjust="spacing" textLength="46.9" x="24.493" y="354.2198">assigned to</text><text fill="#000000" font-family="sans-serif" font-size="9.1" lengthAdjust="spacing" textLength="14" x="33.2829" y="496.3601">1..*</text><text fill="#000000" font-family="sans-serif" font-size="9.1" lengthAdjust="spacing" textLength="14" x="55.6227" y="153.0482">1..*</text></g><!--link Agenda to Task--><g id="link_Agenda_Task"><path codeLine="102" d="M83.944,277.473 C82.831,295.204 80.57,328.615 77.693,357 C72.268,410.578 63.679,473.62 59.36,504.273 " fill="none" id="Agenda-Task" style="stroke:#181818;stroke-width:0.6999999999999998;"/><polygon fill="#000000" points="78.7158,413.7815,81.4434,407.7085,77.3529,407.2651,78.7158,413.7815" style="stroke:#000000;stroke-width:0.6999999999999998;"/><text fill="#000000" font-family="sans-serif" font-size="9.1" lengthAdjust="spacing" textLength="14.7" x="85.393" y="414.0698">has</text><text fill="#000000" font-family="sans-serif" font-size="9.1" lengthAdjust="spacing" textLength="14" x="67.9583" y="292.266">1..*</text><text fill="#000000" font-family="sans-serif" font-size="9.1" lengthAdjust="spacing" textLength="14" x="61.5955" y="496.3515">1..*</text></g><!--link VehicleFleetManager to Vehicle--><g id="link_VehicleFleetManager_Vehicle"><path codeLine="104" d="M668.29,30.891 C678.937,44.583 696.521,67.207 711.06,85.918 " fill="none" id="VehicleFleetManager-Vehicle" style="stroke:#181818;stroke-width:0.6999999999999998;"/><polygon fill="#000000" points="697.9409,61.3153,695.6796,55.0537,692.431,57.5787,697.9409,61.3153" style="stroke:#000000;stroke-width:0.6999999999999998;"/><text fill="#000000" font-family="sans-serif" font-size="9.1" lengthAdjust="spacing" textLength="22.4" x="702.093" y="62.3198">regist</text><text fill="#000000" font-family="sans-serif" font-size="9.1" lengthAdjust="spacing" textLength="4.9" x="665.3108" y="45.8777">1</text><text fill="#000000" font-family="sans-serif" font-size="9.1" lengthAdjust="spacing" textLength="14" x="692.4139" y="78.1979">1..*</text></g><!--link VehicleFleetManager to VehicleCheckUp--><g id="link_VehicleFleetManager_VehicleCheckUp"><path codeLine="105" d="M657.58,30.877 C654.213,73.038 646.52,214.809 683.893,322.7 C690.781,342.587 703.29,362.348 714.875,377.986 " fill="none" id="VehicleFleetManager-VehicleCheckUp" style="stroke:#181818;stroke-width:0.6999999999999998;"/><polygon fill="#000000" points="660.663,181.7051,661.6616,175.1231,657.6021,175.7931,660.663,181.7051" style="stroke:#000000;stroke-width:0.6999999999999998;"/><text fill="#000000" font-family="sans-serif" font-size="9.1" lengthAdjust="spacing" textLength="22.4" x="666.393" y="182.0198">regist</text><text fill="#000000" font-family="sans-serif" font-size="9.1" lengthAdjust="spacing" textLength="4.9" x="657.9393" y="45.8599">1</text><text fill="#000000" font-family="sans-serif" font-size="9.1" lengthAdjust="spacing" textLength="14" x="695.7579" y="370.0516">1..*</text></g><!--link VehicleFleetManager to Address--><g id="link_VehicleFleetManager_Address"><path codeLine="106" d="M654.43,30.898 C634.851,87.549 553.56,322.784 530.012,390.929 " fill="none" id="VehicleFleetManager-Address" style="stroke:#181818;stroke-width:0.6999999999999998;"/><polygon fill="#000000" points="607.1498,181.5599,611.1623,176.2475,607.2734,174.9036,607.1498,181.5599" style="stroke:#000000;stroke-width:0.6999999999999998;"/><text fill="#000000" font-family="sans-serif" font-size="9.1" lengthAdjust="spacing" textLength="21" x="614.593" y="182.0198">owns</text><text fill="#000000" font-family="sans-serif" font-size="9.1" lengthAdjust="spacing" textLength="4.9" x="647.7259" y="45.8866">1</text><text fill="#000000" font-family="sans-serif" font-size="9.1" lengthAdjust="spacing" textLength="4.9" x="526.0298" y="383.0204">1</text></g><!--link Vehicle to VehicleCheckUp--><g id="link_Vehicle_VehicleCheckUp"><path codeLine="108" d="M761.551,150.591 C772.38,166.166 783.398,185.857 787.493,205.8 C797.944,256.697 800.072,272.293 787.493,322.7 C782.635,342.16 772.506,362.047 762.965,377.86 " fill="none" id="Vehicle-VehicleCheckUp" style="stroke:#181818;stroke-width:0.6999999999999998;"/><polygon fill="#000000" points="799.3712,260.8519,797.3534,267.1962,801.4678,267.1706,799.3712,260.8519" style="stroke:#000000;stroke-width:0.6999999999999998;"/><text fill="#000000" font-family="sans-serif" font-size="9.1" lengthAdjust="spacing" textLength="46.9" x="805.693" y="268.1198">assigned to</text><text fill="#000000" font-family="sans-serif" font-size="9.1" lengthAdjust="spacing" textLength="4.9" x="760.2353" y="166.2561">1</text><text fill="#000000" font-family="sans-serif" font-size="9.1" lengthAdjust="spacing" textLength="3.5" x="762.391" y="370.146">*</text></g><!--link Vehicle to PlateCertification--><g id="link_Vehicle_PlateCertification"><path codeLine="109" d="M735.693,150.542 C735.693,166.656 735.693,186.788 735.693,205.569 " fill="none" id="Vehicle-PlateCertification" style="stroke:#181818;stroke-width:0.6999999999999998;"/><polygon fill="#000000" points="739.193,181.7519,741.2502,175.4203,737.1358,175.4203,739.193,181.7519" style="stroke:#000000;stroke-width:0.6999999999999998;"/><text fill="#000000" font-family="sans-serif" font-size="9.1" lengthAdjust="spacing" textLength="21" x="745.493" y="182.0198">owns</text><text fill="#000000" font-family="sans-serif" font-size="9.1" lengthAdjust="spacing" textLength="4.9" x="730.4178" y="166.1996">1</text><text fill="#000000" font-family="sans-serif" font-size="9.1" lengthAdjust="spacing" textLength="4.9" x="730.5825" y="197.9443">1</text></g><!--link Task to TypeGarden--><g id="link_Task_TypeGarden"><path codeLine="111" d="M52.367,542.885 C50.428,554.946 49.574,570.78 54.593,583.8 C57.47,591.262 61.957,598.318 67.046,604.695 " fill="none" id="Task-TypeGarden" style="stroke:#181818;stroke-width:0.6999999999999998;"/><polygon fill="#000000" points="58.9017,580.6571,59.4403,574.0216,55.4372,574.9723,58.9017,580.6571" style="stroke:#000000;stroke-width:0.6999999999999998;"/><text fill="#000000" font-family="sans-serif" font-size="9.1" lengthAdjust="spacing" textLength="52.5" x="64.393" y="581.0198">carried out in</text><text fill="#000000" font-family="sans-serif" font-size="9.1" lengthAdjust="spacing" textLength="14" x="35.7479" y="558.5444">1..*</text><text fill="#000000" font-family="sans-serif" font-size="9.1" lengthAdjust="spacing" textLength="14" x="46.8557" y="596.9862">1..*</text></g><!--link GreenSpaceUser to TypeGarden--><g id="link_GreenSpaceUser_TypeGarden"><path codeLine="113" d="M142.653,536.711 C136.031,553 124.187,582.169 115.017,604.744 " fill="none" id="GreenSpaceUser-TypeGarden" style="stroke:#181818;stroke-width:0.6999999999999998;"/><polygon fill="#000000" points="130.2758,580.4945,134.5646,575.4027,130.7527,573.8542,130.2758,580.4945" style="stroke:#000000;stroke-width:0.6999999999999998;"/><text fill="#000000" font-family="sans-serif" font-size="9.1" lengthAdjust="spacing" textLength="14.7" x="137.893" y="581.0198">use</text><text fill="#000000" font-family="sans-serif" font-size="9.1" lengthAdjust="spacing" textLength="14" x="125.4172" y="551.7165">1..*</text><text fill="#000000" font-family="sans-serif" font-size="9.1" lengthAdjust="spacing" textLength="14" x="101.9088" y="596.8032">1..*</text></g><!--SRC=[bLHBRzim3BxxLmWv3aYnNeEXG95XxJQis9Ps0tPZ9DRMeaT6oGYwntyVRSksd1X1wuifyID5yYCPTjhjWS0AwvsN5NcB8bADHHWqUv0xA74JdmmAGXd1bIO7X0gKFsXNYaSm8TT80o5SnqXwMqTyBxtRwDyeNXULLYYa9icEMjbYhBmAHL6qDcBjZO6j9uYUn9z2yEV0OYlmjNiBiJk0ieEyhxp3kzfkaTepMj2cbRHQ0waa9iI__grhfGZvtpsZlATZn0-zNtkEiaCOBw5p6o8XnX5tMrjmNp7ucYH-0iTbu-W7zJUiD6Vyph3HgNRZ7-C12B_KO7HykaUmfw0RVj1jc18yfti8KyyxRKnUnK7pmM_J_K-_lPkexY7iaYwoUAJau6OTfXIJJjP4wE97sr4bVzKwwAZzI1ypv28wS39pyjcmUeqKzQEMqE2Jlos1wrYqJ4V7GNpQOugIEg4a7y9tr6KLspDXgKD46lkayNyIyxf2kNlOzssGWMKdxMp8Ai3Ftd1FOHzRsHwwu53fsZQjhcx6MmF4KvHTZWrOebFG4ZRRGOlBXLWk5vSN5wyMYSnLoafSdJCHoQQX-MKMa_bxcMdR6oiX2Rc4WMsAkRvVBfT_hoRFpFkUmPqPb1dqwSJCW8f9lYcHDgM-UCoJBXqg4RruSmHFs8oSS-ZBmNDQF2lX3wufLB-8CaY_UGPCqPRtB5aLDC0fRj4tsQ1knZjFDESk3v_3wYm7y8XkVFGEPrcUnjalXwoVdctKJ-TpRK-hs-CJfYFinFkKkQb9-vjPJXavyrKTTmNF1H1fzk_hABHhZ8xszddpEc1Zyny0]--></g></svg>