<?xml version="1.0" encoding="us-ascii" standalone="no"?><svg xmlns="http://www.w3.org/2000/svg" xmlns:xlink="http://www.w3.org/1999/xlink" contentStyleType="text/css" height="963px" preserveAspectRatio="none" style="width:1215px;height:963px;background:#FFFFFF;" version="1.1" viewBox="0 0 1215 963" width="1215px" zoomAndPan="magnify"><defs/><g><!--class Collaborator--><g id="elem_Collaborator"><rect codeLine="9" fill="#F1F1F1" height="166.9688" id="Collaborator" rx="2.5" ry="2.5" style="stroke:#181818;stroke-width:0.5;" width="101" x="473.37" y="294"/><text fill="#000000" font-family="sans-serif" font-size="14" lengthAdjust="spacing" textLength="78" x="484.87" y="314.1074">Collaborator</text><line style="stroke:#181818;stroke-width:0.5;" x1="474.37" x2="573.37" y1="322.6211" y2="322.6211"/><text fill="#000000" font-family="sans-serif" font-size="14" lengthAdjust="spacing" textLength="35" x="479.37" y="341.7285">name</text><text fill="#000000" font-family="sans-serif" font-size="14" lengthAdjust="spacing" textLength="59" x="479.37" y="360.3496">bornDate</text><text fill="#000000" font-family="sans-serif" font-size="14" lengthAdjust="spacing" textLength="57" x="479.37" y="378.9707">admDate</text><text fill="#000000" font-family="sans-serif" font-size="14" lengthAdjust="spacing" textLength="89" x="479.37" y="397.5918">phoneNumber</text><text fill="#000000" font-family="sans-serif" font-size="14" lengthAdjust="spacing" textLength="33" x="479.37" y="416.2129">email</text><text fill="#000000" font-family="sans-serif" font-size="14" lengthAdjust="spacing" textLength="42" x="479.37" y="434.834">idCard</text><text fill="#000000" font-family="sans-serif" font-size="14" lengthAdjust="spacing" textLength="60" x="479.37" y="453.4551">idNumber</text></g><!--class Address--><g id="elem_Address"><rect codeLine="19" fill="#F1F1F1" height="55.2422" id="Address" rx="2.5" ry="2.5" style="stroke:#181818;stroke-width:0.5;" width="90" x="695.87" y="558.5"/><text fill="#000000" font-family="sans-serif" font-size="14" lengthAdjust="spacing" textLength="52" x="714.87" y="578.6074">Address</text><line style="stroke:#181818;stroke-width:0.5;" x1="696.87" x2="784.87" y1="587.1211" y2="587.1211"/><text fill="#000000" font-family="sans-serif" font-size="14" lengthAdjust="spacing" textLength="78" x="701.87" y="606.2285">doorNumber</text></g><!--class zipCode--><g id="elem_zipCode"><rect codeLine="23" fill="#F1F1F1" height="73.8633" id="zipCode" rx="2.5" ry="2.5" style="stroke:#181818;stroke-width:0.5;" width="57" x="712.37" y="711"/><text fill="#000000" font-family="sans-serif" font-size="14" lengthAdjust="spacing" textLength="51" x="715.37" y="731.1074">zipCode</text><line style="stroke:#181818;stroke-width:0.5;" x1="713.37" x2="768.37" y1="739.6211" y2="739.6211"/><text fill="#000000" font-family="sans-serif" font-size="14" lengthAdjust="spacing" textLength="29" x="718.37" y="758.7285">local</text><text fill="#000000" font-family="sans-serif" font-size="14" lengthAdjust="spacing" textLength="36" x="718.37" y="777.3496">street</text></g><!--class HumanResourceManager--><g id="elem_HumanResourceManager"><rect codeLine="28" fill="#F1F1F1" height="36.6211" id="HumanResourceManager" rx="2.5" ry="2.5" style="stroke:#181818;stroke-width:0.5;" width="167" x="272.37" y="7"/><text fill="#000000" font-family="sans-serif" font-size="14" lengthAdjust="spacing" textLength="161" x="275.37" y="27.1074">HumanResourceManager</text><line style="stroke:#181818;stroke-width:0.5;" x1="273.37" x2="438.37" y1="35.6211" y2="35.6211"/></g><!--class FleetManager--><g id="elem_FleetManager"><rect codeLine="30" fill="#F1F1F1" height="36.6211" id="FleetManager" rx="2.5" ry="2.5" style="stroke:#181818;stroke-width:0.5;" width="94" x="883.87" y="7"/><text fill="#000000" font-family="sans-serif" font-size="14" lengthAdjust="spacing" textLength="88" x="886.87" y="27.1074">FleetManager</text><line style="stroke:#181818;stroke-width:0.5;" x1="884.87" x2="976.87" y1="35.6211" y2="35.6211"/></g><!--class SoftwareQualityTeamManager--><g id="elem_SoftwareQualityTeamManager"><rect codeLine="32" fill="#F1F1F1" height="36.6211" id="SoftwareQualityTeamManager" rx="2.5" ry="2.5" style="stroke:#181818;stroke-width:0.5;" width="197" x="474.37" y="7"/><text fill="#000000" font-family="sans-serif" font-size="14" lengthAdjust="spacing" textLength="191" x="477.37" y="27.1074">SoftwareQualityTeamManager</text><line style="stroke:#181818;stroke-width:0.5;" x1="475.37" x2="670.37" y1="35.6211" y2="35.6211"/></g><!--class GreenSpaceManager--><g id="elem_GreenSpaceManager"><rect codeLine="34" fill="#F1F1F1" height="36.6211" id="GreenSpaceManager" rx="2.5" ry="2.5" style="stroke:#181818;stroke-width:0.5;" width="142" x="706.87" y="7"/><text fill="#000000" font-family="sans-serif" font-size="14" lengthAdjust="spacing" textLength="136" x="709.87" y="27.1074">GreenSpaceManager</text><line style="stroke:#181818;stroke-width:0.5;" x1="707.87" x2="847.87" y1="35.6211" y2="35.6211"/></g><!--class GreenSpaceUser--><g id="elem_GreenSpaceUser"><rect codeLine="36" fill="#F1F1F1" height="36.6211" id="GreenSpaceUser" rx="2.5" ry="2.5" style="stroke:#181818;stroke-width:0.5;" width="115" x="154.37" y="729.5"/><text fill="#000000" font-family="sans-serif" font-size="14" lengthAdjust="spacing" textLength="109" x="157.37" y="749.6074">GreenSpaceUser</text><line style="stroke:#181818;stroke-width:0.5;" x1="155.37" x2="268.37" y1="758.1211" y2="758.1211"/></g><!--class Skill--><g id="elem_Skill"><rect codeLine="38" fill="#F1F1F1" height="55.2422" id="Skill" rx="2.5" ry="2.5" style="stroke:#181818;stroke-width:0.5;" width="71" x="215.37" y="558.5"/><text fill="#000000" font-family="sans-serif" font-size="14" lengthAdjust="spacing" textLength="25" x="238.37" y="578.6074">Skill</text><line style="stroke:#181818;stroke-width:0.5;" x1="216.37" x2="285.37" y1="587.1211" y2="587.1211"/><text fill="#000000" font-family="sans-serif" font-size="14" lengthAdjust="spacing" textLength="59" x="221.37" y="606.2285">skillName</text></g><!--class Job--><g id="elem_Job"><rect codeLine="42" fill="#F1F1F1" height="55.2422" id="Job" rx="2.5" ry="2.5" style="stroke:#181818;stroke-width:0.5;" width="67" x="386.37" y="558.5"/><text fill="#000000" font-family="sans-serif" font-size="14" lengthAdjust="spacing" textLength="22" x="408.87" y="578.6074">Job</text><line style="stroke:#181818;stroke-width:0.5;" x1="387.37" x2="452.37" y1="587.1211" y2="587.1211"/><text fill="#000000" font-family="sans-serif" font-size="14" lengthAdjust="spacing" textLength="55" x="392.37" y="606.2285">jobName</text></g><!--class Task--><g id="elem_Task"><rect codeLine="46" fill="#F1F1F1" height="55.2422" id="Task" rx="2.5" ry="2.5" style="stroke:#181818;stroke-width:0.5;" width="74" x="44.87" y="720.5"/><text fill="#000000" font-family="sans-serif" font-size="14" lengthAdjust="spacing" textLength="31" x="66.37" y="740.6074">Task</text><line style="stroke:#181818;stroke-width:0.5;" x1="45.87" x2="117.87" y1="749.1211" y2="749.1211"/><text fill="#000000" font-family="sans-serif" font-size="14" lengthAdjust="spacing" textLength="62" x="50.87" y="768.2285">taskName</text></g><!--class Team--><g id="elem_Team"><rect codeLine="50" fill="#F1F1F1" height="36.6211" id="Team" rx="2.5" ry="2.5" style="stroke:#181818;stroke-width:0.5;" width="42" x="100.87" y="150.5"/><text fill="#000000" font-family="sans-serif" font-size="14" lengthAdjust="spacing" textLength="36" x="103.87" y="170.6074">Team</text><line style="stroke:#181818;stroke-width:0.5;" x1="101.87" x2="141.87" y1="179.1211" y2="179.1211"/></g><!--class Vehicle--><g id="elem_Vehicle"><rect codeLine="52" fill="#F1F1F1" height="92.4844" id="Vehicle" rx="2.5" ry="2.5" style="stroke:#181818;stroke-width:0.5;" width="109" x="986.37" y="123"/><text fill="#000000" font-family="sans-serif" font-size="14" lengthAdjust="spacing" textLength="46" x="1017.87" y="143.1074">Vehicle</text><line style="stroke:#181818;stroke-width:0.5;" x1="987.37" x2="1094.37" y1="151.6211" y2="151.6211"/><text fill="#000000" font-family="sans-serif" font-size="14" lengthAdjust="spacing" textLength="65" x="992.37" y="170.7285">currentKm</text><text fill="#000000" font-family="sans-serif" font-size="14" lengthAdjust="spacing" textLength="97" x="992.37" y="189.3496">acquisitionDate</text><text fill="#000000" font-family="sans-serif" font-size="14" lengthAdjust="spacing" textLength="81" x="992.37" y="207.9707">maintenance</text></g><!--class PlateCertification--><g id="elem_PlateCertification"><rect codeLine="58" fill="#F1F1F1" height="166.9688" id="PlateCertification" rx="2.5" ry="2.5" style="stroke:#181818;stroke-width:0.5;" width="113" x="984.37" y="294"/><text fill="#000000" font-family="sans-serif" font-size="14" lengthAdjust="spacing" textLength="107" x="987.37" y="314.1074">PlateCertification</text><line style="stroke:#181818;stroke-width:0.5;" x1="985.37" x2="1096.37" y1="322.6211" y2="322.6211"/><text fill="#000000" font-family="sans-serif" font-size="14" lengthAdjust="spacing" textLength="37" x="990.37" y="341.7285">brand</text><text fill="#000000" font-family="sans-serif" font-size="14" lengthAdjust="spacing" textLength="38" x="990.37" y="360.3496">model</text><text fill="#000000" font-family="sans-serif" font-size="14" lengthAdjust="spacing" textLength="27" x="990.37" y="378.9707">type</text><text fill="#000000" font-family="sans-serif" font-size="14" lengthAdjust="spacing" textLength="25" x="990.37" y="397.5918">tare</text><text fill="#000000" font-family="sans-serif" font-size="14" lengthAdjust="spacing" textLength="79" x="990.37" y="416.2129">grossWeight</text><text fill="#000000" font-family="sans-serif" font-size="14" lengthAdjust="spacing" textLength="78" x="990.37" y="434.834">registerDate</text><text fill="#000000" font-family="sans-serif" font-size="14" lengthAdjust="spacing" textLength="31" x="990.37" y="453.4551">plate</text></g><!--class VehicleCheckUp--><g id="elem_VehicleCheckUp"><rect codeLine="68" fill="#F1F1F1" height="92.4844" id="VehicleCheckUp" rx="2.5" ry="2.5" style="stroke:#181818;stroke-width:0.5;" width="109" x="994.37" y="540"/><text fill="#000000" font-family="sans-serif" font-size="14" lengthAdjust="spacing" textLength="103" x="997.37" y="560.1074">VehicleCheckUp</text><line style="stroke:#181818;stroke-width:0.5;" x1="995.37" x2="1102.37" y1="568.6211" y2="568.6211"/><text fill="#000000" font-family="sans-serif" font-size="14" lengthAdjust="spacing" textLength="28" x="1000.37" y="587.7285">date</text><text fill="#000000" font-family="sans-serif" font-size="14" lengthAdjust="spacing" textLength="34" x="1000.37" y="606.3496">place</text><text fill="#000000" font-family="sans-serif" font-size="14" lengthAdjust="spacing" textLength="25" x="1000.37" y="624.9707">kms</text></g><!--class TypeGarden--><g id="elem_TypeGarden"><rect codeLine="74" fill="#F1F1F1" height="92.4844" id="TypeGarden" rx="2.5" ry="2.5" style="stroke:#181818;stroke-width:0.5;" width="143" x="75.37" y="864"/><text fill="#000000" font-family="sans-serif" font-size="14" lengthAdjust="spacing" textLength="80" x="106.87" y="884.1074">TypeGarden</text><line style="stroke:#181818;stroke-width:0.5;" x1="76.37" x2="217.37" y1="892.6211" y2="892.6211"/><text fill="#000000" font-family="sans-serif" font-size="14" lengthAdjust="spacing" textLength="45" x="81.37" y="911.7285">garden</text><text fill="#000000" font-family="sans-serif" font-size="14" lengthAdjust="spacing" textLength="131" x="81.37" y="930.3496">mediumSizedGarden</text><text fill="#000000" font-family="sans-serif" font-size="14" lengthAdjust="spacing" textLength="114" x="81.37" y="948.9707">largeSizedGarden</text></g><!--class Agenda--><g id="elem_Agenda"><rect codeLine="80" fill="#F1F1F1" height="36.6211" id="Agenda" rx="2.5" ry="2.5" style="stroke:#181818;stroke-width:0.5;" width="55" x="94.37" y="359"/><text fill="#000000" font-family="sans-serif" font-size="14" lengthAdjust="spacing" textLength="49" x="97.37" y="379.1074">Agenda</text><line style="stroke:#181818;stroke-width:0.5;" x1="95.37" x2="148.37" y1="387.6211" y2="387.6211"/></g><!--link HumanResourceManager to Skill--><g id="link_HumanResourceManager_Skill"><path codeLine="82" d="M337.16,44.12 C302.04,78.64 227.31,159.33 199.87,245 C163.72,357.83 214.29,500.11 238.83,558.32 " fill="none" id="HumanResourceManager-Skill" style="stroke:#181818;stroke-width:1.0;"/><polygon fill="#000000" points="203.9309,259.5565,208.5164,251.2244,202.7432,250.1204,203.9309,259.5565" style="stroke:#000000;stroke-width:1.0;"/><text fill="#000000" font-family="sans-serif" font-size="13" lengthAdjust="spacing" textLength="32" x="213.87" y="260.0283">regist</text><text fill="#000000" font-family="sans-serif" font-size="13" lengthAdjust="spacing" textLength="7" x="324.1911" y="65.5268">1</text><text fill="#000000" font-family="sans-serif" font-size="13" lengthAdjust="spacing" textLength="20" x="214.0088" y="547.4393">1..*</text></g><!--link HumanResourceManager to Job--><g id="link_HumanResourceManager_Job"><path codeLine="83" d="M357.89,44.14 C367.16,125.07 405.67,461.12 416.83,558.47 " fill="none" id="HumanResourceManager-Job" style="stroke:#181818;stroke-width:1.0;"/><polygon fill="#000000" points="388.4393,259.613,390.3293,250.2921,384.4896,250.9613,388.4393,259.613" style="stroke:#000000;stroke-width:1.0;"/><text fill="#000000" font-family="sans-serif" font-size="13" lengthAdjust="spacing" textLength="32" x="396.87" y="260.0283">regist</text><text fill="#000000" font-family="sans-serif" font-size="13" lengthAdjust="spacing" textLength="7" x="350.4923" y="65.5522">1</text><text fill="#000000" font-family="sans-serif" font-size="13" lengthAdjust="spacing" textLength="20" x="393.8145" y="547.172">1..*</text></g><!--link HumanResourceManager to Collaborator--><g id="link_HumanResourceManager_Collaborator"><path codeLine="84" d="M420.77,44.12 C436.21,51.13 451.27,60.78 461.87,74 C511.58,136.01 524.51,227.64 526.58,293.8 " fill="none" id="HumanResourceManager-Collaborator" style="stroke:#181818;stroke-width:1.0;"/><polygon fill="#000000" points="525.821,173.7492,524.9976,164.2743,519.5857,166.5678,525.821,173.7492" style="stroke:#000000;stroke-width:1.0;"/><text fill="#000000" font-family="sans-serif" font-size="13" lengthAdjust="spacing" textLength="32" x="532.87" y="174.5283">regist</text><text fill="#000000" font-family="sans-serif" font-size="13" lengthAdjust="spacing" textLength="7" x="430.2713" y="65.5268">1</text><text fill="#000000" font-family="sans-serif" font-size="13" lengthAdjust="spacing" textLength="20" x="505.9307" y="282.6311">1..*</text></g><!--link HumanResourceManager to Collaborator--><g id="link_HumanResourceManager_Collaborator"><path codeLine="88" d="M370.48,44.35 C377.17,53 384.91,63.72 390.87,74 C432.1,145.25 462.3313,214.9114 486.7113,277.1114 " fill="none" id="HumanResourceManager-to-Collaborator" style="stroke:#181818;stroke-width:1.0;"/><polygon fill="none" points="493.28,293.87,492.2975,274.9218,481.1251,279.3009,493.28,293.87" style="stroke:#181818;stroke-width:1.0;"/></g><!--link HumanResourceManager to Team--><g id="link_HumanResourceManager_Team"><path codeLine="85" d="M272.33,32.21 C212.13,38.27 138.22,50.39 118.87,74 C101.38,95.34 108.29,129.47 115,150.2 " fill="none" id="HumanResourceManager-Team" style="stroke:#181818;stroke-width:1.0;"/><polygon fill="#000000" points="119.8699,86.6454,128.8694,83.5698,125.3429,78.8674,119.8699,86.6454" style="stroke:#000000;stroke-width:1.0;"/><text fill="#000000" font-family="sans-serif" font-size="13" lengthAdjust="spacing" textLength="43" x="132.87" y="89.0283">creates</text><text fill="#000000" font-family="sans-serif" font-size="13" lengthAdjust="spacing" textLength="7" x="257.306" y="29.1042">1</text><text fill="#000000" font-family="sans-serif" font-size="13" lengthAdjust="spacing" textLength="20" x="90.0444" y="139.3073">1..*</text></g><!--link FleetManager to Collaborator--><g id="link_FleetManager_Collaborator"><path codeLine="87" d="M883.78,41.15 C863.01,48.95 839.02,59.89 819.87,74 C753.62,122.81 756.96,155.74 699.87,215 C659.59,256.81 624.2519,289.309 588.2419,320.949 " fill="none" id="FleetManager-to-Collaborator" style="stroke:#181818;stroke-width:1.0;"/><polygon fill="none" points="574.72,332.83,592.2023,325.4563,584.2816,316.4417,574.72,332.83" style="stroke:#181818;stroke-width:1.0;"/></g><!--link SoftwareQualityTeamManager to Collaborator--><g id="link_SoftwareQualityTeamManager_Collaborator"><path codeLine="89" d="M574.3,44.27 C575.79,63.62 578.01,95.48 578.87,123 C580.14,163.87 585.55,174.66 578.87,215 C574.53,241.15 572.4029,251.752 563.7929,276.602 " fill="none" id="SoftwareQualityTeamManager-to-Collaborator" style="stroke:#181818;stroke-width:1.0;"/><polygon fill="none" points="557.9,293.61,569.4623,278.5663,558.1236,274.6377,557.9,293.61" style="stroke:#181818;stroke-width:1.0;"/></g><!--link GreenSpaceManager to Collaborator--><g id="link_GreenSpaceManager_Collaborator"><path codeLine="90" d="M764.92,44.34 C730.35,91.98 644.9822,209.6119 585.0822,292.1519 " fill="none" id="GreenSpaceManager-to-Collaborator" style="stroke:#181818;stroke-width:1.0;"/><polygon fill="none" points="574.51,306.72,589.9382,295.676,580.2262,288.6279,574.51,306.72" style="stroke:#181818;stroke-width:1.0;"/></g><!--link Collaborator to Job--><g id="link_Collaborator_Job"><path codeLine="92" d="M482.31,461 C464.89,495.61 445.83,533.45 433.41,558.11 " fill="none" id="Collaborator-Job" style="stroke:#181818;stroke-width:1.0;"/><polygon fill="#000000" points="473.1188,496.1797,466.4258,502.9366,471.6756,505.5802,473.1188,496.1797" style="stroke:#000000;stroke-width:1.0;"/><text fill="#000000" font-family="sans-serif" font-size="13" lengthAdjust="spacing" textLength="67" x="479.87" y="506.0283">assigned to</text><text fill="#000000" font-family="sans-serif" font-size="13" lengthAdjust="spacing" textLength="20" x="457.8791" y="482.9484">1..*</text><text fill="#000000" font-family="sans-serif" font-size="13" lengthAdjust="spacing" textLength="7" x="428.6063" y="547.1833">1</text></g><!--link Collaborator to Skill--><g id="link_Collaborator_Skill"><path codeLine="93" d="M473.23,414.76 C443.01,436.58 404.01,465.06 369.87,491 C340.52,513.3 307.68,539.32 283.95,558.33 " fill="none" id="Collaborator-Skill" style="stroke:#181818;stroke-width:1.0;"/><polygon fill="#000000" points="378.8537,497.6239,369.8711,500.7485,373.4232,505.4316,378.8537,497.6239" style="stroke:#000000;stroke-width:1.0;"/><text fill="#000000" font-family="sans-serif" font-size="13" lengthAdjust="spacing" textLength="67" x="383.87" y="506.0283">assigned to</text><text fill="#000000" font-family="sans-serif" font-size="13" lengthAdjust="spacing" textLength="5" x="460.4251" y="416.0361">*</text><text fill="#000000" font-family="sans-serif" font-size="13" lengthAdjust="spacing" textLength="5" x="285.6394" y="547.4515">*</text></g><!--link Collaborator to Address--><g id="link_Collaborator_Address"><path codeLine="94" d="M574.47,426.65 C617.55,467.65 677.86,525.04 712.79,558.28 " fill="none" id="Collaborator-Address" style="stroke:#181818;stroke-width:1.0;"/><polygon fill="#000000" points="667.492,504.0924,662.9657,495.728,658.9137,499.9859,667.492,504.0924" style="stroke:#000000;stroke-width:1.0;"/><text fill="#000000" font-family="sans-serif" font-size="13" lengthAdjust="spacing" textLength="30" x="672.87" y="506.0283">owns</text><text fill="#000000" font-family="sans-serif" font-size="13" lengthAdjust="spacing" textLength="7" x="582.4159" y="429.6725">1</text><text fill="#000000" font-family="sans-serif" font-size="13" lengthAdjust="spacing" textLength="7" x="698.8819" y="547.3905">1</text></g><!--link Address to zipCode--><g id="link_Address_zipCode"><path codeLine="95" d="M740.87,613.78 C740.87,640.38 740.87,681.34 740.87,710.83 " fill="none" id="Address-zipCode" style="stroke:#181818;stroke-width:1.0;"/><polygon fill="#000000" points="745.87,676.6455,748.8089,667.6004,742.9311,667.6004,745.87,676.6455" style="stroke:#000000;stroke-width:1.0;"/><text fill="#000000" font-family="sans-serif" font-size="13" lengthAdjust="spacing" textLength="30" x="754.87" y="677.0283">owns</text><text fill="#000000" font-family="sans-serif" font-size="13" lengthAdjust="spacing" textLength="7" x="733.1044" y="635.7499">1</text><text fill="#000000" font-family="sans-serif" font-size="13" lengthAdjust="spacing" textLength="7" x="733.2466" y="699.7614">1</text></g><!--link Team to Collaborator--><g id="link_Team_Collaborator"><path codeLine="97" d="M142.94,182.68 C174.05,201.24 234.24,236.57 286.87,264 C350.07,296.95 424.57,331.66 472.93,353.66 " fill="none" id="Team-Collaborator" style="stroke:#181818;stroke-width:1.0;"/><polygon fill="#000000" points="296.3095,256.9458,289.6305,250.1751,286.9263,255.394,296.3095,256.9458" style="stroke:#000000;stroke-width:1.0;"/><text fill="#000000" font-family="sans-serif" font-size="13" lengthAdjust="spacing" textLength="21" x="300.87" y="260.0283">has</text><text fill="#000000" font-family="sans-serif" font-size="13" lengthAdjust="spacing" textLength="7" x="150.7717" y="181.4662">1</text><text fill="#000000" font-family="sans-serif" font-size="13" lengthAdjust="spacing" textLength="20" x="445.5029" y="346.7665">1..*</text></g><!--link Team to Agenda--><g id="link_Team_Agenda"><path codeLine="98" d="M121.87,187.61 C121.87,226.62 121.87,319.97 121.87,358.94 " fill="none" id="Team-Agenda" style="stroke:#181818;stroke-width:1.0;"/><polygon fill="#000000" points="126.87,259.6455,129.8089,250.6004,123.9311,250.6004,126.87,259.6455" style="stroke:#000000;stroke-width:1.0;"/><text fill="#000000" font-family="sans-serif" font-size="13" lengthAdjust="spacing" textLength="21" x="135.87" y="260.0283">has</text><text fill="#000000" font-family="sans-serif" font-size="13" lengthAdjust="spacing" textLength="7" x="113.9294" y="209.0142">1</text><text fill="#000000" font-family="sans-serif" font-size="13" lengthAdjust="spacing" textLength="12" x="108.0325" y="347.7838">1*</text></g><!--link Team to Task--><g id="link_Team_Task"><path codeLine="99" d="M111.18,187.62 C82.31,237.23 6,382.7 21.87,510 C31.58,587.92 58.59,676.99 72.82,720.4 " fill="none" id="Team-Task" style="stroke:#181818;stroke-width:1.0;"/><polygon fill="#000000" points="27.2291,495.6584,23.6482,504.4691,29.5108,504.8912,27.2291,495.6584" style="stroke:#000000;stroke-width:1.0;"/><text fill="#000000" font-family="sans-serif" font-size="13" lengthAdjust="spacing" textLength="67" x="35.87" y="506.0283">assigned to</text><text fill="#000000" font-family="sans-serif" font-size="13" lengthAdjust="spacing" textLength="20" x="85.6196" y="209.0268">1..*</text><text fill="#000000" font-family="sans-serif" font-size="13" lengthAdjust="spacing" textLength="20" x="48.4147" y="709.0858">1..*</text></g><!--link FleetManager to Vehicle--><g id="link_FleetManager_Vehicle"><path codeLine="101" d="M944.57,44.13 C959.78,63.69 984.9,96.01 1005.68,122.74 " fill="none" id="FleetManager-Vehicle" style="stroke:#181818;stroke-width:1.0;"/><polygon fill="#000000" points="986.9387,87.593,983.7076,78.6481,979.0671,82.2557,986.9387,87.593" style="stroke:#000000;stroke-width:1.0;"/><text fill="#000000" font-family="sans-serif" font-size="13" lengthAdjust="spacing" textLength="32" x="992.87" y="89.0283">regist</text><text fill="#000000" font-family="sans-serif" font-size="13" lengthAdjust="spacing" textLength="7" x="940.3113" y="65.5395">1</text><text fill="#000000" font-family="sans-serif" font-size="13" lengthAdjust="spacing" textLength="20" x="979.0427" y="111.7112">1..*</text></g><!--link FleetManager to VehicleCheckUp--><g id="link_FleetManager_VehicleCheckUp"><path codeLine="102" d="M929.27,44.11 C924.46,104.34 913.47,306.87 966.87,461 C976.71,489.41 994.57,517.64 1011.12,539.98 " fill="none" id="FleetManager-VehicleCheckUp" style="stroke:#181818;stroke-width:1.0;"/><polygon fill="#000000" points="933.6843,259.5788,935.1109,250.1758,929.3115,251.1331,933.6843,259.5788" style="stroke:#000000;stroke-width:1.0;"/><text fill="#000000" font-family="sans-serif" font-size="13" lengthAdjust="spacing" textLength="32" x="941.87" y="260.0283">regist</text><text fill="#000000" font-family="sans-serif" font-size="13" lengthAdjust="spacing" textLength="7" x="929.7806" y="65.5142">1</text><text fill="#000000" font-family="sans-serif" font-size="13" lengthAdjust="spacing" textLength="20" x="983.8083" y="528.6451">1..*</text></g><!--link FleetManager to Address--><g id="link_FleetManager_Address"><path codeLine="103" d="M924.87,44.14 C897.33,125.07 783.01,461.12 749.89,558.47 " fill="none" id="FleetManager-Address" style="stroke:#181818;stroke-width:1.0;"/><polygon fill="#000000" points="858.2596,259.3791,863.9552,251.7625,858.3905,249.8694,858.2596,259.3791" style="stroke:#000000;stroke-width:1.0;"/><text fill="#000000" font-family="sans-serif" font-size="13" lengthAdjust="spacing" textLength="30" x="868.87" y="260.0283">owns</text><text fill="#000000" font-family="sans-serif" font-size="13" lengthAdjust="spacing" textLength="7" x="915.3169" y="65.5522">1</text><text fill="#000000" font-family="sans-serif" font-size="13" lengthAdjust="spacing" textLength="7" x="744.1665" y="547.172">1</text></g><!--link Vehicle to VehicleCheckUp--><g id="link_Vehicle_VehicleCheckUp"><path codeLine="105" d="M1077.81,215.13 C1093.28,237.38 1109.02,265.51 1114.87,294 C1129.79,366.71 1132.84,388.99 1114.87,461 C1107.93,488.8 1093.45,517.21 1079.82,539.8 " fill="none" id="Vehicle-VehicleCheckUp" style="stroke:#181818;stroke-width:1.0;"/><polygon fill="#000000" points="1131.839,372.6456,1128.9562,381.7087,1134.8339,381.6723,1131.839,372.6456" style="stroke:#000000;stroke-width:1.0;"/><text fill="#000000" font-family="sans-serif" font-size="13" lengthAdjust="spacing" textLength="67" x="1140.87" y="383.0283">assigned to</text><text fill="#000000" font-family="sans-serif" font-size="13" lengthAdjust="spacing" textLength="7" x="1075.9305" y="237.5087">1</text><text fill="#000000" font-family="sans-serif" font-size="13" lengthAdjust="spacing" textLength="5" x="1078.9986" y="528.7801">*</text></g><!--link Vehicle to PlateCertification--><g id="link_Vehicle_PlateCertification"><path codeLine="106" d="M1040.87,215.06 C1040.87,238.08 1040.87,266.84 1040.87,293.67 " fill="none" id="Vehicle-PlateCertification" style="stroke:#181818;stroke-width:1.0;"/><polygon fill="#000000" points="1045.87,259.6455,1048.8089,250.6004,1042.9311,250.6004,1045.87,259.6455" style="stroke:#000000;stroke-width:1.0;"/><text fill="#000000" font-family="sans-serif" font-size="13" lengthAdjust="spacing" textLength="30" x="1054.87" y="260.0283">owns</text><text fill="#000000" font-family="sans-serif" font-size="13" lengthAdjust="spacing" textLength="7" x="1033.3341" y="237.428">1</text><text fill="#000000" font-family="sans-serif" font-size="13" lengthAdjust="spacing" textLength="7" x="1033.5692" y="282.7776">1</text></g><!--link Agenda to Task--><g id="link_Agenda_Task"><path codeLine="108" d="M120.79,396.39 C119.2,421.72 115.97,469.45 111.87,510 C104.12,586.54 91.85,676.6 85.67,720.39 " fill="none" id="Agenda-Task" style="stroke:#181818;stroke-width:1.0;"/><polygon fill="#000000" points="113.3312,591.1164,117.2277,582.4407,111.3841,581.8073,113.3312,591.1164" style="stroke:#000000;stroke-width:1.0;"/><text fill="#000000" font-family="sans-serif" font-size="13" lengthAdjust="spacing" textLength="21" x="122.87" y="591.5283">has</text><text fill="#000000" font-family="sans-serif" font-size="13" lengthAdjust="spacing" textLength="7" x="112.6164" y="417.5228">1</text><text fill="#000000" font-family="sans-serif" font-size="13" lengthAdjust="spacing" textLength="7" x="78.7394" y="709.0735">1</text></g><!--link Task to TypeGarden--><g id="link_Task_TypeGarden"><path codeLine="110" d="M75.68,775.55 C72.92,792.78 71.69,815.4 78.87,834 C82.98,844.66 89.39,854.74 96.66,863.85 " fill="none" id="Task-TypeGarden" style="stroke:#181818;stroke-width:1.0;"/><polygon fill="#000000" points="85.0258,829.5101,85.7942,820.0306,80.0756,821.3894,85.0258,829.5101" style="stroke:#000000;stroke-width:1.0;"/><text fill="#000000" font-family="sans-serif" font-size="13" lengthAdjust="spacing" textLength="75" x="92.87" y="830.0283">carried out in</text><text fill="#000000" font-family="sans-serif" font-size="13" lengthAdjust="spacing" textLength="20" x="51.9361" y="797.9205">1..*</text><text fill="#000000" font-family="sans-serif" font-size="13" lengthAdjust="spacing" textLength="20" x="67.8167" y="852.8374">1..*</text></g><!--link GreenSpaceUser to TypeGarden--><g id="link_GreenSpaceUser_TypeGarden"><path codeLine="112" d="M204.66,766.73 C195.21,790 178.28,831.67 165.18,863.92 " fill="none" id="GreenSpaceUser-TypeGarden" style="stroke:#181818;stroke-width:1.0;"/><polygon fill="#000000" points="186.9883,829.2779,193.1152,822.0039,187.6695,819.7918,186.9883,829.2779" style="stroke:#000000;stroke-width:1.0;"/><text fill="#000000" font-family="sans-serif" font-size="13" lengthAdjust="spacing" textLength="21" x="197.87" y="830.0283">use</text><text fill="#000000" font-family="sans-serif" font-size="13" lengthAdjust="spacing" textLength="20" x="180.0348" y="788.1664">1..*</text><text fill="#000000" font-family="sans-serif" font-size="13" lengthAdjust="spacing" textLength="20" x="146.4525" y="852.576">1..*</text></g><!--SRC=[bLJRRXCn47tVhx3oY9IAl4QeKXL42eWAI0lF4tkoQ-9B67iLfS2_uxMzrqIfkYyxzfov-9ontLwQ0n1efgsnl2AhaNcgiN2Tvm1y3oLk_4aX8-GUJAc605U1i4TfIhO3vOOUhi2vE-z9RckF7xar6_cCx6rHIO6CI-8XKRGr-ieALnH5Z64hgnHiBO6tnFuKB7m6D4OZR9ltuDC2XExiGsKDFjHwYnJNg46gQ4cn0XBPp8X_RQqx8GZ3FvKHrj8KyImFAnkwJ0XbEQIqpXEYxt7tjGRp7PsjYUCNC86sq7td_g02-dnxOtV-28JVQb3IdnuHz3be7IgPJT02h_cUt3ZpNYgLktQD_T1msBa_sMrs_hBRiUiHt3xxV30dpj3XeCeFh6GGCiDvJOJ6VzP97lwxbavwQNl9WYh6em731pc_gk1U8NcvanmQVCwt9J19EHqaIBpxqm5pRvICagnpFr6MbOzhmb8wZzJFHfE_cFQygf3ldmwjz0CmJzPUky6vGzbrc2DiUolZ8ZM7GjQw6M-nxdSLKBWvWyr-w4eq0YAB5wTcjfYn-NoskBbvCyiwBlEfsEsr49PZ6d5V5p6wSwyBZHEnP9mmKEX2J36QzVby_lTsbFzoqWkuAvVZ0lhybbm05QE3vXF4ixIi1O5aQL0mRzcx2JnZ1wfSGo-wpFcLMJ9xD0r3xQipWBJFJ8Sf8gzNLQgW0Ovn0PN7Q-BlJvfKQoxvjF-nSkFQxKqV3CVBwFQElHXqpb7H5aoOHFjPsd7_uv3uk_2sz2KoKrs5HSTBegw8gtFk-hSWp3qGoT20hJsJfWcQFCdNmsk7JSn_]--></g></svg>