<?xml version="1.0" encoding="us-ascii" standalone="no"?><svg xmlns="http://www.w3.org/2000/svg" xmlns:xlink="http://www.w3.org/1999/xlink" contentStyleType="text/css" height="950px" preserveAspectRatio="none" style="width:963px;height:950px;background:#FFFFFF;" version="1.1" viewBox="0 0 963 950" width="963px" zoomAndPan="magnify"><defs/><g><!--class MusgoSublime--><g id="elem_MusgoSublime"><rect codeLine="9" fill="#F1F1F1" height="36.6211" id="MusgoSublime" rx="2.5" ry="2.5" style="stroke:#181818;stroke-width:0.5;" width="98" x="343.87" y="130.2627"/><text fill="#000000" font-family="sans-serif" font-size="14" lengthAdjust="spacing" textLength="92" x="346.87" y="150.3701">MusgoSublime</text><line style="stroke:#181818;stroke-width:0.5;" x1="344.87" x2="440.87" y1="158.8838" y2="158.8838"/></g><!--class HumanResourceManager--><g id="elem_HumanResourceManager"><rect codeLine="12" fill="#F1F1F1" height="185.5898" id="HumanResourceManager" rx="2.5" ry="2.5" style="stroke:#181818;stroke-width:0.5;" width="167" x="675.37" y="55.7627"/><text fill="#000000" font-family="sans-serif" font-size="14" lengthAdjust="spacing" textLength="161" x="678.37" y="75.8701">HumanResourceManager</text><line style="stroke:#181818;stroke-width:0.5;" x1="676.37" x2="841.37" y1="84.3838" y2="84.3838"/><text fill="#000000" font-family="sans-serif" font-size="14" lengthAdjust="spacing" textLength="35" x="681.37" y="103.4912">name</text><text fill="#000000" font-family="sans-serif" font-size="14" lengthAdjust="spacing" textLength="59" x="681.37" y="122.1123">bornDate</text><text fill="#000000" font-family="sans-serif" font-size="14" lengthAdjust="spacing" textLength="57" x="681.37" y="140.7334">admDate</text><text fill="#000000" font-family="sans-serif" font-size="14" lengthAdjust="spacing" textLength="51" x="681.37" y="159.3545">address</text><text fill="#000000" font-family="sans-serif" font-size="14" lengthAdjust="spacing" textLength="89" x="681.37" y="177.9756">phoneNumber</text><text fill="#000000" font-family="sans-serif" font-size="14" lengthAdjust="spacing" textLength="33" x="681.37" y="196.5967">email</text><text fill="#000000" font-family="sans-serif" font-size="14" lengthAdjust="spacing" textLength="42" x="681.37" y="215.2178">idCard</text><text fill="#000000" font-family="sans-serif" font-size="14" lengthAdjust="spacing" textLength="60" x="681.37" y="233.8389">idNumber</text></g><!--class Collaborator--><g id="elem_Collaborator"><rect codeLine="23" fill="#F1F1F1" height="185.5898" id="Collaborator" rx="2.5" ry="2.5" style="stroke:#181818;stroke-width:0.5;" width="101" x="615.37" y="622.7627"/><text fill="#000000" font-family="sans-serif" font-size="14" lengthAdjust="spacing" textLength="78" x="626.87" y="642.8701">Collaborator</text><line style="stroke:#181818;stroke-width:0.5;" x1="616.37" x2="715.37" y1="651.3838" y2="651.3838"/><text fill="#000000" font-family="sans-serif" font-size="14" lengthAdjust="spacing" textLength="35" x="621.37" y="670.4912">name</text><text fill="#000000" font-family="sans-serif" font-size="14" lengthAdjust="spacing" textLength="59" x="621.37" y="689.1123">bornDate</text><text fill="#000000" font-family="sans-serif" font-size="14" lengthAdjust="spacing" textLength="57" x="621.37" y="707.7334">admDate</text><text fill="#000000" font-family="sans-serif" font-size="14" lengthAdjust="spacing" textLength="51" x="621.37" y="726.3545">address</text><text fill="#000000" font-family="sans-serif" font-size="14" lengthAdjust="spacing" textLength="89" x="621.37" y="744.9756">phoneNumber</text><text fill="#000000" font-family="sans-serif" font-size="14" lengthAdjust="spacing" textLength="33" x="621.37" y="763.5967">email</text><text fill="#000000" font-family="sans-serif" font-size="14" lengthAdjust="spacing" textLength="42" x="621.37" y="782.2178">idCard</text><text fill="#000000" font-family="sans-serif" font-size="14" lengthAdjust="spacing" textLength="60" x="621.37" y="800.8389">idNumber</text></g><!--class FleetManager--><g id="elem_FleetManager"><rect codeLine="34" fill="#F1F1F1" height="185.5898" id="FleetManager" rx="2.5" ry="2.5" style="stroke:#181818;stroke-width:0.5;" width="101" x="512.37" y="55.7627"/><text fill="#000000" font-family="sans-serif" font-size="14" lengthAdjust="spacing" textLength="88" x="518.87" y="75.8701">FleetManager</text><line style="stroke:#181818;stroke-width:0.5;" x1="513.37" x2="612.37" y1="84.3838" y2="84.3838"/><text fill="#000000" font-family="sans-serif" font-size="14" lengthAdjust="spacing" textLength="35" x="518.37" y="103.4912">name</text><text fill="#000000" font-family="sans-serif" font-size="14" lengthAdjust="spacing" textLength="59" x="518.37" y="122.1123">bornDate</text><text fill="#000000" font-family="sans-serif" font-size="14" lengthAdjust="spacing" textLength="57" x="518.37" y="140.7334">admDate</text><text fill="#000000" font-family="sans-serif" font-size="14" lengthAdjust="spacing" textLength="51" x="518.37" y="159.3545">address</text><text fill="#000000" font-family="sans-serif" font-size="14" lengthAdjust="spacing" textLength="89" x="518.37" y="177.9756">phoneNumber</text><text fill="#000000" font-family="sans-serif" font-size="14" lengthAdjust="spacing" textLength="33" x="518.37" y="196.5967">email</text><text fill="#000000" font-family="sans-serif" font-size="14" lengthAdjust="spacing" textLength="42" x="518.37" y="215.2178">idCard</text><text fill="#000000" font-family="sans-serif" font-size="14" lengthAdjust="spacing" textLength="60" x="518.37" y="233.8389">idNumber</text></g><!--class Skill--><g id="elem_Skill"><rect codeLine="45" fill="#F1F1F1" height="55.2422" id="Skill" rx="2.5" ry="2.5" style="stroke:#181818;stroke-width:0.5;" width="71" x="673.37" y="887.7627"/><text fill="#000000" font-family="sans-serif" font-size="14" lengthAdjust="spacing" textLength="25" x="696.37" y="907.8701">Skill</text><line style="stroke:#181818;stroke-width:0.5;" x1="674.37" x2="743.37" y1="916.3838" y2="916.3838"/><text fill="#000000" font-family="sans-serif" font-size="14" lengthAdjust="spacing" textLength="59" x="679.37" y="935.4912">skillName</text></g><!--class Job--><g id="elem_Job"><rect codeLine="49" fill="#F1F1F1" height="55.2422" id="Job" rx="2.5" ry="2.5" style="stroke:#181818;stroke-width:0.5;" width="67" x="553.37" y="887.7627"/><text fill="#000000" font-family="sans-serif" font-size="14" lengthAdjust="spacing" textLength="22" x="575.87" y="907.8701">Job</text><line style="stroke:#181818;stroke-width:0.5;" x1="554.37" x2="619.37" y1="916.3838" y2="916.3838"/><text fill="#000000" font-family="sans-serif" font-size="14" lengthAdjust="spacing" textLength="55" x="559.37" y="935.4912">jobName</text></g><!--class Team--><g id="elem_Team"><rect codeLine="53" fill="#F1F1F1" height="36.6211" id="Team" rx="2.5" ry="2.5" style="stroke:#181818;stroke-width:0.5;" width="42" x="644.87" y="413.7627"/><text fill="#000000" font-family="sans-serif" font-size="14" lengthAdjust="spacing" textLength="36" x="647.87" y="433.8701">Team</text><line style="stroke:#181818;stroke-width:0.5;" x1="645.87" x2="685.87" y1="442.3838" y2="442.3838"/></g><!--class Vehicle--><g id="elem_Vehicle"><rect codeLine="56" fill="#F1F1F1" height="222.832" id="Vehicle" rx="2.5" ry="2.5" style="stroke:#181818;stroke-width:0.5;" width="109" x="277.37" y="320.7627"/><text fill="#000000" font-family="sans-serif" font-size="14" lengthAdjust="spacing" textLength="46" x="308.87" y="340.8701">Vehicle</text><line style="stroke:#181818;stroke-width:0.5;" x1="278.37" x2="385.37" y1="349.3838" y2="349.3838"/><text fill="#000000" font-family="sans-serif" font-size="14" lengthAdjust="spacing" textLength="37" x="283.37" y="368.4912">brand</text><text fill="#000000" font-family="sans-serif" font-size="14" lengthAdjust="spacing" textLength="38" x="283.37" y="387.1123">model</text><text fill="#000000" font-family="sans-serif" font-size="14" lengthAdjust="spacing" textLength="27" x="283.37" y="405.7334">type</text><text fill="#000000" font-family="sans-serif" font-size="14" lengthAdjust="spacing" textLength="25" x="283.37" y="424.3545">tare</text><text fill="#000000" font-family="sans-serif" font-size="14" lengthAdjust="spacing" textLength="79" x="283.37" y="442.9756">grossWeight</text><text fill="#000000" font-family="sans-serif" font-size="14" lengthAdjust="spacing" textLength="65" x="283.37" y="461.5967">currentKm</text><text fill="#000000" font-family="sans-serif" font-size="14" lengthAdjust="spacing" textLength="78" x="283.37" y="480.2178">registerDate</text><text fill="#000000" font-family="sans-serif" font-size="14" lengthAdjust="spacing" textLength="97" x="283.37" y="498.8389">acquisitionDate</text><text fill="#000000" font-family="sans-serif" font-size="14" lengthAdjust="spacing" textLength="81" x="283.37" y="517.46">maintenance</text><text fill="#000000" font-family="sans-serif" font-size="14" lengthAdjust="spacing" textLength="31" x="283.37" y="536.0811">plate</text></g><!--class VehicleCheckUp--><g id="elem_VehicleCheckUp"><rect codeLine="69" fill="#F1F1F1" height="73.8633" id="VehicleCheckUp" rx="2.5" ry="2.5" style="stroke:#181818;stroke-width:0.5;" width="109" x="374.37" y="678.7627"/><text fill="#000000" font-family="sans-serif" font-size="14" lengthAdjust="spacing" textLength="103" x="377.37" y="698.8701">VehicleCheckUp</text><line style="stroke:#181818;stroke-width:0.5;" x1="375.37" x2="482.37" y1="707.3838" y2="707.3838"/><text fill="#000000" font-family="sans-serif" font-size="14" lengthAdjust="spacing" textLength="30" x="380.37" y="726.4912">Date</text><text fill="#000000" font-family="sans-serif" font-size="14" lengthAdjust="spacing" textLength="35" x="380.37" y="745.1123">Place</text></g><!--link MusgoSublime to HumanResourceManager--><g id="link_MusgoSublime_HumanResourceManager"><path codeLine="74" d="M406.25,129.8427 C427.78,101.2727 473.19,48.3827 526.87,28.7627 C577.98,10.0827 632.15,35.2827 675.28,67.3327 " fill="none" id="MusgoSublime-HumanResourceManager" style="stroke:#181818;stroke-width:1.0;"/><polygon fill="#000000" points="536.7403,15.2766,527.2647,14.461,528.595,20.1864,536.7403,15.2766" style="stroke:#000000;stroke-width:1.0;"/><text fill="#000000" font-family="sans-serif" font-size="13" lengthAdjust="spacing" textLength="21" x="540.87" y="21.791">has</text><text fill="#000000" font-family="sans-serif" font-size="13" lengthAdjust="spacing" textLength="7" x="402.1523" y="118.9148">1</text><text fill="#000000" font-family="sans-serif" font-size="13" lengthAdjust="spacing" textLength="20" x="647.2371" y="56.6628">1..*</text></g><!--link MusgoSublime to Collaborator--><g id="link_MusgoSublime_Collaborator"><path codeLine="75" d="M395.8,167.5427 C399.7,191.2927 406.83,234.6927 412.87,271.7627 C432.55,392.6327 395.73,437.6527 456.87,543.7627 C494.2,608.5527 566.14,658.9927 615.08,687.8027 " fill="none" id="MusgoSublime-Collaborator" style="stroke:#181818;stroke-width:1.0;"/><polygon fill="#000000" points="463.812,437.0157,463.0071,427.5392,457.5907,429.8221,463.812,437.0157" style="stroke:#000000;stroke-width:1.0;"/><text fill="#000000" font-family="sans-serif" font-size="13" lengthAdjust="spacing" textLength="21" x="470.87" y="437.791">has</text><text fill="#000000" font-family="sans-serif" font-size="13" lengthAdjust="spacing" textLength="7" x="388.6468" y="188.9925">1</text><text fill="#000000" font-family="sans-serif" font-size="13" lengthAdjust="spacing" textLength="20" x="587.2913" y="680.2045">1..*</text></g><!--link MusgoSublime to FleetManager--><g id="link_MusgoSublime_FleetManager"><path codeLine="76" d="M442.04,148.7627 C464.1,148.7627 490.11,148.7627 512.33,148.7627 " fill="none" id="MusgoSublime-FleetManager" style="stroke:#181818;stroke-width:1.0;"/><polygon fill="#000000" points="469.12,136.4082,460.0749,133.4693,460.0749,139.3471,469.12,136.4082" style="stroke:#000000;stroke-width:1.0;"/><text fill="#000000" font-family="sans-serif" font-size="13" lengthAdjust="spacing" textLength="21" x="473.12" y="141.791">has</text><text fill="#000000" font-family="sans-serif" font-size="13" lengthAdjust="spacing" textLength="7" x="449.7759" y="144.5918">1</text><text fill="#000000" font-family="sans-serif" font-size="13" lengthAdjust="spacing" textLength="20" x="484.1949" y="163.9803">1..*</text></g><!--link MusgoSublime to Skill--><g id="link_MusgoSublime_Skill"><path codeLine="77" d="M372.3,167.4327 C340.89,195.9327 282.27,255.4827 259.87,320.7627 C188.1,529.9227 194.62,658.5227 356.87,808.7627 C452.06,896.9027 514.55,847.4927 637.87,887.7627 C649.5,891.5627 662.05,896.0927 673.32,900.3327 " fill="none" id="MusgoSublime-Skill" style="stroke:#181818;stroke-width:1.0;"/><polygon fill="#000000" points="228.7696,588.0333,228.0517,578.5499,222.6146,580.783,228.7696,588.0333" style="stroke:#000000;stroke-width:1.0;"/><text fill="#000000" font-family="sans-serif" font-size="13" lengthAdjust="spacing" textLength="30" x="235.87" y="588.791">owns</text><text fill="#000000" font-family="sans-serif" font-size="13" lengthAdjust="spacing" textLength="7" x="358.8312" y="188.853">1</text><text fill="#000000" font-family="sans-serif" font-size="13" lengthAdjust="spacing" textLength="20" x="645.4911" y="893.3382">1..*</text></g><!--link MusgoSublime to Job--><g id="link_MusgoSublime_Job"><path codeLine="78" d="M343.98,167.2827 C298.88,186.0527 233.64,220.2727 197.87,271.7627 C49.29,485.6627 6,681.6527 197.87,857.7627 C249.46,905.1227 468.38,912.8627 553.15,914.0627 " fill="none" id="MusgoSublime-Job" style="stroke:#181818;stroke-width:1.0;"/><polygon fill="#000000" points="77.2186,588.2229,77.609,578.7204,71.949,580.3057,77.2186,588.2229" style="stroke:#000000;stroke-width:1.0;"/><text fill="#000000" font-family="sans-serif" font-size="13" lengthAdjust="spacing" textLength="30" x="84.87" y="588.791">owns</text><text fill="#000000" font-family="sans-serif" font-size="13" lengthAdjust="spacing" textLength="7" x="328.9578" y="165.8966">1</text><text fill="#000000" font-family="sans-serif" font-size="13" lengthAdjust="spacing" textLength="20" x="525.3624" y="909.3676">1..*</text></g><!--link MusgoSublime to Team--><g id="link_MusgoSublime_Team"><path codeLine="79" d="M410.52,167.3127 C430.27,186.5627 463.6,217.8727 494.87,241.7627 C546.5,281.2027 575.77,271.2727 617.87,320.7627 C641.58,348.6427 655.31,390.0427 661.62,413.4527 " fill="none" id="MusgoSublime-Team" style="stroke:#181818;stroke-width:1.0;"/><polygon fill="#000000" points="590.4406,284.9083,586.0386,276.4778,581.924,280.6753,590.4406,284.9083" style="stroke:#000000;stroke-width:1.0;"/><text fill="#000000" font-family="sans-serif" font-size="13" lengthAdjust="spacing" textLength="30" x="595.87" y="286.791">owns</text><text fill="#000000" font-family="sans-serif" font-size="13" lengthAdjust="spacing" textLength="7" x="407.4997" y="189.043">1</text><text fill="#000000" font-family="sans-serif" font-size="13" lengthAdjust="spacing" textLength="20" x="637.4341" y="402.5571">1..*</text></g><!--link MusgoSublime to Vehicle--><g id="link_MusgoSublime_Vehicle"><path codeLine="80" d="M388.44,167.4927 C382.58,191.2027 372.02,234.5427 363.87,271.7627 C360.42,287.4927 356.93,304.1227 353.57,320.4727 " fill="none" id="MusgoSublime-Vehicle" style="stroke:#181818;stroke-width:1.0;"/><polygon fill="#000000" points="367.7588,286.2832,372.6344,278.1174,366.9035,276.8111,367.7588,286.2832" style="stroke:#000000;stroke-width:1.0;"/><text fill="#000000" font-family="sans-serif" font-size="13" lengthAdjust="spacing" textLength="30" x="377.87" y="286.791">owns</text><text fill="#000000" font-family="sans-serif" font-size="13" lengthAdjust="spacing" textLength="7" x="379.3088" y="188.9291">1</text><text fill="#000000" font-family="sans-serif" font-size="13" lengthAdjust="spacing" textLength="20" x="334.3561" y="309.4345">1..*</text></g><!--link HumanResourceManager to Skill--><g id="link_HumanResourceManager_Skill"><path codeLine="81" d="M842.6,215.3227 C858.59,231.9627 873.3,251.0627 882.87,271.7627 C942.89,401.5627 910.79,449.8827 904.87,592.7627 C899.98,710.8427 956.24,765.1127 882.87,857.7627 C849.74,899.5927 785.16,910.8527 744.67,913.6527 " fill="none" id="HumanResourceManager-Skill" style="stroke:#181818;stroke-width:1.0;"/><polygon fill="#000000" points="909.1756,588.3598,913.3422,579.8105,907.5213,578.9942,909.1756,588.3598" style="stroke:#000000;stroke-width:1.0;"/><text fill="#000000" font-family="sans-serif" font-size="13" lengthAdjust="spacing" textLength="32" x="918.87" y="588.791">regist</text><text fill="#000000" font-family="sans-serif" font-size="13" lengthAdjust="spacing" textLength="7" x="850.3689" y="217.5532">1</text><text fill="#000000" font-family="sans-serif" font-size="13" lengthAdjust="spacing" textLength="20" x="752.2556" y="909.0106">1..*</text></g><!--link HumanResourceManager to Job--><g id="link_HumanResourceManager_Job"><path codeLine="82" d="M795.63,242.0227 C803.98,267.1627 811.63,294.6627 815.87,320.7627 C835.01,438.7427 864.64,767.8827 785.87,857.7627 C746.79,902.3527 712.57,870.4227 655.87,887.7627 C644.21,891.3227 631.7,895.8927 620.58,900.2327 " fill="none" id="HumanResourceManager-Job" style="stroke:#181818;stroke-width:1.0;"/><polygon fill="#000000" points="840.5849,588.2402,845.7498,580.2543,840.0694,578.7437,840.5849,588.2402" style="stroke:#000000;stroke-width:1.0;"/><text fill="#000000" font-family="sans-serif" font-size="13" lengthAdjust="spacing" textLength="32" x="850.87" y="588.791">regist</text><text fill="#000000" font-family="sans-serif" font-size="13" lengthAdjust="spacing" textLength="7" x="790.9686" y="263.2307">1</text><text fill="#000000" font-family="sans-serif" font-size="13" lengthAdjust="spacing" textLength="20" x="628.3658" y="893.0741">1..*</text></g><!--link HumanResourceManager to Collaborator--><g id="link_HumanResourceManager_Collaborator"><path codeLine="83" d="M766.3,242.0027 C766.61,258.2627 766.29,275.0227 764.87,290.7627 C752.6,426.6427 745.36,461.0327 709.87,592.7627 C707.23,602.5427 704.16,612.6627 700.9,622.6827 " fill="none" id="HumanResourceManager-Collaborator" style="stroke:#181818;stroke-width:1.0;"/><polygon fill="#000000" points="765.0234,437.336,769.4514,428.9191,763.6584,427.9239,765.0234,437.336" style="stroke:#000000;stroke-width:1.0;"/><text fill="#000000" font-family="sans-serif" font-size="13" lengthAdjust="spacing" textLength="32" x="774.87" y="437.791">regist</text><text fill="#000000" font-family="sans-serif" font-size="13" lengthAdjust="spacing" textLength="7" x="759.5886" y="263.5283">1</text><text fill="#000000" font-family="sans-serif" font-size="13" lengthAdjust="spacing" textLength="20" x="682.8946" y="611.6443">1..*</text></g><!--link HumanResourceManager to Team--><g id="link_HumanResourceManager_Team"><path codeLine="84" d="M714.22,241.8927 C710.1,251.8627 706.22,261.9527 702.87,271.7627 C685.69,322.0627 673.86,383.9827 668.74,413.7127 " fill="none" id="HumanResourceManager-Team" style="stroke:#181818;stroke-width:1.0;"/><polygon fill="#000000" points="706.5906,286.2417,711.7462,278.2498,706.064,276.7458,706.5906,286.2417" style="stroke:#000000;stroke-width:1.0;"/><text fill="#000000" font-family="sans-serif" font-size="13" lengthAdjust="spacing" textLength="43" x="716.87" y="286.791">creates</text><text fill="#000000" font-family="sans-serif" font-size="13" lengthAdjust="spacing" textLength="7" x="703.684" y="263.4102">1</text><text fill="#000000" font-family="sans-serif" font-size="13" lengthAdjust="spacing" textLength="20" x="672.6814" y="402.5595">1..*</text></g><!--link Collaborator to Job--><g id="link_Collaborator_Job"><path codeLine="85" d="M615.35,806.0627 C610.33,816.8827 605.69,827.9427 601.87,838.7627 C596.3,854.5127 592.6,872.8827 590.26,887.5627 " fill="none" id="Collaborator-Job" style="stroke:#181818;stroke-width:1.0;"/><polygon fill="#000000" points="608.3411,843.6295,602.871,851.4095,608.4887,853.1389,608.3411,843.6295" style="stroke:#000000;stroke-width:1.0;"/><text fill="#000000" font-family="sans-serif" font-size="13" lengthAdjust="spacing" textLength="67" x="615.87" y="853.791">assigned to</text><text fill="#000000" font-family="sans-serif" font-size="13" lengthAdjust="spacing" textLength="20" x="587.2176" y="814.13">1..*</text><text fill="#000000" font-family="sans-serif" font-size="13" lengthAdjust="spacing" textLength="7" x="583.2359" y="876.6776">1</text></g><!--link Collaborator to Skill--><g id="link_Collaborator_Skill"><path codeLine="86" d="M685.92,808.8627 C692.18,837.6227 698.61,867.1427 703.06,887.5927 " fill="none" id="Collaborator-Skill" style="stroke:#181818;stroke-width:1.0;"/><polygon fill="#000000" points="699.8064,843.5226,698.8588,852.9859,704.6021,851.7355,699.8064,843.5226" style="stroke:#000000;stroke-width:1.0;"/><text fill="#000000" font-family="sans-serif" font-size="13" lengthAdjust="spacing" textLength="67" x="709.87" y="853.791">assigned to</text><text fill="#000000" font-family="sans-serif" font-size="13" lengthAdjust="spacing" textLength="5" x="682.2088" y="830.378">*</text><text fill="#000000" font-family="sans-serif" font-size="13" lengthAdjust="spacing" textLength="5" x="696.2422" y="876.7142">*</text></g><!--link Team to Collaborator--><g id="link_Team_Collaborator"><path codeLine="87" d="M665.87,450.8727 C665.87,484.6927 665.87,560.8827 665.87,622.7427 " fill="none" id="Team-Collaborator" style="stroke:#181818;stroke-width:1.0;"/><polygon fill="#000000" points="670.87,588.4082,673.8089,579.3631,667.9311,579.3631,670.87,588.4082" style="stroke:#000000;stroke-width:1.0;"/><text fill="#000000" font-family="sans-serif" font-size="13" lengthAdjust="spacing" textLength="21" x="679.87" y="588.791">has</text><text fill="#000000" font-family="sans-serif" font-size="13" lengthAdjust="spacing" textLength="7" x="657.9294" y="472.2768">1</text><text fill="#000000" font-family="sans-serif" font-size="13" lengthAdjust="spacing" textLength="20" x="645.0419" y="611.3929">1..*</text></g><!--link FleetManager to Vehicle--><g id="link_FleetManager_Vehicle"><path codeLine="88" d="M512.07,205.8127 C482.72,238.7427 445.47,281.4927 413.87,320.7627 C404.81,332.0227 395.45,344.1327 386.44,356.0627 " fill="none" id="FleetManager-Vehicle" style="stroke:#181818;stroke-width:1.0;"/><polygon fill="#000000" points="454.6627,285.244,462.7194,280.1902,458.2101,276.4198,454.6627,285.244" style="stroke:#000000;stroke-width:1.0;"/><text fill="#000000" font-family="sans-serif" font-size="13" lengthAdjust="spacing" textLength="32" x="466.87" y="286.791">regist</text><text fill="#000000" font-family="sans-serif" font-size="13" lengthAdjust="spacing" textLength="7" x="497.4341" y="209.7177">1</text><text fill="#000000" font-family="sans-serif" font-size="13" lengthAdjust="spacing" textLength="20" x="394.3095" y="342.7962">1..*</text></g><!--link FleetManager to VehicleCheckUp--><g id="link_FleetManager_VehicleCheckUp"><path codeLine="89" d="M554.75,241.8827 C546.14,322.6127 529.68,442.5327 500.87,543.7627 C487.16,591.9427 463.54,644.6827 447.11,678.6627 " fill="none" id="FleetManager-VehicleCheckUp" style="stroke:#181818;stroke-width:1.0;"/><polygon fill="#000000" points="547.6736,437.263,552.6915,429.1839,546.9844,427.7774,547.6736,437.263" style="stroke:#000000;stroke-width:1.0;"/><text fill="#000000" font-family="sans-serif" font-size="13" lengthAdjust="spacing" textLength="32" x="557.87" y="437.791">regist</text><text fill="#000000" font-family="sans-serif" font-size="13" lengthAdjust="spacing" textLength="7" x="546.8967" y="263.3995">1</text><text fill="#000000" font-family="sans-serif" font-size="13" lengthAdjust="spacing" textLength="20" x="428.5778" y="667.6066">1..*</text></g><!--link Vehicle to VehicleCheckUp--><g id="link_Vehicle_VehicleCheckUp"><path codeLine="90" d="M370.07,544.1127 C386.55,591.9627 404.71,644.6427 416.42,678.6327 " fill="none" id="Vehicle-VehicleCheckUp" style="stroke:#181818;stroke-width:1.0;"/><polygon fill="#000000" points="389.2412,578.6809,389.4091,588.19,394.9664,586.2752,389.2412,578.6809" style="stroke:#000000;stroke-width:1.0;"/><text fill="#000000" font-family="sans-serif" font-size="13" lengthAdjust="spacing" textLength="67" x="399.87" y="588.791">assigned to</text><text fill="#000000" font-family="sans-serif" font-size="13" lengthAdjust="spacing" textLength="7" x="365.1845" y="565.4888">1</text><text fill="#000000" font-family="sans-serif" font-size="13" lengthAdjust="spacing" textLength="5" x="408.757" y="667.5713">*</text></g><!--SRC=[nPHDZzGm38Rl_HNH795OmNM4aD0Wn8TsXHW-pcvYsZ19N9n4gmNntqdJjDkiHZEp5-YXiiUFuzUrC_wWtG0CLbXo97icYo9mnCOlaG7a0JhSXpk3Wb46S9rP0xu7HRVQTU8x6B-EI0FUlmg1THi3lfFazleNYcTDhnKAgLccWx9jCVIaVDCqEKTSHz_HFhP69q6_cp_pxs-Z1VS9FKMMU0qk2UCK5-bnO34RBR5x3M5oGDcLhHYzp_RGayERQ5laxAC5RRAbrGvO5RCGI_qT6GEf00JwftNV6CJm7_hT7xGnfQ0VxPknwX9-Jsq9_g2s3dt6j02hoNt5NgTn5xnbS5DDImed8U5kc7G7uCdecBp_XhhhG_PbP4ONFjZiCNRQ1-JxVkNFgBqEckw_HshJ1NJWvEGFPemyLBNhKHw-34NSalpHWCnmjOwRvnlnDBslhfviZYxaLlJWnSiJMUirEa-lXt-UpYFR2hfrfxaqkmkeSOmNOEKxBkJHUvepQfrYMyPuMSwuRu_Bg2xiurBp1c-5P4pxC3PLdLMWZC_2qaRfpg4IWSIB1tXXLutNTAvsKliq-EgVeERdAxPgypmzh_ugQJvdve_1jVY_]--></g></svg>