<?xml version="1.0" encoding="us-ascii" standalone="no"?><svg xmlns="http://www.w3.org/2000/svg" xmlns:xlink="http://www.w3.org/1999/xlink" contentStyleType="text/css" height="481.5px" preserveAspectRatio="none" style="width:607px;height:481px;background:#FFFFFF;" version="1.1" viewBox="0 0 607 481" width="607.5px" zoomAndPan="magnify"><defs/><g><!--class Collaborator--><g id="elem_Collaborator"><rect codeLine="9" fill="#F1F1F1" height="83.4844" id="Collaborator" rx="1.25" ry="1.25" style="stroke:#181818;stroke-width:0.25;" width="50.5" x="236.685" y="147"/><text fill="#000000" font-family="sans-serif" font-size="7" lengthAdjust="spacing" textLength="39" x="242.435" y="157.0537">Collaborator</text><line style="stroke:#181818;stroke-width:0.25;" x1="237.185" x2="286.685" y1="161.3105" y2="161.3105"/><text fill="#000000" font-family="sans-serif" font-size="7" lengthAdjust="spacing" textLength="17.5" x="239.685" y="170.8643">name</text><text fill="#000000" font-family="sans-serif" font-size="7" lengthAdjust="spacing" textLength="29.5" x="239.685" y="180.1748">bornDate</text><text fill="#000000" font-family="sans-serif" font-size="7" lengthAdjust="spacing" textLength="28.5" x="239.685" y="189.4854">admDate</text><text fill="#000000" font-family="sans-serif" font-size="7" lengthAdjust="spacing" textLength="44.5" x="239.685" y="198.7959">phoneNumber</text><text fill="#000000" font-family="sans-serif" font-size="7" lengthAdjust="spacing" textLength="16.5" x="239.685" y="208.1064">email</text><text fill="#000000" font-family="sans-serif" font-size="7" lengthAdjust="spacing" textLength="21" x="239.685" y="217.417">idCard</text><text fill="#000000" font-family="sans-serif" font-size="7" lengthAdjust="spacing" textLength="30" x="239.685" y="226.7275">idNumber</text></g><!--class Address--><g id="elem_Address"><rect codeLine="19" fill="#F1F1F1" height="27.6211" id="Address" rx="1.25" ry="1.25" style="stroke:#181818;stroke-width:0.25;" width="45" x="347.935" y="279.25"/><text fill="#000000" font-family="sans-serif" font-size="7" lengthAdjust="spacing" textLength="26" x="357.435" y="289.3037">Address</text><line style="stroke:#181818;stroke-width:0.25;" x1="348.435" x2="392.435" y1="293.5605" y2="293.5605"/><text fill="#000000" font-family="sans-serif" font-size="7" lengthAdjust="spacing" textLength="39" x="350.935" y="303.1143">doorNumber</text></g><!--class zipCode--><g id="elem_zipCode"><rect codeLine="23" fill="#F1F1F1" height="36.9316" id="zipCode" rx="1.25" ry="1.25" style="stroke:#181818;stroke-width:0.25;" width="28.5" x="356.185" y="355.5"/><text fill="#000000" font-family="sans-serif" font-size="7" lengthAdjust="spacing" textLength="25.5" x="357.685" y="365.5537">zipCode</text><line style="stroke:#181818;stroke-width:0.25;" x1="356.685" x2="384.185" y1="369.8105" y2="369.8105"/><text fill="#000000" font-family="sans-serif" font-size="7" lengthAdjust="spacing" textLength="14.5" x="359.185" y="379.3643">local</text><text fill="#000000" font-family="sans-serif" font-size="7" lengthAdjust="spacing" textLength="18" x="359.185" y="388.6748">street</text></g><!--class HumanResourceManager--><g id="elem_HumanResourceManager"><rect codeLine="28" fill="#F1F1F1" height="18.3105" id="HumanResourceManager" rx="1.25" ry="1.25" style="stroke:#181818;stroke-width:0.25;" width="83.5" x="136.185" y="3.5"/><text fill="#000000" font-family="sans-serif" font-size="7" lengthAdjust="spacing" textLength="80.5" x="137.685" y="13.5537">HumanResourceManager</text><line style="stroke:#181818;stroke-width:0.25;" x1="136.685" x2="219.185" y1="17.8105" y2="17.8105"/></g><!--class FleetManager--><g id="elem_FleetManager"><rect codeLine="30" fill="#F1F1F1" height="18.3105" id="FleetManager" rx="1.25" ry="1.25" style="stroke:#181818;stroke-width:0.25;" width="47" x="441.935" y="3.5"/><text fill="#000000" font-family="sans-serif" font-size="7" lengthAdjust="spacing" textLength="44" x="443.435" y="13.5537">FleetManager</text><line style="stroke:#181818;stroke-width:0.25;" x1="442.435" x2="488.435" y1="17.8105" y2="17.8105"/></g><!--class SoftwareQualityTeamManager--><g id="elem_SoftwareQualityTeamManager"><rect codeLine="32" fill="#F1F1F1" height="18.3105" id="SoftwareQualityTeamManager" rx="1.25" ry="1.25" style="stroke:#181818;stroke-width:0.25;" width="98.5" x="237.185" y="3.5"/><text fill="#000000" font-family="sans-serif" font-size="7" lengthAdjust="spacing" textLength="95.5" x="238.685" y="13.5537">SoftwareQualityTeamManager</text><line style="stroke:#181818;stroke-width:0.25;" x1="237.685" x2="335.185" y1="17.8105" y2="17.8105"/></g><!--class GreenSpaceManager--><g id="elem_GreenSpaceManager"><rect codeLine="34" fill="#F1F1F1" height="18.3105" id="GreenSpaceManager" rx="1.25" ry="1.25" style="stroke:#181818;stroke-width:0.25;" width="71" x="353.435" y="3.5"/><text fill="#000000" font-family="sans-serif" font-size="7" lengthAdjust="spacing" textLength="68" x="354.935" y="13.5537">GreenSpaceManager</text><line style="stroke:#181818;stroke-width:0.25;" x1="353.935" x2="423.935" y1="17.8105" y2="17.8105"/></g><!--class GreenSpaceUser--><g id="elem_GreenSpaceUser"><rect codeLine="36" fill="#F1F1F1" height="18.3105" id="GreenSpaceUser" rx="1.25" ry="1.25" style="stroke:#181818;stroke-width:0.25;" width="57.5" x="77.185" y="364.75"/><text fill="#000000" font-family="sans-serif" font-size="7" lengthAdjust="spacing" textLength="54.5" x="78.685" y="374.8037">GreenSpaceUser</text><line style="stroke:#181818;stroke-width:0.25;" x1="77.685" x2="134.185" y1="379.0605" y2="379.0605"/></g><!--class Skill--><g id="elem_Skill"><rect codeLine="38" fill="#F1F1F1" height="27.6211" id="Skill" rx="1.25" ry="1.25" style="stroke:#181818;stroke-width:0.25;" width="35.5" x="107.685" y="279.25"/><text fill="#000000" font-family="sans-serif" font-size="7" lengthAdjust="spacing" textLength="12.5" x="119.185" y="289.3037">Skill</text><line style="stroke:#181818;stroke-width:0.25;" x1="108.185" x2="142.685" y1="293.5605" y2="293.5605"/><text fill="#000000" font-family="sans-serif" font-size="7" lengthAdjust="spacing" textLength="29.5" x="110.685" y="303.1143">skillName</text></g><!--class Job--><g id="elem_Job"><rect codeLine="42" fill="#F1F1F1" height="27.6211" id="Job" rx="1.25" ry="1.25" style="stroke:#181818;stroke-width:0.25;" width="33.5" x="193.185" y="279.25"/><text fill="#000000" font-family="sans-serif" font-size="7" lengthAdjust="spacing" textLength="11" x="204.435" y="289.3037">Job</text><line style="stroke:#181818;stroke-width:0.25;" x1="193.685" x2="226.185" y1="293.5605" y2="293.5605"/><text fill="#000000" font-family="sans-serif" font-size="7" lengthAdjust="spacing" textLength="27.5" x="196.185" y="303.1143">jobName</text></g><!--class Task--><g id="elem_Task"><rect codeLine="46" fill="#F1F1F1" height="27.6211" id="Task" rx="1.25" ry="1.25" style="stroke:#181818;stroke-width:0.25;" width="37" x="22.435" y="360.25"/><text fill="#000000" font-family="sans-serif" font-size="7" lengthAdjust="spacing" textLength="15.5" x="33.185" y="370.3037">Task</text><line style="stroke:#181818;stroke-width:0.25;" x1="22.935" x2="58.935" y1="374.5605" y2="374.5605"/><text fill="#000000" font-family="sans-serif" font-size="7" lengthAdjust="spacing" textLength="31" x="25.435" y="384.1143">taskName</text></g><!--class Team--><g id="elem_Team"><rect codeLine="50" fill="#F1F1F1" height="18.3105" id="Team" rx="1.25" ry="1.25" style="stroke:#181818;stroke-width:0.25;" width="21" x="50.435" y="75.25"/><text fill="#000000" font-family="sans-serif" font-size="7" lengthAdjust="spacing" textLength="18" x="51.935" y="85.3037">Team</text><line style="stroke:#181818;stroke-width:0.25;" x1="50.935" x2="70.935" y1="89.5605" y2="89.5605"/></g><!--class Vehicle--><g id="elem_Vehicle"><rect codeLine="52" fill="#F1F1F1" height="46.2422" id="Vehicle" rx="1.25" ry="1.25" style="stroke:#181818;stroke-width:0.25;" width="54.5" x="493.185" y="61.5"/><text fill="#000000" font-family="sans-serif" font-size="7" lengthAdjust="spacing" textLength="23" x="508.935" y="71.5537">Vehicle</text><line style="stroke:#181818;stroke-width:0.25;" x1="493.685" x2="547.185" y1="75.8105" y2="75.8105"/><text fill="#000000" font-family="sans-serif" font-size="7" lengthAdjust="spacing" textLength="32.5" x="496.185" y="85.3643">currentKm</text><text fill="#000000" font-family="sans-serif" font-size="7" lengthAdjust="spacing" textLength="48.5" x="496.185" y="94.6748">acquisitionDate</text><text fill="#000000" font-family="sans-serif" font-size="7" lengthAdjust="spacing" textLength="40.5" x="496.185" y="103.9854">maintenance</text></g><!--class PlateCertification--><g id="elem_PlateCertification"><rect codeLine="58" fill="#F1F1F1" height="83.4844" id="PlateCertification" rx="1.25" ry="1.25" style="stroke:#181818;stroke-width:0.25;" width="56.5" x="492.185" y="147"/><text fill="#000000" font-family="sans-serif" font-size="7" lengthAdjust="spacing" textLength="53.5" x="493.685" y="157.0537">PlateCertification</text><line style="stroke:#181818;stroke-width:0.25;" x1="492.685" x2="548.185" y1="161.3105" y2="161.3105"/><text fill="#000000" font-family="sans-serif" font-size="7" lengthAdjust="spacing" textLength="18.5" x="495.185" y="170.8643">brand</text><text fill="#000000" font-family="sans-serif" font-size="7" lengthAdjust="spacing" textLength="19" x="495.185" y="180.1748">model</text><text fill="#000000" font-family="sans-serif" font-size="7" lengthAdjust="spacing" textLength="13.5" x="495.185" y="189.4854">type</text><text fill="#000000" font-family="sans-serif" font-size="7" lengthAdjust="spacing" textLength="12.5" x="495.185" y="198.7959">tare</text><text fill="#000000" font-family="sans-serif" font-size="7" lengthAdjust="spacing" textLength="39.5" x="495.185" y="208.1064">grossWeight</text><text fill="#000000" font-family="sans-serif" font-size="7" lengthAdjust="spacing" textLength="39" x="495.185" y="217.417">registerDate</text><text fill="#000000" font-family="sans-serif" font-size="7" lengthAdjust="spacing" textLength="15.5" x="495.185" y="226.7275">plate</text></g><!--class VehicleCheckUp--><g id="elem_VehicleCheckUp"><rect codeLine="68" fill="#F1F1F1" height="46.2422" id="VehicleCheckUp" rx="1.25" ry="1.25" style="stroke:#181818;stroke-width:0.25;" width="54.5" x="497.185" y="270"/><text fill="#000000" font-family="sans-serif" font-size="7" lengthAdjust="spacing" textLength="51.5" x="498.685" y="280.0537">VehicleCheckUp</text><line style="stroke:#181818;stroke-width:0.25;" x1="497.685" x2="551.185" y1="284.3105" y2="284.3105"/><text fill="#000000" font-family="sans-serif" font-size="7" lengthAdjust="spacing" textLength="14" x="500.185" y="293.8643">date</text><text fill="#000000" font-family="sans-serif" font-size="7" lengthAdjust="spacing" textLength="17" x="500.185" y="303.1748">place</text><text fill="#000000" font-family="sans-serif" font-size="7" lengthAdjust="spacing" textLength="12.5" x="500.185" y="312.4854">kms</text></g><!--class TypeGarden--><g id="elem_TypeGarden"><rect codeLine="74" fill="#F1F1F1" height="46.2422" id="TypeGarden" rx="1.25" ry="1.25" style="stroke:#181818;stroke-width:0.25;" width="71.5" x="37.685" y="432"/><text fill="#000000" font-family="sans-serif" font-size="7" lengthAdjust="spacing" textLength="40" x="53.435" y="442.0537">TypeGarden</text><line style="stroke:#181818;stroke-width:0.25;" x1="38.185" x2="108.685" y1="446.3105" y2="446.3105"/><text fill="#000000" font-family="sans-serif" font-size="7" lengthAdjust="spacing" textLength="22.5" x="40.685" y="455.8643">garden</text><text fill="#000000" font-family="sans-serif" font-size="7" lengthAdjust="spacing" textLength="65.5" x="40.685" y="465.1748">mediumSizedGarden</text><text fill="#000000" font-family="sans-serif" font-size="7" lengthAdjust="spacing" textLength="57" x="40.685" y="474.4854">largeSizedGarden</text></g><!--class Agenda--><g id="elem_Agenda"><rect codeLine="80" fill="#F1F1F1" height="18.3105" id="Agenda" rx="1.25" ry="1.25" style="stroke:#181818;stroke-width:0.25;" width="27.5" x="47.185" y="179.5"/><text fill="#000000" font-family="sans-serif" font-size="7" lengthAdjust="spacing" textLength="24.5" x="48.685" y="189.5537">Agenda</text><line style="stroke:#181818;stroke-width:0.25;" x1="47.685" x2="74.185" y1="193.8105" y2="193.8105"/></g><!--link HumanResourceManager to Skill--><g id="link_HumanResourceManager_Skill"><path codeLine="82" d="M168.58,22.06 C151.02,39.32 113.655,79.665 99.935,122.5 C81.86,178.915 107.145,250.055 119.415,279.16 " fill="none" id="HumanResourceManager-Skill" style="stroke:#181818;stroke-width:0.5;"/><polygon fill="#000000" points="101.9654,129.7783,104.2582,125.6122,101.3716,125.0602,101.9654,129.7783" style="stroke:#000000;stroke-width:0.5;"/><text fill="#000000" font-family="sans-serif" font-size="6.5" lengthAdjust="spacing" textLength="16" x="106.935" y="130.0142">regist</text><text fill="#000000" font-family="sans-serif" font-size="6.5" lengthAdjust="spacing" textLength="3.5" x="162.0955" y="32.7634">1</text><text fill="#000000" font-family="sans-serif" font-size="6.5" lengthAdjust="spacing" textLength="10" x="107.0044" y="273.7196">1..*</text></g><!--link HumanResourceManager to Job--><g id="link_HumanResourceManager_Job"><path codeLine="83" d="M178.945,22.07 C183.58,62.535 202.835,230.56 208.415,279.235 " fill="none" id="HumanResourceManager-Job" style="stroke:#181818;stroke-width:0.5;"/><polygon fill="#000000" points="194.2196,129.8065,195.1646,125.1461,192.2448,125.4807,194.2196,129.8065" style="stroke:#000000;stroke-width:0.5;"/><text fill="#000000" font-family="sans-serif" font-size="6.5" lengthAdjust="spacing" textLength="16" x="198.435" y="130.0142">regist</text><text fill="#000000" font-family="sans-serif" font-size="6.5" lengthAdjust="spacing" textLength="3.5" x="175.2461" y="32.7761">1</text><text fill="#000000" font-family="sans-serif" font-size="6.5" lengthAdjust="spacing" textLength="10" x="196.9073" y="273.586">1..*</text></g><!--link HumanResourceManager to Collaborator--><g id="link_HumanResourceManager_Collaborator"><path codeLine="84" d="M210.385,22.06 C218.105,25.565 225.635,30.39 230.935,37 C255.79,68.005 262.255,113.82 263.29,146.9 " fill="none" id="HumanResourceManager-Collaborator" style="stroke:#181818;stroke-width:0.5;"/><polygon fill="#000000" points="262.9105,86.8746,262.4988,82.1372,259.7928,83.2839,262.9105,86.8746" style="stroke:#000000;stroke-width:0.5;"/><text fill="#000000" font-family="sans-serif" font-size="6.5" lengthAdjust="spacing" textLength="16" x="266.435" y="87.2642">regist</text><text fill="#000000" font-family="sans-serif" font-size="6.5" lengthAdjust="spacing" textLength="3.5" x="215.1356" y="32.7634">1</text><text fill="#000000" font-family="sans-serif" font-size="6.5" lengthAdjust="spacing" textLength="10" x="252.9654" y="141.3156">1..*</text></g><!--link HumanResourceManager to Collaborator--><g id="link_HumanResourceManager_Collaborator"><path codeLine="88" d="M185.24,22.175 C188.585,26.5 192.455,31.86 195.435,37 C216.05,72.625 231.1656,107.4557 243.3556,138.5557 " fill="none" id="HumanResourceManager-to-Collaborator" style="stroke:#181818;stroke-width:0.5;"/><polygon fill="none" points="246.64,146.935,246.1487,137.4609,240.5625,139.6505,246.64,146.935" style="stroke:#181818;stroke-width:0.5;"/></g><!--link HumanResourceManager to Team--><g id="link_HumanResourceManager_Team"><path codeLine="85" d="M136.165,16.105 C106.065,19.135 69.11,25.195 59.435,37 C50.69,47.67 54.145,64.735 57.5,75.1 " fill="none" id="HumanResourceManager-Team" style="stroke:#181818;stroke-width:0.5;"/><polygon fill="#000000" points="59.935,43.3227,64.4347,41.7849,62.6714,39.4337,59.935,43.3227" style="stroke:#000000;stroke-width:0.5;"/><text fill="#000000" font-family="sans-serif" font-size="6.5" lengthAdjust="spacing" textLength="21.5" x="66.435" y="44.5142">creates</text><text fill="#000000" font-family="sans-serif" font-size="6.5" lengthAdjust="spacing" textLength="3.5" x="128.653" y="14.5521">1</text><text fill="#000000" font-family="sans-serif" font-size="6.5" lengthAdjust="spacing" textLength="10" x="45.0222" y="69.6537">1..*</text></g><!--link FleetManager to Collaborator--><g id="link_FleetManager_Collaborator"><path codeLine="87" d="M441.89,20.575 C431.505,24.475 419.51,29.945 409.935,37 C376.81,61.405 378.48,77.87 349.935,107.5 C329.795,128.405 312.126,144.6545 294.121,160.4745 " fill="none" id="FleetManager-to-Collaborator" style="stroke:#181818;stroke-width:0.5;"/><polygon fill="none" points="287.36,166.415,296.1011,162.7282,292.1408,158.2209,287.36,166.415" style="stroke:#181818;stroke-width:0.5;"/></g><!--link SoftwareQualityTeamManager to Collaborator--><g id="link_SoftwareQualityTeamManager_Collaborator"><path codeLine="89" d="M287.15,22.135 C287.895,31.81 289.005,47.74 289.435,61.5 C290.07,81.935 292.775,87.33 289.435,107.5 C287.265,120.575 286.2015,125.876 281.8965,138.301 " fill="none" id="SoftwareQualityTeamManager-to-Collaborator" style="stroke:#181818;stroke-width:0.5;"/><polygon fill="none" points="278.95,146.805,284.7311,139.2831,279.0618,137.3188,278.95,146.805" style="stroke:#181818;stroke-width:0.5;"/></g><!--link GreenSpaceManager to Collaborator--><g id="link_GreenSpaceManager_Collaborator"><path codeLine="90" d="M382.46,22.17 C365.175,45.99 322.4911,104.806 292.5411,146.076 " fill="none" id="GreenSpaceManager-to-Collaborator" style="stroke:#181818;stroke-width:0.5;"/><polygon fill="none" points="287.255,153.36,294.9691,147.838,290.1131,144.3139,287.255,153.36" style="stroke:#181818;stroke-width:0.5;"/></g><!--link Collaborator to Job--><g id="link_Collaborator_Job"><path codeLine="92" d="M241.155,230.5 C232.445,247.805 222.915,266.725 216.705,279.055 " fill="none" id="Collaborator-Job" style="stroke:#181818;stroke-width:0.5;"/><polygon fill="#000000" points="236.5594,248.0899,233.2129,251.4683,235.8378,252.7901,236.5594,248.0899" style="stroke:#000000;stroke-width:0.5;"/><text fill="#000000" font-family="sans-serif" font-size="6.5" lengthAdjust="spacing" textLength="33.5" x="239.935" y="253.0142">assigned to</text><text fill="#000000" font-family="sans-serif" font-size="6.5" lengthAdjust="spacing" textLength="10" x="228.9395" y="241.4742">1..*</text><text fill="#000000" font-family="sans-serif" font-size="6.5" lengthAdjust="spacing" textLength="3.5" x="214.3031" y="273.5917">1</text></g><!--link Collaborator to Skill--><g id="link_Collaborator_Skill"><path codeLine="93" d="M236.615,207.38 C221.505,218.29 202.005,232.53 184.935,245.5 C170.26,256.65 153.84,269.66 141.975,279.165 " fill="none" id="Collaborator-Skill" style="stroke:#181818;stroke-width:0.5;"/><polygon fill="#000000" points="189.4268,248.8119,184.9355,250.3743,186.7116,252.7158,189.4268,248.8119" style="stroke:#000000;stroke-width:0.5;"/><text fill="#000000" font-family="sans-serif" font-size="6.5" lengthAdjust="spacing" textLength="33.5" x="191.935" y="253.0142">assigned to</text><text fill="#000000" font-family="sans-serif" font-size="6.5" lengthAdjust="spacing" textLength="2.5" x="230.2125" y="208.0181">*</text><text fill="#000000" font-family="sans-serif" font-size="6.5" lengthAdjust="spacing" textLength="2.5" x="142.8197" y="273.7257">*</text></g><!--link Collaborator to Address--><g id="link_Collaborator_Address"><path codeLine="94" d="M287.235,213.325 C308.775,233.825 338.93,262.52 356.395,279.14 " fill="none" id="Collaborator-Address" style="stroke:#181818;stroke-width:0.5;"/><polygon fill="#000000" points="333.746,252.0462,331.4829,247.864,329.4568,249.993,333.746,252.0462" style="stroke:#000000;stroke-width:0.5;"/><text fill="#000000" font-family="sans-serif" font-size="6.5" lengthAdjust="spacing" textLength="15" x="336.435" y="253.0142">owns</text><text fill="#000000" font-family="sans-serif" font-size="6.5" lengthAdjust="spacing" textLength="3.5" x="291.208" y="214.8362">1</text><text fill="#000000" font-family="sans-serif" font-size="6.5" lengthAdjust="spacing" textLength="3.5" x="349.4409" y="273.6953">1</text></g><!--link Address to zipCode--><g id="link_Address_zipCode"><path codeLine="95" d="M370.435,306.89 C370.435,320.19 370.435,340.67 370.435,355.415 " fill="none" id="Address-zipCode" style="stroke:#181818;stroke-width:0.5;"/><polygon fill="#000000" points="372.935,338.3228,374.4045,333.8002,371.4655,333.8002,372.935,338.3228" style="stroke:#000000;stroke-width:0.5;"/><text fill="#000000" font-family="sans-serif" font-size="6.5" lengthAdjust="spacing" textLength="15" x="377.435" y="338.5142">owns</text><text fill="#000000" font-family="sans-serif" font-size="6.5" lengthAdjust="spacing" textLength="3.5" x="366.5522" y="317.875">1</text><text fill="#000000" font-family="sans-serif" font-size="6.5" lengthAdjust="spacing" textLength="3.5" x="366.6233" y="349.8807">1</text></g><!--link Team to Collaborator--><g id="link_Team_Collaborator"><path codeLine="97" d="M71.47,91.34 C87.025,100.62 117.12,118.285 143.435,132 C175.035,148.475 212.285,165.83 236.465,176.83 " fill="none" id="Team-Collaborator" style="stroke:#181818;stroke-width:0.5;"/><polygon fill="#000000" points="148.1547,128.4729,144.8152,125.0876,143.4632,127.697,148.1547,128.4729" style="stroke:#000000;stroke-width:0.5;"/><text fill="#000000" font-family="sans-serif" font-size="6.5" lengthAdjust="spacing" textLength="10.5" x="150.435" y="130.0142">has</text><text fill="#000000" font-family="sans-serif" font-size="6.5" lengthAdjust="spacing" textLength="3.5" x="75.3858" y="90.7331">1</text><text fill="#000000" font-family="sans-serif" font-size="6.5" lengthAdjust="spacing" textLength="10" x="222.7515" y="173.3833">1..*</text></g><!--link Team to Agenda--><g id="link_Team_Agenda"><path codeLine="98" d="M60.935,93.805 C60.935,113.31 60.935,159.985 60.935,179.47 " fill="none" id="Team-Agenda" style="stroke:#181818;stroke-width:0.5;"/><polygon fill="#000000" points="63.435,129.8228,64.9045,125.3002,61.9655,125.3002,63.435,129.8228" style="stroke:#000000;stroke-width:0.5;"/><text fill="#000000" font-family="sans-serif" font-size="6.5" lengthAdjust="spacing" textLength="10.5" x="67.935" y="130.0142">has</text><text fill="#000000" font-family="sans-serif" font-size="6.5" lengthAdjust="spacing" textLength="3.5" x="56.9647" y="104.5071">1</text><text fill="#000000" font-family="sans-serif" font-size="6.5" lengthAdjust="spacing" textLength="3.5" x="56.8991" y="173.8919">1</text></g><!--link Task to Team--><g id="link_Task_Team"><path codeLine="99" d="M36.41,360.2 C29.295,338.495 15.79,293.96 10.935,255 C3,191.35 41.155,118.615 55.59,93.81 " fill="none" id="Task-Team" style="stroke:#181818;stroke-width:0.5;"/><polygon fill="#000000" points="13.6145,247.8292,11.8241,252.2345,14.7554,252.4456,13.6145,247.8292" style="stroke:#000000;stroke-width:0.5;"/><text fill="#000000" font-family="sans-serif" font-size="6.5" lengthAdjust="spacing" textLength="33.5" x="17.935" y="253.0142">assigned to</text><text fill="#000000" font-family="sans-serif" font-size="6.5" lengthAdjust="spacing" textLength="10" x="24.2073" y="354.5429">1..*</text><text fill="#000000" font-family="sans-serif" font-size="6.5" lengthAdjust="spacing" textLength="10" x="42.8098" y="104.5134">1..*</text></g><!--link Agenda to Task--><g id="link_Agenda_Task"><path codeLine="100" d="M60.395,198.195 C59.6,210.86 57.985,234.725 55.935,255 C52.06,293.27 45.925,338.3 42.835,360.195 " fill="none" id="Agenda-Task" style="stroke:#181818;stroke-width:0.5;"/><polygon fill="#000000" points="56.6656,295.5582,58.6139,291.2203,55.6921,290.9036,56.6656,295.5582" style="stroke:#000000;stroke-width:0.5;"/><text fill="#000000" font-family="sans-serif" font-size="6.5" lengthAdjust="spacing" textLength="10.5" x="61.435" y="295.7642">has</text><text fill="#000000" font-family="sans-serif" font-size="6.5" lengthAdjust="spacing" textLength="10" x="48.9754" y="208.7614">1..*</text><text fill="#000000" font-family="sans-serif" font-size="6.5" lengthAdjust="spacing" textLength="10" x="44.4306" y="354.5368">1..*</text></g><!--link FleetManager to Vehicle--><g id="link_FleetManager_Vehicle"><path codeLine="102" d="M472.285,22.065 C479.89,31.845 492.45,48.005 502.84,61.37 " fill="none" id="FleetManager-Vehicle" style="stroke:#181818;stroke-width:0.5;"/><polygon fill="#000000" points="493.4694,43.7965,491.8538,39.3241,489.5335,41.1278,493.4694,43.7965" style="stroke:#000000;stroke-width:0.5;"/><text fill="#000000" font-family="sans-serif" font-size="6.5" lengthAdjust="spacing" textLength="16" x="496.435" y="44.5142">regist</text><text fill="#000000" font-family="sans-serif" font-size="6.5" lengthAdjust="spacing" textLength="3.5" x="470.1556" y="32.7698">1</text><text fill="#000000" font-family="sans-serif" font-size="6.5" lengthAdjust="spacing" textLength="10" x="489.5214" y="55.8556">1..*</text></g><!--link FleetManager to VehicleCheckUp--><g id="link_FleetManager_VehicleCheckUp"><path codeLine="103" d="M464.635,22.055 C462.23,52.17 456.735,153.435 483.435,230.5 C488.355,244.705 497.285,258.82 505.56,269.99 " fill="none" id="FleetManager-VehicleCheckUp" style="stroke:#181818;stroke-width:0.5;"/><polygon fill="#000000" points="466.8421,129.7894,467.5555,125.0879,464.6558,125.5665,466.8421,129.7894" style="stroke:#000000;stroke-width:0.5;"/><text fill="#000000" font-family="sans-serif" font-size="6.5" lengthAdjust="spacing" textLength="16" x="470.935" y="130.0142">regist</text><text fill="#000000" font-family="sans-serif" font-size="6.5" lengthAdjust="spacing" textLength="3.5" x="464.8903" y="32.7571">1</text><text fill="#000000" font-family="sans-serif" font-size="6.5" lengthAdjust="spacing" textLength="10" x="491.9041" y="264.3226">1..*</text></g><!--link FleetManager to Address--><g id="link_FleetManager_Address"><path codeLine="104" d="M462.435,22.07 C448.665,62.535 391.505,230.56 374.945,279.235 " fill="none" id="FleetManager-Address" style="stroke:#181818;stroke-width:0.5;"/><polygon fill="#000000" points="429.1298,129.6895,431.9776,125.8813,429.1953,124.9347,429.1298,129.6895" style="stroke:#000000;stroke-width:0.5;"/><text fill="#000000" font-family="sans-serif" font-size="6.5" lengthAdjust="spacing" textLength="15" x="434.435" y="130.0142">owns</text><text fill="#000000" font-family="sans-serif" font-size="6.5" lengthAdjust="spacing" textLength="3.5" x="457.6584" y="32.7761">1</text><text fill="#000000" font-family="sans-serif" font-size="6.5" lengthAdjust="spacing" textLength="3.5" x="372.0832" y="273.586">1</text></g><!--link Vehicle to VehicleCheckUp--><g id="link_Vehicle_VehicleCheckUp"><path codeLine="106" d="M538.905,107.565 C546.64,118.69 554.51,132.755 557.435,147 C564.895,183.355 566.42,194.495 557.435,230.5 C553.965,244.4 546.725,258.605 539.91,269.9 " fill="none" id="Vehicle-VehicleCheckUp" style="stroke:#181818;stroke-width:0.5;"/><polygon fill="#000000" points="565.9195,186.3228,564.4781,190.8544,567.417,190.8362,565.9195,186.3228" style="stroke:#000000;stroke-width:0.5;"/><text fill="#000000" font-family="sans-serif" font-size="6.5" lengthAdjust="spacing" textLength="33.5" x="570.435" y="191.5142">assigned to</text><text fill="#000000" font-family="sans-serif" font-size="6.5" lengthAdjust="spacing" textLength="3.5" x="537.9653" y="118.7544">1</text><text fill="#000000" font-family="sans-serif" font-size="6.5" lengthAdjust="spacing" textLength="2.5" x="539.4993" y="264.39">*</text></g><!--link Vehicle to PlateCertification--><g id="link_Vehicle_PlateCertification"><path codeLine="107" d="M520.435,107.53 C520.435,119.04 520.435,133.42 520.435,146.835 " fill="none" id="Vehicle-PlateCertification" style="stroke:#181818;stroke-width:0.5;"/><polygon fill="#000000" points="522.935,129.8228,524.4045,125.3002,521.4655,125.3002,522.935,129.8228" style="stroke:#000000;stroke-width:0.5;"/><text fill="#000000" font-family="sans-serif" font-size="6.5" lengthAdjust="spacing" textLength="15" x="527.435" y="130.0142">owns</text><text fill="#000000" font-family="sans-serif" font-size="6.5" lengthAdjust="spacing" textLength="3.5" x="516.667" y="118.714">1</text><text fill="#000000" font-family="sans-serif" font-size="6.5" lengthAdjust="spacing" textLength="3.5" x="516.7846" y="141.3888">1</text></g><!--link Task to TypeGarden--><g id="link_Task_TypeGarden"><path codeLine="109" d="M37.84,387.775 C36.46,396.39 35.845,407.7 39.435,417 C41.49,422.33 44.695,427.37 48.33,431.925 " fill="none" id="Task-TypeGarden" style="stroke:#181818;stroke-width:0.5;"/><polygon fill="#000000" points="42.5129,414.755,42.8971,410.0153,40.0378,410.6947,42.5129,414.755" style="stroke:#000000;stroke-width:0.5;"/><text fill="#000000" font-family="sans-serif" font-size="6.5" lengthAdjust="spacing" textLength="37.5" x="46.435" y="415.0142">carried out in</text><text fill="#000000" font-family="sans-serif" font-size="6.5" lengthAdjust="spacing" textLength="10" x="25.968" y="398.9603">1..*</text><text fill="#000000" font-family="sans-serif" font-size="6.5" lengthAdjust="spacing" textLength="10" x="33.9083" y="426.4187">1..*</text></g><!--link GreenSpaceUser to TypeGarden--><g id="link_GreenSpaceUser_TypeGarden"><path codeLine="111" d="M102.33,383.365 C97.605,395 89.14,415.835 82.59,431.96 " fill="none" id="GreenSpaceUser-TypeGarden" style="stroke:#181818;stroke-width:0.5;"/><polygon fill="#000000" points="93.4941,414.6389,96.5576,411.0019,93.8348,409.8959,93.4941,414.6389" style="stroke:#000000;stroke-width:0.5;"/><text fill="#000000" font-family="sans-serif" font-size="6.5" lengthAdjust="spacing" textLength="10.5" x="98.935" y="415.0142">use</text><text fill="#000000" font-family="sans-serif" font-size="6.5" lengthAdjust="spacing" textLength="10" x="90.0174" y="394.0832">1..*</text><text fill="#000000" font-family="sans-serif" font-size="6.5" lengthAdjust="spacing" textLength="10" x="73.2262" y="426.288">1..*</text></g><!--SRC=[bLHDRzim3BtxLmWv3aYnN8EXG95XwJQis9PsEpCIOslHHqR92D9j_tso9TjoOgIeBwR4noUAZwBRItC00isqDPPNP3KoJpKMhlSSWE-Xn8q_AMI4t8CfLGvm5GXxbAPaEr0kzt05pjrvJt9RU_p8hTd8PsHlYqeAP5mI3qIjhT5NLhYYADeOjh9AmTOIU4liJy72Pq1ZQuHjynvyN83GlNsehC67Mc-HsZLgaAgrf5W1YMGcnB_kh3iX2CC_7YEifNF4ipoiRCWo8fJb46cT9qG_uEvh3UOxEbiJnozWGjb2zhtxWmheo-sDtVaZ47whGKb_UaJGbw1rECbiWXPupVVaninxgLJAsZNsGrF3tlt9RfFpbzsENO_WziddWtdc31bcf_p0IWOX4vpNH6ZyPntbuRzhwQINTf0ig68y6Z0yu_ogWdk5vELEScZmYMzBOA9oEaWGw-vF1qovKJHAiixzH5bMlbqJbj9vfA4t6lxYFETLXNp_TEYapy0yMdljidk7OzUXZx3BhMmNCJaKijPDUulriAk0mil9DeUcAz48QAiusJMpnOpDvxF5pSsRMT9ncMx5Rg-5i1JJYFkwYD6RUrresn5BnWb32Ls8AKQzFf_F_zwE-AT99t1N7iS4-lALJ82AqKNJ3TgxT5KB0idIe63UidTdy8JDLBc6NlJCQSeicJsQfaBTrCaWtPZfCKLRrwigLT00nxXPrrszktdD-KLpqVBqGreniWSFw8QZ8npBEqwm6mTP1xsCxXxYYq6NXIow0oCcQdD1EnPf7DB-9WPGfiDq0OTv47eVY6JWjxLdqZH1PsFvUdZji8dv3m00]--></g></svg>