<?xml version="1.0" encoding="us-ascii" standalone="no"?><svg xmlns="http://www.w3.org/2000/svg" xmlns:xlink="http://www.w3.org/1999/xlink" contentStyleType="text/css" height="743.4px" preserveAspectRatio="none" style="width:878px;height:743px;background:#FFFFFF;" version="1.1" viewBox="0 0 878 743" width="878.4px" zoomAndPan="magnify"><defs/><g><!--class Organization--><g id="elem_Organization"><rect codeLine="9" fill="#F1F1F1" height="21.9727" id="Organization" rx="1.5" ry="1.5" style="stroke:#181818;stroke-width:0.3;" width="51.6" x="450.207" y="4.2"/><text fill="#000000" font-family="sans-serif" font-size="8.4" lengthAdjust="spacing" textLength="48" x="452.007" y="16.2645">Organization</text><line style="stroke:#181818;stroke-width:0.3;" x1="450.807" x2="501.207" y1="21.3727" y2="21.3727"/></g><!--class Collaborator--><g id="elem_Collaborator"><rect codeLine="11" fill="#F1F1F1" height="100.1812" id="Collaborator" rx="1.5" ry="1.5" style="stroke:#181818;stroke-width:0.3;" width="60.6" x="331.707" y="304.8"/><text fill="#000000" font-family="sans-serif" font-size="8.4" lengthAdjust="spacing" textLength="46.8" x="338.607" y="316.8645">Collaborator</text><line style="stroke:#181818;stroke-width:0.3;" x1="332.307" x2="391.707" y1="321.9727" y2="321.9727"/><text fill="#000000" font-family="sans-serif" font-size="8.4" lengthAdjust="spacing" textLength="21" x="335.307" y="333.4371">name</text><text fill="#000000" font-family="sans-serif" font-size="8.4" lengthAdjust="spacing" textLength="35.4" x="335.307" y="344.6098">bornDate</text><text fill="#000000" font-family="sans-serif" font-size="8.4" lengthAdjust="spacing" textLength="34.2" x="335.307" y="355.7824">admDate</text><text fill="#000000" font-family="sans-serif" font-size="8.4" lengthAdjust="spacing" textLength="53.4" x="335.307" y="366.9551">phoneNumber</text><text fill="#000000" font-family="sans-serif" font-size="8.4" lengthAdjust="spacing" textLength="19.8" x="335.307" y="378.1277">email</text><text fill="#000000" font-family="sans-serif" font-size="8.4" lengthAdjust="spacing" textLength="25.2" x="335.307" y="389.3004">idCard</text><text fill="#000000" font-family="sans-serif" font-size="8.4" lengthAdjust="spacing" textLength="36" x="335.307" y="400.473">idNumber</text></g><!--class Address--><g id="elem_Address"><rect codeLine="21" fill="#F1F1F1" height="66.6633" id="Address" rx="1.5" ry="1.5" style="stroke:#181818;stroke-width:0.3;" width="54" x="535.407" y="452.4"/><text fill="#000000" font-family="sans-serif" font-size="8.4" lengthAdjust="spacing" textLength="31.2" x="546.807" y="464.4645">Address</text><line style="stroke:#181818;stroke-width:0.3;" x1="536.007" x2="588.807" y1="469.5727" y2="469.5727"/><text fill="#000000" font-family="sans-serif" font-size="8.4" lengthAdjust="spacing" textLength="21.6" x="539.007" y="481.0371">street</text><text fill="#000000" font-family="sans-serif" font-size="8.4" lengthAdjust="spacing" textLength="12.6" x="539.007" y="492.2098">city</text><text fill="#000000" font-family="sans-serif" font-size="8.4" lengthAdjust="spacing" textLength="30.6" x="539.007" y="503.3824">zipCode</text><text fill="#000000" font-family="sans-serif" font-size="8.4" lengthAdjust="spacing" textLength="46.8" x="539.007" y="514.5551">doorNumber</text></g><!--class HumanResourceManager--><g id="elem_HumanResourceManager"><rect codeLine="28" fill="#F1F1F1" height="21.9727" id="HumanResourceManager" rx="1.5" ry="1.5" style="stroke:#181818;stroke-width:0.3;" width="100.2" x="175.707" y="121.8"/><text fill="#000000" font-family="sans-serif" font-size="8.4" lengthAdjust="spacing" textLength="96.6" x="177.507" y="133.8645">HumanResourceManager</text><line style="stroke:#181818;stroke-width:0.3;" x1="176.307" x2="275.307" y1="138.9727" y2="138.9727"/></g><!--class FleetManager--><g id="elem_FleetManager"><rect codeLine="30" fill="#F1F1F1" height="21.9727" id="FleetManager" rx="1.5" ry="1.5" style="stroke:#181818;stroke-width:0.3;" width="56.4" x="622.407" y="121.8"/><text fill="#000000" font-family="sans-serif" font-size="8.4" lengthAdjust="spacing" textLength="52.8" x="624.207" y="133.8645">FleetManager</text><line style="stroke:#181818;stroke-width:0.3;" x1="623.007" x2="678.207" y1="138.9727" y2="138.9727"/></g><!--class SoftwareQualityTeamManager--><g id="elem_SoftwareQualityTeamManager"><rect codeLine="32" fill="#F1F1F1" height="21.9727" id="SoftwareQualityTeamManager" rx="1.5" ry="1.5" style="stroke:#181818;stroke-width:0.3;" width="118.2" x="354.507" y="162"/><text fill="#000000" font-family="sans-serif" font-size="8.4" lengthAdjust="spacing" textLength="114.6" x="356.307" y="174.0645">SoftwareQualityTeamManager</text><line style="stroke:#181818;stroke-width:0.3;" x1="355.107" x2="472.107" y1="179.1727" y2="179.1727"/></g><!--class GreenSpaceManager--><g id="elem_GreenSpaceManager"><rect codeLine="34" fill="#F1F1F1" height="21.9727" id="GreenSpaceManager" rx="1.5" ry="1.5" style="stroke:#181818;stroke-width:0.3;" width="85.2" x="476.007" y="162"/><text fill="#000000" font-family="sans-serif" font-size="8.4" lengthAdjust="spacing" textLength="81.6" x="477.807" y="174.0645">GreenSpaceManager</text><line style="stroke:#181818;stroke-width:0.3;" x1="476.607" x2="560.607" y1="179.1727" y2="179.1727"/></g><!--class GreenSpaceUser--><g id="elem_GreenSpaceUser"><rect codeLine="36" fill="#F1F1F1" height="21.9727" id="GreenSpaceUser" rx="1.5" ry="1.5" style="stroke:#181818;stroke-width:0.3;" width="69" x="197.307" y="609"/><text fill="#000000" font-family="sans-serif" font-size="8.4" lengthAdjust="spacing" textLength="65.4" x="199.107" y="621.0645">GreenSpaceUser</text><line style="stroke:#181818;stroke-width:0.3;" x1="197.907" x2="265.707" y1="626.1727" y2="626.1727"/></g><!--class Skill--><g id="elem_Skill"><rect codeLine="38" fill="#F1F1F1" height="33.1453" id="Skill" rx="1.5" ry="1.5" style="stroke:#181818;stroke-width:0.3;" width="42.6" x="29.907" y="469.2"/><text fill="#000000" font-family="sans-serif" font-size="8.4" lengthAdjust="spacing" textLength="15" x="43.707" y="481.2645">Skill</text><line style="stroke:#181818;stroke-width:0.3;" x1="30.507" x2="71.907" y1="486.3727" y2="486.3727"/><text fill="#000000" font-family="sans-serif" font-size="8.4" lengthAdjust="spacing" textLength="35.4" x="33.507" y="497.8371">skillName</text></g><!--class Job--><g id="elem_Job"><rect codeLine="42" fill="#F1F1F1" height="33.1453" id="Job" rx="1.5" ry="1.5" style="stroke:#181818;stroke-width:0.3;" width="40.2" x="341.907" y="469.2"/><text fill="#000000" font-family="sans-serif" font-size="8.4" lengthAdjust="spacing" textLength="13.2" x="355.407" y="481.2645">Job</text><line style="stroke:#181818;stroke-width:0.3;" x1="342.507" x2="381.507" y1="486.3727" y2="486.3727"/><text fill="#000000" font-family="sans-serif" font-size="8.4" lengthAdjust="spacing" textLength="33" x="345.507" y="497.8371">jobName</text></g><!--class Task--><g id="elem_Task"><rect codeLine="46" fill="#F1F1F1" height="33.1453" id="Task" rx="1.5" ry="1.5" style="stroke:#181818;stroke-width:0.3;" width="44.4" x="131.607" y="603.6"/><text fill="#000000" font-family="sans-serif" font-size="8.4" lengthAdjust="spacing" textLength="18.6" x="144.507" y="615.6645">Task</text><line style="stroke:#181818;stroke-width:0.3;" x1="132.207" x2="175.407" y1="620.7727" y2="620.7727"/><text fill="#000000" font-family="sans-serif" font-size="8.4" lengthAdjust="spacing" textLength="37.2" x="135.207" y="632.2371">taskName</text></g><!--class Team--><g id="elem_Team"><rect codeLine="50" fill="#F1F1F1" height="21.9727" id="Team" rx="1.5" ry="1.5" style="stroke:#181818;stroke-width:0.3;" width="25.2" x="129.807" y="218.7"/><text fill="#000000" font-family="sans-serif" font-size="8.4" lengthAdjust="spacing" textLength="21.6" x="131.607" y="230.7645">Team</text><line style="stroke:#181818;stroke-width:0.3;" x1="130.407" x2="154.407" y1="235.8727" y2="235.8727"/></g><!--class Vehicle--><g id="elem_Vehicle"><rect codeLine="52" fill="#F1F1F1" height="55.4906" id="Vehicle" rx="1.5" ry="1.5" style="stroke:#181818;stroke-width:0.3;" width="65.4" x="721.707" y="202.2"/><text fill="#000000" font-family="sans-serif" font-size="8.4" lengthAdjust="spacing" textLength="27.6" x="740.607" y="214.2645">Vehicle</text><line style="stroke:#181818;stroke-width:0.3;" x1="722.307" x2="786.507" y1="219.3727" y2="219.3727"/><text fill="#000000" font-family="sans-serif" font-size="8.4" lengthAdjust="spacing" textLength="39" x="725.307" y="230.8371">currentKm</text><text fill="#000000" font-family="sans-serif" font-size="8.4" lengthAdjust="spacing" textLength="58.2" x="725.307" y="242.0098">acquisitionDate</text><text fill="#000000" font-family="sans-serif" font-size="8.4" lengthAdjust="spacing" textLength="48.6" x="725.307" y="253.1824">maintenance</text></g><!--class PlateCertification--><g id="elem_PlateCertification"><rect codeLine="58" fill="#F1F1F1" height="100.1812" id="PlateCertification" rx="1.5" ry="1.5" style="stroke:#181818;stroke-width:0.3;" width="67.8" x="665.307" y="304.8"/><text fill="#000000" font-family="sans-serif" font-size="8.4" lengthAdjust="spacing" textLength="64.2" x="667.107" y="316.8645">PlateCertification</text><line style="stroke:#181818;stroke-width:0.3;" x1="665.907" x2="732.507" y1="321.9727" y2="321.9727"/><text fill="#000000" font-family="sans-serif" font-size="8.4" lengthAdjust="spacing" textLength="22.2" x="668.907" y="333.4371">brand</text><text fill="#000000" font-family="sans-serif" font-size="8.4" lengthAdjust="spacing" textLength="22.8" x="668.907" y="344.6098">model</text><text fill="#000000" font-family="sans-serif" font-size="8.4" lengthAdjust="spacing" textLength="16.2" x="668.907" y="355.7824">type</text><text fill="#000000" font-family="sans-serif" font-size="8.4" lengthAdjust="spacing" textLength="15" x="668.907" y="366.9551">tare</text><text fill="#000000" font-family="sans-serif" font-size="8.4" lengthAdjust="spacing" textLength="47.4" x="668.907" y="378.1277">grossWeight</text><text fill="#000000" font-family="sans-serif" font-size="8.4" lengthAdjust="spacing" textLength="46.8" x="668.907" y="389.3004">registerDate</text><text fill="#000000" font-family="sans-serif" font-size="8.4" lengthAdjust="spacing" textLength="18.6" x="668.907" y="400.473">plate</text></g><!--class VehicleCheckUp--><g id="elem_VehicleCheckUp"><rect codeLine="68" fill="#F1F1F1" height="55.4906" id="VehicleCheckUp" rx="1.5" ry="1.5" style="stroke:#181818;stroke-width:0.3;" width="65.4" x="782.907" y="458.1"/><text fill="#000000" font-family="sans-serif" font-size="8.4" lengthAdjust="spacing" textLength="61.8" x="784.707" y="470.1645">VehicleCheckUp</text><line style="stroke:#181818;stroke-width:0.3;" x1="783.507" x2="847.707" y1="475.2727" y2="475.2727"/><text fill="#000000" font-family="sans-serif" font-size="8.4" lengthAdjust="spacing" textLength="16.8" x="786.507" y="486.7371">date</text><text fill="#000000" font-family="sans-serif" font-size="8.4" lengthAdjust="spacing" textLength="20.4" x="786.507" y="497.9098">place</text><text fill="#000000" font-family="sans-serif" font-size="8.4" lengthAdjust="spacing" textLength="15" x="786.507" y="509.0824">kms</text></g><!--class GreenSpace--><g id="elem_GreenSpace"><rect codeLine="74" fill="#F1F1F1" height="55.4906" id="GreenSpace" rx="1.5" ry="1.5" style="stroke:#181818;stroke-width:0.3;" width="85.8" x="149.907" y="684"/><text fill="#000000" font-family="sans-serif" font-size="8.4" lengthAdjust="spacing" textLength="48" x="168.807" y="696.0645">GreenSpace</text><line style="stroke:#181818;stroke-width:0.3;" x1="150.507" x2="235.107" y1="701.1727" y2="701.1727"/><text fill="#000000" font-family="sans-serif" font-size="8.4" lengthAdjust="spacing" textLength="27" x="153.507" y="712.6371">garden</text><text fill="#000000" font-family="sans-serif" font-size="8.4" lengthAdjust="spacing" textLength="78.6" x="153.507" y="723.8098">mediumSizedGarden</text><text fill="#000000" font-family="sans-serif" font-size="8.4" lengthAdjust="spacing" textLength="68.4" x="153.507" y="734.9824">largeSizedGarden</text></g><!--class Agenda--><g id="elem_Agenda"><rect codeLine="80" fill="#F1F1F1" height="21.9727" id="Agenda" rx="1.5" ry="1.5" style="stroke:#181818;stroke-width:0.3;" width="33" x="100.707" y="474.6"/><text fill="#000000" font-family="sans-serif" font-size="8.4" lengthAdjust="spacing" textLength="29.4" x="102.507" y="486.6645">Agenda</text><line style="stroke:#181818;stroke-width:0.3;" x1="101.307" x2="133.107" y1="491.7727" y2="491.7727"/></g><!--link Organization to HumanResourceManager--><g id="link_Organization_HumanResourceManager"><path codeLine="82" d="M450.135,16.722 C418.977,18.6 365.727,24.702 324.807,44.4 C285.459,63.342 249.987,102.588 234.309,121.56 " fill="none" id="Organization-HumanResourceManager" style="stroke:#181818;stroke-width:0.6;"/><polygon fill="#000000" points="294.5085,70.0981,300.1606,69.313,298.6196,66.1407,294.5085,70.0981" style="stroke:#000000;stroke-width:0.6;"/><text fill="#000000" font-family="sans-serif" font-size="7.8" lengthAdjust="spacing" textLength="12.6" x="302.607" y="72.017">has</text><text fill="#000000" font-family="sans-serif" font-size="7.8" lengthAdjust="spacing" textLength="4.2" x="441.1273" y="26.2945">1</text><text fill="#000000" font-family="sans-serif" font-size="7.8" lengthAdjust="spacing" textLength="12" x="223.0439" y="115.0068">1..*</text></g><!--link Organization to Collaborator--><g id="link_Organization_Collaborator"><path codeLine="83" d="M462.225,26.502 C435.129,48.33 375.651,101.358 353.607,162 C344.433,187.242 350.091,256.608 355.575,304.728 " fill="none" id="Organization-Collaborator" style="stroke:#181818;stroke-width:0.6;"/><polygon fill="#000000" points="375.9332,135.7886,379.5222,131.3522,376.2292,130.0899,375.9332,135.7886" style="stroke:#000000;stroke-width:0.6;"/><text fill="#000000" font-family="sans-serif" font-size="7.8" lengthAdjust="spacing" textLength="12.6" x="382.407" y="136.217">has</text><text fill="#000000" font-family="sans-serif" font-size="7.8" lengthAdjust="spacing" textLength="4.2" x="453.7567" y="39.3542">1</text><text fill="#000000" font-family="sans-serif" font-size="7.8" lengthAdjust="spacing" textLength="12" x="342.4678" y="298.0309">1..*</text></g><!--link Organization to FleetManager--><g id="link_Organization_FleetManager"><path codeLine="84" d="M501.945,15.888 C529.101,17.13 571.749,22.77 600.807,44.4 C627.537,64.302 642.021,103.08 647.715,121.752 " fill="none" id="Organization-FleetManager" style="stroke:#181818;stroke-width:0.6;"/><polygon fill="#000000" points="632.0344,70.5502,628.6794,65.9343,626.607,68.7879,632.0344,70.5502" style="stroke:#000000;stroke-width:0.6;"/><text fill="#000000" font-family="sans-serif" font-size="7.8" lengthAdjust="spacing" textLength="12.6" x="635.007" y="72.017">has</text><text fill="#000000" font-family="sans-serif" font-size="7.8" lengthAdjust="spacing" textLength="4.2" x="506.5888" y="13.391">1</text><text fill="#000000" font-family="sans-serif" font-size="7.8" lengthAdjust="spacing" textLength="12" x="632.9918" y="115.0546">1..*</text></g><!--link Organization to SoftwareQualityTeamManager--><g id="link_Organization_SoftwareQualityTeamManager"><path codeLine="85" d="M471.813,26.418 C460.473,54.876 429.279,133.176 417.861,161.82 " fill="none" id="Organization-SoftwareQualityTeamManager" style="stroke:#181818;stroke-width:0.6;"/><polygon fill="#000000" points="458.6965,71.5742,462.3435,67.1854,459.0673,65.8799,458.6965,71.5742" style="stroke:#000000;stroke-width:0.6;"/><text fill="#000000" font-family="sans-serif" font-size="7.8" lengthAdjust="spacing" textLength="12.6" x="465.207" y="72.017">has</text><text fill="#000000" font-family="sans-serif" font-size="7.8" lengthAdjust="spacing" textLength="4.2" x="465.8428" y="39.4528">1</text><text fill="#000000" font-family="sans-serif" font-size="7.8" lengthAdjust="spacing" textLength="12" x="405.3481" y="155.2844">1..*</text></g><!--link Organization to GreenSpaceManager--><g id="link_Organization_GreenSpaceManager"><path codeLine="86" d="M478.869,26.418 C486.609,54.876 507.909,133.176 515.703,161.82 " fill="none" id="Organization-GreenSpaceManager" style="stroke:#181818;stroke-width:0.6;"/><polygon fill="#000000" points="495.3945,71.6821,495.6714,65.9825,492.2684,66.9082,495.3945,71.6821" style="stroke:#000000;stroke-width:0.6;"/><text fill="#000000" font-family="sans-serif" font-size="7.8" lengthAdjust="spacing" textLength="12.6" x="500.007" y="72.017">has</text><text fill="#000000" font-family="sans-serif" font-size="7.8" lengthAdjust="spacing" textLength="4.2" x="474.8833" y="39.4528">1</text><text fill="#000000" font-family="sans-serif" font-size="7.8" lengthAdjust="spacing" textLength="12" x="501.0874" y="155.2844">1..*</text></g><!--link Organization to Skill--><g id="link_Organization_Skill"><path codeLine="87" d="M450.045,16.05 C351.837,16.956 8.607,23.322 8.607,68.1 C8.607,68.1 8.607,68.1 8.607,355.5 C8.607,398.25 29.787,445.146 42.279,469.086 " fill="none" id="Organization-Skill" style="stroke:#181818;stroke-width:0.6;"/><polygon fill="#000000" points="9.6,175.4171,14.5413,172.563,11.92,170.2037,9.6,175.4171" style="stroke:#000000;stroke-width:0.6;"/><text fill="#000000" font-family="sans-serif" font-size="7.8" lengthAdjust="spacing" textLength="18" x="17.007" y="176.417">owns</text><text fill="#000000" font-family="sans-serif" font-size="7.8" lengthAdjust="spacing" textLength="4.2" x="441.1972" y="13.5798">1</text><text fill="#000000" font-family="sans-serif" font-size="7.8" lengthAdjust="spacing" textLength="12" x="27.0135" y="462.5563">1..*</text></g><!--link Organization to Job--><g id="link_Organization_Job"><path codeLine="88" d="M501.885,17.226 C534.177,20.436 585.207,31.326 585.207,68.1 C585.207,68.1 585.207,68.1 585.207,355.5 C585.207,448.926 437.151,476.136 382.209,483.018 " fill="none" id="Organization-Job" style="stroke:#181818;stroke-width:0.6;"/><polygon fill="#000000" points="587.4604,176.0929,590.5188,171.2754,587.1031,170.3978,587.4604,176.0929" style="stroke:#000000;stroke-width:0.6;"/><text fill="#000000" font-family="sans-serif" font-size="7.8" lengthAdjust="spacing" textLength="18" x="593.607" y="176.417">owns</text><text fill="#000000" font-family="sans-serif" font-size="7.8" lengthAdjust="spacing" textLength="4.2" x="506.6937" y="26.8851">1</text><text fill="#000000" font-family="sans-serif" font-size="7.8" lengthAdjust="spacing" textLength="12" x="386.8762" y="479.8514">1..*</text></g><!--link Organization to Vehicle--><g id="link_Organization_Vehicle"><path codeLine="89" d="M501.873,16.452 C539.139,18.528 608.349,27.324 653.007,63 C697.689,98.694 708.513,111.42 735.207,162 C741.777,174.45 746.337,189.414 749.355,202.056 " fill="none" id="Organization-Vehicle" style="stroke:#181818;stroke-width:0.6;"/><polygon fill="#000000" points="703.407,99.9873,700.1233,95.3204,698.0073,98.1418,703.407,99.9873" style="stroke:#000000;stroke-width:0.6;"/><text fill="#000000" font-family="sans-serif" font-size="7.8" lengthAdjust="spacing" textLength="18" x="706.407" y="101.417">owns</text><text fill="#000000" font-family="sans-serif" font-size="7.8" lengthAdjust="spacing" textLength="4.2" x="506.7338" y="27.3292">1</text><text fill="#000000" font-family="sans-serif" font-size="7.8" lengthAdjust="spacing" textLength="12" x="735.7317" y="195.4405">1..*</text></g><!--link HumanResourceManager to Skill--><g id="link_HumanResourceManager_Skill"><path codeLine="91" d="M175.647,143.664 C163.449,147.864 151.083,153.756 141.207,162 C125.541,175.08 128.079,183.918 119.007,202.2 C103.191,234.072 96.849,241.326 86.607,275.4 C65.457,345.762 55.797,433.446 52.545,469.008 " fill="none" id="HumanResourceManager-Skill" style="stroke:#181818;stroke-width:0.6;"/><polygon fill="#000000" points="88.5453,283.9932,92.1151,279.5413,88.8166,278.2933,88.5453,283.9932" style="stroke:#000000;stroke-width:0.6;"/><text fill="#000000" font-family="sans-serif" font-size="7.8" lengthAdjust="spacing" textLength="19.2" x="95.007" y="284.417">regist</text><text fill="#000000" font-family="sans-serif" font-size="7.8" lengthAdjust="spacing" textLength="4.2" x="166.6293" y="142.4217">1</text><text fill="#000000" font-family="sans-serif" font-size="7.8" lengthAdjust="spacing" textLength="12" x="54.1502" y="462.4612">1..*</text></g><!--link HumanResourceManager to Job--><g id="link_HumanResourceManager_Job"><path codeLine="92" d="M226.335,144.024 C226.935,154.308 228.081,170.376 230.007,184.2 C234.585,217.038 234.897,225.636 244.407,257.4 C269.865,342.432 327.063,433.218 351.069,469.146 " fill="none" id="HumanResourceManager-Job" style="stroke:#181818;stroke-width:0.6;"/><polygon fill="#000000" points="258.0816,283.9882,257.784,278.2897,254.4913,279.5529,258.0816,283.9882" style="stroke:#000000;stroke-width:0.6;"/><text fill="#000000" font-family="sans-serif" font-size="7.8" lengthAdjust="spacing" textLength="19.2" x="262.407" y="284.417">regist</text><text fill="#000000" font-family="sans-serif" font-size="7.8" lengthAdjust="spacing" textLength="4.2" x="221.6929" y="157.0605">1</text><text fill="#000000" font-family="sans-serif" font-size="7.8" lengthAdjust="spacing" textLength="12" x="335.1521" y="462.3589">1..*</text></g><!--link HumanResourceManager to Collaborator--><g id="link_HumanResourceManager_Collaborator"><path codeLine="93" d="M228.687,144.024 C235.023,166.14 251.535,218.586 275.607,257.4 C291.231,282.588 313.599,307.464 331.665,325.71 " fill="none" id="HumanResourceManager-Collaborator" style="stroke:#181818;stroke-width:0.6;"/><polygon fill="#000000" points="280.0863,232.4972,278.9443,226.9063,275.8761,228.6453,280.0863,232.4972" style="stroke:#000000;stroke-width:0.6;"/><text fill="#000000" font-family="sans-serif" font-size="7.8" lengthAdjust="spacing" textLength="19.2" x="284.007" y="233.117">regist</text><text fill="#000000" font-family="sans-serif" font-size="7.8" lengthAdjust="spacing" textLength="4.2" x="224.7064" y="157.0605">1</text><text fill="#000000" font-family="sans-serif" font-size="7.8" lengthAdjust="spacing" textLength="12" x="315.0087" y="319.546">1..*</text></g><!--link HumanResourceManager to Collaborator--><g id="link_HumanResourceManager_Collaborator"><path codeLine="97" d="M242.667,144.054 C260.685,156.108 288.963,177.402 306.207,202.2 C327.729,233.142 339.1119,262.9618 347.8299,294.2698 " fill="none" id="HumanResourceManager-to-Collaborator" style="stroke:#181818;stroke-width:0.6;"/><polygon fill="none" points="350.727,304.674,351.2979,293.3041,344.3618,295.2355,350.727,304.674" style="stroke:#181818;stroke-width:0.6;"/></g><!--link HumanResourceManager to Team--><g id="link_HumanResourceManager_Team"><path codeLine="94" d="M181.623,144.066 C172.059,148.236 162.831,154.008 156.207,162 C142.749,178.23 141.303,204.138 141.693,218.586 " fill="none" id="HumanResourceManager-Team" style="stroke:#181818;stroke-width:0.6;"/><polygon fill="#000000" points="157.7901,175.8316,161.9076,171.8808,158.799,170.2152,157.7901,175.8316" style="stroke:#000000;stroke-width:0.6;"/><text fill="#000000" font-family="sans-serif" font-size="7.8" lengthAdjust="spacing" textLength="25.8" x="164.607" y="176.417">creates</text><text fill="#000000" font-family="sans-serif" font-size="7.8" lengthAdjust="spacing" textLength="4.2" x="166.7198" y="156.291">1</text><text fill="#000000" font-family="sans-serif" font-size="7.8" lengthAdjust="spacing" textLength="12" x="127.6368" y="211.8684">1..*</text></g><!--link FleetManager to Collaborator--><g id="link_FleetManager_Collaborator"><path codeLine="96" d="M644.259,144.018 C637.383,154.872 625.659,171.906 612.807,184.2 C542.175,251.742 451.4664,305.6161 401.8044,332.9521 " fill="none" id="FleetManager-to-Collaborator" style="stroke:#181818;stroke-width:0.6;"/><polygon fill="none" points="392.343,338.16,403.5403,336.1059,400.0684,329.7983,392.343,338.16" style="stroke:#181818;stroke-width:0.6;"/></g><!--link SoftwareQualityTeamManager to Collaborator--><g id="link_SoftwareQualityTeamManager_Collaborator"><path codeLine="98" d="M410.535,184.458 C403.929,207.582 390.9846,252.8897 379.1706,294.2297 " fill="none" id="SoftwareQualityTeamManager-to-Collaborator" style="stroke:#181818;stroke-width:0.6;"/><polygon fill="none" points="376.203,304.614,382.632,295.2189,375.7091,293.2405,376.203,304.614" style="stroke:#181818;stroke-width:0.6;"/></g><!--link GreenSpaceManager to Collaborator--><g id="link_GreenSpaceManager_Collaborator"><path codeLine="99" d="M509.277,184.458 C486.729,210.462 435.5207,269.5207 399.4007,311.1727 " fill="none" id="GreenSpaceManager-to-Collaborator" style="stroke:#181818;stroke-width:0.6;"/><polygon fill="none" points="392.325,319.332,402.1204,313.5312,396.6809,308.8141,392.325,319.332" style="stroke:#181818;stroke-width:0.6;"/></g><!--link Collaborator to Job--><g id="link_Collaborator_Job"><path codeLine="101" d="M362.007,405.048 C362.007,427.776 362.007,453.15 362.007,469.116 " fill="none" id="Collaborator-Job" style="stroke:#181818;stroke-width:0.6;"/><polygon fill="#000000" points="365.007,425.7873,363.2436,431.2144,366.7703,431.2144,365.007,425.7873" style="stroke:#000000;stroke-width:0.6;"/><text fill="#000000" font-family="sans-serif" font-size="7.8" lengthAdjust="spacing" textLength="40.2" x="370.407" y="432.017">assigned to</text><text fill="#000000" font-family="sans-serif" font-size="7.8" lengthAdjust="spacing" textLength="12" x="349.4914" y="418.2212">1..*</text><text fill="#000000" font-family="sans-serif" font-size="7.8" lengthAdjust="spacing" textLength="4.2" x="357.3214" y="462.322">1</text></g><!--link Collaborator to Skill--><g id="link_Collaborator_Skill"><path codeLine="102" d="M331.551,362.574 C279.633,375.438 171.717,405.72 90.207,452.4 C82.233,456.966 74.301,463.218 67.695,469.038 " fill="none" id="Collaborator-Skill" style="stroke:#181818;stroke-width:0.6;"/><polygon fill="#000000" points="152.3891,427.6648,146.6964,428.0602,148.0161,431.3307,152.3891,427.6648" style="stroke:#000000;stroke-width:0.6;"/><text fill="#000000" font-family="sans-serif" font-size="7.8" lengthAdjust="spacing" textLength="40.2" x="155.007" y="432.017">assigned to</text><text fill="#000000" font-family="sans-serif" font-size="7.8" lengthAdjust="spacing" textLength="3" x="323.8574" y="361.1832">*</text><text fill="#000000" font-family="sans-serif" font-size="7.8" lengthAdjust="spacing" textLength="3" x="67.9736" y="462.4978">*</text></g><!--link Collaborator to Address--><g id="link_Collaborator_Address"><path codeLine="103" d="M392.445,375.186 C431.367,400.356 498.177,443.562 535.383,467.628 " fill="none" id="Collaborator-Address" style="stroke:#181818;stroke-width:0.6;"/><polygon fill="#000000" points="485.7261,430.4165,482.1266,425.9886,480.2114,428.95,485.7261,430.4165" style="stroke:#000000;stroke-width:0.6;"/><text fill="#000000" font-family="sans-serif" font-size="7.8" lengthAdjust="spacing" textLength="18" x="488.607" y="432.017">owns</text><text fill="#000000" font-family="sans-serif" font-size="7.8" lengthAdjust="spacing" textLength="4.2" x="397.0206" y="375.5521">1</text><text fill="#000000" font-family="sans-serif" font-size="7.8" lengthAdjust="spacing" textLength="4.2" x="526.3593" y="462.0163">1</text></g><!--link Team to Collaborator--><g id="link_Team_Collaborator"><path codeLine="105" d="M144.969,241.05 C148.533,253.656 156.159,274.482 170.007,286.8 C216.675,328.302 290.427,344.67 331.617,350.832 " fill="none" id="Team-Collaborator" style="stroke:#181818;stroke-width:0.6;"/><polygon fill="#000000" points="175.5929,282.7083,171.809,278.4369,170.021,281.4768,175.5929,282.7083" style="stroke:#000000;stroke-width:0.6;"/><text fill="#000000" font-family="sans-serif" font-size="7.8" lengthAdjust="spacing" textLength="12.6" x="178.407" y="284.417">has</text><text fill="#000000" font-family="sans-serif" font-size="7.8" lengthAdjust="spacing" textLength="4.2" x="140.8931" y="253.9151">1</text><text fill="#000000" font-family="sans-serif" font-size="7.8" lengthAdjust="spacing" textLength="12" x="314.9545" y="347.8867">1..*</text></g><!--link Team to Agenda--><g id="link_Team_Agenda"><path codeLine="106" d="M135.891,241.032 C130.863,249.876 124.293,262.974 121.407,275.4 C104.097,349.884 112.359,443.28 115.887,474.438 " fill="none" id="Team-Agenda" style="stroke:#181818;stroke-width:0.6;"/><polygon fill="#000000" points="118.7508,357.9763,120.9712,352.7197,117.4573,352.4185,118.7508,357.9763" style="stroke:#000000;stroke-width:0.6;"/><text fill="#000000" font-family="sans-serif" font-size="7.8" lengthAdjust="spacing" textLength="12.6" x="124.407" y="358.217">has</text><text fill="#000000" font-family="sans-serif" font-size="7.8" lengthAdjust="spacing" textLength="4.2" x="129.3754" y="253.8922">1</text><text fill="#000000" font-family="sans-serif" font-size="7.8" lengthAdjust="spacing" textLength="7.2" x="107.2417" y="467.9077">1*</text></g><!--link Team to Task--><g id="link_Team_Task"><path codeLine="107" d="M144.465,240.99 C149.985,269.976 165.021,353.088 170.007,423 C174.561,486.864 173.991,503.496 165.807,567 C164.205,579.426 160.995,593.226 158.295,603.558 " fill="none" id="Team-Task" style="stroke:#181818;stroke-width:0.6;"/><polygon fill="#000000" points="175.8926,482.7895,174.3374,488.2798,177.8616,488.1454,175.8926,482.7895" style="stroke:#000000;stroke-width:0.6;"/><text fill="#000000" font-family="sans-serif" font-size="7.8" lengthAdjust="spacing" textLength="40.2" x="181.407" y="489.017">assigned to</text><text fill="#000000" font-family="sans-serif" font-size="7.8" lengthAdjust="spacing" textLength="12" x="146.6306" y="253.8389">1..*</text><text fill="#000000" font-family="sans-serif" font-size="7.8" lengthAdjust="spacing" textLength="12" x="160.7203" y="596.7737">1..*</text></g><!--link FleetManager to Vehicle--><g id="link_FleetManager_Vehicle"><path codeLine="109" d="M662.115,144.108 C677.157,157.974 704.049,182.772 724.941,202.032 " fill="none" id="FleetManager-Vehicle" style="stroke:#181818;stroke-width:0.6;"/><polygon fill="#000000" points="707.4126,175.2208,704.6179,170.2457,702.2273,172.8386,707.4126,175.2208" style="stroke:#000000;stroke-width:0.6;"/><text fill="#000000" font-family="sans-serif" font-size="7.8" lengthAdjust="spacing" textLength="19.2" x="710.607" y="176.417">regist</text><text fill="#000000" font-family="sans-serif" font-size="7.8" lengthAdjust="spacing" textLength="4.2" x="660.4434" y="156.9618">1</text><text fill="#000000" font-family="sans-serif" font-size="7.8" lengthAdjust="spacing" textLength="12" x="707.7319" y="195.413">1..*</text></g><!--link FleetManager to VehicleCheckUp--><g id="link_FleetManager_VehicleCheckUp"><path codeLine="110" d="M678.975,139.308 C712.173,147.576 766.545,165.936 797.607,202.2 C857.709,272.358 858.465,313.884 843.207,405 C840.159,423.204 833.463,442.812 827.433,458.07 " fill="none" id="FleetManager-VehicleCheckUp" style="stroke:#181818;stroke-width:0.6;"/><polygon fill="#000000" points="850.4736,283.9068,849.7808,278.2427,846.5838,279.7316,850.4736,283.9068" style="stroke:#000000;stroke-width:0.6;"/><text fill="#000000" font-family="sans-serif" font-size="7.8" lengthAdjust="spacing" textLength="19.2" x="854.607" y="284.417">regist</text><text fill="#000000" font-family="sans-serif" font-size="7.8" lengthAdjust="spacing" textLength="4.2" x="683.6404" y="137.7561">1</text><text fill="#000000" font-family="sans-serif" font-size="7.8" lengthAdjust="spacing" textLength="12" x="816.3251" y="451.2663">1..*</text></g><!--link FleetManager to Address--><g id="link_FleetManager_Address"><path codeLine="111" d="M650.655,144.138 C650.475,184.062 646.515,328.116 600.807,434.4 C597.885,441.198 593.859,447.906 589.515,454.116 " fill="none" id="FleetManager-Address" style="stroke:#181818;stroke-width:0.6;"/><polygon fill="#000000" points="643.4265,284.1306,646.2067,279.1474,642.7466,278.4649,643.4265,284.1306" style="stroke:#000000;stroke-width:0.6;"/><text fill="#000000" font-family="sans-serif" font-size="7.8" lengthAdjust="spacing" textLength="18" x="649.407" y="284.417">owns</text><text fill="#000000" font-family="sans-serif" font-size="7.8" lengthAdjust="spacing" textLength="4.2" x="645.9035" y="156.9998">1</text><text fill="#000000" font-family="sans-serif" font-size="7.8" lengthAdjust="spacing" textLength="4.2" x="594.17" y="446.4954">1</text></g><!--link Vehicle to VehicleCheckUp--><g id="link_Vehicle_VehicleCheckUp"><path codeLine="113" d="M759.471,257.478 C766.071,291.936 778.353,353.208 791.607,405 C796.161,422.79 802.071,442.56 806.889,458.004 " fill="none" id="Vehicle-VehicleCheckUp" style="stroke:#181818;stroke-width:0.6;"/><polygon fill="#000000" points="793.9166,352.0678,793.4495,357.755,796.8815,356.9434,793.9166,352.0678" style="stroke:#000000;stroke-width:0.6;"/><text fill="#000000" font-family="sans-serif" font-size="7.8" lengthAdjust="spacing" textLength="40.2" x="800.007" y="358.217">assigned to</text><text fill="#000000" font-family="sans-serif" font-size="7.8" lengthAdjust="spacing" textLength="4.2" x="755.7248" y="270.9052">1</text><text fill="#000000" font-family="sans-serif" font-size="7.8" lengthAdjust="spacing" textLength="3" x="802.3882" y="451.3956">*</text></g><!--link Vehicle to PlateCertification--><g id="link_Vehicle_PlateCertification"><path codeLine="114" d="M741.189,257.436 C738.369,263.334 735.453,269.556 732.807,275.4 C728.541,284.826 724.113,294.948 719.931,304.698 " fill="none" id="Vehicle-PlateCertification" style="stroke:#181818;stroke-width:0.6;"/><polygon fill="#000000" points="734.5764,283.9233,738.4107,279.6972,735.1944,278.2505,734.5764,283.9233" style="stroke:#000000;stroke-width:0.6;"/><text fill="#000000" font-family="sans-serif" font-size="7.8" lengthAdjust="spacing" textLength="18" x="741.207" y="284.417">owns</text><text fill="#000000" font-family="sans-serif" font-size="7.8" lengthAdjust="spacing" textLength="4.2" x="734.6434" y="270.8568">1</text><text fill="#000000" font-family="sans-serif" font-size="7.8" lengthAdjust="spacing" textLength="4.2" x="717.3897" y="297.9983">1</text></g><!--link Agenda to Task--><g id="link_Agenda_Task"><path codeLine="116" d="M120.141,496.974 C126.555,520.308 141.849,575.976 149.415,603.51 " fill="none" id="Agenda-Task" style="stroke:#181818;stroke-width:0.6;"/><polygon fill="#000000" points="143.2019,564.2801,143.4642,558.5798,140.0636,559.5142,143.2019,564.2801" style="stroke:#000000;stroke-width:0.6;"/><text fill="#000000" font-family="sans-serif" font-size="7.8" lengthAdjust="spacing" textLength="12.6" x="147.807" y="564.617">has</text><text fill="#000000" font-family="sans-serif" font-size="7.8" lengthAdjust="spacing" textLength="4.2" x="116.1651" y="509.8455">1</text><text fill="#000000" font-family="sans-serif" font-size="7.8" lengthAdjust="spacing" textLength="4.2" x="143.7137" y="596.7146">1</text></g><!--link Task to GreenSpace--><g id="link_Task_GreenSpace"><path codeLine="118" d="M150.123,636.726 C148.815,645.63 148.437,656.748 152.007,666 C154.473,672.396 158.319,678.444 162.681,683.91 " fill="none" id="Task-GreenSpace" style="stroke:#181818;stroke-width:0.6;"/><polygon fill="#000000" points="155.7786,663.2864,156.0868,657.5884,152.6787,658.4954,155.7786,663.2864" style="stroke:#000000;stroke-width:0.6;"/><text fill="#000000" font-family="sans-serif" font-size="7.8" lengthAdjust="spacing" textLength="45" x="160.407" y="663.617">carried out in</text><text fill="#000000" font-family="sans-serif" font-size="7.8" lengthAdjust="spacing" textLength="12" x="136.0046" y="649.8988">1..*</text><text fill="#000000" font-family="sans-serif" font-size="7.8" lengthAdjust="spacing" textLength="12" x="145.375" y="677.3024">1..*</text></g><!--link GreenSpaceUser to GreenSpace--><g id="link_GreenSpaceUser_GreenSpace"><path codeLine="120" d="M227.259,631.236 C221.709,644.076 212.133,666.252 204.483,683.964 " fill="none" id="GreenSpaceUser-GreenSpace" style="stroke:#181818;stroke-width:0.6;"/><polygon fill="#000000" points="219.2174,663.1414,222.9882,658.8585,219.7506,657.46,219.2174,663.1414" style="stroke:#000000;stroke-width:0.6;"/><text fill="#000000" font-family="sans-serif" font-size="7.8" lengthAdjust="spacing" textLength="12.6" x="225.807" y="663.617">use</text><text fill="#000000" font-family="sans-serif" font-size="7.8" lengthAdjust="spacing" textLength="12" x="212.2924" y="644.2759">1..*</text><text fill="#000000" font-family="sans-serif" font-size="7.8" lengthAdjust="spacing" textLength="12" x="193.3521" y="677.1594">1..*</text></g><!--SRC=[bLN9Rjim4BthAuWS2pXehaOH873HT47JnKbx7fDZYRL8kaCAGPBstqkHj4GjTHnVDEIysH_7TYVr7WWKKqORNf5Ho1mrMDXEimU-WnBNxg56HiWTwBBE0RO2OUwbBjaMQfjhU0tMNZb7SjCu_C2DNij7PA-BIWfaN1BtZeAiq5L6sA8eWWtxGYLe-GXE6isU_XwkLwQkOMC8d27sL33_qw0m2FvQlmKN3o1K9-yhe_6cKHkaS4O5iWwI52iWaSI4w69T2K7elp6CTOJeWiYbUmZ2ezolZ8X1X34qzl2-KQ2_epKDSVmCsdUHicBUrTxZz7fjjkuU2ByrKFj8jmXg2hhssUYr7mqUqztPeUUThEj3FQryq_QkKtyqcwJyPJP3rItONT8vBuwKFiCioW-if9zhWlE62BNxfE9O-Ez6MjbEjHkFduPsg47ppEVNsgjNI4vk9KyiY5Ccq75YohS-Zj4zx37bHb4eoLZx4sLPnP4Hbj8wf9uJhVzYdFEgGhwxswTG8WFpAEsKBMRwd0nAJoRKCJaKib4jsyLrVri3-OUKNVPaAr4B25qSKF_iuemj5Wl_FJz_TJRBg2MhmBBBetRvkpa5drFp5Fp_ENkAzOJC9uLi2Rnavbu_X_IyFWcNID1XYzdt6uto9DWoySlR7379qdcXnM3hlSmqlCqbuuIUpA6emTPPBFvS3jpF-vp2ZYofANYwhAQOOb1aoZxKSUYOVoQor2YOC-pD29wmsKIEeIywpsd7zoCF_JhQ_SZC3DS2FIozu14WbT7Fersau-o6Cnb6FspJREpFemzxx5cZcGuS0dR5pRaTvZyq2P-P_Ts7IAtgszVr9VQk2AUS0wCrqJ8QYAHFm3IEITqQZVxsZfit5htDFm00]--></g></svg>