<?xml version="1.0" encoding="UTF-8" standalone="no"?><svg xmlns="http://www.w3.org/2000/svg" xmlns:xlink="http://www.w3.org/1999/xlink" contentStyleType="text/css" height="848px" preserveAspectRatio="none" style="width:860px;height:848px;background:#FFFFFF;" version="1.1" viewBox="0 0 860 848" width="860px" zoomAndPan="magnify"><defs/><g><text fill="#000000" font-family="sans-serif" font-size="14" font-weight="bold" lengthAdjust="spacing" textLength="346" x="258.5" y="29.9659">System Sequence Diagram (SSD) - Alternative One</text><rect fill="#FFFFFF" height="551.3596" style="stroke:#181818;stroke-width:1.0;" width="10" x="103" y="169.5479"/><rect fill="#FFFFFF" height="41.24" style="stroke:#181818;stroke-width:1.0;" width="10" x="798" y="202.7878"/><rect fill="#FFFFFF" height="41.24" style="stroke:#181818;stroke-width:1.0;" width="10" x="798" y="285.2678"/><rect fill="#FFFFFF" height="89.7199" style="stroke:#181818;stroke-width:1.0;" width="10" x="798" y="367.7477"/><rect fill="#FFFFFF" height="41.24" style="stroke:#181818;stroke-width:1.0;" width="10" x="798" y="498.7076"/><rect fill="#FFFFFF" height="48.24" style="stroke:#181818;stroke-width:1.0;" width="10" x="798" y="581.1876"/><rect fill="#FFFFFF" height="41.24" style="stroke:#181818;stroke-width:1.0;" width="10" x="798" y="670.6675"/><rect fill="none" height="206.4398" style="stroke:#000000;stroke-width:1.5;" width="844" x="10" y="382.7477"/><line style="stroke:#181818;stroke-width:0.5;stroke-dasharray:5.0,5.0;" x1="108" x2="108" y1="159.5479" y2="729.9075"/><line style="stroke:#181818;stroke-width:0.5;stroke-dasharray:5.0,5.0;" x1="803" x2="803" y1="159.5479" y2="729.9075"/><text fill="#000000" font-family="sans-serif" font-size="20" lengthAdjust="spacing" textLength="170" x="20" y="126.4479">Human Resources</text><text fill="#000000" font-family="sans-serif" font-size="20" lengthAdjust="spacing" textLength="83" x="63.5" y="153.6879">Manager</text><ellipse cx="108" cy="53.5679" fill="#E3E3E3" rx="8" ry="8" style="stroke:#181818;stroke-width:0.5;"/><path d="M108,61.5679 L108,88.5679 M95,69.5679 L121,69.5679 M108,88.5679 L95,103.5679 M108,88.5679 L121,103.5679 " fill="none" style="stroke:#181818;stroke-width:0.5;"/><text fill="#000000" font-family="sans-serif" font-size="20" lengthAdjust="spacing" textLength="170" x="20" y="750.2875">Human Resources</text><text fill="#000000" font-family="sans-serif" font-size="20" lengthAdjust="spacing" textLength="83" x="63.5" y="777.5275">Manager</text><ellipse cx="108" cy="791.8875" fill="#E3E3E3" rx="8" ry="8" style="stroke:#181818;stroke-width:0.5;"/><path d="M108,799.8875 L108,826.8875 M95,807.8875 L121,807.8875 M108,826.8875 L95,841.8875 M108,826.8875 L121,841.8875 " fill="none" style="stroke:#181818;stroke-width:0.5;"/><rect fill="#E3E3E3" height="41.24" rx="2.5" ry="2.5" style="stroke:#181818;stroke-width:0.5;" width="82" x="762" y="117.3079"/><text fill="#000000" font-family="sans-serif" font-size="20" lengthAdjust="spacing" textLength="68" x="769" y="145.6879">System</text><rect fill="#E3E3E3" height="41.24" rx="2.5" ry="2.5" style="stroke:#181818;stroke-width:0.5;" width="82" x="762" y="728.9075"/><text fill="#000000" font-family="sans-serif" font-size="20" lengthAdjust="spacing" textLength="68" x="769" y="757.2875">System</text><rect fill="#FFFFFF" height="551.3596" style="stroke:#181818;stroke-width:1.0;" width="10" x="103" y="169.5479"/><rect fill="#FFFFFF" height="41.24" style="stroke:#181818;stroke-width:1.0;" width="10" x="798" y="202.7878"/><rect fill="#FFFFFF" height="41.24" style="stroke:#181818;stroke-width:1.0;" width="10" x="798" y="285.2678"/><rect fill="#FFFFFF" height="89.7199" style="stroke:#181818;stroke-width:1.0;" width="10" x="798" y="367.7477"/><rect fill="#FFFFFF" height="41.24" style="stroke:#181818;stroke-width:1.0;" width="10" x="798" y="498.7076"/><rect fill="#FFFFFF" height="48.24" style="stroke:#181818;stroke-width:1.0;" width="10" x="798" y="581.1876"/><rect fill="#FFFFFF" height="41.24" style="stroke:#181818;stroke-width:1.0;" width="10" x="798" y="670.6675"/><polygon fill="#181818" points="786,198.7878,796,202.7878,786,206.7878,790,202.7878" style="stroke:#181818;stroke-width:1.0;"/><line style="stroke:#181818;stroke-width:1.0;" x1="113" x2="792" y1="202.7878" y2="202.7878"/><text fill="#000000" font-family="sans-serif" font-size="20" font-weight="bold" lengthAdjust="spacing" textLength="11" x="120" y="194.9278">1</text><text fill="#000000" font-family="sans-serif" font-size="20" lengthAdjust="spacing" textLength="462" x="135" y="194.9278">Asks to assign one or more skills to a collaborator</text><polygon fill="#181818" points="124,240.0278,114,244.0278,124,248.0278,120,244.0278" style="stroke:#181818;stroke-width:1.0;"/><line style="stroke:#181818;stroke-width:1.0;stroke-dasharray:2.0,2.0;" x1="118" x2="802" y1="244.0278" y2="244.0278"/><text fill="#000000" font-family="sans-serif" font-size="20" font-weight="bold" lengthAdjust="spacing" textLength="11" x="130" y="236.1678">2</text><text fill="#000000" font-family="sans-serif" font-size="20" lengthAdjust="spacing" textLength="402" x="145" y="236.1678">Requests the collaborator to assign skills to</text><polygon fill="#181818" points="786,281.2678,796,285.2678,786,289.2678,790,285.2678" style="stroke:#181818;stroke-width:1.0;"/><line style="stroke:#181818;stroke-width:1.0;" x1="113" x2="792" y1="285.2678" y2="285.2678"/><text fill="#000000" font-family="sans-serif" font-size="20" font-weight="bold" lengthAdjust="spacing" textLength="11" x="120" y="277.4078">3</text><text fill="#000000" font-family="sans-serif" font-size="20" lengthAdjust="spacing" textLength="322" x="135" y="277.4078">Types the collaborator information</text><polygon fill="#181818" points="124,322.5078,114,326.5078,124,330.5078,120,326.5078" style="stroke:#181818;stroke-width:1.0;"/><line style="stroke:#181818;stroke-width:1.0;stroke-dasharray:2.0,2.0;" x1="118" x2="802" y1="326.5078" y2="326.5078"/><text fill="#000000" font-family="sans-serif" font-size="20" font-weight="bold" lengthAdjust="spacing" textLength="11" x="130" y="318.6478">4</text><text fill="#000000" font-family="sans-serif" font-size="20" lengthAdjust="spacing" textLength="200" x="145" y="318.6478">Request confirmation</text><polygon fill="#181818" points="786,363.7477,796,367.7477,786,371.7477,790,367.7477" style="stroke:#181818;stroke-width:1.0;"/><line style="stroke:#181818;stroke-width:1.0;" x1="113" x2="792" y1="367.7477" y2="367.7477"/><text fill="#000000" font-family="sans-serif" font-size="20" font-weight="bold" lengthAdjust="spacing" textLength="11" x="120" y="359.8877">5</text><text fill="#000000" font-family="sans-serif" font-size="20" lengthAdjust="spacing" textLength="108" x="135" y="359.8877">Confirms it.</text><path d="M10,382.7477 L98,382.7477 L98,401.9877 L88,411.9877 L10,411.9877 L10,382.7477 " fill="#EEEEEE" style="stroke:#000000;stroke-width:1.5;"/><rect fill="none" height="206.4398" style="stroke:#000000;stroke-width:1.5;" width="844" x="10" y="382.7477"/><text fill="#000000" font-family="sans-serif" font-size="20" font-weight="bold" lengthAdjust="spacing" textLength="43" x="25" y="405.1277">loop</text><text fill="#000000" font-family="sans-serif" font-size="20" font-weight="bold" lengthAdjust="spacing" textLength="725" x="113" y="406.1277">[as long as Human Resources Manager don´t want to type in more skills.]</text><polygon fill="#181818" points="124,453.4677,114,457.4677,124,461.4677,120,457.4677" style="stroke:#181818;stroke-width:1.0;"/><line style="stroke:#181818;stroke-width:1.0;stroke-dasharray:2.0,2.0;" x1="118" x2="802" y1="457.4677" y2="457.4677"/><text fill="#000000" font-family="sans-serif" font-size="20" font-weight="bold" lengthAdjust="spacing" textLength="11" x="130" y="449.6077">6</text><text fill="#000000" font-family="sans-serif" font-size="20" lengthAdjust="spacing" textLength="148" x="145" y="449.6077">Requests skill(s)</text><polygon fill="#181818" points="786,494.7076,796,498.7076,786,502.7076,790,498.7076" style="stroke:#181818;stroke-width:1.0;"/><line style="stroke:#181818;stroke-width:1.0;" x1="113" x2="792" y1="498.7076" y2="498.7076"/><text fill="#000000" font-family="sans-serif" font-size="20" font-weight="bold" lengthAdjust="spacing" textLength="11" x="120" y="490.8476">7</text><text fill="#000000" font-family="sans-serif" font-size="20" lengthAdjust="spacing" textLength="101" x="135" y="490.8476">Type a skill</text><polygon fill="#181818" points="124,535.9476,114,539.9476,124,543.9476,120,539.9476" style="stroke:#181818;stroke-width:1.0;"/><line style="stroke:#181818;stroke-width:1.0;stroke-dasharray:2.0,2.0;" x1="118" x2="802" y1="539.9476" y2="539.9476"/><text fill="#000000" font-family="sans-serif" font-size="20" font-weight="bold" lengthAdjust="spacing" textLength="11" x="130" y="532.0876">8</text><text fill="#000000" font-family="sans-serif" font-size="20" lengthAdjust="spacing" textLength="200" x="145" y="532.0876">Request confirmation</text><polygon fill="#181818" points="786,577.1876,796,581.1876,786,585.1876,790,581.1876" style="stroke:#181818;stroke-width:1.0;"/><line style="stroke:#181818;stroke-width:1.0;" x1="113" x2="792" y1="581.1876" y2="581.1876"/><text fill="#000000" font-family="sans-serif" font-size="20" font-weight="bold" lengthAdjust="spacing" textLength="11" x="120" y="573.3276">9</text><text fill="#000000" font-family="sans-serif" font-size="20" lengthAdjust="spacing" textLength="103" x="135" y="573.3276">Confirms it</text><polygon fill="#181818" points="124,625.4276,114,629.4276,124,633.4276,120,629.4276" style="stroke:#181818;stroke-width:1.0;"/><line style="stroke:#181818;stroke-width:1.0;stroke-dasharray:2.0,2.0;" x1="118" x2="802" y1="629.4276" y2="629.4276"/><text fill="#000000" font-family="sans-serif" font-size="20" font-weight="bold" lengthAdjust="spacing" textLength="22" x="130" y="621.5676">10</text><text fill="#000000" font-family="sans-serif" font-size="20" lengthAdjust="spacing" textLength="635" x="156" y="621.5676">Shows the skills typed in, the collaborator and requests confirmation</text><polygon fill="#181818" points="786,666.6675,796,670.6675,786,674.6675,790,670.6675" style="stroke:#181818;stroke-width:1.0;"/><line style="stroke:#181818;stroke-width:1.0;" x1="113" x2="792" y1="670.6675" y2="670.6675"/><text fill="#000000" font-family="sans-serif" font-size="20" font-weight="bold" lengthAdjust="spacing" textLength="22" x="120" y="662.8075">11</text><text fill="#000000" font-family="sans-serif" font-size="20" lengthAdjust="spacing" textLength="132" x="146" y="662.8075">Confirms data</text><polygon fill="#181818" points="124,707.9075,114,711.9075,124,715.9075,120,711.9075" style="stroke:#181818;stroke-width:1.0;"/><line style="stroke:#181818;stroke-width:1.0;stroke-dasharray:2.0,2.0;" x1="118" x2="802" y1="711.9075" y2="711.9075"/><text fill="#000000" font-family="sans-serif" font-size="20" font-weight="bold" lengthAdjust="spacing" textLength="22" x="130" y="704.0475">12</text><text fill="#000000" font-family="sans-serif" font-size="20" lengthAdjust="spacing" textLength="251" x="156" y="704.0475">Displays operation success</text><!--SRC=[hLJDRjim3BxxAOYSMc0fXXvx650i6tOP1jGzxiBAZ2D48Zs9Rk0-rvvWJpR6ZZslITkjcowM8Uhx8-syzTnWmXZ4RQc2YjRO1lqehAL_8BXyM-In1AAmk4sIIA2ffTb9WswBDPNQ1O94Jf7hC2_86wnavxc6DOPCHQ5UhRJiibA4ahwrn8vWvR7Ubv-LvUeSbd0Tb1AZ-dk2BspNi5NXDjvHihrJIR3ur4PakA4iRNAKl_9dPDEI5e0PFiGcI4TKc0prpZV82ek1jYyOjZsOlqUbNpSAi3M-mVBTAFOAhlCsWufTpxvc42Om8L4IWJaEOJW49o7WdIGqcJtOn36Imc4Ta9T6CX5UcILB9QkXRUWti1dtnDTZLNIIugI9swwX4z2UrvAY9IxylEONTHikh_qSws_alHykP_1wqLS5aMRVi20sHFPyr7OuT1qguH_V5NRxHbjEQZRDrBmx5vE7ntB-i1yzp5a-d-gFZOqdJqPlyz73_9kMuunV8MSMzRDgYAiNL9KRsGqpDSwbEQqi_ZV7WuPSsP_YaEZ_6PKA5L_peQryRW9s6QIXr6k0t3eRglo4bfy0]--></g></svg>