<?xml version="1.0" encoding="UTF-8" standalone="no"?><svg xmlns="http://www.w3.org/2000/svg" xmlns:xlink="http://www.w3.org/1999/xlink" contentStyleType="text/css" height="538px" preserveAspectRatio="none" style="width:997px;height:538px;background:#FFFFFF;" version="1.1" viewBox="0 0 997 538" width="997px" zoomAndPan="magnify"><defs/><g><!--class Collaborator--><g id="elem_Collaborator"><rect codeLine="11" fill="#F1F1F1" height="107.7199" id="Collaborator" rx="2.5" ry="2.5" style="stroke:#181818;stroke-width:0.5;" width="150" x="840" y="396.92"/><ellipse cx="856" cy="415.54" fill="#ADD1B2" rx="12" ry="12" style="stroke:#181818;stroke-width:1.0;"/><path d="M855.5156,422.7431 Q853.4531,422.7431 852.125,421.8681 Q850.7969,420.9931 850.1406,419.415 Q849.5,417.8212 849.5,415.6962 Q849.5,413.3212 850.2656,411.6181 Q851.0469,409.8994 852.5469,408.9775 Q854.0625,408.0556 856.2656,408.0556 Q857.2969,408.0556 858.0781,408.2744 Q858.875,408.4775 859.7031,408.8837 L858.7344,411.2587 Q858,410.8837 857.3594,410.7431 Q856.7344,410.6025 856.1563,410.6025 Q854.7813,410.6025 853.9531,411.2275 Q853.1406,411.8369 852.7813,412.9619 Q852.4375,414.0869 852.4375,415.5869 Q852.4375,417.9462 853.2813,419.0712 Q854.125,420.1962 856,420.1962 Q856.7031,420.1962 857.4219,420.0244 Q858.1563,419.8369 859.1406,419.3994 L859.1406,421.9931 Q858.2813,422.3837 857.3438,422.5556 Q856.4219,422.7431 855.5156,422.7431 Z " fill="#000000"/><text fill="#000000" font-family="sans-serif" font-size="20" lengthAdjust="spacing" textLength="116" x="871" y="423.3">Collaborator</text><line style="stroke:#181818;stroke-width:0.5;" x1="841" x2="989" y1="434.16" y2="434.16"/><text fill="#000000" font-family="sans-serif" font-size="20" lengthAdjust="spacing" textLength="52" x="846" y="459.54">-skills</text><line style="stroke:#181818;stroke-width:0.5;" x1="841" x2="989" y1="469.3999" y2="469.3999"/><text fill="#000000" font-family="sans-serif" font-size="20" lengthAdjust="spacing" textLength="131" x="846" y="494.7799">+addSkill(skill)</text></g><!--class SkillsRepository--><g id="elem_SkillsRepository"><rect codeLine="16" fill="#F1F1F1" height="107.7199" id="SkillsRepository" rx="2.5" ry="2.5" style="stroke:#181818;stroke-width:0.5;" width="180" x="332" y="396.92"/><ellipse cx="348" cy="415.54" fill="#ADD1B2" rx="12" ry="12" style="stroke:#181818;stroke-width:1.0;"/><path d="M347.5156,422.7431 Q345.4531,422.7431 344.125,421.8681 Q342.7969,420.9931 342.1406,419.415 Q341.5,417.8212 341.5,415.6962 Q341.5,413.3212 342.2656,411.6181 Q343.0469,409.8994 344.5469,408.9775 Q346.0625,408.0556 348.2656,408.0556 Q349.2969,408.0556 350.0781,408.2744 Q350.875,408.4775 351.7031,408.8837 L350.7344,411.2587 Q350,410.8837 349.3594,410.7431 Q348.7344,410.6025 348.1563,410.6025 Q346.7813,410.6025 345.9531,411.2275 Q345.1406,411.8369 344.7813,412.9619 Q344.4375,414.0869 344.4375,415.5869 Q344.4375,417.9462 345.2813,419.0712 Q346.125,420.1962 348,420.1962 Q348.7031,420.1962 349.4219,420.0244 Q350.1563,419.8369 351.1406,419.3994 L351.1406,421.9931 Q350.2813,422.3837 349.3438,422.5556 Q348.4219,422.7431 347.5156,422.7431 Z " fill="#000000"/><text fill="#000000" font-family="sans-serif" font-size="20" lengthAdjust="spacing" textLength="146" x="363" y="423.3">SkillsRepository</text><line style="stroke:#181818;stroke-width:0.5;" x1="333" x2="511" y1="434.16" y2="434.16"/><text fill="#000000" font-family="sans-serif" font-size="20" lengthAdjust="spacing" textLength="84" x="338" y="459.54">-skillsList</text><line style="stroke:#181818;stroke-width:0.5;" x1="333" x2="511" y1="469.3999" y2="469.3999"/><text fill="#000000" font-family="sans-serif" font-size="20" lengthAdjust="spacing" textLength="132" x="338" y="494.7799">+getSkillsList()</text></g><!--class CollaboratorsRepository--><g id="elem_CollaboratorsRepository"><rect codeLine="21" fill="#F1F1F1" height="107.7199" id="CollaboratorsRepository" rx="2.5" ry="2.5" style="stroke:#181818;stroke-width:0.5;" width="259" x="546.5" y="396.92"/><ellipse cx="562.5" cy="415.54" fill="#ADD1B2" rx="12" ry="12" style="stroke:#181818;stroke-width:1.0;"/><path d="M562.0156,422.7431 Q559.9531,422.7431 558.625,421.8681 Q557.2969,420.9931 556.6406,419.415 Q556,417.8212 556,415.6962 Q556,413.3212 556.7656,411.6181 Q557.5469,409.8994 559.0469,408.9775 Q560.5625,408.0556 562.7656,408.0556 Q563.7969,408.0556 564.5781,408.2744 Q565.375,408.4775 566.2031,408.8837 L565.2344,411.2587 Q564.5,410.8837 563.8594,410.7431 Q563.2344,410.6025 562.6563,410.6025 Q561.2813,410.6025 560.4531,411.2275 Q559.6406,411.8369 559.2813,412.9619 Q558.9375,414.0869 558.9375,415.5869 Q558.9375,417.9462 559.7813,419.0712 Q560.625,420.1962 562.5,420.1962 Q563.2031,420.1962 563.9219,420.0244 Q564.6563,419.8369 565.6406,419.3994 L565.6406,421.9931 Q564.7813,422.3837 563.8438,422.5556 Q562.9219,422.7431 562.0156,422.7431 Z " fill="#000000"/><text fill="#000000" font-family="sans-serif" font-size="20" lengthAdjust="spacing" textLength="225" x="577.5" y="423.3">CollaboratorsRepository</text><line style="stroke:#181818;stroke-width:0.5;" x1="547.5" x2="804.5" y1="434.16" y2="434.16"/><text fill="#000000" font-family="sans-serif" font-size="20" lengthAdjust="spacing" textLength="161" x="552.5" y="459.54">-collaboratorsList</text><line style="stroke:#181818;stroke-width:0.5;" x1="547.5" x2="804.5" y1="469.3999" y2="469.3999"/><text fill="#000000" font-family="sans-serif" font-size="20" lengthAdjust="spacing" textLength="211" x="552.5" y="494.7799">+getCollaboratorsList()</text></g><!--class Repositories--><g id="elem_Repositories"><rect codeLine="26" fill="#F1F1F1" height="162.1999" id="Repositories" rx="2.5" ry="2.5" style="stroke:#181818;stroke-width:0.5;" width="290" x="7" y="369.68"/><ellipse cx="90" cy="388.3" fill="#ADD1B2" rx="12" ry="12" style="stroke:#181818;stroke-width:1.0;"/><path d="M89.5156,395.5031 Q87.4531,395.5031 86.125,394.6281 Q84.7969,393.7531 84.1406,392.175 Q83.5,390.5812 83.5,388.4562 Q83.5,386.0812 84.2656,384.3781 Q85.0469,382.6594 86.5469,381.7375 Q88.0625,380.8156 90.2656,380.8156 Q91.2969,380.8156 92.0781,381.0344 Q92.875,381.2375 93.7031,381.6437 L92.7344,384.0187 Q92,383.6437 91.3594,383.5031 Q90.7344,383.3625 90.1563,383.3625 Q88.7813,383.3625 87.9531,383.9875 Q87.1406,384.5969 86.7813,385.7219 Q86.4375,386.8469 86.4375,388.3469 Q86.4375,390.7062 87.2813,391.8312 Q88.125,392.9562 90,392.9562 Q90.7031,392.9562 91.4219,392.7844 Q92.1563,392.5969 93.1406,392.1594 L93.1406,394.7531 Q92.2813,395.1437 91.3438,395.3156 Q90.4219,395.5031 89.5156,395.5031 Z " fill="#000000"/><text fill="#000000" font-family="sans-serif" font-size="20" lengthAdjust="spacing" textLength="115" x="112" y="396.06">Repositories</text><line style="stroke:#181818;stroke-width:0.5;" x1="8" x2="296" y1="406.92" y2="406.92"/><line style="stroke:#181818;stroke-width:0.5;" x1="8" x2="296" y1="414.92" y2="414.92"/><text fill="#000000" font-family="sans-serif" font-size="20" lengthAdjust="spacing" textLength="133" x="13" y="440.3">-Repositories()</text><text fill="#000000" font-family="sans-serif" font-size="20" lengthAdjust="spacing" textLength="133" x="13" y="467.5399">+getInstance()</text><text fill="#000000" font-family="sans-serif" font-size="20" lengthAdjust="spacing" textLength="278" x="13" y="494.7799">+getCollaboratorsRepository()</text><text fill="#000000" font-family="sans-serif" font-size="20" lengthAdjust="spacing" textLength="199" x="13" y="522.0199">+getSkillsRepository()</text></g><!--class AssignSkillController--><g id="elem_AssignSkillController"><rect codeLine="33" fill="#F1F1F1" height="189.4398" id="AssignSkillController" rx="2.5" ry="2.5" style="stroke:#181818;stroke-width:0.5;" width="448" x="325" y="120.24"/><ellipse cx="448.5" cy="138.86" fill="#ADD1B2" rx="12" ry="12" style="stroke:#181818;stroke-width:1.0;"/><path d="M448.0156,146.0631 Q445.9531,146.0631 444.625,145.1881 Q443.2969,144.3131 442.6406,142.735 Q442,141.1412 442,139.0162 Q442,136.6412 442.7656,134.9381 Q443.5469,133.2194 445.0469,132.2975 Q446.5625,131.3756 448.7656,131.3756 Q449.7969,131.3756 450.5781,131.5944 Q451.375,131.7975 452.2031,132.2037 L451.2344,134.5787 Q450.5,134.2037 449.8594,134.0631 Q449.2344,133.9225 448.6563,133.9225 Q447.2813,133.9225 446.4531,134.5475 Q445.6406,135.1569 445.2813,136.2819 Q444.9375,137.4069 444.9375,138.9069 Q444.9375,141.2662 445.7813,142.3912 Q446.625,143.5162 448.5,143.5162 Q449.2031,143.5162 449.9219,143.3444 Q450.6563,143.1569 451.6406,142.7194 L451.6406,145.3131 Q450.7813,145.7037 449.8438,145.8756 Q448.9219,146.0631 448.0156,146.0631 Z " fill="#000000"/><text fill="#000000" font-family="sans-serif" font-size="20" lengthAdjust="spacing" textLength="192" x="470.5" y="146.62">AssignSkillController</text><line style="stroke:#181818;stroke-width:0.5;" x1="326" x2="772" y1="157.48" y2="157.48"/><text fill="#000000" font-family="sans-serif" font-size="20" lengthAdjust="spacing" textLength="197" x="331" y="182.86">-collaboratorSelected</text><line style="stroke:#181818;stroke-width:0.5;" x1="326" x2="772" y1="192.7199" y2="192.7199"/><text fill="#000000" font-family="sans-serif" font-size="20" lengthAdjust="spacing" textLength="436" x="331" y="218.0999">+setCollaboratorSelected(collaboratorSelected)</text><text fill="#000000" font-family="sans-serif" font-size="20" lengthAdjust="spacing" textLength="179" x="331" y="245.3399">+getCollaborators()</text><text fill="#000000" font-family="sans-serif" font-size="20" lengthAdjust="spacing" textLength="100" x="331" y="272.5799">+getSkills()</text><text fill="#000000" font-family="sans-serif" font-size="20" lengthAdjust="spacing" textLength="249" x="331" y="299.8199">+storeSkills(skillsToAssign)</text></g><!--class AssignSkillUI--><g id="elem_AssignSkillUI"><rect codeLine="41" fill="#F1F1F1" height="53.24" id="AssignSkillUI" rx="2.5" ry="2.5" style="stroke:#181818;stroke-width:0.5;" width="155" x="471.5" y="7"/><ellipse cx="487.5" cy="25.62" fill="#ADD1B2" rx="12" ry="12" style="stroke:#181818;stroke-width:1.0;"/><path d="M487.0156,32.8231 Q484.9531,32.8231 483.625,31.9481 Q482.2969,31.0731 481.6406,29.495 Q481,27.9012 481,25.7762 Q481,23.4012 481.7656,21.6981 Q482.5469,19.9794 484.0469,19.0575 Q485.5625,18.1356 487.7656,18.1356 Q488.7969,18.1356 489.5781,18.3544 Q490.375,18.5575 491.2031,18.9637 L490.2344,21.3387 Q489.5,20.9637 488.8594,20.8231 Q488.2344,20.6825 487.6563,20.6825 Q486.2813,20.6825 485.4531,21.3075 Q484.6406,21.9169 484.2813,23.0419 Q483.9375,24.1669 483.9375,25.6669 Q483.9375,28.0262 484.7813,29.1512 Q485.625,30.2762 487.5,30.2762 Q488.2031,30.2762 488.9219,30.1044 Q489.6563,29.9169 490.6406,29.4794 L490.6406,32.0731 Q489.7813,32.4637 488.8438,32.6356 Q487.9219,32.8231 487.0156,32.8231 Z " fill="#000000"/><text fill="#000000" font-family="sans-serif" font-size="20" lengthAdjust="spacing" textLength="121" x="502.5" y="33.38">AssignSkillUI</text><line style="stroke:#181818;stroke-width:0.5;" x1="472.5" x2="625.5" y1="44.24" y2="44.24"/><line style="stroke:#181818;stroke-width:0.5;" x1="472.5" x2="625.5" y1="52.24" y2="52.24"/></g><!--link AssignSkillUI to AssignSkillController--><g id="link_AssignSkillUI_AssignSkillController"><path codeLine="44" d="M549,60.7 C549,76.63 549,98.08 549,119.88 " fill="none" id="AssignSkillUI-AssignSkillController" style="stroke:#181818;stroke-width:1.0;stroke-dasharray:7.0,7.0;"/></g><!--link AssignSkillController to Repositories--><g id="link_AssignSkillController_Repositories"><path codeLine="46" d="M389.24,310.05 C355.95,329.66 321.15,350.16 288.78,369.22 " fill="none" id="AssignSkillController-Repositories" style="stroke:#181818;stroke-width:1.0;stroke-dasharray:7.0,7.0;"/></g><!--link AssignSkillController to CollaboratorsRepository--><g id="link_AssignSkillController_CollaboratorsRepository"><path codeLine="48" d="M600.11,310.05 C616.1,339.49 633.18,370.94 647.08,396.54 " fill="none" id="AssignSkillController-CollaboratorsRepository" style="stroke:#181818;stroke-width:1.0;stroke-dasharray:7.0,7.0;"/></g><!--link AssignSkillController to SkillsRepository--><g id="link_AssignSkillController_SkillsRepository"><path codeLine="50" d="M497.89,310.05 C481.9,339.49 464.82,370.94 450.92,396.54 " fill="none" id="AssignSkillController-SkillsRepository" style="stroke:#181818;stroke-width:1.0;stroke-dasharray:7.0,7.0;"/></g><!--link AssignSkillController to Collaborator--><g id="link_AssignSkillController_Collaborator"><path codeLine="52" d="M716.67,310.03 C773.55,341.94 823,369.68 823,369.68 C823,369.68 836.9,381.78 853.89,396.58 " fill="none" id="AssignSkillController-Collaborator" style="stroke:#181818;stroke-width:1.0;stroke-dasharray:7.0,7.0;"/></g><!--reverse link Repositories to CollaboratorsRepository--><g id="link_Repositories_CollaboratorsRepository"><path codeLine="54" d="M295.69,361.85 C316.74,348.81 331.5,339.68 331.5,339.68 C331.5,339.68 511.5,339.68 511.5,339.68 C511.5,339.68 553.92,368.33 595.68,396.53 " fill="none" id="Repositories-backto-CollaboratorsRepository" style="stroke:#181818;stroke-width:1.0;"/><polygon fill="none" points="284.68,368.66,291.8871,368.8997,294.8804,362.3392,287.6733,362.0995,284.68,368.66" style="stroke:#181818;stroke-width:1.0;"/><text fill="#000000" font-family="sans-serif" font-size="20" lengthAdjust="spacing" textLength="11" x="574.7571" y="383.0903">1</text></g><!--reverse link Repositories to SkillsRepository--><g id="link_Repositories_SkillsRepository"><path codeLine="56" d="M311.95,450.78 C322.1,450.78 329.77,450.78 331.59,450.78 " fill="none" id="Repositories-backto-SkillsRepository" style="stroke:#181818;stroke-width:1.0;"/><polygon fill="none" points="298.97,450.78,304.97,454.78,310.97,450.78,304.97,446.78,298.97,450.78" style="stroke:#181818;stroke-width:1.0;"/><text fill="#000000" font-family="sans-serif" font-size="20" lengthAdjust="spacing" textLength="11" x="312.9472" y="444.0938">1</text></g><!--reverse link CollaboratorsRepository to Collaborator--><g id="link_CollaboratorsRepository_Collaborator"><path codeLine="58" d="M819.96,450.78 C829.02,450.78 835.33,450.78 835.33,450.78 C835.33,450.78 836.91,450.78 839.62,450.78 " fill="none" id="CollaboratorsRepository-backto-Collaborator" style="stroke:#181818;stroke-width:1.0;"/><polygon fill="none" points="807.18,450.78,813.18,454.78,819.18,450.78,813.18,446.78,807.18,450.78" style="stroke:#181818;stroke-width:1.0;"/><text fill="#000000" font-family="sans-serif" font-size="20" lengthAdjust="spacing" textLength="11" x="820.9111" y="443.8847">*</text></g><!--SRC=[ZLBDRi8m3BxdAQnTO9j0R6-0a2OXxRHk3n1IKo92NCL6KpVjtPUsqANGelNKV7-su_3U-b87VN1azfX3ZbjzTF92NZBxXV2yK1C-Q-10dimkq051mX7L7rDgizS5Pb8vX816j2zSAk2TpkdJ-WAssd7AEEjHgXAX95VLXxHYHr8GKedBECsy50bsSnHS6_9Dlmkb9Wwt0a8GRB4Jo6tTZYMlLEE15JcdDnIqK81l1V6RnLpdkFb_r7cUrSTf0zwhdxEnGVaDIs8RlTNP3AtxrRAq2L2WP1qsJIBIsaD99kNxWQjBAitjeYno5vQ2KTmbhJt7zHXCiP76Kidb-6dz9RCjVADOnQSJOXg6mQaoT74Tc9zokL_wp4w7B6FjNZVP8HnvF67jbjwfxNMu-OzrR3eIVMW-7nwmfqlcZlhqxc_8HgxzXkDo2_yCLwhtH6W6Tqztu-M7nDULnrvpRNZefwjV]--></g></svg>