<?xml version="1.0" encoding="us-ascii" standalone="no"?><svg xmlns="http://www.w3.org/2000/svg" xmlns:xlink="http://www.w3.org/1999/xlink" contentStyleType="text/css" height="445px" preserveAspectRatio="none" style="width:832px;height:445px;background:#FFFFFF;" version="1.1" viewBox="0 0 832 445" width="832px" zoomAndPan="magnify"><defs/><g><!--class Collaborator--><g id="elem_Collaborator"><rect codeLine="11" fill="#F1F1F1" height="85.2422" id="Collaborator" rx="2.5" ry="2.5" style="stroke:#181818;stroke-width:0.5;" width="192" x="633.5" y="334.5"/><ellipse cx="686.25" cy="350.5" fill="#ADD1B2" rx="11" ry="11" style="stroke:#181818;stroke-width:1.0;"/><path d="M689.0156,346.375 Q689.1719,346.1563 689.3594,346.0469 Q689.5469,345.9375 689.7656,345.9375 Q690.1406,345.9375 690.375,346.2031 Q690.6094,346.4531 690.6094,347.0625 L690.6094,348.5156 Q690.6094,349.125 690.375,349.3906 Q690.1406,349.6563 689.7656,349.6563 Q689.4219,349.6563 689.2188,349.4531 Q689.0156,349.2656 688.9063,348.75 Q688.8594,348.3906 688.6719,348.2031 Q688.3438,347.8281 687.7344,347.6094 Q687.125,347.3906 686.5,347.3906 Q685.7344,347.3906 685.0938,347.7188 Q684.4688,348.0469 683.9688,348.7969 Q683.4844,349.5469 683.4844,350.5781 L683.4844,351.6719 Q683.4844,352.9063 684.375,353.7344 Q685.2656,354.5469 686.8594,354.5469 Q687.7969,354.5469 688.4531,354.2969 Q688.8438,354.1406 689.2656,353.7031 Q689.5313,353.4375 689.6719,353.3594 Q689.8281,353.2813 690.0313,353.2813 Q690.3594,353.2813 690.6094,353.5469 Q690.875,353.7969 690.875,354.1406 Q690.875,354.4844 690.5313,354.8906 Q690.0313,355.4688 689.2344,355.7969 Q688.1563,356.25 686.8594,356.25 Q685.3438,356.25 684.1406,355.625 Q683.1563,355.125 682.4688,354.0625 Q681.7813,352.9844 681.7813,351.7031 L681.7813,350.5469 Q681.7813,349.2188 682.3906,348.0781 Q683.0156,346.9219 684.1094,346.3125 Q685.2031,345.6875 686.4375,345.6875 Q687.1719,345.6875 687.8125,345.8594 Q688.4688,346.0156 689.0156,346.375 Z " fill="#000000"/><text fill="#000000" font-family="sans-serif" font-size="14" lengthAdjust="spacing" textLength="78" x="706.75" y="356.2969">Collaborator</text><line style="stroke:#181818;stroke-width:0.5;" x1="634.5" x2="824.5" y1="366.5" y2="366.5"/><text fill="#000000" font-family="sans-serif" font-size="14" lengthAdjust="spacing" textLength="35" x="639.5" y="385.6074">-skills</text><line style="stroke:#181818;stroke-width:0.5;" x1="634.5" x2="824.5" y1="393.1211" y2="393.1211"/><text fill="#000000" font-family="sans-serif" font-size="14" lengthAdjust="spacing" textLength="180" x="639.5" y="412.2285">+assignSkills(skillsToAssign)</text></g><!--class SkillsRepository--><g id="elem_SkillsRepository"><rect codeLine="16" fill="#F1F1F1" height="85.2422" id="SkillsRepository" rx="2.5" ry="2.5" style="stroke:#181818;stroke-width:0.5;" width="132" x="245.5" y="334.5"/><ellipse cx="260.5" cy="350.5" fill="#ADD1B2" rx="11" ry="11" style="stroke:#181818;stroke-width:1.0;"/><path d="M263.2656,346.375 Q263.4219,346.1563 263.6094,346.0469 Q263.7969,345.9375 264.0156,345.9375 Q264.3906,345.9375 264.625,346.2031 Q264.8594,346.4531 264.8594,347.0625 L264.8594,348.5156 Q264.8594,349.125 264.625,349.3906 Q264.3906,349.6563 264.0156,349.6563 Q263.6719,349.6563 263.4688,349.4531 Q263.2656,349.2656 263.1563,348.75 Q263.1094,348.3906 262.9219,348.2031 Q262.5938,347.8281 261.9844,347.6094 Q261.375,347.3906 260.75,347.3906 Q259.9844,347.3906 259.3438,347.7188 Q258.7188,348.0469 258.2188,348.7969 Q257.7344,349.5469 257.7344,350.5781 L257.7344,351.6719 Q257.7344,352.9063 258.625,353.7344 Q259.5156,354.5469 261.1094,354.5469 Q262.0469,354.5469 262.7031,354.2969 Q263.0938,354.1406 263.5156,353.7031 Q263.7813,353.4375 263.9219,353.3594 Q264.0781,353.2813 264.2813,353.2813 Q264.6094,353.2813 264.8594,353.5469 Q265.125,353.7969 265.125,354.1406 Q265.125,354.4844 264.7813,354.8906 Q264.2813,355.4688 263.4844,355.7969 Q262.4063,356.25 261.1094,356.25 Q259.5938,356.25 258.3906,355.625 Q257.4063,355.125 256.7188,354.0625 Q256.0313,352.9844 256.0313,351.7031 L256.0313,350.5469 Q256.0313,349.2188 256.6406,348.0781 Q257.2656,346.9219 258.3594,346.3125 Q259.4531,345.6875 260.6875,345.6875 Q261.4219,345.6875 262.0625,345.8594 Q262.7188,346.0156 263.2656,346.375 Z " fill="#000000"/><text fill="#000000" font-family="sans-serif" font-size="14" lengthAdjust="spacing" textLength="100" x="274.5" y="356.2969">SkillsRepository</text><line style="stroke:#181818;stroke-width:0.5;" x1="246.5" x2="376.5" y1="366.5" y2="366.5"/><text fill="#000000" font-family="sans-serif" font-size="14" lengthAdjust="spacing" textLength="103" x="251.5" y="385.6074">-skillsRepository</text><line style="stroke:#181818;stroke-width:0.5;" x1="246.5" x2="376.5" y1="393.1211" y2="393.1211"/><text fill="#000000" font-family="sans-serif" font-size="14" lengthAdjust="spacing" textLength="85" x="251.5" y="412.2285">+getAllSkills()</text></g><!--class CollaboratorsRepository--><g id="elem_CollaboratorsRepository"><rect codeLine="21" fill="#F1F1F1" height="85.2422" id="CollaboratorsRepository" rx="2.5" ry="2.5" style="stroke:#181818;stroke-width:0.5;" width="185" x="413" y="334.5"/><ellipse cx="428" cy="350.5" fill="#ADD1B2" rx="11" ry="11" style="stroke:#181818;stroke-width:1.0;"/><path d="M430.7656,346.375 Q430.9219,346.1563 431.1094,346.0469 Q431.2969,345.9375 431.5156,345.9375 Q431.8906,345.9375 432.125,346.2031 Q432.3594,346.4531 432.3594,347.0625 L432.3594,348.5156 Q432.3594,349.125 432.125,349.3906 Q431.8906,349.6563 431.5156,349.6563 Q431.1719,349.6563 430.9688,349.4531 Q430.7656,349.2656 430.6563,348.75 Q430.6094,348.3906 430.4219,348.2031 Q430.0938,347.8281 429.4844,347.6094 Q428.875,347.3906 428.25,347.3906 Q427.4844,347.3906 426.8438,347.7188 Q426.2188,348.0469 425.7188,348.7969 Q425.2344,349.5469 425.2344,350.5781 L425.2344,351.6719 Q425.2344,352.9063 426.125,353.7344 Q427.0156,354.5469 428.6094,354.5469 Q429.5469,354.5469 430.2031,354.2969 Q430.5938,354.1406 431.0156,353.7031 Q431.2813,353.4375 431.4219,353.3594 Q431.5781,353.2813 431.7813,353.2813 Q432.1094,353.2813 432.3594,353.5469 Q432.625,353.7969 432.625,354.1406 Q432.625,354.4844 432.2813,354.8906 Q431.7813,355.4688 430.9844,355.7969 Q429.9063,356.25 428.6094,356.25 Q427.0938,356.25 425.8906,355.625 Q424.9063,355.125 424.2188,354.0625 Q423.5313,352.9844 423.5313,351.7031 L423.5313,350.5469 Q423.5313,349.2188 424.1406,348.0781 Q424.7656,346.9219 425.8594,346.3125 Q426.9531,345.6875 428.1875,345.6875 Q428.9219,345.6875 429.5625,345.8594 Q430.2188,346.0156 430.7656,346.375 Z " fill="#000000"/><text fill="#000000" font-family="sans-serif" font-size="14" lengthAdjust="spacing" textLength="153" x="442" y="356.2969">CollaboratorsRepository</text><line style="stroke:#181818;stroke-width:0.5;" x1="414" x2="597" y1="366.5" y2="366.5"/><text fill="#000000" font-family="sans-serif" font-size="14" lengthAdjust="spacing" textLength="155" x="419" y="385.6074">-collaboratorsRepository</text><line style="stroke:#181818;stroke-width:0.5;" x1="414" x2="597" y1="393.1211" y2="393.1211"/><text fill="#000000" font-family="sans-serif" font-size="14" lengthAdjust="spacing" textLength="138" x="419" y="412.2285">+getAllCollaborators()</text></g><!--class Repositories--><g id="elem_Repositories"><rect codeLine="26" fill="#F1F1F1" height="122.4844" id="Repositories" rx="2.5" ry="2.5" style="stroke:#181818;stroke-width:0.5;" width="203" x="7" y="316"/><ellipse cx="64.75" cy="332" fill="#ADD1B2" rx="11" ry="11" style="stroke:#181818;stroke-width:1.0;"/><path d="M67.5156,327.875 Q67.6719,327.6563 67.8594,327.5469 Q68.0469,327.4375 68.2656,327.4375 Q68.6406,327.4375 68.875,327.7031 Q69.1094,327.9531 69.1094,328.5625 L69.1094,330.0156 Q69.1094,330.625 68.875,330.8906 Q68.6406,331.1563 68.2656,331.1563 Q67.9219,331.1563 67.7188,330.9531 Q67.5156,330.7656 67.4063,330.25 Q67.3594,329.8906 67.1719,329.7031 Q66.8438,329.3281 66.2344,329.1094 Q65.625,328.8906 65,328.8906 Q64.2344,328.8906 63.5938,329.2188 Q62.9688,329.5469 62.4688,330.2969 Q61.9844,331.0469 61.9844,332.0781 L61.9844,333.1719 Q61.9844,334.4063 62.875,335.2344 Q63.7656,336.0469 65.3594,336.0469 Q66.2969,336.0469 66.9531,335.7969 Q67.3438,335.6406 67.7656,335.2031 Q68.0313,334.9375 68.1719,334.8594 Q68.3281,334.7813 68.5313,334.7813 Q68.8594,334.7813 69.1094,335.0469 Q69.375,335.2969 69.375,335.6406 Q69.375,335.9844 69.0313,336.3906 Q68.5313,336.9688 67.7344,337.2969 Q66.6563,337.75 65.3594,337.75 Q63.8438,337.75 62.6406,337.125 Q61.6563,336.625 60.9688,335.5625 Q60.2813,334.4844 60.2813,333.2031 L60.2813,332.0469 Q60.2813,330.7188 60.8906,329.5781 Q61.5156,328.4219 62.6094,327.8125 Q63.7031,327.1875 64.9375,327.1875 Q65.6719,327.1875 66.3125,327.3594 Q66.9688,327.5156 67.5156,327.875 Z " fill="#000000"/><text fill="#000000" font-family="sans-serif" font-size="14" lengthAdjust="spacing" textLength="79" x="85.25" y="337.7969">Repositories</text><line style="stroke:#181818;stroke-width:0.5;" x1="8" x2="209" y1="348" y2="348"/><line style="stroke:#181818;stroke-width:0.5;" x1="8" x2="209" y1="356" y2="356"/><text fill="#000000" font-family="sans-serif" font-size="14" lengthAdjust="spacing" textLength="94" x="13" y="375.1074">-Repositories()</text><text fill="#000000" font-family="sans-serif" font-size="14" lengthAdjust="spacing" textLength="182" x="13" y="393.7285">+getInstance() : Repositories</text><text fill="#000000" font-family="sans-serif" font-size="14" lengthAdjust="spacing" textLength="191" x="13" y="412.3496">+getCollaboratorsRepository()</text><text fill="#000000" font-family="sans-serif" font-size="14" lengthAdjust="spacing" textLength="138" x="13" y="430.9707">+getSkillsRepository()</text></g><!--class AssignSkillController--><g id="elem_AssignSkillController"><rect codeLine="33" fill="#F1F1F1" height="141.1055" id="AssignSkillController" rx="2.5" ry="2.5" style="stroke:#181818;stroke-width:0.5;" width="312" x="252.5" y="115"/><ellipse cx="339.75" cy="131" fill="#ADD1B2" rx="11" ry="11" style="stroke:#181818;stroke-width:1.0;"/><path d="M342.5156,126.875 Q342.6719,126.6563 342.8594,126.5469 Q343.0469,126.4375 343.2656,126.4375 Q343.6406,126.4375 343.875,126.7031 Q344.1094,126.9531 344.1094,127.5625 L344.1094,129.0156 Q344.1094,129.625 343.875,129.8906 Q343.6406,130.1563 343.2656,130.1563 Q342.9219,130.1563 342.7188,129.9531 Q342.5156,129.7656 342.4063,129.25 Q342.3594,128.8906 342.1719,128.7031 Q341.8438,128.3281 341.2344,128.1094 Q340.625,127.8906 340,127.8906 Q339.2344,127.8906 338.5938,128.2188 Q337.9688,128.5469 337.4688,129.2969 Q336.9844,130.0469 336.9844,131.0781 L336.9844,132.1719 Q336.9844,133.4063 337.875,134.2344 Q338.7656,135.0469 340.3594,135.0469 Q341.2969,135.0469 341.9531,134.7969 Q342.3438,134.6406 342.7656,134.2031 Q343.0313,133.9375 343.1719,133.8594 Q343.3281,133.7813 343.5313,133.7813 Q343.8594,133.7813 344.1094,134.0469 Q344.375,134.2969 344.375,134.6406 Q344.375,134.9844 344.0313,135.3906 Q343.5313,135.9688 342.7344,136.2969 Q341.6563,136.75 340.3594,136.75 Q338.8438,136.75 337.6406,136.125 Q336.6563,135.625 335.9688,134.5625 Q335.2813,133.4844 335.2813,132.2031 L335.2813,131.0469 Q335.2813,129.7188 335.8906,128.5781 Q336.5156,127.4219 337.6094,126.8125 Q338.7031,126.1875 339.9375,126.1875 Q340.6719,126.1875 341.3125,126.3594 Q341.9688,126.5156 342.5156,126.875 Z " fill="#000000"/><text fill="#000000" font-family="sans-serif" font-size="14" lengthAdjust="spacing" textLength="129" x="360.25" y="136.7969">AssignSkillController</text><line style="stroke:#181818;stroke-width:0.5;" x1="253.5" x2="563.5" y1="147" y2="147"/><text fill="#000000" font-family="sans-serif" font-size="14" lengthAdjust="spacing" textLength="135" x="258.5" y="166.1074">-collaboratorSelected</text><line style="stroke:#181818;stroke-width:0.5;" x1="253.5" x2="563.5" y1="173.6211" y2="173.6211"/><text fill="#000000" font-family="sans-serif" font-size="14" lengthAdjust="spacing" textLength="300" x="258.5" y="192.7285">+setCollaboratorSelected(collaboratorSelected)</text><text fill="#000000" font-family="sans-serif" font-size="14" lengthAdjust="spacing" textLength="123" x="258.5" y="211.3496">+getCollaborators()</text><text fill="#000000" font-family="sans-serif" font-size="14" lengthAdjust="spacing" textLength="70" x="258.5" y="229.9707">+getSkills()</text><text fill="#000000" font-family="sans-serif" font-size="14" lengthAdjust="spacing" textLength="171" x="258.5" y="248.5918">+storeSkills(skillsToAssign)</text></g><!--class AssignSkillUI--><g id="elem_AssignSkillUI"><rect codeLine="41" fill="#F1F1F1" height="48" id="AssignSkillUI" rx="2.5" ry="2.5" style="stroke:#181818;stroke-width:0.5;" width="111" x="353" y="7"/><ellipse cx="368" cy="23" fill="#ADD1B2" rx="11" ry="11" style="stroke:#181818;stroke-width:1.0;"/><path d="M370.7656,18.875 Q370.9219,18.6563 371.1094,18.5469 Q371.2969,18.4375 371.5156,18.4375 Q371.8906,18.4375 372.125,18.7031 Q372.3594,18.9531 372.3594,19.5625 L372.3594,21.0156 Q372.3594,21.625 372.125,21.8906 Q371.8906,22.1563 371.5156,22.1563 Q371.1719,22.1563 370.9688,21.9531 Q370.7656,21.7656 370.6563,21.25 Q370.6094,20.8906 370.4219,20.7031 Q370.0938,20.3281 369.4844,20.1094 Q368.875,19.8906 368.25,19.8906 Q367.4844,19.8906 366.8438,20.2188 Q366.2188,20.5469 365.7188,21.2969 Q365.2344,22.0469 365.2344,23.0781 L365.2344,24.1719 Q365.2344,25.4063 366.125,26.2344 Q367.0156,27.0469 368.6094,27.0469 Q369.5469,27.0469 370.2031,26.7969 Q370.5938,26.6406 371.0156,26.2031 Q371.2813,25.9375 371.4219,25.8594 Q371.5781,25.7813 371.7813,25.7813 Q372.1094,25.7813 372.3594,26.0469 Q372.625,26.2969 372.625,26.6406 Q372.625,26.9844 372.2813,27.3906 Q371.7813,27.9688 370.9844,28.2969 Q369.9063,28.75 368.6094,28.75 Q367.0938,28.75 365.8906,28.125 Q364.9063,27.625 364.2188,26.5625 Q363.5313,25.4844 363.5313,24.2031 L363.5313,23.0469 Q363.5313,21.7188 364.1406,20.5781 Q364.7656,19.4219 365.8594,18.8125 Q366.9531,18.1875 368.1875,18.1875 Q368.9219,18.1875 369.5625,18.3594 Q370.2188,18.5156 370.7656,18.875 Z " fill="#000000"/><text fill="#000000" font-family="sans-serif" font-size="14" lengthAdjust="spacing" textLength="79" x="382" y="28.7969">AssignSkillUI</text><line style="stroke:#181818;stroke-width:0.5;" x1="354" x2="463" y1="39" y2="39"/><line style="stroke:#181818;stroke-width:0.5;" x1="354" x2="463" y1="47" y2="47"/></g><!--link AssignSkillUI to AssignSkillController--><g id="link_AssignSkillUI_AssignSkillController"><path codeLine="44" d="M408.5,55.16 C408.5,71.16 408.5,93.35 408.5,114.83 " fill="none" id="AssignSkillUI-AssignSkillController" style="stroke:#181818;stroke-width:1.0;stroke-dasharray:7.0,7.0;"/></g><!--link AssignSkillController to Repositories--><g id="link_AssignSkillController_Repositories"><path codeLine="46" d="M298.07,256.26 C267.16,275.78 233.84,296.83 203.88,315.75 " fill="none" id="AssignSkillController-Repositories" style="stroke:#181818;stroke-width:1.0;stroke-dasharray:7.0,7.0;"/></g><!--link AssignSkillController to CollaboratorsRepository--><g id="link_AssignSkillController_CollaboratorsRepository"><path codeLine="48" d="M444.21,256.26 C457.66,282.53 472.52,311.57 484.24,334.47 " fill="none" id="AssignSkillController-CollaboratorsRepository" style="stroke:#181818;stroke-width:1.0;stroke-dasharray:7.0,7.0;"/></g><!--link AssignSkillController to SkillsRepository--><g id="link_AssignSkillController_SkillsRepository"><path codeLine="50" d="M372.79,256.26 C359.34,282.53 344.48,311.57 332.76,334.47 " fill="none" id="AssignSkillController-SkillsRepository" style="stroke:#181818;stroke-width:1.0;stroke-dasharray:7.0,7.0;"/></g><!--link AssignSkillController to Collaborator--><g id="link_AssignSkillController_Collaborator"><path codeLine="52" d="M526.66,256.26 C571.17,282.53 620.37,311.57 659.16,334.47 " fill="none" id="AssignSkillController-Collaborator" style="stroke:#181818;stroke-width:1.0;stroke-dasharray:7.0,7.0;"/></g><!--reverse link Repositories to CollaboratorsRepository--><g id="link_Repositories_CollaboratorsRepository"><path codeLine="54" d="M210.2858,309.1455 C234.9858,292.6855 245,286 245,286 C245,286 377,286 377,286 C377,286 411.95,310.75 445.39,334.43 " fill="none" id="Repositories-backto-CollaboratorsRepository" style="stroke:#181818;stroke-width:1.0;"/><polygon fill="#181818" points="200.3,315.8,207.5111,315.8013,210.2858,309.1455,203.0747,309.1441,200.3,315.8" style="stroke:#181818;stroke-width:1.0;"/></g><!--reverse link Repositories to SkillsRepository--><g id="link_Repositories_SkillsRepository"><path codeLine="56" d="M222.4,377 C239.18,377 243.83,377 243.83,377 C243.83,377 244.25,377 245.01,377 " fill="none" id="Repositories-backto-SkillsRepository" style="stroke:#181818;stroke-width:1.0;"/><polygon fill="#181818" points="210.4,377,216.4,381,222.4,377,216.4,373,210.4,377" style="stroke:#181818;stroke-width:1.0;"/></g><!--reverse link CollaboratorsRepository to Collaborator--><g id="link_CollaboratorsRepository_Collaborator"><path codeLine="58" d="M610.24,377 C620.86,377 622.34,377 633.48,377 " fill="none" id="CollaboratorsRepository-backto-Collaborator" style="stroke:#181818;stroke-width:1.0;"/><polygon fill="none" points="598.24,377,604.24,381,610.24,377,604.24,373,598.24,377" style="stroke:#181818;stroke-width:1.0;"/></g><!--SRC=[ZPB1Ri8m38RlUGhVW4sWdNUhE75TsGE4O4g4YQl4QEgclVj2WPAKTbjFhV_VN_xOdOI3TRNs-WX7Tcpsdey8ua-exagjpK5NM4f321wDQ5THQWXxlUKFwohOQGgfGjQXD3L2pTISFzHaG6Glh98kGpg4GiJRpKbmPTYLzXFXHQa9uKv06BojzW9RUuvZsIdLzi2IYVI6lHRsyAKWFlF89Ghj-tFqsCgLRMLw4TPSjCMP-hvHBleRrXni13Kt4eIUS852XL8GNQa99qqpX3F3UaRD62cyyriC7J4jHdC7MhaGjsPmEeFNp7ItZ8HDAVsvf76A-sINxCH76lh1cvP8SMculN93VlHDdGwrp4RYFeRiAY7g-DV2a_3lgnWw2dbfiHY-OEPBxXtzsPJ7RIDZ_wMZluL_mfNA_fYd-VZHVUFZYMD_DkTKzGC0]--></g></svg>