<?xml version="1.0" encoding="us-ascii" standalone="no"?><svg xmlns="http://www.w3.org/2000/svg" xmlns:xlink="http://www.w3.org/1999/xlink" contentStyleType="text/css" height="1353px" preserveAspectRatio="none" style="width:1611px;height:1353px;background:#FFFFFF;" version="1.1" viewBox="0 0 1611 1353" width="1611px" zoomAndPan="magnify"><defs/><g><rect fill="#FFFFFF" height="1158.8066" style="stroke:#181818;stroke-width:1.0;" width="10" x="91" y="93.6211"/><rect fill="#FFFFFF" height="325.2402" style="stroke:#181818;stroke-width:1.0;" width="10" x="466" y="116.9121"/><rect fill="#FFFFFF" height="93.873" style="stroke:#181818;stroke-width:1.0;" width="10" x="466" y="473.4434"/><rect fill="#FFFFFF" height="219.0371" style="stroke:#181818;stroke-width:1.0;" width="10" x="466" y="598.6074"/><rect fill="#FFFFFF" height="182.4551" style="stroke:#181818;stroke-width:1.0;" width="10" x="466" y="848.9355"/><rect fill="#FFFFFF" height="189.7461" style="stroke:#181818;stroke-width:1.0;" width="10" x="466" y="1062.6816"/><rect fill="#FFFFFF" height="219.0371" style="stroke:#181818;stroke-width:1.0;" width="10" x="777" y="191.8242"/><rect fill="#FFFFFF" height="31.291" style="stroke:#181818;stroke-width:1.0;" width="10" x="777" y="504.7344"/><rect fill="#FFFFFF" height="156.4551" style="stroke:#181818;stroke-width:1.0;" width="10" x="777" y="629.8984"/><rect fill="#FFFFFF" height="119.873" style="stroke:#181818;stroke-width:1.0;" width="10" x="777" y="880.2266"/><rect fill="#FFFFFF" height="42.291" style="stroke:#181818;stroke-width:1.0;" width="10" x="782" y="919.5176"/><rect fill="#FFFFFF" height="127.1641" style="stroke:#181818;stroke-width:1.0;" width="10" x="777" y="1093.9727"/><rect fill="#FFFFFF" height="31.291" style="stroke:#181818;stroke-width:1.0;" width="10" x="972" y="223.1152"/><rect fill="#FFFFFF" height="31.291" style="stroke:#181818;stroke-width:1.0;" width="10" x="1079" y="285.6973"/><rect fill="#FFFFFF" height="31.291" style="stroke:#181818;stroke-width:1.0;" width="10" x="1079" y="661.1895"/><rect fill="#FFFFFF" height="31.291" style="stroke:#181818;stroke-width:1.0;" width="10" x="1223" y="348.2793"/><rect fill="#FFFFFF" height="31.291" style="stroke:#181818;stroke-width:1.0;" width="10" x="1377.5" y="723.7715"/><rect fill="#FFFFFF" height="31.291" style="stroke:#181818;stroke-width:1.0;" width="10" x="1518.5" y="1151.5547"/><rect fill="none" height="81.873" style="stroke:#000000;stroke-width:1.5;" width="907" x="698.5" y="1108.9727"/><line style="stroke:#181818;stroke-width:0.5;stroke-dasharray:5.0,5.0;" x1="96" x2="96" y1="83.6211" y2="1270.4277"/><line style="stroke:#181818;stroke-width:0.5;stroke-dasharray:5.0,5.0;" x1="470.5" x2="470.5" y1="83.6211" y2="1270.4277"/><line style="stroke:#181818;stroke-width:0.5;stroke-dasharray:5.0,5.0;" x1="781.5" x2="781.5" y1="156.7227" y2="1270.4277"/><line style="stroke:#181818;stroke-width:0.5;stroke-dasharray:5.0,5.0;" x1="976.5" x2="976.5" y1="83.6211" y2="1270.4277"/><line style="stroke:#181818;stroke-width:0.5;stroke-dasharray:5.0,5.0;" x1="1083.5" x2="1083.5" y1="83.6211" y2="1270.4277"/><line style="stroke:#181818;stroke-width:0.5;stroke-dasharray:5.0,5.0;" x1="1227.5" x2="1227.5" y1="83.6211" y2="1270.4277"/><line style="stroke:#181818;stroke-width:0.5;stroke-dasharray:5.0,5.0;" x1="1382.5" x2="1382.5" y1="83.6211" y2="1270.4277"/><line style="stroke:#181818;stroke-width:0.5;stroke-dasharray:5.0,5.0;" x1="1523.5" x2="1523.5" y1="83.6211" y2="1270.4277"/><text fill="#000000" font-family="sans-serif" font-size="14" lengthAdjust="spacing" textLength="176" x="5" y="80.1074">Human Resources Manager</text><ellipse cx="96" cy="13.5" fill="#E3E3E3" rx="8" ry="8" style="stroke:#181818;stroke-width:0.5;"/><path d="M96,21.5 L96,48.5 M83,29.5 L109,29.5 M96,48.5 L83,63.5 M96,48.5 L109,63.5 " fill="none" style="stroke:#181818;stroke-width:0.5;"/><text fill="#000000" font-family="sans-serif" font-size="14" lengthAdjust="spacing" textLength="176" x="5" y="1284.5352">Human Resources Manager</text><ellipse cx="96" cy="1296.5488" fill="#E3E3E3" rx="8" ry="8" style="stroke:#181818;stroke-width:0.5;"/><path d="M96,1304.5488 L96,1331.5488 M83,1312.5488 L109,1312.5488 M96,1331.5488 L83,1346.5488 M96,1331.5488 L109,1346.5488 " fill="none" style="stroke:#181818;stroke-width:0.5;"/><rect fill="#E3E3E3" height="32.6211" rx="2.5" ry="2.5" style="stroke:#181818;stroke-width:0.5;" width="97" x="422.5" y="50"/><text fill="#000000" font-family="sans-serif" font-size="14" lengthAdjust="spacing" textLength="83" x="429.5" y="72.1074">:AssignSkillUI</text><rect fill="#E3E3E3" height="32.6211" rx="2.5" ry="2.5" style="stroke:#181818;stroke-width:0.5;" width="97" x="422.5" y="1269.4277"/><text fill="#000000" font-family="sans-serif" font-size="14" lengthAdjust="spacing" textLength="83" x="429.5" y="1291.5352">:AssignSkillUI</text><rect fill="#E3E3E3" height="32.6211" rx="2.5" ry="2.5" style="stroke:#181818;stroke-width:0.5;" width="147" x="708.5" y="1269.4277"/><text fill="#000000" font-family="sans-serif" font-size="14" lengthAdjust="spacing" textLength="133" x="715.5" y="1291.5352">:AssignSkillController</text><rect fill="#E3E3E3" height="32.6211" rx="2.5" ry="2.5" style="stroke:#181818;stroke-width:0.5;" width="97" x="928.5" y="50"/><text fill="#000000" font-family="sans-serif" font-size="14" lengthAdjust="spacing" textLength="83" x="935.5" y="72.1074">:Repositories</text><rect fill="#E3E3E3" height="32.6211" rx="2.5" ry="2.5" style="stroke:#181818;stroke-width:0.5;" width="97" x="928.5" y="1269.4277"/><text fill="#000000" font-family="sans-serif" font-size="14" lengthAdjust="spacing" textLength="83" x="935.5" y="1291.5352">:Repositories</text><rect fill="#E3E3E3" height="51.2422" rx="2.5" ry="2.5" style="stroke:#181818;stroke-width:0.5;" width="97" x="1035.5" y="31.3789"/><text fill="#000000" font-family="sans-serif" font-size="14" lengthAdjust="spacing" textLength="74" x="1047" y="53.4863">repositories</text><text fill="#000000" font-family="sans-serif" font-size="14" lengthAdjust="spacing" textLength="83" x="1042.5" y="72.1074">:Repositories</text><rect fill="#E3E3E3" height="51.2422" rx="2.5" ry="2.5" style="stroke:#181818;stroke-width:0.5;" width="97" x="1035.5" y="1269.4277"/><text fill="#000000" font-family="sans-serif" font-size="14" lengthAdjust="spacing" textLength="74" x="1047" y="1291.5352">repositories</text><text fill="#000000" font-family="sans-serif" font-size="14" lengthAdjust="spacing" textLength="83" x="1042.5" y="1310.1563">:Repositories</text><rect fill="#E3E3E3" height="51.2422" rx="2.5" ry="2.5" style="stroke:#181818;stroke-width:0.5;" width="171" x="1142.5" y="31.3789"/><text fill="#000000" font-family="sans-serif" font-size="14" lengthAdjust="spacing" textLength="150" x="1153" y="53.4863">collaboratorsRepository</text><text fill="#000000" font-family="sans-serif" font-size="14" lengthAdjust="spacing" textLength="157" x="1149.5" y="72.1074">:CollaboratorsRepository</text><rect fill="#E3E3E3" height="51.2422" rx="2.5" ry="2.5" style="stroke:#181818;stroke-width:0.5;" width="171" x="1142.5" y="1269.4277"/><text fill="#000000" font-family="sans-serif" font-size="14" lengthAdjust="spacing" textLength="150" x="1153" y="1291.5352">collaboratorsRepository</text><text fill="#000000" font-family="sans-serif" font-size="14" lengthAdjust="spacing" textLength="157" x="1149.5" y="1310.1563">:CollaboratorsRepository</text><rect fill="#E3E3E3" height="51.2422" rx="2.5" ry="2.5" style="stroke:#181818;stroke-width:0.5;" width="118" x="1323.5" y="31.3789"/><text fill="#000000" font-family="sans-serif" font-size="14" lengthAdjust="spacing" textLength="98" x="1333.5" y="53.4863">skillsRepository</text><text fill="#000000" font-family="sans-serif" font-size="14" lengthAdjust="spacing" textLength="104" x="1330.5" y="72.1074">:SkillsRepository</text><rect fill="#E3E3E3" height="51.2422" rx="2.5" ry="2.5" style="stroke:#181818;stroke-width:0.5;" width="118" x="1323.5" y="1269.4277"/><text fill="#000000" font-family="sans-serif" font-size="14" lengthAdjust="spacing" textLength="98" x="1333.5" y="1291.5352">skillsRepository</text><text fill="#000000" font-family="sans-serif" font-size="14" lengthAdjust="spacing" textLength="104" x="1330.5" y="1310.1563">:SkillsRepository</text><rect fill="#E3E3E3" height="51.2422" rx="2.5" ry="2.5" style="stroke:#181818;stroke-width:0.5;" width="144" x="1451.5" y="31.3789"/><text fill="#000000" font-family="sans-serif" font-size="14" lengthAdjust="spacing" textLength="130" x="1458.5" y="53.4863">collaboratorSelected</text><text fill="#000000" font-family="sans-serif" font-size="14" lengthAdjust="spacing" textLength="82" x="1482.5" y="72.1074">:Collaborator</text><rect fill="#E3E3E3" height="51.2422" rx="2.5" ry="2.5" style="stroke:#181818;stroke-width:0.5;" width="144" x="1451.5" y="1269.4277"/><text fill="#000000" font-family="sans-serif" font-size="14" lengthAdjust="spacing" textLength="130" x="1458.5" y="1291.5352">collaboratorSelected</text><text fill="#000000" font-family="sans-serif" font-size="14" lengthAdjust="spacing" textLength="82" x="1482.5" y="1310.1563">:Collaborator</text><rect fill="#FFFFFF" height="1158.8066" style="stroke:#181818;stroke-width:1.0;" width="10" x="91" y="93.6211"/><rect fill="#FFFFFF" height="325.2402" style="stroke:#181818;stroke-width:1.0;" width="10" x="466" y="116.9121"/><rect fill="#FFFFFF" height="93.873" style="stroke:#181818;stroke-width:1.0;" width="10" x="466" y="473.4434"/><rect fill="#FFFFFF" height="219.0371" style="stroke:#181818;stroke-width:1.0;" width="10" x="466" y="598.6074"/><rect fill="#FFFFFF" height="182.4551" style="stroke:#181818;stroke-width:1.0;" width="10" x="466" y="848.9355"/><rect fill="#FFFFFF" height="189.7461" style="stroke:#181818;stroke-width:1.0;" width="10" x="466" y="1062.6816"/><rect fill="#FFFFFF" height="219.0371" style="stroke:#181818;stroke-width:1.0;" width="10" x="777" y="191.8242"/><rect fill="#FFFFFF" height="31.291" style="stroke:#181818;stroke-width:1.0;" width="10" x="777" y="504.7344"/><rect fill="#FFFFFF" height="156.4551" style="stroke:#181818;stroke-width:1.0;" width="10" x="777" y="629.8984"/><rect fill="#FFFFFF" height="119.873" style="stroke:#181818;stroke-width:1.0;" width="10" x="777" y="880.2266"/><rect fill="#FFFFFF" height="42.291" style="stroke:#181818;stroke-width:1.0;" width="10" x="782" y="919.5176"/><rect fill="#FFFFFF" height="127.1641" style="stroke:#181818;stroke-width:1.0;" width="10" x="777" y="1093.9727"/><rect fill="#FFFFFF" height="31.291" style="stroke:#181818;stroke-width:1.0;" width="10" x="972" y="223.1152"/><rect fill="#FFFFFF" height="31.291" style="stroke:#181818;stroke-width:1.0;" width="10" x="1079" y="285.6973"/><rect fill="#FFFFFF" height="31.291" style="stroke:#181818;stroke-width:1.0;" width="10" x="1079" y="661.1895"/><rect fill="#FFFFFF" height="31.291" style="stroke:#181818;stroke-width:1.0;" width="10" x="1223" y="348.2793"/><rect fill="#FFFFFF" height="31.291" style="stroke:#181818;stroke-width:1.0;" width="10" x="1377.5" y="723.7715"/><rect fill="#FFFFFF" height="31.291" style="stroke:#181818;stroke-width:1.0;" width="10" x="1518.5" y="1151.5547"/><polygon fill="#181818" points="454,112.9121,464,116.9121,454,120.9121,458,116.9121" style="stroke:#181818;stroke-width:1.0;"/><line style="stroke:#181818;stroke-width:1.0;" x1="101" x2="460" y1="116.9121" y2="116.9121"/><text fill="#000000" font-family="sans-serif" font-size="13" font-weight="bold" lengthAdjust="spacing" textLength="7" x="108" y="111.6494">1</text><text fill="#000000" font-family="sans-serif" font-size="13" lengthAdjust="spacing" textLength="192" x="119" y="111.6494">Asks to assign collaborator skills</text><polygon fill="#181818" points="696.5,144.2031,706.5,148.2031,696.5,152.2031,700.5,148.2031" style="stroke:#181818;stroke-width:1.0;"/><line style="stroke:#181818;stroke-width:1.0;" x1="476" x2="702.5" y1="148.2031" y2="148.2031"/><text fill="#000000" font-family="sans-serif" font-size="13" font-weight="bold" lengthAdjust="spacing" textLength="7" x="483" y="142.9404">2</text><text fill="#000000" font-family="sans-serif" font-size="13" lengthAdjust="spacing" textLength="36" x="494" y="142.9404">create</text><rect fill="#E3E3E3" height="32.6211" rx="2.5" ry="2.5" style="stroke:#181818;stroke-width:0.5;" width="147" x="708.5" y="124.9121"/><text fill="#000000" font-family="sans-serif" font-size="14" lengthAdjust="spacing" textLength="133" x="715.5" y="147.0195">:AssignSkillController</text><polygon fill="#181818" points="765,187.8242,775,191.8242,765,195.8242,769,191.8242" style="stroke:#181818;stroke-width:1.0;"/><line style="stroke:#181818;stroke-width:1.0;" x1="476" x2="771" y1="191.8242" y2="191.8242"/><text fill="#000000" font-family="sans-serif" font-size="13" font-weight="bold" lengthAdjust="spacing" textLength="7" x="483" y="186.5615">3</text><text fill="#000000" font-family="sans-serif" font-size="13" lengthAdjust="spacing" textLength="102" x="494" y="186.5615">getCollaborators()</text><polygon fill="#181818" points="960,219.1152,970,223.1152,960,227.1152,964,223.1152" style="stroke:#181818;stroke-width:1.0;"/><line style="stroke:#181818;stroke-width:1.0;" x1="787" x2="966" y1="223.1152" y2="223.1152"/><text fill="#000000" font-family="sans-serif" font-size="13" font-weight="bold" lengthAdjust="spacing" textLength="7" x="794" y="217.8525">4</text><text fill="#000000" font-family="sans-serif" font-size="13" lengthAdjust="spacing" textLength="75" x="805" y="217.8525">getInstance()</text><polygon fill="#181818" points="798,250.4063,788,254.4063,798,258.4063,794,254.4063" style="stroke:#181818;stroke-width:1.0;"/><line style="stroke:#181818;stroke-width:1.0;stroke-dasharray:2.0,2.0;" x1="792" x2="976" y1="254.4063" y2="254.4063"/><text fill="#000000" font-family="sans-serif" font-size="13" font-weight="bold" lengthAdjust="spacing" textLength="7" x="804" y="249.1436">5</text><text fill="#000000" font-family="sans-serif" font-size="13" lengthAdjust="spacing" textLength="67" x="815" y="249.1436">repositories</text><polygon fill="#181818" points="1067,281.6973,1077,285.6973,1067,289.6973,1071,285.6973" style="stroke:#181818;stroke-width:1.0;"/><line style="stroke:#181818;stroke-width:1.0;" x1="787" x2="1073" y1="285.6973" y2="285.6973"/><text fill="#000000" font-family="sans-serif" font-size="13" font-weight="bold" lengthAdjust="spacing" textLength="7" x="794" y="280.4346">6</text><text fill="#000000" font-family="sans-serif" font-size="13" lengthAdjust="spacing" textLength="164" x="805" y="280.4346">getCollaboratorsRepository()</text><polygon fill="#181818" points="798,312.9883,788,316.9883,798,320.9883,794,316.9883" style="stroke:#181818;stroke-width:1.0;"/><line style="stroke:#181818;stroke-width:1.0;stroke-dasharray:2.0,2.0;" x1="792" x2="1083" y1="316.9883" y2="316.9883"/><text fill="#000000" font-family="sans-serif" font-size="13" font-weight="bold" lengthAdjust="spacing" textLength="7" x="804" y="311.7256">7</text><text fill="#000000" font-family="sans-serif" font-size="13" lengthAdjust="spacing" textLength="136" x="815" y="311.7256">collaboratorsRepository</text><polygon fill="#181818" points="1211,344.2793,1221,348.2793,1211,352.2793,1215,348.2793" style="stroke:#181818;stroke-width:1.0;"/><line style="stroke:#181818;stroke-width:1.0;" x1="787" x2="1217" y1="348.2793" y2="348.2793"/><text fill="#000000" font-family="sans-serif" font-size="13" font-weight="bold" lengthAdjust="spacing" textLength="7" x="794" y="343.0166">8</text><text fill="#000000" font-family="sans-serif" font-size="13" lengthAdjust="spacing" textLength="123" x="805" y="343.0166">getCollaboratorsList()</text><polygon fill="#181818" points="798,375.5703,788,379.5703,798,383.5703,794,379.5703" style="stroke:#181818;stroke-width:1.0;"/><line style="stroke:#181818;stroke-width:1.0;stroke-dasharray:2.0,2.0;" x1="792" x2="1227" y1="379.5703" y2="379.5703"/><text fill="#000000" font-family="sans-serif" font-size="13" font-weight="bold" lengthAdjust="spacing" textLength="7" x="804" y="374.3076">9</text><text fill="#000000" font-family="sans-serif" font-size="13" lengthAdjust="spacing" textLength="95" x="815" y="374.3076">collaboratorsList</text><polygon fill="#181818" points="487,406.8613,477,410.8613,487,414.8613,483,410.8613" style="stroke:#181818;stroke-width:1.0;"/><line style="stroke:#181818;stroke-width:1.0;stroke-dasharray:2.0,2.0;" x1="481" x2="781" y1="410.8613" y2="410.8613"/><text fill="#000000" font-family="sans-serif" font-size="13" font-weight="bold" lengthAdjust="spacing" textLength="14" x="493" y="405.5986">10</text><text fill="#000000" font-family="sans-serif" font-size="13" lengthAdjust="spacing" textLength="74" x="511" y="405.5986">collaborators</text><polygon fill="#181818" points="112,438.1523,102,442.1523,112,446.1523,108,442.1523" style="stroke:#181818;stroke-width:1.0;"/><line style="stroke:#181818;stroke-width:1.0;stroke-dasharray:2.0,2.0;" x1="106" x2="470" y1="442.1523" y2="442.1523"/><text fill="#000000" font-family="sans-serif" font-size="13" font-weight="bold" lengthAdjust="spacing" textLength="14" x="118" y="436.8896">11</text><text fill="#000000" font-family="sans-serif" font-size="13" lengthAdjust="spacing" textLength="156" x="136" y="436.8896">Shows all the collaborators</text><polygon fill="#181818" points="454,469.4434,464,473.4434,454,477.4434,458,473.4434" style="stroke:#181818;stroke-width:1.0;"/><line style="stroke:#181818;stroke-width:1.0;" x1="101" x2="460" y1="473.4434" y2="473.4434"/><text fill="#000000" font-family="sans-serif" font-size="13" font-weight="bold" lengthAdjust="spacing" textLength="14" x="108" y="468.1807">12</text><text fill="#000000" font-family="sans-serif" font-size="13" lengthAdjust="spacing" textLength="183" x="126" y="468.1807">Selects one of the collaborators</text><polygon fill="#181818" points="765,500.7344,775,504.7344,765,508.7344,769,504.7344" style="stroke:#181818;stroke-width:1.0;"/><line style="stroke:#181818;stroke-width:1.0;" x1="476" x2="771" y1="504.7344" y2="504.7344"/><text fill="#000000" font-family="sans-serif" font-size="13" font-weight="bold" lengthAdjust="spacing" textLength="14" x="483" y="499.4717">13</text><text fill="#000000" font-family="sans-serif" font-size="13" lengthAdjust="spacing" textLength="264" x="501" y="499.4717">setCollaboratorSelected(collaboratorSelected)</text><polygon fill="#181818" points="487,532.0254,477,536.0254,487,540.0254,483,536.0254" style="stroke:#181818;stroke-width:1.0;"/><line style="stroke:#181818;stroke-width:1.0;stroke-dasharray:2.0,2.0;" x1="481" x2="781" y1="536.0254" y2="536.0254"/><text fill="#000000" font-family="sans-serif" font-size="13" font-weight="bold" lengthAdjust="spacing" textLength="14" x="493" y="530.7627">14</text><text fill="#000000" font-family="sans-serif" font-size="13" lengthAdjust="spacing" textLength="49" x="511" y="530.7627">success</text><polygon fill="#181818" points="112,563.3164,102,567.3164,112,571.3164,108,567.3164" style="stroke:#181818;stroke-width:1.0;"/><line style="stroke:#181818;stroke-width:1.0;stroke-dasharray:2.0,2.0;" x1="106" x2="470" y1="567.3164" y2="567.3164"/><text fill="#000000" font-family="sans-serif" font-size="13" font-weight="bold" lengthAdjust="spacing" textLength="14" x="118" y="562.0537">15</text><text fill="#000000" font-family="sans-serif" font-size="13" lengthAdjust="spacing" textLength="323" x="136" y="562.0537">Shows collaborator information and request confirmation</text><polygon fill="#181818" points="454,594.6074,464,598.6074,454,602.6074,458,598.6074" style="stroke:#181818;stroke-width:1.0;"/><line style="stroke:#181818;stroke-width:1.0;" x1="101" x2="460" y1="598.6074" y2="598.6074"/><text fill="#000000" font-family="sans-serif" font-size="13" font-weight="bold" lengthAdjust="spacing" textLength="14" x="108" y="593.3447">16</text><text fill="#000000" font-family="sans-serif" font-size="13" lengthAdjust="spacing" textLength="62" x="126" y="593.3447">Confirms it</text><polygon fill="#181818" points="765,625.8984,775,629.8984,765,633.8984,769,629.8984" style="stroke:#181818;stroke-width:1.0;"/><line style="stroke:#181818;stroke-width:1.0;" x1="476" x2="771" y1="629.8984" y2="629.8984"/><text fill="#000000" font-family="sans-serif" font-size="13" font-weight="bold" lengthAdjust="spacing" textLength="14" x="483" y="624.6357">17</text><text fill="#000000" font-family="sans-serif" font-size="13" lengthAdjust="spacing" textLength="58" x="501" y="624.6357">getSkills()</text><polygon fill="#181818" points="1067,657.1895,1077,661.1895,1067,665.1895,1071,661.1895" style="stroke:#181818;stroke-width:1.0;"/><line style="stroke:#181818;stroke-width:1.0;" x1="787" x2="1073" y1="661.1895" y2="661.1895"/><text fill="#000000" font-family="sans-serif" font-size="13" font-weight="bold" lengthAdjust="spacing" textLength="14" x="794" y="655.9268">18</text><text fill="#000000" font-family="sans-serif" font-size="13" lengthAdjust="spacing" textLength="120" x="812" y="655.9268">getSkillsRepository()</text><polygon fill="#181818" points="798,688.4805,788,692.4805,798,696.4805,794,692.4805" style="stroke:#181818;stroke-width:1.0;"/><line style="stroke:#181818;stroke-width:1.0;stroke-dasharray:2.0,2.0;" x1="792" x2="1083" y1="692.4805" y2="692.4805"/><text fill="#000000" font-family="sans-serif" font-size="13" font-weight="bold" lengthAdjust="spacing" textLength="14" x="804" y="687.2178">19</text><text fill="#000000" font-family="sans-serif" font-size="13" lengthAdjust="spacing" textLength="92" x="822" y="687.2178">skillsRepository</text><polygon fill="#181818" points="1365.5,719.7715,1375.5,723.7715,1365.5,727.7715,1369.5,723.7715" style="stroke:#181818;stroke-width:1.0;"/><line style="stroke:#181818;stroke-width:1.0;" x1="787" x2="1371.5" y1="723.7715" y2="723.7715"/><text fill="#000000" font-family="sans-serif" font-size="13" font-weight="bold" lengthAdjust="spacing" textLength="14" x="794" y="718.5088">20</text><text fill="#000000" font-family="sans-serif" font-size="13" lengthAdjust="spacing" textLength="79" x="812" y="718.5088">getSkillsList()</text><polygon fill="#181818" points="798,751.0625,788,755.0625,798,759.0625,794,755.0625" style="stroke:#181818;stroke-width:1.0;"/><line style="stroke:#181818;stroke-width:1.0;stroke-dasharray:2.0,2.0;" x1="792" x2="1381.5" y1="755.0625" y2="755.0625"/><text fill="#000000" font-family="sans-serif" font-size="13" font-weight="bold" lengthAdjust="spacing" textLength="14" x="804" y="749.7998">21</text><text fill="#000000" font-family="sans-serif" font-size="13" lengthAdjust="spacing" textLength="51" x="822" y="749.7998">skillsList</text><polygon fill="#181818" points="487,782.3535,477,786.3535,487,790.3535,483,786.3535" style="stroke:#181818;stroke-width:1.0;"/><line style="stroke:#181818;stroke-width:1.0;stroke-dasharray:2.0,2.0;" x1="481" x2="781" y1="786.3535" y2="786.3535"/><text fill="#000000" font-family="sans-serif" font-size="13" font-weight="bold" lengthAdjust="spacing" textLength="14" x="493" y="781.0908">22</text><text fill="#000000" font-family="sans-serif" font-size="13" lengthAdjust="spacing" textLength="30" x="511" y="781.0908">skills</text><polygon fill="#181818" points="112,813.6445,102,817.6445,112,821.6445,108,817.6445" style="stroke:#181818;stroke-width:1.0;"/><line style="stroke:#181818;stroke-width:1.0;stroke-dasharray:2.0,2.0;" x1="106" x2="470" y1="817.6445" y2="817.6445"/><text fill="#000000" font-family="sans-serif" font-size="13" font-weight="bold" lengthAdjust="spacing" textLength="14" x="118" y="812.3818">23</text><text fill="#000000" font-family="sans-serif" font-size="13" lengthAdjust="spacing" textLength="205" x="136" y="812.3818">Shows the skills available to assign</text><polygon fill="#181818" points="454,844.9355,464,848.9355,454,852.9355,458,848.9355" style="stroke:#181818;stroke-width:1.0;"/><line style="stroke:#181818;stroke-width:1.0;" x1="101" x2="460" y1="848.9355" y2="848.9355"/><text fill="#000000" font-family="sans-serif" font-size="13" font-weight="bold" lengthAdjust="spacing" textLength="14" x="108" y="843.6729">24</text><text fill="#000000" font-family="sans-serif" font-size="13" lengthAdjust="spacing" textLength="283" x="126" y="843.6729">Selects the skills which are going to be assigned</text><polygon fill="#181818" points="765,876.2266,775,880.2266,765,884.2266,769,880.2266" style="stroke:#181818;stroke-width:1.0;"/><line style="stroke:#181818;stroke-width:1.0;" x1="476" x2="771" y1="880.2266" y2="880.2266"/><text fill="#000000" font-family="sans-serif" font-size="13" font-weight="bold" lengthAdjust="spacing" textLength="14" x="483" y="874.9639">25</text><text fill="#000000" font-family="sans-serif" font-size="13" lengthAdjust="spacing" textLength="84" x="501" y="874.9639">skillsToAssign</text><line style="stroke:#181818;stroke-width:1.0;" x1="787" x2="834" y1="906.5176" y2="906.5176"/><line style="stroke:#181818;stroke-width:1.0;" x1="834" x2="834" y1="906.5176" y2="919.5176"/><line style="stroke:#181818;stroke-width:1.0;" x1="793" x2="834" y1="919.5176" y2="919.5176"/><polygon fill="#181818" points="803,915.5176,793,919.5176,803,923.5176,799,919.5176" style="stroke:#181818;stroke-width:1.0;"/><text fill="#000000" font-family="sans-serif" font-size="13" font-weight="bold" lengthAdjust="spacing" textLength="14" x="799" y="901.2549">26</text><text fill="#000000" font-family="sans-serif" font-size="13" lengthAdjust="spacing" textLength="153" x="817" y="901.2549">storeSkills(skillsToAssign)</text><line style="stroke:#181818;stroke-width:1.0;stroke-dasharray:2.0,2.0;" x1="792" x2="834" y1="960.8086" y2="960.8086"/><line style="stroke:#181818;stroke-width:1.0;stroke-dasharray:2.0,2.0;" x1="834" x2="834" y1="960.8086" y2="973.8086"/><line style="stroke:#181818;stroke-width:1.0;stroke-dasharray:2.0,2.0;" x1="787" x2="834" y1="973.8086" y2="973.8086"/><polygon fill="#181818" points="797,969.8086,787,973.8086,797,977.8086,793,973.8086" style="stroke:#181818;stroke-width:1.0;"/><text fill="#000000" font-family="sans-serif" font-size="13" font-weight="bold" lengthAdjust="spacing" textLength="14" x="799" y="955.5459">27</text><text fill="#000000" font-family="sans-serif" font-size="13" lengthAdjust="spacing" textLength="49" x="817" y="955.5459">success</text><polygon fill="#181818" points="487,996.0996,477,1000.0996,487,1004.0996,483,1000.0996" style="stroke:#181818;stroke-width:1.0;"/><line style="stroke:#181818;stroke-width:1.0;stroke-dasharray:2.0,2.0;" x1="481" x2="781" y1="1000.0996" y2="1000.0996"/><text fill="#000000" font-family="sans-serif" font-size="13" font-weight="bold" lengthAdjust="spacing" textLength="14" x="493" y="994.8369">28</text><text fill="#000000" font-family="sans-serif" font-size="13" lengthAdjust="spacing" textLength="51" x="511" y="994.8369">Success</text><polygon fill="#181818" points="112,1027.3906,102,1031.3906,112,1035.3906,108,1031.3906" style="stroke:#181818;stroke-width:1.0;"/><line style="stroke:#181818;stroke-width:1.0;stroke-dasharray:2.0,2.0;" x1="106" x2="470" y1="1031.3906" y2="1031.3906"/><text fill="#000000" font-family="sans-serif" font-size="13" font-weight="bold" lengthAdjust="spacing" textLength="14" x="118" y="1026.1279">29</text><text fill="#000000" font-family="sans-serif" font-size="13" lengthAdjust="spacing" textLength="218" x="136" y="1026.1279">Shows them and request confirmation</text><polygon fill="#181818" points="454,1058.6816,464,1062.6816,454,1066.6816,458,1062.6816" style="stroke:#181818;stroke-width:1.0;"/><line style="stroke:#181818;stroke-width:1.0;" x1="101" x2="460" y1="1062.6816" y2="1062.6816"/><text fill="#000000" font-family="sans-serif" font-size="13" font-weight="bold" lengthAdjust="spacing" textLength="14" x="108" y="1057.4189">30</text><text fill="#000000" font-family="sans-serif" font-size="13" lengthAdjust="spacing" textLength="62" x="126" y="1057.4189">Confirms it</text><polygon fill="#181818" points="765,1089.9727,775,1093.9727,765,1097.9727,769,1093.9727" style="stroke:#181818;stroke-width:1.0;"/><line style="stroke:#181818;stroke-width:1.0;" x1="476" x2="771" y1="1093.9727" y2="1093.9727"/><text fill="#000000" font-family="sans-serif" font-size="13" font-weight="bold" lengthAdjust="spacing" textLength="14" x="483" y="1088.71">31</text><text fill="#000000" font-family="sans-serif" font-size="13" lengthAdjust="spacing" textLength="104" x="501" y="1088.71">Confirms changes</text><path d="M698.5,1108.9727 L771.5,1108.9727 L771.5,1118.2637 L761.5,1128.2637 L698.5,1128.2637 L698.5,1108.9727 " fill="#EEEEEE" style="stroke:#000000;stroke-width:1.5;"/><rect fill="none" height="81.873" style="stroke:#000000;stroke-width:1.5;" width="907" x="698.5" y="1108.9727"/><text fill="#000000" font-family="sans-serif" font-size="13" font-weight="bold" lengthAdjust="spacing" textLength="28" x="713.5" y="1124.001">loop</text><text fill="#000000" font-family="sans-serif" font-size="11" font-weight="bold" lengthAdjust="spacing" textLength="241" x="786.5" y="1122.8428">[as long as skillsToAssign still unassigned]</text><polygon fill="#181818" points="1506.5,1147.5547,1516.5,1151.5547,1506.5,1155.5547,1510.5,1151.5547" style="stroke:#181818;stroke-width:1.0;"/><line style="stroke:#181818;stroke-width:1.0;" x1="787" x2="1512.5" y1="1151.5547" y2="1151.5547"/><text fill="#000000" font-family="sans-serif" font-size="13" font-weight="bold" lengthAdjust="spacing" textLength="14" x="794" y="1146.292">32</text><text fill="#000000" font-family="sans-serif" font-size="13" lengthAdjust="spacing" textLength="77" x="812" y="1146.292">addSkill(skill)</text><polygon fill="#181818" points="798,1178.8457,788,1182.8457,798,1186.8457,794,1182.8457" style="stroke:#181818;stroke-width:1.0;"/><line style="stroke:#181818;stroke-width:1.0;stroke-dasharray:2.0,2.0;" x1="792" x2="1522.5" y1="1182.8457" y2="1182.8457"/><text fill="#000000" font-family="sans-serif" font-size="13" font-weight="bold" lengthAdjust="spacing" textLength="14" x="804" y="1177.583">33</text><text fill="#000000" font-family="sans-serif" font-size="13" lengthAdjust="spacing" textLength="51" x="822" y="1177.583">Success</text><polygon fill="#181818" points="487,1217.1367,477,1221.1367,487,1225.1367,483,1221.1367" style="stroke:#181818;stroke-width:1.0;"/><line style="stroke:#181818;stroke-width:1.0;stroke-dasharray:2.0,2.0;" x1="481" x2="781" y1="1221.1367" y2="1221.1367"/><text fill="#000000" font-family="sans-serif" font-size="13" font-weight="bold" lengthAdjust="spacing" textLength="14" x="493" y="1215.874">34</text><text fill="#000000" font-family="sans-serif" font-size="13" lengthAdjust="spacing" textLength="49" x="511" y="1215.874">success</text><polygon fill="#181818" points="107,1248.4277,97,1252.4277,107,1256.4277,103,1252.4277" style="stroke:#181818;stroke-width:1.0;"/><line style="stroke:#181818;stroke-width:1.0;stroke-dasharray:2.0,2.0;" x1="101" x2="470" y1="1252.4277" y2="1252.4277"/><text fill="#000000" font-family="sans-serif" font-size="13" font-weight="bold" lengthAdjust="spacing" textLength="14" x="113" y="1247.165">35</text><text fill="#000000" font-family="sans-serif" font-size="13" lengthAdjust="spacing" textLength="160" x="131" y="1247.165">Displays operation success</text><!--SRC=[nLR1Rjim3BtxAuXUrXNe3_Gme4WFAz1UulQsYs8piH1RyYIvNVz-b9NOaYqvIBDYlXYso2TIxv6KtdFHCiKQQAIGHQLaWs1KXvaULbfMxDaES_DH8oWi31ExsZVG5IlbEnSxsB9QOvQnpaZHDHjKMVQjuYN2LagpaNyoLXYfuEfdrp01QzIoKmLgU6Q2Tb1Nm3JSFpndX6jumLic35pTtMlDToBVyxf-VUnjNX_J9YifZ99rVO1RlQoV9iPhRANc50X7tTluFq9RvQty4d7FHw7fI0eCFGiAWMsaOcIj1xyF0bd5LroqtffT2Z6rpIy4ooU_UfJ-vzpT3od7cfZ4SXBFB8ZCKiRVcC6Uc0mE3tt0xGyY0kxWNkyr64ckbWJmjm4NykWte165u3q4H72Mh9iRWYmKab72WjPtQ89ZlFwU1SR3DZtzmP9zUXH2y_bqg4So2N3gD606Se784y3UZb6h9SSIunii1dyCDt8aeoQcXpDBPb1mAfbX6o-PXC1FvJNibSnhMWEHt9wuDaiCpSeebjXidrHoThUbj6Qx9L8xrai0dgL0PyAr1K0GjlBk8A_akmPMrs0gJ21wQ5HjqT9rRK2350Xo6y6A5cwwBdL8rB7BNCTQpsB9Bf-WxWeQ6vUTNT2ckDXArJ33fG0cIghKtnrgGqPYomyBvvpholbfuEQStkUaxdhw1Iqjx0hJ4V4rxM0wcoxl0yCKyzCuL7uwWN7snQ8VCMUXdwho4VYKEDt8kqIRjWuT3B0tnacdTFKQ9knd2jn3VAzuKG5J23jfBss4ky43D9PdojLXlaXt0Jk_eaSW4WqUb1-2Bh4THGueES97EiP9PkRSvl-WyH0LpNzkCeDdKT5bVd8PEOF3MihMtXXhIJgYTqWSSKgVq8b1Msccmh5F8RAoxDNWn13HG7BWHosd0z_NHfxGniAOduU3elpIeVN0TLkp3nhLBIetgAQ04ybud_Rg_XS0]--></g></svg>