<?xml version="1.0" encoding="us-ascii" standalone="no"?><svg xmlns="http://www.w3.org/2000/svg" xmlns:xlink="http://www.w3.org/1999/xlink" contentStyleType="text/css" height="519px" preserveAspectRatio="none" style="width:678px;height:519px;background:#FFFFFF;" version="1.1" viewBox="0 0 678 519" width="678px" zoomAndPan="magnify"><defs/><g><text fill="#000000" font-family="sans-serif" font-size="14" font-weight="bold" lengthAdjust="spacing" textLength="228" x="226.75" y="30.1074">System Sequence Diagram (SSD)</text><rect fill="#FFFFFF" height="256.6191" style="stroke:#181818;stroke-width:1.0;" width="10" x="92.5" y="151.8633"/><rect fill="#FFFFFF" height="92.1641" style="stroke:#181818;stroke-width:1.0;" width="10" x="627.5" y="175.1543"/><rect fill="#FFFFFF" height="38.291" style="stroke:#181818;stroke-width:1.0;" width="10" x="627.5" y="298.6094"/><rect fill="#FFFFFF" height="31.291" style="stroke:#181818;stroke-width:1.0;" width="10" x="627.5" y="368.1914"/><rect fill="none" height="116.4551" style="stroke:#000000;stroke-width:1.5;" width="662.5" x="10" y="190.1543"/><line style="stroke:#181818;stroke-width:0.5;stroke-dasharray:5.0,5.0;" x1="97" x2="97" y1="141.8633" y2="417.4824"/><line style="stroke:#181818;stroke-width:0.5;stroke-dasharray:5.0,5.0;" x1="632.5" x2="632.5" y1="141.8633" y2="417.4824"/><text fill="#000000" font-family="sans-serif" font-size="14" lengthAdjust="spacing" textLength="145" x="20" y="119.7285">Vehicle and Equipment</text><text fill="#000000" font-family="sans-serif" font-size="14" lengthAdjust="spacing" textLength="92" x="48.5" y="138.3496">Fleet Manager</text><ellipse cx="97.5" cy="53.1211" fill="#E3E3E3" rx="8" ry="8" style="stroke:#181818;stroke-width:0.5;"/><path d="M97.5,61.1211 L97.5,88.1211 M84.5,69.1211 L110.5,69.1211 M97.5,88.1211 L84.5,103.1211 M97.5,88.1211 L110.5,103.1211 " fill="none" style="stroke:#181818;stroke-width:0.5;"/><text fill="#000000" font-family="sans-serif" font-size="14" lengthAdjust="spacing" textLength="145" x="20" y="431.5898">Vehicle and Equipment</text><text fill="#000000" font-family="sans-serif" font-size="14" lengthAdjust="spacing" textLength="92" x="48.5" y="450.2109">Fleet Manager</text><ellipse cx="97.5" cy="462.2246" fill="#E3E3E3" rx="8" ry="8" style="stroke:#181818;stroke-width:0.5;"/><path d="M97.5,470.2246 L97.5,497.2246 M84.5,478.2246 L110.5,478.2246 M97.5,497.2246 L84.5,512.2246 M97.5,497.2246 L110.5,512.2246 " fill="none" style="stroke:#181818;stroke-width:0.5;"/><rect fill="#E3E3E3" height="32.6211" rx="2.5" ry="2.5" style="stroke:#181818;stroke-width:0.5;" width="60" x="602.5" y="108.2422"/><text fill="#000000" font-family="sans-serif" font-size="14" lengthAdjust="spacing" textLength="46" x="609.5" y="130.3496">System</text><rect fill="#E3E3E3" height="32.6211" rx="2.5" ry="2.5" style="stroke:#181818;stroke-width:0.5;" width="60" x="602.5" y="416.4824"/><text fill="#000000" font-family="sans-serif" font-size="14" lengthAdjust="spacing" textLength="46" x="609.5" y="438.5898">System</text><rect fill="#FFFFFF" height="256.6191" style="stroke:#181818;stroke-width:1.0;" width="10" x="92.5" y="151.8633"/><rect fill="#FFFFFF" height="92.1641" style="stroke:#181818;stroke-width:1.0;" width="10" x="627.5" y="175.1543"/><rect fill="#FFFFFF" height="38.291" style="stroke:#181818;stroke-width:1.0;" width="10" x="627.5" y="298.6094"/><rect fill="#FFFFFF" height="31.291" style="stroke:#181818;stroke-width:1.0;" width="10" x="627.5" y="368.1914"/><polygon fill="#181818" points="615.5,171.1543,625.5,175.1543,615.5,179.1543,619.5,175.1543" style="stroke:#181818;stroke-width:1.0;"/><line style="stroke:#181818;stroke-width:1.0;" x1="102.5" x2="621.5" y1="175.1543" y2="175.1543"/><text fill="#000000" font-family="sans-serif" font-size="13" font-weight="bold" lengthAdjust="spacing" textLength="7" x="109.5" y="169.8916">1</text><text fill="#000000" font-family="sans-serif" font-size="13" lengthAdjust="spacing" textLength="171" x="120.5" y="169.8916">asks to register a new vehicle</text><path d="M10,190.1543 L83,190.1543 L83,199.4453 L73,209.4453 L10,209.4453 L10,190.1543 " fill="#EEEEEE" style="stroke:#000000;stroke-width:1.5;"/><rect fill="none" height="116.4551" style="stroke:#000000;stroke-width:1.5;" width="662.5" x="10" y="190.1543"/><text fill="#000000" font-family="sans-serif" font-size="13" font-weight="bold" lengthAdjust="spacing" textLength="28" x="25" y="205.1826">loop</text><text fill="#000000" font-family="sans-serif" font-size="11" font-weight="bold" lengthAdjust="spacing" textLength="90" x="98" y="204.0244">[while intended]</text><polygon fill="#181818" points="113.5,263.3184,103.5,267.3184,113.5,271.3184,109.5,267.3184" style="stroke:#181818;stroke-width:1.0;"/><line style="stroke:#181818;stroke-width:1.0;stroke-dasharray:2.0,2.0;" x1="107.5" x2="631.5" y1="267.3184" y2="267.3184"/><text fill="#000000" font-family="sans-serif" font-size="13" font-weight="bold" lengthAdjust="spacing" textLength="7" x="119.5" y="244.7646">2</text><text fill="#000000" font-family="sans-serif" font-size="13" lengthAdjust="spacing" textLength="386" x="130.5" y="227.4736">requests vehicle data (i.e. Brand, Model, Type, Tare,Gross Weight,</text><text fill="#000000" font-family="sans-serif" font-size="13" lengthAdjust="spacing" textLength="260" x="130.5" y="244.7646">Current Km, Register Date, Acquisition Date,</text><text fill="#000000" font-family="sans-serif" font-size="13" lengthAdjust="spacing" textLength="330" x="134.5" y="262.0557">Maintenance/Checkup Frequency (in Kms), vehicle plate)</text><polygon fill="#181818" points="615.5,294.6094,625.5,298.6094,615.5,302.6094,619.5,298.6094" style="stroke:#181818;stroke-width:1.0;"/><line style="stroke:#181818;stroke-width:1.0;" x1="102.5" x2="621.5" y1="298.6094" y2="298.6094"/><text fill="#000000" font-family="sans-serif" font-size="13" font-weight="bold" lengthAdjust="spacing" textLength="7" x="109.5" y="293.3467">3</text><text fill="#000000" font-family="sans-serif" font-size="13" lengthAdjust="spacing" textLength="262" x="120.5" y="293.3467">write the values of the new vehicle's attributes</text><polygon fill="#181818" points="113.5,332.9004,103.5,336.9004,113.5,340.9004,109.5,336.9004" style="stroke:#181818;stroke-width:1.0;"/><line style="stroke:#181818;stroke-width:1.0;stroke-dasharray:2.0,2.0;" x1="107.5" x2="631.5" y1="336.9004" y2="336.9004"/><text fill="#000000" font-family="sans-serif" font-size="13" font-weight="bold" lengthAdjust="spacing" textLength="7" x="119.5" y="331.6377">4</text><text fill="#000000" font-family="sans-serif" font-size="13" lengthAdjust="spacing" textLength="490" x="130.5" y="331.6377">shows all registered vehicles and asks to confirm the data of the new vehicle typed in</text><polygon fill="#181818" points="615.5,364.1914,625.5,368.1914,615.5,372.1914,619.5,368.1914" style="stroke:#181818;stroke-width:1.0;"/><line style="stroke:#181818;stroke-width:1.0;" x1="102.5" x2="621.5" y1="368.1914" y2="368.1914"/><text fill="#000000" font-family="sans-serif" font-size="13" font-weight="bold" lengthAdjust="spacing" textLength="7" x="109.5" y="362.9287">5</text><text fill="#000000" font-family="sans-serif" font-size="13" lengthAdjust="spacing" textLength="335" x="120.5" y="362.9287">confirms the set of registered vehicles and the new vehicle</text><polygon fill="#181818" points="113.5,395.4824,103.5,399.4824,113.5,403.4824,109.5,399.4824" style="stroke:#181818;stroke-width:1.0;"/><line style="stroke:#181818;stroke-width:1.0;stroke-dasharray:2.0,2.0;" x1="107.5" x2="631.5" y1="399.4824" y2="399.4824"/><text fill="#000000" font-family="sans-serif" font-size="13" font-weight="bold" lengthAdjust="spacing" textLength="7" x="119.5" y="394.2197">6</text><text fill="#000000" font-family="sans-serif" font-size="13" lengthAdjust="spacing" textLength="158" x="130.5" y="394.2197">displays operation success</text><!--SRC=[VLAzRjim4Dxr50SlZG4bsJCKQEEwG-2bAj8bouKyIuGfKk6TREZjUw8YDR2TSX2eu_7xE_B1XGuJjj3644sJOaiWgQU2bvCEpG5hgcJm18cCOAZznmPkqCQJ2pNiqJCLXJZHrcfWeHOgUkif68ADmtfilwcgpReei9SO-lQLakwDn0IhPsgSqPiOBFnuwrtNKX1u2LjF9B33e3BI2f3XURihb5oSSHrgpseYosVJDeEw8mhbvW9qwGPklyx27hJvm21HJTLEImaG0ftWECd8LnQG6NKi-XWxE3LEfReW52pPN9_NEy6jSesK3qgW6R3m30qM1U76tT4TV4zgjuHTjEHB-3rqf5zCLFvCaHd-aAiRAJM5npwbCO-djeHVi-ADQYlXcz6qs8cBOQgy18qhQqED_lwn8NFeEzYcQHY3SWS5udMvIEgyNbmlFYnTjNujnbDosYKDmH6z-eIuptyVilp2W2B9lVP2l02TCumrJVCVqqMGtCIJGdc_p8pipC7vtSmpDJ7iNMgpa9psfIWG3Tlg28l_63ut-uxB6OprMIhkPrhE-3v_K1S-hMETnw1HTfGmpvLxOuZvkjQ_]--></g></svg>