<?xml version="1.0" encoding="us-ascii" standalone="no"?><svg xmlns="http://www.w3.org/2000/svg" xmlns:xlink="http://www.w3.org/1999/xlink" contentStyleType="text/css" height="536px" preserveAspectRatio="none" style="width:542px;height:536px;background:#FFFFFF;" version="1.1" viewBox="0 0 542 536" width="542px" zoomAndPan="magnify"><defs/><g><text fill="#000000" font-family="sans-serif" font-size="14" font-weight="bold" lengthAdjust="spacing" textLength="228" x="158.75" y="30.1074">System Sequence Diagram (SSD)</text><rect fill="#FFFFFF" height="273.9102" style="stroke:#181818;stroke-width:1.0;" width="10" x="92.5" y="151.8633"/><rect fill="#FFFFFF" height="109.4551" style="stroke:#181818;stroke-width:1.0;" width="10" x="491.5" y="175.1543"/><rect fill="#FFFFFF" height="38.291" style="stroke:#181818;stroke-width:1.0;" width="10" x="491.5" y="315.9004"/><rect fill="#FFFFFF" height="31.291" style="stroke:#181818;stroke-width:1.0;" width="10" x="491.5" y="385.4824"/><rect fill="none" height="133.7461" style="stroke:#000000;stroke-width:1.5;" width="526.5" x="10" y="190.1543"/><line style="stroke:#181818;stroke-width:0.5;stroke-dasharray:5.0,5.0;" x1="97" x2="97" y1="141.8633" y2="434.7734"/><line style="stroke:#181818;stroke-width:0.5;stroke-dasharray:5.0,5.0;" x1="496.5" x2="496.5" y1="141.8633" y2="434.7734"/><text fill="#000000" font-family="sans-serif" font-size="14" lengthAdjust="spacing" textLength="145" x="20" y="119.7285">Vehicle and Equipment</text><text fill="#000000" font-family="sans-serif" font-size="14" lengthAdjust="spacing" textLength="92" x="48.5" y="138.3496">Fleet Manager</text><ellipse cx="97.5" cy="53.1211" fill="#E3E3E3" rx="8" ry="8" style="stroke:#181818;stroke-width:0.5;"/><path d="M97.5,61.1211 L97.5,88.1211 M84.5,69.1211 L110.5,69.1211 M97.5,88.1211 L84.5,103.1211 M97.5,88.1211 L110.5,103.1211 " fill="none" style="stroke:#181818;stroke-width:0.5;"/><text fill="#000000" font-family="sans-serif" font-size="14" lengthAdjust="spacing" textLength="145" x="20" y="448.8809">Vehicle and Equipment</text><text fill="#000000" font-family="sans-serif" font-size="14" lengthAdjust="spacing" textLength="92" x="48.5" y="467.502">Fleet Manager</text><ellipse cx="97.5" cy="479.5156" fill="#E3E3E3" rx="8" ry="8" style="stroke:#181818;stroke-width:0.5;"/><path d="M97.5,487.5156 L97.5,514.5156 M84.5,495.5156 L110.5,495.5156 M97.5,514.5156 L84.5,529.5156 M97.5,514.5156 L110.5,529.5156 " fill="none" style="stroke:#181818;stroke-width:0.5;"/><rect fill="#E3E3E3" height="32.6211" rx="2.5" ry="2.5" style="stroke:#181818;stroke-width:0.5;" width="60" x="466.5" y="108.2422"/><text fill="#000000" font-family="sans-serif" font-size="14" lengthAdjust="spacing" textLength="46" x="473.5" y="130.3496">System</text><rect fill="#E3E3E3" height="32.6211" rx="2.5" ry="2.5" style="stroke:#181818;stroke-width:0.5;" width="60" x="466.5" y="433.7734"/><text fill="#000000" font-family="sans-serif" font-size="14" lengthAdjust="spacing" textLength="46" x="473.5" y="455.8809">System</text><rect fill="#FFFFFF" height="273.9102" style="stroke:#181818;stroke-width:1.0;" width="10" x="92.5" y="151.8633"/><rect fill="#FFFFFF" height="109.4551" style="stroke:#181818;stroke-width:1.0;" width="10" x="491.5" y="175.1543"/><rect fill="#FFFFFF" height="38.291" style="stroke:#181818;stroke-width:1.0;" width="10" x="491.5" y="315.9004"/><rect fill="#FFFFFF" height="31.291" style="stroke:#181818;stroke-width:1.0;" width="10" x="491.5" y="385.4824"/><polygon fill="#181818" points="479.5,171.1543,489.5,175.1543,479.5,179.1543,483.5,175.1543" style="stroke:#181818;stroke-width:1.0;"/><line style="stroke:#181818;stroke-width:1.0;" x1="102.5" x2="485.5" y1="175.1543" y2="175.1543"/><text fill="#000000" font-family="sans-serif" font-size="13" font-weight="bold" lengthAdjust="spacing" textLength="7" x="109.5" y="169.8916">1</text><text fill="#000000" font-family="sans-serif" font-size="13" lengthAdjust="spacing" textLength="171" x="120.5" y="169.8916">asks to register a new vehicle</text><path d="M10,190.1543 L83,190.1543 L83,199.4453 L73,209.4453 L10,209.4453 L10,190.1543 " fill="#EEEEEE" style="stroke:#000000;stroke-width:1.5;"/><rect fill="none" height="133.7461" style="stroke:#000000;stroke-width:1.5;" width="526.5" x="10" y="190.1543"/><text fill="#000000" font-family="sans-serif" font-size="13" font-weight="bold" lengthAdjust="spacing" textLength="28" x="25" y="205.1826">loop</text><text fill="#000000" font-family="sans-serif" font-size="11" font-weight="bold" lengthAdjust="spacing" textLength="90" x="98" y="204.0244">[while intended]</text><polygon fill="#181818" points="113.5,280.6094,103.5,284.6094,113.5,288.6094,109.5,284.6094" style="stroke:#181818;stroke-width:1.0;"/><line style="stroke:#181818;stroke-width:1.0;stroke-dasharray:2.0,2.0;" x1="107.5" x2="495.5" y1="284.6094" y2="284.6094"/><text fill="#000000" font-family="sans-serif" font-size="13" font-weight="bold" lengthAdjust="spacing" textLength="7" x="119.5" y="253.4102">2</text><text fill="#000000" font-family="sans-serif" font-size="13" lengthAdjust="spacing" textLength="269" x="130.5" y="227.4736">requests vehicle data (i.e. Brand, Model, Type,</text><text fill="#000000" font-family="sans-serif" font-size="13" lengthAdjust="spacing" textLength="274" x="130.5" y="244.7646">Tare,Gross Weight, Current Km, Register Date,</text><text fill="#000000" font-family="sans-serif" font-size="13" lengthAdjust="spacing" textLength="354" x="130.5" y="262.0557">Acquisition Date, Maintenance/Checkup Frequency (in Kms),</text><text fill="#000000" font-family="sans-serif" font-size="13" lengthAdjust="spacing" textLength="75" x="134.5" y="279.3467">vehicle plate)</text><polygon fill="#181818" points="479.5,311.9004,489.5,315.9004,479.5,319.9004,483.5,315.9004" style="stroke:#181818;stroke-width:1.0;"/><line style="stroke:#181818;stroke-width:1.0;" x1="102.5" x2="485.5" y1="315.9004" y2="315.9004"/><text fill="#000000" font-family="sans-serif" font-size="13" font-weight="bold" lengthAdjust="spacing" textLength="7" x="109.5" y="310.6377">3</text><text fill="#000000" font-family="sans-serif" font-size="13" lengthAdjust="spacing" textLength="262" x="120.5" y="310.6377">write the values of the new vehicle's attributes</text><polygon fill="#181818" points="113.5,350.1914,103.5,354.1914,113.5,358.1914,109.5,354.1914" style="stroke:#181818;stroke-width:1.0;"/><line style="stroke:#181818;stroke-width:1.0;stroke-dasharray:2.0,2.0;" x1="107.5" x2="495.5" y1="354.1914" y2="354.1914"/><text fill="#000000" font-family="sans-serif" font-size="13" font-weight="bold" lengthAdjust="spacing" textLength="7" x="119.5" y="348.9287">4</text><text fill="#000000" font-family="sans-serif" font-size="13" lengthAdjust="spacing" textLength="283" x="130.5" y="348.9287">shows all registered vehicles and asks to confirm</text><polygon fill="#181818" points="479.5,381.4824,489.5,385.4824,479.5,389.4824,483.5,385.4824" style="stroke:#181818;stroke-width:1.0;"/><line style="stroke:#181818;stroke-width:1.0;" x1="102.5" x2="485.5" y1="385.4824" y2="385.4824"/><text fill="#000000" font-family="sans-serif" font-size="13" font-weight="bold" lengthAdjust="spacing" textLength="7" x="109.5" y="380.2197">5</text><text fill="#000000" font-family="sans-serif" font-size="13" lengthAdjust="spacing" textLength="116" x="120.5" y="380.2197">confirms all vehicles</text><polygon fill="#181818" points="113.5,412.7734,103.5,416.7734,113.5,420.7734,109.5,416.7734" style="stroke:#181818;stroke-width:1.0;"/><line style="stroke:#181818;stroke-width:1.0;stroke-dasharray:2.0,2.0;" x1="107.5" x2="495.5" y1="416.7734" y2="416.7734"/><text fill="#000000" font-family="sans-serif" font-size="13" font-weight="bold" lengthAdjust="spacing" textLength="7" x="119.5" y="411.5107">6</text><text fill="#000000" font-family="sans-serif" font-size="13" lengthAdjust="spacing" textLength="158" x="130.5" y="411.5107">displays operation success</text><!--SRC=[TLAzRjj03Dxr58INne2IxXaAj77TeV1I1UcIXJdH4k7JdNAaBEZjIqcM6YIEfXEF_FvuSkBGOi86cXYYgrDi23HrbCbwqw8xOKM53fuWaLCCbN_R83MMiUTGmH6zK9OfgxKMWoWrKD1hHy4Hx1YhiVscA7RRBCDEO-YQ5qfsTXeJR9wePcUJ64hu-Tfnsr1GU0vxJwHmm60oqWPGu6b_o8nSsN6BrhEPoQQx-JY1yXcLfkOCxBC3t7vRXDrRyqb0evcgs4e940BrS9vbJ2Cho88w5dsCBVGrcrGEIg6aSgeltuNWrhX6odiZi0n4PO664XNXXk_e3duaivl38PRaStWSMihDyYCcod-bA09_YQjQStZeKXhp-Dtay6THl3DjO_ztPta9AyTmgHrmqeOM_TU7cjofQs6VvcKCnXqCIBRvSrX5jTu6jwkJagwQlnPadzYwj2OuepUd48_JtviqlmYWQkANJabMeFSCOyto_C_q8KgfOszGtgzRetBXaEdbB5jrCHmvpPYVU7dlup8ouo-Wdx-33-9A5WjnCFyj9PoM8Prp979TnJy0]--></g></svg>