<?xml version="1.0" encoding="us-ascii" standalone="no"?><svg xmlns="http://www.w3.org/2000/svg" xmlns:xlink="http://www.w3.org/1999/xlink" contentStyleType="text/css" height="600px" preserveAspectRatio="none" style="width:613px;height:600px;background:#FFFFFF;" version="1.1" viewBox="0 0 613 600" width="613px" zoomAndPan="magnify"><defs/><g><text fill="#000000" font-family="sans-serif" font-size="14" font-weight="bold" lengthAdjust="spacing" textLength="351" x="132.25" y="30.1074">System Sequence Diagram (SSD) - Alternative One</text><rect fill="#FFFFFF" height="337.832" style="stroke:#181818;stroke-width:1.0;" width="10" x="102.5" y="151.8633"/><rect fill="#FFFFFF" height="65.873" style="stroke:#181818;stroke-width:1.0;" width="10" x="551.5" y="175.1543"/><rect fill="#FFFFFF" height="217.377" style="stroke:#181818;stroke-width:1.0;" width="10" x="551.5" y="272.3184"/><rect fill="#FFFFFF" height="31.291" style="stroke:#181818;stroke-width:1.0;" width="10" x="556.5" y="356.1914"/><rect fill="#FFFFFF" height="31.291" style="stroke:#181818;stroke-width:1.0;" width="10" x="556.5" y="442.4043"/><rect fill="none" height="194.377" style="stroke:#000000;stroke-width:1.5;" width="596.5" x="10" y="287.3184"/><rect fill="none" height="81.873" style="stroke:#000000;stroke-width:1.5;" width="576.5" x="20" y="313.6094"/><line style="stroke:#181818;stroke-width:0.5;stroke-dasharray:5.0,5.0;" x1="107" x2="107" y1="141.8633" y2="498.6953"/><line style="stroke:#181818;stroke-width:0.5;stroke-dasharray:5.0,5.0;" x1="556.5" x2="556.5" y1="141.8633" y2="498.6953"/><text fill="#000000" font-family="sans-serif" font-size="14" lengthAdjust="spacing" textLength="145" x="30" y="119.7285">Vehicle and Equipment</text><text fill="#000000" font-family="sans-serif" font-size="14" lengthAdjust="spacing" textLength="92" x="58.5" y="138.3496">Fleet Manager</text><ellipse cx="107.5" cy="53.1211" fill="#E3E3E3" rx="8" ry="8" style="stroke:#181818;stroke-width:0.5;"/><path d="M107.5,61.1211 L107.5,88.1211 M94.5,69.1211 L120.5,69.1211 M107.5,88.1211 L94.5,103.1211 M107.5,88.1211 L120.5,103.1211 " fill="none" style="stroke:#181818;stroke-width:0.5;"/><text fill="#000000" font-family="sans-serif" font-size="14" lengthAdjust="spacing" textLength="145" x="30" y="512.8027">Vehicle and Equipment</text><text fill="#000000" font-family="sans-serif" font-size="14" lengthAdjust="spacing" textLength="92" x="58.5" y="531.4238">Fleet Manager</text><ellipse cx="107.5" cy="543.4375" fill="#E3E3E3" rx="8" ry="8" style="stroke:#181818;stroke-width:0.5;"/><path d="M107.5,551.4375 L107.5,578.4375 M94.5,559.4375 L120.5,559.4375 M107.5,578.4375 L94.5,593.4375 M107.5,578.4375 L120.5,593.4375 " fill="none" style="stroke:#181818;stroke-width:0.5;"/><rect fill="#E3E3E3" height="32.6211" rx="2.5" ry="2.5" style="stroke:#181818;stroke-width:0.5;" width="60" x="526.5" y="108.2422"/><text fill="#000000" font-family="sans-serif" font-size="14" lengthAdjust="spacing" textLength="46" x="533.5" y="130.3496">System</text><rect fill="#E3E3E3" height="32.6211" rx="2.5" ry="2.5" style="stroke:#181818;stroke-width:0.5;" width="60" x="526.5" y="497.6953"/><text fill="#000000" font-family="sans-serif" font-size="14" lengthAdjust="spacing" textLength="46" x="533.5" y="519.8027">System</text><rect fill="#FFFFFF" height="337.832" style="stroke:#181818;stroke-width:1.0;" width="10" x="102.5" y="151.8633"/><rect fill="#FFFFFF" height="65.873" style="stroke:#181818;stroke-width:1.0;" width="10" x="551.5" y="175.1543"/><rect fill="#FFFFFF" height="217.377" style="stroke:#181818;stroke-width:1.0;" width="10" x="551.5" y="272.3184"/><rect fill="#FFFFFF" height="31.291" style="stroke:#181818;stroke-width:1.0;" width="10" x="556.5" y="356.1914"/><rect fill="#FFFFFF" height="31.291" style="stroke:#181818;stroke-width:1.0;" width="10" x="556.5" y="442.4043"/><polygon fill="#181818" points="539.5,171.1543,549.5,175.1543,539.5,179.1543,543.5,175.1543" style="stroke:#181818;stroke-width:1.0;"/><line style="stroke:#181818;stroke-width:1.0;" x1="112.5" x2="545.5" y1="175.1543" y2="175.1543"/><text fill="#000000" font-family="sans-serif" font-size="13" font-weight="bold" lengthAdjust="spacing" textLength="7" x="119.5" y="169.8916">1</text><text fill="#000000" font-family="sans-serif" font-size="13" lengthAdjust="spacing" textLength="171" x="130.5" y="169.8916">asks to register a new vehicle</text><polygon fill="#181818" points="123.5,237.0273,113.5,241.0273,123.5,245.0273,119.5,241.0273" style="stroke:#181818;stroke-width:1.0;"/><line style="stroke:#181818;stroke-width:1.0;stroke-dasharray:2.0,2.0;" x1="117.5" x2="555.5" y1="241.0273" y2="241.0273"/><text fill="#000000" font-family="sans-serif" font-size="13" font-weight="bold" lengthAdjust="spacing" textLength="7" x="129.5" y="218.4736">2</text><text fill="#000000" font-family="sans-serif" font-size="13" lengthAdjust="spacing" textLength="386" x="140.5" y="201.1826">requests vehicle data (i.e. Brand, Model, Type, Tare,Gross Weight,</text><text fill="#000000" font-family="sans-serif" font-size="13" lengthAdjust="spacing" textLength="260" x="140.5" y="218.4736">Current Km, Register Date, Acquisition Date,</text><text fill="#000000" font-family="sans-serif" font-size="13" lengthAdjust="spacing" textLength="330" x="144.5" y="235.7646">Maintenance/Checkup Frequency (in Kms), vehicle plate)</text><polygon fill="#181818" points="539.5,268.3184,549.5,272.3184,539.5,276.3184,543.5,272.3184" style="stroke:#181818;stroke-width:1.0;"/><line style="stroke:#181818;stroke-width:1.0;" x1="112.5" x2="545.5" y1="272.3184" y2="272.3184"/><text fill="#000000" font-family="sans-serif" font-size="13" font-weight="bold" lengthAdjust="spacing" textLength="7" x="119.5" y="267.0557">3</text><text fill="#000000" font-family="sans-serif" font-size="13" lengthAdjust="spacing" textLength="246" x="130.5" y="267.0557">fills in the fields with the required attributes</text><path d="M10,287.3184 L71,287.3184 L71,296.6094 L61,306.6094 L10,306.6094 L10,287.3184 " fill="#EEEEEE" style="stroke:#000000;stroke-width:1.5;"/><rect fill="none" height="194.377" style="stroke:#000000;stroke-width:1.5;" width="596.5" x="10" y="287.3184"/><text fill="#000000" font-family="sans-serif" font-size="13" font-weight="bold" lengthAdjust="spacing" textLength="16" x="25" y="302.3467">alt</text><text fill="#000000" font-family="sans-serif" font-size="11" font-weight="bold" lengthAdjust="spacing" textLength="170" x="86" y="301.1885">[some invalid vehicle attribute]</text><path d="M20,313.6094 L93,313.6094 L93,322.9004 L83,332.9004 L20,332.9004 L20,313.6094 " fill="#EEEEEE" style="stroke:#000000;stroke-width:1.5;"/><rect fill="none" height="81.873" style="stroke:#000000;stroke-width:1.5;" width="576.5" x="20" y="313.6094"/><text fill="#000000" font-family="sans-serif" font-size="13" font-weight="bold" lengthAdjust="spacing" textLength="28" x="35" y="328.6377">loop</text><text fill="#000000" font-family="sans-serif" font-size="11" font-weight="bold" lengthAdjust="spacing" textLength="203" x="108" y="327.4795">[as long as the attribute stills invalid]</text><polygon fill="#181818" points="544.5,352.1914,554.5,356.1914,544.5,360.1914,548.5,356.1914" style="stroke:#181818;stroke-width:1.0;"/><line style="stroke:#181818;stroke-width:1.0;" x1="112.5" x2="550.5" y1="356.1914" y2="356.1914"/><text fill="#000000" font-family="sans-serif" font-size="13" font-weight="bold" lengthAdjust="spacing" textLength="7" x="119.5" y="350.9287">4</text><text fill="#000000" font-family="sans-serif" font-size="13" lengthAdjust="spacing" textLength="211" x="130.5" y="350.9287">writes the value of the attribute again</text><polygon fill="#181818" points="123.5,383.4824,113.5,387.4824,123.5,391.4824,119.5,387.4824" style="stroke:#181818;stroke-width:1.0;"/><line style="stroke:#181818;stroke-width:1.0;stroke-dasharray:2.0,2.0;" x1="117.5" x2="550.5" y1="387.4824" y2="387.4824"/><text fill="#000000" font-family="sans-serif" font-size="13" font-weight="bold" lengthAdjust="spacing" textLength="7" x="129.5" y="382.2197">5</text><text fill="#000000" font-family="sans-serif" font-size="13" lengthAdjust="spacing" textLength="166" x="140.5" y="382.2197">validates the vehicle attribute</text><line style="stroke:#000000;stroke-width:1.0;stroke-dasharray:2.0,2.0;" x1="10" x2="606.5" y1="403.4824" y2="403.4824"/><text fill="#000000" font-family="sans-serif" font-size="11" font-weight="bold" lengthAdjust="spacing" textLength="147" x="15" y="415.3525">[all valid vehicle attributes]</text><polygon fill="#181818" points="544.5,438.4043,554.5,442.4043,544.5,446.4043,548.5,442.4043" style="stroke:#181818;stroke-width:1.0;"/><line style="stroke:#181818;stroke-width:1.0;" x1="112.5" x2="550.5" y1="442.4043" y2="442.4043"/><text fill="#000000" font-family="sans-serif" font-size="13" font-weight="bold" lengthAdjust="spacing" textLength="7" x="119.5" y="437.1416">6</text><text fill="#000000" font-family="sans-serif" font-size="13" lengthAdjust="spacing" textLength="234" x="130.5" y="437.1416">confirms the registration of a new vehicle</text><polygon fill="#181818" points="123.5,469.6953,113.5,473.6953,123.5,477.6953,119.5,473.6953" style="stroke:#181818;stroke-width:1.0;"/><line style="stroke:#181818;stroke-width:1.0;stroke-dasharray:2.0,2.0;" x1="117.5" x2="550.5" y1="473.6953" y2="473.6953"/><text fill="#000000" font-family="sans-serif" font-size="13" font-weight="bold" lengthAdjust="spacing" textLength="7" x="129.5" y="468.4326">7</text><text fill="#000000" font-family="sans-serif" font-size="13" lengthAdjust="spacing" textLength="404" x="140.5" y="468.4326">show an alert saying that the vehicle has been successfully registered</text><!--SRC=[XLJ1Rjim3BtxAuYS6i3fxZqCw9fbXo4Oi0pTfHT6PcmYikIAT0B__MWxCTgawNH8P8jyVE-HikmvD9YmXZg6wAeKQm9DBMKodJJezbZIHZjFaCWfXjA_3P0AYtZaKC8ElL2MAQk5RZfHgc53hoq5Hx1aBFlmkyrcEOS5F7gb553vGF0hM1gs6aDRRodPtcbCC7kcYfrXOIZW-slBJKr1uIMiF9726eCHIpD0WUVLEZCwoeuRj9ZPM7uu6xS3A1zGQGZECh1bErXyFNDziEYzW4RJMRAzIe0Gw0Y7aSUGCg6SOU6qJY0Bm-jX7mp4f8lAEHqAL8GxlgTx-9PCKmxhM93FuK_NaFrYeln7YYBmbxYiD3UfJsrAlUYVTGw_pwoMLZ-7HsUM22l7CBvv2UO91wM0vlYNfuhSlcrWbSOUT5Ox693CyubIuornFcWew4DfbnRjs7i10zAAx85y8N1ahORdlX8dAW1L4szR9Rbj6de5wIUEmm4z5nEfANdoriVOzAtqqSRC_ljQKnI8dZWDC5FIQLqAE2OsMWE4nRS4SNU1XwMvU0a3dpR_SbqDmq0Dfy8tbRvTrnqvdr0OPP9TEFFHmmq39RlbWejXnwcMKzlwmKeuZ9BPSJtr_pNWIh1KyMWNrzXHiZvZrtyXj49zPq1bpTmI1P3MEHBPjTvtq_MZzytys8_UYty0]--></g></svg>