<?xml version="1.0" encoding="UTF-8" standalone="no"?><svg xmlns="http://www.w3.org/2000/svg" xmlns:xlink="http://www.w3.org/1999/xlink" contentStyleType="text/css" height="402px" preserveAspectRatio="none" style="width:586px;height:402px;background:#FFFFFF;" version="1.1" viewBox="0 0 586 402" width="586px" zoomAndPan="magnify"><defs/><g><!--class ApplicationSession--><g id="elem_ApplicationSession"><rect codeLine="3" fill="#F1F1F1" height="107.7199" id="ApplicationSession" rx="2.5" ry="2.5" style="stroke:#181818;stroke-width:0.5;" width="209" x="7" y="287.96"/><ellipse cx="23" cy="306.58" fill="#ADD1B2" rx="12" ry="12" style="stroke:#181818;stroke-width:1.0;"/><path d="M22.5156,313.7831 Q20.4531,313.7831 19.125,312.9081 Q17.7969,312.0331 17.1406,310.455 Q16.5,308.8612 16.5,306.7362 Q16.5,304.3612 17.2656,302.6581 Q18.0469,300.9394 19.5469,300.0175 Q21.0625,299.0956 23.2656,299.0956 Q24.2969,299.0956 25.0781,299.3144 Q25.875,299.5175 26.7031,299.9237 L25.7344,302.2987 Q25,301.9237 24.3594,301.7831 Q23.7344,301.6425 23.1563,301.6425 Q21.7813,301.6425 20.9531,302.2675 Q20.1406,302.8769 19.7813,304.0019 Q19.4375,305.1269 19.4375,306.6269 Q19.4375,308.9862 20.2813,310.1112 Q21.125,311.2362 23,311.2362 Q23.7031,311.2362 24.4219,311.0644 Q25.1563,310.8769 26.1406,310.4394 L26.1406,313.0331 Q25.2813,313.4237 24.3438,313.5956 Q23.4219,313.7831 22.5156,313.7831 Z " fill="#000000"/><text fill="#000000" font-family="sans-serif" font-size="20" lengthAdjust="spacing" textLength="175" x="38" y="314.34">ApplicationSession</text><line style="stroke:#181818;stroke-width:0.5;" x1="8" x2="215" y1="325.2" y2="325.2"/><line style="stroke:#181818;stroke-width:0.5;" x1="8" x2="215" y1="333.2" y2="333.2"/><text fill="#000000" font-family="sans-serif" font-size="20" lengthAdjust="spacing" textLength="188" x="13" y="358.58">+static getInstance()</text><text fill="#000000" font-family="sans-serif" font-size="20" lengthAdjust="spacing" textLength="195" x="13" y="385.8199">+getCurrentSession()</text></g><!--class UserSession--><g id="elem_UserSession"><rect codeLine="9" fill="#F1F1F1" height="80.4799" id="UserSession" rx="2.5" ry="2.5" style="stroke:#181818;stroke-width:0.5;" width="328" x="251.5" y="301.58"/><ellipse cx="353.5" cy="320.2" fill="#ADD1B2" rx="12" ry="12" style="stroke:#181818;stroke-width:1.0;"/><path d="M353.0156,327.4031 Q350.9531,327.4031 349.625,326.5281 Q348.2969,325.6531 347.6406,324.075 Q347,322.4812 347,320.3562 Q347,317.9812 347.7656,316.2781 Q348.5469,314.5594 350.0469,313.6375 Q351.5625,312.7156 353.7656,312.7156 Q354.7969,312.7156 355.5781,312.9344 Q356.375,313.1375 357.2031,313.5437 L356.2344,315.9187 Q355.5,315.5437 354.8594,315.4031 Q354.2344,315.2625 353.6563,315.2625 Q352.2813,315.2625 351.4531,315.8875 Q350.6406,316.4969 350.2813,317.6219 Q349.9375,318.7469 349.9375,320.2469 Q349.9375,322.6062 350.7813,323.7312 Q351.625,324.8562 353.5,324.8562 Q354.2031,324.8562 354.9219,324.6844 Q355.6563,324.4969 356.6406,324.0594 L356.6406,326.6531 Q355.7813,327.0437 354.8438,327.2156 Q353.9219,327.4031 353.0156,327.4031 Z " fill="#000000"/><text fill="#000000" font-family="sans-serif" font-size="20" lengthAdjust="spacing" textLength="115" x="375.5" y="327.96">UserSession</text><line style="stroke:#181818;stroke-width:0.5;" x1="252.5" x2="578.5" y1="338.82" y2="338.82"/><line style="stroke:#181818;stroke-width:0.5;" x1="252.5" x2="578.5" y1="346.82" y2="346.82"/><text fill="#000000" font-family="sans-serif" font-size="20" lengthAdjust="spacing" textLength="316" x="257.5" y="372.2">+isLoggedInWithRole(USER_ROLE)</text></g><!--class {NameOfUC}Controller--><g id="elem_{NameOfUC}Controller"><rect codeLine="14" fill="#F1F1F1" height="107.7199" id="{NameOfUC}Controller" rx="2.5" ry="2.5" style="stroke:#181818;stroke-width:0.5;" width="251" x="138" y="120.24"/><ellipse cx="154.45" cy="138.86" fill="#ADD1B2" rx="12" ry="12" style="stroke:#181818;stroke-width:1.0;"/><path d="M153.9656,146.0631 Q151.9031,146.0631 150.575,145.1881 Q149.2469,144.3131 148.5906,142.735 Q147.95,141.1412 147.95,139.0162 Q147.95,136.6412 148.7156,134.9381 Q149.4969,133.2194 150.9969,132.2975 Q152.5125,131.3756 154.7156,131.3756 Q155.7469,131.3756 156.5281,131.5944 Q157.325,131.7975 158.1531,132.2037 L157.1844,134.5787 Q156.45,134.2037 155.8094,134.0631 Q155.1844,133.9225 154.6063,133.9225 Q153.2313,133.9225 152.4031,134.5475 Q151.5906,135.1569 151.2313,136.2819 Q150.8875,137.4069 150.8875,138.9069 Q150.8875,141.2662 151.7313,142.3912 Q152.575,143.5162 154.45,143.5162 Q155.1531,143.5162 155.8719,143.3444 Q156.6063,143.1569 157.5906,142.7194 L157.5906,145.3131 Q156.7313,145.7037 155.7938,145.8756 Q154.8719,146.0631 153.9656,146.0631 Z " fill="#000000"/><text fill="#000000" font-family="sans-serif" font-size="20" lengthAdjust="spacing" textLength="216" x="169.55" y="146.62">{NameOfUC}Controller</text><line style="stroke:#181818;stroke-width:0.5;" x1="139" x2="388" y1="157.48" y2="157.48"/><line style="stroke:#181818;stroke-width:0.5;" x1="139" x2="388" y1="165.48" y2="165.48"/><text fill="#000000" font-family="sans-serif" font-size="20" lengthAdjust="spacing" textLength="239" x="144" y="190.86">+{NameOfUC}Controller()</text><text fill="#000000" font-family="sans-serif" font-size="20" lengthAdjust="spacing" textLength="123" x="144" y="218.0999">+methodX(...)</text></g><!--class {NameOfUC}UI--><g id="elem_{NameOfUC}UI"><rect codeLine="19" fill="#F1F1F1" height="53.24" id="{NameOfUC}UI" rx="2.5" ry="2.5" style="stroke:#181818;stroke-width:0.5;" width="179" x="174" y="7"/><ellipse cx="190" cy="25.62" fill="#ADD1B2" rx="12" ry="12" style="stroke:#181818;stroke-width:1.0;"/><path d="M189.5156,32.8231 Q187.4531,32.8231 186.125,31.9481 Q184.7969,31.0731 184.1406,29.495 Q183.5,27.9012 183.5,25.7762 Q183.5,23.4012 184.2656,21.6981 Q185.0469,19.9794 186.5469,19.0575 Q188.0625,18.1356 190.2656,18.1356 Q191.2969,18.1356 192.0781,18.3544 Q192.875,18.5575 193.7031,18.9637 L192.7344,21.3387 Q192,20.9637 191.3594,20.8231 Q190.7344,20.6825 190.1563,20.6825 Q188.7813,20.6825 187.9531,21.3075 Q187.1406,21.9169 186.7813,23.0419 Q186.4375,24.1669 186.4375,25.6669 Q186.4375,28.0262 187.2813,29.1512 Q188.125,30.2762 190,30.2762 Q190.7031,30.2762 191.4219,30.1044 Q192.1563,29.9169 193.1406,29.4794 L193.1406,32.0731 Q192.2813,32.4637 191.3438,32.6356 Q190.4219,32.8231 189.5156,32.8231 Z " fill="#000000"/><text fill="#000000" font-family="sans-serif" font-size="20" lengthAdjust="spacing" textLength="145" x="205" y="33.38">{NameOfUC}UI</text><line style="stroke:#181818;stroke-width:0.5;" x1="175" x2="352" y1="44.24" y2="44.24"/><line style="stroke:#181818;stroke-width:0.5;" x1="175" x2="352" y1="52.24" y2="52.24"/></g><!--link {NameOfUC}UI to {NameOfUC}Controller--><g id="link_{NameOfUC}UI_{NameOfUC}Controller"><path codeLine="22" d="M263.5,60.67 C263.5,75.66 263.5,95.15 263.5,113.69 " fill="none" id="{NameOfUC}UI-to-{NameOfUC}Controller" style="stroke:#181818;stroke-width:1.0;stroke-dasharray:7.0,7.0;"/><polygon fill="#181818" points="263.5,118.41,267.5,109.41,263.5,113.41,259.5,109.41,263.5,118.41" style="stroke:#181818;stroke-width:1.0;"/></g><!--link {NameOfUC}Controller to ApplicationSession--><g id="link_{NameOfUC}Controller_ApplicationSession"><path codeLine="23" d="M214.57,228.45 C198.57,245.89 180.73,265.35 164.44,283.1 " fill="none" id="{NameOfUC}Controller-to-ApplicationSession" style="stroke:#181818;stroke-width:1.0;stroke-dasharray:7.0,7.0;"/><polygon fill="#181818" points="161.36,286.46,170.3943,282.538,164.7425,282.7778,164.5027,277.126,161.36,286.46" style="stroke:#181818;stroke-width:1.0;"/></g><!--link {NameOfUC}Controller to UserSession--><g id="link_{NameOfUC}Controller_UserSession"><path codeLine="24" d="M312.43,228.45 C332.6,250.44 355.7,275.62 374.91,296.57 " fill="none" id="{NameOfUC}Controller-to-UserSession" style="stroke:#181818;stroke-width:1.0;stroke-dasharray:7.0,7.0;"/><polygon fill="#181818" points="378.17,300.13,375.0289,290.7955,374.7881,296.4472,369.1364,296.2065,378.17,300.13" style="stroke:#181818;stroke-width:1.0;"/></g><!--SRC=[VP1DQiCm48NtEiMGbKj1X1wW44mAXj20WsbtHP4dZeWi6Sruqv2xT-GII8hJbSHxRxxvePCBWqcczz6Ui8KM3sRq_1O3xzmtmijIqJK2rXkY5NDo-v6niZ5CcQLIamEhOV3E6dPY894ywgm0deb5iz0XLq7-mMBnb7KHoZ4bb5w_SP4lLrX3cEueZZQnwx2jmeVZOnqz5irkNN_LsytwfcvnVZSzRWzDUIbbYnIznxI0Z108pBdJDDdiaO-n_IoqrlF4fieaSVveMhy-QAmUp9ChPkxrJ_hs83y0]--></g></svg>