<?xml version="1.0" encoding="UTF-8" standalone="no"?><svg xmlns="http://www.w3.org/2000/svg" xmlns:xlink="http://www.w3.org/1999/xlink" contentStyleType="text/css" height="1097px" preserveAspectRatio="none" style="width:1349px;height:1097px;background:#FFFFFF;" version="1.1" viewBox="0 0 1349 1097" width="1349px" zoomAndPan="magnify"><defs/><g><rect fill="#FFFFFF" height="893.7995" style="stroke:#181818;stroke-width:1.0;" width="10" x="40" y="102.24"/><rect fill="#FFFFFF" height="373.9198" style="stroke:#181818;stroke-width:1.0;" width="10" x="241" y="135.4799"/><rect fill="#FFFFFF" height="42.24" style="stroke:#181818;stroke-width:1.0;" width="10" x="425" y="186.7199"/><rect fill="#FFFFFF" height="71.24" style="stroke:#181818;stroke-width:1.0;" width="10" x="425" y="479.3997"/><rect fill="#FFFFFF" height="302.9198" style="stroke:#181818;stroke-width:1.0;" width="10" x="425" y="653.1197"/><rect fill="#FFFFFF" height="199.1999" style="stroke:#181818;stroke-width:1.0;" width="10" x="644.5" y="238.9599"/><rect fill="#FFFFFF" height="220.4398" style="stroke:#181818;stroke-width:1.0;" width="10" x="644.5" y="694.3596"/><rect fill="#FFFFFF" height="57.86" style="stroke:#181818;stroke-width:1.0;" width="10" x="866.5" y="297.8199"/><rect fill="#FFFFFF" height="137.9599" style="stroke:#181818;stroke-width:1.0;" width="10" x="866.5" y="735.5996"/><rect fill="#FFFFFF" height="41.24" style="stroke:#181818;stroke-width:1.0;" width="10" x="1068" y="396.9198"/><rect fill="none" height="398.3997" style="stroke:#000000;stroke-width:1.5;" width="1333" x="10" y="590.6397"/><line style="stroke:#181818;stroke-width:0.5;stroke-dasharray:5.0,5.0;" x1="45" x2="45" y1="92.24" y2="1006.0395"/><line style="stroke:#181818;stroke-width:0.5;stroke-dasharray:5.0,5.0;" x1="246" x2="246" y1="92.24" y2="1006.0395"/><line style="stroke:#181818;stroke-width:0.5;stroke-dasharray:5.0,5.0;" x1="430" x2="430" y1="179.5999" y2="1006.0395"/><line style="stroke:#181818;stroke-width:0.5;stroke-dasharray:5.0,5.0;" x1="649" x2="649" y1="231.8399" y2="1006.0395"/><line style="stroke:#181818;stroke-width:0.5;stroke-dasharray:5.0,5.0;" x1="871" x2="871" y1="92.24" y2="1006.0395"/><line style="stroke:#181818;stroke-width:0.5;stroke-dasharray:5.0,5.0;" x1="1073" x2="1073" y1="92.24" y2="1006.0395"/><line style="stroke:#181818;stroke-width:0.5;stroke-dasharray:5.0,5.0;" x1="1256" x2="1256" y1="92.24" y2="1006.0395"/><text fill="#000000" font-family="sans-serif" font-size="20" lengthAdjust="spacing" textLength="44" x="20" y="86.38">User</text><ellipse cx="45" cy="13.5" fill="#E3E3E3" rx="8" ry="8" style="stroke:#181818;stroke-width:0.5;"/><path d="M45,21.5 L45,48.5 M32,29.5 L58,29.5 M45,48.5 L32,63.5 M45,48.5 L58,63.5 " fill="none" style="stroke:#181818;stroke-width:0.5;"/><text fill="#000000" font-family="sans-serif" font-size="20" lengthAdjust="spacing" textLength="44" x="20" y="1026.4195">User</text><ellipse cx="45" cy="1040.7794" fill="#E3E3E3" rx="8" ry="8" style="stroke:#181818;stroke-width:0.5;"/><path d="M45,1048.7794 L45,1075.7794 M32,1056.7794 L58,1056.7794 M45,1075.7794 L32,1090.7794 M45,1075.7794 L58,1090.7794 " fill="none" style="stroke:#181818;stroke-width:0.5;"/><rect fill="#E3E3E3" height="41.24" rx="2.5" ry="2.5" style="stroke:#181818;stroke-width:0.5;" width="122" x="185" y="50"/><text fill="#000000" font-family="sans-serif" font-size="20" lengthAdjust="spacing" textLength="108" x="192" y="78.38">:{MenuX}UI</text><rect fill="#E3E3E3" height="41.24" rx="2.5" ry="2.5" style="stroke:#181818;stroke-width:0.5;" width="122" x="185" y="1005.0395"/><text fill="#000000" font-family="sans-serif" font-size="20" lengthAdjust="spacing" textLength="108" x="192" y="1033.4195">:{MenuX}UI</text><rect fill="#E3E3E3" height="41.24" rx="2.5" ry="2.5" style="stroke:#181818;stroke-width:0.5;" width="164" x="348" y="1005.0395"/><text fill="#000000" font-family="sans-serif" font-size="20" lengthAdjust="spacing" textLength="150" x="355" y="1033.4195">:{NameOfUC}UI</text><rect fill="#E3E3E3" height="41.24" rx="2.5" ry="2.5" style="stroke:#181818;stroke-width:0.5;" width="235" x="532" y="1005.0395"/><text fill="#000000" font-family="sans-serif" font-size="20" lengthAdjust="spacing" textLength="221" x="539" y="1033.4195">:{NameOfUC}Controller</text><rect fill="#E3E3E3" height="41.24" rx="2.5" ry="2.5" style="stroke:#181818;stroke-width:0.5;" width="189" x="777" y="50"/><text fill="#000000" font-family="sans-serif" font-size="20" lengthAdjust="spacing" textLength="175" x="784" y="78.38">ApplicationSession</text><rect fill="#E3E3E3" height="41.24" rx="2.5" ry="2.5" style="stroke:#181818;stroke-width:0.5;" width="189" x="777" y="1005.0395"/><text fill="#000000" font-family="sans-serif" font-size="20" lengthAdjust="spacing" textLength="175" x="784" y="1033.4195">ApplicationSession</text><rect fill="#E3E3E3" height="68.4799" rx="2.5" ry="2.5" style="stroke:#181818;stroke-width:0.5;" width="194" x="976" y="22.76"/><text fill="#000000" font-family="sans-serif" font-size="20" lengthAdjust="spacing" textLength="106" x="1020" y="51.14">appSession</text><text fill="#000000" font-family="sans-serif" font-size="20" lengthAdjust="spacing" textLength="180" x="983" y="78.38">:ApplicationSession</text><rect fill="#E3E3E3" height="68.4799" rx="2.5" ry="2.5" style="stroke:#181818;stroke-width:0.5;" width="194" x="976" y="1005.0395"/><text fill="#000000" font-family="sans-serif" font-size="20" lengthAdjust="spacing" textLength="106" x="1020" y="1033.4195">appSession</text><text fill="#000000" font-family="sans-serif" font-size="20" lengthAdjust="spacing" textLength="180" x="983" y="1060.6594">:ApplicationSession</text><rect fill="#E3E3E3" height="68.4799" rx="2.5" ry="2.5" style="stroke:#181818;stroke-width:0.5;" width="153" x="1180" y="22.76"/><text fill="#000000" font-family="sans-serif" font-size="20" lengthAdjust="spacing" textLength="139" x="1187" y="51.14">currentSession</text><text fill="#000000" font-family="sans-serif" font-size="20" lengthAdjust="spacing" textLength="120" x="1196.5" y="78.38">:UserSession</text><rect fill="#E3E3E3" height="68.4799" rx="2.5" ry="2.5" style="stroke:#181818;stroke-width:0.5;" width="153" x="1180" y="1005.0395"/><text fill="#000000" font-family="sans-serif" font-size="20" lengthAdjust="spacing" textLength="139" x="1187" y="1033.4195">currentSession</text><text fill="#000000" font-family="sans-serif" font-size="20" lengthAdjust="spacing" textLength="120" x="1196.5" y="1060.6594">:UserSession</text><rect fill="#FFFFFF" height="893.7995" style="stroke:#181818;stroke-width:1.0;" width="10" x="40" y="102.24"/><rect fill="#FFFFFF" height="373.9198" style="stroke:#181818;stroke-width:1.0;" width="10" x="241" y="135.4799"/><rect fill="#FFFFFF" height="42.24" style="stroke:#181818;stroke-width:1.0;" width="10" x="425" y="186.7199"/><rect fill="#FFFFFF" height="71.24" style="stroke:#181818;stroke-width:1.0;" width="10" x="425" y="479.3997"/><rect fill="#FFFFFF" height="302.9198" style="stroke:#181818;stroke-width:1.0;" width="10" x="425" y="653.1197"/><rect fill="#FFFFFF" height="199.1999" style="stroke:#181818;stroke-width:1.0;" width="10" x="644.5" y="238.9599"/><rect fill="#FFFFFF" height="220.4398" style="stroke:#181818;stroke-width:1.0;" width="10" x="644.5" y="694.3596"/><rect fill="#FFFFFF" height="57.86" style="stroke:#181818;stroke-width:1.0;" width="10" x="866.5" y="297.8199"/><rect fill="#FFFFFF" height="137.9599" style="stroke:#181818;stroke-width:1.0;" width="10" x="866.5" y="735.5996"/><rect fill="#FFFFFF" height="41.24" style="stroke:#181818;stroke-width:1.0;" width="10" x="1068" y="396.9198"/><polygon fill="#181818" points="229,131.4799,239,135.4799,229,139.4799,233,135.4799" style="stroke:#181818;stroke-width:1.0;"/><line style="stroke:#181818;stroke-width:1.0;" x1="50" x2="235" y1="135.4799" y2="135.4799"/><text fill="#000000" font-family="sans-serif" font-size="20" font-weight="bold" lengthAdjust="spacing" textLength="11" x="57" y="127.62">1</text><text fill="#000000" font-family="sans-serif" font-size="20" lengthAdjust="spacing" textLength="157" x="72" y="127.62">selects an option</text><polygon fill="#181818" points="336,172.7199,346,176.7199,336,180.7199,340,176.7199" style="stroke:#181818;stroke-width:1.0;"/><line style="stroke:#181818;stroke-width:1.0;stroke-dasharray:2.0,2.0;" x1="251" x2="342" y1="176.7199" y2="176.7199"/><text fill="#000000" font-family="sans-serif" font-size="20" font-weight="bold" lengthAdjust="spacing" textLength="11" x="258" y="168.8599">2</text><text fill="#000000" font-family="sans-serif" font-size="20" lengthAdjust="spacing" textLength="58" x="273" y="168.8599">create</text><rect fill="#E3E3E3" height="41.24" rx="2.5" ry="2.5" style="stroke:#181818;stroke-width:0.5;" width="164" x="348" y="143.4799"/><text fill="#000000" font-family="sans-serif" font-size="20" lengthAdjust="spacing" textLength="150" x="355" y="171.8599">:{NameOfUC}UI</text><polygon fill="#181818" points="520,224.9599,530,228.9599,520,232.9599,524,228.9599" style="stroke:#181818;stroke-width:1.0;"/><line style="stroke:#181818;stroke-width:1.0;stroke-dasharray:2.0,2.0;" x1="430" x2="526" y1="228.9599" y2="228.9599"/><text fill="#000000" font-family="sans-serif" font-size="20" font-weight="bold" lengthAdjust="spacing" textLength="11" x="437" y="221.0999">3</text><text fill="#000000" font-family="sans-serif" font-size="20" lengthAdjust="spacing" textLength="58" x="452" y="221.0999">create</text><rect fill="#E3E3E3" height="41.24" rx="2.5" ry="2.5" style="stroke:#181818;stroke-width:0.5;" width="235" x="532" y="195.7199"/><text fill="#000000" font-family="sans-serif" font-size="20" lengthAdjust="spacing" textLength="221" x="539" y="224.0999">:{NameOfUC}Controller</text><polygon fill="#181818" points="854.5,293.8199,864.5,297.8199,854.5,301.8199,858.5,297.8199" style="stroke:#181818;stroke-width:1.0;"/><line style="stroke:#181818;stroke-width:1.0;" x1="654.5" x2="860.5" y1="297.8199" y2="297.8199"/><text fill="#000000" font-family="sans-serif" font-size="20" font-weight="bold" lengthAdjust="spacing" textLength="11" x="661.5" y="289.9599">4</text><text fill="#000000" font-family="sans-serif" font-size="20" lengthAdjust="spacing" textLength="120" x="676.5" y="289.9599">getinstance()</text><path d="M881,252.9599 L881,316.9599 L1074,316.9599 L1074,262.9599 L1064,252.9599 L881,252.9599 " fill="#FAFAFA" style="stroke:#181818;stroke-width:0.5;"/><path d="M1064,252.9599 L1064,262.9599 L1074,262.9599 L1064,252.9599 " fill="#FAFAFA" style="stroke:#181818;stroke-width:0.5;"/><text fill="#000000" font-family="sans-serif" font-size="20" lengthAdjust="spacing" textLength="128" x="887" y="279.3399">static method</text><text fill="#000000" font-family="sans-serif" font-size="20" lengthAdjust="spacing" textLength="172" x="887" y="306.5799">(Singleton pattern)</text><polygon fill="#181818" points="665.5,351.6798,655.5,355.6798,665.5,359.6798,661.5,355.6798" style="stroke:#181818;stroke-width:1.0;"/><line style="stroke:#181818;stroke-width:1.0;stroke-dasharray:2.0,2.0;" x1="659.5" x2="870.5" y1="355.6798" y2="355.6798"/><text fill="#000000" font-family="sans-serif" font-size="20" font-weight="bold" lengthAdjust="spacing" textLength="11" x="671.5" y="347.8198">5</text><text fill="#000000" font-family="sans-serif" font-size="20" lengthAdjust="spacing" textLength="106" x="686.5" y="347.8198">appSession</text><polygon fill="#181818" points="1056,392.9198,1066,396.9198,1056,400.9198,1060,396.9198" style="stroke:#181818;stroke-width:1.0;"/><line style="stroke:#181818;stroke-width:1.0;" x1="654.5" x2="1062" y1="396.9198" y2="396.9198"/><text fill="#000000" font-family="sans-serif" font-size="20" font-weight="bold" lengthAdjust="spacing" textLength="11" x="661.5" y="389.0598">6</text><text fill="#000000" font-family="sans-serif" font-size="20" lengthAdjust="spacing" textLength="184" x="676.5" y="389.0598">getCurrentSession()</text><polygon fill="#181818" points="660.5,434.1598,650.5,438.1598,660.5,442.1598,656.5,438.1598" style="stroke:#181818;stroke-width:1.0;"/><line style="stroke:#181818;stroke-width:1.0;stroke-dasharray:2.0,2.0;" x1="654.5" x2="1072" y1="438.1598" y2="438.1598"/><text fill="#000000" font-family="sans-serif" font-size="20" font-weight="bold" lengthAdjust="spacing" textLength="11" x="666.5" y="430.2998">7</text><text fill="#000000" font-family="sans-serif" font-size="20" lengthAdjust="spacing" textLength="139" x="681.5" y="430.2998">currentSession</text><polygon fill="#181818" points="413,475.3997,423,479.3997,413,483.3997,417,479.3997" style="stroke:#181818;stroke-width:1.0;"/><line style="stroke:#181818;stroke-width:1.0;" x1="251" x2="419" y1="479.3997" y2="479.3997"/><text fill="#000000" font-family="sans-serif" font-size="20" font-weight="bold" lengthAdjust="spacing" textLength="11" x="258" y="471.5398">8</text><text fill="#000000" font-family="sans-serif" font-size="20" lengthAdjust="spacing" textLength="44" x="273" y="471.5398">run()</text><polygon fill="#181818" points="61,546.6397,51,550.6397,61,554.6397,57,550.6397" style="stroke:#181818;stroke-width:1.0;"/><line style="stroke:#181818;stroke-width:1.0;stroke-dasharray:2.0,2.0;" x1="55" x2="429" y1="550.6397" y2="550.6397"/><text fill="#000000" font-family="sans-serif" font-size="20" font-weight="bold" lengthAdjust="spacing" textLength="11" x="67" y="542.7797">9</text><text fill="#000000" font-family="sans-serif" font-size="20" lengthAdjust="spacing" textLength="186" x="82" y="542.7797">requests something</text><path d="M10,590.6397 L98,590.6397 L98,609.8797 L88,619.8797 L10,619.8797 L10,590.6397 " fill="#EEEEEE" style="stroke:#000000;stroke-width:1.5;"/><rect fill="none" height="398.3997" style="stroke:#000000;stroke-width:1.5;" width="1333" x="10" y="590.6397"/><text fill="#000000" font-family="sans-serif" font-size="20" font-weight="bold" lengthAdjust="spacing" textLength="43" x="25" y="613.0197">loop</text><polygon fill="#181818" points="413,649.1197,423,653.1197,413,657.1197,417,653.1197" style="stroke:#181818;stroke-width:1.0;"/><line style="stroke:#181818;stroke-width:1.0;" x1="50" x2="419" y1="653.1197" y2="653.1197"/><text fill="#000000" font-family="sans-serif" font-size="20" font-weight="bold" lengthAdjust="spacing" textLength="22" x="57" y="645.2597">10</text><text fill="#000000" font-family="sans-serif" font-size="20" lengthAdjust="spacing" textLength="150" x="83" y="645.2597">does something</text><polygon fill="#181818" points="632.5,690.3596,642.5,694.3596,632.5,698.3596,636.5,694.3596" style="stroke:#181818;stroke-width:1.0;"/><line style="stroke:#181818;stroke-width:1.0;" x1="435" x2="638.5" y1="694.3596" y2="694.3596"/><text fill="#000000" font-family="sans-serif" font-size="20" font-weight="bold" lengthAdjust="spacing" textLength="22" x="442" y="686.4997">11</text><text fill="#000000" font-family="sans-serif" font-size="20" lengthAdjust="spacing" textLength="112" x="468" y="686.4997">methodX(...)</text><polygon fill="#181818" points="854.5,731.5996,864.5,735.5996,854.5,739.5996,858.5,735.5996" style="stroke:#181818;stroke-width:1.0;"/><line style="stroke:#181818;stroke-width:1.0;" x1="654.5" x2="860.5" y1="735.5996" y2="735.5996"/><text fill="#000000" font-family="sans-serif" font-size="20" font-weight="bold" lengthAdjust="spacing" textLength="22" x="661.5" y="727.7396">12</text><text fill="#000000" font-family="sans-serif" font-size="20" lengthAdjust="spacing" textLength="111" x="687.5" y="727.7396">methodY(...)</text><rect fill="none" height="91.7199" style="stroke:#000000;stroke-width:1.5;" width="562" x="774" y="743.5996"/><path d="M774,743.5996 L848,743.5996 L848,762.5996 L838,772.5996 L774,772.5996 L774,743.5996 " fill="#EEEEEE" style="stroke:#000000;stroke-width:2.0;"/><text fill="#000000" font-family="sans-serif" font-size="20" font-weight="bold" lengthAdjust="spacing" textLength="29" x="787" y="766.9796">ref</text><text fill="#000000" font-family="sans-serif" font-size="20" lengthAdjust="spacing" textLength="5" x="1052.5" y="797.9796"> </text><text fill="#000000" font-family="sans-serif" font-size="20" lengthAdjust="spacing" textLength="5" x="1052.5" y="825.2196"> </text><polygon fill="#181818" points="665.5,869.5595,655.5,873.5595,665.5,877.5595,661.5,873.5595" style="stroke:#181818;stroke-width:1.0;"/><line style="stroke:#181818;stroke-width:1.0;stroke-dasharray:2.0,2.0;" x1="659.5" x2="870.5" y1="873.5595" y2="873.5595"/><text fill="#000000" font-family="sans-serif" font-size="20" font-weight="bold" lengthAdjust="spacing" textLength="22" x="671.5" y="865.6995">13</text><text fill="#000000" font-family="sans-serif" font-size="20" lengthAdjust="spacing" textLength="68" x="697.5" y="865.6995">answer</text><polygon fill="#181818" points="446,910.7995,436,914.7995,446,918.7995,442,914.7995" style="stroke:#181818;stroke-width:1.0;"/><line style="stroke:#181818;stroke-width:1.0;stroke-dasharray:2.0,2.0;" x1="440" x2="648.5" y1="914.7995" y2="914.7995"/><text fill="#000000" font-family="sans-serif" font-size="20" font-weight="bold" lengthAdjust="spacing" textLength="22" x="452" y="906.9395">14</text><text fill="#000000" font-family="sans-serif" font-size="20" lengthAdjust="spacing" textLength="68" x="478" y="906.9395">answer</text><polygon fill="#181818" points="61,952.0395,51,956.0395,61,960.0395,57,956.0395" style="stroke:#181818;stroke-width:1.0;"/><line style="stroke:#181818;stroke-width:1.0;stroke-dasharray:2.0,2.0;" x1="55" x2="429" y1="956.0395" y2="956.0395"/><text fill="#000000" font-family="sans-serif" font-size="20" font-weight="bold" lengthAdjust="spacing" textLength="22" x="67" y="948.1795">15</text><text fill="#000000" font-family="sans-serif" font-size="20" lengthAdjust="spacing" textLength="297" x="93" y="948.1795">answers/requests another thing</text><!--SRC=[bLNBRjim4BphAmXVuWQ9M_JeGm53S041iHDO5P02kJ3IsY8iaIf99Nsu_zubBScaBCKfBpQuiyFbx2obzenNLDAo4EaUCfB1bjQ5_YguZjbl89y_1Qg5a59maUPIb42qhC69L3JTqnt4-bS1H4AgATyLBa3bD1ElZE_8bXOAWe3MMl2wV0OP15Svou1iXT3FucT0KoqacIGAv8HGHP9ukGcGHREKLPHhCfd_MG6l7_ycaGMibkka3rZJ4kwtITXYad2zM2sJQ1GNuesbA8hcqF3Rvix7BgggO2dLJF0ObC8V2rmyFCJBE8xkrw6FfrNLu9xu_69ohx2qbXAm1Hs1KSFD39DDanaOmTWBrN1KAY2up3zo-yLAG-P4GO4zKOHo8YfJX0LrULP0qYoRSekvhMJNryYGIa1a1peTsUhQXUpnpQxbCL8ESMJm1aiNiermkSs6kPeZF7BlG3Ekq7OfJ3zuU2wGHR9Thhrjin2FafCIT2woi-WqPiR4Q5EqjzOWkKyCFBFatcPNj-kBFhDRUgiGtk7a6EAbE4Avh1TKYOwgX9wJUjeCy4PlL1kvrVeMlLnmDDHuszsUzKxEmrDaxTPyRfWUdtNok1NjM20f_AX1uJmeONgFRVPI3eV3PPCMGbGTgXqtf_1Cm13_y0tEY-raFfhpSJgRpKPwTpOXurDo9Fj-JlPkwvebOKl42qWNUECq-iPzd0OPpEWWos1iR3YuUiLlHH_zdjauwU6tQ81or9fZLZfog8-TfIW-2Jbgy_-sQeMnpWfSX7dM_m40]--></g></svg>