<?xml version="1.0" encoding="UTF-8" standalone="no"?><svg xmlns="http://www.w3.org/2000/svg" xmlns:xlink="http://www.w3.org/1999/xlink" contentStyleType="text/css" height="601px" preserveAspectRatio="none" style="width:602px;height:601px;background:#FFFFFF;" version="1.1" viewBox="0 0 602 601" width="602px" zoomAndPan="magnify"><defs/><g><text fill="#000000" font-family="sans-serif" font-size="14" font-weight="bold" lengthAdjust="spacing" textLength="224" x="190.75" y="29.9659">System Sequence Diagram (SSD)</text><rect fill="#FFFFFF" height="303.9198" style="stroke:#181818;stroke-width:1.0;" width="10" x="105.5" y="169.5479"/><rect fill="#FFFFFF" height="89.7199" style="stroke:#181818;stroke-width:1.0;" width="10" x="540.5" y="202.7878"/><rect fill="#FFFFFF" height="48.24" style="stroke:#181818;stroke-width:1.0;" width="10" x="540.5" y="333.7477"/><rect fill="#FFFFFF" height="41.24" style="stroke:#181818;stroke-width:1.0;" width="10" x="540.5" y="423.2277"/><rect fill="none" height="123.9599" style="stroke:#000000;stroke-width:1.5;" width="586.5" x="10" y="217.7878"/><line style="stroke:#181818;stroke-width:0.5;stroke-dasharray:5.0,5.0;" x1="110" x2="110" y1="159.5479" y2="482.4677"/><line style="stroke:#181818;stroke-width:0.5;stroke-dasharray:5.0,5.0;" x1="545.5" x2="545.5" y1="159.5479" y2="482.4677"/><text fill="#000000" font-family="sans-serif" font-size="20" lengthAdjust="spacing" textLength="170" x="20" y="126.4479">Human Resources</text><text fill="#000000" font-family="sans-serif" font-size="20" lengthAdjust="spacing" textLength="83" x="68.5" y="153.6879">Manager</text><ellipse cx="110.5" cy="53.5679" fill="#E3E3E3" rx="8" ry="8" style="stroke:#181818;stroke-width:0.5;"/><path d="M110.5,61.5679 L110.5,88.5679 M97.5,69.5679 L123.5,69.5679 M110.5,88.5679 L97.5,103.5679 M110.5,88.5679 L123.5,103.5679 " fill="none" style="stroke:#181818;stroke-width:0.5;"/><text fill="#000000" font-family="sans-serif" font-size="20" lengthAdjust="spacing" textLength="170" x="20" y="502.8476">Human Resources</text><text fill="#000000" font-family="sans-serif" font-size="20" lengthAdjust="spacing" textLength="83" x="68.5" y="530.0876">Manager</text><ellipse cx="110.5" cy="544.4476" fill="#E3E3E3" rx="8" ry="8" style="stroke:#181818;stroke-width:0.5;"/><path d="M110.5,552.4476 L110.5,579.4476 M97.5,560.4476 L123.5,560.4476 M110.5,579.4476 L97.5,594.4476 M110.5,579.4476 L123.5,594.4476 " fill="none" style="stroke:#181818;stroke-width:0.5;"/><rect fill="#E3E3E3" height="41.24" rx="2.5" ry="2.5" style="stroke:#181818;stroke-width:0.5;" width="82" x="504.5" y="117.3079"/><text fill="#000000" font-family="sans-serif" font-size="20" lengthAdjust="spacing" textLength="68" x="511.5" y="145.6879">System</text><rect fill="#E3E3E3" height="41.24" rx="2.5" ry="2.5" style="stroke:#181818;stroke-width:0.5;" width="82" x="504.5" y="481.4677"/><text fill="#000000" font-family="sans-serif" font-size="20" lengthAdjust="spacing" textLength="68" x="511.5" y="509.8476">System</text><rect fill="#FFFFFF" height="303.9198" style="stroke:#181818;stroke-width:1.0;" width="10" x="105.5" y="169.5479"/><rect fill="#FFFFFF" height="89.7199" style="stroke:#181818;stroke-width:1.0;" width="10" x="540.5" y="202.7878"/><rect fill="#FFFFFF" height="48.24" style="stroke:#181818;stroke-width:1.0;" width="10" x="540.5" y="333.7477"/><rect fill="#FFFFFF" height="41.24" style="stroke:#181818;stroke-width:1.0;" width="10" x="540.5" y="423.2277"/><polygon fill="#181818" points="528.5,198.7878,538.5,202.7878,528.5,206.7878,532.5,202.7878" style="stroke:#181818;stroke-width:1.0;"/><line style="stroke:#181818;stroke-width:1.0;" x1="115.5" x2="534.5" y1="202.7878" y2="202.7878"/><text fill="#000000" font-family="sans-serif" font-size="20" font-weight="bold" lengthAdjust="spacing" textLength="11" x="122.5" y="194.9278">1</text><text fill="#000000" font-family="sans-serif" font-size="20" lengthAdjust="spacing" textLength="218" x="137.5" y="194.9278">asks to regist a new job</text><path d="M10,217.7878 L98,217.7878 L98,237.0278 L88,247.0278 L10,247.0278 L10,217.7878 " fill="#EEEEEE" style="stroke:#000000;stroke-width:1.5;"/><rect fill="none" height="123.9599" style="stroke:#000000;stroke-width:1.5;" width="586.5" x="10" y="217.7878"/><text fill="#000000" font-family="sans-serif" font-size="20" font-weight="bold" lengthAdjust="spacing" textLength="43" x="25" y="240.1678">loop</text><text fill="#000000" font-family="sans-serif" font-size="20" font-weight="bold" lengthAdjust="spacing" textLength="164" x="113" y="241.1678">[while intended]</text><polygon fill="#181818" points="126.5,288.5078,116.5,292.5078,126.5,296.5078,122.5,292.5078" style="stroke:#181818;stroke-width:1.0;"/><line style="stroke:#181818;stroke-width:1.0;stroke-dasharray:2.0,2.0;" x1="120.5" x2="544.5" y1="292.5078" y2="292.5078"/><text fill="#000000" font-family="sans-serif" font-size="20" font-weight="bold" lengthAdjust="spacing" textLength="11" x="132.5" y="284.6478">2</text><text fill="#000000" font-family="sans-serif" font-size="20" lengthAdjust="spacing" textLength="208" x="147.5" y="284.6478">requests the job name</text><polygon fill="#181818" points="528.5,329.7477,538.5,333.7477,528.5,337.7477,532.5,333.7477" style="stroke:#181818;stroke-width:1.0;"/><line style="stroke:#181818;stroke-width:1.0;" x1="115.5" x2="534.5" y1="333.7477" y2="333.7477"/><text fill="#000000" font-family="sans-serif" font-size="20" font-weight="bold" lengthAdjust="spacing" textLength="11" x="122.5" y="325.8877">3</text><text fill="#000000" font-family="sans-serif" font-size="20" lengthAdjust="spacing" textLength="153" x="137.5" y="325.8877">type the new job</text><polygon fill="#181818" points="126.5,377.9877,116.5,381.9877,126.5,385.9877,122.5,381.9877" style="stroke:#181818;stroke-width:1.0;"/><line style="stroke:#181818;stroke-width:1.0;stroke-dasharray:2.0,2.0;" x1="120.5" x2="544.5" y1="381.9877" y2="381.9877"/><text fill="#000000" font-family="sans-serif" font-size="20" font-weight="bold" lengthAdjust="spacing" textLength="11" x="132.5" y="374.1277">4</text><text fill="#000000" font-family="sans-serif" font-size="20" lengthAdjust="spacing" textLength="386" x="147.5" y="374.1277">list all registered jobs and asks to confirm</text><polygon fill="#181818" points="528.5,419.2277,538.5,423.2277,528.5,427.2277,532.5,423.2277" style="stroke:#181818;stroke-width:1.0;"/><line style="stroke:#181818;stroke-width:1.0;" x1="115.5" x2="534.5" y1="423.2277" y2="423.2277"/><text fill="#000000" font-family="sans-serif" font-size="20" font-weight="bold" lengthAdjust="spacing" textLength="11" x="122.5" y="415.3677">5</text><text fill="#000000" font-family="sans-serif" font-size="20" lengthAdjust="spacing" textLength="153" x="137.5" y="415.3677">confirms all jobs</text><polygon fill="#181818" points="126.5,460.4677,116.5,464.4677,126.5,468.4677,122.5,464.4677" style="stroke:#181818;stroke-width:1.0;"/><line style="stroke:#181818;stroke-width:1.0;stroke-dasharray:2.0,2.0;" x1="120.5" x2="544.5" y1="464.4677" y2="464.4677"/><text fill="#000000" font-family="sans-serif" font-size="20" font-weight="bold" lengthAdjust="spacing" textLength="11" x="132.5" y="456.6077">6</text><text fill="#000000" font-family="sans-serif" font-size="20" lengthAdjust="spacing" textLength="248" x="147.5" y="456.6077">displays operation success</text><!--SRC=[TP8nRy9038Nt_0gBgHsGgeuCdL35maBMBkPYacikllJiAqf_VPr0A2fma-Lx_jxp9T9wxZ5X5w9hgOAA3fY3laVMqlyGlBuKCakWYnnTas97e2dJrKsFhiMQIXq2GIAdo7Mu5aY3LJnwhk60GQWerAj9oq6KEYZfAnCxWhN7UfG_bUNwkIWmQ-JSxIbPxJGcM6noXmmxafYJ8u4FXYsoUQS5eC1cjotCKRtpFRB2ukGmtPtAYUI_KMaI5s372bY-pMbM9cu5DDecjHS51AOZVCRz9BwCpxon6MBiuTXusycp4bTKJVtvdD5BSndDLeQsbKNDfg4H3OmTNKOgkkjoBwiEFKsGwuptSeuz2_P7kiaKfcL3EEzDoNu88meWLvStSP4FFfrm3sB-ZtWUaOaz0X-_uqscoaiVS128FILK7naaE_loyY31Bm00]--></g></svg>