<?xml version="1.0" encoding="us-ascii" standalone="no"?><svg xmlns="http://www.w3.org/2000/svg" xmlns:xlink="http://www.w3.org/1999/xlink" contentStyleType="text/css" height="627px" preserveAspectRatio="none" style="width:722px;height:627px;background:#FFFFFF;" version="1.1" viewBox="0 0 722 627" width="722px" zoomAndPan="magnify"><defs/><g><text fill="#000000" font-family="sans-serif" font-size="14" font-weight="bold" lengthAdjust="spacing" textLength="228" x="248.5" y="30.1074">System Sequence Diagram (SSD)</text><rect fill="#FFFFFF" height="364.4922" style="stroke:#181818;stroke-width:1.0;" width="10" x="76" y="151.8633"/><rect fill="#FFFFFF" height="57.582" style="stroke:#181818;stroke-width:1.0;" width="10" x="669" y="175.1543"/><rect fill="#FFFFFF" height="31.291" style="stroke:#181818;stroke-width:1.0;" width="10" x="669" y="264.0273"/><rect fill="#FFFFFF" height="48.582" style="stroke:#181818;stroke-width:1.0;" width="10" x="669" y="326.6094"/><rect fill="#FFFFFF" height="38.291" style="stroke:#181818;stroke-width:1.0;" width="10" x="669" y="406.4824"/><rect fill="#FFFFFF" height="31.291" style="stroke:#181818;stroke-width:1.0;" width="10" x="669" y="476.0645"/><rect fill="none" height="224.3281" style="stroke:#000000;stroke-width:1.5;" width="706" x="10" y="190.1543"/><line style="stroke:#181818;stroke-width:0.5;stroke-dasharray:5.0,5.0;" x1="81" x2="81" y1="141.8633" y2="525.3555"/><line style="stroke:#181818;stroke-width:0.5;stroke-dasharray:5.0,5.0;" x1="674" x2="674" y1="141.8633" y2="525.3555"/><text fill="#000000" font-family="sans-serif" font-size="14" lengthAdjust="spacing" textLength="116" x="20" y="119.7285">Human Resources</text><text fill="#000000" font-family="sans-serif" font-size="14" lengthAdjust="spacing" textLength="56" x="50" y="138.3496">Manager</text><ellipse cx="81" cy="53.1211" fill="#E3E3E3" rx="8" ry="8" style="stroke:#181818;stroke-width:0.5;"/><path d="M81,61.1211 L81,88.1211 M68,69.1211 L94,69.1211 M81,88.1211 L68,103.1211 M81,88.1211 L94,103.1211 " fill="none" style="stroke:#181818;stroke-width:0.5;"/><text fill="#000000" font-family="sans-serif" font-size="14" lengthAdjust="spacing" textLength="116" x="20" y="539.4629">Human Resources</text><text fill="#000000" font-family="sans-serif" font-size="14" lengthAdjust="spacing" textLength="56" x="50" y="558.084">Manager</text><ellipse cx="81" cy="570.0977" fill="#E3E3E3" rx="8" ry="8" style="stroke:#181818;stroke-width:0.5;"/><path d="M81,578.0977 L81,605.0977 M68,586.0977 L94,586.0977 M81,605.0977 L68,620.0977 M81,605.0977 L94,620.0977 " fill="none" style="stroke:#181818;stroke-width:0.5;"/><rect fill="#E3E3E3" height="32.6211" rx="2.5" ry="2.5" style="stroke:#181818;stroke-width:0.5;" width="64" x="642" y="108.2422"/><text fill="#000000" font-family="sans-serif" font-size="14" lengthAdjust="spacing" textLength="50" x="649" y="130.3496">:System</text><rect fill="#E3E3E3" height="32.6211" rx="2.5" ry="2.5" style="stroke:#181818;stroke-width:0.5;" width="64" x="642" y="524.3555"/><text fill="#000000" font-family="sans-serif" font-size="14" lengthAdjust="spacing" textLength="50" x="649" y="546.4629">:System</text><rect fill="#FFFFFF" height="364.4922" style="stroke:#181818;stroke-width:1.0;" width="10" x="76" y="151.8633"/><rect fill="#FFFFFF" height="57.582" style="stroke:#181818;stroke-width:1.0;" width="10" x="669" y="175.1543"/><rect fill="#FFFFFF" height="31.291" style="stroke:#181818;stroke-width:1.0;" width="10" x="669" y="264.0273"/><rect fill="#FFFFFF" height="48.582" style="stroke:#181818;stroke-width:1.0;" width="10" x="669" y="326.6094"/><rect fill="#FFFFFF" height="38.291" style="stroke:#181818;stroke-width:1.0;" width="10" x="669" y="406.4824"/><rect fill="#FFFFFF" height="31.291" style="stroke:#181818;stroke-width:1.0;" width="10" x="669" y="476.0645"/><polygon fill="#181818" points="657,171.1543,667,175.1543,657,179.1543,661,175.1543" style="stroke:#181818;stroke-width:1.0;"/><line style="stroke:#181818;stroke-width:1.0;" x1="86" x2="663" y1="175.1543" y2="175.1543"/><text fill="#000000" font-family="sans-serif" font-size="13" font-weight="bold" lengthAdjust="spacing" textLength="7" x="93" y="169.8916">1</text><text fill="#000000" font-family="sans-serif" font-size="13" lengthAdjust="spacing" textLength="188" x="104" y="169.8916">asks to regist a new collaborator</text><path d="M10,190.1543 L83,190.1543 L83,199.4453 L73,209.4453 L10,209.4453 L10,190.1543 " fill="#EEEEEE" style="stroke:#000000;stroke-width:1.5;"/><rect fill="none" height="224.3281" style="stroke:#000000;stroke-width:1.5;" width="706" x="10" y="190.1543"/><text fill="#000000" font-family="sans-serif" font-size="13" font-weight="bold" lengthAdjust="spacing" textLength="28" x="25" y="205.1826">loop</text><text fill="#000000" font-family="sans-serif" font-size="11" font-weight="bold" lengthAdjust="spacing" textLength="90" x="98" y="204.0244">[while intended]</text><polygon fill="#181818" points="97,228.7363,87,232.7363,97,236.7363,93,232.7363" style="stroke:#181818;stroke-width:1.0;"/><line style="stroke:#181818;stroke-width:1.0;stroke-dasharray:2.0,2.0;" x1="91" x2="673" y1="232.7363" y2="232.7363"/><text fill="#000000" font-family="sans-serif" font-size="13" font-weight="bold" lengthAdjust="spacing" textLength="7" x="103" y="227.4736">2</text><text fill="#000000" font-family="sans-serif" font-size="13" lengthAdjust="spacing" textLength="93" x="114" y="227.4736">requests the job</text><polygon fill="#181818" points="657,260.0273,667,264.0273,657,268.0273,661,264.0273" style="stroke:#181818;stroke-width:1.0;"/><line style="stroke:#181818;stroke-width:1.0;" x1="86" x2="663" y1="264.0273" y2="264.0273"/><text fill="#000000" font-family="sans-serif" font-size="13" font-weight="bold" lengthAdjust="spacing" textLength="7" x="93" y="258.7646">3</text><text fill="#000000" font-family="sans-serif" font-size="13" lengthAdjust="spacing" textLength="60" x="104" y="258.7646">Type a job</text><polygon fill="#181818" points="97,291.3184,87,295.3184,97,299.3184,93,295.3184" style="stroke:#181818;stroke-width:1.0;"/><line style="stroke:#181818;stroke-width:1.0;stroke-dasharray:2.0,2.0;" x1="91" x2="673" y1="295.3184" y2="295.3184"/><text fill="#000000" font-family="sans-serif" font-size="13" font-weight="bold" lengthAdjust="spacing" textLength="7" x="103" y="290.0557">4</text><text fill="#000000" font-family="sans-serif" font-size="13" lengthAdjust="spacing" textLength="122" x="114" y="290.0557">Request confirmation</text><polygon fill="#181818" points="657,322.6094,667,326.6094,657,330.6094,661,326.6094" style="stroke:#181818;stroke-width:1.0;"/><line style="stroke:#181818;stroke-width:1.0;" x1="86" x2="663" y1="326.6094" y2="326.6094"/><text fill="#000000" font-family="sans-serif" font-size="13" font-weight="bold" lengthAdjust="spacing" textLength="7" x="93" y="321.3467">5</text><text fill="#000000" font-family="sans-serif" font-size="13" lengthAdjust="spacing" textLength="62" x="104" y="321.3467">Confirms it</text><polygon fill="#181818" points="97,371.1914,87,375.1914,97,379.1914,93,375.1914" style="stroke:#181818;stroke-width:1.0;"/><line style="stroke:#181818;stroke-width:1.0;stroke-dasharray:2.0,2.0;" x1="91" x2="673" y1="375.1914" y2="375.1914"/><text fill="#000000" font-family="sans-serif" font-size="13" font-weight="bold" lengthAdjust="spacing" textLength="7" x="103" y="361.2832">6</text><text fill="#000000" font-family="sans-serif" font-size="13" lengthAdjust="spacing" textLength="459" x="114" y="352.6377">requests the fundamental characteristics (i.e. name, birth date, admission date,</text><text fill="#000000" font-family="sans-serif" font-size="13" lengthAdjust="spacing" textLength="544" x="118" y="369.9287">address, contact info (mobile and email), taxpayer number,ID doc type and respective number)</text><polygon fill="#181818" points="657,402.4824,667,406.4824,657,410.4824,661,406.4824" style="stroke:#181818;stroke-width:1.0;"/><line style="stroke:#181818;stroke-width:1.0;" x1="86" x2="663" y1="406.4824" y2="406.4824"/><text fill="#000000" font-family="sans-serif" font-size="13" font-weight="bold" lengthAdjust="spacing" textLength="7" x="93" y="401.2197">7</text><text fill="#000000" font-family="sans-serif" font-size="13" lengthAdjust="spacing" textLength="152" x="104" y="401.2197">regist the new collaborator</text><polygon fill="#181818" points="97,440.7734,87,444.7734,97,448.7734,93,444.7734" style="stroke:#181818;stroke-width:1.0;"/><line style="stroke:#181818;stroke-width:1.0;stroke-dasharray:2.0,2.0;" x1="91" x2="673" y1="444.7734" y2="444.7734"/><text fill="#000000" font-family="sans-serif" font-size="13" font-weight="bold" lengthAdjust="spacing" textLength="7" x="103" y="439.5107">8</text><text fill="#000000" font-family="sans-serif" font-size="13" lengthAdjust="spacing" textLength="197" x="114" y="439.5107">show all the collaborators registed</text><polygon fill="#181818" points="657,472.0645,667,476.0645,657,480.0645,661,476.0645" style="stroke:#181818;stroke-width:1.0;"/><line style="stroke:#181818;stroke-width:1.0;" x1="86" x2="663" y1="476.0645" y2="476.0645"/><text fill="#000000" font-family="sans-serif" font-size="13" font-weight="bold" lengthAdjust="spacing" textLength="7" x="93" y="470.8018">9</text><text fill="#000000" font-family="sans-serif" font-size="13" lengthAdjust="spacing" textLength="353" x="104" y="470.8018">confirm the collaborator(s) registed and requests confirmation</text><polygon fill="#181818" points="97,503.3555,87,507.3555,97,511.3555,93,507.3555" style="stroke:#181818;stroke-width:1.0;"/><line style="stroke:#181818;stroke-width:1.0;stroke-dasharray:2.0,2.0;" x1="91" x2="673" y1="507.3555" y2="507.3555"/><text fill="#000000" font-family="sans-serif" font-size="13" font-weight="bold" lengthAdjust="spacing" textLength="14" x="103" y="502.0928">10</text><text fill="#000000" font-family="sans-serif" font-size="13" lengthAdjust="spacing" textLength="158" x="121" y="502.0928">displays operation success</text><!--SRC=[dLExajim3Epr5HXNzeplFi15chYu5DTOAQ-1I5XYp8T2G77qzu4UzdXELf5ZHH70xW9OySN55ZC622acq-GK22HtLF0zqgAvO4sbz9uWan6CjNzCu0PjkhfOmnazKr684qqjUnOAKDBlZg8XE3giX_HjMHvtHO6TfDY5YhBUZQGCcxSkO8GJSUgo8Vw8xnYLEMy06TvExuNoYJEknIYmEKm4Ot2wZa3k3mgDsGNeqGkyVBk9EMZoXK6IDb8x5a28T0MJlCSgPLGPOzKTvmOyFFgKMhWsJdjpKIXQikFxxSmSBqeti1wKGrjdKRw6u5UgxjcMFXFS8f_b_knRKf6FnMkb2_hJHA_TnRFB0SMb-0K9twTo1YUh6lvZ3kSkMWmK1JsOHWraXBAkmXc6hNkbLuWQtaFbiZHWbMGFQ8DZLldJzqVK5vk9UJyq9mgX6pads8PK3Ul1Q842Eh_RW-3V5dlAC9bj_-C8DXcGSR2Qfp0j3UtGdB7xmencDmtzFVNJsjxKHCNw0hb9Lq3lHzn7J9u9PmCkTJwr_ko31TgMTtUyUIJplXREUSgpq6qTjnvxXjHI7ek1EwD_DA_9_GS0]--></g></svg>