<?xml version="1.0" encoding="UTF-8" standalone="no"?><svg xmlns="http://www.w3.org/2000/svg" xmlns:xlink="http://www.w3.org/1999/xlink" contentStyleType="text/css" height="1554px" preserveAspectRatio="none" style="width:2510px;height:1554px;background:#FFFFFF;" version="1.1" viewBox="0 0 2510 1554" width="2510px" zoomAndPan="magnify"><defs/><g><rect fill="#FFFFFF" height="1288.4392" style="stroke:#181818;stroke-width:1.0;" width="10" x="75.5" y="129.4799"/><rect fill="#FFFFFF" height="306.9198" style="stroke:#181818;stroke-width:1.0;" width="10" x="645.5" y="162.7199"/><rect fill="#FFFFFF" height="259.4398" style="stroke:#181818;stroke-width:1.0;" width="10" x="645.5" y="510.8797"/><rect fill="#FFFFFF" height="496.6397" style="stroke:#181818;stroke-width:1.0;" width="10" x="645.5" y="838.7995"/><rect fill="#FFFFFF" height="41.24" style="stroke:#181818;stroke-width:1.0;" width="10" x="645.5" y="1376.6792"/><rect fill="#FFFFFF" height="165.9599" style="stroke:#181818;stroke-width:1.0;" width="10" x="967.5" y="213.9599"/><rect fill="#FFFFFF" height="149.7199" style="stroke:#181818;stroke-width:1.0;" width="10" x="967.5" y="552.1197"/><rect fill="#FFFFFF" height="52.24" style="stroke:#181818;stroke-width:1.0;" width="10" x="972.5" y="601.3596"/><rect fill="#FFFFFF" height="414.1598" style="stroke:#181818;stroke-width:1.0;" width="10" x="967.5" y="880.0395"/><rect fill="#FFFFFF" height="41.24" style="stroke:#181818;stroke-width:1.0;" width="10" x="1204" y="256.1999"/><rect fill="#FFFFFF" height="41.24" style="stroke:#181818;stroke-width:1.0;" width="10" x="1368.5" y="338.6798"/><rect fill="#FFFFFF" height="331.6798" style="stroke:#181818;stroke-width:1.0;" width="10" x="1622.5" y="921.2794"/><rect fill="#FFFFFF" height="123.7199" style="stroke:#181818;stroke-width:1.0;" width="10" x="2145.5" y="972.5194"/><rect fill="none" height="817.7995" style="stroke:#000000;stroke-width:1.5;" width="2494.5" x="10" y="394.9198"/><line style="stroke:#181818;stroke-width:0.5;stroke-dasharray:5.0,5.0;" x1="80" x2="80" y1="119.4799" y2="1435.9192"/><line style="stroke:#181818;stroke-width:0.5;stroke-dasharray:5.0,5.0;" x1="650" x2="650" y1="119.4799" y2="1435.9192"/><line style="stroke:#181818;stroke-width:0.5;stroke-dasharray:5.0,5.0;" x1="972" x2="972" y1="206.8399" y2="1435.9192"/><line style="stroke:#181818;stroke-width:0.5;stroke-dasharray:5.0,5.0;" x1="1209" x2="1209" y1="119.4799" y2="1435.9192"/><line style="stroke:#181818;stroke-width:0.5;stroke-dasharray:5.0,5.0;" x1="1373.5" x2="1373.5" y1="119.4799" y2="1435.9192"/><line style="stroke:#181818;stroke-width:0.5;stroke-dasharray:5.0,5.0;" x1="1627.5" x2="1627.5" y1="119.4799" y2="1435.9192"/><line style="stroke:#181818;stroke-width:0.5;stroke-dasharray:5.0,5.0;" x1="2150" x2="2150" y1="979.0194" y2="1435.9192"/><text fill="#000000" font-family="sans-serif" font-size="20" lengthAdjust="spacing" textLength="115" x="20" y="86.38">Vehicle Fleet</text><text fill="#000000" font-family="sans-serif" font-size="20" lengthAdjust="spacing" textLength="83" x="36" y="113.62">Manager</text><ellipse cx="80.5" cy="13.5" fill="#E3E3E3" rx="8" ry="8" style="stroke:#181818;stroke-width:0.5;"/><path d="M80.5,21.5 L80.5,48.5 M67.5,29.5 L93.5,29.5 M80.5,48.5 L67.5,63.5 M80.5,48.5 L93.5,63.5 " fill="none" style="stroke:#181818;stroke-width:0.5;"/><text fill="#000000" font-family="sans-serif" font-size="20" lengthAdjust="spacing" textLength="115" x="20" y="1456.2992">Vehicle Fleet</text><text fill="#000000" font-family="sans-serif" font-size="20" lengthAdjust="spacing" textLength="83" x="36" y="1483.5391">Manager</text><ellipse cx="80.5" cy="1497.8991" fill="#E3E3E3" rx="8" ry="8" style="stroke:#181818;stroke-width:0.5;"/><path d="M80.5,1505.8991 L80.5,1532.8991 M67.5,1513.8991 L93.5,1513.8991 M80.5,1532.8991 L67.5,1547.8991 M80.5,1532.8991 L93.5,1547.8991 " fill="none" style="stroke:#181818;stroke-width:0.5;"/><rect fill="#E3E3E3" height="41.24" rx="2.5" ry="2.5" style="stroke:#181818;stroke-width:0.5;" width="267" x="517" y="77.24"/><text fill="#000000" font-family="sans-serif" font-size="20" lengthAdjust="spacing" textLength="253" x="524" y="105.62">:RegisterVehicleCheckUpUI</text><rect fill="#E3E3E3" height="41.24" rx="2.5" ry="2.5" style="stroke:#181818;stroke-width:0.5;" width="267" x="517" y="1434.9192"/><text fill="#000000" font-family="sans-serif" font-size="20" lengthAdjust="spacing" textLength="253" x="524" y="1463.2992">:RegisterVehicleCheckUpUI</text><rect fill="#E3E3E3" height="41.24" rx="2.5" ry="2.5" style="stroke:#181818;stroke-width:0.5;" width="319" x="813" y="1434.9192"/><text fill="#000000" font-family="sans-serif" font-size="20" lengthAdjust="spacing" textLength="305" x="820" y="1463.2992">:RegistVehicleCheckUpController</text><rect fill="#E3E3E3" height="41.24" rx="2.5" ry="2.5" style="stroke:#181818;stroke-width:0.5;" width="134" x="1142" y="77.24"/><text fill="#000000" font-family="sans-serif" font-size="20" lengthAdjust="spacing" textLength="120" x="1149" y="105.62">:Repositories</text><rect fill="#E3E3E3" height="41.24" rx="2.5" ry="2.5" style="stroke:#181818;stroke-width:0.5;" width="134" x="1142" y="1434.9192"/><text fill="#000000" font-family="sans-serif" font-size="20" lengthAdjust="spacing" textLength="120" x="1149" y="1463.2992">:Repositories</text><rect fill="#E3E3E3" height="68.4799" rx="2.5" ry="2.5" style="stroke:#181818;stroke-width:0.5;" width="134" x="1306.5" y="50"/><text fill="#000000" font-family="sans-serif" font-size="20" lengthAdjust="spacing" textLength="111" x="1318" y="78.38">repositories</text><text fill="#000000" font-family="sans-serif" font-size="20" lengthAdjust="spacing" textLength="120" x="1313.5" y="105.62">:Repositories</text><rect fill="#E3E3E3" height="68.4799" rx="2.5" ry="2.5" style="stroke:#181818;stroke-width:0.5;" width="134" x="1306.5" y="1434.9192"/><text fill="#000000" font-family="sans-serif" font-size="20" lengthAdjust="spacing" textLength="111" x="1318" y="1463.2992">repositories</text><text fill="#000000" font-family="sans-serif" font-size="20" lengthAdjust="spacing" textLength="120" x="1313.5" y="1490.5391">:Repositories</text><rect fill="#E3E3E3" height="68.4799" rx="2.5" ry="2.5" style="stroke:#181818;stroke-width:0.5;" width="354" x="1450.5" y="50"/><text fill="#000000" font-family="sans-serif" font-size="20" lengthAdjust="spacing" textLength="340" x="1457.5" y="78.38">registedVehicleCheckUpsRepository:</text><text fill="#000000" font-family="sans-serif" font-size="20" lengthAdjust="spacing" textLength="327" x="1470.5" y="105.62">egistedVehicleCheckUpsRepository</text><rect fill="#E3E3E3" height="68.4799" rx="2.5" ry="2.5" style="stroke:#181818;stroke-width:0.5;" width="354" x="1450.5" y="1434.9192"/><text fill="#000000" font-family="sans-serif" font-size="20" lengthAdjust="spacing" textLength="340" x="1457.5" y="1463.2992">registedVehicleCheckUpsRepository:</text><text fill="#000000" font-family="sans-serif" font-size="20" lengthAdjust="spacing" textLength="327" x="1470.5" y="1490.5391">egistedVehicleCheckUpsRepository</text><rect fill="#E3E3E3" height="68.4799" rx="2.5" ry="2.5" style="stroke:#181818;stroke-width:0.5;" width="167" x="2067" y="1434.9192"/><text fill="#000000" font-family="sans-serif" font-size="20" lengthAdjust="spacing" textLength="110" x="2095.5" y="1463.2992">information</text><text fill="#000000" font-family="sans-serif" font-size="20" lengthAdjust="spacing" textLength="153" x="2074" y="1490.5391">:vehicleCheckUp</text><rect fill="#FFFFFF" height="1288.4392" style="stroke:#181818;stroke-width:1.0;" width="10" x="75.5" y="129.4799"/><rect fill="#FFFFFF" height="306.9198" style="stroke:#181818;stroke-width:1.0;" width="10" x="645.5" y="162.7199"/><rect fill="#FFFFFF" height="259.4398" style="stroke:#181818;stroke-width:1.0;" width="10" x="645.5" y="510.8797"/><rect fill="#FFFFFF" height="496.6397" style="stroke:#181818;stroke-width:1.0;" width="10" x="645.5" y="838.7995"/><rect fill="#FFFFFF" height="41.24" style="stroke:#181818;stroke-width:1.0;" width="10" x="645.5" y="1376.6792"/><rect fill="#FFFFFF" height="165.9599" style="stroke:#181818;stroke-width:1.0;" width="10" x="967.5" y="213.9599"/><rect fill="#FFFFFF" height="149.7199" style="stroke:#181818;stroke-width:1.0;" width="10" x="967.5" y="552.1197"/><rect fill="#FFFFFF" height="52.24" style="stroke:#181818;stroke-width:1.0;" width="10" x="972.5" y="601.3596"/><rect fill="#FFFFFF" height="414.1598" style="stroke:#181818;stroke-width:1.0;" width="10" x="967.5" y="880.0395"/><rect fill="#FFFFFF" height="41.24" style="stroke:#181818;stroke-width:1.0;" width="10" x="1204" y="256.1999"/><rect fill="#FFFFFF" height="41.24" style="stroke:#181818;stroke-width:1.0;" width="10" x="1368.5" y="338.6798"/><rect fill="#FFFFFF" height="331.6798" style="stroke:#181818;stroke-width:1.0;" width="10" x="1622.5" y="921.2794"/><rect fill="#FFFFFF" height="123.7199" style="stroke:#181818;stroke-width:1.0;" width="10" x="2145.5" y="972.5194"/><polygon fill="#181818" points="633.5,158.7199,643.5,162.7199,633.5,166.7199,637.5,162.7199" style="stroke:#181818;stroke-width:1.0;"/><line style="stroke:#181818;stroke-width:1.0;" x1="85.5" x2="639.5" y1="162.7199" y2="162.7199"/><text fill="#000000" font-family="sans-serif" font-size="20" font-weight="bold" lengthAdjust="spacing" textLength="11" x="92.5" y="154.8599">1</text><text fill="#000000" font-family="sans-serif" font-size="20" lengthAdjust="spacing" textLength="342" x="107.5" y="154.8599">asks to regist a new vehicle check-up</text><polygon fill="#181818" points="801,199.9599,811,203.9599,801,207.9599,805,203.9599" style="stroke:#181818;stroke-width:1.0;"/><line style="stroke:#181818;stroke-width:1.0;" x1="655.5" x2="807" y1="203.9599" y2="203.9599"/><text fill="#000000" font-family="sans-serif" font-size="20" font-weight="bold" lengthAdjust="spacing" textLength="11" x="662.5" y="196.0999">2</text><text fill="#000000" font-family="sans-serif" font-size="20" lengthAdjust="spacing" textLength="58" x="677.5" y="196.0999">create</text><rect fill="#E3E3E3" height="41.24" rx="2.5" ry="2.5" style="stroke:#181818;stroke-width:0.5;" width="319" x="813" y="170.7199"/><text fill="#000000" font-family="sans-serif" font-size="20" lengthAdjust="spacing" textLength="305" x="820" y="199.0999">:RegistVehicleCheckUpController</text><polygon fill="#181818" points="1192,252.1999,1202,256.1999,1192,260.1999,1196,256.1999" style="stroke:#181818;stroke-width:1.0;"/><line style="stroke:#181818;stroke-width:1.0;" x1="977.5" x2="1198" y1="256.1999" y2="256.1999"/><text fill="#000000" font-family="sans-serif" font-size="20" font-weight="bold" lengthAdjust="spacing" textLength="11" x="984.5" y="248.3399">3</text><text fill="#000000" font-family="sans-serif" font-size="20" lengthAdjust="spacing" textLength="122" x="999.5" y="248.3399">getInstance()</text><polygon fill="#181818" points="988.5,293.4398,978.5,297.4398,988.5,301.4398,984.5,297.4398" style="stroke:#181818;stroke-width:1.0;"/><line style="stroke:#181818;stroke-width:1.0;stroke-dasharray:2.0,2.0;" x1="982.5" x2="1208" y1="297.4398" y2="297.4398"/><text fill="#000000" font-family="sans-serif" font-size="20" font-weight="bold" lengthAdjust="spacing" textLength="11" x="994.5" y="289.5799">4</text><text fill="#000000" font-family="sans-serif" font-size="20" lengthAdjust="spacing" textLength="111" x="1009.5" y="289.5799">repositories</text><polygon fill="#181818" points="1356.5,334.6798,1366.5,338.6798,1356.5,342.6798,1360.5,338.6798" style="stroke:#181818;stroke-width:1.0;"/><line style="stroke:#181818;stroke-width:1.0;" x1="977.5" x2="1362.5" y1="338.6798" y2="338.6798"/><text fill="#000000" font-family="sans-serif" font-size="20" font-weight="bold" lengthAdjust="spacing" textLength="11" x="984.5" y="330.8198">5</text><text fill="#000000" font-family="sans-serif" font-size="20" lengthAdjust="spacing" textLength="357" x="999.5" y="330.8198">registedVehiclesCheckUpsRepository()</text><polygon fill="#181818" points="983.5,375.9198,973.5,379.9198,983.5,383.9198,979.5,379.9198" style="stroke:#181818;stroke-width:1.0;"/><line style="stroke:#181818;stroke-width:1.0;stroke-dasharray:2.0,2.0;" x1="977.5" x2="1372.5" y1="379.9198" y2="379.9198"/><text fill="#000000" font-family="sans-serif" font-size="20" font-weight="bold" lengthAdjust="spacing" textLength="11" x="989.5" y="372.0598">6</text><text fill="#000000" font-family="sans-serif" font-size="20" lengthAdjust="spacing" textLength="345" x="1004.5" y="372.0598">registedVehiclesCheckUpsRepository</text><path d="M10,394.9198 L98,394.9198 L98,414.1598 L88,424.1598 L10,424.1598 L10,394.9198 " fill="#EEEEEE" style="stroke:#000000;stroke-width:1.5;"/><rect fill="none" height="817.7995" style="stroke:#000000;stroke-width:1.5;" width="2494.5" x="10" y="394.9198"/><text fill="#000000" font-family="sans-serif" font-size="20" font-weight="bold" lengthAdjust="spacing" textLength="43" x="25" y="417.2998">loop</text><text fill="#000000" font-family="sans-serif" font-size="20" font-weight="bold" lengthAdjust="spacing" textLength="164" x="113" y="418.2998">[while intended]</text><polygon fill="#181818" points="96.5,465.6397,86.5,469.6397,96.5,473.6397,92.5,469.6397" style="stroke:#181818;stroke-width:1.0;"/><line style="stroke:#181818;stroke-width:1.0;stroke-dasharray:2.0,2.0;" x1="90.5" x2="649.5" y1="469.6397" y2="469.6397"/><text fill="#000000" font-family="sans-serif" font-size="20" font-weight="bold" lengthAdjust="spacing" textLength="11" x="102.5" y="461.7797">7</text><text fill="#000000" font-family="sans-serif" font-size="20" lengthAdjust="spacing" textLength="226" x="117.5" y="461.7797">request the vehicle plate</text><polygon fill="#181818" points="633.5,506.8797,643.5,510.8797,633.5,514.8797,637.5,510.8797" style="stroke:#181818;stroke-width:1.0;"/><line style="stroke:#181818;stroke-width:1.0;" x1="85.5" x2="639.5" y1="510.8797" y2="510.8797"/><text fill="#000000" font-family="sans-serif" font-size="20" font-weight="bold" lengthAdjust="spacing" textLength="11" x="92.5" y="503.0197">8</text><text fill="#000000" font-family="sans-serif" font-size="20" lengthAdjust="spacing" textLength="199" x="107.5" y="503.0197">Type the vehicle plate</text><polygon fill="#181818" points="955.5,548.1197,965.5,552.1197,955.5,556.1197,959.5,552.1197" style="stroke:#181818;stroke-width:1.0;"/><line style="stroke:#181818;stroke-width:1.0;" x1="655.5" x2="961.5" y1="552.1197" y2="552.1197"/><text fill="#000000" font-family="sans-serif" font-size="20" font-weight="bold" lengthAdjust="spacing" textLength="11" x="662.5" y="544.2597">9</text><text fill="#000000" font-family="sans-serif" font-size="20" lengthAdjust="spacing" textLength="110" x="677.5" y="544.2597">vehiclePlate</text><line style="stroke:#181818;stroke-width:1.0;" x1="977.5" x2="1024.5" y1="588.3596" y2="588.3596"/><line style="stroke:#181818;stroke-width:1.0;" x1="1024.5" x2="1024.5" y1="588.3596" y2="601.3596"/><line style="stroke:#181818;stroke-width:1.0;" x1="983.5" x2="1024.5" y1="601.3596" y2="601.3596"/><polygon fill="#181818" points="993.5,597.3596,983.5,601.3596,993.5,605.3596,989.5,601.3596" style="stroke:#181818;stroke-width:1.0;"/><text fill="#000000" font-family="sans-serif" font-size="20" font-weight="bold" lengthAdjust="spacing" textLength="22" x="989.5" y="580.4997">10</text><text fill="#000000" font-family="sans-serif" font-size="20" lengthAdjust="spacing" textLength="172" x="1015.5" y="580.4997">storeVehiclePlate()</text><line style="stroke:#181818;stroke-width:1.0;stroke-dasharray:2.0,2.0;" x1="982.5" x2="1024.5" y1="652.5996" y2="652.5996"/><line style="stroke:#181818;stroke-width:1.0;stroke-dasharray:2.0,2.0;" x1="1024.5" x2="1024.5" y1="652.5996" y2="665.5996"/><line style="stroke:#181818;stroke-width:1.0;stroke-dasharray:2.0,2.0;" x1="977.5" x2="1024.5" y1="665.5996" y2="665.5996"/><polygon fill="#181818" points="987.5,661.5996,977.5,665.5996,987.5,669.5996,983.5,665.5996" style="stroke:#181818;stroke-width:1.0;"/><text fill="#000000" font-family="sans-serif" font-size="20" font-weight="bold" lengthAdjust="spacing" textLength="22" x="989.5" y="644.7396">11</text><text fill="#000000" font-family="sans-serif" font-size="20" lengthAdjust="spacing" textLength="73" x="1015.5" y="644.7396">success</text><polygon fill="#181818" points="666.5,697.8396,656.5,701.8396,666.5,705.8396,662.5,701.8396" style="stroke:#181818;stroke-width:1.0;"/><line style="stroke:#181818;stroke-width:1.0;stroke-dasharray:2.0,2.0;" x1="660.5" x2="971.5" y1="701.8396" y2="701.8396"/><text fill="#000000" font-family="sans-serif" font-size="20" font-weight="bold" lengthAdjust="spacing" textLength="22" x="672.5" y="693.9796">12</text><text fill="#000000" font-family="sans-serif" font-size="20" lengthAdjust="spacing" textLength="73" x="698.5" y="693.9796">success</text><polygon fill="#181818" points="96.5,766.3195,86.5,770.3195,96.5,774.3195,92.5,770.3195" style="stroke:#181818;stroke-width:1.0;"/><line style="stroke:#181818;stroke-width:1.0;stroke-dasharray:2.0,2.0;" x1="90.5" x2="649.5" y1="770.3195" y2="770.3195"/><text fill="#000000" font-family="sans-serif" font-size="20" font-weight="bold" lengthAdjust="spacing" textLength="22" x="102.5" y="748.8396">13</text><text fill="#000000" font-family="sans-serif" font-size="20" lengthAdjust="spacing" textLength="418" x="128.5" y="735.2196">Requests the information about the check-up</text><text fill="#000000" font-family="sans-serif" font-size="20" lengthAdjust="spacing" textLength="193" x="133.5" y="762.4596">(i.e. date, place, kms)</text><polygon fill="#181818" points="633.5,834.7995,643.5,838.7995,633.5,842.7995,637.5,838.7995" style="stroke:#181818;stroke-width:1.0;"/><line style="stroke:#181818;stroke-width:1.0;" x1="85.5" x2="639.5" y1="838.7995" y2="838.7995"/><text fill="#000000" font-family="sans-serif" font-size="20" font-weight="bold" lengthAdjust="spacing" textLength="22" x="92.5" y="817.3195">14</text><text fill="#000000" font-family="sans-serif" font-size="20" lengthAdjust="spacing" textLength="387" x="118.5" y="803.6995">Types the information about the check-up</text><text fill="#000000" font-family="sans-serif" font-size="20" lengthAdjust="spacing" textLength="193" x="123.5" y="830.9395">(i.e. date, place, kms)</text><polygon fill="#181818" points="955.5,876.0395,965.5,880.0395,955.5,884.0395,959.5,880.0395" style="stroke:#181818;stroke-width:1.0;"/><line style="stroke:#181818;stroke-width:1.0;" x1="655.5" x2="961.5" y1="880.0395" y2="880.0395"/><text fill="#000000" font-family="sans-serif" font-size="20" font-weight="bold" lengthAdjust="spacing" textLength="22" x="662.5" y="872.1795">15</text><text fill="#000000" font-family="sans-serif" font-size="20" lengthAdjust="spacing" textLength="58" x="688.5" y="872.1795">create</text><polygon fill="#181818" points="1610.5,917.2794,1620.5,921.2794,1610.5,925.2794,1614.5,921.2794" style="stroke:#181818;stroke-width:1.0;"/><line style="stroke:#181818;stroke-width:1.0;" x1="977.5" x2="1616.5" y1="921.2794" y2="921.2794"/><text fill="#000000" font-family="sans-serif" font-size="20" font-weight="bold" lengthAdjust="spacing" textLength="22" x="984.5" y="913.4195">16</text><text fill="#000000" font-family="sans-serif" font-size="20" lengthAdjust="spacing" textLength="58" x="1010.5" y="913.4195">create</text><polygon fill="#181818" points="2055,958.5194,2065,962.5194,2055,966.5194,2059,962.5194" style="stroke:#181818;stroke-width:1.0;"/><line style="stroke:#181818;stroke-width:1.0;" x1="1632.5" x2="2061" y1="962.5194" y2="962.5194"/><text fill="#000000" font-family="sans-serif" font-size="20" font-weight="bold" lengthAdjust="spacing" textLength="22" x="1639.5" y="954.6594">17</text><text fill="#000000" font-family="sans-serif" font-size="20" lengthAdjust="spacing" textLength="58" x="1665.5" y="954.6594">create</text><rect fill="#E3E3E3" height="68.4799" rx="2.5" ry="2.5" style="stroke:#181818;stroke-width:0.5;" width="167" x="2067" y="929.2794"/><text fill="#000000" font-family="sans-serif" font-size="20" lengthAdjust="spacing" textLength="110" x="2095.5" y="957.6594">information</text><text fill="#000000" font-family="sans-serif" font-size="20" lengthAdjust="spacing" textLength="153" x="2074" y="984.8994">:vehicleCheckUp</text><line style="stroke:#181818;stroke-width:1.0;" x1="2155.5" x2="2197.5" y1="1041.9994" y2="1041.9994"/><line style="stroke:#181818;stroke-width:1.0;" x1="2197.5" x2="2197.5" y1="1041.9994" y2="1054.9994"/><line style="stroke:#181818;stroke-width:1.0;" x1="2156.5" x2="2197.5" y1="1054.9994" y2="1054.9994"/><polygon fill="#181818" points="2166.5,1050.9994,2156.5,1054.9994,2166.5,1058.9994,2162.5,1054.9994" style="stroke:#181818;stroke-width:1.0;"/><text fill="#000000" font-family="sans-serif" font-size="20" font-weight="bold" lengthAdjust="spacing" textLength="22" x="2162.5" y="1034.1394">18</text><text fill="#000000" font-family="sans-serif" font-size="20" lengthAdjust="spacing" textLength="304" x="2188.5" y="1034.1394">validateinformation(information)</text><polygon fill="#181818" points="1643.5,1092.2393,1633.5,1096.2393,1643.5,1100.2393,1639.5,1096.2393" style="stroke:#181818;stroke-width:1.0;"/><line style="stroke:#181818;stroke-width:1.0;stroke-dasharray:2.0,2.0;" x1="1637.5" x2="2149.5" y1="1096.2393" y2="1096.2393"/><text fill="#000000" font-family="sans-serif" font-size="20" font-weight="bold" lengthAdjust="spacing" textLength="22" x="1649.5" y="1088.3794">19</text><text fill="#000000" font-family="sans-serif" font-size="20" lengthAdjust="spacing" textLength="110" x="1675.5" y="1088.3794">information</text><line style="stroke:#181818;stroke-width:1.0;" x1="1632.5" x2="1674.5" y1="1137.4793" y2="1137.4793"/><line style="stroke:#181818;stroke-width:1.0;" x1="1674.5" x2="1674.5" y1="1137.4793" y2="1150.4793"/><line style="stroke:#181818;stroke-width:1.0;" x1="1633.5" x2="1674.5" y1="1150.4793" y2="1150.4793"/><polygon fill="#181818" points="1643.5,1146.4793,1633.5,1150.4793,1643.5,1154.4793,1639.5,1150.4793" style="stroke:#181818;stroke-width:1.0;"/><text fill="#000000" font-family="sans-serif" font-size="20" font-weight="bold" lengthAdjust="spacing" textLength="22" x="1639.5" y="1129.6193">20</text><text fill="#000000" font-family="sans-serif" font-size="20" lengthAdjust="spacing" textLength="459" x="1665.5" y="1129.6193">validateVehicleCheckUp(veichlePlate,information)</text><line style="stroke:#181818;stroke-width:1.0;" x1="1632.5" x2="1674.5" y1="1191.7193" y2="1191.7193"/><line style="stroke:#181818;stroke-width:1.0;" x1="1674.5" x2="1674.5" y1="1191.7193" y2="1204.7193"/><line style="stroke:#181818;stroke-width:1.0;" x1="1633.5" x2="1674.5" y1="1204.7193" y2="1204.7193"/><polygon fill="#181818" points="1643.5,1200.7193,1633.5,1204.7193,1643.5,1208.7193,1639.5,1204.7193" style="stroke:#181818;stroke-width:1.0;"/><text fill="#000000" font-family="sans-serif" font-size="20" font-weight="bold" lengthAdjust="spacing" textLength="22" x="1639.5" y="1183.8593">21</text><text fill="#000000" font-family="sans-serif" font-size="20" lengthAdjust="spacing" textLength="473" x="1665.5" y="1183.8593">addVeichleCheckUp(vehiclePlate plate,information)</text><polygon fill="#181818" points="988.5,1248.9593,978.5,1252.9593,988.5,1256.9593,984.5,1252.9593" style="stroke:#181818;stroke-width:1.0;"/><line style="stroke:#181818;stroke-width:1.0;stroke-dasharray:2.0,2.0;" x1="982.5" x2="1626.5" y1="1252.9593" y2="1252.9593"/><text fill="#000000" font-family="sans-serif" font-size="20" font-weight="bold" lengthAdjust="spacing" textLength="22" x="994.5" y="1245.0993">22</text><text fill="#000000" font-family="sans-serif" font-size="20" lengthAdjust="spacing" textLength="258" x="1020.5" y="1245.0993">registedVehicleCheckUpList</text><polygon fill="#181818" points="666.5,1290.1992,656.5,1294.1992,666.5,1298.1992,662.5,1294.1992" style="stroke:#181818;stroke-width:1.0;"/><line style="stroke:#181818;stroke-width:1.0;stroke-dasharray:2.0,2.0;" x1="660.5" x2="971.5" y1="1294.1992" y2="1294.1992"/><text fill="#000000" font-family="sans-serif" font-size="20" font-weight="bold" lengthAdjust="spacing" textLength="22" x="672.5" y="1286.3393">23</text><text fill="#000000" font-family="sans-serif" font-size="20" lengthAdjust="spacing" textLength="262" x="698.5" y="1286.3393">RegistedVehicleCheckUpList</text><polygon fill="#181818" points="96.5,1331.4392,86.5,1335.4392,96.5,1339.4392,92.5,1335.4392" style="stroke:#181818;stroke-width:1.0;"/><line style="stroke:#181818;stroke-width:1.0;stroke-dasharray:2.0,2.0;" x1="90.5" x2="649.5" y1="1335.4392" y2="1335.4392"/><text fill="#000000" font-family="sans-serif" font-size="20" font-weight="bold" lengthAdjust="spacing" textLength="22" x="102.5" y="1327.5792">24</text><text fill="#000000" font-family="sans-serif" font-size="20" lengthAdjust="spacing" textLength="510" x="128.5" y="1327.5792">list all registered vehicle check-ups and asks to confirm</text><polygon fill="#181818" points="633.5,1372.6792,643.5,1376.6792,633.5,1380.6792,637.5,1376.6792" style="stroke:#181818;stroke-width:1.0;"/><line style="stroke:#181818;stroke-width:1.0;" x1="85.5" x2="639.5" y1="1376.6792" y2="1376.6792"/><text fill="#000000" font-family="sans-serif" font-size="20" font-weight="bold" lengthAdjust="spacing" textLength="22" x="92.5" y="1368.8192">25</text><text fill="#000000" font-family="sans-serif" font-size="20" lengthAdjust="spacing" textLength="277" x="118.5" y="1368.8192">confirms all vehicle check-ups</text><polygon fill="#181818" points="91.5,1413.9192,81.5,1417.9192,91.5,1421.9192,87.5,1417.9192" style="stroke:#181818;stroke-width:1.0;"/><line style="stroke:#181818;stroke-width:1.0;stroke-dasharray:2.0,2.0;" x1="85.5" x2="649.5" y1="1417.9192" y2="1417.9192"/><text fill="#000000" font-family="sans-serif" font-size="20" font-weight="bold" lengthAdjust="spacing" textLength="22" x="97.5" y="1410.0592">26</text><text fill="#000000" font-family="sans-serif" font-size="20" lengthAdjust="spacing" textLength="248" x="123.5" y="1410.0592">displays operation success</text><!--SRC=[jLPDJ-Cm4BtxLuouq290gproG5g1a910GkNZnCKuqyQgQsTj1xRxwtVi9gdTf0siTdrAx9atCvxdPxkbr1MtVAMCM6811SvvhVoDqVvH_aRu_esvrWHMHXjHMhD2yBR6PANYOiaN-EZN2i6Yy5mlL6hWIbwO3waNCEVA8MEyzaRNgpUqZ1sNia2O6-FVp2_6XJSMZbwmb8BGRXIYVzNtN5C0UmJSmSlDFIDOBuMikFPmT373XNGURUDqLQ9OFbVFjz7y-NRGEhUzeegjKQe9SVKqk-jvLSP9oasYYpRTnFfHXdAfeDp59XwlkW_mSFVZQTSZrb7akRbjf8lNKPC8FMgLnvLwRkoAUsaq9VgUEKMyQ-uv2wsHxznZx023Pj0Fd5tIDiC5cIuTUDF41muQFw310n40p-fgwze1Ke_OCII3qCu8zCVrFQ5Q_5cZymuAIWCc5kTeKGiy9RuwOMKL4Zy5QCfGyAhp5O-Yr5BGIZPTr9PlleHnVihI18w5nP1PPC9kPfTn-kI4SjkOPHPTLT4tMmeZp0Q80VuGtWBzhNPqW0HEfZtV3dg8V3thC8QYd3K5X9tTShBdNk3NmhM51Lx7hcKST7qIKe7xAuodOwYY29-MC1RcK66zACbQrdfbJ0KVfIGUI-rH5rYm0SA6mz0H5do97VihbV8a2HEultkEdjOLxl7k-VM9IG2DtuFQ9MUVeFlQs20vsa9yIU0ETcqGSOkQmDP2e3j8kaF7fzse8PY345cVPgsmXArEH13ucwatxMj5YoHb8i_nF6WG2G_r8-ZFSkMcN-dfFuYKnkYtlXCaDjwQjj6ZbmNqKJFayTicTHiFHpc52-Vaf2UlNSZDXTHEXx_MYxZFbGnxbspp9FcUxlfzSWiIY4669-sFsS78-DG-ZBy8kd9payaxIb4sH_OqA_z_9S8BMer1jpbiPMCZOSEPa9p-JLPRDHaslgEvVSempbcsNtLc-yEnKHNA54Z5Pv9IRJwM7k6xxoK7N1VTqqeOFPTsjS4RaPp6riK8FLWsg2TPUeLqrBQr0rFXvgsKAUvE-EGtl13_0000]--></g></svg>