<?xml version="1.0" encoding="us-ascii" standalone="no"?><svg xmlns="http://www.w3.org/2000/svg" xmlns:xlink="http://www.w3.org/1999/xlink" contentStyleType="text/css" height="436.2px" preserveAspectRatio="none" style="width:441px;height:436px;background:#FFFFFF;" version="1.1" viewBox="0 0 441 436" width="441.6px" zoomAndPan="magnify"><defs/><g><rect fill="#FFFFFF" height="302.7703" style="stroke:#181818;stroke-width:0.6;" width="6" x="45.6" y="67.3453"/><rect fill="#FFFFFF" height="89.673" style="stroke:#181818;stroke-width:0.6;" width="6" x="184.2" y="81.3199"/><rect fill="#FFFFFF" height="137.3988" style="stroke:#181818;stroke-width:0.6;" width="6" x="184.2" y="189.7676"/><rect fill="#FFFFFF" height="18.7746" style="stroke:#181818;stroke-width:0.6;" width="6" x="184.2" y="345.941"/><rect fill="#FFFFFF" height="64.8984" style="stroke:#181818;stroke-width:0.6;" width="6" x="275.4" y="106.0945"/><rect fill="#FFFFFF" height="89.475" style="stroke:#181818;stroke-width:0.6;" width="6" x="275.4" y="208.5422"/><rect fill="#FFFFFF" height="51.9258" style="stroke:#181818;stroke-width:0.6;" width="6" x="378" y="227.3168"/><rect fill="none" height="115.6242" style="stroke:#000000;stroke-width:0.8999999999999999;" width="432" x="6" y="145.4438"/><line style="stroke:#181818;stroke-width:0.3;stroke-dasharray:5.0,5.0;" x1="48.6" x2="48.6" y1="61.3453" y2="375.5156"/><line style="stroke:#181818;stroke-width:0.3;stroke-dasharray:5.0,5.0;" x1="187.2" x2="187.2" y1="61.3453" y2="375.5156"/><line style="stroke:#181818;stroke-width:0.3;stroke-dasharray:5.0,5.0;" x1="278.4" x2="278.4" y1="105.2063" y2="375.5156"/><line style="stroke:#181818;stroke-width:0.3;stroke-dasharray:5.0,5.0;" x1="381" x2="381" y1="61.3453" y2="375.5156"/><text fill="#000000" font-family="sans-serif" font-size="8.4" lengthAdjust="spacing" textLength="69.6" x="12" y="48.0645">Human Resources</text><text fill="#000000" font-family="sans-serif" font-size="8.4" lengthAdjust="spacing" textLength="33.6" x="30" y="59.2371">Manager</text><ellipse cx="48.6" cy="8.1" fill="#E3E3E3" rx="4.8" ry="4.8" style="stroke:#181818;stroke-width:0.3;"/><path d="M48.6,12.9 L48.6,29.1 M40.8,17.7 L56.4,17.7 M48.6,29.1 L40.8,38.1 M48.6,29.1 L56.4,38.1 " fill="none" style="stroke:#181818;stroke-width:0.3;"/><text fill="#000000" font-family="sans-serif" font-size="8.4" lengthAdjust="spacing" textLength="69.6" x="12" y="383.9801">Human Resources</text><text fill="#000000" font-family="sans-serif" font-size="8.4" lengthAdjust="spacing" textLength="33.6" x="30" y="395.1527">Manager</text><ellipse cx="48.6" cy="402.3609" fill="#E3E3E3" rx="4.8" ry="4.8" style="stroke:#181818;stroke-width:0.3;"/><path d="M48.6,407.1609 L48.6,423.3609 M40.8,411.9609 L56.4,411.9609 M48.6,423.3609 L40.8,432.3609 M48.6,423.3609 L56.4,432.3609 " fill="none" style="stroke:#181818;stroke-width:0.3;"/><rect fill="#E3E3E3" height="19.5727" rx="1.5" ry="1.5" style="stroke:#181818;stroke-width:0.3;" width="61.2" x="156.6" y="41.1727"/><text fill="#000000" font-family="sans-serif" font-size="8.4" lengthAdjust="spacing" textLength="52.8" x="160.8" y="54.4371">:RegistSkillsUI</text><rect fill="#E3E3E3" height="19.5727" rx="1.5" ry="1.5" style="stroke:#181818;stroke-width:0.3;" width="61.2" x="156.6" y="374.9156"/><text fill="#000000" font-family="sans-serif" font-size="8.4" lengthAdjust="spacing" textLength="52.8" x="160.8" y="388.1801">:RegistSkillsUI</text><rect fill="#E3E3E3" height="19.5727" rx="1.5" ry="1.5" style="stroke:#181818;stroke-width:0.3;" width="91.2" x="232.8" y="374.9156"/><text fill="#000000" font-family="sans-serif" font-size="8.4" lengthAdjust="spacing" textLength="82.8" x="237" y="388.1801">:RegistSkillsController</text><rect fill="#E3E3E3" height="30.7453" rx="1.5" ry="1.5" style="stroke:#181818;stroke-width:0.3;" width="102" x="330" y="30"/><text fill="#000000" font-family="sans-serif" font-size="8.4" lengthAdjust="spacing" textLength="93" x="334.5" y="43.2645">registedSkillsRepository:</text><text fill="#000000" font-family="sans-serif" font-size="8.4" lengthAdjust="spacing" textLength="93.6" x="334.2" y="54.4371">RegistedSkillsRepository</text><rect fill="#E3E3E3" height="30.7453" rx="1.5" ry="1.5" style="stroke:#181818;stroke-width:0.3;" width="102" x="330" y="374.9156"/><text fill="#000000" font-family="sans-serif" font-size="8.4" lengthAdjust="spacing" textLength="93" x="334.5" y="388.1801">registedSkillsRepository:</text><text fill="#000000" font-family="sans-serif" font-size="8.4" lengthAdjust="spacing" textLength="93.6" x="334.2" y="399.3527">RegistedSkillsRepository</text><rect fill="#FFFFFF" height="302.7703" style="stroke:#181818;stroke-width:0.6;" width="6" x="45.6" y="67.3453"/><rect fill="#FFFFFF" height="89.673" style="stroke:#181818;stroke-width:0.6;" width="6" x="184.2" y="81.3199"/><rect fill="#FFFFFF" height="137.3988" style="stroke:#181818;stroke-width:0.6;" width="6" x="184.2" y="189.7676"/><rect fill="#FFFFFF" height="18.7746" style="stroke:#181818;stroke-width:0.6;" width="6" x="184.2" y="345.941"/><rect fill="#FFFFFF" height="64.8984" style="stroke:#181818;stroke-width:0.6;" width="6" x="275.4" y="106.0945"/><rect fill="#FFFFFF" height="89.475" style="stroke:#181818;stroke-width:0.6;" width="6" x="275.4" y="208.5422"/><rect fill="#FFFFFF" height="51.9258" style="stroke:#181818;stroke-width:0.6;" width="6" x="378" y="227.3168"/><polygon fill="#181818" points="177,78.9199,183,81.3199,177,83.7199,179.4,81.3199" style="stroke:#181818;stroke-width:0.6;"/><line style="stroke:#181818;stroke-width:0.6;" x1="51.6" x2="180.6" y1="81.3199" y2="81.3199"/><text fill="#000000" font-family="sans-serif" font-size="7.8" font-weight="bold" lengthAdjust="spacing" textLength="4.2" x="55.8" y="78.1623">1</text><text fill="#000000" font-family="sans-serif" font-size="7.8" lengthAdjust="spacing" textLength="86.4" x="62.4" y="78.1623">asks to regist a new skill</text><polygon fill="#181818" points="225.6,97.6945,231.6,100.0945,225.6,102.4945,228,100.0945" style="stroke:#181818;stroke-width:0.6;"/><line style="stroke:#181818;stroke-width:0.6;" x1="190.2" x2="229.2" y1="100.0945" y2="100.0945"/><text fill="#000000" font-family="sans-serif" font-size="7.8" font-weight="bold" lengthAdjust="spacing" textLength="4.2" x="194.4" y="96.9369">2</text><text fill="#000000" font-family="sans-serif" font-size="7.8" lengthAdjust="spacing" textLength="21.6" x="201" y="96.9369">create</text><rect fill="#E3E3E3" height="19.5727" rx="1.5" ry="1.5" style="stroke:#181818;stroke-width:0.3;" width="91.2" x="232.8" y="86.1199"/><text fill="#000000" font-family="sans-serif" font-size="8.4" lengthAdjust="spacing" textLength="82.8" x="237" y="99.3844">:RegistSkillsController</text><rect fill="none" height="25.9512" style="stroke:#000000;stroke-width:0.8999999999999999;" width="105" x="231" y="112.2926"/><path d="M231,112.2926 L268.2,112.2926 L268.2,117.6926 L262.2,123.6926 L231,123.6926 L231,112.2926 " fill="#EEEEEE" style="stroke:#000000;stroke-width:1.2;"/><text fill="#000000" font-family="sans-serif" font-size="7.8" font-weight="bold" lengthAdjust="spacing" textLength="10.2" x="238.8" y="121.9096">ref</text><text fill="#000000" font-family="sans-serif" font-size="7.2" lengthAdjust="spacing" textLength="100.2" x="233.4" y="133.8621">Get Registed Skills Repository</text><path d="M6,145.4438 L49.8,145.4438 L49.8,151.0184 L43.8,157.0184 L6,157.0184 L6,145.4438 " fill="#EEEEEE" style="stroke:#000000;stroke-width:0.8999999999999999;"/><rect fill="none" height="115.6242" style="stroke:#000000;stroke-width:0.8999999999999999;" width="432" x="6" y="145.4438"/><text fill="#000000" font-family="sans-serif" font-size="7.8" font-weight="bold" lengthAdjust="spacing" textLength="16.8" x="15" y="154.4607">loop</text><text fill="#000000" font-family="sans-serif" font-size="6.6" font-weight="bold" lengthAdjust="spacing" textLength="54" x="58.8" y="153.7658">[while intended]</text><polygon fill="#181818" points="58.2,168.593,52.2,170.993,58.2,173.393,55.8,170.993" style="stroke:#181818;stroke-width:0.6;"/><line style="stroke:#181818;stroke-width:0.6;stroke-dasharray:2.0,2.0;" x1="54.6" x2="186.6" y1="170.993" y2="170.993"/><text fill="#000000" font-family="sans-serif" font-size="7.8" font-weight="bold" lengthAdjust="spacing" textLength="4.2" x="61.8" y="167.8354">7</text><text fill="#000000" font-family="sans-serif" font-size="7.8" lengthAdjust="spacing" textLength="81" x="68.4" y="167.8354">requests the skill name</text><polygon fill="#181818" points="177,187.3676,183,189.7676,177,192.1676,179.4,189.7676" style="stroke:#181818;stroke-width:0.6;"/><line style="stroke:#181818;stroke-width:0.6;" x1="51.6" x2="180.6" y1="189.7676" y2="189.7676"/><text fill="#000000" font-family="sans-serif" font-size="7.8" font-weight="bold" lengthAdjust="spacing" textLength="4.2" x="55.8" y="186.61">8</text><text fill="#000000" font-family="sans-serif" font-size="7.8" lengthAdjust="spacing" textLength="86.4" x="62.4" y="186.61">types the new skill name</text><polygon fill="#181818" points="268.2,206.1422,274.2,208.5422,268.2,210.9422,270.6,208.5422" style="stroke:#181818;stroke-width:0.6;"/><line style="stroke:#181818;stroke-width:0.6;" x1="190.2" x2="271.8" y1="208.5422" y2="208.5422"/><text fill="#000000" font-family="sans-serif" font-size="7.8" font-weight="bold" lengthAdjust="spacing" textLength="4.2" x="194.4" y="205.3846">9</text><text fill="#000000" font-family="sans-serif" font-size="7.8" lengthAdjust="spacing" textLength="21.6" x="201" y="205.3846">create</text><polygon fill="#181818" points="370.8,224.9168,376.8,227.3168,370.8,229.7168,373.2,227.3168" style="stroke:#181818;stroke-width:0.6;"/><line style="stroke:#181818;stroke-width:0.6;" x1="281.4" x2="374.4" y1="227.3168" y2="227.3168"/><text fill="#000000" font-family="sans-serif" font-size="7.8" font-weight="bold" lengthAdjust="spacing" textLength="8.4" x="285.6" y="224.1592">10</text><text fill="#000000" font-family="sans-serif" font-size="7.8" lengthAdjust="spacing" textLength="36.6" x="296.4" y="224.1592">createSkill</text><rect fill="none" height="25.9512" style="stroke:#000000;stroke-width:0.8999999999999999;" width="105.6" x="328.2" y="232.1168"/><path d="M328.2,232.1168 L365.4,232.1168 L365.4,237.5168 L359.4,243.5168 L328.2,243.5168 L328.2,232.1168 " fill="#EEEEEE" style="stroke:#000000;stroke-width:1.2;"/><text fill="#000000" font-family="sans-serif" font-size="7.8" font-weight="bold" lengthAdjust="spacing" textLength="10.2" x="336" y="241.7338">ref</text><text fill="#000000" font-family="sans-serif" font-size="7.2" lengthAdjust="spacing" textLength="76.8" x="342.6" y="253.6863">Get Registed Skills List</text><polygon fill="#181818" points="288,276.8426,282,279.2426,288,281.6426,285.6,279.2426" style="stroke:#181818;stroke-width:0.6;"/><line style="stroke:#181818;stroke-width:0.6;stroke-dasharray:2.0,2.0;" x1="284.4" x2="380.4" y1="279.2426" y2="279.2426"/><text fill="#000000" font-family="sans-serif" font-size="7.8" font-weight="bold" lengthAdjust="spacing" textLength="8.4" x="291.6" y="276.085">11</text><text fill="#000000" font-family="sans-serif" font-size="7.8" lengthAdjust="spacing" textLength="59.4" x="302.4" y="276.085">registedSkillsList</text><polygon fill="#181818" points="196.8,295.6172,190.8,298.0172,196.8,300.4172,194.4,298.0172" style="stroke:#181818;stroke-width:0.6;"/><line style="stroke:#181818;stroke-width:0.6;stroke-dasharray:2.0,2.0;" x1="193.2" x2="277.8" y1="298.0172" y2="298.0172"/><text fill="#000000" font-family="sans-serif" font-size="7.8" font-weight="bold" lengthAdjust="spacing" textLength="8.4" x="200.4" y="294.8596">12</text><text fill="#000000" font-family="sans-serif" font-size="7.8" lengthAdjust="spacing" textLength="59.4" x="211.2" y="294.8596">registedSkillsList</text><polygon fill="#181818" points="58.2,324.7664,52.2,327.1664,58.2,329.5664,55.8,327.1664" style="stroke:#181818;stroke-width:0.6;"/><line style="stroke:#181818;stroke-width:0.6;stroke-dasharray:2.0,2.0;" x1="54.6" x2="186.6" y1="327.1664" y2="327.1664"/><text fill="#000000" font-family="sans-serif" font-size="7.8" font-weight="bold" lengthAdjust="spacing" textLength="8.4" x="61.8" y="318.8215">13</text><text fill="#000000" font-family="sans-serif" font-size="7.8" lengthAdjust="spacing" textLength="91.8" x="72.6" y="313.6342">show all the skills registed</text><text fill="#000000" font-family="sans-serif" font-size="7.8" lengthAdjust="spacing" textLength="64.2" x="75" y="324.0088">and aks to confirm</text><polygon fill="#181818" points="177,343.541,183,345.941,177,348.341,179.4,345.941" style="stroke:#181818;stroke-width:0.6;"/><line style="stroke:#181818;stroke-width:0.6;" x1="51.6" x2="180.6" y1="345.941" y2="345.941"/><text fill="#000000" font-family="sans-serif" font-size="7.8" font-weight="bold" lengthAdjust="spacing" textLength="8.4" x="55.8" y="342.7834">14</text><text fill="#000000" font-family="sans-serif" font-size="7.8" lengthAdjust="spacing" textLength="110.4" x="66.6" y="342.7834">confirm the set of skills registed</text><polygon fill="#181818" points="58.2,362.3156,52.2,364.7156,58.2,367.1156,55.8,364.7156" style="stroke:#181818;stroke-width:0.6;"/><line style="stroke:#181818;stroke-width:0.6;stroke-dasharray:2.0,2.0;" x1="54.6" x2="186.6" y1="364.7156" y2="364.7156"/><text fill="#000000" font-family="sans-serif" font-size="7.8" font-weight="bold" lengthAdjust="spacing" textLength="8.4" x="61.8" y="361.558">15</text><text fill="#000000" font-family="sans-serif" font-size="7.8" lengthAdjust="spacing" textLength="94.8" x="72.6" y="361.558">displays operation success</text><!--SRC=[VLInSjim3Dtv5JYFkSlGgNSUkcHeSfSiIhDvGId8ubaYL8AAptzVYBHfIQsYGISI3m_l0R3bvFo00NlesRDj0_S4COnaf4G6j2SyqdkyT0I1R4H_xEO0QR7ci_D7QB0JCWPjv02xvx573nK9Zy6I7FmRUYKAEq21v-hDQ7fqrWte8-ps5HsTnFUJwphvU4cWZvSlC4_iO-2kkn8-_QfUb-YGm5HdU4K3YrDXb_t1LnkXnBGLL6DZP3_slod0jsJJVMAavCM0Fle1ZpzKDkoLw2GG6R8AGF1q1faexudgB-LfWgPD3XuUDDK6qkYiGF9c0ZN0drex7QUydnIBMiXoOQQNVAtb6sDgMb5rp0ESMwSJTJugZkgiPERmUxguoLDzaxkz4luPIQ9wQodx0Oyz9V2wpkfExKutzzUyN_4oK2OjZReJhocMJIiTMq2pqnjwEatuhU6MjgV0acbx8IPO6SicxARXV-DwrLC2b67fXp6RCX-ldjCavfX4D6lsjkZSYblVlsR9JLmiWBHy1jJfb0MGGdBmWEe3y-fRzeqB_R_xjzm9Cr-3Qqucrtvniwwn_FaifDLEXWul0ZnGmEZOWunM_tjaNV8l]--></g></svg>