<?xml version="1.0" encoding="us-ascii" standalone="no"?><svg xmlns="http://www.w3.org/2000/svg" xmlns:xlink="http://www.w3.org/1999/xlink" contentStyleType="text/css" height="544px" preserveAspectRatio="none" style="width:401px;height:544px;background:#FFFFFF;" version="1.1" viewBox="0 0 401 544" width="401px" zoomAndPan="magnify"><defs/><g><rect fill="#FFFFFF" height="379.5703" style="stroke:#181818;stroke-width:1.0;" width="10" x="90" y="90.5332"/><rect fill="#FFFFFF" height="133.8242" style="stroke:#181818;stroke-width:1.0;" width="10" x="240" y="158.1152"/><rect fill="none" height="334.2793" style="stroke:#000000;stroke-width:1.5;" width="368" x="27" y="105.5332"/><line style="stroke:#181818;stroke-width:0.5;stroke-dasharray:5.0,5.0;" x1="95" x2="95" y1="57.2422" y2="488.1035"/><line style="stroke:#181818;stroke-width:0.5;stroke-dasharray:5.0,5.0;" x1="244.5" x2="244.5" y1="165.9453" y2="488.1035"/><rect fill="#E3E3E3" height="51.2422" rx="2.5" ry="2.5" style="stroke:#181818;stroke-width:0.5;" width="116" x="37" y="5"/><text fill="#000000" font-family="sans-serif" font-size="14" lengthAdjust="spacing" textLength="102" x="44" y="27.1074">skillsRepository:</text><text fill="#000000" font-family="sans-serif" font-size="14" lengthAdjust="spacing" textLength="100" x="45" y="45.7285">SkillsRepository</text><rect fill="#E3E3E3" height="51.2422" rx="2.5" ry="2.5" style="stroke:#181818;stroke-width:0.5;" width="116" x="37" y="487.1035"/><text fill="#000000" font-family="sans-serif" font-size="14" lengthAdjust="spacing" textLength="102" x="44" y="509.2109">skillsRepository:</text><text fill="#000000" font-family="sans-serif" font-size="14" lengthAdjust="spacing" textLength="100" x="45" y="527.832">SkillsRepository</text><rect fill="#E3E3E3" height="51.2422" rx="2.5" ry="2.5" style="stroke:#181818;stroke-width:0.5;" width="49" x="220.5" y="487.1035"/><text fill="#000000" font-family="sans-serif" font-size="14" lengthAdjust="spacing" textLength="35" x="227.5" y="509.2109">name</text><text fill="#000000" font-family="sans-serif" font-size="14" lengthAdjust="spacing" textLength="29" x="230.5" y="527.832">:Skill</text><rect fill="#FFFFFF" height="379.5703" style="stroke:#181818;stroke-width:1.0;" width="10" x="90" y="90.5332"/><rect fill="#FFFFFF" height="133.8242" style="stroke:#181818;stroke-width:1.0;" width="10" x="240" y="158.1152"/><polygon fill="#181818" points="78,86.5332,88,90.5332,78,94.5332,82,90.5332" style="stroke:#181818;stroke-width:1.0;"/><line style="stroke:#181818;stroke-width:1.0;" x1="0" x2="84" y1="90.5332" y2="90.5332"/><text fill="#000000" font-family="sans-serif" font-size="13" font-weight="bold" lengthAdjust="spacing" textLength="14" x="7" y="85.2705">10</text><text fill="#000000" font-family="sans-serif" font-size="13" lengthAdjust="spacing" textLength="36" x="25" y="85.2705">create</text><path d="M27,105.5332 L146,105.5332 L146,114.8242 L136,124.8242 L27,124.8242 L27,105.5332 " fill="#EEEEEE" style="stroke:#000000;stroke-width:1.5;"/><rect fill="none" height="334.2793" style="stroke:#000000;stroke-width:1.5;" width="368" x="27" y="105.5332"/><text fill="#000000" font-family="sans-serif" font-size="13" font-weight="bold" lengthAdjust="spacing" textLength="74" x="42" y="120.5615">Create Skill</text><polygon fill="#181818" points="208.5,144.1152,218.5,148.1152,208.5,152.1152,212.5,148.1152" style="stroke:#181818;stroke-width:1.0;"/><line style="stroke:#181818;stroke-width:1.0;" x1="100" x2="214.5" y1="148.1152" y2="148.1152"/><text fill="#000000" font-family="sans-serif" font-size="13" font-weight="bold" lengthAdjust="spacing" textLength="14" x="107" y="142.8525">11</text><text fill="#000000" font-family="sans-serif" font-size="13" lengthAdjust="spacing" textLength="36" x="125" y="142.8525">create</text><rect fill="#E3E3E3" height="51.2422" rx="2.5" ry="2.5" style="stroke:#181818;stroke-width:0.5;" width="49" x="220.5" y="124.8242"/><text fill="#000000" font-family="sans-serif" font-size="14" lengthAdjust="spacing" textLength="35" x="227.5" y="146.9316">name</text><text fill="#000000" font-family="sans-serif" font-size="14" lengthAdjust="spacing" textLength="29" x="230.5" y="165.5527">:Skill</text><line style="stroke:#181818;stroke-width:1.0;" x1="250" x2="292" y1="210.3574" y2="210.3574"/><line style="stroke:#181818;stroke-width:1.0;" x1="292" x2="292" y1="210.3574" y2="223.3574"/><line style="stroke:#181818;stroke-width:1.0;" x1="251" x2="292" y1="223.3574" y2="223.3574"/><polygon fill="#181818" points="261,219.3574,251,223.3574,261,227.3574,257,223.3574" style="stroke:#181818;stroke-width:1.0;"/><text fill="#000000" font-family="sans-serif" font-size="13" font-weight="bold" lengthAdjust="spacing" textLength="14" x="257" y="205.0947">12</text><text fill="#000000" font-family="sans-serif" font-size="13" lengthAdjust="spacing" textLength="108" x="275" y="205.0947">validateSkill(name)</text><polygon fill="#181818" points="111,250.6484,101,254.6484,111,258.6484,107,254.6484" style="stroke:#181818;stroke-width:1.0;"/><line style="stroke:#181818;stroke-width:1.0;stroke-dasharray:2.0,2.0;" x1="105" x2="239" y1="254.6484" y2="254.6484"/><text fill="#000000" font-family="sans-serif" font-size="13" font-weight="bold" lengthAdjust="spacing" textLength="14" x="117" y="249.3857">13</text><text fill="#000000" font-family="sans-serif" font-size="13" lengthAdjust="spacing" textLength="32" x="135" y="249.3857">name</text><line style="stroke:#181818;stroke-width:1.0;" x1="100" x2="142" y1="290.9395" y2="290.9395"/><line style="stroke:#181818;stroke-width:1.0;" x1="142" x2="142" y1="290.9395" y2="303.9395"/><line style="stroke:#181818;stroke-width:1.0;" x1="95" x2="142" y1="303.9395" y2="303.9395"/><polygon fill="#181818" points="105,299.9395,95,303.9395,105,307.9395,101,303.9395" style="stroke:#181818;stroke-width:1.0;"/><text fill="#000000" font-family="sans-serif" font-size="13" font-weight="bold" lengthAdjust="spacing" textLength="14" x="107" y="285.6768">14</text><text fill="#000000" font-family="sans-serif" font-size="13" lengthAdjust="spacing" textLength="108" x="125" y="285.6768">validateSkill(name)</text><line style="stroke:#181818;stroke-width:1.0;" x1="100" x2="142" y1="330.2305" y2="330.2305"/><line style="stroke:#181818;stroke-width:1.0;" x1="142" x2="142" y1="330.2305" y2="343.2305"/><line style="stroke:#181818;stroke-width:1.0;" x1="101" x2="142" y1="343.2305" y2="343.2305"/><polygon fill="#181818" points="111,339.2305,101,343.2305,111,347.2305,107,343.2305" style="stroke:#181818;stroke-width:1.0;"/><text fill="#000000" font-family="sans-serif" font-size="13" font-weight="bold" lengthAdjust="spacing" textLength="14" x="107" y="324.9678">15</text><text fill="#000000" font-family="sans-serif" font-size="13" lengthAdjust="spacing" textLength="86" x="125" y="324.9678">addSkill(name)</text><line style="stroke:#181818;stroke-width:1.0;" x1="100" x2="142" y1="374.5215" y2="374.5215"/><line style="stroke:#181818;stroke-width:1.0;" x1="142" x2="142" y1="374.5215" y2="387.5215"/><line style="stroke:#181818;stroke-width:1.0;" x1="101" x2="142" y1="387.5215" y2="387.5215"/><polygon fill="#181818" points="111,383.5215,101,387.5215,111,391.5215,107,387.5215" style="stroke:#181818;stroke-width:1.0;"/><text fill="#000000" font-family="sans-serif" font-size="13" font-weight="bold" lengthAdjust="spacing" textLength="14" x="107" y="369.2588">16</text><text fill="#000000" font-family="sans-serif" font-size="13" lengthAdjust="spacing" textLength="53" x="125" y="369.2588">true/false</text><line style="stroke:#181818;stroke-width:1.0;" x1="100" x2="142" y1="418.8125" y2="418.8125"/><line style="stroke:#181818;stroke-width:1.0;" x1="142" x2="142" y1="418.8125" y2="431.8125"/><line style="stroke:#181818;stroke-width:1.0;" x1="101" x2="142" y1="431.8125" y2="431.8125"/><polygon fill="#181818" points="111,427.8125,101,431.8125,111,435.8125,107,431.8125" style="stroke:#181818;stroke-width:1.0;"/><text fill="#000000" font-family="sans-serif" font-size="13" font-weight="bold" lengthAdjust="spacing" textLength="14" x="107" y="413.5498">17</text><text fill="#000000" font-family="sans-serif" font-size="13" lengthAdjust="spacing" textLength="53" x="125" y="413.5498">true/false</text><polygon fill="#181818" points="11,466.1035,1,470.1035,11,474.1035,7,470.1035" style="stroke:#181818;stroke-width:1.0;"/><line style="stroke:#181818;stroke-width:1.0;stroke-dasharray:2.0,2.0;" x1="5" x2="94" y1="470.1035" y2="470.1035"/><text fill="#000000" font-family="sans-serif" font-size="13" font-weight="bold" lengthAdjust="spacing" textLength="14" x="17" y="464.8408">18</text><text fill="#000000" font-family="sans-serif" font-size="13" lengthAdjust="spacing" textLength="53" x="35" y="464.8408">SkillsList</text><!--SRC=[fL9DJmCX4BtpAoOzrIORwvKOayReoLFhiPSHnYqf2njWQ_hlPI6k5LPZT4xayJvc9kEFolJei8FE6YiEpdO4mGt4_FJJepXYIxjmrWIEH43Jwak2Fw2qRygqy8hQ4sCH3age7as0HUHfxRVKMw-2TMU-Dxi2MW1wAC6lBWOxsXkUI8d-lDa-F6uOmo5OCtGlvE1cpPgxoeU3S8GXjeKYg5DyrL4GgtLswE4-SJE39NoiKW0n9pUmMat-KDGKzz5gISZufnU74sebeoJbBSUPhxwNpSmA74PH9PdhlzxJN7hf9AaSwszPAELFCRyp6G_rEj_SlmsI0ncP7xTDCxVS33qf7nYxs4HrJ-mT]--></g></svg>