<?xml version="1.0" encoding="us-ascii" standalone="no"?><svg xmlns="http://www.w3.org/2000/svg" xmlns:xlink="http://www.w3.org/1999/xlink" contentStyleType="text/css" height="530.6px" preserveAspectRatio="none" style="width:538px;height:530px;background:#FFFFFF;" version="1.1" viewBox="0 0 538 530" width="538.3px" zoomAndPan="magnify"><defs/><g><rect fill="#FFFFFF" height="375.1357" style="stroke:#181818;stroke-width:0.6999999999999998;" width="7" x="53.2" y="78.5695"/><rect fill="#FFFFFF" height="126.5223" style="stroke:#181818;stroke-width:0.6999999999999998;" width="7" x="214.9" y="94.8732"/><rect fill="#FFFFFF" height="160.2986" style="stroke:#181818;stroke-width:0.6999999999999998;" width="7" x="214.9" y="243.2992"/><rect fill="#FFFFFF" height="21.9037" style="stroke:#181818;stroke-width:0.6999999999999998;" width="7" x="214.9" y="425.5016"/><rect fill="#FFFFFF" height="57.3111" style="stroke:#181818;stroke-width:0.6999999999999998;" width="7" x="344.4" y="123.777"/><rect fill="#FFFFFF" height="104.3875" style="stroke:#181818;stroke-width:0.6999999999999998;" width="7" x="344.4" y="265.2029"/><rect fill="#FFFFFF" height="60.5801" style="stroke:#181818;stroke-width:0.6999999999999998;" width="7" x="464.1" y="287.1066"/><rect fill="none" height="134.8949" style="stroke:#000000;stroke-width:1.0499999999999998;" width="527.1" x="7" y="191.5881"/><line style="stroke:#181818;stroke-width:0.3499999999999999;stroke-dasharray:5.0,5.0;" x1="56.7" x2="56.7" y1="71.5695" y2="460.0053"/><line style="stroke:#181818;stroke-width:0.3499999999999999;stroke-dasharray:5.0,5.0;" x1="218.4" x2="218.4" y1="71.5695" y2="460.0053"/><line style="stroke:#181818;stroke-width:0.3499999999999999;stroke-dasharray:5.0,5.0;" x1="347.9" x2="347.9" y1="122.7406" y2="460.0053"/><line style="stroke:#181818;stroke-width:0.3499999999999999;stroke-dasharray:5.0,5.0;" x1="467.6" x2="467.6" y1="71.5695" y2="460.0053"/><text fill="#000000" font-family="sans-serif" font-size="9.8" lengthAdjust="spacing" textLength="81.2" x="14" y="56.0752">Human Resources</text><text fill="#000000" font-family="sans-serif" font-size="9.8" lengthAdjust="spacing" textLength="39.2" x="35" y="69.11">Manager</text><ellipse cx="56.7" cy="9.45" fill="#E3E3E3" rx="5.6" ry="5.6" style="stroke:#181818;stroke-width:0.3499999999999999;"/><path d="M56.7,15.05 L56.7,33.95 M47.6,20.65 L65.8,20.65 M56.7,33.95 L47.6,44.45 M56.7,33.95 L65.8,44.45 " fill="none" style="stroke:#181818;stroke-width:0.3499999999999999;"/><text fill="#000000" font-family="sans-serif" font-size="9.8" lengthAdjust="spacing" textLength="81.2" x="14" y="469.8805">Human Resources</text><text fill="#000000" font-family="sans-serif" font-size="9.8" lengthAdjust="spacing" textLength="39.2" x="35" y="482.9152">Manager</text><ellipse cx="56.7" cy="491.3248" fill="#E3E3E3" rx="5.6" ry="5.6" style="stroke:#181818;stroke-width:0.3499999999999999;"/><path d="M56.7,496.9248 L56.7,515.8248 M47.6,502.5248 L65.8,502.5248 M56.7,515.8248 L47.6,526.3248 M56.7,515.8248 L65.8,526.3248 " fill="none" style="stroke:#181818;stroke-width:0.3499999999999999;"/><rect fill="#E3E3E3" height="22.8348" rx="1.75" ry="1.75" style="stroke:#181818;stroke-width:0.3499999999999999;" width="71.4" x="182.7" y="48.0348"/><text fill="#000000" font-family="sans-serif" font-size="9.8" lengthAdjust="spacing" textLength="61.6" x="187.6" y="63.51">:RegistSkillsUI</text><rect fill="#E3E3E3" height="22.8348" rx="1.75" ry="1.75" style="stroke:#181818;stroke-width:0.3499999999999999;" width="71.4" x="182.7" y="459.3053"/><text fill="#000000" font-family="sans-serif" font-size="9.8" lengthAdjust="spacing" textLength="61.6" x="187.6" y="474.7805">:RegistSkillsUI</text><rect fill="#E3E3E3" height="22.8348" rx="1.75" ry="1.75" style="stroke:#181818;stroke-width:0.3499999999999999;" width="106.4" x="294.7" y="459.3053"/><text fill="#000000" font-family="sans-serif" font-size="9.8" lengthAdjust="spacing" textLength="96.6" x="299.6" y="474.7805">:RegistSkillsController</text><rect fill="#E3E3E3" height="35.8695" rx="1.75" ry="1.75" style="stroke:#181818;stroke-width:0.3499999999999999;" width="119" x="408.1" y="35"/><text fill="#000000" font-family="sans-serif" font-size="9.8" lengthAdjust="spacing" textLength="108.5" x="413.35" y="50.4752">registedSkillsRepository:</text><text fill="#000000" font-family="sans-serif" font-size="9.8" lengthAdjust="spacing" textLength="109.2" x="413" y="63.51">RegistedSkillsRepository</text><rect fill="#E3E3E3" height="35.8695" rx="1.75" ry="1.75" style="stroke:#181818;stroke-width:0.3499999999999999;" width="119" x="408.1" y="459.3053"/><text fill="#000000" font-family="sans-serif" font-size="9.8" lengthAdjust="spacing" textLength="108.5" x="413.35" y="474.7805">registedSkillsRepository:</text><text fill="#000000" font-family="sans-serif" font-size="9.8" lengthAdjust="spacing" textLength="109.2" x="413" y="487.8152">RegistedSkillsRepository</text><rect fill="#FFFFFF" height="375.1357" style="stroke:#181818;stroke-width:0.6999999999999998;" width="7" x="53.2" y="78.5695"/><rect fill="#FFFFFF" height="126.5223" style="stroke:#181818;stroke-width:0.6999999999999998;" width="7" x="214.9" y="94.8732"/><rect fill="#FFFFFF" height="160.2986" style="stroke:#181818;stroke-width:0.6999999999999998;" width="7" x="214.9" y="243.2992"/><rect fill="#FFFFFF" height="21.9037" style="stroke:#181818;stroke-width:0.6999999999999998;" width="7" x="214.9" y="425.5016"/><rect fill="#FFFFFF" height="57.3111" style="stroke:#181818;stroke-width:0.6999999999999998;" width="7" x="344.4" y="123.777"/><rect fill="#FFFFFF" height="104.3875" style="stroke:#181818;stroke-width:0.6999999999999998;" width="7" x="344.4" y="265.2029"/><rect fill="#FFFFFF" height="60.5801" style="stroke:#181818;stroke-width:0.6999999999999998;" width="7" x="464.1" y="287.1066"/><polygon fill="#181818" points="206.5,92.0732,213.5,94.8732,206.5,97.6732,209.3,94.8732" style="stroke:#181818;stroke-width:0.6999999999999998;"/><line style="stroke:#181818;stroke-width:0.6999999999999998;" x1="60.2" x2="210.7" y1="94.8732" y2="94.8732"/><text fill="#000000" font-family="sans-serif" font-size="9.1" font-weight="bold" lengthAdjust="spacing" textLength="4.9" x="65.1" y="91.1894">1</text><text fill="#000000" font-family="sans-serif" font-size="9.1" lengthAdjust="spacing" textLength="100.8" x="72.8" y="91.1894">asks to regist a new skill</text><polygon fill="#181818" points="286.3,113.977,293.3,116.777,286.3,119.577,289.1,116.777" style="stroke:#181818;stroke-width:0.6999999999999998;"/><line style="stroke:#181818;stroke-width:0.6999999999999998;" x1="221.9" x2="290.5" y1="116.777" y2="116.777"/><text fill="#000000" font-family="sans-serif" font-size="9.1" font-weight="bold" lengthAdjust="spacing" textLength="4.9" x="226.8" y="113.0931">2</text><text fill="#000000" font-family="sans-serif" font-size="9.1" lengthAdjust="spacing" textLength="25.2" x="234.5" y="113.0931">create</text><rect fill="#E3E3E3" height="22.8348" rx="1.75" ry="1.75" style="stroke:#181818;stroke-width:0.3499999999999999;" width="106.4" x="294.7" y="100.4732"/><text fill="#000000" font-family="sans-serif" font-size="9.8" lengthAdjust="spacing" textLength="96.6" x="299.6" y="115.9484">:RegistSkillsController</text><rect fill="none" height="30.2764" style="stroke:#000000;stroke-width:1.0499999999999998;" width="122.5" x="292.6" y="131.008"/><path d="M292.6,131.008 L336,131.008 L336,137.308 L329,144.308 L292.6,144.308 L292.6,131.008 " fill="#EEEEEE" style="stroke:#000000;stroke-width:1.3999999999999997;"/><text fill="#000000" font-family="sans-serif" font-size="9.1" font-weight="bold" lengthAdjust="spacing" textLength="11.9" x="301.7" y="142.2278">ref</text><text fill="#000000" font-family="sans-serif" font-size="8.4" lengthAdjust="spacing" textLength="116.9" x="295.4" y="156.1725">Get Registed Skills Repository</text><polygon fill="#181818" points="229.6,178.2881,222.6,181.0881,229.6,183.8881,226.8,181.0881" style="stroke:#181818;stroke-width:0.6999999999999998;"/><line style="stroke:#181818;stroke-width:0.6999999999999998;stroke-dasharray:2.0,2.0;" x1="225.4" x2="347.2" y1="181.0881" y2="181.0881"/><text fill="#000000" font-family="sans-serif" font-size="9.1" font-weight="bold" lengthAdjust="spacing" textLength="4.9" x="233.8" y="177.4042">3</text><text fill="#000000" font-family="sans-serif" font-size="9.1" lengthAdjust="spacing" textLength="98" x="241.5" y="177.4042">registedSkillsRepository</text><path d="M7,191.5881 L58.1,191.5881 L58.1,198.0918 L51.1,205.0918 L7,205.0918 L7,191.5881 " fill="#EEEEEE" style="stroke:#000000;stroke-width:1.0499999999999998;"/><rect fill="none" height="134.8949" style="stroke:#000000;stroke-width:1.0499999999999998;" width="527.1" x="7" y="191.5881"/><text fill="#000000" font-family="sans-serif" font-size="9.1" font-weight="bold" lengthAdjust="spacing" textLength="19.6" x="17.5" y="202.1079">loop</text><text fill="#000000" font-family="sans-serif" font-size="7.7" font-weight="bold" lengthAdjust="spacing" textLength="63" x="68.6" y="201.2972">[while intended]</text><polygon fill="#181818" points="67.9,218.5955,60.9,221.3955,67.9,224.1955,65.1,221.3955" style="stroke:#181818;stroke-width:0.6999999999999998;"/><line style="stroke:#181818;stroke-width:0.6999999999999998;stroke-dasharray:2.0,2.0;" x1="63.7" x2="217.7" y1="221.3955" y2="221.3955"/><text fill="#000000" font-family="sans-serif" font-size="9.1" font-weight="bold" lengthAdjust="spacing" textLength="4.9" x="72.1" y="217.7116">4</text><text fill="#000000" font-family="sans-serif" font-size="9.1" lengthAdjust="spacing" textLength="94.5" x="79.8" y="217.7116">requests the skill name</text><polygon fill="#181818" points="206.5,240.4992,213.5,243.2992,206.5,246.0992,209.3,243.2992" style="stroke:#181818;stroke-width:0.6999999999999998;"/><line style="stroke:#181818;stroke-width:0.6999999999999998;" x1="60.2" x2="210.7" y1="243.2992" y2="243.2992"/><text fill="#000000" font-family="sans-serif" font-size="9.1" font-weight="bold" lengthAdjust="spacing" textLength="4.9" x="65.1" y="239.6153">5</text><text fill="#000000" font-family="sans-serif" font-size="9.1" lengthAdjust="spacing" textLength="100.8" x="72.8" y="239.6153">types the new skill name</text><polygon fill="#181818" points="336,262.4029,343,265.2029,336,268.0029,338.8,265.2029" style="stroke:#181818;stroke-width:0.6999999999999998;"/><line style="stroke:#181818;stroke-width:0.6999999999999998;" x1="221.9" x2="340.2" y1="265.2029" y2="265.2029"/><text fill="#000000" font-family="sans-serif" font-size="9.1" font-weight="bold" lengthAdjust="spacing" textLength="4.9" x="226.8" y="261.519">6</text><text fill="#000000" font-family="sans-serif" font-size="9.1" lengthAdjust="spacing" textLength="42.7" x="234.5" y="261.519">createSkill</text><polygon fill="#181818" points="455.7,284.3066,462.7,287.1066,455.7,289.9066,458.5,287.1066" style="stroke:#181818;stroke-width:0.6999999999999998;"/><line style="stroke:#181818;stroke-width:0.6999999999999998;" x1="351.4" x2="459.9" y1="287.1066" y2="287.1066"/><text fill="#000000" font-family="sans-serif" font-size="9.1" font-weight="bold" lengthAdjust="spacing" textLength="4.9" x="356.3" y="283.4228">7</text><text fill="#000000" font-family="sans-serif" font-size="9.1" lengthAdjust="spacing" textLength="42.7" x="364" y="283.4228">createSkill</text><rect fill="none" height="30.2764" style="stroke:#000000;stroke-width:1.0499999999999998;" width="123.2" x="406" y="292.7066"/><path d="M406,292.7066 L449.4,292.7066 L449.4,299.0066 L442.4,306.0066 L406,306.0066 L406,292.7066 " fill="#EEEEEE" style="stroke:#000000;stroke-width:1.3999999999999997;"/><text fill="#000000" font-family="sans-serif" font-size="9.1" font-weight="bold" lengthAdjust="spacing" textLength="11.9" x="415.1" y="303.9265">ref</text><text fill="#000000" font-family="sans-serif" font-size="8.4" lengthAdjust="spacing" textLength="89.6" x="422.8" y="317.8711">Get Registed Skills List</text><polygon fill="#181818" points="359.1,344.8867,352.1,347.6867,359.1,350.4867,356.3,347.6867" style="stroke:#181818;stroke-width:0.6999999999999998;"/><line style="stroke:#181818;stroke-width:0.6999999999999998;stroke-dasharray:2.0,2.0;" x1="354.9" x2="466.9" y1="347.6867" y2="347.6867"/><text fill="#000000" font-family="sans-serif" font-size="9.1" font-weight="bold" lengthAdjust="spacing" textLength="4.9" x="363.3" y="344.0028">8</text><text fill="#000000" font-family="sans-serif" font-size="9.1" lengthAdjust="spacing" textLength="69.3" x="371" y="344.0028">registedSkillsList</text><polygon fill="#181818" points="229.6,366.7904,222.6,369.5904,229.6,372.3904,226.8,369.5904" style="stroke:#181818;stroke-width:0.6999999999999998;"/><line style="stroke:#181818;stroke-width:0.6999999999999998;stroke-dasharray:2.0,2.0;" x1="225.4" x2="347.2" y1="369.5904" y2="369.5904"/><text fill="#000000" font-family="sans-serif" font-size="9.1" font-weight="bold" lengthAdjust="spacing" textLength="4.9" x="233.8" y="365.9065">9</text><text fill="#000000" font-family="sans-serif" font-size="9.1" lengthAdjust="spacing" textLength="69.3" x="241.5" y="365.9065">registedSkillsList</text><polygon fill="#181818" points="67.9,400.7979,60.9,403.5979,67.9,406.3979,65.1,403.5979" style="stroke:#181818;stroke-width:0.6999999999999998;"/><line style="stroke:#181818;stroke-width:0.6999999999999998;stroke-dasharray:2.0,2.0;" x1="63.7" x2="217.7" y1="403.5979" y2="403.5979"/><text fill="#000000" font-family="sans-serif" font-size="9.1" font-weight="bold" lengthAdjust="spacing" textLength="9.8" x="72.1" y="393.8621">10</text><text fill="#000000" font-family="sans-serif" font-size="9.1" lengthAdjust="spacing" textLength="107.1" x="84.7" y="387.8103">show all the skills registed</text><text fill="#000000" font-family="sans-serif" font-size="9.1" lengthAdjust="spacing" textLength="74.9" x="87.5" y="399.914">and aks to confirm</text><polygon fill="#181818" points="206.5,422.7016,213.5,425.5016,206.5,428.3016,209.3,425.5016" style="stroke:#181818;stroke-width:0.6999999999999998;"/><line style="stroke:#181818;stroke-width:0.6999999999999998;" x1="60.2" x2="210.7" y1="425.5016" y2="425.5016"/><text fill="#000000" font-family="sans-serif" font-size="9.1" font-weight="bold" lengthAdjust="spacing" textLength="9.8" x="65.1" y="421.8177">11</text><text fill="#000000" font-family="sans-serif" font-size="9.1" lengthAdjust="spacing" textLength="128.8" x="77.7" y="421.8177">confirm the set of skills registed</text><polygon fill="#181818" points="67.9,444.6053,60.9,447.4053,67.9,450.2053,65.1,447.4053" style="stroke:#181818;stroke-width:0.6999999999999998;"/><line style="stroke:#181818;stroke-width:0.6999999999999998;stroke-dasharray:2.0,2.0;" x1="63.7" x2="217.7" y1="447.4053" y2="447.4053"/><text fill="#000000" font-family="sans-serif" font-size="9.1" font-weight="bold" lengthAdjust="spacing" textLength="9.8" x="72.1" y="443.7214">12</text><text fill="#000000" font-family="sans-serif" font-size="9.1" lengthAdjust="spacing" textLength="110.6" x="84.7" y="443.7214">displays operation success</text><!--SRC=[XLInRkCm3Dtz5KJ60Xbk3GvTEbmBj8lJRbbuCXCBiKMVA3V8tnyj9QhTseacMtfyUk-HjXojwz1Z2oqxDhNdbY3udWh99nsQ8nve6yuDWISJq1sQCK1ghFXatG7ss0WL1Ph07bRFVOiEIXBklI7PkJTqIkHNW0BFvLkXvS4Qsw4BiDgKTB0IjaVRDFBn4a4VBpSmJ-o2vwQv43wzbwzJj8zWgXAyf8x5gh3pPkVAXQF8j7Ienlh0hc__aeTVqQRzn43HIm6wz07MZoeRDafq50WCIGKWE3g139GHcelLOzmObXPg-U3auK4fZ2T5V1tdckWrRtlQ0t-gfhWDe_M7GdO3oGwC_5nXvAg1PABZzteT-LJ6KeuPNj6CieQvWrDjTMYi2te5LHDjWrSrEqGsNF6l9maQM4qf973OqjmDuxp6UOTpHwa-1ptb63Dy5v92loQ-pLswaVgmOa1Ql3GnS8TnUT9-zBQyruIbVh_gstodzIKzBCfVNuBvCGIPTDIOssPILDTctMVx2dioA5Bp2L1RcmT5CjdE0Qe_JD-TORUtlYrcYHTcQZnFb_fqaURA- -_tpN_74xcLbQx1im1tv35OTY2zqP-Xp4du3m00]--></g></svg>