<?xml version="1.0" encoding="us-ascii" standalone="no"?><svg xmlns="http://www.w3.org/2000/svg" xmlns:xlink="http://www.w3.org/1999/xlink" contentStyleType="text/css" height="462.5px" preserveAspectRatio="none" style="width:530px;height:462px;background:#FFFFFF;" version="1.1" viewBox="0 0 530 462" width="530px" zoomAndPan="magnify"><defs/><g><rect fill="#FFFFFF" height="351.1963" style="stroke:#181818;stroke-width:0.5;" width="5" x="38" y="56.1211"/><rect fill="#FFFFFF" height="128.8291" style="stroke:#181818;stroke-width:0.5;" width="5" x="153.5" y="67.7666"/><rect fill="#FFFFFF" height="159.2852" style="stroke:#181818;stroke-width:0.5;" width="5" x="153.5" y="212.2412"/><rect fill="#FFFFFF" height="15.6455" style="stroke:#181818;stroke-width:0.5;" width="5" x="153.5" y="387.1719"/><rect fill="#FFFFFF" height="79.3926" style="stroke:#181818;stroke-width:0.5;" width="5" x="246" y="88.4121"/><rect fill="#FFFFFF" height="119.3486" style="stroke:#181818;stroke-width:0.5;" width="5" x="246" y="227.8867"/><rect fill="#FFFFFF" height="15.6455" style="stroke:#181818;stroke-width:0.5;" width="5" x="313.25" y="105.2227"/><rect fill="#FFFFFF" height="15.6455" style="stroke:#181818;stroke-width:0.5;" width="5" x="366.75" y="136.5137"/><rect fill="#FFFFFF" height="88.0576" style="stroke:#181818;stroke-width:0.5;" width="5" x="438.5" y="243.5322"/><rect fill="none" height="141.1396" style="stroke:#000000;stroke-width:0.75;" width="522.25" x="5" y="175.3047"/><line style="stroke:#181818;stroke-width:0.25;stroke-dasharray:5.0,5.0;" x1="40.5" x2="40.5" y1="51.1211" y2="411.8174"/><line style="stroke:#181818;stroke-width:0.25;stroke-dasharray:5.0,5.0;" x1="156" x2="156" y1="51.1211" y2="411.8174"/><line style="stroke:#181818;stroke-width:0.25;stroke-dasharray:5.0,5.0;" x1="248.5" x2="248.5" y1="87.6719" y2="411.8174"/><line style="stroke:#181818;stroke-width:0.25;stroke-dasharray:5.0,5.0;" x1="315.5" x2="315.5" y1="51.1211" y2="411.8174"/><line style="stroke:#181818;stroke-width:0.25;stroke-dasharray:5.0,5.0;" x1="369" x2="369" y1="51.1211" y2="411.8174"/><line style="stroke:#181818;stroke-width:0.25;stroke-dasharray:5.0,5.0;" x1="441" x2="441" y1="51.1211" y2="411.8174"/><line style="stroke:#181818;stroke-width:0.25;stroke-dasharray:5.0,5.0;" x1="511.25" x2="511.25" y1="268.0928" y2="411.8174"/><text fill="#000000" font-family="sans-serif" font-size="7" lengthAdjust="spacing" textLength="58" x="10" y="40.0537">Human Resources</text><text fill="#000000" font-family="sans-serif" font-size="7" lengthAdjust="spacing" textLength="28" x="25" y="49.3643">Manager</text><ellipse cx="40.5" cy="6.75" fill="#E3E3E3" rx="4" ry="4" style="stroke:#181818;stroke-width:0.25;"/><path d="M40.5,10.75 L40.5,24.25 M34,14.75 L47,14.75 M40.5,24.25 L34,31.75 M40.5,24.25 L47,31.75 " fill="none" style="stroke:#181818;stroke-width:0.25;"/><text fill="#000000" font-family="sans-serif" font-size="7" lengthAdjust="spacing" textLength="58" x="10" y="418.8711">Human Resources</text><text fill="#000000" font-family="sans-serif" font-size="7" lengthAdjust="spacing" textLength="28" x="25" y="428.1816">Manager</text><ellipse cx="40.5" cy="434.1885" fill="#E3E3E3" rx="4" ry="4" style="stroke:#181818;stroke-width:0.25;"/><path d="M40.5,438.1885 L40.5,451.6885 M34,442.1885 L47,442.1885 M40.5,451.6885 L34,459.1885 M40.5,451.6885 L47,459.1885 " fill="none" style="stroke:#181818;stroke-width:0.25;"/><rect fill="#E3E3E3" height="16.3105" rx="1.25" ry="1.25" style="stroke:#181818;stroke-width:0.25;" width="51" x="130.5" y="34.3105"/><text fill="#000000" font-family="sans-serif" font-size="7" lengthAdjust="spacing" textLength="44" x="134" y="45.3643">:RegistSkillsUI</text><rect fill="#E3E3E3" height="16.3105" rx="1.25" ry="1.25" style="stroke:#181818;stroke-width:0.25;" width="51" x="130.5" y="411.3174"/><text fill="#000000" font-family="sans-serif" font-size="7" lengthAdjust="spacing" textLength="44" x="134" y="422.3711">:RegistSkillsUI</text><rect fill="#E3E3E3" height="16.3105" rx="1.25" ry="1.25" style="stroke:#181818;stroke-width:0.25;" width="76" x="210.5" y="411.3174"/><text fill="#000000" font-family="sans-serif" font-size="7" lengthAdjust="spacing" textLength="69" x="214" y="422.3711">:RegistSkillsController</text><rect fill="#E3E3E3" height="16.3105" rx="1.25" ry="1.25" style="stroke:#181818;stroke-width:0.25;" width="48.5" x="291.5" y="34.3105"/><text fill="#000000" font-family="sans-serif" font-size="7" lengthAdjust="spacing" textLength="41.5" x="295" y="45.3643">:Repositories</text><rect fill="#E3E3E3" height="16.3105" rx="1.25" ry="1.25" style="stroke:#181818;stroke-width:0.25;" width="48.5" x="291.5" y="411.3174"/><text fill="#000000" font-family="sans-serif" font-size="7" lengthAdjust="spacing" textLength="41.5" x="295" y="422.3711">:Repositories</text><rect fill="#E3E3E3" height="25.6211" rx="1.25" ry="1.25" style="stroke:#181818;stroke-width:0.25;" width="48.5" x="345" y="25"/><text fill="#000000" font-family="sans-serif" font-size="7" lengthAdjust="spacing" textLength="37" x="350.75" y="36.0537">repositories</text><text fill="#000000" font-family="sans-serif" font-size="7" lengthAdjust="spacing" textLength="41.5" x="348.5" y="45.3643">:Repositories</text><rect fill="#E3E3E3" height="25.6211" rx="1.25" ry="1.25" style="stroke:#181818;stroke-width:0.25;" width="48.5" x="345" y="411.3174"/><text fill="#000000" font-family="sans-serif" font-size="7" lengthAdjust="spacing" textLength="37" x="350.75" y="422.3711">repositories</text><text fill="#000000" font-family="sans-serif" font-size="7" lengthAdjust="spacing" textLength="41.5" x="348.5" y="431.6816">:Repositories</text><rect fill="#E3E3E3" height="25.6211" rx="1.25" ry="1.25" style="stroke:#181818;stroke-width:0.25;" width="85" x="398.5" y="25"/><text fill="#000000" font-family="sans-serif" font-size="7" lengthAdjust="spacing" textLength="77.5" x="402.25" y="36.0537">registedSkillsRepository:</text><text fill="#000000" font-family="sans-serif" font-size="7" lengthAdjust="spacing" textLength="78" x="402" y="45.3643">RegistedSkillsRepository</text><rect fill="#E3E3E3" height="25.6211" rx="1.25" ry="1.25" style="stroke:#181818;stroke-width:0.25;" width="85" x="398.5" y="411.3174"/><text fill="#000000" font-family="sans-serif" font-size="7" lengthAdjust="spacing" textLength="77.5" x="402.25" y="422.3711">registedSkillsRepository:</text><text fill="#000000" font-family="sans-serif" font-size="7" lengthAdjust="spacing" textLength="78" x="402" y="431.6816">RegistedSkillsRepository</text><rect fill="#E3E3E3" height="25.6211" rx="1.25" ry="1.25" style="stroke:#181818;stroke-width:0.25;" width="21.5" x="500.75" y="411.3174"/><text fill="#000000" font-family="sans-serif" font-size="7" lengthAdjust="spacing" textLength="11.5" x="505.75" y="422.3711">skill</text><text fill="#000000" font-family="sans-serif" font-size="7" lengthAdjust="spacing" textLength="14.5" x="504.25" y="431.6816">:Skill</text><rect fill="#FFFFFF" height="351.1963" style="stroke:#181818;stroke-width:0.5;" width="5" x="38" y="56.1211"/><rect fill="#FFFFFF" height="128.8291" style="stroke:#181818;stroke-width:0.5;" width="5" x="153.5" y="67.7666"/><rect fill="#FFFFFF" height="159.2852" style="stroke:#181818;stroke-width:0.5;" width="5" x="153.5" y="212.2412"/><rect fill="#FFFFFF" height="15.6455" style="stroke:#181818;stroke-width:0.5;" width="5" x="153.5" y="387.1719"/><rect fill="#FFFFFF" height="79.3926" style="stroke:#181818;stroke-width:0.5;" width="5" x="246" y="88.4121"/><rect fill="#FFFFFF" height="119.3486" style="stroke:#181818;stroke-width:0.5;" width="5" x="246" y="227.8867"/><rect fill="#FFFFFF" height="15.6455" style="stroke:#181818;stroke-width:0.5;" width="5" x="313.25" y="105.2227"/><rect fill="#FFFFFF" height="15.6455" style="stroke:#181818;stroke-width:0.5;" width="5" x="366.75" y="136.5137"/><rect fill="#FFFFFF" height="88.0576" style="stroke:#181818;stroke-width:0.5;" width="5" x="438.5" y="243.5322"/><polygon fill="#181818" points="147.5,65.7666,152.5,67.7666,147.5,69.7666,149.5,67.7666" style="stroke:#181818;stroke-width:0.5;"/><line style="stroke:#181818;stroke-width:0.5;" x1="43" x2="150.5" y1="67.7666" y2="67.7666"/><text fill="#000000" font-family="sans-serif" font-size="6.5" font-weight="bold" lengthAdjust="spacing" textLength="3.5" x="46.5" y="65.1353">1</text><text fill="#000000" font-family="sans-serif" font-size="6.5" lengthAdjust="spacing" textLength="72" x="52" y="65.1353">asks to regist a new skill</text><polygon fill="#181818" points="204.5,81.4121,209.5,83.4121,204.5,85.4121,206.5,83.4121" style="stroke:#181818;stroke-width:0.5;"/><line style="stroke:#181818;stroke-width:0.5;" x1="158.5" x2="207.5" y1="83.4121" y2="83.4121"/><text fill="#000000" font-family="sans-serif" font-size="6.5" font-weight="bold" lengthAdjust="spacing" textLength="3.5" x="162" y="80.7808">2</text><text fill="#000000" font-family="sans-serif" font-size="6.5" lengthAdjust="spacing" textLength="18" x="167.5" y="80.7808">create</text><rect fill="#E3E3E3" height="16.3105" rx="1.25" ry="1.25" style="stroke:#181818;stroke-width:0.25;" width="76" x="210.5" y="71.7666"/><text fill="#000000" font-family="sans-serif" font-size="7" lengthAdjust="spacing" textLength="69" x="214" y="82.8203">:RegistSkillsController</text><polygon fill="#181818" points="307.25,103.2227,312.25,105.2227,307.25,107.2227,309.25,105.2227" style="stroke:#181818;stroke-width:0.5;"/><line style="stroke:#181818;stroke-width:0.5;" x1="251" x2="310.25" y1="105.2227" y2="105.2227"/><text fill="#000000" font-family="sans-serif" font-size="6.5" font-weight="bold" lengthAdjust="spacing" textLength="3.5" x="254.5" y="102.5913">3</text><text fill="#000000" font-family="sans-serif" font-size="6.5" lengthAdjust="spacing" textLength="37.5" x="260" y="102.5913">getInstance()</text><polygon fill="#181818" points="256.5,118.8682,251.5,120.8682,256.5,122.8682,254.5,120.8682" style="stroke:#181818;stroke-width:0.5;"/><line style="stroke:#181818;stroke-width:0.5;stroke-dasharray:2.0,2.0;" x1="253.5" x2="315.25" y1="120.8682" y2="120.8682"/><text fill="#000000" font-family="sans-serif" font-size="6.5" font-weight="bold" lengthAdjust="spacing" textLength="3.5" x="259.5" y="118.2368">4</text><text fill="#000000" font-family="sans-serif" font-size="6.5" lengthAdjust="spacing" textLength="33.5" x="265" y="118.2368">repositories</text><polygon fill="#181818" points="360.75,134.5137,365.75,136.5137,360.75,138.5137,362.75,136.5137" style="stroke:#181818;stroke-width:0.5;"/><line style="stroke:#181818;stroke-width:0.5;" x1="251" x2="363.75" y1="136.5137" y2="136.5137"/><text fill="#000000" font-family="sans-serif" font-size="6.5" font-weight="bold" lengthAdjust="spacing" textLength="3.5" x="254.5" y="133.8823">5</text><text fill="#000000" font-family="sans-serif" font-size="6.5" lengthAdjust="spacing" textLength="85.5" x="260" y="133.8823">getRegistedSkillsRepository()</text><polygon fill="#181818" points="256.5,150.1592,251.5,152.1592,256.5,154.1592,254.5,152.1592" style="stroke:#181818;stroke-width:0.5;"/><line style="stroke:#181818;stroke-width:0.5;stroke-dasharray:2.0,2.0;" x1="253.5" x2="368.75" y1="152.1592" y2="152.1592"/><text fill="#000000" font-family="sans-serif" font-size="6.5" font-weight="bold" lengthAdjust="spacing" textLength="3.5" x="259.5" y="149.5278">6</text><text fill="#000000" font-family="sans-serif" font-size="6.5" lengthAdjust="spacing" textLength="70" x="265" y="149.5278">registedSkillsRepository</text><polygon fill="#181818" points="164,165.8047,159,167.8047,164,169.8047,162,167.8047" style="stroke:#181818;stroke-width:0.5;"/><line style="stroke:#181818;stroke-width:0.5;stroke-dasharray:2.0,2.0;" x1="161" x2="248" y1="167.8047" y2="167.8047"/><text fill="#000000" font-family="sans-serif" font-size="6.5" font-weight="bold" lengthAdjust="spacing" textLength="3.5" x="167" y="165.1733">7</text><text fill="#000000" font-family="sans-serif" font-size="6.5" lengthAdjust="spacing" textLength="70" x="172.5" y="165.1733">registedSkillsRepository</text><path d="M5,175.3047 L41.5,175.3047 L41.5,179.9502 L36.5,184.9502 L5,184.9502 L5,175.3047 " fill="#EEEEEE" style="stroke:#000000;stroke-width:0.75;"/><rect fill="none" height="141.1396" style="stroke:#000000;stroke-width:0.75;" width="522.25" x="5" y="175.3047"/><text fill="#000000" font-family="sans-serif" font-size="6.5" font-weight="bold" lengthAdjust="spacing" textLength="14" x="12.5" y="182.8188">loop</text><text fill="#000000" font-family="sans-serif" font-size="5.5" font-weight="bold" lengthAdjust="spacing" textLength="45" x="49" y="182.2397">[while intended]</text><polygon fill="#181818" points="48.5,194.5957,43.5,196.5957,48.5,198.5957,46.5,196.5957" style="stroke:#181818;stroke-width:0.5;"/><line style="stroke:#181818;stroke-width:0.5;stroke-dasharray:2.0,2.0;" x1="45.5" x2="155.5" y1="196.5957" y2="196.5957"/><text fill="#000000" font-family="sans-serif" font-size="6.5" font-weight="bold" lengthAdjust="spacing" textLength="3.5" x="51.5" y="193.9644">8</text><text fill="#000000" font-family="sans-serif" font-size="6.5" lengthAdjust="spacing" textLength="67.5" x="57" y="193.9644">requests the skill name</text><polygon fill="#181818" points="147.5,210.2412,152.5,212.2412,147.5,214.2412,149.5,212.2412" style="stroke:#181818;stroke-width:0.5;"/><line style="stroke:#181818;stroke-width:0.5;" x1="43" x2="150.5" y1="212.2412" y2="212.2412"/><text fill="#000000" font-family="sans-serif" font-size="6.5" font-weight="bold" lengthAdjust="spacing" textLength="3.5" x="46.5" y="209.6099">9</text><text fill="#000000" font-family="sans-serif" font-size="6.5" lengthAdjust="spacing" textLength="72" x="52" y="209.6099">types the new skill name</text><polygon fill="#181818" points="240,225.8867,245,227.8867,240,229.8867,242,227.8867" style="stroke:#181818;stroke-width:0.5;"/><line style="stroke:#181818;stroke-width:0.5;stroke-dasharray:2.0,2.0;" x1="158.5" x2="243" y1="227.8867" y2="227.8867"/><text fill="#000000" font-family="sans-serif" font-size="6.5" font-weight="bold" lengthAdjust="spacing" textLength="7" x="162" y="225.2554">10</text><text fill="#000000" font-family="sans-serif" font-size="6.5" lengthAdjust="spacing" textLength="30.5" x="171" y="225.2554">createSkill</text><polygon fill="#181818" points="432.5,241.5322,437.5,243.5322,432.5,245.5322,434.5,243.5322" style="stroke:#181818;stroke-width:0.5;"/><line style="stroke:#181818;stroke-width:0.5;stroke-dasharray:2.0,2.0;" x1="251" x2="435.5" y1="243.5322" y2="243.5322"/><text fill="#000000" font-family="sans-serif" font-size="6.5" font-weight="bold" lengthAdjust="spacing" textLength="7" x="254.5" y="240.9009">11</text><text fill="#000000" font-family="sans-serif" font-size="6.5" lengthAdjust="spacing" textLength="30.5" x="263.5" y="240.9009">createSkill</text><polygon fill="#181818" points="494.75,257.1777,499.75,259.1777,494.75,261.1777,496.75,259.1777" style="stroke:#181818;stroke-width:0.5;"/><line style="stroke:#181818;stroke-width:0.5;" x1="443.5" x2="497.75" y1="259.1777" y2="259.1777"/><text fill="#000000" font-family="sans-serif" font-size="6.5" font-weight="bold" lengthAdjust="spacing" textLength="7" x="447" y="256.5464">12</text><text fill="#000000" font-family="sans-serif" font-size="6.5" lengthAdjust="spacing" textLength="31.5" x="456" y="256.5464">create skill</text><rect fill="#E3E3E3" height="25.6211" rx="1.25" ry="1.25" style="stroke:#181818;stroke-width:0.25;" width="21.5" x="500.75" y="247.5322"/><text fill="#000000" font-family="sans-serif" font-size="7" lengthAdjust="spacing" textLength="11.5" x="505.75" y="258.5859">skill</text><text fill="#000000" font-family="sans-serif" font-size="7" lengthAdjust="spacing" textLength="14.5" x="504.25" y="267.8965">:Skill</text><polygon fill="#181818" points="449,288.2988,444,290.2988,449,292.2988,447,290.2988" style="stroke:#181818;stroke-width:0.5;"/><line style="stroke:#181818;stroke-width:0.5;" x1="446" x2="511" y1="290.2988" y2="290.2988"/><text fill="#000000" font-family="sans-serif" font-size="6.5" font-weight="bold" lengthAdjust="spacing" textLength="7" x="452" y="287.6675">13</text><text fill="#000000" font-family="sans-serif" font-size="6.5" lengthAdjust="spacing" textLength="40.5" x="461" y="287.6675">addSkill (skill)</text><line style="stroke:#181818;stroke-width:0.5;" x1="443.5" x2="464.5" y1="305.9443" y2="305.9443"/><line style="stroke:#181818;stroke-width:0.5;" x1="464.5" x2="464.5" y1="305.9443" y2="312.4443"/><line style="stroke:#181818;stroke-width:0.5;" x1="444" x2="464.5" y1="312.4443" y2="312.4443"/><polygon fill="#181818" points="449,310.4443,444,312.4443,449,314.4443,447,312.4443" style="stroke:#181818;stroke-width:0.5;"/><text fill="#000000" font-family="sans-serif" font-size="6.5" font-weight="bold" lengthAdjust="spacing" textLength="7" x="447" y="303.313">14</text><text fill="#000000" font-family="sans-serif" font-size="6.5" lengthAdjust="spacing" textLength="49.5" x="456" y="303.313">validateSkill(skill)</text><polygon fill="#181818" points="256.5,329.5898,251.5,331.5898,256.5,333.5898,254.5,331.5898" style="stroke:#181818;stroke-width:0.5;"/><line style="stroke:#181818;stroke-width:0.5;stroke-dasharray:2.0,2.0;" x1="253.5" x2="440.5" y1="331.5898" y2="331.5898"/><text fill="#000000" font-family="sans-serif" font-size="6.5" font-weight="bold" lengthAdjust="spacing" textLength="7" x="259.5" y="328.9585">15</text><text fill="#000000" font-family="sans-serif" font-size="6.5" lengthAdjust="spacing" textLength="49.5" x="268.5" y="328.9585">registedSkillsList</text><polygon fill="#181818" points="164,345.2354,159,347.2354,164,349.2354,162,347.2354" style="stroke:#181818;stroke-width:0.5;"/><line style="stroke:#181818;stroke-width:0.5;stroke-dasharray:2.0,2.0;" x1="161" x2="248" y1="347.2354" y2="347.2354"/><text fill="#000000" font-family="sans-serif" font-size="6.5" font-weight="bold" lengthAdjust="spacing" textLength="7" x="167" y="344.604">16</text><text fill="#000000" font-family="sans-serif" font-size="6.5" lengthAdjust="spacing" textLength="49.5" x="176" y="344.604">registedSkillsList</text><polygon fill="#181818" points="48.5,369.5264,43.5,371.5264,48.5,373.5264,46.5,371.5264" style="stroke:#181818;stroke-width:0.5;"/><line style="stroke:#181818;stroke-width:0.5;stroke-dasharray:2.0,2.0;" x1="45.5" x2="155.5" y1="371.5264" y2="371.5264"/><text fill="#000000" font-family="sans-serif" font-size="6.5" font-weight="bold" lengthAdjust="spacing" textLength="7" x="51.5" y="364.5723">17</text><text fill="#000000" font-family="sans-serif" font-size="6.5" lengthAdjust="spacing" textLength="76.5" x="60.5" y="360.2495">show all the skills registed</text><text fill="#000000" font-family="sans-serif" font-size="6.5" lengthAdjust="spacing" textLength="53.5" x="62.5" y="368.895">and aks to confirm</text><polygon fill="#181818" points="147.5,385.1719,152.5,387.1719,147.5,389.1719,149.5,387.1719" style="stroke:#181818;stroke-width:0.5;"/><line style="stroke:#181818;stroke-width:0.5;" x1="43" x2="150.5" y1="387.1719" y2="387.1719"/><text fill="#000000" font-family="sans-serif" font-size="6.5" font-weight="bold" lengthAdjust="spacing" textLength="7" x="46.5" y="384.5405">18</text><text fill="#000000" font-family="sans-serif" font-size="6.5" lengthAdjust="spacing" textLength="92" x="55.5" y="384.5405">confirm the set of skills registed</text><polygon fill="#181818" points="48.5,400.8174,43.5,402.8174,48.5,404.8174,46.5,402.8174" style="stroke:#181818;stroke-width:0.5;"/><line style="stroke:#181818;stroke-width:0.5;stroke-dasharray:2.0,2.0;" x1="45.5" x2="155.5" y1="402.8174" y2="402.8174"/><text fill="#000000" font-family="sans-serif" font-size="6.5" font-weight="bold" lengthAdjust="spacing" textLength="7" x="51.5" y="400.186">19</text><text fill="#000000" font-family="sans-serif" font-size="6.5" lengthAdjust="spacing" textLength="79" x="60.5" y="400.186">displays operation success</text><!--SRC=[bLN1Zjem4BtdAqQSTf4uz8ggIcZLQf5OgGhiZOkR362HsAdjBEBlExR1sCIXkpa5UzwRbpVFHX-vw9XYBRHIoEgWP8jWL8-53ZiTguviZsjpRX0KLeQ9VHCNw0EhvOcBFUnOex4eM6MaWibhtp819MhPgmhrLhmnGKHg0ap3Q_bM4DpmYdTC69ZCIznpRTP7tZJwVUcAtfSFQbwaC4espONmPLEk1jMTr9oqSDIk9YoSrzn-X94YXQW8iHL3Wj-hnUOUOHLXxJNT6ioteXpPkaZ9RwRiskwI45VbS9j5-VFNWZpkINpV_a45tvpZ_8CPTBOMG0-zmEm7EGXpWXqr60bUAp0GU097xKe3cEns2_OX8C6jgTCfKLGAgUAs7J3Ezh1iVrbSncWYsQDP2atvgV3fUKYLcqweia-ETNPHEOTuTW5Mu-VehyBjWBtIiG7bbBjO958TJwnjPDePdIaPpU7xRERrVOtdDfb6oWvE1qxdbmk3eiOw4MjdJL9jP6oBlprgGu4ve0y92DPYhaESbpXlvjoXnuUWfHmnGqQ8zyn7RXrYcebT0lOZTE7BcmGfPmAEKZBYS5BkqpZIXYJuKpgTNZj6for-V1ayq4o7j_QByEGudeT2_YTcdFk3DRo-6fBmKqY-yC6NcGq2kgBtX2OvZfynEWpL1Ui1UpRuWt3hWpm18pD3k7KWtGfWeWRcxyfAYXrNRJ4ctpLvS2RYyt3XyatHWDpTzyxVmudqckkkOMSDiaF53AUxJ_SL_Q_wo-vEmZy0]--></g></svg>