<?xml version="1.0" encoding="UTF-8" standalone="no"?><svg xmlns="http://www.w3.org/2000/svg" xmlns:xlink="http://www.w3.org/1999/xlink" contentStyleType="text/css" height="685px" preserveAspectRatio="none" style="width:583px;height:685px;background:#FFFFFF;" version="1.1" viewBox="0 0 583 685" width="583px" zoomAndPan="magnify"><defs/><g><rect fill="#FFFFFF" height="476.3997" style="stroke:#181818;stroke-width:1.0;" width="10" x="124" y="117.7199"/><rect fill="#FFFFFF" height="170.9599" style="stroke:#181818;stroke-width:1.0;" width="10" x="348" y="205.1999"/><rect fill="none" height="421.1598" style="stroke:#000000;stroke-width:1.5;" width="540" x="37" y="132.7199"/><line style="stroke:#181818;stroke-width:0.5;stroke-dasharray:5.0,5.0;" x1="129" x2="129" y1="74.4799" y2="612.1197"/><line style="stroke:#181818;stroke-width:0.5;stroke-dasharray:5.0,5.0;" x1="352.5" x2="352.5" y1="211.6999" y2="612.1197"/><rect fill="#E3E3E3" height="68.4799" rx="2.5" ry="2.5" style="stroke:#181818;stroke-width:0.5;" width="164" x="47" y="5"/><text fill="#000000" font-family="sans-serif" font-size="20" lengthAdjust="spacing" textLength="150" x="54" y="33.38">skillsRepository:</text><text fill="#000000" font-family="sans-serif" font-size="20" lengthAdjust="spacing" textLength="146" x="56" y="60.62">SkillsRepository</text><rect fill="#E3E3E3" height="68.4799" rx="2.5" ry="2.5" style="stroke:#181818;stroke-width:0.5;" width="164" x="47" y="611.1197"/><text fill="#000000" font-family="sans-serif" font-size="20" lengthAdjust="spacing" textLength="150" x="54" y="639.4997">skillsRepository:</text><text fill="#000000" font-family="sans-serif" font-size="20" lengthAdjust="spacing" textLength="146" x="56" y="666.7396">SkillsRepository</text><rect fill="#E3E3E3" height="68.4799" rx="2.5" ry="2.5" style="stroke:#181818;stroke-width:0.5;" width="67" x="319.5" y="611.1197"/><text fill="#000000" font-family="sans-serif" font-size="20" lengthAdjust="spacing" textLength="53" x="326.5" y="639.4997">name</text><text fill="#000000" font-family="sans-serif" font-size="20" lengthAdjust="spacing" textLength="42" x="332" y="666.7396">:Skill</text><rect fill="#FFFFFF" height="476.3997" style="stroke:#181818;stroke-width:1.0;" width="10" x="124" y="117.7199"/><rect fill="#FFFFFF" height="170.9599" style="stroke:#181818;stroke-width:1.0;" width="10" x="348" y="205.1999"/><polygon fill="#181818" points="112,113.7199,122,117.7199,112,121.7199,116,117.7199" style="stroke:#181818;stroke-width:1.0;"/><line style="stroke:#181818;stroke-width:1.0;" x1="0" x2="118" y1="117.7199" y2="117.7199"/><text fill="#000000" font-family="sans-serif" font-size="20" font-weight="bold" lengthAdjust="spacing" textLength="22" x="7" y="109.8599">10</text><text fill="#000000" font-family="sans-serif" font-size="20" lengthAdjust="spacing" textLength="58" x="33" y="109.8599">create</text><path d="M37,132.7199 L195,132.7199 L195,151.9599 L185,161.9599 L37,161.9599 L37,132.7199 " fill="#EEEEEE" style="stroke:#000000;stroke-width:1.5;"/><rect fill="none" height="421.1598" style="stroke:#000000;stroke-width:1.5;" width="540" x="37" y="132.7199"/><text fill="#000000" font-family="sans-serif" font-size="20" font-weight="bold" lengthAdjust="spacing" textLength="113" x="52" y="155.0999">Create Skill</text><polygon fill="#181818" points="307.5,191.1999,317.5,195.1999,307.5,199.1999,311.5,195.1999" style="stroke:#181818;stroke-width:1.0;"/><line style="stroke:#181818;stroke-width:1.0;" x1="134" x2="313.5" y1="195.1999" y2="195.1999"/><text fill="#000000" font-family="sans-serif" font-size="20" font-weight="bold" lengthAdjust="spacing" textLength="22" x="141" y="187.3399">11</text><text fill="#000000" font-family="sans-serif" font-size="20" lengthAdjust="spacing" textLength="58" x="167" y="187.3399">create</text><rect fill="#E3E3E3" height="68.4799" rx="2.5" ry="2.5" style="stroke:#181818;stroke-width:0.5;" width="67" x="319.5" y="161.9599"/><text fill="#000000" font-family="sans-serif" font-size="20" lengthAdjust="spacing" textLength="53" x="326.5" y="190.3399">name</text><text fill="#000000" font-family="sans-serif" font-size="20" lengthAdjust="spacing" textLength="42" x="332" y="217.5799">:Skill</text><line style="stroke:#181818;stroke-width:1.0;" x1="358" x2="400" y1="274.6798" y2="274.6798"/><line style="stroke:#181818;stroke-width:1.0;" x1="400" x2="400" y1="274.6798" y2="287.6798"/><line style="stroke:#181818;stroke-width:1.0;" x1="359" x2="400" y1="287.6798" y2="287.6798"/><polygon fill="#181818" points="369,283.6798,359,287.6798,369,291.6798,365,287.6798" style="stroke:#181818;stroke-width:1.0;"/><text fill="#000000" font-family="sans-serif" font-size="20" font-weight="bold" lengthAdjust="spacing" textLength="22" x="365" y="266.8198">12</text><text fill="#000000" font-family="sans-serif" font-size="20" lengthAdjust="spacing" textLength="174" x="391" y="266.8198">validateSkill(name)</text><polygon fill="#181818" points="145,324.9198,135,328.9198,145,332.9198,141,328.9198" style="stroke:#181818;stroke-width:1.0;"/><line style="stroke:#181818;stroke-width:1.0;stroke-dasharray:2.0,2.0;" x1="139" x2="347" y1="328.9198" y2="328.9198"/><text fill="#000000" font-family="sans-serif" font-size="20" font-weight="bold" lengthAdjust="spacing" textLength="22" x="151" y="321.0598">13</text><text fill="#000000" font-family="sans-serif" font-size="20" lengthAdjust="spacing" textLength="53" x="177" y="321.0598">name</text><line style="stroke:#181818;stroke-width:1.0;" x1="134" x2="176" y1="375.1598" y2="375.1598"/><line style="stroke:#181818;stroke-width:1.0;" x1="176" x2="176" y1="375.1598" y2="388.1598"/><line style="stroke:#181818;stroke-width:1.0;" x1="129" x2="176" y1="388.1598" y2="388.1598"/><polygon fill="#181818" points="139,384.1598,129,388.1598,139,392.1598,135,388.1598" style="stroke:#181818;stroke-width:1.0;"/><text fill="#000000" font-family="sans-serif" font-size="20" font-weight="bold" lengthAdjust="spacing" textLength="22" x="141" y="367.2998">14</text><text fill="#000000" font-family="sans-serif" font-size="20" lengthAdjust="spacing" textLength="174" x="167" y="367.2998">validateSkill(name)</text><line style="stroke:#181818;stroke-width:1.0;" x1="134" x2="176" y1="424.3997" y2="424.3997"/><line style="stroke:#181818;stroke-width:1.0;" x1="176" x2="176" y1="424.3997" y2="437.3997"/><line style="stroke:#181818;stroke-width:1.0;" x1="135" x2="176" y1="437.3997" y2="437.3997"/><polygon fill="#181818" points="145,433.3997,135,437.3997,145,441.3997,141,437.3997" style="stroke:#181818;stroke-width:1.0;"/><text fill="#000000" font-family="sans-serif" font-size="20" font-weight="bold" lengthAdjust="spacing" textLength="22" x="141" y="416.5398">15</text><text fill="#000000" font-family="sans-serif" font-size="20" lengthAdjust="spacing" textLength="137" x="167" y="416.5398">addSkill(name)</text><line style="stroke:#181818;stroke-width:1.0;" x1="134" x2="176" y1="478.6397" y2="478.6397"/><line style="stroke:#181818;stroke-width:1.0;" x1="176" x2="176" y1="478.6397" y2="491.6397"/><line style="stroke:#181818;stroke-width:1.0;" x1="135" x2="176" y1="491.6397" y2="491.6397"/><polygon fill="#181818" points="145,487.6397,135,491.6397,145,495.6397,141,491.6397" style="stroke:#181818;stroke-width:1.0;"/><text fill="#000000" font-family="sans-serif" font-size="20" font-weight="bold" lengthAdjust="spacing" textLength="22" x="141" y="470.7797">16</text><text fill="#000000" font-family="sans-serif" font-size="20" lengthAdjust="spacing" textLength="89" x="167" y="470.7797">true/false</text><line style="stroke:#181818;stroke-width:1.0;" x1="134" x2="176" y1="532.8797" y2="532.8797"/><line style="stroke:#181818;stroke-width:1.0;" x1="176" x2="176" y1="532.8797" y2="545.8797"/><line style="stroke:#181818;stroke-width:1.0;" x1="135" x2="176" y1="545.8797" y2="545.8797"/><polygon fill="#181818" points="145,541.8797,135,545.8797,145,549.8797,141,545.8797" style="stroke:#181818;stroke-width:1.0;"/><text fill="#000000" font-family="sans-serif" font-size="20" font-weight="bold" lengthAdjust="spacing" textLength="22" x="141" y="525.0197">17</text><text fill="#000000" font-family="sans-serif" font-size="20" lengthAdjust="spacing" textLength="89" x="167" y="525.0197">true/false</text><polygon fill="#181818" points="11,590.1197,1,594.1197,11,598.1197,7,594.1197" style="stroke:#181818;stroke-width:1.0;"/><line style="stroke:#181818;stroke-width:1.0;stroke-dasharray:2.0,2.0;" x1="5" x2="128" y1="594.1197" y2="594.1197"/><text fill="#000000" font-family="sans-serif" font-size="20" font-weight="bold" lengthAdjust="spacing" textLength="22" x="17" y="586.2597">18</text><text fill="#000000" font-family="sans-serif" font-size="20" lengthAdjust="spacing" textLength="79" x="43" y="586.2597">SkillsList</text><!--SRC=[fL8zJyCm4DtzAqwTe594OOmGKeNenDGmTZdiQsh5iIFRAIg_7iTMIt02Gd2JzVm-xaxd6gaxjDWgmniI86YFlV8RetqbtmdkLioTAT0QRVZ1cfR0svv6Fnto1ckg_4aHME8UTQt617T0OTwahc6FoX5Z0VQIomwrXqNWAUMsr1adlR6dSgUh35e0EiZ1houQMzhfCf8Y_MMzVTgi6SFU6zsthsJXTiMAXubF2TmI-j0MSY-FuJMDWb2rDNq7Zv6R62pYG-K223cfWUNouWzPNUBEhUQ4X7zwbN149KMGnBohOURhxsKpiq89WsWYcUj_kgUvzDn9K3xMtx9GY9zYVcSo7EfDkhb_6qG7qY8zxejYRha9UfRECpRQnEIUs0S0]--></g></svg>