<?xml version="1.0" encoding="us-ascii" standalone="no"?><svg xmlns="http://www.w3.org/2000/svg" xmlns:xlink="http://www.w3.org/1999/xlink" contentStyleType="text/css" height="925px" preserveAspectRatio="none" style="width:1109px;height:925px;background:#FFFFFF;" version="1.1" viewBox="0 0 1109 925" width="1109px" zoomAndPan="magnify"><defs/><g><rect fill="#FFFFFF" height="702.3926" style="stroke:#181818;stroke-width:1.0;" width="10" x="76" y="112.2422"/><rect fill="#FFFFFF" height="257.6582" style="stroke:#181818;stroke-width:1.0;" width="10" x="307" y="135.5332"/><rect fill="#FFFFFF" height="318.5703" style="stroke:#181818;stroke-width:1.0;" width="10" x="307" y="424.4824"/><rect fill="#FFFFFF" height="31.291" style="stroke:#181818;stroke-width:1.0;" width="10" x="307" y="774.3438"/><rect fill="#FFFFFF" height="158.7852" style="stroke:#181818;stroke-width:1.0;" width="10" x="492" y="176.8242"/><rect fill="#FFFFFF" height="238.6973" style="stroke:#181818;stroke-width:1.0;" width="10" x="492" y="455.7734"/><rect fill="#FFFFFF" height="31.291" style="stroke:#181818;stroke-width:1.0;" width="10" x="626.5" y="210.4453"/><rect fill="#FFFFFF" height="31.291" style="stroke:#181818;stroke-width:1.0;" width="10" x="733.5" y="273.0273"/><rect fill="#FFFFFF" height="176.1152" style="stroke:#181818;stroke-width:1.0;" width="10" x="877" y="487.0645"/><rect fill="none" height="282.2793" style="stroke:#000000;stroke-width:1.5;" width="1093.5" x="10" y="350.6094"/><line style="stroke:#181818;stroke-width:0.5;stroke-dasharray:5.0,5.0;" x1="81" x2="81" y1="102.2422" y2="823.6348"/><line style="stroke:#181818;stroke-width:0.5;stroke-dasharray:5.0,5.0;" x1="312" x2="312" y1="102.2422" y2="823.6348"/><line style="stroke:#181818;stroke-width:0.5;stroke-dasharray:5.0,5.0;" x1="497" x2="497" y1="175.3438" y2="823.6348"/><line style="stroke:#181818;stroke-width:0.5;stroke-dasharray:5.0,5.0;" x1="631" x2="631" y1="102.2422" y2="823.6348"/><line style="stroke:#181818;stroke-width:0.5;stroke-dasharray:5.0,5.0;" x1="738" x2="738" y1="102.2422" y2="823.6348"/><line style="stroke:#181818;stroke-width:0.5;stroke-dasharray:5.0,5.0;" x1="882" x2="882" y1="102.2422" y2="823.6348"/><line style="stroke:#181818;stroke-width:0.5;stroke-dasharray:5.0,5.0;" x1="1056.5" x2="1056.5" y1="536.1855" y2="823.6348"/><text fill="#000000" font-family="sans-serif" font-size="14" lengthAdjust="spacing" textLength="116" x="20" y="80.1074">Human Resources</text><text fill="#000000" font-family="sans-serif" font-size="14" lengthAdjust="spacing" textLength="56" x="50" y="98.7285">Manager</text><ellipse cx="81" cy="13.5" fill="#E3E3E3" rx="8" ry="8" style="stroke:#181818;stroke-width:0.5;"/><path d="M81,21.5 L81,48.5 M68,29.5 L94,29.5 M81,48.5 L68,63.5 M81,48.5 L94,63.5 " fill="none" style="stroke:#181818;stroke-width:0.5;"/><text fill="#000000" font-family="sans-serif" font-size="14" lengthAdjust="spacing" textLength="116" x="20" y="837.7422">Human Resources</text><text fill="#000000" font-family="sans-serif" font-size="14" lengthAdjust="spacing" textLength="56" x="50" y="856.3633">Manager</text><ellipse cx="81" cy="868.377" fill="#E3E3E3" rx="8" ry="8" style="stroke:#181818;stroke-width:0.5;"/><path d="M81,876.377 L81,903.377 M68,884.377 L94,884.377 M81,903.377 L68,918.377 M81,903.377 L94,918.377 " fill="none" style="stroke:#181818;stroke-width:0.5;"/><rect fill="#E3E3E3" height="32.6211" rx="2.5" ry="2.5" style="stroke:#181818;stroke-width:0.5;" width="102" x="261" y="68.6211"/><text fill="#000000" font-family="sans-serif" font-size="14" lengthAdjust="spacing" textLength="88" x="268" y="90.7285">:RegistSkillsUI</text><rect fill="#E3E3E3" height="32.6211" rx="2.5" ry="2.5" style="stroke:#181818;stroke-width:0.5;" width="102" x="261" y="822.6348"/><text fill="#000000" font-family="sans-serif" font-size="14" lengthAdjust="spacing" textLength="88" x="268" y="844.7422">:RegistSkillsUI</text><rect fill="#E3E3E3" height="32.6211" rx="2.5" ry="2.5" style="stroke:#181818;stroke-width:0.5;" width="152" x="421" y="822.6348"/><text fill="#000000" font-family="sans-serif" font-size="14" lengthAdjust="spacing" textLength="138" x="428" y="844.7422">:RegistSkillsController</text><rect fill="#E3E3E3" height="32.6211" rx="2.5" ry="2.5" style="stroke:#181818;stroke-width:0.5;" width="97" x="583" y="68.6211"/><text fill="#000000" font-family="sans-serif" font-size="14" lengthAdjust="spacing" textLength="83" x="590" y="90.7285">:Repositories</text><rect fill="#E3E3E3" height="32.6211" rx="2.5" ry="2.5" style="stroke:#181818;stroke-width:0.5;" width="97" x="583" y="822.6348"/><text fill="#000000" font-family="sans-serif" font-size="14" lengthAdjust="spacing" textLength="83" x="590" y="844.7422">:Repositories</text><rect fill="#E3E3E3" height="51.2422" rx="2.5" ry="2.5" style="stroke:#181818;stroke-width:0.5;" width="97" x="690" y="50"/><text fill="#000000" font-family="sans-serif" font-size="14" lengthAdjust="spacing" textLength="74" x="701.5" y="72.1074">repositories</text><text fill="#000000" font-family="sans-serif" font-size="14" lengthAdjust="spacing" textLength="83" x="697" y="90.7285">:Repositories</text><rect fill="#E3E3E3" height="51.2422" rx="2.5" ry="2.5" style="stroke:#181818;stroke-width:0.5;" width="97" x="690" y="822.6348"/><text fill="#000000" font-family="sans-serif" font-size="14" lengthAdjust="spacing" textLength="74" x="701.5" y="844.7422">repositories</text><text fill="#000000" font-family="sans-serif" font-size="14" lengthAdjust="spacing" textLength="83" x="697" y="863.3633">:Repositories</text><rect fill="#E3E3E3" height="51.2422" rx="2.5" ry="2.5" style="stroke:#181818;stroke-width:0.5;" width="170" x="797" y="50"/><text fill="#000000" font-family="sans-serif" font-size="14" lengthAdjust="spacing" textLength="155" x="804.5" y="72.1074">registedSkillsRepository:</text><text fill="#000000" font-family="sans-serif" font-size="14" lengthAdjust="spacing" textLength="156" x="804" y="90.7285">RegistedSkillsRepository</text><rect fill="#E3E3E3" height="51.2422" rx="2.5" ry="2.5" style="stroke:#181818;stroke-width:0.5;" width="170" x="797" y="822.6348"/><text fill="#000000" font-family="sans-serif" font-size="14" lengthAdjust="spacing" textLength="155" x="804.5" y="844.7422">registedSkillsRepository:</text><text fill="#000000" font-family="sans-serif" font-size="14" lengthAdjust="spacing" textLength="156" x="804" y="863.3633">RegistedSkillsRepository</text><rect fill="#E3E3E3" height="51.2422" rx="2.5" ry="2.5" style="stroke:#181818;stroke-width:0.5;" width="73" x="1020.5" y="822.6348"/><text fill="#000000" font-family="sans-serif" font-size="14" lengthAdjust="spacing" textLength="59" x="1027.5" y="844.7422">skillName</text><text fill="#000000" font-family="sans-serif" font-size="14" lengthAdjust="spacing" textLength="29" x="1042.5" y="863.3633">:Skill</text><rect fill="#FFFFFF" height="702.3926" style="stroke:#181818;stroke-width:1.0;" width="10" x="76" y="112.2422"/><rect fill="#FFFFFF" height="257.6582" style="stroke:#181818;stroke-width:1.0;" width="10" x="307" y="135.5332"/><rect fill="#FFFFFF" height="318.5703" style="stroke:#181818;stroke-width:1.0;" width="10" x="307" y="424.4824"/><rect fill="#FFFFFF" height="31.291" style="stroke:#181818;stroke-width:1.0;" width="10" x="307" y="774.3438"/><rect fill="#FFFFFF" height="158.7852" style="stroke:#181818;stroke-width:1.0;" width="10" x="492" y="176.8242"/><rect fill="#FFFFFF" height="238.6973" style="stroke:#181818;stroke-width:1.0;" width="10" x="492" y="455.7734"/><rect fill="#FFFFFF" height="31.291" style="stroke:#181818;stroke-width:1.0;" width="10" x="626.5" y="210.4453"/><rect fill="#FFFFFF" height="31.291" style="stroke:#181818;stroke-width:1.0;" width="10" x="733.5" y="273.0273"/><rect fill="#FFFFFF" height="176.1152" style="stroke:#181818;stroke-width:1.0;" width="10" x="877" y="487.0645"/><polygon fill="#181818" points="295,131.5332,305,135.5332,295,139.5332,299,135.5332" style="stroke:#181818;stroke-width:1.0;"/><line style="stroke:#181818;stroke-width:1.0;" x1="86" x2="301" y1="135.5332" y2="135.5332"/><text fill="#000000" font-family="sans-serif" font-size="13" font-weight="bold" lengthAdjust="spacing" textLength="7" x="93" y="130.2705">1</text><text fill="#000000" font-family="sans-serif" font-size="13" lengthAdjust="spacing" textLength="144" x="104" y="130.2705">asks to regist a new skill</text><polygon fill="#181818" points="409,162.8242,419,166.8242,409,170.8242,413,166.8242" style="stroke:#181818;stroke-width:1.0;"/><line style="stroke:#181818;stroke-width:1.0;" x1="317" x2="415" y1="166.8242" y2="166.8242"/><text fill="#000000" font-family="sans-serif" font-size="13" font-weight="bold" lengthAdjust="spacing" textLength="7" x="324" y="161.5615">2</text><text fill="#000000" font-family="sans-serif" font-size="13" lengthAdjust="spacing" textLength="36" x="335" y="161.5615">create</text><rect fill="#E3E3E3" height="32.6211" rx="2.5" ry="2.5" style="stroke:#181818;stroke-width:0.5;" width="152" x="421" y="143.5332"/><text fill="#000000" font-family="sans-serif" font-size="14" lengthAdjust="spacing" textLength="138" x="428" y="165.6406">:RegistSkillsController</text><polygon fill="#181818" points="614.5,206.4453,624.5,210.4453,614.5,214.4453,618.5,210.4453" style="stroke:#181818;stroke-width:1.0;"/><line style="stroke:#181818;stroke-width:1.0;" x1="502" x2="620.5" y1="210.4453" y2="210.4453"/><text fill="#000000" font-family="sans-serif" font-size="13" font-weight="bold" lengthAdjust="spacing" textLength="7" x="509" y="205.1826">3</text><text fill="#000000" font-family="sans-serif" font-size="13" lengthAdjust="spacing" textLength="75" x="520" y="205.1826">getInstance()</text><polygon fill="#181818" points="513,237.7363,503,241.7363,513,245.7363,509,241.7363" style="stroke:#181818;stroke-width:1.0;"/><line style="stroke:#181818;stroke-width:1.0;stroke-dasharray:2.0,2.0;" x1="507" x2="630.5" y1="241.7363" y2="241.7363"/><text fill="#000000" font-family="sans-serif" font-size="13" font-weight="bold" lengthAdjust="spacing" textLength="7" x="519" y="236.4736">4</text><text fill="#000000" font-family="sans-serif" font-size="13" lengthAdjust="spacing" textLength="67" x="530" y="236.4736">repositories</text><polygon fill="#181818" points="721.5,269.0273,731.5,273.0273,721.5,277.0273,725.5,273.0273" style="stroke:#181818;stroke-width:1.0;"/><line style="stroke:#181818;stroke-width:1.0;" x1="502" x2="727.5" y1="273.0273" y2="273.0273"/><text fill="#000000" font-family="sans-serif" font-size="13" font-weight="bold" lengthAdjust="spacing" textLength="7" x="509" y="267.7646">5</text><text fill="#000000" font-family="sans-serif" font-size="13" lengthAdjust="spacing" textLength="171" x="520" y="267.7646">getRegistedSkillsRepository()</text><polygon fill="#181818" points="513,300.3184,503,304.3184,513,308.3184,509,304.3184" style="stroke:#181818;stroke-width:1.0;"/><line style="stroke:#181818;stroke-width:1.0;stroke-dasharray:2.0,2.0;" x1="507" x2="737.5" y1="304.3184" y2="304.3184"/><text fill="#000000" font-family="sans-serif" font-size="13" font-weight="bold" lengthAdjust="spacing" textLength="7" x="519" y="299.0557">6</text><text fill="#000000" font-family="sans-serif" font-size="13" lengthAdjust="spacing" textLength="140" x="530" y="299.0557">registedSkillsRepository</text><polygon fill="#181818" points="328,331.6094,318,335.6094,328,339.6094,324,335.6094" style="stroke:#181818;stroke-width:1.0;"/><line style="stroke:#181818;stroke-width:1.0;stroke-dasharray:2.0,2.0;" x1="322" x2="496" y1="335.6094" y2="335.6094"/><text fill="#000000" font-family="sans-serif" font-size="13" font-weight="bold" lengthAdjust="spacing" textLength="7" x="334" y="330.3467">7</text><text fill="#000000" font-family="sans-serif" font-size="13" lengthAdjust="spacing" textLength="140" x="345" y="330.3467">registedSkillsRepository</text><path d="M10,350.6094 L83,350.6094 L83,359.9004 L73,369.9004 L10,369.9004 L10,350.6094 " fill="#EEEEEE" style="stroke:#000000;stroke-width:1.5;"/><rect fill="none" height="282.2793" style="stroke:#000000;stroke-width:1.5;" width="1093.5" x="10" y="350.6094"/><text fill="#000000" font-family="sans-serif" font-size="13" font-weight="bold" lengthAdjust="spacing" textLength="28" x="25" y="365.6377">loop</text><text fill="#000000" font-family="sans-serif" font-size="11" font-weight="bold" lengthAdjust="spacing" textLength="90" x="98" y="364.4795">[while intended]</text><polygon fill="#181818" points="97,389.1914,87,393.1914,97,397.1914,93,393.1914" style="stroke:#181818;stroke-width:1.0;"/><line style="stroke:#181818;stroke-width:1.0;stroke-dasharray:2.0,2.0;" x1="91" x2="311" y1="393.1914" y2="393.1914"/><text fill="#000000" font-family="sans-serif" font-size="13" font-weight="bold" lengthAdjust="spacing" textLength="7" x="103" y="387.9287">8</text><text fill="#000000" font-family="sans-serif" font-size="13" lengthAdjust="spacing" textLength="135" x="114" y="387.9287">requests the skill name</text><polygon fill="#181818" points="295,420.4824,305,424.4824,295,428.4824,299,424.4824" style="stroke:#181818;stroke-width:1.0;"/><line style="stroke:#181818;stroke-width:1.0;" x1="86" x2="301" y1="424.4824" y2="424.4824"/><text fill="#000000" font-family="sans-serif" font-size="13" font-weight="bold" lengthAdjust="spacing" textLength="7" x="93" y="419.2197">9</text><text fill="#000000" font-family="sans-serif" font-size="13" lengthAdjust="spacing" textLength="144" x="104" y="419.2197">types the new skill name</text><polygon fill="#181818" points="480,451.7734,490,455.7734,480,459.7734,484,455.7734" style="stroke:#181818;stroke-width:1.0;"/><line style="stroke:#181818;stroke-width:1.0;" x1="317" x2="486" y1="455.7734" y2="455.7734"/><text fill="#000000" font-family="sans-serif" font-size="13" font-weight="bold" lengthAdjust="spacing" textLength="14" x="324" y="450.5107">10</text><text fill="#000000" font-family="sans-serif" font-size="13" lengthAdjust="spacing" textLength="61" x="342" y="450.5107">createSkill</text><polygon fill="#181818" points="865,483.0645,875,487.0645,865,491.0645,869,487.0645" style="stroke:#181818;stroke-width:1.0;"/><line style="stroke:#181818;stroke-width:1.0;" x1="502" x2="871" y1="487.0645" y2="487.0645"/><text fill="#000000" font-family="sans-serif" font-size="13" font-weight="bold" lengthAdjust="spacing" textLength="14" x="509" y="481.8018">11</text><text fill="#000000" font-family="sans-serif" font-size="13" lengthAdjust="spacing" textLength="61" x="527" y="481.8018">createSkill</text><polygon fill="#181818" points="1008.5,514.3555,1018.5,518.3555,1008.5,522.3555,1012.5,518.3555" style="stroke:#181818;stroke-width:1.0;"/><line style="stroke:#181818;stroke-width:1.0;" x1="887" x2="1014.5" y1="518.3555" y2="518.3555"/><text fill="#000000" font-family="sans-serif" font-size="13" font-weight="bold" lengthAdjust="spacing" textLength="14" x="894" y="513.0928">12</text><text fill="#000000" font-family="sans-serif" font-size="13" lengthAdjust="spacing" textLength="63" x="912" y="513.0928">create skill</text><rect fill="#E3E3E3" height="51.2422" rx="2.5" ry="2.5" style="stroke:#181818;stroke-width:0.5;" width="73" x="1020.5" y="495.0645"/><text fill="#000000" font-family="sans-serif" font-size="14" lengthAdjust="spacing" textLength="59" x="1027.5" y="517.1719">skillName</text><text fill="#000000" font-family="sans-serif" font-size="14" lengthAdjust="spacing" textLength="29" x="1042.5" y="535.793">:Skill</text><polygon fill="#181818" points="898,576.5977,888,580.5977,898,584.5977,894,580.5977" style="stroke:#181818;stroke-width:1.0;"/><line style="stroke:#181818;stroke-width:1.0;" x1="892" x2="1056" y1="580.5977" y2="580.5977"/><text fill="#000000" font-family="sans-serif" font-size="13" font-weight="bold" lengthAdjust="spacing" textLength="14" x="904" y="575.335">13</text><text fill="#000000" font-family="sans-serif" font-size="13" lengthAdjust="spacing" textLength="115" x="922" y="575.335">addSkill (skillName)</text><line style="stroke:#181818;stroke-width:1.0;" x1="887" x2="929" y1="611.8887" y2="611.8887"/><line style="stroke:#181818;stroke-width:1.0;" x1="929" x2="929" y1="611.8887" y2="624.8887"/><line style="stroke:#181818;stroke-width:1.0;" x1="888" x2="929" y1="624.8887" y2="624.8887"/><polygon fill="#181818" points="898,620.8887,888,624.8887,898,628.8887,894,624.8887" style="stroke:#181818;stroke-width:1.0;"/><text fill="#000000" font-family="sans-serif" font-size="13" font-weight="bold" lengthAdjust="spacing" textLength="14" x="894" y="606.626">14</text><text fill="#000000" font-family="sans-serif" font-size="13" lengthAdjust="spacing" textLength="133" x="912" y="606.626">validateSkill(skillName)</text><polygon fill="#181818" points="513,659.1797,503,663.1797,513,667.1797,509,663.1797" style="stroke:#181818;stroke-width:1.0;"/><line style="stroke:#181818;stroke-width:1.0;stroke-dasharray:2.0,2.0;" x1="507" x2="881" y1="663.1797" y2="663.1797"/><text fill="#000000" font-family="sans-serif" font-size="13" font-weight="bold" lengthAdjust="spacing" textLength="14" x="519" y="657.917">15</text><text fill="#000000" font-family="sans-serif" font-size="13" lengthAdjust="spacing" textLength="99" x="537" y="657.917">registedSkillsList</text><polygon fill="#181818" points="328,690.4707,318,694.4707,328,698.4707,324,694.4707" style="stroke:#181818;stroke-width:1.0;"/><line style="stroke:#181818;stroke-width:1.0;stroke-dasharray:2.0,2.0;" x1="322" x2="496" y1="694.4707" y2="694.4707"/><text fill="#000000" font-family="sans-serif" font-size="13" font-weight="bold" lengthAdjust="spacing" textLength="14" x="334" y="689.208">16</text><text fill="#000000" font-family="sans-serif" font-size="13" lengthAdjust="spacing" textLength="99" x="352" y="689.208">registedSkillsList</text><polygon fill="#181818" points="97,739.0527,87,743.0527,97,747.0527,93,743.0527" style="stroke:#181818;stroke-width:1.0;"/><line style="stroke:#181818;stroke-width:1.0;stroke-dasharray:2.0,2.0;" x1="91" x2="311" y1="743.0527" y2="743.0527"/><text fill="#000000" font-family="sans-serif" font-size="13" font-weight="bold" lengthAdjust="spacing" textLength="14" x="103" y="729.1445">17</text><text fill="#000000" font-family="sans-serif" font-size="13" lengthAdjust="spacing" textLength="153" x="121" y="720.499">show all the skills registed</text><text fill="#000000" font-family="sans-serif" font-size="13" lengthAdjust="spacing" textLength="107" x="125" y="737.79">and aks to confirm</text><polygon fill="#181818" points="295,770.3438,305,774.3438,295,778.3438,299,774.3438" style="stroke:#181818;stroke-width:1.0;"/><line style="stroke:#181818;stroke-width:1.0;" x1="86" x2="301" y1="774.3438" y2="774.3438"/><text fill="#000000" font-family="sans-serif" font-size="13" font-weight="bold" lengthAdjust="spacing" textLength="14" x="93" y="769.0811">18</text><text fill="#000000" font-family="sans-serif" font-size="13" lengthAdjust="spacing" textLength="184" x="111" y="769.0811">confirm the set of skills registed</text><polygon fill="#181818" points="97,801.6348,87,805.6348,97,809.6348,93,805.6348" style="stroke:#181818;stroke-width:1.0;"/><line style="stroke:#181818;stroke-width:1.0;stroke-dasharray:2.0,2.0;" x1="91" x2="311" y1="805.6348" y2="805.6348"/><text fill="#000000" font-family="sans-serif" font-size="13" font-weight="bold" lengthAdjust="spacing" textLength="14" x="103" y="800.3721">19</text><text fill="#000000" font-family="sans-serif" font-size="13" lengthAdjust="spacing" textLength="158" x="121" y="800.3721">displays operation success</text><!--SRC=[bLN1Rk8m4BtdAqOzjKWSzefMAw5gLqMYgrMWDoxUP02BnCxQJX5_lsCRZ4qSsleKx7bldcVU67tWecEAjT1A8QkzaYs2KJqMEfnqh3gm7QxCgK5GM1acTaqSeFUibaSkTh1bZSQYO9MH2XvU-fO9A57BNbMeD-AL2I9I3y0ql9Il1S4DhtZ7X867MOaxhitgm9j6lorSqDlYJiop54R9fZaJFg_BvI2wavgJ5exQnOIDquhRInWfKeYA41in9FYpdAzl4LOHrbxJDS5i8ygHexEK_67AhktfRzOYYN6H3hkUbpz_pQdEFLsWR_-YWc-kwloT6NIbBO0MVS3q1rKHPWGxQ30Il5vW8F08Zjw51Z2Lt6tOHK22sy9E9aHHAQI8wt70kDA7RVlBuZB59f8TceNGvA4A7v-6LBaEXIYxSgpJiyePnFqBi1e_HtyHRflibOurAQVSMIEHwdXYRICTp-XCoQWFtwTJh-zhFDVED59sSDnpcc4k38eQwqIixJL9jPQnAVxrg0qPPe_U9238XBaCiLzYlvbJXnuVZ9Pon0otGYubyuvR1PTcN9TWhzRBbmXIoWGRUMIalacuz-986fBWPtGokMICPYrUFkoUPXhTsc_2OtWEdePYFX8qpl_E6bvVYZB8GLRvmiNFhHlOT4dV2Kqob9yfkE_jnLvtsBFs7rXSx-KH61KrM5m7qeq09cfW_iMifDXorHPZybsIEvCHJyMPooT50t9xcpl_6YVIQwwxXfqqo0uLCvnUGDrNz0_hdxmR2Vy1]--></g></svg>