<?xml version="1.0" encoding="us-ascii" standalone="no"?><svg xmlns="http://www.w3.org/2000/svg" xmlns:xlink="http://www.w3.org/1999/xlink" contentStyleType="text/css" height="465px" preserveAspectRatio="none" style="width:641px;height:465px;background:#FFFFFF;" version="1.1" viewBox="0 0 641 465" width="641px" zoomAndPan="magnify"><defs/><g><!--class RegisterSkillUI--><g id="elem_RegisterSkillUI"><rect codeLine="7" fill="#F1F1F1" height="48" id="RegisterSkillUI" rx="2.5" ry="2.5" style="stroke:#181818;stroke-width:0.5;" width="122" x="7" y="35"/><ellipse cx="22" cy="51" fill="#ADD1B2" rx="11" ry="11" style="stroke:#181818;stroke-width:1.0;"/><path d="M24.7656,46.875 Q24.9219,46.6563 25.1094,46.5469 Q25.2969,46.4375 25.5156,46.4375 Q25.8906,46.4375 26.125,46.7031 Q26.3594,46.9531 26.3594,47.5625 L26.3594,49.0156 Q26.3594,49.625 26.125,49.8906 Q25.8906,50.1563 25.5156,50.1563 Q25.1719,50.1563 24.9688,49.9531 Q24.7656,49.7656 24.6563,49.25 Q24.6094,48.8906 24.4219,48.7031 Q24.0938,48.3281 23.4844,48.1094 Q22.875,47.8906 22.25,47.8906 Q21.4844,47.8906 20.8438,48.2188 Q20.2188,48.5469 19.7188,49.2969 Q19.2344,50.0469 19.2344,51.0781 L19.2344,52.1719 Q19.2344,53.4063 20.125,54.2344 Q21.0156,55.0469 22.6094,55.0469 Q23.5469,55.0469 24.2031,54.7969 Q24.5938,54.6406 25.0156,54.2031 Q25.2813,53.9375 25.4219,53.8594 Q25.5781,53.7813 25.7813,53.7813 Q26.1094,53.7813 26.3594,54.0469 Q26.625,54.2969 26.625,54.6406 Q26.625,54.9844 26.2813,55.3906 Q25.7813,55.9688 24.9844,56.2969 Q23.9063,56.75 22.6094,56.75 Q21.0938,56.75 19.8906,56.125 Q18.9063,55.625 18.2188,54.5625 Q17.5313,53.4844 17.5313,52.2031 L17.5313,51.0469 Q17.5313,49.7188 18.1406,48.5781 Q18.7656,47.4219 19.8594,46.8125 Q20.9531,46.1875 22.1875,46.1875 Q22.9219,46.1875 23.5625,46.3594 Q24.2188,46.5156 24.7656,46.875 Z " fill="#000000"/><text fill="#000000" font-family="sans-serif" font-size="14" lengthAdjust="spacing" textLength="90" x="36" y="56.7969">RegisterSkillUI</text><line style="stroke:#181818;stroke-width:0.5;" x1="8" x2="128" y1="67" y2="67"/><line style="stroke:#181818;stroke-width:0.5;" x1="8" x2="128" y1="75" y2="75"/></g><!--class RegisterSkillController--><g id="elem_RegisterSkillController"><rect codeLine="10" fill="#F1F1F1" height="85.2422" id="RegisterSkillController" rx="2.5" ry="2.5" style="stroke:#181818;stroke-width:0.5;" width="172" x="164" y="16.5"/><ellipse cx="179" cy="32.5" fill="#ADD1B2" rx="11" ry="11" style="stroke:#181818;stroke-width:1.0;"/><path d="M181.7656,28.375 Q181.9219,28.1563 182.1094,28.0469 Q182.2969,27.9375 182.5156,27.9375 Q182.8906,27.9375 183.125,28.2031 Q183.3594,28.4531 183.3594,29.0625 L183.3594,30.5156 Q183.3594,31.125 183.125,31.3906 Q182.8906,31.6563 182.5156,31.6563 Q182.1719,31.6563 181.9688,31.4531 Q181.7656,31.2656 181.6563,30.75 Q181.6094,30.3906 181.4219,30.2031 Q181.0938,29.8281 180.4844,29.6094 Q179.875,29.3906 179.25,29.3906 Q178.4844,29.3906 177.8438,29.7188 Q177.2188,30.0469 176.7188,30.7969 Q176.2344,31.5469 176.2344,32.5781 L176.2344,33.6719 Q176.2344,34.9063 177.125,35.7344 Q178.0156,36.5469 179.6094,36.5469 Q180.5469,36.5469 181.2031,36.2969 Q181.5938,36.1406 182.0156,35.7031 Q182.2813,35.4375 182.4219,35.3594 Q182.5781,35.2813 182.7813,35.2813 Q183.1094,35.2813 183.3594,35.5469 Q183.625,35.7969 183.625,36.1406 Q183.625,36.4844 183.2813,36.8906 Q182.7813,37.4688 181.9844,37.7969 Q180.9063,38.25 179.6094,38.25 Q178.0938,38.25 176.8906,37.625 Q175.9063,37.125 175.2188,36.0625 Q174.5313,34.9844 174.5313,33.7031 L174.5313,32.5469 Q174.5313,31.2188 175.1406,30.0781 Q175.7656,28.9219 176.8594,28.3125 Q177.9531,27.6875 179.1875,27.6875 Q179.9219,27.6875 180.5625,27.8594 Q181.2188,28.0156 181.7656,28.375 Z " fill="#000000"/><text fill="#000000" font-family="sans-serif" font-size="14" lengthAdjust="spacing" textLength="140" x="193" y="38.2969">RegisterSkillController</text><line style="stroke:#181818;stroke-width:0.5;" x1="165" x2="335" y1="48.5" y2="48.5"/><line style="stroke:#181818;stroke-width:0.5;" x1="165" x2="335" y1="56.5" y2="56.5"/><text fill="#000000" font-family="sans-serif" font-size="14" lengthAdjust="spacing" textLength="158" x="170" y="75.6074">+RegisterSkillController()</text><text fill="#000000" font-family="sans-serif" font-size="14" lengthAdjust="spacing" textLength="92" x="170" y="94.2285">+getSkillsList()</text></g><!--class Skill--><g id="elem_Skill"><rect codeLine="15" fill="#F1F1F1" height="103.8633" id="Skill" rx="2.5" ry="2.5" style="stroke:#181818;stroke-width:0.5;" width="139" x="200.5" y="355"/><ellipse cx="253.25" cy="371" fill="#ADD1B2" rx="11" ry="11" style="stroke:#181818;stroke-width:1.0;"/><path d="M256.0156,366.875 Q256.1719,366.6563 256.3594,366.5469 Q256.5469,366.4375 256.7656,366.4375 Q257.1406,366.4375 257.375,366.7031 Q257.6094,366.9531 257.6094,367.5625 L257.6094,369.0156 Q257.6094,369.625 257.375,369.8906 Q257.1406,370.1563 256.7656,370.1563 Q256.4219,370.1563 256.2188,369.9531 Q256.0156,369.7656 255.9063,369.25 Q255.8594,368.8906 255.6719,368.7031 Q255.3438,368.3281 254.7344,368.1094 Q254.125,367.8906 253.5,367.8906 Q252.7344,367.8906 252.0938,368.2188 Q251.4688,368.5469 250.9688,369.2969 Q250.4844,370.0469 250.4844,371.0781 L250.4844,372.1719 Q250.4844,373.4063 251.375,374.2344 Q252.2656,375.0469 253.8594,375.0469 Q254.7969,375.0469 255.4531,374.7969 Q255.8438,374.6406 256.2656,374.2031 Q256.5313,373.9375 256.6719,373.8594 Q256.8281,373.7813 257.0313,373.7813 Q257.3594,373.7813 257.6094,374.0469 Q257.875,374.2969 257.875,374.6406 Q257.875,374.9844 257.5313,375.3906 Q257.0313,375.9688 256.2344,376.2969 Q255.1563,376.75 253.8594,376.75 Q252.3438,376.75 251.1406,376.125 Q250.1563,375.625 249.4688,374.5625 Q248.7813,373.4844 248.7813,372.2031 L248.7813,371.0469 Q248.7813,369.7188 249.3906,368.5781 Q250.0156,367.4219 251.1094,366.8125 Q252.2031,366.1875 253.4375,366.1875 Q254.1719,366.1875 254.8125,366.3594 Q255.4688,366.5156 256.0156,366.875 Z " fill="#000000"/><text fill="#000000" font-family="sans-serif" font-size="14" lengthAdjust="spacing" textLength="25" x="273.75" y="376.7969">Skill</text><line style="stroke:#181818;stroke-width:0.5;" x1="201.5" x2="338.5" y1="387" y2="387"/><text fill="#000000" font-family="sans-serif" font-size="14" lengthAdjust="spacing" textLength="81" x="206.5" y="406.1074">-String name</text><line style="stroke:#181818;stroke-width:0.5;" x1="201.5" x2="338.5" y1="413.6211" y2="413.6211"/><text fill="#000000" font-family="sans-serif" font-size="14" lengthAdjust="spacing" textLength="78" x="206.5" y="432.7285">+Skill(name)</text><text fill="#000000" font-family="sans-serif" font-size="14" lengthAdjust="spacing" textLength="127" x="206.5" y="451.3496">+validateSkill(name)</text></g><!--class SkillsRepository--><g id="elem_SkillsRepository"><rect codeLine="21" fill="#F1F1F1" height="103.8633" id="SkillsRepository" rx="2.5" ry="2.5" style="stroke:#181818;stroke-width:0.5;" width="139" x="312.5" y="190"/><ellipse cx="330.65" cy="206" fill="#ADD1B2" rx="11" ry="11" style="stroke:#181818;stroke-width:1.0;"/><path d="M333.4156,201.875 Q333.5719,201.6563 333.7594,201.5469 Q333.9469,201.4375 334.1656,201.4375 Q334.5406,201.4375 334.775,201.7031 Q335.0094,201.9531 335.0094,202.5625 L335.0094,204.0156 Q335.0094,204.625 334.775,204.8906 Q334.5406,205.1563 334.1656,205.1563 Q333.8219,205.1563 333.6188,204.9531 Q333.4156,204.7656 333.3063,204.25 Q333.2594,203.8906 333.0719,203.7031 Q332.7438,203.3281 332.1344,203.1094 Q331.525,202.8906 330.9,202.8906 Q330.1344,202.8906 329.4938,203.2188 Q328.8688,203.5469 328.3688,204.2969 Q327.8844,205.0469 327.8844,206.0781 L327.8844,207.1719 Q327.8844,208.4063 328.775,209.2344 Q329.6656,210.0469 331.2594,210.0469 Q332.1969,210.0469 332.8531,209.7969 Q333.2438,209.6406 333.6656,209.2031 Q333.9313,208.9375 334.0719,208.8594 Q334.2281,208.7813 334.4313,208.7813 Q334.7594,208.7813 335.0094,209.0469 Q335.275,209.2969 335.275,209.6406 Q335.275,209.9844 334.9313,210.3906 Q334.4313,210.9688 333.6344,211.2969 Q332.5563,211.75 331.2594,211.75 Q329.7438,211.75 328.5406,211.125 Q327.5563,210.625 326.8688,209.5625 Q326.1813,208.4844 326.1813,207.2031 L326.1813,206.0469 Q326.1813,204.7188 326.7906,203.5781 Q327.4156,202.4219 328.5094,201.8125 Q329.6031,201.1875 330.8375,201.1875 Q331.5719,201.1875 332.2125,201.3594 Q332.8688,201.5156 333.4156,201.875 Z " fill="#000000"/><text fill="#000000" font-family="sans-serif" font-size="14" lengthAdjust="spacing" textLength="100" x="345.35" y="211.7969">SkillsRepository</text><line style="stroke:#181818;stroke-width:0.5;" x1="313.5" x2="450.5" y1="222" y2="222"/><line style="stroke:#181818;stroke-width:0.5;" x1="313.5" x2="450.5" y1="230" y2="230"/><text fill="#000000" font-family="sans-serif" font-size="14" lengthAdjust="spacing" textLength="92" x="318.5" y="249.1074">+getSkillsList()</text><text fill="#000000" font-family="sans-serif" font-size="14" lengthAdjust="spacing" textLength="102" x="318.5" y="267.7285">+addSkill(name)</text><text fill="#000000" font-family="sans-serif" font-size="14" lengthAdjust="spacing" textLength="127" x="318.5" y="286.3496">+validateSkill(name)</text></g><!--class Repositories--><g id="elem_Repositories"><rect codeLine="27" fill="#F1F1F1" height="103.8633" id="Repositories" rx="2.5" ry="2.5" style="stroke:#181818;stroke-width:0.5;" width="194" x="440" y="7"/><ellipse cx="493.25" cy="23" fill="#ADD1B2" rx="11" ry="11" style="stroke:#181818;stroke-width:1.0;"/><path d="M496.0156,18.875 Q496.1719,18.6563 496.3594,18.5469 Q496.5469,18.4375 496.7656,18.4375 Q497.1406,18.4375 497.375,18.7031 Q497.6094,18.9531 497.6094,19.5625 L497.6094,21.0156 Q497.6094,21.625 497.375,21.8906 Q497.1406,22.1563 496.7656,22.1563 Q496.4219,22.1563 496.2188,21.9531 Q496.0156,21.7656 495.9063,21.25 Q495.8594,20.8906 495.6719,20.7031 Q495.3438,20.3281 494.7344,20.1094 Q494.125,19.8906 493.5,19.8906 Q492.7344,19.8906 492.0938,20.2188 Q491.4688,20.5469 490.9688,21.2969 Q490.4844,22.0469 490.4844,23.0781 L490.4844,24.1719 Q490.4844,25.4063 491.375,26.2344 Q492.2656,27.0469 493.8594,27.0469 Q494.7969,27.0469 495.4531,26.7969 Q495.8438,26.6406 496.2656,26.2031 Q496.5313,25.9375 496.6719,25.8594 Q496.8281,25.7813 497.0313,25.7813 Q497.3594,25.7813 497.6094,26.0469 Q497.875,26.2969 497.875,26.6406 Q497.875,26.9844 497.5313,27.3906 Q497.0313,27.9688 496.2344,28.2969 Q495.1563,28.75 493.8594,28.75 Q492.3438,28.75 491.1406,28.125 Q490.1563,27.625 489.4688,26.5625 Q488.7813,25.4844 488.7813,24.2031 L488.7813,23.0469 Q488.7813,21.7188 489.3906,20.5781 Q490.0156,19.4219 491.1094,18.8125 Q492.2031,18.1875 493.4375,18.1875 Q494.1719,18.1875 494.8125,18.3594 Q495.4688,18.5156 496.0156,18.875 Z " fill="#000000"/><text fill="#000000" font-family="sans-serif" font-size="14" lengthAdjust="spacing" textLength="79" x="513.75" y="28.7969">Repositories</text><line style="stroke:#181818;stroke-width:0.5;" x1="441" x2="633" y1="39" y2="39"/><line style="stroke:#181818;stroke-width:0.5;" x1="441" x2="633" y1="47" y2="47"/><text fill="#000000" font-family="sans-serif" font-size="14" lengthAdjust="spacing" textLength="94" x="446" y="66.1074">-Repositories()</text><text fill="#000000" font-family="sans-serif" font-size="14" lengthAdjust="spacing" textLength="182" x="446" y="84.7285">+getInstance() : Repositories</text><text fill="#000000" font-family="sans-serif" font-size="14" lengthAdjust="spacing" textLength="138" x="446" y="103.3496">+getSkillsRepository()</text></g><!--link RegisterSkillUI to RegisterSkillController--><g id="link_RegisterSkillUI_RegisterSkillController"><path codeLine="34" d="M129.05,59 C131.8,59 142.64,59 157.82,59 " fill="none" id="RegisterSkillUI-to-RegisterSkillController" style="stroke:#181818;stroke-width:1.0;stroke-dasharray:7.0,7.0;"/><polygon fill="#181818" points="163.82,59,154.82,55,158.82,59,154.82,63,163.82,59" style="stroke:#181818;stroke-width:1.0;"/></g><!--link RegisterSkillController to Repositories--><g id="link_RegisterSkillController_Repositories"><path codeLine="36" d="M336.11,59 C368.8,59 400.25,59 433.89,59 " fill="none" id="RegisterSkillController-to-Repositories" style="stroke:#181818;stroke-width:1.0;stroke-dasharray:7.0,7.0;"/><polygon fill="#181818" points="439.89,59,430.89,55,434.89,59,430.89,63,439.89,59" style="stroke:#181818;stroke-width:1.0;"/><text fill="#000000" font-family="sans-serif" font-size="13" lengthAdjust="spacing" textLength="67" x="354.5" y="52.0283">repositories</text></g><!--link Repositories to SkillsRepository--><g id="link_Repositories_SkillsRepository"><path codeLine="38" d="M493,111.38 C471.96,135.94 450.7632,160.7031 429.7432,185.2431 " fill="none" id="Repositories-to-SkillsRepository" style="stroke:#181818;stroke-width:1.0;"/><polygon fill="#181818" points="425.84,189.8,434.7327,185.5669,429.0927,186.0026,428.6569,180.3626,425.84,189.8" style="stroke:#181818;stroke-width:1.0;"/><text fill="#000000" font-family="sans-serif" font-size="13" lengthAdjust="spacing" textLength="7" x="424.2607" y="178.7005">1</text></g><!--link RegisterSkillController to Skill--><g id="link_RegisterSkillController_Skill"><path codeLine="40" d="M252.41,101.74 C256.09,165.27 262.724,280.12 266.694,348.85 " fill="none" id="RegisterSkillController-to-Skill" style="stroke:#181818;stroke-width:1.0;stroke-dasharray:7.0,7.0;"/><polygon fill="#181818" points="267.04,354.84,270.5143,345.6243,266.7517,349.8483,262.5277,346.0856,267.04,354.84" style="stroke:#181818;stroke-width:1.0;"/><text fill="#000000" font-family="sans-serif" font-size="13" lengthAdjust="spacing" textLength="25" x="265" y="247.5283">Skill</text></g><!--link RegisterSkillController to SkillsRepository--><g id="link_RegisterSkillController_SkillsRepository"><path codeLine="41" d="M280.28,101.53 C299.46,127.83 320.8647,157.1722 341.2547,185.1322 " fill="none" id="RegisterSkillController-to-SkillsRepository" style="stroke:#181818;stroke-width:1.0;stroke-dasharray:7.0,7.0;"/><polygon fill="#181818" points="344.79,189.98,342.7189,180.3514,341.8439,185.9401,336.2551,185.0651,344.79,189.98" style="stroke:#181818;stroke-width:1.0;"/><text fill="#000000" font-family="sans-serif" font-size="13" lengthAdjust="spacing" textLength="94" x="321" y="156.0283">SkillsRepository</text></g><!--link SkillsRepository to Skill--><g id="link_SkillsRepository_Skill"><path codeLine="43" d="M346.87,294.13 C333.59,313.45 321.8775,330.4946 308.5975,349.8246 " fill="none" id="SkillsRepository-to-Skill" style="stroke:#181818;stroke-width:1.0;"/><polygon fill="#181818" points="305.2,354.77,313.5932,349.617,308.0313,350.6489,306.9994,345.0869,305.2,354.77" style="stroke:#181818;stroke-width:1.0;"/><text fill="#000000" font-family="sans-serif" font-size="13" lengthAdjust="spacing" textLength="7" x="334.9205" y="315.9539">1</text><text fill="#000000" font-family="sans-serif" font-size="13" lengthAdjust="spacing" textLength="5" x="304.5941" y="343.6665">*</text></g><!--SRC=[bPB1JeGm48RlVOfcJwm6erSEcnXF99wM-00ZZDWmsv9ErQ3ntIq5Qs5tDVP2El_Vlrzdu4xf7YmSP0zr1orMRY2K5ci7kYKK70ty38rvKxgLJq2SAgGqkg57sHiQnasYrGJCjyvPzVZYiAoDhjGxociXH93a7bl53ctLAQA7Kdw8pvFIdT7E6YAqtYBzkZodPzjPRz45YU-zpLTZSAZECRciF9n_bOO3pWU3des5xwXN8DM0mrHPnl4UUyFA6Jj4m3N0L8Mc-US5CLeXH-oqc3wvrEndLsEsbSN2j8Rw0Pvw8zQZkDgTQ_7Acymcd4be2_yl9GXY8URvJcvkDaSD_2NUvq_JAwRltyvqCCM9guvC8r4WkvZ9XFW2]--></g></svg>