<?xml version="1.0" encoding="us-ascii" standalone="no"?><svg xmlns="http://www.w3.org/2000/svg" xmlns:xlink="http://www.w3.org/1999/xlink" contentStyleType="text/css" height="758px" preserveAspectRatio="none" style="width:769px;height:758px;background:#FFFFFF;" version="1.1" viewBox="0 0 769 758" width="769px" zoomAndPan="magnify"><defs/><g><rect fill="#FFFFFF" height="535.9082" style="stroke:#181818;stroke-width:1.0;" width="10" x="76" y="112.2422"/><rect fill="#FFFFFF" height="180.7461" style="stroke:#181818;stroke-width:1.0;" width="10" x="307" y="135.5332"/><rect fill="#FFFFFF" height="228.998" style="stroke:#181818;stroke-width:1.0;" width="10" x="307" y="347.5703"/><rect fill="#FFFFFF" height="31.291" style="stroke:#181818;stroke-width:1.0;" width="10" x="307" y="607.8594"/><rect fill="#FFFFFF" height="81.873" style="stroke:#181818;stroke-width:1.0;" width="10" x="492" y="176.8242"/><rect fill="#FFFFFF" height="149.125" style="stroke:#181818;stroke-width:1.0;" width="10" x="492" y="378.8613"/><rect fill="#FFFFFF" height="86.543" style="stroke:#181818;stroke-width:1.0;" width="10" x="663" y="410.1523"/><rect fill="none" height="192.707" style="stroke:#000000;stroke-width:1.5;" width="753" x="10" y="273.6973"/><line style="stroke:#181818;stroke-width:0.5;stroke-dasharray:5.0,5.0;" x1="81" x2="81" y1="102.2422" y2="657.1504"/><line style="stroke:#181818;stroke-width:0.5;stroke-dasharray:5.0,5.0;" x1="312" x2="312" y1="102.2422" y2="657.1504"/><line style="stroke:#181818;stroke-width:0.5;stroke-dasharray:5.0,5.0;" x1="497" x2="497" y1="175.3438" y2="657.1504"/><line style="stroke:#181818;stroke-width:0.5;stroke-dasharray:5.0,5.0;" x1="668" x2="668" y1="102.2422" y2="657.1504"/><text fill="#000000" font-family="sans-serif" font-size="14" lengthAdjust="spacing" textLength="116" x="20" y="80.1074">Human Resources</text><text fill="#000000" font-family="sans-serif" font-size="14" lengthAdjust="spacing" textLength="56" x="50" y="98.7285">Manager</text><ellipse cx="81" cy="13.5" fill="#E3E3E3" rx="8" ry="8" style="stroke:#181818;stroke-width:0.5;"/><path d="M81,21.5 L81,48.5 M68,29.5 L94,29.5 M81,48.5 L68,63.5 M81,48.5 L94,63.5 " fill="none" style="stroke:#181818;stroke-width:0.5;"/><text fill="#000000" font-family="sans-serif" font-size="14" lengthAdjust="spacing" textLength="116" x="20" y="671.2578">Human Resources</text><text fill="#000000" font-family="sans-serif" font-size="14" lengthAdjust="spacing" textLength="56" x="50" y="689.8789">Manager</text><ellipse cx="81" cy="701.8926" fill="#E3E3E3" rx="8" ry="8" style="stroke:#181818;stroke-width:0.5;"/><path d="M81,709.8926 L81,736.8926 M68,717.8926 L94,717.8926 M81,736.8926 L68,751.8926 M81,736.8926 L94,751.8926 " fill="none" style="stroke:#181818;stroke-width:0.5;"/><rect fill="#E3E3E3" height="32.6211" rx="2.5" ry="2.5" style="stroke:#181818;stroke-width:0.5;" width="102" x="261" y="68.6211"/><text fill="#000000" font-family="sans-serif" font-size="14" lengthAdjust="spacing" textLength="88" x="268" y="90.7285">:RegistSkillsUI</text><rect fill="#E3E3E3" height="32.6211" rx="2.5" ry="2.5" style="stroke:#181818;stroke-width:0.5;" width="102" x="261" y="656.1504"/><text fill="#000000" font-family="sans-serif" font-size="14" lengthAdjust="spacing" textLength="88" x="268" y="678.2578">:RegistSkillsUI</text><rect fill="#E3E3E3" height="32.6211" rx="2.5" ry="2.5" style="stroke:#181818;stroke-width:0.5;" width="152" x="421" y="656.1504"/><text fill="#000000" font-family="sans-serif" font-size="14" lengthAdjust="spacing" textLength="138" x="428" y="678.2578">:RegistSkillsController</text><rect fill="#E3E3E3" height="51.2422" rx="2.5" ry="2.5" style="stroke:#181818;stroke-width:0.5;" width="170" x="583" y="50"/><text fill="#000000" font-family="sans-serif" font-size="14" lengthAdjust="spacing" textLength="155" x="590.5" y="72.1074">registedSkillsRepository:</text><text fill="#000000" font-family="sans-serif" font-size="14" lengthAdjust="spacing" textLength="156" x="590" y="90.7285">RegistedSkillsRepository</text><rect fill="#E3E3E3" height="51.2422" rx="2.5" ry="2.5" style="stroke:#181818;stroke-width:0.5;" width="170" x="583" y="656.1504"/><text fill="#000000" font-family="sans-serif" font-size="14" lengthAdjust="spacing" textLength="155" x="590.5" y="678.2578">registedSkillsRepository:</text><text fill="#000000" font-family="sans-serif" font-size="14" lengthAdjust="spacing" textLength="156" x="590" y="696.8789">RegistedSkillsRepository</text><rect fill="#FFFFFF" height="535.9082" style="stroke:#181818;stroke-width:1.0;" width="10" x="76" y="112.2422"/><rect fill="#FFFFFF" height="180.7461" style="stroke:#181818;stroke-width:1.0;" width="10" x="307" y="135.5332"/><rect fill="#FFFFFF" height="228.998" style="stroke:#181818;stroke-width:1.0;" width="10" x="307" y="347.5703"/><rect fill="#FFFFFF" height="31.291" style="stroke:#181818;stroke-width:1.0;" width="10" x="307" y="607.8594"/><rect fill="#FFFFFF" height="81.873" style="stroke:#181818;stroke-width:1.0;" width="10" x="492" y="176.8242"/><rect fill="#FFFFFF" height="149.125" style="stroke:#181818;stroke-width:1.0;" width="10" x="492" y="378.8613"/><rect fill="#FFFFFF" height="86.543" style="stroke:#181818;stroke-width:1.0;" width="10" x="663" y="410.1523"/><polygon fill="#181818" points="295,131.5332,305,135.5332,295,139.5332,299,135.5332" style="stroke:#181818;stroke-width:1.0;"/><line style="stroke:#181818;stroke-width:1.0;" x1="86" x2="301" y1="135.5332" y2="135.5332"/><text fill="#000000" font-family="sans-serif" font-size="13" font-weight="bold" lengthAdjust="spacing" textLength="7" x="93" y="130.2705">1</text><text fill="#000000" font-family="sans-serif" font-size="13" lengthAdjust="spacing" textLength="144" x="104" y="130.2705">asks to regist a new skill</text><polygon fill="#181818" points="409,162.8242,419,166.8242,409,170.8242,413,166.8242" style="stroke:#181818;stroke-width:1.0;"/><line style="stroke:#181818;stroke-width:1.0;" x1="317" x2="415" y1="166.8242" y2="166.8242"/><text fill="#000000" font-family="sans-serif" font-size="13" font-weight="bold" lengthAdjust="spacing" textLength="7" x="324" y="161.5615">2</text><text fill="#000000" font-family="sans-serif" font-size="13" lengthAdjust="spacing" textLength="36" x="335" y="161.5615">create</text><rect fill="#E3E3E3" height="32.6211" rx="2.5" ry="2.5" style="stroke:#181818;stroke-width:0.5;" width="152" x="421" y="143.5332"/><text fill="#000000" font-family="sans-serif" font-size="14" lengthAdjust="spacing" textLength="138" x="428" y="165.6406">:RegistSkillsController</text><rect fill="none" height="43.252" style="stroke:#000000;stroke-width:1.5;" width="175" x="418" y="187.1543"/><path d="M418,187.1543 L480,187.1543 L480,196.1543 L470,206.1543 L418,206.1543 L418,187.1543 " fill="#EEEEEE" style="stroke:#000000;stroke-width:2.0;"/><text fill="#000000" font-family="sans-serif" font-size="13" font-weight="bold" lengthAdjust="spacing" textLength="17" x="431" y="203.1826">ref</text><text fill="#000000" font-family="sans-serif" font-size="12" lengthAdjust="spacing" textLength="167" x="422" y="223.1035">Get Registed Skills Repository</text><polygon fill="#181818" points="328,254.6973,318,258.6973,328,262.6973,324,258.6973" style="stroke:#181818;stroke-width:1.0;"/><line style="stroke:#181818;stroke-width:1.0;stroke-dasharray:2.0,2.0;" x1="322" x2="496" y1="258.6973" y2="258.6973"/><text fill="#000000" font-family="sans-serif" font-size="13" font-weight="bold" lengthAdjust="spacing" textLength="7" x="334" y="253.4346">3</text><text fill="#000000" font-family="sans-serif" font-size="13" lengthAdjust="spacing" textLength="140" x="345" y="253.4346">registedSkillsRepository</text><path d="M10,273.6973 L83,273.6973 L83,282.9883 L73,292.9883 L10,292.9883 L10,273.6973 " fill="#EEEEEE" style="stroke:#000000;stroke-width:1.5;"/><rect fill="none" height="192.707" style="stroke:#000000;stroke-width:1.5;" width="753" x="10" y="273.6973"/><text fill="#000000" font-family="sans-serif" font-size="13" font-weight="bold" lengthAdjust="spacing" textLength="28" x="25" y="288.7256">loop</text><text fill="#000000" font-family="sans-serif" font-size="11" font-weight="bold" lengthAdjust="spacing" textLength="90" x="98" y="287.5674">[while intended]</text><polygon fill="#181818" points="97,312.2793,87,316.2793,97,320.2793,93,316.2793" style="stroke:#181818;stroke-width:1.0;"/><line style="stroke:#181818;stroke-width:1.0;stroke-dasharray:2.0,2.0;" x1="91" x2="311" y1="316.2793" y2="316.2793"/><text fill="#000000" font-family="sans-serif" font-size="13" font-weight="bold" lengthAdjust="spacing" textLength="7" x="103" y="311.0166">4</text><text fill="#000000" font-family="sans-serif" font-size="13" lengthAdjust="spacing" textLength="135" x="114" y="311.0166">requests the skill name</text><polygon fill="#181818" points="295,343.5703,305,347.5703,295,351.5703,299,347.5703" style="stroke:#181818;stroke-width:1.0;"/><line style="stroke:#181818;stroke-width:1.0;" x1="86" x2="301" y1="347.5703" y2="347.5703"/><text fill="#000000" font-family="sans-serif" font-size="13" font-weight="bold" lengthAdjust="spacing" textLength="7" x="93" y="342.3076">5</text><text fill="#000000" font-family="sans-serif" font-size="13" lengthAdjust="spacing" textLength="144" x="104" y="342.3076">types the new skill name</text><polygon fill="#181818" points="480,374.8613,490,378.8613,480,382.8613,484,378.8613" style="stroke:#181818;stroke-width:1.0;"/><line style="stroke:#181818;stroke-width:1.0;stroke-dasharray:2.0,2.0;" x1="317" x2="486" y1="378.8613" y2="378.8613"/><text fill="#000000" font-family="sans-serif" font-size="13" font-weight="bold" lengthAdjust="spacing" textLength="7" x="324" y="373.5986">6</text><text fill="#000000" font-family="sans-serif" font-size="13" lengthAdjust="spacing" textLength="61" x="335" y="373.5986">createSkill</text><polygon fill="#181818" points="651,406.1523,661,410.1523,651,414.1523,655,410.1523" style="stroke:#181818;stroke-width:1.0;"/><line style="stroke:#181818;stroke-width:1.0;stroke-dasharray:2.0,2.0;" x1="502" x2="657" y1="410.1523" y2="410.1523"/><text fill="#000000" font-family="sans-serif" font-size="13" font-weight="bold" lengthAdjust="spacing" textLength="7" x="509" y="404.8896">7</text><text fill="#000000" font-family="sans-serif" font-size="13" lengthAdjust="spacing" textLength="61" x="520" y="404.8896">createSkill</text><rect fill="none" height="43.252" style="stroke:#000000;stroke-width:1.5;" width="176" x="580" y="418.1523"/><path d="M580,418.1523 L642,418.1523 L642,427.1523 L632,437.1523 L580,437.1523 L580,418.1523 " fill="#EEEEEE" style="stroke:#000000;stroke-width:2.0;"/><text fill="#000000" font-family="sans-serif" font-size="13" font-weight="bold" lengthAdjust="spacing" textLength="17" x="593" y="434.1807">ref</text><text fill="#000000" font-family="sans-serif" font-size="12" lengthAdjust="spacing" textLength="128" x="604" y="454.1016">Get Registed Skills List</text><polygon fill="#181818" points="513,492.6953,503,496.6953,513,500.6953,509,496.6953" style="stroke:#181818;stroke-width:1.0;"/><line style="stroke:#181818;stroke-width:1.0;stroke-dasharray:2.0,2.0;" x1="507" x2="667" y1="496.6953" y2="496.6953"/><text fill="#000000" font-family="sans-serif" font-size="13" font-weight="bold" lengthAdjust="spacing" textLength="7" x="519" y="491.4326">8</text><text fill="#000000" font-family="sans-serif" font-size="13" lengthAdjust="spacing" textLength="99" x="530" y="491.4326">registedSkillsList</text><polygon fill="#181818" points="328,523.9863,318,527.9863,328,531.9863,324,527.9863" style="stroke:#181818;stroke-width:1.0;"/><line style="stroke:#181818;stroke-width:1.0;stroke-dasharray:2.0,2.0;" x1="322" x2="496" y1="527.9863" y2="527.9863"/><text fill="#000000" font-family="sans-serif" font-size="13" font-weight="bold" lengthAdjust="spacing" textLength="7" x="334" y="522.7236">9</text><text fill="#000000" font-family="sans-serif" font-size="13" lengthAdjust="spacing" textLength="99" x="345" y="522.7236">registedSkillsList</text><polygon fill="#181818" points="97,572.5684,87,576.5684,97,580.5684,93,576.5684" style="stroke:#181818;stroke-width:1.0;"/><line style="stroke:#181818;stroke-width:1.0;stroke-dasharray:2.0,2.0;" x1="91" x2="311" y1="576.5684" y2="576.5684"/><text fill="#000000" font-family="sans-serif" font-size="13" font-weight="bold" lengthAdjust="spacing" textLength="14" x="103" y="562.6602">10</text><text fill="#000000" font-family="sans-serif" font-size="13" lengthAdjust="spacing" textLength="153" x="121" y="554.0146">show all the skills registed</text><text fill="#000000" font-family="sans-serif" font-size="13" lengthAdjust="spacing" textLength="107" x="125" y="571.3057">and aks to confirm</text><polygon fill="#181818" points="295,603.8594,305,607.8594,295,611.8594,299,607.8594" style="stroke:#181818;stroke-width:1.0;"/><line style="stroke:#181818;stroke-width:1.0;" x1="86" x2="301" y1="607.8594" y2="607.8594"/><text fill="#000000" font-family="sans-serif" font-size="13" font-weight="bold" lengthAdjust="spacing" textLength="14" x="93" y="602.5967">11</text><text fill="#000000" font-family="sans-serif" font-size="13" lengthAdjust="spacing" textLength="184" x="111" y="602.5967">confirm the set of skills registed</text><polygon fill="#181818" points="97,635.1504,87,639.1504,97,643.1504,93,639.1504" style="stroke:#181818;stroke-width:1.0;"/><line style="stroke:#181818;stroke-width:1.0;stroke-dasharray:2.0,2.0;" x1="91" x2="311" y1="639.1504" y2="639.1504"/><text fill="#000000" font-family="sans-serif" font-size="13" font-weight="bold" lengthAdjust="spacing" textLength="14" x="103" y="633.8877">12</text><text fill="#000000" font-family="sans-serif" font-size="13" lengthAdjust="spacing" textLength="158" x="121" y="633.8877">displays operation success</text><!--SRC=[ZLInRkCm3Dtz5KJ60Xbk3GwtT6WBj8jptRBmR2OMOei-KMwGlpzAJbJhOgVLP4kFJ-yzqfQZiJqwxA1ZorNZk2FmRg12qacFrH4FjFNdbi1HvT4UsYb06gpvPEm1zjWA5GLMdXsideSEBPGaFBYAP6VVq2gHMm4AF9TlXPPxKvaUhOVLfgI34RyzchQLzvS8Ud-vWtbawnstxONmyNVvcgDT15CzmalgMOmAEszsjbmuYanBXsfiy6o7xWyv-15jcW_q5BqKe4iVOFrBPSD6YOu2dc5K0GYMJY21Ca9JiNgC6s5fePO79myFIb4vKiJdSQg9NjEseptmXsgAsp1PJ-IJ6nZjmCJF5KQs3YH59kJdUXq9LSTIa0bUquoqbhc7KsDqQeprUWVLcRXWLjs6pC8LVmSIhuarDAO45ZkQks4Qs3HmV-vfh4z9vnnJXXaXGVarystgqqpkMN6CA9GlJGtad5bn8buUkIayDRhygY7t1k1LtpBWjVsNvnkIHMVNr6v6vEQAIVk-PpN56bjxXtrsz6x6Ine-0Uf0fF6IHBgpW9e0ZfzhnNPlN5SioS- -iPcfd4xaXMkyL3l1-__ldlyLPD9h8tsBPm7koQ4tR466Il-dKin8-0S0]--></g></svg>