<?xml version="1.0" encoding="us-ascii" standalone="no"?><svg xmlns="http://www.w3.org/2000/svg" xmlns:xlink="http://www.w3.org/1999/xlink" contentStyleType="text/css" height="531px" preserveAspectRatio="none" style="width:568px;height:531px;background:#FFFFFF;" version="1.1" viewBox="0 0 568 531" width="568px" zoomAndPan="magnify"><defs/><g><!--class ApplicationSession--><g id="elem_ApplicationSession"><rect codeLine="6" fill="#F1F1F1" height="85.2422" id="ApplicationSession" rx="2.5" ry="2.5" style="stroke:#181818;stroke-width:0.5;" width="151" x="390.5" y="275"/><ellipse cx="405.5" cy="291" fill="#ADD1B2" rx="11" ry="11" style="stroke:#181818;stroke-width:1.0;"/><path d="M408.2656,286.875 Q408.4219,286.6563 408.6094,286.5469 Q408.7969,286.4375 409.0156,286.4375 Q409.3906,286.4375 409.625,286.7031 Q409.8594,286.9531 409.8594,287.5625 L409.8594,289.0156 Q409.8594,289.625 409.625,289.8906 Q409.3906,290.1563 409.0156,290.1563 Q408.6719,290.1563 408.4688,289.9531 Q408.2656,289.7656 408.1563,289.25 Q408.1094,288.8906 407.9219,288.7031 Q407.5938,288.3281 406.9844,288.1094 Q406.375,287.8906 405.75,287.8906 Q404.9844,287.8906 404.3438,288.2188 Q403.7188,288.5469 403.2188,289.2969 Q402.7344,290.0469 402.7344,291.0781 L402.7344,292.1719 Q402.7344,293.4063 403.625,294.2344 Q404.5156,295.0469 406.1094,295.0469 Q407.0469,295.0469 407.7031,294.7969 Q408.0938,294.6406 408.5156,294.2031 Q408.7813,293.9375 408.9219,293.8594 Q409.0781,293.7813 409.2813,293.7813 Q409.6094,293.7813 409.8594,294.0469 Q410.125,294.2969 410.125,294.6406 Q410.125,294.9844 409.7813,295.3906 Q409.2813,295.9688 408.4844,296.2969 Q407.4063,296.75 406.1094,296.75 Q404.5938,296.75 403.3906,296.125 Q402.4063,295.625 401.7188,294.5625 Q401.0313,293.4844 401.0313,292.2031 L401.0313,291.0469 Q401.0313,289.7188 401.6406,288.5781 Q402.2656,287.4219 403.3594,286.8125 Q404.4531,286.1875 405.6875,286.1875 Q406.4219,286.1875 407.0625,286.3594 Q407.7188,286.5156 408.2656,286.875 Z " fill="#000000"/><text fill="#000000" font-family="sans-serif" font-size="14" lengthAdjust="spacing" textLength="119" x="419.5" y="296.7969">ApplicationSession</text><line style="stroke:#181818;stroke-width:0.5;" x1="391.5" x2="540.5" y1="307" y2="307"/><line style="stroke:#181818;stroke-width:0.5;" x1="391.5" x2="540.5" y1="315" y2="315"/><text fill="#000000" font-family="sans-serif" font-size="14" lengthAdjust="spacing" textLength="128" x="396.5" y="334.1074">+static getInstance()</text><text fill="#000000" font-family="sans-serif" font-size="14" lengthAdjust="spacing" textLength="136" x="396.5" y="352.7285">+getCurrentSession()</text></g><!--class UserSession--><g id="elem_UserSession"><rect codeLine="12" fill="#F1F1F1" height="66.6211" id="UserSession" rx="2.5" ry="2.5" style="stroke:#181818;stroke-width:0.5;" width="113" x="435.5" y="448"/><ellipse cx="451.4" cy="464" fill="#ADD1B2" rx="11" ry="11" style="stroke:#181818;stroke-width:1.0;"/><path d="M454.1656,459.875 Q454.3219,459.6563 454.5094,459.5469 Q454.6969,459.4375 454.9156,459.4375 Q455.2906,459.4375 455.525,459.7031 Q455.7594,459.9531 455.7594,460.5625 L455.7594,462.0156 Q455.7594,462.625 455.525,462.8906 Q455.2906,463.1563 454.9156,463.1563 Q454.5719,463.1563 454.3688,462.9531 Q454.1656,462.7656 454.0563,462.25 Q454.0094,461.8906 453.8219,461.7031 Q453.4938,461.3281 452.8844,461.1094 Q452.275,460.8906 451.65,460.8906 Q450.8844,460.8906 450.2438,461.2188 Q449.6188,461.5469 449.1188,462.2969 Q448.6344,463.0469 448.6344,464.0781 L448.6344,465.1719 Q448.6344,466.4063 449.525,467.2344 Q450.4156,468.0469 452.0094,468.0469 Q452.9469,468.0469 453.6031,467.7969 Q453.9938,467.6406 454.4156,467.2031 Q454.6813,466.9375 454.8219,466.8594 Q454.9781,466.7813 455.1813,466.7813 Q455.5094,466.7813 455.7594,467.0469 Q456.025,467.2969 456.025,467.6406 Q456.025,467.9844 455.6813,468.3906 Q455.1813,468.9688 454.3844,469.2969 Q453.3063,469.75 452.0094,469.75 Q450.4938,469.75 449.2906,469.125 Q448.3063,468.625 447.6188,467.5625 Q446.9313,466.4844 446.9313,465.2031 L446.9313,464.0469 Q446.9313,462.7188 447.5406,461.5781 Q448.1656,460.4219 449.2594,459.8125 Q450.3531,459.1875 451.5875,459.1875 Q452.3219,459.1875 452.9625,459.3594 Q453.6188,459.5156 454.1656,459.875 Z " fill="#000000"/><text fill="#000000" font-family="sans-serif" font-size="14" lengthAdjust="spacing" textLength="79" x="465.6" y="469.7969">UserSession</text><line style="stroke:#181818;stroke-width:0.5;" x1="436.5" x2="547.5" y1="480" y2="480"/><line style="stroke:#181818;stroke-width:0.5;" x1="436.5" x2="547.5" y1="488" y2="488"/><text fill="#000000" font-family="sans-serif" font-size="14" lengthAdjust="spacing" textLength="101" x="441.5" y="507.1074">+getUserEmail()</text></g><!--class Skill--><g id="elem_Skill"><rect codeLine="17" fill="#F1F1F1" height="85.2422" id="Skill" rx="2.5" ry="2.5" style="stroke:#181818;stroke-width:0.5;" width="117" x="269.5" y="439"/><ellipse cx="311.5" cy="455" fill="#ADD1B2" rx="11" ry="11" style="stroke:#181818;stroke-width:1.0;"/><path d="M314.2656,450.875 Q314.4219,450.6563 314.6094,450.5469 Q314.7969,450.4375 315.0156,450.4375 Q315.3906,450.4375 315.625,450.7031 Q315.8594,450.9531 315.8594,451.5625 L315.8594,453.0156 Q315.8594,453.625 315.625,453.8906 Q315.3906,454.1563 315.0156,454.1563 Q314.6719,454.1563 314.4688,453.9531 Q314.2656,453.7656 314.1563,453.25 Q314.1094,452.8906 313.9219,452.7031 Q313.5938,452.3281 312.9844,452.1094 Q312.375,451.8906 311.75,451.8906 Q310.9844,451.8906 310.3438,452.2188 Q309.7188,452.5469 309.2188,453.2969 Q308.7344,454.0469 308.7344,455.0781 L308.7344,456.1719 Q308.7344,457.4063 309.625,458.2344 Q310.5156,459.0469 312.1094,459.0469 Q313.0469,459.0469 313.7031,458.7969 Q314.0938,458.6406 314.5156,458.2031 Q314.7813,457.9375 314.9219,457.8594 Q315.0781,457.7813 315.2813,457.7813 Q315.6094,457.7813 315.8594,458.0469 Q316.125,458.2969 316.125,458.6406 Q316.125,458.9844 315.7813,459.3906 Q315.2813,459.9688 314.4844,460.2969 Q313.4063,460.75 312.1094,460.75 Q310.5938,460.75 309.3906,460.125 Q308.4063,459.625 307.7188,458.5625 Q307.0313,457.4844 307.0313,456.2031 L307.0313,455.0469 Q307.0313,453.7188 307.6406,452.5781 Q308.2656,451.4219 309.3594,450.8125 Q310.4531,450.1875 311.6875,450.1875 Q312.4219,450.1875 313.0625,450.3594 Q313.7188,450.5156 314.2656,450.875 Z " fill="#000000"/><text fill="#000000" font-family="sans-serif" font-size="14" lengthAdjust="spacing" textLength="25" x="331.5" y="460.7969">Skill</text><line style="stroke:#181818;stroke-width:0.5;" x1="270.5" x2="385.5" y1="471" y2="471"/><text fill="#000000" font-family="sans-serif" font-size="14" lengthAdjust="spacing" textLength="105" x="275.5" y="490.1074">-String name</text><line style="stroke:#181818;stroke-width:0.5;" x1="270.5" x2="385.5" y1="497.6211" y2="497.6211"/><text fill="#000000" font-family="sans-serif" font-size="14" lengthAdjust="spacing" textLength="43" x="275.5" y="516.7285">+Skill()</text></g><!--class SkillsRepository--><g id="elem_SkillsRepository"><rect codeLine="22" fill="#F1F1F1" height="66.6211" id="SkillsRepository" rx="2.5" ry="2.5" style="stroke:#181818;stroke-width:0.5;" width="132" x="151" y="284"/><ellipse cx="166" cy="300" fill="#ADD1B2" rx="11" ry="11" style="stroke:#181818;stroke-width:1.0;"/><path d="M168.7656,295.875 Q168.9219,295.6563 169.1094,295.5469 Q169.2969,295.4375 169.5156,295.4375 Q169.8906,295.4375 170.125,295.7031 Q170.3594,295.9531 170.3594,296.5625 L170.3594,298.0156 Q170.3594,298.625 170.125,298.8906 Q169.8906,299.1563 169.5156,299.1563 Q169.1719,299.1563 168.9688,298.9531 Q168.7656,298.7656 168.6563,298.25 Q168.6094,297.8906 168.4219,297.7031 Q168.0938,297.3281 167.4844,297.1094 Q166.875,296.8906 166.25,296.8906 Q165.4844,296.8906 164.8438,297.2188 Q164.2188,297.5469 163.7188,298.2969 Q163.2344,299.0469 163.2344,300.0781 L163.2344,301.1719 Q163.2344,302.4063 164.125,303.2344 Q165.0156,304.0469 166.6094,304.0469 Q167.5469,304.0469 168.2031,303.7969 Q168.5938,303.6406 169.0156,303.2031 Q169.2813,302.9375 169.4219,302.8594 Q169.5781,302.7813 169.7813,302.7813 Q170.1094,302.7813 170.3594,303.0469 Q170.625,303.2969 170.625,303.6406 Q170.625,303.9844 170.2813,304.3906 Q169.7813,304.9688 168.9844,305.2969 Q167.9063,305.75 166.6094,305.75 Q165.0938,305.75 163.8906,305.125 Q162.9063,304.625 162.2188,303.5625 Q161.5313,302.4844 161.5313,301.2031 L161.5313,300.0469 Q161.5313,298.7188 162.1406,297.5781 Q162.7656,296.4219 163.8594,295.8125 Q164.9531,295.1875 166.1875,295.1875 Q166.9219,295.1875 167.5625,295.3594 Q168.2188,295.5156 168.7656,295.875 Z " fill="#000000"/><text fill="#000000" font-family="sans-serif" font-size="14" lengthAdjust="spacing" textLength="100" x="180" y="305.7969">SkillsRepository</text><line style="stroke:#181818;stroke-width:0.5;" x1="152" x2="282" y1="316" y2="316"/><line style="stroke:#181818;stroke-width:0.5;" x1="152" x2="282" y1="324" y2="324"/><text fill="#000000" font-family="sans-serif" font-size="14" lengthAdjust="spacing" textLength="63" x="157" y="343.1074">+getSkill()</text></g><!--class Repositories--><g id="elem_Repositories"><rect codeLine="26" fill="#F1F1F1" height="103.8633" id="Repositories" rx="2.5" ry="2.5" style="stroke:#181818;stroke-width:0.5;" width="194" x="120" y="141"/><ellipse cx="173.25" cy="157" fill="#ADD1B2" rx="11" ry="11" style="stroke:#181818;stroke-width:1.0;"/><path d="M176.0156,152.875 Q176.1719,152.6563 176.3594,152.5469 Q176.5469,152.4375 176.7656,152.4375 Q177.1406,152.4375 177.375,152.7031 Q177.6094,152.9531 177.6094,153.5625 L177.6094,155.0156 Q177.6094,155.625 177.375,155.8906 Q177.1406,156.1563 176.7656,156.1563 Q176.4219,156.1563 176.2188,155.9531 Q176.0156,155.7656 175.9063,155.25 Q175.8594,154.8906 175.6719,154.7031 Q175.3438,154.3281 174.7344,154.1094 Q174.125,153.8906 173.5,153.8906 Q172.7344,153.8906 172.0938,154.2188 Q171.4688,154.5469 170.9688,155.2969 Q170.4844,156.0469 170.4844,157.0781 L170.4844,158.1719 Q170.4844,159.4063 171.375,160.2344 Q172.2656,161.0469 173.8594,161.0469 Q174.7969,161.0469 175.4531,160.7969 Q175.8438,160.6406 176.2656,160.2031 Q176.5313,159.9375 176.6719,159.8594 Q176.8281,159.7813 177.0313,159.7813 Q177.3594,159.7813 177.6094,160.0469 Q177.875,160.2969 177.875,160.6406 Q177.875,160.9844 177.5313,161.3906 Q177.0313,161.9688 176.2344,162.2969 Q175.1563,162.75 173.8594,162.75 Q172.3438,162.75 171.1406,162.125 Q170.1563,161.625 169.4688,160.5625 Q168.7813,159.4844 168.7813,158.2031 L168.7813,157.0469 Q168.7813,155.7188 169.3906,154.5781 Q170.0156,153.4219 171.1094,152.8125 Q172.2031,152.1875 173.4375,152.1875 Q174.1719,152.1875 174.8125,152.3594 Q175.4688,152.5156 176.0156,152.875 Z " fill="#000000"/><text fill="#000000" font-family="sans-serif" font-size="14" lengthAdjust="spacing" textLength="79" x="193.75" y="162.7969">Repositories</text><line style="stroke:#181818;stroke-width:0.5;" x1="121" x2="313" y1="173" y2="173"/><line style="stroke:#181818;stroke-width:0.5;" x1="121" x2="313" y1="181" y2="181"/><text fill="#000000" font-family="sans-serif" font-size="14" lengthAdjust="spacing" textLength="94" x="126" y="200.1074">-Repositories()</text><text fill="#000000" font-family="sans-serif" font-size="14" lengthAdjust="spacing" textLength="182" x="126" y="218.7285">+getInstance() : Repositories</text><text fill="#000000" font-family="sans-serif" font-size="14" lengthAdjust="spacing" textLength="138" x="126" y="237.3496">+getSkillsRepository()</text></g><!--class RegisterSkillController--><g id="elem_RegisterSkillController"><rect codeLine="32" fill="#F1F1F1" height="103.8633" id="RegisterSkillController" rx="2.5" ry="2.5" style="stroke:#181818;stroke-width:0.5;" width="172" x="251" y="7"/><ellipse cx="266" cy="23" fill="#ADD1B2" rx="11" ry="11" style="stroke:#181818;stroke-width:1.0;"/><path d="M268.7656,18.875 Q268.9219,18.6563 269.1094,18.5469 Q269.2969,18.4375 269.5156,18.4375 Q269.8906,18.4375 270.125,18.7031 Q270.3594,18.9531 270.3594,19.5625 L270.3594,21.0156 Q270.3594,21.625 270.125,21.8906 Q269.8906,22.1563 269.5156,22.1563 Q269.1719,22.1563 268.9688,21.9531 Q268.7656,21.7656 268.6563,21.25 Q268.6094,20.8906 268.4219,20.7031 Q268.0938,20.3281 267.4844,20.1094 Q266.875,19.8906 266.25,19.8906 Q265.4844,19.8906 264.8438,20.2188 Q264.2188,20.5469 263.7188,21.2969 Q263.2344,22.0469 263.2344,23.0781 L263.2344,24.1719 Q263.2344,25.4063 264.125,26.2344 Q265.0156,27.0469 266.6094,27.0469 Q267.5469,27.0469 268.2031,26.7969 Q268.5938,26.6406 269.0156,26.2031 Q269.2813,25.9375 269.4219,25.8594 Q269.5781,25.7813 269.7813,25.7813 Q270.1094,25.7813 270.3594,26.0469 Q270.625,26.2969 270.625,26.6406 Q270.625,26.9844 270.2813,27.3906 Q269.7813,27.9688 268.9844,28.2969 Q267.9063,28.75 266.6094,28.75 Q265.0938,28.75 263.8906,28.125 Q262.9063,27.625 262.2188,26.5625 Q261.5313,25.4844 261.5313,24.2031 L261.5313,23.0469 Q261.5313,21.7188 262.1406,20.5781 Q262.7656,19.4219 263.8594,18.8125 Q264.9531,18.1875 266.1875,18.1875 Q266.9219,18.1875 267.5625,18.3594 Q268.2188,18.5156 268.7656,18.875 Z " fill="#000000"/><text fill="#000000" font-family="sans-serif" font-size="14" lengthAdjust="spacing" textLength="140" x="280" y="28.7969">RegisterSkillController</text><line style="stroke:#181818;stroke-width:0.5;" x1="252" x2="422" y1="39" y2="39"/><line style="stroke:#181818;stroke-width:0.5;" x1="252" x2="422" y1="47" y2="47"/><text fill="#000000" font-family="sans-serif" font-size="14" lengthAdjust="spacing" textLength="158" x="257" y="66.1074">+RegisterSkillController()</text><text fill="#000000" font-family="sans-serif" font-size="14" lengthAdjust="spacing" textLength="63" x="257" y="84.7285">+getSkill()</text><text fill="#000000" font-family="sans-serif" font-size="14" lengthAdjust="spacing" textLength="102" x="257" y="103.3496">+Skill(name)</text></g><!--class RegisterSkillUI--><g id="elem_RegisterSkillUI"><rect codeLine="38" fill="#F1F1F1" height="48" id="RegisterSkillUI" rx="2.5" ry="2.5" style="stroke:#181818;stroke-width:0.5;" width="122" x="94" y="35"/><ellipse cx="109" cy="51" fill="#ADD1B2" rx="11" ry="11" style="stroke:#181818;stroke-width:1.0;"/><path d="M111.7656,46.875 Q111.9219,46.6563 112.1094,46.5469 Q112.2969,46.4375 112.5156,46.4375 Q112.8906,46.4375 113.125,46.7031 Q113.3594,46.9531 113.3594,47.5625 L113.3594,49.0156 Q113.3594,49.625 113.125,49.8906 Q112.8906,50.1563 112.5156,50.1563 Q112.1719,50.1563 111.9688,49.9531 Q111.7656,49.7656 111.6563,49.25 Q111.6094,48.8906 111.4219,48.7031 Q111.0938,48.3281 110.4844,48.1094 Q109.875,47.8906 109.25,47.8906 Q108.4844,47.8906 107.8438,48.2188 Q107.2188,48.5469 106.7188,49.2969 Q106.2344,50.0469 106.2344,51.0781 L106.2344,52.1719 Q106.2344,53.4063 107.125,54.2344 Q108.0156,55.0469 109.6094,55.0469 Q110.5469,55.0469 111.2031,54.7969 Q111.5938,54.6406 112.0156,54.2031 Q112.2813,53.9375 112.4219,53.8594 Q112.5781,53.7813 112.7813,53.7813 Q113.1094,53.7813 113.3594,54.0469 Q113.625,54.2969 113.625,54.6406 Q113.625,54.9844 113.2813,55.3906 Q112.7813,55.9688 111.9844,56.2969 Q110.9063,56.75 109.6094,56.75 Q108.0938,56.75 106.8906,56.125 Q105.9063,55.625 105.2188,54.5625 Q104.5313,53.4844 104.5313,52.2031 L104.5313,51.0469 Q104.5313,49.7188 105.1406,48.5781 Q105.7656,47.4219 106.8594,46.8125 Q107.9531,46.1875 109.1875,46.1875 Q109.9219,46.1875 110.5625,46.3594 Q111.2188,46.5156 111.7656,46.875 Z " fill="#000000"/><text fill="#000000" font-family="sans-serif" font-size="14" lengthAdjust="spacing" textLength="90" x="123" y="56.7969">RegisterSkillUI</text><line style="stroke:#181818;stroke-width:0.5;" x1="95" x2="215" y1="67" y2="67"/><line style="stroke:#181818;stroke-width:0.5;" x1="95" x2="215" y1="75" y2="75"/></g><!--link RegisterSkillUI to RegisterSkillController--><g id="link_RegisterSkillUI_RegisterSkillController"><path codeLine="41" d="M216.05,59 C218.8,59 229.64,59 244.82,59 " fill="none" id="RegisterSkillUI-to-RegisterSkillController" style="stroke:#181818;stroke-width:1.0;stroke-dasharray:7.0,7.0;"/><polygon fill="#181818" points="250.82,59,241.82,55,245.82,59,241.82,63,250.82,59" style="stroke:#181818;stroke-width:1.0;"/></g><!--link RegisterSkillController to Repositories--><g id="link_RegisterSkillController_Repositories"><path codeLine="43" d="M290.6,111.03 C281.77,120.76 276.5424,126.4871 267.7024,136.2271 " fill="none" id="RegisterSkillController-to-Repositories" style="stroke:#181818;stroke-width:1.0;stroke-dasharray:7.0,7.0;"/><polygon fill="#181818" points="263.67,140.67,272.6806,136.6939,267.0303,136.9675,266.7566,131.3173,263.67,140.67" style="stroke:#181818;stroke-width:1.0;"/><text fill="#000000" font-family="sans-serif" font-size="13" lengthAdjust="spacing" textLength="67" x="209.14" y="121.8783">repositories</text></g><!--link Repositories to SkillsRepository--><g id="link_Repositories_SkillsRepository"><path codeLine="45" d="M217,245.24 C217,258.35 217,266.1 217,277.97 " fill="none" id="Repositories-to-SkillsRepository" style="stroke:#181818;stroke-width:1.0;"/><polygon fill="#181818" points="217,283.97,221,274.97,217,278.97,213,274.97,217,283.97" style="stroke:#181818;stroke-width:1.0;"/><text fill="#000000" font-family="sans-serif" font-size="13" lengthAdjust="spacing" textLength="7" x="209.3109" y="272.7896">1</text></g><!--link RegisterSkillController to Skill--><g id="link_RegisterSkillController_Skill"><path codeLine="47" d="M335.91,111.14 C334.1,195.3 330.6785,355.3614 329.0185,432.8514 " fill="none" id="RegisterSkillController-to-Skill" style="stroke:#181818;stroke-width:1.0;stroke-dasharray:7.0,7.0;"/><polygon fill="#181818" points="328.89,438.85,333.0818,429.9377,328.9971,433.8511,325.0837,429.7664,328.89,438.85" style="stroke:#181818;stroke-width:1.0;"/></g><!--link RegisterSkillController to SkillsRepository--><g id="link_RegisterSkillController_SkillsRepository"><path codeLine="48" d="M250.64,102.35 C240.12,107.51 233,111 233,111 C233,111 6,141 6,141 C6,141 6,245 6,245 C6,245 83.2574,271.1743 145.1374,292.1443 " fill="none" id="RegisterSkillController-to-SkillsRepository" style="stroke:#181818;stroke-width:1.0;stroke-dasharray:7.0,7.0;"/><polygon fill="#181818" points="150.82,294.07,143.58,287.393,146.0845,292.4652,141.0123,294.9698,150.82,294.07" style="stroke:#181818;stroke-width:1.0;"/><text fill="#000000" font-family="sans-serif" font-size="13" lengthAdjust="spacing" textLength="94" x="7" y="198.5283">SkillsRepository</text></g><!--link ApplicationSession to UserSession--><g id="link_ApplicationSession_UserSession"><path codeLine="51" d="M472.7,360.22 C477.07,387.5 481.7594,416.6958 485.8094,441.9358 " fill="none" id="ApplicationSession-to-UserSession" style="stroke:#181818;stroke-width:1.0;"/><polygon fill="#181818" points="486.76,447.86,489.2836,438.3399,485.9678,442.9232,481.3846,439.6074,486.76,447.86" style="stroke:#181818;stroke-width:1.0;"/><text fill="#000000" font-family="sans-serif" font-size="13" lengthAdjust="spacing" textLength="72" x="480" y="405.0283">userSession</text><text fill="#000000" font-family="sans-serif" font-size="13" lengthAdjust="spacing" textLength="7" x="478.0393" y="436.658">1</text></g><!--link RegisterSkillController to ApplicationSession--><g id="link_RegisterSkillController_ApplicationSession"><path codeLine="53" d="M362.8,111.29 C386.91,159.24 419.7838,224.6099 442.2438,269.2599 " fill="none" id="RegisterSkillController-to-ApplicationSession" style="stroke:#181818;stroke-width:1.0;stroke-dasharray:7.0,7.0;"/><polygon fill="#181818" points="444.94,274.62,444.469,264.7824,442.6931,270.1533,437.3223,268.3774,444.94,274.62" style="stroke:#181818;stroke-width:1.0;"/></g><!--link RegisterSkillController to UserSession--><g id="link_RegisterSkillController_UserSession"><path codeLine="54" d="M395.63,111.07 C414.21,127.24 430,141 430,141 C430,141 559,275 559,275 C559,275 561,390 561,390 C561,390 561,409 561,409 C561,409 545.9762,424.5622 527.8362,443.3622 " fill="none" id="RegisterSkillController-to-UserSession" style="stroke:#181818;stroke-width:1.0;stroke-dasharray:7.0,7.0;"/><polygon fill="#181818" points="523.67,447.68,532.7978,443.9808,527.1418,444.0819,527.0408,438.4259,523.67,447.68" style="stroke:#181818;stroke-width:1.0;"/></g><!--link SkillsRepository to Skill--><g id="link_SkillsRepository_Skill"><path codeLine="55" d="M239.46,351.28 C256.76,376.52 277.3892,406.63 296.0492,433.87 " fill="none" id="SkillsRepository-to-Skill" style="stroke:#181818;stroke-width:1.0;"/><polygon fill="#181818" points="299.44,438.82,297.6537,429.1345,296.6143,434.695,291.0538,433.6556,299.44,438.82" style="stroke:#181818;stroke-width:1.0;"/><text fill="#000000" font-family="sans-serif" font-size="13" lengthAdjust="spacing" textLength="25" x="277" y="405.0283">Skill</text><text fill="#000000" font-family="sans-serif" font-size="13" lengthAdjust="spacing" textLength="7" x="235.7188" y="372.6328">1</text><text fill="#000000" font-family="sans-serif" font-size="13" lengthAdjust="spacing" textLength="5" x="289.4898" y="427.6954">*</text></g><!--SRC=[XLDDJyCm3BtdLrWxyQ4XkEumQPeuxCA1QZyW15EYfKaKfq85yTznIrUyTXszjFLxzdjs73fO7tNI5KHj3hh48ZSE8Q79sfSE5Gq4UjUluSFw4jwq8uauwp4t4I46rxG_0ZDE4sroJlQbphWpmHVs4-5UgGw1JOpE6fqj0qZ4B_MbW9zReCnX0oNcdUTlR_3gkeSujgrJGf_x94Q-ZoNtX6bSYnFQy6EbhPFSuc2TWr_M4WgsoVrH6tpI5VR97McIHSyO0zaSKWD2Pa8UQ1PfK991sTLVfx0w8Oq4XFYfLcafS_ijPnjyJi4vJ8E_6LmwEFgNhGy3cPFQxrY2eN7mRZqdEU8AhrsE6DcAjr7CGPs0opKi7XQJ0xbGdSjtiVyPye1NPoJKT7TXsHiIEyYvjTZ8YxfdRiCbkjpqYUNMHcVdff_FiGcbVW00]--></g></svg>