<?xml version="1.0" encoding="us-ascii" standalone="no"?><svg xmlns="http://www.w3.org/2000/svg" xmlns:xlink="http://www.w3.org/1999/xlink" contentStyleType="text/css" height="387.6px" preserveAspectRatio="none" style="width:489px;height:387px;background:#FFFFFF;" version="1.1" viewBox="0 0 489 387" width="489.6px" zoomAndPan="magnify"><defs/><g><rect fill="#FFFFFF" height="199.7461" style="stroke:#181818;stroke-width:1.2;" width="12" x="112.8" y="108.6398"/><rect fill="#FFFFFF" height="37.5492" style="stroke:#181818;stroke-width:1.2;" width="12" x="277.8" y="177.7383"/><rect fill="#FFFFFF" height="37.5492" style="stroke:#181818;stroke-width:1.2;" width="12" x="406.2" y="252.8367"/><rect fill="none" height="173.3461" style="stroke:#000000;stroke-width:1.7999999999999998;" width="470.4" x="12" y="126.6398"/><line style="stroke:#181818;stroke-width:0.6;stroke-dasharray:5.0,5.0;" x1="118.8" x2="118.8" y1="68.6906" y2="320.3859"/><line style="stroke:#181818;stroke-width:0.6;stroke-dasharray:5.0,5.0;" x1="283.2" x2="283.2" y1="68.6906" y2="320.3859"/><line style="stroke:#181818;stroke-width:0.6;stroke-dasharray:5.0,5.0;" x1="411.6" x2="411.6" y1="68.6906" y2="320.3859"/><rect fill="#E3E3E3" height="39.1453" rx="3" ry="3" style="stroke:#181818;stroke-width:0.6;" width="189.6" x="24" y="28.3453"/><text fill="#000000" font-family="sans-serif" font-size="16.8" lengthAdjust="spacing" textLength="172.8" x="32.4" y="54.8742">:RegisterSkillController</text><rect fill="#E3E3E3" height="39.1453" rx="3" ry="3" style="stroke:#181818;stroke-width:0.6;" width="189.6" x="24" y="319.1859"/><text fill="#000000" font-family="sans-serif" font-size="16.8" lengthAdjust="spacing" textLength="172.8" x="32.4" y="345.7148">:RegisterSkillController</text><rect fill="#E3E3E3" height="39.1453" rx="3" ry="3" style="stroke:#181818;stroke-width:0.6;" width="116.4" x="225.6" y="28.3453"/><text fill="#000000" font-family="sans-serif" font-size="16.8" lengthAdjust="spacing" textLength="99.6" x="234" y="54.8742">:Repositories</text><rect fill="#E3E3E3" height="39.1453" rx="3" ry="3" style="stroke:#181818;stroke-width:0.6;" width="116.4" x="225.6" y="319.1859"/><text fill="#000000" font-family="sans-serif" font-size="16.8" lengthAdjust="spacing" textLength="99.6" x="234" y="345.7148">:Repositories</text><rect fill="#E3E3E3" height="61.4906" rx="3" ry="3" style="stroke:#181818;stroke-width:0.6;" width="116.4" x="354" y="6"/><text fill="#000000" font-family="sans-serif" font-size="16.8" lengthAdjust="spacing" textLength="88.8" x="367.8" y="32.5289">repositories</text><text fill="#000000" font-family="sans-serif" font-size="16.8" lengthAdjust="spacing" textLength="99.6" x="362.4" y="54.8742">:Repositories</text><rect fill="#E3E3E3" height="61.4906" rx="3" ry="3" style="stroke:#181818;stroke-width:0.6;" width="116.4" x="354" y="319.1859"/><text fill="#000000" font-family="sans-serif" font-size="16.8" lengthAdjust="spacing" textLength="88.8" x="367.8" y="345.7148">repositories</text><text fill="#000000" font-family="sans-serif" font-size="16.8" lengthAdjust="spacing" textLength="99.6" x="362.4" y="368.0602">:Repositories</text><rect fill="#FFFFFF" height="199.7461" style="stroke:#181818;stroke-width:1.2;" width="12" x="112.8" y="108.6398"/><rect fill="#FFFFFF" height="37.5492" style="stroke:#181818;stroke-width:1.2;" width="12" x="277.8" y="177.7383"/><rect fill="#FFFFFF" height="37.5492" style="stroke:#181818;stroke-width:1.2;" width="12" x="406.2" y="252.8367"/><polygon fill="#181818" points="98.4,103.8398,110.4,108.6398,98.4,113.4398,103.2,108.6398" style="stroke:#181818;stroke-width:1.2;"/><line style="stroke:#181818;stroke-width:1.2;" x1="0" x2="105.6" y1="108.6398" y2="108.6398"/><text fill="#000000" font-family="sans-serif" font-size="15.6" font-weight="bold" lengthAdjust="spacing" textLength="8.4" x="8.4" y="102.3246">2</text><text fill="#000000" font-family="sans-serif" font-size="15.6" lengthAdjust="spacing" textLength="43.2" x="21.6" y="102.3246">create</text><path d="M12,126.6398 L294,126.6398 L294,137.7891 L282,149.7891 L12,149.7891 L12,126.6398 " fill="#EEEEEE" style="stroke:#000000;stroke-width:1.7999999999999998;"/><rect fill="none" height="173.3461" style="stroke:#000000;stroke-width:1.7999999999999998;" width="470.4" x="12" y="126.6398"/><text fill="#000000" font-family="sans-serif" font-size="15.6" font-weight="bold" lengthAdjust="spacing" textLength="228" x="30" y="144.6738">Get Registed Skills Repository</text><polygon fill="#181818" points="263.4,172.9383,275.4,177.7383,263.4,182.5383,268.2,177.7383" style="stroke:#181818;stroke-width:1.2;"/><line style="stroke:#181818;stroke-width:1.2;" x1="124.8" x2="270.6" y1="177.7383" y2="177.7383"/><text fill="#000000" font-family="sans-serif" font-size="15.6" font-weight="bold" lengthAdjust="spacing" textLength="8.4" x="133.2" y="171.423">3</text><text fill="#000000" font-family="sans-serif" font-size="15.6" lengthAdjust="spacing" textLength="90" x="146.4" y="171.423">getInstance()</text><polygon fill="#181818" points="138,210.4875,126,215.2875,138,220.0875,133.2,215.2875" style="stroke:#181818;stroke-width:1.2;"/><line style="stroke:#181818;stroke-width:1.2;stroke-dasharray:2.0,2.0;" x1="130.8" x2="282.6" y1="215.2875" y2="215.2875"/><text fill="#000000" font-family="sans-serif" font-size="15.6" font-weight="bold" lengthAdjust="spacing" textLength="8.4" x="145.2" y="208.9723">4</text><text fill="#000000" font-family="sans-serif" font-size="15.6" lengthAdjust="spacing" textLength="80.4" x="158.4" y="208.9723">repositories</text><polygon fill="#181818" points="391.8,248.0367,403.8,252.8367,391.8,257.6367,396.6,252.8367" style="stroke:#181818;stroke-width:1.2;"/><line style="stroke:#181818;stroke-width:1.2;" x1="124.8" x2="399" y1="252.8367" y2="252.8367"/><text fill="#000000" font-family="sans-serif" font-size="15.6" font-weight="bold" lengthAdjust="spacing" textLength="8.4" x="133.2" y="246.5215">5</text><text fill="#000000" font-family="sans-serif" font-size="15.6" lengthAdjust="spacing" textLength="144" x="146.4" y="246.5215">getSkillsRepository()</text><polygon fill="#181818" points="138,285.5859,126,290.3859,138,295.1859,133.2,290.3859" style="stroke:#181818;stroke-width:1.2;"/><line style="stroke:#181818;stroke-width:1.2;stroke-dasharray:2.0,2.0;" x1="130.8" x2="411" y1="290.3859" y2="290.3859"/><text fill="#000000" font-family="sans-serif" font-size="15.6" font-weight="bold" lengthAdjust="spacing" textLength="8.4" x="145.2" y="284.0707">6</text><text fill="#000000" font-family="sans-serif" font-size="15.6" lengthAdjust="spacing" textLength="110.4" x="158.4" y="284.0707">skillsRepository</text><!--SRC=[ZL6zRi8m4Dxz52UcTc3fcA5InL1LOgW8OvUhSpLM73iwNwXu-peEX0I2r9ii-_iznzhw5XaRQ88F-i2X8H3kICNnfKLTew5IJew0IGjwuwQ0UC0g_5flu0TT9AMma-2xvfjOgGGHgssBNc1LxCZOACHbRPtR12ySd2DU0KROx7VREtWRefN0bcB6Z1UdqlOfai-SmXF6bxyN-Do-xQS1uKKfMBzcSoX0Cw6GGYtsc0v39aXZE7Gjl9F0kK85kSCqaih8osJ5fBmGEHaPaWyVqoerFJtFUAFtKjSPifybzVMvJm7JRSoe5VtVvbAaNzsGV6X-9JvgC2pxDdBMkMQCDsAFSbx5o5Tgyf3_IFq1]--></g></svg>