<?xml version="1.0" encoding="us-ascii" standalone="no"?><svg xmlns="http://www.w3.org/2000/svg" xmlns:xlink="http://www.w3.org/1999/xlink" contentStyleType="text/css" height="428px" preserveAspectRatio="none" style="width:641px;height:428px;background:#FFFFFF;" version="1.1" viewBox="0 0 641 428" width="641px" zoomAndPan="magnify"><defs/><g><!--class Skill--><g id="elem_Skill"><rect codeLine="7" fill="#F1F1F1" height="85.2422" id="Skill" rx="2.5" ry="2.5" style="stroke:#181818;stroke-width:0.5;" width="93" x="232.5" y="336"/><ellipse cx="263.7" cy="352" fill="#ADD1B2" rx="11" ry="11" style="stroke:#181818;stroke-width:1.0;"/><path d="M266.4656,347.875 Q266.6219,347.6563 266.8094,347.5469 Q266.9969,347.4375 267.2156,347.4375 Q267.5906,347.4375 267.825,347.7031 Q268.0594,347.9531 268.0594,348.5625 L268.0594,350.0156 Q268.0594,350.625 267.825,350.8906 Q267.5906,351.1563 267.2156,351.1563 Q266.8719,351.1563 266.6688,350.9531 Q266.4656,350.7656 266.3563,350.25 Q266.3094,349.8906 266.1219,349.7031 Q265.7938,349.3281 265.1844,349.1094 Q264.575,348.8906 263.95,348.8906 Q263.1844,348.8906 262.5438,349.2188 Q261.9188,349.5469 261.4188,350.2969 Q260.9344,351.0469 260.9344,352.0781 L260.9344,353.1719 Q260.9344,354.4063 261.825,355.2344 Q262.7156,356.0469 264.3094,356.0469 Q265.2469,356.0469 265.9031,355.7969 Q266.2938,355.6406 266.7156,355.2031 Q266.9813,354.9375 267.1219,354.8594 Q267.2781,354.7813 267.4813,354.7813 Q267.8094,354.7813 268.0594,355.0469 Q268.325,355.2969 268.325,355.6406 Q268.325,355.9844 267.9813,356.3906 Q267.4813,356.9688 266.6844,357.2969 Q265.6063,357.75 264.3094,357.75 Q262.7938,357.75 261.5906,357.125 Q260.6063,356.625 259.9188,355.5625 Q259.2313,354.4844 259.2313,353.2031 L259.2313,352.0469 Q259.2313,350.7188 259.8406,349.5781 Q260.4656,348.4219 261.5594,347.8125 Q262.6531,347.1875 263.8875,347.1875 Q264.6219,347.1875 265.2625,347.3594 Q265.9188,347.5156 266.4656,347.875 Z " fill="#000000"/><text fill="#000000" font-family="sans-serif" font-size="14" lengthAdjust="spacing" textLength="25" x="281.3" y="357.7969">Skill</text><line style="stroke:#181818;stroke-width:0.5;" x1="233.5" x2="324.5" y1="368" y2="368"/><text fill="#000000" font-family="sans-serif" font-size="14" lengthAdjust="spacing" textLength="81" x="238.5" y="387.1074">-String name</text><line style="stroke:#181818;stroke-width:0.5;" x1="233.5" x2="324.5" y1="394.6211" y2="394.6211"/><text fill="#000000" font-family="sans-serif" font-size="14" lengthAdjust="spacing" textLength="78" x="238.5" y="413.7285">+Skill(name)</text></g><!--class SkillsRepository--><g id="elem_SkillsRepository"><rect codeLine="12" fill="#F1F1F1" height="66.6211" id="SkillsRepository" rx="2.5" ry="2.5" style="stroke:#181818;stroke-width:0.5;" width="132" x="303" y="190"/><ellipse cx="318" cy="206" fill="#ADD1B2" rx="11" ry="11" style="stroke:#181818;stroke-width:1.0;"/><path d="M320.7656,201.875 Q320.9219,201.6563 321.1094,201.5469 Q321.2969,201.4375 321.5156,201.4375 Q321.8906,201.4375 322.125,201.7031 Q322.3594,201.9531 322.3594,202.5625 L322.3594,204.0156 Q322.3594,204.625 322.125,204.8906 Q321.8906,205.1563 321.5156,205.1563 Q321.1719,205.1563 320.9688,204.9531 Q320.7656,204.7656 320.6563,204.25 Q320.6094,203.8906 320.4219,203.7031 Q320.0938,203.3281 319.4844,203.1094 Q318.875,202.8906 318.25,202.8906 Q317.4844,202.8906 316.8438,203.2188 Q316.2188,203.5469 315.7188,204.2969 Q315.2344,205.0469 315.2344,206.0781 L315.2344,207.1719 Q315.2344,208.4063 316.125,209.2344 Q317.0156,210.0469 318.6094,210.0469 Q319.5469,210.0469 320.2031,209.7969 Q320.5938,209.6406 321.0156,209.2031 Q321.2813,208.9375 321.4219,208.8594 Q321.5781,208.7813 321.7813,208.7813 Q322.1094,208.7813 322.3594,209.0469 Q322.625,209.2969 322.625,209.6406 Q322.625,209.9844 322.2813,210.3906 Q321.7813,210.9688 320.9844,211.2969 Q319.9063,211.75 318.6094,211.75 Q317.0938,211.75 315.8906,211.125 Q314.9063,210.625 314.2188,209.5625 Q313.5313,208.4844 313.5313,207.2031 L313.5313,206.0469 Q313.5313,204.7188 314.1406,203.5781 Q314.7656,202.4219 315.8594,201.8125 Q316.9531,201.1875 318.1875,201.1875 Q318.9219,201.1875 319.5625,201.3594 Q320.2188,201.5156 320.7656,201.875 Z " fill="#000000"/><text fill="#000000" font-family="sans-serif" font-size="14" lengthAdjust="spacing" textLength="100" x="332" y="211.7969">SkillsRepository</text><line style="stroke:#181818;stroke-width:0.5;" x1="304" x2="434" y1="222" y2="222"/><line style="stroke:#181818;stroke-width:0.5;" x1="304" x2="434" y1="230" y2="230"/><text fill="#000000" font-family="sans-serif" font-size="14" lengthAdjust="spacing" textLength="92" x="309" y="249.1074">+getSkillsList()</text></g><!--class Repositories--><g id="elem_Repositories"><rect codeLine="16" fill="#F1F1F1" height="103.8633" id="Repositories" rx="2.5" ry="2.5" style="stroke:#181818;stroke-width:0.5;" width="194" x="440" y="7"/><ellipse cx="493.25" cy="23" fill="#ADD1B2" rx="11" ry="11" style="stroke:#181818;stroke-width:1.0;"/><path d="M496.0156,18.875 Q496.1719,18.6563 496.3594,18.5469 Q496.5469,18.4375 496.7656,18.4375 Q497.1406,18.4375 497.375,18.7031 Q497.6094,18.9531 497.6094,19.5625 L497.6094,21.0156 Q497.6094,21.625 497.375,21.8906 Q497.1406,22.1563 496.7656,22.1563 Q496.4219,22.1563 496.2188,21.9531 Q496.0156,21.7656 495.9063,21.25 Q495.8594,20.8906 495.6719,20.7031 Q495.3438,20.3281 494.7344,20.1094 Q494.125,19.8906 493.5,19.8906 Q492.7344,19.8906 492.0938,20.2188 Q491.4688,20.5469 490.9688,21.2969 Q490.4844,22.0469 490.4844,23.0781 L490.4844,24.1719 Q490.4844,25.4063 491.375,26.2344 Q492.2656,27.0469 493.8594,27.0469 Q494.7969,27.0469 495.4531,26.7969 Q495.8438,26.6406 496.2656,26.2031 Q496.5313,25.9375 496.6719,25.8594 Q496.8281,25.7813 497.0313,25.7813 Q497.3594,25.7813 497.6094,26.0469 Q497.875,26.2969 497.875,26.6406 Q497.875,26.9844 497.5313,27.3906 Q497.0313,27.9688 496.2344,28.2969 Q495.1563,28.75 493.8594,28.75 Q492.3438,28.75 491.1406,28.125 Q490.1563,27.625 489.4688,26.5625 Q488.7813,25.4844 488.7813,24.2031 L488.7813,23.0469 Q488.7813,21.7188 489.3906,20.5781 Q490.0156,19.4219 491.1094,18.8125 Q492.2031,18.1875 493.4375,18.1875 Q494.1719,18.1875 494.8125,18.3594 Q495.4688,18.5156 496.0156,18.875 Z " fill="#000000"/><text fill="#000000" font-family="sans-serif" font-size="14" lengthAdjust="spacing" textLength="79" x="513.75" y="28.7969">Repositories</text><line style="stroke:#181818;stroke-width:0.5;" x1="441" x2="633" y1="39" y2="39"/><line style="stroke:#181818;stroke-width:0.5;" x1="441" x2="633" y1="47" y2="47"/><text fill="#000000" font-family="sans-serif" font-size="14" lengthAdjust="spacing" textLength="94" x="446" y="66.1074">-Repositories()</text><text fill="#000000" font-family="sans-serif" font-size="14" lengthAdjust="spacing" textLength="182" x="446" y="84.7285">+getInstance() : Repositories</text><text fill="#000000" font-family="sans-serif" font-size="14" lengthAdjust="spacing" textLength="138" x="446" y="103.3496">+getSkillsRepository()</text></g><!--class RegisterSkillController--><g id="elem_RegisterSkillController"><rect codeLine="22" fill="#F1F1F1" height="85.2422" id="RegisterSkillController" rx="2.5" ry="2.5" style="stroke:#181818;stroke-width:0.5;" width="172" x="164" y="16.5"/><ellipse cx="179" cy="32.5" fill="#ADD1B2" rx="11" ry="11" style="stroke:#181818;stroke-width:1.0;"/><path d="M181.7656,28.375 Q181.9219,28.1563 182.1094,28.0469 Q182.2969,27.9375 182.5156,27.9375 Q182.8906,27.9375 183.125,28.2031 Q183.3594,28.4531 183.3594,29.0625 L183.3594,30.5156 Q183.3594,31.125 183.125,31.3906 Q182.8906,31.6563 182.5156,31.6563 Q182.1719,31.6563 181.9688,31.4531 Q181.7656,31.2656 181.6563,30.75 Q181.6094,30.3906 181.4219,30.2031 Q181.0938,29.8281 180.4844,29.6094 Q179.875,29.3906 179.25,29.3906 Q178.4844,29.3906 177.8438,29.7188 Q177.2188,30.0469 176.7188,30.7969 Q176.2344,31.5469 176.2344,32.5781 L176.2344,33.6719 Q176.2344,34.9063 177.125,35.7344 Q178.0156,36.5469 179.6094,36.5469 Q180.5469,36.5469 181.2031,36.2969 Q181.5938,36.1406 182.0156,35.7031 Q182.2813,35.4375 182.4219,35.3594 Q182.5781,35.2813 182.7813,35.2813 Q183.1094,35.2813 183.3594,35.5469 Q183.625,35.7969 183.625,36.1406 Q183.625,36.4844 183.2813,36.8906 Q182.7813,37.4688 181.9844,37.7969 Q180.9063,38.25 179.6094,38.25 Q178.0938,38.25 176.8906,37.625 Q175.9063,37.125 175.2188,36.0625 Q174.5313,34.9844 174.5313,33.7031 L174.5313,32.5469 Q174.5313,31.2188 175.1406,30.0781 Q175.7656,28.9219 176.8594,28.3125 Q177.9531,27.6875 179.1875,27.6875 Q179.9219,27.6875 180.5625,27.8594 Q181.2188,28.0156 181.7656,28.375 Z " fill="#000000"/><text fill="#000000" font-family="sans-serif" font-size="14" lengthAdjust="spacing" textLength="140" x="193" y="38.2969">RegisterSkillController</text><line style="stroke:#181818;stroke-width:0.5;" x1="165" x2="335" y1="48.5" y2="48.5"/><line style="stroke:#181818;stroke-width:0.5;" x1="165" x2="335" y1="56.5" y2="56.5"/><text fill="#000000" font-family="sans-serif" font-size="14" lengthAdjust="spacing" textLength="158" x="170" y="75.6074">+RegisterSkillController()</text><text fill="#000000" font-family="sans-serif" font-size="14" lengthAdjust="spacing" textLength="92" x="170" y="94.2285">+getSkillsList()</text></g><!--class RegisterSkillUI--><g id="elem_RegisterSkillUI"><rect codeLine="27" fill="#F1F1F1" height="48" id="RegisterSkillUI" rx="2.5" ry="2.5" style="stroke:#181818;stroke-width:0.5;" width="122" x="7" y="35"/><ellipse cx="22" cy="51" fill="#ADD1B2" rx="11" ry="11" style="stroke:#181818;stroke-width:1.0;"/><path d="M24.7656,46.875 Q24.9219,46.6563 25.1094,46.5469 Q25.2969,46.4375 25.5156,46.4375 Q25.8906,46.4375 26.125,46.7031 Q26.3594,46.9531 26.3594,47.5625 L26.3594,49.0156 Q26.3594,49.625 26.125,49.8906 Q25.8906,50.1563 25.5156,50.1563 Q25.1719,50.1563 24.9688,49.9531 Q24.7656,49.7656 24.6563,49.25 Q24.6094,48.8906 24.4219,48.7031 Q24.0938,48.3281 23.4844,48.1094 Q22.875,47.8906 22.25,47.8906 Q21.4844,47.8906 20.8438,48.2188 Q20.2188,48.5469 19.7188,49.2969 Q19.2344,50.0469 19.2344,51.0781 L19.2344,52.1719 Q19.2344,53.4063 20.125,54.2344 Q21.0156,55.0469 22.6094,55.0469 Q23.5469,55.0469 24.2031,54.7969 Q24.5938,54.6406 25.0156,54.2031 Q25.2813,53.9375 25.4219,53.8594 Q25.5781,53.7813 25.7813,53.7813 Q26.1094,53.7813 26.3594,54.0469 Q26.625,54.2969 26.625,54.6406 Q26.625,54.9844 26.2813,55.3906 Q25.7813,55.9688 24.9844,56.2969 Q23.9063,56.75 22.6094,56.75 Q21.0938,56.75 19.8906,56.125 Q18.9063,55.625 18.2188,54.5625 Q17.5313,53.4844 17.5313,52.2031 L17.5313,51.0469 Q17.5313,49.7188 18.1406,48.5781 Q18.7656,47.4219 19.8594,46.8125 Q20.9531,46.1875 22.1875,46.1875 Q22.9219,46.1875 23.5625,46.3594 Q24.2188,46.5156 24.7656,46.875 Z " fill="#000000"/><text fill="#000000" font-family="sans-serif" font-size="14" lengthAdjust="spacing" textLength="90" x="36" y="56.7969">RegisterSkillUI</text><line style="stroke:#181818;stroke-width:0.5;" x1="8" x2="128" y1="67" y2="67"/><line style="stroke:#181818;stroke-width:0.5;" x1="8" x2="128" y1="75" y2="75"/></g><!--link RegisterSkillUI to RegisterSkillController--><g id="link_RegisterSkillUI_RegisterSkillController"><path codeLine="30" d="M129.05,59 C131.8,59 142.64,59 157.82,59 " fill="none" id="RegisterSkillUI-to-RegisterSkillController" style="stroke:#181818;stroke-width:1.0;stroke-dasharray:7.0,7.0;"/><polygon fill="#181818" points="163.82,59,154.82,55,158.82,59,154.82,63,163.82,59" style="stroke:#181818;stroke-width:1.0;"/></g><!--link RegisterSkillController to Repositories--><g id="link_RegisterSkillController_Repositories"><path codeLine="32" d="M336.11,59 C368.8,59 400.25,59 433.89,59 " fill="none" id="RegisterSkillController-to-Repositories" style="stroke:#181818;stroke-width:1.0;stroke-dasharray:7.0,7.0;"/><polygon fill="#181818" points="439.89,59,430.89,55,434.89,59,430.89,63,439.89,59" style="stroke:#181818;stroke-width:1.0;"/><text fill="#000000" font-family="sans-serif" font-size="13" lengthAdjust="spacing" textLength="67" x="354.5" y="52.0283">repositories</text></g><!--link Repositories to SkillsRepository--><g id="link_Repositories_SkillsRepository"><path codeLine="34" d="M483.84,111.42 C457.31,137.08 430.3217,163.1776 407.1117,185.6376 " fill="none" id="Repositories-to-SkillsRepository" style="stroke:#181818;stroke-width:1.0;"/><polygon fill="#181818" points="402.8,189.81,412.0492,186.4259,406.3931,186.333,406.486,180.6769,402.8,189.81" style="stroke:#181818;stroke-width:1.0;"/><text fill="#000000" font-family="sans-serif" font-size="13" lengthAdjust="spacing" textLength="7" x="401.5759" y="178.8597">1</text></g><!--link RegisterSkillController to Skill--><g id="link_RegisterSkillController_Skill"><path codeLine="36" d="M253.79,101.51 C259.35,162.36 269.104,269.1549 274.664,330.0049 " fill="none" id="RegisterSkillController-to-Skill" style="stroke:#181818;stroke-width:1.0;stroke-dasharray:7.0,7.0;"/><polygon fill="#181818" points="275.21,335.98,278.3745,326.6534,274.755,331.0007,270.4077,327.3813,275.21,335.98" style="stroke:#181818;stroke-width:1.0;"/></g><!--link RegisterSkillController to SkillsRepository--><g id="link_RegisterSkillController_SkillsRepository"><path codeLine="37" d="M280.65,101.85 C300.69,129.21 322.9444,159.6097 341.4844,184.9197 " fill="none" id="RegisterSkillController-to-SkillsRepository" style="stroke:#181818;stroke-width:1.0;stroke-dasharray:7.0,7.0;"/><polygon fill="#181818" points="345.03,189.76,342.9385,180.1358,342.0753,185.7264,336.4847,184.8633,345.03,189.76" style="stroke:#181818;stroke-width:1.0;"/><text fill="#000000" font-family="sans-serif" font-size="13" lengthAdjust="spacing" textLength="94" x="322" y="156.0283">SkillsRepository</text></g><!--link SkillsRepository to Skill--><g id="link_SkillsRepository_Skill"><path codeLine="39" d="M349.69,257.32 C336.16,280.33 321.0135,306.0892 306.4635,330.8092 " fill="none" id="SkillsRepository-to-Skill" style="stroke:#181818;stroke-width:1.0;"/><polygon fill="#181818" points="303.42,335.98,311.4324,330.2528,305.9562,331.671,304.538,326.1948,303.42,335.98" style="stroke:#181818;stroke-width:1.0;"/><text fill="#000000" font-family="sans-serif" font-size="13" lengthAdjust="spacing" textLength="25" x="334" y="302.0283">Skill</text><text fill="#000000" font-family="sans-serif" font-size="13" lengthAdjust="spacing" textLength="7" x="338.7695" y="278.6796">1</text><text fill="#000000" font-family="sans-serif" font-size="13" lengthAdjust="spacing" textLength="5" x="301.9135" y="324.8809">*</text></g><!--SRC=[XL9DJyGW4BtpAoPxwhgfqMiFcnXFJJpP-0EmZaZA0c76c6hyxr9sHTgrogtlOzwR0WtQUXda0Rpi1wcmuz4W1EnPMcLGK1RGYtnoRzegU9Q6IiPeYpnw1E_CE7qKN6yaqGrpq8-lZ6tlRAVV4Qw448c2Rj36m8U0U6heeZ0cM7d0XEoEV3K1M_4vCz4zUaUQNHXF_Xqev2Dtfuchmf6r6YcdbM0Kvn6jfRX-ZzKMcfbecVBJO9wbOZg6fBbrbeCp1aCkkSAN3TQMA8mFRHmOgILukLyBM6YBPibJ_A0cle1YQp4ZwteFc-lDsINyCJxEJzZ_Yl9IcryYpaHJazJeujJesoR45m00]--></g></svg>