<?xml version="1.0" encoding="us-ascii" standalone="no"?><svg xmlns="http://www.w3.org/2000/svg" xmlns:xlink="http://www.w3.org/1999/xlink" contentStyleType="text/css" height="1071px" preserveAspectRatio="none" style="width:1135px;height:1071px;background:#FFFFFF;" version="1.1" viewBox="0 0 1135 1071" width="1135px" zoomAndPan="magnify"><defs/><g><rect fill="#FFFFFF" height="848.2656" style="stroke:#181818;stroke-width:1.0;" width="10" x="76" y="112.2422"/><rect fill="#FFFFFF" height="226.3672" style="stroke:#181818;stroke-width:1.0;" width="10" x="307" y="135.5332"/><rect fill="#FFFFFF" height="495.7344" style="stroke:#181818;stroke-width:1.0;" width="10" x="307" y="393.1914"/><rect fill="#FFFFFF" height="31.291" style="stroke:#181818;stroke-width:1.0;" width="10" x="307" y="920.2168"/><rect fill="#FFFFFF" height="127.4941" style="stroke:#181818;stroke-width:1.0;" width="10" x="462" y="176.8242"/><rect fill="#FFFFFF" height="415.8613" style="stroke:#181818;stroke-width:1.0;" width="10" x="462" y="424.4824"/><rect fill="#FFFFFF" height="31.291" style="stroke:#181818;stroke-width:1.0;" width="10" x="599.5" y="210.4453"/><rect fill="#FFFFFF" height="31.291" style="stroke:#181818;stroke-width:1.0;" width="10" x="706.5" y="273.0273"/><rect fill="#FFFFFF" height="353.2793" style="stroke:#181818;stroke-width:1.0;" width="10" x="824" y="455.7734"/><rect fill="#FFFFFF" height="133.8242" style="stroke:#181818;stroke-width:1.0;" width="10" x="974" y="497.0645"/><rect fill="none" height="459.4434" style="stroke:#000000;stroke-width:1.5;" width="1119" x="10" y="319.3184"/><line style="stroke:#181818;stroke-width:0.5;stroke-dasharray:5.0,5.0;" x1="81" x2="81" y1="102.2422" y2="969.5078"/><line style="stroke:#181818;stroke-width:0.5;stroke-dasharray:5.0,5.0;" x1="312" x2="312" y1="102.2422" y2="969.5078"/><line style="stroke:#181818;stroke-width:0.5;stroke-dasharray:5.0,5.0;" x1="467" x2="467" y1="175.3438" y2="969.5078"/><line style="stroke:#181818;stroke-width:0.5;stroke-dasharray:5.0,5.0;" x1="604" x2="604" y1="102.2422" y2="969.5078"/><line style="stroke:#181818;stroke-width:0.5;stroke-dasharray:5.0,5.0;" x1="711" x2="711" y1="102.2422" y2="969.5078"/><line style="stroke:#181818;stroke-width:0.5;stroke-dasharray:5.0,5.0;" x1="829" x2="829" y1="102.2422" y2="969.5078"/><line style="stroke:#181818;stroke-width:0.5;stroke-dasharray:5.0,5.0;" x1="978.5" x2="978.5" y1="504.8945" y2="969.5078"/><text fill="#000000" font-family="sans-serif" font-size="14" lengthAdjust="spacing" textLength="116" x="20" y="80.1074">Human Resources</text><text fill="#000000" font-family="sans-serif" font-size="14" lengthAdjust="spacing" textLength="56" x="50" y="98.7285">Manager</text><ellipse cx="81" cy="13.5" fill="#E3E3E3" rx="8" ry="8" style="stroke:#181818;stroke-width:0.5;"/><path d="M81,21.5 L81,48.5 M68,29.5 L94,29.5 M81,48.5 L68,63.5 M81,48.5 L94,63.5 " fill="none" style="stroke:#181818;stroke-width:0.5;"/><text fill="#000000" font-family="sans-serif" font-size="14" lengthAdjust="spacing" textLength="116" x="20" y="983.6152">Human Resources</text><text fill="#000000" font-family="sans-serif" font-size="14" lengthAdjust="spacing" textLength="56" x="50" y="1002.2363">Manager</text><ellipse cx="81" cy="1014.25" fill="#E3E3E3" rx="8" ry="8" style="stroke:#181818;stroke-width:0.5;"/><path d="M81,1022.25 L81,1049.25 M68,1030.25 L94,1030.25 M81,1049.25 L68,1064.25 M81,1049.25 L94,1064.25 " fill="none" style="stroke:#181818;stroke-width:0.5;"/><rect fill="#E3E3E3" height="32.6211" rx="2.5" ry="2.5" style="stroke:#181818;stroke-width:0.5;" width="108" x="258" y="68.6211"/><text fill="#000000" font-family="sans-serif" font-size="14" lengthAdjust="spacing" textLength="94" x="265" y="90.7285">:RegisterSkillUI</text><rect fill="#E3E3E3" height="32.6211" rx="2.5" ry="2.5" style="stroke:#181818;stroke-width:0.5;" width="108" x="258" y="968.5078"/><text fill="#000000" font-family="sans-serif" font-size="14" lengthAdjust="spacing" textLength="94" x="265" y="990.6152">:RegisterSkillUI</text><rect fill="#E3E3E3" height="32.6211" rx="2.5" ry="2.5" style="stroke:#181818;stroke-width:0.5;" width="158" x="388" y="968.5078"/><text fill="#000000" font-family="sans-serif" font-size="14" lengthAdjust="spacing" textLength="144" x="395" y="990.6152">:RegisterSkillController</text><rect fill="#E3E3E3" height="32.6211" rx="2.5" ry="2.5" style="stroke:#181818;stroke-width:0.5;" width="97" x="556" y="68.6211"/><text fill="#000000" font-family="sans-serif" font-size="14" lengthAdjust="spacing" textLength="83" x="563" y="90.7285">:Repositories</text><rect fill="#E3E3E3" height="32.6211" rx="2.5" ry="2.5" style="stroke:#181818;stroke-width:0.5;" width="97" x="556" y="968.5078"/><text fill="#000000" font-family="sans-serif" font-size="14" lengthAdjust="spacing" textLength="83" x="563" y="990.6152">:Repositories</text><rect fill="#E3E3E3" height="51.2422" rx="2.5" ry="2.5" style="stroke:#181818;stroke-width:0.5;" width="97" x="663" y="50"/><text fill="#000000" font-family="sans-serif" font-size="14" lengthAdjust="spacing" textLength="74" x="674.5" y="72.1074">repositories</text><text fill="#000000" font-family="sans-serif" font-size="14" lengthAdjust="spacing" textLength="83" x="670" y="90.7285">:Repositories</text><rect fill="#E3E3E3" height="51.2422" rx="2.5" ry="2.5" style="stroke:#181818;stroke-width:0.5;" width="97" x="663" y="968.5078"/><text fill="#000000" font-family="sans-serif" font-size="14" lengthAdjust="spacing" textLength="74" x="674.5" y="990.6152">repositories</text><text fill="#000000" font-family="sans-serif" font-size="14" lengthAdjust="spacing" textLength="83" x="670" y="1009.2363">:Repositories</text><rect fill="#E3E3E3" height="51.2422" rx="2.5" ry="2.5" style="stroke:#181818;stroke-width:0.5;" width="118" x="770" y="50"/><text fill="#000000" font-family="sans-serif" font-size="14" lengthAdjust="spacing" textLength="98" x="780" y="72.1074">skillsRepository</text><text fill="#000000" font-family="sans-serif" font-size="14" lengthAdjust="spacing" textLength="104" x="777" y="90.7285">:SkillsRepository</text><rect fill="#E3E3E3" height="51.2422" rx="2.5" ry="2.5" style="stroke:#181818;stroke-width:0.5;" width="118" x="770" y="968.5078"/><text fill="#000000" font-family="sans-serif" font-size="14" lengthAdjust="spacing" textLength="98" x="780" y="990.6152">skillsRepository</text><text fill="#000000" font-family="sans-serif" font-size="14" lengthAdjust="spacing" textLength="104" x="777" y="1009.2363">:SkillsRepository</text><rect fill="#E3E3E3" height="51.2422" rx="2.5" ry="2.5" style="stroke:#181818;stroke-width:0.5;" width="49" x="954.5" y="968.5078"/><text fill="#000000" font-family="sans-serif" font-size="14" lengthAdjust="spacing" textLength="35" x="961.5" y="990.6152">name</text><text fill="#000000" font-family="sans-serif" font-size="14" lengthAdjust="spacing" textLength="29" x="964.5" y="1009.2363">:Skill</text><rect fill="#FFFFFF" height="848.2656" style="stroke:#181818;stroke-width:1.0;" width="10" x="76" y="112.2422"/><rect fill="#FFFFFF" height="226.3672" style="stroke:#181818;stroke-width:1.0;" width="10" x="307" y="135.5332"/><rect fill="#FFFFFF" height="495.7344" style="stroke:#181818;stroke-width:1.0;" width="10" x="307" y="393.1914"/><rect fill="#FFFFFF" height="31.291" style="stroke:#181818;stroke-width:1.0;" width="10" x="307" y="920.2168"/><rect fill="#FFFFFF" height="127.4941" style="stroke:#181818;stroke-width:1.0;" width="10" x="462" y="176.8242"/><rect fill="#FFFFFF" height="415.8613" style="stroke:#181818;stroke-width:1.0;" width="10" x="462" y="424.4824"/><rect fill="#FFFFFF" height="31.291" style="stroke:#181818;stroke-width:1.0;" width="10" x="599.5" y="210.4453"/><rect fill="#FFFFFF" height="31.291" style="stroke:#181818;stroke-width:1.0;" width="10" x="706.5" y="273.0273"/><rect fill="#FFFFFF" height="353.2793" style="stroke:#181818;stroke-width:1.0;" width="10" x="824" y="455.7734"/><rect fill="#FFFFFF" height="133.8242" style="stroke:#181818;stroke-width:1.0;" width="10" x="974" y="497.0645"/><polygon fill="#181818" points="295,131.5332,305,135.5332,295,139.5332,299,135.5332" style="stroke:#181818;stroke-width:1.0;"/><line style="stroke:#181818;stroke-width:1.0;" x1="86" x2="301" y1="135.5332" y2="135.5332"/><text fill="#000000" font-family="sans-serif" font-size="13" font-weight="bold" lengthAdjust="spacing" textLength="7" x="93" y="130.2705">1</text><text fill="#000000" font-family="sans-serif" font-size="13" lengthAdjust="spacing" textLength="144" x="104" y="130.2705">asks to regist a new skill</text><polygon fill="#181818" points="376,162.8242,386,166.8242,376,170.8242,380,166.8242" style="stroke:#181818;stroke-width:1.0;"/><line style="stroke:#181818;stroke-width:1.0;" x1="317" x2="382" y1="166.8242" y2="166.8242"/><text fill="#000000" font-family="sans-serif" font-size="13" font-weight="bold" lengthAdjust="spacing" textLength="7" x="324" y="161.5615">2</text><text fill="#000000" font-family="sans-serif" font-size="13" lengthAdjust="spacing" textLength="36" x="335" y="161.5615">create</text><rect fill="#E3E3E3" height="32.6211" rx="2.5" ry="2.5" style="stroke:#181818;stroke-width:0.5;" width="158" x="388" y="143.5332"/><text fill="#000000" font-family="sans-serif" font-size="14" lengthAdjust="spacing" textLength="144" x="395" y="165.6406">:RegisterSkillController</text><polygon fill="#181818" points="587.5,206.4453,597.5,210.4453,587.5,214.4453,591.5,210.4453" style="stroke:#181818;stroke-width:1.0;"/><line style="stroke:#181818;stroke-width:1.0;" x1="472" x2="593.5" y1="210.4453" y2="210.4453"/><text fill="#000000" font-family="sans-serif" font-size="13" font-weight="bold" lengthAdjust="spacing" textLength="7" x="479" y="205.1826">3</text><text fill="#000000" font-family="sans-serif" font-size="13" lengthAdjust="spacing" textLength="75" x="490" y="205.1826">getInstance()</text><polygon fill="#181818" points="483,237.7363,473,241.7363,483,245.7363,479,241.7363" style="stroke:#181818;stroke-width:1.0;"/><line style="stroke:#181818;stroke-width:1.0;stroke-dasharray:2.0,2.0;" x1="477" x2="603.5" y1="241.7363" y2="241.7363"/><text fill="#000000" font-family="sans-serif" font-size="13" font-weight="bold" lengthAdjust="spacing" textLength="7" x="489" y="236.4736">4</text><text fill="#000000" font-family="sans-serif" font-size="13" lengthAdjust="spacing" textLength="67" x="500" y="236.4736">repositories</text><polygon fill="#181818" points="694.5,269.0273,704.5,273.0273,694.5,277.0273,698.5,273.0273" style="stroke:#181818;stroke-width:1.0;"/><line style="stroke:#181818;stroke-width:1.0;" x1="472" x2="700.5" y1="273.0273" y2="273.0273"/><text fill="#000000" font-family="sans-serif" font-size="13" font-weight="bold" lengthAdjust="spacing" textLength="7" x="479" y="267.7646">5</text><text fill="#000000" font-family="sans-serif" font-size="13" lengthAdjust="spacing" textLength="120" x="490" y="267.7646">getSkillsRepository()</text><polygon fill="#181818" points="478,300.3184,468,304.3184,478,308.3184,474,304.3184" style="stroke:#181818;stroke-width:1.0;"/><line style="stroke:#181818;stroke-width:1.0;stroke-dasharray:2.0,2.0;" x1="472" x2="710.5" y1="304.3184" y2="304.3184"/><text fill="#000000" font-family="sans-serif" font-size="13" font-weight="bold" lengthAdjust="spacing" textLength="7" x="484" y="299.0557">6</text><text fill="#000000" font-family="sans-serif" font-size="13" lengthAdjust="spacing" textLength="94" x="495" y="299.0557">SkillsRepository</text><path d="M10,319.3184 L83,319.3184 L83,328.6094 L73,338.6094 L10,338.6094 L10,319.3184 " fill="#EEEEEE" style="stroke:#000000;stroke-width:1.5;"/><rect fill="none" height="459.4434" style="stroke:#000000;stroke-width:1.5;" width="1119" x="10" y="319.3184"/><text fill="#000000" font-family="sans-serif" font-size="13" font-weight="bold" lengthAdjust="spacing" textLength="28" x="25" y="334.3467">loop</text><text fill="#000000" font-family="sans-serif" font-size="11" font-weight="bold" lengthAdjust="spacing" textLength="90" x="98" y="333.1885">[while intended]</text><polygon fill="#181818" points="97,357.9004,87,361.9004,97,365.9004,93,361.9004" style="stroke:#181818;stroke-width:1.0;"/><line style="stroke:#181818;stroke-width:1.0;stroke-dasharray:2.0,2.0;" x1="91" x2="311" y1="361.9004" y2="361.9004"/><text fill="#000000" font-family="sans-serif" font-size="13" font-weight="bold" lengthAdjust="spacing" textLength="7" x="103" y="356.6377">7</text><text fill="#000000" font-family="sans-serif" font-size="13" lengthAdjust="spacing" textLength="135" x="114" y="356.6377">requests the skill name</text><polygon fill="#181818" points="295,389.1914,305,393.1914,295,397.1914,299,393.1914" style="stroke:#181818;stroke-width:1.0;"/><line style="stroke:#181818;stroke-width:1.0;" x1="86" x2="301" y1="393.1914" y2="393.1914"/><text fill="#000000" font-family="sans-serif" font-size="13" font-weight="bold" lengthAdjust="spacing" textLength="7" x="93" y="387.9287">8</text><text fill="#000000" font-family="sans-serif" font-size="13" lengthAdjust="spacing" textLength="144" x="104" y="387.9287">types the new skill name</text><polygon fill="#181818" points="450,420.4824,460,424.4824,450,428.4824,454,424.4824" style="stroke:#181818;stroke-width:1.0;"/><line style="stroke:#181818;stroke-width:1.0;" x1="317" x2="456" y1="424.4824" y2="424.4824"/><text fill="#000000" font-family="sans-serif" font-size="13" font-weight="bold" lengthAdjust="spacing" textLength="7" x="324" y="419.2197">9</text><text fill="#000000" font-family="sans-serif" font-size="13" lengthAdjust="spacing" textLength="36" x="335" y="419.2197">create</text><polygon fill="#181818" points="812,451.7734,822,455.7734,812,459.7734,816,455.7734" style="stroke:#181818;stroke-width:1.0;"/><line style="stroke:#181818;stroke-width:1.0;" x1="472" x2="818" y1="455.7734" y2="455.7734"/><text fill="#000000" font-family="sans-serif" font-size="13" font-weight="bold" lengthAdjust="spacing" textLength="14" x="479" y="450.5107">10</text><text fill="#000000" font-family="sans-serif" font-size="13" lengthAdjust="spacing" textLength="36" x="497" y="450.5107">create</text><polygon fill="#181818" points="942.5,483.0645,952.5,487.0645,942.5,491.0645,946.5,487.0645" style="stroke:#181818;stroke-width:1.0;"/><line style="stroke:#181818;stroke-width:1.0;" x1="834" x2="948.5" y1="487.0645" y2="487.0645"/><text fill="#000000" font-family="sans-serif" font-size="13" font-weight="bold" lengthAdjust="spacing" textLength="14" x="841" y="481.8018">11</text><text fill="#000000" font-family="sans-serif" font-size="13" lengthAdjust="spacing" textLength="36" x="859" y="481.8018">create</text><rect fill="#E3E3E3" height="51.2422" rx="2.5" ry="2.5" style="stroke:#181818;stroke-width:0.5;" width="49" x="954.5" y="463.7734"/><text fill="#000000" font-family="sans-serif" font-size="14" lengthAdjust="spacing" textLength="35" x="961.5" y="485.8809">name</text><text fill="#000000" font-family="sans-serif" font-size="14" lengthAdjust="spacing" textLength="29" x="964.5" y="504.502">:Skill</text><line style="stroke:#181818;stroke-width:1.0;" x1="984" x2="1026" y1="549.3066" y2="549.3066"/><line style="stroke:#181818;stroke-width:1.0;" x1="1026" x2="1026" y1="549.3066" y2="562.3066"/><line style="stroke:#181818;stroke-width:1.0;" x1="985" x2="1026" y1="562.3066" y2="562.3066"/><polygon fill="#181818" points="995,558.3066,985,562.3066,995,566.3066,991,562.3066" style="stroke:#181818;stroke-width:1.0;"/><text fill="#000000" font-family="sans-serif" font-size="13" font-weight="bold" lengthAdjust="spacing" textLength="14" x="991" y="544.0439">12</text><text fill="#000000" font-family="sans-serif" font-size="13" lengthAdjust="spacing" textLength="108" x="1009" y="544.0439">validateSkill(name)</text><polygon fill="#181818" points="845,589.5977,835,593.5977,845,597.5977,841,593.5977" style="stroke:#181818;stroke-width:1.0;"/><line style="stroke:#181818;stroke-width:1.0;stroke-dasharray:2.0,2.0;" x1="839" x2="973" y1="593.5977" y2="593.5977"/><text fill="#000000" font-family="sans-serif" font-size="13" font-weight="bold" lengthAdjust="spacing" textLength="14" x="851" y="588.335">13</text><text fill="#000000" font-family="sans-serif" font-size="13" lengthAdjust="spacing" textLength="32" x="869" y="588.335">name</text><line style="stroke:#181818;stroke-width:1.0;" x1="834" x2="876" y1="629.8887" y2="629.8887"/><line style="stroke:#181818;stroke-width:1.0;" x1="876" x2="876" y1="629.8887" y2="642.8887"/><line style="stroke:#181818;stroke-width:1.0;" x1="829" x2="876" y1="642.8887" y2="642.8887"/><polygon fill="#181818" points="839,638.8887,829,642.8887,839,646.8887,835,642.8887" style="stroke:#181818;stroke-width:1.0;"/><text fill="#000000" font-family="sans-serif" font-size="13" font-weight="bold" lengthAdjust="spacing" textLength="14" x="841" y="624.626">14</text><text fill="#000000" font-family="sans-serif" font-size="13" lengthAdjust="spacing" textLength="108" x="859" y="624.626">validateSkill(name)</text><line style="stroke:#181818;stroke-width:1.0;" x1="834" x2="876" y1="669.1797" y2="669.1797"/><line style="stroke:#181818;stroke-width:1.0;" x1="876" x2="876" y1="669.1797" y2="682.1797"/><line style="stroke:#181818;stroke-width:1.0;" x1="835" x2="876" y1="682.1797" y2="682.1797"/><polygon fill="#181818" points="845,678.1797,835,682.1797,845,686.1797,841,682.1797" style="stroke:#181818;stroke-width:1.0;"/><text fill="#000000" font-family="sans-serif" font-size="13" font-weight="bold" lengthAdjust="spacing" textLength="14" x="841" y="663.917">15</text><text fill="#000000" font-family="sans-serif" font-size="13" lengthAdjust="spacing" textLength="86" x="859" y="663.917">addSkill(name)</text><line style="stroke:#181818;stroke-width:1.0;" x1="834" x2="876" y1="713.4707" y2="713.4707"/><line style="stroke:#181818;stroke-width:1.0;" x1="876" x2="876" y1="713.4707" y2="726.4707"/><line style="stroke:#181818;stroke-width:1.0;" x1="835" x2="876" y1="726.4707" y2="726.4707"/><polygon fill="#181818" points="845,722.4707,835,726.4707,845,730.4707,841,726.4707" style="stroke:#181818;stroke-width:1.0;"/><text fill="#000000" font-family="sans-serif" font-size="13" font-weight="bold" lengthAdjust="spacing" textLength="14" x="841" y="708.208">16</text><text fill="#000000" font-family="sans-serif" font-size="13" lengthAdjust="spacing" textLength="53" x="859" y="708.208">true/false</text><line style="stroke:#181818;stroke-width:1.0;" x1="834" x2="876" y1="757.7617" y2="757.7617"/><line style="stroke:#181818;stroke-width:1.0;" x1="876" x2="876" y1="757.7617" y2="770.7617"/><line style="stroke:#181818;stroke-width:1.0;" x1="835" x2="876" y1="770.7617" y2="770.7617"/><polygon fill="#181818" points="845,766.7617,835,770.7617,845,774.7617,841,770.7617" style="stroke:#181818;stroke-width:1.0;"/><text fill="#000000" font-family="sans-serif" font-size="13" font-weight="bold" lengthAdjust="spacing" textLength="14" x="841" y="752.499">17</text><text fill="#000000" font-family="sans-serif" font-size="13" lengthAdjust="spacing" textLength="53" x="859" y="752.499">true/false</text><polygon fill="#181818" points="483,805.0527,473,809.0527,483,813.0527,479,809.0527" style="stroke:#181818;stroke-width:1.0;"/><line style="stroke:#181818;stroke-width:1.0;stroke-dasharray:2.0,2.0;" x1="477" x2="828" y1="809.0527" y2="809.0527"/><text fill="#000000" font-family="sans-serif" font-size="13" font-weight="bold" lengthAdjust="spacing" textLength="14" x="489" y="803.79">18</text><text fill="#000000" font-family="sans-serif" font-size="13" lengthAdjust="spacing" textLength="51" x="507" y="803.79">skillsList</text><polygon fill="#181818" points="328,836.3438,318,840.3438,328,844.3438,324,840.3438" style="stroke:#181818;stroke-width:1.0;"/><line style="stroke:#181818;stroke-width:1.0;stroke-dasharray:2.0,2.0;" x1="322" x2="466" y1="840.3438" y2="840.3438"/><text fill="#000000" font-family="sans-serif" font-size="13" font-weight="bold" lengthAdjust="spacing" textLength="14" x="334" y="835.0811">19</text><text fill="#000000" font-family="sans-serif" font-size="13" lengthAdjust="spacing" textLength="51" x="352" y="835.0811">skillsList</text><polygon fill="#181818" points="97,884.9258,87,888.9258,97,892.9258,93,888.9258" style="stroke:#181818;stroke-width:1.0;"/><line style="stroke:#181818;stroke-width:1.0;stroke-dasharray:2.0,2.0;" x1="91" x2="311" y1="888.9258" y2="888.9258"/><text fill="#000000" font-family="sans-serif" font-size="13" font-weight="bold" lengthAdjust="spacing" textLength="14" x="103" y="875.0176">20</text><text fill="#000000" font-family="sans-serif" font-size="13" lengthAdjust="spacing" textLength="153" x="121" y="866.3721">show all the skills registed</text><text fill="#000000" font-family="sans-serif" font-size="13" lengthAdjust="spacing" textLength="107" x="125" y="883.6631">and aks to confirm</text><polygon fill="#181818" points="295,916.2168,305,920.2168,295,924.2168,299,920.2168" style="stroke:#181818;stroke-width:1.0;"/><line style="stroke:#181818;stroke-width:1.0;" x1="86" x2="301" y1="920.2168" y2="920.2168"/><text fill="#000000" font-family="sans-serif" font-size="13" font-weight="bold" lengthAdjust="spacing" textLength="14" x="93" y="914.9541">21</text><text fill="#000000" font-family="sans-serif" font-size="13" lengthAdjust="spacing" textLength="184" x="111" y="914.9541">confirm the set of skills registed</text><polygon fill="#181818" points="97,947.5078,87,951.5078,97,955.5078,93,951.5078" style="stroke:#181818;stroke-width:1.0;"/><line style="stroke:#181818;stroke-width:1.0;stroke-dasharray:2.0,2.0;" x1="91" x2="311" y1="951.5078" y2="951.5078"/><text fill="#000000" font-family="sans-serif" font-size="13" font-weight="bold" lengthAdjust="spacing" textLength="14" x="103" y="946.2451">22</text><text fill="#000000" font-family="sans-serif" font-size="13" lengthAdjust="spacing" textLength="158" x="121" y="946.2451">displays operation success</text><!--SRC=[dLLDZzem4BtdLumuxIAjgbuvL4AhLel4IXMmDoxJP02Bn4vjPn7_lcCx975YjjlcbDZpdf_VVCISXQnHOmMLaYe_QLKHMDrGPhgT6lCp7cbhhoM1fjoYF9R307F2Gbs4FC81IqDPXhbL6cOlJOKIDcHKetCoU_cAaedq3D30o-OrOxWLkQXHMfWjDdGKnfBUdaLPlgryrDlgew1d9QrMPTbIFkyswqbuhOnWDOACZ-aMhblXhc6LZ25wWDZBAS7FzN8N8uoJOdfYHcr7InuvNenP95PqG_hmtNBp_SUIpMnOOrFz8WrVlRNY7Irv_pBWXr_WwHix1Gk6dGrOnLboBW62f0juVJwq0xEjVi4z36Iuysu-PufS4qVqsnt6kzijko-7I_Z994UoAscuK79wU9nIfPBGHRadnVhKgbp0C4KThA3FqT-4kpm6fUEyf1Jxh4SIFRxND4bkGbTCCjZehIsLgk5o4jnfGbgI1HNHgIvPVARBkVFXTqF6SiPF5B8ChefI9mmJFYuQUwqfS7JL4lFSPUbBfwkRlvJDC0DZo-0-oSJTY712nEIXU-Rp-vot_hfjXEyUku1tB4N1ePx_mLdoE0rFNoJoBwLll9O-BP79LlQ_SMDHf6W_1tQ_WozXilytCFZ6zHnUflYsZjYwC4xNFB-oqTNJLH3AwLRCzz5z8KPDP4xg0iWbtpMHQSSd5Ni9A0l0C5Hp9Gz2LrcI-4w_3VkinOU3o88wZCzB3-b8RY5CNUBLWAf9enKy64sJyz_Lf2Jy0G00]--></g></svg>