<?xml version="1.0" encoding="us-ascii" standalone="no"?><svg xmlns="http://www.w3.org/2000/svg" xmlns:xlink="http://www.w3.org/1999/xlink" contentStyleType="text/css" height="634.9px" preserveAspectRatio="none" style="width:756px;height:634px;background:#FFFFFF;" version="1.1" viewBox="0 0 756 634" width="756.7px" zoomAndPan="magnify"><defs/><g><rect fill="#FFFFFF" height="478.8711" style="stroke:#181818;stroke-width:0.6999999999999998;" width="7" x="53.2" y="78.5695"/><rect fill="#FFFFFF" height="158.457" style="stroke:#181818;stroke-width:0.6999999999999998;" width="7" x="214.9" y="94.8732"/><rect fill="#FFFFFF" height="232.0992" style="stroke:#181818;stroke-width:0.6999999999999998;" width="7" x="214.9" y="275.234"/><rect fill="#FFFFFF" height="21.9037" style="stroke:#181818;stroke-width:0.6999999999999998;" width="7" x="214.9" y="529.2369"/><rect fill="#FFFFFF" height="89.2459" style="stroke:#181818;stroke-width:0.6999999999999998;" width="7" x="321.3" y="123.777"/><rect fill="#FFFFFF" height="176.1881" style="stroke:#181818;stroke-width:0.6999999999999998;" width="7" x="321.3" y="297.1377"/><rect fill="#FFFFFF" height="21.9037" style="stroke:#181818;stroke-width:0.6999999999999998;" width="7" x="415.45" y="147.3117"/><rect fill="#FFFFFF" height="21.9037" style="stroke:#181818;stroke-width:0.6999999999999998;" width="7" x="490.35" y="191.1191"/><rect fill="#FFFFFF" height="132.3807" style="stroke:#181818;stroke-width:0.6999999999999998;" width="7" x="590.8" y="319.0414"/><rect fill="#FFFFFF" height="40.7695" style="stroke:#181818;stroke-width:0.6999999999999998;" width="7" x="713.3" y="347.9451"/><rect fill="none" height="206.6955" style="stroke:#000000;stroke-width:1.0499999999999998;" width="745.85" x="7" y="223.5229"/><line style="stroke:#181818;stroke-width:0.3499999999999999;stroke-dasharray:5.0,5.0;" x1="56.7" x2="56.7" y1="71.5695" y2="563.7406"/><line style="stroke:#181818;stroke-width:0.3499999999999999;stroke-dasharray:5.0,5.0;" x1="218.4" x2="218.4" y1="71.5695" y2="563.7406"/><line style="stroke:#181818;stroke-width:0.3499999999999999;stroke-dasharray:5.0,5.0;" x1="324.8" x2="324.8" y1="122.7406" y2="563.7406"/><line style="stroke:#181818;stroke-width:0.3499999999999999;stroke-dasharray:5.0,5.0;" x1="418.6" x2="418.6" y1="71.5695" y2="563.7406"/><line style="stroke:#181818;stroke-width:0.3499999999999999;stroke-dasharray:5.0,5.0;" x1="493.5" x2="493.5" y1="71.5695" y2="563.7406"/><line style="stroke:#181818;stroke-width:0.3499999999999999;stroke-dasharray:5.0,5.0;" x1="594.3" x2="594.3" y1="71.5695" y2="563.7406"/><line style="stroke:#181818;stroke-width:0.3499999999999999;stroke-dasharray:5.0,5.0;" x1="716.45" x2="716.45" y1="353.4262" y2="563.7406"/><text fill="#000000" font-family="sans-serif" font-size="9.8" lengthAdjust="spacing" textLength="81.2" x="14" y="56.0752">Human Resources</text><text fill="#000000" font-family="sans-serif" font-size="9.8" lengthAdjust="spacing" textLength="39.2" x="35" y="69.11">Manager</text><ellipse cx="56.7" cy="9.45" fill="#E3E3E3" rx="5.6" ry="5.6" style="stroke:#181818;stroke-width:0.3499999999999999;"/><path d="M56.7,15.05 L56.7,33.95 M47.6,20.65 L65.8,20.65 M56.7,33.95 L47.6,44.45 M56.7,33.95 L65.8,44.45 " fill="none" style="stroke:#181818;stroke-width:0.3499999999999999;"/><text fill="#000000" font-family="sans-serif" font-size="9.8" lengthAdjust="spacing" textLength="81.2" x="14" y="573.6158">Human Resources</text><text fill="#000000" font-family="sans-serif" font-size="9.8" lengthAdjust="spacing" textLength="39.2" x="35" y="586.6506">Manager</text><ellipse cx="56.7" cy="595.0602" fill="#E3E3E3" rx="5.6" ry="5.6" style="stroke:#181818;stroke-width:0.3499999999999999;"/><path d="M56.7,600.6602 L56.7,619.5602 M47.6,606.2602 L65.8,606.2602 M56.7,619.5602 L47.6,630.0602 M56.7,619.5602 L65.8,630.0602 " fill="none" style="stroke:#181818;stroke-width:0.3499999999999999;"/><rect fill="#E3E3E3" height="22.8348" rx="1.75" ry="1.75" style="stroke:#181818;stroke-width:0.3499999999999999;" width="71.4" x="182.7" y="48.0348"/><text fill="#000000" font-family="sans-serif" font-size="9.8" lengthAdjust="spacing" textLength="61.6" x="187.6" y="63.51">:RegistSkillsUI</text><rect fill="#E3E3E3" height="22.8348" rx="1.75" ry="1.75" style="stroke:#181818;stroke-width:0.3499999999999999;" width="71.4" x="182.7" y="563.0406"/><text fill="#000000" font-family="sans-serif" font-size="9.8" lengthAdjust="spacing" textLength="61.6" x="187.6" y="578.5158">:RegistSkillsUI</text><rect fill="#E3E3E3" height="22.8348" rx="1.75" ry="1.75" style="stroke:#181818;stroke-width:0.3499999999999999;" width="106.4" x="271.6" y="563.0406"/><text fill="#000000" font-family="sans-serif" font-size="9.8" lengthAdjust="spacing" textLength="96.6" x="276.5" y="578.5158">:RegistSkillsController</text><rect fill="#E3E3E3" height="22.8348" rx="1.75" ry="1.75" style="stroke:#181818;stroke-width:0.3499999999999999;" width="67.9" x="385" y="48.0348"/><text fill="#000000" font-family="sans-serif" font-size="9.8" lengthAdjust="spacing" textLength="58.1" x="389.9" y="63.51">:Repositories</text><rect fill="#E3E3E3" height="22.8348" rx="1.75" ry="1.75" style="stroke:#181818;stroke-width:0.3499999999999999;" width="67.9" x="385" y="563.0406"/><text fill="#000000" font-family="sans-serif" font-size="9.8" lengthAdjust="spacing" textLength="58.1" x="389.9" y="578.5158">:Repositories</text><rect fill="#E3E3E3" height="35.8695" rx="1.75" ry="1.75" style="stroke:#181818;stroke-width:0.3499999999999999;" width="67.9" x="459.9" y="35"/><text fill="#000000" font-family="sans-serif" font-size="9.8" lengthAdjust="spacing" textLength="51.8" x="467.95" y="50.4752">repositories</text><text fill="#000000" font-family="sans-serif" font-size="9.8" lengthAdjust="spacing" textLength="58.1" x="464.8" y="63.51">:Repositories</text><rect fill="#E3E3E3" height="35.8695" rx="1.75" ry="1.75" style="stroke:#181818;stroke-width:0.3499999999999999;" width="67.9" x="459.9" y="563.0406"/><text fill="#000000" font-family="sans-serif" font-size="9.8" lengthAdjust="spacing" textLength="51.8" x="467.95" y="578.5158">repositories</text><text fill="#000000" font-family="sans-serif" font-size="9.8" lengthAdjust="spacing" textLength="58.1" x="464.8" y="591.5506">:Repositories</text><rect fill="#E3E3E3" height="35.8695" rx="1.75" ry="1.75" style="stroke:#181818;stroke-width:0.3499999999999999;" width="119" x="534.8" y="35"/><text fill="#000000" font-family="sans-serif" font-size="9.8" lengthAdjust="spacing" textLength="108.5" x="540.05" y="50.4752">registedSkillsRepository:</text><text fill="#000000" font-family="sans-serif" font-size="9.8" lengthAdjust="spacing" textLength="109.2" x="539.7" y="63.51">RegistedSkillsRepository</text><rect fill="#E3E3E3" height="35.8695" rx="1.75" ry="1.75" style="stroke:#181818;stroke-width:0.3499999999999999;" width="119" x="534.8" y="563.0406"/><text fill="#000000" font-family="sans-serif" font-size="9.8" lengthAdjust="spacing" textLength="108.5" x="540.05" y="578.5158">registedSkillsRepository:</text><text fill="#000000" font-family="sans-serif" font-size="9.8" lengthAdjust="spacing" textLength="109.2" x="539.7" y="591.5506">RegistedSkillsRepository</text><rect fill="#E3E3E3" height="35.8695" rx="1.75" ry="1.75" style="stroke:#181818;stroke-width:0.3499999999999999;" width="58.1" x="687.75" y="563.0406"/><text fill="#000000" font-family="sans-serif" font-size="9.8" lengthAdjust="spacing" textLength="41.3" x="696.15" y="578.5158">skillName</text><text fill="#000000" font-family="sans-serif" font-size="9.8" lengthAdjust="spacing" textLength="48.3" x="692.65" y="591.5506">:RegistSkill</text><rect fill="#FFFFFF" height="478.8711" style="stroke:#181818;stroke-width:0.6999999999999998;" width="7" x="53.2" y="78.5695"/><rect fill="#FFFFFF" height="158.457" style="stroke:#181818;stroke-width:0.6999999999999998;" width="7" x="214.9" y="94.8732"/><rect fill="#FFFFFF" height="232.0992" style="stroke:#181818;stroke-width:0.6999999999999998;" width="7" x="214.9" y="275.234"/><rect fill="#FFFFFF" height="21.9037" style="stroke:#181818;stroke-width:0.6999999999999998;" width="7" x="214.9" y="529.2369"/><rect fill="#FFFFFF" height="89.2459" style="stroke:#181818;stroke-width:0.6999999999999998;" width="7" x="321.3" y="123.777"/><rect fill="#FFFFFF" height="176.1881" style="stroke:#181818;stroke-width:0.6999999999999998;" width="7" x="321.3" y="297.1377"/><rect fill="#FFFFFF" height="21.9037" style="stroke:#181818;stroke-width:0.6999999999999998;" width="7" x="415.45" y="147.3117"/><rect fill="#FFFFFF" height="21.9037" style="stroke:#181818;stroke-width:0.6999999999999998;" width="7" x="490.35" y="191.1191"/><rect fill="#FFFFFF" height="132.3807" style="stroke:#181818;stroke-width:0.6999999999999998;" width="7" x="590.8" y="319.0414"/><rect fill="#FFFFFF" height="40.7695" style="stroke:#181818;stroke-width:0.6999999999999998;" width="7" x="713.3" y="347.9451"/><polygon fill="#181818" points="206.5,92.0732,213.5,94.8732,206.5,97.6732,209.3,94.8732" style="stroke:#181818;stroke-width:0.6999999999999998;"/><line style="stroke:#181818;stroke-width:0.6999999999999998;" x1="60.2" x2="210.7" y1="94.8732" y2="94.8732"/><text fill="#000000" font-family="sans-serif" font-size="9.1" font-weight="bold" lengthAdjust="spacing" textLength="4.9" x="65.1" y="91.1894">1</text><text fill="#000000" font-family="sans-serif" font-size="9.1" lengthAdjust="spacing" textLength="100.8" x="72.8" y="91.1894">asks to regist a new skill</text><polygon fill="#181818" points="263.2,113.977,270.2,116.777,263.2,119.577,266,116.777" style="stroke:#181818;stroke-width:0.6999999999999998;"/><line style="stroke:#181818;stroke-width:0.6999999999999998;" x1="221.9" x2="267.4" y1="116.777" y2="116.777"/><text fill="#000000" font-family="sans-serif" font-size="9.1" font-weight="bold" lengthAdjust="spacing" textLength="4.9" x="226.8" y="113.0931">2</text><text fill="#000000" font-family="sans-serif" font-size="9.1" lengthAdjust="spacing" textLength="25.2" x="234.5" y="113.0931">create</text><rect fill="#E3E3E3" height="22.8348" rx="1.75" ry="1.75" style="stroke:#181818;stroke-width:0.3499999999999999;" width="106.4" x="271.6" y="100.4732"/><text fill="#000000" font-family="sans-serif" font-size="9.8" lengthAdjust="spacing" textLength="96.6" x="276.5" y="115.9484">:RegistSkillsController</text><polygon fill="#181818" points="407.05,144.5117,414.05,147.3117,407.05,150.1117,409.85,147.3117" style="stroke:#181818;stroke-width:0.6999999999999998;"/><line style="stroke:#181818;stroke-width:0.6999999999999998;" x1="328.3" x2="411.25" y1="147.3117" y2="147.3117"/><text fill="#000000" font-family="sans-serif" font-size="9.1" font-weight="bold" lengthAdjust="spacing" textLength="4.9" x="333.2" y="143.6278">3</text><text fill="#000000" font-family="sans-serif" font-size="9.1" lengthAdjust="spacing" textLength="52.5" x="340.9" y="143.6278">getInstance()</text><polygon fill="#181818" points="336,166.4154,329,169.2154,336,172.0154,333.2,169.2154" style="stroke:#181818;stroke-width:0.6999999999999998;"/><line style="stroke:#181818;stroke-width:0.6999999999999998;stroke-dasharray:2.0,2.0;" x1="331.8" x2="418.25" y1="169.2154" y2="169.2154"/><text fill="#000000" font-family="sans-serif" font-size="9.1" font-weight="bold" lengthAdjust="spacing" textLength="4.9" x="340.2" y="165.5315">4</text><text fill="#000000" font-family="sans-serif" font-size="9.1" lengthAdjust="spacing" textLength="46.9" x="347.9" y="165.5315">repositories</text><polygon fill="#181818" points="481.95,188.3191,488.95,191.1191,481.95,193.9191,484.75,191.1191" style="stroke:#181818;stroke-width:0.6999999999999998;"/><line style="stroke:#181818;stroke-width:0.6999999999999998;" x1="328.3" x2="486.15" y1="191.1191" y2="191.1191"/><text fill="#000000" font-family="sans-serif" font-size="9.1" font-weight="bold" lengthAdjust="spacing" textLength="4.9" x="333.2" y="187.4353">5</text><text fill="#000000" font-family="sans-serif" font-size="9.1" lengthAdjust="spacing" textLength="119.7" x="340.9" y="187.4353">getRegistedSkillsRepository()</text><polygon fill="#181818" points="332.5,210.2229,325.5,213.0229,332.5,215.8229,329.7,213.0229" style="stroke:#181818;stroke-width:0.6999999999999998;"/><line style="stroke:#181818;stroke-width:0.6999999999999998;stroke-dasharray:2.0,2.0;" x1="328.3" x2="493.15" y1="213.0229" y2="213.0229"/><text fill="#000000" font-family="sans-serif" font-size="9.1" font-weight="bold" lengthAdjust="spacing" textLength="4.9" x="336.7" y="209.339">6</text><text fill="#000000" font-family="sans-serif" font-size="9.1" lengthAdjust="spacing" textLength="98" x="344.4" y="209.339">registedSkillsRepository</text><path d="M7,223.5229 L58.1,223.5229 L58.1,230.0266 L51.1,237.0266 L7,237.0266 L7,223.5229 " fill="#EEEEEE" style="stroke:#000000;stroke-width:1.0499999999999998;"/><rect fill="none" height="206.6955" style="stroke:#000000;stroke-width:1.0499999999999998;" width="745.85" x="7" y="223.5229"/><text fill="#000000" font-family="sans-serif" font-size="9.1" font-weight="bold" lengthAdjust="spacing" textLength="19.6" x="17.5" y="234.0427">loop</text><text fill="#000000" font-family="sans-serif" font-size="7.7" font-weight="bold" lengthAdjust="spacing" textLength="63" x="68.6" y="233.2319">[while intended]</text><polygon fill="#181818" points="67.9,250.5303,60.9,253.3303,67.9,256.1303,65.1,253.3303" style="stroke:#181818;stroke-width:0.6999999999999998;"/><line style="stroke:#181818;stroke-width:0.6999999999999998;stroke-dasharray:2.0,2.0;" x1="63.7" x2="217.7" y1="253.3303" y2="253.3303"/><text fill="#000000" font-family="sans-serif" font-size="9.1" font-weight="bold" lengthAdjust="spacing" textLength="4.9" x="72.1" y="249.6464">7</text><text fill="#000000" font-family="sans-serif" font-size="9.1" lengthAdjust="spacing" textLength="94.5" x="79.8" y="249.6464">requests the skill name</text><polygon fill="#181818" points="206.5,272.434,213.5,275.234,206.5,278.034,209.3,275.234" style="stroke:#181818;stroke-width:0.6999999999999998;"/><line style="stroke:#181818;stroke-width:0.6999999999999998;" x1="60.2" x2="210.7" y1="275.234" y2="275.234"/><text fill="#000000" font-family="sans-serif" font-size="9.1" font-weight="bold" lengthAdjust="spacing" textLength="4.9" x="65.1" y="271.5501">8</text><text fill="#000000" font-family="sans-serif" font-size="9.1" lengthAdjust="spacing" textLength="100.8" x="72.8" y="271.5501">types the new skill name</text><polygon fill="#181818" points="312.9,294.3377,319.9,297.1377,312.9,299.9377,315.7,297.1377" style="stroke:#181818;stroke-width:0.6999999999999998;"/><line style="stroke:#181818;stroke-width:0.6999999999999998;" x1="221.9" x2="317.1" y1="297.1377" y2="297.1377"/><text fill="#000000" font-family="sans-serif" font-size="9.1" font-weight="bold" lengthAdjust="spacing" textLength="4.9" x="226.8" y="293.4538">9</text><text fill="#000000" font-family="sans-serif" font-size="9.1" lengthAdjust="spacing" textLength="25.2" x="234.5" y="293.4538">create</text><polygon fill="#181818" points="582.4,316.2414,589.4,319.0414,582.4,321.8414,585.2,319.0414" style="stroke:#181818;stroke-width:0.6999999999999998;"/><line style="stroke:#181818;stroke-width:0.6999999999999998;" x1="328.3" x2="586.6" y1="319.0414" y2="319.0414"/><text fill="#000000" font-family="sans-serif" font-size="9.1" font-weight="bold" lengthAdjust="spacing" textLength="9.8" x="333.2" y="315.3575">10</text><text fill="#000000" font-family="sans-serif" font-size="9.1" lengthAdjust="spacing" textLength="25.2" x="345.8" y="315.3575">create</text><polygon fill="#181818" points="679.35,338.1451,686.35,340.9451,679.35,343.7451,682.15,340.9451" style="stroke:#181818;stroke-width:0.6999999999999998;"/><line style="stroke:#181818;stroke-width:0.6999999999999998;" x1="597.8" x2="683.55" y1="340.9451" y2="340.9451"/><text fill="#000000" font-family="sans-serif" font-size="9.1" font-weight="bold" lengthAdjust="spacing" textLength="9.8" x="602.7" y="337.2612">11</text><text fill="#000000" font-family="sans-serif" font-size="9.1" lengthAdjust="spacing" textLength="25.2" x="615.3" y="337.2612">create</text><rect fill="#E3E3E3" height="35.8695" rx="1.75" ry="1.75" style="stroke:#181818;stroke-width:0.3499999999999999;" width="58.1" x="687.75" y="324.6414"/><text fill="#000000" font-family="sans-serif" font-size="9.8" lengthAdjust="spacing" textLength="41.3" x="696.15" y="340.1166">skillName</text><text fill="#000000" font-family="sans-serif" font-size="9.8" lengthAdjust="spacing" textLength="48.3" x="692.65" y="353.1514">:RegistSkill</text><line style="stroke:#181818;stroke-width:0.6999999999999998;" x1="597.8" x2="627.2" y1="388.0146" y2="388.0146"/><line style="stroke:#181818;stroke-width:0.6999999999999998;" x1="627.2" x2="627.2" y1="388.0146" y2="397.1146"/><line style="stroke:#181818;stroke-width:0.6999999999999998;" x1="594.3" x2="627.2" y1="397.1146" y2="397.1146"/><polygon fill="#181818" points="601.3,394.3146,594.3,397.1146,601.3,399.9146,598.5,397.1146" style="stroke:#181818;stroke-width:0.6999999999999998;"/><text fill="#000000" font-family="sans-serif" font-size="9.1" font-weight="bold" lengthAdjust="spacing" textLength="9.8" x="602.7" y="384.3308">12</text><text fill="#000000" font-family="sans-serif" font-size="9.1" lengthAdjust="spacing" textLength="93.1" x="615.3" y="384.3308">validateSkill(skillName)</text><line style="stroke:#181818;stroke-width:0.6999999999999998;" x1="597.8" x2="627.2" y1="415.5184" y2="415.5184"/><line style="stroke:#181818;stroke-width:0.6999999999999998;" x1="627.2" x2="627.2" y1="415.5184" y2="424.6184"/><line style="stroke:#181818;stroke-width:0.6999999999999998;" x1="598.5" x2="627.2" y1="424.6184" y2="424.6184"/><polygon fill="#181818" points="605.5,421.8184,598.5,424.6184,605.5,427.4184,602.7,424.6184" style="stroke:#181818;stroke-width:0.6999999999999998;"/><text fill="#000000" font-family="sans-serif" font-size="9.1" font-weight="bold" lengthAdjust="spacing" textLength="9.8" x="602.7" y="411.8345">13</text><text fill="#000000" font-family="sans-serif" font-size="9.1" lengthAdjust="spacing" textLength="77.7" x="615.3" y="411.8345">addSkill(skillName)</text><polygon fill="#181818" points="336,448.6221,329,451.4221,336,454.2221,333.2,451.4221" style="stroke:#181818;stroke-width:0.6999999999999998;"/><line style="stroke:#181818;stroke-width:0.6999999999999998;stroke-dasharray:2.0,2.0;" x1="331.8" x2="593.6" y1="451.4221" y2="451.4221"/><text fill="#000000" font-family="sans-serif" font-size="9.1" font-weight="bold" lengthAdjust="spacing" textLength="9.8" x="340.2" y="447.7382">14</text><text fill="#000000" font-family="sans-serif" font-size="9.1" lengthAdjust="spacing" textLength="69.3" x="352.8" y="447.7382">registedSkillsList</text><polygon fill="#181818" points="229.6,470.5258,222.6,473.3258,229.6,476.1258,226.8,473.3258" style="stroke:#181818;stroke-width:0.6999999999999998;"/><line style="stroke:#181818;stroke-width:0.6999999999999998;stroke-dasharray:2.0,2.0;" x1="225.4" x2="324.1" y1="473.3258" y2="473.3258"/><text fill="#000000" font-family="sans-serif" font-size="9.1" font-weight="bold" lengthAdjust="spacing" textLength="9.8" x="233.8" y="469.6419">15</text><text fill="#000000" font-family="sans-serif" font-size="9.1" lengthAdjust="spacing" textLength="69.3" x="246.4" y="469.6419">registedSkillsList</text><polygon fill="#181818" points="67.9,504.5332,60.9,507.3332,67.9,510.1332,65.1,507.3332" style="stroke:#181818;stroke-width:0.6999999999999998;"/><line style="stroke:#181818;stroke-width:0.6999999999999998;stroke-dasharray:2.0,2.0;" x1="63.7" x2="217.7" y1="507.3332" y2="507.3332"/><text fill="#000000" font-family="sans-serif" font-size="9.1" font-weight="bold" lengthAdjust="spacing" textLength="9.8" x="72.1" y="497.5975">16</text><text fill="#000000" font-family="sans-serif" font-size="9.1" lengthAdjust="spacing" textLength="107.1" x="84.7" y="491.5456">show all the skills registed</text><text fill="#000000" font-family="sans-serif" font-size="9.1" lengthAdjust="spacing" textLength="74.9" x="87.5" y="503.6493">and aks to confirm</text><polygon fill="#181818" points="206.5,526.4369,213.5,529.2369,206.5,532.0369,209.3,529.2369" style="stroke:#181818;stroke-width:0.6999999999999998;"/><line style="stroke:#181818;stroke-width:0.6999999999999998;" x1="60.2" x2="210.7" y1="529.2369" y2="529.2369"/><text fill="#000000" font-family="sans-serif" font-size="9.1" font-weight="bold" lengthAdjust="spacing" textLength="9.8" x="65.1" y="525.553">17</text><text fill="#000000" font-family="sans-serif" font-size="9.1" lengthAdjust="spacing" textLength="128.8" x="77.7" y="525.553">confirm the set of skills registed</text><polygon fill="#181818" points="67.9,548.3406,60.9,551.1406,67.9,553.9406,65.1,551.1406" style="stroke:#181818;stroke-width:0.6999999999999998;"/><line style="stroke:#181818;stroke-width:0.6999999999999998;stroke-dasharray:2.0,2.0;" x1="63.7" x2="217.7" y1="551.1406" y2="551.1406"/><text fill="#000000" font-family="sans-serif" font-size="9.1" font-weight="bold" lengthAdjust="spacing" textLength="9.8" x="72.1" y="547.4567">18</text><text fill="#000000" font-family="sans-serif" font-size="9.1" lengthAdjust="spacing" textLength="110.6" x="84.7" y="547.4567">displays operation success</text><!--SRC=[fLN1Rk8m4BtdAqPSsY9nw1MjLaBLLaMYgrMWDowpoG0MYPsrdIB-ViTEC0bnsgusf-2PUVCoxuqnHo4hr5X2gQJA3bgL15RNb9WGgJ0xufxMzbmGQCeiodtHJJ07pDL9o3tii32K99XPfM7oKfSe8IMZQfsHsSfNb0oa9u06NjBNXCkjo4I5qi9adj9U6Bi-Yg8mRqkVzBRy8ET9IQjLKRI0JvjqDSYkb17CHP3nEU7Wl1Rk8woI_HBTgTZA8S2lrM9pM-4OKTvmkZQORsKw4cgfn8DzTEEYFx4aJoPykqVOBD8VpmkUTisVKPU_ISEZdxruHqj-m0dmmoym-ywpX3cN7GrO1GrhG91q0j_4fuPY7hm_S0yNShaRxtJA49acphY6GuqN81oxNwukCd86sPDTIiDEokZ-OGWLqobakIU6EcjPpg6hOYZBwMlm5-9EweRfc5GnvjuWFQeUfyjjHFS8pnxOdHFYsspM4FmteAiqXL8Ld0w2Lrb8IpAdlCVMYSrSdMTSYpyr6SkEEL3Z4f3inLY7hc5kJMVF5JKOmMrzd2vA5sJ0x3B4reEVMB1lm_YqO1niT4Dld3W2p4sR3PrEntjSTlWhQ6EnERnZ8NA6yv7xS6Syn8HgE_vVGyppGIyFoOPgNiPnMn473bxnUp9Or8yaQBIzkEnpjAixUYut1tK2P4y6bvi0jfM0CWTiRirCoPtGPH857bc8xYAqzKqZig1sj_tYjt2FRYvCLU3PWAf8enLyyvawu_zN4wFm5m00]--></g></svg>