<?xml version="1.0" encoding="us-ascii" standalone="no"?><svg xmlns="http://www.w3.org/2000/svg" xmlns:xlink="http://www.w3.org/1999/xlink" contentStyleType="text/css" height="380px" preserveAspectRatio="none" style="width:373px;height:380px;background:#FFFFFF;" version="1.1" viewBox="0 0 373 380" width="373px" zoomAndPan="magnify"><defs/><g><rect fill="#FFFFFF" height="215.4063" style="stroke:#181818;stroke-width:1.0;" width="10" x="136" y="90.5332"/><rect fill="none" height="170.1152" style="stroke:#000000;stroke-width:1.5;" width="321.5" x="46" y="105.5332"/><line style="stroke:#181818;stroke-width:0.5;stroke-dasharray:5.0,5.0;" x1="141" x2="141" y1="57.2422" y2="323.9395"/><line style="stroke:#181818;stroke-width:0.5;stroke-dasharray:5.0,5.0;" x1="315.5" x2="315.5" y1="165.9453" y2="323.9395"/><rect fill="#E3E3E3" height="51.2422" rx="2.5" ry="2.5" style="stroke:#181818;stroke-width:0.5;" width="170" x="56" y="5"/><text fill="#000000" font-family="sans-serif" font-size="14" lengthAdjust="spacing" textLength="155" x="63.5" y="27.1074">registedSkillsRepository:</text><text fill="#000000" font-family="sans-serif" font-size="14" lengthAdjust="spacing" textLength="156" x="63" y="45.7285">RegistedSkillsRepository</text><rect fill="#E3E3E3" height="51.2422" rx="2.5" ry="2.5" style="stroke:#181818;stroke-width:0.5;" width="170" x="56" y="322.9395"/><text fill="#000000" font-family="sans-serif" font-size="14" lengthAdjust="spacing" textLength="155" x="63.5" y="345.0469">registedSkillsRepository:</text><text fill="#000000" font-family="sans-serif" font-size="14" lengthAdjust="spacing" textLength="156" x="63" y="363.668">RegistedSkillsRepository</text><rect fill="#E3E3E3" height="51.2422" rx="2.5" ry="2.5" style="stroke:#181818;stroke-width:0.5;" width="83" x="274.5" y="322.9395"/><text fill="#000000" font-family="sans-serif" font-size="14" lengthAdjust="spacing" textLength="59" x="286.5" y="345.0469">skillName</text><text fill="#000000" font-family="sans-serif" font-size="14" lengthAdjust="spacing" textLength="69" x="281.5" y="363.668">:RegistSkill</text><rect fill="#FFFFFF" height="215.4063" style="stroke:#181818;stroke-width:1.0;" width="10" x="136" y="90.5332"/><polygon fill="#181818" points="124,86.5332,134,90.5332,124,94.5332,128,90.5332" style="stroke:#181818;stroke-width:1.0;"/><line style="stroke:#181818;stroke-width:1.0;" x1="0" x2="130" y1="90.5332" y2="90.5332"/><text fill="#000000" font-family="sans-serif" font-size="13" font-weight="bold" lengthAdjust="spacing" textLength="14" x="7" y="85.2705">11</text><text fill="#000000" font-family="sans-serif" font-size="13" lengthAdjust="spacing" textLength="36" x="25" y="85.2705">create</text><path d="M46,105.5332 L165,105.5332 L165,114.8242 L155,124.8242 L46,124.8242 L46,105.5332 " fill="#EEEEEE" style="stroke:#000000;stroke-width:1.5;"/><rect fill="none" height="170.1152" style="stroke:#000000;stroke-width:1.5;" width="321.5" x="46" y="105.5332"/><text fill="#000000" font-family="sans-serif" font-size="13" font-weight="bold" lengthAdjust="spacing" textLength="74" x="61" y="120.5615">Create Skill</text><polygon fill="#181818" points="262.5,144.1152,272.5,148.1152,262.5,152.1152,266.5,148.1152" style="stroke:#181818;stroke-width:1.0;"/><line style="stroke:#181818;stroke-width:1.0;" x1="146" x2="268.5" y1="148.1152" y2="148.1152"/><text fill="#000000" font-family="sans-serif" font-size="13" font-weight="bold" lengthAdjust="spacing" textLength="14" x="153" y="142.8525">12</text><text fill="#000000" font-family="sans-serif" font-size="13" lengthAdjust="spacing" textLength="36" x="171" y="142.8525">create</text><rect fill="#E3E3E3" height="51.2422" rx="2.5" ry="2.5" style="stroke:#181818;stroke-width:0.5;" width="83" x="274.5" y="124.8242"/><text fill="#000000" font-family="sans-serif" font-size="14" lengthAdjust="spacing" textLength="59" x="286.5" y="146.9316">skillName</text><text fill="#000000" font-family="sans-serif" font-size="14" lengthAdjust="spacing" textLength="69" x="281.5" y="165.5527">:RegistSkill</text><line style="stroke:#181818;stroke-width:1.0;" x1="146" x2="188" y1="210.3574" y2="210.3574"/><line style="stroke:#181818;stroke-width:1.0;" x1="188" x2="188" y1="210.3574" y2="223.3574"/><line style="stroke:#181818;stroke-width:1.0;" x1="147" x2="188" y1="223.3574" y2="223.3574"/><polygon fill="#181818" points="157,219.3574,147,223.3574,157,227.3574,153,223.3574" style="stroke:#181818;stroke-width:1.0;"/><text fill="#000000" font-family="sans-serif" font-size="13" font-weight="bold" lengthAdjust="spacing" textLength="14" x="153" y="205.0947">13</text><text fill="#000000" font-family="sans-serif" font-size="13" lengthAdjust="spacing" textLength="133" x="171" y="205.0947">validateSkill(skillName)</text><line style="stroke:#181818;stroke-width:1.0;" x1="146" x2="188" y1="254.6484" y2="254.6484"/><line style="stroke:#181818;stroke-width:1.0;" x1="188" x2="188" y1="254.6484" y2="267.6484"/><line style="stroke:#181818;stroke-width:1.0;" x1="147" x2="188" y1="267.6484" y2="267.6484"/><polygon fill="#181818" points="157,263.6484,147,267.6484,157,271.6484,153,267.6484" style="stroke:#181818;stroke-width:1.0;"/><text fill="#000000" font-family="sans-serif" font-size="13" font-weight="bold" lengthAdjust="spacing" textLength="14" x="153" y="249.3857">14</text><text fill="#000000" font-family="sans-serif" font-size="13" lengthAdjust="spacing" textLength="111" x="171" y="249.3857">addSkill(skillName)</text><polygon fill="#181818" points="11,301.9395,1,305.9395,11,309.9395,7,305.9395" style="stroke:#181818;stroke-width:1.0;"/><line style="stroke:#181818;stroke-width:1.0;stroke-dasharray:2.0,2.0;" x1="5" x2="140" y1="305.9395" y2="305.9395"/><text fill="#000000" font-family="sans-serif" font-size="13" font-weight="bold" lengthAdjust="spacing" textLength="14" x="17" y="300.6768">15</text><text fill="#000000" font-family="sans-serif" font-size="13" lengthAdjust="spacing" textLength="99" x="35" y="300.6768">registedSkillsList</text><!--SRC=[fP4zQmCn38Pt_GgHgGtSaFKeXL3QANIuPCoYsgfZpb_OleJy-pe-E1gAQQ6QX5wzZsGvZTe5YcJHUkV5ANhBcEF4a1Oba1X9yJvV3MDaaSafyxqXdKZwYtOAFyaa1YZbh8KEv3Ak8YkTCilzg8r90mUVTFRnsX_Tq91MI0bRuZqztTHtidnq_Uoe_PLms0wlRri0ch9ta_tWY9iDTCzDT8yYCkNo0X9PdqlMtW9BgEYdW2_LWxK3QlqMBIEM-VDYw_Koxo-czj9dCbeMJ5KUbeiy_XDBKluWLYGxEITFNTTcztZ_yxkI0qZ-_RJm1G00]--></g></svg>