<?xml version="1.0" encoding="us-ascii" standalone="no"?><svg xmlns="http://www.w3.org/2000/svg" xmlns:xlink="http://www.w3.org/1999/xlink" contentStyleType="text/css" height="473.9px" preserveAspectRatio="none" style="width:629px;height:473px;background:#FFFFFF;" version="1.1" viewBox="0 0 629 473" width="629.3px" zoomAndPan="magnify"><defs/><g><rect fill="#FFFFFF" height="317.852" style="stroke:#181818;stroke-width:0.6999999999999998;" width="7" x="53.2" y="78.5695"/><rect fill="#FFFFFF" height="171.7297" style="stroke:#181818;stroke-width:0.6999999999999998;" width="7" x="274.4" y="94.8732"/><rect fill="#FFFFFF" height="57.8074" style="stroke:#181818;stroke-width:0.6999999999999998;" width="7" x="274.4" y="288.5066"/><rect fill="#FFFFFF" height="21.9037" style="stroke:#181818;stroke-width:0.6999999999999998;" width="7" x="274.4" y="368.2178"/><rect fill="#FFFFFF" height="21.9037" style="stroke:#181818;stroke-width:0.6999999999999998;" width="7" x="386.75" y="116.777"/><rect fill="#FFFFFF" height="21.9037" style="stroke:#181818;stroke-width:0.6999999999999998;" width="7" x="461.65" y="160.5844"/><rect fill="#FFFFFF" height="21.9037" style="stroke:#181818;stroke-width:0.6999999999999998;" width="7" x="562.1" y="204.3918"/><rect fill="none" height="57.3111" style="stroke:#000000;stroke-width:1.0499999999999998;" width="349.3" x="7" y="236.7955"/><line style="stroke:#181818;stroke-width:0.3499999999999999;stroke-dasharray:5.0,5.0;" x1="56.7" x2="56.7" y1="71.5695" y2="402.7215"/><line style="stroke:#181818;stroke-width:0.3499999999999999;stroke-dasharray:5.0,5.0;" x1="277.9" x2="277.9" y1="71.5695" y2="402.7215"/><line style="stroke:#181818;stroke-width:0.3499999999999999;stroke-dasharray:5.0,5.0;" x1="389.9" x2="389.9" y1="71.5695" y2="402.7215"/><line style="stroke:#181818;stroke-width:0.3499999999999999;stroke-dasharray:5.0,5.0;" x1="464.8" x2="464.8" y1="71.5695" y2="402.7215"/><line style="stroke:#181818;stroke-width:0.3499999999999999;stroke-dasharray:5.0,5.0;" x1="565.6" x2="565.6" y1="71.5695" y2="402.7215"/><text fill="#000000" font-family="sans-serif" font-size="9.8" lengthAdjust="spacing" textLength="81.2" x="14" y="56.0752">Human Resources</text><text fill="#000000" font-family="sans-serif" font-size="9.8" lengthAdjust="spacing" textLength="39.2" x="35" y="69.11">Manager</text><ellipse cx="56.7" cy="9.45" fill="#E3E3E3" rx="5.6" ry="5.6" style="stroke:#181818;stroke-width:0.3499999999999999;"/><path d="M56.7,15.05 L56.7,33.95 M47.6,20.65 L65.8,20.65 M56.7,33.95 L47.6,44.45 M56.7,33.95 L65.8,44.45 " fill="none" style="stroke:#181818;stroke-width:0.3499999999999999;"/><text fill="#000000" font-family="sans-serif" font-size="9.8" lengthAdjust="spacing" textLength="81.2" x="14" y="412.5967">Human Resources</text><text fill="#000000" font-family="sans-serif" font-size="9.8" lengthAdjust="spacing" textLength="39.2" x="35" y="425.6314">Manager</text><ellipse cx="56.7" cy="434.041" fill="#E3E3E3" rx="5.6" ry="5.6" style="stroke:#181818;stroke-width:0.3499999999999999;"/><path d="M56.7,439.641 L56.7,458.541 M47.6,445.241 L65.8,445.241 M56.7,458.541 L47.6,469.041 M56.7,458.541 L65.8,469.041 " fill="none" style="stroke:#181818;stroke-width:0.3499999999999999;"/><rect fill="#E3E3E3" height="22.8348" rx="1.75" ry="1.75" style="stroke:#181818;stroke-width:0.3499999999999999;" width="142.8" x="206.5" y="48.0348"/><text fill="#000000" font-family="sans-serif" font-size="9.8" lengthAdjust="spacing" textLength="133" x="211.4" y="63.51">:RegistSkillsToCollaboratorsUI</text><rect fill="#E3E3E3" height="22.8348" rx="1.75" ry="1.75" style="stroke:#181818;stroke-width:0.3499999999999999;" width="142.8" x="206.5" y="402.0215"/><text fill="#000000" font-family="sans-serif" font-size="9.8" lengthAdjust="spacing" textLength="133" x="211.4" y="417.4967">:RegistSkillsToCollaboratorsUI</text><rect fill="#E3E3E3" height="22.8348" rx="1.75" ry="1.75" style="stroke:#181818;stroke-width:0.3499999999999999;" width="67.9" x="356.3" y="48.0348"/><text fill="#000000" font-family="sans-serif" font-size="9.8" lengthAdjust="spacing" textLength="58.1" x="361.2" y="63.51">:Repositories</text><rect fill="#E3E3E3" height="22.8348" rx="1.75" ry="1.75" style="stroke:#181818;stroke-width:0.3499999999999999;" width="67.9" x="356.3" y="402.0215"/><text fill="#000000" font-family="sans-serif" font-size="9.8" lengthAdjust="spacing" textLength="58.1" x="361.2" y="417.4967">:Repositories</text><rect fill="#E3E3E3" height="35.8695" rx="1.75" ry="1.75" style="stroke:#181818;stroke-width:0.3499999999999999;" width="67.9" x="431.2" y="35"/><text fill="#000000" font-family="sans-serif" font-size="9.8" lengthAdjust="spacing" textLength="51.8" x="439.25" y="50.4752">repositories</text><text fill="#000000" font-family="sans-serif" font-size="9.8" lengthAdjust="spacing" textLength="58.1" x="436.1" y="63.51">:Repositories</text><rect fill="#E3E3E3" height="35.8695" rx="1.75" ry="1.75" style="stroke:#181818;stroke-width:0.3499999999999999;" width="67.9" x="431.2" y="402.0215"/><text fill="#000000" font-family="sans-serif" font-size="9.8" lengthAdjust="spacing" textLength="51.8" x="439.25" y="417.4967">repositories</text><text fill="#000000" font-family="sans-serif" font-size="9.8" lengthAdjust="spacing" textLength="58.1" x="436.1" y="430.5314">:Repositories</text><rect fill="#E3E3E3" height="35.8695" rx="1.75" ry="1.75" style="stroke:#181818;stroke-width:0.3499999999999999;" width="119" x="506.1" y="35"/><text fill="#000000" font-family="sans-serif" font-size="9.8" lengthAdjust="spacing" textLength="108.5" x="511.35" y="50.4752">registedSkillsRepository:</text><text fill="#000000" font-family="sans-serif" font-size="9.8" lengthAdjust="spacing" textLength="109.2" x="511" y="63.51">RegistedSkillsRepository</text><rect fill="#E3E3E3" height="35.8695" rx="1.75" ry="1.75" style="stroke:#181818;stroke-width:0.3499999999999999;" width="119" x="506.1" y="402.0215"/><text fill="#000000" font-family="sans-serif" font-size="9.8" lengthAdjust="spacing" textLength="108.5" x="511.35" y="417.4967">registedSkillsRepository:</text><text fill="#000000" font-family="sans-serif" font-size="9.8" lengthAdjust="spacing" textLength="109.2" x="511" y="430.5314">RegistedSkillsRepository</text><rect fill="#FFFFFF" height="317.852" style="stroke:#181818;stroke-width:0.6999999999999998;" width="7" x="53.2" y="78.5695"/><rect fill="#FFFFFF" height="171.7297" style="stroke:#181818;stroke-width:0.6999999999999998;" width="7" x="274.4" y="94.8732"/><rect fill="#FFFFFF" height="57.8074" style="stroke:#181818;stroke-width:0.6999999999999998;" width="7" x="274.4" y="288.5066"/><rect fill="#FFFFFF" height="21.9037" style="stroke:#181818;stroke-width:0.6999999999999998;" width="7" x="274.4" y="368.2178"/><rect fill="#FFFFFF" height="21.9037" style="stroke:#181818;stroke-width:0.6999999999999998;" width="7" x="386.75" y="116.777"/><rect fill="#FFFFFF" height="21.9037" style="stroke:#181818;stroke-width:0.6999999999999998;" width="7" x="461.65" y="160.5844"/><rect fill="#FFFFFF" height="21.9037" style="stroke:#181818;stroke-width:0.6999999999999998;" width="7" x="562.1" y="204.3918"/><polygon fill="#181818" points="266,92.0732,273,94.8732,266,97.6732,268.8,94.8732" style="stroke:#181818;stroke-width:0.6999999999999998;"/><line style="stroke:#181818;stroke-width:0.6999999999999998;" x1="60.2" x2="270.2" y1="94.8732" y2="94.8732"/><text fill="#000000" font-family="sans-serif" font-size="9.1" font-weight="bold" lengthAdjust="spacing" textLength="4.9" x="65.1" y="91.1894">1</text><text fill="#000000" font-family="sans-serif" font-size="9.1" lengthAdjust="spacing" textLength="100.8" x="72.8" y="91.1894">asks to regist a new skill</text><polygon fill="#181818" points="378.35,113.977,385.35,116.777,378.35,119.577,381.15,116.777" style="stroke:#181818;stroke-width:0.6999999999999998;"/><line style="stroke:#181818;stroke-width:0.6999999999999998;" x1="281.4" x2="382.55" y1="116.777" y2="116.777"/><text fill="#000000" font-family="sans-serif" font-size="9.1" font-weight="bold" lengthAdjust="spacing" textLength="4.9" x="286.3" y="113.0931">2</text><text fill="#000000" font-family="sans-serif" font-size="9.1" lengthAdjust="spacing" textLength="52.5" x="294" y="113.0931">getInstance()</text><polygon fill="#181818" points="289.1,135.8807,282.1,138.6807,289.1,141.4807,286.3,138.6807" style="stroke:#181818;stroke-width:0.6999999999999998;"/><line style="stroke:#181818;stroke-width:0.6999999999999998;stroke-dasharray:2.0,2.0;" x1="284.9" x2="389.55" y1="138.6807" y2="138.6807"/><text fill="#000000" font-family="sans-serif" font-size="9.1" font-weight="bold" lengthAdjust="spacing" textLength="4.9" x="293.3" y="134.9968">3</text><text fill="#000000" font-family="sans-serif" font-size="9.1" lengthAdjust="spacing" textLength="46.9" x="301" y="134.9968">repositories</text><polygon fill="#181818" points="453.25,157.7844,460.25,160.5844,453.25,163.3844,456.05,160.5844" style="stroke:#181818;stroke-width:0.6999999999999998;"/><line style="stroke:#181818;stroke-width:0.6999999999999998;" x1="281.4" x2="457.45" y1="160.5844" y2="160.5844"/><text fill="#000000" font-family="sans-serif" font-size="9.1" font-weight="bold" lengthAdjust="spacing" textLength="4.9" x="286.3" y="156.9005">4</text><text fill="#000000" font-family="sans-serif" font-size="9.1" lengthAdjust="spacing" textLength="119.7" x="294" y="156.9005">getRegistedSkillsRepository()</text><polygon fill="#181818" points="289.1,179.6881,282.1,182.4881,289.1,185.2881,286.3,182.4881" style="stroke:#181818;stroke-width:0.6999999999999998;"/><line style="stroke:#181818;stroke-width:0.6999999999999998;stroke-dasharray:2.0,2.0;" x1="284.9" x2="464.45" y1="182.4881" y2="182.4881"/><text fill="#000000" font-family="sans-serif" font-size="9.1" font-weight="bold" lengthAdjust="spacing" textLength="4.9" x="293.3" y="178.8042">5</text><text fill="#000000" font-family="sans-serif" font-size="9.1" lengthAdjust="spacing" textLength="98" x="301" y="178.8042">registedSkillsRepository</text><polygon fill="#181818" points="553.7,201.5918,560.7,204.3918,553.7,207.1918,556.5,204.3918" style="stroke:#181818;stroke-width:0.6999999999999998;"/><line style="stroke:#181818;stroke-width:0.6999999999999998;" x1="281.4" x2="557.9" y1="204.3918" y2="204.3918"/><text fill="#000000" font-family="sans-serif" font-size="9.1" font-weight="bold" lengthAdjust="spacing" textLength="4.9" x="286.3" y="200.7079">6</text><text fill="#000000" font-family="sans-serif" font-size="9.1" lengthAdjust="spacing" textLength="76.3" x="294" y="200.7079">getRegistedSkills()</text><polygon fill="#181818" points="289.1,223.4955,282.1,226.2955,289.1,229.0955,286.3,226.2955" style="stroke:#181818;stroke-width:0.6999999999999998;"/><line style="stroke:#181818;stroke-width:0.6999999999999998;stroke-dasharray:2.0,2.0;" x1="284.9" x2="564.9" y1="226.2955" y2="226.2955"/><text fill="#000000" font-family="sans-serif" font-size="9.1" font-weight="bold" lengthAdjust="spacing" textLength="4.9" x="293.3" y="222.6116">7</text><text fill="#000000" font-family="sans-serif" font-size="9.1" lengthAdjust="spacing" textLength="69.3" x="301" y="222.6116">registedSkillsList</text><path d="M7,236.7955 L58.1,236.7955 L58.1,243.2992 L51.1,250.2992 L7,250.2992 L7,236.7955 " fill="#EEEEEE" style="stroke:#000000;stroke-width:1.0499999999999998;"/><rect fill="none" height="57.3111" style="stroke:#000000;stroke-width:1.0499999999999998;" width="349.3" x="7" y="236.7955"/><text fill="#000000" font-family="sans-serif" font-size="9.1" font-weight="bold" lengthAdjust="spacing" textLength="19.6" x="17.5" y="247.3153">loop</text><text fill="#000000" font-family="sans-serif" font-size="7.7" font-weight="bold" lengthAdjust="spacing" textLength="63" x="68.6" y="246.5046">[while intended]</text><polygon fill="#181818" points="67.9,263.8029,60.9,266.6029,67.9,269.4029,65.1,266.6029" style="stroke:#181818;stroke-width:0.6999999999999998;"/><line style="stroke:#181818;stroke-width:0.6999999999999998;stroke-dasharray:2.0,2.0;" x1="63.7" x2="277.2" y1="266.6029" y2="266.6029"/><text fill="#000000" font-family="sans-serif" font-size="9.1" font-weight="bold" lengthAdjust="spacing" textLength="4.9" x="72.1" y="262.919">8</text><text fill="#000000" font-family="sans-serif" font-size="9.1" lengthAdjust="spacing" textLength="94.5" x="79.8" y="262.919">requests the skill name</text><polygon fill="#181818" points="266,285.7066,273,288.5066,266,291.3066,268.8,288.5066" style="stroke:#181818;stroke-width:0.6999999999999998;"/><line style="stroke:#181818;stroke-width:0.6999999999999998;" x1="60.2" x2="270.2" y1="288.5066" y2="288.5066"/><text fill="#000000" font-family="sans-serif" font-size="9.1" font-weight="bold" lengthAdjust="spacing" textLength="4.9" x="65.1" y="284.8228">9</text><text fill="#000000" font-family="sans-serif" font-size="9.1" lengthAdjust="spacing" textLength="100.8" x="72.8" y="284.8228">types the new skill name</text><line style="stroke:#181818;stroke-width:0.6999999999999998;stroke-dasharray:2.0,2.0;" x1="281.4" x2="310.8" y1="315.3104" y2="315.3104"/><line style="stroke:#181818;stroke-width:0.6999999999999998;stroke-dasharray:2.0,2.0;" x1="310.8" x2="310.8" y1="315.3104" y2="324.4104"/><line style="stroke:#181818;stroke-width:0.6999999999999998;stroke-dasharray:2.0,2.0;" x1="282.1" x2="310.8" y1="324.4104" y2="324.4104"/><polygon fill="#181818" points="289.1,321.6104,282.1,324.4104,289.1,327.2104,286.3,324.4104" style="stroke:#181818;stroke-width:0.6999999999999998;"/><text fill="#000000" font-family="sans-serif" font-size="9.1" font-weight="bold" lengthAdjust="spacing" textLength="9.8" x="286.3" y="311.6265">10</text><text fill="#000000" font-family="sans-serif" font-size="9.1" lengthAdjust="spacing" textLength="38.5" x="298.9" y="311.6265">keepData</text><polygon fill="#181818" points="67.9,343.5141,60.9,346.3141,67.9,349.1141,65.1,346.3141" style="stroke:#181818;stroke-width:0.6999999999999998;"/><line style="stroke:#181818;stroke-width:0.6999999999999998;stroke-dasharray:2.0,2.0;" x1="63.7" x2="277.2" y1="346.3141" y2="346.3141"/><text fill="#000000" font-family="sans-serif" font-size="9.1" font-weight="bold" lengthAdjust="spacing" textLength="9.8" x="72.1" y="342.6302">11</text><text fill="#000000" font-family="sans-serif" font-size="9.1" lengthAdjust="spacing" textLength="184.8" x="84.7" y="342.6302">show all the skills registed and aks to confirm</text><polygon fill="#181818" points="266,365.4178,273,368.2178,266,371.0178,268.8,368.2178" style="stroke:#181818;stroke-width:0.6999999999999998;"/><line style="stroke:#181818;stroke-width:0.6999999999999998;" x1="60.2" x2="270.2" y1="368.2178" y2="368.2178"/><text fill="#000000" font-family="sans-serif" font-size="9.1" font-weight="bold" lengthAdjust="spacing" textLength="9.8" x="65.1" y="364.5339">12</text><text fill="#000000" font-family="sans-serif" font-size="9.1" lengthAdjust="spacing" textLength="128.8" x="77.7" y="364.5339">confirm the set of skills registed</text><polygon fill="#181818" points="67.9,387.3215,60.9,390.1215,67.9,392.9215,65.1,390.1215" style="stroke:#181818;stroke-width:0.6999999999999998;"/><line style="stroke:#181818;stroke-width:0.6999999999999998;stroke-dasharray:2.0,2.0;" x1="63.7" x2="277.2" y1="390.1215" y2="390.1215"/><text fill="#000000" font-family="sans-serif" font-size="9.1" font-weight="bold" lengthAdjust="spacing" textLength="9.8" x="72.1" y="386.4376">13</text><text fill="#000000" font-family="sans-serif" font-size="9.1" lengthAdjust="spacing" textLength="110.6" x="84.7" y="386.4376">displays operation success</text><!--SRC=[ZPGnRzim48Lt_Og3ftRmqDL3WQ8TOY010ZlPl5oeiqI88bKULSF_laVAOQIOAah0W2pUU_puU1HtsWxeiOVUMQTQxtg2u4UgECyCg3fiw1YkXi2J2cWRCo_W5cjtqRQ1Cngcga8Ld8VDmzYZXGEn6xqYFjadj6BaDu0C3uUdIkH1ApsW3R3P7QZH78wTDePVt4zd3BuvZsB5h_kaUTtVIGR7MYeqSQh8Bwv77Ic3iqk9dobEzjxW-V77osT5nA9w0ljOO7UoXvMf6qfvKk8P1MlityZ3jnIM_eE1KY8Lo907s7wNtS9EZ3g6u62Y00HB5-1ecKgpMA99B-8GeSWBKOXVGs5lMOvGqPUlMP5jIldbgZXAhji4kuDvjbbKq_-PJz0n_eboBRuITJgq1MRo-U1QEOa2uzBgFScolWHQ3dMj4vR9hgooVU-5vJuUvRcSyhzMCyuDS6crN6Lj0zcQwWL5tB6i5rimBlXx90xIW2rDJGSMUogjEk-_UV-6wq2JFZVkqcFk4FyBqZB_so5sHCCl37WtEQ5owow0OfvHEUS5QEKttIFbx5dxlbh1dwFVIYT72k3EdutBLt31LMiU35uPt43oBTDoNNXKyZNa4i9V]--></g></svg>