<?xml version="1.0" encoding="us-ascii" standalone="no"?><svg xmlns="http://www.w3.org/2000/svg" xmlns:xlink="http://www.w3.org/1999/xlink" contentStyleType="text/css" height="477.9px" preserveAspectRatio="none" style="width:575px;height:477px;background:#FFFFFF;" version="1.1" viewBox="0 0 575 477" width="575.1px" zoomAndPan="magnify"><defs/><g><!--class ApplicationSession--><g id="elem_ApplicationSession"><rect codeLine="6" fill="#F1F1F1" height="76.718" id="ApplicationSession" rx="2.25" ry="2.25" style="stroke:#181818;stroke-width:0.45;" width="135.9" x="408.15" y="247.5"/><ellipse cx="421.65" cy="261.9" fill="#ADD1B2" rx="9.9" ry="9.9" style="stroke:#181818;stroke-width:0.9;"/><path d="M424.1391,258.1875 Q424.2797,257.9906 424.4484,257.8922 Q424.6172,257.7938 424.8141,257.7938 Q425.1516,257.7938 425.3625,258.0328 Q425.5734,258.2578 425.5734,258.8063 L425.5734,260.1141 Q425.5734,260.6625 425.3625,260.9016 Q425.1516,261.1406 424.8141,261.1406 Q424.5047,261.1406 424.3219,260.9578 Q424.1391,260.7891 424.0406,260.325 Q423.9984,260.0016 423.8297,259.8328 Q423.5344,259.4953 422.9859,259.2984 Q422.4375,259.1016 421.875,259.1016 Q421.1859,259.1016 420.6094,259.3969 Q420.0469,259.6922 419.5969,260.3672 Q419.1609,261.0422 419.1609,261.9703 L419.1609,262.9547 Q419.1609,264.0656 419.9625,264.8109 Q420.7641,265.5422 422.1984,265.5422 Q423.0422,265.5422 423.6328,265.3172 Q423.9844,265.1766 424.3641,264.7828 Q424.6031,264.5438 424.7297,264.4734 Q424.8703,264.4031 425.0531,264.4031 Q425.3484,264.4031 425.5734,264.6422 Q425.8125,264.8672 425.8125,265.1766 Q425.8125,265.4859 425.5031,265.8516 Q425.0531,266.3719 424.3359,266.6672 Q423.3656,267.075 422.1984,267.075 Q420.8344,267.075 419.7516,266.5125 Q418.8656,266.0625 418.2469,265.1063 Q417.6281,264.1359 417.6281,262.9828 L417.6281,261.9422 Q417.6281,260.7469 418.1766,259.7203 Q418.7391,258.6797 419.7234,258.1313 Q420.7078,257.5688 421.8188,257.5688 Q422.4797,257.5688 423.0563,257.7234 Q423.6469,257.8641 424.1391,258.1875 Z " fill="#000000"/><text fill="#000000" font-family="sans-serif" font-size="12.6" lengthAdjust="spacing" textLength="107.1" x="434.25" y="267.1172">ApplicationSession</text><line style="stroke:#181818;stroke-width:0.45;" x1="409.05" x2="543.15" y1="276.3" y2="276.3"/><line style="stroke:#181818;stroke-width:0.45;" x1="409.05" x2="543.15" y1="283.5" y2="283.5"/><text fill="#000000" font-family="sans-serif" font-size="12.6" lengthAdjust="spacing" textLength="115.2" x="413.55" y="300.6967">+static getInstance()</text><text fill="#000000" font-family="sans-serif" font-size="12.6" lengthAdjust="spacing" textLength="122.4" x="413.55" y="317.4557">+getCurrentSession()</text></g><!--class UserSession--><g id="elem_UserSession"><rect codeLine="12" fill="#F1F1F1" height="59.959" id="UserSession" rx="2.25" ry="2.25" style="stroke:#181818;stroke-width:0.45;" width="101.7" x="461.25" y="403.2"/><ellipse cx="475.56" cy="417.6" fill="#ADD1B2" rx="9.9" ry="9.9" style="stroke:#181818;stroke-width:0.9;"/><path d="M478.0491,413.8875 Q478.1897,413.6906 478.3584,413.5922 Q478.5272,413.4938 478.7241,413.4938 Q479.0616,413.4938 479.2725,413.7328 Q479.4834,413.9578 479.4834,414.5063 L479.4834,415.8141 Q479.4834,416.3625 479.2725,416.6016 Q479.0616,416.8406 478.7241,416.8406 Q478.4147,416.8406 478.2319,416.6578 Q478.0491,416.4891 477.9506,416.025 Q477.9084,415.7016 477.7397,415.5328 Q477.4444,415.1953 476.8959,414.9984 Q476.3475,414.8016 475.785,414.8016 Q475.0959,414.8016 474.5194,415.0969 Q473.9569,415.3922 473.5069,416.0672 Q473.0709,416.7422 473.0709,417.6703 L473.0709,418.6547 Q473.0709,419.7656 473.8725,420.5109 Q474.6741,421.2422 476.1084,421.2422 Q476.9522,421.2422 477.5428,421.0172 Q477.8944,420.8766 478.2741,420.4828 Q478.5131,420.2438 478.6397,420.1734 Q478.7803,420.1031 478.9631,420.1031 Q479.2584,420.1031 479.4834,420.3422 Q479.7225,420.5672 479.7225,420.8766 Q479.7225,421.1859 479.4131,421.5516 Q478.9631,422.0719 478.2459,422.3672 Q477.2756,422.775 476.1084,422.775 Q474.7444,422.775 473.6616,422.2125 Q472.7756,421.7625 472.1569,420.8063 Q471.5381,419.8359 471.5381,418.6828 L471.5381,417.6422 Q471.5381,416.4469 472.0866,415.4203 Q472.6491,414.3797 473.6334,413.8313 Q474.6178,413.2688 475.7288,413.2688 Q476.3897,413.2688 476.9663,413.4234 Q477.5569,413.5641 478.0491,413.8875 Z " fill="#000000"/><text fill="#000000" font-family="sans-serif" font-size="12.6" lengthAdjust="spacing" textLength="71.1" x="488.34" y="422.8172">UserSession</text><line style="stroke:#181818;stroke-width:0.45;" x1="462.15" x2="562.05" y1="432" y2="432"/><line style="stroke:#181818;stroke-width:0.45;" x1="462.15" x2="562.05" y1="439.2" y2="439.2"/><text fill="#000000" font-family="sans-serif" font-size="12.6" lengthAdjust="spacing" textLength="90.9" x="466.65" y="456.3967">+getUserEmail()</text></g><!--class RegistSkill--><g id="elem_RegistSkill"><rect codeLine="17" fill="#F1F1F1" height="76.718" id="RegistSkill" rx="2.25" ry="2.25" style="stroke:#181818;stroke-width:0.45;" width="105.3" x="294.75" y="395.1"/><ellipse cx="316.35" cy="409.5" fill="#ADD1B2" rx="9.9" ry="9.9" style="stroke:#181818;stroke-width:0.9;"/><path d="M318.8391,405.7875 Q318.9797,405.5906 319.1484,405.4922 Q319.3172,405.3938 319.5141,405.3938 Q319.8516,405.3938 320.0625,405.6328 Q320.2734,405.8578 320.2734,406.4063 L320.2734,407.7141 Q320.2734,408.2625 320.0625,408.5016 Q319.8516,408.7406 319.5141,408.7406 Q319.2047,408.7406 319.0219,408.5578 Q318.8391,408.3891 318.7406,407.925 Q318.6984,407.6016 318.5297,407.4328 Q318.2344,407.0953 317.6859,406.8984 Q317.1375,406.7016 316.575,406.7016 Q315.8859,406.7016 315.3094,406.9969 Q314.7469,407.2922 314.2969,407.9672 Q313.8609,408.6422 313.8609,409.5703 L313.8609,410.5547 Q313.8609,411.6656 314.6625,412.4109 Q315.4641,413.1422 316.8984,413.1422 Q317.7422,413.1422 318.3328,412.9172 Q318.6844,412.7766 319.0641,412.3828 Q319.3031,412.1438 319.4297,412.0734 Q319.5703,412.0031 319.7531,412.0031 Q320.0484,412.0031 320.2734,412.2422 Q320.5125,412.4672 320.5125,412.7766 Q320.5125,413.0859 320.2031,413.4516 Q319.7531,413.9719 319.0359,414.2672 Q318.0656,414.675 316.8984,414.675 Q315.5344,414.675 314.4516,414.1125 Q313.5656,413.6625 312.9469,412.7063 Q312.3281,411.7359 312.3281,410.5828 L312.3281,409.5422 Q312.3281,408.3469 312.8766,407.3203 Q313.4391,406.2797 314.4234,405.7313 Q315.4078,405.1688 316.5188,405.1688 Q317.1797,405.1688 317.7563,405.3234 Q318.3469,405.4641 318.8391,405.7875 Z " fill="#000000"/><text fill="#000000" font-family="sans-serif" font-size="12.6" lengthAdjust="spacing" textLength="58.5" x="330.75" y="414.7172">RegistSkill</text><line style="stroke:#181818;stroke-width:0.45;" x1="295.65" x2="399.15" y1="423.9" y2="423.9"/><text fill="#000000" font-family="sans-serif" font-size="12.6" lengthAdjust="spacing" textLength="94.5" x="300.15" y="441.0967">-String skillName</text><line style="stroke:#181818;stroke-width:0.45;" x1="295.65" x2="399.15" y1="447.859" y2="447.859"/><text fill="#000000" font-family="sans-serif" font-size="12.6" lengthAdjust="spacing" textLength="74.7" x="300.15" y="465.0557">+RegistSkill()</text></g><!--class RegistedSkillsRepository--><g id="elem_RegistedSkillsRepository"><rect codeLine="22" fill="#F1F1F1" height="59.959" id="RegistedSkillsRepository" rx="2.25" ry="2.25" style="stroke:#181818;stroke-width:0.45;" width="169.2" x="143.1" y="255.6"/><ellipse cx="156.6" cy="270" fill="#ADD1B2" rx="9.9" ry="9.9" style="stroke:#181818;stroke-width:0.9;"/><path d="M159.0891,266.2875 Q159.2297,266.0906 159.3984,265.9922 Q159.5672,265.8938 159.7641,265.8938 Q160.1016,265.8938 160.3125,266.1328 Q160.5234,266.3578 160.5234,266.9063 L160.5234,268.2141 Q160.5234,268.7625 160.3125,269.0016 Q160.1016,269.2406 159.7641,269.2406 Q159.4547,269.2406 159.2719,269.0578 Q159.0891,268.8891 158.9906,268.425 Q158.9484,268.1016 158.7797,267.9328 Q158.4844,267.5953 157.9359,267.3984 Q157.3875,267.2016 156.825,267.2016 Q156.1359,267.2016 155.5594,267.4969 Q154.9969,267.7922 154.5469,268.4672 Q154.1109,269.1422 154.1109,270.0703 L154.1109,271.0547 Q154.1109,272.1656 154.9125,272.9109 Q155.7141,273.6422 157.1484,273.6422 Q157.9922,273.6422 158.5828,273.4172 Q158.9344,273.2766 159.3141,272.8828 Q159.5531,272.6438 159.6797,272.5734 Q159.8203,272.5031 160.0031,272.5031 Q160.2984,272.5031 160.5234,272.7422 Q160.7625,272.9672 160.7625,273.2766 Q160.7625,273.5859 160.4531,273.9516 Q160.0031,274.4719 159.2859,274.7672 Q158.3156,275.175 157.1484,275.175 Q155.7844,275.175 154.7016,274.6125 Q153.8156,274.1625 153.1969,273.2063 Q152.5781,272.2359 152.5781,271.0828 L152.5781,270.0422 Q152.5781,268.8469 153.1266,267.8203 Q153.6891,266.7797 154.6734,266.2313 Q155.6578,265.6688 156.7688,265.6688 Q157.4297,265.6688 158.0063,265.8234 Q158.5969,265.9641 159.0891,266.2875 Z " fill="#000000"/><text fill="#000000" font-family="sans-serif" font-size="12.6" lengthAdjust="spacing" textLength="140.4" x="169.2" y="275.2172">RegistedSkillsRepository</text><line style="stroke:#181818;stroke-width:0.45;" x1="144" x2="311.4" y1="284.4" y2="284.4"/><line style="stroke:#181818;stroke-width:0.45;" x1="144" x2="311.4" y1="291.6" y2="291.6"/><text fill="#000000" font-family="sans-serif" font-size="12.6" lengthAdjust="spacing" textLength="92.7" x="148.5" y="308.7967">+getRegistSkill()</text></g><!--class Repositories--><g id="elem_Repositories"><rect codeLine="26" fill="#F1F1F1" height="93.477" id="Repositories" rx="2.25" ry="2.25" style="stroke:#181818;stroke-width:0.45;" width="185.4" x="153.9" y="126.9"/><ellipse cx="207.225" cy="141.3" fill="#ADD1B2" rx="9.9" ry="9.9" style="stroke:#181818;stroke-width:0.9;"/><path d="M209.7141,137.5875 Q209.8547,137.3906 210.0234,137.2922 Q210.1922,137.1938 210.3891,137.1938 Q210.7266,137.1938 210.9375,137.4328 Q211.1484,137.6578 211.1484,138.2063 L211.1484,139.5141 Q211.1484,140.0625 210.9375,140.3016 Q210.7266,140.5406 210.3891,140.5406 Q210.0797,140.5406 209.8969,140.3578 Q209.7141,140.1891 209.6156,139.725 Q209.5734,139.4016 209.4047,139.2328 Q209.1094,138.8953 208.5609,138.6984 Q208.0125,138.5016 207.45,138.5016 Q206.7609,138.5016 206.1844,138.7969 Q205.6219,139.0922 205.1719,139.7672 Q204.7359,140.4422 204.7359,141.3703 L204.7359,142.3547 Q204.7359,143.4656 205.5375,144.2109 Q206.3391,144.9422 207.7734,144.9422 Q208.6172,144.9422 209.2078,144.7172 Q209.5594,144.5766 209.9391,144.1828 Q210.1781,143.9438 210.3047,143.8734 Q210.4453,143.8031 210.6281,143.8031 Q210.9234,143.8031 211.1484,144.0422 Q211.3875,144.2672 211.3875,144.5766 Q211.3875,144.8859 211.0781,145.2516 Q210.6281,145.7719 209.9109,146.0672 Q208.9406,146.475 207.7734,146.475 Q206.4094,146.475 205.3266,145.9125 Q204.4406,145.4625 203.8219,144.5063 Q203.2031,143.5359 203.2031,142.3828 L203.2031,141.3422 Q203.2031,140.1469 203.7516,139.1203 Q204.3141,138.0797 205.2984,137.5313 Q206.2828,136.9688 207.3938,136.9688 Q208.0547,136.9688 208.6313,137.1234 Q209.2219,137.2641 209.7141,137.5875 Z " fill="#000000"/><text fill="#000000" font-family="sans-serif" font-size="12.6" lengthAdjust="spacing" textLength="71.1" x="225.675" y="146.5172">Repositories</text><line style="stroke:#181818;stroke-width:0.45;" x1="154.8" x2="338.4" y1="155.7" y2="155.7"/><line style="stroke:#181818;stroke-width:0.45;" x1="154.8" x2="338.4" y1="162.9" y2="162.9"/><text fill="#000000" font-family="sans-serif" font-size="12.6" lengthAdjust="spacing" textLength="84.6" x="159.3" y="180.0967">-Repositories()</text><text fill="#000000" font-family="sans-serif" font-size="12.6" lengthAdjust="spacing" textLength="163.8" x="159.3" y="196.8557">+getInstance() : Repositories</text><text fill="#000000" font-family="sans-serif" font-size="12.6" lengthAdjust="spacing" textLength="174.6" x="159.3" y="213.6146">+getRegistedSkillsRepository()</text></g><!--class RegistSkillsController--><g id="elem_RegistSkillsController"><rect codeLine="32" fill="#F1F1F1" height="93.477" id="RegistSkillsController" rx="2.25" ry="2.25" style="stroke:#181818;stroke-width:0.45;" width="149.4" x="285.3" y="6.3"/><ellipse cx="298.8" cy="20.7" fill="#ADD1B2" rx="9.9" ry="9.9" style="stroke:#181818;stroke-width:0.9;"/><path d="M301.2891,16.9875 Q301.4297,16.7906 301.5984,16.6922 Q301.7672,16.5938 301.9641,16.5938 Q302.3016,16.5938 302.5125,16.8328 Q302.7234,17.0578 302.7234,17.6063 L302.7234,18.9141 Q302.7234,19.4625 302.5125,19.7016 Q302.3016,19.9406 301.9641,19.9406 Q301.6547,19.9406 301.4719,19.7578 Q301.2891,19.5891 301.1906,19.125 Q301.1484,18.8016 300.9797,18.6328 Q300.6844,18.2953 300.1359,18.0984 Q299.5875,17.9016 299.025,17.9016 Q298.3359,17.9016 297.7594,18.1969 Q297.1969,18.4922 296.7469,19.1672 Q296.3109,19.8422 296.3109,20.7703 L296.3109,21.7547 Q296.3109,22.8656 297.1125,23.6109 Q297.9141,24.3422 299.3484,24.3422 Q300.1922,24.3422 300.7828,24.1172 Q301.1344,23.9766 301.5141,23.5828 Q301.7531,23.3438 301.8797,23.2734 Q302.0203,23.2031 302.2031,23.2031 Q302.4984,23.2031 302.7234,23.4422 Q302.9625,23.6672 302.9625,23.9766 Q302.9625,24.2859 302.6531,24.6516 Q302.2031,25.1719 301.4859,25.4672 Q300.5156,25.875 299.3484,25.875 Q297.9844,25.875 296.9016,25.3125 Q296.0156,24.8625 295.3969,23.9063 Q294.7781,22.9359 294.7781,21.7828 L294.7781,20.7422 Q294.7781,19.5469 295.3266,18.5203 Q295.8891,17.4797 296.8734,16.9313 Q297.8578,16.3688 298.9688,16.3688 Q299.6297,16.3688 300.2063,16.5234 Q300.7969,16.6641 301.2891,16.9875 Z " fill="#000000"/><text fill="#000000" font-family="sans-serif" font-size="12.6" lengthAdjust="spacing" textLength="120.6" x="311.4" y="25.9172">RegistSkillsController</text><line style="stroke:#181818;stroke-width:0.45;" x1="286.2" x2="433.8" y1="35.1" y2="35.1"/><line style="stroke:#181818;stroke-width:0.45;" x1="286.2" x2="433.8" y1="42.3" y2="42.3"/><text fill="#000000" font-family="sans-serif" font-size="12.6" lengthAdjust="spacing" textLength="136.8" x="290.7" y="59.4967">+RegistSkillsController()</text><text fill="#000000" font-family="sans-serif" font-size="12.6" lengthAdjust="spacing" textLength="92.7" x="290.7" y="76.2557">+getRegistSkill()</text><text fill="#000000" font-family="sans-serif" font-size="12.6" lengthAdjust="spacing" textLength="127.8" x="290.7" y="93.0146">+RegistSkill(skillName)</text></g><!--class RegistSkillsUI--><g id="elem_RegistSkillsUI"><rect codeLine="38" fill="#F1F1F1" height="43.2" id="RegistSkillsUI" rx="2.25" ry="2.25" style="stroke:#181818;stroke-width:0.45;" width="104.4" x="149.4" y="31.5"/><ellipse cx="162.9" cy="45.9" fill="#ADD1B2" rx="9.9" ry="9.9" style="stroke:#181818;stroke-width:0.9;"/><path d="M165.3891,42.1875 Q165.5297,41.9906 165.6984,41.8922 Q165.8672,41.7938 166.0641,41.7938 Q166.4016,41.7938 166.6125,42.0328 Q166.8234,42.2578 166.8234,42.8063 L166.8234,44.1141 Q166.8234,44.6625 166.6125,44.9016 Q166.4016,45.1406 166.0641,45.1406 Q165.7547,45.1406 165.5719,44.9578 Q165.3891,44.7891 165.2906,44.325 Q165.2484,44.0016 165.0797,43.8328 Q164.7844,43.4953 164.2359,43.2984 Q163.6875,43.1016 163.125,43.1016 Q162.4359,43.1016 161.8594,43.3969 Q161.2969,43.6922 160.8469,44.3672 Q160.4109,45.0422 160.4109,45.9703 L160.4109,46.9547 Q160.4109,48.0656 161.2125,48.8109 Q162.0141,49.5422 163.4484,49.5422 Q164.2922,49.5422 164.8828,49.3172 Q165.2344,49.1766 165.6141,48.7828 Q165.8531,48.5438 165.9797,48.4734 Q166.1203,48.4031 166.3031,48.4031 Q166.5984,48.4031 166.8234,48.6422 Q167.0625,48.8672 167.0625,49.1766 Q167.0625,49.4859 166.7531,49.8516 Q166.3031,50.3719 165.5859,50.6672 Q164.6156,51.075 163.4484,51.075 Q162.0844,51.075 161.0016,50.5125 Q160.1156,50.0625 159.4969,49.1063 Q158.8781,48.1359 158.8781,46.9828 L158.8781,45.9422 Q158.8781,44.7469 159.4266,43.7203 Q159.9891,42.6797 160.9734,42.1313 Q161.9578,41.5688 163.0688,41.5688 Q163.7297,41.5688 164.3063,41.7234 Q164.8969,41.8641 165.3891,42.1875 Z " fill="#000000"/><text fill="#000000" font-family="sans-serif" font-size="12.6" lengthAdjust="spacing" textLength="75.6" x="175.5" y="51.1172">RegistSkillsUI</text><line style="stroke:#181818;stroke-width:0.45;" x1="150.3" x2="252.9" y1="60.3" y2="60.3"/><line style="stroke:#181818;stroke-width:0.45;" x1="150.3" x2="252.9" y1="67.5" y2="67.5"/></g><!--link RegistSkillsUI to RegistSkillsController--><g id="link_RegistSkillsUI_RegistSkillsController"><path codeLine="41" d="M253.809,53.1 C254.196,53.1 254.403,53.1 254.403,53.1 C254.403,53.1 265.248,53.1 279.711,53.1 " fill="none" id="RegistSkillsUI-to-RegistSkillsController" style="stroke:#181818;stroke-width:0.9;stroke-dasharray:7.0,7.0;"/><polygon fill="#181818" points="285.111,53.1,277.011,49.5,280.611,53.1,277.011,56.7,285.111,53.1" style="stroke:#181818;stroke-width:0.9;"/></g><!--link RegistSkillsController to Repositories--><g id="link_RegistSkillsController_Repositories"><path codeLine="43" d="M316.161,99.927 C307.809,108.684 302.788,113.9294 294.427,122.6954 " fill="none" id="RegistSkillsController-to-Repositories" style="stroke:#181818;stroke-width:0.9;stroke-dasharray:7.0,7.0;"/><polygon fill="#181818" points="290.7,126.603,298.8956,123.2263,293.8059,123.3467,293.6855,118.2569,290.7,126.603" style="stroke:#181818;stroke-width:0.9;"/><text fill="#000000" font-family="sans-serif" font-size="11.7" lengthAdjust="spacing" textLength="60.3" x="242.226" y="109.6905">repositories</text></g><!--link Repositories to RegistedSkillsRepository--><g id="link_Repositories_RegistedSkillsRepository"><path codeLine="45" d="M238.698,220.716 C236.673,232.515 235.4593,239.5673 233.6323,250.2503 " fill="none" id="Repositories-to-RegistedSkillsRepository" style="stroke:#181818;stroke-width:0.9;"/><polygon fill="#181818" points="232.722,255.573,237.6359,248.1958,233.4806,251.1374,230.539,246.9821,232.722,255.573" style="stroke:#181818;stroke-width:0.9;"/><text fill="#000000" font-family="sans-serif" font-size="11.7" lengthAdjust="spacing" textLength="6.3" x="226.7906" y="245.5106">1</text></g><!--link RegistSkillsController to RegistSkill--><g id="link_RegistSkillsController_RegistSkill"><path codeLine="47" d="M358.47,100.026 C355.95,175.77 351.1527,319.827 348.8307,389.568 " fill="none" id="RegistSkillsController-to-RegistSkill" style="stroke:#181818;stroke-width:0.9;stroke-dasharray:7.0,7.0;"/><polygon fill="#181818" points="348.651,394.965,352.5185,386.9893,348.8007,390.4675,345.3225,386.7497,348.651,394.965" style="stroke:#181818;stroke-width:0.9;"/></g><!--link RegistSkillsController to RegistedSkillsRepository--><g id="link_RegistSkillsController_RegistedSkillsRepository"><path codeLine="48" d="M284.931,91.908 C275.517,96.66 269.1,99.9 269.1,99.9 C269.1,99.9 5.4,126.9 5.4,126.9 C5.4,126.9 5.4,220.5 5.4,220.5 C5.4,220.5 75.0118,240.653 137.8408,258.833 " fill="none" id="RegistSkillsController-to-RegistedSkillsRepository" style="stroke:#181818;stroke-width:0.9;stroke-dasharray:7.0,7.0;"/><polygon fill="#181818" points="143.028,260.334,136.2478,254.6244,138.7053,259.0832,134.2466,261.5407,143.028,260.334" style="stroke:#181818;stroke-width:0.9;"/><text fill="#000000" font-family="sans-serif" font-size="11.7" lengthAdjust="spacing" textLength="130.5" x="6.3" y="178.6755">RegistedSkillsRepository</text></g><!--link ApplicationSession to UserSession--><g id="link_ApplicationSession_UserSession"><path codeLine="51" d="M485.37,324.198 C491.436,348.75 497.945,375.1153 503.552,397.8313 " fill="none" id="ApplicationSession-to-UserSession" style="stroke:#181818;stroke-width:0.9;"/><polygon fill="#181818" points="504.846,403.074,506.4,394.3473,503.7676,398.7051,499.4098,396.0727,504.846,403.074" style="stroke:#181818;stroke-width:0.9;"/><text fill="#000000" font-family="sans-serif" font-size="11.7" lengthAdjust="spacing" textLength="64.8" x="495.9" y="364.5255">userSession</text><text fill="#000000" font-family="sans-serif" font-size="11.7" lengthAdjust="spacing" textLength="6.3" x="496.4977" y="392.9922">1</text></g><!--link RegistSkillsController to ApplicationSession--><g id="link_RegistSkillsController_ApplicationSession"><path codeLine="53" d="M383.22,100.161 C404.919,143.316 434.5054,202.1489 454.7194,242.3339 " fill="none" id="RegistSkillsController-to-ApplicationSession" style="stroke:#181818;stroke-width:0.9;stroke-dasharray:7.0,7.0;"/><polygon fill="#181818" points="457.146,247.158,456.7221,238.3042,455.1238,243.138,450.29,241.5397,457.146,247.158" style="stroke:#181818;stroke-width:0.9;"/></g><!--link RegistSkillsController to UserSession--><g id="link_RegistSkillsController_UserSession"><path codeLine="54" d="M412.767,99.963 C429.489,114.516 443.7,126.9 443.7,126.9 C443.7,126.9 559.8,247.5 559.8,247.5 C559.8,247.5 568.8,351 568.8,351 C568.8,351 568.8,368.1 568.8,368.1 C568.8,368.1 556.6013,381.9399 541.6973,398.8599 " fill="none" id="RegistSkillsController-to-UserSession" style="stroke:#181818;stroke-width:0.9;stroke-dasharray:7.0,7.0;"/><polygon fill="#181818" points="538.128,402.912,546.1834,399.2133,541.1024,399.5352,540.7806,394.4542,538.128,402.912" style="stroke:#181818;stroke-width:0.9;"/></g><!--link RegistedSkillsRepository to RegistSkill--><g id="link_RegistedSkillsRepository_RegistSkill"><path codeLine="55" d="M246.222,316.053 C260.919,339.39 279,368.1 279,368.1 C279,368.1 288.63,377.1618 303.678,391.3188 " fill="none" id="RegistedSkillsRepository-to-RegistSkill" style="stroke:#181818;stroke-width:0.9;"/><polygon fill="#181818" points="307.611,395.019,304.1782,386.8467,304.3335,391.9355,299.2447,392.0908,307.611,395.019" style="stroke:#181818;stroke-width:0.9;"/><text fill="#000000" font-family="sans-serif" font-size="11.7" lengthAdjust="spacing" textLength="55.8" x="279.9" y="364.5255">RegistSkill</text><text fill="#000000" font-family="sans-serif" font-size="11.7" lengthAdjust="spacing" textLength="6.3" x="242.6601" y="335.4926">1</text><text fill="#000000" font-family="sans-serif" font-size="11.7" lengthAdjust="spacing" textLength="4.5" x="296.411" y="385.0198">*</text></g><!--SRC=[XLDDJyCm3BtdLrWxyQ4XkFOmQPfss8N3gls0a9aIBKkYE1CgYF-EMqf9rcNqqiRlsU_PTUYWhPT17i5BTP0Drh4r205LbBOnA6Waq9lSktTj6tYLXbB4Q8knzGZUcROx99WoacWPOz0lfuWRvMojFn0UXUWHM7flj99HCu14_1AV0lYv1ueSLj1Wt5Z-jWflRWU8OwjJ26ZZaCJ8rs_97M4uhyK9NNXzbDgat2qscc9zqCR03tSEDPlbBgaBFiiZ3YKIwhG2xdk0jkWTwUX22ubqCNKWQwHHFGsc_VxD0AgCT2upjL9ec5REnk2CmJ2QlGodFl9UfgCPnrOGtMrOZ96psCEYe9qp4yjzHZB0YhSscOh8mFa2Pa-puiygY-I-_gTTM8JgYgoOxZ_C1xF97dEDKxBLrsnSk51NsEbTAJRGcUbDtSso2rDben7V]--></g></svg>