<?xml version="1.0" encoding="us-ascii" standalone="no"?><svg xmlns="http://www.w3.org/2000/svg" xmlns:xlink="http://www.w3.org/1999/xlink" contentStyleType="text/css" height="568.8px" preserveAspectRatio="none" style="width:576px;height:568px;background:#FFFFFF;" version="1.1" viewBox="0 0 576 568" width="576.9px" zoomAndPan="magnify"><defs/><g><!--class RegisterSkillUI--><g id="elem_RegisterSkillUI"><rect codeLine="7" fill="#F1F1F1" height="43.2" id="RegisterSkillUI" rx="2.25" ry="2.25" style="stroke:#181818;stroke-width:0.45;" width="109.8" x="6.3" y="31.5"/><ellipse cx="19.8" cy="45.9" fill="#ADD1B2" rx="9.9" ry="9.9" style="stroke:#181818;stroke-width:0.9;"/><path d="M22.2891,42.1875 Q22.4297,41.9906 22.5984,41.8922 Q22.7672,41.7938 22.9641,41.7938 Q23.3016,41.7938 23.5125,42.0328 Q23.7234,42.2578 23.7234,42.8063 L23.7234,44.1141 Q23.7234,44.6625 23.5125,44.9016 Q23.3016,45.1406 22.9641,45.1406 Q22.6547,45.1406 22.4719,44.9578 Q22.2891,44.7891 22.1906,44.325 Q22.1484,44.0016 21.9797,43.8328 Q21.6844,43.4953 21.1359,43.2984 Q20.5875,43.1016 20.025,43.1016 Q19.3359,43.1016 18.7594,43.3969 Q18.1969,43.6922 17.7469,44.3672 Q17.3109,45.0422 17.3109,45.9703 L17.3109,46.9547 Q17.3109,48.0656 18.1125,48.8109 Q18.9141,49.5422 20.3484,49.5422 Q21.1922,49.5422 21.7828,49.3172 Q22.1344,49.1766 22.5141,48.7828 Q22.7531,48.5438 22.8797,48.4734 Q23.0203,48.4031 23.2031,48.4031 Q23.4984,48.4031 23.7234,48.6422 Q23.9625,48.8672 23.9625,49.1766 Q23.9625,49.4859 23.6531,49.8516 Q23.2031,50.3719 22.4859,50.6672 Q21.5156,51.075 20.3484,51.075 Q18.9844,51.075 17.9016,50.5125 Q17.0156,50.0625 16.3969,49.1063 Q15.7781,48.1359 15.7781,46.9828 L15.7781,45.9422 Q15.7781,44.7469 16.3266,43.7203 Q16.8891,42.6797 17.8734,42.1313 Q18.8578,41.5688 19.9688,41.5688 Q20.6297,41.5688 21.2063,41.7234 Q21.7969,41.8641 22.2891,42.1875 Z " fill="#000000"/><text fill="#000000" font-family="sans-serif" font-size="12.6" lengthAdjust="spacing" textLength="81" x="32.4" y="51.1172">RegisterSkillUI</text><line style="stroke:#181818;stroke-width:0.45;" x1="7.2" x2="115.2" y1="60.3" y2="60.3"/><line style="stroke:#181818;stroke-width:0.45;" x1="7.2" x2="115.2" y1="67.5" y2="67.5"/></g><!--class RegisterSkillController--><g id="elem_RegisterSkillController"><rect codeLine="10" fill="#F1F1F1" height="76.718" id="RegisterSkillController" rx="2.25" ry="2.25" style="stroke:#181818;stroke-width:0.45;" width="154.8" x="147.6" y="14.85"/><ellipse cx="161.1" cy="29.25" fill="#ADD1B2" rx="9.9" ry="9.9" style="stroke:#181818;stroke-width:0.9;"/><path d="M163.5891,25.5375 Q163.7297,25.3406 163.8984,25.2422 Q164.0672,25.1438 164.2641,25.1438 Q164.6016,25.1438 164.8125,25.3828 Q165.0234,25.6078 165.0234,26.1563 L165.0234,27.4641 Q165.0234,28.0125 164.8125,28.2516 Q164.6016,28.4906 164.2641,28.4906 Q163.9547,28.4906 163.7719,28.3078 Q163.5891,28.1391 163.4906,27.675 Q163.4484,27.3516 163.2797,27.1828 Q162.9844,26.8453 162.4359,26.6484 Q161.8875,26.4516 161.325,26.4516 Q160.6359,26.4516 160.0594,26.7469 Q159.4969,27.0422 159.0469,27.7172 Q158.6109,28.3922 158.6109,29.3203 L158.6109,30.3047 Q158.6109,31.4156 159.4125,32.1609 Q160.2141,32.8922 161.6484,32.8922 Q162.4922,32.8922 163.0828,32.6672 Q163.4344,32.5266 163.8141,32.1328 Q164.0531,31.8938 164.1797,31.8234 Q164.3203,31.7531 164.5031,31.7531 Q164.7984,31.7531 165.0234,31.9922 Q165.2625,32.2172 165.2625,32.5266 Q165.2625,32.8359 164.9531,33.2016 Q164.5031,33.7219 163.7859,34.0172 Q162.8156,34.425 161.6484,34.425 Q160.2844,34.425 159.2016,33.8625 Q158.3156,33.4125 157.6969,32.4563 Q157.0781,31.4859 157.0781,30.3328 L157.0781,29.2922 Q157.0781,28.0969 157.6266,27.0703 Q158.1891,26.0297 159.1734,25.4813 Q160.1578,24.9188 161.2688,24.9188 Q161.9297,24.9188 162.5063,25.0734 Q163.0969,25.2141 163.5891,25.5375 Z " fill="#000000"/><text fill="#000000" font-family="sans-serif" font-size="12.6" lengthAdjust="spacing" textLength="126" x="173.7" y="34.4672">RegisterSkillController</text><line style="stroke:#181818;stroke-width:0.45;" x1="148.5" x2="301.5" y1="43.65" y2="43.65"/><line style="stroke:#181818;stroke-width:0.45;" x1="148.5" x2="301.5" y1="50.85" y2="50.85"/><text fill="#000000" font-family="sans-serif" font-size="12.6" lengthAdjust="spacing" textLength="142.2" x="153" y="68.0467">+RegisterSkillController()</text><text fill="#000000" font-family="sans-serif" font-size="12.6" lengthAdjust="spacing" textLength="82.8" x="153" y="84.8057">+getSkillsList()</text></g><!--class Skill--><g id="elem_Skill"><rect codeLine="21" fill="#F1F1F1" height="177.2719" id="Skill" rx="2.25" ry="2.25" style="stroke:#181818;stroke-width:0.45;" width="125.1" x="180.45" y="386.1"/><ellipse cx="227.925" cy="400.5" fill="#ADD1B2" rx="9.9" ry="9.9" style="stroke:#181818;stroke-width:0.9;"/><path d="M230.4141,396.7875 Q230.5547,396.5906 230.7234,396.4922 Q230.8922,396.3938 231.0891,396.3938 Q231.4266,396.3938 231.6375,396.6328 Q231.8484,396.8578 231.8484,397.4063 L231.8484,398.7141 Q231.8484,399.2625 231.6375,399.5016 Q231.4266,399.7406 231.0891,399.7406 Q230.7797,399.7406 230.5969,399.5578 Q230.4141,399.3891 230.3156,398.925 Q230.2734,398.6016 230.1047,398.4328 Q229.8094,398.0953 229.2609,397.8984 Q228.7125,397.7016 228.15,397.7016 Q227.4609,397.7016 226.8844,397.9969 Q226.3219,398.2922 225.8719,398.9672 Q225.4359,399.6422 225.4359,400.5703 L225.4359,401.5547 Q225.4359,402.6656 226.2375,403.4109 Q227.0391,404.1422 228.4734,404.1422 Q229.3172,404.1422 229.9078,403.9172 Q230.2594,403.7766 230.6391,403.3828 Q230.8781,403.1438 231.0047,403.0734 Q231.1453,403.0031 231.3281,403.0031 Q231.6234,403.0031 231.8484,403.2422 Q232.0875,403.4672 232.0875,403.7766 Q232.0875,404.0859 231.7781,404.4516 Q231.3281,404.9719 230.6109,405.2672 Q229.6406,405.675 228.4734,405.675 Q227.1094,405.675 226.0266,405.1125 Q225.1406,404.6625 224.5219,403.7063 Q223.9031,402.7359 223.9031,401.5828 L223.9031,400.5422 Q223.9031,399.3469 224.4516,398.3203 Q225.0141,397.2797 225.9984,396.7313 Q226.9828,396.1688 228.0938,396.1688 Q228.7547,396.1688 229.3313,396.3234 Q229.9219,396.4641 230.4141,396.7875 Z " fill="#000000"/><text fill="#000000" font-family="sans-serif" font-size="12.6" lengthAdjust="spacing" textLength="22.5" x="246.375" y="405.7172">Skill</text><line style="stroke:#181818;stroke-width:0.45;" x1="181.35" x2="304.65" y1="414.9" y2="414.9"/><text fill="#000000" font-family="sans-serif" font-size="12.6" lengthAdjust="spacing" textLength="72.9" x="185.85" y="432.0967">-String name</text><line style="stroke:#181818;stroke-width:0.45;" x1="181.35" x2="304.65" y1="438.859" y2="438.859"/><text fill="#000000" font-family="sans-serif" font-size="12.6" lengthAdjust="spacing" textLength="70.2" x="185.85" y="456.0557">+Skill(name)</text><text fill="#000000" font-family="sans-serif" font-size="12.6" lengthAdjust="spacing" textLength="66.6" x="185.85" y="472.8146">+getName()</text><text fill="#000000" font-family="sans-serif" font-size="12.6" lengthAdjust="spacing" textLength="65.7" x="185.85" y="489.5736">+setName()</text><text fill="#000000" font-family="sans-serif" font-size="12.6" lengthAdjust="spacing" textLength="54" x="185.85" y="506.3326">+equals()</text><text fill="#000000" font-family="sans-serif" font-size="12.6" lengthAdjust="spacing" textLength="60.3" x="185.85" y="523.0916">+toString()</text><text fill="#000000" font-family="sans-serif" font-size="12.6" lengthAdjust="spacing" textLength="46.8" x="185.85" y="539.8506">+clone()</text><text fill="#000000" font-family="sans-serif" font-size="12.6" lengthAdjust="spacing" textLength="114.3" x="185.85" y="556.6096">+validateSkill(name)</text></g><!--class SkillsRepository--><g id="elem_SkillsRepository"><rect codeLine="40" fill="#F1F1F1" height="160.5129" id="SkillsRepository" rx="2.25" ry="2.25" style="stroke:#181818;stroke-width:0.45;" width="157.5" x="281.25" y="171"/><ellipse cx="312.165" cy="185.4" fill="#ADD1B2" rx="9.9" ry="9.9" style="stroke:#181818;stroke-width:0.9;"/><path d="M314.6541,181.6875 Q314.7947,181.4906 314.9634,181.3922 Q315.1322,181.2938 315.3291,181.2938 Q315.6666,181.2938 315.8775,181.5328 Q316.0884,181.7578 316.0884,182.3063 L316.0884,183.6141 Q316.0884,184.1625 315.8775,184.4016 Q315.6666,184.6406 315.3291,184.6406 Q315.0197,184.6406 314.8369,184.4578 Q314.6541,184.2891 314.5556,183.825 Q314.5134,183.5016 314.3447,183.3328 Q314.0494,182.9953 313.5009,182.7984 Q312.9525,182.6016 312.39,182.6016 Q311.7009,182.6016 311.1244,182.8969 Q310.5619,183.1922 310.1119,183.8672 Q309.6759,184.5422 309.6759,185.4703 L309.6759,186.4547 Q309.6759,187.5656 310.4775,188.3109 Q311.2791,189.0422 312.7134,189.0422 Q313.5572,189.0422 314.1478,188.8172 Q314.4994,188.6766 314.8791,188.2828 Q315.1181,188.0438 315.2447,187.9734 Q315.3853,187.9031 315.5681,187.9031 Q315.8634,187.9031 316.0884,188.1422 Q316.3275,188.3672 316.3275,188.6766 Q316.3275,188.9859 316.0181,189.3516 Q315.5681,189.8719 314.8509,190.1672 Q313.8806,190.575 312.7134,190.575 Q311.3494,190.575 310.2666,190.0125 Q309.3806,189.5625 308.7619,188.6063 Q308.1431,187.6359 308.1431,186.4828 L308.1431,185.4422 Q308.1431,184.2469 308.6916,183.2203 Q309.2541,182.1797 310.2384,181.6313 Q311.2228,181.0688 312.3338,181.0688 Q312.9947,181.0688 313.5713,181.2234 Q314.1619,181.3641 314.6541,181.6875 Z " fill="#000000"/><text fill="#000000" font-family="sans-serif" font-size="12.6" lengthAdjust="spacing" textLength="90" x="328.635" y="190.6172">SkillsRepository</text><line style="stroke:#181818;stroke-width:0.45;" x1="282.15" x2="437.85" y1="199.8" y2="199.8"/><text fill="#000000" font-family="sans-serif" font-size="12.6" lengthAdjust="spacing" textLength="111.6" x="286.65" y="216.9967">-List&lt;Skill&gt; skillsList</text><line style="stroke:#181818;stroke-width:0.45;" x1="282.15" x2="437.85" y1="223.759" y2="223.759"/><text fill="#000000" font-family="sans-serif" font-size="12.6" lengthAdjust="spacing" textLength="106.2" x="286.65" y="240.9557">+SkillsRepository()</text><text fill="#000000" font-family="sans-serif" font-size="12.6" lengthAdjust="spacing" textLength="146.7" x="286.65" y="257.7146">+Optional&lt;Skill&gt; add(skill)</text><text fill="#000000" font-family="sans-serif" font-size="12.6" lengthAdjust="spacing" textLength="91.8" x="286.65" y="274.4736">+addSkill(name)</text><text fill="#000000" font-family="sans-serif" font-size="12.6" lengthAdjust="spacing" textLength="114.3" x="286.65" y="291.2326">+validateSkill(name)</text><text fill="#000000" font-family="sans-serif" font-size="12.6" lengthAdjust="spacing" textLength="100.8" x="286.65" y="307.9916">-validateSkill(skill)</text><text fill="#000000" font-family="sans-serif" font-size="12.6" lengthAdjust="spacing" textLength="82.8" x="286.65" y="324.7506">+getSkillsList()</text></g><!--class Repositories--><g id="elem_Repositories"><rect codeLine="50" fill="#F1F1F1" height="93.477" id="Repositories" rx="2.25" ry="2.25" style="stroke:#181818;stroke-width:0.45;" width="174.6" x="396" y="6.3"/><ellipse cx="443.925" cy="20.7" fill="#ADD1B2" rx="9.9" ry="9.9" style="stroke:#181818;stroke-width:0.9;"/><path d="M446.4141,16.9875 Q446.5547,16.7906 446.7234,16.6922 Q446.8922,16.5938 447.0891,16.5938 Q447.4266,16.5938 447.6375,16.8328 Q447.8484,17.0578 447.8484,17.6063 L447.8484,18.9141 Q447.8484,19.4625 447.6375,19.7016 Q447.4266,19.9406 447.0891,19.9406 Q446.7797,19.9406 446.5969,19.7578 Q446.4141,19.5891 446.3156,19.125 Q446.2734,18.8016 446.1047,18.6328 Q445.8094,18.2953 445.2609,18.0984 Q444.7125,17.9016 444.15,17.9016 Q443.4609,17.9016 442.8844,18.1969 Q442.3219,18.4922 441.8719,19.1672 Q441.4359,19.8422 441.4359,20.7703 L441.4359,21.7547 Q441.4359,22.8656 442.2375,23.6109 Q443.0391,24.3422 444.4734,24.3422 Q445.3172,24.3422 445.9078,24.1172 Q446.2594,23.9766 446.6391,23.5828 Q446.8781,23.3438 447.0047,23.2734 Q447.1453,23.2031 447.3281,23.2031 Q447.6234,23.2031 447.8484,23.4422 Q448.0875,23.6672 448.0875,23.9766 Q448.0875,24.2859 447.7781,24.6516 Q447.3281,25.1719 446.6109,25.4672 Q445.6406,25.875 444.4734,25.875 Q443.1094,25.875 442.0266,25.3125 Q441.1406,24.8625 440.5219,23.9063 Q439.9031,22.9359 439.9031,21.7828 L439.9031,20.7422 Q439.9031,19.5469 440.4516,18.5203 Q441.0141,17.4797 441.9984,16.9313 Q442.9828,16.3688 444.0938,16.3688 Q444.7547,16.3688 445.3313,16.5234 Q445.9219,16.6641 446.4141,16.9875 Z " fill="#000000"/><text fill="#000000" font-family="sans-serif" font-size="12.6" lengthAdjust="spacing" textLength="71.1" x="462.375" y="25.9172">Repositories</text><line style="stroke:#181818;stroke-width:0.45;" x1="396.9" x2="569.7" y1="35.1" y2="35.1"/><line style="stroke:#181818;stroke-width:0.45;" x1="396.9" x2="569.7" y1="42.3" y2="42.3"/><text fill="#000000" font-family="sans-serif" font-size="12.6" lengthAdjust="spacing" textLength="84.6" x="401.4" y="59.4967">-Repositories()</text><text fill="#000000" font-family="sans-serif" font-size="12.6" lengthAdjust="spacing" textLength="163.8" x="401.4" y="76.2557">+getInstance() : Repositories</text><text fill="#000000" font-family="sans-serif" font-size="12.6" lengthAdjust="spacing" textLength="124.2" x="401.4" y="93.0146">+getSkillsRepository()</text></g><!--link RegisterSkillUI to RegisterSkillController--><g id="link_RegisterSkillUI_RegisterSkillController"><path codeLine="57" d="M116.145,53.1 C118.62,53.1 128.376,53.1 142.038,53.1 " fill="none" id="RegisterSkillUI-to-RegisterSkillController" style="stroke:#181818;stroke-width:0.9;stroke-dasharray:7.0,7.0;"/><polygon fill="#181818" points="147.438,53.1,139.338,49.5,142.938,53.1,139.338,56.7,147.438,53.1" style="stroke:#181818;stroke-width:0.9;"/></g><!--link RegisterSkillController to Repositories--><g id="link_RegisterSkillController_Repositories"><path codeLine="59" d="M302.499,53.1 C331.92,53.1 360.225,53.1 390.501,53.1 " fill="none" id="RegisterSkillController-to-Repositories" style="stroke:#181818;stroke-width:0.9;stroke-dasharray:7.0,7.0;"/><polygon fill="#181818" points="395.901,53.1,387.801,49.5,391.401,53.1,387.801,56.7,395.901,53.1" style="stroke:#181818;stroke-width:0.9;"/><text fill="#000000" font-family="sans-serif" font-size="11.7" lengthAdjust="spacing" textLength="60.3" x="319.05" y="46.8255">repositories</text></g><!--link Repositories to SkillsRepository--><g id="link_Repositories_SkillsRepository"><path codeLine="61" d="M454.392,99.999 C441.153,121.068 427.9528,142.0742 412.8418,166.1132 " fill="none" id="Repositories-to-SkillsRepository" style="stroke:#181818;stroke-width:0.9;"/><polygon fill="#181818" points="409.968,170.685,417.3266,165.7432,412.3629,166.8752,411.2309,161.9115,409.968,170.685" style="stroke:#181818;stroke-width:0.9;"/><text fill="#000000" font-family="sans-serif" font-size="11.7" lengthAdjust="spacing" textLength="6.3" x="407.3988" y="160.9908">1</text></g><!--link RegisterSkillController to Skill--><g id="link_RegisterSkillController_Skill"><path codeLine="63" d="M226.611,91.629 C229.437,157.446 235.1102,289.7059 238.9982,380.5879 " fill="none" id="RegisterSkillController-to-Skill" style="stroke:#181818;stroke-width:0.9;stroke-dasharray:7.0,7.0;"/><polygon fill="#181818" points="239.229,385.983,242.4795,377.7365,239.0367,381.4871,235.2861,378.0443,239.229,385.983" style="stroke:#181818;stroke-width:0.9;"/><text fill="#000000" font-family="sans-serif" font-size="11.7" lengthAdjust="spacing" textLength="22.5" x="237.6" y="256.0755">Skill</text></g><!--link RegisterSkillController to SkillsRepository--><g id="link_RegisterSkillController_SkillsRepository"><path codeLine="64" d="M250.713,91.368 C266.166,113.823 283.3729,138.8404 302.2549,166.2814 " fill="none" id="RegisterSkillController-to-SkillsRepository" style="stroke:#181818;stroke-width:0.9;stroke-dasharray:7.0,7.0;"/><polygon fill="#181818" points="305.316,170.73,303.6902,162.0164,302.7651,167.0228,297.7587,166.0978,305.316,170.73" style="stroke:#181818;stroke-width:0.9;"/><text fill="#000000" font-family="sans-serif" font-size="11.7" lengthAdjust="spacing" textLength="84.6" x="286.2" y="140.4255">SkillsRepository</text></g><!--link SkillsRepository to Skill--><g id="link_SkillsRepository_Skill"><path codeLine="66" d="M318.087,331.47 C308.781,349.119 301.3727,363.1614 291.8957,381.1344 " fill="none" id="SkillsRepository-to-Skill" style="stroke:#181818;stroke-width:0.9;"/><polygon fill="#181818" points="289.377,385.911,296.3394,380.4252,291.4759,381.9305,289.9706,377.0669,289.377,385.911" style="stroke:#181818;stroke-width:0.9;"/><text fill="#000000" font-family="sans-serif" font-size="11.7" lengthAdjust="spacing" textLength="6.3" x="308.0552" y="351.3825">1</text><text fill="#000000" font-family="sans-serif" font-size="11.7" lengthAdjust="spacing" textLength="4.5" x="288.2555" y="375.8602">*</text></g><!--SRC=[bLDDJyCm3BtdLqHSjZ4DmRL2an2dIGYaLVo0q9eIBKjAae4Auh_Z9cr8-W5Ybyf-py_FdcCENDPCioEjMN5W5UIs4K0r59R9IW0nWM1UMAdUkQpeCnCcHWINO9iQQAr4qmOHLWXcp8srcZ-TBEmA9NF-0VII4E8WkeUA6miwFt0X7dVqatnDGhTAMgs408qKYh_r7BvSTNW5ra7c3ccOHU65LtPfr5cqn0tDqHxE9TaHV6hj6Sisi-fJRqpmabb8e62sbnmhZWM3lNiCWrqpYE7rX8iEeLLUD2GAeUGFUyeTcaicDdkebU5MwQOVVhobBitAyXyx8BDT_3vQxMk7Rga9tUBLH5LXfeVQSYMPw2lHqz9LzuI1oNcFtaMA94eJjz8VOMUBWmdZnCdut7RIuBify5-XMK8QTac6RVStV0ONsxdp7d2ZT-5g8hSPlkF80ad0pMPBpwxEHil_HHxr_PLd_litCpw5RABLYDGwSixEEsU4V0C0]--></g></svg>