<?xml version="1.0" encoding="us-ascii" standalone="no"?><svg xmlns="http://www.w3.org/2000/svg" xmlns:xlink="http://www.w3.org/1999/xlink" contentStyleType="text/css" height="907px" preserveAspectRatio="none" style="width:1081px;height:907px;background:#FFFFFF;" version="1.1" viewBox="0 0 1081 907" width="1081px" zoomAndPan="magnify"><defs/><g><rect fill="#FFFFFF" height="684.1016" style="stroke:#181818;stroke-width:1.0;" width="10" x="76" y="112.2422"/><rect fill="#FFFFFF" height="226.3672" style="stroke:#181818;stroke-width:1.0;" width="10" x="307" y="135.5332"/><rect fill="#FFFFFF" height="331.5703" style="stroke:#181818;stroke-width:1.0;" width="10" x="307" y="393.1914"/><rect fill="#FFFFFF" height="31.291" style="stroke:#181818;stroke-width:1.0;" width="10" x="307" y="756.0527"/><rect fill="#FFFFFF" height="127.4941" style="stroke:#181818;stroke-width:1.0;" width="10" x="459" y="176.8242"/><rect fill="#FFFFFF" height="251.6973" style="stroke:#181818;stroke-width:1.0;" width="10" x="459" y="424.4824"/><rect fill="#FFFFFF" height="31.291" style="stroke:#181818;stroke-width:1.0;" width="10" x="593.5" y="210.4453"/><rect fill="#FFFFFF" height="31.291" style="stroke:#181818;stroke-width:1.0;" width="10" x="700.5" y="273.0273"/><rect fill="#FFFFFF" height="189.1152" style="stroke:#181818;stroke-width:1.0;" width="10" x="844" y="455.7734"/><rect fill="#FFFFFF" height="58.2422" style="stroke:#181818;stroke-width:1.0;" width="10" x="1019" y="497.0645"/><rect fill="none" height="295.2793" style="stroke:#000000;stroke-width:1.5;" width="1065.5" x="10" y="319.3184"/><line style="stroke:#181818;stroke-width:0.5;stroke-dasharray:5.0,5.0;" x1="81" x2="81" y1="102.2422" y2="805.3438"/><line style="stroke:#181818;stroke-width:0.5;stroke-dasharray:5.0,5.0;" x1="312" x2="312" y1="102.2422" y2="805.3438"/><line style="stroke:#181818;stroke-width:0.5;stroke-dasharray:5.0,5.0;" x1="464" x2="464" y1="175.3438" y2="805.3438"/><line style="stroke:#181818;stroke-width:0.5;stroke-dasharray:5.0,5.0;" x1="598" x2="598" y1="102.2422" y2="805.3438"/><line style="stroke:#181818;stroke-width:0.5;stroke-dasharray:5.0,5.0;" x1="705" x2="705" y1="102.2422" y2="805.3438"/><line style="stroke:#181818;stroke-width:0.5;stroke-dasharray:5.0,5.0;" x1="849" x2="849" y1="102.2422" y2="805.3438"/><line style="stroke:#181818;stroke-width:0.5;stroke-dasharray:5.0,5.0;" x1="1023.5" x2="1023.5" y1="504.8945" y2="805.3438"/><text fill="#000000" font-family="sans-serif" font-size="14" lengthAdjust="spacing" textLength="116" x="20" y="80.1074">Human Resources</text><text fill="#000000" font-family="sans-serif" font-size="14" lengthAdjust="spacing" textLength="56" x="50" y="98.7285">Manager</text><ellipse cx="81" cy="13.5" fill="#E3E3E3" rx="8" ry="8" style="stroke:#181818;stroke-width:0.5;"/><path d="M81,21.5 L81,48.5 M68,29.5 L94,29.5 M81,48.5 L68,63.5 M81,48.5 L94,63.5 " fill="none" style="stroke:#181818;stroke-width:0.5;"/><text fill="#000000" font-family="sans-serif" font-size="14" lengthAdjust="spacing" textLength="116" x="20" y="819.4512">Human Resources</text><text fill="#000000" font-family="sans-serif" font-size="14" lengthAdjust="spacing" textLength="56" x="50" y="838.0723">Manager</text><ellipse cx="81" cy="850.0859" fill="#E3E3E3" rx="8" ry="8" style="stroke:#181818;stroke-width:0.5;"/><path d="M81,858.0859 L81,885.0859 M68,866.0859 L94,866.0859 M81,885.0859 L68,900.0859 M81,885.0859 L94,900.0859 " fill="none" style="stroke:#181818;stroke-width:0.5;"/><rect fill="#E3E3E3" height="32.6211" rx="2.5" ry="2.5" style="stroke:#181818;stroke-width:0.5;" width="102" x="261" y="68.6211"/><text fill="#000000" font-family="sans-serif" font-size="14" lengthAdjust="spacing" textLength="88" x="268" y="90.7285">:RegistSkillsUI</text><rect fill="#E3E3E3" height="32.6211" rx="2.5" ry="2.5" style="stroke:#181818;stroke-width:0.5;" width="102" x="261" y="804.3438"/><text fill="#000000" font-family="sans-serif" font-size="14" lengthAdjust="spacing" textLength="88" x="268" y="826.4512">:RegistSkillsUI</text><rect fill="#E3E3E3" height="32.6211" rx="2.5" ry="2.5" style="stroke:#181818;stroke-width:0.5;" width="152" x="388" y="804.3438"/><text fill="#000000" font-family="sans-serif" font-size="14" lengthAdjust="spacing" textLength="138" x="395" y="826.4512">:RegistSkillsController</text><rect fill="#E3E3E3" height="32.6211" rx="2.5" ry="2.5" style="stroke:#181818;stroke-width:0.5;" width="97" x="550" y="68.6211"/><text fill="#000000" font-family="sans-serif" font-size="14" lengthAdjust="spacing" textLength="83" x="557" y="90.7285">:Repositories</text><rect fill="#E3E3E3" height="32.6211" rx="2.5" ry="2.5" style="stroke:#181818;stroke-width:0.5;" width="97" x="550" y="804.3438"/><text fill="#000000" font-family="sans-serif" font-size="14" lengthAdjust="spacing" textLength="83" x="557" y="826.4512">:Repositories</text><rect fill="#E3E3E3" height="51.2422" rx="2.5" ry="2.5" style="stroke:#181818;stroke-width:0.5;" width="97" x="657" y="50"/><text fill="#000000" font-family="sans-serif" font-size="14" lengthAdjust="spacing" textLength="74" x="668.5" y="72.1074">repositories</text><text fill="#000000" font-family="sans-serif" font-size="14" lengthAdjust="spacing" textLength="83" x="664" y="90.7285">:Repositories</text><rect fill="#E3E3E3" height="51.2422" rx="2.5" ry="2.5" style="stroke:#181818;stroke-width:0.5;" width="97" x="657" y="804.3438"/><text fill="#000000" font-family="sans-serif" font-size="14" lengthAdjust="spacing" textLength="74" x="668.5" y="826.4512">repositories</text><text fill="#000000" font-family="sans-serif" font-size="14" lengthAdjust="spacing" textLength="83" x="664" y="845.0723">:Repositories</text><rect fill="#E3E3E3" height="51.2422" rx="2.5" ry="2.5" style="stroke:#181818;stroke-width:0.5;" width="170" x="764" y="50"/><text fill="#000000" font-family="sans-serif" font-size="14" lengthAdjust="spacing" textLength="155" x="771.5" y="72.1074">registedSkillsRepository:</text><text fill="#000000" font-family="sans-serif" font-size="14" lengthAdjust="spacing" textLength="156" x="771" y="90.7285">RegistedSkillsRepository</text><rect fill="#E3E3E3" height="51.2422" rx="2.5" ry="2.5" style="stroke:#181818;stroke-width:0.5;" width="170" x="764" y="804.3438"/><text fill="#000000" font-family="sans-serif" font-size="14" lengthAdjust="spacing" textLength="155" x="771.5" y="826.4512">registedSkillsRepository:</text><text fill="#000000" font-family="sans-serif" font-size="14" lengthAdjust="spacing" textLength="156" x="771" y="845.0723">RegistedSkillsRepository</text><rect fill="#E3E3E3" height="51.2422" rx="2.5" ry="2.5" style="stroke:#181818;stroke-width:0.5;" width="83" x="982.5" y="804.3438"/><text fill="#000000" font-family="sans-serif" font-size="14" lengthAdjust="spacing" textLength="59" x="994.5" y="826.4512">skillName</text><text fill="#000000" font-family="sans-serif" font-size="14" lengthAdjust="spacing" textLength="69" x="989.5" y="845.0723">:RegistSkill</text><rect fill="#FFFFFF" height="684.1016" style="stroke:#181818;stroke-width:1.0;" width="10" x="76" y="112.2422"/><rect fill="#FFFFFF" height="226.3672" style="stroke:#181818;stroke-width:1.0;" width="10" x="307" y="135.5332"/><rect fill="#FFFFFF" height="331.5703" style="stroke:#181818;stroke-width:1.0;" width="10" x="307" y="393.1914"/><rect fill="#FFFFFF" height="31.291" style="stroke:#181818;stroke-width:1.0;" width="10" x="307" y="756.0527"/><rect fill="#FFFFFF" height="127.4941" style="stroke:#181818;stroke-width:1.0;" width="10" x="459" y="176.8242"/><rect fill="#FFFFFF" height="251.6973" style="stroke:#181818;stroke-width:1.0;" width="10" x="459" y="424.4824"/><rect fill="#FFFFFF" height="31.291" style="stroke:#181818;stroke-width:1.0;" width="10" x="593.5" y="210.4453"/><rect fill="#FFFFFF" height="31.291" style="stroke:#181818;stroke-width:1.0;" width="10" x="700.5" y="273.0273"/><rect fill="#FFFFFF" height="189.1152" style="stroke:#181818;stroke-width:1.0;" width="10" x="844" y="455.7734"/><rect fill="#FFFFFF" height="58.2422" style="stroke:#181818;stroke-width:1.0;" width="10" x="1019" y="497.0645"/><polygon fill="#181818" points="295,131.5332,305,135.5332,295,139.5332,299,135.5332" style="stroke:#181818;stroke-width:1.0;"/><line style="stroke:#181818;stroke-width:1.0;" x1="86" x2="301" y1="135.5332" y2="135.5332"/><text fill="#000000" font-family="sans-serif" font-size="13" font-weight="bold" lengthAdjust="spacing" textLength="7" x="93" y="130.2705">1</text><text fill="#000000" font-family="sans-serif" font-size="13" lengthAdjust="spacing" textLength="144" x="104" y="130.2705">asks to regist a new skill</text><polygon fill="#181818" points="376,162.8242,386,166.8242,376,170.8242,380,166.8242" style="stroke:#181818;stroke-width:1.0;"/><line style="stroke:#181818;stroke-width:1.0;" x1="317" x2="382" y1="166.8242" y2="166.8242"/><text fill="#000000" font-family="sans-serif" font-size="13" font-weight="bold" lengthAdjust="spacing" textLength="7" x="324" y="161.5615">2</text><text fill="#000000" font-family="sans-serif" font-size="13" lengthAdjust="spacing" textLength="36" x="335" y="161.5615">create</text><rect fill="#E3E3E3" height="32.6211" rx="2.5" ry="2.5" style="stroke:#181818;stroke-width:0.5;" width="152" x="388" y="143.5332"/><text fill="#000000" font-family="sans-serif" font-size="14" lengthAdjust="spacing" textLength="138" x="395" y="165.6406">:RegistSkillsController</text><polygon fill="#181818" points="581.5,206.4453,591.5,210.4453,581.5,214.4453,585.5,210.4453" style="stroke:#181818;stroke-width:1.0;"/><line style="stroke:#181818;stroke-width:1.0;" x1="469" x2="587.5" y1="210.4453" y2="210.4453"/><text fill="#000000" font-family="sans-serif" font-size="13" font-weight="bold" lengthAdjust="spacing" textLength="7" x="476" y="205.1826">3</text><text fill="#000000" font-family="sans-serif" font-size="13" lengthAdjust="spacing" textLength="75" x="487" y="205.1826">getInstance()</text><polygon fill="#181818" points="480,237.7363,470,241.7363,480,245.7363,476,241.7363" style="stroke:#181818;stroke-width:1.0;"/><line style="stroke:#181818;stroke-width:1.0;stroke-dasharray:2.0,2.0;" x1="474" x2="597.5" y1="241.7363" y2="241.7363"/><text fill="#000000" font-family="sans-serif" font-size="13" font-weight="bold" lengthAdjust="spacing" textLength="7" x="486" y="236.4736">4</text><text fill="#000000" font-family="sans-serif" font-size="13" lengthAdjust="spacing" textLength="67" x="497" y="236.4736">repositories</text><polygon fill="#181818" points="688.5,269.0273,698.5,273.0273,688.5,277.0273,692.5,273.0273" style="stroke:#181818;stroke-width:1.0;"/><line style="stroke:#181818;stroke-width:1.0;" x1="469" x2="694.5" y1="273.0273" y2="273.0273"/><text fill="#000000" font-family="sans-serif" font-size="13" font-weight="bold" lengthAdjust="spacing" textLength="7" x="476" y="267.7646">5</text><text fill="#000000" font-family="sans-serif" font-size="13" lengthAdjust="spacing" textLength="171" x="487" y="267.7646">getRegistedSkillsRepository()</text><polygon fill="#181818" points="475,300.3184,465,304.3184,475,308.3184,471,304.3184" style="stroke:#181818;stroke-width:1.0;"/><line style="stroke:#181818;stroke-width:1.0;stroke-dasharray:2.0,2.0;" x1="469" x2="704.5" y1="304.3184" y2="304.3184"/><text fill="#000000" font-family="sans-serif" font-size="13" font-weight="bold" lengthAdjust="spacing" textLength="7" x="481" y="299.0557">6</text><text fill="#000000" font-family="sans-serif" font-size="13" lengthAdjust="spacing" textLength="140" x="492" y="299.0557">registedSkillsRepository</text><path d="M10,319.3184 L83,319.3184 L83,328.6094 L73,338.6094 L10,338.6094 L10,319.3184 " fill="#EEEEEE" style="stroke:#000000;stroke-width:1.5;"/><rect fill="none" height="295.2793" style="stroke:#000000;stroke-width:1.5;" width="1065.5" x="10" y="319.3184"/><text fill="#000000" font-family="sans-serif" font-size="13" font-weight="bold" lengthAdjust="spacing" textLength="28" x="25" y="334.3467">loop</text><text fill="#000000" font-family="sans-serif" font-size="11" font-weight="bold" lengthAdjust="spacing" textLength="90" x="98" y="333.1885">[while intended]</text><polygon fill="#181818" points="97,357.9004,87,361.9004,97,365.9004,93,361.9004" style="stroke:#181818;stroke-width:1.0;"/><line style="stroke:#181818;stroke-width:1.0;stroke-dasharray:2.0,2.0;" x1="91" x2="311" y1="361.9004" y2="361.9004"/><text fill="#000000" font-family="sans-serif" font-size="13" font-weight="bold" lengthAdjust="spacing" textLength="7" x="103" y="356.6377">7</text><text fill="#000000" font-family="sans-serif" font-size="13" lengthAdjust="spacing" textLength="135" x="114" y="356.6377">requests the skill name</text><polygon fill="#181818" points="295,389.1914,305,393.1914,295,397.1914,299,393.1914" style="stroke:#181818;stroke-width:1.0;"/><line style="stroke:#181818;stroke-width:1.0;" x1="86" x2="301" y1="393.1914" y2="393.1914"/><text fill="#000000" font-family="sans-serif" font-size="13" font-weight="bold" lengthAdjust="spacing" textLength="7" x="93" y="387.9287">8</text><text fill="#000000" font-family="sans-serif" font-size="13" lengthAdjust="spacing" textLength="144" x="104" y="387.9287">types the new skill name</text><polygon fill="#181818" points="447,420.4824,457,424.4824,447,428.4824,451,424.4824" style="stroke:#181818;stroke-width:1.0;"/><line style="stroke:#181818;stroke-width:1.0;" x1="317" x2="453" y1="424.4824" y2="424.4824"/><text fill="#000000" font-family="sans-serif" font-size="13" font-weight="bold" lengthAdjust="spacing" textLength="7" x="324" y="419.2197">9</text><text fill="#000000" font-family="sans-serif" font-size="13" lengthAdjust="spacing" textLength="36" x="335" y="419.2197">create</text><polygon fill="#181818" points="832,451.7734,842,455.7734,832,459.7734,836,455.7734" style="stroke:#181818;stroke-width:1.0;"/><line style="stroke:#181818;stroke-width:1.0;" x1="469" x2="838" y1="455.7734" y2="455.7734"/><text fill="#000000" font-family="sans-serif" font-size="13" font-weight="bold" lengthAdjust="spacing" textLength="14" x="476" y="450.5107">10</text><text fill="#000000" font-family="sans-serif" font-size="13" lengthAdjust="spacing" textLength="36" x="494" y="450.5107">create</text><polygon fill="#181818" points="970.5,483.0645,980.5,487.0645,970.5,491.0645,974.5,487.0645" style="stroke:#181818;stroke-width:1.0;"/><line style="stroke:#181818;stroke-width:1.0;" x1="854" x2="976.5" y1="487.0645" y2="487.0645"/><text fill="#000000" font-family="sans-serif" font-size="13" font-weight="bold" lengthAdjust="spacing" textLength="14" x="861" y="481.8018">11</text><text fill="#000000" font-family="sans-serif" font-size="13" lengthAdjust="spacing" textLength="36" x="879" y="481.8018">create</text><rect fill="#E3E3E3" height="51.2422" rx="2.5" ry="2.5" style="stroke:#181818;stroke-width:0.5;" width="83" x="982.5" y="463.7734"/><text fill="#000000" font-family="sans-serif" font-size="14" lengthAdjust="spacing" textLength="59" x="994.5" y="485.8809">skillName</text><text fill="#000000" font-family="sans-serif" font-size="14" lengthAdjust="spacing" textLength="69" x="989.5" y="504.502">:RegistSkill</text><line style="stroke:#181818;stroke-width:1.0;" x1="854" x2="896" y1="554.3066" y2="554.3066"/><line style="stroke:#181818;stroke-width:1.0;" x1="896" x2="896" y1="554.3066" y2="567.3066"/><line style="stroke:#181818;stroke-width:1.0;" x1="849" x2="896" y1="567.3066" y2="567.3066"/><polygon fill="#181818" points="859,563.3066,849,567.3066,859,571.3066,855,567.3066" style="stroke:#181818;stroke-width:1.0;"/><text fill="#000000" font-family="sans-serif" font-size="13" font-weight="bold" lengthAdjust="spacing" textLength="14" x="861" y="549.0439">12</text><text fill="#000000" font-family="sans-serif" font-size="13" lengthAdjust="spacing" textLength="133" x="879" y="549.0439">validateSkill(skillName)</text><line style="stroke:#181818;stroke-width:1.0;" x1="854" x2="896" y1="593.5977" y2="593.5977"/><line style="stroke:#181818;stroke-width:1.0;" x1="896" x2="896" y1="593.5977" y2="606.5977"/><line style="stroke:#181818;stroke-width:1.0;" x1="855" x2="896" y1="606.5977" y2="606.5977"/><polygon fill="#181818" points="865,602.5977,855,606.5977,865,610.5977,861,606.5977" style="stroke:#181818;stroke-width:1.0;"/><text fill="#000000" font-family="sans-serif" font-size="13" font-weight="bold" lengthAdjust="spacing" textLength="14" x="861" y="588.335">13</text><text fill="#000000" font-family="sans-serif" font-size="13" lengthAdjust="spacing" textLength="111" x="879" y="588.335">addSkill(skillName)</text><polygon fill="#181818" points="480,640.8887,470,644.8887,480,648.8887,476,644.8887" style="stroke:#181818;stroke-width:1.0;"/><line style="stroke:#181818;stroke-width:1.0;stroke-dasharray:2.0,2.0;" x1="474" x2="848" y1="644.8887" y2="644.8887"/><text fill="#000000" font-family="sans-serif" font-size="13" font-weight="bold" lengthAdjust="spacing" textLength="14" x="486" y="639.626">14</text><text fill="#000000" font-family="sans-serif" font-size="13" lengthAdjust="spacing" textLength="99" x="504" y="639.626">registedSkillsList</text><polygon fill="#181818" points="328,672.1797,318,676.1797,328,680.1797,324,676.1797" style="stroke:#181818;stroke-width:1.0;"/><line style="stroke:#181818;stroke-width:1.0;stroke-dasharray:2.0,2.0;" x1="322" x2="463" y1="676.1797" y2="676.1797"/><text fill="#000000" font-family="sans-serif" font-size="13" font-weight="bold" lengthAdjust="spacing" textLength="14" x="334" y="670.917">15</text><text fill="#000000" font-family="sans-serif" font-size="13" lengthAdjust="spacing" textLength="99" x="352" y="670.917">registedSkillsList</text><polygon fill="#181818" points="97,720.7617,87,724.7617,97,728.7617,93,724.7617" style="stroke:#181818;stroke-width:1.0;"/><line style="stroke:#181818;stroke-width:1.0;stroke-dasharray:2.0,2.0;" x1="91" x2="311" y1="724.7617" y2="724.7617"/><text fill="#000000" font-family="sans-serif" font-size="13" font-weight="bold" lengthAdjust="spacing" textLength="14" x="103" y="710.8535">16</text><text fill="#000000" font-family="sans-serif" font-size="13" lengthAdjust="spacing" textLength="153" x="121" y="702.208">show all the skills registed</text><text fill="#000000" font-family="sans-serif" font-size="13" lengthAdjust="spacing" textLength="107" x="125" y="719.499">and aks to confirm</text><polygon fill="#181818" points="295,752.0527,305,756.0527,295,760.0527,299,756.0527" style="stroke:#181818;stroke-width:1.0;"/><line style="stroke:#181818;stroke-width:1.0;" x1="86" x2="301" y1="756.0527" y2="756.0527"/><text fill="#000000" font-family="sans-serif" font-size="13" font-weight="bold" lengthAdjust="spacing" textLength="14" x="93" y="750.79">17</text><text fill="#000000" font-family="sans-serif" font-size="13" lengthAdjust="spacing" textLength="184" x="111" y="750.79">confirm the set of skills registed</text><polygon fill="#181818" points="97,783.3438,87,787.3438,97,791.3438,93,787.3438" style="stroke:#181818;stroke-width:1.0;"/><line style="stroke:#181818;stroke-width:1.0;stroke-dasharray:2.0,2.0;" x1="91" x2="311" y1="787.3438" y2="787.3438"/><text fill="#000000" font-family="sans-serif" font-size="13" font-weight="bold" lengthAdjust="spacing" textLength="14" x="103" y="782.0811">18</text><text fill="#000000" font-family="sans-serif" font-size="13" lengthAdjust="spacing" textLength="158" x="121" y="782.0811">displays operation success</text><!--SRC=[fLN1Rk8m4BtdAqPSsY9nw1MjLaBLLaMYgrMWDoxUP02BnCxQJX5_lsCxc8JORLURa_7Cl7cUzspqaOk6ALP3BOKi3ahM24QrcEaGQLXnP7jSctE5eB0mJEohVe8-i5AUkDZ3ZbKQiumLHYgOlBGr4v2ZbgqgK6_5AnC4f2R0DBpahncL6rxmXWa3atcEUwxD-iYhIhyjNTBRyeES9ocCabNL0JvjyjKekv6Q4nUEskM4ZVEQsqCOAOObgbUn5ME0Nwl5vhR2CiBISxesc6z5dWXrLEB18RgsqP-iHaScdDqXR1RvZ-S5JRkbOxJrRrJmw6RFtvb1D-0CwAC5pBxJB65EPKSDHe9d3Gm4di0rSQcXc0RlDkn7XLHknpkT4aIXa3AkuL3Z10ZRzfUjYuoSGFPebaAJamgyVnX3nNGAMVQBeSuwbdFegnZAIlmQ_8MubTepJKaLO-uCCg3gSFhS4hf7U0x0xgmGtsOpJ_3VWAxIL58sS3fmkifS61GbbWEsLcpYQZrZM_nfKHjop06zIq2G5sCT-eQvDPqvD-WnWjk6E4cKg_M2xpwntT1wyGb16YnvAs_Sbm2cflvMJgVf7fTx-nMqL6mExwpY9S6vo7ru9nvYudGT_wyXAyjHBmT99lABD6uduiYrArfdeylvaGHUsukpFaUxkcFWR7sG9s3am-1i7S2s0fWeWVcNif1YnrMTHO4Jbw1l_gxUDq83SdVRB_xo3kYMN3SLEskG3IfcEBrskYteFrN7AFm5]--></g></svg>