<?xml version="1.0" encoding="us-ascii" standalone="no"?><svg xmlns="http://www.w3.org/2000/svg" xmlns:xlink="http://www.w3.org/1999/xlink" contentStyleType="text/css" height="544px" preserveAspectRatio="none" style="width:497px;height:544px;background:#FFFFFF;" version="1.1" viewBox="0 0 497 544" width="497px" zoomAndPan="magnify"><defs/><g><rect fill="#FFFFFF" height="379.5703" style="stroke:#181818;stroke-width:1.0;" width="10" x="136" y="90.5332"/><rect fill="#FFFFFF" height="133.8242" style="stroke:#181818;stroke-width:1.0;" width="10" x="311" y="158.1152"/><rect fill="none" height="334.2793" style="stroke:#000000;stroke-width:1.5;" width="418" x="73" y="105.5332"/><line style="stroke:#181818;stroke-width:0.5;stroke-dasharray:5.0,5.0;" x1="141" x2="141" y1="57.2422" y2="488.1035"/><line style="stroke:#181818;stroke-width:0.5;stroke-dasharray:5.0,5.0;" x1="315.5" x2="315.5" y1="165.9453" y2="488.1035"/><rect fill="#E3E3E3" height="51.2422" rx="2.5" ry="2.5" style="stroke:#181818;stroke-width:0.5;" width="116" x="83" y="5"/><text fill="#000000" font-family="sans-serif" font-size="14" lengthAdjust="spacing" textLength="102" x="90" y="27.1074">skillsRepository:</text><text fill="#000000" font-family="sans-serif" font-size="14" lengthAdjust="spacing" textLength="100" x="91" y="45.7285">SkillsRepository</text><rect fill="#E3E3E3" height="51.2422" rx="2.5" ry="2.5" style="stroke:#181818;stroke-width:0.5;" width="116" x="83" y="487.1035"/><text fill="#000000" font-family="sans-serif" font-size="14" lengthAdjust="spacing" textLength="102" x="90" y="509.2109">skillsRepository:</text><text fill="#000000" font-family="sans-serif" font-size="14" lengthAdjust="spacing" textLength="100" x="91" y="527.832">SkillsRepository</text><rect fill="#E3E3E3" height="51.2422" rx="2.5" ry="2.5" style="stroke:#181818;stroke-width:0.5;" width="73" x="279.5" y="487.1035"/><text fill="#000000" font-family="sans-serif" font-size="14" lengthAdjust="spacing" textLength="59" x="286.5" y="509.2109">name</text><text fill="#000000" font-family="sans-serif" font-size="14" lengthAdjust="spacing" textLength="29" x="301.5" y="527.832">:Skill</text><rect fill="#FFFFFF" height="379.5703" style="stroke:#181818;stroke-width:1.0;" width="10" x="136" y="90.5332"/><rect fill="#FFFFFF" height="133.8242" style="stroke:#181818;stroke-width:1.0;" width="10" x="311" y="158.1152"/><polygon fill="#181818" points="124,86.5332,134,90.5332,124,94.5332,128,90.5332" style="stroke:#181818;stroke-width:1.0;"/><line style="stroke:#181818;stroke-width:1.0;" x1="0" x2="130" y1="90.5332" y2="90.5332"/><text fill="#000000" font-family="sans-serif" font-size="13" font-weight="bold" lengthAdjust="spacing" textLength="14" x="7" y="85.2705">10</text><text fill="#000000" font-family="sans-serif" font-size="13" lengthAdjust="spacing" textLength="36" x="25" y="85.2705">create</text><path d="M73,105.5332 L192,105.5332 L192,114.8242 L182,124.8242 L73,124.8242 L73,105.5332 " fill="#EEEEEE" style="stroke:#000000;stroke-width:1.5;"/><rect fill="none" height="334.2793" style="stroke:#000000;stroke-width:1.5;" width="418" x="73" y="105.5332"/><text fill="#000000" font-family="sans-serif" font-size="13" font-weight="bold" lengthAdjust="spacing" textLength="74" x="88" y="120.5615">Create Skill</text><polygon fill="#181818" points="267.5,144.1152,277.5,148.1152,267.5,152.1152,271.5,148.1152" style="stroke:#181818;stroke-width:1.0;"/><line style="stroke:#181818;stroke-width:1.0;" x1="146" x2="273.5" y1="148.1152" y2="148.1152"/><text fill="#000000" font-family="sans-serif" font-size="13" font-weight="bold" lengthAdjust="spacing" textLength="14" x="153" y="142.8525">11</text><text fill="#000000" font-family="sans-serif" font-size="13" lengthAdjust="spacing" textLength="36" x="171" y="142.8525">create</text><rect fill="#E3E3E3" height="51.2422" rx="2.5" ry="2.5" style="stroke:#181818;stroke-width:0.5;" width="73" x="279.5" y="124.8242"/><text fill="#000000" font-family="sans-serif" font-size="14" lengthAdjust="spacing" textLength="59" x="286.5" y="146.9316">name</text><text fill="#000000" font-family="sans-serif" font-size="14" lengthAdjust="spacing" textLength="29" x="301.5" y="165.5527">:Skill</text><line style="stroke:#181818;stroke-width:1.0;" x1="321" x2="363" y1="210.3574" y2="210.3574"/><line style="stroke:#181818;stroke-width:1.0;" x1="363" x2="363" y1="210.3574" y2="223.3574"/><line style="stroke:#181818;stroke-width:1.0;" x1="322" x2="363" y1="223.3574" y2="223.3574"/><polygon fill="#181818" points="332,219.3574,322,223.3574,332,227.3574,328,223.3574" style="stroke:#181818;stroke-width:1.0;"/><text fill="#000000" font-family="sans-serif" font-size="13" font-weight="bold" lengthAdjust="spacing" textLength="14" x="328" y="205.0947">12</text><text fill="#000000" font-family="sans-serif" font-size="13" lengthAdjust="spacing" textLength="133" x="346" y="205.0947">validateSkill(name)</text><polygon fill="#181818" points="157,250.6484,147,254.6484,157,258.6484,153,254.6484" style="stroke:#181818;stroke-width:1.0;"/><line style="stroke:#181818;stroke-width:1.0;stroke-dasharray:2.0,2.0;" x1="151" x2="310" y1="254.6484" y2="254.6484"/><text fill="#000000" font-family="sans-serif" font-size="13" font-weight="bold" lengthAdjust="spacing" textLength="14" x="163" y="249.3857">13</text><text fill="#000000" font-family="sans-serif" font-size="13" lengthAdjust="spacing" textLength="57" x="181" y="249.3857">name</text><line style="stroke:#181818;stroke-width:1.0;" x1="146" x2="188" y1="290.9395" y2="290.9395"/><line style="stroke:#181818;stroke-width:1.0;" x1="188" x2="188" y1="290.9395" y2="303.9395"/><line style="stroke:#181818;stroke-width:1.0;" x1="141" x2="188" y1="303.9395" y2="303.9395"/><polygon fill="#181818" points="151,299.9395,141,303.9395,151,307.9395,147,303.9395" style="stroke:#181818;stroke-width:1.0;"/><text fill="#000000" font-family="sans-serif" font-size="13" font-weight="bold" lengthAdjust="spacing" textLength="14" x="153" y="285.6768">14</text><text fill="#000000" font-family="sans-serif" font-size="13" lengthAdjust="spacing" textLength="133" x="171" y="285.6768">validateSkill(name)</text><line style="stroke:#181818;stroke-width:1.0;" x1="146" x2="188" y1="330.2305" y2="330.2305"/><line style="stroke:#181818;stroke-width:1.0;" x1="188" x2="188" y1="330.2305" y2="343.2305"/><line style="stroke:#181818;stroke-width:1.0;" x1="147" x2="188" y1="343.2305" y2="343.2305"/><polygon fill="#181818" points="157,339.2305,147,343.2305,157,347.2305,153,343.2305" style="stroke:#181818;stroke-width:1.0;"/><text fill="#000000" font-family="sans-serif" font-size="13" font-weight="bold" lengthAdjust="spacing" textLength="14" x="153" y="324.9678">15</text><text fill="#000000" font-family="sans-serif" font-size="13" lengthAdjust="spacing" textLength="111" x="171" y="324.9678">addSkill(name)</text><line style="stroke:#181818;stroke-width:1.0;" x1="146" x2="188" y1="374.5215" y2="374.5215"/><line style="stroke:#181818;stroke-width:1.0;" x1="188" x2="188" y1="374.5215" y2="387.5215"/><line style="stroke:#181818;stroke-width:1.0;" x1="147" x2="188" y1="387.5215" y2="387.5215"/><polygon fill="#181818" points="157,383.5215,147,387.5215,157,391.5215,153,387.5215" style="stroke:#181818;stroke-width:1.0;"/><text fill="#000000" font-family="sans-serif" font-size="13" font-weight="bold" lengthAdjust="spacing" textLength="14" x="153" y="369.2588">16</text><text fill="#000000" font-family="sans-serif" font-size="13" lengthAdjust="spacing" textLength="53" x="171" y="369.2588">true/false</text><line style="stroke:#181818;stroke-width:1.0;" x1="146" x2="188" y1="418.8125" y2="418.8125"/><line style="stroke:#181818;stroke-width:1.0;" x1="188" x2="188" y1="418.8125" y2="431.8125"/><line style="stroke:#181818;stroke-width:1.0;" x1="147" x2="188" y1="431.8125" y2="431.8125"/><polygon fill="#181818" points="157,427.8125,147,431.8125,157,435.8125,153,431.8125" style="stroke:#181818;stroke-width:1.0;"/><text fill="#000000" font-family="sans-serif" font-size="13" font-weight="bold" lengthAdjust="spacing" textLength="14" x="153" y="413.5498">17</text><text fill="#000000" font-family="sans-serif" font-size="13" lengthAdjust="spacing" textLength="53" x="171" y="413.5498">true/false</text><polygon fill="#181818" points="11,466.1035,1,470.1035,11,474.1035,7,470.1035" style="stroke:#181818;stroke-width:1.0;"/><line style="stroke:#181818;stroke-width:1.0;stroke-dasharray:2.0,2.0;" x1="5" x2="140" y1="470.1035" y2="470.1035"/><text fill="#000000" font-family="sans-serif" font-size="13" font-weight="bold" lengthAdjust="spacing" textLength="14" x="17" y="464.8408">18</text><text fill="#000000" font-family="sans-serif" font-size="13" lengthAdjust="spacing" textLength="99" x="35" y="464.8408">registedSkillsList</text><!--SRC=[fLBDIWCn4BxdAOQUjB2erqM48lLKUcWzzZ8cOngQJPOaM-dRcoQubcIBedCQ9j_V3F47PNfqs45dZULxPpk2u0PYVdpfaHzGqZQSD84Z7j18VGdmUnJsGna9xwWzCHR7GN7LemamYpYj_OPwwrMmxjJkpBOOpG0zbCC9bJLsj3DjGYREwsApV5amXaEmPkZUoC73FMkUAh4Mk2CCCHloe8wng_qWbdHswE4vOJE2fVcvIW94dnnWFX_reQZHxYjg2SZpRwqMZgYLY9JaTpCkVdkTEx4mj30oAzxK9lN5hkOevGILM_xD48NuqUjtIkSVV9S_uxy5aW8PaPl7ffcwjIEfVA2StwzYpzZ5MQg_nZu1]--></g></svg>