<?xml version="1.0" encoding="us-ascii" standalone="no"?><svg xmlns="http://www.w3.org/2000/svg" xmlns:xlink="http://www.w3.org/1999/xlink" contentStyleType="text/css" height="856.8px" preserveAspectRatio="none" style="width:947px;height:856px;background:#FFFFFF;" version="1.1" viewBox="0 0 947 856" width="947.2px" zoomAndPan="magnify"><defs/><g><rect fill="#FFFFFF" height="678.6125" style="stroke:#181818;stroke-width:0.8000000000000002;" width="8" x="60.8" y="89.7938"/><rect fill="#FFFFFF" height="181.0938" style="stroke:#181818;stroke-width:0.8000000000000002;" width="8" x="245.6" y="108.4266"/><rect fill="#FFFFFF" height="396.5875" style="stroke:#181818;stroke-width:0.8000000000000002;" width="8" x="245.6" y="314.5531"/><rect fill="#FFFFFF" height="25.0328" style="stroke:#181818;stroke-width:0.8000000000000002;" width="8" x="245.6" y="736.1734"/><rect fill="#FFFFFF" height="101.9953" style="stroke:#181818;stroke-width:0.8000000000000002;" width="8" x="369.6" y="141.4594"/><rect fill="#FFFFFF" height="332.6891" style="stroke:#181818;stroke-width:0.8000000000000002;" width="8" x="369.6" y="339.5859"/><rect fill="#FFFFFF" height="25.0328" style="stroke:#181818;stroke-width:0.8000000000000002;" width="8" x="479.6" y="168.3563"/><rect fill="#FFFFFF" height="25.0328" style="stroke:#181818;stroke-width:0.8000000000000002;" width="8" x="565.2" y="218.4219"/><rect fill="#FFFFFF" height="282.6234" style="stroke:#181818;stroke-width:0.8000000000000002;" width="8" x="658.4" y="364.6188"/><rect fill="#FFFFFF" height="107.0594" style="stroke:#181818;stroke-width:0.8000000000000002;" width="8" x="798.4" y="397.6516"/><rect fill="none" height="367.5547" style="stroke:#000000;stroke-width:1.2000000000000002;" width="934.4" x="8" y="255.4547"/><line style="stroke:#181818;stroke-width:0.4000000000000001;stroke-dasharray:5.0,5.0;" x1="64.8" x2="64.8" y1="81.7938" y2="775.6063"/><line style="stroke:#181818;stroke-width:0.4000000000000001;stroke-dasharray:5.0,5.0;" x1="249.6" x2="249.6" y1="81.7938" y2="775.6063"/><line style="stroke:#181818;stroke-width:0.4000000000000001;stroke-dasharray:5.0,5.0;" x1="373.6" x2="373.6" y1="140.275" y2="775.6063"/><line style="stroke:#181818;stroke-width:0.4000000000000001;stroke-dasharray:5.0,5.0;" x1="483.2" x2="483.2" y1="81.7938" y2="775.6063"/><line style="stroke:#181818;stroke-width:0.4000000000000001;stroke-dasharray:5.0,5.0;" x1="568.8" x2="568.8" y1="81.7938" y2="775.6063"/><line style="stroke:#181818;stroke-width:0.4000000000000001;stroke-dasharray:5.0,5.0;" x1="662.4" x2="662.4" y1="81.7938" y2="775.6063"/><line style="stroke:#181818;stroke-width:0.4000000000000001;stroke-dasharray:5.0,5.0;" x1="802" x2="802" y1="403.9156" y2="775.6063"/><text fill="#000000" font-family="sans-serif" font-size="11.2" lengthAdjust="spacing" textLength="92.8" x="16" y="64.0859">Human Resources</text><text fill="#000000" font-family="sans-serif" font-size="11.2" lengthAdjust="spacing" textLength="44.8" x="40" y="78.9828">Manager</text><ellipse cx="64.8" cy="10.8" fill="#E3E3E3" rx="6.4" ry="6.4" style="stroke:#181818;stroke-width:0.4000000000000001;"/><path d="M64.8,17.2 L64.8,38.8 M54.4,23.6 L75.2,23.6 M64.8,38.8 L54.4,50.8 M64.8,38.8 L75.2,50.8 " fill="none" style="stroke:#181818;stroke-width:0.4000000000000001;"/><text fill="#000000" font-family="sans-serif" font-size="11.2" lengthAdjust="spacing" textLength="92.8" x="16" y="786.8922">Human Resources</text><text fill="#000000" font-family="sans-serif" font-size="11.2" lengthAdjust="spacing" textLength="44.8" x="40" y="801.7891">Manager</text><ellipse cx="64.8" cy="811.4" fill="#E3E3E3" rx="6.4" ry="6.4" style="stroke:#181818;stroke-width:0.4000000000000001;"/><path d="M64.8,817.8 L64.8,839.4 M54.4,824.2 L75.2,824.2 M64.8,839.4 L54.4,851.4 M64.8,839.4 L75.2,851.4 " fill="none" style="stroke:#181818;stroke-width:0.4000000000000001;"/><rect fill="#E3E3E3" height="26.0969" rx="2" ry="2" style="stroke:#181818;stroke-width:0.4000000000000001;" width="86.4" x="206.4" y="54.8969"/><text fill="#000000" font-family="sans-serif" font-size="11.2" lengthAdjust="spacing" textLength="75.2" x="212" y="72.5828">:RegisterSkillUI</text><rect fill="#E3E3E3" height="26.0969" rx="2" ry="2" style="stroke:#181818;stroke-width:0.4000000000000001;" width="86.4" x="206.4" y="774.8063"/><text fill="#000000" font-family="sans-serif" font-size="11.2" lengthAdjust="spacing" textLength="75.2" x="212" y="792.4922">:RegisterSkillUI</text><rect fill="#E3E3E3" height="26.0969" rx="2" ry="2" style="stroke:#181818;stroke-width:0.4000000000000001;" width="126.4" x="310.4" y="774.8063"/><text fill="#000000" font-family="sans-serif" font-size="11.2" lengthAdjust="spacing" textLength="115.2" x="316" y="792.4922">:RegisterSkillController</text><rect fill="#E3E3E3" height="26.0969" rx="2" ry="2" style="stroke:#181818;stroke-width:0.4000000000000001;" width="77.6" x="444.8" y="54.8969"/><text fill="#000000" font-family="sans-serif" font-size="11.2" lengthAdjust="spacing" textLength="66.4" x="450.4" y="72.5828">:Repositories</text><rect fill="#E3E3E3" height="26.0969" rx="2" ry="2" style="stroke:#181818;stroke-width:0.4000000000000001;" width="77.6" x="444.8" y="774.8063"/><text fill="#000000" font-family="sans-serif" font-size="11.2" lengthAdjust="spacing" textLength="66.4" x="450.4" y="792.4922">:Repositories</text><rect fill="#E3E3E3" height="40.9938" rx="2" ry="2" style="stroke:#181818;stroke-width:0.4000000000000001;" width="77.6" x="530.4" y="40"/><text fill="#000000" font-family="sans-serif" font-size="11.2" lengthAdjust="spacing" textLength="59.2" x="539.6" y="57.6859">repositories</text><text fill="#000000" font-family="sans-serif" font-size="11.2" lengthAdjust="spacing" textLength="66.4" x="536" y="72.5828">:Repositories</text><rect fill="#E3E3E3" height="40.9938" rx="2" ry="2" style="stroke:#181818;stroke-width:0.4000000000000001;" width="77.6" x="530.4" y="774.8063"/><text fill="#000000" font-family="sans-serif" font-size="11.2" lengthAdjust="spacing" textLength="59.2" x="539.6" y="792.4922">repositories</text><text fill="#000000" font-family="sans-serif" font-size="11.2" lengthAdjust="spacing" textLength="66.4" x="536" y="807.3891">:Repositories</text><rect fill="#E3E3E3" height="40.9938" rx="2" ry="2" style="stroke:#181818;stroke-width:0.4000000000000001;" width="92.8" x="616" y="40"/><text fill="#000000" font-family="sans-serif" font-size="11.2" lengthAdjust="spacing" textLength="81.6" x="621.6" y="57.6859">skillsRepository:</text><text fill="#000000" font-family="sans-serif" font-size="11.2" lengthAdjust="spacing" textLength="80" x="622.4" y="72.5828">SkillsRepository</text><rect fill="#E3E3E3" height="40.9938" rx="2" ry="2" style="stroke:#181818;stroke-width:0.4000000000000001;" width="92.8" x="616" y="774.8063"/><text fill="#000000" font-family="sans-serif" font-size="11.2" lengthAdjust="spacing" textLength="81.6" x="621.6" y="792.4922">skillsRepository:</text><text fill="#000000" font-family="sans-serif" font-size="11.2" lengthAdjust="spacing" textLength="80" x="622.4" y="807.3891">SkillsRepository</text><rect fill="#E3E3E3" height="40.9938" rx="2" ry="2" style="stroke:#181818;stroke-width:0.4000000000000001;" width="58.4" x="773.2" y="774.8063"/><text fill="#000000" font-family="sans-serif" font-size="11.2" lengthAdjust="spacing" textLength="47.2" x="778.8" y="792.4922">name</text><text fill="#000000" font-family="sans-serif" font-size="11.2" lengthAdjust="spacing" textLength="23.2" x="790.8" y="807.3891">:Skill</text><rect fill="#FFFFFF" height="678.6125" style="stroke:#181818;stroke-width:0.8000000000000002;" width="8" x="60.8" y="89.7938"/><rect fill="#FFFFFF" height="181.0938" style="stroke:#181818;stroke-width:0.8000000000000002;" width="8" x="245.6" y="108.4266"/><rect fill="#FFFFFF" height="396.5875" style="stroke:#181818;stroke-width:0.8000000000000002;" width="8" x="245.6" y="314.5531"/><rect fill="#FFFFFF" height="25.0328" style="stroke:#181818;stroke-width:0.8000000000000002;" width="8" x="245.6" y="736.1734"/><rect fill="#FFFFFF" height="101.9953" style="stroke:#181818;stroke-width:0.8000000000000002;" width="8" x="369.6" y="141.4594"/><rect fill="#FFFFFF" height="332.6891" style="stroke:#181818;stroke-width:0.8000000000000002;" width="8" x="369.6" y="339.5859"/><rect fill="#FFFFFF" height="25.0328" style="stroke:#181818;stroke-width:0.8000000000000002;" width="8" x="479.6" y="168.3563"/><rect fill="#FFFFFF" height="25.0328" style="stroke:#181818;stroke-width:0.8000000000000002;" width="8" x="565.2" y="218.4219"/><rect fill="#FFFFFF" height="282.6234" style="stroke:#181818;stroke-width:0.8000000000000002;" width="8" x="658.4" y="364.6188"/><rect fill="#FFFFFF" height="107.0594" style="stroke:#181818;stroke-width:0.8000000000000002;" width="8" x="798.4" y="397.6516"/><polygon fill="#181818" points="236,105.2266,244,108.4266,236,111.6266,239.2,108.4266" style="stroke:#181818;stroke-width:0.8000000000000002;"/><line style="stroke:#181818;stroke-width:0.8000000000000002;" x1="68.8" x2="240.8" y1="108.4266" y2="108.4266"/><text fill="#000000" font-family="sans-serif" font-size="10.4" font-weight="bold" lengthAdjust="spacing" textLength="5.6" x="74.4" y="104.2164">1</text><text fill="#000000" font-family="sans-serif" font-size="10.4" lengthAdjust="spacing" textLength="115.2" x="83.2" y="104.2164">asks to regist a new skill</text><polygon fill="#181818" points="300.8,130.2594,308.8,133.4594,300.8,136.6594,304,133.4594" style="stroke:#181818;stroke-width:0.8000000000000002;"/><line style="stroke:#181818;stroke-width:0.8000000000000002;" x1="253.6" x2="305.6" y1="133.4594" y2="133.4594"/><text fill="#000000" font-family="sans-serif" font-size="10.4" font-weight="bold" lengthAdjust="spacing" textLength="5.6" x="259.2" y="129.2492">2</text><text fill="#000000" font-family="sans-serif" font-size="10.4" lengthAdjust="spacing" textLength="28.8" x="268" y="129.2492">create</text><rect fill="#E3E3E3" height="26.0969" rx="2" ry="2" style="stroke:#181818;stroke-width:0.4000000000000001;" width="126.4" x="310.4" y="114.8266"/><text fill="#000000" font-family="sans-serif" font-size="11.2" lengthAdjust="spacing" textLength="115.2" x="316" y="132.5125">:RegisterSkillController</text><polygon fill="#181818" points="470,165.1563,478,168.3563,470,171.5563,473.2,168.3563" style="stroke:#181818;stroke-width:0.8000000000000002;"/><line style="stroke:#181818;stroke-width:0.8000000000000002;" x1="377.6" x2="474.8" y1="168.3563" y2="168.3563"/><text fill="#000000" font-family="sans-serif" font-size="10.4" font-weight="bold" lengthAdjust="spacing" textLength="5.6" x="383.2" y="164.1461">3</text><text fill="#000000" font-family="sans-serif" font-size="10.4" lengthAdjust="spacing" textLength="60" x="392" y="164.1461">getInstance()</text><polygon fill="#181818" points="386.4,190.1891,378.4,193.3891,386.4,196.5891,383.2,193.3891" style="stroke:#181818;stroke-width:0.8000000000000002;"/><line style="stroke:#181818;stroke-width:0.8000000000000002;stroke-dasharray:2.0,2.0;" x1="381.6" x2="482.8" y1="193.3891" y2="193.3891"/><text fill="#000000" font-family="sans-serif" font-size="10.4" font-weight="bold" lengthAdjust="spacing" textLength="5.6" x="391.2" y="189.1789">4</text><text fill="#000000" font-family="sans-serif" font-size="10.4" lengthAdjust="spacing" textLength="53.6" x="400" y="189.1789">repositories</text><polygon fill="#181818" points="555.6,215.2219,563.6,218.4219,555.6,221.6219,558.8,218.4219" style="stroke:#181818;stroke-width:0.8000000000000002;"/><line style="stroke:#181818;stroke-width:0.8000000000000002;" x1="377.6" x2="560.4" y1="218.4219" y2="218.4219"/><text fill="#000000" font-family="sans-serif" font-size="10.4" font-weight="bold" lengthAdjust="spacing" textLength="5.6" x="383.2" y="214.2117">5</text><text fill="#000000" font-family="sans-serif" font-size="10.4" lengthAdjust="spacing" textLength="96" x="392" y="214.2117">getSkillsRepository()</text><polygon fill="#181818" points="382.4,240.2547,374.4,243.4547,382.4,246.6547,379.2,243.4547" style="stroke:#181818;stroke-width:0.8000000000000002;"/><line style="stroke:#181818;stroke-width:0.8000000000000002;stroke-dasharray:2.0,2.0;" x1="377.6" x2="568.4" y1="243.4547" y2="243.4547"/><text fill="#000000" font-family="sans-serif" font-size="10.4" font-weight="bold" lengthAdjust="spacing" textLength="5.6" x="387.2" y="239.2445">6</text><text fill="#000000" font-family="sans-serif" font-size="10.4" lengthAdjust="spacing" textLength="75.2" x="396" y="239.2445">SkillsRepository</text><path d="M8,255.4547 L66.4,255.4547 L66.4,262.8875 L58.4,270.8875 L8,270.8875 L8,255.4547 " fill="#EEEEEE" style="stroke:#000000;stroke-width:1.2000000000000002;"/><rect fill="none" height="367.5547" style="stroke:#000000;stroke-width:1.2000000000000002;" width="934.4" x="8" y="255.4547"/><text fill="#000000" font-family="sans-serif" font-size="10.4" font-weight="bold" lengthAdjust="spacing" textLength="22.4" x="20" y="267.4773">loop</text><text fill="#000000" font-family="sans-serif" font-size="8.8" font-weight="bold" lengthAdjust="spacing" textLength="72" x="78.4" y="266.5508">[while intended]</text><polygon fill="#181818" points="77.6,286.3203,69.6,289.5203,77.6,292.7203,74.4,289.5203" style="stroke:#181818;stroke-width:0.8000000000000002;"/><line style="stroke:#181818;stroke-width:0.8000000000000002;stroke-dasharray:2.0,2.0;" x1="72.8" x2="248.8" y1="289.5203" y2="289.5203"/><text fill="#000000" font-family="sans-serif" font-size="10.4" font-weight="bold" lengthAdjust="spacing" textLength="5.6" x="82.4" y="285.3102">7</text><text fill="#000000" font-family="sans-serif" font-size="10.4" lengthAdjust="spacing" textLength="108" x="91.2" y="285.3102">requests the skill name</text><polygon fill="#181818" points="236,311.3531,244,314.5531,236,317.7531,239.2,314.5531" style="stroke:#181818;stroke-width:0.8000000000000002;"/><line style="stroke:#181818;stroke-width:0.8000000000000002;" x1="68.8" x2="240.8" y1="314.5531" y2="314.5531"/><text fill="#000000" font-family="sans-serif" font-size="10.4" font-weight="bold" lengthAdjust="spacing" textLength="5.6" x="74.4" y="310.343">8</text><text fill="#000000" font-family="sans-serif" font-size="10.4" lengthAdjust="spacing" textLength="115.2" x="83.2" y="310.343">types the new skill name</text><polygon fill="#181818" points="360,336.3859,368,339.5859,360,342.7859,363.2,339.5859" style="stroke:#181818;stroke-width:0.8000000000000002;"/><line style="stroke:#181818;stroke-width:0.8000000000000002;" x1="253.6" x2="364.8" y1="339.5859" y2="339.5859"/><text fill="#000000" font-family="sans-serif" font-size="10.4" font-weight="bold" lengthAdjust="spacing" textLength="5.6" x="259.2" y="335.3758">9</text><text fill="#000000" font-family="sans-serif" font-size="10.4" lengthAdjust="spacing" textLength="28.8" x="268" y="335.3758">create</text><polygon fill="#181818" points="648.8,361.4188,656.8,364.6188,648.8,367.8188,652,364.6188" style="stroke:#181818;stroke-width:0.8000000000000002;"/><line style="stroke:#181818;stroke-width:0.8000000000000002;" x1="377.6" x2="653.6" y1="364.6188" y2="364.6188"/><text fill="#000000" font-family="sans-serif" font-size="10.4" font-weight="bold" lengthAdjust="spacing" textLength="11.2" x="383.2" y="360.4086">10</text><text fill="#000000" font-family="sans-serif" font-size="10.4" lengthAdjust="spacing" textLength="28.8" x="397.6" y="360.4086">create</text><polygon fill="#181818" points="763.6,386.4516,771.6,389.6516,763.6,392.8516,766.8,389.6516" style="stroke:#181818;stroke-width:0.8000000000000002;"/><line style="stroke:#181818;stroke-width:0.8000000000000002;" x1="666.4" x2="768.4" y1="389.6516" y2="389.6516"/><text fill="#000000" font-family="sans-serif" font-size="10.4" font-weight="bold" lengthAdjust="spacing" textLength="11.2" x="672" y="385.4414">11</text><text fill="#000000" font-family="sans-serif" font-size="10.4" lengthAdjust="spacing" textLength="28.8" x="686.4" y="385.4414">create</text><rect fill="#E3E3E3" height="40.9938" rx="2" ry="2" style="stroke:#181818;stroke-width:0.4000000000000001;" width="58.4" x="773.2" y="371.0188"/><text fill="#000000" font-family="sans-serif" font-size="11.2" lengthAdjust="spacing" textLength="47.2" x="778.8" y="388.7047">name</text><text fill="#000000" font-family="sans-serif" font-size="11.2" lengthAdjust="spacing" textLength="23.2" x="790.8" y="403.6016">:Skill</text><line style="stroke:#181818;stroke-width:0.8000000000000002;" x1="806.4" x2="840" y1="439.4453" y2="439.4453"/><line style="stroke:#181818;stroke-width:0.8000000000000002;" x1="840" x2="840" y1="439.4453" y2="449.8453"/><line style="stroke:#181818;stroke-width:0.8000000000000002;" x1="807.2" x2="840" y1="449.8453" y2="449.8453"/><polygon fill="#181818" points="815.2,446.6453,807.2,449.8453,815.2,453.0453,812,449.8453" style="stroke:#181818;stroke-width:0.8000000000000002;"/><text fill="#000000" font-family="sans-serif" font-size="10.4" font-weight="bold" lengthAdjust="spacing" textLength="11.2" x="812" y="435.2352">12</text><text fill="#000000" font-family="sans-serif" font-size="10.4" lengthAdjust="spacing" textLength="106.4" x="826.4" y="435.2352">validateSkill(name)</text><polygon fill="#181818" points="675.2,471.6781,667.2,474.8781,675.2,478.0781,672,474.8781" style="stroke:#181818;stroke-width:0.8000000000000002;"/><line style="stroke:#181818;stroke-width:0.8000000000000002;stroke-dasharray:2.0,2.0;" x1="670.4" x2="797.6" y1="474.8781" y2="474.8781"/><text fill="#000000" font-family="sans-serif" font-size="10.4" font-weight="bold" lengthAdjust="spacing" textLength="11.2" x="680" y="470.668">13</text><text fill="#000000" font-family="sans-serif" font-size="10.4" lengthAdjust="spacing" textLength="45.6" x="694.4" y="470.668">name</text><line style="stroke:#181818;stroke-width:0.8000000000000002;" x1="666.4" x2="700" y1="503.9109" y2="503.9109"/><line style="stroke:#181818;stroke-width:0.8000000000000002;" x1="700" x2="700" y1="503.9109" y2="514.3109"/><line style="stroke:#181818;stroke-width:0.8000000000000002;" x1="662.4" x2="700" y1="514.3109" y2="514.3109"/><polygon fill="#181818" points="670.4,511.1109,662.4,514.3109,670.4,517.5109,667.2,514.3109" style="stroke:#181818;stroke-width:0.8000000000000002;"/><text fill="#000000" font-family="sans-serif" font-size="10.4" font-weight="bold" lengthAdjust="spacing" textLength="11.2" x="672" y="499.7008">14</text><text fill="#000000" font-family="sans-serif" font-size="10.4" lengthAdjust="spacing" textLength="106.4" x="686.4" y="499.7008">validateSkill(name)</text><line style="stroke:#181818;stroke-width:0.8000000000000002;" x1="666.4" x2="700" y1="535.3438" y2="535.3438"/><line style="stroke:#181818;stroke-width:0.8000000000000002;" x1="700" x2="700" y1="535.3438" y2="545.7438"/><line style="stroke:#181818;stroke-width:0.8000000000000002;" x1="667.2" x2="700" y1="545.7438" y2="545.7438"/><polygon fill="#181818" points="675.2,542.5438,667.2,545.7438,675.2,548.9438,672,545.7438" style="stroke:#181818;stroke-width:0.8000000000000002;"/><text fill="#000000" font-family="sans-serif" font-size="10.4" font-weight="bold" lengthAdjust="spacing" textLength="11.2" x="672" y="531.1336">15</text><text fill="#000000" font-family="sans-serif" font-size="10.4" lengthAdjust="spacing" textLength="88.8" x="686.4" y="531.1336">addSkill(name)</text><line style="stroke:#181818;stroke-width:0.8000000000000002;" x1="666.4" x2="700" y1="570.7766" y2="570.7766"/><line style="stroke:#181818;stroke-width:0.8000000000000002;" x1="700" x2="700" y1="570.7766" y2="581.1766"/><line style="stroke:#181818;stroke-width:0.8000000000000002;" x1="667.2" x2="700" y1="581.1766" y2="581.1766"/><polygon fill="#181818" points="675.2,577.9766,667.2,581.1766,675.2,584.3766,672,581.1766" style="stroke:#181818;stroke-width:0.8000000000000002;"/><text fill="#000000" font-family="sans-serif" font-size="10.4" font-weight="bold" lengthAdjust="spacing" textLength="11.2" x="672" y="566.5664">16</text><text fill="#000000" font-family="sans-serif" font-size="10.4" lengthAdjust="spacing" textLength="42.4" x="686.4" y="566.5664">true/false</text><line style="stroke:#181818;stroke-width:0.8000000000000002;" x1="666.4" x2="700" y1="606.2094" y2="606.2094"/><line style="stroke:#181818;stroke-width:0.8000000000000002;" x1="700" x2="700" y1="606.2094" y2="616.6094"/><line style="stroke:#181818;stroke-width:0.8000000000000002;" x1="667.2" x2="700" y1="616.6094" y2="616.6094"/><polygon fill="#181818" points="675.2,613.4094,667.2,616.6094,675.2,619.8094,672,616.6094" style="stroke:#181818;stroke-width:0.8000000000000002;"/><text fill="#000000" font-family="sans-serif" font-size="10.4" font-weight="bold" lengthAdjust="spacing" textLength="11.2" x="672" y="601.9992">17</text><text fill="#000000" font-family="sans-serif" font-size="10.4" lengthAdjust="spacing" textLength="42.4" x="686.4" y="601.9992">true/false</text><polygon fill="#181818" points="386.4,644.0422,378.4,647.2422,386.4,650.4422,383.2,647.2422" style="stroke:#181818;stroke-width:0.8000000000000002;"/><line style="stroke:#181818;stroke-width:0.8000000000000002;stroke-dasharray:2.0,2.0;" x1="381.6" x2="661.6" y1="647.2422" y2="647.2422"/><text fill="#000000" font-family="sans-serif" font-size="10.4" font-weight="bold" lengthAdjust="spacing" textLength="11.2" x="391.2" y="643.032">18</text><text fill="#000000" font-family="sans-serif" font-size="10.4" lengthAdjust="spacing" textLength="40.8" x="405.6" y="643.032">skillsList</text><polygon fill="#181818" points="262.4,669.075,254.4,672.275,262.4,675.475,259.2,672.275" style="stroke:#181818;stroke-width:0.8000000000000002;"/><line style="stroke:#181818;stroke-width:0.8000000000000002;stroke-dasharray:2.0,2.0;" x1="257.6" x2="372.8" y1="672.275" y2="672.275"/><text fill="#000000" font-family="sans-serif" font-size="10.4" font-weight="bold" lengthAdjust="spacing" textLength="11.2" x="267.2" y="668.0648">19</text><text fill="#000000" font-family="sans-serif" font-size="10.4" lengthAdjust="spacing" textLength="40.8" x="281.6" y="668.0648">skillsList</text><polygon fill="#181818" points="77.6,707.9406,69.6,711.1406,77.6,714.3406,74.4,711.1406" style="stroke:#181818;stroke-width:0.8000000000000002;"/><line style="stroke:#181818;stroke-width:0.8000000000000002;stroke-dasharray:2.0,2.0;" x1="72.8" x2="248.8" y1="711.1406" y2="711.1406"/><text fill="#000000" font-family="sans-serif" font-size="10.4" font-weight="bold" lengthAdjust="spacing" textLength="11.2" x="82.4" y="700.0141">20</text><text fill="#000000" font-family="sans-serif" font-size="10.4" lengthAdjust="spacing" textLength="122.4" x="96.8" y="693.0977">show all the skills registed</text><text fill="#000000" font-family="sans-serif" font-size="10.4" lengthAdjust="spacing" textLength="85.6" x="100" y="706.9305">and aks to confirm</text><polygon fill="#181818" points="236,732.9734,244,736.1734,236,739.3734,239.2,736.1734" style="stroke:#181818;stroke-width:0.8000000000000002;"/><line style="stroke:#181818;stroke-width:0.8000000000000002;" x1="68.8" x2="240.8" y1="736.1734" y2="736.1734"/><text fill="#000000" font-family="sans-serif" font-size="10.4" font-weight="bold" lengthAdjust="spacing" textLength="11.2" x="74.4" y="731.9633">21</text><text fill="#000000" font-family="sans-serif" font-size="10.4" lengthAdjust="spacing" textLength="147.2" x="88.8" y="731.9633">confirm the set of skills registed</text><polygon fill="#181818" points="77.6,758.0063,69.6,761.2063,77.6,764.4063,74.4,761.2063" style="stroke:#181818;stroke-width:0.8000000000000002;"/><line style="stroke:#181818;stroke-width:0.8000000000000002;stroke-dasharray:2.0,2.0;" x1="72.8" x2="248.8" y1="761.2063" y2="761.2063"/><text fill="#000000" font-family="sans-serif" font-size="10.4" font-weight="bold" lengthAdjust="spacing" textLength="11.2" x="82.4" y="756.9961">22</text><text fill="#000000" font-family="sans-serif" font-size="10.4" lengthAdjust="spacing" textLength="126.4" x="96.8" y="756.9961">displays operation success</text><!--SRC=[dLLDRzim3BtxLn0vjG6AOTSS1WJ5XWP8Xo59RxbeDfC8iILFb1latu-I7VbBJhlvP4jyZzHxf4ndgKfXH065LZez6LqWM5DXGc6d5EbP775hhpc2mTGATSox0NGIcRv8TOI3o0cJHAHM6vYzL8LGi47IbKcHzkfLA2OoCn04BvlNXE5Mfh8Koi9iiS6Z98jcUvPv_hRoKM-hUq7FMbcZyxoXVDvjrgFmKfFaQYIIZmaBrwrqnx1QzI6cWzYhCS6lzNBNHv0hXLhYnLvj1qiUELoCiFmK1N9I7-ank-Nc-uybArfneLNn6mryzVhATs7HYvW0F_m2JzzOBbWmx4nWDLlbf0812Y_WwNre0BEsVi4z36Iu4t0-PuhK84Uqsm7Z9GxBxilX8g8ooH7jIX5tIueFZsEgc1CXoZqnrgUcoWLqVGgm33z7VolScLbNEZGdLh6tlbUYnxSrZHoErDKdwMoqqkPQbt0vIHutgIog3BDULcSMvtIUEnt-L4YM7JzXxJ8exg9OXgxXmwQnrn9hZj0jVPv9bhPrGjzyq3PT1uQImJJ9IDqUuOY8oUlfcS-dEM_pTTkelrli0jv5BZCEzVmFOKeVnvZuQG8YkLVfSErEteYnpId-BO78iadkpp6u_yIN-ih_Rs0j8_Tu_JB6DxrrKvBMVASbW_F7EwDkiLk3JwFRvkmD5ftq1GIFGHWiQgvKpFOAXCf0r1TjgjL1cYA94a_CO7Vs6doT22temp1V_EBkbPj9AdDn9T0b6c4bNvPKfVpRfLW9Vm40]--></g></svg>