<?xml version="1.0" encoding="UTF-8" standalone="no"?><svg xmlns="http://www.w3.org/2000/svg" xmlns:xlink="http://www.w3.org/1999/xlink" contentStyleType="text/css" height="853px" preserveAspectRatio="none" style="width:881px;height:853px;background:#FFFFFF;" version="1.1" viewBox="0 0 881 853" width="881px" zoomAndPan="magnify"><defs/><g><!--class RegisterSkillUI--><g id="elem_RegisterSkillUI"><rect codeLine="7" fill="#F1F1F1" height="53.24" id="RegisterSkillUI" rx="2.5" ry="2.5" style="stroke:#181818;stroke-width:0.5;" width="169" x="7" y="47.86"/><ellipse cx="23" cy="66.48" fill="#ADD1B2" rx="12" ry="12" style="stroke:#181818;stroke-width:1.0;"/><path d="M22.5156,73.6831 Q20.4531,73.6831 19.125,72.8081 Q17.7969,71.9331 17.1406,70.355 Q16.5,68.7612 16.5,66.6362 Q16.5,64.2612 17.2656,62.5581 Q18.0469,60.8394 19.5469,59.9175 Q21.0625,58.9956 23.2656,58.9956 Q24.2969,58.9956 25.0781,59.2144 Q25.875,59.4175 26.7031,59.8237 L25.7344,62.1987 Q25,61.8237 24.3594,61.6831 Q23.7344,61.5425 23.1563,61.5425 Q21.7813,61.5425 20.9531,62.1675 Q20.1406,62.7769 19.7813,63.9019 Q19.4375,65.0269 19.4375,66.5269 Q19.4375,68.8862 20.2813,70.0112 Q21.125,71.1362 23,71.1362 Q23.7031,71.1362 24.4219,70.9644 Q25.1563,70.7769 26.1406,70.3394 L26.1406,72.9331 Q25.2813,73.3237 24.3438,73.4956 Q23.4219,73.6831 22.5156,73.6831 Z " fill="#000000"/><text fill="#000000" font-family="sans-serif" font-size="20" lengthAdjust="spacing" textLength="135" x="38" y="74.24">RegisterSkillUI</text><line style="stroke:#181818;stroke-width:0.5;" x1="8" x2="175" y1="85.1" y2="85.1"/><line style="stroke:#181818;stroke-width:0.5;" x1="8" x2="175" y1="93.1" y2="93.1"/></g><!--class RegisterSkillController--><g id="elem_RegisterSkillController"><rect codeLine="10" fill="#F1F1F1" height="107.7199" id="RegisterSkillController" rx="2.5" ry="2.5" style="stroke:#181818;stroke-width:0.5;" width="241" x="211" y="20.62"/><ellipse cx="227.45" cy="39.24" fill="#ADD1B2" rx="12" ry="12" style="stroke:#181818;stroke-width:1.0;"/><path d="M226.9656,46.4431 Q224.9031,46.4431 223.575,45.5681 Q222.2469,44.6931 221.5906,43.115 Q220.95,41.5212 220.95,39.3962 Q220.95,37.0212 221.7156,35.3181 Q222.4969,33.5994 223.9969,32.6775 Q225.5125,31.7556 227.7156,31.7556 Q228.7469,31.7556 229.5281,31.9744 Q230.325,32.1775 231.1531,32.5837 L230.1844,34.9587 Q229.45,34.5837 228.8094,34.4431 Q228.1844,34.3025 227.6063,34.3025 Q226.2313,34.3025 225.4031,34.9275 Q224.5906,35.5369 224.2313,36.6619 Q223.8875,37.7869 223.8875,39.2869 Q223.8875,41.6462 224.7313,42.7712 Q225.575,43.8962 227.45,43.8962 Q228.1531,43.8962 228.8719,43.7244 Q229.6063,43.5369 230.5906,43.0994 L230.5906,45.6931 Q229.7313,46.0837 228.7938,46.2556 Q227.8719,46.4431 226.9656,46.4431 Z " fill="#000000"/><text fill="#000000" font-family="sans-serif" font-size="20" lengthAdjust="spacing" textLength="206" x="242.55" y="47">RegisterSkillController</text><line style="stroke:#181818;stroke-width:0.5;" x1="212" x2="451" y1="57.86" y2="57.86"/><line style="stroke:#181818;stroke-width:0.5;" x1="212" x2="451" y1="65.86" y2="65.86"/><text fill="#000000" font-family="sans-serif" font-size="20" lengthAdjust="spacing" textLength="229" x="217" y="91.24">+RegisterSkillController()</text><text fill="#000000" font-family="sans-serif" font-size="20" lengthAdjust="spacing" textLength="132" x="217" y="118.4799">+getSkillsList()</text></g><!--class Skill--><g id="elem_Skill"><rect codeLine="21" fill="#F1F1F1" height="271.1598" id="Skill" rx="2.5" ry="2.5" style="stroke:#181818;stroke-width:0.5;" width="197" x="262" y="574.96"/><ellipse cx="337.5" cy="593.58" fill="#ADD1B2" rx="12" ry="12" style="stroke:#181818;stroke-width:1.0;"/><path d="M337.0156,600.7831 Q334.9531,600.7831 333.625,599.9081 Q332.2969,599.0331 331.6406,597.455 Q331,595.8612 331,593.7362 Q331,591.3612 331.7656,589.6581 Q332.5469,587.9394 334.0469,587.0175 Q335.5625,586.0956 337.7656,586.0956 Q338.7969,586.0956 339.5781,586.3144 Q340.375,586.5175 341.2031,586.9237 L340.2344,589.2987 Q339.5,588.9237 338.8594,588.7831 Q338.2344,588.6425 337.6563,588.6425 Q336.2813,588.6425 335.4531,589.2675 Q334.6406,589.8769 334.2813,591.0019 Q333.9375,592.1269 333.9375,593.6269 Q333.9375,595.9862 334.7813,597.1112 Q335.625,598.2362 337.5,598.2362 Q338.2031,598.2362 338.9219,598.0644 Q339.6563,597.8769 340.6406,597.4394 L340.6406,600.0331 Q339.7813,600.4237 338.8438,600.5956 Q337.9219,600.7831 337.0156,600.7831 Z " fill="#000000"/><text fill="#000000" font-family="sans-serif" font-size="20" lengthAdjust="spacing" textLength="37" x="359.5" y="601.34">Skill</text><line style="stroke:#181818;stroke-width:0.5;" x1="263" x2="458" y1="612.2" y2="612.2"/><text fill="#000000" font-family="sans-serif" font-size="20" lengthAdjust="spacing" textLength="119" x="268" y="637.58">-String name</text><line style="stroke:#181818;stroke-width:0.5;" x1="263" x2="458" y1="647.4399" y2="647.4399"/><text fill="#000000" font-family="sans-serif" font-size="20" lengthAdjust="spacing" textLength="113" x="268" y="672.8199">+Skill(name)</text><text fill="#000000" font-family="sans-serif" font-size="20" lengthAdjust="spacing" textLength="109" x="268" y="700.0599">+getName()</text><text fill="#000000" font-family="sans-serif" font-size="20" lengthAdjust="spacing" textLength="107" x="268" y="727.2999">+setName()</text><text fill="#000000" font-family="sans-serif" font-size="20" lengthAdjust="spacing" textLength="84" x="268" y="754.5399">+equals()</text><text fill="#000000" font-family="sans-serif" font-size="20" lengthAdjust="spacing" textLength="97" x="268" y="781.7798">+toString()</text><text fill="#000000" font-family="sans-serif" font-size="20" lengthAdjust="spacing" textLength="73" x="268" y="809.0198">+clone()</text><text fill="#000000" font-family="sans-serif" font-size="20" lengthAdjust="spacing" textLength="185" x="268" y="836.2598">+validateSkill(name)</text></g><!--class SkillsRepository--><g id="elem_SkillsRepository"><rect codeLine="40" fill="#F1F1F1" height="243.9198" id="SkillsRepository" rx="2.5" ry="2.5" style="stroke:#181818;stroke-width:0.5;" width="250" x="429.5" y="250.96"/><ellipse cx="477" cy="269.58" fill="#ADD1B2" rx="12" ry="12" style="stroke:#181818;stroke-width:1.0;"/><path d="M476.5156,276.7831 Q474.4531,276.7831 473.125,275.9081 Q471.7969,275.0331 471.1406,273.455 Q470.5,271.8612 470.5,269.7362 Q470.5,267.3612 471.2656,265.6581 Q472.0469,263.9394 473.5469,263.0175 Q475.0625,262.0956 477.2656,262.0956 Q478.2969,262.0956 479.0781,262.3144 Q479.875,262.5175 480.7031,262.9237 L479.7344,265.2987 Q479,264.9237 478.3594,264.7831 Q477.7344,264.6425 477.1563,264.6425 Q475.7813,264.6425 474.9531,265.2675 Q474.1406,265.8769 473.7813,267.0019 Q473.4375,268.1269 473.4375,269.6269 Q473.4375,271.9862 474.2813,273.1112 Q475.125,274.2362 477,274.2362 Q477.7031,274.2362 478.4219,274.0644 Q479.1563,273.8769 480.1406,273.4394 L480.1406,276.0331 Q479.2813,276.4237 478.3438,276.5956 Q477.4219,276.7831 476.5156,276.7831 Z " fill="#000000"/><text fill="#000000" font-family="sans-serif" font-size="20" lengthAdjust="spacing" textLength="146" x="499" y="277.34">SkillsRepository</text><line style="stroke:#181818;stroke-width:0.5;" x1="430.5" x2="678.5" y1="288.2" y2="288.2"/><text fill="#000000" font-family="sans-serif" font-size="20" lengthAdjust="spacing" textLength="180" x="435.5" y="313.58">-List&lt;Skill&gt; skillsList</text><line style="stroke:#181818;stroke-width:0.5;" x1="430.5" x2="678.5" y1="323.4399" y2="323.4399"/><text fill="#000000" font-family="sans-serif" font-size="20" lengthAdjust="spacing" textLength="169" x="435.5" y="348.8199">+SkillsRepository()</text><text fill="#000000" font-family="sans-serif" font-size="20" lengthAdjust="spacing" textLength="238" x="435.5" y="376.0599">+Optional&lt;Skill&gt; add(skill)</text><text fill="#000000" font-family="sans-serif" font-size="20" lengthAdjust="spacing" textLength="148" x="435.5" y="403.2999">+addSkill(name)</text><text fill="#000000" font-family="sans-serif" font-size="20" lengthAdjust="spacing" textLength="185" x="435.5" y="430.5399">+validateSkill(name)</text><text fill="#000000" font-family="sans-serif" font-size="20" lengthAdjust="spacing" textLength="163" x="435.5" y="457.7798">-validateSkill(skill)</text><text fill="#000000" font-family="sans-serif" font-size="20" lengthAdjust="spacing" textLength="132" x="435.5" y="485.0198">+getSkillsList()</text></g><!--class Repositories--><g id="elem_Repositories"><rect codeLine="50" fill="#F1F1F1" height="134.9599" id="Repositories" rx="2.5" ry="2.5" style="stroke:#181818;stroke-width:0.5;" width="275" x="599" y="7"/><ellipse cx="674.5" cy="25.62" fill="#ADD1B2" rx="12" ry="12" style="stroke:#181818;stroke-width:1.0;"/><path d="M674.0156,32.8231 Q671.9531,32.8231 670.625,31.9481 Q669.2969,31.0731 668.6406,29.495 Q668,27.9012 668,25.7762 Q668,23.4012 668.7656,21.6981 Q669.5469,19.9794 671.0469,19.0575 Q672.5625,18.1356 674.7656,18.1356 Q675.7969,18.1356 676.5781,18.3544 Q677.375,18.5575 678.2031,18.9637 L677.2344,21.3387 Q676.5,20.9637 675.8594,20.8231 Q675.2344,20.6825 674.6563,20.6825 Q673.2813,20.6825 672.4531,21.3075 Q671.6406,21.9169 671.2813,23.0419 Q670.9375,24.1669 670.9375,25.6669 Q670.9375,28.0262 671.7813,29.1512 Q672.625,30.2762 674.5,30.2762 Q675.2031,30.2762 675.9219,30.1044 Q676.6563,29.9169 677.6406,29.4794 L677.6406,32.0731 Q676.7813,32.4637 675.8438,32.6356 Q674.9219,32.8231 674.0156,32.8231 Z " fill="#000000"/><text fill="#000000" font-family="sans-serif" font-size="20" lengthAdjust="spacing" textLength="115" x="696.5" y="33.38">Repositories</text><line style="stroke:#181818;stroke-width:0.5;" x1="600" x2="873" y1="44.24" y2="44.24"/><line style="stroke:#181818;stroke-width:0.5;" x1="600" x2="873" y1="52.24" y2="52.24"/><text fill="#000000" font-family="sans-serif" font-size="20" lengthAdjust="spacing" textLength="133" x="605" y="77.62">-Repositories()</text><text fill="#000000" font-family="sans-serif" font-size="20" lengthAdjust="spacing" textLength="263" x="605" y="104.8599">+getInstance() : Repositories</text><text fill="#000000" font-family="sans-serif" font-size="20" lengthAdjust="spacing" textLength="199" x="605" y="132.0999">+getSkillsRepository()</text></g><!--link RegisterSkillUI to RegisterSkillController--><g id="link_RegisterSkillUI_RegisterSkillController"><path codeLine="57" d="M176.45,74.48 C185.44,74.48 194.71,74.48 204.04,74.48 " fill="none" id="RegisterSkillUI-to-RegisterSkillController" style="stroke:#181818;stroke-width:1.0;stroke-dasharray:7.0,7.0;"/><polygon fill="#181818" points="208.99,74.48,199.99,70.48,203.99,74.48,199.99,78.48,208.99,74.48" style="stroke:#181818;stroke-width:1.0;"/></g><!--link RegisterSkillController to Repositories--><g id="link_RegisterSkillController_Repositories"><path codeLine="59" d="M452.46,74.48 C496.43,74.48 546.55,74.48 592.33,74.48 " fill="none" id="RegisterSkillController-to-Repositories" style="stroke:#181818;stroke-width:1.0;stroke-dasharray:7.0,7.0;"/><polygon fill="#181818" points="597.24,74.48,588.24,70.48,592.24,74.48,588.24,78.48,597.24,74.48" style="stroke:#181818;stroke-width:1.0;"/><text fill="#000000" font-family="sans-serif" font-size="20" lengthAdjust="spacing" textLength="111" x="470" y="64.86">repositories</text></g><!--link Repositories to SkillsRepository--><g id="link_Repositories_SkillsRepository"><path codeLine="61" d="M695.43,142.27 C676.59,172.91 653.62,210.26 631.74,245.85 " fill="none" id="Repositories-to-SkillsRepository" style="stroke:#181818;stroke-width:1.0;"/><polygon fill="#181818" points="629.31,249.8,637.4283,244.2239,631.9265,245.5393,630.6111,240.0375,629.31,249.8" style="stroke:#181818;stroke-width:1.0;"/><text fill="#000000" font-family="sans-serif" font-size="20" lengthAdjust="spacing" textLength="11" x="621.6954" y="237.2306">1</text></g><!--link RegisterSkillController to Skill--><g id="link_RegisterSkillController_Skill"><path codeLine="63" d="M333.57,128.81 C338.1,245.66 348.5,513.96 348.5,513.96 C348.5,513.96 349.94,537.51 351.83,568.26 " fill="none" id="RegisterSkillController-to-Skill" style="stroke:#181818;stroke-width:1.0;stroke-dasharray:7.0,7.0;"/><polygon fill="#181818" points="352.12,572.99,355.5722,563.766,351.8197,567.999,347.5867,564.2465,352.12,572.99" style="stroke:#181818;stroke-width:1.0;"/><text fill="#000000" font-family="sans-serif" font-size="20" lengthAdjust="spacing" textLength="37" x="349.5" y="380.34">Skill</text></g><!--link RegisterSkillController to SkillsRepository--><g id="link_RegisterSkillController_SkillsRepository"><path codeLine="64" d="M371.63,128.74 C396.33,161.52 429.09,205.01 460.06,246.11 " fill="none" id="RegisterSkillController-to-SkillsRepository" style="stroke:#181818;stroke-width:1.0;stroke-dasharray:7.0,7.0;"/><polygon fill="#181818" points="462.92,249.9,460.72,240.3,459.92,245.9,454.32,245.1,462.92,249.9" style="stroke:#181818;stroke-width:1.0;"/><text fill="#000000" font-family="sans-serif" font-size="20" lengthAdjust="spacing" textLength="146" x="424.5" y="194.34">SkillsRepository</text></g><!--link SkillsRepository to Skill--><g id="link_SkillsRepository_Skill"><path codeLine="66" d="M485.01,493.84 C470.9,518.29 455.95,544.19 441.48,569.26 " fill="none" id="SkillsRepository-to-Skill" style="stroke:#181818;stroke-width:1.0;"/><polygon fill="#181818" points="439.16,573.28,447.125,567.487,441.6607,568.9503,440.1974,563.4859,439.16,573.28" style="stroke:#181818;stroke-width:1.0;"/><text fill="#000000" font-family="sans-serif" font-size="20" lengthAdjust="spacing" textLength="11" x="468.9716" y="524.2594">1</text><text fill="#000000" font-family="sans-serif" font-size="20" lengthAdjust="spacing" textLength="11" x="431.1331" y="561.2702">*</text></g><!--SRC=[bLDjIyCm4FwUNn7sPPjZClrOP222C1255Nz0R6zTQ9RK9bEg-D-z9crCtnJtfTmzpptttEsYSouBLhAJK4aEAKtXmCx2t2jfOlu1z7f3T4kX1Kjoba5iAW6qXCGmcGa82Fh8KlNEPKOFJEWG4Lo2gGgWXH9L7GHO8fZMjyQK_ELiO9SeQLjl224Medl8k3PGnZaNudb7FydNA7I7haib19H8eVXRJU6BPODdO2oa7v26MHIUEsMRHfrvJLpJ6EtXN9ATmALMZh6eCyiszSO4Jvc13kJDjf93nQ6Wj_U8eRUhUp6ydd7HFZJAYVf48fJyOO-vGtETYVKU2gMvKMNL3Z_SKfDcQVgF7P39BcuVjVQDHRTK-sxXQe8gFzDJORYIJBILw6bXgrj2p-IqH-UYYtIKHcwbFSB65WVjnmcJuRdjfCPta-2_GgCEgT-bCsozl_upkDnEdNUF6xmBMnEuZV0T1nP81roljtHsDHii_nTvr7TN7hdltypm5AAHLWDIxSWwksYS4V8D]--></g></svg>