<?xml version="1.0" encoding="UTF-8" standalone="no"?><svg xmlns="http://www.w3.org/2000/svg" xmlns:xlink="http://www.w3.org/1999/xlink" contentStyleType="text/css" height="944px" preserveAspectRatio="none" style="width:977px;height:944px;background:#FFFFFF;" version="1.1" viewBox="0 0 977 944" width="977px" zoomAndPan="magnify"><defs/><g><rect fill="#FFFFFF" height="687.3195" style="stroke:#181818;stroke-width:1.0;" width="10" x="103" y="129.4799"/><rect fill="#FFFFFF" height="211.4398" style="stroke:#181818;stroke-width:1.0;" width="10" x="455" y="162.7199"/><rect fill="#FFFFFF" height="309.9198" style="stroke:#181818;stroke-width:1.0;" width="10" x="455" y="415.3997"/><rect fill="#FFFFFF" height="41.24" style="stroke:#181818;stroke-width:1.0;" width="10" x="455" y="766.5595"/><rect fill="#FFFFFF" height="160.1999" style="stroke:#181818;stroke-width:1.0;" width="10" x="669.5" y="213.9599"/><rect fill="#FFFFFF" height="200.1999" style="stroke:#181818;stroke-width:1.0;" width="10" x="669.5" y="456.6397"/><rect fill="#FFFFFF" height="117.7199" style="stroke:#181818;stroke-width:1.0;" width="10" x="874" y="497.8797"/><rect fill="none" height="275.9198" style="stroke:#000000;stroke-width:1.5;" width="961" x="10" y="299.4398"/><line style="stroke:#181818;stroke-width:0.5;stroke-dasharray:5.0,5.0;" x1="108" x2="108" y1="119.4799" y2="825.7995"/><line style="stroke:#181818;stroke-width:0.5;stroke-dasharray:5.0,5.0;" x1="460" x2="460" y1="119.4799" y2="825.7995"/><line style="stroke:#181818;stroke-width:0.5;stroke-dasharray:5.0,5.0;" x1="674" x2="674" y1="206.8399" y2="825.7995"/><line style="stroke:#181818;stroke-width:0.5;stroke-dasharray:5.0,5.0;" x1="879" x2="879" y1="119.4799" y2="825.7995"/><text fill="#000000" font-family="sans-serif" font-size="20" lengthAdjust="spacing" textLength="170" x="20" y="86.38">Human Resources</text><text fill="#000000" font-family="sans-serif" font-size="20" lengthAdjust="spacing" textLength="83" x="63.5" y="113.62">Manager</text><ellipse cx="108" cy="13.5" fill="#E3E3E3" rx="8" ry="8" style="stroke:#181818;stroke-width:0.5;"/><path d="M108,21.5 L108,48.5 M95,29.5 L121,29.5 M108,48.5 L95,63.5 M108,48.5 L121,63.5 " fill="none" style="stroke:#181818;stroke-width:0.5;"/><text fill="#000000" font-family="sans-serif" font-size="20" lengthAdjust="spacing" textLength="170" x="20" y="846.1795">Human Resources</text><text fill="#000000" font-family="sans-serif" font-size="20" lengthAdjust="spacing" textLength="83" x="63.5" y="873.4195">Manager</text><ellipse cx="108" cy="887.7794" fill="#E3E3E3" rx="8" ry="8" style="stroke:#181818;stroke-width:0.5;"/><path d="M108,895.7794 L108,922.7794 M95,903.7794 L121,903.7794 M108,922.7794 L95,937.7794 M108,922.7794 L121,937.7794 " fill="none" style="stroke:#181818;stroke-width:0.5;"/><rect fill="#E3E3E3" height="41.24" rx="2.5" ry="2.5" style="stroke:#181818;stroke-width:0.5;" width="154" x="383" y="77.24"/><text fill="#000000" font-family="sans-serif" font-size="20" lengthAdjust="spacing" textLength="140" x="390" y="105.62">:RegisterSkillUI</text><rect fill="#E3E3E3" height="41.24" rx="2.5" ry="2.5" style="stroke:#181818;stroke-width:0.5;" width="154" x="383" y="824.7995"/><text fill="#000000" font-family="sans-serif" font-size="20" lengthAdjust="spacing" textLength="140" x="390" y="853.1795">:RegisterSkillUI</text><rect fill="#E3E3E3" height="41.24" rx="2.5" ry="2.5" style="stroke:#181818;stroke-width:0.5;" width="225" x="562" y="824.7995"/><text fill="#000000" font-family="sans-serif" font-size="20" lengthAdjust="spacing" textLength="211" x="569" y="853.1795">:RegisterSkillController</text><rect fill="#E3E3E3" height="68.4799" rx="2.5" ry="2.5" style="stroke:#181818;stroke-width:0.5;" width="164" x="797" y="50"/><text fill="#000000" font-family="sans-serif" font-size="20" lengthAdjust="spacing" textLength="150" x="804" y="78.38">skillsRepository:</text><text fill="#000000" font-family="sans-serif" font-size="20" lengthAdjust="spacing" textLength="146" x="806" y="105.62">SkillsRepository</text><rect fill="#E3E3E3" height="68.4799" rx="2.5" ry="2.5" style="stroke:#181818;stroke-width:0.5;" width="164" x="797" y="824.7995"/><text fill="#000000" font-family="sans-serif" font-size="20" lengthAdjust="spacing" textLength="150" x="804" y="853.1795">skillsRepository:</text><text fill="#000000" font-family="sans-serif" font-size="20" lengthAdjust="spacing" textLength="146" x="806" y="880.4195">SkillsRepository</text><rect fill="#FFFFFF" height="687.3195" style="stroke:#181818;stroke-width:1.0;" width="10" x="103" y="129.4799"/><rect fill="#FFFFFF" height="211.4398" style="stroke:#181818;stroke-width:1.0;" width="10" x="455" y="162.7199"/><rect fill="#FFFFFF" height="309.9198" style="stroke:#181818;stroke-width:1.0;" width="10" x="455" y="415.3997"/><rect fill="#FFFFFF" height="41.24" style="stroke:#181818;stroke-width:1.0;" width="10" x="455" y="766.5595"/><rect fill="#FFFFFF" height="160.1999" style="stroke:#181818;stroke-width:1.0;" width="10" x="669.5" y="213.9599"/><rect fill="#FFFFFF" height="200.1999" style="stroke:#181818;stroke-width:1.0;" width="10" x="669.5" y="456.6397"/><rect fill="#FFFFFF" height="117.7199" style="stroke:#181818;stroke-width:1.0;" width="10" x="874" y="497.8797"/><polygon fill="#181818" points="443,158.7199,453,162.7199,443,166.7199,447,162.7199" style="stroke:#181818;stroke-width:1.0;"/><line style="stroke:#181818;stroke-width:1.0;" x1="113" x2="449" y1="162.7199" y2="162.7199"/><text fill="#000000" font-family="sans-serif" font-size="20" font-weight="bold" lengthAdjust="spacing" textLength="11" x="120" y="154.8599">1</text><text fill="#000000" font-family="sans-serif" font-size="20" lengthAdjust="spacing" textLength="225" x="135" y="154.8599">asks to regist a new skill</text><polygon fill="#181818" points="550,199.9599,560,203.9599,550,207.9599,554,203.9599" style="stroke:#181818;stroke-width:1.0;"/><line style="stroke:#181818;stroke-width:1.0;" x1="465" x2="556" y1="203.9599" y2="203.9599"/><text fill="#000000" font-family="sans-serif" font-size="20" font-weight="bold" lengthAdjust="spacing" textLength="11" x="472" y="196.0999">2</text><text fill="#000000" font-family="sans-serif" font-size="20" lengthAdjust="spacing" textLength="58" x="487" y="196.0999">create</text><rect fill="#E3E3E3" height="41.24" rx="2.5" ry="2.5" style="stroke:#181818;stroke-width:0.5;" width="225" x="562" y="170.7199"/><text fill="#000000" font-family="sans-serif" font-size="20" lengthAdjust="spacing" textLength="211" x="569" y="199.0999">:RegisterSkillController</text><rect fill="none" height="64.4799" style="stroke:#000000;stroke-width:1.5;" width="231" x="559" y="222.9599"/><path d="M559,222.9599 L633,222.9599 L633,241.9599 L623,251.9599 L559,251.9599 L559,222.9599 " fill="#EEEEEE" style="stroke:#000000;stroke-width:2.0;"/><text fill="#000000" font-family="sans-serif" font-size="20" font-weight="bold" lengthAdjust="spacing" textLength="29" x="572" y="246.3399">ref</text><text fill="#000000" font-family="sans-serif" font-size="20" lengthAdjust="spacing" textLength="189" x="580" y="277.3399">Get Skills Repository</text><path d="M10,299.4398 L98,299.4398 L98,318.6798 L88,328.6798 L10,328.6798 L10,299.4398 " fill="#EEEEEE" style="stroke:#000000;stroke-width:1.5;"/><rect fill="none" height="275.9198" style="stroke:#000000;stroke-width:1.5;" width="961" x="10" y="299.4398"/><text fill="#000000" font-family="sans-serif" font-size="20" font-weight="bold" lengthAdjust="spacing" textLength="43" x="25" y="321.8198">loop</text><text fill="#000000" font-family="sans-serif" font-size="20" font-weight="bold" lengthAdjust="spacing" textLength="164" x="113" y="322.8198">[while intended]</text><polygon fill="#181818" points="124,370.1598,114,374.1598,124,378.1598,120,374.1598" style="stroke:#181818;stroke-width:1.0;"/><line style="stroke:#181818;stroke-width:1.0;stroke-dasharray:2.0,2.0;" x1="118" x2="459" y1="374.1598" y2="374.1598"/><text fill="#000000" font-family="sans-serif" font-size="20" font-weight="bold" lengthAdjust="spacing" textLength="11" x="130" y="366.2998">7</text><text fill="#000000" font-family="sans-serif" font-size="20" lengthAdjust="spacing" textLength="215" x="145" y="366.2998">requests the skill name</text><polygon fill="#181818" points="443,411.3997,453,415.3997,443,419.3997,447,415.3997" style="stroke:#181818;stroke-width:1.0;"/><line style="stroke:#181818;stroke-width:1.0;" x1="113" x2="449" y1="415.3997" y2="415.3997"/><text fill="#000000" font-family="sans-serif" font-size="20" font-weight="bold" lengthAdjust="spacing" textLength="11" x="120" y="407.5398">8</text><text fill="#000000" font-family="sans-serif" font-size="20" lengthAdjust="spacing" textLength="228" x="135" y="407.5398">types the new skill name</text><polygon fill="#181818" points="657.5,452.6397,667.5,456.6397,657.5,460.6397,661.5,456.6397" style="stroke:#181818;stroke-width:1.0;"/><line style="stroke:#181818;stroke-width:1.0;" x1="465" x2="663.5" y1="456.6397" y2="456.6397"/><text fill="#000000" font-family="sans-serif" font-size="20" font-weight="bold" lengthAdjust="spacing" textLength="11" x="472" y="448.7797">9</text><text fill="#000000" font-family="sans-serif" font-size="20" lengthAdjust="spacing" textLength="58" x="487" y="448.7797">create</text><polygon fill="#181818" points="862,493.8797,872,497.8797,862,501.8797,866,497.8797" style="stroke:#181818;stroke-width:1.0;"/><line style="stroke:#181818;stroke-width:1.0;" x1="679.5" x2="868" y1="497.8797" y2="497.8797"/><text fill="#000000" font-family="sans-serif" font-size="20" font-weight="bold" lengthAdjust="spacing" textLength="22" x="686.5" y="490.0197">10</text><text fill="#000000" font-family="sans-serif" font-size="20" lengthAdjust="spacing" textLength="58" x="712.5" y="490.0197">create</text><rect fill="none" height="64.4799" style="stroke:#000000;stroke-width:1.5;" width="170" x="794" y="505.8797"/><path d="M794,505.8797 L868,505.8797 L868,524.8797 L858,534.8797 L794,534.8797 L794,505.8797 " fill="#EEEEEE" style="stroke:#000000;stroke-width:2.0;"/><text fill="#000000" font-family="sans-serif" font-size="20" font-weight="bold" lengthAdjust="spacing" textLength="29" x="807" y="529.2597">ref</text><text fill="#000000" font-family="sans-serif" font-size="20" lengthAdjust="spacing" textLength="122" x="818" y="560.2597">Get Skills List</text><polygon fill="#181818" points="690.5,611.5996,680.5,615.5996,690.5,619.5996,686.5,615.5996" style="stroke:#181818;stroke-width:1.0;"/><line style="stroke:#181818;stroke-width:1.0;stroke-dasharray:2.0,2.0;" x1="684.5" x2="878" y1="615.5996" y2="615.5996"/><text fill="#000000" font-family="sans-serif" font-size="20" font-weight="bold" lengthAdjust="spacing" textLength="22" x="696.5" y="607.7396">18</text><text fill="#000000" font-family="sans-serif" font-size="20" lengthAdjust="spacing" textLength="78" x="722.5" y="607.7396">skillsList</text><polygon fill="#181818" points="476,652.8396,466,656.8396,476,660.8396,472,656.8396" style="stroke:#181818;stroke-width:1.0;"/><line style="stroke:#181818;stroke-width:1.0;stroke-dasharray:2.0,2.0;" x1="470" x2="673.5" y1="656.8396" y2="656.8396"/><text fill="#000000" font-family="sans-serif" font-size="20" font-weight="bold" lengthAdjust="spacing" textLength="22" x="482" y="648.9796">19</text><text fill="#000000" font-family="sans-serif" font-size="20" lengthAdjust="spacing" textLength="78" x="508" y="648.9796">skillsList</text><polygon fill="#181818" points="124,721.3195,114,725.3195,124,729.3195,120,725.3195" style="stroke:#181818;stroke-width:1.0;"/><line style="stroke:#181818;stroke-width:1.0;stroke-dasharray:2.0,2.0;" x1="118" x2="459" y1="725.3195" y2="725.3195"/><text fill="#000000" font-family="sans-serif" font-size="20" font-weight="bold" lengthAdjust="spacing" textLength="22" x="130" y="703.8396">20</text><text fill="#000000" font-family="sans-serif" font-size="20" lengthAdjust="spacing" textLength="243" x="156" y="690.2196">show all the skills registed</text><text fill="#000000" font-family="sans-serif" font-size="20" lengthAdjust="spacing" textLength="174" x="161" y="717.4596">and aks to confirm</text><polygon fill="#181818" points="443,762.5595,453,766.5595,443,770.5595,447,766.5595" style="stroke:#181818;stroke-width:1.0;"/><line style="stroke:#181818;stroke-width:1.0;" x1="113" x2="449" y1="766.5595" y2="766.5595"/><text fill="#000000" font-family="sans-serif" font-size="20" font-weight="bold" lengthAdjust="spacing" textLength="22" x="120" y="758.6995">21</text><text fill="#000000" font-family="sans-serif" font-size="20" lengthAdjust="spacing" textLength="297" x="146" y="758.6995">confirm the set of skills registed</text><polygon fill="#181818" points="124,803.7995,114,807.7995,124,811.7995,120,807.7995" style="stroke:#181818;stroke-width:1.0;"/><line style="stroke:#181818;stroke-width:1.0;stroke-dasharray:2.0,2.0;" x1="118" x2="459" y1="807.7995" y2="807.7995"/><text fill="#000000" font-family="sans-serif" font-size="20" font-weight="bold" lengthAdjust="spacing" textLength="22" x="130" y="799.9395">22</text><text fill="#000000" font-family="sans-serif" font-size="20" lengthAdjust="spacing" textLength="248" x="156" y="799.9395">displays operation success</text><!--SRC=[VLJ1Rfmm4BtxAqPxZ1IfxQNL7dg9r2PISc6RsrwcC2mMnaDjazNswplOG0n4vGJsUpFllHdXMsrxTDWPBbkgeA8Q1nD-i0qd_PVWooVbPmXqRBbi77S4mGsKtVHOjdYXKxWP0aTbG7inES0tMF5LsmlKQ3mfXMLW1uV7eKCB1NaUN4d-R5_GIY5t0FJmMBmeeGTTwXvjWCEne8lsWTofrSQyFaNKwzF_G0_YnB4nKyc7NyNp6kv7b2-ePwz5qkrujgVDKMHk3yN24DWEtMzoy3aQqcyOAAfM88-ymFrtqGT7AT1w22pPZDe0mT8LOkjteXY9F248RLHwToVKqf7SPWsY1-Me1dwJtl5pvFsaCAc4J2RPIhhMIbMqgM2OUxWsMaQcRH0SLKb0PknhF9XLYQpHr54A_Xd81x7KKB815ZkAu6sVpTdeSXTFkFMKYYsvl1VCgRcQbD4Iq0gQ7CxeyMl4RsS87vFtenwlby1trtERR03FCkLuliGlB-kL-QRKJi_zP4g4fRsCTRBqzjAIjpd8ZrafZTK4VSDNG8bvcQ2VbfEgimKKsPXMjcHRQzVj5sWpr7oU4oSLbrIutlPOh_rAMgLzR_3cWNjo63HRy4CfVmU_RVaF]--></g></svg>