<?xml version="1.0" encoding="us-ascii" standalone="no"?><svg xmlns="http://www.w3.org/2000/svg" xmlns:xlink="http://www.w3.org/1999/xlink" contentStyleType="text/css" height="727px" preserveAspectRatio="none" style="width:736px;height:727px;background:#FFFFFF;" version="1.1" viewBox="0 0 736 727" width="736px" zoomAndPan="magnify"><defs/><g><rect fill="#FFFFFF" height="504.6172" style="stroke:#181818;stroke-width:1.0;" width="10" x="76" y="112.2422"/><rect fill="#FFFFFF" height="149.4551" style="stroke:#181818;stroke-width:1.0;" width="10" x="307" y="135.5332"/><rect fill="#FFFFFF" height="228.998" style="stroke:#181818;stroke-width:1.0;" width="10" x="307" y="316.2793"/><rect fill="#FFFFFF" height="31.291" style="stroke:#181818;stroke-width:1.0;" width="10" x="307" y="576.5684"/><rect fill="#FFFFFF" height="368.4531" style="stroke:#181818;stroke-width:1.0;" width="10" x="459" y="176.8242"/><rect fill="#FFFFFF" height="149.125" style="stroke:#181818;stroke-width:1.0;" width="10" x="464" y="347.5703"/><rect fill="#FFFFFF" height="86.543" style="stroke:#181818;stroke-width:1.0;" width="10" x="630" y="378.8613"/><rect fill="none" height="192.707" style="stroke:#000000;stroke-width:1.5;" width="720" x="10" y="242.4063"/><line style="stroke:#181818;stroke-width:0.5;stroke-dasharray:5.0,5.0;" x1="81" x2="81" y1="102.2422" y2="625.8594"/><line style="stroke:#181818;stroke-width:0.5;stroke-dasharray:5.0,5.0;" x1="312" x2="312" y1="102.2422" y2="625.8594"/><line style="stroke:#181818;stroke-width:0.5;stroke-dasharray:5.0,5.0;" x1="464" x2="464" y1="175.3438" y2="625.8594"/><line style="stroke:#181818;stroke-width:0.5;stroke-dasharray:5.0,5.0;" x1="635" x2="635" y1="102.2422" y2="625.8594"/><text fill="#000000" font-family="sans-serif" font-size="14" lengthAdjust="spacing" textLength="116" x="20" y="80.1074">Human Resources</text><text fill="#000000" font-family="sans-serif" font-size="14" lengthAdjust="spacing" textLength="56" x="50" y="98.7285">Manager</text><ellipse cx="81" cy="13.5" fill="#E3E3E3" rx="8" ry="8" style="stroke:#181818;stroke-width:0.5;"/><path d="M81,21.5 L81,48.5 M68,29.5 L94,29.5 M81,48.5 L68,63.5 M81,48.5 L94,63.5 " fill="none" style="stroke:#181818;stroke-width:0.5;"/><text fill="#000000" font-family="sans-serif" font-size="14" lengthAdjust="spacing" textLength="116" x="20" y="639.9668">Human Resources</text><text fill="#000000" font-family="sans-serif" font-size="14" lengthAdjust="spacing" textLength="56" x="50" y="658.5879">Manager</text><ellipse cx="81" cy="670.6016" fill="#E3E3E3" rx="8" ry="8" style="stroke:#181818;stroke-width:0.5;"/><path d="M81,678.6016 L81,705.6016 M68,686.6016 L94,686.6016 M81,705.6016 L68,720.6016 M81,705.6016 L94,720.6016 " fill="none" style="stroke:#181818;stroke-width:0.5;"/><rect fill="#E3E3E3" height="32.6211" rx="2.5" ry="2.5" style="stroke:#181818;stroke-width:0.5;" width="102" x="261" y="68.6211"/><text fill="#000000" font-family="sans-serif" font-size="14" lengthAdjust="spacing" textLength="88" x="268" y="90.7285">:RegistSkillsUI</text><rect fill="#E3E3E3" height="32.6211" rx="2.5" ry="2.5" style="stroke:#181818;stroke-width:0.5;" width="102" x="261" y="624.8594"/><text fill="#000000" font-family="sans-serif" font-size="14" lengthAdjust="spacing" textLength="88" x="268" y="646.9668">:RegistSkillsUI</text><rect fill="#E3E3E3" height="32.6211" rx="2.5" ry="2.5" style="stroke:#181818;stroke-width:0.5;" width="152" x="388" y="624.8594"/><text fill="#000000" font-family="sans-serif" font-size="14" lengthAdjust="spacing" textLength="138" x="395" y="646.9668">:RegistSkillsController</text><rect fill="#E3E3E3" height="51.2422" rx="2.5" ry="2.5" style="stroke:#181818;stroke-width:0.5;" width="170" x="550" y="50"/><text fill="#000000" font-family="sans-serif" font-size="14" lengthAdjust="spacing" textLength="155" x="557.5" y="72.1074">registedSkillsRepository:</text><text fill="#000000" font-family="sans-serif" font-size="14" lengthAdjust="spacing" textLength="156" x="557" y="90.7285">RegistedSkillsRepository</text><rect fill="#E3E3E3" height="51.2422" rx="2.5" ry="2.5" style="stroke:#181818;stroke-width:0.5;" width="170" x="550" y="624.8594"/><text fill="#000000" font-family="sans-serif" font-size="14" lengthAdjust="spacing" textLength="155" x="557.5" y="646.9668">registedSkillsRepository:</text><text fill="#000000" font-family="sans-serif" font-size="14" lengthAdjust="spacing" textLength="156" x="557" y="665.5879">RegistedSkillsRepository</text><rect fill="#FFFFFF" height="504.6172" style="stroke:#181818;stroke-width:1.0;" width="10" x="76" y="112.2422"/><rect fill="#FFFFFF" height="149.4551" style="stroke:#181818;stroke-width:1.0;" width="10" x="307" y="135.5332"/><rect fill="#FFFFFF" height="228.998" style="stroke:#181818;stroke-width:1.0;" width="10" x="307" y="316.2793"/><rect fill="#FFFFFF" height="31.291" style="stroke:#181818;stroke-width:1.0;" width="10" x="307" y="576.5684"/><rect fill="#FFFFFF" height="368.4531" style="stroke:#181818;stroke-width:1.0;" width="10" x="459" y="176.8242"/><rect fill="#FFFFFF" height="149.125" style="stroke:#181818;stroke-width:1.0;" width="10" x="464" y="347.5703"/><rect fill="#FFFFFF" height="86.543" style="stroke:#181818;stroke-width:1.0;" width="10" x="630" y="378.8613"/><polygon fill="#181818" points="295,131.5332,305,135.5332,295,139.5332,299,135.5332" style="stroke:#181818;stroke-width:1.0;"/><line style="stroke:#181818;stroke-width:1.0;" x1="86" x2="301" y1="135.5332" y2="135.5332"/><text fill="#000000" font-family="sans-serif" font-size="13" font-weight="bold" lengthAdjust="spacing" textLength="7" x="93" y="130.2705">1</text><text fill="#000000" font-family="sans-serif" font-size="13" lengthAdjust="spacing" textLength="144" x="104" y="130.2705">asks to regist a new skill</text><polygon fill="#181818" points="376,162.8242,386,166.8242,376,170.8242,380,166.8242" style="stroke:#181818;stroke-width:1.0;"/><line style="stroke:#181818;stroke-width:1.0;" x1="317" x2="382" y1="166.8242" y2="166.8242"/><text fill="#000000" font-family="sans-serif" font-size="13" font-weight="bold" lengthAdjust="spacing" textLength="7" x="324" y="161.5615">2</text><text fill="#000000" font-family="sans-serif" font-size="13" lengthAdjust="spacing" textLength="36" x="335" y="161.5615">create</text><rect fill="#E3E3E3" height="32.6211" rx="2.5" ry="2.5" style="stroke:#181818;stroke-width:0.5;" width="152" x="388" y="143.5332"/><text fill="#000000" font-family="sans-serif" font-size="14" lengthAdjust="spacing" textLength="138" x="395" y="165.6406">:RegistSkillsController</text><rect fill="none" height="43.252" style="stroke:#000000;stroke-width:1.5;" width="175" x="385" y="187.1543"/><path d="M385,187.1543 L447,187.1543 L447,196.1543 L437,206.1543 L385,206.1543 L385,187.1543 " fill="#EEEEEE" style="stroke:#000000;stroke-width:2.0;"/><text fill="#000000" font-family="sans-serif" font-size="13" font-weight="bold" lengthAdjust="spacing" textLength="17" x="398" y="203.1826">ref</text><text fill="#000000" font-family="sans-serif" font-size="12" lengthAdjust="spacing" textLength="167" x="389" y="223.1035">Get Registed Skills Repository</text><path d="M10,242.4063 L83,242.4063 L83,251.6973 L73,261.6973 L10,261.6973 L10,242.4063 " fill="#EEEEEE" style="stroke:#000000;stroke-width:1.5;"/><rect fill="none" height="192.707" style="stroke:#000000;stroke-width:1.5;" width="720" x="10" y="242.4063"/><text fill="#000000" font-family="sans-serif" font-size="13" font-weight="bold" lengthAdjust="spacing" textLength="28" x="25" y="257.4346">loop</text><text fill="#000000" font-family="sans-serif" font-size="11" font-weight="bold" lengthAdjust="spacing" textLength="90" x="98" y="256.2764">[while intended]</text><polygon fill="#181818" points="97,280.9883,87,284.9883,97,288.9883,93,284.9883" style="stroke:#181818;stroke-width:1.0;"/><line style="stroke:#181818;stroke-width:1.0;stroke-dasharray:2.0,2.0;" x1="91" x2="311" y1="284.9883" y2="284.9883"/><text fill="#000000" font-family="sans-serif" font-size="13" font-weight="bold" lengthAdjust="spacing" textLength="7" x="103" y="279.7256">7</text><text fill="#000000" font-family="sans-serif" font-size="13" lengthAdjust="spacing" textLength="135" x="114" y="279.7256">requests the skill name</text><polygon fill="#181818" points="295,312.2793,305,316.2793,295,320.2793,299,316.2793" style="stroke:#181818;stroke-width:1.0;"/><line style="stroke:#181818;stroke-width:1.0;" x1="86" x2="301" y1="316.2793" y2="316.2793"/><text fill="#000000" font-family="sans-serif" font-size="13" font-weight="bold" lengthAdjust="spacing" textLength="7" x="93" y="311.0166">8</text><text fill="#000000" font-family="sans-serif" font-size="13" lengthAdjust="spacing" textLength="144" x="104" y="311.0166">types the new skill name</text><polygon fill="#181818" points="452,343.5703,462,347.5703,452,351.5703,456,347.5703" style="stroke:#181818;stroke-width:1.0;"/><line style="stroke:#181818;stroke-width:1.0;" x1="317" x2="458" y1="347.5703" y2="347.5703"/><text fill="#000000" font-family="sans-serif" font-size="13" font-weight="bold" lengthAdjust="spacing" textLength="7" x="324" y="342.3076">9</text><text fill="#000000" font-family="sans-serif" font-size="13" lengthAdjust="spacing" textLength="36" x="335" y="342.3076">create</text><polygon fill="#181818" points="618,374.8613,628,378.8613,618,382.8613,622,378.8613" style="stroke:#181818;stroke-width:1.0;"/><line style="stroke:#181818;stroke-width:1.0;" x1="474" x2="624" y1="378.8613" y2="378.8613"/><text fill="#000000" font-family="sans-serif" font-size="13" font-weight="bold" lengthAdjust="spacing" textLength="14" x="481" y="373.5986">10</text><text fill="#000000" font-family="sans-serif" font-size="13" lengthAdjust="spacing" textLength="61" x="499" y="373.5986">createSkill</text><rect fill="none" height="43.252" style="stroke:#000000;stroke-width:1.5;" width="176" x="547" y="386.8613"/><path d="M547,386.8613 L609,386.8613 L609,395.8613 L599,405.8613 L547,405.8613 L547,386.8613 " fill="#EEEEEE" style="stroke:#000000;stroke-width:2.0;"/><text fill="#000000" font-family="sans-serif" font-size="13" font-weight="bold" lengthAdjust="spacing" textLength="17" x="560" y="402.8896">ref</text><text fill="#000000" font-family="sans-serif" font-size="12" lengthAdjust="spacing" textLength="128" x="571" y="422.8105">Get Registed Skills List</text><polygon fill="#181818" points="485,461.4043,475,465.4043,485,469.4043,481,465.4043" style="stroke:#181818;stroke-width:1.0;"/><line style="stroke:#181818;stroke-width:1.0;stroke-dasharray:2.0,2.0;" x1="479" x2="634" y1="465.4043" y2="465.4043"/><text fill="#000000" font-family="sans-serif" font-size="13" font-weight="bold" lengthAdjust="spacing" textLength="14" x="491" y="460.1416">11</text><text fill="#000000" font-family="sans-serif" font-size="13" lengthAdjust="spacing" textLength="99" x="509" y="460.1416">registedSkillsList</text><polygon fill="#181818" points="328,492.6953,318,496.6953,328,500.6953,324,496.6953" style="stroke:#181818;stroke-width:1.0;"/><line style="stroke:#181818;stroke-width:1.0;stroke-dasharray:2.0,2.0;" x1="322" x2="458" y1="496.6953" y2="496.6953"/><text fill="#000000" font-family="sans-serif" font-size="13" font-weight="bold" lengthAdjust="spacing" textLength="14" x="334" y="491.4326">12</text><text fill="#000000" font-family="sans-serif" font-size="13" lengthAdjust="spacing" textLength="99" x="352" y="491.4326">registedSkillsList</text><polygon fill="#181818" points="97,541.2773,87,545.2773,97,549.2773,93,545.2773" style="stroke:#181818;stroke-width:1.0;"/><line style="stroke:#181818;stroke-width:1.0;stroke-dasharray:2.0,2.0;" x1="91" x2="311" y1="545.2773" y2="545.2773"/><text fill="#000000" font-family="sans-serif" font-size="13" font-weight="bold" lengthAdjust="spacing" textLength="14" x="103" y="531.3691">13</text><text fill="#000000" font-family="sans-serif" font-size="13" lengthAdjust="spacing" textLength="153" x="121" y="522.7236">show all the skills registed</text><text fill="#000000" font-family="sans-serif" font-size="13" lengthAdjust="spacing" textLength="107" x="125" y="540.0146">and aks to confirm</text><polygon fill="#181818" points="295,572.5684,305,576.5684,295,580.5684,299,576.5684" style="stroke:#181818;stroke-width:1.0;"/><line style="stroke:#181818;stroke-width:1.0;" x1="86" x2="301" y1="576.5684" y2="576.5684"/><text fill="#000000" font-family="sans-serif" font-size="13" font-weight="bold" lengthAdjust="spacing" textLength="14" x="93" y="571.3057">14</text><text fill="#000000" font-family="sans-serif" font-size="13" lengthAdjust="spacing" textLength="184" x="111" y="571.3057">confirm the set of skills registed</text><polygon fill="#181818" points="97,603.8594,87,607.8594,97,611.8594,93,607.8594" style="stroke:#181818;stroke-width:1.0;"/><line style="stroke:#181818;stroke-width:1.0;stroke-dasharray:2.0,2.0;" x1="91" x2="311" y1="607.8594" y2="607.8594"/><text fill="#000000" font-family="sans-serif" font-size="13" font-weight="bold" lengthAdjust="spacing" textLength="14" x="103" y="602.5967">15</text><text fill="#000000" font-family="sans-serif" font-size="13" lengthAdjust="spacing" textLength="158" x="121" y="602.5967">displays operation success</text><!--SRC=[VLGnRkCm4EpvYeNB02ckEi35DIcI04cZN3et6sbb4PQuEYuLmx-_5ManbEyKLv8vCpipIrjEreteSO217TUTvu4W-8cCv9CHwnCUwIrSUW9FTK1tx4k0TDZmsReZjDWB6ODrO0-xfsb01nK9JxucERXNT2haTu02JzMhKNgmjHtH1TZjApfQ2Myds_Vo_Xn1xy_VO1xO1SzzVnLy-5szhD4-Wgb9y8f65gl6Blk3gpQEejBMeGQR0hjf-20FFs9C-uc1OXO3-j47kF-bjc6lGYU1m91S08AZCyWi-KNKV96d1AND2Uxkb5fxqjDYGCncFBN0dpexliwyHmhPBIIxKFWbr-ZurfY6RgHwvX7EdTMDMXSKHqroKYJy6RzOxAc_ETrU1VzC946pTPJoWCE18hYOiqGhAmcNaH8lT_75BPdbuDHBBcK5JM4MzFmsuxVsbvkD1skbxPtFiDpy9cpnyB-DlEXR1EHzw8CncpRlhvbZsIKc2XKTRvjELIozVw-IIbpjM3e-0-fsyeubYnmSeER0TBjhTgtrmxzNxEOgbDVWoadYsXUtjpFMlv2LjSRAsED5W4Vo62mxaAdMlnUv7VaN]--></g></svg>