<?xml version="1.0" encoding="us-ascii" standalone="no"?><svg xmlns="http://www.w3.org/2000/svg" xmlns:xlink="http://www.w3.org/1999/xlink" contentStyleType="text/css" height="677px" preserveAspectRatio="none" style="width:551px;height:677px;background:#FFFFFF;" version="1.1" viewBox="0 0 551 677" width="551px" zoomAndPan="magnify"><defs/><g><text fill="#000000" font-family="sans-serif" font-size="14" font-weight="bold" lengthAdjust="spacing" textLength="228" x="162.5" y="30.1074">System Sequence Diagram (SSD)</text><rect fill="#FFFFFF" height="414.4141" style="stroke:#181818;stroke-width:1.0;" width="10" x="86" y="151.8633"/><rect fill="#FFFFFF" height="31.291" style="stroke:#181818;stroke-width:1.0;" width="10" x="487" y="175.1543"/><rect fill="#FFFFFF" height="48.582" style="stroke:#181818;stroke-width:1.0;" width="10" x="487" y="237.7363"/><rect fill="#FFFFFF" height="31.291" style="stroke:#181818;stroke-width:1.0;" width="10" x="487" y="317.6094"/><rect fill="#FFFFFF" height="31.291" style="stroke:#181818;stroke-width:1.0;" width="10" x="487" y="432.7734"/><rect fill="#FFFFFF" height="31.291" style="stroke:#181818;stroke-width:1.0;" width="10" x="487" y="518.9863"/><rect fill="none" height="194.377" style="stroke:#000000;stroke-width:1.5;" width="534" x="10" y="363.9004"/><rect fill="none" height="81.873" style="stroke:#000000;stroke-width:1.5;" width="514" x="20" y="390.1914"/><line style="stroke:#181818;stroke-width:0.5;stroke-dasharray:5.0,5.0;" x1="91" x2="91" y1="141.8633" y2="575.2773"/><line style="stroke:#181818;stroke-width:0.5;stroke-dasharray:5.0,5.0;" x1="492" x2="492" y1="141.8633" y2="575.2773"/><text fill="#000000" font-family="sans-serif" font-size="14" lengthAdjust="spacing" textLength="116" x="30" y="119.7285">Human Resources</text><text fill="#000000" font-family="sans-serif" font-size="14" lengthAdjust="spacing" textLength="56" x="60" y="138.3496">Manager</text><ellipse cx="91" cy="53.1211" fill="#E3E3E3" rx="8" ry="8" style="stroke:#181818;stroke-width:0.5;"/><path d="M91,61.1211 L91,88.1211 M78,69.1211 L104,69.1211 M91,88.1211 L78,103.1211 M91,88.1211 L104,103.1211 " fill="none" style="stroke:#181818;stroke-width:0.5;"/><text fill="#000000" font-family="sans-serif" font-size="14" lengthAdjust="spacing" textLength="116" x="30" y="589.3848">Human Resources</text><text fill="#000000" font-family="sans-serif" font-size="14" lengthAdjust="spacing" textLength="56" x="60" y="608.0059">Manager</text><ellipse cx="91" cy="620.0195" fill="#E3E3E3" rx="8" ry="8" style="stroke:#181818;stroke-width:0.5;"/><path d="M91,628.0195 L91,655.0195 M78,636.0195 L104,636.0195 M91,655.0195 L78,670.0195 M91,655.0195 L104,670.0195 " fill="none" style="stroke:#181818;stroke-width:0.5;"/><rect fill="#E3E3E3" height="32.6211" rx="2.5" ry="2.5" style="stroke:#181818;stroke-width:0.5;" width="64" x="460" y="108.2422"/><text fill="#000000" font-family="sans-serif" font-size="14" lengthAdjust="spacing" textLength="50" x="467" y="130.3496">:System</text><rect fill="#E3E3E3" height="32.6211" rx="2.5" ry="2.5" style="stroke:#181818;stroke-width:0.5;" width="64" x="460" y="574.2773"/><text fill="#000000" font-family="sans-serif" font-size="14" lengthAdjust="spacing" textLength="50" x="467" y="596.3848">:System</text><rect fill="#FFFFFF" height="414.4141" style="stroke:#181818;stroke-width:1.0;" width="10" x="86" y="151.8633"/><rect fill="#FFFFFF" height="31.291" style="stroke:#181818;stroke-width:1.0;" width="10" x="487" y="175.1543"/><rect fill="#FFFFFF" height="48.582" style="stroke:#181818;stroke-width:1.0;" width="10" x="487" y="237.7363"/><rect fill="#FFFFFF" height="31.291" style="stroke:#181818;stroke-width:1.0;" width="10" x="487" y="317.6094"/><rect fill="#FFFFFF" height="31.291" style="stroke:#181818;stroke-width:1.0;" width="10" x="487" y="432.7734"/><rect fill="#FFFFFF" height="31.291" style="stroke:#181818;stroke-width:1.0;" width="10" x="487" y="518.9863"/><polygon fill="#181818" points="475,171.1543,485,175.1543,475,179.1543,479,175.1543" style="stroke:#181818;stroke-width:1.0;"/><line style="stroke:#181818;stroke-width:1.0;" x1="96" x2="481" y1="175.1543" y2="175.1543"/><text fill="#000000" font-family="sans-serif" font-size="13" font-weight="bold" lengthAdjust="spacing" textLength="7" x="103" y="169.8916">1</text><text fill="#000000" font-family="sans-serif" font-size="13" lengthAdjust="spacing" textLength="154" x="114" y="169.8916">asks to create a new team</text><polygon fill="#181818" points="107,202.4453,97,206.4453,107,210.4453,103,206.4453" style="stroke:#181818;stroke-width:1.0;"/><line style="stroke:#181818;stroke-width:1.0;stroke-dasharray:2.0,2.0;" x1="101" x2="491" y1="206.4453" y2="206.4453"/><text fill="#000000" font-family="sans-serif" font-size="13" font-weight="bold" lengthAdjust="spacing" textLength="7" x="113" y="201.1826">2</text><text fill="#000000" font-family="sans-serif" font-size="13" lengthAdjust="spacing" textLength="356" x="124" y="201.1826">requests which is the maximum number of team collaborators</text><polygon fill="#181818" points="475,233.7363,485,237.7363,475,241.7363,479,237.7363" style="stroke:#181818;stroke-width:1.0;"/><line style="stroke:#181818;stroke-width:1.0;" x1="96" x2="481" y1="237.7363" y2="237.7363"/><text fill="#000000" font-family="sans-serif" font-size="13" font-weight="bold" lengthAdjust="spacing" textLength="7" x="103" y="232.4736">3</text><text fill="#000000" font-family="sans-serif" font-size="13" lengthAdjust="spacing" textLength="287" x="114" y="232.4736">types the maximum number of team collaborators</text><polygon fill="#181818" points="107,282.3184,97,286.3184,107,290.3184,103,286.3184" style="stroke:#181818;stroke-width:1.0;"/><line style="stroke:#181818;stroke-width:1.0;stroke-dasharray:2.0,2.0;" x1="101" x2="491" y1="286.3184" y2="286.3184"/><text fill="#000000" font-family="sans-serif" font-size="13" font-weight="bold" lengthAdjust="spacing" textLength="7" x="113" y="272.4102">4</text><text fill="#000000" font-family="sans-serif" font-size="13" lengthAdjust="spacing" textLength="211" x="124" y="263.7646">requests which are the skills needed</text><text fill="#000000" font-family="sans-serif" font-size="13" lengthAdjust="spacing" textLength="244" x="124" y="281.0557">(i.e. 4 tree pruner and 1 light vehicle driver)</text><polygon fill="#181818" points="475,313.6094,485,317.6094,475,321.6094,479,317.6094" style="stroke:#181818;stroke-width:1.0;"/><line style="stroke:#181818;stroke-width:1.0;" x1="96" x2="481" y1="317.6094" y2="317.6094"/><text fill="#000000" font-family="sans-serif" font-size="13" font-weight="bold" lengthAdjust="spacing" textLength="7" x="103" y="312.3467">5</text><text fill="#000000" font-family="sans-serif" font-size="13" lengthAdjust="spacing" textLength="134" x="114" y="312.3467">types the skills needed</text><polygon fill="#181818" points="107,344.9004,97,348.9004,107,352.9004,103,348.9004" style="stroke:#181818;stroke-width:1.0;"/><line style="stroke:#181818;stroke-width:1.0;stroke-dasharray:2.0,2.0;" x1="101" x2="491" y1="348.9004" y2="348.9004"/><text fill="#000000" font-family="sans-serif" font-size="13" font-weight="bold" lengthAdjust="spacing" textLength="7" x="113" y="343.6377">6</text><text fill="#000000" font-family="sans-serif" font-size="13" lengthAdjust="spacing" textLength="147" x="124" y="343.6377">generate a team proposal</text><path d="M10,363.9004 L71,363.9004 L71,373.1914 L61,383.1914 L10,383.1914 L10,363.9004 " fill="#EEEEEE" style="stroke:#000000;stroke-width:1.5;"/><rect fill="none" height="194.377" style="stroke:#000000;stroke-width:1.5;" width="534" x="10" y="363.9004"/><text fill="#000000" font-family="sans-serif" font-size="13" font-weight="bold" lengthAdjust="spacing" textLength="16" x="25" y="378.9287">alt</text><text fill="#000000" font-family="sans-serif" font-size="11" font-weight="bold" lengthAdjust="spacing" textLength="164" x="86" y="377.7705">[team proposal not approved]</text><path d="M20,390.1914 L93,390.1914 L93,399.4824 L83,409.4824 L20,409.4824 L20,390.1914 " fill="#EEEEEE" style="stroke:#000000;stroke-width:1.5;"/><rect fill="none" height="81.873" style="stroke:#000000;stroke-width:1.5;" width="514" x="20" y="390.1914"/><text fill="#000000" font-family="sans-serif" font-size="13" font-weight="bold" lengthAdjust="spacing" textLength="28" x="35" y="405.2197">loop</text><text fill="#000000" font-family="sans-serif" font-size="11" font-weight="bold" lengthAdjust="spacing" textLength="153" x="108" y="404.0615">[regenerate team proposal]</text><polygon fill="#181818" points="475,428.7734,485,432.7734,475,436.7734,479,432.7734" style="stroke:#181818;stroke-width:1.0;"/><line style="stroke:#181818;stroke-width:1.0;" x1="96" x2="481" y1="432.7734" y2="432.7734"/><text fill="#000000" font-family="sans-serif" font-size="13" font-weight="bold" lengthAdjust="spacing" textLength="7" x="103" y="427.5107">7</text><text fill="#000000" font-family="sans-serif" font-size="13" lengthAdjust="spacing" textLength="147" x="114" y="427.5107">regenerate team proposal</text><polygon fill="#181818" points="107,460.0645,97,464.0645,107,468.0645,103,464.0645" style="stroke:#181818;stroke-width:1.0;"/><line style="stroke:#181818;stroke-width:1.0;stroke-dasharray:2.0,2.0;" x1="101" x2="491" y1="464.0645" y2="464.0645"/><text fill="#000000" font-family="sans-serif" font-size="13" font-weight="bold" lengthAdjust="spacing" textLength="7" x="113" y="458.8018">8</text><text fill="#000000" font-family="sans-serif" font-size="13" lengthAdjust="spacing" textLength="206" x="124" y="458.8018">displays regenerated team proposal</text><line style="stroke:#000000;stroke-width:1.0;stroke-dasharray:2.0,2.0;" x1="10" x2="544" y1="480.0645" y2="480.0645"/><text fill="#000000" font-family="sans-serif" font-size="11" font-weight="bold" lengthAdjust="spacing" textLength="143" x="15" y="491.9346">[team proposal approved]</text><polygon fill="#181818" points="475,514.9863,485,518.9863,475,522.9863,479,518.9863" style="stroke:#181818;stroke-width:1.0;"/><line style="stroke:#181818;stroke-width:1.0;" x1="96" x2="481" y1="518.9863" y2="518.9863"/><text fill="#000000" font-family="sans-serif" font-size="13" font-weight="bold" lengthAdjust="spacing" textLength="7" x="103" y="513.7236">9</text><text fill="#000000" font-family="sans-serif" font-size="13" lengthAdjust="spacing" textLength="196" x="114" y="513.7236">confirms generated team proposal</text><polygon fill="#181818" points="107,546.2773,97,550.2773,107,554.2773,103,550.2773" style="stroke:#181818;stroke-width:1.0;"/><line style="stroke:#181818;stroke-width:1.0;stroke-dasharray:2.0,2.0;" x1="101" x2="491" y1="550.2773" y2="550.2773"/><text fill="#000000" font-family="sans-serif" font-size="13" font-weight="bold" lengthAdjust="spacing" textLength="14" x="113" y="545.0146">10</text><text fill="#000000" font-family="sans-serif" font-size="13" lengthAdjust="spacing" textLength="158" x="131" y="545.0146">displays operation success</text><!--SRC=[fPGnK-Cm48Lx_ugTL53033DNfRYAWeO6jpIBlB4raRH2kqek__xMTfA119W0gkJHs_VsMzcMjKyP2qQ8dDWDXIE1bagD74yokZNsrEek41HoYgaFRmKoOCTRdtfOOH1g6lLgqdOdIX5QUgsK7C6zntwKNxNj_NNJO5LEDRvGiRrJBh1ug14JF95mBOxaEJrYikIo01HuU7fiB4-zyncJmc8v1qo7ytOoyXjKcjGDsB8DtFmzDBCqyLf06LoXKOUGQ0jA62VriVvW2Fkrhxyngz5nQOCmB561xU3T0DvC1uA8_toi4MOmuDLa3Ov3m1SkQ9WoUNRqOTHfjxhBz4td7oDWeId9BZO4iRbGHzrpklAtT0j_xAqWWbngidHC7Tn1yFsWi26hjklkYjzGkVuPtRlCRsBqP2tDTpcD91VEB1Y-wWI3lXT3OWNCzhZPDp2km9njJCU4S__3EaMxgEXJnazPEoyvu4xU-7TV19pJ7quepPHa7-p99CwcSChcEAryYGANjF0BHiwZk-S4Kftz3-G2jf7hFm00]--></g></svg>