<?xml version="1.0" encoding="us-ascii" standalone="no"?><svg xmlns="http://www.w3.org/2000/svg" xmlns:xlink="http://www.w3.org/1999/xlink" contentStyleType="text/css" height="581px" preserveAspectRatio="none" style="width:427px;height:581px;background:#FFFFFF;" version="1.1" viewBox="0 0 427 581" width="427px" zoomAndPan="magnify"><defs/><g><text fill="#000000" font-family="sans-serif" font-size="14" font-weight="bold" lengthAdjust="spacing" textLength="228" x="101" y="30.1074">System Sequence Diagram (SSD)</text><rect fill="#FFFFFF" height="319.2012" style="stroke:#181818;stroke-width:1.0;" width="10" x="76" y="151.8633"/><rect fill="#FFFFFF" height="48.582" style="stroke:#181818;stroke-width:1.0;" width="10" x="374" y="175.1543"/><rect fill="#FFFFFF" height="57.582" style="stroke:#181818;stroke-width:1.0;" width="10" x="374" y="272.3184"/><rect fill="#FFFFFF" height="38.291" style="stroke:#181818;stroke-width:1.0;" width="10" x="374" y="361.1914"/><rect fill="#FFFFFF" height="31.291" style="stroke:#181818;stroke-width:1.0;" width="10" x="374" y="430.7734"/><rect fill="none" height="81.873" style="stroke:#000000;stroke-width:1.5;" width="411" x="10" y="287.3184"/><line style="stroke:#181818;stroke-width:0.5;stroke-dasharray:5.0,5.0;" x1="81" x2="81" y1="141.8633" y2="480.0645"/><line style="stroke:#181818;stroke-width:0.5;stroke-dasharray:5.0,5.0;" x1="379" x2="379" y1="141.8633" y2="480.0645"/><text fill="#000000" font-family="sans-serif" font-size="14" lengthAdjust="spacing" textLength="116" x="20" y="119.7285">Human Resources</text><text fill="#000000" font-family="sans-serif" font-size="14" lengthAdjust="spacing" textLength="56" x="50" y="138.3496">Manager</text><ellipse cx="81" cy="53.1211" fill="#E3E3E3" rx="8" ry="8" style="stroke:#181818;stroke-width:0.5;"/><path d="M81,61.1211 L81,88.1211 M68,69.1211 L94,69.1211 M81,88.1211 L68,103.1211 M81,88.1211 L94,103.1211 " fill="none" style="stroke:#181818;stroke-width:0.5;"/><text fill="#000000" font-family="sans-serif" font-size="14" lengthAdjust="spacing" textLength="116" x="20" y="494.1719">Human Resources</text><text fill="#000000" font-family="sans-serif" font-size="14" lengthAdjust="spacing" textLength="56" x="50" y="512.793">Manager</text><ellipse cx="81" cy="524.8066" fill="#E3E3E3" rx="8" ry="8" style="stroke:#181818;stroke-width:0.5;"/><path d="M81,532.8066 L81,559.8066 M68,540.8066 L94,540.8066 M81,559.8066 L68,574.8066 M81,559.8066 L94,574.8066 " fill="none" style="stroke:#181818;stroke-width:0.5;"/><rect fill="#E3E3E3" height="32.6211" rx="2.5" ry="2.5" style="stroke:#181818;stroke-width:0.5;" width="64" x="347" y="108.2422"/><text fill="#000000" font-family="sans-serif" font-size="14" lengthAdjust="spacing" textLength="50" x="354" y="130.3496">:System</text><rect fill="#E3E3E3" height="32.6211" rx="2.5" ry="2.5" style="stroke:#181818;stroke-width:0.5;" width="64" x="347" y="479.0645"/><text fill="#000000" font-family="sans-serif" font-size="14" lengthAdjust="spacing" textLength="50" x="354" y="501.1719">:System</text><rect fill="#FFFFFF" height="319.2012" style="stroke:#181818;stroke-width:1.0;" width="10" x="76" y="151.8633"/><rect fill="#FFFFFF" height="48.582" style="stroke:#181818;stroke-width:1.0;" width="10" x="374" y="175.1543"/><rect fill="#FFFFFF" height="57.582" style="stroke:#181818;stroke-width:1.0;" width="10" x="374" y="272.3184"/><rect fill="#FFFFFF" height="38.291" style="stroke:#181818;stroke-width:1.0;" width="10" x="374" y="361.1914"/><rect fill="#FFFFFF" height="31.291" style="stroke:#181818;stroke-width:1.0;" width="10" x="374" y="430.7734"/><polygon fill="#181818" points="362,171.1543,372,175.1543,362,179.1543,366,175.1543" style="stroke:#181818;stroke-width:1.0;"/><line style="stroke:#181818;stroke-width:1.0;" x1="86" x2="368" y1="175.1543" y2="175.1543"/><text fill="#000000" font-family="sans-serif" font-size="13" font-weight="bold" lengthAdjust="spacing" textLength="7" x="93" y="169.8916">1</text><text fill="#000000" font-family="sans-serif" font-size="13" lengthAdjust="spacing" textLength="194" x="104" y="169.8916">asks to generate a team proposal</text><polygon fill="#181818" points="97,219.7363,87,223.7363,97,227.7363,93,223.7363" style="stroke:#181818;stroke-width:1.0;"/><line style="stroke:#181818;stroke-width:1.0;stroke-dasharray:2.0,2.0;" x1="91" x2="378" y1="223.7363" y2="223.7363"/><text fill="#000000" font-family="sans-serif" font-size="13" font-weight="bold" lengthAdjust="spacing" textLength="7" x="103" y="209.8281">2</text><text fill="#000000" font-family="sans-serif" font-size="13" lengthAdjust="spacing" textLength="205" x="114" y="201.1826">requests which is the minimum and</text><text fill="#000000" font-family="sans-serif" font-size="13" lengthAdjust="spacing" textLength="229" x="118" y="218.4736">maximum number of team collaborators</text><polygon fill="#181818" points="362,268.3184,372,272.3184,362,276.3184,366,272.3184" style="stroke:#181818;stroke-width:1.0;"/><line style="stroke:#181818;stroke-width:1.0;" x1="86" x2="368" y1="272.3184" y2="272.3184"/><text fill="#000000" font-family="sans-serif" font-size="13" font-weight="bold" lengthAdjust="spacing" textLength="7" x="93" y="258.4102">3</text><text fill="#000000" font-family="sans-serif" font-size="13" lengthAdjust="spacing" textLength="258" x="104" y="249.7646">types the minimum and maximum number of</text><text fill="#000000" font-family="sans-serif" font-size="13" lengthAdjust="spacing" textLength="107" x="108" y="267.0557">team collaborators</text><path d="M10,287.3184 L83,287.3184 L83,296.6094 L73,306.6094 L10,306.6094 L10,287.3184 " fill="#EEEEEE" style="stroke:#000000;stroke-width:1.5;"/><rect fill="none" height="81.873" style="stroke:#000000;stroke-width:1.5;" width="411" x="10" y="287.3184"/><text fill="#000000" font-family="sans-serif" font-size="13" font-weight="bold" lengthAdjust="spacing" textLength="28" x="25" y="302.3467">loop</text><text fill="#000000" font-family="sans-serif" font-size="11" font-weight="bold" lengthAdjust="spacing" textLength="90" x="98" y="301.1885">[while intended]</text><polygon fill="#181818" points="97,325.9004,87,329.9004,97,333.9004,93,329.9004" style="stroke:#181818;stroke-width:1.0;"/><line style="stroke:#181818;stroke-width:1.0;stroke-dasharray:2.0,2.0;" x1="91" x2="378" y1="329.9004" y2="329.9004"/><text fill="#000000" font-family="sans-serif" font-size="13" font-weight="bold" lengthAdjust="spacing" textLength="7" x="103" y="324.6377">4</text><text fill="#000000" font-family="sans-serif" font-size="13" lengthAdjust="spacing" textLength="211" x="114" y="324.6377">requests which are the skills needed</text><polygon fill="#181818" points="362,357.1914,372,361.1914,362,365.1914,366,361.1914" style="stroke:#181818;stroke-width:1.0;"/><line style="stroke:#181818;stroke-width:1.0;" x1="86" x2="368" y1="361.1914" y2="361.1914"/><text fill="#000000" font-family="sans-serif" font-size="13" font-weight="bold" lengthAdjust="spacing" textLength="7" x="93" y="355.9287">5</text><text fill="#000000" font-family="sans-serif" font-size="13" lengthAdjust="spacing" textLength="81" x="104" y="355.9287">types the skill</text><polygon fill="#181818" points="97,395.4824,87,399.4824,97,403.4824,93,399.4824" style="stroke:#181818;stroke-width:1.0;"/><line style="stroke:#181818;stroke-width:1.0;stroke-dasharray:2.0,2.0;" x1="91" x2="378" y1="399.4824" y2="399.4824"/><text fill="#000000" font-family="sans-serif" font-size="13" font-weight="bold" lengthAdjust="spacing" textLength="7" x="103" y="394.2197">6</text><text fill="#000000" font-family="sans-serif" font-size="13" lengthAdjust="spacing" textLength="216" x="114" y="394.2197">shows and aks to confirm all the data</text><polygon fill="#181818" points="362,426.7734,372,430.7734,362,434.7734,366,430.7734" style="stroke:#181818;stroke-width:1.0;"/><line style="stroke:#181818;stroke-width:1.0;" x1="86" x2="368" y1="430.7734" y2="430.7734"/><text fill="#000000" font-family="sans-serif" font-size="13" font-weight="bold" lengthAdjust="spacing" textLength="7" x="93" y="425.5107">7</text><text fill="#000000" font-family="sans-serif" font-size="13" lengthAdjust="spacing" textLength="117" x="104" y="425.5107">confirms all the data</text><polygon fill="#181818" points="97,458.0645,87,462.0645,97,466.0645,93,462.0645" style="stroke:#181818;stroke-width:1.0;"/><line style="stroke:#181818;stroke-width:1.0;stroke-dasharray:2.0,2.0;" x1="91" x2="378" y1="462.0645" y2="462.0645"/><text fill="#000000" font-family="sans-serif" font-size="13" font-weight="bold" lengthAdjust="spacing" textLength="7" x="103" y="456.8018">8</text><text fill="#000000" font-family="sans-serif" font-size="13" lengthAdjust="spacing" textLength="158" x="114" y="456.8018">displays operation success</text><!--SRC=[bPAzLiCm38NtF8LE9nXuWGvC32miP6LH7JNngIq5Iw7qxL6SjgVyb0EUdFZwVhgoT1Tvn88Pih24eKWci39He-UJ4SCEUshja0WA1KFkqwL01-na7xc7BIQbfh5eBcqFQfIXfTU9E10yHEnd-KtRFjms3KucFEKD5Ty7amAhnoaZmpEfJ2MGll0JifFB2b3XyVcfSPx544TaWzLw0TJ3PLkDuXiQLNK3ldm3T_UdOjOktYcOG4zCPLOY6CqfYuoYcEgbiyt95uxhQ7FdZhFnsllXwTGKzaCC0qJt7WXov9Yd3CZT2qF6z_grf0NPBiGWAU56l0WfMWaT_GZ-6i4E8ttZVASu-GhdHqeI6USK_dAHZRYZxXpxBz6nKAt9vo8b1IQwTBWIxVTurUgi-sem__CoVtaS7MIljJcuF7eGtiRY_Kgf0Zeq_4_dZ_Vram7ySsIwg6F2WuACymH6OT0f-BnV7O8F]--></g></svg>