<?xml version="1.0" encoding="us-ascii" standalone="no"?><svg xmlns="http://www.w3.org/2000/svg" xmlns:xlink="http://www.w3.org/1999/xlink" contentStyleType="text/css" height="636.3px" preserveAspectRatio="none" style="width:493px;height:636px;background:#FFFFFF;" version="1.1" viewBox="0 0 493 636" width="493.2px" zoomAndPan="magnify"><defs/><g><!--cluster actors--><g id="cluster_actors"><rect fill="none" height="624.6" rx="2.25" ry="2.25" style="stroke:#FFFF00;stroke-width:0.9;" width="284.4" x="203.4" y="6.3"/><text fill="#000000" font-family="sans-serif" font-size="12.6" font-weight="bold" lengthAdjust="spacing" textLength="117.9" x="286.65" y="21.6967">Integrating Project</text></g><g id="elem_UC1"><ellipse cx="345.5601" cy="57.592" fill="#F1F1F1" rx="79.1601" ry="17.992" style="stroke:#181818;stroke-width:0.45;"/><text fill="#000000" font-family="sans-serif" font-size="12.6" lengthAdjust="spacing" textLength="116.1" x="284.8101" y="61.9154">UC1 - Register Skills</text></g><g id="elem_UC2"><ellipse cx="345.6359" cy="124.3872" fill="#F1F1F1" rx="75.6359" ry="17.2872" style="stroke:#181818;stroke-width:0.45;"/><text fill="#000000" font-family="sans-serif" font-size="12.6" lengthAdjust="spacing" textLength="107.1" x="289.3859" y="128.7105">UC2 - Register Job</text></g><g id="elem_UC3"><ellipse cx="345.6232" cy="200.5246" fill="#F1F1F1" rx="127.8232" ry="27.7246" style="stroke:#181818;stroke-width:0.45;"/><text fill="#000000" font-family="sans-serif" font-size="12.6" lengthAdjust="spacing" textLength="225" x="233.1232" y="203.9418">UC3 - Register Collaborator Job &amp; Skills</text></g><g id="elem_UC4"><ellipse cx="345.6392" cy="282.6978" fill="#F1F1F1" rx="99.9392" ry="22.1478" style="stroke:#181818;stroke-width:0.45;"/><text fill="#000000" font-family="sans-serif" font-size="12.6" lengthAdjust="spacing" textLength="164.7" x="263.2892" y="286.115">UC4 - Add Collaborator Skills</text></g><g id="elem_UC5"><ellipse cx="345.3948" cy="360.139" fill="#F1F1F1" rx="106.8948" ry="23.539" style="stroke:#181818;stroke-width:0.45;"/><text fill="#000000" font-family="sans-serif" font-size="12.6" lengthAdjust="spacing" textLength="180" x="255.3948" y="363.5561">UC5 - Generate Team Proposal</text></g><g id="elem_UC6"><ellipse cx="345.7054" cy="433.9111" fill="#F1F1F1" rx="84.2554" ry="19.0111" style="stroke:#181818;stroke-width:0.45;"/><text fill="#000000" font-family="sans-serif" font-size="12.6" lengthAdjust="spacing" textLength="128.7" x="278.6554" y="438.2344">UC6 - Register Vehicle</text></g><g id="elem_UC7"><ellipse cx="345.7584" cy="509.4317" fill="#F1F1F1" rx="113.1084" ry="24.7817" style="stroke:#181818;stroke-width:0.45;"/><text fill="#000000" font-family="sans-serif" font-size="12.6" lengthAdjust="spacing" textLength="193.5" x="249.0084" y="512.8489">UC7 - Register Vehicles Check-up</text></g><g id="elem_UC8"><ellipse cx="345.5611" cy="591.3822" fill="#F1F1F1" rx="115.6111" ry="25.2822" style="stroke:#181818;stroke-width:0.45;"/><text fill="#000000" font-family="sans-serif" font-size="12.6" lengthAdjust="spacing" textLength="198.9" x="246.1111" y="594.7994">UC8 - List Vehicles Need Check-up</text></g><!--entity HRM--><g id="elem_HRM"><ellipse cx="84.6" cy="172.8" fill="#F1F1F1" rx="7.2" ry="7.2" style="stroke:#181818;stroke-width:0.45;"/><path d="M84.6,180 L84.6,204.3 M72.9,187.2 L96.3,187.2 M84.6,204.3 L72.9,217.8 M84.6,204.3 L96.3,217.8 " fill="none" style="stroke:#181818;stroke-width:0.45;"/><text fill="#000000" font-family="sans-serif" font-size="12.6" lengthAdjust="spacing" textLength="158.4" x="5.4" y="232.7467">Human Resources Manager</text></g><!--entity VFM--><g id="elem_VFM"><ellipse cx="84.6" cy="481.5" fill="#F1F1F1" rx="7.2" ry="7.2" style="stroke:#181818;stroke-width:0.45;"/><path d="M84.6,488.7 L84.6,513 M72.9,495.9 L96.3,495.9 M84.6,513 L72.9,526.5 M84.6,513 L96.3,526.5 " fill="none" style="stroke:#181818;stroke-width:0.45;"/><text fill="#000000" font-family="sans-serif" font-size="12.6" lengthAdjust="spacing" textLength="127.8" x="20.7" y="541.4467">Vehicle Fleet Manager</text></g><!--link HRM to UC1--><g id="link_HRM_UC1"><path d="M112.401,164.97 C132.759,140.454 162.837,109.161 196.2,90.9 C219.834,77.958 248.211,70.038 273.798,65.205 " fill="none" id="HRM-UC1" style="stroke:#181818;stroke-width:0.9;"/></g><!--link HRM to UC2--><g id="link_HRM_UC2"><path d="M163.854,167.652 C174.618,163.647 185.616,159.84 196.2,156.6 C225.342,147.681 258.417,140.22 285.948,134.703 " fill="none" id="HRM-UC2" style="stroke:#181818;stroke-width:0.9;"/></g><!--link HRM to UC3--><g id="link_HRM_UC3"><path d="M163.971,200.7 C180.954,200.7 199.341,200.7 217.656,200.7 " fill="none" id="HRM-UC3" style="stroke:#181818;stroke-width:0.9;"/></g><!--link HRM to UC4--><g id="link_HRM_UC4"><path d="M164.007,232.641 C174.753,236.628 185.697,240.498 196.2,243.9 C222.174,252.324 251.163,260.208 276.579,266.625 " fill="none" id="HRM-UC4" style="stroke:#181818;stroke-width:0.9;"/></g><!--link HRM to UC5--><g id="link_HRM_UC5"><path d="M109.854,236.466 C129.987,263.376 160.929,299.133 196.2,320.4 C215.28,331.902 237.717,340.119 259.281,345.96 " fill="none" id="HRM-UC5" style="stroke:#181818;stroke-width:0.9;"/></g><!--link VFM to UC6--><g id="link_VFM_UC6"><path d="M148.581,484.857 C164.034,479.25 180.621,473.571 196.2,468.9 C224.496,460.413 256.311,452.664 283.212,446.616 " fill="none" id="VFM-UC6" style="stroke:#181818;stroke-width:0.9;"/></g><!--link VFM to UC7--><g id="link_VFM_UC7"><path d="M148.572,509.4 C173.826,509.4 203.697,509.4 232.416,509.4 " fill="none" id="VFM-UC7" style="stroke:#181818;stroke-width:0.9;"/></g><!--link VFM to UC8--><g id="link_VFM_UC8"><path d="M148.716,533.502 C164.169,539.127 180.711,544.914 196.2,549.9 C220.401,557.685 247.095,565.398 271.089,572.013 " fill="none" id="VFM-UC8" style="stroke:#181818;stroke-width:0.9;"/></g><!--SRC=[RT9DKuCm40RWUtx53WTxuc2_huhMwbZ7QMtlAMmX4X8c2LCxZl_T1HaA0WSEPFV9kmaZcmgLSyCpoBJIOM9qXk1CWUowalCmvJ7kt4KY60mTLx54DhfMs8H7-YnK32SkBR9MSrF_pO2UUsqYD86Msi05fTHdziFOo0b7zjuY19nU3uB7PVFZ5yzoseg7ZkgzTP5n1LkqkZ0XMjXmHRcC1zp2Uhkfoy0xO292ybOIqNMg3giDatXou3GO4ISE8b4c55enraG5xravf0Ik7EdTw4zQgVgh7IpypL8-XSMmJEpjWrlmALiih4C3krH8QQiUMcdAAINuVkTJInYtXHTzhDl7_VRnKFkatKv7BFbHqmowik2ccsdIHoT3w9JGkoZgUXrfsfUcGzACf2TKI0J21zBrqidcsd9PGxC-D1k2vkqvwxkkYNbJJpVzHyo7YCK0OI58C4pz8g-nHHzR365Bmbw9ka9lYD5_RTdNbkM__mi0]--></g></svg>