<?xml version="1.0" encoding="us-ascii" standalone="no"?><svg xmlns="http://www.w3.org/2000/svg" xmlns:xlink="http://www.w3.org/1999/xlink" contentStyleType="text/css" height="727px" preserveAspectRatio="none" style="width:848px;height:727px;background:#FFFFFF;" version="1.1" viewBox="0 0 848 727" width="848px" zoomAndPan="magnify"><defs/><g><!--cluster actors--><g id="cluster_actors"><rect fill="none" height="714" rx="2.5" ry="2.5" style="stroke:#FFFF00;stroke-width:1.0;" width="316" x="226" y="7"/><text fill="#000000" font-family="sans-serif" font-size="14" font-weight="bold" lengthAdjust="spacing" textLength="131" x="318.5" y="24.1074">Integrating Project</text></g><g id="elem_UC1"><ellipse cx="384.0149" cy="73.803" fill="#F1F1F1" rx="134.5149" ry="29.303" style="stroke:#181818;stroke-width:0.5;"/><text fill="#000000" font-family="sans-serif" font-size="14" lengthAdjust="spacing" textLength="234" x="267.0149" y="77.5998">UC1 - Register Skills to Collaborators</text></g><g id="elem_UC2"><ellipse cx="384.0399" cy="158.208" fill="#F1F1F1" rx="84.0399" ry="19.208" style="stroke:#181818;stroke-width:0.5;"/><text fill="#000000" font-family="sans-serif" font-size="14" lengthAdjust="spacing" textLength="119" x="321.5399" y="163.0117">UC2 - Register Job</text></g><g id="elem_UC3"><ellipse cx="384.0257" cy="242.8051" fill="#F1F1F1" rx="142.0257" ry="30.8051" style="stroke:#181818;stroke-width:0.5;"/><text fill="#000000" font-family="sans-serif" font-size="14" lengthAdjust="spacing" textLength="250" x="259.0257" y="246.602">UC3 - Register Collaborator Job &amp; Skills</text></g><g id="elem_UC4"><ellipse cx="384.0435" cy="334.1087" fill="#F1F1F1" rx="111.0435" ry="24.6087" style="stroke:#181818;stroke-width:0.5;"/><text fill="#000000" font-family="sans-serif" font-size="14" lengthAdjust="spacing" textLength="183" x="292.5435" y="337.9056">UC4 - Add Collaborator Skills</text></g><g id="elem_UC5"><ellipse cx="383.772" cy="420.1544" fill="#F1F1F1" rx="118.772" ry="26.1544" style="stroke:#181818;stroke-width:0.5;"/><text fill="#000000" font-family="sans-serif" font-size="14" lengthAdjust="spacing" textLength="200" x="283.772" y="423.9513">UC5 - Generate Team Proposal</text></g><g id="elem_UC6"><ellipse cx="384.1171" cy="502.1234" fill="#F1F1F1" rx="93.6171" ry="21.1234" style="stroke:#181818;stroke-width:0.5;"/><text fill="#000000" font-family="sans-serif" font-size="14" lengthAdjust="spacing" textLength="143" x="309.6171" y="506.9271">UC6 - Register Vehicle</text></g><g id="elem_UC7"><ellipse cx="384.176" cy="586.0352" fill="#F1F1F1" rx="125.676" ry="27.5352" style="stroke:#181818;stroke-width:0.5;"/><text fill="#000000" font-family="sans-serif" font-size="14" lengthAdjust="spacing" textLength="215" x="276.676" y="589.8321">UC7 - Register Vehicles Check-up</text></g><g id="elem_UC8"><ellipse cx="383.9568" cy="677.0914" fill="#F1F1F1" rx="128.4568" ry="28.0914" style="stroke:#181818;stroke-width:0.5;"/><text fill="#000000" font-family="sans-serif" font-size="14" lengthAdjust="spacing" textLength="221" x="273.4568" y="680.8882">UC8 - List Vehicles Need Check-up</text></g><!--entity HRM--><g id="elem_HRM"><ellipse cx="94" cy="212" fill="#F1F1F1" rx="8" ry="8" style="stroke:#181818;stroke-width:0.5;"/><path d="M94,220 L94,247 M81,228 L107,228 M94,247 L81,262 M94,247 L107,262 " fill="none" style="stroke:#181818;stroke-width:0.5;"/><text fill="#000000" font-family="sans-serif" font-size="14" lengthAdjust="spacing" textLength="176" x="6" y="278.6074">Human Resources Manager</text></g><!--entity FM--><g id="elem_FM"><ellipse cx="94" cy="555" fill="#F1F1F1" rx="8" ry="8" style="stroke:#181818;stroke-width:0.5;"/><path d="M94,563 L94,590 M81,571 L107,571 M94,590 L81,605 M94,590 L107,605 " fill="none" style="stroke:#181818;stroke-width:0.5;"/><text fill="#000000" font-family="sans-serif" font-size="14" lengthAdjust="spacing" textLength="92" x="48" y="621.6074">Fleet Manager</text></g><!--entity New_Colaborator--><g id="elem_New_Colaborator"><ellipse cx="646" cy="201" fill="#F1F1F1" rx="8" ry="8" style="stroke:#181818;stroke-width:0.5;"/><path d="M646,209 L646,236 M633,217 L659,217 M646,236 L633,251 M646,236 L659,251 " fill="none" style="stroke:#181818;stroke-width:0.5;"/><text fill="#000000" font-family="sans-serif" font-size="14" lengthAdjust="spacing" textLength="105" x="593.5" y="267.6074">New Colaborator</text></g><!--entity Modify_Colaborator--><g id="elem_Modify_Colaborator"><ellipse cx="646" cy="315" fill="#F1F1F1" rx="8" ry="8" style="stroke:#181818;stroke-width:0.5;"/><path d="M646,323 L646,350 M633,331 L659,331 M646,350 L633,365 M646,350 L659,365 " fill="none" style="stroke:#181818;stroke-width:0.5;"/><text fill="#000000" font-family="sans-serif" font-size="14" lengthAdjust="spacing" textLength="120" x="586" y="381.6074">Modify Colaborator</text></g><!--entity Colaborator--><g id="elem_Colaborator"><ellipse cx="803.5" cy="258" fill="#F1F1F1" rx="8" ry="8" style="stroke:#181818;stroke-width:0.5;"/><path d="M803.5,266 L803.5,293 M790.5,274 L816.5,274 M803.5,293 L790.5,308 M803.5,293 L816.5,308 " fill="none" style="stroke:#181818;stroke-width:0.5;"/><text fill="#000000" font-family="sans-serif" font-size="14" lengthAdjust="spacing" textLength="75" x="766" y="324.6074">Colaborator</text></g><!--entity New_Vehicle--><g id="elem_New_Vehicle"><ellipse cx="646" cy="471" fill="#F1F1F1" rx="8" ry="8" style="stroke:#181818;stroke-width:0.5;"/><path d="M646,479 L646,506 M633,487 L659,487 M646,506 L633,521 M646,506 L659,521 " fill="none" style="stroke:#181818;stroke-width:0.5;"/><text fill="#000000" font-family="sans-serif" font-size="14" lengthAdjust="spacing" textLength="76" x="608" y="537.6074">New Vehicle</text></g><!--entity Vehicle_Overhaul--><g id="elem_Vehicle_Overhaul"><ellipse cx="646" cy="585" fill="#F1F1F1" rx="8" ry="8" style="stroke:#181818;stroke-width:0.5;"/><path d="M646,593 L646,620 M633,601 L659,601 M646,620 L633,635 M646,620 L659,635 " fill="none" style="stroke:#181818;stroke-width:0.5;"/><text fill="#000000" font-family="sans-serif" font-size="14" lengthAdjust="spacing" textLength="108" x="592" y="651.6074">Vehicle Overhaul</text></g><!--entity Vehicle--><g id="elem_Vehicle"><ellipse cx="803.5" cy="528" fill="#F1F1F1" rx="8" ry="8" style="stroke:#181818;stroke-width:0.5;"/><path d="M803.5,536 L803.5,563 M790.5,544 L816.5,544 M803.5,563 L790.5,578 M803.5,563 L816.5,578 " fill="none" style="stroke:#181818;stroke-width:0.5;"/><text fill="#000000" font-family="sans-serif" font-size="14" lengthAdjust="spacing" textLength="46" x="780.5" y="594.6074">Vehicle</text></g><!--link HRM to UC1--><g id="link_HRM_UC1"><path d="M125.74,203.36 C148.52,176.51 181.79,142.19 218,121 C237.92,109.34 255.1667,102.1763 277.5267,95.4163 " fill="none" id="HRM-to-UC1" style="stroke:#181818;stroke-width:1.0;"/><polygon fill="#181818" points="283.27,93.68,273.4975,92.4557,278.4839,95.1269,275.8127,100.1134,283.27,93.68" style="stroke:#181818;stroke-width:1.0;"/></g><!--link HRM to UC2--><g id="link_HRM_UC2"><path d="M182.06,206.28 C194.02,201.83 206.24,197.6 218,194 C250.38,184.09 281.247,176.9789 311.837,170.8489 " fill="none" id="HRM-to-UC2" style="stroke:#181818;stroke-width:1.0;"/><polygon fill="#181818" points="317.72,169.67,308.1095,167.5163,312.8175,170.6524,309.6814,175.3604,317.72,169.67" style="stroke:#181818;stroke-width:1.0;"/></g><!--link HRM to UC3--><g id="link_HRM_UC3"><path d="M182.19,243 C201.06,243 215.49,243 235.84,243 " fill="none" id="HRM-to-UC3" style="stroke:#181818;stroke-width:1.0;"/><polygon fill="#181818" points="241.84,243,232.84,239,236.84,243,232.84,247,241.84,243" style="stroke:#181818;stroke-width:1.0;"/></g><!--link HRM to UC4--><g id="link_HRM_UC4"><path d="M182.23,278.49 C194.17,282.92 206.33,287.22 218,291 C246.86,300.36 273.2526,307.6512 301.4926,314.7812 " fill="none" id="HRM-to-UC4" style="stroke:#181818;stroke-width:1.0;"/><polygon fill="#181818" points="307.31,316.25,299.563,310.1685,302.4621,315.026,297.6046,317.9251,307.31,316.25" style="stroke:#181818;stroke-width:1.0;"/></g><!--link HRM to UC5--><g id="link_HRM_UC5"><path d="M122.06,282.74 C144.43,312.64 178.81,352.37 218,376 C239.2,388.78 258.3387,396.3413 282.2987,402.8313 " fill="none" id="HRM-to-UC5" style="stroke:#181818;stroke-width:1.0;"/><polygon fill="#181818" points="288.09,404.4,280.4488,398.1861,283.2639,403.0928,278.3573,405.9079,288.09,404.4" style="stroke:#181818;stroke-width:1.0;"/></g><!--link FM to UC6--><g id="link_FM_UC6"><path d="M140.13,568.03 C163.2,559.22 191.86,548.84 218,541 C249.44,531.57 278.9361,524.2761 308.8261,517.5561 " fill="none" id="FM-to-UC6" style="stroke:#181818;stroke-width:1.0;"/><polygon fill="#181818" points="314.68,516.24,305.0218,514.3116,309.8018,517.3367,306.7766,522.1167,314.68,516.24" style="stroke:#181818;stroke-width:1.0;"/></g><!--link FM to UC7--><g id="link_FM_UC7"><path d="M140.32,586 C172.16,586 210.4,586 252.4,586 " fill="none" id="FM-to-UC7" style="stroke:#181818;stroke-width:1.0;"/><polygon fill="#181818" points="258.4,586,249.4,582,253.4,586,249.4,590,258.4,586" style="stroke:#181818;stroke-width:1.0;"/></g><!--link FM to UC8--><g id="link_FM_UC8"><path d="M140.27,603.53 C163.38,612.23 192.03,622.64 218,631 C244.89,639.65 268.7658,646.6253 295.4258,653.9753 " fill="none" id="FM-to-UC8" style="stroke:#181818;stroke-width:1.0;"/><polygon fill="#181818" points="301.21,655.57,293.5968,649.3219,296.3898,654.2411,291.4706,657.0341,301.21,655.57" style="stroke:#181818;stroke-width:1.0;"/></g><!--link UC3 to New_Colaborator--><g id="link_UC3_New_Colaborator"><path d="M523.75,237.13 C548.56,236.08 572.94,235.05 593.26,234.19 " fill="none" id="UC3-New_Colaborator" style="stroke:#181818;stroke-width:1.0;"/></g><!--link UC4 to Modify_Colaborator--><g id="link_UC4_Modify_Colaborator"><path d="M493,338.98 C524.82,340.45 558.44,342 585.95,343.27 " fill="none" id="UC4-Modify_Colaborator" style="stroke:#181818;stroke-width:1.0;"/></g><!--link New_Colaborator to Colaborator--><g id="link_New_Colaborator_Colaborator"><path d="M698.78,250.98 C720.69,259.01 740.0771,266.1135 760.0571,273.4435 " fill="none" id="New_Colaborator-to-Colaborator" style="stroke:#181818;stroke-width:1.0;"/><polygon fill="#181818" points="765.69,275.51,758.6183,268.655,760.9959,273.7879,755.863,276.1655,765.69,275.51" style="stroke:#181818;stroke-width:1.0;"/></g><!--link Modify_Colaborator to Colaborator--><g id="link_Modify_Colaborator_Colaborator"><path d="M706.23,324.29 C726.32,316.93 742.5164,310.9847 760.3064,304.4647 " fill="none" id="Modify_Colaborator-to-Colaborator" style="stroke:#181818;stroke-width:1.0;"/><polygon fill="#181818" points="765.94,302.4,756.1132,301.7413,761.2454,304.1206,758.8661,309.2527,765.94,302.4" style="stroke:#181818;stroke-width:1.0;"/></g><!--link UC6 to New_Vehicle--><g id="link_UC6_New_Vehicle"><path d="M477.76,502 C522.68,502 574.08,502 607.9,502 " fill="none" id="UC6-New_Vehicle" style="stroke:#181818;stroke-width:1.0;"/></g><!--link UC7 to Vehicle_Overhaul--><g id="link_UC7_Vehicle_Overhaul"><path d="M495.26,598.72 C528.76,602.59 564.04,606.66 591.94,609.88 " fill="none" id="UC7-Vehicle_Overhaul" style="stroke:#181818;stroke-width:1.0;"/></g><!--link UC8 to Vehicle_Overhaul--><g id="link_UC8_Vehicle_Overhaul"><path d="M472.3,656.52 C511.84,647.24 557.3,636.58 591.65,628.52 " fill="none" id="UC8-Vehicle_Overhaul" style="stroke:#181818;stroke-width:1.0;"/></g><!--link New_Vehicle to Vehicle--><g id="link_New_Vehicle_Vehicle"><path d="M684.25,515.65 C714.26,526.65 749.8063,539.6858 774.8063,548.8458 " fill="none" id="New_Vehicle-to-Vehicle" style="stroke:#181818;stroke-width:1.0;"/><polygon fill="#181818" points="780.44,550.91,773.3655,544.0579,775.7452,549.1898,770.6132,551.5695,780.44,550.91" style="stroke:#181818;stroke-width:1.0;"/></g><!--link Vehicle_Overhaul to Vehicle--><g id="link_Vehicle_Overhaul_Vehicle"><path d="M700.08,596.54 C727.53,586.48 753.9269,576.8061 774.7569,569.1661 " fill="none" id="Vehicle_Overhaul-to-Vehicle" style="stroke:#181818;stroke-width:1.0;"/><polygon fill="#181818" points="780.39,567.1,770.563,566.4438,775.6958,568.8217,773.3178,573.9545,780.39,567.1" style="stroke:#181818;stroke-width:1.0;"/></g><!--SRC=[TPDDZzCm48Rl_XMZ7kWf1_fzGe92MH1Tq2xBTULDfecf4qUsGwaG_vrnuhHEOto8b7VcVMR6aqpDKLGrrxo4KbKgBRGg4Qnka5qZDK-FFCT7UvO86bFBgrmYcrupJC4pTH9L3WSk3RB0VCd_mu3EEwKpr5ibbOOpIgbEx2zZKoiiiPyCmfRJuxtWkJD_-CtBcahnr5B-vAufUGKFQ5IZKpImvnNrfIV03Tmzx7qQJ7OIqGwYkpsJUB1W5MYH5nOouHeJgcBiqY5CFbKMgR1ratpJwYT5MdiBDj2Du4vZC7MDJfwsho6Xbd9XB6fuF0efZIj38qh-eWX6pXP2gHS_TGj9ycQW1SnPoFoiNhn_5l7FOlvvw0yxSJ1uvTlqr7c4EezH5qHzcsL3u02rYA0MCTIIK1-nGc8WV4TQDLrthGoNdhICa9OnqYeSzGSM8fNe6QjB_gv7h6A8TGHXO5jWUaoQsiFMOzWw1jiGx0kXhg1xnEoMjXdJDkv7-Dz7wd-0Upovs-ylluMHzXnehDr-Cf8zOQyoSJYF89rymrauJYJIeKBbfbWxKHWVGqOfmOJX5XtPlxDssSb0yYx_2bz_eIvuqtr4NdpkHTPkEedfcwZUmVjIGTcs-Lw_jGs2_m00]--></g></svg>