<?xml version="1.0" encoding="us-ascii" standalone="no"?><svg xmlns="http://www.w3.org/2000/svg" xmlns:xlink="http://www.w3.org/1999/xlink" contentStyleType="text/css" height="370px" preserveAspectRatio="none" style="width:873px;height:370px;background:#FFFFFF;" version="1.1" viewBox="0 0 873 370" width="873px" zoomAndPan="magnify"><defs/><g><!--class RegisterVehicleCheckUpUI--><g id="elem_RegisterVehicleCheckUpUI"><rect codeLine="11" fill="#F1F1F1" height="48" id="RegisterVehicleCheckUpUI" rx="2.5" ry="2.5" style="stroke:#181818;stroke-width:0.5;" width="200" x="340.5" y="7"/><ellipse cx="355.5" cy="23" fill="#ADD1B2" rx="11" ry="11" style="stroke:#181818;stroke-width:1.0;"/><path d="M358.2656,18.875 Q358.4219,18.6563 358.6094,18.5469 Q358.7969,18.4375 359.0156,18.4375 Q359.3906,18.4375 359.625,18.7031 Q359.8594,18.9531 359.8594,19.5625 L359.8594,21.0156 Q359.8594,21.625 359.625,21.8906 Q359.3906,22.1563 359.0156,22.1563 Q358.6719,22.1563 358.4688,21.9531 Q358.2656,21.7656 358.1563,21.25 Q358.1094,20.8906 357.9219,20.7031 Q357.5938,20.3281 356.9844,20.1094 Q356.375,19.8906 355.75,19.8906 Q354.9844,19.8906 354.3438,20.2188 Q353.7188,20.5469 353.2188,21.2969 Q352.7344,22.0469 352.7344,23.0781 L352.7344,24.1719 Q352.7344,25.4063 353.625,26.2344 Q354.5156,27.0469 356.1094,27.0469 Q357.0469,27.0469 357.7031,26.7969 Q358.0938,26.6406 358.5156,26.2031 Q358.7813,25.9375 358.9219,25.8594 Q359.0781,25.7813 359.2813,25.7813 Q359.6094,25.7813 359.8594,26.0469 Q360.125,26.2969 360.125,26.6406 Q360.125,26.9844 359.7813,27.3906 Q359.2813,27.9688 358.4844,28.2969 Q357.4063,28.75 356.1094,28.75 Q354.5938,28.75 353.3906,28.125 Q352.4063,27.625 351.7188,26.5625 Q351.0313,25.4844 351.0313,24.2031 L351.0313,23.0469 Q351.0313,21.7188 351.6406,20.5781 Q352.2656,19.4219 353.3594,18.8125 Q354.4531,18.1875 355.6875,18.1875 Q356.4219,18.1875 357.0625,18.3594 Q357.7188,18.5156 358.2656,18.875 Z " fill="#000000"/><text fill="#000000" font-family="sans-serif" font-size="14" lengthAdjust="spacing" textLength="168" x="369.5" y="28.7969">RegisterVehicleCheckUpUI</text><line style="stroke:#181818;stroke-width:0.5;" x1="341.5" x2="539.5" y1="39" y2="39"/><line style="stroke:#181818;stroke-width:0.5;" x1="341.5" x2="539.5" y1="47" y2="47"/></g><!--class RegistVehicleCheckUpController--><g id="elem_RegistVehicleCheckUpController"><rect codeLine="16" fill="#F1F1F1" height="85.2422" id="RegistVehicleCheckUpController" rx="2.5" ry="2.5" style="stroke:#181818;stroke-width:0.5;" width="237" x="322" y="115"/><ellipse cx="337" cy="131" fill="#ADD1B2" rx="11" ry="11" style="stroke:#181818;stroke-width:1.0;"/><path d="M339.7656,126.875 Q339.9219,126.6563 340.1094,126.5469 Q340.2969,126.4375 340.5156,126.4375 Q340.8906,126.4375 341.125,126.7031 Q341.3594,126.9531 341.3594,127.5625 L341.3594,129.0156 Q341.3594,129.625 341.125,129.8906 Q340.8906,130.1563 340.5156,130.1563 Q340.1719,130.1563 339.9688,129.9531 Q339.7656,129.7656 339.6563,129.25 Q339.6094,128.8906 339.4219,128.7031 Q339.0938,128.3281 338.4844,128.1094 Q337.875,127.8906 337.25,127.8906 Q336.4844,127.8906 335.8438,128.2188 Q335.2188,128.5469 334.7188,129.2969 Q334.2344,130.0469 334.2344,131.0781 L334.2344,132.1719 Q334.2344,133.4063 335.125,134.2344 Q336.0156,135.0469 337.6094,135.0469 Q338.5469,135.0469 339.2031,134.7969 Q339.5938,134.6406 340.0156,134.2031 Q340.2813,133.9375 340.4219,133.8594 Q340.5781,133.7813 340.7813,133.7813 Q341.1094,133.7813 341.3594,134.0469 Q341.625,134.2969 341.625,134.6406 Q341.625,134.9844 341.2813,135.3906 Q340.7813,135.9688 339.9844,136.2969 Q338.9063,136.75 337.6094,136.75 Q336.0938,136.75 334.8906,136.125 Q333.9063,135.625 333.2188,134.5625 Q332.5313,133.4844 332.5313,132.2031 L332.5313,131.0469 Q332.5313,129.7188 333.1406,128.5781 Q333.7656,127.4219 334.8594,126.8125 Q335.9531,126.1875 337.1875,126.1875 Q337.9219,126.1875 338.5625,126.3594 Q339.2188,126.5156 339.7656,126.875 Z " fill="#000000"/><text fill="#000000" font-family="sans-serif" font-size="14" lengthAdjust="spacing" textLength="205" x="351" y="136.7969">RegistVehicleCheckUpController</text><line style="stroke:#181818;stroke-width:0.5;" x1="323" x2="558" y1="147" y2="147"/><text fill="#000000" font-family="sans-serif" font-size="14" lengthAdjust="spacing" textLength="81" x="328" y="166.1074">-veichlePlate</text><line style="stroke:#181818;stroke-width:0.5;" x1="323" x2="558" y1="173.6211" y2="173.6211"/><text fill="#000000" font-family="sans-serif" font-size="14" lengthAdjust="spacing" textLength="128" x="328" y="192.7285">+storeVeichlePlate()</text></g><!--class Repositories--><g id="elem_Repositories"><rect codeLine="22" fill="#F1F1F1" height="103.8633" id="Repositories" rx="2.5" ry="2.5" style="stroke:#181818;stroke-width:0.5;" width="227" x="7" y="260"/><ellipse cx="76.75" cy="276" fill="#ADD1B2" rx="11" ry="11" style="stroke:#181818;stroke-width:1.0;"/><path d="M79.5156,271.875 Q79.6719,271.6563 79.8594,271.5469 Q80.0469,271.4375 80.2656,271.4375 Q80.6406,271.4375 80.875,271.7031 Q81.1094,271.9531 81.1094,272.5625 L81.1094,274.0156 Q81.1094,274.625 80.875,274.8906 Q80.6406,275.1563 80.2656,275.1563 Q79.9219,275.1563 79.7188,274.9531 Q79.5156,274.7656 79.4063,274.25 Q79.3594,273.8906 79.1719,273.7031 Q78.8438,273.3281 78.2344,273.1094 Q77.625,272.8906 77,272.8906 Q76.2344,272.8906 75.5938,273.2188 Q74.9688,273.5469 74.4688,274.2969 Q73.9844,275.0469 73.9844,276.0781 L73.9844,277.1719 Q73.9844,278.4063 74.875,279.2344 Q75.7656,280.0469 77.3594,280.0469 Q78.2969,280.0469 78.9531,279.7969 Q79.3438,279.6406 79.7656,279.2031 Q80.0313,278.9375 80.1719,278.8594 Q80.3281,278.7813 80.5313,278.7813 Q80.8594,278.7813 81.1094,279.0469 Q81.375,279.2969 81.375,279.6406 Q81.375,279.9844 81.0313,280.3906 Q80.5313,280.9688 79.7344,281.2969 Q78.6563,281.75 77.3594,281.75 Q75.8438,281.75 74.6406,281.125 Q73.6563,280.625 72.9688,279.5625 Q72.2813,278.4844 72.2813,277.2031 L72.2813,276.0469 Q72.2813,274.7188 72.8906,273.5781 Q73.5156,272.4219 74.6094,271.8125 Q75.7031,271.1875 76.9375,271.1875 Q77.6719,271.1875 78.3125,271.3594 Q78.9688,271.5156 79.5156,271.875 Z " fill="#000000"/><text fill="#000000" font-family="sans-serif" font-size="14" lengthAdjust="spacing" textLength="79" x="97.25" y="281.7969">Repositories</text><line style="stroke:#181818;stroke-width:0.5;" x1="8" x2="233" y1="292" y2="292"/><line style="stroke:#181818;stroke-width:0.5;" x1="8" x2="233" y1="300" y2="300"/><text fill="#000000" font-family="sans-serif" font-size="14" lengthAdjust="spacing" textLength="94" x="13" y="319.1074">-Repositories()</text><text fill="#000000" font-family="sans-serif" font-size="14" lengthAdjust="spacing" textLength="182" x="13" y="337.7285">+getInstance() : Repositories</text><text fill="#000000" font-family="sans-serif" font-size="14" lengthAdjust="spacing" textLength="215" x="13" y="356.3496">+getRegistedVehiclesRepository()</text></g><!--class registedVehicleCheckUpsRepository--><g id="elem_registedVehicleCheckUpsRepository"><rect codeLine="28" fill="#F1F1F1" height="103.8633" id="registedVehicleCheckUpsRepository" rx="2.5" ry="2.5" style="stroke:#181818;stroke-width:0.5;" width="342" x="269.5" y="260"/><ellipse cx="321.75" cy="276" fill="#ADD1B2" rx="11" ry="11" style="stroke:#181818;stroke-width:1.0;"/><path d="M324.5156,271.875 Q324.6719,271.6563 324.8594,271.5469 Q325.0469,271.4375 325.2656,271.4375 Q325.6406,271.4375 325.875,271.7031 Q326.1094,271.9531 326.1094,272.5625 L326.1094,274.0156 Q326.1094,274.625 325.875,274.8906 Q325.6406,275.1563 325.2656,275.1563 Q324.9219,275.1563 324.7188,274.9531 Q324.5156,274.7656 324.4063,274.25 Q324.3594,273.8906 324.1719,273.7031 Q323.8438,273.3281 323.2344,273.1094 Q322.625,272.8906 322,272.8906 Q321.2344,272.8906 320.5938,273.2188 Q319.9688,273.5469 319.4688,274.2969 Q318.9844,275.0469 318.9844,276.0781 L318.9844,277.1719 Q318.9844,278.4063 319.875,279.2344 Q320.7656,280.0469 322.3594,280.0469 Q323.2969,280.0469 323.9531,279.7969 Q324.3438,279.6406 324.7656,279.2031 Q325.0313,278.9375 325.1719,278.8594 Q325.3281,278.7813 325.5313,278.7813 Q325.8594,278.7813 326.1094,279.0469 Q326.375,279.2969 326.375,279.6406 Q326.375,279.9844 326.0313,280.3906 Q325.5313,280.9688 324.7344,281.2969 Q323.6563,281.75 322.3594,281.75 Q320.8438,281.75 319.6406,281.125 Q318.6563,280.625 317.9688,279.5625 Q317.2813,278.4844 317.2813,277.2031 L317.2813,276.0469 Q317.2813,274.7188 317.8906,273.5781 Q318.5156,272.4219 319.6094,271.8125 Q320.7031,271.1875 321.9375,271.1875 Q322.6719,271.1875 323.3125,271.3594 Q323.9688,271.5156 324.5156,271.875 Z " fill="#000000"/><text fill="#000000" font-family="sans-serif" font-size="14" lengthAdjust="spacing" textLength="229" x="342.25" y="281.7969">registedVehicleCheckUpsRepository</text><line style="stroke:#181818;stroke-width:0.5;" x1="270.5" x2="610.5" y1="292" y2="292"/><text fill="#000000" font-family="sans-serif" font-size="14" lengthAdjust="spacing" textLength="234" x="275.5" y="311.1074">-registedVehicleCheckUpsRepository</text><line style="stroke:#181818;stroke-width:0.5;" x1="270.5" x2="610.5" y1="318.6211" y2="318.6211"/><text fill="#000000" font-family="sans-serif" font-size="14" lengthAdjust="spacing" textLength="330" x="275.5" y="337.7285">+addVeichleCheckUp(veichlePlate plate,information)</text><text fill="#000000" font-family="sans-serif" font-size="14" lengthAdjust="spacing" textLength="320" x="275.5" y="356.3496">+validateVeichleCheckUp(veichlePlate,information)</text></g><!--class veichleCheckUp--><g id="elem_veichleCheckUp"><rect codeLine="35" fill="#F1F1F1" height="85.2422" id="veichleCheckUp" rx="2.5" ry="2.5" style="stroke:#181818;stroke-width:0.5;" width="219" x="647" y="269.5"/><ellipse cx="701.75" cy="285.5" fill="#ADD1B2" rx="11" ry="11" style="stroke:#181818;stroke-width:1.0;"/><path d="M704.5156,281.375 Q704.6719,281.1563 704.8594,281.0469 Q705.0469,280.9375 705.2656,280.9375 Q705.6406,280.9375 705.875,281.2031 Q706.1094,281.4531 706.1094,282.0625 L706.1094,283.5156 Q706.1094,284.125 705.875,284.3906 Q705.6406,284.6563 705.2656,284.6563 Q704.9219,284.6563 704.7188,284.4531 Q704.5156,284.2656 704.4063,283.75 Q704.3594,283.3906 704.1719,283.2031 Q703.8438,282.8281 703.2344,282.6094 Q702.625,282.3906 702,282.3906 Q701.2344,282.3906 700.5938,282.7188 Q699.9688,283.0469 699.4688,283.7969 Q698.9844,284.5469 698.9844,285.5781 L698.9844,286.6719 Q698.9844,287.9063 699.875,288.7344 Q700.7656,289.5469 702.3594,289.5469 Q703.2969,289.5469 703.9531,289.2969 Q704.3438,289.1406 704.7656,288.7031 Q705.0313,288.4375 705.1719,288.3594 Q705.3281,288.2813 705.5313,288.2813 Q705.8594,288.2813 706.1094,288.5469 Q706.375,288.7969 706.375,289.1406 Q706.375,289.4844 706.0313,289.8906 Q705.5313,290.4688 704.7344,290.7969 Q703.6563,291.25 702.3594,291.25 Q700.8438,291.25 699.6406,290.625 Q698.6563,290.125 697.9688,289.0625 Q697.2813,287.9844 697.2813,286.7031 L697.2813,285.5469 Q697.2813,284.2188 697.8906,283.0781 Q698.5156,281.9219 699.6094,281.3125 Q700.7031,280.6875 701.9375,280.6875 Q702.6719,280.6875 703.3125,280.8594 Q703.9688,281.0156 704.5156,281.375 Z " fill="#000000"/><text fill="#000000" font-family="sans-serif" font-size="14" lengthAdjust="spacing" textLength="101" x="722.25" y="291.2969">veichleCheckUp</text><line style="stroke:#181818;stroke-width:0.5;" x1="648" x2="865" y1="301.5" y2="301.5"/><text fill="#000000" font-family="sans-serif" font-size="14" lengthAdjust="spacing" textLength="115" x="653" y="320.6074">-VehicleCheckUps</text><line style="stroke:#181818;stroke-width:0.5;" x1="648" x2="865" y1="328.1211" y2="328.1211"/><text fill="#000000" font-family="sans-serif" font-size="14" lengthAdjust="spacing" textLength="207" x="653" y="347.2285">+validateinformation(information)</text></g><!--link RegisterVehicleCheckUpUI to RegistVehicleCheckUpController--><g id="link_RegisterVehicleCheckUpUI_RegistVehicleCheckUpController"><path codeLine="40" d="M440.5,55.13 C440.5,71.86 440.5,94.94 440.5,114.86 " fill="none" id="RegisterVehicleCheckUpUI-RegistVehicleCheckUpController" style="stroke:#181818;stroke-width:1.0;"/></g><!--link RegistVehicleCheckUpController to Repositories--><g id="link_RegistVehicleCheckUpController_Repositories"><path codeLine="42" d="M353.06,200.17 C314.38,218.6 268.53,240.45 227.81,259.86 " fill="none" id="RegistVehicleCheckUpController-Repositories" style="stroke:#181818;stroke-width:1.0;"/></g><!--link RegistVehicleCheckUpController to registedVehicleCheckUpsRepository--><g id="link_RegistVehicleCheckUpController_registedVehicleCheckUpsRepository"><path codeLine="44" d="M440.5,200.17 C440.5,218.6 440.5,240.45 440.5,259.86 " fill="none" id="RegistVehicleCheckUpController-registedVehicleCheckUpsRepository" style="stroke:#181818;stroke-width:1.0;"/></g><!--link RegistVehicleCheckUpController to veichleCheckUp--><g id="link_RegistVehicleCheckUpController_veichleCheckUp"><path codeLine="46" d="M526.85,200.17 C571.44,221.69 625.68,247.87 670.26,269.38 " fill="none" id="RegistVehicleCheckUpController-veichleCheckUp" style="stroke:#181818;stroke-width:1.0;"/></g><!--reverse link Repositories to registedVehicleCheckUpsRepository--><g id="link_Repositories_registedVehicleCheckUpsRepository"><path codeLine="48" d="M246.17,312 C253.86,312 255.04,312 269.34,312 " fill="none" id="Repositories-backto-registedVehicleCheckUpsRepository" style="stroke:#181818;stroke-width:1.0;"/><polygon fill="#181818" points="234.17,312,240.17,316,246.17,312,240.17,308,234.17,312" style="stroke:#181818;stroke-width:1.0;"/></g><!--reverse link registedVehicleCheckUpsRepository to veichleCheckUp--><g id="link_registedVehicleCheckUpsRepository_veichleCheckUp"><path codeLine="50" d="M623.64,312 C638.62,312 640.07,312 646.74,312 " fill="none" id="registedVehicleCheckUpsRepository-backto-veichleCheckUp" style="stroke:#181818;stroke-width:1.0;"/><polygon fill="none" points="611.64,312,617.64,316,623.64,312,617.64,308,611.64,312" style="stroke:#181818;stroke-width:1.0;"/></g><!--SRC=[ZP9DRy8m38Rl-HM-qNqWxRpRn8dRD0JtB3MjHHfNYM7gflttfH0WPHkbXqYr7x_swsGIDkHQxNK33JisjUS6GVmMrJdJQhFH5IwaimWUZMXNsHm8jIxvWrm5Qsr3dh7aKBeMeMNRzJzgyaUIlR3AgepL8Ro8U7hV2iuDkmLz8ZmfDR6u5X06JrKjK58_3h5JQby3RrXH4FGhhCbOdDLeDijsELTVIdqFeI4oOoUUhKKVKOZV57P8fhRuQhNWFlG0GTZZAeiNTxbiou4YGHZWA9878toGgL3cBiGrcYW0pmFeZ2GlPHeqdAWkx-g7LBAJmQTHHidKMfTbifYG8jy4jFtvI6xDlj7zxe-kTjfI6NDNYeTbqKCoiHkKd2Q-cFIYJwPLNEh-zmvWEXsxVdKzVr38xki6VdppDuWCTzHNPC_j_gOcus-5V_Nv0G00]--></g></svg>