<?xml version="1.0" encoding="us-ascii" standalone="no"?><svg xmlns="http://www.w3.org/2000/svg" xmlns:xlink="http://www.w3.org/1999/xlink" contentStyleType="text/css" height="1213px" preserveAspectRatio="none" style="width:1675px;height:1213px;background:#FFFFFF;" version="1.1" viewBox="0 0 1675 1213" width="1675px" zoomAndPan="magnify"><defs/><g><rect fill="#FFFFFF" height="981.7207" style="stroke:#181818;stroke-width:1.0;" width="10" x="59" y="112.2422"/><rect fill="#FFFFFF" height="226.3672" style="stroke:#181818;stroke-width:1.0;" width="10" x="431" y="135.5332"/><rect fill="#FFFFFF" height="199.7461" style="stroke:#181818;stroke-width:1.0;" width="10" x="431" y="393.1914"/><rect fill="#FFFFFF" height="389.8613" style="stroke:#181818;stroke-width:1.0;" width="10" x="431" y="641.5195"/><rect fill="#FFFFFF" height="31.291" style="stroke:#181818;stroke-width:1.0;" width="10" x="431" y="1062.6719"/><rect fill="#FFFFFF" height="127.4941" style="stroke:#181818;stroke-width:1.0;" width="10" x="651" y="176.8242"/><rect fill="#FFFFFF" height="119.873" style="stroke:#181818;stroke-width:1.0;" width="10" x="651" y="424.4824"/><rect fill="#FFFFFF" height="42.291" style="stroke:#181818;stroke-width:1.0;" width="10" x="656" y="463.7734"/><rect fill="#FFFFFF" height="327.2793" style="stroke:#181818;stroke-width:1.0;" width="10" x="651" y="672.8105"/><rect fill="#FFFFFF" height="31.291" style="stroke:#181818;stroke-width:1.0;" width="10" x="821" y="210.4453"/><rect fill="#FFFFFF" height="31.291" style="stroke:#181818;stroke-width:1.0;" width="10" x="928" y="273.0273"/><rect fill="#FFFFFF" height="264.6973" style="stroke:#181818;stroke-width:1.0;" width="10" x="1110" y="704.1016"/><rect fill="#FFFFFF" height="96.5332" style="stroke:#181818;stroke-width:1.0;" width="10" x="1445" y="745.3926"/><rect fill="none" height="619.1895" style="stroke:#000000;stroke-width:1.5;" width="1659" x="10" y="319.3184"/><line style="stroke:#181818;stroke-width:0.5;stroke-dasharray:5.0,5.0;" x1="64" x2="64" y1="102.2422" y2="1111.9629"/><line style="stroke:#181818;stroke-width:0.5;stroke-dasharray:5.0,5.0;" x1="436" x2="436" y1="102.2422" y2="1111.9629"/><line style="stroke:#181818;stroke-width:0.5;stroke-dasharray:5.0,5.0;" x1="655.5" x2="655.5" y1="175.3438" y2="1111.9629"/><line style="stroke:#181818;stroke-width:0.5;stroke-dasharray:5.0,5.0;" x1="825.5" x2="825.5" y1="102.2422" y2="1111.9629"/><line style="stroke:#181818;stroke-width:0.5;stroke-dasharray:5.0,5.0;" x1="932.5" x2="932.5" y1="102.2422" y2="1111.9629"/><line style="stroke:#181818;stroke-width:0.5;stroke-dasharray:5.0,5.0;" x1="1114.5" x2="1114.5" y1="102.2422" y2="1111.9629"/><line style="stroke:#181818;stroke-width:0.5;stroke-dasharray:5.0,5.0;" x1="1449.5" x2="1449.5" y1="753.2227" y2="1111.9629"/><text fill="#000000" font-family="sans-serif" font-size="14" lengthAdjust="spacing" textLength="82" x="20" y="80.1074">Vehicle Fleet</text><text fill="#000000" font-family="sans-serif" font-size="14" lengthAdjust="spacing" textLength="56" x="33" y="98.7285">Manager</text><ellipse cx="64" cy="13.5" fill="#E3E3E3" rx="8" ry="8" style="stroke:#181818;stroke-width:0.5;"/><path d="M64,21.5 L64,48.5 M51,29.5 L77,29.5 M64,48.5 L51,63.5 M64,48.5 L77,63.5 " fill="none" style="stroke:#181818;stroke-width:0.5;"/><text fill="#000000" font-family="sans-serif" font-size="14" lengthAdjust="spacing" textLength="82" x="20" y="1126.0703">Vehicle Fleet</text><text fill="#000000" font-family="sans-serif" font-size="14" lengthAdjust="spacing" textLength="56" x="33" y="1144.6914">Manager</text><ellipse cx="64" cy="1156.7051" fill="#E3E3E3" rx="8" ry="8" style="stroke:#181818;stroke-width:0.5;"/><path d="M64,1164.7051 L64,1191.7051 M51,1172.7051 L77,1172.7051 M64,1191.7051 L51,1206.7051 M64,1191.7051 L77,1206.7051 " fill="none" style="stroke:#181818;stroke-width:0.5;"/><rect fill="#E3E3E3" height="32.6211" rx="2.5" ry="2.5" style="stroke:#181818;stroke-width:0.5;" width="186" x="343" y="68.6211"/><text fill="#000000" font-family="sans-serif" font-size="14" lengthAdjust="spacing" textLength="172" x="350" y="90.7285">:RegisterVehicleCheckUpUI</text><rect fill="#E3E3E3" height="32.6211" rx="2.5" ry="2.5" style="stroke:#181818;stroke-width:0.5;" width="186" x="343" y="1110.9629"/><text fill="#000000" font-family="sans-serif" font-size="14" lengthAdjust="spacing" textLength="172" x="350" y="1133.0703">:RegisterVehicleCheckUpUI</text><rect fill="#E3E3E3" height="32.6211" rx="2.5" ry="2.5" style="stroke:#181818;stroke-width:0.5;" width="223" x="544.5" y="1110.9629"/><text fill="#000000" font-family="sans-serif" font-size="14" lengthAdjust="spacing" textLength="209" x="551.5" y="1133.0703">:RegistVehicleCheckUpController</text><rect fill="#E3E3E3" height="32.6211" rx="2.5" ry="2.5" style="stroke:#181818;stroke-width:0.5;" width="97" x="777.5" y="68.6211"/><text fill="#000000" font-family="sans-serif" font-size="14" lengthAdjust="spacing" textLength="83" x="784.5" y="90.7285">:Repositories</text><rect fill="#E3E3E3" height="32.6211" rx="2.5" ry="2.5" style="stroke:#181818;stroke-width:0.5;" width="97" x="777.5" y="1110.9629"/><text fill="#000000" font-family="sans-serif" font-size="14" lengthAdjust="spacing" textLength="83" x="784.5" y="1133.0703">:Repositories</text><rect fill="#E3E3E3" height="51.2422" rx="2.5" ry="2.5" style="stroke:#181818;stroke-width:0.5;" width="97" x="884.5" y="50"/><text fill="#000000" font-family="sans-serif" font-size="14" lengthAdjust="spacing" textLength="74" x="896" y="72.1074">repositories</text><text fill="#000000" font-family="sans-serif" font-size="14" lengthAdjust="spacing" textLength="83" x="891.5" y="90.7285">:Repositories</text><rect fill="#E3E3E3" height="51.2422" rx="2.5" ry="2.5" style="stroke:#181818;stroke-width:0.5;" width="97" x="884.5" y="1110.9629"/><text fill="#000000" font-family="sans-serif" font-size="14" lengthAdjust="spacing" textLength="74" x="896" y="1133.0703">repositories</text><text fill="#000000" font-family="sans-serif" font-size="14" lengthAdjust="spacing" textLength="83" x="891.5" y="1151.6914">:Repositories</text><rect fill="#E3E3E3" height="51.2422" rx="2.5" ry="2.5" style="stroke:#181818;stroke-width:0.5;" width="247" x="991.5" y="50"/><text fill="#000000" font-family="sans-serif" font-size="14" lengthAdjust="spacing" textLength="233" x="998.5" y="72.1074">registedVehicleCheckUpsRepository:</text><text fill="#000000" font-family="sans-serif" font-size="14" lengthAdjust="spacing" textLength="224" x="1007.5" y="90.7285">egistedVehicleCheckUpsRepository</text><rect fill="#E3E3E3" height="51.2422" rx="2.5" ry="2.5" style="stroke:#181818;stroke-width:0.5;" width="247" x="991.5" y="1110.9629"/><text fill="#000000" font-family="sans-serif" font-size="14" lengthAdjust="spacing" textLength="233" x="998.5" y="1133.0703">registedVehicleCheckUpsRepository:</text><text fill="#000000" font-family="sans-serif" font-size="14" lengthAdjust="spacing" textLength="224" x="1007.5" y="1151.6914">egistedVehicleCheckUpsRepository</text><rect fill="#E3E3E3" height="51.2422" rx="2.5" ry="2.5" style="stroke:#181818;stroke-width:0.5;" width="119" x="1390.5" y="1110.9629"/><text fill="#000000" font-family="sans-serif" font-size="14" lengthAdjust="spacing" textLength="70" x="1415" y="1133.0703">information</text><text fill="#000000" font-family="sans-serif" font-size="14" lengthAdjust="spacing" textLength="105" x="1397.5" y="1151.6914">:veichleCheckUp</text><rect fill="#FFFFFF" height="981.7207" style="stroke:#181818;stroke-width:1.0;" width="10" x="59" y="112.2422"/><rect fill="#FFFFFF" height="226.3672" style="stroke:#181818;stroke-width:1.0;" width="10" x="431" y="135.5332"/><rect fill="#FFFFFF" height="199.7461" style="stroke:#181818;stroke-width:1.0;" width="10" x="431" y="393.1914"/><rect fill="#FFFFFF" height="389.8613" style="stroke:#181818;stroke-width:1.0;" width="10" x="431" y="641.5195"/><rect fill="#FFFFFF" height="31.291" style="stroke:#181818;stroke-width:1.0;" width="10" x="431" y="1062.6719"/><rect fill="#FFFFFF" height="127.4941" style="stroke:#181818;stroke-width:1.0;" width="10" x="651" y="176.8242"/><rect fill="#FFFFFF" height="119.873" style="stroke:#181818;stroke-width:1.0;" width="10" x="651" y="424.4824"/><rect fill="#FFFFFF" height="42.291" style="stroke:#181818;stroke-width:1.0;" width="10" x="656" y="463.7734"/><rect fill="#FFFFFF" height="327.2793" style="stroke:#181818;stroke-width:1.0;" width="10" x="651" y="672.8105"/><rect fill="#FFFFFF" height="31.291" style="stroke:#181818;stroke-width:1.0;" width="10" x="821" y="210.4453"/><rect fill="#FFFFFF" height="31.291" style="stroke:#181818;stroke-width:1.0;" width="10" x="928" y="273.0273"/><rect fill="#FFFFFF" height="264.6973" style="stroke:#181818;stroke-width:1.0;" width="10" x="1110" y="704.1016"/><rect fill="#FFFFFF" height="96.5332" style="stroke:#181818;stroke-width:1.0;" width="10" x="1445" y="745.3926"/><polygon fill="#181818" points="419,131.5332,429,135.5332,419,139.5332,423,135.5332" style="stroke:#181818;stroke-width:1.0;"/><line style="stroke:#181818;stroke-width:1.0;" x1="69" x2="425" y1="135.5332" y2="135.5332"/><text fill="#000000" font-family="sans-serif" font-size="13" font-weight="bold" lengthAdjust="spacing" textLength="7" x="76" y="130.2705">1</text><text fill="#000000" font-family="sans-serif" font-size="13" lengthAdjust="spacing" textLength="217" x="87" y="130.2705">asks to regist a new vehicle check-up</text><polygon fill="#181818" points="532.5,162.8242,542.5,166.8242,532.5,170.8242,536.5,166.8242" style="stroke:#181818;stroke-width:1.0;"/><line style="stroke:#181818;stroke-width:1.0;" x1="441" x2="538.5" y1="166.8242" y2="166.8242"/><text fill="#000000" font-family="sans-serif" font-size="13" font-weight="bold" lengthAdjust="spacing" textLength="7" x="448" y="161.5615">2</text><text fill="#000000" font-family="sans-serif" font-size="13" lengthAdjust="spacing" textLength="36" x="459" y="161.5615">create</text><rect fill="#E3E3E3" height="32.6211" rx="2.5" ry="2.5" style="stroke:#181818;stroke-width:0.5;" width="223" x="544.5" y="143.5332"/><text fill="#000000" font-family="sans-serif" font-size="14" lengthAdjust="spacing" textLength="209" x="551.5" y="165.6406">:RegistVehicleCheckUpController</text><polygon fill="#181818" points="809,206.4453,819,210.4453,809,214.4453,813,210.4453" style="stroke:#181818;stroke-width:1.0;"/><line style="stroke:#181818;stroke-width:1.0;" x1="661" x2="815" y1="210.4453" y2="210.4453"/><text fill="#000000" font-family="sans-serif" font-size="13" font-weight="bold" lengthAdjust="spacing" textLength="7" x="668" y="205.1826">3</text><text fill="#000000" font-family="sans-serif" font-size="13" lengthAdjust="spacing" textLength="75" x="679" y="205.1826">getInstance()</text><polygon fill="#181818" points="672,237.7363,662,241.7363,672,245.7363,668,241.7363" style="stroke:#181818;stroke-width:1.0;"/><line style="stroke:#181818;stroke-width:1.0;stroke-dasharray:2.0,2.0;" x1="666" x2="825" y1="241.7363" y2="241.7363"/><text fill="#000000" font-family="sans-serif" font-size="13" font-weight="bold" lengthAdjust="spacing" textLength="7" x="678" y="236.4736">4</text><text fill="#000000" font-family="sans-serif" font-size="13" lengthAdjust="spacing" textLength="67" x="689" y="236.4736">repositories</text><polygon fill="#181818" points="916,269.0273,926,273.0273,916,277.0273,920,273.0273" style="stroke:#181818;stroke-width:1.0;"/><line style="stroke:#181818;stroke-width:1.0;" x1="661" x2="922" y1="273.0273" y2="273.0273"/><text fill="#000000" font-family="sans-serif" font-size="13" font-weight="bold" lengthAdjust="spacing" textLength="7" x="668" y="267.7646">5</text><text fill="#000000" font-family="sans-serif" font-size="13" lengthAdjust="spacing" textLength="226" x="679" y="267.7646">registedVehiclesCheckUpsRepository()</text><polygon fill="#181818" points="667,300.3184,657,304.3184,667,308.3184,663,304.3184" style="stroke:#181818;stroke-width:1.0;"/><line style="stroke:#181818;stroke-width:1.0;stroke-dasharray:2.0,2.0;" x1="661" x2="932" y1="304.3184" y2="304.3184"/><text fill="#000000" font-family="sans-serif" font-size="13" font-weight="bold" lengthAdjust="spacing" textLength="7" x="673" y="299.0557">6</text><text fill="#000000" font-family="sans-serif" font-size="13" lengthAdjust="spacing" textLength="218" x="684" y="299.0557">registedVehiclesCheckUpsRepository</text><path d="M10,319.3184 L83,319.3184 L83,328.6094 L73,338.6094 L10,338.6094 L10,319.3184 " fill="#EEEEEE" style="stroke:#000000;stroke-width:1.5;"/><rect fill="none" height="619.1895" style="stroke:#000000;stroke-width:1.5;" width="1659" x="10" y="319.3184"/><text fill="#000000" font-family="sans-serif" font-size="13" font-weight="bold" lengthAdjust="spacing" textLength="28" x="25" y="334.3467">loop</text><text fill="#000000" font-family="sans-serif" font-size="11" font-weight="bold" lengthAdjust="spacing" textLength="90" x="98" y="333.1885">[while intended]</text><polygon fill="#181818" points="80,357.9004,70,361.9004,80,365.9004,76,361.9004" style="stroke:#181818;stroke-width:1.0;"/><line style="stroke:#181818;stroke-width:1.0;stroke-dasharray:2.0,2.0;" x1="74" x2="435" y1="361.9004" y2="361.9004"/><text fill="#000000" font-family="sans-serif" font-size="13" font-weight="bold" lengthAdjust="spacing" textLength="7" x="86" y="356.6377">7</text><text fill="#000000" font-family="sans-serif" font-size="13" lengthAdjust="spacing" textLength="140" x="97" y="356.6377">request the veichle plate</text><polygon fill="#181818" points="419,389.1914,429,393.1914,419,397.1914,423,393.1914" style="stroke:#181818;stroke-width:1.0;"/><line style="stroke:#181818;stroke-width:1.0;" x1="69" x2="425" y1="393.1914" y2="393.1914"/><text fill="#000000" font-family="sans-serif" font-size="13" font-weight="bold" lengthAdjust="spacing" textLength="7" x="76" y="387.9287">8</text><text fill="#000000" font-family="sans-serif" font-size="13" lengthAdjust="spacing" textLength="125" x="87" y="387.9287">Type the veichle plate</text><polygon fill="#181818" points="639,420.4824,649,424.4824,639,428.4824,643,424.4824" style="stroke:#181818;stroke-width:1.0;"/><line style="stroke:#181818;stroke-width:1.0;" x1="441" x2="645" y1="424.4824" y2="424.4824"/><text fill="#000000" font-family="sans-serif" font-size="13" font-weight="bold" lengthAdjust="spacing" textLength="7" x="448" y="419.2197">9</text><text fill="#000000" font-family="sans-serif" font-size="13" lengthAdjust="spacing" textLength="69" x="459" y="419.2197">veichlePlate</text><line style="stroke:#181818;stroke-width:1.0;" x1="661" x2="708" y1="450.7734" y2="450.7734"/><line style="stroke:#181818;stroke-width:1.0;" x1="708" x2="708" y1="450.7734" y2="463.7734"/><line style="stroke:#181818;stroke-width:1.0;" x1="667" x2="708" y1="463.7734" y2="463.7734"/><polygon fill="#181818" points="677,459.7734,667,463.7734,677,467.7734,673,463.7734" style="stroke:#181818;stroke-width:1.0;"/><text fill="#000000" font-family="sans-serif" font-size="13" font-weight="bold" lengthAdjust="spacing" textLength="14" x="673" y="445.5107">10</text><text fill="#000000" font-family="sans-serif" font-size="13" lengthAdjust="spacing" textLength="110" x="691" y="445.5107">storeVeichlePlate()</text><line style="stroke:#181818;stroke-width:1.0;stroke-dasharray:2.0,2.0;" x1="666" x2="708" y1="505.0645" y2="505.0645"/><line style="stroke:#181818;stroke-width:1.0;stroke-dasharray:2.0,2.0;" x1="708" x2="708" y1="505.0645" y2="518.0645"/><line style="stroke:#181818;stroke-width:1.0;stroke-dasharray:2.0,2.0;" x1="661" x2="708" y1="518.0645" y2="518.0645"/><polygon fill="#181818" points="671,514.0645,661,518.0645,671,522.0645,667,518.0645" style="stroke:#181818;stroke-width:1.0;"/><text fill="#000000" font-family="sans-serif" font-size="13" font-weight="bold" lengthAdjust="spacing" textLength="14" x="673" y="499.8018">11</text><text fill="#000000" font-family="sans-serif" font-size="13" lengthAdjust="spacing" textLength="49" x="691" y="499.8018">success</text><polygon fill="#181818" points="452,540.3555,442,544.3555,452,548.3555,448,544.3555" style="stroke:#181818;stroke-width:1.0;"/><line style="stroke:#181818;stroke-width:1.0;stroke-dasharray:2.0,2.0;" x1="446" x2="655" y1="544.3555" y2="544.3555"/><text fill="#000000" font-family="sans-serif" font-size="13" font-weight="bold" lengthAdjust="spacing" textLength="14" x="458" y="539.0928">12</text><text fill="#000000" font-family="sans-serif" font-size="13" lengthAdjust="spacing" textLength="49" x="476" y="539.0928">success</text><polygon fill="#181818" points="80,588.9375,70,592.9375,80,596.9375,76,592.9375" style="stroke:#181818;stroke-width:1.0;"/><line style="stroke:#181818;stroke-width:1.0;stroke-dasharray:2.0,2.0;" x1="74" x2="435" y1="592.9375" y2="592.9375"/><text fill="#000000" font-family="sans-serif" font-size="13" font-weight="bold" lengthAdjust="spacing" textLength="14" x="86" y="579.0293">13</text><text fill="#000000" font-family="sans-serif" font-size="13" lengthAdjust="spacing" textLength="259" x="104" y="570.3838">Requests the information about the check-up</text><text fill="#000000" font-family="sans-serif" font-size="13" lengthAdjust="spacing" textLength="127" x="108" y="587.6748">(i.e. date, place, kms)</text><polygon fill="#181818" points="419,637.5195,429,641.5195,419,645.5195,423,641.5195" style="stroke:#181818;stroke-width:1.0;"/><line style="stroke:#181818;stroke-width:1.0;" x1="69" x2="425" y1="641.5195" y2="641.5195"/><text fill="#000000" font-family="sans-serif" font-size="13" font-weight="bold" lengthAdjust="spacing" textLength="14" x="76" y="627.6113">14</text><text fill="#000000" font-family="sans-serif" font-size="13" lengthAdjust="spacing" textLength="239" x="94" y="618.9658">Types the information about the check-up</text><text fill="#000000" font-family="sans-serif" font-size="13" lengthAdjust="spacing" textLength="127" x="98" y="636.2568">(i.e. date, place, kms)</text><polygon fill="#181818" points="639,668.8105,649,672.8105,639,676.8105,643,672.8105" style="stroke:#181818;stroke-width:1.0;"/><line style="stroke:#181818;stroke-width:1.0;" x1="441" x2="645" y1="672.8105" y2="672.8105"/><text fill="#000000" font-family="sans-serif" font-size="13" font-weight="bold" lengthAdjust="spacing" textLength="14" x="448" y="667.5479">15</text><text fill="#000000" font-family="sans-serif" font-size="13" lengthAdjust="spacing" textLength="36" x="466" y="667.5479">create</text><polygon fill="#181818" points="1098,700.1016,1108,704.1016,1098,708.1016,1102,704.1016" style="stroke:#181818;stroke-width:1.0;"/><line style="stroke:#181818;stroke-width:1.0;" x1="661" x2="1104" y1="704.1016" y2="704.1016"/><text fill="#000000" font-family="sans-serif" font-size="13" font-weight="bold" lengthAdjust="spacing" textLength="14" x="668" y="698.8389">16</text><text fill="#000000" font-family="sans-serif" font-size="13" lengthAdjust="spacing" textLength="36" x="686" y="698.8389">create</text><polygon fill="#181818" points="1378.5,731.3926,1388.5,735.3926,1378.5,739.3926,1382.5,735.3926" style="stroke:#181818;stroke-width:1.0;"/><line style="stroke:#181818;stroke-width:1.0;" x1="1120" x2="1384.5" y1="735.3926" y2="735.3926"/><text fill="#000000" font-family="sans-serif" font-size="13" font-weight="bold" lengthAdjust="spacing" textLength="14" x="1127" y="730.1299">17</text><text fill="#000000" font-family="sans-serif" font-size="13" lengthAdjust="spacing" textLength="36" x="1145" y="730.1299">create</text><rect fill="#E3E3E3" height="51.2422" rx="2.5" ry="2.5" style="stroke:#181818;stroke-width:0.5;" width="119" x="1390.5" y="712.1016"/><text fill="#000000" font-family="sans-serif" font-size="14" lengthAdjust="spacing" textLength="70" x="1415" y="734.209">information</text><text fill="#000000" font-family="sans-serif" font-size="14" lengthAdjust="spacing" textLength="105" x="1397.5" y="752.8301">:veichleCheckUp</text><line style="stroke:#181818;stroke-width:1.0;" x1="1455" x2="1497" y1="797.6348" y2="797.6348"/><line style="stroke:#181818;stroke-width:1.0;" x1="1497" x2="1497" y1="797.6348" y2="810.6348"/><line style="stroke:#181818;stroke-width:1.0;" x1="1456" x2="1497" y1="810.6348" y2="810.6348"/><polygon fill="#181818" points="1466,806.6348,1456,810.6348,1466,814.6348,1462,810.6348" style="stroke:#181818;stroke-width:1.0;"/><text fill="#000000" font-family="sans-serif" font-size="13" font-weight="bold" lengthAdjust="spacing" textLength="14" x="1462" y="792.3721">18</text><text fill="#000000" font-family="sans-serif" font-size="13" lengthAdjust="spacing" textLength="177" x="1480" y="792.3721">validateinformation(information)</text><polygon fill="#181818" points="1131,837.9258,1121,841.9258,1131,845.9258,1127,841.9258" style="stroke:#181818;stroke-width:1.0;"/><line style="stroke:#181818;stroke-width:1.0;stroke-dasharray:2.0,2.0;" x1="1125" x2="1449" y1="841.9258" y2="841.9258"/><text fill="#000000" font-family="sans-serif" font-size="13" font-weight="bold" lengthAdjust="spacing" textLength="14" x="1137" y="836.6631">19</text><text fill="#000000" font-family="sans-serif" font-size="13" lengthAdjust="spacing" textLength="63" x="1155" y="836.6631">information</text><line style="stroke:#181818;stroke-width:1.0;" x1="1120" x2="1162" y1="873.2168" y2="873.2168"/><line style="stroke:#181818;stroke-width:1.0;" x1="1162" x2="1162" y1="873.2168" y2="886.2168"/><line style="stroke:#181818;stroke-width:1.0;" x1="1121" x2="1162" y1="886.2168" y2="886.2168"/><polygon fill="#181818" points="1131,882.2168,1121,886.2168,1131,890.2168,1127,886.2168" style="stroke:#181818;stroke-width:1.0;"/><text fill="#000000" font-family="sans-serif" font-size="13" font-weight="bold" lengthAdjust="spacing" textLength="14" x="1127" y="867.9541">20</text><text fill="#000000" font-family="sans-serif" font-size="13" lengthAdjust="spacing" textLength="283" x="1145" y="867.9541">validateVeichleCheckUp(veichlePlate,information)</text><line style="stroke:#181818;stroke-width:1.0;" x1="1120" x2="1162" y1="917.5078" y2="917.5078"/><line style="stroke:#181818;stroke-width:1.0;" x1="1162" x2="1162" y1="917.5078" y2="930.5078"/><line style="stroke:#181818;stroke-width:1.0;" x1="1121" x2="1162" y1="930.5078" y2="930.5078"/><polygon fill="#181818" points="1131,926.5078,1121,930.5078,1131,934.5078,1127,930.5078" style="stroke:#181818;stroke-width:1.0;"/><text fill="#000000" font-family="sans-serif" font-size="13" font-weight="bold" lengthAdjust="spacing" textLength="14" x="1127" y="912.2451">21</text><text fill="#000000" font-family="sans-serif" font-size="13" lengthAdjust="spacing" textLength="293" x="1145" y="912.2451">addVeichleCheckUp(veichlePlate plate,information)</text><polygon fill="#181818" points="672,964.7988,662,968.7988,672,972.7988,668,968.7988" style="stroke:#181818;stroke-width:1.0;"/><line style="stroke:#181818;stroke-width:1.0;stroke-dasharray:2.0,2.0;" x1="666" x2="1114" y1="968.7988" y2="968.7988"/><text fill="#000000" font-family="sans-serif" font-size="13" font-weight="bold" lengthAdjust="spacing" textLength="14" x="678" y="963.5361">22</text><text fill="#000000" font-family="sans-serif" font-size="13" lengthAdjust="spacing" textLength="163" x="696" y="963.5361">registedVeichleCheckUpList</text><polygon fill="#181818" points="452,996.0898,442,1000.0898,452,1004.0898,448,1000.0898" style="stroke:#181818;stroke-width:1.0;"/><line style="stroke:#181818;stroke-width:1.0;stroke-dasharray:2.0,2.0;" x1="446" x2="655" y1="1000.0898" y2="1000.0898"/><text fill="#000000" font-family="sans-serif" font-size="13" font-weight="bold" lengthAdjust="spacing" textLength="14" x="458" y="994.8271">23</text><text fill="#000000" font-family="sans-serif" font-size="13" lengthAdjust="spacing" textLength="168" x="476" y="994.8271">RegistedVeichleCheckUpList</text><polygon fill="#181818" points="80,1027.3809,70,1031.3809,80,1035.3809,76,1031.3809" style="stroke:#181818;stroke-width:1.0;"/><line style="stroke:#181818;stroke-width:1.0;stroke-dasharray:2.0,2.0;" x1="74" x2="435" y1="1031.3809" y2="1031.3809"/><text fill="#000000" font-family="sans-serif" font-size="13" font-weight="bold" lengthAdjust="spacing" textLength="14" x="86" y="1026.1182">24</text><text fill="#000000" font-family="sans-serif" font-size="13" lengthAdjust="spacing" textLength="320" x="104" y="1026.1182">list all registered veichle check-ups and asks to confirm</text><polygon fill="#181818" points="419,1058.6719,429,1062.6719,419,1066.6719,423,1062.6719" style="stroke:#181818;stroke-width:1.0;"/><line style="stroke:#181818;stroke-width:1.0;" x1="69" x2="425" y1="1062.6719" y2="1062.6719"/><text fill="#000000" font-family="sans-serif" font-size="13" font-weight="bold" lengthAdjust="spacing" textLength="14" x="76" y="1057.4092">25</text><text fill="#000000" font-family="sans-serif" font-size="13" lengthAdjust="spacing" textLength="173" x="94" y="1057.4092">confirms all veichle check-ups</text><polygon fill="#181818" points="75,1089.9629,65,1093.9629,75,1097.9629,71,1093.9629" style="stroke:#181818;stroke-width:1.0;"/><line style="stroke:#181818;stroke-width:1.0;stroke-dasharray:2.0,2.0;" x1="69" x2="435" y1="1093.9629" y2="1093.9629"/><text fill="#000000" font-family="sans-serif" font-size="13" font-weight="bold" lengthAdjust="spacing" textLength="14" x="81" y="1088.7002">26</text><text fill="#000000" font-family="sans-serif" font-size="13" lengthAdjust="spacing" textLength="158" x="99" y="1088.7002">displays operation success</text><!--SRC=[jLR1JkCm4BtxAqPSQAkM3-20X418I22X0ZtrOfnfOpMrixO3sx_ViPkaTfCsiDhrAR5dtinudfzjDrALtF0jRBNI8ZTwY-1CXSosAoKN6xx6LxSh40mAnzMwY0ripZFz9TKQLhomo1Yld5RLzWCDOvUvp11MMhiF_PjnuRI1YmNcKX3QGu7ebkgPAmfWBe1RM3myCu9rKiYIAmSNrtDSI-lGr4vtEOhDU_d-6CpV7tkjKzixhPpHHL67k7kRFtMyIcqbvIRH1fjsOlSgVRbKKEfY8e-bwWAyFDs-7Nk4Eh8qDtk8TBqSD0dGWrPfNAbMscovarfHefyeHTuw1RnxxZZphP6Vt67e08Dwq0_CRcYRuPfCDnQShkC31uLVy5ctKdZ0MLKUN5j0wX6xX6WGsen0R- -V2TNWhmgjiv1H6Z0ok4A3Ik0KChJ2oD8dFWMeooXWgT8LXo9NKj1ACfrLXk-_XBPkpE84BeL1drbWmd5cDs5wCg7SzcQ9HLjLy4sM_F2p7gA7FuItHlUeB1qWWQDnnxU5xYDVnzgFlYYpkW2_imTETjmp_5cufZ3Fwz2rX8EsIq8gy7I5uNJqLHJWunA6mfmhh1CbMajQNsXTmbSkYSTIELGPPgo7iFumj8G5boFKfmdA8kP95CPp__WSlUrAFE7TyUiIam1glvVYc9nTWfvgOuraQGjn4S6TxLeluW4rWgs4G7kMTEUEJxDHVJ1d8P8-pHjXyLiTYI3m3rtjszU85adAI5xXbTSW4XxgXzUVpTQEVzBJVn0fZj5jVIj8RBWrJQC7BmleeYR8mxTDx3OSZdBo5yvaqf7NDkJ-Gcgc_L_ZHTpdXVHx5stpAFeU7_jzSmiYY5w6H-qFsS70-DO-3By8sd8NoRKzYXLWcfJ_lnBXMNOcXxs4zMT2SletMHtKv60Snt-YkLFACCnPTbfrvgV3iK4LIXIe2C-aecZoCPYrcjy8WWMkilPf9RHQIRFTumr8JcrhGuGEBElLaoIzJ5fgsyw2Bd7_LaeKzoXyzEjVY7y0]--></g></svg>