<?xml version="1.0" encoding="UTF-8" standalone="no"?><svg xmlns="http://www.w3.org/2000/svg" xmlns:xlink="http://www.w3.org/1999/xlink" contentStyleType="text/css" height="429px" preserveAspectRatio="none" style="width:1227px;height:429px;background:#FFFFFF;" version="1.1" viewBox="0 0 1227 429" width="1227px" zoomAndPan="magnify"><defs/><g><!--class RegisterVehicleCheckUpUI--><g id="elem_RegisterVehicleCheckUpUI"><rect codeLine="11" fill="#F1F1F1" height="53.24" id="RegisterVehicleCheckUpUI" rx="2.5" ry="2.5" style="stroke:#181818;stroke-width:0.5;" width="282" x="469" y="7"/><ellipse cx="485" cy="25.62" fill="#ADD1B2" rx="12" ry="12" style="stroke:#181818;stroke-width:1.0;"/><path d="M484.5156,32.8231 Q482.4531,32.8231 481.125,31.9481 Q479.7969,31.0731 479.1406,29.495 Q478.5,27.9012 478.5,25.7762 Q478.5,23.4012 479.2656,21.6981 Q480.0469,19.9794 481.5469,19.0575 Q483.0625,18.1356 485.2656,18.1356 Q486.2969,18.1356 487.0781,18.3544 Q487.875,18.5575 488.7031,18.9637 L487.7344,21.3387 Q487,20.9637 486.3594,20.8231 Q485.7344,20.6825 485.1563,20.6825 Q483.7813,20.6825 482.9531,21.3075 Q482.1406,21.9169 481.7813,23.0419 Q481.4375,24.1669 481.4375,25.6669 Q481.4375,28.0262 482.2813,29.1512 Q483.125,30.2762 485,30.2762 Q485.7031,30.2762 486.4219,30.1044 Q487.1563,29.9169 488.1406,29.4794 L488.1406,32.0731 Q487.2813,32.4637 486.3438,32.6356 Q485.4219,32.8231 484.5156,32.8231 Z " fill="#000000"/><text fill="#000000" font-family="sans-serif" font-size="20" lengthAdjust="spacing" textLength="248" x="500" y="33.38">RegisterVehicleCheckUpUI</text><line style="stroke:#181818;stroke-width:0.5;" x1="470" x2="750" y1="44.24" y2="44.24"/><line style="stroke:#181818;stroke-width:0.5;" x1="470" x2="750" y1="52.24" y2="52.24"/></g><!--class RegistVehicleCheckUpController--><g id="elem_RegistVehicleCheckUpController"><rect codeLine="16" fill="#F1F1F1" height="107.7199" id="RegistVehicleCheckUpController" rx="2.5" ry="2.5" style="stroke:#181818;stroke-width:0.5;" width="334" x="443" y="120.24"/><ellipse cx="459" cy="138.86" fill="#ADD1B2" rx="12" ry="12" style="stroke:#181818;stroke-width:1.0;"/><path d="M458.5156,146.0631 Q456.4531,146.0631 455.125,145.1881 Q453.7969,144.3131 453.1406,142.735 Q452.5,141.1412 452.5,139.0162 Q452.5,136.6412 453.2656,134.9381 Q454.0469,133.2194 455.5469,132.2975 Q457.0625,131.3756 459.2656,131.3756 Q460.2969,131.3756 461.0781,131.5944 Q461.875,131.7975 462.7031,132.2037 L461.7344,134.5787 Q461,134.2037 460.3594,134.0631 Q459.7344,133.9225 459.1563,133.9225 Q457.7813,133.9225 456.9531,134.5475 Q456.1406,135.1569 455.7813,136.2819 Q455.4375,137.4069 455.4375,138.9069 Q455.4375,141.2662 456.2813,142.3912 Q457.125,143.5162 459,143.5162 Q459.7031,143.5162 460.4219,143.3444 Q461.1563,143.1569 462.1406,142.7194 L462.1406,145.3131 Q461.2813,145.7037 460.3438,145.8756 Q459.4219,146.0631 458.5156,146.0631 Z " fill="#000000"/><text fill="#000000" font-family="sans-serif" font-size="20" lengthAdjust="spacing" textLength="300" x="474" y="146.62">RegistVehicleCheckUpController</text><line style="stroke:#181818;stroke-width:0.5;" x1="444" x2="776" y1="157.48" y2="157.48"/><text fill="#000000" font-family="sans-serif" font-size="20" lengthAdjust="spacing" textLength="116" x="449" y="182.86">-vehiclePlate</text><line style="stroke:#181818;stroke-width:0.5;" x1="444" x2="776" y1="192.7199" y2="192.7199"/><text fill="#000000" font-family="sans-serif" font-size="20" lengthAdjust="spacing" textLength="183" x="449" y="218.0999">+storeVehiclePlate()</text></g><!--class Repositories--><g id="elem_Repositories"><rect codeLine="22" fill="#F1F1F1" height="134.9599" id="Repositories" rx="2.5" ry="2.5" style="stroke:#181818;stroke-width:0.5;" width="320" x="7" y="287.96"/><ellipse cx="105" cy="306.58" fill="#ADD1B2" rx="12" ry="12" style="stroke:#181818;stroke-width:1.0;"/><path d="M104.5156,313.7831 Q102.4531,313.7831 101.125,312.9081 Q99.7969,312.0331 99.1406,310.455 Q98.5,308.8612 98.5,306.7362 Q98.5,304.3612 99.2656,302.6581 Q100.0469,300.9394 101.5469,300.0175 Q103.0625,299.0956 105.2656,299.0956 Q106.2969,299.0956 107.0781,299.3144 Q107.875,299.5175 108.7031,299.9237 L107.7344,302.2987 Q107,301.9237 106.3594,301.7831 Q105.7344,301.6425 105.1563,301.6425 Q103.7813,301.6425 102.9531,302.2675 Q102.1406,302.8769 101.7813,304.0019 Q101.4375,305.1269 101.4375,306.6269 Q101.4375,308.9862 102.2813,310.1112 Q103.125,311.2362 105,311.2362 Q105.7031,311.2362 106.4219,311.0644 Q107.1563,310.8769 108.1406,310.4394 L108.1406,313.0331 Q107.2813,313.4237 106.3438,313.5956 Q105.4219,313.7831 104.5156,313.7831 Z " fill="#000000"/><text fill="#000000" font-family="sans-serif" font-size="20" lengthAdjust="spacing" textLength="115" x="127" y="314.34">Repositories</text><line style="stroke:#181818;stroke-width:0.5;" x1="8" x2="326" y1="325.2" y2="325.2"/><line style="stroke:#181818;stroke-width:0.5;" x1="8" x2="326" y1="333.2" y2="333.2"/><text fill="#000000" font-family="sans-serif" font-size="20" lengthAdjust="spacing" textLength="133" x="13" y="358.58">-Repositories()</text><text fill="#000000" font-family="sans-serif" font-size="20" lengthAdjust="spacing" textLength="263" x="13" y="385.8199">+getInstance() : Repositories</text><text fill="#000000" font-family="sans-serif" font-size="20" lengthAdjust="spacing" textLength="308" x="13" y="413.0599">+getRegistedVehiclesRepository()</text></g><!--class registedVehicleCheckUpsRepository--><g id="elem_registedVehicleCheckUpsRepository"><rect codeLine="28" fill="#F1F1F1" height="134.9599" id="registedVehicleCheckUpsRepository" rx="2.5" ry="2.5" style="stroke:#181818;stroke-width:0.5;" width="496" x="362" y="287.96"/><ellipse cx="438" cy="306.58" fill="#ADD1B2" rx="12" ry="12" style="stroke:#181818;stroke-width:1.0;"/><path d="M437.5156,313.7831 Q435.4531,313.7831 434.125,312.9081 Q432.7969,312.0331 432.1406,310.455 Q431.5,308.8612 431.5,306.7362 Q431.5,304.3612 432.2656,302.6581 Q433.0469,300.9394 434.5469,300.0175 Q436.0625,299.0956 438.2656,299.0956 Q439.2969,299.0956 440.0781,299.3144 Q440.875,299.5175 441.7031,299.9237 L440.7344,302.2987 Q440,301.9237 439.3594,301.7831 Q438.7344,301.6425 438.1563,301.6425 Q436.7813,301.6425 435.9531,302.2675 Q435.1406,302.8769 434.7813,304.0019 Q434.4375,305.1269 434.4375,306.6269 Q434.4375,308.9862 435.2813,310.1112 Q436.125,311.2362 438,311.2362 Q438.7031,311.2362 439.4219,311.0644 Q440.1563,310.8769 441.1406,310.4394 L441.1406,313.0331 Q440.2813,313.4237 439.3438,313.5956 Q438.4219,313.7831 437.5156,313.7831 Z " fill="#000000"/><text fill="#000000" font-family="sans-serif" font-size="20" lengthAdjust="spacing" textLength="335" x="460" y="314.34">registedVehicleCheckUpsRepository</text><line style="stroke:#181818;stroke-width:0.5;" x1="363" x2="857" y1="325.2" y2="325.2"/><text fill="#000000" font-family="sans-serif" font-size="20" lengthAdjust="spacing" textLength="341" x="368" y="350.58">-registedVehicleCheckUpsRepository</text><line style="stroke:#181818;stroke-width:0.5;" x1="363" x2="857" y1="360.4399" y2="360.4399"/><text fill="#000000" font-family="sans-serif" font-size="20" lengthAdjust="spacing" textLength="484" x="368" y="385.8199">+addVehicleCheckUp(vehiclePlate plate,information)</text><text fill="#000000" font-family="sans-serif" font-size="20" lengthAdjust="spacing" textLength="470" x="368" y="413.0599">+validateVehicleCheckUp(vehiclePlate,information)</text></g><!--class vehicleCheckUp--><g id="elem_vehicleCheckUp"><rect codeLine="35" fill="#F1F1F1" height="107.7199" id="vehicleCheckUp" rx="2.5" ry="2.5" style="stroke:#181818;stroke-width:0.5;" width="327" x="893.5" y="301.58"/><ellipse cx="978.5" cy="320.2" fill="#ADD1B2" rx="12" ry="12" style="stroke:#181818;stroke-width:1.0;"/><path d="M978.0156,327.4031 Q975.9531,327.4031 974.625,326.5281 Q973.2969,325.6531 972.6406,324.075 Q972,322.4812 972,320.3562 Q972,317.9812 972.7656,316.2781 Q973.5469,314.5594 975.0469,313.6375 Q976.5625,312.7156 978.7656,312.7156 Q979.7969,312.7156 980.5781,312.9344 Q981.375,313.1375 982.2031,313.5437 L981.2344,315.9187 Q980.5,315.5437 979.8594,315.4031 Q979.2344,315.2625 978.6563,315.2625 Q977.2813,315.2625 976.4531,315.8875 Q975.6406,316.4969 975.2813,317.6219 Q974.9375,318.7469 974.9375,320.2469 Q974.9375,322.6062 975.7813,323.7312 Q976.625,324.8562 978.5,324.8562 Q979.2031,324.8562 979.9219,324.6844 Q980.6563,324.4969 981.6406,324.0594 L981.6406,326.6531 Q980.7813,327.0437 979.8438,327.2156 Q978.9219,327.4031 978.0156,327.4031 Z " fill="#000000"/><text fill="#000000" font-family="sans-serif" font-size="20" lengthAdjust="spacing" textLength="148" x="1000.5" y="327.96">vehicleCheckUp</text><line style="stroke:#181818;stroke-width:0.5;" x1="894.5" x2="1219.5" y1="338.82" y2="338.82"/><text fill="#000000" font-family="sans-serif" font-size="20" lengthAdjust="spacing" textLength="166" x="899.5" y="364.2">-VehicleCheckUps</text><line style="stroke:#181818;stroke-width:0.5;" x1="894.5" x2="1219.5" y1="374.0599" y2="374.0599"/><text fill="#000000" font-family="sans-serif" font-size="20" lengthAdjust="spacing" textLength="315" x="899.5" y="399.4399">+validateinformation(information)</text></g><!--link RegisterVehicleCheckUpUI to RegistVehicleCheckUpController--><g id="link_RegisterVehicleCheckUpUI_RegistVehicleCheckUpController"><path codeLine="40" d="M610,60.67 C610,77.36 610,99.62 610,119.93 " fill="none" id="RegisterVehicleCheckUpUI-RegistVehicleCheckUpController" style="stroke:#181818;stroke-width:1.0;"/></g><!--link RegistVehicleCheckUpController to Repositories--><g id="link_RegistVehicleCheckUpController_Repositories"><path codeLine="42" d="M478.28,228.42 C430.85,247.63 376.79,269.51 327.19,289.59 " fill="none" id="RegistVehicleCheckUpController-Repositories" style="stroke:#181818;stroke-width:1.0;"/></g><!--link RegistVehicleCheckUpController to registedVehicleCheckUpsRepository--><g id="link_RegistVehicleCheckUpController_registedVehicleCheckUpsRepository"><path codeLine="44" d="M610,228.42 C610,247.01 610,268.1 610,287.64 " fill="none" id="RegistVehicleCheckUpController-registedVehicleCheckUpsRepository" style="stroke:#181818;stroke-width:1.0;"/></g><!--link RegistVehicleCheckUpController to vehicleCheckUp--><g id="link_RegistVehicleCheckUpController_vehicleCheckUp"><path codeLine="46" d="M742.9,228.42 C800.16,251.4 866.98,278.2 924.22,301.17 " fill="none" id="RegistVehicleCheckUpController-vehicleCheckUp" style="stroke:#181818;stroke-width:1.0;"/></g><!--reverse link Repositories to registedVehicleCheckUpsRepository--><g id="link_Repositories_registedVehicleCheckUpsRepository"><path codeLine="48" d="M341.51,355.44 C347.63,355.44 354.49,355.44 361.75,355.44 " fill="none" id="Repositories-backto-registedVehicleCheckUpsRepository" style="stroke:#181818;stroke-width:1.0;"/><polygon fill="#181818" points="328.77,355.44,334.77,359.44,340.77,355.44,334.77,351.44,328.77,355.44" style="stroke:#181818;stroke-width:1.0;"/></g><!--reverse link registedVehicleCheckUpsRepository to vehicleCheckUp--><g id="link_registedVehicleCheckUpsRepository_vehicleCheckUp"><path codeLine="50" d="M872.89,355.44 C880.55,355.44 887.42,355.44 893.02,355.44 " fill="none" id="registedVehicleCheckUpsRepository-backto-vehicleCheckUp" style="stroke:#181818;stroke-width:1.0;"/><polygon fill="none" points="859.9,355.44,865.9,359.44,871.9,355.44,865.9,351.44,859.9,355.44" style="stroke:#181818;stroke-width:1.0;"/></g><!--SRC=[ZP9DRy8m38Rl-HM-mJwGq8wxJKYJk4r3SCzIjusQnb5YcBff_tqfb99s6gM7IBKVlw_j95JQEkbbRKXLc466kTmRVYNB6_s5yBGKit1ce2PBglHK8x3VexXad5ILB733ZK7mg5ZQmgH0A6L6dzeMa4iJqepH5hbn28vCq_waZdsIF9D8gfIH8RmmU_snPrmhiiT-bqBC3EOCJE1rKJ9akcr7anNYM0FlMEZ0w7TOQcLmLQAgjcwx5jz2_0oX8RAAI_5a3Fg8GlmMS3W1RqOo7aCF49WyxfBu_2wLTHHq93G6E8kamGYVP0hajGrnZIeAmFC0kY3TB5dd5tggILtzaEh6IU2-bKcoivRP29cdcm3Nde_QvkHhsUx-FDL16ft5t9NYOLcSeHlYC2ZfEnvrEl99jEPZtV_U0ImMKzSlhkTF2ibztS1FR_u6aU6EsehakTtVP3BzLkYFpoy0]--></g></svg>