<?xml version="1.0" encoding="us-ascii" standalone="no"?><svg xmlns="http://www.w3.org/2000/svg" xmlns:xlink="http://www.w3.org/1999/xlink" contentStyleType="text/css" height="1263px" preserveAspectRatio="none" style="width:1532px;height:1263px;background:#FFFFFF;" version="1.1" viewBox="0 0 1532 1263" width="1532px" zoomAndPan="magnify"><defs/><g><rect fill="#FFFFFF" height="1031.3027" style="stroke:#181818;stroke-width:1.0;" width="10" x="59" y="112.2422"/><rect fill="#FFFFFF" height="351.5313" style="stroke:#181818;stroke-width:1.0;" width="10" x="431" y="135.5332"/><rect fill="#FFFFFF" height="199.7461" style="stroke:#181818;stroke-width:1.0;" width="10" x="431" y="518.3555"/><rect fill="#FFFFFF" height="314.2793" style="stroke:#181818;stroke-width:1.0;" width="10" x="431" y="766.6836"/><rect fill="#FFFFFF" height="31.291" style="stroke:#181818;stroke-width:1.0;" width="10" x="431" y="1112.2539"/><rect fill="#FFFFFF" height="252.6582" style="stroke:#181818;stroke-width:1.0;" width="10" x="651" y="176.8242"/><rect fill="#FFFFFF" height="119.873" style="stroke:#181818;stroke-width:1.0;" width="10" x="651" y="549.6465"/><rect fill="#FFFFFF" height="42.291" style="stroke:#181818;stroke-width:1.0;" width="10" x="656" y="588.9375"/><rect fill="#FFFFFF" height="251.6973" style="stroke:#181818;stroke-width:1.0;" width="10" x="651" y="797.9746"/><rect fill="#FFFFFF" height="31.291" style="stroke:#181818;stroke-width:1.0;" width="10" x="821" y="210.4453"/><rect fill="#FFFFFF" height="31.291" style="stroke:#181818;stroke-width:1.0;" width="10" x="935" y="273.0273"/><rect fill="#FFFFFF" height="31.291" style="stroke:#181818;stroke-width:1.0;" width="10" x="935" y="335.6094"/><rect fill="#FFFFFF" height="31.291" style="stroke:#181818;stroke-width:1.0;" width="10" x="935" y="398.1914"/><rect fill="#FFFFFF" height="189.1152" style="stroke:#181818;stroke-width:1.0;" width="10" x="1117" y="829.2656"/><rect fill="none" height="543.6074" style="stroke:#000000;stroke-width:1.5;" width="1516.5" x="10" y="444.4824"/><line style="stroke:#181818;stroke-width:0.5;stroke-dasharray:5.0,5.0;" x1="64" x2="64" y1="102.2422" y2="1161.5449"/><line style="stroke:#181818;stroke-width:0.5;stroke-dasharray:5.0,5.0;" x1="436" x2="436" y1="102.2422" y2="1161.5449"/><line style="stroke:#181818;stroke-width:0.5;stroke-dasharray:5.0,5.0;" x1="655.5" x2="655.5" y1="175.3438" y2="1161.5449"/><line style="stroke:#181818;stroke-width:0.5;stroke-dasharray:5.0,5.0;" x1="825.5" x2="825.5" y1="102.2422" y2="1161.5449"/><line style="stroke:#181818;stroke-width:0.5;stroke-dasharray:5.0,5.0;" x1="939.5" x2="939.5" y1="102.2422" y2="1161.5449"/><line style="stroke:#181818;stroke-width:0.5;stroke-dasharray:5.0,5.0;" x1="1121.5" x2="1121.5" y1="102.2422" y2="1161.5449"/><line style="stroke:#181818;stroke-width:0.5;stroke-dasharray:5.0,5.0;" x1="1456.5" x2="1456.5" y1="878.3867" y2="1161.5449"/><text fill="#000000" font-family="sans-serif" font-size="14" lengthAdjust="spacing" textLength="82" x="20" y="80.1074">Vehicle Fleet</text><text fill="#000000" font-family="sans-serif" font-size="14" lengthAdjust="spacing" textLength="56" x="33" y="98.7285">Manager</text><ellipse cx="64" cy="13.5" fill="#E3E3E3" rx="8" ry="8" style="stroke:#181818;stroke-width:0.5;"/><path d="M64,21.5 L64,48.5 M51,29.5 L77,29.5 M64,48.5 L51,63.5 M64,48.5 L77,63.5 " fill="none" style="stroke:#181818;stroke-width:0.5;"/><text fill="#000000" font-family="sans-serif" font-size="14" lengthAdjust="spacing" textLength="82" x="20" y="1175.6523">Vehicle Fleet</text><text fill="#000000" font-family="sans-serif" font-size="14" lengthAdjust="spacing" textLength="56" x="33" y="1194.2734">Manager</text><ellipse cx="64" cy="1206.2871" fill="#E3E3E3" rx="8" ry="8" style="stroke:#181818;stroke-width:0.5;"/><path d="M64,1214.2871 L64,1241.2871 M51,1222.2871 L77,1222.2871 M64,1241.2871 L51,1256.2871 M64,1241.2871 L77,1256.2871 " fill="none" style="stroke:#181818;stroke-width:0.5;"/><rect fill="#E3E3E3" height="32.6211" rx="2.5" ry="2.5" style="stroke:#181818;stroke-width:0.5;" width="186" x="343" y="68.6211"/><text fill="#000000" font-family="sans-serif" font-size="14" lengthAdjust="spacing" textLength="172" x="350" y="90.7285">:RegisterVehicleCheckUpUI</text><rect fill="#E3E3E3" height="32.6211" rx="2.5" ry="2.5" style="stroke:#181818;stroke-width:0.5;" width="186" x="343" y="1160.5449"/><text fill="#000000" font-family="sans-serif" font-size="14" lengthAdjust="spacing" textLength="172" x="350" y="1182.6523">:RegisterVehicleCheckUpUI</text><rect fill="#E3E3E3" height="32.6211" rx="2.5" ry="2.5" style="stroke:#181818;stroke-width:0.5;" width="223" x="544.5" y="1160.5449"/><text fill="#000000" font-family="sans-serif" font-size="14" lengthAdjust="spacing" textLength="209" x="551.5" y="1182.6523">:RegistVehicleCheckUpController</text><rect fill="#E3E3E3" height="32.6211" rx="2.5" ry="2.5" style="stroke:#181818;stroke-width:0.5;" width="97" x="777.5" y="68.6211"/><text fill="#000000" font-family="sans-serif" font-size="14" lengthAdjust="spacing" textLength="83" x="784.5" y="90.7285">:Repositories</text><rect fill="#E3E3E3" height="32.6211" rx="2.5" ry="2.5" style="stroke:#181818;stroke-width:0.5;" width="97" x="777.5" y="1160.5449"/><text fill="#000000" font-family="sans-serif" font-size="14" lengthAdjust="spacing" textLength="83" x="784.5" y="1182.6523">:Repositories</text><rect fill="#E3E3E3" height="51.2422" rx="2.5" ry="2.5" style="stroke:#181818;stroke-width:0.5;" width="97" x="891.5" y="50"/><text fill="#000000" font-family="sans-serif" font-size="14" lengthAdjust="spacing" textLength="74" x="903" y="72.1074">repositories</text><text fill="#000000" font-family="sans-serif" font-size="14" lengthAdjust="spacing" textLength="83" x="898.5" y="90.7285">:Repositories</text><rect fill="#E3E3E3" height="51.2422" rx="2.5" ry="2.5" style="stroke:#181818;stroke-width:0.5;" width="97" x="891.5" y="1160.5449"/><text fill="#000000" font-family="sans-serif" font-size="14" lengthAdjust="spacing" textLength="74" x="903" y="1182.6523">repositories</text><text fill="#000000" font-family="sans-serif" font-size="14" lengthAdjust="spacing" textLength="83" x="898.5" y="1201.2734">:Repositories</text><rect fill="#E3E3E3" height="51.2422" rx="2.5" ry="2.5" style="stroke:#181818;stroke-width:0.5;" width="247" x="998.5" y="50"/><text fill="#000000" font-family="sans-serif" font-size="14" lengthAdjust="spacing" textLength="233" x="1005.5" y="72.1074">registedVehicleCheckUpsRepository:</text><text fill="#000000" font-family="sans-serif" font-size="14" lengthAdjust="spacing" textLength="224" x="1014.5" y="90.7285">egistedVehicleCheckUpsRepository</text><rect fill="#E3E3E3" height="51.2422" rx="2.5" ry="2.5" style="stroke:#181818;stroke-width:0.5;" width="247" x="998.5" y="1160.5449"/><text fill="#000000" font-family="sans-serif" font-size="14" lengthAdjust="spacing" textLength="233" x="1005.5" y="1182.6523">registedVehicleCheckUpsRepository:</text><text fill="#000000" font-family="sans-serif" font-size="14" lengthAdjust="spacing" textLength="224" x="1014.5" y="1201.2734">egistedVehicleCheckUpsRepository</text><rect fill="#E3E3E3" height="51.2422" rx="2.5" ry="2.5" style="stroke:#181818;stroke-width:0.5;" width="119" x="1397.5" y="1160.5449"/><text fill="#000000" font-family="sans-serif" font-size="14" lengthAdjust="spacing" textLength="70" x="1422" y="1182.6523">information</text><text fill="#000000" font-family="sans-serif" font-size="14" lengthAdjust="spacing" textLength="105" x="1404.5" y="1201.2734">:veichleCheckUp</text><rect fill="#FFFFFF" height="1031.3027" style="stroke:#181818;stroke-width:1.0;" width="10" x="59" y="112.2422"/><rect fill="#FFFFFF" height="351.5313" style="stroke:#181818;stroke-width:1.0;" width="10" x="431" y="135.5332"/><rect fill="#FFFFFF" height="199.7461" style="stroke:#181818;stroke-width:1.0;" width="10" x="431" y="518.3555"/><rect fill="#FFFFFF" height="314.2793" style="stroke:#181818;stroke-width:1.0;" width="10" x="431" y="766.6836"/><rect fill="#FFFFFF" height="31.291" style="stroke:#181818;stroke-width:1.0;" width="10" x="431" y="1112.2539"/><rect fill="#FFFFFF" height="252.6582" style="stroke:#181818;stroke-width:1.0;" width="10" x="651" y="176.8242"/><rect fill="#FFFFFF" height="119.873" style="stroke:#181818;stroke-width:1.0;" width="10" x="651" y="549.6465"/><rect fill="#FFFFFF" height="42.291" style="stroke:#181818;stroke-width:1.0;" width="10" x="656" y="588.9375"/><rect fill="#FFFFFF" height="251.6973" style="stroke:#181818;stroke-width:1.0;" width="10" x="651" y="797.9746"/><rect fill="#FFFFFF" height="31.291" style="stroke:#181818;stroke-width:1.0;" width="10" x="821" y="210.4453"/><rect fill="#FFFFFF" height="31.291" style="stroke:#181818;stroke-width:1.0;" width="10" x="935" y="273.0273"/><rect fill="#FFFFFF" height="31.291" style="stroke:#181818;stroke-width:1.0;" width="10" x="935" y="335.6094"/><rect fill="#FFFFFF" height="31.291" style="stroke:#181818;stroke-width:1.0;" width="10" x="935" y="398.1914"/><rect fill="#FFFFFF" height="189.1152" style="stroke:#181818;stroke-width:1.0;" width="10" x="1117" y="829.2656"/><polygon fill="#181818" points="419,131.5332,429,135.5332,419,139.5332,423,135.5332" style="stroke:#181818;stroke-width:1.0;"/><line style="stroke:#181818;stroke-width:1.0;" x1="69" x2="425" y1="135.5332" y2="135.5332"/><text fill="#000000" font-family="sans-serif" font-size="13" font-weight="bold" lengthAdjust="spacing" textLength="7" x="76" y="130.2705">1</text><text fill="#000000" font-family="sans-serif" font-size="13" lengthAdjust="spacing" textLength="217" x="87" y="130.2705">asks to regist a new vehicle check-up</text><polygon fill="#181818" points="532.5,162.8242,542.5,166.8242,532.5,170.8242,536.5,166.8242" style="stroke:#181818;stroke-width:1.0;"/><line style="stroke:#181818;stroke-width:1.0;" x1="441" x2="538.5" y1="166.8242" y2="166.8242"/><text fill="#000000" font-family="sans-serif" font-size="13" font-weight="bold" lengthAdjust="spacing" textLength="7" x="448" y="161.5615">2</text><text fill="#000000" font-family="sans-serif" font-size="13" lengthAdjust="spacing" textLength="36" x="459" y="161.5615">create</text><rect fill="#E3E3E3" height="32.6211" rx="2.5" ry="2.5" style="stroke:#181818;stroke-width:0.5;" width="223" x="544.5" y="143.5332"/><text fill="#000000" font-family="sans-serif" font-size="14" lengthAdjust="spacing" textLength="209" x="551.5" y="165.6406">:RegistVehicleCheckUpController</text><polygon fill="#181818" points="809,206.4453,819,210.4453,809,214.4453,813,210.4453" style="stroke:#181818;stroke-width:1.0;"/><line style="stroke:#181818;stroke-width:1.0;" x1="661" x2="815" y1="210.4453" y2="210.4453"/><text fill="#000000" font-family="sans-serif" font-size="13" font-weight="bold" lengthAdjust="spacing" textLength="7" x="668" y="205.1826">3</text><text fill="#000000" font-family="sans-serif" font-size="13" lengthAdjust="spacing" textLength="75" x="679" y="205.1826">getInstance()</text><polygon fill="#181818" points="672,237.7363,662,241.7363,672,245.7363,668,241.7363" style="stroke:#181818;stroke-width:1.0;"/><line style="stroke:#181818;stroke-width:1.0;stroke-dasharray:2.0,2.0;" x1="666" x2="825" y1="241.7363" y2="241.7363"/><text fill="#000000" font-family="sans-serif" font-size="13" font-weight="bold" lengthAdjust="spacing" textLength="7" x="678" y="236.4736">4</text><text fill="#000000" font-family="sans-serif" font-size="13" lengthAdjust="spacing" textLength="67" x="689" y="236.4736">repositories</text><polygon fill="#181818" points="923,269.0273,933,273.0273,923,277.0273,927,273.0273" style="stroke:#181818;stroke-width:1.0;"/><line style="stroke:#181818;stroke-width:1.0;" x1="661" x2="929" y1="273.0273" y2="273.0273"/><text fill="#000000" font-family="sans-serif" font-size="13" font-weight="bold" lengthAdjust="spacing" textLength="7" x="668" y="267.7646">5</text><text fill="#000000" font-family="sans-serif" font-size="13" lengthAdjust="spacing" textLength="189" x="679" y="267.7646">getRegistedVehiclesRepository()</text><polygon fill="#181818" points="672,300.3184,662,304.3184,672,308.3184,668,304.3184" style="stroke:#181818;stroke-width:1.0;"/><line style="stroke:#181818;stroke-width:1.0;stroke-dasharray:2.0,2.0;" x1="666" x2="939" y1="304.3184" y2="304.3184"/><text fill="#000000" font-family="sans-serif" font-size="13" font-weight="bold" lengthAdjust="spacing" textLength="7" x="678" y="299.0557">6</text><text fill="#000000" font-family="sans-serif" font-size="13" lengthAdjust="spacing" textLength="158" x="689" y="299.0557">registedVehiclesRepository</text><polygon fill="#181818" points="923,331.6094,933,335.6094,923,339.6094,927,335.6094" style="stroke:#181818;stroke-width:1.0;"/><line style="stroke:#181818;stroke-width:1.0;" x1="661" x2="929" y1="335.6094" y2="335.6094"/><text fill="#000000" font-family="sans-serif" font-size="13" font-weight="bold" lengthAdjust="spacing" textLength="7" x="668" y="330.3467">7</text><text fill="#000000" font-family="sans-serif" font-size="13" lengthAdjust="spacing" textLength="244" x="679" y="330.3467">getRegistedPlateCertificationsRepository()</text><polygon fill="#181818" points="672,362.9004,662,366.9004,672,370.9004,668,366.9004" style="stroke:#181818;stroke-width:1.0;"/><line style="stroke:#181818;stroke-width:1.0;stroke-dasharray:2.0,2.0;" x1="666" x2="939" y1="366.9004" y2="366.9004"/><text fill="#000000" font-family="sans-serif" font-size="13" font-weight="bold" lengthAdjust="spacing" textLength="7" x="678" y="361.6377">8</text><text fill="#000000" font-family="sans-serif" font-size="13" lengthAdjust="spacing" textLength="218" x="689" y="361.6377">RegistedPlateCertificationsRepository</text><polygon fill="#181818" points="923,394.1914,933,398.1914,923,402.1914,927,398.1914" style="stroke:#181818;stroke-width:1.0;"/><line style="stroke:#181818;stroke-width:1.0;" x1="661" x2="929" y1="398.1914" y2="398.1914"/><text fill="#000000" font-family="sans-serif" font-size="13" font-weight="bold" lengthAdjust="spacing" textLength="7" x="668" y="392.9287">9</text><text fill="#000000" font-family="sans-serif" font-size="13" lengthAdjust="spacing" textLength="226" x="679" y="392.9287">registedVehiclesCheckUpsRepository()</text><polygon fill="#181818" points="667,425.4824,657,429.4824,667,433.4824,663,429.4824" style="stroke:#181818;stroke-width:1.0;"/><line style="stroke:#181818;stroke-width:1.0;stroke-dasharray:2.0,2.0;" x1="661" x2="939" y1="429.4824" y2="429.4824"/><text fill="#000000" font-family="sans-serif" font-size="13" font-weight="bold" lengthAdjust="spacing" textLength="14" x="673" y="424.2197">10</text><text fill="#000000" font-family="sans-serif" font-size="13" lengthAdjust="spacing" textLength="218" x="691" y="424.2197">registedVehiclesCheckUpsRepository</text><path d="M10,444.4824 L83,444.4824 L83,453.7734 L73,463.7734 L10,463.7734 L10,444.4824 " fill="#EEEEEE" style="stroke:#000000;stroke-width:1.5;"/><rect fill="none" height="543.6074" style="stroke:#000000;stroke-width:1.5;" width="1516.5" x="10" y="444.4824"/><text fill="#000000" font-family="sans-serif" font-size="13" font-weight="bold" lengthAdjust="spacing" textLength="28" x="25" y="459.5107">loop</text><text fill="#000000" font-family="sans-serif" font-size="11" font-weight="bold" lengthAdjust="spacing" textLength="90" x="98" y="458.3525">[while intended]</text><polygon fill="#181818" points="80,483.0645,70,487.0645,80,491.0645,76,487.0645" style="stroke:#181818;stroke-width:1.0;"/><line style="stroke:#181818;stroke-width:1.0;stroke-dasharray:2.0,2.0;" x1="74" x2="435" y1="487.0645" y2="487.0645"/><text fill="#000000" font-family="sans-serif" font-size="13" font-weight="bold" lengthAdjust="spacing" textLength="14" x="86" y="481.8018">11</text><text fill="#000000" font-family="sans-serif" font-size="13" lengthAdjust="spacing" textLength="140" x="104" y="481.8018">request the veichle plate</text><polygon fill="#181818" points="419,514.3555,429,518.3555,419,522.3555,423,518.3555" style="stroke:#181818;stroke-width:1.0;"/><line style="stroke:#181818;stroke-width:1.0;" x1="69" x2="425" y1="518.3555" y2="518.3555"/><text fill="#000000" font-family="sans-serif" font-size="13" font-weight="bold" lengthAdjust="spacing" textLength="14" x="76" y="513.0928">12</text><text fill="#000000" font-family="sans-serif" font-size="13" lengthAdjust="spacing" textLength="125" x="94" y="513.0928">Type the veichle plate</text><polygon fill="#181818" points="639,545.6465,649,549.6465,639,553.6465,643,549.6465" style="stroke:#181818;stroke-width:1.0;"/><line style="stroke:#181818;stroke-width:1.0;" x1="441" x2="645" y1="549.6465" y2="549.6465"/><text fill="#000000" font-family="sans-serif" font-size="13" font-weight="bold" lengthAdjust="spacing" textLength="14" x="448" y="544.3838">13</text><text fill="#000000" font-family="sans-serif" font-size="13" lengthAdjust="spacing" textLength="69" x="466" y="544.3838">veichlePlate</text><line style="stroke:#181818;stroke-width:1.0;" x1="661" x2="708" y1="575.9375" y2="575.9375"/><line style="stroke:#181818;stroke-width:1.0;" x1="708" x2="708" y1="575.9375" y2="588.9375"/><line style="stroke:#181818;stroke-width:1.0;" x1="667" x2="708" y1="588.9375" y2="588.9375"/><polygon fill="#181818" points="677,584.9375,667,588.9375,677,592.9375,673,588.9375" style="stroke:#181818;stroke-width:1.0;"/><text fill="#000000" font-family="sans-serif" font-size="13" font-weight="bold" lengthAdjust="spacing" textLength="14" x="673" y="570.6748">14</text><text fill="#000000" font-family="sans-serif" font-size="13" lengthAdjust="spacing" textLength="110" x="691" y="570.6748">storeVeichlePlate()</text><line style="stroke:#181818;stroke-width:1.0;stroke-dasharray:2.0,2.0;" x1="666" x2="708" y1="630.2285" y2="630.2285"/><line style="stroke:#181818;stroke-width:1.0;stroke-dasharray:2.0,2.0;" x1="708" x2="708" y1="630.2285" y2="643.2285"/><line style="stroke:#181818;stroke-width:1.0;stroke-dasharray:2.0,2.0;" x1="661" x2="708" y1="643.2285" y2="643.2285"/><polygon fill="#181818" points="671,639.2285,661,643.2285,671,647.2285,667,643.2285" style="stroke:#181818;stroke-width:1.0;"/><text fill="#000000" font-family="sans-serif" font-size="13" font-weight="bold" lengthAdjust="spacing" textLength="14" x="673" y="624.9658">15</text><text fill="#000000" font-family="sans-serif" font-size="13" lengthAdjust="spacing" textLength="49" x="691" y="624.9658">success</text><polygon fill="#181818" points="452,665.5195,442,669.5195,452,673.5195,448,669.5195" style="stroke:#181818;stroke-width:1.0;"/><line style="stroke:#181818;stroke-width:1.0;stroke-dasharray:2.0,2.0;" x1="446" x2="655" y1="669.5195" y2="669.5195"/><text fill="#000000" font-family="sans-serif" font-size="13" font-weight="bold" lengthAdjust="spacing" textLength="14" x="458" y="664.2568">16</text><text fill="#000000" font-family="sans-serif" font-size="13" lengthAdjust="spacing" textLength="49" x="476" y="664.2568">success</text><polygon fill="#181818" points="80,714.1016,70,718.1016,80,722.1016,76,718.1016" style="stroke:#181818;stroke-width:1.0;"/><line style="stroke:#181818;stroke-width:1.0;stroke-dasharray:2.0,2.0;" x1="74" x2="435" y1="718.1016" y2="718.1016"/><text fill="#000000" font-family="sans-serif" font-size="13" font-weight="bold" lengthAdjust="spacing" textLength="14" x="86" y="704.1934">17</text><text fill="#000000" font-family="sans-serif" font-size="13" lengthAdjust="spacing" textLength="259" x="104" y="695.5479">Requests the information about the check-up</text><text fill="#000000" font-family="sans-serif" font-size="13" lengthAdjust="spacing" textLength="127" x="108" y="712.8389">(i.e. date, place, kms)</text><polygon fill="#181818" points="419,762.6836,429,766.6836,419,770.6836,423,766.6836" style="stroke:#181818;stroke-width:1.0;"/><line style="stroke:#181818;stroke-width:1.0;" x1="69" x2="425" y1="766.6836" y2="766.6836"/><text fill="#000000" font-family="sans-serif" font-size="13" font-weight="bold" lengthAdjust="spacing" textLength="14" x="76" y="752.7754">18</text><text fill="#000000" font-family="sans-serif" font-size="13" lengthAdjust="spacing" textLength="239" x="94" y="744.1299">Types the information about the check-up</text><text fill="#000000" font-family="sans-serif" font-size="13" lengthAdjust="spacing" textLength="127" x="98" y="761.4209">(i.e. date, place, kms)</text><polygon fill="#181818" points="639,793.9746,649,797.9746,639,801.9746,643,797.9746" style="stroke:#181818;stroke-width:1.0;"/><line style="stroke:#181818;stroke-width:1.0;" x1="441" x2="645" y1="797.9746" y2="797.9746"/><text fill="#000000" font-family="sans-serif" font-size="13" font-weight="bold" lengthAdjust="spacing" textLength="14" x="448" y="792.7119">19</text><text fill="#000000" font-family="sans-serif" font-size="13" lengthAdjust="spacing" textLength="36" x="466" y="792.7119">create</text><polygon fill="#181818" points="1105,825.2656,1115,829.2656,1105,833.2656,1109,829.2656" style="stroke:#181818;stroke-width:1.0;"/><line style="stroke:#181818;stroke-width:1.0;" x1="661" x2="1111" y1="829.2656" y2="829.2656"/><text fill="#000000" font-family="sans-serif" font-size="13" font-weight="bold" lengthAdjust="spacing" textLength="14" x="668" y="824.0029">20</text><text fill="#000000" font-family="sans-serif" font-size="13" lengthAdjust="spacing" textLength="36" x="686" y="824.0029">create</text><polygon fill="#181818" points="1385.5,856.5566,1395.5,860.5566,1385.5,864.5566,1389.5,860.5566" style="stroke:#181818;stroke-width:1.0;"/><line style="stroke:#181818;stroke-width:1.0;" x1="1127" x2="1391.5" y1="860.5566" y2="860.5566"/><text fill="#000000" font-family="sans-serif" font-size="13" font-weight="bold" lengthAdjust="spacing" textLength="14" x="1134" y="855.2939">21</text><text fill="#000000" font-family="sans-serif" font-size="13" lengthAdjust="spacing" textLength="36" x="1152" y="855.2939">create</text><rect fill="#E3E3E3" height="51.2422" rx="2.5" ry="2.5" style="stroke:#181818;stroke-width:0.5;" width="119" x="1397.5" y="837.2656"/><text fill="#000000" font-family="sans-serif" font-size="14" lengthAdjust="spacing" textLength="70" x="1422" y="859.373">information</text><text fill="#000000" font-family="sans-serif" font-size="14" lengthAdjust="spacing" textLength="105" x="1404.5" y="877.9941">:veichleCheckUp</text><line style="stroke:#181818;stroke-width:1.0;" x1="1127" x2="1169" y1="922.7988" y2="922.7988"/><line style="stroke:#181818;stroke-width:1.0;" x1="1169" x2="1169" y1="922.7988" y2="935.7988"/><line style="stroke:#181818;stroke-width:1.0;" x1="1128" x2="1169" y1="935.7988" y2="935.7988"/><polygon fill="#181818" points="1138,931.7988,1128,935.7988,1138,939.7988,1134,935.7988" style="stroke:#181818;stroke-width:1.0;"/><text fill="#000000" font-family="sans-serif" font-size="13" font-weight="bold" lengthAdjust="spacing" textLength="14" x="1134" y="917.5361">22</text><text fill="#000000" font-family="sans-serif" font-size="13" lengthAdjust="spacing" textLength="293" x="1152" y="917.5361">addVeichleCheckUp(veichlePlate plate,information)</text><line style="stroke:#181818;stroke-width:1.0;" x1="1127" x2="1169" y1="967.0898" y2="967.0898"/><line style="stroke:#181818;stroke-width:1.0;" x1="1169" x2="1169" y1="967.0898" y2="980.0898"/><line style="stroke:#181818;stroke-width:1.0;" x1="1128" x2="1169" y1="980.0898" y2="980.0898"/><polygon fill="#181818" points="1138,976.0898,1128,980.0898,1138,984.0898,1134,980.0898" style="stroke:#181818;stroke-width:1.0;"/><text fill="#000000" font-family="sans-serif" font-size="13" font-weight="bold" lengthAdjust="spacing" textLength="14" x="1134" y="961.8271">23</text><text fill="#000000" font-family="sans-serif" font-size="13" lengthAdjust="spacing" textLength="283" x="1152" y="961.8271">validateVeichleCheckUp(veichlePlate,information)</text><polygon fill="#181818" points="672,1014.3809,662,1018.3809,672,1022.3809,668,1018.3809" style="stroke:#181818;stroke-width:1.0;"/><line style="stroke:#181818;stroke-width:1.0;stroke-dasharray:2.0,2.0;" x1="666" x2="1121" y1="1018.3809" y2="1018.3809"/><text fill="#000000" font-family="sans-serif" font-size="13" font-weight="bold" lengthAdjust="spacing" textLength="14" x="678" y="1013.1182">24</text><text fill="#000000" font-family="sans-serif" font-size="13" lengthAdjust="spacing" textLength="163" x="696" y="1013.1182">registedVeichleCheckUpList</text><polygon fill="#181818" points="452,1045.6719,442,1049.6719,452,1053.6719,448,1049.6719" style="stroke:#181818;stroke-width:1.0;"/><line style="stroke:#181818;stroke-width:1.0;stroke-dasharray:2.0,2.0;" x1="446" x2="655" y1="1049.6719" y2="1049.6719"/><text fill="#000000" font-family="sans-serif" font-size="13" font-weight="bold" lengthAdjust="spacing" textLength="14" x="458" y="1044.4092">25</text><text fill="#000000" font-family="sans-serif" font-size="13" lengthAdjust="spacing" textLength="168" x="476" y="1044.4092">RegistedVeichleCheckUpList</text><polygon fill="#181818" points="80,1076.9629,70,1080.9629,80,1084.9629,76,1080.9629" style="stroke:#181818;stroke-width:1.0;"/><line style="stroke:#181818;stroke-width:1.0;stroke-dasharray:2.0,2.0;" x1="74" x2="435" y1="1080.9629" y2="1080.9629"/><text fill="#000000" font-family="sans-serif" font-size="13" font-weight="bold" lengthAdjust="spacing" textLength="14" x="86" y="1075.7002">26</text><text fill="#000000" font-family="sans-serif" font-size="13" lengthAdjust="spacing" textLength="320" x="104" y="1075.7002">list all registered veichle check-ups and asks to confirm</text><polygon fill="#181818" points="419,1108.2539,429,1112.2539,419,1116.2539,423,1112.2539" style="stroke:#181818;stroke-width:1.0;"/><line style="stroke:#181818;stroke-width:1.0;" x1="69" x2="425" y1="1112.2539" y2="1112.2539"/><text fill="#000000" font-family="sans-serif" font-size="13" font-weight="bold" lengthAdjust="spacing" textLength="14" x="76" y="1106.9912">27</text><text fill="#000000" font-family="sans-serif" font-size="13" lengthAdjust="spacing" textLength="173" x="94" y="1106.9912">confirms all veichle check-ups</text><polygon fill="#181818" points="75,1139.5449,65,1143.5449,75,1147.5449,71,1143.5449" style="stroke:#181818;stroke-width:1.0;"/><line style="stroke:#181818;stroke-width:1.0;stroke-dasharray:2.0,2.0;" x1="69" x2="435" y1="1143.5449" y2="1143.5449"/><text fill="#000000" font-family="sans-serif" font-size="13" font-weight="bold" lengthAdjust="spacing" textLength="14" x="81" y="1138.2822">28</text><text fill="#000000" font-family="sans-serif" font-size="13" lengthAdjust="spacing" textLength="158" x="99" y="1138.2822">displays operation success</text><!--SRC=[jLR1Rk8m4BtxAqQz5AhI3-YXKaLLgL8hLRJbnCLr1c9XxApjqENlTnn2i4aWTBUR4zWpRzvuPfxjbb8NtF8Lh8ms8hTcXU1jYSmrEmKNIxx0DxzH21Q5vtgXOWENyynyIRs0ELSE6UEbDxfSVQ9bx3AN6SBS6FzfVZCklB5mCSLS2a9xL8X-fb-ufW3s0hY3wUCB8rWlXIouzd1nEy65T1vjxJJEKIm_Ye-dolpZgTCwjHqRxQrHgWunVfyyjxmAuoHna-WgcsPXyoP3kfHGwc8ZZvbk0xm-txyVUbHvP2atjuzqE-irgQ1xhTAuKi-DNN4lZIQYQvGYRvmgl0VkEGkbaMlkiQe0W_gZFp2wesE6Mp9TEl2cZWySD7x1kYwb282ZijYxDe1K8tO9qKTe8mAzVtWXL8k_IdJUGKOqO61nZXQrm6l8q0ahYq3y6g1EGy5CfpiUHQwbe9raEIijt_uInlaXYmbS2ek1MTK9XypkgkMhA-AsDKiicgmgtsGhV64rG7Jq3-4jq3zfHmCaS31i-JRGNStNiWvVLvHHdK0usNrFjjmp_5wuNMAXhxUPJD8sZFhlL6xLN7GcKo77x8_1dygbWZ-V-wiYfp7IjCofWqAxf6dqv7566cT5-jUC3i-gBGa_aaj_c6yb4kqbWwYCAU0hbwGgKdlK6MQiGpw2D3No0Jv7gBKD2XLFRHGcAD6Xghrl2ZpYtV9homG1r7wlwb0gsd9nh8mragCZn6a4Tx9gdOXxr0Ys50BTIGau9MQxW-g2EGcHr6coa_bmrD6L1FpJbDloxQuG4lY1lC6RS2FGDK3r2BV1SkM6twdf3qIAOxHBtrmFhByqkqBtNjtGHasG- -_-moBsXoHUuGbmTTLvuPsDqV- -0Pvbq-JzCOY7Ppjvrr79Xl-DoPeh6Of-Waut4PAZlo6rdyQzSHpvcTQEJLP_pTdngPqS3yTwfpYPO5Kz-fJQyR6ODPgv6oW7N6VDGr4OFPTsjSNh6TdQrbKHMh2iSnuJUfbqr3yR1wR0xSilKQo3yD7VyDxz0m00]--></g></svg>