<?xml version="1.0" encoding="UTF-8" standalone="no"?><svg xmlns="http://www.w3.org/2000/svg" xmlns:xlink="http://www.w3.org/1999/xlink" contentStyleType="text/css" height="1417px" preserveAspectRatio="none" style="width:1677px;height:1417px;background:#FFFFFF;" version="1.1" viewBox="0 0 1677 1417" width="1677px" zoomAndPan="magnify"><defs/><g><!--class Collaborator--><g id="elem_Collaborator"><rect codeLine="9" fill="#F1F1F1" height="235.9198" id="Collaborator" rx="2.5" ry="2.5" style="stroke:#181818;stroke-width:0.5;" width="148" x="589.16" y="436.12"/><text fill="#000000" font-family="sans-serif" font-size="20" lengthAdjust="spacing" textLength="116" x="605.16" y="462.5">Collaborator</text><line style="stroke:#181818;stroke-width:0.5;" x1="590.16" x2="736.16" y1="473.36" y2="473.36"/><text fill="#000000" font-family="sans-serif" font-size="20" lengthAdjust="spacing" textLength="53" x="595.16" y="498.74">name</text><text fill="#000000" font-family="sans-serif" font-size="20" lengthAdjust="spacing" textLength="88" x="595.16" y="525.9799">bornDate</text><text fill="#000000" font-family="sans-serif" font-size="20" lengthAdjust="spacing" textLength="86" x="595.16" y="553.2199">admDate</text><text fill="#000000" font-family="sans-serif" font-size="20" lengthAdjust="spacing" textLength="136" x="595.16" y="580.4599">phoneNumber</text><text fill="#000000" font-family="sans-serif" font-size="20" lengthAdjust="spacing" textLength="51" x="595.16" y="607.6999">email</text><text fill="#000000" font-family="sans-serif" font-size="20" lengthAdjust="spacing" textLength="61" x="595.16" y="634.9398">idCard</text><text fill="#000000" font-family="sans-serif" font-size="20" lengthAdjust="spacing" textLength="94" x="595.16" y="662.1798">idNumber</text></g><!--class Address--><g id="elem_Address"><rect codeLine="19" fill="#F1F1F1" height="72.4799" id="Address" rx="2.5" ry="2.5" style="stroke:#181818;stroke-width:0.5;" width="133" x="938.66" y="827.12"/><text fill="#000000" font-family="sans-serif" font-size="20" lengthAdjust="spacing" textLength="76" x="967.16" y="853.5">Address</text><line style="stroke:#181818;stroke-width:0.5;" x1="939.66" x2="1070.66" y1="864.36" y2="864.36"/><text fill="#000000" font-family="sans-serif" font-size="20" lengthAdjust="spacing" textLength="121" x="944.66" y="889.74">doorNumber</text></g><!--class ZipCode--><g id="elem_ZipCode"><rect codeLine="23" fill="#F1F1F1" height="99.7199" id="ZipCode" rx="2.5" ry="2.5" style="stroke:#181818;stroke-width:0.5;" width="82" x="964.16" y="1055.12"/><text fill="#000000" font-family="sans-serif" font-size="20" lengthAdjust="spacing" textLength="76" x="967.16" y="1081.5">ZipCode</text><line style="stroke:#181818;stroke-width:0.5;" x1="965.16" x2="1045.16" y1="1092.36" y2="1092.36"/><text fill="#000000" font-family="sans-serif" font-size="20" lengthAdjust="spacing" textLength="43" x="970.16" y="1117.74">local</text><text fill="#000000" font-family="sans-serif" font-size="20" lengthAdjust="spacing" textLength="54" x="970.16" y="1144.9799">street</text></g><!--class HumanResourceManager--><g id="elem_HumanResourceManager"><rect codeLine="28" fill="#F1F1F1" height="45.24" id="HumanResourceManager" rx="2.5" ry="2.5" style="stroke:#181818;stroke-width:0.5;" width="244" x="266.16" y="7.12"/><text fill="#000000" font-family="sans-serif" font-size="20" lengthAdjust="spacing" textLength="238" x="269.16" y="33.5">HumanResourceManager</text><line style="stroke:#181818;stroke-width:0.5;" x1="267.16" x2="509.16" y1="44.36" y2="44.36"/></g><!--class VehicleFleetManager--><g id="elem_VehicleFleetManager"><rect codeLine="30" fill="#F1F1F1" height="45.24" id="VehicleFleetManager" rx="2.5" ry="2.5" style="stroke:#181818;stroke-width:0.5;" width="199" x="1130.66" y="7"/><text fill="#000000" font-family="sans-serif" font-size="20" lengthAdjust="spacing" textLength="193" x="1133.66" y="33.38">VehicleFleetManager</text><line style="stroke:#181818;stroke-width:0.5;" x1="1131.66" x2="1328.66" y1="44.24" y2="44.24"/></g><!--class SoftwareQualityTeamManager--><g id="elem_SoftwareQualityTeamManager"><rect codeLine="32" fill="#F1F1F1" height="45.24" id="SoftwareQualityTeamManager" rx="2.5" ry="2.5" style="stroke:#181818;stroke-width:0.5;" width="290" x="569.16" y="7"/><text fill="#000000" font-family="sans-serif" font-size="20" lengthAdjust="spacing" textLength="284" x="572.16" y="33.38">SoftwareQualityTeamManager</text><line style="stroke:#181818;stroke-width:0.5;" x1="570.16" x2="858.16" y1="44.24" y2="44.24"/></g><!--class GreenSpaceManager--><g id="elem_GreenSpaceManager"><rect codeLine="34" fill="#F1F1F1" height="45.24" id="GreenSpaceManager" rx="2.5" ry="2.5" style="stroke:#181818;stroke-width:0.5;" width="201" x="894.66" y="7"/><text fill="#000000" font-family="sans-serif" font-size="20" lengthAdjust="spacing" textLength="195" x="897.66" y="33.38">GreenSpaceManager</text><line style="stroke:#181818;stroke-width:0.5;" x1="895.66" x2="1094.66" y1="44.24" y2="44.24"/></g><!--class GreenSpaceUser--><g id="elem_GreenSpaceUser"><rect codeLine="36" fill="#F1F1F1" height="45.24" id="GreenSpaceUser" rx="2.5" ry="2.5" style="stroke:#181818;stroke-width:0.5;" width="162" x="226.16" y="1082.12"/><text fill="#000000" font-family="sans-serif" font-size="20" lengthAdjust="spacing" textLength="156" x="229.16" y="1108.5">GreenSpaceUser</text><line style="stroke:#181818;stroke-width:0.5;" x1="227.16" x2="387.16" y1="1119.36" y2="1119.36"/></g><!--class Skill--><g id="elem_Skill"><rect codeLine="38" fill="#F1F1F1" height="72.4799" id="Skill" rx="2.5" ry="2.5" style="stroke:#181818;stroke-width:0.5;" width="65" x="307.66" y="827.12"/><text fill="#000000" font-family="sans-serif" font-size="20" lengthAdjust="spacing" textLength="37" x="321.66" y="853.5">Skill</text><line style="stroke:#181818;stroke-width:0.5;" x1="308.66" x2="371.66" y1="864.36" y2="864.36"/><text fill="#000000" font-family="sans-serif" font-size="20" lengthAdjust="spacing" textLength="53" x="313.66" y="889.74">name</text></g><!--class Job--><g id="elem_Job"><rect codeLine="42" fill="#F1F1F1" height="72.4799" id="Job" rx="2.5" ry="2.5" style="stroke:#181818;stroke-width:0.5;" width="65" x="526.66" y="827.12"/><text fill="#000000" font-family="sans-serif" font-size="20" lengthAdjust="spacing" textLength="29" x="544.66" y="853.5">Job</text><line style="stroke:#181818;stroke-width:0.5;" x1="527.66" x2="590.66" y1="864.36" y2="864.36"/><text fill="#000000" font-family="sans-serif" font-size="20" lengthAdjust="spacing" textLength="53" x="532.66" y="889.74">name</text></g><!--class Task--><g id="elem_Task"><rect codeLine="46" fill="#F1F1F1" height="72.4799" id="Task" rx="2.5" ry="2.5" style="stroke:#181818;stroke-width:0.5;" width="65" x="77.66" y="1068.62"/><text fill="#000000" font-family="sans-serif" font-size="20" lengthAdjust="spacing" textLength="43" x="88.66" y="1095">Task</text><line style="stroke:#181818;stroke-width:0.5;" x1="78.66" x2="141.66" y1="1105.86" y2="1105.86"/><text fill="#000000" font-family="sans-serif" font-size="20" lengthAdjust="spacing" textLength="53" x="83.66" y="1131.24">name</text></g><!--class Team--><g id="elem_Team"><rect codeLine="50" fill="#F1F1F1" height="72.4799" id="Team" rx="2.5" ry="2.5" style="stroke:#181818;stroke-width:0.5;" width="65" x="147.66" y="208.12"/><text fill="#000000" font-family="sans-serif" font-size="20" lengthAdjust="spacing" textLength="52" x="154.16" y="234.5">Team</text><line style="stroke:#181818;stroke-width:0.5;" x1="148.66" x2="211.66" y1="245.36" y2="245.36"/><text fill="#000000" font-family="sans-serif" font-size="20" lengthAdjust="spacing" textLength="53" x="153.66" y="270.74">name</text></g><!--class Vehicle--><g id="elem_Vehicle"><rect codeLine="54" fill="#F1F1F1" height="126.9599" id="Vehicle" rx="2.5" ry="2.5" style="stroke:#181818;stroke-width:0.5;" width="157" x="1311.66" y="181.12"/><text fill="#000000" font-family="sans-serif" font-size="20" lengthAdjust="spacing" textLength="66" x="1357.16" y="207.5">Vehicle</text><line style="stroke:#181818;stroke-width:0.5;" x1="1312.66" x2="1467.66" y1="218.36" y2="218.36"/><text fill="#000000" font-family="sans-serif" font-size="20" lengthAdjust="spacing" textLength="99" x="1317.66" y="243.74">currentKm</text><text fill="#000000" font-family="sans-serif" font-size="20" lengthAdjust="spacing" textLength="145" x="1317.66" y="270.9799">acquisitionDate</text><text fill="#000000" font-family="sans-serif" font-size="20" lengthAdjust="spacing" textLength="121" x="1317.66" y="298.2199">maintenance</text></g><!--class PlateCertification--><g id="elem_PlateCertification"><rect codeLine="60" fill="#F1F1F1" height="235.9198" id="PlateCertification" rx="2.5" ry="2.5" style="stroke:#181818;stroke-width:0.5;" width="165" x="1307.66" y="436.12"/><text fill="#000000" font-family="sans-serif" font-size="20" lengthAdjust="spacing" textLength="159" x="1310.66" y="462.5">PlateCertification</text><line style="stroke:#181818;stroke-width:0.5;" x1="1308.66" x2="1471.66" y1="473.36" y2="473.36"/><text fill="#000000" font-family="sans-serif" font-size="20" lengthAdjust="spacing" textLength="55" x="1313.66" y="498.74">brand</text><text fill="#000000" font-family="sans-serif" font-size="20" lengthAdjust="spacing" textLength="59" x="1313.66" y="525.9799">model</text><text fill="#000000" font-family="sans-serif" font-size="20" lengthAdjust="spacing" textLength="40" x="1313.66" y="553.2199">type</text><text fill="#000000" font-family="sans-serif" font-size="20" lengthAdjust="spacing" textLength="37" x="1313.66" y="580.4599">tare</text><text fill="#000000" font-family="sans-serif" font-size="20" lengthAdjust="spacing" textLength="118" x="1313.66" y="607.6999">grossWeight</text><text fill="#000000" font-family="sans-serif" font-size="20" lengthAdjust="spacing" textLength="116" x="1313.66" y="634.9398">registerDate</text><text fill="#000000" font-family="sans-serif" font-size="20" lengthAdjust="spacing" textLength="46" x="1313.66" y="662.1798">plate</text></g><!--class VehicleCheckUp--><g id="elem_VehicleCheckUp"><rect codeLine="70" fill="#F1F1F1" height="126.9599" id="VehicleCheckUp" rx="2.5" ry="2.5" style="stroke:#181818;stroke-width:0.5;" width="156" x="1320.16" y="800.12"/><text fill="#000000" font-family="sans-serif" font-size="20" lengthAdjust="spacing" textLength="150" x="1323.16" y="826.5">VehicleCheckUp</text><line style="stroke:#181818;stroke-width:0.5;" x1="1321.16" x2="1475.16" y1="837.36" y2="837.36"/><text fill="#000000" font-family="sans-serif" font-size="20" lengthAdjust="spacing" textLength="41" x="1326.16" y="862.74">date</text><text fill="#000000" font-family="sans-serif" font-size="20" lengthAdjust="spacing" textLength="49" x="1326.16" y="889.9799">place</text><text fill="#000000" font-family="sans-serif" font-size="20" lengthAdjust="spacing" textLength="40" x="1326.16" y="917.2199">kms</text></g><!--class TypeGarden--><g id="elem_TypeGarden"><rect codeLine="76" fill="#F1F1F1" height="126.9599" id="TypeGarden" rx="2.5" ry="2.5" style="stroke:#181818;stroke-width:0.5;" width="207" x="104.66" y="1283.12"/><text fill="#000000" font-family="sans-serif" font-size="20" lengthAdjust="spacing" textLength="113" x="151.66" y="1309.5">TypeGarden</text><line style="stroke:#181818;stroke-width:0.5;" x1="105.66" x2="310.66" y1="1320.36" y2="1320.36"/><text fill="#000000" font-family="sans-serif" font-size="20" lengthAdjust="spacing" textLength="66" x="110.66" y="1345.74">garden</text><text fill="#000000" font-family="sans-serif" font-size="20" lengthAdjust="spacing" textLength="195" x="110.66" y="1372.9799">mediumSizedGarden</text><text fill="#000000" font-family="sans-serif" font-size="20" lengthAdjust="spacing" textLength="164" x="110.66" y="1400.2199">largeSizedGarden</text></g><!--class Agenda--><g id="elem_Agenda"><rect codeLine="82" fill="#F1F1F1" height="45.24" id="Agenda" rx="2.5" ry="2.5" style="stroke:#181818;stroke-width:0.5;" width="77" x="140.66" y="531.12"/><text fill="#000000" font-family="sans-serif" font-size="20" lengthAdjust="spacing" textLength="71" x="143.66" y="557.5">Agenda</text><line style="stroke:#181818;stroke-width:0.5;" x1="141.66" x2="216.66" y1="568.36" y2="568.36"/></g><!--link HumanResourceManager to Skill--><g id="link_HumanResourceManager_Skill"><path codeLine="84" d="M379.21,51.88 C358.16,103.2 305.94,238.39 288.16,357.12 C261.83,532.98 309.3,745.3 330.6,827.39 " fill="none" id="HumanResourceManager-Skill" style="stroke:#181818;stroke-width:1.0;"/><polygon fill="#000000" points="295.6595,379.7243,301.258,365.5747,291.8718,364.9864,295.6595,379.7243" style="stroke:#000000;stroke-width:1.0;"/><text fill="#000000" font-family="sans-serif" font-size="20" lengthAdjust="spacing" textLength="53" x="309.16" y="379.5">regist</text><text fill="#000000" font-family="sans-serif" font-size="20" lengthAdjust="spacing" textLength="11" x="364.8684" y="81.5295">1</text><text fill="#000000" font-family="sans-serif" font-size="20" lengthAdjust="spacing" textLength="32" x="294.2069" y="813.288">1..*</text></g><!--link HumanResourceManager to Job--><g id="link_HumanResourceManager_Job"><path codeLine="85" d="M393.66,51.93 C406.98,103.89 441.69,241.37 466.16,357.12 C503.36,533.09 539.69,745.35 553.41,827.4 " fill="none" id="HumanResourceManager-Job" style="stroke:#181818;stroke-width:1.0;"/><polygon fill="#000000" points="481.7741,379.5755,483.4597,364.4522,474.2486,366.3497,481.7741,379.5755" style="stroke:#000000;stroke-width:1.0;"/><text fill="#000000" font-family="sans-serif" font-size="20" lengthAdjust="spacing" textLength="53" x="493.16" y="379.5">regist</text><text fill="#000000" font-family="sans-serif" font-size="20" lengthAdjust="spacing" textLength="11" x="382.66" y="81.591">1</text><text fill="#000000" font-family="sans-serif" font-size="20" lengthAdjust="spacing" textLength="32" x="517.6717" y="813.2997">1..*</text></g><!--link HumanResourceManager to Collaborator--><g id="link_HumanResourceManager_Collaborator"><path codeLine="86" d="M473.15,52.05 C534.95,68.44 609.43,90.18 619.16,102.12 C639.89,127.55 652.3,311.51 658.42,436.35 " fill="none" id="HumanResourceManager-Collaborator" style="stroke:#181818;stroke-width:1.0;"/><polygon fill="#000000" points="663.6341,251.4463,661.5851,236.3679,653.1136,240.452,663.6341,251.4463" style="stroke:#000000;stroke-width:1.0;"/><text fill="#000000" font-family="sans-serif" font-size="20" lengthAdjust="spacing" textLength="53" x="673.16" y="252">regist</text><text fill="#000000" font-family="sans-serif" font-size="20" lengthAdjust="spacing" textLength="11" x="480.5321" y="81.7388">1</text><text fill="#000000" font-family="sans-serif" font-size="20" lengthAdjust="spacing" textLength="32" x="659.1413" y="422.3308">1..*</text></g><!--link HumanResourceManager to Collaborator--><g id="link_HumanResourceManager_Collaborator"><path codeLine="90" d="M458.11,52.08 C484.27,63.25 512.21,79.44 531.16,102.12 C571.1,149.92 610.41,301.26 635.6,415.44 " fill="none" id="HumanResourceManager-to-Collaborator" style="stroke:#181818;stroke-width:1.0;"/><polygon fill="none" points="642.4,413.79,639.81,434.82,628.72,416.77,642.4,413.79" style="stroke:#181818;stroke-width:1.0;"/></g><!--link HumanResourceManager to Team--><g id="link_HumanResourceManager_Team"><path codeLine="87" d="M266.27,45.63 C232.62,56.02 199.73,73.34 179.16,102.12 C157.24,132.79 162.05,177.58 169.37,208.41 " fill="none" id="HumanResourceManager-Team" style="stroke:#181818;stroke-width:1.0;"/><polygon fill="#000000" points="183.0679,123.6142,194.5111,113.5839,186.43,108.7734,183.0679,123.6142" style="stroke:#000000;stroke-width:1.0;"/><text fill="#000000" font-family="sans-serif" font-size="20" lengthAdjust="spacing" textLength="68" x="200.16" y="124.5">creates</text><text fill="#000000" font-family="sans-serif" font-size="20" lengthAdjust="spacing" textLength="11" x="247.1091" y="68.9005">1</text><text fill="#000000" font-family="sans-serif" font-size="20" lengthAdjust="spacing" textLength="32" x="132.7655" y="194.3114">1..*</text></g><!--link VehicleFleetManager to Collaborator--><g id="link_VehicleFleetManager_Collaborator"><path codeLine="89" d="M1174.79,52.67 C1148.17,64.87 1116.77,81.7 1092.16,102.12 C994.45,183.18 1003.01,234.51 916.16,327.12 C865.45,381.2 803.36,436.67 753.39,479.07 " fill="none" id="VehicleFleetManager-to-Collaborator" style="stroke:#181818;stroke-width:1.0;"/><polygon fill="none" points="757.9,484.42,738.09,491.95,748.88,473.71,757.9,484.42" style="stroke:#181818;stroke-width:1.0;"/></g><!--link SoftwareQualityTeamManager to Collaborator--><g id="link_SoftwareQualityTeamManager_Collaborator"><path codeLine="91" d="M721.24,52.49 C729.15,78.17 741.46,122.21 746.16,161.12 C755.01,234.37 759.1,254.49 746.16,327.12 C740.91,356.59 732.08,387.26 722.09,416.14 " fill="none" id="SoftwareQualityTeamManager-to-Collaborator" style="stroke:#181818;stroke-width:1.0;"/><polygon fill="none" points="728.7,418.43,715.35,434.88,715.53,413.7,728.7,418.43" style="stroke:#181818;stroke-width:1.0;"/></g><!--link GreenSpaceManager to Collaborator--><g id="link_GreenSpaceManager_Collaborator"><path codeLine="92" d="M981.11,52.72 C941.84,114.46 828.58,292.54 748.46,418.5 " fill="none" id="GreenSpaceManager-to-Collaborator" style="stroke:#181818;stroke-width:1.0;"/><polygon fill="none" points="754.59,421.91,737.95,435.02,742.78,414.39,754.59,421.91" style="stroke:#181818;stroke-width:1.0;"/></g><!--link Collaborator to Job--><g id="link_Collaborator_Job"><path codeLine="94" d="M623.84,670.87 C604.98,726.66 583.74,789.46 570.91,827.39 " fill="none" id="Collaborator-Job" style="stroke:#181818;stroke-width:1.0;"/><polygon fill="#000000" points="615.7228,728.1616,606.6322,740.3647,615.5411,743.3774,615.7228,728.1616" style="stroke:#000000;stroke-width:1.0;"/><text fill="#000000" font-family="sans-serif" font-size="20" lengthAdjust="spacing" textLength="107" x="626.16" y="743.5">assigned to</text><text fill="#000000" font-family="sans-serif" font-size="20" lengthAdjust="spacing" textLength="32" x="587.9503" y="701.4194">1..*</text><text fill="#000000" font-family="sans-serif" font-size="20" lengthAdjust="spacing" textLength="11" x="560.9842" y="813.288">1</text></g><!--link Collaborator to Skill--><g id="link_Collaborator_Skill"><path codeLine="95" d="M589.5,610.8 C550.34,641.85 502.15,681.98 462.16,721.12 C427.34,755.2 391.3,797.94 367.5,827.38 " fill="none" id="Collaborator-Skill" style="stroke:#181818;stroke-width:1.0;"/><polygon fill="#000000" points="475.8863,730.1535,462.2436,736.8937,468.811,743.6254,475.8863,730.1535" style="stroke:#000000;stroke-width:1.0;"/><text fill="#000000" font-family="sans-serif" font-size="20" lengthAdjust="spacing" textLength="107" x="483.16" y="743.5">assigned to</text><text fill="#000000" font-family="sans-serif" font-size="20" lengthAdjust="spacing" textLength="11" x="570.3366" y="609.6494">*</text><text fill="#000000" font-family="sans-serif" font-size="20" lengthAdjust="spacing" textLength="11" x="360.2537" y="813.2762">*</text></g><!--link Collaborator to Address--><g id="link_Collaborator_Address"><path codeLine="96" d="M736.95,620.96 C807.44,684.35 910.95,777.41 966.51,827.37 " fill="none" id="Collaborator-Address" style="stroke:#181818;stroke-width:1.0;"/><polygon fill="#000000" points="888.1089,741.0889,880.4913,727.916,874.2032,734.9093,888.1089,741.0889" style="stroke:#000000;stroke-width:1.0;"/><text fill="#000000" font-family="sans-serif" font-size="20" lengthAdjust="spacing" textLength="50" x="895.16" y="743.5">owns</text><text fill="#000000" font-family="sans-serif" font-size="20" lengthAdjust="spacing" textLength="11" x="745.1566" y="630.3869">1</text><text fill="#000000" font-family="sans-serif" font-size="20" lengthAdjust="spacing" textLength="11" x="947.9217" y="813.2645">1</text></g><!--link Address to ZipCode--><g id="link_Address_ZipCode"><path codeLine="97" d="M1005.16,898.95 C1005.16,940.2 1005.16,1009.16 1005.16,1055.5 " fill="none" id="Address-ZipCode" style="stroke:#181818;stroke-width:1.0;"/><polygon fill="#000000" points="1013.16,998.74,1017.8623,984.2679,1008.4577,984.2679,1013.16,998.74" style="stroke:#000000;stroke-width:1.0;"/><text fill="#000000" font-family="sans-serif" font-size="20" lengthAdjust="spacing" textLength="50" x="1026.16" y="998.5">owns</text><text fill="#000000" font-family="sans-serif" font-size="20" lengthAdjust="spacing" textLength="11" x="993.1803" y="929.0955">1</text><text fill="#000000" font-family="sans-serif" font-size="20" lengthAdjust="spacing" textLength="11" x="993.4209" y="1041.4332">1</text></g><!--link Team to Collaborator--><g id="link_Team_Collaborator"><path codeLine="99" d="M212.48,262.16 C251.19,283 317.54,320.1 371.16,357.12 C388.07,368.79 390.53,374.06 407.16,386.12 C466.93,429.46 537.42,474.91 589.29,507.36 " fill="none" id="Team-Collaborator" style="stroke:#181818;stroke-width:1.0;"/><polygon fill="#000000" points="421.8653,376.1033,412.3,364.2687,407.1706,372.1513,421.8653,376.1033" style="stroke:#000000;stroke-width:1.0;"/><text fill="#000000" font-family="sans-serif" font-size="20" lengthAdjust="spacing" textLength="33" x="428.16" y="379.5">has</text><text fill="#000000" font-family="sans-serif" font-size="20" lengthAdjust="spacing" textLength="11" x="220.5893" y="259.6892">1</text><text fill="#000000" font-family="sans-serif" font-size="20" lengthAdjust="spacing" textLength="32" x="549.286" y="496.3873">1..*</text></g><!--link Team to Agenda--><g id="link_Team_Agenda"><path codeLine="100" d="M180.05,280.09 C179.84,344.32 179.4,479.24 179.23,531.4 " fill="none" id="Team-Agenda" style="stroke:#181818;stroke-width:1.0;"/><polygon fill="#000000" points="188.1339,379.7399,192.8834,365.2832,183.4789,365.2525,188.1339,379.7399" style="stroke:#000000;stroke-width:1.0;"/><text fill="#000000" font-family="sans-serif" font-size="20" lengthAdjust="spacing" textLength="33" x="201.16" y="379.5">has</text><text fill="#000000" font-family="sans-serif" font-size="20" lengthAdjust="spacing" textLength="11" x="168.0858" y="309.952">1</text><text fill="#000000" font-family="sans-serif" font-size="20" lengthAdjust="spacing" textLength="11" x="166.9064" y="517.0732">1</text></g><!--link Task to Team--><g id="link_Task_Team"><path codeLine="101" d="M99.13,1068.72 C79.88,1005.83 40.92,868.94 27.16,750.12 C6,567.44 112.11,360.72 158.9,280.01 " fill="none" id="Task-Team" style="stroke:#181818;stroke-width:1.0;"/><polygon fill="#000000" points="35.7645,727.7629,29.9821,741.8383,39.3598,742.5489,35.7645,727.7629" style="stroke:#000000;stroke-width:1.0;"/><text fill="#000000" font-family="sans-serif" font-size="20" lengthAdjust="spacing" textLength="107" x="48.16" y="743.5">assigned to</text><text fill="#000000" font-family="sans-serif" font-size="20" lengthAdjust="spacing" textLength="32" x="62.6532" y="1054.8982">1..*</text><text fill="#000000" font-family="sans-serif" font-size="20" lengthAdjust="spacing" textLength="32" x="120.4959" y="309.8583">1..*</text></g><!--link Agenda to Task--><g id="link_Agenda_Task"><path codeLine="102" d="M178.04,576.08 C176.05,612.11 171.39,687.05 164.16,750.12 C150.7,867.62 127.37,1006 116.31,1069.11 " fill="none" id="Agenda-Task" style="stroke:#181818;stroke-width:1.0;"/><polygon fill="#000000" points="168.1661,871.178,174.6299,857.4022,165.2982,856.2338,168.1661,871.178" style="stroke:#000000;stroke-width:1.0;"/><text fill="#000000" font-family="sans-serif" font-size="20" lengthAdjust="spacing" textLength="33" x="182.16" y="871">has</text><text fill="#000000" font-family="sans-serif" font-size="20" lengthAdjust="spacing" textLength="32" x="142.081" y="605.7757">1..*</text><text fill="#000000" font-family="sans-serif" font-size="20" lengthAdjust="spacing" textLength="32" x="120.2555" y="1054.7387">1..*</text></g><!--link VehicleFleetManager to Vehicle--><g id="link_VehicleFleetManager_Vehicle"><path codeLine="104" d="M1246.68,52.56 C1269.36,82.68 1311.02,138.01 1343.63,181.33 " fill="none" id="VehicleFleetManager-Vehicle" style="stroke:#181818;stroke-width:1.0;"/><polygon fill="#000000" points="1317.9718,123.1311,1313.0238,108.7411,1305.5105,114.3978,1317.9718,123.1311" style="stroke:#000000;stroke-width:1.0;"/><text fill="#000000" font-family="sans-serif" font-size="20" lengthAdjust="spacing" textLength="53" x="1326.16" y="124.5">regist</text><text fill="#000000" font-family="sans-serif" font-size="20" lengthAdjust="spacing" textLength="11" x="1237.9529" y="81.4805">1</text><text fill="#000000" font-family="sans-serif" font-size="20" lengthAdjust="spacing" textLength="32" x="1304.7908" y="167.3264">1..*</text></g><!--link VehicleFleetManager to VehicleCheckUp--><g id="link_VehicleFleetManager_VehicleCheckUp"><path codeLine="105" d="M1226.79,52.66 C1214.65,138.16 1178.33,454.84 1266.16,691.12 C1281.19,731.55 1309.35,770.16 1335.82,800.43 " fill="none" id="VehicleFleetManager-VehicleCheckUp" style="stroke:#181818;stroke-width:1.0;"/><polygon fill="#000000" points="1219.3142,379.6563,1221.8793,364.6571,1212.5731,366.014,1219.3142,379.6563" style="stroke:#000000;stroke-width:1.0;"/><text fill="#000000" font-family="sans-serif" font-size="20" lengthAdjust="spacing" textLength="53" x="1231.16" y="379.5">regist</text><text fill="#000000" font-family="sans-serif" font-size="20" lengthAdjust="spacing" textLength="11" x="1223.9121" y="81.6011">1</text><text fill="#000000" font-family="sans-serif" font-size="20" lengthAdjust="spacing" textLength="32" x="1295.2516" y="786.4373">1..*</text></g><!--link VehicleFleetManager to Address--><g id="link_VehicleFleetManager_Address"><path codeLine="106" d="M1222.85,52.66 C1205.55,105.11 1161.18,241.62 1129.16,357.12 C1080.51,532.64 1031.53,745.15 1012.95,827.34 " fill="none" id="VehicleFleetManager-Address" style="stroke:#181818;stroke-width:1.0;"/><polygon fill="#000000" points="1135.0678,379.4616,1143.3912,366.7228,1134.314,364.2634,1135.0678,379.4616" style="stroke:#000000;stroke-width:1.0;"/><text fill="#000000" font-family="sans-serif" font-size="20" lengthAdjust="spacing" textLength="50" x="1150.16" y="379.5">owns</text><text fill="#000000" font-family="sans-serif" font-size="20" lengthAdjust="spacing" textLength="11" x="1209.2079" y="81.6011">1</text><text fill="#000000" font-family="sans-serif" font-size="20" lengthAdjust="spacing" textLength="11" x="1002.3436" y="813.2294">1</text></g><!--link Vehicle to VehicleCheckUp--><g id="link_Vehicle_VehicleCheckUp"><path codeLine="108" d="M1449.73,307.09 C1474.8,337.42 1501.15,376.01 1514.16,416.12 C1551.88,532.38 1550.05,574.29 1514.16,691.12 C1501.94,730.9 1476.98,769.74 1453.33,800.32 " fill="none" id="Vehicle-VehicleCheckUp" style="stroke:#181818;stroke-width:1.0;"/><polygon fill="#000000" points="1549.1016,545.7402,1544.5051,560.2463,1553.9094,560.1776,1549.1016,545.7402" style="stroke:#000000;stroke-width:1.0;"/><text fill="#000000" font-family="sans-serif" font-size="20" lengthAdjust="spacing" textLength="107" x="1562.16" y="561.5">assigned to</text><text fill="#000000" font-family="sans-serif" font-size="20" lengthAdjust="spacing" textLength="11" x="1444.9818" y="337.2702">1</text><text fill="#000000" font-family="sans-serif" font-size="20" lengthAdjust="spacing" textLength="11" x="1447.7627" y="786.3153">*</text></g><!--link Vehicle to PlateCertification--><g id="link_Vehicle_PlateCertification"><path codeLine="109" d="M1390.16,306.98 C1390.16,344.07 1390.16,392.43 1390.16,436.43 " fill="none" id="Vehicle-PlateCertification" style="stroke:#181818;stroke-width:1.0;"/><polygon fill="#000000" points="1398.16,379.74,1402.8623,365.2679,1393.4577,365.2679,1398.16,379.74" style="stroke:#000000;stroke-width:1.0;"/><text fill="#000000" font-family="sans-serif" font-size="20" lengthAdjust="spacing" textLength="50" x="1411.16" y="379.5">owns</text><text fill="#000000" font-family="sans-serif" font-size="20" lengthAdjust="spacing" textLength="11" x="1378.4897" y="337.6225">1</text><text fill="#000000" font-family="sans-serif" font-size="20" lengthAdjust="spacing" textLength="11" x="1378.8077" y="422.4159">1</text></g><!--link Task to TypeGarden--><g id="link_Task_TypeGarden"><path codeLine="111" d="M107.17,1140.38 C106.18,1166.72 107.58,1203.34 119.16,1233.12 C126.05,1250.83 136.77,1267.95 148.41,1283.26 " fill="none" id="Task-TypeGarden" style="stroke:#181818;stroke-width:1.0;"/><polygon fill="#000000" points="129.3785,1226.4262,129.883,1211.2177,120.8473,1213.8257,129.3785,1226.4262" style="stroke:#000000;stroke-width:1.0;"/><text fill="#000000" font-family="sans-serif" font-size="20" lengthAdjust="spacing" textLength="123" x="140.16" y="1226.5">carried out in</text><text fill="#000000" font-family="sans-serif" font-size="20" lengthAdjust="spacing" textLength="32" x="71.7874" y="1170.513">1..*</text><text fill="#000000" font-family="sans-serif" font-size="20" lengthAdjust="spacing" textLength="32" x="108.1248" y="1269.2487">1..*</text></g><!--link GreenSpaceUser to TypeGarden--><g id="link_GreenSpaceUser_TypeGarden"><path codeLine="113" d="M302.03,1126.82 C295.52,1152.49 283.28,1196.79 268.16,1233.12 C261.21,1249.82 252.56,1267.31 244.01,1283.38 " fill="none" id="GreenSpaceUser-TypeGarden" style="stroke:#181818;stroke-width:1.0;"/><polygon fill="#000000" points="284.38,1226.2414,293.8183,1214.3052,284.9998,1211.0372,284.38,1226.2414" style="stroke:#000000;stroke-width:1.0;"/><text fill="#000000" font-family="sans-serif" font-size="20" lengthAdjust="spacing" textLength="33" x="300.16" y="1226.5">use</text><text fill="#000000" font-family="sans-serif" font-size="20" lengthAdjust="spacing" textLength="32" x="264.8796" y="1156.9019">1..*</text><text fill="#000000" font-family="sans-serif" font-size="20" lengthAdjust="spacing" textLength="32" x="214.1811" y="1269.3819">1..*</text></g><!--SRC=[bLHBRzim3BxxLmWv3aZHxbWC1OeCxHxOi2tj1kp6I8mjM8-Cab5qZ_y-Mdx9ZH6qlfWIFr8aFvAXrku01DPuMQCI2lVGc7ZZNTpgtoXUdnTXW0ZhdPSLUOiYKeEPvW2oXXAtyT6W89GHN6boGAX0-GVjIh474tADD132TOoaTqt4zzAxzF1vKMc5GcgIx2Z95cFbLIYA8jc8ZJS6TfuWUX9_2i6V0uj9u6lt5c9t06L7-L1vXvyRkqDAPxIWJPAqsW2fNkmH_uQthfKYv7_tZFAUdY9-wiF6SvGTWii9dTiG2J5Ek7UD1VSDWsz8uYTmN3QEVbH_nqfpnZU6ZOwrMx-F3q3ujG6Zu-CTWZq6tVA3RikKu2dTVPXxhhKnUHL7pGU_Mxo_Wr0lApYgHKMVMw-J3H6w-D5s7CbVZGuwQZ_nnjIuY0wSp9nyCQpU84Mzrn9QVEzlH-0w-Yppq1K_FXuwLv6BbeIIV0W_K9TLJ6V2KeU8D3L8w_yevas5ihu_3FndODb9jGrP1VZPMsuc768hqw4B3fLkRDlZwdQwDK0yFjdbr7abEWM9gSNMMLsin7gzkZWxUxNgMRpiin9Nfqn4RzFo-pABsU2zp3JrngMGX5p2m3R5KiElr-k_LxDdbdqlu4vCo0BwU5GMGCKitpwHbD9GFEP9buxNP_JYpHDuZyt8EOM-63tt6-TI-0VN5chOG1baM3aZfaZbFKbM1IrmZbiDJJQgsz7E4ysvoyFdi3hB4JoXMn-3mqMMvt4Eoo7hfsSR3TFvNDlZwWxu7jCHTkHzpjpS9FqMbbD6pd9Lfrt1Sm54cltx9WhjMgCd2_kqUHEmjVaF]--></g></svg>