<?xml version="1.0" encoding="UTF-8" standalone="no"?><svg xmlns="http://www.w3.org/2000/svg" xmlns:xlink="http://www.w3.org/1999/xlink" contentStyleType="text/css" height="683px" preserveAspectRatio="none" style="width:793px;height:683px;background:#FFFFFF;" version="1.1" viewBox="0 0 793 683" width="793px" zoomAndPan="magnify"><defs/><g><text fill="#000000" font-family="sans-serif" font-size="14" font-weight="bold" lengthAdjust="spacing" textLength="224" x="286.25" y="29.9659">System Sequence Diagram (SSD)</text><rect fill="#FFFFFF" height="385.6397" style="stroke:#181818;stroke-width:1.0;" width="10" x="126.5" y="169.5479"/><rect fill="#FFFFFF" height="171.4398" style="stroke:#181818;stroke-width:1.0;" width="10" x="731.5" y="202.7878"/><rect fill="#FFFFFF" height="48.24" style="stroke:#181818;stroke-width:1.0;" width="10" x="731.5" y="415.4677"/><rect fill="#FFFFFF" height="41.24" style="stroke:#181818;stroke-width:1.0;" width="10" x="731.5" y="504.9476"/><rect fill="none" height="205.6798" style="stroke:#000000;stroke-width:1.5;" width="777.5" x="10" y="217.7878"/><line style="stroke:#181818;stroke-width:0.5;stroke-dasharray:5.0,5.0;" x1="131" x2="131" y1="159.5479" y2="564.1876"/><line style="stroke:#181818;stroke-width:0.5;stroke-dasharray:5.0,5.0;" x1="736.5" x2="736.5" y1="159.5479" y2="564.1876"/><text fill="#000000" font-family="sans-serif" font-size="20" lengthAdjust="spacing" textLength="212" x="20" y="126.4479">Vehicle and Equipment</text><text fill="#000000" font-family="sans-serif" font-size="20" lengthAdjust="spacing" textLength="132" x="62.5" y="153.6879">Fleet Manager</text><ellipse cx="131.5" cy="53.5679" fill="#E3E3E3" rx="8" ry="8" style="stroke:#181818;stroke-width:0.5;"/><path d="M131.5,61.5679 L131.5,88.5679 M118.5,69.5679 L144.5,69.5679 M131.5,88.5679 L118.5,103.5679 M131.5,88.5679 L144.5,103.5679 " fill="none" style="stroke:#181818;stroke-width:0.5;"/><text fill="#000000" font-family="sans-serif" font-size="20" lengthAdjust="spacing" textLength="212" x="20" y="584.5676">Vehicle and Equipment</text><text fill="#000000" font-family="sans-serif" font-size="20" lengthAdjust="spacing" textLength="132" x="62.5" y="611.8075">Fleet Manager</text><ellipse cx="131.5" cy="626.1675" fill="#E3E3E3" rx="8" ry="8" style="stroke:#181818;stroke-width:0.5;"/><path d="M131.5,634.1675 L131.5,661.1675 M118.5,642.1675 L144.5,642.1675 M131.5,661.1675 L118.5,676.1675 M131.5,661.1675 L144.5,676.1675 " fill="none" style="stroke:#181818;stroke-width:0.5;"/><rect fill="#E3E3E3" height="41.24" rx="2.5" ry="2.5" style="stroke:#181818;stroke-width:0.5;" width="82" x="695.5" y="117.3079"/><text fill="#000000" font-family="sans-serif" font-size="20" lengthAdjust="spacing" textLength="68" x="702.5" y="145.6879">System</text><rect fill="#E3E3E3" height="41.24" rx="2.5" ry="2.5" style="stroke:#181818;stroke-width:0.5;" width="82" x="695.5" y="563.1876"/><text fill="#000000" font-family="sans-serif" font-size="20" lengthAdjust="spacing" textLength="68" x="702.5" y="591.5676">System</text><rect fill="#FFFFFF" height="385.6397" style="stroke:#181818;stroke-width:1.0;" width="10" x="126.5" y="169.5479"/><rect fill="#FFFFFF" height="171.4398" style="stroke:#181818;stroke-width:1.0;" width="10" x="731.5" y="202.7878"/><rect fill="#FFFFFF" height="48.24" style="stroke:#181818;stroke-width:1.0;" width="10" x="731.5" y="415.4677"/><rect fill="#FFFFFF" height="41.24" style="stroke:#181818;stroke-width:1.0;" width="10" x="731.5" y="504.9476"/><polygon fill="#181818" points="719.5,198.7878,729.5,202.7878,719.5,206.7878,723.5,202.7878" style="stroke:#181818;stroke-width:1.0;"/><line style="stroke:#181818;stroke-width:1.0;" x1="136.5" x2="725.5" y1="202.7878" y2="202.7878"/><text fill="#000000" font-family="sans-serif" font-size="20" font-weight="bold" lengthAdjust="spacing" textLength="11" x="143.5" y="194.9278">1</text><text fill="#000000" font-family="sans-serif" font-size="20" lengthAdjust="spacing" textLength="272" x="158.5" y="194.9278">asks to register a new vehicle</text><path d="M10,217.7878 L98,217.7878 L98,237.0278 L88,247.0278 L10,247.0278 L10,217.7878 " fill="#EEEEEE" style="stroke:#000000;stroke-width:1.5;"/><rect fill="none" height="205.6798" style="stroke:#000000;stroke-width:1.5;" width="777.5" x="10" y="217.7878"/><text fill="#000000" font-family="sans-serif" font-size="20" font-weight="bold" lengthAdjust="spacing" textLength="43" x="25" y="240.1678">loop</text><text fill="#000000" font-family="sans-serif" font-size="20" font-weight="bold" lengthAdjust="spacing" textLength="164" x="113" y="241.1678">[while intended]</text><polygon fill="#181818" points="147.5,370.2277,137.5,374.2277,147.5,378.2277,143.5,374.2277" style="stroke:#181818;stroke-width:1.0;"/><line style="stroke:#181818;stroke-width:1.0;stroke-dasharray:2.0,2.0;" x1="141.5" x2="735.5" y1="374.2277" y2="374.2277"/><text fill="#000000" font-family="sans-serif" font-size="20" font-weight="bold" lengthAdjust="spacing" textLength="11" x="153.5" y="325.5077">2</text><text fill="#000000" font-family="sans-serif" font-size="20" lengthAdjust="spacing" textLength="421" x="168.5" y="284.6478">requests vehicle data (i.e. Brand, Model, Type,</text><text fill="#000000" font-family="sans-serif" font-size="20" lengthAdjust="spacing" textLength="429" x="168.5" y="311.8877">Tare,Gross Weight, Current Km, Register Date,</text><text fill="#000000" font-family="sans-serif" font-size="20" lengthAdjust="spacing" textLength="556" x="168.5" y="339.1277">Acquisition Date, Maintenance/Checkup Frequency (in Kms),</text><text fill="#000000" font-family="sans-serif" font-size="20" lengthAdjust="spacing" textLength="121" x="173.5" y="366.3677">vehicle plate)</text><polygon fill="#181818" points="719.5,411.4677,729.5,415.4677,719.5,419.4677,723.5,415.4677" style="stroke:#181818;stroke-width:1.0;"/><line style="stroke:#181818;stroke-width:1.0;" x1="136.5" x2="725.5" y1="415.4677" y2="415.4677"/><text fill="#000000" font-family="sans-serif" font-size="20" font-weight="bold" lengthAdjust="spacing" textLength="11" x="143.5" y="407.6077">3</text><text fill="#000000" font-family="sans-serif" font-size="20" lengthAdjust="spacing" textLength="428" x="158.5" y="407.6077">write the values of the new vehicle's attributes</text><polygon fill="#181818" points="147.5,459.7076,137.5,463.7076,147.5,467.7076,143.5,463.7076" style="stroke:#181818;stroke-width:1.0;"/><line style="stroke:#181818;stroke-width:1.0;stroke-dasharray:2.0,2.0;" x1="141.5" x2="735.5" y1="463.7076" y2="463.7076"/><text fill="#000000" font-family="sans-serif" font-size="20" font-weight="bold" lengthAdjust="spacing" textLength="11" x="153.5" y="455.8476">4</text><text fill="#000000" font-family="sans-serif" font-size="20" lengthAdjust="spacing" textLength="454" x="168.5" y="455.8476">shows all registered vehicles and asks to confirm</text><polygon fill="#181818" points="719.5,500.9476,729.5,504.9476,719.5,508.9476,723.5,504.9476" style="stroke:#181818;stroke-width:1.0;"/><line style="stroke:#181818;stroke-width:1.0;" x1="136.5" x2="725.5" y1="504.9476" y2="504.9476"/><text fill="#000000" font-family="sans-serif" font-size="20" font-weight="bold" lengthAdjust="spacing" textLength="11" x="143.5" y="497.0876">5</text><text fill="#000000" font-family="sans-serif" font-size="20" lengthAdjust="spacing" textLength="188" x="158.5" y="497.0876">confirms all vehicles</text><polygon fill="#181818" points="147.5,542.1876,137.5,546.1876,147.5,550.1876,143.5,546.1876" style="stroke:#181818;stroke-width:1.0;"/><line style="stroke:#181818;stroke-width:1.0;stroke-dasharray:2.0,2.0;" x1="141.5" x2="735.5" y1="546.1876" y2="546.1876"/><text fill="#000000" font-family="sans-serif" font-size="20" font-weight="bold" lengthAdjust="spacing" textLength="11" x="153.5" y="538.3276">6</text><text fill="#000000" font-family="sans-serif" font-size="20" lengthAdjust="spacing" textLength="248" x="168.5" y="538.3276">displays operation success</text><!--SRC=[TL8zRzim4DtrAmvU6WDAKdJCKA29wmo5bof8bomNwYmTH94AxsJ3_VKzIPPh98ucwlZulaXfE7IOiFNHDLH2ILlilQvZq8B_4dpxciaCWJQ6wEeKMm9DFPtjTEWQhAZGWoT8v1H3vSy1KcCPznmgsA8NoZ9bDMXn4AKM2dhhAJY25MCrmA-AOhNCCkmrXhvzfMHhfp71ufbgTdOIGma_tthkMWeABs7jYHGs6Cn6MW0AFAytcOahE-xGC8j9RDoRbYCfxr1f16TWdotW-ljixCx0ZO162rMnZH8W1Dh3Rh8n7ZcHpAp3qCVOmRvciyf1APHKZlFvEmfSczOWUMS2re6epDHGeY9SyGtTm7sok3biOaa-XwT3Hxb5Vi94-MEA8l27kAerXuS-fQ6FNsqElsV7A_Csu7yuwqjOEORZR8EZDxJgRnzgSatVmJfDbt4mxM14iinVmibKv-tWyfIaf8lXBnMvJsmehGbsw2qfnEtuTzRc5m5KJVpQAyc9wBt2CBC-_ojzg5Bgk3Sgxq-tPY_xg27ZovblrSMmvJHnVfBbVOxZaOb_9lty7NmmLx9OYGVBtr72yJAaTuv4Bhlu1m00]--></g></svg>