<?xml version="1.0" encoding="us-ascii" standalone="no"?><svg xmlns="http://www.w3.org/2000/svg" xmlns:xlink="http://www.w3.org/1999/xlink" contentStyleType="text/css" height="748px" preserveAspectRatio="none" style="width:755px;height:748px;background:#FFFFFF;" version="1.1" viewBox="0 0 755 748" width="755px" zoomAndPan="magnify"><defs/><g><!--cluster actors--><g id="cluster_actors"><rect fill="none" height="734" rx="2.5" ry="2.5" style="stroke:#FFFF00;stroke-width:1.0;" width="316" x="125" y="7"/><text fill="#000000" font-family="sans-serif" font-size="14" font-weight="bold" lengthAdjust="spacing" textLength="131" x="217.5" y="24.1074">Integrating Project</text></g><g id="elem_UC1"><ellipse cx="283.0149" cy="433.803" fill="#F1F1F1" rx="134.5149" ry="29.303" style="stroke:#181818;stroke-width:0.5;"/><text fill="#000000" font-family="sans-serif" font-size="14" lengthAdjust="spacing" textLength="234" x="166.0149" y="437.5998">UC1 - Register Skills to Collaborators</text></g><g id="elem_UC2"><ellipse cx="283.0399" cy="63.208" fill="#F1F1F1" rx="84.0399" ry="19.208" style="stroke:#181818;stroke-width:0.5;"/><text fill="#000000" font-family="sans-serif" font-size="14" lengthAdjust="spacing" textLength="119" x="220.5399" y="68.0117">UC2 - Register Job</text></g><g id="elem_UC3"><ellipse cx="283.0257" cy="319.8051" fill="#F1F1F1" rx="142.0257" ry="30.8051" style="stroke:#181818;stroke-width:0.5;"/><text fill="#000000" font-family="sans-serif" font-size="14" lengthAdjust="spacing" textLength="250" x="158.0257" y="323.602">UC3 - Register Collaborator Job &amp; Skills</text></g><g id="elem_UC4"><ellipse cx="283.0435" cy="229.1087" fill="#F1F1F1" rx="111.0435" ry="24.6087" style="stroke:#181818;stroke-width:0.5;"/><text fill="#000000" font-family="sans-serif" font-size="14" lengthAdjust="spacing" textLength="183" x="191.5435" y="232.9056">UC4 - Add Collaborator Skills</text></g><g id="elem_UC5"><ellipse cx="282.772" cy="143.1544" fill="#F1F1F1" rx="118.772" ry="26.1544" style="stroke:#181818;stroke-width:0.5;"/><text fill="#000000" font-family="sans-serif" font-size="14" lengthAdjust="spacing" textLength="200" x="182.772" y="146.9513">UC5 - Generate Team Proposal</text></g><g id="elem_UC6"><ellipse cx="283.1171" cy="704.1234" fill="#F1F1F1" rx="93.6171" ry="21.1234" style="stroke:#181818;stroke-width:0.5;"/><text fill="#000000" font-family="sans-serif" font-size="14" lengthAdjust="spacing" textLength="143" x="208.6171" y="708.9271">UC6 - Register Vehicle</text></g><g id="elem_UC7"><ellipse cx="283.1797" cy="527.8359" fill="#F1F1F1" rx="132.1797" ry="28.8359" style="stroke:#181818;stroke-width:0.5;"/><text fill="#000000" font-family="sans-serif" font-size="14" lengthAdjust="spacing" textLength="229" x="168.6797" y="531.6328">UC7 - Register Vehicle&#65533;s Check-up</text></g><g id="elem_UC8"><ellipse cx="282.9568" cy="620.0914" fill="#F1F1F1" rx="128.4568" ry="28.0914" style="stroke:#181818;stroke-width:0.5;"/><text fill="#000000" font-family="sans-serif" font-size="14" lengthAdjust="spacing" textLength="221" x="172.4568" y="623.8882">UC8 - List Vehicles Need Check-up</text></g><!--entity GRH--><g id="elem_GRH"><ellipse cx="21" cy="202" fill="#F1F1F1" rx="8" ry="8" style="stroke:#181818;stroke-width:0.5;"/><path d="M21,210 L21,237 M8,218 L34,218 M21,237 L8,252 M21,237 L34,252 " fill="none" style="stroke:#181818;stroke-width:0.5;"/><text fill="#000000" font-family="sans-serif" font-size="14" lengthAdjust="spacing" textLength="30" x="6" y="268.6074">GRH</text></g><!--entity GPV--><g id="elem_GPV"><ellipse cx="21" cy="589" fill="#F1F1F1" rx="8" ry="8" style="stroke:#181818;stroke-width:0.5;"/><path d="M21,597 L21,624 M8,605 L34,605 M21,624 L8,639 M21,624 L34,639 " fill="none" style="stroke:#181818;stroke-width:0.5;"/><text fill="#000000" font-family="sans-serif" font-size="14" lengthAdjust="spacing" textLength="29" x="6.5" y="655.6074">GPV</text></g><!--entity New_Colaborator--><g id="elem_New_Colaborator"><ellipse cx="550" cy="295" fill="#F1F1F1" rx="8" ry="8" style="stroke:#181818;stroke-width:0.5;"/><path d="M550,303 L550,330 M537,311 L563,311 M550,330 L537,345 M550,330 L563,345 " fill="none" style="stroke:#181818;stroke-width:0.5;"/><text fill="#000000" font-family="sans-serif" font-size="14" lengthAdjust="spacing" textLength="109" x="495.5" y="361.6074">New_Colaborator</text></g><!--entity Modify_Colaborator--><g id="elem_Modify_Colaborator"><ellipse cx="550" cy="181" fill="#F1F1F1" rx="8" ry="8" style="stroke:#181818;stroke-width:0.5;"/><path d="M550,189 L550,216 M537,197 L563,197 M550,216 L537,231 M550,216 L563,231 " fill="none" style="stroke:#181818;stroke-width:0.5;"/><text fill="#000000" font-family="sans-serif" font-size="14" lengthAdjust="spacing" textLength="124" x="488" y="247.6074">Modify_Colaborator</text></g><!--entity Colaborator--><g id="elem_Colaborator"><ellipse cx="710.5" cy="257" fill="#F1F1F1" rx="8" ry="8" style="stroke:#181818;stroke-width:0.5;"/><path d="M710.5,265 L710.5,292 M697.5,273 L723.5,273 M710.5,292 L697.5,307 M710.5,292 L723.5,307 " fill="none" style="stroke:#181818;stroke-width:0.5;"/><text fill="#000000" font-family="sans-serif" font-size="14" lengthAdjust="spacing" textLength="75" x="673" y="323.6074">Colaborator</text></g><!--entity New_Vehicle--><g id="elem_New_Vehicle"><ellipse cx="550" cy="673" fill="#F1F1F1" rx="8" ry="8" style="stroke:#181818;stroke-width:0.5;"/><path d="M550,681 L550,708 M537,689 L563,689 M550,708 L537,723 M550,708 L563,723 " fill="none" style="stroke:#181818;stroke-width:0.5;"/><text fill="#000000" font-family="sans-serif" font-size="14" lengthAdjust="spacing" textLength="80" x="510" y="739.6074">New_Vehicle</text></g><!--entity Vehicle_Overhaul--><g id="elem_Vehicle_Overhaul"><ellipse cx="550" cy="559" fill="#F1F1F1" rx="8" ry="8" style="stroke:#181818;stroke-width:0.5;"/><path d="M550,567 L550,594 M537,575 L563,575 M550,594 L537,609 M550,594 L563,609 " fill="none" style="stroke:#181818;stroke-width:0.5;"/><text fill="#000000" font-family="sans-serif" font-size="14" lengthAdjust="spacing" textLength="112" x="494" y="625.6074">Vehicle_Overhaul</text></g><!--entity Vehicle--><g id="elem_Vehicle"><ellipse cx="710.5" cy="615" fill="#F1F1F1" rx="8" ry="8" style="stroke:#181818;stroke-width:0.5;"/><path d="M710.5,623 L710.5,650 M697.5,631 L723.5,631 M710.5,650 L697.5,665 M710.5,650 L723.5,665 " fill="none" style="stroke:#181818;stroke-width:0.5;"/><text fill="#000000" font-family="sans-serif" font-size="14" lengthAdjust="spacing" textLength="46" x="687.5" y="681.6074">Vehicle</text></g><!--link GRH to UC1--><g id="link_GRH_UC1"><path d="M36.14,262.31 C52.04,292.51 80.47,339.11 117,368 C140.72,386.75 164.8316,398.7411 192.5016,408.9611 " fill="none" id="GRH-to-UC1" style="stroke:#181818;stroke-width:1.0;"/><polygon fill="#181818" points="198.13,411.04,191.0734,404.1695,193.4397,409.3076,188.3016,411.674,198.13,411.04" style="stroke:#181818;stroke-width:1.0;"/></g><!--link GRH to UC2--><g id="link_GRH_UC2"><path d="M32.52,193.37 C39.48,172.76 50.27,148.15 66,130 C99.56,91.28 149.0979,75.5301 195.4279,68.5001 " fill="none" id="GRH-to-UC2" style="stroke:#181818;stroke-width:1.0;"/><polygon fill="#181818" points="201.36,67.6,191.8618,64.9955,196.4166,68.3501,193.0619,72.9049,201.36,67.6" style="stroke:#181818;stroke-width:1.0;"/></g><!--link GRH to UC3--><g id="link_GRH_UC3"><path d="M36.01,239.07 C54.41,246.94 87.81,260.85 117,271 C141.98,279.68 163.6564,286.5183 188.8464,293.9683 " fill="none" id="GRH-to-UC3" style="stroke:#181818;stroke-width:1.0;"/><polygon fill="#181818" points="194.6,295.67,187.104,289.2818,189.8053,294.252,184.8351,296.9533,194.6,295.67" style="stroke:#181818;stroke-width:1.0;"/></g><!--link UC3 to UC1--><g id="link_UC3_UC1"><path d="M283,351.1 C283,367.68 283,381.98 283,398.35 " fill="none" id="UC3-to-UC1" style="stroke:#181818;stroke-width:1.0;stroke-dasharray:7.0,7.0;"/><polygon fill="#181818" points="283,404.35,287,395.35,283,399.35,279,395.35,283,404.35" style="stroke:#181818;stroke-width:1.0;"/><text fill="#000000" font-family="sans-serif" font-size="13" lengthAdjust="spacing" textLength="41" x="250" y="383.2783">include</text></g><!--link UC3 to UC2--><g id="link_UC3_UC2"><path d="M165.51,302.54 C147.33,295.3 130.23,285.17 117,271 C84.78,236.5 91.54,213.26 98,166.5 C102.26,135.63 94.3,120.36 117,99 C138.91,78.39 163.7791,69.3981 192.9091,64.9381 " fill="none" id="UC3-to-UC2" style="stroke:#181818;stroke-width:1.0;stroke-dasharray:7.0,7.0;"/><polygon fill="#181818" points="198.84,64.03,189.3383,61.4382,193.8976,64.7867,190.549,69.346,198.84,64.03" style="stroke:#181818;stroke-width:1.0;"/><text fill="#000000" font-family="sans-serif" font-size="13" lengthAdjust="spacing" textLength="41" x="67" y="181.5283">include</text></g><!--link GRH to UC4--><g id="link_GRH_UC4"><path d="M36.35,232.78 C62.38,232.38 113.5707,231.5923 166.2207,230.7823 " fill="none" id="GRH-to-UC4" style="stroke:#181818;stroke-width:1.0;"/><polygon fill="#181818" points="172.22,230.69,163.1595,226.8289,167.2206,230.7669,163.2826,234.828,172.22,230.69" style="stroke:#181818;stroke-width:1.0;"/></g><!--link GRH to UC5--><g id="link_GRH_UC5"><path d="M36.12,199.04 C43.19,186.27 53.05,172.92 66,165 C96.23,146.51 127.3961,139.0688 162.3061,136.5088 " fill="none" id="GRH-to-UC5" style="stroke:#181818;stroke-width:1.0;"/><polygon fill="#181818" points="168.29,136.07,159.0216,132.7389,163.3034,136.4357,159.6066,140.7175,168.29,136.07" style="stroke:#181818;stroke-width:1.0;"/></g><!--link UC5 to UC3--><g id="link_UC5_UC3"><path d="M166.84,148.96 C140.25,156.11 114.87,168.75 98,190.5 C75.47,219.55 90.84,245.17 117,271 C131,284.83 143.1116,292.6319 161.7116,299.8019 " fill="none" id="UC5-to-UC3" style="stroke:#181818;stroke-width:1.0;stroke-dasharray:7.0,7.0;"/><polygon fill="#181818" points="167.31,301.96,160.3511,294.9905,162.6446,300.1616,157.4736,302.4551,167.31,301.96" style="stroke:#181818;stroke-width:1.0;"/><text fill="#000000" font-family="sans-serif" font-size="13" lengthAdjust="spacing" textLength="41" x="67" y="205.5283">include</text></g><!--link GPV to UC6--><g id="link_GPV_UC6"><path d="M35.74,627.87 C53.85,637.96 86.93,655.41 117,666 C146.67,676.45 174.4907,683.5545 203.6607,689.7445 " fill="none" id="GPV-to-UC6" style="stroke:#181818;stroke-width:1.0;"/><polygon fill="#181818" points="209.53,690.99,201.5564,685.2089,204.6389,689.9521,199.8957,693.0346,209.53,690.99" style="stroke:#181818;stroke-width:1.0;"/></g><!--link GPV to UC7--><g id="link_GPV_UC7"><path d="M35.56,611.22 C44.1,605.89 55.47,599.13 66,594 C105.47,574.75 145.9628,561.2939 185.5328,550.4639 " fill="none" id="GPV-to-UC7" style="stroke:#181818;stroke-width:1.0;"/><polygon fill="#181818" points="191.32,548.88,181.5833,547.3977,186.4974,550.1999,183.6952,555.114,191.32,548.88" style="stroke:#181818;stroke-width:1.0;"/></g><!--link GPV to UC8--><g id="link_GPV_UC8"><path d="M35.61,620 C58.44,620 100.66,620 148.44,620 " fill="none" id="GPV-to-UC8" style="stroke:#181818;stroke-width:1.0;"/><polygon fill="#181818" points="154.44,620,145.44,616,149.44,620,145.44,624,154.44,620" style="stroke:#181818;stroke-width:1.0;"/></g><!--link UC3 to New_Colaborator--><g id="link_UC3_New_Colaborator"><path d="M424.26,323.18 C449.59,323.75 474.53,324.31 495.38,324.79 " fill="none" id="UC3-New_Colaborator" style="stroke:#181818;stroke-width:1.0;"/></g><!--link UC4 to Modify_Colaborator--><g id="link_UC4_Modify_Colaborator"><path d="M389.88,222.21 C423.18,220.07 458.82,217.78 487.91,215.92 " fill="none" id="UC4-Modify_Colaborator" style="stroke:#181818;stroke-width:1.0;"/></g><!--link New_Colaborator to Colaborator--><g id="link_New_Colaborator_Colaborator"><path d="M604.66,313.13 C627.11,307.75 646.795,303.0275 667.045,298.1775 " fill="none" id="New_Colaborator-to-Colaborator" style="stroke:#181818;stroke-width:1.0;"/><polygon fill="#181818" points="672.88,296.78,663.1959,294.9863,668.0175,297.9446,665.0592,302.7663,672.88,296.78" style="stroke:#181818;stroke-width:1.0;"/></g><!--link Modify_Colaborator to Colaborator--><g id="link_Modify_Colaborator_Colaborator"><path d="M612.28,241.38 C632.66,251.16 649.3102,259.1351 667.2602,267.7451 " fill="none" id="Modify_Colaborator-to-Colaborator" style="stroke:#181818;stroke-width:1.0;"/><polygon fill="#181818" points="672.67,270.34,666.2852,262.8411,668.1618,268.1776,662.8253,270.0542,672.67,270.34" style="stroke:#181818;stroke-width:1.0;"/></g><!--link UC6 to New_Vehicle--><g id="link_UC6_New_Vehicle"><path d="M376.68,704 C422.36,704 474.99,704 509.94,704 " fill="none" id="UC6-New_Vehicle" style="stroke:#181818;stroke-width:1.0;"/></g><!--link UC7 to Vehicle_Overhaul--><g id="link_UC7_Vehicle_Overhaul"><path d="M374.09,549.08 C413.85,558.38 459.31,569.02 493.92,577.11 " fill="none" id="UC7-Vehicle_Overhaul" style="stroke:#181818;stroke-width:1.0;"/></g><!--link UC8 to Vehicle_Overhaul--><g id="link_UC8_Vehicle_Overhaul"><path d="M397.54,607.15 C430.83,603.38 465.76,599.42 493.67,596.26 " fill="none" id="UC8-Vehicle_Overhaul" style="stroke:#181818;stroke-width:1.0;"/></g><!--link New_Vehicle to Vehicle--><g id="link_New_Vehicle_Vehicle"><path d="M590.18,689.66 C620.8,678.46 656.6155,665.3522 681.7255,656.1622 " fill="none" id="New_Vehicle-to-Vehicle" style="stroke:#181818;stroke-width:1.0;"/><polygon fill="#181818" points="687.36,654.1,677.5335,653.4369,682.6646,655.8185,680.283,660.9496,687.36,654.1" style="stroke:#181818;stroke-width:1.0;"/></g><!--link Vehicle_Overhaul to Vehicle--><g id="link_Vehicle_Overhaul_Vehicle"><path d="M606.44,609.59 C634.29,619.43 660.8127,628.8014 681.7027,636.1814 " fill="none" id="Vehicle_Overhaul-to-Vehicle" style="stroke:#181818;stroke-width:1.0;"/><polygon fill="#181818" points="687.36,638.18,680.2064,631.4105,682.6455,636.5145,677.5416,638.9536,687.36,638.18" style="stroke:#181818;stroke-width:1.0;"/></g><!--SRC=[VPFTZjCm48Nl_HIZNj2h8D5_SR4I5BI0OAdsfxShRp9DJDquiXrAXNYq5O_4Ap1EtCPf3Rc8afbplZdAn4Ep5MN5DT_1JfKgBRJQ8LXT8-iw5K-tFCSxUv086bFBormY6tOAK_1CxKMPmuPBWommd_G_6T3rLkaCzL99fU60Kgez-yNOq0fBx0U3iEHqUoTuxiplV_1THQDuQab_VVlX-BHQCuaR2rQ15dbX8HDka50bOwU9CFXOMYIGTSbMMdsZpW2uWOPYe8tahjfWwWOF7fQl885Rp8MngE5kAwGqRWn5bln94OoS3OIa9pz5WoIvwjK2vYXaVb9FtZ-A-4Sn_pZqXqaS35xuc9uwZb2xceEzR8B2Qn1bAkiCBvkZI3F8Cw4yRxAi7wKNOX89COcXfeIwnXA9WN2Fj7HQLAKCbvuqZP2cGU9fctZy_yIpy0kkiH2fH3zWrWrOhVs0MOmnZp3-_7usi2mmtIPrvO7p270U0ou8-9bmHvY16yJi7BU8u1RkrFph1BHdv0RtZxIVutfOynSb5-LM_4LbOdCuqq-SFj9fBM7b3Dg43FkNa0j95zf_3DOiBUcLMf5_U_pw7NN1QycQrIIn-Y9Qxs5OCA19TQoVsthDlm00]--></g></svg>