<?xml version="1.0" encoding="UTF-8" standalone="no"?><svg xmlns="http://www.w3.org/2000/svg" xmlns:xlink="http://www.w3.org/1999/xlink" contentStyleType="text/css" height="820px" preserveAspectRatio="none" style="width:760px;height:820px;background:#FFFFFF;" version="1.1" viewBox="0 0 760 820" width="760px" zoomAndPan="magnify"><defs/><g><text fill="#000000" font-family="sans-serif" font-size="14" font-weight="bold" lengthAdjust="spacing" textLength="224" x="269.75" y="29.9659">System Sequence Diagram (SSD)</text><rect fill="#FFFFFF" height="523.3596" style="stroke:#181818;stroke-width:1.0;" width="10" x="126.5" y="169.5479"/><rect fill="#FFFFFF" height="89.7199" style="stroke:#181818;stroke-width:1.0;" width="10" x="698.5" y="202.7878"/><rect fill="#FFFFFF" height="68.4799" style="stroke:#181818;stroke-width:1.0;" width="10" x="698.5" y="333.7477"/><rect fill="#FFFFFF" height="41.24" style="stroke:#181818;stroke-width:1.0;" width="10" x="698.5" y="443.4677"/><rect fill="#FFFFFF" height="48.24" style="stroke:#181818;stroke-width:1.0;" width="10" x="698.5" y="525.9476"/><rect fill="#FFFFFF" height="41.24" style="stroke:#181818;stroke-width:1.0;" width="10" x="698.5" y="642.6675"/><rect fill="none" height="316.1598" style="stroke:#000000;stroke-width:1.5;" width="744.5" x="10" y="217.7878"/><line style="stroke:#181818;stroke-width:0.5;stroke-dasharray:5.0,5.0;" x1="131" x2="131" y1="159.5479" y2="701.9075"/><line style="stroke:#181818;stroke-width:0.5;stroke-dasharray:5.0,5.0;" x1="703.5" x2="703.5" y1="159.5479" y2="701.9075"/><text fill="#000000" font-family="sans-serif" font-size="20" lengthAdjust="spacing" textLength="212" x="20" y="126.4479">Vehicle and Equipment</text><text fill="#000000" font-family="sans-serif" font-size="20" lengthAdjust="spacing" textLength="132" x="62.5" y="153.6879">Fleet Manager</text><ellipse cx="131.5" cy="53.5679" fill="#E3E3E3" rx="8" ry="8" style="stroke:#181818;stroke-width:0.5;"/><path d="M131.5,61.5679 L131.5,88.5679 M118.5,69.5679 L144.5,69.5679 M131.5,88.5679 L118.5,103.5679 M131.5,88.5679 L144.5,103.5679 " fill="none" style="stroke:#181818;stroke-width:0.5;"/><text fill="#000000" font-family="sans-serif" font-size="20" lengthAdjust="spacing" textLength="212" x="20" y="722.2875">Vehicle and Equipment</text><text fill="#000000" font-family="sans-serif" font-size="20" lengthAdjust="spacing" textLength="132" x="62.5" y="749.5275">Fleet Manager</text><ellipse cx="131.5" cy="763.8875" fill="#E3E3E3" rx="8" ry="8" style="stroke:#181818;stroke-width:0.5;"/><path d="M131.5,771.8875 L131.5,798.8875 M118.5,779.8875 L144.5,779.8875 M131.5,798.8875 L118.5,813.8875 M131.5,798.8875 L144.5,813.8875 " fill="none" style="stroke:#181818;stroke-width:0.5;"/><rect fill="#E3E3E3" height="41.24" rx="2.5" ry="2.5" style="stroke:#181818;stroke-width:0.5;" width="82" x="662.5" y="117.3079"/><text fill="#000000" font-family="sans-serif" font-size="20" lengthAdjust="spacing" textLength="68" x="669.5" y="145.6879">System</text><rect fill="#E3E3E3" height="41.24" rx="2.5" ry="2.5" style="stroke:#181818;stroke-width:0.5;" width="82" x="662.5" y="700.9075"/><text fill="#000000" font-family="sans-serif" font-size="20" lengthAdjust="spacing" textLength="68" x="669.5" y="729.2875">System</text><rect fill="#FFFFFF" height="523.3596" style="stroke:#181818;stroke-width:1.0;" width="10" x="126.5" y="169.5479"/><rect fill="#FFFFFF" height="89.7199" style="stroke:#181818;stroke-width:1.0;" width="10" x="698.5" y="202.7878"/><rect fill="#FFFFFF" height="68.4799" style="stroke:#181818;stroke-width:1.0;" width="10" x="698.5" y="333.7477"/><rect fill="#FFFFFF" height="41.24" style="stroke:#181818;stroke-width:1.0;" width="10" x="698.5" y="443.4677"/><rect fill="#FFFFFF" height="48.24" style="stroke:#181818;stroke-width:1.0;" width="10" x="698.5" y="525.9476"/><rect fill="#FFFFFF" height="41.24" style="stroke:#181818;stroke-width:1.0;" width="10" x="698.5" y="642.6675"/><polygon fill="#181818" points="686.5,198.7878,696.5,202.7878,686.5,206.7878,690.5,202.7878" style="stroke:#181818;stroke-width:1.0;"/><line style="stroke:#181818;stroke-width:1.0;" x1="136.5" x2="692.5" y1="202.7878" y2="202.7878"/><text fill="#000000" font-family="sans-serif" font-size="20" font-weight="bold" lengthAdjust="spacing" textLength="11" x="143.5" y="194.9278">1</text><text fill="#000000" font-family="sans-serif" font-size="20" lengthAdjust="spacing" textLength="317" x="158.5" y="194.9278">asks to register a vehicle check-up</text><path d="M10,217.7878 L98,217.7878 L98,237.0278 L88,247.0278 L10,247.0278 L10,217.7878 " fill="#EEEEEE" style="stroke:#000000;stroke-width:1.5;"/><rect fill="none" height="316.1598" style="stroke:#000000;stroke-width:1.5;" width="744.5" x="10" y="217.7878"/><text fill="#000000" font-family="sans-serif" font-size="20" font-weight="bold" lengthAdjust="spacing" textLength="43" x="25" y="240.1678">loop</text><text fill="#000000" font-family="sans-serif" font-size="20" font-weight="bold" lengthAdjust="spacing" textLength="164" x="113" y="241.1678">[while intended]</text><polygon fill="#181818" points="147.5,288.5078,137.5,292.5078,147.5,296.5078,143.5,292.5078" style="stroke:#181818;stroke-width:1.0;"/><line style="stroke:#181818;stroke-width:1.0;stroke-dasharray:2.0,2.0;" x1="141.5" x2="702.5" y1="292.5078" y2="292.5078"/><text fill="#000000" font-family="sans-serif" font-size="20" font-weight="bold" lengthAdjust="spacing" textLength="11" x="153.5" y="284.6478">2</text><text fill="#000000" font-family="sans-serif" font-size="20" lengthAdjust="spacing" textLength="236" x="168.5" y="284.6478">requests the vehicle plate</text><polygon fill="#181818" points="686.5,329.7477,696.5,333.7477,686.5,337.7477,690.5,333.7477" style="stroke:#181818;stroke-width:1.0;"/><line style="stroke:#181818;stroke-width:1.0;" x1="136.5" x2="692.5" y1="333.7477" y2="333.7477"/><text fill="#000000" font-family="sans-serif" font-size="20" font-weight="bold" lengthAdjust="spacing" textLength="11" x="143.5" y="325.8877">3</text><text fill="#000000" font-family="sans-serif" font-size="20" lengthAdjust="spacing" textLength="180" x="158.5" y="325.8877">Type a vehicle plate</text><polygon fill="#181818" points="147.5,398.2277,137.5,402.2277,147.5,406.2277,143.5,402.2277" style="stroke:#181818;stroke-width:1.0;"/><line style="stroke:#181818;stroke-width:1.0;stroke-dasharray:2.0,2.0;" x1="141.5" x2="702.5" y1="402.2277" y2="402.2277"/><text fill="#000000" font-family="sans-serif" font-size="20" font-weight="bold" lengthAdjust="spacing" textLength="11" x="153.5" y="380.7477">4</text><text fill="#000000" font-family="sans-serif" font-size="20" lengthAdjust="spacing" textLength="325" x="168.5" y="367.1277">requests the information about the</text><text fill="#000000" font-family="sans-serif" font-size="20" lengthAdjust="spacing" textLength="232" x="168.5" y="394.3677">check-up (i.e. date, place)</text><polygon fill="#181818" points="686.5,439.4677,696.5,443.4677,686.5,447.4677,690.5,443.4677" style="stroke:#181818;stroke-width:1.0;"/><line style="stroke:#181818;stroke-width:1.0;" x1="136.5" x2="692.5" y1="443.4677" y2="443.4677"/><text fill="#000000" font-family="sans-serif" font-size="20" font-weight="bold" lengthAdjust="spacing" textLength="11" x="143.5" y="435.6077">5</text><text fill="#000000" font-family="sans-serif" font-size="20" lengthAdjust="spacing" textLength="377" x="158.5" y="435.6077">Type the information about the check-up</text><polygon fill="#181818" points="147.5,480.7076,137.5,484.7076,147.5,488.7076,143.5,484.7076" style="stroke:#181818;stroke-width:1.0;"/><line style="stroke:#181818;stroke-width:1.0;stroke-dasharray:2.0,2.0;" x1="141.5" x2="702.5" y1="484.7076" y2="484.7076"/><text fill="#000000" font-family="sans-serif" font-size="20" font-weight="bold" lengthAdjust="spacing" textLength="11" x="153.5" y="476.8476">6</text><text fill="#000000" font-family="sans-serif" font-size="20" lengthAdjust="spacing" textLength="200" x="168.5" y="476.8476">Request confirmation</text><polygon fill="#181818" points="686.5,521.9476,696.5,525.9476,686.5,529.9476,690.5,525.9476" style="stroke:#181818;stroke-width:1.0;"/><line style="stroke:#181818;stroke-width:1.0;" x1="136.5" x2="692.5" y1="525.9476" y2="525.9476"/><text fill="#000000" font-family="sans-serif" font-size="20" font-weight="bold" lengthAdjust="spacing" textLength="11" x="143.5" y="518.0876">7</text><text fill="#000000" font-family="sans-serif" font-size="20" lengthAdjust="spacing" textLength="394" x="158.5" y="518.0876">Confirms it and regist the vehicle check-up</text><polygon fill="#181818" points="147.5,570.1876,137.5,574.1876,147.5,578.1876,143.5,574.1876" style="stroke:#181818;stroke-width:1.0;"/><line style="stroke:#181818;stroke-width:1.0;stroke-dasharray:2.0,2.0;" x1="141.5" x2="702.5" y1="574.1876" y2="574.1876"/><text fill="#000000" font-family="sans-serif" font-size="20" font-weight="bold" lengthAdjust="spacing" textLength="11" x="153.5" y="566.3276">8</text><text fill="#000000" font-family="sans-serif" font-size="20" lengthAdjust="spacing" textLength="359" x="168.5" y="566.3276">shows all registered vehicle check-up's</text><polygon fill="#181818" points="686.5,638.6675,696.5,642.6675,686.5,646.6675,690.5,642.6675" style="stroke:#181818;stroke-width:1.0;"/><line style="stroke:#181818;stroke-width:1.0;" x1="136.5" x2="692.5" y1="642.6675" y2="642.6675"/><text fill="#000000" font-family="sans-serif" font-size="20" font-weight="bold" lengthAdjust="spacing" textLength="11" x="143.5" y="621.1876">9</text><text fill="#000000" font-family="sans-serif" font-size="20" lengthAdjust="spacing" textLength="523" x="158.5" y="607.5676">confirms the set of registered vehicle check-up's and the</text><text fill="#000000" font-family="sans-serif" font-size="20" lengthAdjust="spacing" textLength="197" x="158.5" y="634.8075">new vehicle check-up</text><polygon fill="#181818" points="147.5,679.9075,137.5,683.9075,147.5,687.9075,143.5,683.9075" style="stroke:#181818;stroke-width:1.0;"/><line style="stroke:#181818;stroke-width:1.0;stroke-dasharray:2.0,2.0;" x1="141.5" x2="702.5" y1="683.9075" y2="683.9075"/><text fill="#000000" font-family="sans-serif" font-size="20" font-weight="bold" lengthAdjust="spacing" textLength="22" x="153.5" y="676.0475">10</text><text fill="#000000" font-family="sans-serif" font-size="20" lengthAdjust="spacing" textLength="248" x="179.5" y="676.0475">displays operation success</text><!--SRC=[dLEnRkCm3Dtz5KIMQu5BKNJiSCkrsRgSYqvTM8cs2SkIAj4Dqgy_sew399VqsceIoCVt7Yagj-mZ9knSC2rPi5HXxsGLl9JyJd1pNUGP0btmmJGfT0IIUjhBH3GjrbJAnX4aCeA-Tlk0tA0DQ_OrLEWo5OMmABJSPA4EIdhjoHk2EyPwW5-KvTrbKM0lmVVT2oMz6ma95a_KiD5Az1RkNtkE7Nc1PxzoH08FwDL6MW1cU5ez52ekR3YYOXQJs9YRhYCflw7G22v0ZrvW-MisTglWDeC4RQfc3IL0UDjQC0sPTjd7iMx7D5CFGHT2X7N32cOlv2tPCJwVhSfI1GVTMrNHGMHHnOPsEj4fxwxEqh7Kd3cs_hY9j6VtaEQat_zxOb-5rA5my80lePSn-kpdMS05Nz4LM6N-EIWQkloky_Do1uC_rSpPNlvClO09lk8jyJVy_PxACx2CYpWjny6ZVSgZRiG7WyzDM6T0vtRBfn_qcFz7BavxFxdDPZO-MCtwOKBrCVdOtlJ4djPVMFr_kh6STHys6KAaDBrexesXVAQ1lm00]--></g></svg>