<?xml version="1.0" encoding="UTF-8" standalone="no"?><svg xmlns="http://www.w3.org/2000/svg" xmlns:xlink="http://www.w3.org/1999/xlink" contentStyleType="text/css" height="1735px" preserveAspectRatio="none" style="width:2545px;height:1735px;background:#FFFFFF;" version="1.1" viewBox="0 0 2545 1735" width="2545px" zoomAndPan="magnify"><defs/><g><rect fill="#FFFFFF" height="1477.8791" style="stroke:#181818;stroke-width:1.0;" width="10" x="88" y="129.4799"/><rect fill="#FFFFFF" height="68.4799" style="stroke:#181818;stroke-width:1.0;" width="10" x="557" y="162.7199"/><rect fill="#FFFFFF" height="371.1598" style="stroke:#181818;stroke-width:1.0;" width="10" x="557" y="299.6798"/><rect fill="#FFFFFF" height="803.7995" style="stroke:#181818;stroke-width:1.0;" width="10" x="557" y="712.0796"/><rect fill="#FFFFFF" height="41.24" style="stroke:#181818;stroke-width:1.0;" width="10" x="557" y="1557.119"/><rect fill="#FFFFFF" height="288.6798" style="stroke:#181818;stroke-width:1.0;" width="10" x="863.5" y="340.9198"/><rect fill="#FFFFFF" height="526.3596" style="stroke:#181818;stroke-width:1.0;" width="10" x="863.5" y="783.3195"/><rect fill="#FFFFFF" height="123.7199" style="stroke:#181818;stroke-width:1.0;" width="10" x="863.5" y="1350.9192"/><rect fill="#FFFFFF" height="41.24" style="stroke:#181818;stroke-width:1.0;" width="10" x="1106.5" y="382.1598"/><rect fill="#FFFFFF" height="41.24" style="stroke:#181818;stroke-width:1.0;" width="10" x="1250.5" y="464.6397"/><rect fill="#FFFFFF" height="41.24" style="stroke:#181818;stroke-width:1.0;" width="10" x="1410" y="547.1197"/><rect fill="#FFFFFF" height="443.8797" style="stroke:#181818;stroke-width:1.0;" width="10" x="1624.5" y="824.5595"/><rect fill="#FFFFFF" height="179.1999" style="stroke:#181818;stroke-width:1.0;" width="10" x="1916.5" y="914.2794"/><rect fill="#FFFFFF" height="41.24" style="stroke:#181818;stroke-width:1.0;" width="10" x="2168" y="1003.9994"/><rect fill="#FFFFFF" height="30" style="stroke:#181818;stroke-width:1.0;" width="10" x="2429" y="1183.1992"/><rect fill="#FFFFFF" height="41.24" style="stroke:#181818;stroke-width:1.0;" width="10" x="2429" y="1392.1591"/><rect fill="none" height="388.6397" style="stroke:#000000;stroke-width:1.5;" width="1051.5" x="1487.5" y="839.5595"/><rect fill="none" height="123.9599" style="stroke:#000000;stroke-width:1.5;" width="513" x="1836" y="929.2794"/><rect fill="none" height="112.7199" style="stroke:#000000;stroke-width:1.5;" width="1031.5" x="1497.5" y="1108.4793"/><line style="stroke:#181818;stroke-width:0.5;stroke-dasharray:5.0,5.0;" x1="93" x2="93" y1="119.4799" y2="1616.359"/><line style="stroke:#181818;stroke-width:0.5;stroke-dasharray:5.0,5.0;" x1="561.5" x2="561.5" y1="119.4799" y2="1616.359"/><line style="stroke:#181818;stroke-width:0.5;stroke-dasharray:5.0,5.0;" x1="868.5" x2="868.5" y1="119.4799" y2="1616.359"/><line style="stroke:#181818;stroke-width:0.5;stroke-dasharray:5.0,5.0;" x1="1111.5" x2="1111.5" y1="119.4799" y2="1616.359"/><line style="stroke:#181818;stroke-width:0.5;stroke-dasharray:5.0,5.0;" x1="1255.5" x2="1255.5" y1="119.4799" y2="1616.359"/><line style="stroke:#181818;stroke-width:0.5;stroke-dasharray:5.0,5.0;" x1="1414.5" x2="1414.5" y1="119.4799" y2="1616.359"/><line style="stroke:#181818;stroke-width:0.5;stroke-dasharray:5.0,5.0;" x1="1629.5" x2="1629.5" y1="119.4799" y2="1616.359"/><line style="stroke:#181818;stroke-width:0.5;stroke-dasharray:5.0,5.0;" x1="1921" x2="1921" y1="119.4799" y2="1616.359"/><line style="stroke:#181818;stroke-width:0.5;stroke-dasharray:5.0,5.0;" x1="2173" x2="2173" y1="119.4799" y2="1616.359"/><line style="stroke:#181818;stroke-width:0.5;stroke-dasharray:5.0,5.0;" x1="2434" x2="2434" y1="119.4799" y2="1616.359"/><text fill="#000000" font-family="sans-serif" font-size="20" lengthAdjust="spacing" textLength="170" x="5" y="86.38">Human Resources</text><text fill="#000000" font-family="sans-serif" font-size="20" lengthAdjust="spacing" textLength="83" x="48.5" y="113.62">Manager</text><ellipse cx="93" cy="13.5" fill="#E3E3E3" rx="8" ry="8" style="stroke:#181818;stroke-width:0.5;"/><path d="M93,21.5 L93,48.5 M80,29.5 L106,29.5 M93,48.5 L80,63.5 M93,48.5 L106,63.5 " fill="none" style="stroke:#181818;stroke-width:0.5;"/><text fill="#000000" font-family="sans-serif" font-size="20" lengthAdjust="spacing" textLength="170" x="5" y="1636.739">Human Resources</text><text fill="#000000" font-family="sans-serif" font-size="20" lengthAdjust="spacing" textLength="83" x="48.5" y="1663.979">Manager</text><ellipse cx="93" cy="1678.339" fill="#E3E3E3" rx="8" ry="8" style="stroke:#181818;stroke-width:0.5;"/><path d="M93,1686.339 L93,1713.339 M80,1694.339 L106,1694.339 M93,1713.339 L80,1728.339 M93,1713.339 L106,1728.339 " fill="none" style="stroke:#181818;stroke-width:0.5;"/><rect fill="#E3E3E3" height="41.24" rx="2.5" ry="2.5" style="stroke:#181818;stroke-width:0.5;" width="261" x="431.5" y="77.24"/><text fill="#000000" font-family="sans-serif" font-size="20" lengthAdjust="spacing" textLength="247" x="438.5" y="105.62">:GenerateTeamProposalUI</text><rect fill="#E3E3E3" height="41.24" rx="2.5" ry="2.5" style="stroke:#181818;stroke-width:0.5;" width="261" x="431.5" y="1615.359"/><text fill="#000000" font-family="sans-serif" font-size="20" lengthAdjust="spacing" textLength="247" x="438.5" y="1643.739">:GenerateTeamProposalUI</text><rect fill="#E3E3E3" height="41.24" rx="2.5" ry="2.5" style="stroke:#181818;stroke-width:0.5;" width="332" x="702.5" y="77.24"/><text fill="#000000" font-family="sans-serif" font-size="20" lengthAdjust="spacing" textLength="318" x="709.5" y="105.62">:GenerateTeamProposalController</text><rect fill="#E3E3E3" height="41.24" rx="2.5" ry="2.5" style="stroke:#181818;stroke-width:0.5;" width="332" x="702.5" y="1615.359"/><text fill="#000000" font-family="sans-serif" font-size="20" lengthAdjust="spacing" textLength="318" x="709.5" y="1643.739">:GenerateTeamProposalController</text><rect fill="#E3E3E3" height="41.24" rx="2.5" ry="2.5" style="stroke:#181818;stroke-width:0.5;" width="134" x="1044.5" y="77.24"/><text fill="#000000" font-family="sans-serif" font-size="20" lengthAdjust="spacing" textLength="120" x="1051.5" y="105.62">:Repositories</text><rect fill="#E3E3E3" height="41.24" rx="2.5" ry="2.5" style="stroke:#181818;stroke-width:0.5;" width="134" x="1044.5" y="1615.359"/><text fill="#000000" font-family="sans-serif" font-size="20" lengthAdjust="spacing" textLength="120" x="1051.5" y="1643.739">:Repositories</text><rect fill="#E3E3E3" height="68.4799" rx="2.5" ry="2.5" style="stroke:#181818;stroke-width:0.5;" width="134" x="1188.5" y="50"/><text fill="#000000" font-family="sans-serif" font-size="20" lengthAdjust="spacing" textLength="111" x="1200" y="78.38">repositories</text><text fill="#000000" font-family="sans-serif" font-size="20" lengthAdjust="spacing" textLength="120" x="1195.5" y="105.62">:Repositories</text><rect fill="#E3E3E3" height="68.4799" rx="2.5" ry="2.5" style="stroke:#181818;stroke-width:0.5;" width="134" x="1188.5" y="1615.359"/><text fill="#000000" font-family="sans-serif" font-size="20" lengthAdjust="spacing" textLength="111" x="1200" y="1643.739">repositories</text><text fill="#000000" font-family="sans-serif" font-size="20" lengthAdjust="spacing" textLength="120" x="1195.5" y="1670.979">:Repositories</text><rect fill="#E3E3E3" height="68.4799" rx="2.5" ry="2.5" style="stroke:#181818;stroke-width:0.5;" width="165" x="1332.5" y="50"/><text fill="#000000" font-family="sans-serif" font-size="20" lengthAdjust="spacing" textLength="53" x="1388.5" y="78.38">name</text><text fill="#000000" font-family="sans-serif" font-size="20" lengthAdjust="spacing" textLength="151" x="1339.5" y="105.62">:SkillsRepository</text><rect fill="#E3E3E3" height="68.4799" rx="2.5" ry="2.5" style="stroke:#181818;stroke-width:0.5;" width="165" x="1332.5" y="1615.359"/><text fill="#000000" font-family="sans-serif" font-size="20" lengthAdjust="spacing" textLength="53" x="1388.5" y="1643.739">name</text><text fill="#000000" font-family="sans-serif" font-size="20" lengthAdjust="spacing" textLength="151" x="1339.5" y="1670.979">:SkillsRepository</text><rect fill="#E3E3E3" height="68.4799" rx="2.5" ry="2.5" style="stroke:#181818;stroke-width:0.5;" width="244" x="1507.5" y="50"/><text fill="#000000" font-family="sans-serif" font-size="20" lengthAdjust="spacing" textLength="53" x="1603" y="78.38">name</text><text fill="#000000" font-family="sans-serif" font-size="20" lengthAdjust="spacing" textLength="230" x="1514.5" y="105.62">:CollaboratorsRepository</text><rect fill="#E3E3E3" height="68.4799" rx="2.5" ry="2.5" style="stroke:#181818;stroke-width:0.5;" width="244" x="1507.5" y="1615.359"/><text fill="#000000" font-family="sans-serif" font-size="20" lengthAdjust="spacing" textLength="53" x="1603" y="1643.739">name</text><text fill="#000000" font-family="sans-serif" font-size="20" lengthAdjust="spacing" textLength="230" x="1514.5" y="1670.979">:CollaboratorsRepository</text><rect fill="#E3E3E3" height="68.4799" rx="2.5" ry="2.5" style="stroke:#181818;stroke-width:0.5;" width="151" x="1846" y="50"/><text fill="#000000" font-family="sans-serif" font-size="20" lengthAdjust="spacing" textLength="121" x="1861" y="78.38">Collaborator:</text><text fill="#000000" font-family="sans-serif" font-size="20" lengthAdjust="spacing" textLength="137" x="1853" y="105.62">List&lt;Skill&gt;skills</text><rect fill="#E3E3E3" height="68.4799" rx="2.5" ry="2.5" style="stroke:#181818;stroke-width:0.5;" width="151" x="1846" y="1615.359"/><text fill="#000000" font-family="sans-serif" font-size="20" lengthAdjust="spacing" textLength="121" x="1861" y="1643.739">Collaborator:</text><text fill="#000000" font-family="sans-serif" font-size="20" lengthAdjust="spacing" textLength="137" x="1853" y="1670.979">List&lt;Skill&gt;skills</text><rect fill="#E3E3E3" height="68.4799" rx="2.5" ry="2.5" style="stroke:#181818;stroke-width:0.5;" width="332" x="2007" y="50"/><text fill="#000000" font-family="sans-serif" font-size="20" lengthAdjust="spacing" textLength="318" x="2014" y="78.38">:GenerateTeamProposalController</text><text fill="#000000" font-family="sans-serif" font-size="20" lengthAdjust="spacing" textLength="220" x="2063" y="105.62">List&lt;Skill&gt; skillsSelected</text><rect fill="#E3E3E3" height="68.4799" rx="2.5" ry="2.5" style="stroke:#181818;stroke-width:0.5;" width="332" x="2007" y="1615.359"/><text fill="#000000" font-family="sans-serif" font-size="20" lengthAdjust="spacing" textLength="318" x="2014" y="1643.739">:GenerateTeamProposalController</text><text fill="#000000" font-family="sans-serif" font-size="20" lengthAdjust="spacing" textLength="220" x="2063" y="1670.979">List&lt;Skill&gt; skillsSelected</text><rect fill="#E3E3E3" height="68.4799" rx="2.5" ry="2.5" style="stroke:#181818;stroke-width:0.5;" width="170" x="2349" y="50"/><text fill="#000000" font-family="sans-serif" font-size="20" lengthAdjust="spacing" textLength="48" x="2410" y="78.38">team</text><text fill="#000000" font-family="sans-serif" font-size="20" lengthAdjust="spacing" textLength="156" x="2356" y="105.62">:TeamRepository</text><rect fill="#E3E3E3" height="68.4799" rx="2.5" ry="2.5" style="stroke:#181818;stroke-width:0.5;" width="170" x="2349" y="1615.359"/><text fill="#000000" font-family="sans-serif" font-size="20" lengthAdjust="spacing" textLength="48" x="2410" y="1643.739">team</text><text fill="#000000" font-family="sans-serif" font-size="20" lengthAdjust="spacing" textLength="156" x="2356" y="1670.979">:TeamRepository</text><rect fill="#FFFFFF" height="1477.8791" style="stroke:#181818;stroke-width:1.0;" width="10" x="88" y="129.4799"/><rect fill="#FFFFFF" height="68.4799" style="stroke:#181818;stroke-width:1.0;" width="10" x="557" y="162.7199"/><rect fill="#FFFFFF" height="371.1598" style="stroke:#181818;stroke-width:1.0;" width="10" x="557" y="299.6798"/><rect fill="#FFFFFF" height="803.7995" style="stroke:#181818;stroke-width:1.0;" width="10" x="557" y="712.0796"/><rect fill="#FFFFFF" height="41.24" style="stroke:#181818;stroke-width:1.0;" width="10" x="557" y="1557.119"/><rect fill="#FFFFFF" height="288.6798" style="stroke:#181818;stroke-width:1.0;" width="10" x="863.5" y="340.9198"/><rect fill="#FFFFFF" height="526.3596" style="stroke:#181818;stroke-width:1.0;" width="10" x="863.5" y="783.3195"/><rect fill="#FFFFFF" height="123.7199" style="stroke:#181818;stroke-width:1.0;" width="10" x="863.5" y="1350.9192"/><rect fill="#FFFFFF" height="41.24" style="stroke:#181818;stroke-width:1.0;" width="10" x="1106.5" y="382.1598"/><rect fill="#FFFFFF" height="41.24" style="stroke:#181818;stroke-width:1.0;" width="10" x="1250.5" y="464.6397"/><rect fill="#FFFFFF" height="41.24" style="stroke:#181818;stroke-width:1.0;" width="10" x="1410" y="547.1197"/><rect fill="#FFFFFF" height="443.8797" style="stroke:#181818;stroke-width:1.0;" width="10" x="1624.5" y="824.5595"/><rect fill="#FFFFFF" height="179.1999" style="stroke:#181818;stroke-width:1.0;" width="10" x="1916.5" y="914.2794"/><rect fill="#FFFFFF" height="41.24" style="stroke:#181818;stroke-width:1.0;" width="10" x="2168" y="1003.9994"/><rect fill="#FFFFFF" height="30" style="stroke:#181818;stroke-width:1.0;" width="10" x="2429" y="1183.1992"/><rect fill="#FFFFFF" height="41.24" style="stroke:#181818;stroke-width:1.0;" width="10" x="2429" y="1392.1591"/><polygon fill="#181818" points="545,158.7199,555,162.7199,545,166.7199,549,162.7199" style="stroke:#181818;stroke-width:1.0;"/><line style="stroke:#181818;stroke-width:1.0;" x1="98" x2="551" y1="162.7199" y2="162.7199"/><text fill="#000000" font-family="sans-serif" font-size="20" font-weight="bold" lengthAdjust="spacing" textLength="11" x="105" y="154.8599">1</text><text fill="#000000" font-family="sans-serif" font-size="20" lengthAdjust="spacing" textLength="310" x="120" y="154.8599">asks to generate a team proposal</text><polygon fill="#181818" points="109,227.1999,99,231.1999,109,235.1999,105,231.1999" style="stroke:#181818;stroke-width:1.0;"/><line style="stroke:#181818;stroke-width:1.0;stroke-dasharray:2.0,2.0;" x1="103" x2="561" y1="231.1999" y2="231.1999"/><text fill="#000000" font-family="sans-serif" font-size="20" font-weight="bold" lengthAdjust="spacing" textLength="11" x="115" y="209.7199">2</text><text fill="#000000" font-family="sans-serif" font-size="20" lengthAdjust="spacing" textLength="332" x="130" y="196.0999">requests which is the minimum and</text><text fill="#000000" font-family="sans-serif" font-size="20" lengthAdjust="spacing" textLength="380" x="135" y="223.3399">maximum number of team collaborators</text><polygon fill="#181818" points="545,295.6798,555,299.6798,545,303.6798,549,299.6798" style="stroke:#181818;stroke-width:1.0;"/><line style="stroke:#181818;stroke-width:1.0;" x1="98" x2="551" y1="299.6798" y2="299.6798"/><text fill="#000000" font-family="sans-serif" font-size="20" font-weight="bold" lengthAdjust="spacing" textLength="11" x="105" y="278.1998">3</text><text fill="#000000" font-family="sans-serif" font-size="20" lengthAdjust="spacing" textLength="425" x="120" y="264.5799">types the minimum and maximum number of</text><text fill="#000000" font-family="sans-serif" font-size="20" lengthAdjust="spacing" textLength="176" x="125" y="291.8198">team collaborators</text><polygon fill="#181818" points="851.5,336.9198,861.5,340.9198,851.5,344.9198,855.5,340.9198" style="stroke:#181818;stroke-width:1.0;"/><line style="stroke:#181818;stroke-width:1.0;" x1="567" x2="857.5" y1="340.9198" y2="340.9198"/><text fill="#000000" font-family="sans-serif" font-size="20" font-weight="bold" lengthAdjust="spacing" textLength="11" x="574" y="333.0598">4</text><text fill="#000000" font-family="sans-serif" font-size="20" lengthAdjust="spacing" textLength="121" x="589" y="333.0598">getSkillsList()</text><polygon fill="#181818" points="1094.5,378.1598,1104.5,382.1598,1094.5,386.1598,1098.5,382.1598" style="stroke:#181818;stroke-width:1.0;"/><line style="stroke:#181818;stroke-width:1.0;" x1="873.5" x2="1100.5" y1="382.1598" y2="382.1598"/><text fill="#000000" font-family="sans-serif" font-size="20" font-weight="bold" lengthAdjust="spacing" textLength="11" x="880.5" y="374.2998">5</text><text fill="#000000" font-family="sans-serif" font-size="20" lengthAdjust="spacing" textLength="122" x="895.5" y="374.2998">getInstance()</text><polygon fill="#181818" points="884.5,419.3997,874.5,423.3997,884.5,427.3997,880.5,423.3997" style="stroke:#181818;stroke-width:1.0;"/><line style="stroke:#181818;stroke-width:1.0;stroke-dasharray:2.0,2.0;" x1="878.5" x2="1110.5" y1="423.3997" y2="423.3997"/><text fill="#000000" font-family="sans-serif" font-size="20" font-weight="bold" lengthAdjust="spacing" textLength="11" x="890.5" y="415.5398">6</text><text fill="#000000" font-family="sans-serif" font-size="20" lengthAdjust="spacing" textLength="111" x="905.5" y="415.5398">repositories</text><polygon fill="#181818" points="1238.5,460.6397,1248.5,464.6397,1238.5,468.6397,1242.5,464.6397" style="stroke:#181818;stroke-width:1.0;"/><line style="stroke:#181818;stroke-width:1.0;" x1="873.5" x2="1244.5" y1="464.6397" y2="464.6397"/><text fill="#000000" font-family="sans-serif" font-size="20" font-weight="bold" lengthAdjust="spacing" textLength="11" x="880.5" y="456.7797">7</text><text fill="#000000" font-family="sans-serif" font-size="20" lengthAdjust="spacing" textLength="188" x="895.5" y="456.7797">getSkillsRepository()</text><polygon fill="#181818" points="884.5,501.8797,874.5,505.8797,884.5,509.8797,880.5,505.8797" style="stroke:#181818;stroke-width:1.0;"/><line style="stroke:#181818;stroke-width:1.0;stroke-dasharray:2.0,2.0;" x1="878.5" x2="1254.5" y1="505.8797" y2="505.8797"/><text fill="#000000" font-family="sans-serif" font-size="20" font-weight="bold" lengthAdjust="spacing" textLength="11" x="890.5" y="498.0197">8</text><text fill="#000000" font-family="sans-serif" font-size="20" lengthAdjust="spacing" textLength="146" x="905.5" y="498.0197">SkillsRepository</text><polygon fill="#181818" points="1398,543.1197,1408,547.1197,1398,551.1197,1402,547.1197" style="stroke:#181818;stroke-width:1.0;"/><line style="stroke:#181818;stroke-width:1.0;" x1="873.5" x2="1404" y1="547.1197" y2="547.1197"/><text fill="#000000" font-family="sans-serif" font-size="20" font-weight="bold" lengthAdjust="spacing" textLength="11" x="880.5" y="539.2597">9</text><text fill="#000000" font-family="sans-serif" font-size="20" lengthAdjust="spacing" textLength="121" x="895.5" y="539.2597">getSkillsList()</text><polygon fill="#181818" points="884.5,584.3596,874.5,588.3596,884.5,592.3596,880.5,588.3596" style="stroke:#181818;stroke-width:1.0;"/><line style="stroke:#181818;stroke-width:1.0;stroke-dasharray:2.0,2.0;" x1="878.5" x2="1414" y1="588.3596" y2="588.3596"/><text fill="#000000" font-family="sans-serif" font-size="20" font-weight="bold" lengthAdjust="spacing" textLength="22" x="890.5" y="580.4997">10</text><text fill="#000000" font-family="sans-serif" font-size="20" lengthAdjust="spacing" textLength="78" x="916.5" y="580.4997">skillsList</text><polygon fill="#181818" points="578,625.5996,568,629.5996,578,633.5996,574,629.5996" style="stroke:#181818;stroke-width:1.0;"/><line style="stroke:#181818;stroke-width:1.0;stroke-dasharray:2.0,2.0;" x1="572" x2="867.5" y1="629.5996" y2="629.5996"/><text fill="#000000" font-family="sans-serif" font-size="20" font-weight="bold" lengthAdjust="spacing" textLength="22" x="584" y="621.7396">11</text><text fill="#000000" font-family="sans-serif" font-size="20" lengthAdjust="spacing" textLength="78" x="610" y="621.7396">skillsList</text><polygon fill="#181818" points="109,666.8396,99,670.8396,109,674.8396,105,670.8396" style="stroke:#181818;stroke-width:1.0;"/><line style="stroke:#181818;stroke-width:1.0;stroke-dasharray:2.0,2.0;" x1="103" x2="561" y1="670.8396" y2="670.8396"/><text fill="#000000" font-family="sans-serif" font-size="20" font-weight="bold" lengthAdjust="spacing" textLength="22" x="115" y="662.9796">12</text><text fill="#000000" font-family="sans-serif" font-size="20" lengthAdjust="spacing" textLength="334" x="141" y="662.9796">requests to selects the skills needed</text><polygon fill="#181818" points="545,708.0796,555,712.0796,545,716.0796,549,712.0796" style="stroke:#181818;stroke-width:1.0;"/><line style="stroke:#181818;stroke-width:1.0;" x1="98" x2="551" y1="712.0796" y2="712.0796"/><text fill="#000000" font-family="sans-serif" font-size="20" font-weight="bold" lengthAdjust="spacing" textLength="22" x="105" y="704.2196">13</text><text fill="#000000" font-family="sans-serif" font-size="20" lengthAdjust="spacing" textLength="150" x="131" y="704.2196">selects the skills</text><polygon fill="#181818" points="851.5,779.3195,861.5,783.3195,851.5,787.3195,855.5,783.3195" style="stroke:#181818;stroke-width:1.0;"/><line style="stroke:#181818;stroke-width:1.0;" x1="567" x2="857.5" y1="783.3195" y2="783.3195"/><text fill="#000000" font-family="sans-serif" font-size="20" font-weight="bold" lengthAdjust="spacing" textLength="22" x="574" y="775.4596">14</text><text fill="#000000" font-family="sans-serif" font-size="20" lengthAdjust="spacing" textLength="200" x="600" y="775.4596">getCollaboratorsList()</text><polygon fill="#181818" points="1612.5,820.5595,1622.5,824.5595,1612.5,828.5595,1616.5,824.5595" style="stroke:#181818;stroke-width:1.0;"/><line style="stroke:#181818;stroke-width:1.0;" x1="873.5" x2="1618.5" y1="824.5595" y2="824.5595"/><text fill="#000000" font-family="sans-serif" font-size="20" font-weight="bold" lengthAdjust="spacing" textLength="22" x="880.5" y="816.6995">15</text><text fill="#000000" font-family="sans-serif" font-size="20" lengthAdjust="spacing" textLength="200" x="906.5" y="816.6995">getCollaboratorsList()</text><path d="M1487.5,839.5595 L1575.5,839.5595 L1575.5,858.7995 L1565.5,868.7995 L1487.5,868.7995 L1487.5,839.5595 " fill="#EEEEEE" style="stroke:#000000;stroke-width:1.5;"/><rect fill="none" height="388.6397" style="stroke:#000000;stroke-width:1.5;" width="1051.5" x="1487.5" y="839.5595"/><text fill="#000000" font-family="sans-serif" font-size="20" font-weight="bold" lengthAdjust="spacing" textLength="43" x="1502.5" y="861.9395">loop</text><text fill="#000000" font-family="sans-serif" font-size="20" font-weight="bold" lengthAdjust="spacing" textLength="222" x="1590.5" y="862.9395">[for each collaborator]</text><polygon fill="#181818" points="1904.5,910.2794,1914.5,914.2794,1904.5,918.2794,1908.5,914.2794" style="stroke:#181818;stroke-width:1.0;"/><line style="stroke:#181818;stroke-width:1.0;" x1="1634.5" x2="1910.5" y1="914.2794" y2="914.2794"/><text fill="#000000" font-family="sans-serif" font-size="20" font-weight="bold" lengthAdjust="spacing" textLength="22" x="1641.5" y="906.4195">16</text><text fill="#000000" font-family="sans-serif" font-size="20" lengthAdjust="spacing" textLength="237" x="1667.5" y="906.4195">getCollaboratorSkillsList()</text><path d="M1836,929.2794 L1924,929.2794 L1924,948.5194 L1914,958.5194 L1836,958.5194 L1836,929.2794 " fill="#EEEEEE" style="stroke:#000000;stroke-width:1.5;"/><rect fill="none" height="123.9599" style="stroke:#000000;stroke-width:1.5;" width="513" x="1836" y="929.2794"/><text fill="#000000" font-family="sans-serif" font-size="20" font-weight="bold" lengthAdjust="spacing" textLength="43" x="1851" y="951.6594">loop</text><text fill="#000000" font-family="sans-serif" font-size="20" font-weight="bold" lengthAdjust="spacing" textLength="344" x="1939" y="952.6594">[for each Skill of that Collaborator]</text><polygon fill="#181818" points="2156,999.9994,2166,1003.9994,2156,1007.9994,2160,1003.9994" style="stroke:#181818;stroke-width:1.0;"/><line style="stroke:#181818;stroke-width:1.0;" x1="1926.5" x2="2162" y1="1003.9994" y2="1003.9994"/><text fill="#000000" font-family="sans-serif" font-size="20" font-weight="bold" lengthAdjust="spacing" textLength="22" x="1933.5" y="996.1394">17</text><text fill="#000000" font-family="sans-serif" font-size="20" lengthAdjust="spacing" textLength="195" x="1959.5" y="996.1394">e = equalsSkill(name)</text><polygon fill="#181818" points="1937.5,1041.2393,1927.5,1045.2393,1937.5,1049.2393,1933.5,1045.2393" style="stroke:#181818;stroke-width:1.0;"/><line style="stroke:#181818;stroke-width:1.0;stroke-dasharray:2.0,2.0;" x1="1931.5" x2="2172" y1="1045.2393" y2="1045.2393"/><text fill="#000000" font-family="sans-serif" font-size="20" font-weight="bold" lengthAdjust="spacing" textLength="22" x="1943.5" y="1037.3794">18</text><text fill="#000000" font-family="sans-serif" font-size="20" lengthAdjust="spacing" textLength="89" x="1969.5" y="1037.3794">true/false</text><polygon fill="#181818" points="1645.5,1089.4793,1635.5,1093.4793,1645.5,1097.4793,1641.5,1093.4793" style="stroke:#181818;stroke-width:1.0;"/><line style="stroke:#181818;stroke-width:1.0;stroke-dasharray:2.0,2.0;" x1="1639.5" x2="1920.5" y1="1093.4793" y2="1093.4793"/><text fill="#000000" font-family="sans-serif" font-size="20" font-weight="bold" lengthAdjust="spacing" textLength="22" x="1651.5" y="1085.6193">19</text><text fill="#000000" font-family="sans-serif" font-size="20" lengthAdjust="spacing" textLength="89" x="1677.5" y="1085.6193">true/false</text><path d="M1497.5,1108.4793 L1576.5,1108.4793 L1576.5,1127.7193 L1566.5,1137.7193 L1497.5,1137.7193 L1497.5,1108.4793 " fill="#EEEEEE" style="stroke:#000000;stroke-width:1.5;"/><rect fill="none" height="112.7199" style="stroke:#000000;stroke-width:1.5;" width="1031.5" x="1497.5" y="1108.4793"/><text fill="#000000" font-family="sans-serif" font-size="20" font-weight="bold" lengthAdjust="spacing" textLength="34" x="1512.5" y="1130.8593">opt</text><text fill="#000000" font-family="sans-serif" font-size="20" font-weight="bold" lengthAdjust="spacing" textLength="101" x="1591.5" y="1131.8593">[e == true]</text><polygon fill="#181818" points="2417,1179.1992,2427,1183.1992,2417,1187.1992,2421,1183.1992" style="stroke:#181818;stroke-width:1.0;"/><line style="stroke:#181818;stroke-width:1.0;" x1="1634.5" x2="2423" y1="1183.1992" y2="1183.1992"/><text fill="#000000" font-family="sans-serif" font-size="20" font-weight="bold" lengthAdjust="spacing" textLength="22" x="1641.5" y="1175.3393">20</text><text fill="#000000" font-family="sans-serif" font-size="20" lengthAdjust="spacing" textLength="281" x="1667.5" y="1175.3393">addCollaborator(colllaborator)</text><polygon fill="#181818" points="884.5,1264.4392,874.5,1268.4392,884.5,1272.4392,880.5,1268.4392" style="stroke:#181818;stroke-width:1.0;"/><line style="stroke:#181818;stroke-width:1.0;stroke-dasharray:2.0,2.0;" x1="878.5" x2="1628.5" y1="1268.4392" y2="1268.4392"/><text fill="#000000" font-family="sans-serif" font-size="20" font-weight="bold" lengthAdjust="spacing" textLength="22" x="890.5" y="1260.5792">21</text><text fill="#000000" font-family="sans-serif" font-size="20" lengthAdjust="spacing" textLength="5" x="916.5" y="1260.5792"> </text><polygon fill="#181818" points="578,1305.6792,568,1309.6792,578,1313.6792,574,1309.6792" style="stroke:#181818;stroke-width:1.0;"/><line style="stroke:#181818;stroke-width:1.0;stroke-dasharray:2.0,2.0;" x1="572" x2="867.5" y1="1309.6792" y2="1309.6792"/><text fill="#000000" font-family="sans-serif" font-size="20" font-weight="bold" lengthAdjust="spacing" textLength="22" x="584" y="1301.8192">22</text><text fill="#000000" font-family="sans-serif" font-size="20" lengthAdjust="spacing" textLength="5" x="610" y="1301.8192"> </text><polygon fill="#181818" points="851.5,1346.9192,861.5,1350.9192,851.5,1354.9192,855.5,1350.9192" style="stroke:#181818;stroke-width:1.0;"/><line style="stroke:#181818;stroke-width:1.0;" x1="567" x2="857.5" y1="1350.9192" y2="1350.9192"/><text fill="#000000" font-family="sans-serif" font-size="20" font-weight="bold" lengthAdjust="spacing" textLength="22" x="574" y="1343.0592">23</text><text fill="#000000" font-family="sans-serif" font-size="20" lengthAdjust="spacing" textLength="94" x="600" y="1343.0592">getTeam()</text><polygon fill="#181818" points="2417,1388.1591,2427,1392.1591,2417,1396.1591,2421,1392.1591" style="stroke:#181818;stroke-width:1.0;"/><line style="stroke:#181818;stroke-width:1.0;" x1="873.5" x2="2423" y1="1392.1591" y2="1392.1591"/><text fill="#000000" font-family="sans-serif" font-size="20" font-weight="bold" lengthAdjust="spacing" textLength="22" x="880.5" y="1384.2992">24</text><text fill="#000000" font-family="sans-serif" font-size="20" lengthAdjust="spacing" textLength="94" x="906.5" y="1384.2992">getTeam()</text><polygon fill="#181818" points="884.5,1429.3991,874.5,1433.3991,884.5,1437.3991,880.5,1433.3991" style="stroke:#181818;stroke-width:1.0;"/><line style="stroke:#181818;stroke-width:1.0;stroke-dasharray:2.0,2.0;" x1="878.5" x2="2433" y1="1433.3991" y2="1433.3991"/><text fill="#000000" font-family="sans-serif" font-size="20" font-weight="bold" lengthAdjust="spacing" textLength="22" x="890.5" y="1425.5391">25</text><text fill="#000000" font-family="sans-serif" font-size="20" lengthAdjust="spacing" textLength="48" x="916.5" y="1425.5391">team</text><polygon fill="#181818" points="578,1470.6391,568,1474.6391,578,1478.6391,574,1474.6391" style="stroke:#181818;stroke-width:1.0;"/><line style="stroke:#181818;stroke-width:1.0;stroke-dasharray:2.0,2.0;" x1="572" x2="867.5" y1="1474.6391" y2="1474.6391"/><text fill="#000000" font-family="sans-serif" font-size="20" font-weight="bold" lengthAdjust="spacing" textLength="22" x="584" y="1466.7791">26</text><text fill="#000000" font-family="sans-serif" font-size="20" lengthAdjust="spacing" textLength="48" x="610" y="1466.7791">team</text><polygon fill="#181818" points="109,1511.8791,99,1515.8791,109,1519.8791,105,1515.8791" style="stroke:#181818;stroke-width:1.0;"/><line style="stroke:#181818;stroke-width:1.0;stroke-dasharray:2.0,2.0;" x1="103" x2="561" y1="1515.8791" y2="1515.8791"/><text fill="#000000" font-family="sans-serif" font-size="20" font-weight="bold" lengthAdjust="spacing" textLength="22" x="115" y="1508.0191">27</text><text fill="#000000" font-family="sans-serif" font-size="20" lengthAdjust="spacing" textLength="346" x="141" y="1508.0191">shows and aks to confirm all the data</text><polygon fill="#181818" points="545,1553.119,555,1557.119,545,1561.119,549,1557.119" style="stroke:#181818;stroke-width:1.0;"/><line style="stroke:#181818;stroke-width:1.0;" x1="98" x2="551" y1="1557.119" y2="1557.119"/><text fill="#000000" font-family="sans-serif" font-size="20" font-weight="bold" lengthAdjust="spacing" textLength="22" x="105" y="1549.2591">28</text><text fill="#000000" font-family="sans-serif" font-size="20" lengthAdjust="spacing" textLength="190" x="131" y="1549.2591">confirms all the data</text><polygon fill="#181818" points="109,1594.359,99,1598.359,109,1602.359,105,1598.359" style="stroke:#181818;stroke-width:1.0;"/><line style="stroke:#181818;stroke-width:1.0;stroke-dasharray:2.0,2.0;" x1="103" x2="561" y1="1598.359" y2="1598.359"/><text fill="#000000" font-family="sans-serif" font-size="20" font-weight="bold" lengthAdjust="spacing" textLength="22" x="115" y="1590.499">29</text><text fill="#000000" font-family="sans-serif" font-size="20" lengthAdjust="spacing" textLength="248" x="141" y="1590.499">displays operation success</text><!--SRC=[bLPDJ-Cm4BtxLumumQ7QZsC5I2ia5YJGeXPklPXasbXDxApjBDlzzJjssjIE7IWz89BCU_F6VZEssGhPSisRMXLRBA74DUzgUwkaNOf_2D-_CdC8WKP9LLHQDGXMTnXyQNcnvHjSsbsDeB6mN6xgCC1Kl5HlGcvWpMk3ZF72AWrdTrt39IpGg4uNQ5RoaKiYqcV03Tmj7Xd1hIX4owM5i_bFbAYvnMVapPDMhJAyVhdtmI_t9yJUK5rQrVK-mStpuc64MY052j8cqFYOuSLkALnHLiaOeWF4IgO4Jmy_dcE4v0rIv78hwjeS-Ntq-6KMUKCby5T5rIaz9fZu5lE4GVELV136NlhCryRdJvXwMPzQuOWMUjubrcGEB3s_-_nhlOm-n1ai4LEvZdzKPVoAxDJHldJDAshuviqb_f0mxo16Vs1sJGQ1EK6t1go2pLuwS719eDtBPq2_0KwUOWIR4TgHpCdQlpiqri1R9OeA175L28sGekaQuB9SIMZuN_-qbwFMVOOYt1TMOfGaqcXtBIR4AIsboX1dzLzxfy-fQjiljrlwyujWeNmdUB3xpo4olWVFS2yDjNU1X1_WkIPXEORPe2Lict0vibIXCDTF4DHo18IAVDSn7tlCcJHNaBS7X8d6qP0ku81Ec5c2FiWW6ZDmX0fIZbx9mHTvLBzpUPUIqOrlhDvEFG58n98wRUn1LtfemnJ9elYiXi1fqI0wmN0JWmicoOvS4oFFqzTAjR2ciuRaLb6p-C-7trJsaR1-Zr9DaIiEd5c1-qaQ9Oyr-WW_Dofk8sm4oYdVooFHkU5AiX6kWDn1Px3_TEuEb8k4TX2U7T7i10MNizcK17Tr-DBV0iP4WQMocSDObCVdgSrpAhAxbz4GslcTxLAjTOjurT-0JhLGV5ovSwWim_1pvylXATwGGTRep9jOkF796AxNPuhryPCb7HgTJJ15RHZFiGy7XwlWWrcHhESHDhaG8qmmZjqnojvPmdWCZwCp0zXKwituKvltrur2oRNGT91JOxjvMdBBn_CtdBtxU1C3fkybfJ1jpNU6xEckDO9EMjCLTA5ERXh_0G00]--></g></svg>