<?xml version="1.0" encoding="UTF-8" standalone="no"?><svg xmlns="http://www.w3.org/2000/svg" xmlns:xlink="http://www.w3.org/1999/xlink" contentStyleType="text/css" height="541px" preserveAspectRatio="none" style="width:831px;height:541px;background:#FFFFFF;" version="1.1" viewBox="0 0 831 541" width="831px" zoomAndPan="magnify"><defs/><g><rect fill="#FFFFFF" height="324.9198" style="stroke:#181818;stroke-width:1.0;" width="10" x="181" y="117.7199"/><rect fill="#FFFFFF" height="41.24" style="stroke:#181818;stroke-width:1.0;" width="10" x="424" y="195.1999"/><rect fill="#FFFFFF" height="41.24" style="stroke:#181818;stroke-width:1.0;" width="10" x="568" y="277.6798"/><rect fill="#FFFFFF" height="41.24" style="stroke:#181818;stroke-width:1.0;" width="10" x="727.5" y="360.1598"/><rect fill="none" height="317.9198" style="stroke:#000000;stroke-width:1.5;" width="815" x="10" y="132.7199"/><line style="stroke:#181818;stroke-width:0.5;stroke-dasharray:5.0,5.0;" x1="186" x2="186" y1="74.4799" y2="467.6397"/><line style="stroke:#181818;stroke-width:0.5;stroke-dasharray:5.0,5.0;" x1="429" x2="429" y1="74.4799" y2="467.6397"/><line style="stroke:#181818;stroke-width:0.5;stroke-dasharray:5.0,5.0;" x1="573" x2="573" y1="74.4799" y2="467.6397"/><line style="stroke:#181818;stroke-width:0.5;stroke-dasharray:5.0,5.0;" x1="732" x2="732" y1="74.4799" y2="467.6397"/><rect fill="#E3E3E3" height="41.24" rx="2.5" ry="2.5" style="stroke:#181818;stroke-width:0.5;" width="332" x="20" y="32.24"/><text fill="#000000" font-family="sans-serif" font-size="20" lengthAdjust="spacing" textLength="318" x="27" y="60.62">:GenerateTeamProposalController</text><rect fill="#E3E3E3" height="41.24" rx="2.5" ry="2.5" style="stroke:#181818;stroke-width:0.5;" width="332" x="20" y="466.6397"/><text fill="#000000" font-family="sans-serif" font-size="20" lengthAdjust="spacing" textLength="318" x="27" y="495.0197">:GenerateTeamProposalController</text><rect fill="#E3E3E3" height="41.24" rx="2.5" ry="2.5" style="stroke:#181818;stroke-width:0.5;" width="134" x="362" y="32.24"/><text fill="#000000" font-family="sans-serif" font-size="20" lengthAdjust="spacing" textLength="120" x="369" y="60.62">:Repositories</text><rect fill="#E3E3E3" height="41.24" rx="2.5" ry="2.5" style="stroke:#181818;stroke-width:0.5;" width="134" x="362" y="466.6397"/><text fill="#000000" font-family="sans-serif" font-size="20" lengthAdjust="spacing" textLength="120" x="369" y="495.0197">:Repositories</text><rect fill="#E3E3E3" height="68.4799" rx="2.5" ry="2.5" style="stroke:#181818;stroke-width:0.5;" width="134" x="506" y="5"/><text fill="#000000" font-family="sans-serif" font-size="20" lengthAdjust="spacing" textLength="111" x="517.5" y="33.38">repositories</text><text fill="#000000" font-family="sans-serif" font-size="20" lengthAdjust="spacing" textLength="120" x="513" y="60.62">:Repositories</text><rect fill="#E3E3E3" height="68.4799" rx="2.5" ry="2.5" style="stroke:#181818;stroke-width:0.5;" width="134" x="506" y="466.6397"/><text fill="#000000" font-family="sans-serif" font-size="20" lengthAdjust="spacing" textLength="111" x="517.5" y="495.0197">repositories</text><text fill="#000000" font-family="sans-serif" font-size="20" lengthAdjust="spacing" textLength="120" x="513" y="522.2597">:Repositories</text><rect fill="#E3E3E3" height="68.4799" rx="2.5" ry="2.5" style="stroke:#181818;stroke-width:0.5;" width="165" x="650" y="5"/><text fill="#000000" font-family="sans-serif" font-size="20" lengthAdjust="spacing" textLength="53" x="706" y="33.38">name</text><text fill="#000000" font-family="sans-serif" font-size="20" lengthAdjust="spacing" textLength="151" x="657" y="60.62">:SkillsRepository</text><rect fill="#E3E3E3" height="68.4799" rx="2.5" ry="2.5" style="stroke:#181818;stroke-width:0.5;" width="165" x="650" y="466.6397"/><text fill="#000000" font-family="sans-serif" font-size="20" lengthAdjust="spacing" textLength="53" x="706" y="495.0197">name</text><text fill="#000000" font-family="sans-serif" font-size="20" lengthAdjust="spacing" textLength="151" x="657" y="522.2597">:SkillsRepository</text><rect fill="#FFFFFF" height="324.9198" style="stroke:#181818;stroke-width:1.0;" width="10" x="181" y="117.7199"/><rect fill="#FFFFFF" height="41.24" style="stroke:#181818;stroke-width:1.0;" width="10" x="424" y="195.1999"/><rect fill="#FFFFFF" height="41.24" style="stroke:#181818;stroke-width:1.0;" width="10" x="568" y="277.6798"/><rect fill="#FFFFFF" height="41.24" style="stroke:#181818;stroke-width:1.0;" width="10" x="727.5" y="360.1598"/><polygon fill="#181818" points="169,113.7199,179,117.7199,169,121.7199,173,117.7199" style="stroke:#181818;stroke-width:1.0;"/><line style="stroke:#181818;stroke-width:1.0;" x1="0" x2="175" y1="117.7199" y2="117.7199"/><text fill="#000000" font-family="sans-serif" font-size="20" font-weight="bold" lengthAdjust="spacing" textLength="11" x="7" y="109.8599">4</text><text fill="#000000" font-family="sans-serif" font-size="20" lengthAdjust="spacing" textLength="120" x="22" y="109.8599">getskillsList()</text><path d="M10,132.7199 L187,132.7199 L187,151.9599 L177,161.9599 L10,161.9599 L10,132.7199 " fill="#EEEEEE" style="stroke:#000000;stroke-width:1.5;"/><rect fill="none" height="317.9198" style="stroke:#000000;stroke-width:1.5;" width="815" x="10" y="132.7199"/><text fill="#000000" font-family="sans-serif" font-size="20" font-weight="bold" lengthAdjust="spacing" textLength="132" x="25" y="155.0999">Get Skills List</text><polygon fill="#181818" points="412,191.1999,422,195.1999,412,199.1999,416,195.1999" style="stroke:#181818;stroke-width:1.0;"/><line style="stroke:#181818;stroke-width:1.0;" x1="191" x2="418" y1="195.1999" y2="195.1999"/><text fill="#000000" font-family="sans-serif" font-size="20" font-weight="bold" lengthAdjust="spacing" textLength="11" x="198" y="187.3399">5</text><text fill="#000000" font-family="sans-serif" font-size="20" lengthAdjust="spacing" textLength="122" x="213" y="187.3399">getInstance()</text><polygon fill="#181818" points="202,232.4398,192,236.4398,202,240.4398,198,236.4398" style="stroke:#181818;stroke-width:1.0;"/><line style="stroke:#181818;stroke-width:1.0;stroke-dasharray:2.0,2.0;" x1="196" x2="428" y1="236.4398" y2="236.4398"/><text fill="#000000" font-family="sans-serif" font-size="20" font-weight="bold" lengthAdjust="spacing" textLength="11" x="208" y="228.5799">6</text><text fill="#000000" font-family="sans-serif" font-size="20" lengthAdjust="spacing" textLength="111" x="223" y="228.5799">repositories</text><polygon fill="#181818" points="556,273.6798,566,277.6798,556,281.6798,560,277.6798" style="stroke:#181818;stroke-width:1.0;"/><line style="stroke:#181818;stroke-width:1.0;" x1="191" x2="562" y1="277.6798" y2="277.6798"/><text fill="#000000" font-family="sans-serif" font-size="20" font-weight="bold" lengthAdjust="spacing" textLength="11" x="198" y="269.8198">7</text><text fill="#000000" font-family="sans-serif" font-size="20" lengthAdjust="spacing" textLength="188" x="213" y="269.8198">getSkillsRepository()</text><polygon fill="#181818" points="202,314.9198,192,318.9198,202,322.9198,198,318.9198" style="stroke:#181818;stroke-width:1.0;"/><line style="stroke:#181818;stroke-width:1.0;stroke-dasharray:2.0,2.0;" x1="196" x2="572" y1="318.9198" y2="318.9198"/><text fill="#000000" font-family="sans-serif" font-size="20" font-weight="bold" lengthAdjust="spacing" textLength="11" x="208" y="311.0598">8</text><text fill="#000000" font-family="sans-serif" font-size="20" lengthAdjust="spacing" textLength="146" x="223" y="311.0598">SkillsRepository</text><polygon fill="#181818" points="715.5,356.1598,725.5,360.1598,715.5,364.1598,719.5,360.1598" style="stroke:#181818;stroke-width:1.0;"/><line style="stroke:#181818;stroke-width:1.0;" x1="191" x2="721.5" y1="360.1598" y2="360.1598"/><text fill="#000000" font-family="sans-serif" font-size="20" font-weight="bold" lengthAdjust="spacing" textLength="11" x="198" y="352.2998">9</text><text fill="#000000" font-family="sans-serif" font-size="20" lengthAdjust="spacing" textLength="120" x="213" y="352.2998">getskillsList()</text><polygon fill="#181818" points="202,397.3997,192,401.3997,202,405.3997,198,401.3997" style="stroke:#181818;stroke-width:1.0;"/><line style="stroke:#181818;stroke-width:1.0;stroke-dasharray:2.0,2.0;" x1="196" x2="731.5" y1="401.3997" y2="401.3997"/><text fill="#000000" font-family="sans-serif" font-size="20" font-weight="bold" lengthAdjust="spacing" textLength="22" x="208" y="393.5398">10</text><text fill="#000000" font-family="sans-serif" font-size="20" lengthAdjust="spacing" textLength="78" x="234" y="393.5398">skillsList</text><polygon fill="#181818" points="11,438.6397,1,442.6397,11,446.6397,7,442.6397" style="stroke:#181818;stroke-width:1.0;"/><line style="stroke:#181818;stroke-width:1.0;stroke-dasharray:2.0,2.0;" x1="5" x2="185" y1="442.6397" y2="442.6397"/><text fill="#000000" font-family="sans-serif" font-size="20" font-weight="bold" lengthAdjust="spacing" textLength="22" x="17" y="434.7797">11</text><text fill="#000000" font-family="sans-serif" font-size="20" lengthAdjust="spacing" textLength="78" x="43" y="434.7797">skillsList</text><!--SRC=[VP4nQyCm48Lt_OeZKpiOIkaKIg446W8UGfonorM-ECAoPAHpI_hhgyXfhDWc7kNtldltpjVAjEYmqLRML4991-mqVrZ3XVebU7uI_by2ZJLM7frj2DXrbFnfKTPOKS4dJU18CffAfm9_nDB-A5F10RKd8R1ZQxhcYvmGGS9AgXODmsAv9aCEcVQ4pTRPrdhKgv37MQt9BG0zhFQxVEJQKH0gjawHZvhhmwbGvp1XtAt59OvFCmLiy_VzhSDWGq5Pr4fhF_2ZUloORWWl8dkBeM495R6FsbnvVdWCEidgE-pRRoKgPxiMriGN99nrGa3u8Y6GPbRhmHlZG_EI0lPAdUj1p16oIyObfCs8akwZqc3doleauphIHB5O4RN3p4b_oTpUa0uQgsTwlRgdbvcui-4y0oDDC6MyPjbzItzDCgNu0m00]--></g></svg>