<?xml version="1.0" encoding="UTF-8" standalone="no"?><svg xmlns="http://www.w3.org/2000/svg" xmlns:xlink="http://www.w3.org/1999/xlink" contentStyleType="text/css" height="1211px" preserveAspectRatio="none" style="width:1297px;height:1211px;background:#FFFFFF;" version="1.1" viewBox="0 0 1297 1211" width="1297px" zoomAndPan="magnify"><defs/><g><rect fill="#FFFFFF" height="953.7594" style="stroke:#181818;stroke-width:1.0;" width="10" x="88" y="129.4799"/><rect fill="#FFFFFF" height="68.4799" style="stroke:#181818;stroke-width:1.0;" width="10" x="557" y="162.7199"/><rect fill="#FFFFFF" height="193.1999" style="stroke:#181818;stroke-width:1.0;" width="10" x="557" y="299.6798"/><rect fill="#FFFFFF" height="457.6397" style="stroke:#181818;stroke-width:1.0;" width="10" x="557" y="534.1197"/><rect fill="#FFFFFF" height="41.24" style="stroke:#181818;stroke-width:1.0;" width="10" x="557" y="1032.9994"/><rect fill="#FFFFFF" height="110.7199" style="stroke:#181818;stroke-width:1.0;" width="10" x="863.5" y="340.9198"/><rect fill="#FFFFFF" height="193.1999" style="stroke:#181818;stroke-width:1.0;" width="10" x="863.5" y="605.3596"/><rect fill="#FFFFFF" height="110.7199" style="stroke:#181818;stroke-width:1.0;" width="10" x="863.5" y="839.7995"/><rect fill="#FFFFFF" height="110.7199" style="stroke:#181818;stroke-width:1.0;" width="10" x="1161.5" y="646.5996"/><line style="stroke:#181818;stroke-width:0.5;stroke-dasharray:5.0,5.0;" x1="93" x2="93" y1="119.4799" y2="1092.2393"/><line style="stroke:#181818;stroke-width:0.5;stroke-dasharray:5.0,5.0;" x1="561.5" x2="561.5" y1="119.4799" y2="1092.2393"/><line style="stroke:#181818;stroke-width:0.5;stroke-dasharray:5.0,5.0;" x1="868.5" x2="868.5" y1="119.4799" y2="1092.2393"/><line style="stroke:#181818;stroke-width:0.5;stroke-dasharray:5.0,5.0;" x1="1166.5" x2="1166.5" y1="119.4799" y2="1092.2393"/><text fill="#000000" font-family="sans-serif" font-size="20" lengthAdjust="spacing" textLength="170" x="5" y="86.38">Human Resources</text><text fill="#000000" font-family="sans-serif" font-size="20" lengthAdjust="spacing" textLength="83" x="48.5" y="113.62">Manager</text><ellipse cx="93" cy="13.5" fill="#E3E3E3" rx="8" ry="8" style="stroke:#181818;stroke-width:0.5;"/><path d="M93,21.5 L93,48.5 M80,29.5 L106,29.5 M93,48.5 L80,63.5 M93,48.5 L106,63.5 " fill="none" style="stroke:#181818;stroke-width:0.5;"/><text fill="#000000" font-family="sans-serif" font-size="20" lengthAdjust="spacing" textLength="170" x="5" y="1112.6193">Human Resources</text><text fill="#000000" font-family="sans-serif" font-size="20" lengthAdjust="spacing" textLength="83" x="48.5" y="1139.8593">Manager</text><ellipse cx="93" cy="1154.2193" fill="#E3E3E3" rx="8" ry="8" style="stroke:#181818;stroke-width:0.5;"/><path d="M93,1162.2193 L93,1189.2193 M80,1170.2193 L106,1170.2193 M93,1189.2193 L80,1204.2193 M93,1189.2193 L106,1204.2193 " fill="none" style="stroke:#181818;stroke-width:0.5;"/><rect fill="#E3E3E3" height="41.24" rx="2.5" ry="2.5" style="stroke:#181818;stroke-width:0.5;" width="261" x="431.5" y="77.24"/><text fill="#000000" font-family="sans-serif" font-size="20" lengthAdjust="spacing" textLength="247" x="438.5" y="105.62">:GenerateTeamProposalUI</text><rect fill="#E3E3E3" height="41.24" rx="2.5" ry="2.5" style="stroke:#181818;stroke-width:0.5;" width="261" x="431.5" y="1091.2393"/><text fill="#000000" font-family="sans-serif" font-size="20" lengthAdjust="spacing" textLength="247" x="438.5" y="1119.6193">:GenerateTeamProposalUI</text><rect fill="#E3E3E3" height="41.24" rx="2.5" ry="2.5" style="stroke:#181818;stroke-width:0.5;" width="332" x="702.5" y="77.24"/><text fill="#000000" font-family="sans-serif" font-size="20" lengthAdjust="spacing" textLength="318" x="709.5" y="105.62">:GenerateTeamProposalController</text><rect fill="#E3E3E3" height="41.24" rx="2.5" ry="2.5" style="stroke:#181818;stroke-width:0.5;" width="332" x="702.5" y="1091.2393"/><text fill="#000000" font-family="sans-serif" font-size="20" lengthAdjust="spacing" textLength="318" x="709.5" y="1119.6193">:GenerateTeamProposalController</text><rect fill="#E3E3E3" height="68.4799" rx="2.5" ry="2.5" style="stroke:#181818;stroke-width:0.5;" width="244" x="1044.5" y="50"/><text fill="#000000" font-family="sans-serif" font-size="20" lengthAdjust="spacing" textLength="53" x="1140" y="78.38">name</text><text fill="#000000" font-family="sans-serif" font-size="20" lengthAdjust="spacing" textLength="230" x="1051.5" y="105.62">:CollaboratorsRepository</text><rect fill="#E3E3E3" height="68.4799" rx="2.5" ry="2.5" style="stroke:#181818;stroke-width:0.5;" width="244" x="1044.5" y="1091.2393"/><text fill="#000000" font-family="sans-serif" font-size="20" lengthAdjust="spacing" textLength="53" x="1140" y="1119.6193">name</text><text fill="#000000" font-family="sans-serif" font-size="20" lengthAdjust="spacing" textLength="230" x="1051.5" y="1146.8593">:CollaboratorsRepository</text><rect fill="#FFFFFF" height="953.7594" style="stroke:#181818;stroke-width:1.0;" width="10" x="88" y="129.4799"/><rect fill="#FFFFFF" height="68.4799" style="stroke:#181818;stroke-width:1.0;" width="10" x="557" y="162.7199"/><rect fill="#FFFFFF" height="193.1999" style="stroke:#181818;stroke-width:1.0;" width="10" x="557" y="299.6798"/><rect fill="#FFFFFF" height="457.6397" style="stroke:#181818;stroke-width:1.0;" width="10" x="557" y="534.1197"/><rect fill="#FFFFFF" height="41.24" style="stroke:#181818;stroke-width:1.0;" width="10" x="557" y="1032.9994"/><rect fill="#FFFFFF" height="110.7199" style="stroke:#181818;stroke-width:1.0;" width="10" x="863.5" y="340.9198"/><rect fill="#FFFFFF" height="193.1999" style="stroke:#181818;stroke-width:1.0;" width="10" x="863.5" y="605.3596"/><rect fill="#FFFFFF" height="110.7199" style="stroke:#181818;stroke-width:1.0;" width="10" x="863.5" y="839.7995"/><rect fill="#FFFFFF" height="110.7199" style="stroke:#181818;stroke-width:1.0;" width="10" x="1161.5" y="646.5996"/><polygon fill="#181818" points="545,158.7199,555,162.7199,545,166.7199,549,162.7199" style="stroke:#181818;stroke-width:1.0;"/><line style="stroke:#181818;stroke-width:1.0;" x1="98" x2="551" y1="162.7199" y2="162.7199"/><text fill="#000000" font-family="sans-serif" font-size="20" font-weight="bold" lengthAdjust="spacing" textLength="11" x="105" y="154.8599">1</text><text fill="#000000" font-family="sans-serif" font-size="20" lengthAdjust="spacing" textLength="310" x="120" y="154.8599">asks to generate a team proposal</text><polygon fill="#181818" points="109,227.1999,99,231.1999,109,235.1999,105,231.1999" style="stroke:#181818;stroke-width:1.0;"/><line style="stroke:#181818;stroke-width:1.0;stroke-dasharray:2.0,2.0;" x1="103" x2="561" y1="231.1999" y2="231.1999"/><text fill="#000000" font-family="sans-serif" font-size="20" font-weight="bold" lengthAdjust="spacing" textLength="11" x="115" y="209.7199">2</text><text fill="#000000" font-family="sans-serif" font-size="20" lengthAdjust="spacing" textLength="332" x="130" y="196.0999">requests which is the minimum and</text><text fill="#000000" font-family="sans-serif" font-size="20" lengthAdjust="spacing" textLength="380" x="135" y="223.3399">maximum number of team collaborators</text><polygon fill="#181818" points="545,295.6798,555,299.6798,545,303.6798,549,299.6798" style="stroke:#181818;stroke-width:1.0;"/><line style="stroke:#181818;stroke-width:1.0;" x1="98" x2="551" y1="299.6798" y2="299.6798"/><text fill="#000000" font-family="sans-serif" font-size="20" font-weight="bold" lengthAdjust="spacing" textLength="11" x="105" y="278.1998">3</text><text fill="#000000" font-family="sans-serif" font-size="20" lengthAdjust="spacing" textLength="425" x="120" y="264.5799">types the minimum and maximum number of</text><text fill="#000000" font-family="sans-serif" font-size="20" lengthAdjust="spacing" textLength="176" x="125" y="291.8198">team collaborators</text><polygon fill="#181818" points="851.5,336.9198,861.5,340.9198,851.5,344.9198,855.5,340.9198" style="stroke:#181818;stroke-width:1.0;"/><line style="stroke:#181818;stroke-width:1.0;" x1="567" x2="857.5" y1="340.9198" y2="340.9198"/><text fill="#000000" font-family="sans-serif" font-size="20" font-weight="bold" lengthAdjust="spacing" textLength="11" x="574" y="333.0598">4</text><text fill="#000000" font-family="sans-serif" font-size="20" lengthAdjust="spacing" textLength="121" x="589" y="333.0598">getSkillsList()</text><rect fill="none" height="64.4799" style="stroke:#000000;stroke-width:1.5;" width="338" x="699.5" y="348.9198"/><path d="M699.5,348.9198 L773.5,348.9198 L773.5,367.9198 L763.5,377.9198 L699.5,377.9198 L699.5,348.9198 " fill="#EEEEEE" style="stroke:#000000;stroke-width:2.0;"/><text fill="#000000" font-family="sans-serif" font-size="20" font-weight="bold" lengthAdjust="spacing" textLength="29" x="712.5" y="372.2998">ref</text><text fill="#000000" font-family="sans-serif" font-size="20" lengthAdjust="spacing" textLength="122" x="807.5" y="403.2998">Get Skills List</text><polygon fill="#181818" points="578,447.6397,568,451.6397,578,455.6397,574,451.6397" style="stroke:#181818;stroke-width:1.0;"/><line style="stroke:#181818;stroke-width:1.0;stroke-dasharray:2.0,2.0;" x1="572" x2="867.5" y1="451.6397" y2="451.6397"/><text fill="#000000" font-family="sans-serif" font-size="20" font-weight="bold" lengthAdjust="spacing" textLength="22" x="584" y="443.7797">11</text><text fill="#000000" font-family="sans-serif" font-size="20" lengthAdjust="spacing" textLength="78" x="610" y="443.7797">skillsList</text><polygon fill="#181818" points="109,488.8797,99,492.8797,109,496.8797,105,492.8797" style="stroke:#181818;stroke-width:1.0;"/><line style="stroke:#181818;stroke-width:1.0;stroke-dasharray:2.0,2.0;" x1="103" x2="561" y1="492.8797" y2="492.8797"/><text fill="#000000" font-family="sans-serif" font-size="20" font-weight="bold" lengthAdjust="spacing" textLength="22" x="115" y="485.0197">12</text><text fill="#000000" font-family="sans-serif" font-size="20" lengthAdjust="spacing" textLength="334" x="141" y="485.0197">requests to selects the skills needed</text><polygon fill="#181818" points="545,530.1197,555,534.1197,545,538.1197,549,534.1197" style="stroke:#181818;stroke-width:1.0;"/><line style="stroke:#181818;stroke-width:1.0;" x1="98" x2="551" y1="534.1197" y2="534.1197"/><text fill="#000000" font-family="sans-serif" font-size="20" font-weight="bold" lengthAdjust="spacing" textLength="22" x="105" y="526.2597">13</text><text fill="#000000" font-family="sans-serif" font-size="20" lengthAdjust="spacing" textLength="150" x="131" y="526.2597">selects the skills</text><polygon fill="#181818" points="851.5,601.3596,861.5,605.3596,851.5,609.3596,855.5,605.3596" style="stroke:#181818;stroke-width:1.0;"/><line style="stroke:#181818;stroke-width:1.0;" x1="567" x2="857.5" y1="605.3596" y2="605.3596"/><text fill="#000000" font-family="sans-serif" font-size="20" font-weight="bold" lengthAdjust="spacing" textLength="22" x="574" y="597.4997">14</text><text fill="#000000" font-family="sans-serif" font-size="20" lengthAdjust="spacing" textLength="200" x="600" y="597.4997">getCollaboratorsList()</text><polygon fill="#181818" points="1149.5,642.5996,1159.5,646.5996,1149.5,650.5996,1153.5,646.5996" style="stroke:#181818;stroke-width:1.0;"/><line style="stroke:#181818;stroke-width:1.0;" x1="873.5" x2="1155.5" y1="646.5996" y2="646.5996"/><text fill="#000000" font-family="sans-serif" font-size="20" font-weight="bold" lengthAdjust="spacing" textLength="22" x="880.5" y="638.7396">15</text><text fill="#000000" font-family="sans-serif" font-size="20" lengthAdjust="spacing" textLength="200" x="906.5" y="638.7396">getCollaboratorsList()</text><rect fill="none" height="64.4799" style="stroke:#000000;stroke-width:1.5;" width="250" x="1041.5" y="654.5996"/><path d="M1041.5,654.5996 L1115.5,654.5996 L1115.5,673.5996 L1105.5,683.5996 L1041.5,683.5996 L1041.5,654.5996 " fill="#EEEEEE" style="stroke:#000000;stroke-width:2.0;"/><text fill="#000000" font-family="sans-serif" font-size="20" font-weight="bold" lengthAdjust="spacing" textLength="29" x="1054.5" y="677.9796">ref</text><text fill="#000000" font-family="sans-serif" font-size="20" lengthAdjust="spacing" textLength="201" x="1066" y="708.9796">Get Collaborators List</text><polygon fill="#181818" points="884.5,753.3195,874.5,757.3195,884.5,761.3195,880.5,757.3195" style="stroke:#181818;stroke-width:1.0;"/><line style="stroke:#181818;stroke-width:1.0;stroke-dasharray:2.0,2.0;" x1="878.5" x2="1165.5" y1="757.3195" y2="757.3195"/><text fill="#000000" font-family="sans-serif" font-size="20" font-weight="bold" lengthAdjust="spacing" textLength="22" x="890.5" y="749.4596">21</text><text fill="#000000" font-family="sans-serif" font-size="20" lengthAdjust="spacing" textLength="5" x="916.5" y="749.4596"> </text><polygon fill="#181818" points="578,794.5595,568,798.5595,578,802.5595,574,798.5595" style="stroke:#181818;stroke-width:1.0;"/><line style="stroke:#181818;stroke-width:1.0;stroke-dasharray:2.0,2.0;" x1="572" x2="867.5" y1="798.5595" y2="798.5595"/><text fill="#000000" font-family="sans-serif" font-size="20" font-weight="bold" lengthAdjust="spacing" textLength="22" x="584" y="790.6995">22</text><text fill="#000000" font-family="sans-serif" font-size="20" lengthAdjust="spacing" textLength="5" x="610" y="790.6995"> </text><polygon fill="#181818" points="851.5,835.7995,861.5,839.7995,851.5,843.7995,855.5,839.7995" style="stroke:#181818;stroke-width:1.0;"/><line style="stroke:#181818;stroke-width:1.0;" x1="567" x2="857.5" y1="839.7995" y2="839.7995"/><text fill="#000000" font-family="sans-serif" font-size="20" font-weight="bold" lengthAdjust="spacing" textLength="22" x="574" y="831.9395">23</text><text fill="#000000" font-family="sans-serif" font-size="20" lengthAdjust="spacing" textLength="94" x="600" y="831.9395">getTeam()</text><rect fill="none" height="64.4799" style="stroke:#000000;stroke-width:1.5;" width="338" x="699.5" y="847.7995"/><path d="M699.5,847.7995 L773.5,847.7995 L773.5,866.7995 L763.5,876.7995 L699.5,876.7995 L699.5,847.7995 " fill="#EEEEEE" style="stroke:#000000;stroke-width:2.0;"/><text fill="#000000" font-family="sans-serif" font-size="20" font-weight="bold" lengthAdjust="spacing" textLength="29" x="712.5" y="871.1795">ref</text><text fill="#000000" font-family="sans-serif" font-size="20" lengthAdjust="spacing" textLength="90" x="823.5" y="902.1795">Get Team</text><polygon fill="#181818" points="578,946.5194,568,950.5194,578,954.5194,574,950.5194" style="stroke:#181818;stroke-width:1.0;"/><line style="stroke:#181818;stroke-width:1.0;stroke-dasharray:2.0,2.0;" x1="572" x2="867.5" y1="950.5194" y2="950.5194"/><text fill="#000000" font-family="sans-serif" font-size="20" font-weight="bold" lengthAdjust="spacing" textLength="22" x="584" y="942.6594">26</text><text fill="#000000" font-family="sans-serif" font-size="20" lengthAdjust="spacing" textLength="48" x="610" y="942.6594">team</text><polygon fill="#181818" points="109,987.7594,99,991.7594,109,995.7594,105,991.7594" style="stroke:#181818;stroke-width:1.0;"/><line style="stroke:#181818;stroke-width:1.0;stroke-dasharray:2.0,2.0;" x1="103" x2="561" y1="991.7594" y2="991.7594"/><text fill="#000000" font-family="sans-serif" font-size="20" font-weight="bold" lengthAdjust="spacing" textLength="22" x="115" y="983.8994">27</text><text fill="#000000" font-family="sans-serif" font-size="20" lengthAdjust="spacing" textLength="346" x="141" y="983.8994">shows and aks to confirm all the data</text><polygon fill="#181818" points="545,1028.9994,555,1032.9994,545,1036.9994,549,1032.9994" style="stroke:#181818;stroke-width:1.0;"/><line style="stroke:#181818;stroke-width:1.0;" x1="98" x2="551" y1="1032.9994" y2="1032.9994"/><text fill="#000000" font-family="sans-serif" font-size="20" font-weight="bold" lengthAdjust="spacing" textLength="22" x="105" y="1025.1394">28</text><text fill="#000000" font-family="sans-serif" font-size="20" lengthAdjust="spacing" textLength="190" x="131" y="1025.1394">confirms all the data</text><polygon fill="#181818" points="109,1070.2393,99,1074.2393,109,1078.2393,105,1074.2393" style="stroke:#181818;stroke-width:1.0;"/><line style="stroke:#181818;stroke-width:1.0;stroke-dasharray:2.0,2.0;" x1="103" x2="561" y1="1074.2393" y2="1074.2393"/><text fill="#000000" font-family="sans-serif" font-size="20" font-weight="bold" lengthAdjust="spacing" textLength="22" x="115" y="1066.3794">29</text><text fill="#000000" font-family="sans-serif" font-size="20" lengthAdjust="spacing" textLength="248" x="141" y="1066.3794">displays operation success</text><!--SRC=[ZLGzRzj03DtrAmXFxM2WpT31WnS3JG8aG64dcnVcH5i7tuTwFCLrVtrv9pNLsLOQ3O8- -CZt7ddaWtOj1hJ6gmFLKDCEEnE_UnSt-ZV1pPUA_uQ0zSwh9dXB44D7epyjgWFkQHDFXY2GYkZsPXp03TR-gDqUTcYOgWfLz05cTvr51sjYtmL5l7MFw2HHc04otAqVAu57hNIBBi9iSKkE0aPw8hG_Wcyzetc-py7Fzn-8NOcku8qP2goUrWybog6bhLki90PVlC1zu3K9LilJgGTT_oUIkkXTPryemDSiKBzA-QoYaXlCbq8I5fBZm10zx0U2W10fcJYGh42kDxZegWGs5tHAiX1xVtR4aU7OQDM0bbmDWTLEsyu2kdhhmEAl_3RGyRk-WXfJhsegYXGSuwcbYyINQQNKbSHN-I-psmjH7JS7RGm_Q8wVFe-Cojt8u40xyAzI8N-2uRgb23qK4ZP_9s4bqQNvudu2Pi-o6duhE1RTrxlkhRI7oSWWzoRq2S0HrLIV6vTuZBsx15P5_5KA8tkA0Nl7fLxZSceWOJBPlrnJermsOI9gt9SYvltstAJsJ52U3puK7asH7FNuqjDK_SpNj0WAzH-OjuIPLlBjVD3IOVZFY77ZZvnF4_PhG7ctqq4Ec35vP6gCU3vYu_4Quha4JE-BMdDhyCJWsxHkj7V0dP9bUx41_W00]--></g></svg>