<?xml version="1.0" encoding="us-ascii" standalone="no"?><svg xmlns="http://www.w3.org/2000/svg" xmlns:xlink="http://www.w3.org/1999/xlink" contentStyleType="text/css" height="1533px" preserveAspectRatio="none" style="width:613px;height:1533px;background:#FFFFFF;" version="1.1" viewBox="0 0 613 1533" width="613.2px" zoomAndPan="magnify"><defs/><g><!--class GenerateTeamProposalUI--><g id="elem_GenerateTeamProposalUI"><rect codeLine="8" fill="#F1F1F1" height="28.8" id="GenerateTeamProposalUI" rx="1.5" ry="1.5" style="stroke:#181818;stroke-width:0.3;" width="117.6" x="4.2" y="37.8"/><ellipse cx="13.2" cy="47.4" fill="#ADD1B2" rx="6.6" ry="6.6" style="stroke:#181818;stroke-width:0.6;"/><path d="M14.8594,44.925 Q14.9531,44.7937 15.0656,44.7281 Q15.1781,44.6625 15.3094,44.6625 Q15.5344,44.6625 15.675,44.8219 Q15.8156,44.9719 15.8156,45.3375 L15.8156,46.2094 Q15.8156,46.575 15.675,46.7344 Q15.5344,46.8938 15.3094,46.8938 Q15.1031,46.8938 14.9813,46.7719 Q14.8594,46.6594 14.7938,46.35 Q14.7656,46.1344 14.6531,46.0219 Q14.4562,45.7969 14.0906,45.6656 Q13.725,45.5344 13.35,45.5344 Q12.8906,45.5344 12.5063,45.7312 Q12.1313,45.9281 11.8312,46.3781 Q11.5406,46.8281 11.5406,47.4469 L11.5406,48.1031 Q11.5406,48.8438 12.075,49.3406 Q12.6094,49.8281 13.5656,49.8281 Q14.1281,49.8281 14.5219,49.6781 Q14.7563,49.5844 15.0094,49.3219 Q15.1688,49.1625 15.2531,49.1156 Q15.3469,49.0688 15.4688,49.0688 Q15.6656,49.0688 15.8156,49.2281 Q15.975,49.3781 15.975,49.5844 Q15.975,49.7906 15.7687,50.0344 Q15.4688,50.3813 14.9906,50.5781 Q14.3438,50.85 13.5656,50.85 Q12.6563,50.85 11.9344,50.475 Q11.3438,50.175 10.9313,49.5375 Q10.5187,48.8906 10.5187,48.1219 L10.5187,47.4281 Q10.5187,46.6313 10.8844,45.9469 Q11.2594,45.2531 11.9156,44.8875 Q12.5719,44.5125 13.3125,44.5125 Q13.7531,44.5125 14.1375,44.6156 Q14.5313,44.7094 14.8594,44.925 Z " fill="#000000"/><text fill="#000000" font-family="sans-serif" font-size="8.4" lengthAdjust="spacing" textLength="98.4" x="21.6" y="50.8781">GenerateTeamProposalUI</text><line style="stroke:#181818;stroke-width:0.3;" x1="4.8" x2="121.2" y1="57" y2="57"/><line style="stroke:#181818;stroke-width:0.3;" x1="4.8" x2="121.2" y1="61.8" y2="61.8"/></g><!--class GenerateTeamProposalController--><g id="elem_GenerateTeamProposalController"><rect codeLine="11" fill="#F1F1F1" height="95.8359" id="GenerateTeamProposalController" rx="1.5" ry="1.5" style="stroke:#181818;stroke-width:0.3;" width="370.2" x="143.1" y="4.2"/><ellipse cx="261.45" cy="13.8" fill="#ADD1B2" rx="6.6" ry="6.6" style="stroke:#181818;stroke-width:0.6;"/><path d="M263.1094,11.325 Q263.2031,11.1938 263.3156,11.1281 Q263.4281,11.0625 263.5594,11.0625 Q263.7844,11.0625 263.925,11.2219 Q264.0656,11.3719 264.0656,11.7375 L264.0656,12.6094 Q264.0656,12.975 263.925,13.1344 Q263.7844,13.2938 263.5594,13.2938 Q263.3531,13.2938 263.2313,13.1719 Q263.1094,13.0594 263.0438,12.75 Q263.0156,12.5344 262.9031,12.4219 Q262.7063,12.1969 262.3406,12.0656 Q261.975,11.9344 261.6,11.9344 Q261.1406,11.9344 260.7562,12.1313 Q260.3812,12.3281 260.0813,12.7781 Q259.7906,13.2281 259.7906,13.8469 L259.7906,14.5031 Q259.7906,15.2437 260.325,15.7406 Q260.8594,16.2281 261.8156,16.2281 Q262.3781,16.2281 262.7719,16.0781 Q263.0062,15.9844 263.2594,15.7219 Q263.4188,15.5625 263.5031,15.5156 Q263.5969,15.4688 263.7188,15.4688 Q263.9156,15.4688 264.0656,15.6281 Q264.225,15.7781 264.225,15.9844 Q264.225,16.1906 264.0188,16.4344 Q263.7188,16.7813 263.2406,16.9781 Q262.5938,17.25 261.8156,17.25 Q260.9063,17.25 260.1844,16.875 Q259.5938,16.575 259.1813,15.9375 Q258.7688,15.2906 258.7688,14.5219 L258.7688,13.8281 Q258.7688,13.0313 259.1344,12.3469 Q259.5094,11.6531 260.1656,11.2875 Q260.8219,10.9125 261.5625,10.9125 Q262.0031,10.9125 262.3875,11.0156 Q262.7813,11.1094 263.1094,11.325 Z " fill="#000000"/><text fill="#000000" font-family="sans-serif" font-size="8.4" lengthAdjust="spacing" textLength="128.4" x="273.75" y="17.2781">GenerateTeamProposalController</text><line style="stroke:#181818;stroke-width:0.3;" x1="143.7" x2="512.7" y1="23.4" y2="23.4"/><text fill="#000000" font-family="sans-serif" font-size="8.4" lengthAdjust="spacing" textLength="94.2" x="146.7" y="34.8645">-List&lt;Skill&gt; skillsSelected</text><line style="stroke:#181818;stroke-width:0.3;" x1="143.7" x2="512.7" y1="39.3727" y2="39.3727"/><text fill="#000000" font-family="sans-serif" font-size="8.4" lengthAdjust="spacing" textLength="363" x="146.7" y="50.8371">+GenerateTeamProposalController(SkillsRepository, CollaboratorsRepository, TeamRepository)</text><text fill="#000000" font-family="sans-serif" font-size="8.4" lengthAdjust="spacing" textLength="55.2" x="146.7" y="62.0098">+getSkillsList()</text><text fill="#000000" font-family="sans-serif" font-size="8.4" lengthAdjust="spacing" textLength="87" x="146.7" y="73.1824">+getCollaboratorsList()</text><text fill="#000000" font-family="sans-serif" font-size="8.4" lengthAdjust="spacing" textLength="102" x="146.7" y="84.3551">+getCollaboratorSkillsList()</text><text fill="#000000" font-family="sans-serif" font-size="8.4" lengthAdjust="spacing" textLength="44.4" x="146.7" y="95.5277">+getTeam()</text></g><!--class Collaborator--><g id="elem_Collaborator"><rect codeLine="20" fill="#F1F1F1" height="431.0156" id="Collaborator" rx="1.5" ry="1.5" style="stroke:#181818;stroke-width:0.3;" width="341.4" x="97.5" y="767.4"/><ellipse cx="242.25" cy="777" fill="#ADD1B2" rx="6.6" ry="6.6" style="stroke:#181818;stroke-width:0.6;"/><path d="M243.9094,774.525 Q244.0031,774.3938 244.1156,774.3281 Q244.2281,774.2625 244.3594,774.2625 Q244.5844,774.2625 244.725,774.4219 Q244.8656,774.5719 244.8656,774.9375 L244.8656,775.8094 Q244.8656,776.175 244.725,776.3344 Q244.5844,776.4938 244.3594,776.4938 Q244.1531,776.4938 244.0313,776.3719 Q243.9094,776.2594 243.8438,775.95 Q243.8156,775.7344 243.7031,775.6219 Q243.5063,775.3969 243.1406,775.2656 Q242.775,775.1344 242.4,775.1344 Q241.9406,775.1344 241.5562,775.3313 Q241.1812,775.5281 240.8813,775.9781 Q240.5906,776.4281 240.5906,777.0469 L240.5906,777.7031 Q240.5906,778.4438 241.125,778.9406 Q241.6594,779.4281 242.6156,779.4281 Q243.1781,779.4281 243.5719,779.2781 Q243.8062,779.1844 244.0594,778.9219 Q244.2188,778.7625 244.3031,778.7156 Q244.3969,778.6687 244.5187,778.6687 Q244.7156,778.6687 244.8656,778.8281 Q245.025,778.9781 245.025,779.1844 Q245.025,779.3906 244.8188,779.6344 Q244.5187,779.9812 244.0406,780.1781 Q243.3937,780.45 242.6156,780.45 Q241.7062,780.45 240.9844,780.075 Q240.3937,779.775 239.9813,779.1375 Q239.5688,778.4906 239.5688,777.7219 L239.5688,777.0281 Q239.5688,776.2312 239.9344,775.5469 Q240.3094,774.8531 240.9656,774.4875 Q241.6219,774.1125 242.3625,774.1125 Q242.8031,774.1125 243.1875,774.2156 Q243.5812,774.3094 243.9094,774.525 Z " fill="#000000"/><text fill="#000000" font-family="sans-serif" font-size="8.4" lengthAdjust="spacing" textLength="46.8" x="254.55" y="780.4781">Collaborator</text><line style="stroke:#181818;stroke-width:0.3;" x1="98.1" x2="438.3" y1="786.6" y2="786.6"/><text fill="#000000" font-family="sans-serif" font-size="8.4" lengthAdjust="spacing" textLength="48.6" x="101.1" y="798.0645">-String name</text><text fill="#000000" font-family="sans-serif" font-size="8.4" lengthAdjust="spacing" textLength="58.8" x="101.1" y="809.2371">-Date bornDate</text><text fill="#000000" font-family="sans-serif" font-size="8.4" lengthAdjust="spacing" textLength="57.6" x="101.1" y="820.4098">-Date admDate</text><text fill="#000000" font-family="sans-serif" font-size="8.4" lengthAdjust="spacing" textLength="67.8" x="101.1" y="831.5824">-int phoneNumber</text><text fill="#000000" font-family="sans-serif" font-size="8.4" lengthAdjust="spacing" textLength="47.4" x="101.1" y="842.7551">-String email</text><text fill="#000000" font-family="sans-serif" font-size="8.4" lengthAdjust="spacing" textLength="39.6" x="101.1" y="853.9277">-int idCard</text><text fill="#000000" font-family="sans-serif" font-size="8.4" lengthAdjust="spacing" textLength="50.4" x="101.1" y="865.1004">-int idNumber</text><text fill="#000000" font-family="sans-serif" font-size="8.4" lengthAdjust="spacing" textLength="61.2" x="101.1" y="876.273">-List&lt;Skill&gt; skills</text><text fill="#000000" font-family="sans-serif" font-size="8.4" lengthAdjust="spacing" textLength="52.8" x="101.1" y="887.4457">+getIdNumber</text><line style="stroke:#181818;stroke-width:0.3;" x1="98.1" x2="438.3" y1="891.9539" y2="891.9539"/><text fill="#000000" font-family="sans-serif" font-size="8.4" lengthAdjust="spacing" textLength="311.4" x="101.1" y="903.4184">+Collaborator(name, bornDate, admDate, phoneNumber, email, idCard, idNumber)</text><text fill="#000000" font-family="sans-serif" font-size="8.4" lengthAdjust="spacing" textLength="334.2" x="101.1" y="914.591">+Collaborator(name, bornDate, admDate, phoneNumber, email, idCard, idNumber, skills)</text><text fill="#000000" font-family="sans-serif" font-size="8.4" lengthAdjust="spacing" textLength="77.4" x="101.1" y="925.7637">+Collaborator(email)</text><text fill="#000000" font-family="sans-serif" font-size="8.4" lengthAdjust="spacing" textLength="44.4" x="101.1" y="936.9363">+getName()</text><text fill="#000000" font-family="sans-serif" font-size="8.4" lengthAdjust="spacing" textLength="64.8" x="101.1" y="948.109">+setName(name)</text><text fill="#000000" font-family="sans-serif" font-size="8.4" lengthAdjust="spacing" textLength="58.8" x="101.1" y="959.2816">+getBornDate()</text><text fill="#000000" font-family="sans-serif" font-size="8.4" lengthAdjust="spacing" textLength="93.6" x="101.1" y="970.4543">+setBornDate(bornDate)</text><text fill="#000000" font-family="sans-serif" font-size="8.4" lengthAdjust="spacing" textLength="57.6" x="101.1" y="981.627">+getAdmDate()</text><text fill="#000000" font-family="sans-serif" font-size="8.4" lengthAdjust="spacing" textLength="91.2" x="101.1" y="992.7996">+setAdmDate(admDate)</text><text fill="#000000" font-family="sans-serif" font-size="8.4" lengthAdjust="spacing" textLength="54" x="101.1" y="1003.9723">+getAddress()</text><text fill="#000000" font-family="sans-serif" font-size="8.4" lengthAdjust="spacing" textLength="84" x="101.1" y="1015.1449">+setAddress(address)</text><text fill="#000000" font-family="sans-serif" font-size="8.4" lengthAdjust="spacing" textLength="76.8" x="101.1" y="1026.3176">+getPhoneNumber()</text><text fill="#000000" font-family="sans-serif" font-size="8.4" lengthAdjust="spacing" textLength="129.6" x="101.1" y="1037.4902">+setPhoneNumber(phoneNumber)</text><text fill="#000000" font-family="sans-serif" font-size="8.4" lengthAdjust="spacing" textLength="43.2" x="101.1" y="1048.6629">+getEmail()</text><text fill="#000000" font-family="sans-serif" font-size="8.4" lengthAdjust="spacing" textLength="62.4" x="101.1" y="1059.8355">+setEmail(email)</text><text fill="#000000" font-family="sans-serif" font-size="8.4" lengthAdjust="spacing" textLength="48" x="101.1" y="1071.0082">+getIdCard()</text><text fill="#000000" font-family="sans-serif" font-size="8.4" lengthAdjust="spacing" textLength="72.6" x="101.1" y="1082.1809">+setIdCard(idCard)</text><text fill="#000000" font-family="sans-serif" font-size="8.4" lengthAdjust="spacing" textLength="94.2" x="101.1" y="1093.3535">+setIdNumber(idNumber)</text><text fill="#000000" font-family="sans-serif" font-size="8.4" lengthAdjust="spacing" textLength="42" x="101.1" y="1104.5262">+getSkills()</text><text fill="#000000" font-family="sans-serif" font-size="8.4" lengthAdjust="spacing" textLength="59.4" x="101.1" y="1115.6988">+setSkills(skills)</text><text fill="#000000" font-family="sans-serif" font-size="8.4" lengthAdjust="spacing" textLength="36" x="101.1" y="1126.8715">+equals()</text><text fill="#000000" font-family="sans-serif" font-size="8.4" lengthAdjust="spacing" textLength="40.2" x="101.1" y="1138.0441">+toString()</text><text fill="#000000" font-family="sans-serif" font-size="8.4" lengthAdjust="spacing" textLength="49.8" x="101.1" y="1149.2168">+hashCode()</text><text fill="#000000" font-family="sans-serif" font-size="8.4" lengthAdjust="spacing" textLength="64.8" x="101.1" y="1160.3895">+hasEmail(email)</text><text fill="#000000" font-family="sans-serif" font-size="8.4" lengthAdjust="spacing" textLength="31.2" x="101.1" y="1171.5621">+clone()</text><text fill="#000000" font-family="sans-serif" font-size="8.4" lengthAdjust="spacing" textLength="54" x="101.1" y="1182.7348">+addSkill(skill)</text><text fill="#000000" font-family="sans-serif" font-size="8.4" lengthAdjust="spacing" textLength="67.8" x="101.1" y="1193.9074">+removeSkill(skill)</text></g><!--class Repositories--><g id="elem_Repositories"><rect codeLine="59" fill="#F1F1F1" height="84.6633" id="Repositories" rx="1.5" ry="1.5" style="stroke:#181818;stroke-width:0.3;" width="121.8" x="267.3" y="147.6"/><ellipse cx="301.95" cy="157.2" fill="#ADD1B2" rx="6.6" ry="6.6" style="stroke:#181818;stroke-width:0.6;"/><path d="M303.6094,154.725 Q303.7031,154.5938 303.8156,154.5281 Q303.9281,154.4625 304.0594,154.4625 Q304.2844,154.4625 304.425,154.6219 Q304.5656,154.7719 304.5656,155.1375 L304.5656,156.0094 Q304.5656,156.375 304.425,156.5344 Q304.2844,156.6938 304.0594,156.6938 Q303.8531,156.6938 303.7313,156.5719 Q303.6094,156.4594 303.5438,156.15 Q303.5156,155.9344 303.4031,155.8219 Q303.2063,155.5969 302.8406,155.4656 Q302.475,155.3344 302.1,155.3344 Q301.6406,155.3344 301.2562,155.5313 Q300.8812,155.7281 300.5813,156.1781 Q300.2906,156.6281 300.2906,157.2469 L300.2906,157.9031 Q300.2906,158.6437 300.825,159.1406 Q301.3594,159.6281 302.3156,159.6281 Q302.8781,159.6281 303.2719,159.4781 Q303.5062,159.3844 303.7594,159.1219 Q303.9188,158.9625 304.0031,158.9156 Q304.0969,158.8688 304.2188,158.8688 Q304.4156,158.8688 304.5656,159.0281 Q304.725,159.1781 304.725,159.3844 Q304.725,159.5906 304.5188,159.8344 Q304.2188,160.1813 303.7406,160.3781 Q303.0938,160.65 302.3156,160.65 Q301.4063,160.65 300.6844,160.275 Q300.0938,159.975 299.6813,159.3375 Q299.2688,158.6906 299.2688,157.9219 L299.2688,157.2281 Q299.2688,156.4313 299.6344,155.7469 Q300.0094,155.0531 300.6656,154.6875 Q301.3219,154.3125 302.0625,154.3125 Q302.5031,154.3125 302.8875,154.4156 Q303.2813,154.5094 303.6094,154.725 Z " fill="#000000"/><text fill="#000000" font-family="sans-serif" font-size="8.4" lengthAdjust="spacing" textLength="47.4" x="314.25" y="160.6781">Repositories</text><line style="stroke:#181818;stroke-width:0.3;" x1="267.9" x2="388.5" y1="166.8" y2="166.8"/><line style="stroke:#181818;stroke-width:0.3;" x1="267.9" x2="388.5" y1="171.6" y2="171.6"/><text fill="#000000" font-family="sans-serif" font-size="8.4" lengthAdjust="spacing" textLength="56.4" x="270.9" y="183.0645">-Repositories()</text><text fill="#000000" font-family="sans-serif" font-size="8.4" lengthAdjust="spacing" textLength="109.2" x="270.9" y="194.2371">+getInstance() : Repositories</text><text fill="#000000" font-family="sans-serif" font-size="8.4" lengthAdjust="spacing" textLength="82.8" x="270.9" y="205.4098">+getSkillsRepository()</text><text fill="#000000" font-family="sans-serif" font-size="8.4" lengthAdjust="spacing" textLength="114.6" x="270.9" y="216.5824">+getCollaboratorsRepository()</text><text fill="#000000" font-family="sans-serif" font-size="8.4" lengthAdjust="spacing" textLength="85.2" x="270.9" y="227.7551">+getTeamRepository()</text></g><!--class CollaboratorsRepository--><g id="elem_CollaboratorsRepository"><rect codeLine="67" fill="#F1F1F1" height="84.6633" id="CollaboratorsRepository" rx="1.5" ry="1.5" style="stroke:#181818;stroke-width:0.3;" width="172.2" x="389.7" y="529.2"/><ellipse cx="427.35" cy="538.8" fill="#ADD1B2" rx="6.6" ry="6.6" style="stroke:#181818;stroke-width:0.6;"/><path d="M429.0094,536.325 Q429.1031,536.1938 429.2156,536.1281 Q429.3281,536.0625 429.4594,536.0625 Q429.6844,536.0625 429.825,536.2219 Q429.9656,536.3719 429.9656,536.7375 L429.9656,537.6094 Q429.9656,537.975 429.825,538.1344 Q429.6844,538.2937 429.4594,538.2937 Q429.2531,538.2937 429.1312,538.1719 Q429.0094,538.0594 428.9437,537.75 Q428.9156,537.5344 428.8031,537.4219 Q428.6063,537.1969 428.2406,537.0656 Q427.875,536.9344 427.5,536.9344 Q427.0406,536.9344 426.6563,537.1313 Q426.2813,537.3281 425.9813,537.7781 Q425.6906,538.2281 425.6906,538.8469 L425.6906,539.5031 Q425.6906,540.2438 426.225,540.7406 Q426.7594,541.2281 427.7156,541.2281 Q428.2781,541.2281 428.6719,541.0781 Q428.9063,540.9844 429.1594,540.7219 Q429.3187,540.5625 429.4031,540.5156 Q429.4969,540.4688 429.6188,540.4688 Q429.8156,540.4688 429.9656,540.6281 Q430.125,540.7781 430.125,540.9844 Q430.125,541.1906 429.9188,541.4344 Q429.6188,541.7813 429.1406,541.9781 Q428.4938,542.25 427.7156,542.25 Q426.8063,542.25 426.0844,541.875 Q425.4938,541.575 425.0813,540.9375 Q424.6688,540.2906 424.6688,539.5219 L424.6688,538.8281 Q424.6688,538.0313 425.0344,537.3469 Q425.4094,536.6531 426.0656,536.2875 Q426.7219,535.9125 427.4625,535.9125 Q427.9031,535.9125 428.2875,536.0156 Q428.6813,536.1094 429.0094,536.325 Z " fill="#000000"/><text fill="#000000" font-family="sans-serif" font-size="8.4" lengthAdjust="spacing" textLength="91.8" x="439.65" y="542.2781">CollaboratorsRepository</text><line style="stroke:#181818;stroke-width:0.3;" x1="390.3" x2="561.3" y1="548.4" y2="548.4"/><text fill="#000000" font-family="sans-serif" font-size="8.4" lengthAdjust="spacing" textLength="137.4" x="393.3" y="559.8645">-List&lt;Collaborator&gt; collaboratorsList</text><line style="stroke:#181818;stroke-width:0.3;" x1="390.3" x2="561.3" y1="564.3727" y2="564.3727"/><text fill="#000000" font-family="sans-serif" font-size="8.4" lengthAdjust="spacing" textLength="165" x="393.3" y="575.8371">+CollaboratorsRepository(collaboratorsList)</text><text fill="#000000" font-family="sans-serif" font-size="8.4" lengthAdjust="spacing" textLength="160.8" x="393.3" y="587.0098">+Optional&lt;Collaborator&gt; add(collaborator)</text><text fill="#000000" font-family="sans-serif" font-size="8.4" lengthAdjust="spacing" textLength="130.2" x="393.3" y="598.1824">-validateCollaborator(collaborator)</text><text fill="#000000" font-family="sans-serif" font-size="8.4" lengthAdjust="spacing" textLength="87" x="393.3" y="609.3551">+getCollaboratorsList()</text></g><!--class SkillsRepository--><g id="elem_SkillsRepository"><rect codeLine="75" fill="#F1F1F1" height="95.8359" id="SkillsRepository" rx="1.5" ry="1.5" style="stroke:#181818;stroke-width:0.3;" width="105" x="411.3" y="279.6"/><ellipse cx="431.91" cy="289.2" fill="#ADD1B2" rx="6.6" ry="6.6" style="stroke:#181818;stroke-width:0.6;"/><path d="M433.5694,286.725 Q433.6631,286.5938 433.7756,286.5281 Q433.8881,286.4625 434.0194,286.4625 Q434.2444,286.4625 434.385,286.6219 Q434.5256,286.7719 434.5256,287.1375 L434.5256,288.0094 Q434.5256,288.375 434.385,288.5344 Q434.2444,288.6937 434.0194,288.6937 Q433.8131,288.6937 433.6913,288.5719 Q433.5694,288.4594 433.5038,288.15 Q433.4756,287.9344 433.3631,287.8219 Q433.1663,287.5969 432.8006,287.4656 Q432.435,287.3344 432.06,287.3344 Q431.6006,287.3344 431.2163,287.5313 Q430.8413,287.7281 430.5413,288.1781 Q430.2506,288.6281 430.2506,289.2469 L430.2506,289.9031 Q430.2506,290.6438 430.785,291.1406 Q431.3194,291.6281 432.2756,291.6281 Q432.8381,291.6281 433.2319,291.4781 Q433.4663,291.3844 433.7194,291.1219 Q433.8788,290.9625 433.9631,290.9156 Q434.0569,290.8688 434.1788,290.8688 Q434.3756,290.8688 434.5256,291.0281 Q434.685,291.1781 434.685,291.3844 Q434.685,291.5906 434.4788,291.8344 Q434.1788,292.1813 433.7006,292.3781 Q433.0538,292.65 432.2756,292.65 Q431.3663,292.65 430.6444,292.275 Q430.0538,291.975 429.6413,291.3375 Q429.2288,290.6906 429.2288,289.9219 L429.2288,289.2281 Q429.2288,288.4313 429.5944,287.7469 Q429.9694,287.0531 430.6256,286.6875 Q431.2819,286.3125 432.0225,286.3125 Q432.4631,286.3125 432.8475,286.4156 Q433.2413,286.5094 433.5694,286.725 Z " fill="#000000"/><text fill="#000000" font-family="sans-serif" font-size="8.4" lengthAdjust="spacing" textLength="60" x="442.89" y="292.6781">SkillsRepository</text><line style="stroke:#181818;stroke-width:0.3;" x1="411.9" x2="515.7" y1="298.8" y2="298.8"/><text fill="#000000" font-family="sans-serif" font-size="8.4" lengthAdjust="spacing" textLength="74.4" x="414.9" y="310.2645">-List&lt;Skill&gt; skillsList</text><line style="stroke:#181818;stroke-width:0.3;" x1="411.9" x2="515.7" y1="314.7727" y2="314.7727"/><text fill="#000000" font-family="sans-serif" font-size="8.4" lengthAdjust="spacing" textLength="70.8" x="414.9" y="326.2371">+SkillsRepository()</text><text fill="#000000" font-family="sans-serif" font-size="8.4" lengthAdjust="spacing" textLength="97.8" x="414.9" y="337.4098">+Optional&lt;Skill&gt; add(skill)</text><text fill="#000000" font-family="sans-serif" font-size="8.4" lengthAdjust="spacing" textLength="67.2" x="414.9" y="348.5824">-validateSkill(skill)</text><text fill="#000000" font-family="sans-serif" font-size="8.4" lengthAdjust="spacing" textLength="55.2" x="414.9" y="359.7551">+getSkillsList()</text><text fill="#000000" font-family="sans-serif" font-size="8.4" lengthAdjust="spacing" textLength="52.8" x="414.9" y="370.9277">+remove(skill)</text></g><!--class Address--><g id="elem_Address"><rect codeLine="84" fill="#F1F1F1" height="118.1812" id="Address" rx="1.5" ry="1.5" style="stroke:#181818;stroke-width:0.3;" width="131.4" x="202.5" y="1245.6"/><ellipse cx="250.05" cy="1255.2" fill="#ADD1B2" rx="6.6" ry="6.6" style="stroke:#181818;stroke-width:0.6;"/><path d="M251.7094,1252.725 Q251.8031,1252.5938 251.9156,1252.5281 Q252.0281,1252.4625 252.1594,1252.4625 Q252.3844,1252.4625 252.525,1252.6219 Q252.6656,1252.7719 252.6656,1253.1375 L252.6656,1254.0094 Q252.6656,1254.375 252.525,1254.5344 Q252.3844,1254.6938 252.1594,1254.6938 Q251.9531,1254.6938 251.8312,1254.5719 Q251.7094,1254.4594 251.6437,1254.15 Q251.6156,1253.9344 251.5031,1253.8219 Q251.3062,1253.5969 250.9406,1253.4656 Q250.575,1253.3344 250.2,1253.3344 Q249.7406,1253.3344 249.3563,1253.5313 Q248.9813,1253.7281 248.6812,1254.1781 Q248.3906,1254.6281 248.3906,1255.2469 L248.3906,1255.9031 Q248.3906,1256.6438 248.925,1257.1406 Q249.4594,1257.6281 250.4156,1257.6281 Q250.9781,1257.6281 251.3719,1257.4781 Q251.6063,1257.3844 251.8594,1257.1219 Q252.0187,1256.9625 252.1031,1256.9156 Q252.1969,1256.8687 252.3188,1256.8687 Q252.5156,1256.8687 252.6656,1257.0281 Q252.825,1257.1781 252.825,1257.3844 Q252.825,1257.5906 252.6187,1257.8344 Q252.3188,1258.1812 251.8406,1258.3781 Q251.1938,1258.65 250.4156,1258.65 Q249.5063,1258.65 248.7844,1258.275 Q248.1938,1257.975 247.7813,1257.3375 Q247.3687,1256.6906 247.3687,1255.9219 L247.3687,1255.2281 Q247.3687,1254.4312 247.7344,1253.7469 Q248.1094,1253.0531 248.7656,1252.6875 Q249.4219,1252.3125 250.1625,1252.3125 Q250.6031,1252.3125 250.9875,1252.4156 Q251.3813,1252.5094 251.7094,1252.725 Z " fill="#000000"/><text fill="#000000" font-family="sans-serif" font-size="8.4" lengthAdjust="spacing" textLength="31.2" x="262.35" y="1258.6781">Address</text><line style="stroke:#181818;stroke-width:0.3;" x1="203.1" x2="333.3" y1="1264.8" y2="1264.8"/><text fill="#000000" font-family="sans-serif" font-size="8.4" lengthAdjust="spacing" textLength="61.2" x="206.1" y="1276.2645">-int doorNumber</text><text fill="#000000" font-family="sans-serif" font-size="8.4" lengthAdjust="spacing" textLength="67.8" x="206.1" y="1287.4371">-ZipCode zipCode</text><line style="stroke:#181818;stroke-width:0.3;" x1="203.1" x2="333.3" y1="1291.9453" y2="1291.9453"/><text fill="#000000" font-family="sans-serif" font-size="8.4" lengthAdjust="spacing" textLength="124.2" x="206.1" y="1303.4098">+Address(doorNumber, zipCode)</text><text fill="#000000" font-family="sans-serif" font-size="8.4" lengthAdjust="spacing" textLength="72.6" x="206.1" y="1314.5824">+Address(address)</text><text fill="#000000" font-family="sans-serif" font-size="8.4" lengthAdjust="spacing" textLength="70.8" x="206.1" y="1325.7551">+getDoorNumber()</text><text fill="#000000" font-family="sans-serif" font-size="8.4" lengthAdjust="spacing" textLength="70.2" x="206.1" y="1336.9277">+setDoorNumber()</text><text fill="#000000" font-family="sans-serif" font-size="8.4" lengthAdjust="spacing" textLength="54.6" x="206.1" y="1348.1004">+getZipCode()</text><text fill="#000000" font-family="sans-serif" font-size="8.4" lengthAdjust="spacing" textLength="54" x="206.1" y="1359.273">+setZipCode()</text></g><!--class ZipCode--><g id="elem_ZipCode"><rect codeLine="95" fill="#F1F1F1" height="118.1812" id="ZipCode" rx="1.5" ry="1.5" style="stroke:#181818;stroke-width:0.3;" width="93.6" x="221.4" y="1411.2"/><ellipse cx="249.75" cy="1420.8" fill="#ADD1B2" rx="6.6" ry="6.6" style="stroke:#181818;stroke-width:0.6;"/><path d="M251.4094,1418.325 Q251.5031,1418.1938 251.6156,1418.1281 Q251.7281,1418.0625 251.8594,1418.0625 Q252.0844,1418.0625 252.225,1418.2219 Q252.3656,1418.3719 252.3656,1418.7375 L252.3656,1419.6094 Q252.3656,1419.975 252.225,1420.1344 Q252.0844,1420.2938 251.8594,1420.2938 Q251.6531,1420.2938 251.5313,1420.1719 Q251.4094,1420.0594 251.3438,1419.75 Q251.3156,1419.5344 251.2031,1419.4219 Q251.0063,1419.1969 250.6406,1419.0656 Q250.275,1418.9344 249.9,1418.9344 Q249.4406,1418.9344 249.0562,1419.1313 Q248.6812,1419.3281 248.3813,1419.7781 Q248.0906,1420.2281 248.0906,1420.8469 L248.0906,1421.5031 Q248.0906,1422.2437 248.625,1422.7406 Q249.1594,1423.2281 250.1156,1423.2281 Q250.6781,1423.2281 251.0719,1423.0781 Q251.3062,1422.9844 251.5594,1422.7219 Q251.7188,1422.5625 251.8031,1422.5156 Q251.8969,1422.4688 252.0187,1422.4688 Q252.2156,1422.4688 252.3656,1422.6281 Q252.525,1422.7781 252.525,1422.9844 Q252.525,1423.1906 252.3188,1423.4344 Q252.0187,1423.7813 251.5406,1423.9781 Q250.8937,1424.25 250.1156,1424.25 Q249.2062,1424.25 248.4844,1423.875 Q247.8937,1423.575 247.4813,1422.9375 Q247.0688,1422.2906 247.0688,1421.5219 L247.0688,1420.8281 Q247.0688,1420.0313 247.4344,1419.3469 Q247.8094,1418.6531 248.4656,1418.2875 Q249.1219,1417.9125 249.8625,1417.9125 Q250.3031,1417.9125 250.6875,1418.0156 Q251.0812,1418.1094 251.4094,1418.325 Z " fill="#000000"/><text fill="#000000" font-family="sans-serif" font-size="8.4" lengthAdjust="spacing" textLength="31.8" x="262.05" y="1424.2781">ZipCode</text><line style="stroke:#181818;stroke-width:0.3;" x1="222" x2="314.4" y1="1430.4" y2="1430.4"/><text fill="#000000" font-family="sans-serif" font-size="8.4" lengthAdjust="spacing" textLength="31.8" x="225" y="1441.8645">-int local</text><text fill="#000000" font-family="sans-serif" font-size="8.4" lengthAdjust="spacing" textLength="36" x="225" y="1453.0371">-int street</text><line style="stroke:#181818;stroke-width:0.3;" x1="222" x2="314.4" y1="1457.5453" y2="1457.5453"/><text fill="#000000" font-family="sans-serif" font-size="8.4" lengthAdjust="spacing" textLength="86.4" x="225" y="1469.0098">+ZipCode(local, street)</text><text fill="#000000" font-family="sans-serif" font-size="8.4" lengthAdjust="spacing" textLength="73.2" x="225" y="1480.1824">+ZipCode(zipCode)</text><text fill="#000000" font-family="sans-serif" font-size="8.4" lengthAdjust="spacing" textLength="43.2" x="225" y="1491.3551">+getLocal()</text><text fill="#000000" font-family="sans-serif" font-size="8.4" lengthAdjust="spacing" textLength="42.6" x="225" y="1502.5277">+setLocal()</text><text fill="#000000" font-family="sans-serif" font-size="8.4" lengthAdjust="spacing" textLength="45.6" x="225" y="1513.7004">+getStreet()</text><text fill="#000000" font-family="sans-serif" font-size="8.4" lengthAdjust="spacing" textLength="45" x="225" y="1524.873">+setStreet()</text></g><!--class TeamRepository--><g id="elem_TeamRepository"><rect codeLine="106" fill="#F1F1F1" height="84.6633" id="TeamRepository" rx="1.5" ry="1.5" style="stroke:#181818;stroke-width:0.3;" width="116.4" x="210" y="285.3"/><ellipse cx="234.66" cy="294.9" fill="#ADD1B2" rx="6.6" ry="6.6" style="stroke:#181818;stroke-width:0.6;"/><path d="M236.3194,292.425 Q236.4131,292.2938 236.5256,292.2281 Q236.6381,292.1625 236.7694,292.1625 Q236.9944,292.1625 237.135,292.3219 Q237.2756,292.4719 237.2756,292.8375 L237.2756,293.7094 Q237.2756,294.075 237.135,294.2344 Q236.9944,294.3938 236.7694,294.3938 Q236.5631,294.3938 236.4413,294.2719 Q236.3194,294.1594 236.2538,293.85 Q236.2256,293.6344 236.1131,293.5219 Q235.9163,293.2969 235.5506,293.1656 Q235.185,293.0344 234.81,293.0344 Q234.3506,293.0344 233.9663,293.2313 Q233.5913,293.4281 233.2913,293.8781 Q233.0006,294.3281 233.0006,294.9469 L233.0006,295.6031 Q233.0006,296.3438 233.535,296.8406 Q234.0694,297.3281 235.0256,297.3281 Q235.5881,297.3281 235.9819,297.1781 Q236.2163,297.0844 236.4694,296.8219 Q236.6288,296.6625 236.7131,296.6156 Q236.8069,296.5687 236.9288,296.5687 Q237.1256,296.5687 237.2756,296.7281 Q237.435,296.8781 237.435,297.0844 Q237.435,297.2906 237.2288,297.5344 Q236.9288,297.8812 236.4506,298.0781 Q235.8038,298.35 235.0256,298.35 Q234.1163,298.35 233.3944,297.975 Q232.8038,297.675 232.3913,297.0375 Q231.9788,296.3906 231.9788,295.6219 L231.9788,294.9281 Q231.9788,294.1312 232.3444,293.4469 Q232.7194,292.7531 233.3756,292.3875 Q234.0319,292.0125 234.7725,292.0125 Q235.2131,292.0125 235.5975,292.1156 Q235.9913,292.2094 236.3194,292.425 Z " fill="#000000"/><text fill="#000000" font-family="sans-serif" font-size="8.4" lengthAdjust="spacing" textLength="62.4" x="246.54" y="298.3781">TeamRepository</text><line style="stroke:#181818;stroke-width:0.3;" x1="210.6" x2="325.8" y1="304.5" y2="304.5"/><text fill="#000000" font-family="sans-serif" font-size="8.4" lengthAdjust="spacing" textLength="85.8" x="213.6" y="315.9645">-List&lt;Team&gt; teamsList</text><line style="stroke:#181818;stroke-width:0.3;" x1="210.6" x2="325.8" y1="320.4727" y2="320.4727"/><text fill="#000000" font-family="sans-serif" font-size="8.4" lengthAdjust="spacing" textLength="73.2" x="213.6" y="331.9371">+TeamRepository()</text><text fill="#000000" font-family="sans-serif" font-size="8.4" lengthAdjust="spacing" textLength="109.2" x="213.6" y="343.1098">+Optional&lt;Team&gt; add(team)</text><text fill="#000000" font-family="sans-serif" font-size="8.4" lengthAdjust="spacing" textLength="80.4" x="213.6" y="354.2824">+validateTeam(team)</text><text fill="#000000" font-family="sans-serif" font-size="8.4" lengthAdjust="spacing" textLength="44.4" x="213.6" y="365.4551">+getTeam()</text></g><!--class Team--><g id="elem_Team"><rect codeLine="114" fill="#F1F1F1" height="296.9437" id="Team" rx="1.5" ry="1.5" style="stroke:#181818;stroke-width:0.3;" width="201" x="167.7" y="423"/><ellipse cx="254.85" cy="432.6" fill="#ADD1B2" rx="6.6" ry="6.6" style="stroke:#181818;stroke-width:0.6;"/><path d="M256.5094,430.125 Q256.6031,429.9938 256.7156,429.9281 Q256.8281,429.8625 256.9594,429.8625 Q257.1844,429.8625 257.325,430.0219 Q257.4656,430.1719 257.4656,430.5375 L257.4656,431.4094 Q257.4656,431.775 257.325,431.9344 Q257.1844,432.0938 256.9594,432.0938 Q256.7531,432.0938 256.6312,431.9719 Q256.5094,431.8594 256.4437,431.55 Q256.4156,431.3344 256.3031,431.2219 Q256.1063,430.9969 255.7406,430.8656 Q255.375,430.7344 255,430.7344 Q254.5406,430.7344 254.1563,430.9313 Q253.7813,431.1281 253.4813,431.5781 Q253.1906,432.0281 253.1906,432.6469 L253.1906,433.3031 Q253.1906,434.0438 253.725,434.5406 Q254.2594,435.0281 255.2156,435.0281 Q255.7781,435.0281 256.1719,434.8781 Q256.4063,434.7844 256.6594,434.5219 Q256.8187,434.3625 256.9031,434.3156 Q256.9969,434.2688 257.1188,434.2688 Q257.3156,434.2688 257.4656,434.4281 Q257.625,434.5781 257.625,434.7844 Q257.625,434.9906 257.4188,435.2344 Q257.1188,435.5813 256.6406,435.7781 Q255.9937,436.05 255.2156,436.05 Q254.3062,436.05 253.5844,435.675 Q252.9937,435.375 252.5812,434.7375 Q252.1688,434.0906 252.1688,433.3219 L252.1688,432.6281 Q252.1688,431.8313 252.5344,431.1469 Q252.9094,430.4531 253.5656,430.0875 Q254.2219,429.7125 254.9625,429.7125 Q255.4031,429.7125 255.7875,429.8156 Q256.1813,429.9094 256.5094,430.125 Z " fill="#000000"/><text fill="#000000" font-family="sans-serif" font-size="8.4" lengthAdjust="spacing" textLength="21.6" x="267.15" y="436.0781">Team</text><line style="stroke:#181818;stroke-width:0.3;" x1="168.3" x2="368.1" y1="442.2" y2="442.2"/><text fill="#000000" font-family="sans-serif" font-size="8.4" lengthAdjust="spacing" textLength="48.6" x="171.3" y="453.6645">-String name</text><text fill="#000000" font-family="sans-serif" font-size="8.4" lengthAdjust="spacing" textLength="137.4" x="171.3" y="464.8371">-List&lt;Collaborator&gt; collaboratorsList</text><text fill="#000000" font-family="sans-serif" font-size="8.4" lengthAdjust="spacing" textLength="96.6" x="171.3" y="476.0098">-List&lt;Skill&gt; skillsSelected;</text><line style="stroke:#181818;stroke-width:0.3;" x1="168.3" x2="368.1" y1="480.518" y2="480.518"/><text fill="#000000" font-family="sans-serif" font-size="8.4" lengthAdjust="spacing" textLength="176.4" x="171.3" y="491.9824">+Team(name, collaboratorsList, skillsSelected)</text><text fill="#000000" font-family="sans-serif" font-size="8.4" lengthAdjust="spacing" textLength="44.4" x="171.3" y="503.1551">+getName()</text><text fill="#000000" font-family="sans-serif" font-size="8.4" lengthAdjust="spacing" textLength="64.8" x="171.3" y="514.3277">+setName(name)</text><text fill="#000000" font-family="sans-serif" font-size="8.4" lengthAdjust="spacing" textLength="87" x="171.3" y="525.5004">+getCollaboratorsList()</text><text fill="#000000" font-family="sans-serif" font-size="8.4" lengthAdjust="spacing" textLength="148.8" x="171.3" y="536.673">+setCollaboratorsList(collaboratorsList)</text><text fill="#000000" font-family="sans-serif" font-size="8.4" lengthAdjust="spacing" textLength="75" x="171.3" y="547.8457">+getSkillsSelected()</text><text fill="#000000" font-family="sans-serif" font-size="8.4" lengthAdjust="spacing" textLength="125.4" x="171.3" y="559.0184">+setSkillsSelected(skillsSelected)</text><text fill="#000000" font-family="sans-serif" font-size="8.4" lengthAdjust="spacing" textLength="73.2" x="171.3" y="570.191">+getMinSizeTeam()</text><text fill="#000000" font-family="sans-serif" font-size="8.4" lengthAdjust="spacing" textLength="123" x="171.3" y="581.3637">+setMinSizeTeam(minSizeTeam)</text><text fill="#000000" font-family="sans-serif" font-size="8.4" lengthAdjust="spacing" textLength="75" x="171.3" y="592.5363">+getMaxSizeTeam()</text><text fill="#000000" font-family="sans-serif" font-size="8.4" lengthAdjust="spacing" textLength="126.6" x="171.3" y="603.709">+setMaxSizeTeam(maxSizeTeam)</text><text fill="#000000" font-family="sans-serif" font-size="8.4" lengthAdjust="spacing" textLength="117" x="171.3" y="614.8816">+addCollaborator(collaborator)</text><text fill="#000000" font-family="sans-serif" font-size="8.4" lengthAdjust="spacing" textLength="40.8" x="171.3" y="626.0543">+equals(o)</text><text fill="#000000" font-family="sans-serif" font-size="8.4" lengthAdjust="spacing" textLength="193.8" x="171.3" y="637.227">+hashCode(name, collaboratorsList, skillsSelected)</text><text fill="#000000" font-family="sans-serif" font-size="8.4" lengthAdjust="spacing" textLength="40.2" x="171.3" y="648.3996">+toString()</text><text fill="#000000" font-family="sans-serif" font-size="8.4" lengthAdjust="spacing" textLength="31.2" x="171.3" y="659.5723">+clone()</text><text fill="#000000" font-family="sans-serif" font-size="8.4" lengthAdjust="spacing" textLength="108.6" x="171.3" y="670.7449">+getTeamCollaboratorsList()</text><text fill="#000000" font-family="sans-serif" font-size="8.4" lengthAdjust="spacing" textLength="120.6" x="171.3" y="681.9176">-selectedCollaboratorsBySkills()</text><text fill="#000000" font-family="sans-serif" font-size="8.4" lengthAdjust="spacing" textLength="154.2" x="171.3" y="693.0902">-teamCollaboratorsList(collaboratorsList)</text><text fill="#000000" font-family="sans-serif" font-size="8.4" lengthAdjust="spacing" textLength="120" x="171.3" y="704.2629">-hasSelectedSkills(collaborator)</text><text fill="#000000" font-family="sans-serif" font-size="8.4" lengthAdjust="spacing" textLength="106.2" x="171.3" y="715.4355">+isTeamSizeWithinBounds()</text></g><!--link Repositories to Repositories--><g id="link_Repositories_Repositories"><path codeLine="142" d="M389.274,178.038 C401.43,179.37 410.1,183.324 410.1,189.9 C410.1,196.476 405.0086,200.0379 392.8526,201.3699 " fill="none" id="Repositories-to-Repositories" style="stroke:#181818;stroke-width:0.6;"/><polygon fill="#181818" points="389.274,201.762,394.9033,203.5595,392.2562,201.4352,394.3805,198.7881,389.274,201.762" style="stroke:#181818;stroke-width:0.6;"/><text fill="#000000" font-family="sans-serif" font-size="7.8" lengthAdjust="spacing" textLength="29.4" x="413.7" y="193.217">instance</text></g><!--link GenerateTeamProposalUI to GenerateTeamProposalController--><g id="link_GenerateTeamProposalUI_GenerateTeamProposalController"><path codeLine="144" d="M121.962,52.2 C130.2,52.2 134.058,52.2 139.41,52.2 " fill="none" id="GenerateTeamProposalUI-to-GenerateTeamProposalController" style="stroke:#181818;stroke-width:0.6;stroke-dasharray:7.0,7.0;"/><polygon fill="#181818" points="143.01,52.2,137.61,49.8,140.01,52.2,137.61,54.6,143.01,52.2" style="stroke:#181818;stroke-width:0.6;"/></g><!--link Repositories to TeamRepository--><g id="link_Repositories_TeamRepository"><path codeLine="146" d="M309.792,232.38 C302.418,249.156 295.3955,265.1387 288.0215,281.9027 " fill="none" id="Repositories-to-TeamRepository" style="stroke:#181818;stroke-width:0.6;"/><polygon fill="#181818" points="286.572,285.198,290.9431,281.2214,287.7799,282.4519,286.5494,279.2887,286.572,285.198" style="stroke:#181818;stroke-width:0.6;"/><text fill="#000000" font-family="sans-serif" font-size="7.8" lengthAdjust="spacing" textLength="4.2" x="284.0501" y="278.5221">1</text></g><!--link Repositories to CollaboratorsRepository--><g id="link_Repositories_CollaboratorsRepository"><path codeLine="147" d="M344.418,232.296 C372.798,305.448 429.8516,452.4818 458.2556,525.6758 " fill="none" id="Repositories-to-CollaboratorsRepository" style="stroke:#181818;stroke-width:0.6;"/><polygon fill="#181818" points="459.558,529.032,459.8418,523.1295,458.4727,526.2352,455.367,524.866,459.558,529.032" style="stroke:#181818;stroke-width:0.6;"/><text fill="#000000" font-family="sans-serif" font-size="7.8" lengthAdjust="spacing" textLength="4.2" x="453.4665" y="522.3493">1</text></g><!--link Repositories to SkillsRepository--><g id="link_Repositories_SkillsRepository"><path codeLine="148" d="M372.72,232.29 C383.406,242.322 391.8,250.2 391.8,250.2 C391.8,250.2 402.034,261.1155 416.764,276.8295 " fill="none" id="Repositories-to-SkillsRepository" style="stroke:#181818;stroke-width:0.6;"/><polygon fill="#181818" points="419.226,279.456,417.284,273.8749,417.1743,277.2673,413.782,277.1576,419.226,279.456" style="stroke:#181818;stroke-width:0.6;"/><text fill="#000000" font-family="sans-serif" font-size="7.8" lengthAdjust="spacing" textLength="4.2" x="410.7232" y="272.7802">1</text></g><!--link GenerateTeamProposalController to CollaboratorsRepository--><g id="link_GenerateTeamProposalController_CollaboratorsRepository"><path codeLine="150" d="M422.976,100.338 C470.136,123.99 517.2,147.6 517.2,147.6 C517.2,147.6 526.8,279.6 526.8,279.6 C526.8,279.6 526.8,375.6 526.8,375.6 C526.8,375.6 502.6358,468.1348 487.6478,525.5188 " fill="none" id="GenerateTeamProposalController-to-CollaboratorsRepository" style="stroke:#181818;stroke-width:0.6;stroke-dasharray:7.0,7.0;"/><polygon fill="#181818" points="486.738,529.002,490.4247,524.3838,487.4961,526.0994,485.7805,523.1708,486.738,529.002" style="stroke:#181818;stroke-width:0.6;"/><text fill="#000000" font-family="sans-serif" font-size="7.8" lengthAdjust="spacing" textLength="82.8" x="525.6" y="259.217">CollaboratorsRepository</text></g><!--link GenerateTeamProposalController to SkillsRepository--><g id="link_GenerateTeamProposalController_SkillsRepository"><path codeLine="151" d="M387.774,100.338 C417.414,123.99 447,147.6 447,147.6 C447,147.6 454.0261,222.6637 459.0061,275.8117 " fill="none" id="GenerateTeamProposalController-to-SkillsRepository" style="stroke:#181818;stroke-width:0.6;stroke-dasharray:7.0,7.0;"/><polygon fill="#181818" points="459.342,279.396,461.2278,273.7956,459.0621,276.4091,456.4487,274.2435,459.342,279.396" style="stroke:#181818;stroke-width:0.6;"/><text fill="#000000" font-family="sans-serif" font-size="7.8" lengthAdjust="spacing" textLength="56.4" x="455.4" y="193.217">SkillsRepository</text></g><!--link GenerateTeamProposalController to TeamRepository--><g id="link_GenerateTeamProposalController_TeamRepository"><path codeLine="152" d="M263.514,100.338 C231.324,123.99 199.2,147.6 199.2,147.6 C199.2,147.6 199.2,232.2 199.2,232.2 C199.2,232.2 217.1339,256.835 235.6139,282.233 " fill="none" id="GenerateTeamProposalController-to-TeamRepository" style="stroke:#181818;stroke-width:0.6;stroke-dasharray:7.0,7.0;"/><polygon fill="#181818" points="237.732,285.144,236.4955,279.3655,235.9669,282.7182,232.6142,282.1896,237.732,285.144" style="stroke:#181818;stroke-width:0.6;"/><text fill="#000000" font-family="sans-serif" font-size="7.8" lengthAdjust="spacing" textLength="56.4" x="199.8" y="193.217">TeamRepository</text></g><!--link GenerateTeamProposalController to Repositories--><g id="link_GenerateTeamProposalController_Repositories"><path codeLine="153" d="M328.2,100.35 C328.2,115.662 328.2,128.91 328.2,143.784 " fill="none" id="GenerateTeamProposalController-to-Repositories" style="stroke:#181818;stroke-width:0.6;stroke-dasharray:7.0,7.0;"/><polygon fill="#181818" points="328.2,147.384,330.6,141.984,328.2,144.384,325.8,141.984,328.2,147.384" style="stroke:#181818;stroke-width:0.6;"/><text fill="#000000" font-family="sans-serif" font-size="7.8" lengthAdjust="spacing" textLength="40.2" x="328.8" y="127.217">repositories</text></g><!--link GenerateTeamProposalController to Collaborator--><g id="link_GenerateTeamProposalController_Collaborator"><path codeLine="154" d="M249.714,100.332 C232.962,110.472 220.2,118.2 220.2,118.2 C220.2,118.2 135.6,189.3 135.6,189.3 C135.6,189.3 135.6,189.3 135.6,572.1 C135.6,572.1 157.2,720 157.2,720 C157.2,720 163.951,735.9386 175.831,764.0126 " fill="none" id="GenerateTeamProposalController-to-Collaborator" style="stroke:#181818;stroke-width:0.6;stroke-dasharray:7.0,7.0;"/><polygon fill="#181818" points="177.234,767.328,177.3398,761.4196,176.0649,764.5652,172.9193,763.2902,177.234,767.328" style="stroke:#181818;stroke-width:0.6;"/><text fill="#000000" font-family="sans-serif" font-size="7.8" lengthAdjust="spacing" textLength="41.4" x="136.2" y="330.917">Collaborator</text><text fill="#000000" font-family="sans-serif" font-size="7.8" lengthAdjust="spacing" textLength="4.2" x="170.8528" y="760.3749">1</text></g><!--link TeamRepository to Team--><g id="link_TeamRepository_Team"><path codeLine="156" d="M268.2,369.924 C268.2,385.236 268.2,399.978 268.2,419.274 " fill="none" id="TeamRepository-to-Team" style="stroke:#181818;stroke-width:0.6;"/><polygon fill="#181818" points="268.2,422.874,270.6,417.474,268.2,419.874,265.8,417.474,268.2,422.874" style="stroke:#181818;stroke-width:0.6;"/><text fill="#000000" font-family="sans-serif" font-size="7.8" lengthAdjust="spacing" textLength="21.6" x="268.8" y="402.617">teams</text><text fill="#000000" font-family="sans-serif" font-size="7.8" lengthAdjust="spacing" textLength="3" x="265.1508" y="416.0506">*</text></g><!--reverse link Team to Collaborator--><g id="link_Team_Collaborator"><path codeLine="157" d="M268.2,727.356 C268.2,742.728 268.2,751.362 268.2,767.28 " fill="none" id="Team-backto-Collaborator" style="stroke:#181818;stroke-width:0.6;"/><polygon fill="none" points="268.2,720.156,265.8,723.756,268.2,727.356,270.6,723.756,268.2,720.156" style="stroke:#181818;stroke-width:0.6;"/><text fill="#000000" font-family="sans-serif" font-size="7.8" lengthAdjust="spacing" textLength="12.6" x="268.8" y="747.017">has</text><text fill="#000000" font-family="sans-serif" font-size="7.8" lengthAdjust="spacing" textLength="3" x="265.1648" y="760.3257">*</text></g><!--link CollaboratorsRepository to Collaborator--><g id="link_CollaboratorsRepository_Collaborator"><path codeLine="159" d="M454.656,613.872 C435.792,651.132 408.27,705.5081 378.576,764.1641 " fill="none" id="CollaboratorsRepository-to-Collaborator" style="stroke:#181818;stroke-width:0.6;"/><polygon fill="#181818" points="376.95,767.376,381.5302,763.6422,378.305,764.6994,377.2477,761.4742,376.95,767.376" style="stroke:#181818;stroke-width:0.6;"/><text fill="#000000" font-family="sans-serif" font-size="7.8" lengthAdjust="spacing" textLength="3" x="376.4637" y="760.424">*</text></g><!--reverse link Collaborator to Address--><g id="link_Collaborator_Address"><path codeLine="161" d="M268.2,1205.4 C268.2,1222.404 268.2,1231.278 268.2,1245.522 " fill="none" id="Collaborator-backto-Address" style="stroke:#181818;stroke-width:0.6;"/><polygon fill="#181818" points="268.2,1198.2,265.8,1201.8,268.2,1205.4,270.6,1201.8,268.2,1198.2" style="stroke:#181818;stroke-width:0.6;"/><text fill="#000000" font-family="sans-serif" font-size="7.8" lengthAdjust="spacing" textLength="18" x="268.8" y="1225.217">owns</text><text fill="#000000" font-family="sans-serif" font-size="7.8" lengthAdjust="spacing" textLength="4.2" x="263.8392" y="1238.8251">1</text></g><!--reverse link Address to ZipCode--><g id="link_Address_ZipCode"><path codeLine="162" d="M268.2,1371.156 C268.2,1386.462 268.2,1395.762 268.2,1411.068 " fill="none" id="Address-backto-ZipCode" style="stroke:#181818;stroke-width:0.6;"/><polygon fill="#181818" points="268.2,1363.956,265.8,1367.556,268.2,1371.156,270.6,1367.556,268.2,1363.956" style="stroke:#181818;stroke-width:0.6;"/><text fill="#000000" font-family="sans-serif" font-size="7.8" lengthAdjust="spacing" textLength="18" x="268.8" y="1390.817">owns</text><text fill="#000000" font-family="sans-serif" font-size="7.8" lengthAdjust="spacing" textLength="4.2" x="263.8392" y="1404.367">1</text></g><!--SRC=[hLVTRzCm47_FNs7jQHtf1Ay5LTewX2gDCL4G4czUObfhZbriTwD3_E_OyKVEJj8MYJsipTtlphyxtqUg7YdVOeaRjCNL8rwJbTupWYIfDEPhHWeL0Mg3Q_5C-Hhzm4n13QESwFsMeArWU_jG06N5i59NMalwiDDaMGc-eYy4lIwAebMX3uGJYJNvGd1pByLMACo-Bj7luiyXn49mBGLZH1eaCdzJT4kLVhTwf8pDaR8VQaMO2OJKBU3L4J_dhQdwJ8oSQY7t9LeO1NuGnaR8H64zTCyJxtzDjFDXcPm3QUBda7BOt9vcdcC-e4MCVcKoREw6uuPuoOq95HaOjr-W3DSD456kqNOZEBdRDGz4fkv8Woa3G5eliAmJGMBMlmCV1kHyRacMaLeP29MGH-dEBlsHPJnfyjyzbfxgeEVM1bp6dJafNexop_PuWBdsF20koW99WBzoR24yY7mW2RYMHAaKx4JOVGBmVHS-D81Ya25W-Dw63KsS8C_6iaqbn7c9ot6218NYaPv1VhEnZw1VBqblYlpSOG3JmfLj56omsYn4JQ1W892AcHH4ZCbYUvWxAqWbQSGJIHIn8UCee4J5XeH2sCrBhinihSnvQ9Q0ykYx0JCwIuOXwNGQcnp0E1sX43H7LJwx1fe4ykZX0x5FMqq5noppRxATs4mybIVCQ6qgFsd6Fd1qliQOysGUs1SWlD4hY65uIyiV54f7VA26XXU4gwnUKVccZdJjjAs5aCcy_KwtjhxHY_lq7iCywE1bG4moI7zat4GZs7u3KeFrnqDW9ugH198m4YOg31UBqfAGaFpWemMLNZV9b5b0XisjXKCkgS1cl_MKZ9KWYMpJxachnUhcI9l_i5Pw_PPLYhEoXM8jWphKIRlTeM9Wuzld0vl-vBOzz9Bq5aJZzsdFIPdP_EDU77yFKaFAqL4I-oZmw2-Ag1ab_96sRw8-rT4SYflkEpJ4lmODWRZfleEjSdIK-NKcUklh7w-ZjmVJ1USBREmsfYOQvoz1NE-JfJnjs-3aIvlQO09FxsWe1LHPQZPvtwZUK7ujThnMhXUAPCzEv-dUdPavuZPhKOpyfhYS7_aDa1zXpZXxSvOr-31cP1yEW_FjCimO_CQvl3JSHuwOZPvzYjESognFxXGtsTISvJaxvgDtcHA-6Pt28By4bEQbA3AAxLrSkCirs7QejnWafjDMatap1LmKOszGmLjwPEBXmher9CDYdo7np5KH7eCwR4kl_Wi0]--></g></svg>