<?xml version="1.0" encoding="us-ascii" standalone="no"?><svg xmlns="http://www.w3.org/2000/svg" xmlns:xlink="http://www.w3.org/1999/xlink" contentStyleType="text/css" height="571px" preserveAspectRatio="none" style="width:1127px;height:571px;background:#FFFFFF;" version="1.1" viewBox="0 0 1127 571" width="1127px" zoomAndPan="magnify"><defs/><g><rect fill="#FFFFFF" height="415.4922" style="stroke:#181818;stroke-width:1.0;" width="10" x="218" y="90.5332"/><rect fill="#FFFFFF" height="317.6191" style="stroke:#181818;stroke-width:1.0;" width="10" x="439" y="148.1152"/><rect fill="#FFFFFF" height="127.1641" style="stroke:#181818;stroke-width:1.0;" width="10" x="645.5" y="205.6973"/><rect fill="#FFFFFF" height="31.291" style="stroke:#181818;stroke-width:1.0;" width="10" x="836.5" y="263.2793"/><rect fill="#FFFFFF" height="30" style="stroke:#181818;stroke-width:1.0;" width="10" x="1007" y="390.4434"/><rect fill="none" height="272.3281" style="stroke:#000000;stroke-width:1.5;" width="810.5" x="310.5" y="163.1152"/><rect fill="none" height="81.873" style="stroke:#000000;stroke-width:1.5;" width="365.5" x="557.5" y="220.6973"/><rect fill="none" height="80.582" style="stroke:#000000;stroke-width:1.5;" width="790.5" x="320.5" y="347.8613"/><line style="stroke:#181818;stroke-width:0.5;stroke-dasharray:5.0,5.0;" x1="223" x2="223" y1="57.2422" y2="515.0254"/><line style="stroke:#181818;stroke-width:0.5;stroke-dasharray:5.0,5.0;" x1="443.5" x2="443.5" y1="57.2422" y2="515.0254"/><line style="stroke:#181818;stroke-width:0.5;stroke-dasharray:5.0,5.0;" x1="650.5" x2="650.5" y1="57.2422" y2="515.0254"/><line style="stroke:#181818;stroke-width:0.5;stroke-dasharray:5.0,5.0;" x1="841" x2="841" y1="57.2422" y2="515.0254"/><line style="stroke:#181818;stroke-width:0.5;stroke-dasharray:5.0,5.0;" x1="1012" x2="1012" y1="57.2422" y2="515.0254"/><rect fill="#E3E3E3" height="32.6211" rx="2.5" ry="2.5" style="stroke:#181818;stroke-width:0.5;" width="154" x="146" y="23.6211"/><text fill="#000000" font-family="sans-serif" font-size="14" lengthAdjust="spacing" textLength="140" x="153" y="45.7285">:CreateTaskController</text><rect fill="#E3E3E3" height="32.6211" rx="2.5" ry="2.5" style="stroke:#181818;stroke-width:0.5;" width="154" x="146" y="514.0254"/><text fill="#000000" font-family="sans-serif" font-size="14" lengthAdjust="spacing" textLength="140" x="153" y="536.1328">:CreateTaskController</text><rect fill="#E3E3E3" height="51.2422" rx="2.5" ry="2.5" style="stroke:#181818;stroke-width:0.5;" width="227" x="330.5" y="5"/><text fill="#000000" font-family="sans-serif" font-size="14" lengthAdjust="spacing" textLength="204" x="342" y="27.1074">registedCollaboratorsRepository</text><text fill="#000000" font-family="sans-serif" font-size="14" lengthAdjust="spacing" textLength="213" x="337.5" y="45.7285">:RegistedCollaboratorsRepository</text><rect fill="#E3E3E3" height="51.2422" rx="2.5" ry="2.5" style="stroke:#181818;stroke-width:0.5;" width="227" x="330.5" y="514.0254"/><text fill="#000000" font-family="sans-serif" font-size="14" lengthAdjust="spacing" textLength="204" x="342" y="536.1328">registedCollaboratorsRepository</text><text fill="#000000" font-family="sans-serif" font-size="14" lengthAdjust="spacing" textLength="213" x="337.5" y="554.7539">:RegistedCollaboratorsRepository</text><rect fill="#E3E3E3" height="51.2422" rx="2.5" ry="2.5" style="stroke:#181818;stroke-width:0.5;" width="166" x="567.5" y="5"/><text fill="#000000" font-family="sans-serif" font-size="14" lengthAdjust="spacing" textLength="110" x="595.5" y="27.1074">CollaboratorSkills</text><text fill="#000000" font-family="sans-serif" font-size="14" lengthAdjust="spacing" textLength="152" x="574.5" y="45.7285">:List&lt;CollaboratorSkills&gt;</text><rect fill="#E3E3E3" height="51.2422" rx="2.5" ry="2.5" style="stroke:#181818;stroke-width:0.5;" width="166" x="567.5" y="514.0254"/><text fill="#000000" font-family="sans-serif" font-size="14" lengthAdjust="spacing" textLength="110" x="595.5" y="536.1328">CollaboratorSkills</text><text fill="#000000" font-family="sans-serif" font-size="14" lengthAdjust="spacing" textLength="152" x="574.5" y="554.7539">:List&lt;CollaboratorSkills&gt;</text><rect fill="#E3E3E3" height="51.2422" rx="2.5" ry="2.5" style="stroke:#181818;stroke-width:0.5;" width="143" x="770" y="5"/><text fill="#000000" font-family="sans-serif" font-size="14" lengthAdjust="spacing" textLength="87" x="798" y="27.1074">SkillsSelected</text><text fill="#000000" font-family="sans-serif" font-size="14" lengthAdjust="spacing" textLength="129" x="777" y="45.7285">:List&lt;SkillsSelected&gt;</text><rect fill="#E3E3E3" height="51.2422" rx="2.5" ry="2.5" style="stroke:#181818;stroke-width:0.5;" width="143" x="770" y="514.0254"/><text fill="#000000" font-family="sans-serif" font-size="14" lengthAdjust="spacing" textLength="87" x="798" y="536.1328">SkillsSelected</text><text fill="#000000" font-family="sans-serif" font-size="14" lengthAdjust="spacing" textLength="129" x="777" y="554.7539">:List&lt;SkillsSelected&gt;</text><rect fill="#E3E3E3" height="51.2422" rx="2.5" ry="2.5" style="stroke:#181818;stroke-width:0.5;" width="178" x="923" y="5"/><text fill="#000000" font-family="sans-serif" font-size="14" lengthAdjust="spacing" textLength="159" x="932.5" y="27.1074">proposalTeamRepository</text><text fill="#000000" font-family="sans-serif" font-size="14" lengthAdjust="spacing" textLength="164" x="930" y="45.7285">:ProposalTeamRepository</text><rect fill="#E3E3E3" height="51.2422" rx="2.5" ry="2.5" style="stroke:#181818;stroke-width:0.5;" width="178" x="923" y="514.0254"/><text fill="#000000" font-family="sans-serif" font-size="14" lengthAdjust="spacing" textLength="159" x="932.5" y="536.1328">proposalTeamRepository</text><text fill="#000000" font-family="sans-serif" font-size="14" lengthAdjust="spacing" textLength="164" x="930" y="554.7539">:ProposalTeamRepository</text><rect fill="#FFFFFF" height="415.4922" style="stroke:#181818;stroke-width:1.0;" width="10" x="218" y="90.5332"/><rect fill="#FFFFFF" height="317.6191" style="stroke:#181818;stroke-width:1.0;" width="10" x="439" y="148.1152"/><rect fill="#FFFFFF" height="127.1641" style="stroke:#181818;stroke-width:1.0;" width="10" x="645.5" y="205.6973"/><rect fill="#FFFFFF" height="31.291" style="stroke:#181818;stroke-width:1.0;" width="10" x="836.5" y="263.2793"/><rect fill="#FFFFFF" height="30" style="stroke:#181818;stroke-width:1.0;" width="10" x="1007" y="390.4434"/><polygon fill="#181818" points="206,86.5332,216,90.5332,206,94.5332,210,90.5332" style="stroke:#181818;stroke-width:1.0;"/><line style="stroke:#181818;stroke-width:1.0;" x1="0" x2="212" y1="90.5332" y2="90.5332"/><text fill="#000000" font-family="sans-serif" font-size="13" font-weight="bold" lengthAdjust="spacing" textLength="14" x="7" y="85.2705">14</text><text fill="#000000" font-family="sans-serif" font-size="13" lengthAdjust="spacing" textLength="174" x="25" y="85.2705">getRegistedCollaboratorsList()</text><polygon fill="#181818" points="427,144.1152,437,148.1152,427,152.1152,431,148.1152" style="stroke:#181818;stroke-width:1.0;"/><line style="stroke:#181818;stroke-width:1.0;" x1="228" x2="433" y1="148.1152" y2="148.1152"/><text fill="#000000" font-family="sans-serif" font-size="13" font-weight="bold" lengthAdjust="spacing" textLength="14" x="235" y="142.8525">15</text><text fill="#000000" font-family="sans-serif" font-size="13" lengthAdjust="spacing" textLength="174" x="253" y="142.8525">getRegistedCollaboratorsList()</text><path d="M310.5,163.1152 L383.5,163.1152 L383.5,172.4063 L373.5,182.4063 L310.5,182.4063 L310.5,163.1152 " fill="#EEEEEE" style="stroke:#000000;stroke-width:1.5;"/><rect fill="none" height="272.3281" style="stroke:#000000;stroke-width:1.5;" width="810.5" x="310.5" y="163.1152"/><text fill="#000000" font-family="sans-serif" font-size="13" font-weight="bold" lengthAdjust="spacing" textLength="28" x="325.5" y="178.1436">loop</text><text fill="#000000" font-family="sans-serif" font-size="11" font-weight="bold" lengthAdjust="spacing" textLength="122" x="398.5" y="176.9854">[for each collaborator]</text><polygon fill="#181818" points="633.5,201.6973,643.5,205.6973,633.5,209.6973,637.5,205.6973" style="stroke:#181818;stroke-width:1.0;"/><line style="stroke:#181818;stroke-width:1.0;" x1="449" x2="639.5" y1="205.6973" y2="205.6973"/><text fill="#000000" font-family="sans-serif" font-size="13" font-weight="bold" lengthAdjust="spacing" textLength="14" x="456" y="200.4346">16</text><text fill="#000000" font-family="sans-serif" font-size="13" lengthAdjust="spacing" textLength="148" x="474" y="200.4346">getCollaboratorSkillsList()</text><path d="M557.5,220.6973 L630.5,220.6973 L630.5,229.9883 L620.5,239.9883 L557.5,239.9883 L557.5,220.6973 " fill="#EEEEEE" style="stroke:#000000;stroke-width:1.5;"/><rect fill="none" height="81.873" style="stroke:#000000;stroke-width:1.5;" width="365.5" x="557.5" y="220.6973"/><text fill="#000000" font-family="sans-serif" font-size="13" font-weight="bold" lengthAdjust="spacing" textLength="28" x="572.5" y="235.7256">loop</text><text fill="#000000" font-family="sans-serif" font-size="11" font-weight="bold" lengthAdjust="spacing" textLength="188" x="645.5" y="234.5674">[for each Skill of that Collaborator]</text><polygon fill="#181818" points="824.5,259.2793,834.5,263.2793,824.5,267.2793,828.5,263.2793" style="stroke:#181818;stroke-width:1.0;"/><line style="stroke:#181818;stroke-width:1.0;" x1="655.5" x2="830.5" y1="263.2793" y2="263.2793"/><text fill="#000000" font-family="sans-serif" font-size="13" font-weight="bold" lengthAdjust="spacing" textLength="14" x="662.5" y="258.0166">17</text><text fill="#000000" font-family="sans-serif" font-size="13" lengthAdjust="spacing" textLength="144" x="680.5" y="258.0166">e = equalSkill(skillName)</text><polygon fill="#181818" points="666.5,290.5703,656.5,294.5703,666.5,298.5703,662.5,294.5703" style="stroke:#181818;stroke-width:1.0;"/><line style="stroke:#181818;stroke-width:1.0;stroke-dasharray:2.0,2.0;" x1="660.5" x2="840.5" y1="294.5703" y2="294.5703"/><text fill="#000000" font-family="sans-serif" font-size="13" font-weight="bold" lengthAdjust="spacing" textLength="14" x="672.5" y="289.3076">18</text><text fill="#000000" font-family="sans-serif" font-size="13" lengthAdjust="spacing" textLength="53" x="690.5" y="289.3076">true/false</text><polygon fill="#181818" points="460,328.8613,450,332.8613,460,336.8613,456,332.8613" style="stroke:#181818;stroke-width:1.0;"/><line style="stroke:#181818;stroke-width:1.0;stroke-dasharray:2.0,2.0;" x1="454" x2="649.5" y1="332.8613" y2="332.8613"/><text fill="#000000" font-family="sans-serif" font-size="13" font-weight="bold" lengthAdjust="spacing" textLength="14" x="466" y="327.5986">19</text><text fill="#000000" font-family="sans-serif" font-size="13" lengthAdjust="spacing" textLength="53" x="484" y="327.5986">true/false</text><path d="M320.5,347.8613 L385.5,347.8613 L385.5,357.1523 L375.5,367.1523 L320.5,367.1523 L320.5,347.8613 " fill="#EEEEEE" style="stroke:#000000;stroke-width:1.5;"/><rect fill="none" height="80.582" style="stroke:#000000;stroke-width:1.5;" width="790.5" x="320.5" y="347.8613"/><text fill="#000000" font-family="sans-serif" font-size="13" font-weight="bold" lengthAdjust="spacing" textLength="20" x="335.5" y="362.8896">opt</text><text fill="#000000" font-family="sans-serif" font-size="11" font-weight="bold" lengthAdjust="spacing" textLength="50" x="400.5" y="361.7314">[e = true]</text><polygon fill="#181818" points="995,386.4434,1005,390.4434,995,394.4434,999,390.4434" style="stroke:#181818;stroke-width:1.0;"/><line style="stroke:#181818;stroke-width:1.0;" x1="449" x2="1001" y1="390.4434" y2="390.4434"/><text fill="#000000" font-family="sans-serif" font-size="13" font-weight="bold" lengthAdjust="spacing" textLength="14" x="456" y="385.1807">20</text><text fill="#000000" font-family="sans-serif" font-size="13" lengthAdjust="spacing" textLength="99" x="474" y="385.1807">add(colllaborator)</text><polygon fill="#181818" points="239,461.7344,229,465.7344,239,469.7344,235,465.7344" style="stroke:#181818;stroke-width:1.0;"/><line style="stroke:#181818;stroke-width:1.0;stroke-dasharray:2.0,2.0;" x1="233" x2="443" y1="465.7344" y2="465.7344"/><text fill="#000000" font-family="sans-serif" font-size="13" font-weight="bold" lengthAdjust="spacing" textLength="14" x="245" y="460.4717">21</text><text fill="#000000" font-family="sans-serif" font-size="13" lengthAdjust="spacing" textLength="4" x="263" y="460.4717">&#160;</text><polygon fill="#181818" points="11,493.0254,1,497.0254,11,501.0254,7,497.0254" style="stroke:#181818;stroke-width:1.0;"/><line style="stroke:#181818;stroke-width:1.0;stroke-dasharray:2.0,2.0;" x1="5" x2="217" y1="497.0254" y2="497.0254"/><text fill="#000000" font-family="sans-serif" font-size="13" font-weight="bold" lengthAdjust="spacing" textLength="14" x="17" y="491.7627">22</text><text fill="#000000" font-family="sans-serif" font-size="13" lengthAdjust="spacing" textLength="4" x="35" y="491.7627">&#160;</text><!--SRC=[nPInKiCm38PtFuMEgGmzZZkc7dIW0qiFkBOZYqZKD5V72hO3rxV7TcY8YTl0X8TUO_sIFqkopBvKDMgie6B5sKvpHM1rGy9qbXgpFHQqjWT9e2cpg0hP5vWTvlnHgWAsA0q9WOrbrLIlf8Lm4bjcPOtAmiLieGajRT3i5woiPYb9Nm0QM6nMorYhgIYDfNpXHFZA6YrhiwAQJUd-7LxKR7LU4UAEQFxzoBvelI-bDEwKfVE_7LhcRQO6-t74TczDqbMAycEqUBUDv0rFszWInwerEsoK6y8goiDpqX2YfasYtnLmVIF4TEvhFeE2R39ZdcvowTmoMxwxfcbRH1IQcneUo4Q9C71_WFOcuLf2W5lU0wRpiOh0A4J7C5RRSAnahc7B6WYp7MGzQJ0VrnYL0n_MkcKTxd-17cD_9stOBH54p1eKm5kmEumJ73aTLmBFGQVQoc4Jt06zDIY3PMByxoDMT3a8tS4d6rJyWk9sEZs5uOVRLJkdVWRAwVp9VIsfx- -nGdgQP2KJB3s6SwNZseQ4Xb7zrwvAlr37Wta-yUtQESQrwSXEFF4JkJmr4Fgf_ClzWtxqclxr-FaYUX57Ns-eb1yQiqy0]--></g></svg>