<?xml version="1.0" encoding="us-ascii" standalone="no"?><svg xmlns="http://www.w3.org/2000/svg" xmlns:xlink="http://www.w3.org/1999/xlink" contentStyleType="text/css" height="397.5px" preserveAspectRatio="none" style="width:525px;height:397px;background:#FFFFFF;" version="1.1" viewBox="0 0 525 397" width="525px" zoomAndPan="magnify"><defs/><g><rect fill="#FFFFFF" height="330.8684" style="stroke:#181818;stroke-width:0.3;" width="3" x="18.3" y="33.6727"/><rect fill="#FFFFFF" height="14.5746" style="stroke:#181818;stroke-width:0.3;" width="3" x="107.7" y="40.66"/><rect fill="#FFFFFF" height="84.4857" style="stroke:#181818;stroke-width:0.3;" width="3" x="107.7" y="69.8092"/><rect fill="#FFFFFF" height="179.3842" style="stroke:#181818;stroke-width:0.3;" width="3" x="107.7" y="163.6822"/><rect fill="#FFFFFF" height="9.3873" style="stroke:#181818;stroke-width:0.3;" width="3" x="107.7" y="352.4537"/><rect fill="#FFFFFF" height="65.7111" style="stroke:#181818;stroke-width:0.3;" width="3" x="174" y="79.1965"/><rect fill="#FFFFFF" height="114.0604" style="stroke:#181818;stroke-width:0.3;" width="3" x="174" y="182.0695"/><rect fill="#FFFFFF" height="28.1619" style="stroke:#181818;stroke-width:0.3;" width="3" x="174" y="305.5172"/><rect fill="#FFFFFF" height="9.3873" style="stroke:#181818;stroke-width:0.3;" width="3" x="208.5" y="88.5838"/><rect fill="#FFFFFF" height="9.3873" style="stroke:#181818;stroke-width:0.3;" width="3" x="240.6" y="107.3584"/><rect fill="#FFFFFF" height="9.3873" style="stroke:#181818;stroke-width:0.3;" width="3" x="275.85" y="126.133"/><rect fill="#FFFFFF" height="95.2857" style="stroke:#181818;stroke-width:0.3;" width="3" x="322.2" y="191.4568"/><rect fill="#FFFFFF" height="38.1492" style="stroke:#181818;stroke-width:0.3;" width="3" x="380.7" y="208.7314"/><rect fill="#FFFFFF" height="9.3873" style="stroke:#181818;stroke-width:0.3;" width="3" x="438" y="226.0061"/><rect fill="#FFFFFF" height="9" style="stroke:#181818;stroke-width:0.3;" width="3" x="489.15" y="264.1553"/><rect fill="#FFFFFF" height="9.3873" style="stroke:#181818;stroke-width:0.3;" width="3" x="489.15" y="314.9045"/><rect fill="none" height="81.6984" style="stroke:#000000;stroke-width:0.44999999999999996;" width="231.3" x="292.05" y="195.9568"/><rect fill="none" height="24.5619" style="stroke:#000000;stroke-width:0.44999999999999996;" width="109.65" x="354.3" y="213.2314"/><rect fill="none" height="24.1746" style="stroke:#000000;stroke-width:0.44999999999999996;" width="225.3" x="295.05" y="251.3807"/><line style="stroke:#181818;stroke-width:0.15;stroke-dasharray:5.0,5.0;" x1="19.8" x2="19.8" y1="30.6727" y2="367.241"/><line style="stroke:#181818;stroke-width:0.15;stroke-dasharray:5.0,5.0;" x1="109.2" x2="109.2" y1="30.6727" y2="367.241"/><line style="stroke:#181818;stroke-width:0.15;stroke-dasharray:5.0,5.0;" x1="175.5" x2="175.5" y1="30.6727" y2="367.241"/><line style="stroke:#181818;stroke-width:0.15;stroke-dasharray:5.0,5.0;" x1="209.85" x2="209.85" y1="30.6727" y2="367.241"/><line style="stroke:#181818;stroke-width:0.15;stroke-dasharray:5.0,5.0;" x1="241.95" x2="241.95" y1="30.6727" y2="367.241"/><line style="stroke:#181818;stroke-width:0.15;stroke-dasharray:5.0,5.0;" x1="277.35" x2="277.35" y1="30.6727" y2="367.241"/><line style="stroke:#181818;stroke-width:0.15;stroke-dasharray:5.0,5.0;" x1="323.55" x2="323.55" y1="30.6727" y2="367.241"/><line style="stroke:#181818;stroke-width:0.15;stroke-dasharray:5.0,5.0;" x1="382.2" x2="382.2" y1="30.6727" y2="367.241"/><line style="stroke:#181818;stroke-width:0.15;stroke-dasharray:5.0,5.0;" x1="439.35" x2="439.35" y1="30.6727" y2="367.241"/><line style="stroke:#181818;stroke-width:0.15;stroke-dasharray:5.0,5.0;" x1="490.65" x2="490.65" y1="30.6727" y2="367.241"/><text fill="#000000" font-family="sans-serif" font-size="4.2" lengthAdjust="spacing" textLength="34.8" x="1.5" y="24.0322">Human Resources</text><text fill="#000000" font-family="sans-serif" font-size="4.2" lengthAdjust="spacing" textLength="16.8" x="10.5" y="29.6186">Manager</text><ellipse cx="19.8" cy="4.05" fill="#E3E3E3" rx="2.4" ry="2.4" style="stroke:#181818;stroke-width:0.15;"/><path d="M19.8,6.45 L19.8,14.55 M15.9,8.85 L23.7,8.85 M19.8,14.55 L15.9,19.05 M19.8,14.55 L23.7,19.05 " fill="none" style="stroke:#181818;stroke-width:0.15;"/><text fill="#000000" font-family="sans-serif" font-size="4.2" lengthAdjust="spacing" textLength="34.8" x="1.5" y="371.4732">Human Resources</text><text fill="#000000" font-family="sans-serif" font-size="4.2" lengthAdjust="spacing" textLength="16.8" x="10.5" y="377.0596">Manager</text><ellipse cx="19.8" cy="380.6637" fill="#E3E3E3" rx="2.4" ry="2.4" style="stroke:#181818;stroke-width:0.15;"/><path d="M19.8,383.0637 L19.8,391.1637 M15.9,385.4637 L23.7,385.4637 M19.8,391.1637 L15.9,395.6637 M19.8,391.1637 L23.7,395.6637 " fill="none" style="stroke:#181818;stroke-width:0.15;"/><rect fill="#E3E3E3" height="9.7863" rx="0.75" ry="0.75" style="stroke:#181818;stroke-width:0.15;" width="18.6" x="99.9" y="20.5863"/><text fill="#000000" font-family="sans-serif" font-size="4.2" lengthAdjust="spacing" textLength="14.4" x="102" y="27.2186">:SkillsUI</text><rect fill="#E3E3E3" height="9.7863" rx="0.75" ry="0.75" style="stroke:#181818;stroke-width:0.15;" width="18.6" x="99.9" y="366.941"/><text fill="#000000" font-family="sans-serif" font-size="4.2" lengthAdjust="spacing" textLength="14.4" x="102" y="373.5732">:SkillsUI</text><rect fill="#E3E3E3" height="9.7863" rx="0.75" ry="0.75" style="stroke:#181818;stroke-width:0.15;" width="33.6" x="158.7" y="20.5863"/><text fill="#000000" font-family="sans-serif" font-size="4.2" lengthAdjust="spacing" textLength="29.4" x="160.8" y="27.2186">:SkillsController</text><rect fill="#E3E3E3" height="9.7863" rx="0.75" ry="0.75" style="stroke:#181818;stroke-width:0.15;" width="33.6" x="158.7" y="366.941"/><text fill="#000000" font-family="sans-serif" font-size="4.2" lengthAdjust="spacing" textLength="29.4" x="160.8" y="373.5732">:SkillsController</text><rect fill="#E3E3E3" height="9.7863" rx="0.75" ry="0.75" style="stroke:#181818;stroke-width:0.15;" width="29.1" x="195.45" y="20.5863"/><text fill="#000000" font-family="sans-serif" font-size="4.2" lengthAdjust="spacing" textLength="24.9" x="197.55" y="27.2186">:Repositories</text><rect fill="#E3E3E3" height="9.7863" rx="0.75" ry="0.75" style="stroke:#181818;stroke-width:0.15;" width="29.1" x="195.45" y="366.941"/><text fill="#000000" font-family="sans-serif" font-size="4.2" lengthAdjust="spacing" textLength="24.9" x="197.55" y="373.5732">:Repositories</text><rect fill="#E3E3E3" height="15.3727" rx="0.75" ry="0.75" style="stroke:#181818;stroke-width:0.15;" width="29.1" x="227.55" y="15"/><text fill="#000000" font-family="sans-serif" font-size="4.2" lengthAdjust="spacing" textLength="22.2" x="231" y="21.6322">repositories</text><text fill="#000000" font-family="sans-serif" font-size="4.2" lengthAdjust="spacing" textLength="24.9" x="229.65" y="27.2186">:Repositories</text><rect fill="#E3E3E3" height="15.3727" rx="0.75" ry="0.75" style="stroke:#181818;stroke-width:0.15;" width="29.1" x="227.55" y="366.941"/><text fill="#000000" font-family="sans-serif" font-size="4.2" lengthAdjust="spacing" textLength="22.2" x="231" y="373.5732">repositories</text><text fill="#000000" font-family="sans-serif" font-size="4.2" lengthAdjust="spacing" textLength="24.9" x="229.65" y="379.1596">:Repositories</text><rect fill="#E3E3E3" height="15.3727" rx="0.75" ry="0.75" style="stroke:#181818;stroke-width:0.15;" width="35.4" x="259.65" y="15"/><text fill="#000000" font-family="sans-serif" font-size="4.2" lengthAdjust="spacing" textLength="17.7" x="268.5" y="21.6322">skillName</text><text fill="#000000" font-family="sans-serif" font-size="4.2" lengthAdjust="spacing" textLength="31.2" x="261.75" y="27.2186">:SkillsRepository</text><rect fill="#E3E3E3" height="15.3727" rx="0.75" ry="0.75" style="stroke:#181818;stroke-width:0.15;" width="35.4" x="259.65" y="366.941"/><text fill="#000000" font-family="sans-serif" font-size="4.2" lengthAdjust="spacing" textLength="17.7" x="268.5" y="373.5732">skillName</text><text fill="#000000" font-family="sans-serif" font-size="4.2" lengthAdjust="spacing" textLength="31.2" x="261.75" y="379.1596">:SkillsRepository</text><rect fill="#E3E3E3" height="15.3727" rx="0.75" ry="0.75" style="stroke:#181818;stroke-width:0.15;" width="51.3" x="298.05" y="15"/><text fill="#000000" font-family="sans-serif" font-size="4.2" lengthAdjust="spacing" textLength="10.5" x="318.45" y="21.6322">name</text><text fill="#000000" font-family="sans-serif" font-size="4.2" lengthAdjust="spacing" textLength="47.1" x="300.15" y="27.2186">:CollaboratorsRepository</text><rect fill="#E3E3E3" height="15.3727" rx="0.75" ry="0.75" style="stroke:#181818;stroke-width:0.15;" width="51.3" x="298.05" y="366.941"/><text fill="#000000" font-family="sans-serif" font-size="4.2" lengthAdjust="spacing" textLength="10.5" x="318.45" y="373.5732">name</text><text fill="#000000" font-family="sans-serif" font-size="4.2" lengthAdjust="spacing" textLength="47.1" x="300.15" y="379.1596">:CollaboratorsRepository</text><rect fill="#E3E3E3" height="15.3727" rx="0.75" ry="0.75" style="stroke:#181818;stroke-width:0.15;" width="49.8" x="357.3" y="15"/><text fill="#000000" font-family="sans-serif" font-size="4.2" lengthAdjust="spacing" textLength="33" x="365.7" y="21.6322">CollaboratorSkills</text><text fill="#000000" font-family="sans-serif" font-size="4.2" lengthAdjust="spacing" textLength="45.6" x="359.4" y="27.2186">:List&lt;CollaboratorSkills&gt;</text><rect fill="#E3E3E3" height="15.3727" rx="0.75" ry="0.75" style="stroke:#181818;stroke-width:0.15;" width="49.8" x="357.3" y="366.941"/><text fill="#000000" font-family="sans-serif" font-size="4.2" lengthAdjust="spacing" textLength="33" x="365.7" y="373.5732">CollaboratorSkills</text><text fill="#000000" font-family="sans-serif" font-size="4.2" lengthAdjust="spacing" textLength="45.6" x="359.4" y="379.1596">:List&lt;CollaboratorSkills&gt;</text><rect fill="#E3E3E3" height="15.3727" rx="0.75" ry="0.75" style="stroke:#181818;stroke-width:0.15;" width="42.9" x="418.05" y="15"/><text fill="#000000" font-family="sans-serif" font-size="4.2" lengthAdjust="spacing" textLength="26.1" x="426.45" y="21.6322">SkillsSelected</text><text fill="#000000" font-family="sans-serif" font-size="4.2" lengthAdjust="spacing" textLength="38.7" x="420.15" y="27.2186">:List&lt;SkillsSelected&gt;</text><rect fill="#E3E3E3" height="15.3727" rx="0.75" ry="0.75" style="stroke:#181818;stroke-width:0.15;" width="42.9" x="418.05" y="366.941"/><text fill="#000000" font-family="sans-serif" font-size="4.2" lengthAdjust="spacing" textLength="26.1" x="426.45" y="373.5732">SkillsSelected</text><text fill="#000000" font-family="sans-serif" font-size="4.2" lengthAdjust="spacing" textLength="38.7" x="420.15" y="379.1596">:List&lt;SkillsSelected&gt;</text><rect fill="#E3E3E3" height="15.3727" rx="0.75" ry="0.75" style="stroke:#181818;stroke-width:0.15;" width="53.4" x="463.95" y="15"/><text fill="#000000" font-family="sans-serif" font-size="4.2" lengthAdjust="spacing" textLength="27.3" x="477" y="21.6322">proposalTeam</text><text fill="#000000" font-family="sans-serif" font-size="4.2" lengthAdjust="spacing" textLength="49.2" x="466.05" y="27.2186">:ProposalTeamRepository</text><rect fill="#E3E3E3" height="15.3727" rx="0.75" ry="0.75" style="stroke:#181818;stroke-width:0.15;" width="53.4" x="463.95" y="366.941"/><text fill="#000000" font-family="sans-serif" font-size="4.2" lengthAdjust="spacing" textLength="27.3" x="477" y="373.5732">proposalTeam</text><text fill="#000000" font-family="sans-serif" font-size="4.2" lengthAdjust="spacing" textLength="49.2" x="466.05" y="379.1596">:ProposalTeamRepository</text><rect fill="#FFFFFF" height="330.8684" style="stroke:#181818;stroke-width:0.3;" width="3" x="18.3" y="33.6727"/><rect fill="#FFFFFF" height="14.5746" style="stroke:#181818;stroke-width:0.3;" width="3" x="107.7" y="40.66"/><rect fill="#FFFFFF" height="84.4857" style="stroke:#181818;stroke-width:0.3;" width="3" x="107.7" y="69.8092"/><rect fill="#FFFFFF" height="179.3842" style="stroke:#181818;stroke-width:0.3;" width="3" x="107.7" y="163.6822"/><rect fill="#FFFFFF" height="9.3873" style="stroke:#181818;stroke-width:0.3;" width="3" x="107.7" y="352.4537"/><rect fill="#FFFFFF" height="65.7111" style="stroke:#181818;stroke-width:0.3;" width="3" x="174" y="79.1965"/><rect fill="#FFFFFF" height="114.0604" style="stroke:#181818;stroke-width:0.3;" width="3" x="174" y="182.0695"/><rect fill="#FFFFFF" height="28.1619" style="stroke:#181818;stroke-width:0.3;" width="3" x="174" y="305.5172"/><rect fill="#FFFFFF" height="9.3873" style="stroke:#181818;stroke-width:0.3;" width="3" x="208.5" y="88.5838"/><rect fill="#FFFFFF" height="9.3873" style="stroke:#181818;stroke-width:0.3;" width="3" x="240.6" y="107.3584"/><rect fill="#FFFFFF" height="9.3873" style="stroke:#181818;stroke-width:0.3;" width="3" x="275.85" y="126.133"/><rect fill="#FFFFFF" height="95.2857" style="stroke:#181818;stroke-width:0.3;" width="3" x="322.2" y="191.4568"/><rect fill="#FFFFFF" height="38.1492" style="stroke:#181818;stroke-width:0.3;" width="3" x="380.7" y="208.7314"/><rect fill="#FFFFFF" height="9.3873" style="stroke:#181818;stroke-width:0.3;" width="3" x="438" y="226.0061"/><rect fill="#FFFFFF" height="9" style="stroke:#181818;stroke-width:0.3;" width="3" x="489.15" y="264.1553"/><rect fill="#FFFFFF" height="9.3873" style="stroke:#181818;stroke-width:0.3;" width="3" x="489.15" y="314.9045"/><polygon fill="#181818" points="104.1,39.46,107.1,40.66,104.1,41.86,105.3,40.66" style="stroke:#181818;stroke-width:0.3;"/><line style="stroke:#181818;stroke-width:0.3;" x1="21.3" x2="105.9" y1="40.66" y2="40.66"/><text fill="#000000" font-family="sans-serif" font-size="3.9" font-weight="bold" lengthAdjust="spacing" textLength="2.1" x="23.4" y="39.0812">1</text><text fill="#000000" font-family="sans-serif" font-size="3.9" lengthAdjust="spacing" textLength="58.2" x="26.7" y="39.0812">asks to generate a team proposal</text><polygon fill="#181818" points="24.6,54.0346,21.6,55.2346,24.6,56.4346,23.4,55.2346" style="stroke:#181818;stroke-width:0.3;"/><line style="stroke:#181818;stroke-width:0.3;stroke-dasharray:2.0,2.0;" x1="22.8" x2="108.9" y1="55.2346" y2="55.2346"/><text fill="#000000" font-family="sans-serif" font-size="3.9" font-weight="bold" lengthAdjust="spacing" textLength="2.1" x="26.4" y="51.0621">2</text><text fill="#000000" font-family="sans-serif" font-size="3.9" lengthAdjust="spacing" textLength="61.5" x="29.7" y="48.4685">requests which is the minimum and</text><text fill="#000000" font-family="sans-serif" font-size="3.9" lengthAdjust="spacing" textLength="68.7" x="30.9" y="53.6558">maximum number of team collaborators</text><polygon fill="#181818" points="104.1,68.6092,107.1,69.8092,104.1,71.0092,105.3,69.8092" style="stroke:#181818;stroke-width:0.3;"/><line style="stroke:#181818;stroke-width:0.3;" x1="21.3" x2="105.9" y1="69.8092" y2="69.8092"/><text fill="#000000" font-family="sans-serif" font-size="3.9" font-weight="bold" lengthAdjust="spacing" textLength="2.1" x="23.4" y="65.6367">3</text><text fill="#000000" font-family="sans-serif" font-size="3.9" lengthAdjust="spacing" textLength="77.4" x="26.7" y="63.0431">types the minimum and maximum number of</text><text fill="#000000" font-family="sans-serif" font-size="3.9" lengthAdjust="spacing" textLength="32.1" x="27.9" y="68.2304">team collaborators</text><polygon fill="#181818" points="170.4,77.9965,173.4,79.1965,170.4,80.3965,171.6,79.1965" style="stroke:#181818;stroke-width:0.3;"/><line style="stroke:#181818;stroke-width:0.3;" x1="110.7" x2="172.2" y1="79.1965" y2="79.1965"/><text fill="#000000" font-family="sans-serif" font-size="3.9" font-weight="bold" lengthAdjust="spacing" textLength="2.1" x="112.8" y="77.6177">4</text><text fill="#000000" font-family="sans-serif" font-size="3.9" lengthAdjust="spacing" textLength="39" x="116.1" y="77.6177">getRegistedSkillsList()</text><polygon fill="#181818" points="204.9,87.3838,207.9,88.5838,204.9,89.7838,206.1,88.5838" style="stroke:#181818;stroke-width:0.3;"/><line style="stroke:#181818;stroke-width:0.3;" x1="177" x2="206.7" y1="88.5838" y2="88.5838"/><text fill="#000000" font-family="sans-serif" font-size="3.9" font-weight="bold" lengthAdjust="spacing" textLength="2.1" x="179.1" y="87.005">5</text><text fill="#000000" font-family="sans-serif" font-size="3.9" lengthAdjust="spacing" textLength="22.5" x="182.4" y="87.005">getInstance()</text><polygon fill="#181818" points="180.3,96.7711,177.3,97.9711,180.3,99.1711,179.1,97.9711" style="stroke:#181818;stroke-width:0.3;"/><line style="stroke:#181818;stroke-width:0.3;stroke-dasharray:2.0,2.0;" x1="178.5" x2="209.7" y1="97.9711" y2="97.9711"/><text fill="#000000" font-family="sans-serif" font-size="3.9" font-weight="bold" lengthAdjust="spacing" textLength="2.1" x="182.1" y="96.3923">6</text><text fill="#000000" font-family="sans-serif" font-size="3.9" lengthAdjust="spacing" textLength="20.1" x="185.4" y="96.3923">repositories</text><polygon fill="#181818" points="237,106.1584,240,107.3584,237,108.5584,238.2,107.3584" style="stroke:#181818;stroke-width:0.3;"/><line style="stroke:#181818;stroke-width:0.3;" x1="177" x2="238.8" y1="107.3584" y2="107.3584"/><text fill="#000000" font-family="sans-serif" font-size="3.9" font-weight="bold" lengthAdjust="spacing" textLength="2.1" x="179.1" y="105.7796">7</text><text fill="#000000" font-family="sans-serif" font-size="3.9" lengthAdjust="spacing" textLength="36" x="182.4" y="105.7796">getSkillsRepository()</text><polygon fill="#181818" points="180.3,115.5457,177.3,116.7457,180.3,117.9457,179.1,116.7457" style="stroke:#181818;stroke-width:0.3;"/><line style="stroke:#181818;stroke-width:0.3;stroke-dasharray:2.0,2.0;" x1="178.5" x2="241.8" y1="116.7457" y2="116.7457"/><text fill="#000000" font-family="sans-serif" font-size="3.9" font-weight="bold" lengthAdjust="spacing" textLength="2.1" x="182.1" y="115.1669">8</text><text fill="#000000" font-family="sans-serif" font-size="3.9" lengthAdjust="spacing" textLength="28.2" x="185.4" y="115.1669">SkillsRepository</text><polygon fill="#181818" points="272.25,124.933,275.25,126.133,272.25,127.333,273.45,126.133" style="stroke:#181818;stroke-width:0.3;"/><line style="stroke:#181818;stroke-width:0.3;" x1="177" x2="274.05" y1="126.133" y2="126.133"/><text fill="#000000" font-family="sans-serif" font-size="3.9" font-weight="bold" lengthAdjust="spacing" textLength="2.1" x="179.1" y="124.5542">9</text><text fill="#000000" font-family="sans-serif" font-size="3.9" lengthAdjust="spacing" textLength="39" x="182.4" y="124.5542">getRegistedSkillsList()</text><polygon fill="#181818" points="180.3,134.3203,177.3,135.5203,180.3,136.7203,179.1,135.5203" style="stroke:#181818;stroke-width:0.3;"/><line style="stroke:#181818;stroke-width:0.3;stroke-dasharray:2.0,2.0;" x1="178.5" x2="277.05" y1="135.5203" y2="135.5203"/><text fill="#000000" font-family="sans-serif" font-size="3.9" font-weight="bold" lengthAdjust="spacing" textLength="4.2" x="182.1" y="133.9415">10</text><text fill="#000000" font-family="sans-serif" font-size="3.9" lengthAdjust="spacing" textLength="29.7" x="187.5" y="133.9415">registedSkillsList</text><polygon fill="#181818" points="114,143.7076,111,144.9076,114,146.1076,112.8,144.9076" style="stroke:#181818;stroke-width:0.3;"/><line style="stroke:#181818;stroke-width:0.3;stroke-dasharray:2.0,2.0;" x1="112.2" x2="175.2" y1="144.9076" y2="144.9076"/><text fill="#000000" font-family="sans-serif" font-size="3.9" font-weight="bold" lengthAdjust="spacing" textLength="4.2" x="115.8" y="143.3288">11</text><text fill="#000000" font-family="sans-serif" font-size="3.9" lengthAdjust="spacing" textLength="29.7" x="121.2" y="143.3288">registedSkillsList</text><polygon fill="#181818" points="24.6,153.0949,21.6,154.2949,24.6,155.4949,23.4,154.2949" style="stroke:#181818;stroke-width:0.3;"/><line style="stroke:#181818;stroke-width:0.3;stroke-dasharray:2.0,2.0;" x1="22.8" x2="108.9" y1="154.2949" y2="154.2949"/><text fill="#000000" font-family="sans-serif" font-size="3.9" font-weight="bold" lengthAdjust="spacing" textLength="4.2" x="26.4" y="152.7161">12</text><text fill="#000000" font-family="sans-serif" font-size="3.9" lengthAdjust="spacing" textLength="63.9" x="31.8" y="152.7161">requests to selects the skills needed</text><polygon fill="#181818" points="104.1,162.4822,107.1,163.6822,104.1,164.8822,105.3,163.6822" style="stroke:#181818;stroke-width:0.3;"/><line style="stroke:#181818;stroke-width:0.3;" x1="21.3" x2="105.9" y1="163.6822" y2="163.6822"/><text fill="#000000" font-family="sans-serif" font-size="3.9" font-weight="bold" lengthAdjust="spacing" textLength="4.2" x="23.4" y="162.1034">13</text><text fill="#000000" font-family="sans-serif" font-size="3.9" lengthAdjust="spacing" textLength="29.4" x="28.8" y="162.1034">selects the skills</text><polygon fill="#181818" points="170.4,180.8695,173.4,182.0695,170.4,183.2695,171.6,182.0695" style="stroke:#181818;stroke-width:0.3;"/><line style="stroke:#181818;stroke-width:0.3;" x1="110.7" x2="172.2" y1="182.0695" y2="182.0695"/><text fill="#000000" font-family="sans-serif" font-size="3.9" font-weight="bold" lengthAdjust="spacing" textLength="4.2" x="112.8" y="180.4907">14</text><text fill="#000000" font-family="sans-serif" font-size="3.9" lengthAdjust="spacing" textLength="52.2" x="118.2" y="180.4907">getRegistedCollaboratorsList()</text><polygon fill="#181818" points="318.6,190.2568,321.6,191.4568,318.6,192.6568,319.8,191.4568" style="stroke:#181818;stroke-width:0.3;"/><line style="stroke:#181818;stroke-width:0.3;" x1="177" x2="320.4" y1="191.4568" y2="191.4568"/><text fill="#000000" font-family="sans-serif" font-size="3.9" font-weight="bold" lengthAdjust="spacing" textLength="4.2" x="179.1" y="189.878">15</text><text fill="#000000" font-family="sans-serif" font-size="3.9" lengthAdjust="spacing" textLength="52.2" x="184.5" y="189.878">getRegistedCollaboratorsList()</text><path d="M292.05,195.9568 L313.95,195.9568 L313.95,198.7441 L310.95,201.7441 L292.05,201.7441 L292.05,195.9568 " fill="#EEEEEE" style="stroke:#000000;stroke-width:0.44999999999999996;"/><rect fill="none" height="81.6984" style="stroke:#000000;stroke-width:0.44999999999999996;" width="231.3" x="292.05" y="195.9568"/><text fill="#000000" font-family="sans-serif" font-size="3.9" font-weight="bold" lengthAdjust="spacing" textLength="8.4" x="296.55" y="200.4653">loop</text><text fill="#000000" font-family="sans-serif" font-size="3.3" font-weight="bold" lengthAdjust="spacing" textLength="36.6" x="318.45" y="200.1179">[for each collaborator]</text><polygon fill="#181818" points="377.1,207.5314,380.1,208.7314,377.1,209.9314,378.3,208.7314" style="stroke:#181818;stroke-width:0.3;"/><line style="stroke:#181818;stroke-width:0.3;" x1="325.2" x2="378.9" y1="208.7314" y2="208.7314"/><text fill="#000000" font-family="sans-serif" font-size="3.9" font-weight="bold" lengthAdjust="spacing" textLength="4.2" x="327.3" y="207.1526">16</text><text fill="#000000" font-family="sans-serif" font-size="3.9" lengthAdjust="spacing" textLength="44.4" x="332.7" y="207.1526">getCollaboratorSkillsList()</text><path d="M354.3,213.2314 L376.2,213.2314 L376.2,216.0187 L373.2,219.0187 L354.3,219.0187 L354.3,213.2314 " fill="#EEEEEE" style="stroke:#000000;stroke-width:0.44999999999999996;"/><rect fill="none" height="24.5619" style="stroke:#000000;stroke-width:0.44999999999999996;" width="109.65" x="354.3" y="213.2314"/><text fill="#000000" font-family="sans-serif" font-size="3.9" font-weight="bold" lengthAdjust="spacing" textLength="8.4" x="358.8" y="217.7399">loop</text><text fill="#000000" font-family="sans-serif" font-size="3.3" font-weight="bold" lengthAdjust="spacing" textLength="56.4" x="380.7" y="217.3925">[for each Skill of that Collaborator]</text><polygon fill="#181818" points="434.4,224.8061,437.4,226.0061,434.4,227.2061,435.6,226.0061" style="stroke:#181818;stroke-width:0.3;"/><line style="stroke:#181818;stroke-width:0.3;" x1="383.7" x2="436.2" y1="226.0061" y2="226.0061"/><text fill="#000000" font-family="sans-serif" font-size="3.9" font-weight="bold" lengthAdjust="spacing" textLength="4.2" x="385.8" y="224.4272">17</text><text fill="#000000" font-family="sans-serif" font-size="3.9" lengthAdjust="spacing" textLength="43.2" x="391.2" y="224.4272">e = equalSkill(skillName)</text><polygon fill="#181818" points="387,234.1934,384,235.3934,387,236.5934,385.8,235.3934" style="stroke:#181818;stroke-width:0.3;"/><line style="stroke:#181818;stroke-width:0.3;stroke-dasharray:2.0,2.0;" x1="385.2" x2="439.2" y1="235.3934" y2="235.3934"/><text fill="#000000" font-family="sans-serif" font-size="3.9" font-weight="bold" lengthAdjust="spacing" textLength="4.2" x="388.8" y="233.8146">18</text><text fill="#000000" font-family="sans-serif" font-size="3.9" lengthAdjust="spacing" textLength="15.9" x="394.2" y="233.8146">true/false</text><polygon fill="#181818" points="328.5,245.6807,325.5,246.8807,328.5,248.0807,327.3,246.8807" style="stroke:#181818;stroke-width:0.3;"/><line style="stroke:#181818;stroke-width:0.3;stroke-dasharray:2.0,2.0;" x1="326.7" x2="381.9" y1="246.8807" y2="246.8807"/><text fill="#000000" font-family="sans-serif" font-size="3.9" font-weight="bold" lengthAdjust="spacing" textLength="4.2" x="330.3" y="245.3019">19</text><text fill="#000000" font-family="sans-serif" font-size="3.9" lengthAdjust="spacing" textLength="15.9" x="335.7" y="245.3019">true/false</text><path d="M295.05,251.3807 L314.55,251.3807 L314.55,254.168 L311.55,257.168 L295.05,257.168 L295.05,251.3807 " fill="#EEEEEE" style="stroke:#000000;stroke-width:0.44999999999999996;"/><rect fill="none" height="24.1746" style="stroke:#000000;stroke-width:0.44999999999999996;" width="225.3" x="295.05" y="251.3807"/><text fill="#000000" font-family="sans-serif" font-size="3.9" font-weight="bold" lengthAdjust="spacing" textLength="6" x="299.55" y="255.8892">opt</text><text fill="#000000" font-family="sans-serif" font-size="3.3" font-weight="bold" lengthAdjust="spacing" textLength="15" x="319.05" y="255.5417">[e = true]</text><polygon fill="#181818" points="485.55,262.9553,488.55,264.1553,485.55,265.3553,486.75,264.1553" style="stroke:#181818;stroke-width:0.3;"/><line style="stroke:#181818;stroke-width:0.3;" x1="325.2" x2="487.35" y1="264.1553" y2="264.1553"/><text fill="#000000" font-family="sans-serif" font-size="3.9" font-weight="bold" lengthAdjust="spacing" textLength="4.2" x="327.3" y="262.5765">20</text><text fill="#000000" font-family="sans-serif" font-size="3.9" lengthAdjust="spacing" textLength="29.7" x="332.7" y="262.5765">add(colllaborator)</text><polygon fill="#181818" points="180.3,285.5426,177.3,286.7426,180.3,287.9426,179.1,286.7426" style="stroke:#181818;stroke-width:0.3;"/><line style="stroke:#181818;stroke-width:0.3;stroke-dasharray:2.0,2.0;" x1="178.5" x2="323.4" y1="286.7426" y2="286.7426"/><text fill="#000000" font-family="sans-serif" font-size="3.9" font-weight="bold" lengthAdjust="spacing" textLength="4.2" x="182.1" y="285.1638">21</text><text fill="#000000" font-family="sans-serif" font-size="3.9" lengthAdjust="spacing" textLength="1.2" x="187.5" y="285.1638">&#160;</text><polygon fill="#181818" points="114,294.9299,111,296.1299,114,297.3299,112.8,296.1299" style="stroke:#181818;stroke-width:0.3;"/><line style="stroke:#181818;stroke-width:0.3;stroke-dasharray:2.0,2.0;" x1="112.2" x2="175.2" y1="296.1299" y2="296.1299"/><text fill="#000000" font-family="sans-serif" font-size="3.9" font-weight="bold" lengthAdjust="spacing" textLength="4.2" x="115.8" y="294.5511">22</text><text fill="#000000" font-family="sans-serif" font-size="3.9" lengthAdjust="spacing" textLength="1.2" x="121.2" y="294.5511">&#160;</text><polygon fill="#181818" points="170.4,304.3172,173.4,305.5172,170.4,306.7172,171.6,305.5172" style="stroke:#181818;stroke-width:0.3;"/><line style="stroke:#181818;stroke-width:0.3;" x1="110.7" x2="172.2" y1="305.5172" y2="305.5172"/><text fill="#000000" font-family="sans-serif" font-size="3.9" font-weight="bold" lengthAdjust="spacing" textLength="4.2" x="112.8" y="303.9384">23</text><text fill="#000000" font-family="sans-serif" font-size="3.9" lengthAdjust="spacing" textLength="32.7" x="118.2" y="303.9384">getProposalTeam()</text><polygon fill="#181818" points="485.55,313.7045,488.55,314.9045,485.55,316.1045,486.75,314.9045" style="stroke:#181818;stroke-width:0.3;"/><line style="stroke:#181818;stroke-width:0.3;" x1="177" x2="487.35" y1="314.9045" y2="314.9045"/><text fill="#000000" font-family="sans-serif" font-size="3.9" font-weight="bold" lengthAdjust="spacing" textLength="4.2" x="179.1" y="313.3257">24</text><text fill="#000000" font-family="sans-serif" font-size="3.9" lengthAdjust="spacing" textLength="32.7" x="184.5" y="313.3257">getProposalTeam()</text><polygon fill="#181818" points="180.3,323.0918,177.3,324.2918,180.3,325.4918,179.1,324.2918" style="stroke:#181818;stroke-width:0.3;"/><line style="stroke:#181818;stroke-width:0.3;stroke-dasharray:2.0,2.0;" x1="178.5" x2="490.35" y1="324.2918" y2="324.2918"/><text fill="#000000" font-family="sans-serif" font-size="3.9" font-weight="bold" lengthAdjust="spacing" textLength="4.2" x="182.1" y="322.713">25</text><text fill="#000000" font-family="sans-serif" font-size="3.9" lengthAdjust="spacing" textLength="24.3" x="187.5" y="322.713">proposalTeam</text><polygon fill="#181818" points="114,332.4791,111,333.6791,114,334.8791,112.8,333.6791" style="stroke:#181818;stroke-width:0.3;"/><line style="stroke:#181818;stroke-width:0.3;stroke-dasharray:2.0,2.0;" x1="112.2" x2="175.2" y1="333.6791" y2="333.6791"/><text fill="#000000" font-family="sans-serif" font-size="3.9" font-weight="bold" lengthAdjust="spacing" textLength="4.2" x="115.8" y="332.1003">26</text><text fill="#000000" font-family="sans-serif" font-size="3.9" lengthAdjust="spacing" textLength="24.3" x="121.2" y="332.1003">proposalTeam</text><polygon fill="#181818" points="24.6,341.8664,21.6,343.0664,24.6,344.2664,23.4,343.0664" style="stroke:#181818;stroke-width:0.3;"/><line style="stroke:#181818;stroke-width:0.3;stroke-dasharray:2.0,2.0;" x1="22.8" x2="108.9" y1="343.0664" y2="343.0664"/><text fill="#000000" font-family="sans-serif" font-size="3.9" font-weight="bold" lengthAdjust="spacing" textLength="4.2" x="26.4" y="341.4876">27</text><text fill="#000000" font-family="sans-serif" font-size="3.9" lengthAdjust="spacing" textLength="64.8" x="31.8" y="341.4876">shows and aks to confirm all the data</text><polygon fill="#181818" points="104.1,351.2537,107.1,352.4537,104.1,353.6537,105.3,352.4537" style="stroke:#181818;stroke-width:0.3;"/><line style="stroke:#181818;stroke-width:0.3;" x1="21.3" x2="105.9" y1="352.4537" y2="352.4537"/><text fill="#000000" font-family="sans-serif" font-size="3.9" font-weight="bold" lengthAdjust="spacing" textLength="4.2" x="23.4" y="350.8749">28</text><text fill="#000000" font-family="sans-serif" font-size="3.9" lengthAdjust="spacing" textLength="35.1" x="28.8" y="350.8749">confirms all the data</text><polygon fill="#181818" points="24.6,360.641,21.6,361.841,24.6,363.041,23.4,361.841" style="stroke:#181818;stroke-width:0.3;"/><line style="stroke:#181818;stroke-width:0.3;stroke-dasharray:2.0,2.0;" x1="22.8" x2="108.9" y1="361.841" y2="361.841"/><text fill="#000000" font-family="sans-serif" font-size="3.9" font-weight="bold" lengthAdjust="spacing" textLength="4.2" x="26.4" y="360.2622">29</text><text fill="#000000" font-family="sans-serif" font-size="3.9" lengthAdjust="spacing" textLength="47.4" x="31.8" y="360.2622">displays operation success</text><!--SRC=[bLR1Rjim3BthAuYUsaCmx1fq1OPULg3TYgIzzQBQJ2p4bZnBNfU_7oKbZcH9JPP3KKlauvFuI57lXEpvm3leb5HLCwWEmGmZCZtjzBpQyIskpRv56B0oN6xRq40tl5OVGcvXmrkDZF7Ag06kVemTbx12hSQXGlqcdxWaeE4Ak8OVgoT6xaPKekVImDLolHDjgryVtFRhGtRtNaapgBOzWDo_h1vdTYlibHOKNw1sDjF2VYqiSQDax3847cyo1NX-_FuIUsZBvIVlaCmzhrCGvp9VZDsbzxodS_1tDN2oc0CKzcASqCX79DH7eSrjkdENmFhr6D6lhR6bB6DzH8jNFPBT-BM9TsAiVb14cxSlo3j2UWu-PuVDRv6CHihLsBtZ05-TgCGVRj0fXz4VMDoHJ61943iDHi4M9GxMWeD1Azm3BWFwJUwaB4Pk2_As84kIzEyHjT7mqOYg0K5O3K8dfEZ63hYaUu2E_tLV1pfguoDKOPfOZL6GYAFPzvW0fx0KAWESvN_drB-aKviLRYaTMFjqsDHStmGNvgh4WTZ_h6Uc9i0XFKXDvLqX-K_kkG9YEOJ5n2aigV1Qib0XCLjhdicyX496hYAPipt5J6ekYEiTma1pQoXVv8IIH609of6EazKSAsIKOdbcHxryxkqpcbSn5O9s1UdbvdgL1ebOKuNE96fl95HfwiWY-oo5Z12ZzdM17Wlj3iw2dZ0B3TE5QPNgOKDF4j5lejfosyTVYSMCe4-9vvQk7uWTCRC43wqt2XvpT1QkpJJSHBwHKuxvWHwHplLeeetm3KWil7KxrzDZTfD0J-IptPvTmE9siIZHi5F65pymp842cMKZXxOeJz-b15eMsGncE8GI_oHbgZVk8jsiTAcAyW-TVS7g-jhASdACSt7gO_cNid1tfNSrlBh_ERUpBnxls0TO0IcgohZRdUqhuKdEj9BY7QSmPo-gW1Kq-N38OHTSVTpaIzwPzguRzQ7TpC3zi5CfkH43ZH7K9soxhhdXy_OUjlQ3lOuTobDHBNJVyhqcfTkXIj3xhiUAnlXapla7]--></g></svg>