<?xml version="1.0" encoding="us-ascii" standalone="no"?><svg xmlns="http://www.w3.org/2000/svg" xmlns:xlink="http://www.w3.org/1999/xlink" contentStyleType="text/css" height="662.5px" preserveAspectRatio="none" style="width:932px;height:662px;background:#FFFFFF;" version="1.1" viewBox="0 0 932 662" width="932.5px" zoomAndPan="magnify"><defs/><g><rect fill="#FFFFFF" height="551.4473" style="stroke:#181818;stroke-width:0.5;" width="5" x="30.5" y="56.1211"/><rect fill="#FFFFFF" height="24.291" style="stroke:#181818;stroke-width:0.5;" width="5" x="179.5" y="67.7666"/><rect fill="#FFFFFF" height="140.8096" style="stroke:#181818;stroke-width:0.5;" width="5" x="179.5" y="116.3486"/><rect fill="#FFFFFF" height="298.9736" style="stroke:#181818;stroke-width:0.5;" width="5" x="179.5" y="272.8037"/><rect fill="#FFFFFF" height="15.6455" style="stroke:#181818;stroke-width:0.5;" width="5" x="179.5" y="587.4229"/><rect fill="#FFFFFF" height="109.5186" style="stroke:#181818;stroke-width:0.5;" width="5" x="290" y="131.9941"/><rect fill="#FFFFFF" height="190.1006" style="stroke:#181818;stroke-width:0.5;" width="5" x="290" y="303.4492"/><rect fill="#FFFFFF" height="46.9365" style="stroke:#181818;stroke-width:0.5;" width="5" x="290" y="509.1953"/><rect fill="#FFFFFF" height="15.6455" style="stroke:#181818;stroke-width:0.5;" width="5" x="357.25" y="147.6396"/><rect fill="#FFFFFF" height="15.6455" style="stroke:#181818;stroke-width:0.5;" width="5" x="410.75" y="178.9307"/><rect fill="#FFFFFF" height="15.6455" style="stroke:#181818;stroke-width:0.5;" width="5" x="483.5" y="210.2217"/><rect fill="#FFFFFF" height="158.8096" style="stroke:#181818;stroke-width:0.5;" width="5" x="588.75" y="319.0947"/><rect fill="#FFFFFF" height="63.582" style="stroke:#181818;stroke-width:0.5;" width="5" x="692" y="347.8857"/><rect fill="#FFFFFF" height="15.6455" style="stroke:#181818;stroke-width:0.5;" width="5" x="787.5" y="376.6768"/><rect fill="#FFFFFF" height="15" style="stroke:#181818;stroke-width:0.5;" width="5" x="872.75" y="440.2588"/><rect fill="#FFFFFF" height="15.6455" style="stroke:#181818;stroke-width:0.5;" width="5" x="872.75" y="524.8408"/><rect fill="none" height="136.1641" style="stroke:#000000;stroke-width:0.75;" width="405.25" x="524.5" y="326.5947"/><rect fill="none" height="40.9365" style="stroke:#000000;stroke-width:0.75;" width="182.75" x="648" y="355.3857"/><rect fill="none" height="40.291" style="stroke:#000000;stroke-width:0.75;" width="395.25" x="529.5" y="418.9678"/><line style="stroke:#181818;stroke-width:0.25;stroke-dasharray:5.0,5.0;" x1="33" x2="33" y1="51.1211" y2="612.0684"/><line style="stroke:#181818;stroke-width:0.25;stroke-dasharray:5.0,5.0;" x1="182" x2="182" y1="51.1211" y2="612.0684"/><line style="stroke:#181818;stroke-width:0.25;stroke-dasharray:5.0,5.0;" x1="292.5" x2="292.5" y1="51.1211" y2="612.0684"/><line style="stroke:#181818;stroke-width:0.25;stroke-dasharray:5.0,5.0;" x1="359.5" x2="359.5" y1="51.1211" y2="612.0684"/><line style="stroke:#181818;stroke-width:0.25;stroke-dasharray:5.0,5.0;" x1="413" x2="413" y1="51.1211" y2="612.0684"/><line style="stroke:#181818;stroke-width:0.25;stroke-dasharray:5.0,5.0;" x1="486" x2="486" y1="51.1211" y2="612.0684"/><line style="stroke:#181818;stroke-width:0.25;stroke-dasharray:5.0,5.0;" x1="591" x2="591" y1="51.1211" y2="612.0684"/><line style="stroke:#181818;stroke-width:0.25;stroke-dasharray:5.0,5.0;" x1="694.5" x2="694.5" y1="51.1211" y2="612.0684"/><line style="stroke:#181818;stroke-width:0.25;stroke-dasharray:5.0,5.0;" x1="789.75" x2="789.75" y1="51.1211" y2="612.0684"/><line style="stroke:#181818;stroke-width:0.25;stroke-dasharray:5.0,5.0;" x1="875.25" x2="875.25" y1="51.1211" y2="612.0684"/><text fill="#000000" font-family="sans-serif" font-size="7" lengthAdjust="spacing" textLength="58" x="2.5" y="40.0537">Human Resources</text><text fill="#000000" font-family="sans-serif" font-size="7" lengthAdjust="spacing" textLength="28" x="17.5" y="49.3643">Manager</text><ellipse cx="33" cy="6.75" fill="#E3E3E3" rx="4" ry="4" style="stroke:#181818;stroke-width:0.25;"/><path d="M33,10.75 L33,24.25 M26.5,14.75 L39.5,14.75 M33,24.25 L26.5,31.75 M33,24.25 L39.5,31.75 " fill="none" style="stroke:#181818;stroke-width:0.25;"/><text fill="#000000" font-family="sans-serif" font-size="7" lengthAdjust="spacing" textLength="58" x="2.5" y="619.1221">Human Resources</text><text fill="#000000" font-family="sans-serif" font-size="7" lengthAdjust="spacing" textLength="28" x="17.5" y="628.4326">Manager</text><ellipse cx="33" cy="634.4395" fill="#E3E3E3" rx="4" ry="4" style="stroke:#181818;stroke-width:0.25;"/><path d="M33,638.4395 L33,651.9395 M26.5,642.4395 L39.5,642.4395 M33,651.9395 L26.5,659.4395 M33,651.9395 L39.5,659.4395 " fill="none" style="stroke:#181818;stroke-width:0.25;"/><rect fill="#E3E3E3" height="16.3105" rx="1.25" ry="1.25" style="stroke:#181818;stroke-width:0.25;" width="51" x="156.5" y="34.3105"/><text fill="#000000" font-family="sans-serif" font-size="7" lengthAdjust="spacing" textLength="44" x="160" y="45.3643">:RegistSkillsUI</text><rect fill="#E3E3E3" height="16.3105" rx="1.25" ry="1.25" style="stroke:#181818;stroke-width:0.25;" width="51" x="156.5" y="611.5684"/><text fill="#000000" font-family="sans-serif" font-size="7" lengthAdjust="spacing" textLength="44" x="160" y="622.6221">:RegistSkillsUI</text><rect fill="#E3E3E3" height="16.3105" rx="1.25" ry="1.25" style="stroke:#181818;stroke-width:0.25;" width="76" x="254.5" y="34.3105"/><text fill="#000000" font-family="sans-serif" font-size="7" lengthAdjust="spacing" textLength="69" x="258" y="45.3643">:RegistSkillsController</text><rect fill="#E3E3E3" height="16.3105" rx="1.25" ry="1.25" style="stroke:#181818;stroke-width:0.25;" width="76" x="254.5" y="611.5684"/><text fill="#000000" font-family="sans-serif" font-size="7" lengthAdjust="spacing" textLength="69" x="258" y="622.6221">:RegistSkillsController</text><rect fill="#E3E3E3" height="16.3105" rx="1.25" ry="1.25" style="stroke:#181818;stroke-width:0.25;" width="48.5" x="335.5" y="34.3105"/><text fill="#000000" font-family="sans-serif" font-size="7" lengthAdjust="spacing" textLength="41.5" x="339" y="45.3643">:Repositories</text><rect fill="#E3E3E3" height="16.3105" rx="1.25" ry="1.25" style="stroke:#181818;stroke-width:0.25;" width="48.5" x="335.5" y="611.5684"/><text fill="#000000" font-family="sans-serif" font-size="7" lengthAdjust="spacing" textLength="41.5" x="339" y="622.6221">:Repositories</text><rect fill="#E3E3E3" height="25.6211" rx="1.25" ry="1.25" style="stroke:#181818;stroke-width:0.25;" width="48.5" x="389" y="25"/><text fill="#000000" font-family="sans-serif" font-size="7" lengthAdjust="spacing" textLength="37" x="394.75" y="36.0537">repositories</text><text fill="#000000" font-family="sans-serif" font-size="7" lengthAdjust="spacing" textLength="41.5" x="392.5" y="45.3643">:Repositories</text><rect fill="#E3E3E3" height="25.6211" rx="1.25" ry="1.25" style="stroke:#181818;stroke-width:0.25;" width="48.5" x="389" y="611.5684"/><text fill="#000000" font-family="sans-serif" font-size="7" lengthAdjust="spacing" textLength="37" x="394.75" y="622.6221">repositories</text><text fill="#000000" font-family="sans-serif" font-size="7" lengthAdjust="spacing" textLength="41.5" x="392.5" y="631.9326">:Repositories</text><rect fill="#E3E3E3" height="25.6211" rx="1.25" ry="1.25" style="stroke:#181818;stroke-width:0.25;" width="87" x="442.5" y="25"/><text fill="#000000" font-family="sans-serif" font-size="7" lengthAdjust="spacing" textLength="75.5" x="448.25" y="36.0537">registedSkillsRepository</text><text fill="#000000" font-family="sans-serif" font-size="7" lengthAdjust="spacing" textLength="80" x="446" y="45.3643">:RegistedSkillsRepository</text><rect fill="#E3E3E3" height="25.6211" rx="1.25" ry="1.25" style="stroke:#181818;stroke-width:0.25;" width="87" x="442.5" y="611.5684"/><text fill="#000000" font-family="sans-serif" font-size="7" lengthAdjust="spacing" textLength="75.5" x="448.25" y="622.6221">registedSkillsRepository</text><text fill="#000000" font-family="sans-serif" font-size="7" lengthAdjust="spacing" textLength="80" x="446" y="631.9326">:RegistedSkillsRepository</text><rect fill="#E3E3E3" height="25.6211" rx="1.25" ry="1.25" style="stroke:#181818;stroke-width:0.25;" width="113.5" x="534.5" y="25"/><text fill="#000000" font-family="sans-serif" font-size="7" lengthAdjust="spacing" textLength="102" x="540.25" y="36.0537">registedCollaboratorsRepository</text><text fill="#000000" font-family="sans-serif" font-size="7" lengthAdjust="spacing" textLength="106.5" x="538" y="45.3643">:RegistedCollaboratorsRepository</text><rect fill="#E3E3E3" height="25.6211" rx="1.25" ry="1.25" style="stroke:#181818;stroke-width:0.25;" width="113.5" x="534.5" y="611.5684"/><text fill="#000000" font-family="sans-serif" font-size="7" lengthAdjust="spacing" textLength="102" x="540.25" y="622.6221">registedCollaboratorsRepository</text><text fill="#000000" font-family="sans-serif" font-size="7" lengthAdjust="spacing" textLength="106.5" x="538" y="631.9326">:RegistedCollaboratorsRepository</text><rect fill="#E3E3E3" height="25.6211" rx="1.25" ry="1.25" style="stroke:#181818;stroke-width:0.25;" width="83" x="653" y="25"/><text fill="#000000" font-family="sans-serif" font-size="7" lengthAdjust="spacing" textLength="55" x="667" y="36.0537">CollaboratorSkills</text><text fill="#000000" font-family="sans-serif" font-size="7" lengthAdjust="spacing" textLength="76" x="656.5" y="45.3643">:List&lt;CollaboratorSkills&gt;</text><rect fill="#E3E3E3" height="25.6211" rx="1.25" ry="1.25" style="stroke:#181818;stroke-width:0.25;" width="83" x="653" y="611.5684"/><text fill="#000000" font-family="sans-serif" font-size="7" lengthAdjust="spacing" textLength="55" x="667" y="622.6221">CollaboratorSkills</text><text fill="#000000" font-family="sans-serif" font-size="7" lengthAdjust="spacing" textLength="76" x="656.5" y="631.9326">:List&lt;CollaboratorSkills&gt;</text><rect fill="#E3E3E3" height="25.6211" rx="1.25" ry="1.25" style="stroke:#181818;stroke-width:0.25;" width="71.5" x="754.25" y="25"/><text fill="#000000" font-family="sans-serif" font-size="7" lengthAdjust="spacing" textLength="43.5" x="768.25" y="36.0537">SkillsSelected</text><text fill="#000000" font-family="sans-serif" font-size="7" lengthAdjust="spacing" textLength="64.5" x="757.75" y="45.3643">:List&lt;SkillsSelected&gt;</text><rect fill="#E3E3E3" height="25.6211" rx="1.25" ry="1.25" style="stroke:#181818;stroke-width:0.25;" width="71.5" x="754.25" y="611.5684"/><text fill="#000000" font-family="sans-serif" font-size="7" lengthAdjust="spacing" textLength="43.5" x="768.25" y="622.6221">SkillsSelected</text><text fill="#000000" font-family="sans-serif" font-size="7" lengthAdjust="spacing" textLength="64.5" x="757.75" y="631.9326">:List&lt;SkillsSelected&gt;</text><rect fill="#E3E3E3" height="25.6211" rx="1.25" ry="1.25" style="stroke:#181818;stroke-width:0.25;" width="89" x="830.75" y="25"/><text fill="#000000" font-family="sans-serif" font-size="7" lengthAdjust="spacing" textLength="79.5" x="835.5" y="36.0537">proposalTeamRepository</text><text fill="#000000" font-family="sans-serif" font-size="7" lengthAdjust="spacing" textLength="82" x="834.25" y="45.3643">:ProposalTeamRepository</text><rect fill="#E3E3E3" height="25.6211" rx="1.25" ry="1.25" style="stroke:#181818;stroke-width:0.25;" width="89" x="830.75" y="611.5684"/><text fill="#000000" font-family="sans-serif" font-size="7" lengthAdjust="spacing" textLength="79.5" x="835.5" y="622.6221">proposalTeamRepository</text><text fill="#000000" font-family="sans-serif" font-size="7" lengthAdjust="spacing" textLength="82" x="834.25" y="631.9326">:ProposalTeamRepository</text><rect fill="#FFFFFF" height="551.4473" style="stroke:#181818;stroke-width:0.5;" width="5" x="30.5" y="56.1211"/><rect fill="#FFFFFF" height="24.291" style="stroke:#181818;stroke-width:0.5;" width="5" x="179.5" y="67.7666"/><rect fill="#FFFFFF" height="140.8096" style="stroke:#181818;stroke-width:0.5;" width="5" x="179.5" y="116.3486"/><rect fill="#FFFFFF" height="298.9736" style="stroke:#181818;stroke-width:0.5;" width="5" x="179.5" y="272.8037"/><rect fill="#FFFFFF" height="15.6455" style="stroke:#181818;stroke-width:0.5;" width="5" x="179.5" y="587.4229"/><rect fill="#FFFFFF" height="109.5186" style="stroke:#181818;stroke-width:0.5;" width="5" x="290" y="131.9941"/><rect fill="#FFFFFF" height="190.1006" style="stroke:#181818;stroke-width:0.5;" width="5" x="290" y="303.4492"/><rect fill="#FFFFFF" height="46.9365" style="stroke:#181818;stroke-width:0.5;" width="5" x="290" y="509.1953"/><rect fill="#FFFFFF" height="15.6455" style="stroke:#181818;stroke-width:0.5;" width="5" x="357.25" y="147.6396"/><rect fill="#FFFFFF" height="15.6455" style="stroke:#181818;stroke-width:0.5;" width="5" x="410.75" y="178.9307"/><rect fill="#FFFFFF" height="15.6455" style="stroke:#181818;stroke-width:0.5;" width="5" x="483.5" y="210.2217"/><rect fill="#FFFFFF" height="158.8096" style="stroke:#181818;stroke-width:0.5;" width="5" x="588.75" y="319.0947"/><rect fill="#FFFFFF" height="63.582" style="stroke:#181818;stroke-width:0.5;" width="5" x="692" y="347.8857"/><rect fill="#FFFFFF" height="15.6455" style="stroke:#181818;stroke-width:0.5;" width="5" x="787.5" y="376.6768"/><rect fill="#FFFFFF" height="15" style="stroke:#181818;stroke-width:0.5;" width="5" x="872.75" y="440.2588"/><rect fill="#FFFFFF" height="15.6455" style="stroke:#181818;stroke-width:0.5;" width="5" x="872.75" y="524.8408"/><polygon fill="#181818" points="173.5,65.7666,178.5,67.7666,173.5,69.7666,175.5,67.7666" style="stroke:#181818;stroke-width:0.5;"/><line style="stroke:#181818;stroke-width:0.5;" x1="35.5" x2="176.5" y1="67.7666" y2="67.7666"/><text fill="#000000" font-family="sans-serif" font-size="6.5" font-weight="bold" lengthAdjust="spacing" textLength="3.5" x="39" y="65.1353">1</text><text fill="#000000" font-family="sans-serif" font-size="6.5" lengthAdjust="spacing" textLength="97" x="44.5" y="65.1353">asks to generate a team proposal</text><polygon fill="#181818" points="41,90.0576,36,92.0576,41,94.0576,39,92.0576" style="stroke:#181818;stroke-width:0.5;"/><line style="stroke:#181818;stroke-width:0.5;stroke-dasharray:2.0,2.0;" x1="38" x2="181.5" y1="92.0576" y2="92.0576"/><text fill="#000000" font-family="sans-serif" font-size="6.5" font-weight="bold" lengthAdjust="spacing" textLength="3.5" x="44" y="85.1035">2</text><text fill="#000000" font-family="sans-serif" font-size="6.5" lengthAdjust="spacing" textLength="102.5" x="49.5" y="80.7808">requests which is the minimum and</text><text fill="#000000" font-family="sans-serif" font-size="6.5" lengthAdjust="spacing" textLength="114.5" x="51.5" y="89.4263">maximum number of team collaborators</text><polygon fill="#181818" points="173.5,114.3486,178.5,116.3486,173.5,118.3486,175.5,116.3486" style="stroke:#181818;stroke-width:0.5;"/><line style="stroke:#181818;stroke-width:0.5;" x1="35.5" x2="176.5" y1="116.3486" y2="116.3486"/><text fill="#000000" font-family="sans-serif" font-size="6.5" font-weight="bold" lengthAdjust="spacing" textLength="3.5" x="39" y="109.3945">3</text><text fill="#000000" font-family="sans-serif" font-size="6.5" lengthAdjust="spacing" textLength="129" x="44.5" y="105.0718">types the minimum and maximum number of</text><text fill="#000000" font-family="sans-serif" font-size="6.5" lengthAdjust="spacing" textLength="53.5" x="46.5" y="113.7173">team collaborators</text><polygon fill="#181818" points="284,129.9941,289,131.9941,284,133.9941,286,131.9941" style="stroke:#181818;stroke-width:0.5;"/><line style="stroke:#181818;stroke-width:0.5;" x1="184.5" x2="287" y1="131.9941" y2="131.9941"/><text fill="#000000" font-family="sans-serif" font-size="6.5" font-weight="bold" lengthAdjust="spacing" textLength="3.5" x="188" y="129.3628">4</text><text fill="#000000" font-family="sans-serif" font-size="6.5" lengthAdjust="spacing" textLength="65" x="193.5" y="129.3628">getRegistedSkillsList()</text><polygon fill="#181818" points="351.25,145.6396,356.25,147.6396,351.25,149.6396,353.25,147.6396" style="stroke:#181818;stroke-width:0.5;"/><line style="stroke:#181818;stroke-width:0.5;" x1="295" x2="354.25" y1="147.6396" y2="147.6396"/><text fill="#000000" font-family="sans-serif" font-size="6.5" font-weight="bold" lengthAdjust="spacing" textLength="3.5" x="298.5" y="145.0083">5</text><text fill="#000000" font-family="sans-serif" font-size="6.5" lengthAdjust="spacing" textLength="37.5" x="304" y="145.0083">getInstance()</text><polygon fill="#181818" points="300.5,161.2852,295.5,163.2852,300.5,165.2852,298.5,163.2852" style="stroke:#181818;stroke-width:0.5;"/><line style="stroke:#181818;stroke-width:0.5;stroke-dasharray:2.0,2.0;" x1="297.5" x2="359.25" y1="163.2852" y2="163.2852"/><text fill="#000000" font-family="sans-serif" font-size="6.5" font-weight="bold" lengthAdjust="spacing" textLength="3.5" x="303.5" y="160.6538">6</text><text fill="#000000" font-family="sans-serif" font-size="6.5" lengthAdjust="spacing" textLength="33.5" x="309" y="160.6538">repositories</text><polygon fill="#181818" points="404.75,176.9307,409.75,178.9307,404.75,180.9307,406.75,178.9307" style="stroke:#181818;stroke-width:0.5;"/><line style="stroke:#181818;stroke-width:0.5;" x1="295" x2="407.75" y1="178.9307" y2="178.9307"/><text fill="#000000" font-family="sans-serif" font-size="6.5" font-weight="bold" lengthAdjust="spacing" textLength="3.5" x="298.5" y="176.2993">7</text><text fill="#000000" font-family="sans-serif" font-size="6.5" lengthAdjust="spacing" textLength="85.5" x="304" y="176.2993">getRegistedSkillsRepository()</text><polygon fill="#181818" points="300.5,192.5762,295.5,194.5762,300.5,196.5762,298.5,194.5762" style="stroke:#181818;stroke-width:0.5;"/><line style="stroke:#181818;stroke-width:0.5;stroke-dasharray:2.0,2.0;" x1="297.5" x2="412.75" y1="194.5762" y2="194.5762"/><text fill="#000000" font-family="sans-serif" font-size="6.5" font-weight="bold" lengthAdjust="spacing" textLength="3.5" x="303.5" y="191.9448">8</text><text fill="#000000" font-family="sans-serif" font-size="6.5" lengthAdjust="spacing" textLength="70" x="309" y="191.9448">registedSkillsRepository</text><polygon fill="#181818" points="477.5,208.2217,482.5,210.2217,477.5,212.2217,479.5,210.2217" style="stroke:#181818;stroke-width:0.5;"/><line style="stroke:#181818;stroke-width:0.5;" x1="295" x2="480.5" y1="210.2217" y2="210.2217"/><text fill="#000000" font-family="sans-serif" font-size="6.5" font-weight="bold" lengthAdjust="spacing" textLength="3.5" x="298.5" y="207.5903">9</text><text fill="#000000" font-family="sans-serif" font-size="6.5" lengthAdjust="spacing" textLength="65" x="304" y="207.5903">getRegistedSkillsList()</text><polygon fill="#181818" points="300.5,223.8672,295.5,225.8672,300.5,227.8672,298.5,225.8672" style="stroke:#181818;stroke-width:0.5;"/><line style="stroke:#181818;stroke-width:0.5;stroke-dasharray:2.0,2.0;" x1="297.5" x2="485.5" y1="225.8672" y2="225.8672"/><text fill="#000000" font-family="sans-serif" font-size="6.5" font-weight="bold" lengthAdjust="spacing" textLength="7" x="303.5" y="223.2358">10</text><text fill="#000000" font-family="sans-serif" font-size="6.5" lengthAdjust="spacing" textLength="49.5" x="312.5" y="223.2358">registedSkillsList</text><polygon fill="#181818" points="190,239.5127,185,241.5127,190,243.5127,188,241.5127" style="stroke:#181818;stroke-width:0.5;"/><line style="stroke:#181818;stroke-width:0.5;stroke-dasharray:2.0,2.0;" x1="187" x2="292" y1="241.5127" y2="241.5127"/><text fill="#000000" font-family="sans-serif" font-size="6.5" font-weight="bold" lengthAdjust="spacing" textLength="7" x="193" y="238.8813">11</text><text fill="#000000" font-family="sans-serif" font-size="6.5" lengthAdjust="spacing" textLength="49.5" x="202" y="238.8813">registedSkillsList</text><polygon fill="#181818" points="41,255.1582,36,257.1582,41,259.1582,39,257.1582" style="stroke:#181818;stroke-width:0.5;"/><line style="stroke:#181818;stroke-width:0.5;stroke-dasharray:2.0,2.0;" x1="38" x2="181.5" y1="257.1582" y2="257.1582"/><text fill="#000000" font-family="sans-serif" font-size="6.5" font-weight="bold" lengthAdjust="spacing" textLength="7" x="44" y="254.5269">12</text><text fill="#000000" font-family="sans-serif" font-size="6.5" lengthAdjust="spacing" textLength="106.5" x="53" y="254.5269">requests to selects the skills needed</text><polygon fill="#181818" points="173.5,270.8037,178.5,272.8037,173.5,274.8037,175.5,272.8037" style="stroke:#181818;stroke-width:0.5;"/><line style="stroke:#181818;stroke-width:0.5;" x1="35.5" x2="176.5" y1="272.8037" y2="272.8037"/><text fill="#000000" font-family="sans-serif" font-size="6.5" font-weight="bold" lengthAdjust="spacing" textLength="7" x="39" y="270.1724">13</text><text fill="#000000" font-family="sans-serif" font-size="6.5" lengthAdjust="spacing" textLength="49" x="48" y="270.1724">selects the skills</text><polygon fill="#181818" points="284,301.4492,289,303.4492,284,305.4492,286,303.4492" style="stroke:#181818;stroke-width:0.5;"/><line style="stroke:#181818;stroke-width:0.5;" x1="184.5" x2="287" y1="303.4492" y2="303.4492"/><text fill="#000000" font-family="sans-serif" font-size="6.5" font-weight="bold" lengthAdjust="spacing" textLength="7" x="188" y="300.8179">14</text><text fill="#000000" font-family="sans-serif" font-size="6.5" lengthAdjust="spacing" textLength="87" x="197" y="300.8179">getRegistedCollaboratorsList()</text><polygon fill="#181818" points="582.75,317.0947,587.75,319.0947,582.75,321.0947,584.75,319.0947" style="stroke:#181818;stroke-width:0.5;"/><line style="stroke:#181818;stroke-width:0.5;" x1="295" x2="585.75" y1="319.0947" y2="319.0947"/><text fill="#000000" font-family="sans-serif" font-size="6.5" font-weight="bold" lengthAdjust="spacing" textLength="7" x="298.5" y="316.4634">15</text><text fill="#000000" font-family="sans-serif" font-size="6.5" lengthAdjust="spacing" textLength="87" x="307.5" y="316.4634">getRegistedCollaboratorsList()</text><path d="M524.5,326.5947 L561,326.5947 L561,331.2402 L556,336.2402 L524.5,336.2402 L524.5,326.5947 " fill="#EEEEEE" style="stroke:#000000;stroke-width:0.75;"/><rect fill="none" height="136.1641" style="stroke:#000000;stroke-width:0.75;" width="405.25" x="524.5" y="326.5947"/><text fill="#000000" font-family="sans-serif" font-size="6.5" font-weight="bold" lengthAdjust="spacing" textLength="14" x="532" y="334.1089">loop</text><text fill="#000000" font-family="sans-serif" font-size="5.5" font-weight="bold" lengthAdjust="spacing" textLength="61" x="568.5" y="333.5298">[for each collaborator]</text><polygon fill="#181818" points="686,345.8857,691,347.8857,686,349.8857,688,347.8857" style="stroke:#181818;stroke-width:0.5;"/><line style="stroke:#181818;stroke-width:0.5;" x1="593.75" x2="689" y1="347.8857" y2="347.8857"/><text fill="#000000" font-family="sans-serif" font-size="6.5" font-weight="bold" lengthAdjust="spacing" textLength="7" x="597.25" y="345.2544">16</text><text fill="#000000" font-family="sans-serif" font-size="6.5" lengthAdjust="spacing" textLength="74" x="606.25" y="345.2544">getCollaboratorSkillsList()</text><path d="M648,355.3857 L684.5,355.3857 L684.5,360.0313 L679.5,365.0313 L648,365.0313 L648,355.3857 " fill="#EEEEEE" style="stroke:#000000;stroke-width:0.75;"/><rect fill="none" height="40.9365" style="stroke:#000000;stroke-width:0.75;" width="182.75" x="648" y="355.3857"/><text fill="#000000" font-family="sans-serif" font-size="6.5" font-weight="bold" lengthAdjust="spacing" textLength="14" x="655.5" y="362.8999">loop</text><text fill="#000000" font-family="sans-serif" font-size="5.5" font-weight="bold" lengthAdjust="spacing" textLength="94" x="692" y="362.3208">[for each Skill of that Collaborator]</text><polygon fill="#181818" points="781.5,374.6768,786.5,376.6768,781.5,378.6768,783.5,376.6768" style="stroke:#181818;stroke-width:0.5;"/><line style="stroke:#181818;stroke-width:0.5;" x1="697" x2="784.5" y1="376.6768" y2="376.6768"/><text fill="#000000" font-family="sans-serif" font-size="6.5" font-weight="bold" lengthAdjust="spacing" textLength="7" x="700.5" y="374.0454">17</text><text fill="#000000" font-family="sans-serif" font-size="6.5" lengthAdjust="spacing" textLength="72" x="709.5" y="374.0454">e = equalSkill(skillName)</text><polygon fill="#181818" points="702.5,390.3223,697.5,392.3223,702.5,394.3223,700.5,392.3223" style="stroke:#181818;stroke-width:0.5;"/><line style="stroke:#181818;stroke-width:0.5;stroke-dasharray:2.0,2.0;" x1="699.5" x2="789.5" y1="392.3223" y2="392.3223"/><text fill="#000000" font-family="sans-serif" font-size="6.5" font-weight="bold" lengthAdjust="spacing" textLength="7" x="705.5" y="389.6909">18</text><text fill="#000000" font-family="sans-serif" font-size="6.5" lengthAdjust="spacing" textLength="26.5" x="714.5" y="389.6909">true/false</text><polygon fill="#181818" points="599.25,409.4678,594.25,411.4678,599.25,413.4678,597.25,411.4678" style="stroke:#181818;stroke-width:0.5;"/><line style="stroke:#181818;stroke-width:0.5;stroke-dasharray:2.0,2.0;" x1="596.25" x2="694" y1="411.4678" y2="411.4678"/><text fill="#000000" font-family="sans-serif" font-size="6.5" font-weight="bold" lengthAdjust="spacing" textLength="7" x="602.25" y="408.8364">19</text><text fill="#000000" font-family="sans-serif" font-size="6.5" lengthAdjust="spacing" textLength="26.5" x="611.25" y="408.8364">true/false</text><path d="M529.5,418.9678 L562,418.9678 L562,423.6133 L557,428.6133 L529.5,428.6133 L529.5,418.9678 " fill="#EEEEEE" style="stroke:#000000;stroke-width:0.75;"/><rect fill="none" height="40.291" style="stroke:#000000;stroke-width:0.75;" width="395.25" x="529.5" y="418.9678"/><text fill="#000000" font-family="sans-serif" font-size="6.5" font-weight="bold" lengthAdjust="spacing" textLength="10" x="537" y="426.4819">opt</text><text fill="#000000" font-family="sans-serif" font-size="5.5" font-weight="bold" lengthAdjust="spacing" textLength="25" x="569.5" y="425.9028">[e = true]</text><polygon fill="#181818" points="866.75,438.2588,871.75,440.2588,866.75,442.2588,868.75,440.2588" style="stroke:#181818;stroke-width:0.5;"/><line style="stroke:#181818;stroke-width:0.5;" x1="593.75" x2="869.75" y1="440.2588" y2="440.2588"/><text fill="#000000" font-family="sans-serif" font-size="6.5" font-weight="bold" lengthAdjust="spacing" textLength="7" x="597.25" y="437.6274">20</text><text fill="#000000" font-family="sans-serif" font-size="6.5" lengthAdjust="spacing" textLength="49.5" x="606.25" y="437.6274">add(colllaborator)</text><polygon fill="#181818" points="300.5,475.9043,295.5,477.9043,300.5,479.9043,298.5,477.9043" style="stroke:#181818;stroke-width:0.5;"/><line style="stroke:#181818;stroke-width:0.5;stroke-dasharray:2.0,2.0;" x1="297.5" x2="590.75" y1="477.9043" y2="477.9043"/><text fill="#000000" font-family="sans-serif" font-size="6.5" font-weight="bold" lengthAdjust="spacing" textLength="7" x="303.5" y="475.2729">21</text><text fill="#000000" font-family="sans-serif" font-size="6.5" lengthAdjust="spacing" textLength="2" x="312.5" y="475.2729">&#160;</text><polygon fill="#181818" points="190,491.5498,185,493.5498,190,495.5498,188,493.5498" style="stroke:#181818;stroke-width:0.5;"/><line style="stroke:#181818;stroke-width:0.5;stroke-dasharray:2.0,2.0;" x1="187" x2="292" y1="493.5498" y2="493.5498"/><text fill="#000000" font-family="sans-serif" font-size="6.5" font-weight="bold" lengthAdjust="spacing" textLength="7" x="193" y="490.9185">22</text><text fill="#000000" font-family="sans-serif" font-size="6.5" lengthAdjust="spacing" textLength="2" x="202" y="490.9185">&#160;</text><polygon fill="#181818" points="284,507.1953,289,509.1953,284,511.1953,286,509.1953" style="stroke:#181818;stroke-width:0.5;"/><line style="stroke:#181818;stroke-width:0.5;" x1="184.5" x2="287" y1="509.1953" y2="509.1953"/><text fill="#000000" font-family="sans-serif" font-size="6.5" font-weight="bold" lengthAdjust="spacing" textLength="7" x="188" y="506.564">23</text><text fill="#000000" font-family="sans-serif" font-size="6.5" lengthAdjust="spacing" textLength="54.5" x="197" y="506.564">getProposalTeam()</text><polygon fill="#181818" points="866.75,522.8408,871.75,524.8408,866.75,526.8408,868.75,524.8408" style="stroke:#181818;stroke-width:0.5;"/><line style="stroke:#181818;stroke-width:0.5;" x1="295" x2="869.75" y1="524.8408" y2="524.8408"/><text fill="#000000" font-family="sans-serif" font-size="6.5" font-weight="bold" lengthAdjust="spacing" textLength="7" x="298.5" y="522.2095">24</text><text fill="#000000" font-family="sans-serif" font-size="6.5" lengthAdjust="spacing" textLength="54.5" x="307.5" y="522.2095">getProposalTeam()</text><polygon fill="#181818" points="300.5,538.4863,295.5,540.4863,300.5,542.4863,298.5,540.4863" style="stroke:#181818;stroke-width:0.5;"/><line style="stroke:#181818;stroke-width:0.5;stroke-dasharray:2.0,2.0;" x1="297.5" x2="874.75" y1="540.4863" y2="540.4863"/><text fill="#000000" font-family="sans-serif" font-size="6.5" font-weight="bold" lengthAdjust="spacing" textLength="7" x="303.5" y="537.855">25</text><text fill="#000000" font-family="sans-serif" font-size="6.5" lengthAdjust="spacing" textLength="40.5" x="312.5" y="537.855">proposalTeam</text><polygon fill="#181818" points="190,554.1318,185,556.1318,190,558.1318,188,556.1318" style="stroke:#181818;stroke-width:0.5;"/><line style="stroke:#181818;stroke-width:0.5;stroke-dasharray:2.0,2.0;" x1="187" x2="292" y1="556.1318" y2="556.1318"/><text fill="#000000" font-family="sans-serif" font-size="6.5" font-weight="bold" lengthAdjust="spacing" textLength="7" x="193" y="553.5005">26</text><text fill="#000000" font-family="sans-serif" font-size="6.5" lengthAdjust="spacing" textLength="40.5" x="202" y="553.5005">proposalTeam</text><polygon fill="#181818" points="41,569.7773,36,571.7773,41,573.7773,39,571.7773" style="stroke:#181818;stroke-width:0.5;"/><line style="stroke:#181818;stroke-width:0.5;stroke-dasharray:2.0,2.0;" x1="38" x2="181.5" y1="571.7773" y2="571.7773"/><text fill="#000000" font-family="sans-serif" font-size="6.5" font-weight="bold" lengthAdjust="spacing" textLength="7" x="44" y="569.146">27</text><text fill="#000000" font-family="sans-serif" font-size="6.5" lengthAdjust="spacing" textLength="108" x="53" y="569.146">shows and aks to confirm all the data</text><polygon fill="#181818" points="173.5,585.4229,178.5,587.4229,173.5,589.4229,175.5,587.4229" style="stroke:#181818;stroke-width:0.5;"/><line style="stroke:#181818;stroke-width:0.5;" x1="35.5" x2="176.5" y1="587.4229" y2="587.4229"/><text fill="#000000" font-family="sans-serif" font-size="6.5" font-weight="bold" lengthAdjust="spacing" textLength="7" x="39" y="584.7915">28</text><text fill="#000000" font-family="sans-serif" font-size="6.5" lengthAdjust="spacing" textLength="58.5" x="48" y="584.7915">confirms all the data</text><polygon fill="#181818" points="41,601.0684,36,603.0684,41,605.0684,39,603.0684" style="stroke:#181818;stroke-width:0.5;"/><line style="stroke:#181818;stroke-width:0.5;stroke-dasharray:2.0,2.0;" x1="38" x2="181.5" y1="603.0684" y2="603.0684"/><text fill="#000000" font-family="sans-serif" font-size="6.5" font-weight="bold" lengthAdjust="spacing" textLength="7" x="44" y="600.437">29</text><text fill="#000000" font-family="sans-serif" font-size="6.5" lengthAdjust="spacing" textLength="79" x="53" y="600.437">displays operation success</text><!--SRC=[bLTDRzim3BthLn0zjOTWs3Ne2WozD42x5KbxwqMrcLY8BNcMl2x_VfGKEr8inQqFGMAHZuyKlwBtGhQyumqqIggYwbI3OBeUcHvFMbxi-Gutvb0ZT5WOBdTrAA0hNgeF8NUmvRL6ndXXL0TN3tt39QnHgxuhKB_99ou9gBi2hk5X_SH8tOX2j5mQk5gkSIUqsUn5NUlNbHDwNLsGkLVITAgkZu3tB-l7YNIhj20k0hMJ6LySDi8wOPICLRf0uqrE0PuVVxwSQrX6M7fE9mDEEtrqf98-JAFVav_yNNMSHD96CXAHhOnCR38KykJ8oYFftqvFxdpa9-zZHFzkWpNb3fO3MlpM8zc3tzlu9CPgEqMqUVs2l8dYy9myy9UMFA8qxUd- - -OTE_ZkabRyvGPTPZBwWCKT9I0i2MAlmIZOeSJEId0mQ0lZYCk0db6TSfQHseAqBSYIIkPFZzfe-AX4KO4Wh0gX4L8qVGDSKaIWuV_ShoCTjVKMYl32M8cHaOYZERGu0Px2aga4S9B_dQke9NbjuborbtHz4mJCLPu3iT-iPgBEm26jfARsKI3fZ-gfecGfXCN8AIpJC2n9g92OhLz8-7HI39cvQcTE9xITATo0XrUC8vBMWdo00wyo5baMTQ0BvtmjTXon7BPdFkJNPHIV0UcifyBHhfHzUce701AnfDe-IsaRiJ2hfueiaazII2HkrFW-bRyN6oRCWa_YcskzpcojL0jR6fdaJXNLfZiUdZbMrlD9A_PSf- -FH0ViKp2cpJmY4NDr4gvTLTn4kf7Iy2Je4UbKroVQ23-0aeZNxkJQtVyltk3D17eadvmVx1CiRXUB70sx3NtpYyqvK91-ISkXBChJxxcBj6oIDvdW4fR0XQjJhN41TRlTLxCgFK3jP2pBQvkkes9yDwT-c9x0cLZcvdKOog_ux-HdtHpwHgexPgitxfAp_IZqRAO5PMC-XPaDN0Oh61BXMiK-SHNnSCXfUw_YkQ0hzQ7TSiBzLbKekHKTxIlKI6oVBxdXvtCXd0b7UHqhvDUlKkYsvWTD9M2tDq6BXEuB-ZyoMQZ-0m00]--></g></svg>