<?xml version="1.0" encoding="us-ascii" standalone="no"?><svg xmlns="http://www.w3.org/2000/svg" xmlns:xlink="http://www.w3.org/1999/xlink" contentStyleType="text/css" height="1365px" preserveAspectRatio="none" style="width:1009px;height:1365px;background:#FFFFFF;" version="1.1" viewBox="0 0 1009 1365" width="1009px" zoomAndPan="magnify"><defs/><g><!--class GenerateTeamProposalUI--><g id="elem_GenerateTeamProposalUI"><rect codeLine="8" fill="#F1F1F1" height="48" id="GenerateTeamProposalUI" rx="2.5" ry="2.5" style="stroke:#181818;stroke-width:0.5;" width="196" x="7" y="63"/><ellipse cx="22" cy="79" fill="#ADD1B2" rx="11" ry="11" style="stroke:#181818;stroke-width:1.0;"/><path d="M24.7656,74.875 Q24.9219,74.6563 25.1094,74.5469 Q25.2969,74.4375 25.5156,74.4375 Q25.8906,74.4375 26.125,74.7031 Q26.3594,74.9531 26.3594,75.5625 L26.3594,77.0156 Q26.3594,77.625 26.125,77.8906 Q25.8906,78.1563 25.5156,78.1563 Q25.1719,78.1563 24.9688,77.9531 Q24.7656,77.7656 24.6563,77.25 Q24.6094,76.8906 24.4219,76.7031 Q24.0938,76.3281 23.4844,76.1094 Q22.875,75.8906 22.25,75.8906 Q21.4844,75.8906 20.8438,76.2188 Q20.2188,76.5469 19.7188,77.2969 Q19.2344,78.0469 19.2344,79.0781 L19.2344,80.1719 Q19.2344,81.4063 20.125,82.2344 Q21.0156,83.0469 22.6094,83.0469 Q23.5469,83.0469 24.2031,82.7969 Q24.5938,82.6406 25.0156,82.2031 Q25.2813,81.9375 25.4219,81.8594 Q25.5781,81.7813 25.7813,81.7813 Q26.1094,81.7813 26.3594,82.0469 Q26.625,82.2969 26.625,82.6406 Q26.625,82.9844 26.2813,83.3906 Q25.7813,83.9688 24.9844,84.2969 Q23.9063,84.75 22.6094,84.75 Q21.0938,84.75 19.8906,84.125 Q18.9063,83.625 18.2188,82.5625 Q17.5313,81.4844 17.5313,80.2031 L17.5313,79.0469 Q17.5313,77.7188 18.1406,76.5781 Q18.7656,75.4219 19.8594,74.8125 Q20.9531,74.1875 22.1875,74.1875 Q22.9219,74.1875 23.5625,74.3594 Q24.2188,74.5156 24.7656,74.875 Z " fill="#000000"/><text fill="#000000" font-family="sans-serif" font-size="14" lengthAdjust="spacing" textLength="164" x="36" y="84.7969">GenerateTeamProposalUI</text><line style="stroke:#181818;stroke-width:0.5;" x1="8" x2="202" y1="95" y2="95"/><line style="stroke:#181818;stroke-width:0.5;" x1="8" x2="202" y1="103" y2="103"/></g><!--class GenerateTeamProposalController--><g id="elem_GenerateTeamProposalController"><rect codeLine="11" fill="#F1F1F1" height="159.7266" id="GenerateTeamProposalController" rx="2.5" ry="2.5" style="stroke:#181818;stroke-width:0.5;" width="617" x="238.5" y="7"/><ellipse cx="435.75" cy="23" fill="#ADD1B2" rx="11" ry="11" style="stroke:#181818;stroke-width:1.0;"/><path d="M438.5156,18.875 Q438.6719,18.6563 438.8594,18.5469 Q439.0469,18.4375 439.2656,18.4375 Q439.6406,18.4375 439.875,18.7031 Q440.1094,18.9531 440.1094,19.5625 L440.1094,21.0156 Q440.1094,21.625 439.875,21.8906 Q439.6406,22.1563 439.2656,22.1563 Q438.9219,22.1563 438.7188,21.9531 Q438.5156,21.7656 438.4063,21.25 Q438.3594,20.8906 438.1719,20.7031 Q437.8438,20.3281 437.2344,20.1094 Q436.625,19.8906 436,19.8906 Q435.2344,19.8906 434.5938,20.2188 Q433.9688,20.5469 433.4688,21.2969 Q432.9844,22.0469 432.9844,23.0781 L432.9844,24.1719 Q432.9844,25.4063 433.875,26.2344 Q434.7656,27.0469 436.3594,27.0469 Q437.2969,27.0469 437.9531,26.7969 Q438.3438,26.6406 438.7656,26.2031 Q439.0313,25.9375 439.1719,25.8594 Q439.3281,25.7813 439.5313,25.7813 Q439.8594,25.7813 440.1094,26.0469 Q440.375,26.2969 440.375,26.6406 Q440.375,26.9844 440.0313,27.3906 Q439.5313,27.9688 438.7344,28.2969 Q437.6563,28.75 436.3594,28.75 Q434.8438,28.75 433.6406,28.125 Q432.6563,27.625 431.9688,26.5625 Q431.2813,25.4844 431.2813,24.2031 L431.2813,23.0469 Q431.2813,21.7188 431.8906,20.5781 Q432.5156,19.4219 433.6094,18.8125 Q434.7031,18.1875 435.9375,18.1875 Q436.6719,18.1875 437.3125,18.3594 Q437.9688,18.5156 438.5156,18.875 Z " fill="#000000"/><text fill="#000000" font-family="sans-serif" font-size="14" lengthAdjust="spacing" textLength="214" x="456.25" y="28.7969">GenerateTeamProposalController</text><line style="stroke:#181818;stroke-width:0.5;" x1="239.5" x2="854.5" y1="39" y2="39"/><text fill="#000000" font-family="sans-serif" font-size="14" lengthAdjust="spacing" textLength="157" x="244.5" y="58.1074">-List&lt;Skill&gt; skillsSelected</text><line style="stroke:#181818;stroke-width:0.5;" x1="239.5" x2="854.5" y1="65.6211" y2="65.6211"/><text fill="#000000" font-family="sans-serif" font-size="14" lengthAdjust="spacing" textLength="605" x="244.5" y="84.7285">+GenerateTeamProposalController(SkillsRepository, CollaboratorsRepository, TeamRepository)</text><text fill="#000000" font-family="sans-serif" font-size="14" lengthAdjust="spacing" textLength="92" x="244.5" y="103.3496">+getSkillsList()</text><text fill="#000000" font-family="sans-serif" font-size="14" lengthAdjust="spacing" textLength="145" x="244.5" y="121.9707">+getCollaboratorsList()</text><text fill="#000000" font-family="sans-serif" font-size="14" lengthAdjust="spacing" textLength="170" x="244.5" y="140.5918">+getCollaboratorSkillsList()</text><text fill="#000000" font-family="sans-serif" font-size="14" lengthAdjust="spacing" textLength="71" x="244.5" y="159.2129">-getTeam()</text></g><!--class Collaborator--><g id="elem_Collaborator"><rect codeLine="20" fill="#F1F1F1" height="252.832" id="Collaborator" rx="2.5" ry="2.5" style="stroke:#181818;stroke-width:0.5;" width="531" x="125.5" y="795"/><ellipse cx="347.75" cy="811" fill="#ADD1B2" rx="11" ry="11" style="stroke:#181818;stroke-width:1.0;"/><path d="M350.5156,806.875 Q350.6719,806.6563 350.8594,806.5469 Q351.0469,806.4375 351.2656,806.4375 Q351.6406,806.4375 351.875,806.7031 Q352.1094,806.9531 352.1094,807.5625 L352.1094,809.0156 Q352.1094,809.625 351.875,809.8906 Q351.6406,810.1563 351.2656,810.1563 Q350.9219,810.1563 350.7188,809.9531 Q350.5156,809.7656 350.4063,809.25 Q350.3594,808.8906 350.1719,808.7031 Q349.8438,808.3281 349.2344,808.1094 Q348.625,807.8906 348,807.8906 Q347.2344,807.8906 346.5938,808.2188 Q345.9688,808.5469 345.4688,809.2969 Q344.9844,810.0469 344.9844,811.0781 L344.9844,812.1719 Q344.9844,813.4063 345.875,814.2344 Q346.7656,815.0469 348.3594,815.0469 Q349.2969,815.0469 349.9531,814.7969 Q350.3438,814.6406 350.7656,814.2031 Q351.0313,813.9375 351.1719,813.8594 Q351.3281,813.7813 351.5313,813.7813 Q351.8594,813.7813 352.1094,814.0469 Q352.375,814.2969 352.375,814.6406 Q352.375,814.9844 352.0313,815.3906 Q351.5313,815.9688 350.7344,816.2969 Q349.6563,816.75 348.3594,816.75 Q346.8438,816.75 345.6406,816.125 Q344.6563,815.625 343.9688,814.5625 Q343.2813,813.4844 343.2813,812.2031 L343.2813,811.0469 Q343.2813,809.7188 343.8906,808.5781 Q344.5156,807.4219 345.6094,806.8125 Q346.7031,806.1875 347.9375,806.1875 Q348.6719,806.1875 349.3125,806.3594 Q349.9688,806.5156 350.5156,806.875 Z " fill="#000000"/><text fill="#000000" font-family="sans-serif" font-size="14" lengthAdjust="spacing" textLength="78" x="368.25" y="816.7969">Collaborator</text><line style="stroke:#181818;stroke-width:0.5;" x1="126.5" x2="655.5" y1="827" y2="827"/><text fill="#000000" font-family="sans-serif" font-size="14" lengthAdjust="spacing" textLength="81" x="131.5" y="846.1074">-String name</text><text fill="#000000" font-family="sans-serif" font-size="14" lengthAdjust="spacing" textLength="98" x="131.5" y="864.7285">-Date bornDate</text><text fill="#000000" font-family="sans-serif" font-size="14" lengthAdjust="spacing" textLength="96" x="131.5" y="883.3496">-Date admDate</text><text fill="#000000" font-family="sans-serif" font-size="14" lengthAdjust="spacing" textLength="113" x="131.5" y="901.9707">-int phoneNumber</text><text fill="#000000" font-family="sans-serif" font-size="14" lengthAdjust="spacing" textLength="79" x="131.5" y="920.5918">-String email</text><text fill="#000000" font-family="sans-serif" font-size="14" lengthAdjust="spacing" textLength="66" x="131.5" y="939.2129">-int idCard</text><text fill="#000000" font-family="sans-serif" font-size="14" lengthAdjust="spacing" textLength="84" x="131.5" y="957.834">-int idNumber</text><text fill="#000000" font-family="sans-serif" font-size="14" lengthAdjust="spacing" textLength="102" x="131.5" y="976.4551">-List&lt;Skill&gt; skills</text><line style="stroke:#181818;stroke-width:0.5;" x1="126.5" x2="655.5" y1="983.9688" y2="983.9688"/><text fill="#000000" font-family="sans-serif" font-size="14" lengthAdjust="spacing" textLength="519" x="131.5" y="1003.0762">+Collaborator(name, bornDate, admDate, phoneNumber, email, idCard, idNumber)</text><text fill="#000000" font-family="sans-serif" font-size="14" lengthAdjust="spacing" textLength="120" x="131.5" y="1021.6973">+void addSkill(skill)</text><text fill="#000000" font-family="sans-serif" font-size="14" lengthAdjust="spacing" textLength="143" x="131.5" y="1040.3184">+void removeSkill(skill)</text></g><!--class Repositories--><g id="elem_Repositories"><rect codeLine="35" fill="#F1F1F1" height="141.1055" id="Repositories" rx="2.5" ry="2.5" style="stroke:#181818;stroke-width:0.5;" width="203" x="445.5" y="246"/><ellipse cx="503.25" cy="262" fill="#ADD1B2" rx="11" ry="11" style="stroke:#181818;stroke-width:1.0;"/><path d="M506.0156,257.875 Q506.1719,257.6563 506.3594,257.5469 Q506.5469,257.4375 506.7656,257.4375 Q507.1406,257.4375 507.375,257.7031 Q507.6094,257.9531 507.6094,258.5625 L507.6094,260.0156 Q507.6094,260.625 507.375,260.8906 Q507.1406,261.1563 506.7656,261.1563 Q506.4219,261.1563 506.2188,260.9531 Q506.0156,260.7656 505.9063,260.25 Q505.8594,259.8906 505.6719,259.7031 Q505.3438,259.3281 504.7344,259.1094 Q504.125,258.8906 503.5,258.8906 Q502.7344,258.8906 502.0938,259.2188 Q501.4688,259.5469 500.9688,260.2969 Q500.4844,261.0469 500.4844,262.0781 L500.4844,263.1719 Q500.4844,264.4063 501.375,265.2344 Q502.2656,266.0469 503.8594,266.0469 Q504.7969,266.0469 505.4531,265.7969 Q505.8438,265.6406 506.2656,265.2031 Q506.5313,264.9375 506.6719,264.8594 Q506.8281,264.7813 507.0313,264.7813 Q507.3594,264.7813 507.6094,265.0469 Q507.875,265.2969 507.875,265.6406 Q507.875,265.9844 507.5313,266.3906 Q507.0313,266.9688 506.2344,267.2969 Q505.1563,267.75 503.8594,267.75 Q502.3438,267.75 501.1406,267.125 Q500.1563,266.625 499.4688,265.5625 Q498.7813,264.4844 498.7813,263.2031 L498.7813,262.0469 Q498.7813,260.7188 499.3906,259.5781 Q500.0156,258.4219 501.1094,257.8125 Q502.2031,257.1875 503.4375,257.1875 Q504.1719,257.1875 504.8125,257.3594 Q505.4688,257.5156 506.0156,257.875 Z " fill="#000000"/><text fill="#000000" font-family="sans-serif" font-size="14" lengthAdjust="spacing" textLength="79" x="523.75" y="267.7969">Repositories</text><line style="stroke:#181818;stroke-width:0.5;" x1="446.5" x2="647.5" y1="278" y2="278"/><line style="stroke:#181818;stroke-width:0.5;" x1="446.5" x2="647.5" y1="286" y2="286"/><text fill="#000000" font-family="sans-serif" font-size="14" lengthAdjust="spacing" textLength="94" x="451.5" y="305.1074">-Repositories()</text><text fill="#000000" font-family="sans-serif" font-size="14" lengthAdjust="spacing" textLength="182" x="451.5" y="323.7285">+getInstance() : Repositories</text><text fill="#000000" font-family="sans-serif" font-size="14" lengthAdjust="spacing" textLength="138" x="451.5" y="342.3496">+getSkillsRepository()</text><text fill="#000000" font-family="sans-serif" font-size="14" lengthAdjust="spacing" textLength="191" x="451.5" y="360.9707">+getCollaboratorsRepository()</text><text fill="#000000" font-family="sans-serif" font-size="14" lengthAdjust="spacing" textLength="142" x="451.5" y="379.5918">+getTeamRepository()</text></g><!--class CollaboratorsRepository--><g id="elem_CollaboratorsRepository"><rect codeLine="43" fill="#F1F1F1" height="66.6211" id="CollaboratorsRepository" rx="2.5" ry="2.5" style="stroke:#181818;stroke-width:0.5;" width="185" x="529.5" y="630.5"/><ellipse cx="544.5" cy="646.5" fill="#ADD1B2" rx="11" ry="11" style="stroke:#181818;stroke-width:1.0;"/><path d="M547.2656,642.375 Q547.4219,642.1563 547.6094,642.0469 Q547.7969,641.9375 548.0156,641.9375 Q548.3906,641.9375 548.625,642.2031 Q548.8594,642.4531 548.8594,643.0625 L548.8594,644.5156 Q548.8594,645.125 548.625,645.3906 Q548.3906,645.6563 548.0156,645.6563 Q547.6719,645.6563 547.4688,645.4531 Q547.2656,645.2656 547.1563,644.75 Q547.1094,644.3906 546.9219,644.2031 Q546.5938,643.8281 545.9844,643.6094 Q545.375,643.3906 544.75,643.3906 Q543.9844,643.3906 543.3438,643.7188 Q542.7188,644.0469 542.2188,644.7969 Q541.7344,645.5469 541.7344,646.5781 L541.7344,647.6719 Q541.7344,648.9063 542.625,649.7344 Q543.5156,650.5469 545.1094,650.5469 Q546.0469,650.5469 546.7031,650.2969 Q547.0938,650.1406 547.5156,649.7031 Q547.7813,649.4375 547.9219,649.3594 Q548.0781,649.2813 548.2813,649.2813 Q548.6094,649.2813 548.8594,649.5469 Q549.125,649.7969 549.125,650.1406 Q549.125,650.4844 548.7813,650.8906 Q548.2813,651.4688 547.4844,651.7969 Q546.4063,652.25 545.1094,652.25 Q543.5938,652.25 542.3906,651.625 Q541.4063,651.125 540.7188,650.0625 Q540.0313,648.9844 540.0313,647.7031 L540.0313,646.5469 Q540.0313,645.2188 540.6406,644.0781 Q541.2656,642.9219 542.3594,642.3125 Q543.4531,641.6875 544.6875,641.6875 Q545.4219,641.6875 546.0625,641.8594 Q546.7188,642.0156 547.2656,642.375 Z " fill="#000000"/><text fill="#000000" font-family="sans-serif" font-size="14" lengthAdjust="spacing" textLength="153" x="558.5" y="652.2969">CollaboratorsRepository</text><line style="stroke:#181818;stroke-width:0.5;" x1="530.5" x2="713.5" y1="662.5" y2="662.5"/><line style="stroke:#181818;stroke-width:0.5;" x1="530.5" x2="713.5" y1="670.5" y2="670.5"/><text fill="#000000" font-family="sans-serif" font-size="14" lengthAdjust="spacing" textLength="145" x="535.5" y="689.6074">+getCollaboratorsList()</text></g><!--class CollaboratorSkills--><g id="elem_CollaboratorSkills"><rect codeLine="47" fill="#F1F1F1" height="66.6211" id="CollaboratorSkills" rx="2.5" ry="2.5" style="stroke:#181818;stroke-width:0.5;" width="182" x="271" y="1127"/><ellipse cx="304" cy="1143" fill="#ADD1B2" rx="11" ry="11" style="stroke:#181818;stroke-width:1.0;"/><path d="M306.7656,1138.875 Q306.9219,1138.6563 307.1094,1138.5469 Q307.2969,1138.4375 307.5156,1138.4375 Q307.8906,1138.4375 308.125,1138.7031 Q308.3594,1138.9531 308.3594,1139.5625 L308.3594,1141.0156 Q308.3594,1141.625 308.125,1141.8906 Q307.8906,1142.1563 307.5156,1142.1563 Q307.1719,1142.1563 306.9688,1141.9531 Q306.7656,1141.7656 306.6563,1141.25 Q306.6094,1140.8906 306.4219,1140.7031 Q306.0938,1140.3281 305.4844,1140.1094 Q304.875,1139.8906 304.25,1139.8906 Q303.4844,1139.8906 302.8438,1140.2188 Q302.2188,1140.5469 301.7188,1141.2969 Q301.2344,1142.0469 301.2344,1143.0781 L301.2344,1144.1719 Q301.2344,1145.4063 302.125,1146.2344 Q303.0156,1147.0469 304.6094,1147.0469 Q305.5469,1147.0469 306.2031,1146.7969 Q306.5938,1146.6406 307.0156,1146.2031 Q307.2813,1145.9375 307.4219,1145.8594 Q307.5781,1145.7813 307.7813,1145.7813 Q308.1094,1145.7813 308.3594,1146.0469 Q308.625,1146.2969 308.625,1146.6406 Q308.625,1146.9844 308.2813,1147.3906 Q307.7813,1147.9688 306.9844,1148.2969 Q305.9063,1148.75 304.6094,1148.75 Q303.0938,1148.75 301.8906,1148.125 Q300.9063,1147.625 300.2188,1146.5625 Q299.5313,1145.4844 299.5313,1144.2031 L299.5313,1143.0469 Q299.5313,1141.7188 300.1406,1140.5781 Q300.7656,1139.4219 301.8594,1138.8125 Q302.9531,1138.1875 304.1875,1138.1875 Q304.9219,1138.1875 305.5625,1138.3594 Q306.2188,1138.5156 306.7656,1138.875 Z " fill="#000000"/><text fill="#000000" font-family="sans-serif" font-size="14" lengthAdjust="spacing" textLength="110" x="322" y="1148.7969">CollaboratorSkills</text><line style="stroke:#181818;stroke-width:0.5;" x1="272" x2="452" y1="1159" y2="1159"/><line style="stroke:#181818;stroke-width:0.5;" x1="272" x2="452" y1="1167" y2="1167"/><text fill="#000000" font-family="sans-serif" font-size="14" lengthAdjust="spacing" textLength="170" x="277" y="1186.1074">+getCollaboratorSkillsList()</text></g><!--class SkillsRepository--><g id="elem_SkillsRepository"><rect codeLine="51" fill="#F1F1F1" height="66.6211" id="SkillsRepository" rx="2.5" ry="2.5" style="stroke:#181818;stroke-width:0.5;" width="132" x="707" y="466"/><ellipse cx="722" cy="482" fill="#ADD1B2" rx="11" ry="11" style="stroke:#181818;stroke-width:1.0;"/><path d="M724.7656,477.875 Q724.9219,477.6563 725.1094,477.5469 Q725.2969,477.4375 725.5156,477.4375 Q725.8906,477.4375 726.125,477.7031 Q726.3594,477.9531 726.3594,478.5625 L726.3594,480.0156 Q726.3594,480.625 726.125,480.8906 Q725.8906,481.1563 725.5156,481.1563 Q725.1719,481.1563 724.9688,480.9531 Q724.7656,480.7656 724.6563,480.25 Q724.6094,479.8906 724.4219,479.7031 Q724.0938,479.3281 723.4844,479.1094 Q722.875,478.8906 722.25,478.8906 Q721.4844,478.8906 720.8438,479.2188 Q720.2188,479.5469 719.7188,480.2969 Q719.2344,481.0469 719.2344,482.0781 L719.2344,483.1719 Q719.2344,484.4063 720.125,485.2344 Q721.0156,486.0469 722.6094,486.0469 Q723.5469,486.0469 724.2031,485.7969 Q724.5938,485.6406 725.0156,485.2031 Q725.2813,484.9375 725.4219,484.8594 Q725.5781,484.7813 725.7813,484.7813 Q726.1094,484.7813 726.3594,485.0469 Q726.625,485.2969 726.625,485.6406 Q726.625,485.9844 726.2813,486.3906 Q725.7813,486.9688 724.9844,487.2969 Q723.9063,487.75 722.6094,487.75 Q721.0938,487.75 719.8906,487.125 Q718.9063,486.625 718.2188,485.5625 Q717.5313,484.4844 717.5313,483.2031 L717.5313,482.0469 Q717.5313,480.7188 718.1406,479.5781 Q718.7656,478.4219 719.8594,477.8125 Q720.9531,477.1875 722.1875,477.1875 Q722.9219,477.1875 723.5625,477.3594 Q724.2188,477.5156 724.7656,477.875 Z " fill="#000000"/><text fill="#000000" font-family="sans-serif" font-size="14" lengthAdjust="spacing" textLength="100" x="736" y="487.7969">SkillsRepository</text><line style="stroke:#181818;stroke-width:0.5;" x1="708" x2="838" y1="498" y2="498"/><line style="stroke:#181818;stroke-width:0.5;" x1="708" x2="838" y1="506" y2="506"/><text fill="#000000" font-family="sans-serif" font-size="14" lengthAdjust="spacing" textLength="92" x="713" y="525.1074">+getSkillsList()</text></g><!--class Address--><g id="elem_Address"><rect codeLine="55" fill="#F1F1F1" height="66.6211" id="Address" rx="2.5" ry="2.5" style="stroke:#181818;stroke-width:0.5;" width="114" x="488" y="1127"/><ellipse cx="516.5" cy="1143" fill="#ADD1B2" rx="11" ry="11" style="stroke:#181818;stroke-width:1.0;"/><path d="M519.2656,1138.875 Q519.4219,1138.6563 519.6094,1138.5469 Q519.7969,1138.4375 520.0156,1138.4375 Q520.3906,1138.4375 520.625,1138.7031 Q520.8594,1138.9531 520.8594,1139.5625 L520.8594,1141.0156 Q520.8594,1141.625 520.625,1141.8906 Q520.3906,1142.1563 520.0156,1142.1563 Q519.6719,1142.1563 519.4688,1141.9531 Q519.2656,1141.7656 519.1563,1141.25 Q519.1094,1140.8906 518.9219,1140.7031 Q518.5938,1140.3281 517.9844,1140.1094 Q517.375,1139.8906 516.75,1139.8906 Q515.9844,1139.8906 515.3438,1140.2188 Q514.7188,1140.5469 514.2188,1141.2969 Q513.7344,1142.0469 513.7344,1143.0781 L513.7344,1144.1719 Q513.7344,1145.4063 514.625,1146.2344 Q515.5156,1147.0469 517.1094,1147.0469 Q518.0469,1147.0469 518.7031,1146.7969 Q519.0938,1146.6406 519.5156,1146.2031 Q519.7813,1145.9375 519.9219,1145.8594 Q520.0781,1145.7813 520.2813,1145.7813 Q520.6094,1145.7813 520.8594,1146.0469 Q521.125,1146.2969 521.125,1146.6406 Q521.125,1146.9844 520.7813,1147.3906 Q520.2813,1147.9688 519.4844,1148.2969 Q518.4063,1148.75 517.1094,1148.75 Q515.5938,1148.75 514.3906,1148.125 Q513.4063,1147.625 512.7188,1146.5625 Q512.0313,1145.4844 512.0313,1144.2031 L512.0313,1143.0469 Q512.0313,1141.7188 512.6406,1140.5781 Q513.2656,1139.4219 514.3594,1138.8125 Q515.4531,1138.1875 516.6875,1138.1875 Q517.4219,1138.1875 518.0625,1138.3594 Q518.7188,1138.5156 519.2656,1138.875 Z " fill="#000000"/><text fill="#000000" font-family="sans-serif" font-size="14" lengthAdjust="spacing" textLength="52" x="533.5" y="1148.7969">Address</text><line style="stroke:#181818;stroke-width:0.5;" x1="489" x2="601" y1="1159" y2="1159"/><text fill="#000000" font-family="sans-serif" font-size="14" lengthAdjust="spacing" textLength="102" x="494" y="1178.1074">-int doorNumber</text><line style="stroke:#181818;stroke-width:0.5;" x1="489" x2="601" y1="1185.6211" y2="1185.6211"/></g><!--class ZipCode--><g id="elem_ZipCode"><rect codeLine="59" fill="#F1F1F1" height="85.2422" id="ZipCode" rx="2.5" ry="2.5" style="stroke:#181818;stroke-width:0.5;" width="85" x="502.5" y="1273"/><ellipse cx="517.5" cy="1289" fill="#ADD1B2" rx="11" ry="11" style="stroke:#181818;stroke-width:1.0;"/><path d="M520.2656,1284.875 Q520.4219,1284.6563 520.6094,1284.5469 Q520.7969,1284.4375 521.0156,1284.4375 Q521.3906,1284.4375 521.625,1284.7031 Q521.8594,1284.9531 521.8594,1285.5625 L521.8594,1287.0156 Q521.8594,1287.625 521.625,1287.8906 Q521.3906,1288.1563 521.0156,1288.1563 Q520.6719,1288.1563 520.4688,1287.9531 Q520.2656,1287.7656 520.1563,1287.25 Q520.1094,1286.8906 519.9219,1286.7031 Q519.5938,1286.3281 518.9844,1286.1094 Q518.375,1285.8906 517.75,1285.8906 Q516.9844,1285.8906 516.3438,1286.2188 Q515.7188,1286.5469 515.2188,1287.2969 Q514.7344,1288.0469 514.7344,1289.0781 L514.7344,1290.1719 Q514.7344,1291.4063 515.625,1292.2344 Q516.5156,1293.0469 518.1094,1293.0469 Q519.0469,1293.0469 519.7031,1292.7969 Q520.0938,1292.6406 520.5156,1292.2031 Q520.7813,1291.9375 520.9219,1291.8594 Q521.0781,1291.7813 521.2813,1291.7813 Q521.6094,1291.7813 521.8594,1292.0469 Q522.125,1292.2969 522.125,1292.6406 Q522.125,1292.9844 521.7813,1293.3906 Q521.2813,1293.9688 520.4844,1294.2969 Q519.4063,1294.75 518.1094,1294.75 Q516.5938,1294.75 515.3906,1294.125 Q514.4063,1293.625 513.7188,1292.5625 Q513.0313,1291.4844 513.0313,1290.2031 L513.0313,1289.0469 Q513.0313,1287.7188 513.6406,1286.5781 Q514.2656,1285.4219 515.3594,1284.8125 Q516.4531,1284.1875 517.6875,1284.1875 Q518.4219,1284.1875 519.0625,1284.3594 Q519.7188,1284.5156 520.2656,1284.875 Z " fill="#000000"/><text fill="#000000" font-family="sans-serif" font-size="14" lengthAdjust="spacing" textLength="53" x="531.5" y="1294.7969">ZipCode</text><line style="stroke:#181818;stroke-width:0.5;" x1="503.5" x2="586.5" y1="1305" y2="1305"/><text fill="#000000" font-family="sans-serif" font-size="14" lengthAdjust="spacing" textLength="53" x="508.5" y="1324.1074">-int local</text><text fill="#000000" font-family="sans-serif" font-size="14" lengthAdjust="spacing" textLength="60" x="508.5" y="1342.7285">-int street</text><line style="stroke:#181818;stroke-width:0.5;" x1="503.5" x2="586.5" y1="1350.2422" y2="1350.2422"/></g><!--class TeamRepository--><g id="elem_TeamRepository"><rect codeLine="64" fill="#F1F1F1" height="66.6211" id="TeamRepository" rx="2.5" ry="2.5" style="stroke:#181818;stroke-width:0.5;" width="136" x="332" y="466"/><ellipse cx="347" cy="482" fill="#ADD1B2" rx="11" ry="11" style="stroke:#181818;stroke-width:1.0;"/><path d="M349.7656,477.875 Q349.9219,477.6563 350.1094,477.5469 Q350.2969,477.4375 350.5156,477.4375 Q350.8906,477.4375 351.125,477.7031 Q351.3594,477.9531 351.3594,478.5625 L351.3594,480.0156 Q351.3594,480.625 351.125,480.8906 Q350.8906,481.1563 350.5156,481.1563 Q350.1719,481.1563 349.9688,480.9531 Q349.7656,480.7656 349.6563,480.25 Q349.6094,479.8906 349.4219,479.7031 Q349.0938,479.3281 348.4844,479.1094 Q347.875,478.8906 347.25,478.8906 Q346.4844,478.8906 345.8438,479.2188 Q345.2188,479.5469 344.7188,480.2969 Q344.2344,481.0469 344.2344,482.0781 L344.2344,483.1719 Q344.2344,484.4063 345.125,485.2344 Q346.0156,486.0469 347.6094,486.0469 Q348.5469,486.0469 349.2031,485.7969 Q349.5938,485.6406 350.0156,485.2031 Q350.2813,484.9375 350.4219,484.8594 Q350.5781,484.7813 350.7813,484.7813 Q351.1094,484.7813 351.3594,485.0469 Q351.625,485.2969 351.625,485.6406 Q351.625,485.9844 351.2813,486.3906 Q350.7813,486.9688 349.9844,487.2969 Q348.9063,487.75 347.6094,487.75 Q346.0938,487.75 344.8906,487.125 Q343.9063,486.625 343.2188,485.5625 Q342.5313,484.4844 342.5313,483.2031 L342.5313,482.0469 Q342.5313,480.7188 343.1406,479.5781 Q343.7656,478.4219 344.8594,477.8125 Q345.9531,477.1875 347.1875,477.1875 Q347.9219,477.1875 348.5625,477.3594 Q349.2188,477.5156 349.7656,477.875 Z " fill="#000000"/><text fill="#000000" font-family="sans-serif" font-size="14" lengthAdjust="spacing" textLength="104" x="361" y="487.7969">TeamRepository</text><line style="stroke:#181818;stroke-width:0.5;" x1="333" x2="467" y1="498" y2="498"/><line style="stroke:#181818;stroke-width:0.5;" x1="333" x2="467" y1="506" y2="506"/><text fill="#000000" font-family="sans-serif" font-size="14" lengthAdjust="spacing" textLength="74" x="338" y="525.1074">+getTeam()</text></g><!--class Team--><g id="elem_Team"><rect codeLine="68" fill="#F1F1F1" height="103.8633" id="Team" rx="2.5" ry="2.5" style="stroke:#181818;stroke-width:0.5;" width="207" x="287.5" y="612"/><ellipse cx="368.75" cy="628" fill="#ADD1B2" rx="11" ry="11" style="stroke:#181818;stroke-width:1.0;"/><path d="M371.5156,623.875 Q371.6719,623.6563 371.8594,623.5469 Q372.0469,623.4375 372.2656,623.4375 Q372.6406,623.4375 372.875,623.7031 Q373.1094,623.9531 373.1094,624.5625 L373.1094,626.0156 Q373.1094,626.625 372.875,626.8906 Q372.6406,627.1563 372.2656,627.1563 Q371.9219,627.1563 371.7188,626.9531 Q371.5156,626.7656 371.4063,626.25 Q371.3594,625.8906 371.1719,625.7031 Q370.8438,625.3281 370.2344,625.1094 Q369.625,624.8906 369,624.8906 Q368.2344,624.8906 367.5938,625.2188 Q366.9688,625.5469 366.4688,626.2969 Q365.9844,627.0469 365.9844,628.0781 L365.9844,629.1719 Q365.9844,630.4063 366.875,631.2344 Q367.7656,632.0469 369.3594,632.0469 Q370.2969,632.0469 370.9531,631.7969 Q371.3438,631.6406 371.7656,631.2031 Q372.0313,630.9375 372.1719,630.8594 Q372.3281,630.7813 372.5313,630.7813 Q372.8594,630.7813 373.1094,631.0469 Q373.375,631.2969 373.375,631.6406 Q373.375,631.9844 373.0313,632.3906 Q372.5313,632.9688 371.7344,633.2969 Q370.6563,633.75 369.3594,633.75 Q367.8438,633.75 366.6406,633.125 Q365.6563,632.625 364.9688,631.5625 Q364.2813,630.4844 364.2813,629.2031 L364.2813,628.0469 Q364.2813,626.7188 364.8906,625.5781 Q365.5156,624.4219 366.6094,623.8125 Q367.7031,623.1875 368.9375,623.1875 Q369.6719,623.1875 370.3125,623.3594 Q370.9688,623.5156 371.5156,623.875 Z " fill="#000000"/><text fill="#000000" font-family="sans-serif" font-size="14" lengthAdjust="spacing" textLength="36" x="389.25" y="633.7969">Team</text><line style="stroke:#181818;stroke-width:0.5;" x1="288.5" x2="493.5" y1="644" y2="644"/><text fill="#000000" font-family="sans-serif" font-size="14" lengthAdjust="spacing" textLength="81" x="293.5" y="663.1074">-String name</text><line style="stroke:#181818;stroke-width:0.5;" x1="288.5" x2="493.5" y1="670.6211" y2="670.6211"/><text fill="#000000" font-family="sans-serif" font-size="14" lengthAdjust="spacing" textLength="195" x="293.5" y="689.7285">+addCollaborator(collaborator)</text><text fill="#000000" font-family="sans-serif" font-size="14" lengthAdjust="spacing" textLength="89" x="293.5" y="708.3496">+Team(name)</text></g><!--link Repositories to Repositories--><g id="link_Repositories_Repositories"><path codeLine="75" d="M648.79,296.73 C669.05,298.95 683.5,305.54 683.5,316.5 C683.5,327.46 675.0143,333.3965 654.7543,335.6165 " fill="none" id="Repositories-to-Repositories" style="stroke:#181818;stroke-width:1.0;"/><polygon fill="#181818" points="648.79,336.27,658.1721,339.2659,653.7603,335.7254,657.3008,331.3135,648.79,336.27" style="stroke:#181818;stroke-width:1.0;"/><text fill="#000000" font-family="sans-serif" font-size="13" lengthAdjust="spacing" textLength="49" x="689.5" y="322.0283">instance</text></g><!--link GenerateTeamProposalUI to GenerateTeamProposalController--><g id="link_GenerateTeamProposalUI_GenerateTeamProposalController"><path codeLine="77" d="M203.27,87 C217,87 223.43,87 232.35,87 " fill="none" id="GenerateTeamProposalUI-to-GenerateTeamProposalController" style="stroke:#181818;stroke-width:1.0;stroke-dasharray:7.0,7.0;"/><polygon fill="#181818" points="238.35,87,229.35,83,233.35,87,229.35,91,238.35,87" style="stroke:#181818;stroke-width:1.0;"/></g><!--link Repositories to TeamRepository--><g id="link_Repositories_TeamRepository"><path codeLine="79" d="M490.38,387.22 C468.38,414.31 448.032,439.3621 430.242,461.2721 " fill="none" id="Repositories-to-TeamRepository" style="stroke:#181818;stroke-width:1.0;"/><polygon fill="#181818" points="426.46,465.93,435.2383,461.4645,429.6117,462.0484,429.0278,456.4218,426.46,465.93" style="stroke:#181818;stroke-width:1.0;"/><text fill="#000000" font-family="sans-serif" font-size="13" lengthAdjust="spacing" textLength="7" x="423.9802" y="454.7417">1</text></g><!--link Repositories to CollaboratorsRepository--><g id="link_Repositories_CollaboratorsRepository"><path codeLine="80" d="M562.09,387 C578.13,460.9 601.5373,568.7365 613.5973,624.2965 " fill="none" id="Repositories-to-CollaboratorsRepository" style="stroke:#181818;stroke-width:1.0;"/><polygon fill="#181818" points="614.87,630.16,616.8699,620.5163,613.8094,625.2738,609.0519,622.2133,614.87,630.16" style="stroke:#181818;stroke-width:1.0;"/><text fill="#000000" font-family="sans-serif" font-size="13" lengthAdjust="spacing" textLength="7" x="605.8437" y="619.1811">1</text></g><!--link Repositories to SkillsRepository--><g id="link_Repositories_SkillsRepository"><path codeLine="81" d="M634.05,387.22 C667.88,414.31 700.2973,440.2687 727.6473,462.1787 " fill="none" id="Repositories-to-SkillsRepository" style="stroke:#181818;stroke-width:1.0;"/><polygon fill="#181818" points="732.33,465.93,727.8068,457.1812,728.4277,462.8039,722.8051,463.4249,732.33,465.93" style="stroke:#181818;stroke-width:1.0;"/><text fill="#000000" font-family="sans-serif" font-size="13" lengthAdjust="spacing" textLength="7" x="716.634" y="454.7417">1</text></g><!--link GenerateTeamProposalController to CollaboratorsRepository--><g id="link_GenerateTeamProposalController_CollaboratorsRepository"><path codeLine="83" d="M705.96,167.23 C785.06,206.65 864,246 864,246 C864,246 864,387 864,387 C864,387 857,533 857,533 C857,533 755.8601,588.9455 686.2501,627.4555 " fill="none" id="GenerateTeamProposalController-to-CollaboratorsRepository" style="stroke:#181818;stroke-width:1.0;stroke-dasharray:7.0,7.0;"/><polygon fill="#181818" points="681,630.36,690.8115,629.5033,685.3751,627.9396,686.9389,622.5032,681,630.36" style="stroke:#181818;stroke-width:1.0;"/><text fill="#000000" font-family="sans-serif" font-size="13" lengthAdjust="spacing" textLength="138" x="863" y="432.0283">CollaboratorsRepository</text></g><!--link GenerateTeamProposalController to SkillsRepository--><g id="link_GenerateTeamProposalController_SkillsRepository"><path codeLine="84" d="M646.29,167.23 C695.69,206.65 745,246 745,246 C745,246 761.1284,391.4666 768.7084,459.7866 " fill="none" id="GenerateTeamProposalController-to-SkillsRepository" style="stroke:#181818;stroke-width:1.0;stroke-dasharray:7.0,7.0;"/><polygon fill="#181818" points="769.37,465.75,772.3532,456.3638,768.8186,460.7805,764.4019,457.246,769.37,465.75" style="stroke:#181818;stroke-width:1.0;"/><text fill="#000000" font-family="sans-serif" font-size="13" lengthAdjust="spacing" textLength="94" x="761" y="322.0283">SkillsRepository</text></g><!--link GenerateTeamProposalController to TeamRepository--><g id="link_GenerateTeamProposalController_TeamRepository"><path codeLine="85" d="M439.19,167.23 C385.54,206.65 332,246 332,246 C332,246 332,387 332,387 C332,387 356.956,427.9174 377.026,460.8274 " fill="none" id="GenerateTeamProposalController-to-TeamRepository" style="stroke:#181818;stroke-width:1.0;stroke-dasharray:7.0,7.0;"/><polygon fill="#181818" points="380.15,465.95,378.8791,456.1835,377.5467,461.6812,372.049,460.3488,380.15,465.95" style="stroke:#181818;stroke-width:1.0;"/><text fill="#000000" font-family="sans-serif" font-size="13" lengthAdjust="spacing" textLength="94" x="333" y="322.0283">TeamRepository</text></g><!--link GenerateTeamProposalController to Repositories--><g id="link_GenerateTeamProposalController_Repositories"><path codeLine="86" d="M547,167.25 C547,192.77 547,214.85 547,239.64 " fill="none" id="GenerateTeamProposalController-to-Repositories" style="stroke:#181818;stroke-width:1.0;stroke-dasharray:7.0,7.0;"/><polygon fill="#181818" points="547,245.64,551,236.64,547,240.64,543,236.64,547,245.64" style="stroke:#181818;stroke-width:1.0;"/><text fill="#000000" font-family="sans-serif" font-size="13" lengthAdjust="spacing" textLength="67" x="548" y="212.0283">repositories</text></g><!--link GenerateTeamProposalController to Collaborator--><g id="link_GenerateTeamProposalController_Collaborator"><path codeLine="87" d="M416.19,167.22 C388.27,184.12 367,197 367,197 C367,197 226,315.5 226,315.5 C226,315.5 226,315.5 226,665 C226,665 264.9651,725.3396 306.6951,789.9596 " fill="none" id="GenerateTeamProposalController-to-Collaborator" style="stroke:#181818;stroke-width:1.0;stroke-dasharray:7.0,7.0;"/><polygon fill="#181818" points="309.95,795,308.4278,785.2695,307.2375,790.7997,301.7073,789.6094,309.95,795" style="stroke:#181818;stroke-width:1.0;"/><text fill="#000000" font-family="sans-serif" font-size="13" lengthAdjust="spacing" textLength="69" x="227" y="505.0283">Collaborator</text><text fill="#000000" font-family="sans-serif" font-size="13" lengthAdjust="spacing" textLength="7" x="297.7977" y="783.8157">1</text></g><!--link TeamRepository to Team--><g id="link_TeamRepository_Team"><path codeLine="89" d="M398.18,533.38 C396.93,555.92 395.5815,580.2692 394.1615,605.9292 " fill="none" id="TeamRepository-to-Team" style="stroke:#181818;stroke-width:1.0;"/><polygon fill="#181818" points="393.83,611.92,398.3212,603.1548,394.1063,606.9276,390.3334,602.7127,393.83,611.92" style="stroke:#181818;stroke-width:1.0;"/><text fill="#000000" font-family="sans-serif" font-size="13" lengthAdjust="spacing" textLength="36" x="397" y="578.0283">teams</text><text fill="#000000" font-family="sans-serif" font-size="13" lengthAdjust="spacing" textLength="5" x="388.8743" y="600.8366">*</text></g><!--reverse link Team to Collaborator--><g id="link_Team_Collaborator"><path codeLine="90" d="M391,728.09 C391,750.95 391,767.02 391,794.94 " fill="none" id="Team-backto-Collaborator" style="stroke:#181818;stroke-width:1.0;"/><polygon fill="none" points="391,716.09,387,722.09,391,728.09,395,722.09,391,716.09" style="stroke:#181818;stroke-width:1.0;"/><text fill="#000000" font-family="sans-serif" font-size="13" lengthAdjust="spacing" textLength="21" x="392" y="761.0283">has</text><text fill="#000000" font-family="sans-serif" font-size="13" lengthAdjust="spacing" textLength="5" x="385.8477" y="783.7521">*</text></g><!--link CollaboratorsRepository to Collaborator--><g id="link_CollaboratorsRepository_Collaborator"><path codeLine="92" d="M592.51,697.62 C569.89,722.64 541.1348,754.4502 508.5548,790.4702 " fill="none" id="CollaboratorsRepository-to-Collaborator" style="stroke:#181818;stroke-width:1.0;"/><polygon fill="#181818" points="504.53,794.92,513.5338,790.9285,507.884,791.2118,507.6007,785.5621,504.53,794.92" style="stroke:#181818;stroke-width:1.0;"/><text fill="#000000" font-family="sans-serif" font-size="13" lengthAdjust="spacing" textLength="5" x="506.2959" y="783.7309">*</text></g><!--reverse link Collaborator to Address--><g id="link_Collaborator_Address"><path codeLine="94" d="M479.2716,1058.3502 C498.1416,1087.3702 510.08,1105.75 523.63,1126.61 " fill="none" id="Collaborator-backto-Address" style="stroke:#181818;stroke-width:1.0;"/><polygon fill="#181818" points="472.73,1048.29,472.6474,1055.5006,479.2716,1058.3502,479.3542,1051.1396,472.73,1048.29" style="stroke:#181818;stroke-width:1.0;"/><text fill="#000000" font-family="sans-serif" font-size="13" lengthAdjust="spacing" textLength="30" x="504" y="1093.0283">owns</text><text fill="#000000" font-family="sans-serif" font-size="13" lengthAdjust="spacing" textLength="7" x="511.8892" y="1115.6216">1</text></g><!--reverse link Address to ZipCode--><g id="link_Address_ZipCode"><path codeLine="95" d="M545,1206.32 C545,1229.33 545,1248.26 545,1272.98 " fill="none" id="Address-backto-ZipCode" style="stroke:#181818;stroke-width:1.0;"/><polygon fill="#181818" points="545,1194.32,541,1200.32,545,1206.32,549,1200.32,545,1194.32" style="stroke:#181818;stroke-width:1.0;"/><text fill="#000000" font-family="sans-serif" font-size="13" lengthAdjust="spacing" textLength="30" x="546" y="1239.0283">owns</text><text fill="#000000" font-family="sans-serif" font-size="13" lengthAdjust="spacing" textLength="7" x="537.4422" y="1261.8809">1</text></g><!--reverse link Collaborator to CollaboratorSkills--><g id="link_Collaborator_CollaboratorSkills"><path codeLine="97" d="M374.1529,1060.2012 C370.6029,1089.2212 368.58,1105.75 366.02,1126.61 " fill="none" id="Collaborator-backto-CollaboratorSkills" style="stroke:#181818;stroke-width:1.0;"/><polygon fill="#181818" points="375.61,1048.29,370.9111,1053.7599,374.1529,1060.2012,378.8519,1054.7313,375.61,1048.29" style="stroke:#181818;stroke-width:1.0;"/><text fill="#000000" font-family="sans-serif" font-size="13" lengthAdjust="spacing" textLength="5" x="361.3097" y="1115.6216">*</text></g><!--SRC=[ZLJ1ZjiW4Btp5MXFtbqxQgzM5McLIbMagghgzj8RCRC92WOBs5sbLV-zW6q2nDua5mVclJUFcG5zPA8dYdIu9-sHxA4n9mvOGMk8s7D0EW3qWL3vniGUFnEkumXd0iof1znBVd8B50LRJhH-CaQntOk1RIj5m_u0_e0GyY7y1GGeOk0daEwxahtKXF_Quh_ettk8ZHH6ISv1MIIslmf_PTfyQewCypNMxgCRuFOWG3tWyOfEuQdw1zXzPgGwbNXZ0sGdBKUg9E0KpklxKNyFPj1mJefeDz5vBtX1hnp2PRFhK8-O4KxVs0hRtWZImRZpsHuLMvXmV-8zGhjeYmc3-uCKyEsbsu5AvQ0ZZ4T0HZT4qMGZeLts08qdZKqNpcKPl9MJep8sKWx9op5d6L9DjNkLZ5eczUaAdoq9AUZaAoJHKCBGF0Owb33UZ3kq5ThUXXQAUrmdeBplvv5OxFuy99sdfLv7vD7pudJDyWUJIzHazW8_FrZCdcSyKQf0dwlgfeHAgSOv2RZVhDz82WcEovR4uwQD0Z1dJbgds4j-HznwyMuykh591hAD5bDVlAJZU5cKZ4orJaUejdQ78K5euK5RhQyyG7aAc-FkurrsvddCmfJCW_EMpZkE7jZLodfVI54lvhv5DBTINvgxHIORYpglsJMDYsQg-9BVuY1l0axhWb1cqVVYOMYknHhxqHw3PLNvIAPs8FObNNeC9hKqPQBmu6IjoUbsrbY-2OscvHIUBkKOdj78qZJZ8_yV]--></g></svg>