<?xml version="1.0" encoding="UTF-8" standalone="no"?><svg xmlns="http://www.w3.org/2000/svg" xmlns:xlink="http://www.w3.org/1999/xlink" contentStyleType="text/css" height="771px" preserveAspectRatio="none" style="width:1473px;height:771px;background:#FFFFFF;" version="1.1" viewBox="0 0 1473 771" width="1473px" zoomAndPan="magnify"><defs/><g><rect fill="#FFFFFF" height="571.5996" style="stroke:#181818;stroke-width:1.0;" width="10" x="252" y="117.7199"/><rect fill="#FFFFFF" height="443.8797" style="stroke:#181818;stroke-width:1.0;" width="10" x="550" y="195.1999"/><rect fill="#FFFFFF" height="179.1999" style="stroke:#181818;stroke-width:1.0;" width="10" x="842" y="284.9198"/><rect fill="#FFFFFF" height="41.24" style="stroke:#181818;stroke-width:1.0;" width="10" x="1096" y="374.6397"/><rect fill="#FFFFFF" height="30" style="stroke:#181818;stroke-width:1.0;" width="10" x="1357" y="553.8396"/><rect fill="none" height="388.6397" style="stroke:#000000;stroke-width:1.5;" width="1054" x="413" y="210.1999"/><rect fill="none" height="123.9599" style="stroke:#000000;stroke-width:1.5;" width="518" x="759" y="299.9198"/><rect fill="none" height="112.7199" style="stroke:#000000;stroke-width:1.5;" width="1034" x="423" y="479.1197"/><line style="stroke:#181818;stroke-width:0.5;stroke-dasharray:5.0,5.0;" x1="257" x2="257" y1="74.4799" y2="698.3195"/><line style="stroke:#181818;stroke-width:0.5;stroke-dasharray:5.0,5.0;" x1="555" x2="555" y1="74.4799" y2="698.3195"/><line style="stroke:#181818;stroke-width:0.5;stroke-dasharray:5.0,5.0;" x1="847" x2="847" y1="74.4799" y2="698.3195"/><line style="stroke:#181818;stroke-width:0.5;stroke-dasharray:5.0,5.0;" x1="1101" x2="1101" y1="74.4799" y2="698.3195"/><line style="stroke:#181818;stroke-width:0.5;stroke-dasharray:5.0,5.0;" x1="1362" x2="1362" y1="74.4799" y2="698.3195"/><rect fill="#E3E3E3" height="41.24" rx="2.5" ry="2.5" style="stroke:#181818;stroke-width:0.5;" width="332" x="91" y="32.24"/><text fill="#000000" font-family="sans-serif" font-size="20" lengthAdjust="spacing" textLength="318" x="98" y="60.62">:GenerateTeamProposalController</text><rect fill="#E3E3E3" height="41.24" rx="2.5" ry="2.5" style="stroke:#181818;stroke-width:0.5;" width="332" x="91" y="697.3195"/><text fill="#000000" font-family="sans-serif" font-size="20" lengthAdjust="spacing" textLength="318" x="98" y="725.6995">:GenerateTeamProposalController</text><rect fill="#E3E3E3" height="68.4799" rx="2.5" ry="2.5" style="stroke:#181818;stroke-width:0.5;" width="244" x="433" y="5"/><text fill="#000000" font-family="sans-serif" font-size="20" lengthAdjust="spacing" textLength="53" x="528.5" y="33.38">name</text><text fill="#000000" font-family="sans-serif" font-size="20" lengthAdjust="spacing" textLength="230" x="440" y="60.62">:CollaboratorsRepository</text><rect fill="#E3E3E3" height="68.4799" rx="2.5" ry="2.5" style="stroke:#181818;stroke-width:0.5;" width="244" x="433" y="697.3195"/><text fill="#000000" font-family="sans-serif" font-size="20" lengthAdjust="spacing" textLength="53" x="528.5" y="725.6995">name</text><text fill="#000000" font-family="sans-serif" font-size="20" lengthAdjust="spacing" textLength="230" x="440" y="752.9395">:CollaboratorsRepository</text><rect fill="#E3E3E3" height="68.4799" rx="2.5" ry="2.5" style="stroke:#181818;stroke-width:0.5;" width="156" x="769" y="5"/><text fill="#000000" font-family="sans-serif" font-size="20" lengthAdjust="spacing" textLength="116" x="789" y="33.38">Collaborator</text><text fill="#000000" font-family="sans-serif" font-size="20" lengthAdjust="spacing" textLength="142" x="776" y="60.62">:List&lt;Skill&gt;skills</text><rect fill="#E3E3E3" height="68.4799" rx="2.5" ry="2.5" style="stroke:#181818;stroke-width:0.5;" width="156" x="769" y="697.3195"/><text fill="#000000" font-family="sans-serif" font-size="20" lengthAdjust="spacing" textLength="116" x="789" y="725.6995">Collaborator</text><text fill="#000000" font-family="sans-serif" font-size="20" lengthAdjust="spacing" textLength="142" x="776" y="752.9395">:List&lt;Skill&gt;skills</text><rect fill="#E3E3E3" height="68.4799" rx="2.5" ry="2.5" style="stroke:#181818;stroke-width:0.5;" width="332" x="935" y="5"/><text fill="#000000" font-family="sans-serif" font-size="20" lengthAdjust="spacing" textLength="318" x="942" y="33.38">:GenerateTeamProposalController</text><text fill="#000000" font-family="sans-serif" font-size="20" lengthAdjust="spacing" textLength="220" x="991" y="60.62">List&lt;Skill&gt; skillsSelected</text><rect fill="#E3E3E3" height="68.4799" rx="2.5" ry="2.5" style="stroke:#181818;stroke-width:0.5;" width="332" x="935" y="697.3195"/><text fill="#000000" font-family="sans-serif" font-size="20" lengthAdjust="spacing" textLength="318" x="942" y="725.6995">:GenerateTeamProposalController</text><text fill="#000000" font-family="sans-serif" font-size="20" lengthAdjust="spacing" textLength="220" x="991" y="752.9395">List&lt;Skill&gt; skillsSelected</text><rect fill="#E3E3E3" height="68.4799" rx="2.5" ry="2.5" style="stroke:#181818;stroke-width:0.5;" width="170" x="1277" y="5"/><text fill="#000000" font-family="sans-serif" font-size="20" lengthAdjust="spacing" textLength="48" x="1338" y="33.38">team</text><text fill="#000000" font-family="sans-serif" font-size="20" lengthAdjust="spacing" textLength="156" x="1284" y="60.62">:TeamRepository</text><rect fill="#E3E3E3" height="68.4799" rx="2.5" ry="2.5" style="stroke:#181818;stroke-width:0.5;" width="170" x="1277" y="697.3195"/><text fill="#000000" font-family="sans-serif" font-size="20" lengthAdjust="spacing" textLength="48" x="1338" y="725.6995">team</text><text fill="#000000" font-family="sans-serif" font-size="20" lengthAdjust="spacing" textLength="156" x="1284" y="752.9395">:TeamRepository</text><rect fill="#FFFFFF" height="571.5996" style="stroke:#181818;stroke-width:1.0;" width="10" x="252" y="117.7199"/><rect fill="#FFFFFF" height="443.8797" style="stroke:#181818;stroke-width:1.0;" width="10" x="550" y="195.1999"/><rect fill="#FFFFFF" height="179.1999" style="stroke:#181818;stroke-width:1.0;" width="10" x="842" y="284.9198"/><rect fill="#FFFFFF" height="41.24" style="stroke:#181818;stroke-width:1.0;" width="10" x="1096" y="374.6397"/><rect fill="#FFFFFF" height="30" style="stroke:#181818;stroke-width:1.0;" width="10" x="1357" y="553.8396"/><polygon fill="#181818" points="240,113.7199,250,117.7199,240,121.7199,244,117.7199" style="stroke:#181818;stroke-width:1.0;"/><line style="stroke:#181818;stroke-width:1.0;" x1="0" x2="246" y1="117.7199" y2="117.7199"/><text fill="#000000" font-family="sans-serif" font-size="20" font-weight="bold" lengthAdjust="spacing" textLength="22" x="7" y="109.8599">14</text><text fill="#000000" font-family="sans-serif" font-size="20" lengthAdjust="spacing" textLength="200" x="33" y="109.8599">getCollaboratorsList()</text><polygon fill="#181818" points="538,191.1999,548,195.1999,538,199.1999,542,195.1999" style="stroke:#181818;stroke-width:1.0;"/><line style="stroke:#181818;stroke-width:1.0;" x1="262" x2="544" y1="195.1999" y2="195.1999"/><text fill="#000000" font-family="sans-serif" font-size="20" font-weight="bold" lengthAdjust="spacing" textLength="22" x="269" y="187.3399">15</text><text fill="#000000" font-family="sans-serif" font-size="20" lengthAdjust="spacing" textLength="200" x="295" y="187.3399">getCollaboratorsList()</text><path d="M413,210.1999 L501,210.1999 L501,229.4398 L491,239.4398 L413,239.4398 L413,210.1999 " fill="#EEEEEE" style="stroke:#000000;stroke-width:1.5;"/><rect fill="none" height="388.6397" style="stroke:#000000;stroke-width:1.5;" width="1054" x="413" y="210.1999"/><text fill="#000000" font-family="sans-serif" font-size="20" font-weight="bold" lengthAdjust="spacing" textLength="43" x="428" y="232.5799">loop</text><text fill="#000000" font-family="sans-serif" font-size="20" font-weight="bold" lengthAdjust="spacing" textLength="222" x="516" y="233.5799">[for each collaborator]</text><polygon fill="#181818" points="830,280.9198,840,284.9198,830,288.9198,834,284.9198" style="stroke:#181818;stroke-width:1.0;"/><line style="stroke:#181818;stroke-width:1.0;" x1="560" x2="836" y1="284.9198" y2="284.9198"/><text fill="#000000" font-family="sans-serif" font-size="20" font-weight="bold" lengthAdjust="spacing" textLength="22" x="567" y="277.0598">16</text><text fill="#000000" font-family="sans-serif" font-size="20" lengthAdjust="spacing" textLength="237" x="593" y="277.0598">getCollaboratorSkillsList()</text><path d="M759,299.9198 L847,299.9198 L847,319.1598 L837,329.1598 L759,329.1598 L759,299.9198 " fill="#EEEEEE" style="stroke:#000000;stroke-width:1.5;"/><rect fill="none" height="123.9599" style="stroke:#000000;stroke-width:1.5;" width="518" x="759" y="299.9198"/><text fill="#000000" font-family="sans-serif" font-size="20" font-weight="bold" lengthAdjust="spacing" textLength="43" x="774" y="322.2998">loop</text><text fill="#000000" font-family="sans-serif" font-size="20" font-weight="bold" lengthAdjust="spacing" textLength="344" x="862" y="323.2998">[for each Skill of that Collaborator]</text><polygon fill="#181818" points="1084,370.6397,1094,374.6397,1084,378.6397,1088,374.6397" style="stroke:#181818;stroke-width:1.0;"/><line style="stroke:#181818;stroke-width:1.0;" x1="852" x2="1090" y1="374.6397" y2="374.6397"/><text fill="#000000" font-family="sans-serif" font-size="20" font-weight="bold" lengthAdjust="spacing" textLength="22" x="859" y="366.7797">17</text><text fill="#000000" font-family="sans-serif" font-size="20" lengthAdjust="spacing" textLength="195" x="885" y="366.7797">e = equalsSkill(name)</text><polygon fill="#181818" points="863,411.8797,853,415.8797,863,419.8797,859,415.8797" style="stroke:#181818;stroke-width:1.0;"/><line style="stroke:#181818;stroke-width:1.0;stroke-dasharray:2.0,2.0;" x1="857" x2="1100" y1="415.8797" y2="415.8797"/><text fill="#000000" font-family="sans-serif" font-size="20" font-weight="bold" lengthAdjust="spacing" textLength="22" x="869" y="408.0197">18</text><text fill="#000000" font-family="sans-serif" font-size="20" lengthAdjust="spacing" textLength="89" x="895" y="408.0197">true/false</text><polygon fill="#181818" points="571,460.1197,561,464.1197,571,468.1197,567,464.1197" style="stroke:#181818;stroke-width:1.0;"/><line style="stroke:#181818;stroke-width:1.0;stroke-dasharray:2.0,2.0;" x1="565" x2="846" y1="464.1197" y2="464.1197"/><text fill="#000000" font-family="sans-serif" font-size="20" font-weight="bold" lengthAdjust="spacing" textLength="22" x="577" y="456.2597">19</text><text fill="#000000" font-family="sans-serif" font-size="20" lengthAdjust="spacing" textLength="89" x="603" y="456.2597">true/false</text><path d="M423,479.1197 L502,479.1197 L502,498.3596 L492,508.3596 L423,508.3596 L423,479.1197 " fill="#EEEEEE" style="stroke:#000000;stroke-width:1.5;"/><rect fill="none" height="112.7199" style="stroke:#000000;stroke-width:1.5;" width="1034" x="423" y="479.1197"/><text fill="#000000" font-family="sans-serif" font-size="20" font-weight="bold" lengthAdjust="spacing" textLength="34" x="438" y="501.4997">opt</text><text fill="#000000" font-family="sans-serif" font-size="20" font-weight="bold" lengthAdjust="spacing" textLength="101" x="517" y="502.4997">[e == true]</text><polygon fill="#181818" points="1345,549.8396,1355,553.8396,1345,557.8396,1349,553.8396" style="stroke:#181818;stroke-width:1.0;"/><line style="stroke:#181818;stroke-width:1.0;" x1="560" x2="1351" y1="553.8396" y2="553.8396"/><text fill="#000000" font-family="sans-serif" font-size="20" font-weight="bold" lengthAdjust="spacing" textLength="22" x="567" y="545.9796">20</text><text fill="#000000" font-family="sans-serif" font-size="20" lengthAdjust="spacing" textLength="281" x="593" y="545.9796">addCollaborator(colllaborator)</text><polygon fill="#181818" points="273,635.0796,263,639.0796,273,643.0796,269,639.0796" style="stroke:#181818;stroke-width:1.0;"/><line style="stroke:#181818;stroke-width:1.0;stroke-dasharray:2.0,2.0;" x1="267" x2="554" y1="639.0796" y2="639.0796"/><text fill="#000000" font-family="sans-serif" font-size="20" font-weight="bold" lengthAdjust="spacing" textLength="22" x="279" y="631.2196">21</text><text fill="#000000" font-family="sans-serif" font-size="20" lengthAdjust="spacing" textLength="5" x="305" y="631.2196"> </text><polygon fill="#181818" points="11,676.3195,1,680.3195,11,684.3195,7,680.3195" style="stroke:#181818;stroke-width:1.0;"/><line style="stroke:#181818;stroke-width:1.0;stroke-dasharray:2.0,2.0;" x1="5" x2="251" y1="680.3195" y2="680.3195"/><text fill="#000000" font-family="sans-serif" font-size="20" font-weight="bold" lengthAdjust="spacing" textLength="22" x="17" y="672.4596">22</text><text fill="#000000" font-family="sans-serif" font-size="20" lengthAdjust="spacing" textLength="5" x="43" y="672.4596"> </text><!--SRC=[bPJ1JkCm48RlVeeHftAeTbbngg27hGGN95Q48vSXcQHM7K-m7LRTfryxQOkTnWXog9hC-9_F_tXiTr9tQB1LNEweWefgx9MxO-qA-O_WrqzXZodGikPoQxWbSAQdAD9XkSE62hTN18PAXxfHSOBTOiL_fMwWHcL92EmTwxvz9IE4Jt6ob1rg1nUhUz9aqD4pOVl7SCSMrSRp65QAp0MWXStpqqEwIcDBBtgryJduoduv6_j4Vgtq__RZelbOgXCdURq7QTrDiPDAhMtujMTAGz1-QmilEfA5KRSWvLsZQj0FuSUwI09f1UU5FLxGd-mo_IHYe-7gMeZbEfYtWePSOaYekRZqwQMJxnvzz5WqXliExicbzi7lFOny0wmGu9-m0fRhdD6GBVfHCzEYGLunTr2p0S9o2sMKEeIFJwxw1En0VyOqVZ-07JLd0G-TJugdZ4C6S0rkYwc1oQ8vyWEUXvux31wRu1RehVV3D8GMOG0kpsHFuBD7Ido1u6Qvp264E-37ECvJeOe-hnpdalvuppKlKCnsRuOXglrPkxXpmSJRyIhxwX5Anyi3O5N5wOjmBazlQKDEM9CPpHWtdUJOh-ziTiZFRYcCHRWGH4Of6SEX3M7AL_y1]--></g></svg>