<?xml version="1.0" encoding="us-ascii" standalone="no"?><svg xmlns="http://www.w3.org/2000/svg" xmlns:xlink="http://www.w3.org/1999/xlink" contentStyleType="text/css" height="699.2px" preserveAspectRatio="none" style="width:1366px;height:699px;background:#FFFFFF;" version="1.1" viewBox="0 0 1366 699" width="1366.4px" zoomAndPan="magnify"><defs/><g><rect fill="#FFFFFF" height="521.3625" style="stroke:#181818;stroke-width:0.8000000000000002;" width="8" x="60.8" y="89.7938"/><rect fill="#FFFFFF" height="38.8656" style="stroke:#181818;stroke-width:0.8000000000000002;" width="8" x="299.2" y="108.4266"/><rect fill="#FFFFFF" height="25.0328" style="stroke:#181818;stroke-width:0.8000000000000002;" width="8" x="299.2" y="186.1578"/><rect fill="#FFFFFF" height="296.6344" style="stroke:#181818;stroke-width:0.8000000000000002;" width="8" x="299.2" y="257.2563"/><rect fill="#FFFFFF" height="25.0328" style="stroke:#181818;stroke-width:0.8000000000000002;" width="8" x="299.2" y="578.9234"/><rect fill="#FFFFFF" height="63.6344" style="stroke:#181818;stroke-width:0.8000000000000002;" width="8" x="468" y="282.2891"/><rect fill="#FFFFFF" height="63.6344" style="stroke:#181818;stroke-width:0.8000000000000002;" width="8" x="468" y="376.5563"/><rect fill="#FFFFFF" height="63.6344" style="stroke:#181818;stroke-width:0.8000000000000002;" width="8" x="468" y="465.2234"/><rect fill="none" height="129.1328" style="stroke:#000000;stroke-width:1.2000000000000002;" width="532.8" x="8" y="223.1906"/><line style="stroke:#181818;stroke-width:0.4000000000000001;stroke-dasharray:5.0,5.0;" x1="64.8" x2="64.8" y1="81.7938" y2="618.3563"/><line style="stroke:#181818;stroke-width:0.4000000000000001;stroke-dasharray:5.0,5.0;" x1="303.2" x2="303.2" y1="81.7938" y2="618.3563"/><line style="stroke:#181818;stroke-width:0.4000000000000001;stroke-dasharray:5.0,5.0;" x1="472" x2="472" y1="81.7938" y2="618.3563"/><line style="stroke:#181818;stroke-width:0.4000000000000001;stroke-dasharray:5.0,5.0;" x1="579.2" x2="579.2" y1="81.7938" y2="618.3563"/><line style="stroke:#181818;stroke-width:0.4000000000000001;stroke-dasharray:5.0,5.0;" x1="664.8" x2="664.8" y1="81.7938" y2="618.3563"/><line style="stroke:#181818;stroke-width:0.4000000000000001;stroke-dasharray:5.0,5.0;" x1="781.6" x2="781.6" y1="81.7938" y2="618.3563"/><line style="stroke:#181818;stroke-width:0.4000000000000001;stroke-dasharray:5.0,5.0;" x1="949.6" x2="949.6" y1="81.7938" y2="618.3563"/><line style="stroke:#181818;stroke-width:0.4000000000000001;stroke-dasharray:5.0,5.0;" x1="1129.6" x2="1129.6" y1="81.7938" y2="618.3563"/><line style="stroke:#181818;stroke-width:0.4000000000000001;stroke-dasharray:5.0,5.0;" x1="1290.4" x2="1290.4" y1="81.7938" y2="618.3563"/><text fill="#000000" font-family="sans-serif" font-size="11.2" lengthAdjust="spacing" textLength="92.8" x="16" y="64.0859">Human Resources</text><text fill="#000000" font-family="sans-serif" font-size="11.2" lengthAdjust="spacing" textLength="44.8" x="40" y="78.9828">Manager</text><ellipse cx="64.8" cy="10.8" fill="#E3E3E3" rx="6.4" ry="6.4" style="stroke:#181818;stroke-width:0.4000000000000001;"/><path d="M64.8,17.2 L64.8,38.8 M54.4,23.6 L75.2,23.6 M64.8,38.8 L54.4,50.8 M64.8,38.8 L75.2,50.8 " fill="none" style="stroke:#181818;stroke-width:0.4000000000000001;"/><text fill="#000000" font-family="sans-serif" font-size="11.2" lengthAdjust="spacing" textLength="92.8" x="16" y="629.6422">Human Resources</text><text fill="#000000" font-family="sans-serif" font-size="11.2" lengthAdjust="spacing" textLength="44.8" x="40" y="644.5391">Manager</text><ellipse cx="64.8" cy="654.15" fill="#E3E3E3" rx="6.4" ry="6.4" style="stroke:#181818;stroke-width:0.4000000000000001;"/><path d="M64.8,660.55 L64.8,682.15 M54.4,666.95 L75.2,666.95 M64.8,682.15 L54.4,694.15 M64.8,682.15 L75.2,694.15 " fill="none" style="stroke:#181818;stroke-width:0.4000000000000001;"/><rect fill="#E3E3E3" height="26.0969" rx="2" ry="2" style="stroke:#181818;stroke-width:0.4000000000000001;" width="81.6" x="262.4" y="54.8969"/><text fill="#000000" font-family="sans-serif" font-size="11.2" lengthAdjust="spacing" textLength="70.4" x="268" y="72.5828">:RegistSkillsUI</text><rect fill="#E3E3E3" height="26.0969" rx="2" ry="2" style="stroke:#181818;stroke-width:0.4000000000000001;" width="81.6" x="262.4" y="617.5563"/><text fill="#000000" font-family="sans-serif" font-size="11.2" lengthAdjust="spacing" textLength="70.4" x="268" y="635.2422">:RegistSkillsUI</text><rect fill="#E3E3E3" height="26.0969" rx="2" ry="2" style="stroke:#181818;stroke-width:0.4000000000000001;" width="121.6" x="411.2" y="54.8969"/><text fill="#000000" font-family="sans-serif" font-size="11.2" lengthAdjust="spacing" textLength="110.4" x="416.8" y="72.5828">:RegistSkillsController</text><rect fill="#E3E3E3" height="26.0969" rx="2" ry="2" style="stroke:#181818;stroke-width:0.4000000000000001;" width="121.6" x="411.2" y="617.5563"/><text fill="#000000" font-family="sans-serif" font-size="11.2" lengthAdjust="spacing" textLength="110.4" x="416.8" y="635.2422">:RegistSkillsController</text><rect fill="#E3E3E3" height="26.0969" rx="2" ry="2" style="stroke:#181818;stroke-width:0.4000000000000001;" width="77.6" x="540.8" y="54.8969"/><text fill="#000000" font-family="sans-serif" font-size="11.2" lengthAdjust="spacing" textLength="66.4" x="546.4" y="72.5828">:Repositories</text><rect fill="#E3E3E3" height="26.0969" rx="2" ry="2" style="stroke:#181818;stroke-width:0.4000000000000001;" width="77.6" x="540.8" y="617.5563"/><text fill="#000000" font-family="sans-serif" font-size="11.2" lengthAdjust="spacing" textLength="66.4" x="546.4" y="635.2422">:Repositories</text><rect fill="#E3E3E3" height="40.9938" rx="2" ry="2" style="stroke:#181818;stroke-width:0.4000000000000001;" width="77.6" x="626.4" y="40"/><text fill="#000000" font-family="sans-serif" font-size="11.2" lengthAdjust="spacing" textLength="59.2" x="635.6" y="57.6859">repositories</text><text fill="#000000" font-family="sans-serif" font-size="11.2" lengthAdjust="spacing" textLength="66.4" x="632" y="72.5828">:Repositories</text><rect fill="#E3E3E3" height="40.9938" rx="2" ry="2" style="stroke:#181818;stroke-width:0.4000000000000001;" width="77.6" x="626.4" y="617.5563"/><text fill="#000000" font-family="sans-serif" font-size="11.2" lengthAdjust="spacing" textLength="59.2" x="635.6" y="635.2422">repositories</text><text fill="#000000" font-family="sans-serif" font-size="11.2" lengthAdjust="spacing" textLength="66.4" x="632" y="650.1391">:Repositories</text><rect fill="#E3E3E3" height="40.9938" rx="2" ry="2" style="stroke:#181818;stroke-width:0.4000000000000001;" width="139.2" x="712" y="40"/><text fill="#000000" font-family="sans-serif" font-size="11.2" lengthAdjust="spacing" textLength="120.8" x="721.2" y="57.6859">registedSkillsRepository</text><text fill="#000000" font-family="sans-serif" font-size="11.2" lengthAdjust="spacing" textLength="128" x="717.6" y="72.5828">:RegistedSkillsRepository</text><rect fill="#E3E3E3" height="40.9938" rx="2" ry="2" style="stroke:#181818;stroke-width:0.4000000000000001;" width="139.2" x="712" y="617.5563"/><text fill="#000000" font-family="sans-serif" font-size="11.2" lengthAdjust="spacing" textLength="120.8" x="721.2" y="635.2422">registedSkillsRepository</text><text fill="#000000" font-family="sans-serif" font-size="11.2" lengthAdjust="spacing" textLength="128" x="717.6" y="650.1391">:RegistedSkillsRepository</text><rect fill="#E3E3E3" height="40.9938" rx="2" ry="2" style="stroke:#181818;stroke-width:0.4000000000000001;" width="181.6" x="859.2" y="40"/><text fill="#000000" font-family="sans-serif" font-size="11.2" lengthAdjust="spacing" textLength="163.2" x="868.4" y="57.6859">registedCollaboratorsRepository</text><text fill="#000000" font-family="sans-serif" font-size="11.2" lengthAdjust="spacing" textLength="170.4" x="864.8" y="72.5828">:RegistedCollaboratorsRepository</text><rect fill="#E3E3E3" height="40.9938" rx="2" ry="2" style="stroke:#181818;stroke-width:0.4000000000000001;" width="181.6" x="859.2" y="617.5563"/><text fill="#000000" font-family="sans-serif" font-size="11.2" lengthAdjust="spacing" textLength="163.2" x="868.4" y="635.2422">registedCollaboratorsRepository</text><text fill="#000000" font-family="sans-serif" font-size="11.2" lengthAdjust="spacing" textLength="170.4" x="864.8" y="650.1391">:RegistedCollaboratorsRepository</text><rect fill="#E3E3E3" height="40.9938" rx="2" ry="2" style="stroke:#181818;stroke-width:0.4000000000000001;" width="162.4" x="1048.8" y="40"/><text fill="#000000" font-family="sans-serif" font-size="11.2" lengthAdjust="spacing" textLength="145.6" x="1057.2" y="57.6859">collaboratorsSkillsRepository</text><text fill="#000000" font-family="sans-serif" font-size="11.2" lengthAdjust="spacing" textLength="151.2" x="1054.4" y="72.5828">:CollaboratorsSkillsRepository</text><rect fill="#E3E3E3" height="40.9938" rx="2" ry="2" style="stroke:#181818;stroke-width:0.4000000000000001;" width="162.4" x="1048.8" y="617.5563"/><text fill="#000000" font-family="sans-serif" font-size="11.2" lengthAdjust="spacing" textLength="145.6" x="1057.2" y="635.2422">collaboratorsSkillsRepository</text><text fill="#000000" font-family="sans-serif" font-size="11.2" lengthAdjust="spacing" textLength="151.2" x="1054.4" y="650.1391">:CollaboratorsSkillsRepository</text><rect fill="#E3E3E3" height="40.9938" rx="2" ry="2" style="stroke:#181818;stroke-width:0.4000000000000001;" width="142.4" x="1219.2" y="40"/><text fill="#000000" font-family="sans-serif" font-size="11.2" lengthAdjust="spacing" textLength="127.2" x="1226.8" y="57.6859">proposalTeamRepository</text><text fill="#000000" font-family="sans-serif" font-size="11.2" lengthAdjust="spacing" textLength="131.2" x="1224.8" y="72.5828">:ProposalTeamRepository</text><rect fill="#E3E3E3" height="40.9938" rx="2" ry="2" style="stroke:#181818;stroke-width:0.4000000000000001;" width="142.4" x="1219.2" y="617.5563"/><text fill="#000000" font-family="sans-serif" font-size="11.2" lengthAdjust="spacing" textLength="127.2" x="1226.8" y="635.2422">proposalTeamRepository</text><text fill="#000000" font-family="sans-serif" font-size="11.2" lengthAdjust="spacing" textLength="131.2" x="1224.8" y="650.1391">:ProposalTeamRepository</text><rect fill="#FFFFFF" height="521.3625" style="stroke:#181818;stroke-width:0.8000000000000002;" width="8" x="60.8" y="89.7938"/><rect fill="#FFFFFF" height="38.8656" style="stroke:#181818;stroke-width:0.8000000000000002;" width="8" x="299.2" y="108.4266"/><rect fill="#FFFFFF" height="25.0328" style="stroke:#181818;stroke-width:0.8000000000000002;" width="8" x="299.2" y="186.1578"/><rect fill="#FFFFFF" height="296.6344" style="stroke:#181818;stroke-width:0.8000000000000002;" width="8" x="299.2" y="257.2563"/><rect fill="#FFFFFF" height="25.0328" style="stroke:#181818;stroke-width:0.8000000000000002;" width="8" x="299.2" y="578.9234"/><rect fill="#FFFFFF" height="63.6344" style="stroke:#181818;stroke-width:0.8000000000000002;" width="8" x="468" y="282.2891"/><rect fill="#FFFFFF" height="63.6344" style="stroke:#181818;stroke-width:0.8000000000000002;" width="8" x="468" y="376.5563"/><rect fill="#FFFFFF" height="63.6344" style="stroke:#181818;stroke-width:0.8000000000000002;" width="8" x="468" y="465.2234"/><polygon fill="#181818" points="289.6,105.2266,297.6,108.4266,289.6,111.6266,292.8,108.4266" style="stroke:#181818;stroke-width:0.8000000000000002;"/><line style="stroke:#181818;stroke-width:0.8000000000000002;" x1="68.8" x2="294.4" y1="108.4266" y2="108.4266"/><text fill="#000000" font-family="sans-serif" font-size="10.4" font-weight="bold" lengthAdjust="spacing" textLength="5.6" x="74.4" y="104.2164">1</text><text fill="#000000" font-family="sans-serif" font-size="10.4" lengthAdjust="spacing" textLength="155.2" x="83.2" y="104.2164">asks to generate a team proposal</text><polygon fill="#181818" points="77.6,144.0922,69.6,147.2922,77.6,150.4922,74.4,147.2922" style="stroke:#181818;stroke-width:0.8000000000000002;"/><line style="stroke:#181818;stroke-width:0.8000000000000002;stroke-dasharray:2.0,2.0;" x1="72.8" x2="302.4" y1="147.2922" y2="147.2922"/><text fill="#000000" font-family="sans-serif" font-size="10.4" font-weight="bold" lengthAdjust="spacing" textLength="5.6" x="82.4" y="136.1656">2</text><text fill="#000000" font-family="sans-serif" font-size="10.4" lengthAdjust="spacing" textLength="164" x="91.2" y="129.2492">requests which is the minimum and</text><text fill="#000000" font-family="sans-serif" font-size="10.4" lengthAdjust="spacing" textLength="183.2" x="94.4" y="143.082">maximum number of team collaborators</text><polygon fill="#181818" points="289.6,182.9578,297.6,186.1578,289.6,189.3578,292.8,186.1578" style="stroke:#181818;stroke-width:0.8000000000000002;"/><line style="stroke:#181818;stroke-width:0.8000000000000002;" x1="68.8" x2="294.4" y1="186.1578" y2="186.1578"/><text fill="#000000" font-family="sans-serif" font-size="10.4" font-weight="bold" lengthAdjust="spacing" textLength="5.6" x="74.4" y="175.0313">3</text><text fill="#000000" font-family="sans-serif" font-size="10.4" lengthAdjust="spacing" textLength="206.4" x="83.2" y="168.1148">types the minimum and maximum number of</text><text fill="#000000" font-family="sans-serif" font-size="10.4" lengthAdjust="spacing" textLength="85.6" x="86.4" y="181.9477">team collaborators</text><polygon fill="#181818" points="77.6,207.9906,69.6,211.1906,77.6,214.3906,74.4,211.1906" style="stroke:#181818;stroke-width:0.8000000000000002;"/><line style="stroke:#181818;stroke-width:0.8000000000000002;stroke-dasharray:2.0,2.0;" x1="72.8" x2="302.4" y1="211.1906" y2="211.1906"/><text fill="#000000" font-family="sans-serif" font-size="10.4" font-weight="bold" lengthAdjust="spacing" textLength="5.6" x="82.4" y="206.9805">4</text><text fill="#000000" font-family="sans-serif" font-size="10.4" lengthAdjust="spacing" textLength="168.8" x="91.2" y="206.9805">requests which are the skills needed</text><path d="M8,223.1906 L66.4,223.1906 L66.4,230.6234 L58.4,238.6234 L8,238.6234 L8,223.1906 " fill="#EEEEEE" style="stroke:#000000;stroke-width:1.2000000000000002;"/><rect fill="none" height="129.1328" style="stroke:#000000;stroke-width:1.2000000000000002;" width="532.8" x="8" y="223.1906"/><text fill="#000000" font-family="sans-serif" font-size="10.4" font-weight="bold" lengthAdjust="spacing" textLength="22.4" x="20" y="235.2133">loop</text><text fill="#000000" font-family="sans-serif" font-size="8.8" font-weight="bold" lengthAdjust="spacing" textLength="72" x="78.4" y="234.2867">[while intended]</text><polygon fill="#181818" points="289.6,254.0563,297.6,257.2563,289.6,260.4563,292.8,257.2563" style="stroke:#181818;stroke-width:0.8000000000000002;"/><line style="stroke:#181818;stroke-width:0.8000000000000002;" x1="68.8" x2="294.4" y1="257.2563" y2="257.2563"/><text fill="#000000" font-family="sans-serif" font-size="10.4" font-weight="bold" lengthAdjust="spacing" textLength="5.6" x="74.4" y="253.0461">5</text><text fill="#000000" font-family="sans-serif" font-size="10.4" lengthAdjust="spacing" textLength="64.8" x="83.2" y="253.0461">types the skill</text><polygon fill="#181818" points="458.4,279.0891,466.4,282.2891,458.4,285.4891,461.6,282.2891" style="stroke:#181818;stroke-width:0.8000000000000002;"/><line style="stroke:#181818;stroke-width:0.8000000000000002;" x1="307.2" x2="463.2" y1="282.2891" y2="282.2891"/><text fill="#000000" font-family="sans-serif" font-size="10.4" font-weight="bold" lengthAdjust="spacing" textLength="5.6" x="312.8" y="278.0789">6</text><text fill="#000000" font-family="sans-serif" font-size="10.4" lengthAdjust="spacing" textLength="104" x="321.6" y="278.0789">getRegistedSkillsList()</text><rect fill="none" height="34.6016" style="stroke:#000000;stroke-width:1.2000000000000002;" width="126.4" x="408.8" y="288.6891"/><path d="M408.8,288.6891 L458.4,288.6891 L458.4,295.8891 L450.4,303.8891 L408.8,303.8891 L408.8,288.6891 " fill="#EEEEEE" style="stroke:#000000;stroke-width:1.6000000000000003;"/><text fill="#000000" font-family="sans-serif" font-size="10.4" font-weight="bold" lengthAdjust="spacing" textLength="13.6" x="419.2" y="301.5117">ref</text><text fill="#000000" font-family="sans-serif" font-size="9.6" lengthAdjust="spacing" textLength="102.4" x="420.8" y="317.4484">Get Registed Skills List</text><polygon fill="#181818" points="316,342.7234,308,345.9234,316,349.1234,312.8,345.9234" style="stroke:#181818;stroke-width:0.8000000000000002;"/><line style="stroke:#181818;stroke-width:0.8000000000000002;stroke-dasharray:2.0,2.0;" x1="311.2" x2="471.2" y1="345.9234" y2="345.9234"/><text fill="#000000" font-family="sans-serif" font-size="10.4" font-weight="bold" lengthAdjust="spacing" textLength="5.6" x="320.8" y="341.7133">7</text><text fill="#000000" font-family="sans-serif" font-size="10.4" lengthAdjust="spacing" textLength="79.2" x="329.6" y="341.7133">registedSkillsList</text><polygon fill="#181818" points="458.4,373.3563,466.4,376.5563,458.4,379.7563,461.6,376.5563" style="stroke:#181818;stroke-width:0.8000000000000002;"/><line style="stroke:#181818;stroke-width:0.8000000000000002;" x1="307.2" x2="463.2" y1="376.5563" y2="376.5563"/><text fill="#000000" font-family="sans-serif" font-size="10.4" font-weight="bold" lengthAdjust="spacing" textLength="5.6" x="312.8" y="372.3461">8</text><text fill="#000000" font-family="sans-serif" font-size="10.4" lengthAdjust="spacing" textLength="136.8" x="321.6" y="372.3461">getCollaboratorsBySkillsList()</text><rect fill="none" height="34.6016" style="stroke:#000000;stroke-width:1.2000000000000002;" width="141.6" x="408.8" y="382.9563"/><path d="M408.8,382.9563 L458.4,382.9563 L458.4,390.1563 L450.4,398.1563 L408.8,398.1563 L408.8,382.9563 " fill="#EEEEEE" style="stroke:#000000;stroke-width:1.6000000000000003;"/><text fill="#000000" font-family="sans-serif" font-size="10.4" font-weight="bold" lengthAdjust="spacing" textLength="13.6" x="419.2" y="395.7789">ref</text><text fill="#000000" font-family="sans-serif" font-size="9.6" lengthAdjust="spacing" textLength="135.2" x="412" y="411.7156">Get Collaborators By Skills List</text><polygon fill="#181818" points="316,436.9906,308,440.1906,316,443.3906,312.8,440.1906" style="stroke:#181818;stroke-width:0.8000000000000002;"/><line style="stroke:#181818;stroke-width:0.8000000000000002;stroke-dasharray:2.0,2.0;" x1="311.2" x2="471.2" y1="440.1906" y2="440.1906"/><text fill="#000000" font-family="sans-serif" font-size="10.4" font-weight="bold" lengthAdjust="spacing" textLength="5.6" x="320.8" y="435.9805">9</text><text fill="#000000" font-family="sans-serif" font-size="10.4" lengthAdjust="spacing" textLength="114.4" x="329.6" y="435.9805">collaboratorsBySkillsList</text><polygon fill="#181818" points="458.4,462.0234,466.4,465.2234,458.4,468.4234,461.6,465.2234" style="stroke:#181818;stroke-width:0.8000000000000002;"/><line style="stroke:#181818;stroke-width:0.8000000000000002;" x1="307.2" x2="463.2" y1="465.2234" y2="465.2234"/><text fill="#000000" font-family="sans-serif" font-size="10.4" font-weight="bold" lengthAdjust="spacing" textLength="11.2" x="312.8" y="461.0133">10</text><text fill="#000000" font-family="sans-serif" font-size="10.4" lengthAdjust="spacing" textLength="87.2" x="327.2" y="461.0133">getProposalTeam()</text><rect fill="none" height="34.6016" style="stroke:#000000;stroke-width:1.2000000000000002;" width="126.4" x="408.8" y="471.6234"/><path d="M408.8,471.6234 L458.4,471.6234 L458.4,478.8234 L450.4,486.8234 L408.8,486.8234 L408.8,471.6234 " fill="#EEEEEE" style="stroke:#000000;stroke-width:1.6000000000000003;"/><text fill="#000000" font-family="sans-serif" font-size="10.4" font-weight="bold" lengthAdjust="spacing" textLength="13.6" x="419.2" y="484.4461">ref</text><text fill="#000000" font-family="sans-serif" font-size="9.6" lengthAdjust="spacing" textLength="85.6" x="429.2" y="500.3828">Get Proposal Team</text><polygon fill="#181818" points="316,525.6578,308,528.8578,316,532.0578,312.8,528.8578" style="stroke:#181818;stroke-width:0.8000000000000002;"/><line style="stroke:#181818;stroke-width:0.8000000000000002;stroke-dasharray:2.0,2.0;" x1="311.2" x2="471.2" y1="528.8578" y2="528.8578"/><text fill="#000000" font-family="sans-serif" font-size="10.4" font-weight="bold" lengthAdjust="spacing" textLength="11.2" x="320.8" y="524.6477">11</text><text fill="#000000" font-family="sans-serif" font-size="10.4" lengthAdjust="spacing" textLength="64.8" x="335.2" y="524.6477">proposalTeam</text><polygon fill="#181818" points="77.6,550.6906,69.6,553.8906,77.6,557.0906,74.4,553.8906" style="stroke:#181818;stroke-width:0.8000000000000002;"/><line style="stroke:#181818;stroke-width:0.8000000000000002;stroke-dasharray:2.0,2.0;" x1="72.8" x2="302.4" y1="553.8906" y2="553.8906"/><text fill="#000000" font-family="sans-serif" font-size="10.4" font-weight="bold" lengthAdjust="spacing" textLength="11.2" x="82.4" y="549.6805">12</text><text fill="#000000" font-family="sans-serif" font-size="10.4" lengthAdjust="spacing" textLength="172.8" x="96.8" y="549.6805">shows and aks to confirm all the data</text><polygon fill="#181818" points="289.6,575.7234,297.6,578.9234,289.6,582.1234,292.8,578.9234" style="stroke:#181818;stroke-width:0.8000000000000002;"/><line style="stroke:#181818;stroke-width:0.8000000000000002;" x1="68.8" x2="294.4" y1="578.9234" y2="578.9234"/><text fill="#000000" font-family="sans-serif" font-size="10.4" font-weight="bold" lengthAdjust="spacing" textLength="11.2" x="74.4" y="574.7133">13</text><text fill="#000000" font-family="sans-serif" font-size="10.4" lengthAdjust="spacing" textLength="93.6" x="88.8" y="574.7133">confirms all the data</text><polygon fill="#181818" points="77.6,600.7563,69.6,603.9563,77.6,607.1563,74.4,603.9563" style="stroke:#181818;stroke-width:0.8000000000000002;"/><line style="stroke:#181818;stroke-width:0.8000000000000002;stroke-dasharray:2.0,2.0;" x1="72.8" x2="302.4" y1="603.9563" y2="603.9563"/><text fill="#000000" font-family="sans-serif" font-size="10.4" font-weight="bold" lengthAdjust="spacing" textLength="11.2" x="82.4" y="599.7461">14</text><text fill="#000000" font-family="sans-serif" font-size="10.4" lengthAdjust="spacing" textLength="126.4" x="96.8" y="599.7461">displays operation success</text><!--SRC=[dLMzRkCm3Dxz54Ickw73hHaAj1ck1LAWID8j2sipiH1PyaboKx_zKRBhMB6SuawJ8vBVZqGgzYHKZGOhgBJIUMbqHU1CGvaT8ZNc9ppIrhMIm53kK1tbEC6MMEYpK4SueBIKPPWxRM3nr5IeO4DMDoOdkrSlg1Z8B00jF6rUCYvt8XSrAWUBvOQEmhhjIKXftvv3qjlpZPoLLiveANl0rMwpdcJNsWhM8iY6d66ZtGflmcaLbvXHnLvD0LxN3xlh2g-8YaxJXI1KfqEzb7GmZRvYd_Yk3N9AccGc8-AQoOafyt5ImjNgLhoxYLiPCLbjD0TGxWYhYEKr6UZk81dYhcluEflgdGpy2ZqeFj1HQBGCUF47tDrpJy6IOKuMd8OZAJ8-2y6Hx_KUEnJuDS1mAuPDBhzZ50-sv6duqv1r5iwbo4iGZ5aIL4A9gga0LR5NKE5d-DLBquUEAJhcW5nGH3RHxDgQ9WHJUAQS8VXdFsWeyDbmXw282YfIMlsMrBhsTVn82EL8-TI1TjvBm9wNzxMypFimuqk-D1TFpvg_V_pCfYZXJHYs3Hr0V_0XXUqn-czomv10XmaUT4XYExxyWkKXmi45EsOYPqWSdTH5pVLcJt6vaP7LQ9eUswdZ17xQgNSPeS5ZEt4REOrTvdDAibcZLrx6e_jVyhy0m2DyftVykAGbJYV0blfims1XzqBaMXs4uLcJClHhWGxdHc3SuNsTdHRU7i52s5fYQq7N_cKIMe5jSlxxJ3uIVm40]--></g></svg>