<?xml version="1.0" encoding="us-ascii" standalone="no"?><svg xmlns="http://www.w3.org/2000/svg" xmlns:xlink="http://www.w3.org/1999/xlink" contentStyleType="text/css" height="984px" preserveAspectRatio="none" style="width:1372px;height:984px;background:#FFFFFF;" version="1.1" viewBox="0 0 1372 984" width="1372px" zoomAndPan="magnify"><defs/><g><rect fill="#FFFFFF" height="806.0828" style="stroke:#181818;stroke-width:0.8000000000000002;" width="8" x="60.8" y="89.7938"/><rect fill="#FFFFFF" height="38.8656" style="stroke:#181818;stroke-width:0.8000000000000002;" width="8" x="299.2" y="108.4266"/><rect fill="#FFFFFF" height="25.0328" style="stroke:#181818;stroke-width:0.8000000000000002;" width="8" x="299.2" y="186.1578"/><rect fill="#FFFFFF" height="581.3547" style="stroke:#181818;stroke-width:0.8000000000000002;" width="8" x="299.2" y="257.2563"/><rect fill="#FFFFFF" height="25.0328" style="stroke:#181818;stroke-width:0.8000000000000002;" width="8" x="299.2" y="863.6438"/><rect fill="#FFFFFF" height="175.2297" style="stroke:#181818;stroke-width:0.8000000000000002;" width="8" x="473.6" y="282.2891"/><rect fill="#FFFFFF" height="175.2297" style="stroke:#181818;stroke-width:0.8000000000000002;" width="8" x="473.6" y="488.1516"/><rect fill="#FFFFFF" height="125.1641" style="stroke:#181818;stroke-width:0.8000000000000002;" width="8" x="473.6" y="688.4141"/><rect fill="#FFFFFF" height="25.0328" style="stroke:#181818;stroke-width:0.8000000000000002;" width="8" x="581.2" y="307.3219"/><rect fill="#FFFFFF" height="25.0328" style="stroke:#181818;stroke-width:0.8000000000000002;" width="8" x="666.8" y="357.3875"/><rect fill="#FFFFFF" height="25.0328" style="stroke:#181818;stroke-width:0.8000000000000002;" width="8" x="783.2" y="407.4531"/><rect fill="#FFFFFF" height="25.0328" style="stroke:#181818;stroke-width:0.8000000000000002;" width="8" x="783.2" y="513.1844"/><rect fill="#FFFFFF" height="25.0328" style="stroke:#181818;stroke-width:0.8000000000000002;" width="8" x="951.6" y="563.25"/><rect fill="#FFFFFF" height="25.0328" style="stroke:#181818;stroke-width:0.8000000000000002;" width="8" x="1131.6" y="613.3156"/><rect fill="#FFFFFF" height="25.0328" style="stroke:#181818;stroke-width:0.8000000000000002;" width="8" x="1131.6" y="713.4469"/><rect fill="#FFFFFF" height="25.0328" style="stroke:#181818;stroke-width:0.8000000000000002;" width="8" x="1292" y="763.5125"/><rect fill="none" height="240.7281" style="stroke:#000000;stroke-width:1.2000000000000002;" width="856.8" x="8" y="223.1906"/><line style="stroke:#181818;stroke-width:0.4000000000000001;stroke-dasharray:5.0,5.0;" x1="64.8" x2="64.8" y1="81.7938" y2="903.0766"/><line style="stroke:#181818;stroke-width:0.4000000000000001;stroke-dasharray:5.0,5.0;" x1="303.2" x2="303.2" y1="81.7938" y2="903.0766"/><line style="stroke:#181818;stroke-width:0.4000000000000001;stroke-dasharray:5.0,5.0;" x1="477.6" x2="477.6" y1="81.7938" y2="903.0766"/><line style="stroke:#181818;stroke-width:0.4000000000000001;stroke-dasharray:5.0,5.0;" x1="584.8" x2="584.8" y1="81.7938" y2="903.0766"/><line style="stroke:#181818;stroke-width:0.4000000000000001;stroke-dasharray:5.0,5.0;" x1="670.4" x2="670.4" y1="81.7938" y2="903.0766"/><line style="stroke:#181818;stroke-width:0.4000000000000001;stroke-dasharray:5.0,5.0;" x1="787.2" x2="787.2" y1="81.7938" y2="903.0766"/><line style="stroke:#181818;stroke-width:0.4000000000000001;stroke-dasharray:5.0,5.0;" x1="955.2" x2="955.2" y1="81.7938" y2="903.0766"/><line style="stroke:#181818;stroke-width:0.4000000000000001;stroke-dasharray:5.0,5.0;" x1="1135.2" x2="1135.2" y1="81.7938" y2="903.0766"/><line style="stroke:#181818;stroke-width:0.4000000000000001;stroke-dasharray:5.0,5.0;" x1="1296" x2="1296" y1="81.7938" y2="903.0766"/><text fill="#000000" font-family="sans-serif" font-size="11.2" lengthAdjust="spacing" textLength="92.8" x="16" y="64.0859">Human Resources</text><text fill="#000000" font-family="sans-serif" font-size="11.2" lengthAdjust="spacing" textLength="44.8" x="40" y="78.9828">Manager</text><ellipse cx="64.8" cy="10.8" fill="#E3E3E3" rx="6.4" ry="6.4" style="stroke:#181818;stroke-width:0.4000000000000001;"/><path d="M64.8,17.2 L64.8,38.8 M54.4,23.6 L75.2,23.6 M64.8,38.8 L54.4,50.8 M64.8,38.8 L75.2,50.8 " fill="none" style="stroke:#181818;stroke-width:0.4000000000000001;"/><text fill="#000000" font-family="sans-serif" font-size="11.2" lengthAdjust="spacing" textLength="92.8" x="16" y="914.3625">Human Resources</text><text fill="#000000" font-family="sans-serif" font-size="11.2" lengthAdjust="spacing" textLength="44.8" x="40" y="929.2594">Manager</text><ellipse cx="64.8" cy="938.8703" fill="#E3E3E3" rx="6.4" ry="6.4" style="stroke:#181818;stroke-width:0.4000000000000001;"/><path d="M64.8,945.2703 L64.8,966.8703 M54.4,951.6703 L75.2,951.6703 M64.8,966.8703 L54.4,978.8703 M64.8,966.8703 L75.2,978.8703 " fill="none" style="stroke:#181818;stroke-width:0.4000000000000001;"/><rect fill="#E3E3E3" height="26.0969" rx="2" ry="2" style="stroke:#181818;stroke-width:0.4000000000000001;" width="81.6" x="262.4" y="54.8969"/><text fill="#000000" font-family="sans-serif" font-size="11.2" lengthAdjust="spacing" textLength="70.4" x="268" y="72.5828">:RegistSkillsUI</text><rect fill="#E3E3E3" height="26.0969" rx="2" ry="2" style="stroke:#181818;stroke-width:0.4000000000000001;" width="81.6" x="262.4" y="902.2766"/><text fill="#000000" font-family="sans-serif" font-size="11.2" lengthAdjust="spacing" textLength="70.4" x="268" y="919.9625">:RegistSkillsUI</text><rect fill="#E3E3E3" height="26.0969" rx="2" ry="2" style="stroke:#181818;stroke-width:0.4000000000000001;" width="121.6" x="416.8" y="54.8969"/><text fill="#000000" font-family="sans-serif" font-size="11.2" lengthAdjust="spacing" textLength="110.4" x="422.4" y="72.5828">:RegistSkillsController</text><rect fill="#E3E3E3" height="26.0969" rx="2" ry="2" style="stroke:#181818;stroke-width:0.4000000000000001;" width="121.6" x="416.8" y="902.2766"/><text fill="#000000" font-family="sans-serif" font-size="11.2" lengthAdjust="spacing" textLength="110.4" x="422.4" y="919.9625">:RegistSkillsController</text><rect fill="#E3E3E3" height="26.0969" rx="2" ry="2" style="stroke:#181818;stroke-width:0.4000000000000001;" width="77.6" x="546.4" y="54.8969"/><text fill="#000000" font-family="sans-serif" font-size="11.2" lengthAdjust="spacing" textLength="66.4" x="552" y="72.5828">:Repositories</text><rect fill="#E3E3E3" height="26.0969" rx="2" ry="2" style="stroke:#181818;stroke-width:0.4000000000000001;" width="77.6" x="546.4" y="902.2766"/><text fill="#000000" font-family="sans-serif" font-size="11.2" lengthAdjust="spacing" textLength="66.4" x="552" y="919.9625">:Repositories</text><rect fill="#E3E3E3" height="40.9938" rx="2" ry="2" style="stroke:#181818;stroke-width:0.4000000000000001;" width="77.6" x="632" y="40"/><text fill="#000000" font-family="sans-serif" font-size="11.2" lengthAdjust="spacing" textLength="59.2" x="641.2" y="57.6859">repositories</text><text fill="#000000" font-family="sans-serif" font-size="11.2" lengthAdjust="spacing" textLength="66.4" x="637.6" y="72.5828">:Repositories</text><rect fill="#E3E3E3" height="40.9938" rx="2" ry="2" style="stroke:#181818;stroke-width:0.4000000000000001;" width="77.6" x="632" y="902.2766"/><text fill="#000000" font-family="sans-serif" font-size="11.2" lengthAdjust="spacing" textLength="59.2" x="641.2" y="919.9625">repositories</text><text fill="#000000" font-family="sans-serif" font-size="11.2" lengthAdjust="spacing" textLength="66.4" x="637.6" y="934.8594">:Repositories</text><rect fill="#E3E3E3" height="40.9938" rx="2" ry="2" style="stroke:#181818;stroke-width:0.4000000000000001;" width="139.2" x="717.6" y="40"/><text fill="#000000" font-family="sans-serif" font-size="11.2" lengthAdjust="spacing" textLength="120.8" x="726.8" y="57.6859">registedSkillsRepository</text><text fill="#000000" font-family="sans-serif" font-size="11.2" lengthAdjust="spacing" textLength="128" x="723.2" y="72.5828">:RegistedSkillsRepository</text><rect fill="#E3E3E3" height="40.9938" rx="2" ry="2" style="stroke:#181818;stroke-width:0.4000000000000001;" width="139.2" x="717.6" y="902.2766"/><text fill="#000000" font-family="sans-serif" font-size="11.2" lengthAdjust="spacing" textLength="120.8" x="726.8" y="919.9625">registedSkillsRepository</text><text fill="#000000" font-family="sans-serif" font-size="11.2" lengthAdjust="spacing" textLength="128" x="723.2" y="934.8594">:RegistedSkillsRepository</text><rect fill="#E3E3E3" height="40.9938" rx="2" ry="2" style="stroke:#181818;stroke-width:0.4000000000000001;" width="181.6" x="864.8" y="40"/><text fill="#000000" font-family="sans-serif" font-size="11.2" lengthAdjust="spacing" textLength="163.2" x="874" y="57.6859">registedCollaboratorsRepository</text><text fill="#000000" font-family="sans-serif" font-size="11.2" lengthAdjust="spacing" textLength="170.4" x="870.4" y="72.5828">:RegistedCollaboratorsRepository</text><rect fill="#E3E3E3" height="40.9938" rx="2" ry="2" style="stroke:#181818;stroke-width:0.4000000000000001;" width="181.6" x="864.8" y="902.2766"/><text fill="#000000" font-family="sans-serif" font-size="11.2" lengthAdjust="spacing" textLength="163.2" x="874" y="919.9625">registedCollaboratorsRepository</text><text fill="#000000" font-family="sans-serif" font-size="11.2" lengthAdjust="spacing" textLength="170.4" x="870.4" y="934.8594">:RegistedCollaboratorsRepository</text><rect fill="#E3E3E3" height="40.9938" rx="2" ry="2" style="stroke:#181818;stroke-width:0.4000000000000001;" width="162.4" x="1054.4" y="40"/><text fill="#000000" font-family="sans-serif" font-size="11.2" lengthAdjust="spacing" textLength="145.6" x="1062.8" y="57.6859">collaboratorsSkillsRepository</text><text fill="#000000" font-family="sans-serif" font-size="11.2" lengthAdjust="spacing" textLength="151.2" x="1060" y="72.5828">:CollaboratorsSkillsRepository</text><rect fill="#E3E3E3" height="40.9938" rx="2" ry="2" style="stroke:#181818;stroke-width:0.4000000000000001;" width="162.4" x="1054.4" y="902.2766"/><text fill="#000000" font-family="sans-serif" font-size="11.2" lengthAdjust="spacing" textLength="145.6" x="1062.8" y="919.9625">collaboratorsSkillsRepository</text><text fill="#000000" font-family="sans-serif" font-size="11.2" lengthAdjust="spacing" textLength="151.2" x="1060" y="934.8594">:CollaboratorsSkillsRepository</text><rect fill="#E3E3E3" height="40.9938" rx="2" ry="2" style="stroke:#181818;stroke-width:0.4000000000000001;" width="142.4" x="1224.8" y="40"/><text fill="#000000" font-family="sans-serif" font-size="11.2" lengthAdjust="spacing" textLength="127.2" x="1232.4" y="57.6859">proposalTeamRepository</text><text fill="#000000" font-family="sans-serif" font-size="11.2" lengthAdjust="spacing" textLength="131.2" x="1230.4" y="72.5828">:ProposalTeamRepository</text><rect fill="#E3E3E3" height="40.9938" rx="2" ry="2" style="stroke:#181818;stroke-width:0.4000000000000001;" width="142.4" x="1224.8" y="902.2766"/><text fill="#000000" font-family="sans-serif" font-size="11.2" lengthAdjust="spacing" textLength="127.2" x="1232.4" y="919.9625">proposalTeamRepository</text><text fill="#000000" font-family="sans-serif" font-size="11.2" lengthAdjust="spacing" textLength="131.2" x="1230.4" y="934.8594">:ProposalTeamRepository</text><rect fill="#FFFFFF" height="806.0828" style="stroke:#181818;stroke-width:0.8000000000000002;" width="8" x="60.8" y="89.7938"/><rect fill="#FFFFFF" height="38.8656" style="stroke:#181818;stroke-width:0.8000000000000002;" width="8" x="299.2" y="108.4266"/><rect fill="#FFFFFF" height="25.0328" style="stroke:#181818;stroke-width:0.8000000000000002;" width="8" x="299.2" y="186.1578"/><rect fill="#FFFFFF" height="581.3547" style="stroke:#181818;stroke-width:0.8000000000000002;" width="8" x="299.2" y="257.2563"/><rect fill="#FFFFFF" height="25.0328" style="stroke:#181818;stroke-width:0.8000000000000002;" width="8" x="299.2" y="863.6438"/><rect fill="#FFFFFF" height="175.2297" style="stroke:#181818;stroke-width:0.8000000000000002;" width="8" x="473.6" y="282.2891"/><rect fill="#FFFFFF" height="175.2297" style="stroke:#181818;stroke-width:0.8000000000000002;" width="8" x="473.6" y="488.1516"/><rect fill="#FFFFFF" height="125.1641" style="stroke:#181818;stroke-width:0.8000000000000002;" width="8" x="473.6" y="688.4141"/><rect fill="#FFFFFF" height="25.0328" style="stroke:#181818;stroke-width:0.8000000000000002;" width="8" x="581.2" y="307.3219"/><rect fill="#FFFFFF" height="25.0328" style="stroke:#181818;stroke-width:0.8000000000000002;" width="8" x="666.8" y="357.3875"/><rect fill="#FFFFFF" height="25.0328" style="stroke:#181818;stroke-width:0.8000000000000002;" width="8" x="783.2" y="407.4531"/><rect fill="#FFFFFF" height="25.0328" style="stroke:#181818;stroke-width:0.8000000000000002;" width="8" x="783.2" y="513.1844"/><rect fill="#FFFFFF" height="25.0328" style="stroke:#181818;stroke-width:0.8000000000000002;" width="8" x="951.6" y="563.25"/><rect fill="#FFFFFF" height="25.0328" style="stroke:#181818;stroke-width:0.8000000000000002;" width="8" x="1131.6" y="613.3156"/><rect fill="#FFFFFF" height="25.0328" style="stroke:#181818;stroke-width:0.8000000000000002;" width="8" x="1131.6" y="713.4469"/><rect fill="#FFFFFF" height="25.0328" style="stroke:#181818;stroke-width:0.8000000000000002;" width="8" x="1292" y="763.5125"/><polygon fill="#181818" points="289.6,105.2266,297.6,108.4266,289.6,111.6266,292.8,108.4266" style="stroke:#181818;stroke-width:0.8000000000000002;"/><line style="stroke:#181818;stroke-width:0.8000000000000002;" x1="68.8" x2="294.4" y1="108.4266" y2="108.4266"/><text fill="#000000" font-family="sans-serif" font-size="10.4" font-weight="bold" lengthAdjust="spacing" textLength="5.6" x="74.4" y="104.2164">1</text><text fill="#000000" font-family="sans-serif" font-size="10.4" lengthAdjust="spacing" textLength="155.2" x="83.2" y="104.2164">asks to generate a team proposal</text><polygon fill="#181818" points="77.6,144.0922,69.6,147.2922,77.6,150.4922,74.4,147.2922" style="stroke:#181818;stroke-width:0.8000000000000002;"/><line style="stroke:#181818;stroke-width:0.8000000000000002;stroke-dasharray:2.0,2.0;" x1="72.8" x2="302.4" y1="147.2922" y2="147.2922"/><text fill="#000000" font-family="sans-serif" font-size="10.4" font-weight="bold" lengthAdjust="spacing" textLength="5.6" x="82.4" y="136.1656">2</text><text fill="#000000" font-family="sans-serif" font-size="10.4" lengthAdjust="spacing" textLength="164" x="91.2" y="129.2492">requests which is the minimum and</text><text fill="#000000" font-family="sans-serif" font-size="10.4" lengthAdjust="spacing" textLength="183.2" x="94.4" y="143.082">maximum number of team collaborators</text><polygon fill="#181818" points="289.6,182.9578,297.6,186.1578,289.6,189.3578,292.8,186.1578" style="stroke:#181818;stroke-width:0.8000000000000002;"/><line style="stroke:#181818;stroke-width:0.8000000000000002;" x1="68.8" x2="294.4" y1="186.1578" y2="186.1578"/><text fill="#000000" font-family="sans-serif" font-size="10.4" font-weight="bold" lengthAdjust="spacing" textLength="5.6" x="74.4" y="175.0313">3</text><text fill="#000000" font-family="sans-serif" font-size="10.4" lengthAdjust="spacing" textLength="206.4" x="83.2" y="168.1148">types the minimum and maximum number of</text><text fill="#000000" font-family="sans-serif" font-size="10.4" lengthAdjust="spacing" textLength="85.6" x="86.4" y="181.9477">team collaborators</text><polygon fill="#181818" points="77.6,207.9906,69.6,211.1906,77.6,214.3906,74.4,211.1906" style="stroke:#181818;stroke-width:0.8000000000000002;"/><line style="stroke:#181818;stroke-width:0.8000000000000002;stroke-dasharray:2.0,2.0;" x1="72.8" x2="302.4" y1="211.1906" y2="211.1906"/><text fill="#000000" font-family="sans-serif" font-size="10.4" font-weight="bold" lengthAdjust="spacing" textLength="5.6" x="82.4" y="206.9805">4</text><text fill="#000000" font-family="sans-serif" font-size="10.4" lengthAdjust="spacing" textLength="168.8" x="91.2" y="206.9805">requests which are the skills needed</text><path d="M8,223.1906 L66.4,223.1906 L66.4,230.6234 L58.4,238.6234 L8,238.6234 L8,223.1906 " fill="#EEEEEE" style="stroke:#000000;stroke-width:1.2000000000000002;"/><rect fill="none" height="240.7281" style="stroke:#000000;stroke-width:1.2000000000000002;" width="856.8" x="8" y="223.1906"/><text fill="#000000" font-family="sans-serif" font-size="10.4" font-weight="bold" lengthAdjust="spacing" textLength="22.4" x="20" y="235.2133">loop</text><text fill="#000000" font-family="sans-serif" font-size="8.8" font-weight="bold" lengthAdjust="spacing" textLength="72" x="78.4" y="234.2867">[while intended]</text><polygon fill="#181818" points="289.6,254.0563,297.6,257.2563,289.6,260.4563,292.8,257.2563" style="stroke:#181818;stroke-width:0.8000000000000002;"/><line style="stroke:#181818;stroke-width:0.8000000000000002;" x1="68.8" x2="294.4" y1="257.2563" y2="257.2563"/><text fill="#000000" font-family="sans-serif" font-size="10.4" font-weight="bold" lengthAdjust="spacing" textLength="5.6" x="74.4" y="253.0461">5</text><text fill="#000000" font-family="sans-serif" font-size="10.4" lengthAdjust="spacing" textLength="64.8" x="83.2" y="253.0461">types the skill</text><polygon fill="#181818" points="464,279.0891,472,282.2891,464,285.4891,467.2,282.2891" style="stroke:#181818;stroke-width:0.8000000000000002;"/><line style="stroke:#181818;stroke-width:0.8000000000000002;" x1="307.2" x2="468.8" y1="282.2891" y2="282.2891"/><text fill="#000000" font-family="sans-serif" font-size="10.4" font-weight="bold" lengthAdjust="spacing" textLength="5.6" x="312.8" y="278.0789">6</text><text fill="#000000" font-family="sans-serif" font-size="10.4" lengthAdjust="spacing" textLength="104" x="321.6" y="278.0789">getRegistedSkillsList()</text><polygon fill="#181818" points="571.6,304.1219,579.6,307.3219,571.6,310.5219,574.8,307.3219" style="stroke:#181818;stroke-width:0.8000000000000002;"/><line style="stroke:#181818;stroke-width:0.8000000000000002;" x1="481.6" x2="576.4" y1="307.3219" y2="307.3219"/><text fill="#000000" font-family="sans-serif" font-size="10.4" font-weight="bold" lengthAdjust="spacing" textLength="5.6" x="487.2" y="303.1117">7</text><text fill="#000000" font-family="sans-serif" font-size="10.4" lengthAdjust="spacing" textLength="60" x="496" y="303.1117">getInstance()</text><polygon fill="#181818" points="490.4,329.1547,482.4,332.3547,490.4,335.5547,487.2,332.3547" style="stroke:#181818;stroke-width:0.8000000000000002;"/><line style="stroke:#181818;stroke-width:0.8000000000000002;stroke-dasharray:2.0,2.0;" x1="485.6" x2="584.4" y1="332.3547" y2="332.3547"/><text fill="#000000" font-family="sans-serif" font-size="10.4" font-weight="bold" lengthAdjust="spacing" textLength="5.6" x="495.2" y="328.1445">8</text><text fill="#000000" font-family="sans-serif" font-size="10.4" lengthAdjust="spacing" textLength="53.6" x="504" y="328.1445">repositories</text><polygon fill="#181818" points="657.2,354.1875,665.2,357.3875,657.2,360.5875,660.4,357.3875" style="stroke:#181818;stroke-width:0.8000000000000002;"/><line style="stroke:#181818;stroke-width:0.8000000000000002;" x1="481.6" x2="662" y1="357.3875" y2="357.3875"/><text fill="#000000" font-family="sans-serif" font-size="10.4" font-weight="bold" lengthAdjust="spacing" textLength="5.6" x="487.2" y="353.1773">9</text><text fill="#000000" font-family="sans-serif" font-size="10.4" lengthAdjust="spacing" textLength="136.8" x="496" y="353.1773">getRegistedSkillsRepository()</text><polygon fill="#181818" points="490.4,379.2203,482.4,382.4203,490.4,385.6203,487.2,382.4203" style="stroke:#181818;stroke-width:0.8000000000000002;"/><line style="stroke:#181818;stroke-width:0.8000000000000002;stroke-dasharray:2.0,2.0;" x1="485.6" x2="670" y1="382.4203" y2="382.4203"/><text fill="#000000" font-family="sans-serif" font-size="10.4" font-weight="bold" lengthAdjust="spacing" textLength="11.2" x="495.2" y="378.2102">10</text><text fill="#000000" font-family="sans-serif" font-size="10.4" lengthAdjust="spacing" textLength="112" x="509.6" y="378.2102">registedSkillsRepository</text><polygon fill="#181818" points="773.6,404.2531,781.6,407.4531,773.6,410.6531,776.8,407.4531" style="stroke:#181818;stroke-width:0.8000000000000002;"/><line style="stroke:#181818;stroke-width:0.8000000000000002;" x1="481.6" x2="778.4" y1="407.4531" y2="407.4531"/><text fill="#000000" font-family="sans-serif" font-size="10.4" font-weight="bold" lengthAdjust="spacing" textLength="11.2" x="487.2" y="403.243">11</text><text fill="#000000" font-family="sans-serif" font-size="10.4" lengthAdjust="spacing" textLength="104" x="501.6" y="403.243">getRegistedSkillsList()</text><polygon fill="#181818" points="490.4,429.2859,482.4,432.4859,490.4,435.6859,487.2,432.4859" style="stroke:#181818;stroke-width:0.8000000000000002;"/><line style="stroke:#181818;stroke-width:0.8000000000000002;stroke-dasharray:2.0,2.0;" x1="485.6" x2="786.4" y1="432.4859" y2="432.4859"/><text fill="#000000" font-family="sans-serif" font-size="10.4" font-weight="bold" lengthAdjust="spacing" textLength="11.2" x="495.2" y="428.2758">12</text><text fill="#000000" font-family="sans-serif" font-size="10.4" lengthAdjust="spacing" textLength="79.2" x="509.6" y="428.2758">registedSkillsList</text><polygon fill="#181818" points="316,454.3188,308,457.5188,316,460.7188,312.8,457.5188" style="stroke:#181818;stroke-width:0.8000000000000002;"/><line style="stroke:#181818;stroke-width:0.8000000000000002;stroke-dasharray:2.0,2.0;" x1="311.2" x2="476.8" y1="457.5188" y2="457.5188"/><text fill="#000000" font-family="sans-serif" font-size="10.4" font-weight="bold" lengthAdjust="spacing" textLength="11.2" x="320.8" y="453.3086">13</text><text fill="#000000" font-family="sans-serif" font-size="10.4" lengthAdjust="spacing" textLength="79.2" x="335.2" y="453.3086">registedSkillsList</text><polygon fill="#181818" points="464,484.9516,472,488.1516,464,491.3516,467.2,488.1516" style="stroke:#181818;stroke-width:0.8000000000000002;"/><line style="stroke:#181818;stroke-width:0.8000000000000002;" x1="307.2" x2="468.8" y1="488.1516" y2="488.1516"/><text fill="#000000" font-family="sans-serif" font-size="10.4" font-weight="bold" lengthAdjust="spacing" textLength="11.2" x="312.8" y="483.9414">14</text><text fill="#000000" font-family="sans-serif" font-size="10.4" lengthAdjust="spacing" textLength="136.8" x="327.2" y="483.9414">getCollaboratorsBySkillsList()</text><polygon fill="#181818" points="773.6,509.9844,781.6,513.1844,773.6,516.3844,776.8,513.1844" style="stroke:#181818;stroke-width:0.8000000000000002;"/><line style="stroke:#181818;stroke-width:0.8000000000000002;" x1="481.6" x2="778.4" y1="513.1844" y2="513.1844"/><text fill="#000000" font-family="sans-serif" font-size="10.4" font-weight="bold" lengthAdjust="spacing" textLength="11.2" x="487.2" y="508.9742">15</text><text fill="#000000" font-family="sans-serif" font-size="10.4" lengthAdjust="spacing" textLength="104" x="501.6" y="508.9742">getRegistedSkillsList()</text><polygon fill="#181818" points="490.4,535.0172,482.4,538.2172,490.4,541.4172,487.2,538.2172" style="stroke:#181818;stroke-width:0.8000000000000002;"/><line style="stroke:#181818;stroke-width:0.8000000000000002;stroke-dasharray:2.0,2.0;" x1="485.6" x2="786.4" y1="538.2172" y2="538.2172"/><text fill="#000000" font-family="sans-serif" font-size="10.4" font-weight="bold" lengthAdjust="spacing" textLength="11.2" x="495.2" y="534.007">16</text><text fill="#000000" font-family="sans-serif" font-size="10.4" lengthAdjust="spacing" textLength="79.2" x="509.6" y="534.007">registedSkillsList</text><polygon fill="#181818" points="942,560.05,950,563.25,942,566.45,945.2,563.25" style="stroke:#181818;stroke-width:0.8000000000000002;"/><line style="stroke:#181818;stroke-width:0.8000000000000002;" x1="481.6" x2="946.8" y1="563.25" y2="563.25"/><text fill="#000000" font-family="sans-serif" font-size="10.4" font-weight="bold" lengthAdjust="spacing" textLength="11.2" x="487.2" y="559.0398">17</text><text fill="#000000" font-family="sans-serif" font-size="10.4" lengthAdjust="spacing" textLength="139.2" x="501.6" y="559.0398">getRegistedCollaboratorsList()</text><polygon fill="#181818" points="490.4,585.0828,482.4,588.2828,490.4,591.4828,487.2,588.2828" style="stroke:#181818;stroke-width:0.8000000000000002;"/><line style="stroke:#181818;stroke-width:0.8000000000000002;stroke-dasharray:2.0,2.0;" x1="485.6" x2="954.8" y1="588.2828" y2="588.2828"/><text fill="#000000" font-family="sans-serif" font-size="10.4" font-weight="bold" lengthAdjust="spacing" textLength="11.2" x="495.2" y="584.0727">18</text><text fill="#000000" font-family="sans-serif" font-size="10.4" lengthAdjust="spacing" textLength="114.4" x="509.6" y="584.0727">registedCollaboratorsList</text><polygon fill="#181818" points="1122,610.1156,1130,613.3156,1122,616.5156,1125.2,613.3156" style="stroke:#181818;stroke-width:0.8000000000000002;"/><line style="stroke:#181818;stroke-width:0.8000000000000002;" x1="481.6" x2="1126.8" y1="613.3156" y2="613.3156"/><text fill="#000000" font-family="sans-serif" font-size="10.4" font-weight="bold" lengthAdjust="spacing" textLength="11.2" x="487.2" y="609.1055">19</text><text fill="#000000" font-family="sans-serif" font-size="10.4" lengthAdjust="spacing" textLength="136.8" x="501.6" y="609.1055">getCollaboratorsBySkillsList()</text><polygon fill="#181818" points="490.4,635.1484,482.4,638.3484,490.4,641.5484,487.2,638.3484" style="stroke:#181818;stroke-width:0.8000000000000002;"/><line style="stroke:#181818;stroke-width:0.8000000000000002;stroke-dasharray:2.0,2.0;" x1="485.6" x2="1134.8" y1="638.3484" y2="638.3484"/><text fill="#000000" font-family="sans-serif" font-size="10.4" font-weight="bold" lengthAdjust="spacing" textLength="11.2" x="495.2" y="634.1383">20</text><text fill="#000000" font-family="sans-serif" font-size="10.4" lengthAdjust="spacing" textLength="114.4" x="509.6" y="634.1383">collaboratorsBySkillsList</text><polygon fill="#181818" points="316,660.1813,308,663.3813,316,666.5813,312.8,663.3813" style="stroke:#181818;stroke-width:0.8000000000000002;"/><line style="stroke:#181818;stroke-width:0.8000000000000002;stroke-dasharray:2.0,2.0;" x1="311.2" x2="476.8" y1="663.3813" y2="663.3813"/><text fill="#000000" font-family="sans-serif" font-size="10.4" font-weight="bold" lengthAdjust="spacing" textLength="11.2" x="320.8" y="659.1711">21</text><text fill="#000000" font-family="sans-serif" font-size="10.4" lengthAdjust="spacing" textLength="114.4" x="335.2" y="659.1711">collaboratorsBySkillsList</text><polygon fill="#181818" points="464,685.2141,472,688.4141,464,691.6141,467.2,688.4141" style="stroke:#181818;stroke-width:0.8000000000000002;"/><line style="stroke:#181818;stroke-width:0.8000000000000002;" x1="307.2" x2="468.8" y1="688.4141" y2="688.4141"/><text fill="#000000" font-family="sans-serif" font-size="10.4" font-weight="bold" lengthAdjust="spacing" textLength="11.2" x="312.8" y="684.2039">22</text><text fill="#000000" font-family="sans-serif" font-size="10.4" lengthAdjust="spacing" textLength="87.2" x="327.2" y="684.2039">getProposalTeam()</text><polygon fill="#181818" points="1122,710.2469,1130,713.4469,1122,716.6469,1125.2,713.4469" style="stroke:#181818;stroke-width:0.8000000000000002;"/><line style="stroke:#181818;stroke-width:0.8000000000000002;" x1="481.6" x2="1126.8" y1="713.4469" y2="713.4469"/><text fill="#000000" font-family="sans-serif" font-size="10.4" font-weight="bold" lengthAdjust="spacing" textLength="11.2" x="487.2" y="709.2367">23</text><text fill="#000000" font-family="sans-serif" font-size="10.4" lengthAdjust="spacing" textLength="136.8" x="501.6" y="709.2367">getCollaboratorsBySkillsList()</text><polygon fill="#181818" points="490.4,735.2797,482.4,738.4797,490.4,741.6797,487.2,738.4797" style="stroke:#181818;stroke-width:0.8000000000000002;"/><line style="stroke:#181818;stroke-width:0.8000000000000002;stroke-dasharray:2.0,2.0;" x1="485.6" x2="1134.8" y1="738.4797" y2="738.4797"/><text fill="#000000" font-family="sans-serif" font-size="10.4" font-weight="bold" lengthAdjust="spacing" textLength="11.2" x="495.2" y="734.2695">24</text><text fill="#000000" font-family="sans-serif" font-size="10.4" lengthAdjust="spacing" textLength="114.4" x="509.6" y="734.2695">collaboratorsBySkillsList</text><polygon fill="#181818" points="1282.4,760.3125,1290.4,763.5125,1282.4,766.7125,1285.6,763.5125" style="stroke:#181818;stroke-width:0.8000000000000002;"/><line style="stroke:#181818;stroke-width:0.8000000000000002;" x1="481.6" x2="1287.2" y1="763.5125" y2="763.5125"/><text fill="#000000" font-family="sans-serif" font-size="10.4" font-weight="bold" lengthAdjust="spacing" textLength="11.2" x="487.2" y="759.3023">25</text><text fill="#000000" font-family="sans-serif" font-size="10.4" lengthAdjust="spacing" textLength="87.2" x="501.6" y="759.3023">getProposalTeam()</text><polygon fill="#181818" points="490.4,785.3453,482.4,788.5453,490.4,791.7453,487.2,788.5453" style="stroke:#181818;stroke-width:0.8000000000000002;"/><line style="stroke:#181818;stroke-width:0.8000000000000002;stroke-dasharray:2.0,2.0;" x1="485.6" x2="1295.2" y1="788.5453" y2="788.5453"/><text fill="#000000" font-family="sans-serif" font-size="10.4" font-weight="bold" lengthAdjust="spacing" textLength="11.2" x="495.2" y="784.3352">26</text><text fill="#000000" font-family="sans-serif" font-size="10.4" lengthAdjust="spacing" textLength="64.8" x="509.6" y="784.3352">proposalTeam</text><polygon fill="#181818" points="316,810.3781,308,813.5781,316,816.7781,312.8,813.5781" style="stroke:#181818;stroke-width:0.8000000000000002;"/><line style="stroke:#181818;stroke-width:0.8000000000000002;stroke-dasharray:2.0,2.0;" x1="311.2" x2="476.8" y1="813.5781" y2="813.5781"/><text fill="#000000" font-family="sans-serif" font-size="10.4" font-weight="bold" lengthAdjust="spacing" textLength="11.2" x="320.8" y="809.368">27</text><text fill="#000000" font-family="sans-serif" font-size="10.4" lengthAdjust="spacing" textLength="64.8" x="335.2" y="809.368">proposalTeam</text><polygon fill="#181818" points="77.6,835.4109,69.6,838.6109,77.6,841.8109,74.4,838.6109" style="stroke:#181818;stroke-width:0.8000000000000002;"/><line style="stroke:#181818;stroke-width:0.8000000000000002;stroke-dasharray:2.0,2.0;" x1="72.8" x2="302.4" y1="838.6109" y2="838.6109"/><text fill="#000000" font-family="sans-serif" font-size="10.4" font-weight="bold" lengthAdjust="spacing" textLength="11.2" x="82.4" y="834.4008">28</text><text fill="#000000" font-family="sans-serif" font-size="10.4" lengthAdjust="spacing" textLength="172.8" x="96.8" y="834.4008">shows and aks to confirm all the data</text><polygon fill="#181818" points="289.6,860.4438,297.6,863.6438,289.6,866.8438,292.8,863.6438" style="stroke:#181818;stroke-width:0.8000000000000002;"/><line style="stroke:#181818;stroke-width:0.8000000000000002;" x1="68.8" x2="294.4" y1="863.6438" y2="863.6438"/><text fill="#000000" font-family="sans-serif" font-size="10.4" font-weight="bold" lengthAdjust="spacing" textLength="11.2" x="74.4" y="859.4336">29</text><text fill="#000000" font-family="sans-serif" font-size="10.4" lengthAdjust="spacing" textLength="93.6" x="88.8" y="859.4336">confirms all the data</text><polygon fill="#181818" points="77.6,885.4766,69.6,888.6766,77.6,891.8766,74.4,888.6766" style="stroke:#181818;stroke-width:0.8000000000000002;"/><line style="stroke:#181818;stroke-width:0.8000000000000002;stroke-dasharray:2.0,2.0;" x1="72.8" x2="302.4" y1="888.6766" y2="888.6766"/><text fill="#000000" font-family="sans-serif" font-size="10.4" font-weight="bold" lengthAdjust="spacing" textLength="11.2" x="82.4" y="884.4664">30</text><text fill="#000000" font-family="sans-serif" font-size="10.4" lengthAdjust="spacing" textLength="126.4" x="96.8" y="884.4664">displays operation success</text><!--SRC=[pLUnRXin3Dtz5KIcTiZGrKE0rai2943W99iNvewn1Tz9LqbNrtzVIcUV9KiwksXHz2P78jyZgIUACLiXEzJOGgkagZPQjGHMzpGpuqw7rHRNz6Bt3O6cog9SDw61sM2jTaAkuGCRGxCPLbPfkBdlMvIm9ADwNP5PoIUK3AHl00tSBvzcx6v59JgK5cxcIreBOr-secdCsuCtUdkOi5aeQRLgcWFWudNvc5XtoWYEHP3nDkF2_aMu9AoIiOiEF5Oo1NX-_Ffwxk4Yedg8wKJWlVDRXr3octdq1UU9xqeZc-H92XOHLy4cfgn2eqnMYwdzuIIcB6AoJYlUmEQLi8rOdhCRmnbajrXrFHzdtxwJXYzUW-87Ml92cm5__0DkxrXJC6UOhG6hO4sIjBD2iEIqVi3s3kuROLYAVf7TRnd5WStvDdploLW3kuseDY0OSqFG2YdQlWMKzKf2Yp_zNuVGrCV059NP8zSKaIKnstr72K4ApvG5Wj_E1pLvFkFF42HHJNKkLhVKADKvFsuIGbgIpdIaBUVYiSlX7JyNvfs_utC-D1lVdaV-_UdpB4NnFI72SIiEATC9m2C_ICCDhYB6I-1oxMEqoY7UZZ67ZMLq2Qeu2Hq6xZeGP6fm0iX5xllMkEmnmjWAhIWJPmmKLpIF0kK3onIu44bGvGBBCHqupyTnvIj-YMl8x2ZPwr1FYZjVT6jyAqwtBf1pr36_xLDLP_3_iEx_fkPNr_iycy9J5ISL6LtILEdnIz8iKQSN9k6Vqjb5_cC99fzFkAYNM2wJJ_5G-Kcwu8Yh4caYzoj8ewjrFVAe_hCB5Cu44tVclo_ptwroz6vafoR8LIz-EGhJbdz7yfY1PiBvxZo1AUHO7rCem-6ceupPg9tn4n8Eerwbv8VGF3GrZHyyQhHOccN2KUNWPrB7wLcg5gPhS6z0TMx453mEcBxY_uEoqzul]--></g></svg>