<?xml version="1.0" encoding="us-ascii" standalone="no"?><svg xmlns="http://www.w3.org/2000/svg" xmlns:xlink="http://www.w3.org/1999/xlink" contentStyleType="text/css" height="405px" preserveAspectRatio="none" style="width:605px;height:405px;background:#FFFFFF;" version="1.1" viewBox="0 0 605 405" width="605.7px" zoomAndPan="magnify"><defs/><g><rect fill="#FFFFFF" height="234.2953" style="stroke:#181818;stroke-width:0.9;" width="9" x="154.8" y="105.1418"/><rect fill="#FFFFFF" height="220.7953" style="stroke:#181818;stroke-width:0.9;" width="9" x="154.8" y="105.1418"/><rect fill="#FFFFFF" height="28.1619" style="stroke:#181818;stroke-width:0.9;" width="9" x="272.25" y="156.9656"/><rect fill="#FFFFFF" height="28.1619" style="stroke:#181818;stroke-width:0.9;" width="9" x="368.55" y="213.2895"/><rect fill="#FFFFFF" height="28.1619" style="stroke:#181818;stroke-width:0.9;" width="9" x="499.5" y="269.6133"/><rect fill="none" height="272.6191" style="stroke:#000000;stroke-width:1.35;" width="597.6" x="2.7" y="66.818"/><rect fill="none" height="214.4953" style="stroke:#000000;stroke-width:1.35;" width="588.6" x="2.7" y="118.6418"/><line style="stroke:#181818;stroke-width:0.45;stroke-dasharray:5.0,5.0;" x1="154.8" x2="154.8" y1="51.518" y2="354.7371"/><line style="stroke:#181818;stroke-width:0.45;stroke-dasharray:5.0,5.0;" x1="276.3" x2="276.3" y1="51.518" y2="354.7371"/><line style="stroke:#181818;stroke-width:0.45;stroke-dasharray:5.0,5.0;" x1="372.6" x2="372.6" y1="51.518" y2="354.7371"/><line style="stroke:#181818;stroke-width:0.45;stroke-dasharray:5.0,5.0;" x1="504" x2="504" y1="51.518" y2="354.7371"/><rect fill="#E3E3E3" height="29.359" rx="2.25" ry="2.25" style="stroke:#181818;stroke-width:0.45;" width="138.6" x="85.5" y="21.259"/><text fill="#000000" font-family="sans-serif" font-size="12.6" lengthAdjust="spacing" textLength="126" x="91.8" y="41.1557">:CreateTaskController</text><rect fill="#E3E3E3" height="29.359" rx="2.25" ry="2.25" style="stroke:#181818;stroke-width:0.45;" width="138.6" x="85.5" y="353.8371"/><text fill="#000000" font-family="sans-serif" font-size="12.6" lengthAdjust="spacing" textLength="126" x="91.8" y="373.7338">:CreateTaskController</text><rect fill="#E3E3E3" height="29.359" rx="2.25" ry="2.25" style="stroke:#181818;stroke-width:0.45;" width="87.3" x="233.1" y="21.259"/><text fill="#000000" font-family="sans-serif" font-size="12.6" lengthAdjust="spacing" textLength="74.7" x="239.4" y="41.1557">:Repositories</text><rect fill="#E3E3E3" height="29.359" rx="2.25" ry="2.25" style="stroke:#181818;stroke-width:0.45;" width="87.3" x="233.1" y="353.8371"/><text fill="#000000" font-family="sans-serif" font-size="12.6" lengthAdjust="spacing" textLength="74.7" x="239.4" y="373.7338">:Repositories</text><rect fill="#E3E3E3" height="46.118" rx="2.25" ry="2.25" style="stroke:#181818;stroke-width:0.45;" width="87.3" x="329.4" y="4.5"/><text fill="#000000" font-family="sans-serif" font-size="12.6" lengthAdjust="spacing" textLength="66.6" x="339.75" y="24.3967">repositories</text><text fill="#000000" font-family="sans-serif" font-size="12.6" lengthAdjust="spacing" textLength="74.7" x="335.7" y="41.1557">:Repositories</text><rect fill="#E3E3E3" height="46.118" rx="2.25" ry="2.25" style="stroke:#181818;stroke-width:0.45;" width="87.3" x="329.4" y="353.8371"/><text fill="#000000" font-family="sans-serif" font-size="12.6" lengthAdjust="spacing" textLength="66.6" x="339.75" y="373.7338">repositories</text><text fill="#000000" font-family="sans-serif" font-size="12.6" lengthAdjust="spacing" textLength="74.7" x="335.7" y="390.4928">:Repositories</text><rect fill="#E3E3E3" height="46.118" rx="2.25" ry="2.25" style="stroke:#181818;stroke-width:0.45;" width="156.6" x="425.7" y="4.5"/><text fill="#000000" font-family="sans-serif" font-size="12.6" lengthAdjust="spacing" textLength="135.9" x="436.05" y="24.3967">registedSkillsRepository</text><text fill="#000000" font-family="sans-serif" font-size="12.6" lengthAdjust="spacing" textLength="144" x="432" y="41.1557">:RegistedSkillsRepository</text><rect fill="#E3E3E3" height="46.118" rx="2.25" ry="2.25" style="stroke:#181818;stroke-width:0.45;" width="156.6" x="425.7" y="353.8371"/><text fill="#000000" font-family="sans-serif" font-size="12.6" lengthAdjust="spacing" textLength="135.9" x="436.05" y="373.7338">registedSkillsRepository</text><text fill="#000000" font-family="sans-serif" font-size="12.6" lengthAdjust="spacing" textLength="144" x="432" y="390.4928">:RegistedSkillsRepository</text><rect fill="#FFFFFF" height="234.2953" style="stroke:#181818;stroke-width:0.9;" width="9" x="154.8" y="105.1418"/><rect fill="#FFFFFF" height="220.7953" style="stroke:#181818;stroke-width:0.9;" width="9" x="154.8" y="105.1418"/><rect fill="#FFFFFF" height="28.1619" style="stroke:#181818;stroke-width:0.9;" width="9" x="272.25" y="156.9656"/><rect fill="#FFFFFF" height="28.1619" style="stroke:#181818;stroke-width:0.9;" width="9" x="368.55" y="213.2895"/><rect fill="#FFFFFF" height="28.1619" style="stroke:#181818;stroke-width:0.9;" width="9" x="499.5" y="269.6133"/><path d="M2.7,66.818 L68.4,66.818 L68.4,75.1799 L59.4,84.1799 L2.7,84.1799 L2.7,66.818 " fill="#EEEEEE" style="stroke:#000000;stroke-width:1.35;"/><rect fill="none" height="272.6191" style="stroke:#000000;stroke-width:1.35;" width="597.6" x="2.7" y="66.818"/><text fill="#000000" font-family="sans-serif" font-size="11.7" font-weight="bold" lengthAdjust="spacing" textLength="25.2" x="16.2" y="80.3435">loop</text><text fill="#000000" font-family="sans-serif" font-size="9.9" font-weight="bold" lengthAdjust="spacing" textLength="81" x="81.9" y="79.3011">[while intended]</text><polygon fill="#181818" points="139.5,101.5418,148.5,105.1418,139.5,108.7418,143.1,105.1418" style="stroke:#181818;stroke-width:0.9;"/><line style="stroke:#181818;stroke-width:0.9;" x1="0" x2="144.9" y1="105.1418" y2="105.1418"/><text fill="#000000" font-family="sans-serif" font-size="11.7" font-weight="bold" lengthAdjust="spacing" textLength="6.3" x="6.3" y="100.4054">3</text><text fill="#000000" font-family="sans-serif" font-size="11.7" lengthAdjust="spacing" textLength="117" x="16.2" y="100.4054">getRegistedSkillsList()</text><path d="M2.7,118.6418 L173.7,118.6418 L173.7,127.0037 L164.7,136.0037 L2.7,136.0037 L2.7,118.6418 " fill="#EEEEEE" style="stroke:#000000;stroke-width:1.35;"/><rect fill="none" height="214.4953" style="stroke:#000000;stroke-width:1.35;" width="588.6" x="2.7" y="118.6418"/><text fill="#000000" font-family="sans-serif" font-size="11.7" font-weight="bold" lengthAdjust="spacing" textLength="130.5" x="16.2" y="132.1673">Get Registed Skills List</text><polygon fill="#181818" points="261.45,153.3656,270.45,156.9656,261.45,160.5656,265.05,156.9656" style="stroke:#181818;stroke-width:0.9;"/><line style="stroke:#181818;stroke-width:0.9;" x1="163.8" x2="266.85" y1="156.9656" y2="156.9656"/><text fill="#000000" font-family="sans-serif" font-size="11.7" font-weight="bold" lengthAdjust="spacing" textLength="6.3" x="170.1" y="152.2292">4</text><text fill="#000000" font-family="sans-serif" font-size="11.7" lengthAdjust="spacing" textLength="67.5" x="180" y="152.2292">getInstance()</text><polygon fill="#181818" points="173.7,181.5275,164.7,185.1275,173.7,188.7275,170.1,185.1275" style="stroke:#181818;stroke-width:0.9;"/><line style="stroke:#181818;stroke-width:0.9;stroke-dasharray:2.0,2.0;" x1="168.3" x2="275.85" y1="185.1275" y2="185.1275"/><text fill="#000000" font-family="sans-serif" font-size="11.7" font-weight="bold" lengthAdjust="spacing" textLength="6.3" x="179.1" y="180.3911">5</text><text fill="#000000" font-family="sans-serif" font-size="11.7" lengthAdjust="spacing" textLength="60.3" x="189" y="180.3911">repositories</text><polygon fill="#181818" points="357.75,209.6895,366.75,213.2895,357.75,216.8895,361.35,213.2895" style="stroke:#181818;stroke-width:0.9;"/><line style="stroke:#181818;stroke-width:0.9;" x1="163.8" x2="363.15" y1="213.2895" y2="213.2895"/><text fill="#000000" font-family="sans-serif" font-size="11.7" font-weight="bold" lengthAdjust="spacing" textLength="6.3" x="170.1" y="208.553">6</text><text fill="#000000" font-family="sans-serif" font-size="11.7" lengthAdjust="spacing" textLength="153.9" x="180" y="208.553">getRegistedSkillsRepository()</text><polygon fill="#181818" points="173.7,237.8514,164.7,241.4514,173.7,245.0514,170.1,241.4514" style="stroke:#181818;stroke-width:0.9;"/><line style="stroke:#181818;stroke-width:0.9;stroke-dasharray:2.0,2.0;" x1="168.3" x2="372.15" y1="241.4514" y2="241.4514"/><text fill="#000000" font-family="sans-serif" font-size="11.7" font-weight="bold" lengthAdjust="spacing" textLength="6.3" x="179.1" y="236.7149">7</text><text fill="#000000" font-family="sans-serif" font-size="11.7" lengthAdjust="spacing" textLength="126" x="189" y="236.7149">registedSkillsRepository</text><polygon fill="#181818" points="488.7,266.0133,497.7,269.6133,488.7,273.2133,492.3,269.6133" style="stroke:#181818;stroke-width:0.9;"/><line style="stroke:#181818;stroke-width:0.9;" x1="163.8" x2="494.1" y1="269.6133" y2="269.6133"/><text fill="#000000" font-family="sans-serif" font-size="11.7" font-weight="bold" lengthAdjust="spacing" textLength="6.3" x="170.1" y="264.8769">8</text><text fill="#000000" font-family="sans-serif" font-size="11.7" lengthAdjust="spacing" textLength="117" x="180" y="264.8769">getRegistedSkillsList()</text><polygon fill="#181818" points="173.7,294.1752,164.7,297.7752,173.7,301.3752,170.1,297.7752" style="stroke:#181818;stroke-width:0.9;"/><line style="stroke:#181818;stroke-width:0.9;stroke-dasharray:2.0,2.0;" x1="168.3" x2="503.1" y1="297.7752" y2="297.7752"/><text fill="#000000" font-family="sans-serif" font-size="11.7" font-weight="bold" lengthAdjust="spacing" textLength="6.3" x="179.1" y="293.0388">9</text><text fill="#000000" font-family="sans-serif" font-size="11.7" lengthAdjust="spacing" textLength="89.1" x="189" y="293.0388">registedSkillsList</text><polygon fill="#181818" points="9.9,322.3371,0.9,325.9371,9.9,329.5371,6.3,325.9371" style="stroke:#181818;stroke-width:0.9;"/><line style="stroke:#181818;stroke-width:0.9;stroke-dasharray:2.0,2.0;" x1="4.5" x2="149.4" y1="325.9371" y2="325.9371"/><text fill="#000000" font-family="sans-serif" font-size="11.7" font-weight="bold" lengthAdjust="spacing" textLength="12.6" x="15.3" y="321.2007">10</text><text fill="#000000" font-family="sans-serif" font-size="11.7" lengthAdjust="spacing" textLength="89.1" x="31.5" y="321.2007">registedSkillsList</text><!--SRC=[ZLAvRiCm3Dtv5KIcTl3KBIWA51cA0XcA96CNrcOTmR9aI7I3_7rbEOYFo6az6IJVeKVwIfc67DLOMsFpexCrexYMmLyx3UKLbRoNisPqd0kPKey7_94AUrAcn6_IdW6e5MlQ-eiTG1WHbQk6ZE1glN5CmWVorSOQSLPhTYiaZvl3RZkRtN5ZlHBh5FiuSosSzwgp44Ic43T2V9fRWe_jws6EA9KNBlQLqjeF0X6TRbsif9lZj-CJWBQsmTDHXUIK4JO55m3PItmkhh5acJ9jm__38m26Zt9HFo6jFfjOAfrj6tnZkHh07eSTS17MVL4nA2T2x8sy6nysctEGdz2aKeyJAQRiyhOrZdSHnml-ct9ij5jMAg81F7SQrnjB4Jlsih2jcQ-1O9fO6drdVxC0bswbJt61FHlEnDret2PwJ-Cvo_vFDPnDE5U0UQSh_W80]--></g></svg>