<?xml version="1.0" encoding="us-ascii" standalone="no"?><svg xmlns="http://www.w3.org/2000/svg" xmlns:xlink="http://www.w3.org/1999/xlink" contentStyleType="text/css" height="571px" preserveAspectRatio="none" style="width:981px;height:571px;background:#FFFFFF;" version="1.1" viewBox="0 0 981 571" width="981px" zoomAndPan="magnify"><defs/><g><rect fill="#FFFFFF" height="415.4922" style="stroke:#181818;stroke-width:1.0;" width="10" x="167" y="90.5332"/><rect fill="#FFFFFF" height="317.6191" style="stroke:#181818;stroke-width:1.0;" width="10" x="378.5" y="148.1152"/><rect fill="#FFFFFF" height="127.1641" style="stroke:#181818;stroke-width:1.0;" width="10" x="573.5" y="205.6973"/><rect fill="#FFFFFF" height="31.291" style="stroke:#181818;stroke-width:1.0;" width="10" x="746.5" y="263.2793"/><rect fill="#FFFFFF" height="30" style="stroke:#181818;stroke-width:1.0;" width="10" x="889" y="390.4434"/><rect fill="none" height="272.3281" style="stroke:#000000;stroke-width:1.5;" width="697" x="278" y="163.1152"/><rect fill="none" height="81.873" style="stroke:#000000;stroke-width:1.5;" width="347.5" x="485.5" y="220.6973"/><rect fill="none" height="80.582" style="stroke:#000000;stroke-width:1.5;" width="677" x="288" y="347.8613"/><line style="stroke:#181818;stroke-width:0.5;stroke-dasharray:5.0,5.0;" x1="172" x2="172" y1="57.2422" y2="515.0254"/><line style="stroke:#181818;stroke-width:0.5;stroke-dasharray:5.0,5.0;" x1="383" x2="383" y1="57.2422" y2="515.0254"/><line style="stroke:#181818;stroke-width:0.5;stroke-dasharray:5.0,5.0;" x1="578.5" x2="578.5" y1="57.2422" y2="515.0254"/><line style="stroke:#181818;stroke-width:0.5;stroke-dasharray:5.0,5.0;" x1="751" x2="751" y1="57.2422" y2="515.0254"/><line style="stroke:#181818;stroke-width:0.5;stroke-dasharray:5.0,5.0;" x1="894" x2="894" y1="57.2422" y2="515.0254"/><rect fill="#E3E3E3" height="32.6211" rx="2.5" ry="2.5" style="stroke:#181818;stroke-width:0.5;" width="232" x="56" y="23.6211"/><text fill="#000000" font-family="sans-serif" font-size="14" lengthAdjust="spacing" textLength="218" x="63" y="45.7285">:GenerateTeamProposalController</text><rect fill="#E3E3E3" height="32.6211" rx="2.5" ry="2.5" style="stroke:#181818;stroke-width:0.5;" width="232" x="56" y="514.0254"/><text fill="#000000" font-family="sans-serif" font-size="14" lengthAdjust="spacing" textLength="218" x="63" y="536.1328">:GenerateTeamProposalController</text><rect fill="#E3E3E3" height="51.2422" rx="2.5" ry="2.5" style="stroke:#181818;stroke-width:0.5;" width="171" x="298" y="5"/><text fill="#000000" font-family="sans-serif" font-size="14" lengthAdjust="spacing" textLength="35" x="366" y="27.1074">name</text><text fill="#000000" font-family="sans-serif" font-size="14" lengthAdjust="spacing" textLength="157" x="305" y="45.7285">:CollaboratorsRepository</text><rect fill="#E3E3E3" height="51.2422" rx="2.5" ry="2.5" style="stroke:#181818;stroke-width:0.5;" width="171" x="298" y="514.0254"/><text fill="#000000" font-family="sans-serif" font-size="14" lengthAdjust="spacing" textLength="35" x="366" y="536.1328">name</text><text fill="#000000" font-family="sans-serif" font-size="14" lengthAdjust="spacing" textLength="157" x="305" y="554.7539">:CollaboratorsRepository</text><rect fill="#E3E3E3" height="51.2422" rx="2.5" ry="2.5" style="stroke:#181818;stroke-width:0.5;" width="166" x="495.5" y="5"/><text fill="#000000" font-family="sans-serif" font-size="14" lengthAdjust="spacing" textLength="110" x="523.5" y="27.1074">CollaboratorSkills</text><text fill="#000000" font-family="sans-serif" font-size="14" lengthAdjust="spacing" textLength="152" x="502.5" y="45.7285">:List&lt;CollaboratorSkills&gt;</text><rect fill="#E3E3E3" height="51.2422" rx="2.5" ry="2.5" style="stroke:#181818;stroke-width:0.5;" width="166" x="495.5" y="514.0254"/><text fill="#000000" font-family="sans-serif" font-size="14" lengthAdjust="spacing" textLength="110" x="523.5" y="536.1328">CollaboratorSkills</text><text fill="#000000" font-family="sans-serif" font-size="14" lengthAdjust="spacing" textLength="152" x="502.5" y="554.7539">:List&lt;CollaboratorSkills&gt;</text><rect fill="#E3E3E3" height="51.2422" rx="2.5" ry="2.5" style="stroke:#181818;stroke-width:0.5;" width="143" x="680" y="5"/><text fill="#000000" font-family="sans-serif" font-size="14" lengthAdjust="spacing" textLength="87" x="708" y="27.1074">SkillsSelected</text><text fill="#000000" font-family="sans-serif" font-size="14" lengthAdjust="spacing" textLength="129" x="687" y="45.7285">:List&lt;SkillsSelected&gt;</text><rect fill="#E3E3E3" height="51.2422" rx="2.5" ry="2.5" style="stroke:#181818;stroke-width:0.5;" width="143" x="680" y="514.0254"/><text fill="#000000" font-family="sans-serif" font-size="14" lengthAdjust="spacing" textLength="87" x="708" y="536.1328">SkillsSelected</text><text fill="#000000" font-family="sans-serif" font-size="14" lengthAdjust="spacing" textLength="129" x="687" y="554.7539">:List&lt;SkillsSelected&gt;</text><rect fill="#E3E3E3" height="51.2422" rx="2.5" ry="2.5" style="stroke:#181818;stroke-width:0.5;" width="122" x="833" y="5"/><text fill="#000000" font-family="sans-serif" font-size="14" lengthAdjust="spacing" textLength="31" x="878.5" y="27.1074">team</text><text fill="#000000" font-family="sans-serif" font-size="14" lengthAdjust="spacing" textLength="108" x="840" y="45.7285">:TeamRepository</text><rect fill="#E3E3E3" height="51.2422" rx="2.5" ry="2.5" style="stroke:#181818;stroke-width:0.5;" width="122" x="833" y="514.0254"/><text fill="#000000" font-family="sans-serif" font-size="14" lengthAdjust="spacing" textLength="31" x="878.5" y="536.1328">team</text><text fill="#000000" font-family="sans-serif" font-size="14" lengthAdjust="spacing" textLength="108" x="840" y="554.7539">:TeamRepository</text><rect fill="#FFFFFF" height="415.4922" style="stroke:#181818;stroke-width:1.0;" width="10" x="167" y="90.5332"/><rect fill="#FFFFFF" height="317.6191" style="stroke:#181818;stroke-width:1.0;" width="10" x="378.5" y="148.1152"/><rect fill="#FFFFFF" height="127.1641" style="stroke:#181818;stroke-width:1.0;" width="10" x="573.5" y="205.6973"/><rect fill="#FFFFFF" height="31.291" style="stroke:#181818;stroke-width:1.0;" width="10" x="746.5" y="263.2793"/><rect fill="#FFFFFF" height="30" style="stroke:#181818;stroke-width:1.0;" width="10" x="889" y="390.4434"/><polygon fill="#181818" points="155,86.5332,165,90.5332,155,94.5332,159,90.5332" style="stroke:#181818;stroke-width:1.0;"/><line style="stroke:#181818;stroke-width:1.0;" x1="0" x2="161" y1="90.5332" y2="90.5332"/><text fill="#000000" font-family="sans-serif" font-size="13" font-weight="bold" lengthAdjust="spacing" textLength="14" x="7" y="85.2705">14</text><text fill="#000000" font-family="sans-serif" font-size="13" lengthAdjust="spacing" textLength="123" x="25" y="85.2705">getCollaboratorsList()</text><polygon fill="#181818" points="366.5,144.1152,376.5,148.1152,366.5,152.1152,370.5,148.1152" style="stroke:#181818;stroke-width:1.0;"/><line style="stroke:#181818;stroke-width:1.0;" x1="177" x2="372.5" y1="148.1152" y2="148.1152"/><text fill="#000000" font-family="sans-serif" font-size="13" font-weight="bold" lengthAdjust="spacing" textLength="14" x="184" y="142.8525">15</text><text fill="#000000" font-family="sans-serif" font-size="13" lengthAdjust="spacing" textLength="123" x="202" y="142.8525">getCollaboratorsList()</text><path d="M278,163.1152 L351,163.1152 L351,172.4063 L341,182.4063 L278,182.4063 L278,163.1152 " fill="#EEEEEE" style="stroke:#000000;stroke-width:1.5;"/><rect fill="none" height="272.3281" style="stroke:#000000;stroke-width:1.5;" width="697" x="278" y="163.1152"/><text fill="#000000" font-family="sans-serif" font-size="13" font-weight="bold" lengthAdjust="spacing" textLength="28" x="293" y="178.1436">loop</text><text fill="#000000" font-family="sans-serif" font-size="11" font-weight="bold" lengthAdjust="spacing" textLength="122" x="366" y="176.9854">[for each collaborator]</text><polygon fill="#181818" points="561.5,201.6973,571.5,205.6973,561.5,209.6973,565.5,205.6973" style="stroke:#181818;stroke-width:1.0;"/><line style="stroke:#181818;stroke-width:1.0;" x1="388.5" x2="567.5" y1="205.6973" y2="205.6973"/><text fill="#000000" font-family="sans-serif" font-size="13" font-weight="bold" lengthAdjust="spacing" textLength="14" x="395.5" y="200.4346">16</text><text fill="#000000" font-family="sans-serif" font-size="13" lengthAdjust="spacing" textLength="148" x="413.5" y="200.4346">getCollaboratorSkillsList()</text><path d="M485.5,220.6973 L558.5,220.6973 L558.5,229.9883 L548.5,239.9883 L485.5,239.9883 L485.5,220.6973 " fill="#EEEEEE" style="stroke:#000000;stroke-width:1.5;"/><rect fill="none" height="81.873" style="stroke:#000000;stroke-width:1.5;" width="347.5" x="485.5" y="220.6973"/><text fill="#000000" font-family="sans-serif" font-size="13" font-weight="bold" lengthAdjust="spacing" textLength="28" x="500.5" y="235.7256">loop</text><text fill="#000000" font-family="sans-serif" font-size="11" font-weight="bold" lengthAdjust="spacing" textLength="188" x="573.5" y="234.5674">[for each Skill of that Collaborator]</text><polygon fill="#181818" points="734.5,259.2793,744.5,263.2793,734.5,267.2793,738.5,263.2793" style="stroke:#181818;stroke-width:1.0;"/><line style="stroke:#181818;stroke-width:1.0;" x1="583.5" x2="740.5" y1="263.2793" y2="263.2793"/><text fill="#000000" font-family="sans-serif" font-size="13" font-weight="bold" lengthAdjust="spacing" textLength="14" x="590.5" y="258.0166">17</text><text fill="#000000" font-family="sans-serif" font-size="13" lengthAdjust="spacing" textLength="126" x="608.5" y="258.0166">e = equalsSkill(name)</text><polygon fill="#181818" points="594.5,290.5703,584.5,294.5703,594.5,298.5703,590.5,294.5703" style="stroke:#181818;stroke-width:1.0;"/><line style="stroke:#181818;stroke-width:1.0;stroke-dasharray:2.0,2.0;" x1="588.5" x2="750.5" y1="294.5703" y2="294.5703"/><text fill="#000000" font-family="sans-serif" font-size="13" font-weight="bold" lengthAdjust="spacing" textLength="14" x="600.5" y="289.3076">18</text><text fill="#000000" font-family="sans-serif" font-size="13" lengthAdjust="spacing" textLength="53" x="618.5" y="289.3076">true/false</text><polygon fill="#181818" points="399.5,328.8613,389.5,332.8613,399.5,336.8613,395.5,332.8613" style="stroke:#181818;stroke-width:1.0;"/><line style="stroke:#181818;stroke-width:1.0;stroke-dasharray:2.0,2.0;" x1="393.5" x2="577.5" y1="332.8613" y2="332.8613"/><text fill="#000000" font-family="sans-serif" font-size="13" font-weight="bold" lengthAdjust="spacing" textLength="14" x="405.5" y="327.5986">19</text><text fill="#000000" font-family="sans-serif" font-size="13" lengthAdjust="spacing" textLength="53" x="423.5" y="327.5986">true/false</text><path d="M288,347.8613 L353,347.8613 L353,357.1523 L343,367.1523 L288,367.1523 L288,347.8613 " fill="#EEEEEE" style="stroke:#000000;stroke-width:1.5;"/><rect fill="none" height="80.582" style="stroke:#000000;stroke-width:1.5;" width="677" x="288" y="347.8613"/><text fill="#000000" font-family="sans-serif" font-size="13" font-weight="bold" lengthAdjust="spacing" textLength="20" x="303" y="362.8896">opt</text><text fill="#000000" font-family="sans-serif" font-size="11" font-weight="bold" lengthAdjust="spacing" textLength="56" x="368" y="361.7314">[e == true]</text><polygon fill="#181818" points="877,386.4434,887,390.4434,877,394.4434,881,390.4434" style="stroke:#181818;stroke-width:1.0;"/><line style="stroke:#181818;stroke-width:1.0;" x1="388.5" x2="883" y1="390.4434" y2="390.4434"/><text fill="#000000" font-family="sans-serif" font-size="13" font-weight="bold" lengthAdjust="spacing" textLength="14" x="395.5" y="385.1807">20</text><text fill="#000000" font-family="sans-serif" font-size="13" lengthAdjust="spacing" textLength="168" x="413.5" y="385.1807">addCollaborator(colllaborator)</text><polygon fill="#181818" points="188,461.7344,178,465.7344,188,469.7344,184,465.7344" style="stroke:#181818;stroke-width:1.0;"/><line style="stroke:#181818;stroke-width:1.0;stroke-dasharray:2.0,2.0;" x1="182" x2="382.5" y1="465.7344" y2="465.7344"/><text fill="#000000" font-family="sans-serif" font-size="13" font-weight="bold" lengthAdjust="spacing" textLength="14" x="194" y="460.4717">21</text><text fill="#000000" font-family="sans-serif" font-size="13" lengthAdjust="spacing" textLength="4" x="212" y="460.4717">&#160;</text><polygon fill="#181818" points="11,493.0254,1,497.0254,11,501.0254,7,497.0254" style="stroke:#181818;stroke-width:1.0;"/><line style="stroke:#181818;stroke-width:1.0;stroke-dasharray:2.0,2.0;" x1="5" x2="166" y1="497.0254" y2="497.0254"/><text fill="#000000" font-family="sans-serif" font-size="13" font-weight="bold" lengthAdjust="spacing" textLength="14" x="17" y="491.7627">22</text><text fill="#000000" font-family="sans-serif" font-size="13" lengthAdjust="spacing" textLength="4" x="35" y="491.7627">&#160;</text><!--SRC=[bLInRi8m4Dtz5QTECA2gKYS436LWGMfLEdOvaYD4EBxKTbhnzxLZe7684SsKtBrxz_pE5tCeLOqQAwXOSRRNN15OtP0mbqoDsG4BsjYZ9D2KMLI5x0BC7dF-ALK1EvI6XC36icggBMaX7CIMMLcZil0mNP4YZPO-2AitpJKRb4jMLhEKf1y03Im_tjTnbSAAFjLqwJ2uPLVEshoJgotTsp4K3UTYdYveSoYbD8vrNHexkyuihcX3F6OCiGr9vmhbPxOu6fXyudKNPs8kwonn3DwPtk7YaEZw2q_FGamMthCf56GZ7tpFqTZ1Crj-EzE3jQBGtDIm8Xkx1Yz72FfQiKA0Utm5J1OfVo7PzAzdOZ8jlMIkOSSQ2BCzP1recpu_gUuzOIVrLvf2_2Jip3aey3JZg7ciiKK0xy3kCJOmAXfIVfBdH0zT1YURO0xqrRWTQbCZV-_7LxGNuODNIjoXO3QPf2JurNyCMzmdokbsvowMrDztQdXUnU3q1ZHqUjyQ5zVMcpWFVx1xhr2yNau0vdaNFlBtyl8L3-GYgxUZ2UFwczprwp-7RV798_cry3y4aM2Arh0TWz_owIy0]--></g></svg>