<?xml version="1.0" encoding="us-ascii" standalone="no"?><svg xmlns="http://www.w3.org/2000/svg" xmlns:xlink="http://www.w3.org/1999/xlink" contentStyleType="text/css" height="450px" preserveAspectRatio="none" style="width:841px;height:450px;background:#FFFFFF;" version="1.1" viewBox="0 0 841 450" width="841px" zoomAndPan="magnify"><defs/><g><rect fill="#FFFFFF" height="260.3281" style="stroke:#181818;stroke-width:1.0;" width="10" x="172" y="116.8242"/><rect fill="#FFFFFF" height="245.3281" style="stroke:#181818;stroke-width:1.0;" width="10" x="172" y="116.8242"/><rect fill="#FFFFFF" height="31.291" style="stroke:#181818;stroke-width:1.0;" width="10" x="302.5" y="174.4063"/><rect fill="#FFFFFF" height="31.291" style="stroke:#181818;stroke-width:1.0;" width="10" x="409.5" y="236.9883"/><rect fill="#FFFFFF" height="31.291" style="stroke:#181818;stroke-width:1.0;" width="10" x="555" y="299.5703"/><rect fill="none" height="302.9102" style="stroke:#000000;stroke-width:1.5;" width="664" x="3" y="74.2422"/><rect fill="none" height="238.3281" style="stroke:#000000;stroke-width:1.5;" width="654" x="3" y="131.8242"/><line style="stroke:#181818;stroke-width:0.5;stroke-dasharray:5.0,5.0;" x1="172" x2="172" y1="57.2422" y2="394.1523"/><line style="stroke:#181818;stroke-width:0.5;stroke-dasharray:5.0,5.0;" x1="307" x2="307" y1="57.2422" y2="394.1523"/><line style="stroke:#181818;stroke-width:0.5;stroke-dasharray:5.0,5.0;" x1="414" x2="414" y1="57.2422" y2="394.1523"/><line style="stroke:#181818;stroke-width:0.5;stroke-dasharray:5.0,5.0;" x1="560" x2="560" y1="57.2422" y2="394.1523"/><line style="stroke:#181818;stroke-width:0.5;stroke-dasharray:5.0,5.0;" x1="746" x2="746" y1="57.2422" y2="394.1523"/><rect fill="#E3E3E3" height="32.6211" rx="2.5" ry="2.5" style="stroke:#181818;stroke-width:0.5;" width="154" x="95" y="23.6211"/><text fill="#000000" font-family="sans-serif" font-size="14" lengthAdjust="spacing" textLength="140" x="102" y="45.7285">:CreateTaskController</text><rect fill="#E3E3E3" height="32.6211" rx="2.5" ry="2.5" style="stroke:#181818;stroke-width:0.5;" width="154" x="95" y="393.1523"/><text fill="#000000" font-family="sans-serif" font-size="14" lengthAdjust="spacing" textLength="140" x="102" y="415.2598">:CreateTaskController</text><rect fill="#E3E3E3" height="32.6211" rx="2.5" ry="2.5" style="stroke:#181818;stroke-width:0.5;" width="97" x="259" y="23.6211"/><text fill="#000000" font-family="sans-serif" font-size="14" lengthAdjust="spacing" textLength="83" x="266" y="45.7285">:Repositories</text><rect fill="#E3E3E3" height="32.6211" rx="2.5" ry="2.5" style="stroke:#181818;stroke-width:0.5;" width="97" x="259" y="393.1523"/><text fill="#000000" font-family="sans-serif" font-size="14" lengthAdjust="spacing" textLength="83" x="266" y="415.2598">:Repositories</text><rect fill="#E3E3E3" height="51.2422" rx="2.5" ry="2.5" style="stroke:#181818;stroke-width:0.5;" width="97" x="366" y="5"/><text fill="#000000" font-family="sans-serif" font-size="14" lengthAdjust="spacing" textLength="74" x="377.5" y="27.1074">repositories</text><text fill="#000000" font-family="sans-serif" font-size="14" lengthAdjust="spacing" textLength="83" x="373" y="45.7285">:Repositories</text><rect fill="#E3E3E3" height="51.2422" rx="2.5" ry="2.5" style="stroke:#181818;stroke-width:0.5;" width="97" x="366" y="393.1523"/><text fill="#000000" font-family="sans-serif" font-size="14" lengthAdjust="spacing" textLength="74" x="377.5" y="415.2598">repositories</text><text fill="#000000" font-family="sans-serif" font-size="14" lengthAdjust="spacing" textLength="83" x="373" y="433.8809">:Repositories</text><rect fill="#E3E3E3" height="51.2422" rx="2.5" ry="2.5" style="stroke:#181818;stroke-width:0.5;" width="174" x="473" y="5"/><text fill="#000000" font-family="sans-serif" font-size="14" lengthAdjust="spacing" textLength="151" x="484.5" y="27.1074">registedSkillsRepository</text><text fill="#000000" font-family="sans-serif" font-size="14" lengthAdjust="spacing" textLength="160" x="480" y="45.7285">:RegistedSkillsRepository</text><rect fill="#E3E3E3" height="51.2422" rx="2.5" ry="2.5" style="stroke:#181818;stroke-width:0.5;" width="174" x="473" y="393.1523"/><text fill="#000000" font-family="sans-serif" font-size="14" lengthAdjust="spacing" textLength="151" x="484.5" y="415.2598">registedSkillsRepository</text><text fill="#000000" font-family="sans-serif" font-size="14" lengthAdjust="spacing" textLength="160" x="480" y="433.8809">:RegistedSkillsRepository</text><rect fill="#E3E3E3" height="51.2422" rx="2.5" ry="2.5" style="stroke:#181818;stroke-width:0.5;" width="178" x="657" y="5"/><text fill="#000000" font-family="sans-serif" font-size="14" lengthAdjust="spacing" textLength="159" x="666.5" y="27.1074">proposalTeamRepository</text><text fill="#000000" font-family="sans-serif" font-size="14" lengthAdjust="spacing" textLength="164" x="664" y="45.7285">:ProposalTeamRepository</text><rect fill="#E3E3E3" height="51.2422" rx="2.5" ry="2.5" style="stroke:#181818;stroke-width:0.5;" width="178" x="657" y="393.1523"/><text fill="#000000" font-family="sans-serif" font-size="14" lengthAdjust="spacing" textLength="159" x="666.5" y="415.2598">proposalTeamRepository</text><text fill="#000000" font-family="sans-serif" font-size="14" lengthAdjust="spacing" textLength="164" x="664" y="433.8809">:ProposalTeamRepository</text><rect fill="#FFFFFF" height="260.3281" style="stroke:#181818;stroke-width:1.0;" width="10" x="172" y="116.8242"/><rect fill="#FFFFFF" height="245.3281" style="stroke:#181818;stroke-width:1.0;" width="10" x="172" y="116.8242"/><rect fill="#FFFFFF" height="31.291" style="stroke:#181818;stroke-width:1.0;" width="10" x="302.5" y="174.4063"/><rect fill="#FFFFFF" height="31.291" style="stroke:#181818;stroke-width:1.0;" width="10" x="409.5" y="236.9883"/><rect fill="#FFFFFF" height="31.291" style="stroke:#181818;stroke-width:1.0;" width="10" x="555" y="299.5703"/><path d="M3,74.2422 L76,74.2422 L76,83.5332 L66,93.5332 L3,93.5332 L3,74.2422 " fill="#EEEEEE" style="stroke:#000000;stroke-width:1.5;"/><rect fill="none" height="302.9102" style="stroke:#000000;stroke-width:1.5;" width="664" x="3" y="74.2422"/><text fill="#000000" font-family="sans-serif" font-size="13" font-weight="bold" lengthAdjust="spacing" textLength="28" x="18" y="89.2705">loop</text><text fill="#000000" font-family="sans-serif" font-size="11" font-weight="bold" lengthAdjust="spacing" textLength="90" x="91" y="88.1123">[while intended]</text><polygon fill="#181818" points="155,112.8242,165,116.8242,155,120.8242,159,116.8242" style="stroke:#181818;stroke-width:1.0;"/><line style="stroke:#181818;stroke-width:1.0;" x1="0" x2="161" y1="116.8242" y2="116.8242"/><text fill="#000000" font-family="sans-serif" font-size="13" font-weight="bold" lengthAdjust="spacing" textLength="7" x="7" y="111.5615">6</text><text fill="#000000" font-family="sans-serif" font-size="13" lengthAdjust="spacing" textLength="130" x="18" y="111.5615">getRegistedSkillsList()</text><path d="M3,131.8242 L193,131.8242 L193,141.1152 L183,151.1152 L3,151.1152 L3,131.8242 " fill="#EEEEEE" style="stroke:#000000;stroke-width:1.5;"/><rect fill="none" height="238.3281" style="stroke:#000000;stroke-width:1.5;" width="654" x="3" y="131.8242"/><text fill="#000000" font-family="sans-serif" font-size="13" font-weight="bold" lengthAdjust="spacing" textLength="145" x="18" y="146.8525">Get Registed Skills List</text><polygon fill="#181818" points="290.5,170.4063,300.5,174.4063,290.5,178.4063,294.5,174.4063" style="stroke:#181818;stroke-width:1.0;"/><line style="stroke:#181818;stroke-width:1.0;" x1="182" x2="296.5" y1="174.4063" y2="174.4063"/><text fill="#000000" font-family="sans-serif" font-size="13" font-weight="bold" lengthAdjust="spacing" textLength="7" x="189" y="169.1436">7</text><text fill="#000000" font-family="sans-serif" font-size="13" lengthAdjust="spacing" textLength="75" x="200" y="169.1436">getInstance()</text><polygon fill="#181818" points="193,201.6973,183,205.6973,193,209.6973,189,205.6973" style="stroke:#181818;stroke-width:1.0;"/><line style="stroke:#181818;stroke-width:1.0;stroke-dasharray:2.0,2.0;" x1="187" x2="306.5" y1="205.6973" y2="205.6973"/><text fill="#000000" font-family="sans-serif" font-size="13" font-weight="bold" lengthAdjust="spacing" textLength="7" x="199" y="200.4346">8</text><text fill="#000000" font-family="sans-serif" font-size="13" lengthAdjust="spacing" textLength="67" x="210" y="200.4346">repositories</text><polygon fill="#181818" points="397.5,232.9883,407.5,236.9883,397.5,240.9883,401.5,236.9883" style="stroke:#181818;stroke-width:1.0;"/><line style="stroke:#181818;stroke-width:1.0;" x1="182" x2="403.5" y1="236.9883" y2="236.9883"/><text fill="#000000" font-family="sans-serif" font-size="13" font-weight="bold" lengthAdjust="spacing" textLength="7" x="189" y="231.7256">9</text><text fill="#000000" font-family="sans-serif" font-size="13" lengthAdjust="spacing" textLength="171" x="200" y="231.7256">getRegistedSkillsRepository()</text><polygon fill="#181818" points="193,264.2793,183,268.2793,193,272.2793,189,268.2793" style="stroke:#181818;stroke-width:1.0;"/><line style="stroke:#181818;stroke-width:1.0;stroke-dasharray:2.0,2.0;" x1="187" x2="413.5" y1="268.2793" y2="268.2793"/><text fill="#000000" font-family="sans-serif" font-size="13" font-weight="bold" lengthAdjust="spacing" textLength="14" x="199" y="263.0166">10</text><text fill="#000000" font-family="sans-serif" font-size="13" lengthAdjust="spacing" textLength="140" x="217" y="263.0166">registedSkillsRepository</text><polygon fill="#181818" points="543,295.5703,553,299.5703,543,303.5703,547,299.5703" style="stroke:#181818;stroke-width:1.0;"/><line style="stroke:#181818;stroke-width:1.0;" x1="182" x2="549" y1="299.5703" y2="299.5703"/><text fill="#000000" font-family="sans-serif" font-size="13" font-weight="bold" lengthAdjust="spacing" textLength="14" x="189" y="294.3076">11</text><text fill="#000000" font-family="sans-serif" font-size="13" lengthAdjust="spacing" textLength="130" x="207" y="294.3076">getRegistedSkillsList()</text><polygon fill="#181818" points="193,326.8613,183,330.8613,193,334.8613,189,330.8613" style="stroke:#181818;stroke-width:1.0;"/><line style="stroke:#181818;stroke-width:1.0;stroke-dasharray:2.0,2.0;" x1="187" x2="559" y1="330.8613" y2="330.8613"/><text fill="#000000" font-family="sans-serif" font-size="13" font-weight="bold" lengthAdjust="spacing" textLength="14" x="199" y="325.5986">12</text><text fill="#000000" font-family="sans-serif" font-size="13" lengthAdjust="spacing" textLength="99" x="217" y="325.5986">registedSkillsList</text><polygon fill="#181818" points="11,358.1523,1,362.1523,11,366.1523,7,362.1523" style="stroke:#181818;stroke-width:1.0;"/><line style="stroke:#181818;stroke-width:1.0;stroke-dasharray:2.0,2.0;" x1="5" x2="166" y1="362.1523" y2="362.1523"/><text fill="#000000" font-family="sans-serif" font-size="13" font-weight="bold" lengthAdjust="spacing" textLength="14" x="17" y="356.8896">13</text><text fill="#000000" font-family="sans-serif" font-size="13" lengthAdjust="spacing" textLength="99" x="35" y="356.8896">registedSkillsList</text><!--SRC=[ZLAvRiCm3Dtr5KIcTl3Q8GWA51cA0Xc2n6CNrcOTmR8aI7I3_7rbEOYFo6az6IJVeKVwMcgB3XjeZ3R5oPc6W5rBmjyw5eiQAphoHH4uAXXrfSO3_eIbEKjTmJSgJq9WoqQtpHSv8S88oq9Qr0ohzTOHCkNewwtHx8nIv5Q07hRvOJURFP0rNh9nadoSkHKkHzbP229JY1iXFlKzmNxtbiyHbVHCvR6MIlb18ABJhQkLT7FARfq93LGvOJFXtYSRlSTaQvmfl0YXZB5mFicm4QcPT4cb4DbhZ17MK15F7Ux2_zEp410-B5Z-X2tqcSTIvKnhuPtuzZ3eST015s7T5nM3Sc8vlP4FxSF551Ja9pIfRSQ955DsVTiQnZkEuoNzJJassXr1Ag81F7SQpoQM8dRiPU4APhu6WcbYQVI3_Sq2N52_fhZ0dWrdukuqxXDzfB79ilzJ3MSJpbM8UQSh_W80]--></g></svg>