<?xml version="1.0" encoding="us-ascii" standalone="no"?><svg xmlns="http://www.w3.org/2000/svg" xmlns:xlink="http://www.w3.org/1999/xlink" contentStyleType="text/css" height="571px" preserveAspectRatio="none" style="width:1034px;height:571px;background:#FFFFFF;" version="1.1" viewBox="0 0 1034 571" width="1034px" zoomAndPan="magnify"><defs/><g><rect fill="#FFFFFF" height="415.4922" style="stroke:#181818;stroke-width:1.0;" width="10" x="167" y="90.5332"/><rect fill="#FFFFFF" height="317.6191" style="stroke:#181818;stroke-width:1.0;" width="10" x="378.5" y="148.1152"/><rect fill="#FFFFFF" height="127.1641" style="stroke:#181818;stroke-width:1.0;" width="10" x="573.5" y="205.6973"/><rect fill="#FFFFFF" height="31.291" style="stroke:#181818;stroke-width:1.0;" width="10" x="755" y="263.2793"/><rect fill="#FFFFFF" height="30" style="stroke:#181818;stroke-width:1.0;" width="10" x="942" y="390.4434"/><rect fill="none" height="272.3281" style="stroke:#000000;stroke-width:1.5;" width="750" x="278" y="163.1152"/><rect fill="none" height="81.873" style="stroke:#000000;stroke-width:1.5;" width="373" x="513" y="220.6973"/><rect fill="none" height="80.582" style="stroke:#000000;stroke-width:1.5;" width="730" x="288" y="347.8613"/><line style="stroke:#181818;stroke-width:0.5;stroke-dasharray:5.0,5.0;" x1="172" x2="172" y1="57.2422" y2="515.0254"/><line style="stroke:#181818;stroke-width:0.5;stroke-dasharray:5.0,5.0;" x1="383" x2="383" y1="57.2422" y2="515.0254"/><line style="stroke:#181818;stroke-width:0.5;stroke-dasharray:5.0,5.0;" x1="578" x2="578" y1="57.2422" y2="515.0254"/><line style="stroke:#181818;stroke-width:0.5;stroke-dasharray:5.0,5.0;" x1="760" x2="760" y1="57.2422" y2="515.0254"/><line style="stroke:#181818;stroke-width:0.5;stroke-dasharray:5.0,5.0;" x1="947" x2="947" y1="57.2422" y2="515.0254"/><rect fill="#E3E3E3" height="32.6211" rx="2.5" ry="2.5" style="stroke:#181818;stroke-width:0.5;" width="232" x="56" y="23.6211"/><text fill="#000000" font-family="sans-serif" font-size="14" lengthAdjust="spacing" textLength="218" x="63" y="45.7285">:GenerateTeamProposalController</text><rect fill="#E3E3E3" height="32.6211" rx="2.5" ry="2.5" style="stroke:#181818;stroke-width:0.5;" width="232" x="56" y="514.0254"/><text fill="#000000" font-family="sans-serif" font-size="14" lengthAdjust="spacing" textLength="218" x="63" y="536.1328">:GenerateTeamProposalController</text><rect fill="#E3E3E3" height="51.2422" rx="2.5" ry="2.5" style="stroke:#181818;stroke-width:0.5;" width="171" x="298" y="5"/><text fill="#000000" font-family="sans-serif" font-size="14" lengthAdjust="spacing" textLength="35" x="366" y="27.1074">name</text><text fill="#000000" font-family="sans-serif" font-size="14" lengthAdjust="spacing" textLength="157" x="305" y="45.7285">:CollaboratorsRepository</text><rect fill="#E3E3E3" height="51.2422" rx="2.5" ry="2.5" style="stroke:#181818;stroke-width:0.5;" width="171" x="298" y="514.0254"/><text fill="#000000" font-family="sans-serif" font-size="14" lengthAdjust="spacing" textLength="35" x="366" y="536.1328">name</text><text fill="#000000" font-family="sans-serif" font-size="14" lengthAdjust="spacing" textLength="157" x="305" y="554.7539">:CollaboratorsRepository</text><rect fill="#E3E3E3" height="51.2422" rx="2.5" ry="2.5" style="stroke:#181818;stroke-width:0.5;" width="111" x="523" y="5"/><text fill="#000000" font-family="sans-serif" font-size="14" lengthAdjust="spacing" textLength="78" x="539.5" y="27.1074">Collaborator</text><text fill="#000000" font-family="sans-serif" font-size="14" lengthAdjust="spacing" textLength="97" x="530" y="45.7285">:List&lt;Skill&gt;skills</text><rect fill="#E3E3E3" height="51.2422" rx="2.5" ry="2.5" style="stroke:#181818;stroke-width:0.5;" width="111" x="523" y="514.0254"/><text fill="#000000" font-family="sans-serif" font-size="14" lengthAdjust="spacing" textLength="78" x="539.5" y="536.1328">Collaborator</text><text fill="#000000" font-family="sans-serif" font-size="14" lengthAdjust="spacing" textLength="97" x="530" y="554.7539">:List&lt;Skill&gt;skills</text><rect fill="#E3E3E3" height="51.2422" rx="2.5" ry="2.5" style="stroke:#181818;stroke-width:0.5;" width="232" x="644" y="5"/><text fill="#000000" font-family="sans-serif" font-size="14" lengthAdjust="spacing" textLength="218" x="651" y="27.1074">:GenerateTeamProposalController</text><text fill="#000000" font-family="sans-serif" font-size="14" lengthAdjust="spacing" textLength="152" x="684" y="45.7285">List&lt;Skill&gt; skillsSelected</text><rect fill="#E3E3E3" height="51.2422" rx="2.5" ry="2.5" style="stroke:#181818;stroke-width:0.5;" width="232" x="644" y="514.0254"/><text fill="#000000" font-family="sans-serif" font-size="14" lengthAdjust="spacing" textLength="218" x="651" y="536.1328">:GenerateTeamProposalController</text><text fill="#000000" font-family="sans-serif" font-size="14" lengthAdjust="spacing" textLength="152" x="684" y="554.7539">List&lt;Skill&gt; skillsSelected</text><rect fill="#E3E3E3" height="51.2422" rx="2.5" ry="2.5" style="stroke:#181818;stroke-width:0.5;" width="122" x="886" y="5"/><text fill="#000000" font-family="sans-serif" font-size="14" lengthAdjust="spacing" textLength="31" x="931.5" y="27.1074">team</text><text fill="#000000" font-family="sans-serif" font-size="14" lengthAdjust="spacing" textLength="108" x="893" y="45.7285">:TeamRepository</text><rect fill="#E3E3E3" height="51.2422" rx="2.5" ry="2.5" style="stroke:#181818;stroke-width:0.5;" width="122" x="886" y="514.0254"/><text fill="#000000" font-family="sans-serif" font-size="14" lengthAdjust="spacing" textLength="31" x="931.5" y="536.1328">team</text><text fill="#000000" font-family="sans-serif" font-size="14" lengthAdjust="spacing" textLength="108" x="893" y="554.7539">:TeamRepository</text><rect fill="#FFFFFF" height="415.4922" style="stroke:#181818;stroke-width:1.0;" width="10" x="167" y="90.5332"/><rect fill="#FFFFFF" height="317.6191" style="stroke:#181818;stroke-width:1.0;" width="10" x="378.5" y="148.1152"/><rect fill="#FFFFFF" height="127.1641" style="stroke:#181818;stroke-width:1.0;" width="10" x="573.5" y="205.6973"/><rect fill="#FFFFFF" height="31.291" style="stroke:#181818;stroke-width:1.0;" width="10" x="755" y="263.2793"/><rect fill="#FFFFFF" height="30" style="stroke:#181818;stroke-width:1.0;" width="10" x="942" y="390.4434"/><polygon fill="#181818" points="155,86.5332,165,90.5332,155,94.5332,159,90.5332" style="stroke:#181818;stroke-width:1.0;"/><line style="stroke:#181818;stroke-width:1.0;" x1="0" x2="161" y1="90.5332" y2="90.5332"/><text fill="#000000" font-family="sans-serif" font-size="13" font-weight="bold" lengthAdjust="spacing" textLength="14" x="7" y="85.2705">14</text><text fill="#000000" font-family="sans-serif" font-size="13" lengthAdjust="spacing" textLength="123" x="25" y="85.2705">getCollaboratorsList()</text><polygon fill="#181818" points="366.5,144.1152,376.5,148.1152,366.5,152.1152,370.5,148.1152" style="stroke:#181818;stroke-width:1.0;"/><line style="stroke:#181818;stroke-width:1.0;" x1="177" x2="372.5" y1="148.1152" y2="148.1152"/><text fill="#000000" font-family="sans-serif" font-size="13" font-weight="bold" lengthAdjust="spacing" textLength="14" x="184" y="142.8525">15</text><text fill="#000000" font-family="sans-serif" font-size="13" lengthAdjust="spacing" textLength="123" x="202" y="142.8525">getCollaboratorsList()</text><path d="M278,163.1152 L351,163.1152 L351,172.4063 L341,182.4063 L278,182.4063 L278,163.1152 " fill="#EEEEEE" style="stroke:#000000;stroke-width:1.5;"/><rect fill="none" height="272.3281" style="stroke:#000000;stroke-width:1.5;" width="750" x="278" y="163.1152"/><text fill="#000000" font-family="sans-serif" font-size="13" font-weight="bold" lengthAdjust="spacing" textLength="28" x="293" y="178.1436">loop</text><text fill="#000000" font-family="sans-serif" font-size="11" font-weight="bold" lengthAdjust="spacing" textLength="122" x="366" y="176.9854">[for each collaborator]</text><polygon fill="#181818" points="561.5,201.6973,571.5,205.6973,561.5,209.6973,565.5,205.6973" style="stroke:#181818;stroke-width:1.0;"/><line style="stroke:#181818;stroke-width:1.0;" x1="388.5" x2="567.5" y1="205.6973" y2="205.6973"/><text fill="#000000" font-family="sans-serif" font-size="13" font-weight="bold" lengthAdjust="spacing" textLength="14" x="395.5" y="200.4346">16</text><text fill="#000000" font-family="sans-serif" font-size="13" lengthAdjust="spacing" textLength="148" x="413.5" y="200.4346">getCollaboratorSkillsList()</text><path d="M513,220.6973 L586,220.6973 L586,229.9883 L576,239.9883 L513,239.9883 L513,220.6973 " fill="#EEEEEE" style="stroke:#000000;stroke-width:1.5;"/><rect fill="none" height="81.873" style="stroke:#000000;stroke-width:1.5;" width="373" x="513" y="220.6973"/><text fill="#000000" font-family="sans-serif" font-size="13" font-weight="bold" lengthAdjust="spacing" textLength="28" x="528" y="235.7256">loop</text><text fill="#000000" font-family="sans-serif" font-size="11" font-weight="bold" lengthAdjust="spacing" textLength="188" x="601" y="234.5674">[for each Skill of that Collaborator]</text><polygon fill="#181818" points="743,259.2793,753,263.2793,743,267.2793,747,263.2793" style="stroke:#181818;stroke-width:1.0;"/><line style="stroke:#181818;stroke-width:1.0;" x1="583.5" x2="749" y1="263.2793" y2="263.2793"/><text fill="#000000" font-family="sans-serif" font-size="13" font-weight="bold" lengthAdjust="spacing" textLength="14" x="590.5" y="258.0166">17</text><text fill="#000000" font-family="sans-serif" font-size="13" lengthAdjust="spacing" textLength="126" x="608.5" y="258.0166">e = equalsSkill(name)</text><polygon fill="#181818" points="594.5,290.5703,584.5,294.5703,594.5,298.5703,590.5,294.5703" style="stroke:#181818;stroke-width:1.0;"/><line style="stroke:#181818;stroke-width:1.0;stroke-dasharray:2.0,2.0;" x1="588.5" x2="759" y1="294.5703" y2="294.5703"/><text fill="#000000" font-family="sans-serif" font-size="13" font-weight="bold" lengthAdjust="spacing" textLength="14" x="600.5" y="289.3076">18</text><text fill="#000000" font-family="sans-serif" font-size="13" lengthAdjust="spacing" textLength="53" x="618.5" y="289.3076">true/false</text><polygon fill="#181818" points="399.5,328.8613,389.5,332.8613,399.5,336.8613,395.5,332.8613" style="stroke:#181818;stroke-width:1.0;"/><line style="stroke:#181818;stroke-width:1.0;stroke-dasharray:2.0,2.0;" x1="393.5" x2="577.5" y1="332.8613" y2="332.8613"/><text fill="#000000" font-family="sans-serif" font-size="13" font-weight="bold" lengthAdjust="spacing" textLength="14" x="405.5" y="327.5986">19</text><text fill="#000000" font-family="sans-serif" font-size="13" lengthAdjust="spacing" textLength="53" x="423.5" y="327.5986">true/false</text><path d="M288,347.8613 L353,347.8613 L353,357.1523 L343,367.1523 L288,367.1523 L288,347.8613 " fill="#EEEEEE" style="stroke:#000000;stroke-width:1.5;"/><rect fill="none" height="80.582" style="stroke:#000000;stroke-width:1.5;" width="730" x="288" y="347.8613"/><text fill="#000000" font-family="sans-serif" font-size="13" font-weight="bold" lengthAdjust="spacing" textLength="20" x="303" y="362.8896">opt</text><text fill="#000000" font-family="sans-serif" font-size="11" font-weight="bold" lengthAdjust="spacing" textLength="56" x="368" y="361.7314">[e == true]</text><polygon fill="#181818" points="930,386.4434,940,390.4434,930,394.4434,934,390.4434" style="stroke:#181818;stroke-width:1.0;"/><line style="stroke:#181818;stroke-width:1.0;" x1="388.5" x2="936" y1="390.4434" y2="390.4434"/><text fill="#000000" font-family="sans-serif" font-size="13" font-weight="bold" lengthAdjust="spacing" textLength="14" x="395.5" y="385.1807">20</text><text fill="#000000" font-family="sans-serif" font-size="13" lengthAdjust="spacing" textLength="168" x="413.5" y="385.1807">addCollaborator(colllaborator)</text><polygon fill="#181818" points="188,461.7344,178,465.7344,188,469.7344,184,465.7344" style="stroke:#181818;stroke-width:1.0;"/><line style="stroke:#181818;stroke-width:1.0;stroke-dasharray:2.0,2.0;" x1="182" x2="382.5" y1="465.7344" y2="465.7344"/><text fill="#000000" font-family="sans-serif" font-size="13" font-weight="bold" lengthAdjust="spacing" textLength="14" x="194" y="460.4717">21</text><text fill="#000000" font-family="sans-serif" font-size="13" lengthAdjust="spacing" textLength="4" x="212" y="460.4717">&#160;</text><polygon fill="#181818" points="11,493.0254,1,497.0254,11,501.0254,7,497.0254" style="stroke:#181818;stroke-width:1.0;"/><line style="stroke:#181818;stroke-width:1.0;stroke-dasharray:2.0,2.0;" x1="5" x2="166" y1="497.0254" y2="497.0254"/><text fill="#000000" font-family="sans-serif" font-size="13" font-weight="bold" lengthAdjust="spacing" textLength="14" x="17" y="491.7627">22</text><text fill="#000000" font-family="sans-serif" font-size="13" lengthAdjust="spacing" textLength="4" x="35" y="491.7627">&#160;</text><!--SRC=[bPInJiCm48PtFyMfKnagXCHKGGSwTAa4eemiHt9Depg-O3kWlZssKrexZH7DK3Mvyt-V__FPx6lLeiO66bPSx3Gt15Pt9CmfqcAnnueszY09D1KMLINZ1BF3ahzhLS4MfI4XiBEikkQ3j10knTP5tQAoC9clI956Is-4pOlcbWtA9IkhMKhI4q03oxVNTRfAOKFlQhvqEVZ1RZbhyqfkRUt-7Vf5ux5K9qvoUklQs8VDlfPoOVolkL0AGNFL5jvL90kzxeQaSutAeE_3pzjD4aWhM2ViyBp-O9Vf9n4R3NVtGimMthmvL6GJGtpDwOrBBspzvT1xZqMbkMjXHJQr3vuEqFC5M270FNu5p1Oveo5Rz5mpqw8WBvbRsB86mc87HPGQmhzFhle0x4X_mTH_FuBzQeu27ZkV54yPGmRm5kmEKmEJHMFaHpm7FNOO73R18z1dvuOfXAP-06ukP4_WeqTA_8FWOJRB8VWxuBOVvw5GINzNZdD9dTzppVCKezqROOXg_zKkRgqtyR6_olvxXDBnSW1Obd7wr9_BqrlQa1FMO4OpnWqdEVRhcis6_EoM_5Zu2q5ab98n36tmKpx_0G00]--></g></svg>