<?xml version="1.0" encoding="us-ascii" standalone="no"?><svg xmlns="http://www.w3.org/2000/svg" xmlns:xlink="http://www.w3.org/1999/xlink" contentStyleType="text/css" height="375.3px" preserveAspectRatio="none" style="width:839px;height:375px;background:#FFFFFF;" version="1.1" viewBox="0 0 839 375" width="839.7px" zoomAndPan="magnify"><defs/><g><rect fill="#FFFFFF" height="227.0953" style="stroke:#181818;stroke-width:0.9;" width="9" x="180.9" y="81.4799"/><rect fill="#FFFFFF" height="28.1619" style="stroke:#181818;stroke-width:0.9;" width="9" x="337.5" y="133.3037"/><rect fill="#FFFFFF" height="28.1619" style="stroke:#181818;stroke-width:0.9;" width="9" x="526.95" y="189.6275"/><rect fill="#FFFFFF" height="28.1619" style="stroke:#181818;stroke-width:0.9;" width="9" x="729.45" y="245.9514"/><rect fill="none" height="186.3334" style="stroke:#000000;stroke-width:1.35;" width="727.2" x="107.1" y="94.9799"/><line style="stroke:#181818;stroke-width:0.45;stroke-dasharray:5.0,5.0;" x1="185.4" x2="185.4" y1="51.518" y2="324.7752"/><line style="stroke:#181818;stroke-width:0.45;stroke-dasharray:5.0,5.0;" x1="342" x2="342" y1="51.518" y2="324.7752"/><line style="stroke:#181818;stroke-width:0.45;stroke-dasharray:5.0,5.0;" x1="531" x2="531" y1="51.518" y2="324.7752"/><line style="stroke:#181818;stroke-width:0.45;stroke-dasharray:5.0,5.0;" x1="733.5" x2="733.5" y1="51.518" y2="324.7752"/><rect fill="#E3E3E3" height="29.359" rx="2.25" ry="2.25" style="stroke:#181818;stroke-width:0.45;" width="138.6" x="116.1" y="21.259"/><text fill="#000000" font-family="sans-serif" font-size="12.6" lengthAdjust="spacing" textLength="126" x="122.4" y="41.1557">:CreateTaskController</text><rect fill="#E3E3E3" height="29.359" rx="2.25" ry="2.25" style="stroke:#181818;stroke-width:0.45;" width="138.6" x="116.1" y="323.8752"/><text fill="#000000" font-family="sans-serif" font-size="12.6" lengthAdjust="spacing" textLength="126" x="122.4" y="343.7719">:CreateTaskController</text><rect fill="#E3E3E3" height="46.118" rx="2.25" ry="2.25" style="stroke:#181818;stroke-width:0.45;" width="156.6" x="263.7" y="4.5"/><text fill="#000000" font-family="sans-serif" font-size="12.6" lengthAdjust="spacing" textLength="135.9" x="274.05" y="24.3967">registedSkillsRepository</text><text fill="#000000" font-family="sans-serif" font-size="12.6" lengthAdjust="spacing" textLength="144" x="270" y="41.1557">:RegistedSkillsRepository</text><rect fill="#E3E3E3" height="46.118" rx="2.25" ry="2.25" style="stroke:#181818;stroke-width:0.45;" width="156.6" x="263.7" y="323.8752"/><text fill="#000000" font-family="sans-serif" font-size="12.6" lengthAdjust="spacing" textLength="135.9" x="274.05" y="343.7719">registedSkillsRepository</text><text fill="#000000" font-family="sans-serif" font-size="12.6" lengthAdjust="spacing" textLength="144" x="270" y="360.5309">:RegistedSkillsRepository</text><rect fill="#E3E3E3" height="46.118" rx="2.25" ry="2.25" style="stroke:#181818;stroke-width:0.45;" width="204.3" x="429.3" y="4.5"/><text fill="#000000" font-family="sans-serif" font-size="12.6" lengthAdjust="spacing" textLength="183.6" x="439.65" y="24.3967">registedCollaboratorsRepository</text><text fill="#000000" font-family="sans-serif" font-size="12.6" lengthAdjust="spacing" textLength="191.7" x="435.6" y="41.1557">:RegistedCollaboratorsRepository</text><rect fill="#E3E3E3" height="46.118" rx="2.25" ry="2.25" style="stroke:#181818;stroke-width:0.45;" width="204.3" x="429.3" y="323.8752"/><text fill="#000000" font-family="sans-serif" font-size="12.6" lengthAdjust="spacing" textLength="183.6" x="439.65" y="343.7719">registedCollaboratorsRepository</text><text fill="#000000" font-family="sans-serif" font-size="12.6" lengthAdjust="spacing" textLength="191.7" x="435.6" y="360.5309">:RegistedCollaboratorsRepository</text><rect fill="#E3E3E3" height="46.118" rx="2.25" ry="2.25" style="stroke:#181818;stroke-width:0.45;" width="182.7" x="642.6" y="4.5"/><text fill="#000000" font-family="sans-serif" font-size="12.6" lengthAdjust="spacing" textLength="163.8" x="652.05" y="24.3967">collaboratorsSkillsRepository</text><text fill="#000000" font-family="sans-serif" font-size="12.6" lengthAdjust="spacing" textLength="170.1" x="648.9" y="41.1557">:CollaboratorsSkillsRepository</text><rect fill="#E3E3E3" height="46.118" rx="2.25" ry="2.25" style="stroke:#181818;stroke-width:0.45;" width="182.7" x="642.6" y="323.8752"/><text fill="#000000" font-family="sans-serif" font-size="12.6" lengthAdjust="spacing" textLength="163.8" x="652.05" y="343.7719">collaboratorsSkillsRepository</text><text fill="#000000" font-family="sans-serif" font-size="12.6" lengthAdjust="spacing" textLength="170.1" x="648.9" y="360.5309">:CollaboratorsSkillsRepository</text><rect fill="#FFFFFF" height="227.0953" style="stroke:#181818;stroke-width:0.9;" width="9" x="180.9" y="81.4799"/><rect fill="#FFFFFF" height="28.1619" style="stroke:#181818;stroke-width:0.9;" width="9" x="337.5" y="133.3037"/><rect fill="#FFFFFF" height="28.1619" style="stroke:#181818;stroke-width:0.9;" width="9" x="526.95" y="189.6275"/><rect fill="#FFFFFF" height="28.1619" style="stroke:#181818;stroke-width:0.9;" width="9" x="729.45" y="245.9514"/><polygon fill="#181818" points="170.1,77.8799,179.1,81.4799,170.1,85.0799,173.7,81.4799" style="stroke:#181818;stroke-width:0.9;"/><line style="stroke:#181818;stroke-width:0.9;stroke-dasharray:2.0,2.0;" x1="0" x2="175.5" y1="81.4799" y2="81.4799"/><text fill="#000000" font-family="sans-serif" font-size="11.7" font-weight="bold" lengthAdjust="spacing" textLength="6.3" x="6.3" y="76.7435">3</text><text fill="#000000" font-family="sans-serif" font-size="11.7" lengthAdjust="spacing" textLength="153.9" x="16.2" y="76.7435">getCollaboratorsBySkillsList()</text><path d="M107.1,94.9799 L323.1,94.9799 L323.1,103.3418 L314.1,112.3418 L107.1,112.3418 L107.1,94.9799 " fill="#EEEEEE" style="stroke:#000000;stroke-width:1.35;"/><rect fill="none" height="186.3334" style="stroke:#000000;stroke-width:1.35;" width="727.2" x="107.1" y="94.9799"/><text fill="#000000" font-family="sans-serif" font-size="11.7" font-weight="bold" lengthAdjust="spacing" textLength="175.5" x="120.6" y="108.5054">Get Collaborators By Skills List</text><polygon fill="#181818" points="326.7,129.7037,335.7,133.3037,326.7,136.9037,330.3,133.3037" style="stroke:#181818;stroke-width:0.9;"/><line style="stroke:#181818;stroke-width:0.9;" x1="189.9" x2="332.1" y1="133.3037" y2="133.3037"/><text fill="#000000" font-family="sans-serif" font-size="11.7" font-weight="bold" lengthAdjust="spacing" textLength="6.3" x="196.2" y="128.5673">4</text><text fill="#000000" font-family="sans-serif" font-size="11.7" lengthAdjust="spacing" textLength="117" x="206.1" y="128.5673">getRegistedSkillsList()</text><polygon fill="#181818" points="199.8,157.8656,190.8,161.4656,199.8,165.0656,196.2,161.4656" style="stroke:#181818;stroke-width:0.9;"/><line style="stroke:#181818;stroke-width:0.9;stroke-dasharray:2.0,2.0;" x1="194.4" x2="341.1" y1="161.4656" y2="161.4656"/><text fill="#000000" font-family="sans-serif" font-size="11.7" font-weight="bold" lengthAdjust="spacing" textLength="6.3" x="205.2" y="156.7292">5</text><text fill="#000000" font-family="sans-serif" font-size="11.7" lengthAdjust="spacing" textLength="89.1" x="215.1" y="156.7292">registedSkillsList</text><polygon fill="#181818" points="516.15,186.0275,525.15,189.6275,516.15,193.2275,519.75,189.6275" style="stroke:#181818;stroke-width:0.9;"/><line style="stroke:#181818;stroke-width:0.9;" x1="189.9" x2="521.55" y1="189.6275" y2="189.6275"/><text fill="#000000" font-family="sans-serif" font-size="11.7" font-weight="bold" lengthAdjust="spacing" textLength="6.3" x="196.2" y="184.8911">6</text><text fill="#000000" font-family="sans-serif" font-size="11.7" lengthAdjust="spacing" textLength="156.6" x="206.1" y="184.8911">getRegistedCollaboratorsList()</text><polygon fill="#181818" points="199.8,214.1895,190.8,217.7895,199.8,221.3895,196.2,217.7895" style="stroke:#181818;stroke-width:0.9;"/><line style="stroke:#181818;stroke-width:0.9;stroke-dasharray:2.0,2.0;" x1="194.4" x2="530.55" y1="217.7895" y2="217.7895"/><text fill="#000000" font-family="sans-serif" font-size="11.7" font-weight="bold" lengthAdjust="spacing" textLength="6.3" x="205.2" y="213.053">7</text><text fill="#000000" font-family="sans-serif" font-size="11.7" lengthAdjust="spacing" textLength="128.7" x="215.1" y="213.053">registedCollaboratorsList</text><polygon fill="#181818" points="718.65,242.3514,727.65,245.9514,718.65,249.5514,722.25,245.9514" style="stroke:#181818;stroke-width:0.9;"/><line style="stroke:#181818;stroke-width:0.9;" x1="189.9" x2="724.05" y1="245.9514" y2="245.9514"/><text fill="#000000" font-family="sans-serif" font-size="11.7" font-weight="bold" lengthAdjust="spacing" textLength="6.3" x="196.2" y="241.2149">8</text><text fill="#000000" font-family="sans-serif" font-size="11.7" lengthAdjust="spacing" textLength="153.9" x="206.1" y="241.2149">getCollaboratorsBySkillsList()</text><polygon fill="#181818" points="199.8,270.5133,190.8,274.1133,199.8,277.7133,196.2,274.1133" style="stroke:#181818;stroke-width:0.9;"/><line style="stroke:#181818;stroke-width:0.9;stroke-dasharray:2.0,2.0;" x1="194.4" x2="733.05" y1="274.1133" y2="274.1133"/><text fill="#000000" font-family="sans-serif" font-size="11.7" font-weight="bold" lengthAdjust="spacing" textLength="6.3" x="205.2" y="269.3769">9</text><text fill="#000000" font-family="sans-serif" font-size="11.7" lengthAdjust="spacing" textLength="128.7" x="215.1" y="269.3769">collaboratorsBySkillsList</text><polygon fill="#181818" points="9.9,304.9752,0.9,308.5752,9.9,312.1752,6.3,308.5752" style="stroke:#181818;stroke-width:0.9;"/><line style="stroke:#181818;stroke-width:0.9;stroke-dasharray:2.0,2.0;" x1="4.5" x2="184.5" y1="308.5752" y2="308.5752"/><text fill="#000000" font-family="sans-serif" font-size="11.7" font-weight="bold" lengthAdjust="spacing" textLength="12.6" x="15.3" y="303.8388">10</text><text fill="#000000" font-family="sans-serif" font-size="11.7" lengthAdjust="spacing" textLength="128.7" x="31.5" y="303.8388">collaboratorsBySkillsList</text><!--SRC=[bPAnKiCm38PtFuMk4moPs7eSGpEmT6exigYEI7rnx9pimENjSPC2TgdTmrCk-gLFloJNAJCWOm-zDLQUsFO4daSIxYSoeEomfRsVD06Jz6XQ7GlS2HlxgKmBxwWT2O6ZjsRiZyH218bNKWreFApMDHDwEg3hQciyMws9Lu0EwiDkcsgPMkKyDVjEQUrsD5YdlENfpQntcT1SAHUyNRqEBU3HCWR9RKX6aR0ocXGfOz4DLtKflWoff8Z73a-YgbxceQwX9PyaRgObTHjQVtWKecKx3l1AFgqFcmaM8PoL0i93wTL7ME2ohldN-Gi2ApTsc1j8enToKZ6xjbbsVbd2jzM0uZ-SERsXVt2k7MMMcnfBH2L_kLCHiSKSydUfdEFc_1QviUtYaS7TSqhFf7omCxQ8YrOhSz1hntUWP1eXdglgCiXysRXaa7u1]--></g></svg>