<?xml version="1.0" encoding="us-ascii" standalone="no"?><svg xmlns="http://www.w3.org/2000/svg" xmlns:xlink="http://www.w3.org/1999/xlink" contentStyleType="text/css" height="1184px" preserveAspectRatio="none" style="width:511px;height:1184px;background:#FFFFFF;" version="1.1" viewBox="0 0 511 1184" width="511px" zoomAndPan="magnify"><defs/><g><!--class GenerateTeamProposalUI--><g id="elem_GenerateTeamProposalUI"><rect codeLine="8" fill="#F1F1F1" height="24" id="GenerateTeamProposalUI" rx="1.25" ry="1.25" style="stroke:#181818;stroke-width:0.25;" width="98" x="3.5" y="31.5"/><ellipse cx="11" cy="39.5" fill="#ADD1B2" rx="5.5" ry="5.5" style="stroke:#181818;stroke-width:0.5;"/><path d="M12.3828,37.4375 Q12.4609,37.3281 12.5547,37.2734 Q12.6484,37.2188 12.7578,37.2188 Q12.9453,37.2188 13.0625,37.3516 Q13.1797,37.4766 13.1797,37.7813 L13.1797,38.5078 Q13.1797,38.8125 13.0625,38.9453 Q12.9453,39.0781 12.7578,39.0781 Q12.5859,39.0781 12.4844,38.9766 Q12.3828,38.8828 12.3281,38.625 Q12.3047,38.4453 12.2109,38.3516 Q12.0469,38.1641 11.7422,38.0547 Q11.4375,37.9453 11.125,37.9453 Q10.7422,37.9453 10.4219,38.1094 Q10.1094,38.2734 9.8594,38.6484 Q9.6172,39.0234 9.6172,39.5391 L9.6172,40.0859 Q9.6172,40.7031 10.0625,41.1172 Q10.5078,41.5234 11.3047,41.5234 Q11.7734,41.5234 12.1016,41.3984 Q12.2969,41.3203 12.5078,41.1016 Q12.6406,40.9688 12.7109,40.9297 Q12.7891,40.8906 12.8906,40.8906 Q13.0547,40.8906 13.1797,41.0234 Q13.3125,41.1484 13.3125,41.3203 Q13.3125,41.4922 13.1406,41.6953 Q12.8906,41.9844 12.4922,42.1484 Q11.9531,42.375 11.3047,42.375 Q10.5469,42.375 9.9453,42.0625 Q9.4531,41.8125 9.1094,41.2813 Q8.7656,40.7422 8.7656,40.1016 L8.7656,39.5234 Q8.7656,38.8594 9.0703,38.2891 Q9.3828,37.7109 9.9297,37.4063 Q10.4766,37.0938 11.0938,37.0938 Q11.4609,37.0938 11.7813,37.1797 Q12.1094,37.2578 12.3828,37.4375 Z " fill="#000000"/><text fill="#000000" font-family="sans-serif" font-size="7" lengthAdjust="spacing" textLength="82" x="18" y="42.3984">GenerateTeamProposalUI</text><line style="stroke:#181818;stroke-width:0.25;" x1="4" x2="101" y1="47.5" y2="47.5"/><line style="stroke:#181818;stroke-width:0.25;" x1="4" x2="101" y1="51.5" y2="51.5"/></g><!--class GenerateTeamProposalController--><g id="elem_GenerateTeamProposalController"><rect codeLine="11" fill="#F1F1F1" height="79.8633" id="GenerateTeamProposalController" rx="1.25" ry="1.25" style="stroke:#181818;stroke-width:0.25;" width="308.5" x="119.25" y="3.5"/><ellipse cx="217.875" cy="11.5" fill="#ADD1B2" rx="5.5" ry="5.5" style="stroke:#181818;stroke-width:0.5;"/><path d="M219.2578,9.4375 Q219.3359,9.3281 219.4297,9.2734 Q219.5234,9.2188 219.6328,9.2188 Q219.8203,9.2188 219.9375,9.3516 Q220.0547,9.4766 220.0547,9.7813 L220.0547,10.5078 Q220.0547,10.8125 219.9375,10.9453 Q219.8203,11.0781 219.6328,11.0781 Q219.4609,11.0781 219.3594,10.9766 Q219.2578,10.8828 219.2031,10.625 Q219.1797,10.4453 219.0859,10.3516 Q218.9219,10.1641 218.6172,10.0547 Q218.3125,9.9453 218,9.9453 Q217.6172,9.9453 217.2969,10.1094 Q216.9844,10.2734 216.7344,10.6484 Q216.4922,11.0234 216.4922,11.5391 L216.4922,12.0859 Q216.4922,12.7031 216.9375,13.1172 Q217.3828,13.5234 218.1797,13.5234 Q218.6484,13.5234 218.9766,13.3984 Q219.1719,13.3203 219.3828,13.1016 Q219.5156,12.9688 219.5859,12.9297 Q219.6641,12.8906 219.7656,12.8906 Q219.9297,12.8906 220.0547,13.0234 Q220.1875,13.1484 220.1875,13.3203 Q220.1875,13.4922 220.0156,13.6953 Q219.7656,13.9844 219.3672,14.1484 Q218.8281,14.375 218.1797,14.375 Q217.4219,14.375 216.8203,14.0625 Q216.3281,13.8125 215.9844,13.2813 Q215.6406,12.7422 215.6406,12.1016 L215.6406,11.5234 Q215.6406,10.8594 215.9453,10.2891 Q216.2578,9.7109 216.8047,9.4063 Q217.3516,9.0938 217.9688,9.0938 Q218.3359,9.0938 218.6563,9.1797 Q218.9844,9.2578 219.2578,9.4375 Z " fill="#000000"/><text fill="#000000" font-family="sans-serif" font-size="7" lengthAdjust="spacing" textLength="107" x="228.125" y="14.3984">GenerateTeamProposalController</text><line style="stroke:#181818;stroke-width:0.25;" x1="119.75" x2="427.25" y1="19.5" y2="19.5"/><text fill="#000000" font-family="sans-serif" font-size="7" lengthAdjust="spacing" textLength="78.5" x="122.25" y="29.0537">-List&lt;Skill&gt; skillsSelected</text><line style="stroke:#181818;stroke-width:0.25;" x1="119.75" x2="427.25" y1="32.8105" y2="32.8105"/><text fill="#000000" font-family="sans-serif" font-size="7" lengthAdjust="spacing" textLength="302.5" x="122.25" y="42.3643">+GenerateTeamProposalController(SkillsRepository, CollaboratorsRepository, TeamRepository)</text><text fill="#000000" font-family="sans-serif" font-size="7" lengthAdjust="spacing" textLength="46" x="122.25" y="51.6748">+getSkillsList()</text><text fill="#000000" font-family="sans-serif" font-size="7" lengthAdjust="spacing" textLength="72.5" x="122.25" y="60.9854">+getCollaboratorsList()</text><text fill="#000000" font-family="sans-serif" font-size="7" lengthAdjust="spacing" textLength="85" x="122.25" y="70.2959">+getCollaboratorSkillsList()</text><text fill="#000000" font-family="sans-serif" font-size="7" lengthAdjust="spacing" textLength="37" x="122.25" y="79.6064">+getTeam()</text></g><!--class Collaborator--><g id="elem_Collaborator"><rect codeLine="20" fill="#F1F1F1" height="359.1797" id="Collaborator" rx="1.25" ry="1.25" style="stroke:#181818;stroke-width:0.25;" width="284.5" x="81.25" y="546"/><ellipse cx="201.875" cy="554" fill="#ADD1B2" rx="5.5" ry="5.5" style="stroke:#181818;stroke-width:0.5;"/><path d="M203.2578,551.9375 Q203.3359,551.8281 203.4297,551.7734 Q203.5234,551.7188 203.6328,551.7188 Q203.8203,551.7188 203.9375,551.8516 Q204.0547,551.9766 204.0547,552.2813 L204.0547,553.0078 Q204.0547,553.3125 203.9375,553.4453 Q203.8203,553.5781 203.6328,553.5781 Q203.4609,553.5781 203.3594,553.4766 Q203.2578,553.3828 203.2031,553.125 Q203.1797,552.9453 203.0859,552.8516 Q202.9219,552.6641 202.6172,552.5547 Q202.3125,552.4453 202,552.4453 Q201.6172,552.4453 201.2969,552.6094 Q200.9844,552.7734 200.7344,553.1484 Q200.4922,553.5234 200.4922,554.0391 L200.4922,554.5859 Q200.4922,555.2031 200.9375,555.6172 Q201.3828,556.0234 202.1797,556.0234 Q202.6484,556.0234 202.9766,555.8984 Q203.1719,555.8203 203.3828,555.6016 Q203.5156,555.4688 203.5859,555.4297 Q203.6641,555.3906 203.7656,555.3906 Q203.9297,555.3906 204.0547,555.5234 Q204.1875,555.6484 204.1875,555.8203 Q204.1875,555.9922 204.0156,556.1953 Q203.7656,556.4844 203.3672,556.6484 Q202.8281,556.875 202.1797,556.875 Q201.4219,556.875 200.8203,556.5625 Q200.3281,556.3125 199.9844,555.7813 Q199.6406,555.2422 199.6406,554.6016 L199.6406,554.0234 Q199.6406,553.3594 199.9453,552.7891 Q200.2578,552.2109 200.8047,551.9063 Q201.3516,551.5938 201.9688,551.5938 Q202.3359,551.5938 202.6563,551.6797 Q202.9844,551.7578 203.2578,551.9375 Z " fill="#000000"/><text fill="#000000" font-family="sans-serif" font-size="7" lengthAdjust="spacing" textLength="39" x="212.125" y="556.8984">Collaborator</text><line style="stroke:#181818;stroke-width:0.25;" x1="81.75" x2="365.25" y1="562" y2="562"/><text fill="#000000" font-family="sans-serif" font-size="7" lengthAdjust="spacing" textLength="40.5" x="84.25" y="571.5537">-String name</text><text fill="#000000" font-family="sans-serif" font-size="7" lengthAdjust="spacing" textLength="49" x="84.25" y="580.8643">-Date bornDate</text><text fill="#000000" font-family="sans-serif" font-size="7" lengthAdjust="spacing" textLength="48" x="84.25" y="590.1748">-Date admDate</text><text fill="#000000" font-family="sans-serif" font-size="7" lengthAdjust="spacing" textLength="56.5" x="84.25" y="599.4854">-int phoneNumber</text><text fill="#000000" font-family="sans-serif" font-size="7" lengthAdjust="spacing" textLength="39.5" x="84.25" y="608.7959">-String email</text><text fill="#000000" font-family="sans-serif" font-size="7" lengthAdjust="spacing" textLength="33" x="84.25" y="618.1064">-int idCard</text><text fill="#000000" font-family="sans-serif" font-size="7" lengthAdjust="spacing" textLength="42" x="84.25" y="627.417">-int idNumber</text><text fill="#000000" font-family="sans-serif" font-size="7" lengthAdjust="spacing" textLength="51" x="84.25" y="636.7275">-List&lt;Skill&gt; skills</text><text fill="#000000" font-family="sans-serif" font-size="7" lengthAdjust="spacing" textLength="44" x="84.25" y="646.0381">+getIdNumber</text><line style="stroke:#181818;stroke-width:0.25;" x1="81.75" x2="365.25" y1="649.7949" y2="649.7949"/><text fill="#000000" font-family="sans-serif" font-size="7" lengthAdjust="spacing" textLength="259.5" x="84.25" y="659.3486">+Collaborator(name, bornDate, admDate, phoneNumber, email, idCard, idNumber)</text><text fill="#000000" font-family="sans-serif" font-size="7" lengthAdjust="spacing" textLength="278.5" x="84.25" y="668.6592">+Collaborator(name, bornDate, admDate, phoneNumber, email, idCard, idNumber, skills)</text><text fill="#000000" font-family="sans-serif" font-size="7" lengthAdjust="spacing" textLength="64.5" x="84.25" y="677.9697">+Collaborator(email)</text><text fill="#000000" font-family="sans-serif" font-size="7" lengthAdjust="spacing" textLength="37" x="84.25" y="687.2803">+getName()</text><text fill="#000000" font-family="sans-serif" font-size="7" lengthAdjust="spacing" textLength="54" x="84.25" y="696.5908">+setName(name)</text><text fill="#000000" font-family="sans-serif" font-size="7" lengthAdjust="spacing" textLength="49" x="84.25" y="705.9014">+getBornDate()</text><text fill="#000000" font-family="sans-serif" font-size="7" lengthAdjust="spacing" textLength="78" x="84.25" y="715.2119">+setBornDate(bornDate)</text><text fill="#000000" font-family="sans-serif" font-size="7" lengthAdjust="spacing" textLength="48" x="84.25" y="724.5225">+getAdmDate()</text><text fill="#000000" font-family="sans-serif" font-size="7" lengthAdjust="spacing" textLength="76" x="84.25" y="733.833">+setAdmDate(admDate)</text><text fill="#000000" font-family="sans-serif" font-size="7" lengthAdjust="spacing" textLength="45" x="84.25" y="743.1436">+getAddress()</text><text fill="#000000" font-family="sans-serif" font-size="7" lengthAdjust="spacing" textLength="70" x="84.25" y="752.4541">+setAddress(address)</text><text fill="#000000" font-family="sans-serif" font-size="7" lengthAdjust="spacing" textLength="64" x="84.25" y="761.7646">+getPhoneNumber()</text><text fill="#000000" font-family="sans-serif" font-size="7" lengthAdjust="spacing" textLength="108" x="84.25" y="771.0752">+setPhoneNumber(phoneNumber)</text><text fill="#000000" font-family="sans-serif" font-size="7" lengthAdjust="spacing" textLength="36" x="84.25" y="780.3857">+getEmail()</text><text fill="#000000" font-family="sans-serif" font-size="7" lengthAdjust="spacing" textLength="52" x="84.25" y="789.6963">+setEmail(email)</text><text fill="#000000" font-family="sans-serif" font-size="7" lengthAdjust="spacing" textLength="40" x="84.25" y="799.0068">+getIdCard()</text><text fill="#000000" font-family="sans-serif" font-size="7" lengthAdjust="spacing" textLength="60.5" x="84.25" y="808.3174">+setIdCard(idCard)</text><text fill="#000000" font-family="sans-serif" font-size="7" lengthAdjust="spacing" textLength="78.5" x="84.25" y="817.6279">+setIdNumber(idNumber)</text><text fill="#000000" font-family="sans-serif" font-size="7" lengthAdjust="spacing" textLength="35" x="84.25" y="826.9385">+getSkills()</text><text fill="#000000" font-family="sans-serif" font-size="7" lengthAdjust="spacing" textLength="49.5" x="84.25" y="836.249">+setSkills(skills)</text><text fill="#000000" font-family="sans-serif" font-size="7" lengthAdjust="spacing" textLength="30" x="84.25" y="845.5596">+equals()</text><text fill="#000000" font-family="sans-serif" font-size="7" lengthAdjust="spacing" textLength="33.5" x="84.25" y="854.8701">+toString()</text><text fill="#000000" font-family="sans-serif" font-size="7" lengthAdjust="spacing" textLength="41.5" x="84.25" y="864.1807">+hashCode()</text><text fill="#000000" font-family="sans-serif" font-size="7" lengthAdjust="spacing" textLength="54" x="84.25" y="873.4912">+hasEmail(email)</text><text fill="#000000" font-family="sans-serif" font-size="7" lengthAdjust="spacing" textLength="26" x="84.25" y="882.8018">+clone()</text><text fill="#000000" font-family="sans-serif" font-size="7" lengthAdjust="spacing" textLength="60" x="84.25" y="892.1123">+void addSkill(skill)</text><text fill="#000000" font-family="sans-serif" font-size="7" lengthAdjust="spacing" textLength="71.5" x="84.25" y="901.4229">+void removeSkill(skill)</text></g><!--class Repositories--><g id="elem_Repositories"><rect codeLine="59" fill="#F1F1F1" height="70.5527" id="Repositories" rx="1.25" ry="1.25" style="stroke:#181818;stroke-width:0.25;" width="101.5" x="222.75" y="123"/><ellipse cx="251.625" cy="131" fill="#ADD1B2" rx="5.5" ry="5.5" style="stroke:#181818;stroke-width:0.5;"/><path d="M253.0078,128.9375 Q253.0859,128.8281 253.1797,128.7734 Q253.2734,128.7188 253.3828,128.7188 Q253.5703,128.7188 253.6875,128.8516 Q253.8047,128.9766 253.8047,129.2813 L253.8047,130.0078 Q253.8047,130.3125 253.6875,130.4453 Q253.5703,130.5781 253.3828,130.5781 Q253.2109,130.5781 253.1094,130.4766 Q253.0078,130.3828 252.9531,130.125 Q252.9297,129.9453 252.8359,129.8516 Q252.6719,129.6641 252.3672,129.5547 Q252.0625,129.4453 251.75,129.4453 Q251.3672,129.4453 251.0469,129.6094 Q250.7344,129.7734 250.4844,130.1484 Q250.2422,130.5234 250.2422,131.0391 L250.2422,131.5859 Q250.2422,132.2031 250.6875,132.6172 Q251.1328,133.0234 251.9297,133.0234 Q252.3984,133.0234 252.7266,132.8984 Q252.9219,132.8203 253.1328,132.6016 Q253.2656,132.4688 253.3359,132.4297 Q253.4141,132.3906 253.5156,132.3906 Q253.6797,132.3906 253.8047,132.5234 Q253.9375,132.6484 253.9375,132.8203 Q253.9375,132.9922 253.7656,133.1953 Q253.5156,133.4844 253.1172,133.6484 Q252.5781,133.875 251.9297,133.875 Q251.1719,133.875 250.5703,133.5625 Q250.0781,133.3125 249.7344,132.7813 Q249.3906,132.2422 249.3906,131.6016 L249.3906,131.0234 Q249.3906,130.3594 249.6953,129.7891 Q250.0078,129.2109 250.5547,128.9063 Q251.1016,128.5938 251.7188,128.5938 Q252.0859,128.5938 252.4063,128.6797 Q252.7344,128.7578 253.0078,128.9375 Z " fill="#000000"/><text fill="#000000" font-family="sans-serif" font-size="7" lengthAdjust="spacing" textLength="39.5" x="261.875" y="133.8984">Repositories</text><line style="stroke:#181818;stroke-width:0.25;" x1="223.25" x2="323.75" y1="139" y2="139"/><line style="stroke:#181818;stroke-width:0.25;" x1="223.25" x2="323.75" y1="143" y2="143"/><text fill="#000000" font-family="sans-serif" font-size="7" lengthAdjust="spacing" textLength="47" x="225.75" y="152.5537">-Repositories()</text><text fill="#000000" font-family="sans-serif" font-size="7" lengthAdjust="spacing" textLength="91" x="225.75" y="161.8643">+getInstance() : Repositories</text><text fill="#000000" font-family="sans-serif" font-size="7" lengthAdjust="spacing" textLength="69" x="225.75" y="171.1748">+getSkillsRepository()</text><text fill="#000000" font-family="sans-serif" font-size="7" lengthAdjust="spacing" textLength="95.5" x="225.75" y="180.4854">+getCollaboratorsRepository()</text><text fill="#000000" font-family="sans-serif" font-size="7" lengthAdjust="spacing" textLength="71" x="225.75" y="189.7959">+getTeamRepository()</text></g><!--class CollaboratorsRepository--><g id="elem_CollaboratorsRepository"><rect codeLine="67" fill="#F1F1F1" height="70.5527" id="CollaboratorsRepository" rx="1.25" ry="1.25" style="stroke:#181818;stroke-width:0.25;" width="143.5" x="324.75" y="389.5"/><ellipse cx="356.125" cy="397.5" fill="#ADD1B2" rx="5.5" ry="5.5" style="stroke:#181818;stroke-width:0.5;"/><path d="M357.5078,395.4375 Q357.5859,395.3281 357.6797,395.2734 Q357.7734,395.2188 357.8828,395.2188 Q358.0703,395.2188 358.1875,395.3516 Q358.3047,395.4766 358.3047,395.7813 L358.3047,396.5078 Q358.3047,396.8125 358.1875,396.9453 Q358.0703,397.0781 357.8828,397.0781 Q357.7109,397.0781 357.6094,396.9766 Q357.5078,396.8828 357.4531,396.625 Q357.4297,396.4453 357.3359,396.3516 Q357.1719,396.1641 356.8672,396.0547 Q356.5625,395.9453 356.25,395.9453 Q355.8672,395.9453 355.5469,396.1094 Q355.2344,396.2734 354.9844,396.6484 Q354.7422,397.0234 354.7422,397.5391 L354.7422,398.0859 Q354.7422,398.7031 355.1875,399.1172 Q355.6328,399.5234 356.4297,399.5234 Q356.8984,399.5234 357.2266,399.3984 Q357.4219,399.3203 357.6328,399.1016 Q357.7656,398.9688 357.8359,398.9297 Q357.9141,398.8906 358.0156,398.8906 Q358.1797,398.8906 358.3047,399.0234 Q358.4375,399.1484 358.4375,399.3203 Q358.4375,399.4922 358.2656,399.6953 Q358.0156,399.9844 357.6172,400.1484 Q357.0781,400.375 356.4297,400.375 Q355.6719,400.375 355.0703,400.0625 Q354.5781,399.8125 354.2344,399.2813 Q353.8906,398.7422 353.8906,398.1016 L353.8906,397.5234 Q353.8906,396.8594 354.1953,396.2891 Q354.5078,395.7109 355.0547,395.4063 Q355.6016,395.0938 356.2188,395.0938 Q356.5859,395.0938 356.9063,395.1797 Q357.2344,395.2578 357.5078,395.4375 Z " fill="#000000"/><text fill="#000000" font-family="sans-serif" font-size="7" lengthAdjust="spacing" textLength="76.5" x="366.375" y="400.3984">CollaboratorsRepository</text><line style="stroke:#181818;stroke-width:0.25;" x1="325.25" x2="467.75" y1="405.5" y2="405.5"/><text fill="#000000" font-family="sans-serif" font-size="7" lengthAdjust="spacing" textLength="114.5" x="327.75" y="415.0537">-List&lt;Collaborator&gt; collaboratorsList</text><line style="stroke:#181818;stroke-width:0.25;" x1="325.25" x2="467.75" y1="418.8105" y2="418.8105"/><text fill="#000000" font-family="sans-serif" font-size="7" lengthAdjust="spacing" textLength="137.5" x="327.75" y="428.3643">+CollaboratorsRepository(collaboratorsList)</text><text fill="#000000" font-family="sans-serif" font-size="7" lengthAdjust="spacing" textLength="134" x="327.75" y="437.6748">+Optional&lt;Collaborator&gt; add(collaborator)</text><text fill="#000000" font-family="sans-serif" font-size="7" lengthAdjust="spacing" textLength="108.5" x="327.75" y="446.9854">-validateCollaborator(collaborator)</text><text fill="#000000" font-family="sans-serif" font-size="7" lengthAdjust="spacing" textLength="72.5" x="327.75" y="456.2959">+getCollaboratorsList()</text></g><!--class SkillsRepository--><g id="elem_SkillsRepository"><rect codeLine="75" fill="#F1F1F1" height="70.5527" id="SkillsRepository" rx="1.25" ry="1.25" style="stroke:#181818;stroke-width:0.25;" width="87.5" x="342.75" y="233"/><ellipse cx="359.925" cy="241" fill="#ADD1B2" rx="5.5" ry="5.5" style="stroke:#181818;stroke-width:0.5;"/><path d="M361.3078,238.9375 Q361.3859,238.8281 361.4797,238.7734 Q361.5734,238.7188 361.6828,238.7188 Q361.8703,238.7188 361.9875,238.8516 Q362.1047,238.9766 362.1047,239.2813 L362.1047,240.0078 Q362.1047,240.3125 361.9875,240.4453 Q361.8703,240.5781 361.6828,240.5781 Q361.5109,240.5781 361.4094,240.4766 Q361.3078,240.3828 361.2531,240.125 Q361.2297,239.9453 361.1359,239.8516 Q360.9719,239.6641 360.6672,239.5547 Q360.3625,239.4453 360.05,239.4453 Q359.6672,239.4453 359.3469,239.6094 Q359.0344,239.7734 358.7844,240.1484 Q358.5422,240.5234 358.5422,241.0391 L358.5422,241.5859 Q358.5422,242.2031 358.9875,242.6172 Q359.4328,243.0234 360.2297,243.0234 Q360.6984,243.0234 361.0266,242.8984 Q361.2219,242.8203 361.4328,242.6016 Q361.5656,242.4688 361.6359,242.4297 Q361.7141,242.3906 361.8156,242.3906 Q361.9797,242.3906 362.1047,242.5234 Q362.2375,242.6484 362.2375,242.8203 Q362.2375,242.9922 362.0656,243.1953 Q361.8156,243.4844 361.4172,243.6484 Q360.8781,243.875 360.2297,243.875 Q359.4719,243.875 358.8703,243.5625 Q358.3781,243.3125 358.0344,242.7813 Q357.6906,242.2422 357.6906,241.6016 L357.6906,241.0234 Q357.6906,240.3594 357.9953,239.7891 Q358.3078,239.2109 358.8547,238.9063 Q359.4016,238.5938 360.0188,238.5938 Q360.3859,238.5938 360.7063,238.6797 Q361.0344,238.7578 361.3078,238.9375 Z " fill="#000000"/><text fill="#000000" font-family="sans-serif" font-size="7" lengthAdjust="spacing" textLength="50" x="369.075" y="243.8984">SkillsRepository</text><line style="stroke:#181818;stroke-width:0.25;" x1="343.25" x2="429.75" y1="249" y2="249"/><text fill="#000000" font-family="sans-serif" font-size="7" lengthAdjust="spacing" textLength="62" x="345.75" y="258.5537">-List&lt;Skill&gt; skillsList</text><line style="stroke:#181818;stroke-width:0.25;" x1="343.25" x2="429.75" y1="262.3105" y2="262.3105"/><text fill="#000000" font-family="sans-serif" font-size="7" lengthAdjust="spacing" textLength="59" x="345.75" y="271.8643">+SkillsRepository()</text><text fill="#000000" font-family="sans-serif" font-size="7" lengthAdjust="spacing" textLength="81.5" x="345.75" y="281.1748">+Optional&lt;Skill&gt; add(skill)</text><text fill="#000000" font-family="sans-serif" font-size="7" lengthAdjust="spacing" textLength="56" x="345.75" y="290.4854">-validateSkill(skill)</text><text fill="#000000" font-family="sans-serif" font-size="7" lengthAdjust="spacing" textLength="46" x="345.75" y="299.7959">+getSkillsList()</text></g><!--class Address--><g id="elem_Address"><rect codeLine="83" fill="#F1F1F1" height="98.4844" id="Address" rx="1.25" ry="1.25" style="stroke:#181818;stroke-width:0.25;" width="109.5" x="168.75" y="944.5"/><ellipse cx="208.375" cy="952.5" fill="#ADD1B2" rx="5.5" ry="5.5" style="stroke:#181818;stroke-width:0.5;"/><path d="M209.7578,950.4375 Q209.8359,950.3281 209.9297,950.2734 Q210.0234,950.2188 210.1328,950.2188 Q210.3203,950.2188 210.4375,950.3516 Q210.5547,950.4766 210.5547,950.7813 L210.5547,951.5078 Q210.5547,951.8125 210.4375,951.9453 Q210.3203,952.0781 210.1328,952.0781 Q209.9609,952.0781 209.8594,951.9766 Q209.7578,951.8828 209.7031,951.625 Q209.6797,951.4453 209.5859,951.3516 Q209.4219,951.1641 209.1172,951.0547 Q208.8125,950.9453 208.5,950.9453 Q208.1172,950.9453 207.7969,951.1094 Q207.4844,951.2734 207.2344,951.6484 Q206.9922,952.0234 206.9922,952.5391 L206.9922,953.0859 Q206.9922,953.7031 207.4375,954.1172 Q207.8828,954.5234 208.6797,954.5234 Q209.1484,954.5234 209.4766,954.3984 Q209.6719,954.3203 209.8828,954.1016 Q210.0156,953.9688 210.0859,953.9297 Q210.1641,953.8906 210.2656,953.8906 Q210.4297,953.8906 210.5547,954.0234 Q210.6875,954.1484 210.6875,954.3203 Q210.6875,954.4922 210.5156,954.6953 Q210.2656,954.9844 209.8672,955.1484 Q209.3281,955.375 208.6797,955.375 Q207.9219,955.375 207.3203,955.0625 Q206.8281,954.8125 206.4844,954.2813 Q206.1406,953.7422 206.1406,953.1016 L206.1406,952.5234 Q206.1406,951.8594 206.4453,951.2891 Q206.7578,950.7109 207.3047,950.4063 Q207.8516,950.0938 208.4688,950.0938 Q208.8359,950.0938 209.1563,950.1797 Q209.4844,950.2578 209.7578,950.4375 Z " fill="#000000"/><text fill="#000000" font-family="sans-serif" font-size="7" lengthAdjust="spacing" textLength="26" x="218.625" y="955.3984">Address</text><line style="stroke:#181818;stroke-width:0.25;" x1="169.25" x2="277.75" y1="960.5" y2="960.5"/><text fill="#000000" font-family="sans-serif" font-size="7" lengthAdjust="spacing" textLength="51" x="171.75" y="970.0537">-int doorNumber</text><text fill="#000000" font-family="sans-serif" font-size="7" lengthAdjust="spacing" textLength="56.5" x="171.75" y="979.3643">-ZipCode zipCode</text><line style="stroke:#181818;stroke-width:0.25;" x1="169.25" x2="277.75" y1="983.1211" y2="983.1211"/><text fill="#000000" font-family="sans-serif" font-size="7" lengthAdjust="spacing" textLength="103.5" x="171.75" y="992.6748">+Address(doorNumber, zipCode)</text><text fill="#000000" font-family="sans-serif" font-size="7" lengthAdjust="spacing" textLength="60.5" x="171.75" y="1001.9854">+Address(address)</text><text fill="#000000" font-family="sans-serif" font-size="7" lengthAdjust="spacing" textLength="59" x="171.75" y="1011.2959">+getDoorNumber()</text><text fill="#000000" font-family="sans-serif" font-size="7" lengthAdjust="spacing" textLength="58.5" x="171.75" y="1020.6064">+setDoorNumber()</text><text fill="#000000" font-family="sans-serif" font-size="7" lengthAdjust="spacing" textLength="45.5" x="171.75" y="1029.917">+getZipCode()</text><text fill="#000000" font-family="sans-serif" font-size="7" lengthAdjust="spacing" textLength="45" x="171.75" y="1039.2275">+setZipCode()</text></g><!--class ZipCode--><g id="elem_ZipCode"><rect codeLine="94" fill="#F1F1F1" height="98.4844" id="ZipCode" rx="1.25" ry="1.25" style="stroke:#181818;stroke-width:0.25;" width="78" x="184.5" y="1082.5"/><ellipse cx="208.125" cy="1090.5" fill="#ADD1B2" rx="5.5" ry="5.5" style="stroke:#181818;stroke-width:0.5;"/><path d="M209.5078,1088.4375 Q209.5859,1088.3281 209.6797,1088.2734 Q209.7734,1088.2188 209.8828,1088.2188 Q210.0703,1088.2188 210.1875,1088.3516 Q210.3047,1088.4766 210.3047,1088.7813 L210.3047,1089.5078 Q210.3047,1089.8125 210.1875,1089.9453 Q210.0703,1090.0781 209.8828,1090.0781 Q209.7109,1090.0781 209.6094,1089.9766 Q209.5078,1089.8828 209.4531,1089.625 Q209.4297,1089.4453 209.3359,1089.3516 Q209.1719,1089.1641 208.8672,1089.0547 Q208.5625,1088.9453 208.25,1088.9453 Q207.8672,1088.9453 207.5469,1089.1094 Q207.2344,1089.2734 206.9844,1089.6484 Q206.7422,1090.0234 206.7422,1090.5391 L206.7422,1091.0859 Q206.7422,1091.7031 207.1875,1092.1172 Q207.6328,1092.5234 208.4297,1092.5234 Q208.8984,1092.5234 209.2266,1092.3984 Q209.4219,1092.3203 209.6328,1092.1016 Q209.7656,1091.9688 209.8359,1091.9297 Q209.9141,1091.8906 210.0156,1091.8906 Q210.1797,1091.8906 210.3047,1092.0234 Q210.4375,1092.1484 210.4375,1092.3203 Q210.4375,1092.4922 210.2656,1092.6953 Q210.0156,1092.9844 209.6172,1093.1484 Q209.0781,1093.375 208.4297,1093.375 Q207.6719,1093.375 207.0703,1093.0625 Q206.5781,1092.8125 206.2344,1092.2813 Q205.8906,1091.7422 205.8906,1091.1016 L205.8906,1090.5234 Q205.8906,1089.8594 206.1953,1089.2891 Q206.5078,1088.7109 207.0547,1088.4063 Q207.6016,1088.0938 208.2188,1088.0938 Q208.5859,1088.0938 208.9063,1088.1797 Q209.2344,1088.2578 209.5078,1088.4375 Z " fill="#000000"/><text fill="#000000" font-family="sans-serif" font-size="7" lengthAdjust="spacing" textLength="26.5" x="218.375" y="1093.3984">ZipCode</text><line style="stroke:#181818;stroke-width:0.25;" x1="185" x2="262" y1="1098.5" y2="1098.5"/><text fill="#000000" font-family="sans-serif" font-size="7" lengthAdjust="spacing" textLength="26.5" x="187.5" y="1108.0537">-int local</text><text fill="#000000" font-family="sans-serif" font-size="7" lengthAdjust="spacing" textLength="30" x="187.5" y="1117.3643">-int street</text><line style="stroke:#181818;stroke-width:0.25;" x1="185" x2="262" y1="1121.1211" y2="1121.1211"/><text fill="#000000" font-family="sans-serif" font-size="7" lengthAdjust="spacing" textLength="72" x="187.5" y="1130.6748">+ZipCode(local, street)</text><text fill="#000000" font-family="sans-serif" font-size="7" lengthAdjust="spacing" textLength="61" x="187.5" y="1139.9854">+ZipCode(zipCode)</text><text fill="#000000" font-family="sans-serif" font-size="7" lengthAdjust="spacing" textLength="36" x="187.5" y="1149.2959">+getLocal()</text><text fill="#000000" font-family="sans-serif" font-size="7" lengthAdjust="spacing" textLength="35.5" x="187.5" y="1158.6064">+setLocal()</text><text fill="#000000" font-family="sans-serif" font-size="7" lengthAdjust="spacing" textLength="38" x="187.5" y="1167.917">+getStreet()</text><text fill="#000000" font-family="sans-serif" font-size="7" lengthAdjust="spacing" textLength="37.5" x="187.5" y="1177.2275">+setStreet()</text></g><!--class TeamRepository--><g id="elem_TeamRepository"><rect codeLine="105" fill="#F1F1F1" height="70.5527" id="TeamRepository" rx="1.25" ry="1.25" style="stroke:#181818;stroke-width:0.25;" width="97" x="175" y="233"/><ellipse cx="195.55" cy="241" fill="#ADD1B2" rx="5.5" ry="5.5" style="stroke:#181818;stroke-width:0.5;"/><path d="M196.9328,238.9375 Q197.0109,238.8281 197.1047,238.7734 Q197.1984,238.7188 197.3078,238.7188 Q197.4953,238.7188 197.6125,238.8516 Q197.7297,238.9766 197.7297,239.2813 L197.7297,240.0078 Q197.7297,240.3125 197.6125,240.4453 Q197.4953,240.5781 197.3078,240.5781 Q197.1359,240.5781 197.0344,240.4766 Q196.9328,240.3828 196.8781,240.125 Q196.8547,239.9453 196.7609,239.8516 Q196.5969,239.6641 196.2922,239.5547 Q195.9875,239.4453 195.675,239.4453 Q195.2922,239.4453 194.9719,239.6094 Q194.6594,239.7734 194.4094,240.1484 Q194.1672,240.5234 194.1672,241.0391 L194.1672,241.5859 Q194.1672,242.2031 194.6125,242.6172 Q195.0578,243.0234 195.8547,243.0234 Q196.3234,243.0234 196.6516,242.8984 Q196.8469,242.8203 197.0578,242.6016 Q197.1906,242.4688 197.2609,242.4297 Q197.3391,242.3906 197.4406,242.3906 Q197.6047,242.3906 197.7297,242.5234 Q197.8625,242.6484 197.8625,242.8203 Q197.8625,242.9922 197.6906,243.1953 Q197.4406,243.4844 197.0422,243.6484 Q196.5031,243.875 195.8547,243.875 Q195.0969,243.875 194.4953,243.5625 Q194.0031,243.3125 193.6594,242.7813 Q193.3156,242.2422 193.3156,241.6016 L193.3156,241.0234 Q193.3156,240.3594 193.6203,239.7891 Q193.9328,239.2109 194.4797,238.9063 Q195.0266,238.5938 195.6438,238.5938 Q196.0109,238.5938 196.3313,238.6797 Q196.6594,238.7578 196.9328,238.9375 Z " fill="#000000"/><text fill="#000000" font-family="sans-serif" font-size="7" lengthAdjust="spacing" textLength="52" x="205.45" y="243.8984">TeamRepository</text><line style="stroke:#181818;stroke-width:0.25;" x1="175.5" x2="271.5" y1="249" y2="249"/><text fill="#000000" font-family="sans-serif" font-size="7" lengthAdjust="spacing" textLength="71.5" x="178" y="258.5537">-List&lt;Team&gt; teamsList</text><line style="stroke:#181818;stroke-width:0.25;" x1="175.5" x2="271.5" y1="262.3105" y2="262.3105"/><text fill="#000000" font-family="sans-serif" font-size="7" lengthAdjust="spacing" textLength="61" x="178" y="271.8643">+TeamRepository()</text><text fill="#000000" font-family="sans-serif" font-size="7" lengthAdjust="spacing" textLength="91" x="178" y="281.1748">+Optional&lt;Team&gt; add(team)</text><text fill="#000000" font-family="sans-serif" font-size="7" lengthAdjust="spacing" textLength="67" x="178" y="290.4854">+validateTeam(team)</text><text fill="#000000" font-family="sans-serif" font-size="7" lengthAdjust="spacing" textLength="37" x="178" y="299.7959">+getTeam()</text></g><!--class Team--><g id="elem_Team"><rect codeLine="113" fill="#F1F1F1" height="163.6582" id="Team" rx="1.25" ry="1.25" style="stroke:#181818;stroke-width:0.25;" width="167.5" x="139.75" y="343"/><ellipse cx="212.375" cy="351" fill="#ADD1B2" rx="5.5" ry="5.5" style="stroke:#181818;stroke-width:0.5;"/><path d="M213.7578,348.9375 Q213.8359,348.8281 213.9297,348.7734 Q214.0234,348.7188 214.1328,348.7188 Q214.3203,348.7188 214.4375,348.8516 Q214.5547,348.9766 214.5547,349.2813 L214.5547,350.0078 Q214.5547,350.3125 214.4375,350.4453 Q214.3203,350.5781 214.1328,350.5781 Q213.9609,350.5781 213.8594,350.4766 Q213.7578,350.3828 213.7031,350.125 Q213.6797,349.9453 213.5859,349.8516 Q213.4219,349.6641 213.1172,349.5547 Q212.8125,349.4453 212.5,349.4453 Q212.1172,349.4453 211.7969,349.6094 Q211.4844,349.7734 211.2344,350.1484 Q210.9922,350.5234 210.9922,351.0391 L210.9922,351.5859 Q210.9922,352.2031 211.4375,352.6172 Q211.8828,353.0234 212.6797,353.0234 Q213.1484,353.0234 213.4766,352.8984 Q213.6719,352.8203 213.8828,352.6016 Q214.0156,352.4688 214.0859,352.4297 Q214.1641,352.3906 214.2656,352.3906 Q214.4297,352.3906 214.5547,352.5234 Q214.6875,352.6484 214.6875,352.8203 Q214.6875,352.9922 214.5156,353.1953 Q214.2656,353.4844 213.8672,353.6484 Q213.3281,353.875 212.6797,353.875 Q211.9219,353.875 211.3203,353.5625 Q210.8281,353.3125 210.4844,352.7813 Q210.1406,352.2422 210.1406,351.6016 L210.1406,351.0234 Q210.1406,350.3594 210.4453,349.7891 Q210.7578,349.2109 211.3047,348.9063 Q211.8516,348.5938 212.4688,348.5938 Q212.8359,348.5938 213.1563,348.6797 Q213.4844,348.7578 213.7578,348.9375 Z " fill="#000000"/><text fill="#000000" font-family="sans-serif" font-size="7" lengthAdjust="spacing" textLength="18" x="222.625" y="353.8984">Team</text><line style="stroke:#181818;stroke-width:0.25;" x1="140.25" x2="306.75" y1="359" y2="359"/><text fill="#000000" font-family="sans-serif" font-size="7" lengthAdjust="spacing" textLength="40.5" x="142.75" y="368.5537">-String name</text><text fill="#000000" font-family="sans-serif" font-size="7" lengthAdjust="spacing" textLength="114.5" x="142.75" y="377.8643">-List&lt;Collaborator&gt; collaboratorsList</text><text fill="#000000" font-family="sans-serif" font-size="7" lengthAdjust="spacing" textLength="80.5" x="142.75" y="387.1748">-List&lt;Skill&gt; skillsSelected;</text><line style="stroke:#181818;stroke-width:0.25;" x1="140.25" x2="306.75" y1="390.9316" y2="390.9316"/><text fill="#000000" font-family="sans-serif" font-size="7" lengthAdjust="spacing" textLength="147" x="142.75" y="400.4854">+Team(name, collaboratorsList, skillsSelected)</text><text fill="#000000" font-family="sans-serif" font-size="7" lengthAdjust="spacing" textLength="37" x="142.75" y="409.7959">+getName()</text><text fill="#000000" font-family="sans-serif" font-size="7" lengthAdjust="spacing" textLength="54" x="142.75" y="419.1064">+setName(name)</text><text fill="#000000" font-family="sans-serif" font-size="7" lengthAdjust="spacing" textLength="72.5" x="142.75" y="428.417">+getCollaboratorsList()</text><text fill="#000000" font-family="sans-serif" font-size="7" lengthAdjust="spacing" textLength="124" x="142.75" y="437.7275">+setCollaboratorsList(collaboratorsList)</text><text fill="#000000" font-family="sans-serif" font-size="7" lengthAdjust="spacing" textLength="62.5" x="142.75" y="447.0381">+getSkillsSelected()</text><text fill="#000000" font-family="sans-serif" font-size="7" lengthAdjust="spacing" textLength="104.5" x="142.75" y="456.3486">+setSkillsSelected(skillsSelected)</text><text fill="#000000" font-family="sans-serif" font-size="7" lengthAdjust="spacing" textLength="97.5" x="142.75" y="465.6592">+addCollaborator(collaborator)</text><text fill="#000000" font-family="sans-serif" font-size="7" lengthAdjust="spacing" textLength="34" x="142.75" y="474.9697">+equals(o)</text><text fill="#000000" font-family="sans-serif" font-size="7" lengthAdjust="spacing" textLength="161.5" x="142.75" y="484.2803">+hashCode(name, collaboratorsList, skillsSelected)</text><text fill="#000000" font-family="sans-serif" font-size="7" lengthAdjust="spacing" textLength="33.5" x="142.75" y="493.5908">+toString()</text><text fill="#000000" font-family="sans-serif" font-size="7" lengthAdjust="spacing" textLength="26" x="142.75" y="502.9014">+clone()</text></g><!--link Repositories to Repositories--><g id="link_Repositories_Repositories"><path codeLine="132" d="M324.395,148.365 C334.525,149.475 341.75,152.77 341.75,158.25 C341.75,163.73 337.5072,166.6982 327.3772,167.8082 " fill="none" id="Repositories-to-Repositories" style="stroke:#181818;stroke-width:0.5;"/><polygon fill="#181818" points="324.395,168.135,329.0861,169.6329,326.8801,167.8627,328.6504,165.6567,324.395,168.135" style="stroke:#181818;stroke-width:0.5;"/><text fill="#000000" font-family="sans-serif" font-size="6.5" lengthAdjust="spacing" textLength="24.5" x="344.75" y="161.0142">instance</text></g><!--link GenerateTeamProposalUI to GenerateTeamProposalController--><g id="link_GenerateTeamProposalUI_GenerateTeamProposalController"><path codeLine="134" d="M101.635,43.5 C108.5,43.5 111.715,43.5 116.175,43.5 " fill="none" id="GenerateTeamProposalUI-to-GenerateTeamProposalController" style="stroke:#181818;stroke-width:0.5;stroke-dasharray:7.0,7.0;"/><polygon fill="#181818" points="119.175,43.5,114.675,41.5,116.675,43.5,114.675,45.5,119.175,43.5" style="stroke:#181818;stroke-width:0.5;"/></g><!--link Repositories to TeamRepository--><g id="link_Repositories_TeamRepository"><path codeLine="136" d="M257.54,193.54 C251.77,206.125 246.4999,217.6028 240.7299,230.1928 " fill="none" id="Repositories-to-TeamRepository" style="stroke:#181818;stroke-width:0.5;"/><polygon fill="#181818" points="239.48,232.92,243.173,229.6624,240.5216,230.6473,239.5367,227.9959,239.48,232.92" style="stroke:#181818;stroke-width:0.5;"/><text fill="#000000" font-family="sans-serif" font-size="6.5" lengthAdjust="spacing" textLength="3.5" x="237.4475" y="227.3573">1</text></g><!--link Repositories to CollaboratorsRepository--><g id="link_Repositories_CollaboratorsRepository"><path codeLine="137" d="M288.07,193.605 C305.97,236.435 334,303.5 334,303.5 C334,303.5 358.6661,351.1507 377.1261,386.8207 " fill="none" id="Repositories-to-CollaboratorsRepository" style="stroke:#181818;stroke-width:0.5;"/><polygon fill="#181818" points="378.505,389.485,378.2129,384.5692,377.356,387.2647,374.6605,386.4077,378.505,389.485" style="stroke:#181818;stroke-width:0.5;"/><text fill="#000000" font-family="sans-serif" font-size="6.5" lengthAdjust="spacing" textLength="3.5" x="372.9688" y="383.929">1</text></g><!--link Repositories to SkillsRepository--><g id="link_Repositories_SkillsRepository"><path codeLine="138" d="M310.6,193.575 C319.505,201.935 326.5,208.5 326.5,208.5 C326.5,208.5 336.0552,217.9372 349.1152,230.8322 " fill="none" id="Repositories-to-SkillsRepository" style="stroke:#181818;stroke-width:0.5;"/><polygon fill="#181818" points="351.25,232.94,349.4531,228.3551,349.471,231.1835,346.6427,231.2015,351.25,232.94" style="stroke:#181818;stroke-width:0.5;"/><text fill="#000000" font-family="sans-serif" font-size="6.5" lengthAdjust="spacing" textLength="3.5" x="343.9344" y="227.3793">1</text></g><!--link GenerateTeamProposalController to CollaboratorsRepository--><g id="link_GenerateTeamProposalController_CollaboratorsRepository"><path codeLine="140" d="M352.48,83.615 C391.78,103.325 431,123 431,123 C431,123 439,233 439,233 C439,233 439,303.5 439,303.5 C439,303.5 422.286,350.9852 409.731,386.6552 " fill="none" id="GenerateTeamProposalController-to-CollaboratorsRepository" style="stroke:#181818;stroke-width:0.5;stroke-dasharray:7.0,7.0;"/><polygon fill="#181818" points="408.735,389.485,412.1156,385.9043,409.565,387.1268,408.3425,384.5762,408.735,389.485" style="stroke:#181818;stroke-width:0.5;"/><text fill="#000000" font-family="sans-serif" font-size="6.5" lengthAdjust="spacing" textLength="69" x="438" y="216.0142">CollaboratorsRepository</text></g><!--link GenerateTeamProposalController to SkillsRepository--><g id="link_GenerateTeamProposalController_SkillsRepository"><path codeLine="141" d="M323.145,83.615 C347.845,103.325 372.5,123 372.5,123 C372.5,123 378.696,187.079 382.841,229.909 " fill="none" id="GenerateTeamProposalController-to-SkillsRepository" style="stroke:#181818;stroke-width:0.5;stroke-dasharray:7.0,7.0;"/><polygon fill="#181818" points="383.13,232.895,384.6872,228.2233,382.8892,230.4066,380.7058,228.6086,383.13,232.895" style="stroke:#181818;stroke-width:0.5;"/><text fill="#000000" font-family="sans-serif" font-size="6.5" lengthAdjust="spacing" textLength="47" x="379.5" y="161.0142">SkillsRepository</text></g><!--link GenerateTeamProposalController to TeamRepository--><g id="link_GenerateTeamProposalController_TeamRepository"><path codeLine="142" d="M219.595,83.615 C192.77,103.325 166,123 166,123 C166,123 166,193.5 166,193.5 C166,193.5 179.6832,211.1681 194.5982,230.4281 " fill="none" id="GenerateTeamProposalController-to-TeamRepository" style="stroke:#181818;stroke-width:0.5;stroke-dasharray:7.0,7.0;"/><polygon fill="#181818" points="196.435,232.8,195.261,228.0176,194.9043,230.8234,192.0985,230.4667,196.435,232.8" style="stroke:#181818;stroke-width:0.5;"/><text fill="#000000" font-family="sans-serif" font-size="6.5" lengthAdjust="spacing" textLength="47" x="166.5" y="161.0142">TeamRepository</text></g><!--link GenerateTeamProposalController to Repositories--><g id="link_GenerateTeamProposalController_Repositories"><path codeLine="143" d="M273.5,83.625 C273.5,96.385 273.5,107.425 273.5,119.82 " fill="none" id="GenerateTeamProposalController-to-Repositories" style="stroke:#181818;stroke-width:0.5;stroke-dasharray:7.0,7.0;"/><polygon fill="#181818" points="273.5,122.82,275.5,118.32,273.5,120.32,271.5,118.32,273.5,122.82" style="stroke:#181818;stroke-width:0.5;"/><text fill="#000000" font-family="sans-serif" font-size="6.5" lengthAdjust="spacing" textLength="33.5" x="274" y="106.0142">repositories</text></g><!--link GenerateTeamProposalController to Collaborator--><g id="link_GenerateTeamProposalController_Collaborator"><path codeLine="144" d="M208.095,83.61 C194.135,92.06 183.5,98.5 183.5,98.5 C183.5,98.5 113,157.75 113,157.75 C113,157.75 113,157.75 113,425.25 C113,425.25 131,506.5 131,506.5 C131,506.5 136.6259,519.7822 146.5259,543.1772 " fill="none" id="GenerateTeamProposalController-to-Collaborator" style="stroke:#181818;stroke-width:0.5;stroke-dasharray:7.0,7.0;"/><polygon fill="#181818" points="147.695,545.94,147.7832,541.0164,146.7207,543.6377,144.0994,542.5752,147.695,545.94" style="stroke:#181818;stroke-width:0.5;"/><text fill="#000000" font-family="sans-serif" font-size="6.5" lengthAdjust="spacing" textLength="34.5" x="113.5" y="271.0142">Collaborator</text><text fill="#000000" font-family="sans-serif" font-size="6.5" lengthAdjust="spacing" textLength="3.5" x="142.3773" y="540.1457">1</text></g><!--link TeamRepository to Team--><g id="link_TeamRepository_Team"><path codeLine="146" d="M223.5,303.645 C223.5,315.42 223.5,326.105 223.5,339.935 " fill="none" id="TeamRepository-to-Team" style="stroke:#181818;stroke-width:0.5;"/><polygon fill="#181818" points="223.5,342.935,225.5,338.435,223.5,340.435,221.5,338.435,223.5,342.935" style="stroke:#181818;stroke-width:0.5;"/><text fill="#000000" font-family="sans-serif" font-size="6.5" lengthAdjust="spacing" textLength="18" x="224" y="326.0142">teams</text><text fill="#000000" font-family="sans-serif" font-size="6.5" lengthAdjust="spacing" textLength="2.5" x="220.9395" y="337.2801">*</text></g><!--reverse link Team to Collaborator--><g id="link_Team_Collaborator"><path codeLine="147" d="M223.5,512.565 C223.5,525.045 223.5,532.34 223.5,545.965 " fill="none" id="Team-backto-Collaborator" style="stroke:#181818;stroke-width:0.5;"/><polygon fill="none" points="223.5,506.565,221.5,509.565,223.5,512.565,225.5,509.565,223.5,506.565" style="stroke:#181818;stroke-width:0.5;"/><text fill="#000000" font-family="sans-serif" font-size="6.5" lengthAdjust="spacing" textLength="10.5" x="224" y="529.0142">has</text><text fill="#000000" font-family="sans-serif" font-size="6.5" lengthAdjust="spacing" textLength="2.5" x="220.9707" y="540.1713">*</text></g><!--link CollaboratorsRepository to Collaborator--><g id="link_CollaboratorsRepository_Collaborator"><path codeLine="149" d="M376.4,460.075 C363.535,482.365 347.2494,510.5816 328.3544,543.3266 " fill="none" id="CollaboratorsRepository-to-Collaborator" style="stroke:#181818;stroke-width:0.5;"/><polygon fill="#181818" points="326.855,545.925,330.8364,543.0269,328.1045,543.7596,327.3718,541.0278,326.855,545.925" style="stroke:#181818;stroke-width:0.5;"/><text fill="#000000" font-family="sans-serif" font-size="6.5" lengthAdjust="spacing" textLength="2.5" x="326.7481" y="540.1304">*</text></g><!--reverse link Collaborator to Address--><g id="link_Collaborator_Address"><path codeLine="151" d="M223.5,911 C223.5,925.17 223.5,932.565 223.5,944.435 " fill="none" id="Collaborator-backto-Address" style="stroke:#181818;stroke-width:0.5;"/><polygon fill="#181818" points="223.5,905,221.5,908,223.5,911,225.5,908,223.5,905" style="stroke:#181818;stroke-width:0.5;"/><text fill="#000000" font-family="sans-serif" font-size="6.5" lengthAdjust="spacing" textLength="15" x="224" y="927.5142">owns</text><text fill="#000000" font-family="sans-serif" font-size="6.5" lengthAdjust="spacing" textLength="3.5" x="219.866" y="938.8543">1</text></g><!--reverse link Address to ZipCode--><g id="link_Address_ZipCode"><path codeLine="152" d="M223.5,1049.13 C223.5,1061.885 223.5,1069.635 223.5,1082.39 " fill="none" id="Address-backto-ZipCode" style="stroke:#181818;stroke-width:0.5;"/><polygon fill="#181818" points="223.5,1043.13,221.5,1046.13,223.5,1049.13,225.5,1046.13,223.5,1043.13" style="stroke:#181818;stroke-width:0.5;"/><text fill="#000000" font-family="sans-serif" font-size="6.5" lengthAdjust="spacing" textLength="15" x="224" y="1065.5142">owns</text><text fill="#000000" font-family="sans-serif" font-size="6.5" lengthAdjust="spacing" textLength="3.5" x="219.866" y="1076.8058">1</text></g><!--SRC=[hLR1Rjim3BtxAuIUciufjcis1EZIOGXGTCMoNNfJRIuHgaYUfBP8X_tx95jIADbEKc0zr37vI3vI8cdzo4H35TsIXbQFT0qhi-D055I6YZM7GaU0tj1QlZ2n9hyerrZ3cG2pQu0qak_SIu6K5QTQNncZsCEJWMKbnOgz0dbV54Mh8bz1WA86VW3TtYdPI4tvpoNvK_mzX5X8OPJa79H54lit9JTCcq-hHyRvd6Ztq2lWDX6eMy2x8txEMrFz7QoS6Qbs9LbO1NsGraQgHE4yxDydtlyQJEV3CJb7qiJF8UMmkOjctsCzi4NCVcKhRCz6q2ruoRLDbLYOS3-mZDPR96B2a6OZ1Tm-RHz0fUvWInb7G5OlgAeJGMBMFmEV1kPyxaYMaLeP29MOHzd5Bdt8CaQQ_7UFfQSwwBcrGOTnQoF5mz7-tOL7cC-U1yP5MI29y5STMmmF8fz80guLQ9s2En7jdWXyjqyV6s0ngX0o_EBInYQT8A_6iYqbndb9L-C4YIwAHte6-Sd6Fi9-lIGzAVZzH17CoExQHi66wir2re050ubKt9OWOfubg-q5gjk8NS14fM0hdo7HnjQCGu61Zgs9XRYlbqBRALlPo6IMWF8wx4VDw5GPXgHpQco68EDqc6BGd5Jv51je5yoZXm_4lZM6IK5vvj-MFB6PU2hFbBFQza3IbdtWwAIDEUV5FB0vK7gZHn3Jy9QEFxejU-835obV5P6ZR-L8pStOMagLJDbxrhXRJLwxf_SPfi0UNWR498Fq1yLrDC9DDo2rM1yU0_UYc4aWYJFXig9udMYZ04AXWuyML7hT95Dc2LasDmwEkQG2L-dMKp9CWYIoJJiblHbEDoV6_iVtejTRsQtehDobS9PnWlWxqUvqh1ZOy-xzm7u_kKKFVHfzHDduBTfpKcOsRzo6ury_UaWvEZPYpmGU_VKGDSE4xM4S7I9-fSZU2dbZSNgxA2mPUxn5iYQcytHjp6nhT8kXA4O-ZY_dHpvcyn0snjc7i-pE3cD6nlamE1-EmupHn_hbfUK-4c8s6liKfpcLMP_SAMwoGJ3BQtRCH-ym5Lxifp383u6aTIcAZ69x5XVTuLfiEwTQ397JQQl9lDahNHHZ7m31MneoyN3Xt5gIOLVDY7mHkWYlGHqMW5V_0m00]--></g></svg>