<?xml version="1.0" encoding="us-ascii" standalone="no"?><svg xmlns="http://www.w3.org/2000/svg" xmlns:xlink="http://www.w3.org/1999/xlink" contentStyleType="text/css" height="1521.6px" preserveAspectRatio="none" style="width:613px;height:1521px;background:#FFFFFF;" version="1.1" viewBox="0 0 613 1521" width="613.2px" zoomAndPan="magnify"><defs/><g><!--class GenerateTeamProposalUI--><g id="elem_GenerateTeamProposalUI"><rect codeLine="8" fill="#F1F1F1" height="28.8" id="GenerateTeamProposalUI" rx="1.5" ry="1.5" style="stroke:#181818;stroke-width:0.3;" width="117.6" x="4.2" y="37.8"/><ellipse cx="13.2" cy="47.4" fill="#ADD1B2" rx="6.6" ry="6.6" style="stroke:#181818;stroke-width:0.6;"/><path d="M14.8594,44.925 Q14.9531,44.7937 15.0656,44.7281 Q15.1781,44.6625 15.3094,44.6625 Q15.5344,44.6625 15.675,44.8219 Q15.8156,44.9719 15.8156,45.3375 L15.8156,46.2094 Q15.8156,46.575 15.675,46.7344 Q15.5344,46.8938 15.3094,46.8938 Q15.1031,46.8938 14.9813,46.7719 Q14.8594,46.6594 14.7938,46.35 Q14.7656,46.1344 14.6531,46.0219 Q14.4562,45.7969 14.0906,45.6656 Q13.725,45.5344 13.35,45.5344 Q12.8906,45.5344 12.5063,45.7312 Q12.1313,45.9281 11.8312,46.3781 Q11.5406,46.8281 11.5406,47.4469 L11.5406,48.1031 Q11.5406,48.8438 12.075,49.3406 Q12.6094,49.8281 13.5656,49.8281 Q14.1281,49.8281 14.5219,49.6781 Q14.7563,49.5844 15.0094,49.3219 Q15.1688,49.1625 15.2531,49.1156 Q15.3469,49.0688 15.4688,49.0688 Q15.6656,49.0688 15.8156,49.2281 Q15.975,49.3781 15.975,49.5844 Q15.975,49.7906 15.7687,50.0344 Q15.4688,50.3813 14.9906,50.5781 Q14.3438,50.85 13.5656,50.85 Q12.6563,50.85 11.9344,50.475 Q11.3438,50.175 10.9313,49.5375 Q10.5187,48.8906 10.5187,48.1219 L10.5187,47.4281 Q10.5187,46.6313 10.8844,45.9469 Q11.2594,45.2531 11.9156,44.8875 Q12.5719,44.5125 13.3125,44.5125 Q13.7531,44.5125 14.1375,44.6156 Q14.5313,44.7094 14.8594,44.925 Z " fill="#000000"/><text fill="#000000" font-family="sans-serif" font-size="8.4" lengthAdjust="spacing" textLength="98.4" x="21.6" y="50.8781">GenerateTeamProposalUI</text><line style="stroke:#181818;stroke-width:0.3;" x1="4.8" x2="121.2" y1="57" y2="57"/><line style="stroke:#181818;stroke-width:0.3;" x1="4.8" x2="121.2" y1="61.8" y2="61.8"/></g><!--class GenerateTeamProposalController--><g id="elem_GenerateTeamProposalController"><rect codeLine="11" fill="#F1F1F1" height="95.8359" id="GenerateTeamProposalController" rx="1.5" ry="1.5" style="stroke:#181818;stroke-width:0.3;" width="370.2" x="143.1" y="4.2"/><ellipse cx="261.45" cy="13.8" fill="#ADD1B2" rx="6.6" ry="6.6" style="stroke:#181818;stroke-width:0.6;"/><path d="M263.1094,11.325 Q263.2031,11.1938 263.3156,11.1281 Q263.4281,11.0625 263.5594,11.0625 Q263.7844,11.0625 263.925,11.2219 Q264.0656,11.3719 264.0656,11.7375 L264.0656,12.6094 Q264.0656,12.975 263.925,13.1344 Q263.7844,13.2938 263.5594,13.2938 Q263.3531,13.2938 263.2313,13.1719 Q263.1094,13.0594 263.0438,12.75 Q263.0156,12.5344 262.9031,12.4219 Q262.7063,12.1969 262.3406,12.0656 Q261.975,11.9344 261.6,11.9344 Q261.1406,11.9344 260.7562,12.1313 Q260.3812,12.3281 260.0813,12.7781 Q259.7906,13.2281 259.7906,13.8469 L259.7906,14.5031 Q259.7906,15.2437 260.325,15.7406 Q260.8594,16.2281 261.8156,16.2281 Q262.3781,16.2281 262.7719,16.0781 Q263.0062,15.9844 263.2594,15.7219 Q263.4188,15.5625 263.5031,15.5156 Q263.5969,15.4688 263.7188,15.4688 Q263.9156,15.4688 264.0656,15.6281 Q264.225,15.7781 264.225,15.9844 Q264.225,16.1906 264.0188,16.4344 Q263.7188,16.7813 263.2406,16.9781 Q262.5938,17.25 261.8156,17.25 Q260.9063,17.25 260.1844,16.875 Q259.5938,16.575 259.1813,15.9375 Q258.7688,15.2906 258.7688,14.5219 L258.7688,13.8281 Q258.7688,13.0313 259.1344,12.3469 Q259.5094,11.6531 260.1656,11.2875 Q260.8219,10.9125 261.5625,10.9125 Q262.0031,10.9125 262.3875,11.0156 Q262.7813,11.1094 263.1094,11.325 Z " fill="#000000"/><text fill="#000000" font-family="sans-serif" font-size="8.4" lengthAdjust="spacing" textLength="128.4" x="273.75" y="17.2781">GenerateTeamProposalController</text><line style="stroke:#181818;stroke-width:0.3;" x1="143.7" x2="512.7" y1="23.4" y2="23.4"/><text fill="#000000" font-family="sans-serif" font-size="8.4" lengthAdjust="spacing" textLength="94.2" x="146.7" y="34.8645">-List&lt;Skill&gt; skillsSelected</text><line style="stroke:#181818;stroke-width:0.3;" x1="143.7" x2="512.7" y1="39.3727" y2="39.3727"/><text fill="#000000" font-family="sans-serif" font-size="8.4" lengthAdjust="spacing" textLength="363" x="146.7" y="50.8371">+GenerateTeamProposalController(SkillsRepository, CollaboratorsRepository, TeamRepository)</text><text fill="#000000" font-family="sans-serif" font-size="8.4" lengthAdjust="spacing" textLength="55.2" x="146.7" y="62.0098">+getSkillsList()</text><text fill="#000000" font-family="sans-serif" font-size="8.4" lengthAdjust="spacing" textLength="87" x="146.7" y="73.1824">+getCollaboratorsList()</text><text fill="#000000" font-family="sans-serif" font-size="8.4" lengthAdjust="spacing" textLength="102" x="146.7" y="84.3551">+getCollaboratorSkillsList()</text><text fill="#000000" font-family="sans-serif" font-size="8.4" lengthAdjust="spacing" textLength="44.4" x="146.7" y="95.5277">+getTeam()</text></g><!--class Collaborator--><g id="elem_Collaborator"><rect codeLine="20" fill="#F1F1F1" height="431.0156" id="Collaborator" rx="1.5" ry="1.5" style="stroke:#181818;stroke-width:0.3;" width="341.4" x="97.5" y="756"/><ellipse cx="242.25" cy="765.6" fill="#ADD1B2" rx="6.6" ry="6.6" style="stroke:#181818;stroke-width:0.6;"/><path d="M243.9094,763.125 Q244.0031,762.9938 244.1156,762.9281 Q244.2281,762.8625 244.3594,762.8625 Q244.5844,762.8625 244.725,763.0219 Q244.8656,763.1719 244.8656,763.5375 L244.8656,764.4094 Q244.8656,764.775 244.725,764.9344 Q244.5844,765.0938 244.3594,765.0938 Q244.1531,765.0938 244.0313,764.9719 Q243.9094,764.8594 243.8438,764.55 Q243.8156,764.3344 243.7031,764.2219 Q243.5063,763.9969 243.1406,763.8656 Q242.775,763.7344 242.4,763.7344 Q241.9406,763.7344 241.5562,763.9313 Q241.1812,764.1281 240.8813,764.5781 Q240.5906,765.0281 240.5906,765.6469 L240.5906,766.3031 Q240.5906,767.0437 241.125,767.5406 Q241.6594,768.0281 242.6156,768.0281 Q243.1781,768.0281 243.5719,767.8781 Q243.8062,767.7844 244.0594,767.5219 Q244.2188,767.3625 244.3031,767.3156 Q244.3969,767.2688 244.5187,767.2688 Q244.7156,767.2688 244.8656,767.4281 Q245.025,767.5781 245.025,767.7844 Q245.025,767.9906 244.8188,768.2344 Q244.5187,768.5813 244.0406,768.7781 Q243.3937,769.05 242.6156,769.05 Q241.7062,769.05 240.9844,768.675 Q240.3937,768.375 239.9813,767.7375 Q239.5688,767.0906 239.5688,766.3219 L239.5688,765.6281 Q239.5688,764.8313 239.9344,764.1469 Q240.3094,763.4531 240.9656,763.0875 Q241.6219,762.7125 242.3625,762.7125 Q242.8031,762.7125 243.1875,762.8156 Q243.5812,762.9094 243.9094,763.125 Z " fill="#000000"/><text fill="#000000" font-family="sans-serif" font-size="8.4" lengthAdjust="spacing" textLength="46.8" x="254.55" y="769.0781">Collaborator</text><line style="stroke:#181818;stroke-width:0.3;" x1="98.1" x2="438.3" y1="775.2" y2="775.2"/><text fill="#000000" font-family="sans-serif" font-size="8.4" lengthAdjust="spacing" textLength="48.6" x="101.1" y="786.6645">-String name</text><text fill="#000000" font-family="sans-serif" font-size="8.4" lengthAdjust="spacing" textLength="58.8" x="101.1" y="797.8371">-Date bornDate</text><text fill="#000000" font-family="sans-serif" font-size="8.4" lengthAdjust="spacing" textLength="57.6" x="101.1" y="809.0098">-Date admDate</text><text fill="#000000" font-family="sans-serif" font-size="8.4" lengthAdjust="spacing" textLength="67.8" x="101.1" y="820.1824">-int phoneNumber</text><text fill="#000000" font-family="sans-serif" font-size="8.4" lengthAdjust="spacing" textLength="47.4" x="101.1" y="831.3551">-String email</text><text fill="#000000" font-family="sans-serif" font-size="8.4" lengthAdjust="spacing" textLength="39.6" x="101.1" y="842.5277">-int idCard</text><text fill="#000000" font-family="sans-serif" font-size="8.4" lengthAdjust="spacing" textLength="50.4" x="101.1" y="853.7004">-int idNumber</text><text fill="#000000" font-family="sans-serif" font-size="8.4" lengthAdjust="spacing" textLength="61.2" x="101.1" y="864.873">-List&lt;Skill&gt; skills</text><text fill="#000000" font-family="sans-serif" font-size="8.4" lengthAdjust="spacing" textLength="52.8" x="101.1" y="876.0457">+getIdNumber</text><line style="stroke:#181818;stroke-width:0.3;" x1="98.1" x2="438.3" y1="880.5539" y2="880.5539"/><text fill="#000000" font-family="sans-serif" font-size="8.4" lengthAdjust="spacing" textLength="311.4" x="101.1" y="892.0184">+Collaborator(name, bornDate, admDate, phoneNumber, email, idCard, idNumber)</text><text fill="#000000" font-family="sans-serif" font-size="8.4" lengthAdjust="spacing" textLength="334.2" x="101.1" y="903.191">+Collaborator(name, bornDate, admDate, phoneNumber, email, idCard, idNumber, skills)</text><text fill="#000000" font-family="sans-serif" font-size="8.4" lengthAdjust="spacing" textLength="77.4" x="101.1" y="914.3637">+Collaborator(email)</text><text fill="#000000" font-family="sans-serif" font-size="8.4" lengthAdjust="spacing" textLength="44.4" x="101.1" y="925.5363">+getName()</text><text fill="#000000" font-family="sans-serif" font-size="8.4" lengthAdjust="spacing" textLength="64.8" x="101.1" y="936.709">+setName(name)</text><text fill="#000000" font-family="sans-serif" font-size="8.4" lengthAdjust="spacing" textLength="58.8" x="101.1" y="947.8816">+getBornDate()</text><text fill="#000000" font-family="sans-serif" font-size="8.4" lengthAdjust="spacing" textLength="93.6" x="101.1" y="959.0543">+setBornDate(bornDate)</text><text fill="#000000" font-family="sans-serif" font-size="8.4" lengthAdjust="spacing" textLength="57.6" x="101.1" y="970.227">+getAdmDate()</text><text fill="#000000" font-family="sans-serif" font-size="8.4" lengthAdjust="spacing" textLength="91.2" x="101.1" y="981.3996">+setAdmDate(admDate)</text><text fill="#000000" font-family="sans-serif" font-size="8.4" lengthAdjust="spacing" textLength="54" x="101.1" y="992.5723">+getAddress()</text><text fill="#000000" font-family="sans-serif" font-size="8.4" lengthAdjust="spacing" textLength="84" x="101.1" y="1003.7449">+setAddress(address)</text><text fill="#000000" font-family="sans-serif" font-size="8.4" lengthAdjust="spacing" textLength="76.8" x="101.1" y="1014.9176">+getPhoneNumber()</text><text fill="#000000" font-family="sans-serif" font-size="8.4" lengthAdjust="spacing" textLength="129.6" x="101.1" y="1026.0902">+setPhoneNumber(phoneNumber)</text><text fill="#000000" font-family="sans-serif" font-size="8.4" lengthAdjust="spacing" textLength="43.2" x="101.1" y="1037.2629">+getEmail()</text><text fill="#000000" font-family="sans-serif" font-size="8.4" lengthAdjust="spacing" textLength="62.4" x="101.1" y="1048.4355">+setEmail(email)</text><text fill="#000000" font-family="sans-serif" font-size="8.4" lengthAdjust="spacing" textLength="48" x="101.1" y="1059.6082">+getIdCard()</text><text fill="#000000" font-family="sans-serif" font-size="8.4" lengthAdjust="spacing" textLength="72.6" x="101.1" y="1070.7809">+setIdCard(idCard)</text><text fill="#000000" font-family="sans-serif" font-size="8.4" lengthAdjust="spacing" textLength="94.2" x="101.1" y="1081.9535">+setIdNumber(idNumber)</text><text fill="#000000" font-family="sans-serif" font-size="8.4" lengthAdjust="spacing" textLength="42" x="101.1" y="1093.1262">+getSkills()</text><text fill="#000000" font-family="sans-serif" font-size="8.4" lengthAdjust="spacing" textLength="59.4" x="101.1" y="1104.2988">+setSkills(skills)</text><text fill="#000000" font-family="sans-serif" font-size="8.4" lengthAdjust="spacing" textLength="36" x="101.1" y="1115.4715">+equals()</text><text fill="#000000" font-family="sans-serif" font-size="8.4" lengthAdjust="spacing" textLength="40.2" x="101.1" y="1126.6441">+toString()</text><text fill="#000000" font-family="sans-serif" font-size="8.4" lengthAdjust="spacing" textLength="49.8" x="101.1" y="1137.8168">+hashCode()</text><text fill="#000000" font-family="sans-serif" font-size="8.4" lengthAdjust="spacing" textLength="64.8" x="101.1" y="1148.9895">+hasEmail(email)</text><text fill="#000000" font-family="sans-serif" font-size="8.4" lengthAdjust="spacing" textLength="31.2" x="101.1" y="1160.1621">+clone()</text><text fill="#000000" font-family="sans-serif" font-size="8.4" lengthAdjust="spacing" textLength="54" x="101.1" y="1171.3348">+addSkill(skill)</text><text fill="#000000" font-family="sans-serif" font-size="8.4" lengthAdjust="spacing" textLength="67.8" x="101.1" y="1182.5074">+removeSkill(skill)</text></g><!--class Repositories--><g id="elem_Repositories"><rect codeLine="59" fill="#F1F1F1" height="84.6633" id="Repositories" rx="1.5" ry="1.5" style="stroke:#181818;stroke-width:0.3;" width="121.8" x="267.3" y="147.6"/><ellipse cx="301.95" cy="157.2" fill="#ADD1B2" rx="6.6" ry="6.6" style="stroke:#181818;stroke-width:0.6;"/><path d="M303.6094,154.725 Q303.7031,154.5938 303.8156,154.5281 Q303.9281,154.4625 304.0594,154.4625 Q304.2844,154.4625 304.425,154.6219 Q304.5656,154.7719 304.5656,155.1375 L304.5656,156.0094 Q304.5656,156.375 304.425,156.5344 Q304.2844,156.6938 304.0594,156.6938 Q303.8531,156.6938 303.7313,156.5719 Q303.6094,156.4594 303.5438,156.15 Q303.5156,155.9344 303.4031,155.8219 Q303.2063,155.5969 302.8406,155.4656 Q302.475,155.3344 302.1,155.3344 Q301.6406,155.3344 301.2562,155.5313 Q300.8812,155.7281 300.5813,156.1781 Q300.2906,156.6281 300.2906,157.2469 L300.2906,157.9031 Q300.2906,158.6437 300.825,159.1406 Q301.3594,159.6281 302.3156,159.6281 Q302.8781,159.6281 303.2719,159.4781 Q303.5062,159.3844 303.7594,159.1219 Q303.9188,158.9625 304.0031,158.9156 Q304.0969,158.8688 304.2188,158.8688 Q304.4156,158.8688 304.5656,159.0281 Q304.725,159.1781 304.725,159.3844 Q304.725,159.5906 304.5188,159.8344 Q304.2188,160.1813 303.7406,160.3781 Q303.0938,160.65 302.3156,160.65 Q301.4063,160.65 300.6844,160.275 Q300.0938,159.975 299.6813,159.3375 Q299.2688,158.6906 299.2688,157.9219 L299.2688,157.2281 Q299.2688,156.4313 299.6344,155.7469 Q300.0094,155.0531 300.6656,154.6875 Q301.3219,154.3125 302.0625,154.3125 Q302.5031,154.3125 302.8875,154.4156 Q303.2813,154.5094 303.6094,154.725 Z " fill="#000000"/><text fill="#000000" font-family="sans-serif" font-size="8.4" lengthAdjust="spacing" textLength="47.4" x="314.25" y="160.6781">Repositories</text><line style="stroke:#181818;stroke-width:0.3;" x1="267.9" x2="388.5" y1="166.8" y2="166.8"/><line style="stroke:#181818;stroke-width:0.3;" x1="267.9" x2="388.5" y1="171.6" y2="171.6"/><text fill="#000000" font-family="sans-serif" font-size="8.4" lengthAdjust="spacing" textLength="56.4" x="270.9" y="183.0645">-Repositories()</text><text fill="#000000" font-family="sans-serif" font-size="8.4" lengthAdjust="spacing" textLength="109.2" x="270.9" y="194.2371">+getInstance() : Repositories</text><text fill="#000000" font-family="sans-serif" font-size="8.4" lengthAdjust="spacing" textLength="82.8" x="270.9" y="205.4098">+getSkillsRepository()</text><text fill="#000000" font-family="sans-serif" font-size="8.4" lengthAdjust="spacing" textLength="114.6" x="270.9" y="216.5824">+getCollaboratorsRepository()</text><text fill="#000000" font-family="sans-serif" font-size="8.4" lengthAdjust="spacing" textLength="85.2" x="270.9" y="227.7551">+getTeamRepository()</text></g><!--class CollaboratorsRepository--><g id="elem_CollaboratorsRepository"><rect codeLine="67" fill="#F1F1F1" height="84.6633" id="CollaboratorsRepository" rx="1.5" ry="1.5" style="stroke:#181818;stroke-width:0.3;" width="172.2" x="389.7" y="517.8"/><ellipse cx="427.35" cy="527.4" fill="#ADD1B2" rx="6.6" ry="6.6" style="stroke:#181818;stroke-width:0.6;"/><path d="M429.0094,524.925 Q429.1031,524.7937 429.2156,524.7281 Q429.3281,524.6625 429.4594,524.6625 Q429.6844,524.6625 429.825,524.8219 Q429.9656,524.9719 429.9656,525.3375 L429.9656,526.2094 Q429.9656,526.575 429.825,526.7344 Q429.6844,526.8938 429.4594,526.8938 Q429.2531,526.8938 429.1312,526.7719 Q429.0094,526.6594 428.9437,526.35 Q428.9156,526.1344 428.8031,526.0219 Q428.6063,525.7969 428.2406,525.6656 Q427.875,525.5344 427.5,525.5344 Q427.0406,525.5344 426.6563,525.7312 Q426.2813,525.9281 425.9813,526.3781 Q425.6906,526.8281 425.6906,527.4469 L425.6906,528.1031 Q425.6906,528.8438 426.225,529.3406 Q426.7594,529.8281 427.7156,529.8281 Q428.2781,529.8281 428.6719,529.6781 Q428.9063,529.5844 429.1594,529.3219 Q429.3187,529.1625 429.4031,529.1156 Q429.4969,529.0688 429.6188,529.0688 Q429.8156,529.0688 429.9656,529.2281 Q430.125,529.3781 430.125,529.5844 Q430.125,529.7906 429.9188,530.0344 Q429.6188,530.3813 429.1406,530.5781 Q428.4938,530.85 427.7156,530.85 Q426.8063,530.85 426.0844,530.475 Q425.4938,530.175 425.0813,529.5375 Q424.6688,528.8906 424.6688,528.1219 L424.6688,527.4281 Q424.6688,526.6313 425.0344,525.9469 Q425.4094,525.2531 426.0656,524.8875 Q426.7219,524.5125 427.4625,524.5125 Q427.9031,524.5125 428.2875,524.6156 Q428.6813,524.7094 429.0094,524.925 Z " fill="#000000"/><text fill="#000000" font-family="sans-serif" font-size="8.4" lengthAdjust="spacing" textLength="91.8" x="439.65" y="530.8781">CollaboratorsRepository</text><line style="stroke:#181818;stroke-width:0.3;" x1="390.3" x2="561.3" y1="537" y2="537"/><text fill="#000000" font-family="sans-serif" font-size="8.4" lengthAdjust="spacing" textLength="137.4" x="393.3" y="548.4645">-List&lt;Collaborator&gt; collaboratorsList</text><line style="stroke:#181818;stroke-width:0.3;" x1="390.3" x2="561.3" y1="552.9727" y2="552.9727"/><text fill="#000000" font-family="sans-serif" font-size="8.4" lengthAdjust="spacing" textLength="165" x="393.3" y="564.4371">+CollaboratorsRepository(collaboratorsList)</text><text fill="#000000" font-family="sans-serif" font-size="8.4" lengthAdjust="spacing" textLength="160.8" x="393.3" y="575.6098">+Optional&lt;Collaborator&gt; add(collaborator)</text><text fill="#000000" font-family="sans-serif" font-size="8.4" lengthAdjust="spacing" textLength="130.2" x="393.3" y="586.7824">-validateCollaborator(collaborator)</text><text fill="#000000" font-family="sans-serif" font-size="8.4" lengthAdjust="spacing" textLength="87" x="393.3" y="597.9551">+getCollaboratorsList()</text></g><!--class SkillsRepository--><g id="elem_SkillsRepository"><rect codeLine="75" fill="#F1F1F1" height="84.6633" id="SkillsRepository" rx="1.5" ry="1.5" style="stroke:#181818;stroke-width:0.3;" width="105" x="411.3" y="279.6"/><ellipse cx="431.91" cy="289.2" fill="#ADD1B2" rx="6.6" ry="6.6" style="stroke:#181818;stroke-width:0.6;"/><path d="M433.5694,286.725 Q433.6631,286.5938 433.7756,286.5281 Q433.8881,286.4625 434.0194,286.4625 Q434.2444,286.4625 434.385,286.6219 Q434.5256,286.7719 434.5256,287.1375 L434.5256,288.0094 Q434.5256,288.375 434.385,288.5344 Q434.2444,288.6937 434.0194,288.6937 Q433.8131,288.6937 433.6913,288.5719 Q433.5694,288.4594 433.5038,288.15 Q433.4756,287.9344 433.3631,287.8219 Q433.1663,287.5969 432.8006,287.4656 Q432.435,287.3344 432.06,287.3344 Q431.6006,287.3344 431.2163,287.5313 Q430.8413,287.7281 430.5413,288.1781 Q430.2506,288.6281 430.2506,289.2469 L430.2506,289.9031 Q430.2506,290.6438 430.785,291.1406 Q431.3194,291.6281 432.2756,291.6281 Q432.8381,291.6281 433.2319,291.4781 Q433.4663,291.3844 433.7194,291.1219 Q433.8788,290.9625 433.9631,290.9156 Q434.0569,290.8688 434.1788,290.8688 Q434.3756,290.8688 434.5256,291.0281 Q434.685,291.1781 434.685,291.3844 Q434.685,291.5906 434.4788,291.8344 Q434.1788,292.1813 433.7006,292.3781 Q433.0538,292.65 432.2756,292.65 Q431.3663,292.65 430.6444,292.275 Q430.0538,291.975 429.6413,291.3375 Q429.2288,290.6906 429.2288,289.9219 L429.2288,289.2281 Q429.2288,288.4313 429.5944,287.7469 Q429.9694,287.0531 430.6256,286.6875 Q431.2819,286.3125 432.0225,286.3125 Q432.4631,286.3125 432.8475,286.4156 Q433.2413,286.5094 433.5694,286.725 Z " fill="#000000"/><text fill="#000000" font-family="sans-serif" font-size="8.4" lengthAdjust="spacing" textLength="60" x="442.89" y="292.6781">SkillsRepository</text><line style="stroke:#181818;stroke-width:0.3;" x1="411.9" x2="515.7" y1="298.8" y2="298.8"/><text fill="#000000" font-family="sans-serif" font-size="8.4" lengthAdjust="spacing" textLength="74.4" x="414.9" y="310.2645">-List&lt;Skill&gt; skillsList</text><line style="stroke:#181818;stroke-width:0.3;" x1="411.9" x2="515.7" y1="314.7727" y2="314.7727"/><text fill="#000000" font-family="sans-serif" font-size="8.4" lengthAdjust="spacing" textLength="70.8" x="414.9" y="326.2371">+SkillsRepository()</text><text fill="#000000" font-family="sans-serif" font-size="8.4" lengthAdjust="spacing" textLength="97.8" x="414.9" y="337.4098">+Optional&lt;Skill&gt; add(skill)</text><text fill="#000000" font-family="sans-serif" font-size="8.4" lengthAdjust="spacing" textLength="67.2" x="414.9" y="348.5824">-validateSkill(skill)</text><text fill="#000000" font-family="sans-serif" font-size="8.4" lengthAdjust="spacing" textLength="55.2" x="414.9" y="359.7551">+getSkillsList()</text></g><!--class Address--><g id="elem_Address"><rect codeLine="83" fill="#F1F1F1" height="118.1812" id="Address" rx="1.5" ry="1.5" style="stroke:#181818;stroke-width:0.3;" width="131.4" x="202.5" y="1234.2"/><ellipse cx="250.05" cy="1243.8" fill="#ADD1B2" rx="6.6" ry="6.6" style="stroke:#181818;stroke-width:0.6;"/><path d="M251.7094,1241.325 Q251.8031,1241.1938 251.9156,1241.1281 Q252.0281,1241.0625 252.1594,1241.0625 Q252.3844,1241.0625 252.525,1241.2219 Q252.6656,1241.3719 252.6656,1241.7375 L252.6656,1242.6094 Q252.6656,1242.975 252.525,1243.1344 Q252.3844,1243.2938 252.1594,1243.2938 Q251.9531,1243.2938 251.8312,1243.1719 Q251.7094,1243.0594 251.6437,1242.75 Q251.6156,1242.5344 251.5031,1242.4219 Q251.3062,1242.1969 250.9406,1242.0656 Q250.575,1241.9344 250.2,1241.9344 Q249.7406,1241.9344 249.3563,1242.1313 Q248.9813,1242.3281 248.6812,1242.7781 Q248.3906,1243.2281 248.3906,1243.8469 L248.3906,1244.5031 Q248.3906,1245.2437 248.925,1245.7406 Q249.4594,1246.2281 250.4156,1246.2281 Q250.9781,1246.2281 251.3719,1246.0781 Q251.6063,1245.9844 251.8594,1245.7219 Q252.0187,1245.5625 252.1031,1245.5156 Q252.1969,1245.4688 252.3188,1245.4688 Q252.5156,1245.4688 252.6656,1245.6281 Q252.825,1245.7781 252.825,1245.9844 Q252.825,1246.1906 252.6187,1246.4344 Q252.3188,1246.7813 251.8406,1246.9781 Q251.1938,1247.25 250.4156,1247.25 Q249.5063,1247.25 248.7844,1246.875 Q248.1938,1246.575 247.7813,1245.9375 Q247.3687,1245.2906 247.3687,1244.5219 L247.3687,1243.8281 Q247.3687,1243.0313 247.7344,1242.3469 Q248.1094,1241.6531 248.7656,1241.2875 Q249.4219,1240.9125 250.1625,1240.9125 Q250.6031,1240.9125 250.9875,1241.0156 Q251.3813,1241.1094 251.7094,1241.325 Z " fill="#000000"/><text fill="#000000" font-family="sans-serif" font-size="8.4" lengthAdjust="spacing" textLength="31.2" x="262.35" y="1247.2781">Address</text><line style="stroke:#181818;stroke-width:0.3;" x1="203.1" x2="333.3" y1="1253.4" y2="1253.4"/><text fill="#000000" font-family="sans-serif" font-size="8.4" lengthAdjust="spacing" textLength="61.2" x="206.1" y="1264.8645">-int doorNumber</text><text fill="#000000" font-family="sans-serif" font-size="8.4" lengthAdjust="spacing" textLength="67.8" x="206.1" y="1276.0371">-ZipCode zipCode</text><line style="stroke:#181818;stroke-width:0.3;" x1="203.1" x2="333.3" y1="1280.5453" y2="1280.5453"/><text fill="#000000" font-family="sans-serif" font-size="8.4" lengthAdjust="spacing" textLength="124.2" x="206.1" y="1292.0098">+Address(doorNumber, zipCode)</text><text fill="#000000" font-family="sans-serif" font-size="8.4" lengthAdjust="spacing" textLength="72.6" x="206.1" y="1303.1824">+Address(address)</text><text fill="#000000" font-family="sans-serif" font-size="8.4" lengthAdjust="spacing" textLength="70.8" x="206.1" y="1314.3551">+getDoorNumber()</text><text fill="#000000" font-family="sans-serif" font-size="8.4" lengthAdjust="spacing" textLength="70.2" x="206.1" y="1325.5277">+setDoorNumber()</text><text fill="#000000" font-family="sans-serif" font-size="8.4" lengthAdjust="spacing" textLength="54.6" x="206.1" y="1336.7004">+getZipCode()</text><text fill="#000000" font-family="sans-serif" font-size="8.4" lengthAdjust="spacing" textLength="54" x="206.1" y="1347.873">+setZipCode()</text></g><!--class ZipCode--><g id="elem_ZipCode"><rect codeLine="94" fill="#F1F1F1" height="118.1812" id="ZipCode" rx="1.5" ry="1.5" style="stroke:#181818;stroke-width:0.3;" width="93.6" x="221.4" y="1399.8"/><ellipse cx="249.75" cy="1409.4" fill="#ADD1B2" rx="6.6" ry="6.6" style="stroke:#181818;stroke-width:0.6;"/><path d="M251.4094,1406.925 Q251.5031,1406.7938 251.6156,1406.7281 Q251.7281,1406.6625 251.8594,1406.6625 Q252.0844,1406.6625 252.225,1406.8219 Q252.3656,1406.9719 252.3656,1407.3375 L252.3656,1408.2094 Q252.3656,1408.575 252.225,1408.7344 Q252.0844,1408.8938 251.8594,1408.8938 Q251.6531,1408.8938 251.5313,1408.7719 Q251.4094,1408.6594 251.3438,1408.35 Q251.3156,1408.1344 251.2031,1408.0219 Q251.0063,1407.7969 250.6406,1407.6656 Q250.275,1407.5344 249.9,1407.5344 Q249.4406,1407.5344 249.0562,1407.7313 Q248.6812,1407.9281 248.3813,1408.3781 Q248.0906,1408.8281 248.0906,1409.4469 L248.0906,1410.1031 Q248.0906,1410.8438 248.625,1411.3406 Q249.1594,1411.8281 250.1156,1411.8281 Q250.6781,1411.8281 251.0719,1411.6781 Q251.3062,1411.5844 251.5594,1411.3219 Q251.7188,1411.1625 251.8031,1411.1156 Q251.8969,1411.0688 252.0187,1411.0688 Q252.2156,1411.0688 252.3656,1411.2281 Q252.525,1411.3781 252.525,1411.5844 Q252.525,1411.7906 252.3188,1412.0344 Q252.0187,1412.3813 251.5406,1412.5781 Q250.8937,1412.85 250.1156,1412.85 Q249.2062,1412.85 248.4844,1412.475 Q247.8937,1412.175 247.4813,1411.5375 Q247.0688,1410.8906 247.0688,1410.1219 L247.0688,1409.4281 Q247.0688,1408.6313 247.4344,1407.9469 Q247.8094,1407.2531 248.4656,1406.8875 Q249.1219,1406.5125 249.8625,1406.5125 Q250.3031,1406.5125 250.6875,1406.6156 Q251.0812,1406.7094 251.4094,1406.925 Z " fill="#000000"/><text fill="#000000" font-family="sans-serif" font-size="8.4" lengthAdjust="spacing" textLength="31.8" x="262.05" y="1412.8781">ZipCode</text><line style="stroke:#181818;stroke-width:0.3;" x1="222" x2="314.4" y1="1419" y2="1419"/><text fill="#000000" font-family="sans-serif" font-size="8.4" lengthAdjust="spacing" textLength="31.8" x="225" y="1430.4645">-int local</text><text fill="#000000" font-family="sans-serif" font-size="8.4" lengthAdjust="spacing" textLength="36" x="225" y="1441.6371">-int street</text><line style="stroke:#181818;stroke-width:0.3;" x1="222" x2="314.4" y1="1446.1453" y2="1446.1453"/><text fill="#000000" font-family="sans-serif" font-size="8.4" lengthAdjust="spacing" textLength="86.4" x="225" y="1457.6098">+ZipCode(local, street)</text><text fill="#000000" font-family="sans-serif" font-size="8.4" lengthAdjust="spacing" textLength="73.2" x="225" y="1468.7824">+ZipCode(zipCode)</text><text fill="#000000" font-family="sans-serif" font-size="8.4" lengthAdjust="spacing" textLength="43.2" x="225" y="1479.9551">+getLocal()</text><text fill="#000000" font-family="sans-serif" font-size="8.4" lengthAdjust="spacing" textLength="42.6" x="225" y="1491.1277">+setLocal()</text><text fill="#000000" font-family="sans-serif" font-size="8.4" lengthAdjust="spacing" textLength="45.6" x="225" y="1502.3004">+getStreet()</text><text fill="#000000" font-family="sans-serif" font-size="8.4" lengthAdjust="spacing" textLength="45" x="225" y="1513.473">+setStreet()</text></g><!--class TeamRepository--><g id="elem_TeamRepository"><rect codeLine="105" fill="#F1F1F1" height="84.6633" id="TeamRepository" rx="1.5" ry="1.5" style="stroke:#181818;stroke-width:0.3;" width="116.4" x="210" y="279.6"/><ellipse cx="234.66" cy="289.2" fill="#ADD1B2" rx="6.6" ry="6.6" style="stroke:#181818;stroke-width:0.6;"/><path d="M236.3194,286.725 Q236.4131,286.5938 236.5256,286.5281 Q236.6381,286.4625 236.7694,286.4625 Q236.9944,286.4625 237.135,286.6219 Q237.2756,286.7719 237.2756,287.1375 L237.2756,288.0094 Q237.2756,288.375 237.135,288.5344 Q236.9944,288.6937 236.7694,288.6937 Q236.5631,288.6937 236.4413,288.5719 Q236.3194,288.4594 236.2538,288.15 Q236.2256,287.9344 236.1131,287.8219 Q235.9163,287.5969 235.5506,287.4656 Q235.185,287.3344 234.81,287.3344 Q234.3506,287.3344 233.9663,287.5313 Q233.5913,287.7281 233.2913,288.1781 Q233.0006,288.6281 233.0006,289.2469 L233.0006,289.9031 Q233.0006,290.6438 233.535,291.1406 Q234.0694,291.6281 235.0256,291.6281 Q235.5881,291.6281 235.9819,291.4781 Q236.2163,291.3844 236.4694,291.1219 Q236.6288,290.9625 236.7131,290.9156 Q236.8069,290.8688 236.9288,290.8688 Q237.1256,290.8688 237.2756,291.0281 Q237.435,291.1781 237.435,291.3844 Q237.435,291.5906 237.2288,291.8344 Q236.9288,292.1813 236.4506,292.3781 Q235.8038,292.65 235.0256,292.65 Q234.1163,292.65 233.3944,292.275 Q232.8038,291.975 232.3913,291.3375 Q231.9788,290.6906 231.9788,289.9219 L231.9788,289.2281 Q231.9788,288.4313 232.3444,287.7469 Q232.7194,287.0531 233.3756,286.6875 Q234.0319,286.3125 234.7725,286.3125 Q235.2131,286.3125 235.5975,286.4156 Q235.9913,286.5094 236.3194,286.725 Z " fill="#000000"/><text fill="#000000" font-family="sans-serif" font-size="8.4" lengthAdjust="spacing" textLength="62.4" x="246.54" y="292.6781">TeamRepository</text><line style="stroke:#181818;stroke-width:0.3;" x1="210.6" x2="325.8" y1="298.8" y2="298.8"/><text fill="#000000" font-family="sans-serif" font-size="8.4" lengthAdjust="spacing" textLength="85.8" x="213.6" y="310.2645">-List&lt;Team&gt; teamsList</text><line style="stroke:#181818;stroke-width:0.3;" x1="210.6" x2="325.8" y1="314.7727" y2="314.7727"/><text fill="#000000" font-family="sans-serif" font-size="8.4" lengthAdjust="spacing" textLength="73.2" x="213.6" y="326.2371">+TeamRepository()</text><text fill="#000000" font-family="sans-serif" font-size="8.4" lengthAdjust="spacing" textLength="109.2" x="213.6" y="337.4098">+Optional&lt;Team&gt; add(team)</text><text fill="#000000" font-family="sans-serif" font-size="8.4" lengthAdjust="spacing" textLength="80.4" x="213.6" y="348.5824">+validateTeam(team)</text><text fill="#000000" font-family="sans-serif" font-size="8.4" lengthAdjust="spacing" textLength="44.4" x="213.6" y="359.7551">+getTeam()</text></g><!--class Team--><g id="elem_Team"><rect codeLine="113" fill="#F1F1F1" height="296.9437" id="Team" rx="1.5" ry="1.5" style="stroke:#181818;stroke-width:0.3;" width="201" x="167.7" y="411.6"/><ellipse cx="254.85" cy="421.2" fill="#ADD1B2" rx="6.6" ry="6.6" style="stroke:#181818;stroke-width:0.6;"/><path d="M256.5094,418.725 Q256.6031,418.5938 256.7156,418.5281 Q256.8281,418.4625 256.9594,418.4625 Q257.1844,418.4625 257.325,418.6219 Q257.4656,418.7719 257.4656,419.1375 L257.4656,420.0094 Q257.4656,420.375 257.325,420.5344 Q257.1844,420.6937 256.9594,420.6937 Q256.7531,420.6937 256.6312,420.5719 Q256.5094,420.4594 256.4437,420.15 Q256.4156,419.9344 256.3031,419.8219 Q256.1063,419.5969 255.7406,419.4656 Q255.375,419.3344 255,419.3344 Q254.5406,419.3344 254.1563,419.5313 Q253.7813,419.7281 253.4813,420.1781 Q253.1906,420.6281 253.1906,421.2469 L253.1906,421.9031 Q253.1906,422.6438 253.725,423.1406 Q254.2594,423.6281 255.2156,423.6281 Q255.7781,423.6281 256.1719,423.4781 Q256.4063,423.3844 256.6594,423.1219 Q256.8187,422.9625 256.9031,422.9156 Q256.9969,422.8688 257.1188,422.8688 Q257.3156,422.8688 257.4656,423.0281 Q257.625,423.1781 257.625,423.3844 Q257.625,423.5906 257.4188,423.8344 Q257.1188,424.1813 256.6406,424.3781 Q255.9937,424.65 255.2156,424.65 Q254.3062,424.65 253.5844,424.275 Q252.9937,423.975 252.5812,423.3375 Q252.1688,422.6906 252.1688,421.9219 L252.1688,421.2281 Q252.1688,420.4313 252.5344,419.7469 Q252.9094,419.0531 253.5656,418.6875 Q254.2219,418.3125 254.9625,418.3125 Q255.4031,418.3125 255.7875,418.4156 Q256.1813,418.5094 256.5094,418.725 Z " fill="#000000"/><text fill="#000000" font-family="sans-serif" font-size="8.4" lengthAdjust="spacing" textLength="21.6" x="267.15" y="424.6781">Team</text><line style="stroke:#181818;stroke-width:0.3;" x1="168.3" x2="368.1" y1="430.8" y2="430.8"/><text fill="#000000" font-family="sans-serif" font-size="8.4" lengthAdjust="spacing" textLength="48.6" x="171.3" y="442.2645">-String name</text><text fill="#000000" font-family="sans-serif" font-size="8.4" lengthAdjust="spacing" textLength="137.4" x="171.3" y="453.4371">-List&lt;Collaborator&gt; collaboratorsList</text><text fill="#000000" font-family="sans-serif" font-size="8.4" lengthAdjust="spacing" textLength="96.6" x="171.3" y="464.6098">-List&lt;Skill&gt; skillsSelected;</text><line style="stroke:#181818;stroke-width:0.3;" x1="168.3" x2="368.1" y1="469.118" y2="469.118"/><text fill="#000000" font-family="sans-serif" font-size="8.4" lengthAdjust="spacing" textLength="176.4" x="171.3" y="480.5824">+Team(name, collaboratorsList, skillsSelected)</text><text fill="#000000" font-family="sans-serif" font-size="8.4" lengthAdjust="spacing" textLength="44.4" x="171.3" y="491.7551">+getName()</text><text fill="#000000" font-family="sans-serif" font-size="8.4" lengthAdjust="spacing" textLength="64.8" x="171.3" y="502.9277">+setName(name)</text><text fill="#000000" font-family="sans-serif" font-size="8.4" lengthAdjust="spacing" textLength="87" x="171.3" y="514.1004">+getCollaboratorsList()</text><text fill="#000000" font-family="sans-serif" font-size="8.4" lengthAdjust="spacing" textLength="148.8" x="171.3" y="525.273">+setCollaboratorsList(collaboratorsList)</text><text fill="#000000" font-family="sans-serif" font-size="8.4" lengthAdjust="spacing" textLength="75" x="171.3" y="536.4457">+getSkillsSelected()</text><text fill="#000000" font-family="sans-serif" font-size="8.4" lengthAdjust="spacing" textLength="125.4" x="171.3" y="547.6184">+setSkillsSelected(skillsSelected)</text><text fill="#000000" font-family="sans-serif" font-size="8.4" lengthAdjust="spacing" textLength="73.2" x="171.3" y="558.791">+getMinSizeTeam()</text><text fill="#000000" font-family="sans-serif" font-size="8.4" lengthAdjust="spacing" textLength="123" x="171.3" y="569.9637">+setMinSizeTeam(minSizeTeam)</text><text fill="#000000" font-family="sans-serif" font-size="8.4" lengthAdjust="spacing" textLength="75" x="171.3" y="581.1363">+getMaxSizeTeam()</text><text fill="#000000" font-family="sans-serif" font-size="8.4" lengthAdjust="spacing" textLength="126.6" x="171.3" y="592.309">+setMaxSizeTeam(maxSizeTeam)</text><text fill="#000000" font-family="sans-serif" font-size="8.4" lengthAdjust="spacing" textLength="117" x="171.3" y="603.4816">+addCollaborator(collaborator)</text><text fill="#000000" font-family="sans-serif" font-size="8.4" lengthAdjust="spacing" textLength="40.8" x="171.3" y="614.6543">+equals(o)</text><text fill="#000000" font-family="sans-serif" font-size="8.4" lengthAdjust="spacing" textLength="193.8" x="171.3" y="625.827">+hashCode(name, collaboratorsList, skillsSelected)</text><text fill="#000000" font-family="sans-serif" font-size="8.4" lengthAdjust="spacing" textLength="40.2" x="171.3" y="636.9996">+toString()</text><text fill="#000000" font-family="sans-serif" font-size="8.4" lengthAdjust="spacing" textLength="31.2" x="171.3" y="648.1723">+clone()</text><text fill="#000000" font-family="sans-serif" font-size="8.4" lengthAdjust="spacing" textLength="108.6" x="171.3" y="659.3449">+getTeamCollaboratorsList()</text><text fill="#000000" font-family="sans-serif" font-size="8.4" lengthAdjust="spacing" textLength="120.6" x="171.3" y="670.5176">-selectedCollaboratorsBySkills()</text><text fill="#000000" font-family="sans-serif" font-size="8.4" lengthAdjust="spacing" textLength="154.2" x="171.3" y="681.6902">-teamCollaboratorsList(collaboratorsList)</text><text fill="#000000" font-family="sans-serif" font-size="8.4" lengthAdjust="spacing" textLength="120" x="171.3" y="692.8629">-hasSelectedSkills(collaborator)</text><text fill="#000000" font-family="sans-serif" font-size="8.4" lengthAdjust="spacing" textLength="106.2" x="171.3" y="704.0355">+isTeamSizeWithinBounds()</text></g><!--link Repositories to Repositories--><g id="link_Repositories_Repositories"><path codeLine="141" d="M389.274,178.038 C401.43,179.37 410.1,183.324 410.1,189.9 C410.1,196.476 405.0086,200.0379 392.8526,201.3699 " fill="none" id="Repositories-to-Repositories" style="stroke:#181818;stroke-width:0.6;"/><polygon fill="#181818" points="389.274,201.762,394.9033,203.5595,392.2562,201.4352,394.3805,198.7881,389.274,201.762" style="stroke:#181818;stroke-width:0.6;"/><text fill="#000000" font-family="sans-serif" font-size="7.8" lengthAdjust="spacing" textLength="29.4" x="413.7" y="193.217">instance</text></g><!--link GenerateTeamProposalUI to GenerateTeamProposalController--><g id="link_GenerateTeamProposalUI_GenerateTeamProposalController"><path codeLine="143" d="M121.962,52.2 C130.2,52.2 134.058,52.2 139.41,52.2 " fill="none" id="GenerateTeamProposalUI-to-GenerateTeamProposalController" style="stroke:#181818;stroke-width:0.6;stroke-dasharray:7.0,7.0;"/><polygon fill="#181818" points="143.01,52.2,137.61,49.8,140.01,52.2,137.61,54.6,143.01,52.2" style="stroke:#181818;stroke-width:0.6;"/></g><!--link Repositories to TeamRepository--><g id="link_Repositories_TeamRepository"><path codeLine="145" d="M309.048,232.248 C302.124,247.35 295.7999,261.1233 288.8759,276.2313 " fill="none" id="Repositories-to-TeamRepository" style="stroke:#181818;stroke-width:0.6;"/><polygon fill="#181818" points="287.376,279.504,291.8076,275.5949,288.6259,276.7768,287.444,273.5951,287.376,279.504" style="stroke:#181818;stroke-width:0.6;"/><text fill="#000000" font-family="sans-serif" font-size="7.8" lengthAdjust="spacing" textLength="4.2" x="284.937" y="272.8287">1</text></g><!--link Repositories to CollaboratorsRepository--><g id="link_Repositories_CollaboratorsRepository"><path codeLine="146" d="M344.916,232.29 C373.296,303.24 429.2411,443.1054 457.6691,514.1814 " fill="none" id="Repositories-to-CollaboratorsRepository" style="stroke:#181818;stroke-width:0.6;"/><polygon fill="#181818" points="459.006,517.524,459.229,511.6189,457.8919,514.7385,454.7723,513.4014,459.006,517.524" style="stroke:#181818;stroke-width:0.6;"/><text fill="#000000" font-family="sans-serif" font-size="7.8" lengthAdjust="spacing" textLength="4.2" x="452.9461" y="511.0534">1</text></g><!--link Repositories to SkillsRepository--><g id="link_Repositories_SkillsRepository"><path codeLine="147" d="M372.72,232.29 C383.406,242.322 391.8,250.2 391.8,250.2 C391.8,250.2 403.2663,261.5246 418.9383,276.9986 " fill="none" id="Repositories-to-SkillsRepository" style="stroke:#181818;stroke-width:0.6;"/><polygon fill="#181818" points="421.5,279.528,419.3437,274.0262,419.3652,277.4202,415.9712,277.4418,421.5,279.528" style="stroke:#181818;stroke-width:0.6;"/><text fill="#000000" font-family="sans-serif" font-size="7.8" lengthAdjust="spacing" textLength="4.2" x="412.7213" y="272.8552">1</text></g><!--link GenerateTeamProposalController to CollaboratorsRepository--><g id="link_GenerateTeamProposalController_CollaboratorsRepository"><path codeLine="149" d="M422.976,100.338 C470.136,123.99 517.2,147.6 517.2,147.6 C517.2,147.6 526.8,279.6 526.8,279.6 C526.8,279.6 526.8,364.2 526.8,364.2 C526.8,364.2 502.6358,456.7348 487.6478,514.1188 " fill="none" id="GenerateTeamProposalController-to-CollaboratorsRepository" style="stroke:#181818;stroke-width:0.6;stroke-dasharray:7.0,7.0;"/><polygon fill="#181818" points="486.738,517.602,490.4247,512.9838,487.4961,514.6994,485.7805,511.7708,486.738,517.602" style="stroke:#181818;stroke-width:0.6;"/><text fill="#000000" font-family="sans-serif" font-size="7.8" lengthAdjust="spacing" textLength="82.8" x="525.6" y="259.217">CollaboratorsRepository</text></g><!--link GenerateTeamProposalController to SkillsRepository--><g id="link_GenerateTeamProposalController_SkillsRepository"><path codeLine="150" d="M387.774,100.338 C417.414,123.99 447,147.6 447,147.6 C447,147.6 454.4352,224.4947 459.4092,275.8907 " fill="none" id="GenerateTeamProposalController-to-SkillsRepository" style="stroke:#181818;stroke-width:0.6;stroke-dasharray:7.0,7.0;"/><polygon fill="#181818" points="459.756,279.474,461.6247,273.8679,459.467,276.488,456.847,274.3303,459.756,279.474" style="stroke:#181818;stroke-width:0.6;"/><text fill="#000000" font-family="sans-serif" font-size="7.8" lengthAdjust="spacing" textLength="56.4" x="455.4" y="193.217">SkillsRepository</text></g><!--link GenerateTeamProposalController to TeamRepository--><g id="link_GenerateTeamProposalController_TeamRepository"><path codeLine="151" d="M263.514,100.338 C231.324,123.99 199.2,147.6 199.2,147.6 C199.2,147.6 199.2,232.2 199.2,232.2 C199.2,232.2 215.6198,253.4017 233.5178,276.5137 " fill="none" id="GenerateTeamProposalController-to-TeamRepository" style="stroke:#181818;stroke-width:0.6;stroke-dasharray:7.0,7.0;"/><polygon fill="#181818" points="235.722,279.36,234.3133,273.6211,233.8852,276.9881,230.5182,276.56,235.722,279.36" style="stroke:#181818;stroke-width:0.6;"/><text fill="#000000" font-family="sans-serif" font-size="7.8" lengthAdjust="spacing" textLength="56.4" x="199.8" y="193.217">TeamRepository</text></g><!--link GenerateTeamProposalController to Repositories--><g id="link_GenerateTeamProposalController_Repositories"><path codeLine="152" d="M328.2,100.35 C328.2,115.662 328.2,128.91 328.2,143.784 " fill="none" id="GenerateTeamProposalController-to-Repositories" style="stroke:#181818;stroke-width:0.6;stroke-dasharray:7.0,7.0;"/><polygon fill="#181818" points="328.2,147.384,330.6,141.984,328.2,144.384,325.8,141.984,328.2,147.384" style="stroke:#181818;stroke-width:0.6;"/><text fill="#000000" font-family="sans-serif" font-size="7.8" lengthAdjust="spacing" textLength="40.2" x="328.8" y="127.217">repositories</text></g><!--link GenerateTeamProposalController to Collaborator--><g id="link_GenerateTeamProposalController_Collaborator"><path codeLine="153" d="M249.714,100.332 C232.962,110.472 220.2,118.2 220.2,118.2 C220.2,118.2 135.6,189.3 135.6,189.3 C135.6,189.3 135.6,189.3 135.6,560.7 C135.6,560.7 157.2,708.6 157.2,708.6 C157.2,708.6 163.951,724.5386 175.831,752.6126 " fill="none" id="GenerateTeamProposalController-to-Collaborator" style="stroke:#181818;stroke-width:0.6;stroke-dasharray:7.0,7.0;"/><polygon fill="#181818" points="177.234,755.928,177.3398,750.0196,176.0649,753.1652,172.9193,751.8902,177.234,755.928" style="stroke:#181818;stroke-width:0.6;"/><text fill="#000000" font-family="sans-serif" font-size="7.8" lengthAdjust="spacing" textLength="41.4" x="136.2" y="325.217">Collaborator</text><text fill="#000000" font-family="sans-serif" font-size="7.8" lengthAdjust="spacing" textLength="4.2" x="170.8528" y="748.9749">1</text></g><!--link TeamRepository to Team--><g id="link_TeamRepository_Team"><path codeLine="155" d="M268.2,364.326 C268.2,378.144 268.2,390.804 268.2,407.94 " fill="none" id="TeamRepository-to-Team" style="stroke:#181818;stroke-width:0.6;"/><polygon fill="#181818" points="268.2,411.54,270.6,406.14,268.2,408.54,265.8,406.14,268.2,411.54" style="stroke:#181818;stroke-width:0.6;"/><text fill="#000000" font-family="sans-serif" font-size="7.8" lengthAdjust="spacing" textLength="21.6" x="268.8" y="391.217">teams</text><text fill="#000000" font-family="sans-serif" font-size="7.8" lengthAdjust="spacing" textLength="3" x="265.1508" y="404.7188">*</text></g><!--reverse link Team to Collaborator--><g id="link_Team_Collaborator"><path codeLine="156" d="M268.2,715.956 C268.2,731.328 268.2,739.962 268.2,755.88 " fill="none" id="Team-backto-Collaborator" style="stroke:#181818;stroke-width:0.6;"/><polygon fill="none" points="268.2,708.756,265.8,712.356,268.2,715.956,270.6,712.356,268.2,708.756" style="stroke:#181818;stroke-width:0.6;"/><text fill="#000000" font-family="sans-serif" font-size="7.8" lengthAdjust="spacing" textLength="12.6" x="268.8" y="735.617">has</text><text fill="#000000" font-family="sans-serif" font-size="7.8" lengthAdjust="spacing" textLength="3" x="265.1648" y="748.9257">*</text></g><!--link CollaboratorsRepository to Collaborator--><g id="link_CollaboratorsRepository_Collaborator"><path codeLine="158" d="M454.656,602.472 C435.792,639.732 408.27,694.1081 378.576,752.7641 " fill="none" id="CollaboratorsRepository-to-Collaborator" style="stroke:#181818;stroke-width:0.6;"/><polygon fill="#181818" points="376.95,755.976,381.5302,752.2422,378.305,753.2994,377.2477,750.0742,376.95,755.976" style="stroke:#181818;stroke-width:0.6;"/><text fill="#000000" font-family="sans-serif" font-size="7.8" lengthAdjust="spacing" textLength="3" x="376.4637" y="749.024">*</text></g><!--reverse link Collaborator to Address--><g id="link_Collaborator_Address"><path codeLine="160" d="M268.2,1194 C268.2,1211.004 268.2,1219.878 268.2,1234.122 " fill="none" id="Collaborator-backto-Address" style="stroke:#181818;stroke-width:0.6;"/><polygon fill="#181818" points="268.2,1186.8,265.8,1190.4,268.2,1194,270.6,1190.4,268.2,1186.8" style="stroke:#181818;stroke-width:0.6;"/><text fill="#000000" font-family="sans-serif" font-size="7.8" lengthAdjust="spacing" textLength="18" x="268.8" y="1213.817">owns</text><text fill="#000000" font-family="sans-serif" font-size="7.8" lengthAdjust="spacing" textLength="4.2" x="263.8392" y="1227.4251">1</text></g><!--reverse link Address to ZipCode--><g id="link_Address_ZipCode"><path codeLine="161" d="M268.2,1359.756 C268.2,1375.062 268.2,1384.362 268.2,1399.668 " fill="none" id="Address-backto-ZipCode" style="stroke:#181818;stroke-width:0.6;"/><polygon fill="#181818" points="268.2,1352.556,265.8,1356.156,268.2,1359.756,270.6,1356.156,268.2,1352.556" style="stroke:#181818;stroke-width:0.6;"/><text fill="#000000" font-family="sans-serif" font-size="7.8" lengthAdjust="spacing" textLength="18" x="268.8" y="1379.417">owns</text><text fill="#000000" font-family="sans-serif" font-size="7.8" lengthAdjust="spacing" textLength="4.2" x="263.8392" y="1392.967">1</text></g><!--SRC=[hLTHRzCm47xFhx3sj8vaWjU2AcqTGfN6c2W8YJSlCQqrnmwskz4X_ZjsOZjd9scBn1xMvkwxk-_ElhjKFLBUO8bhrE3o4M_8MkyPGPAK6lCD8vaA0BN5bNYcV8D-OAQWXb5EzBuXg15iRnyoe2mPLkfAQqaVTfgiIi7Nz8MWrrcMjIhqWN0YiIPV2AxlfMY4mkph2ltE_Xn2B0NNKZ16f44YyrUWMwhqk_KZPMo1bFrGQy9C8gHg0Q-E-3blJTLdOkHK2xdFqT8ey8CmDa962kkXVvuv_nkYEn-MoJcGHduEASVDRJJp7Ee1BKBsQrDXSpOSryH9RaogoC2u_G9bkAg1Y7ADcgtWv6vNFn0PkoCrfWm0QRN4iee4aTdm35mQaFEv9Pa7Qhadb4CUUHSxTo7p46dstptcZkgevzO67CQTYHGEHxbd6nvWhXqFY0ioJnBWhpgs4Ev5Bf48N4cYL0pkHBZx1E3xFdre0CMWGi3mlKqRcdI2j1ghjfGGvoHTZICak2WEwHYa9nlw2FfralYaoCyT1Z0jkciR15kijajH4IWOIQHafWG1OwhO1kjYUQaajNWYaI8qP1W5bAZGa508ktd5bPcjfOc7vX4epRuVC9EpP1mIJwUfoG6Cun4AGGjKfhDhf4aWZm7U4_lKQ2euPeb_K-t8PkQeF656AtFpesOS0YVdQyWvBUQ1VG7Icpo2a8QpjFp1HUc9ZzoXT444Zgw10pKxMIiXP3HRlzF6tcNqqdqwdxxtUtZk4RC4CXmFDy48jjg8r61TU0ZiHI4JJn9cmaI9uH9HMXBY2-rzjA3SwMQ9Cad8iBcrSCWb5jXAjvwY4U8bWMtSAV7DiBe5qkO_l1U3tafkHMTbBuMrz6f_9zfD3XKZszq-7zZg9xVeeHUYjo0Rjpi7JlB4vXztuFGxZnfJJewDq3EUnt0f1CqauO-qVUjqfGxcK5pttw4X_ZLg2CHr_nriaADZowqkCLXL_tWSWvqNBpDtmQPEep3PTFuYnFK-Mi15smOd7rfXa_4ydQEn4b1bgTdYVQDwI_crsF5ATRsGHJkrMCGxTcxcIBT5ispYzyFbuiZxVXh2n3XxSvOq-3XcOlUDWzDDCiuO_9wvl3JS9qBC9sEVuZIbCX-IEyLDCZNdQSsE-HWSfeHlGQSmI0y1nNN9ieHYUnONtU4QR3lKMmmIHT5g4c_c0cVPrDkIznQ7Z3nSMBU6f5_iSoIUkShyerVxRUdKVm40]--></g></svg>