<?xml version="1.0" encoding="us-ascii" standalone="no"?><svg xmlns="http://www.w3.org/2000/svg" xmlns:xlink="http://www.w3.org/1999/xlink" contentStyleType="text/css" height="611.8px" preserveAspectRatio="none" style="width:485px;height:611px;background:#FFFFFF;" version="1.1" viewBox="0 0 485 611" width="485.8px" zoomAndPan="magnify"><defs/><g><rect fill="#FFFFFF" height="456.1922" style="stroke:#181818;stroke-width:0.6999999999999998;" width="7" x="53.2" y="78.5695"/><rect fill="#FFFFFF" height="34.0074" style="stroke:#181818;stroke-width:0.6999999999999998;" width="7" x="261.8" y="94.8732"/><rect fill="#FFFFFF" height="21.9037" style="stroke:#181818;stroke-width:0.6999999999999998;" width="7" x="261.8" y="162.8881"/><rect fill="#FFFFFF" height="259.5551" style="stroke:#181818;stroke-width:0.6999999999999998;" width="7" x="261.8" y="225.0992"/><rect fill="#FFFFFF" height="21.9037" style="stroke:#181818;stroke-width:0.6999999999999998;" width="7" x="261.8" y="506.558"/><rect fill="#FFFFFF" height="55.6801" style="stroke:#181818;stroke-width:0.6999999999999998;" width="7" x="409.5" y="247.0029"/><rect fill="#FFFFFF" height="55.6801" style="stroke:#181818;stroke-width:0.6999999999999998;" width="7" x="409.5" y="329.4867"/><rect fill="#FFFFFF" height="55.6801" style="stroke:#181818;stroke-width:0.6999999999999998;" width="7" x="409.5" y="407.0705"/><rect fill="none" height="112.9912" style="stroke:#000000;stroke-width:1.0499999999999998;" width="466.2" x="7" y="195.2918"/><line style="stroke:#181818;stroke-width:0.3499999999999999;stroke-dasharray:5.0,5.0;" x1="56.7" x2="56.7" y1="71.5695" y2="541.0617"/><line style="stroke:#181818;stroke-width:0.3499999999999999;stroke-dasharray:5.0,5.0;" x1="265.3" x2="265.3" y1="71.5695" y2="541.0617"/><line style="stroke:#181818;stroke-width:0.3499999999999999;stroke-dasharray:5.0,5.0;" x1="413" x2="413" y1="71.5695" y2="541.0617"/><text fill="#000000" font-family="sans-serif" font-size="9.8" lengthAdjust="spacing" textLength="81.2" x="14" y="56.0752">Human Resources</text><text fill="#000000" font-family="sans-serif" font-size="9.8" lengthAdjust="spacing" textLength="39.2" x="35" y="69.11">Manager</text><ellipse cx="56.7" cy="9.45" fill="#E3E3E3" rx="5.6" ry="5.6" style="stroke:#181818;stroke-width:0.3499999999999999;"/><path d="M56.7,15.05 L56.7,33.95 M47.6,20.65 L65.8,20.65 M56.7,33.95 L47.6,44.45 M56.7,33.95 L65.8,44.45 " fill="none" style="stroke:#181818;stroke-width:0.3499999999999999;"/><text fill="#000000" font-family="sans-serif" font-size="9.8" lengthAdjust="spacing" textLength="81.2" x="14" y="550.9369">Human Resources</text><text fill="#000000" font-family="sans-serif" font-size="9.8" lengthAdjust="spacing" textLength="39.2" x="35" y="563.9717">Manager</text><ellipse cx="56.7" cy="572.3812" fill="#E3E3E3" rx="5.6" ry="5.6" style="stroke:#181818;stroke-width:0.3499999999999999;"/><path d="M56.7,577.9812 L56.7,596.8812 M47.6,583.5812 L65.8,583.5812 M56.7,596.8812 L47.6,607.3812 M56.7,596.8812 L65.8,607.3812 " fill="none" style="stroke:#181818;stroke-width:0.3499999999999999;"/><rect fill="#E3E3E3" height="22.8348" rx="1.75" ry="1.75" style="stroke:#181818;stroke-width:0.3499999999999999;" width="71.4" x="229.6" y="48.0348"/><text fill="#000000" font-family="sans-serif" font-size="9.8" lengthAdjust="spacing" textLength="61.6" x="234.5" y="63.51">:RegistSkillsUI</text><rect fill="#E3E3E3" height="22.8348" rx="1.75" ry="1.75" style="stroke:#181818;stroke-width:0.3499999999999999;" width="71.4" x="229.6" y="540.3617"/><text fill="#000000" font-family="sans-serif" font-size="9.8" lengthAdjust="spacing" textLength="61.6" x="234.5" y="555.8369">:RegistSkillsUI</text><rect fill="#E3E3E3" height="22.8348" rx="1.75" ry="1.75" style="stroke:#181818;stroke-width:0.3499999999999999;" width="106.4" x="359.8" y="48.0348"/><text fill="#000000" font-family="sans-serif" font-size="9.8" lengthAdjust="spacing" textLength="96.6" x="364.7" y="63.51">:RegistSkillsController</text><rect fill="#E3E3E3" height="22.8348" rx="1.75" ry="1.75" style="stroke:#181818;stroke-width:0.3499999999999999;" width="106.4" x="359.8" y="540.3617"/><text fill="#000000" font-family="sans-serif" font-size="9.8" lengthAdjust="spacing" textLength="96.6" x="364.7" y="555.8369">:RegistSkillsController</text><rect fill="#FFFFFF" height="456.1922" style="stroke:#181818;stroke-width:0.6999999999999998;" width="7" x="53.2" y="78.5695"/><rect fill="#FFFFFF" height="34.0074" style="stroke:#181818;stroke-width:0.6999999999999998;" width="7" x="261.8" y="94.8732"/><rect fill="#FFFFFF" height="21.9037" style="stroke:#181818;stroke-width:0.6999999999999998;" width="7" x="261.8" y="162.8881"/><rect fill="#FFFFFF" height="259.5551" style="stroke:#181818;stroke-width:0.6999999999999998;" width="7" x="261.8" y="225.0992"/><rect fill="#FFFFFF" height="21.9037" style="stroke:#181818;stroke-width:0.6999999999999998;" width="7" x="261.8" y="506.558"/><rect fill="#FFFFFF" height="55.6801" style="stroke:#181818;stroke-width:0.6999999999999998;" width="7" x="409.5" y="247.0029"/><rect fill="#FFFFFF" height="55.6801" style="stroke:#181818;stroke-width:0.6999999999999998;" width="7" x="409.5" y="329.4867"/><rect fill="#FFFFFF" height="55.6801" style="stroke:#181818;stroke-width:0.6999999999999998;" width="7" x="409.5" y="407.0705"/><polygon fill="#181818" points="253.4,92.0732,260.4,94.8732,253.4,97.6732,256.2,94.8732" style="stroke:#181818;stroke-width:0.6999999999999998;"/><line style="stroke:#181818;stroke-width:0.6999999999999998;" x1="60.2" x2="257.6" y1="94.8732" y2="94.8732"/><text fill="#000000" font-family="sans-serif" font-size="9.1" font-weight="bold" lengthAdjust="spacing" textLength="4.9" x="65.1" y="91.1894">1</text><text fill="#000000" font-family="sans-serif" font-size="9.1" lengthAdjust="spacing" textLength="135.8" x="72.8" y="91.1894">asks to generate a team proposal</text><polygon fill="#181818" points="67.9,126.0807,60.9,128.8807,67.9,131.6807,65.1,128.8807" style="stroke:#181818;stroke-width:0.6999999999999998;"/><line style="stroke:#181818;stroke-width:0.6999999999999998;stroke-dasharray:2.0,2.0;" x1="63.7" x2="264.6" y1="128.8807" y2="128.8807"/><text fill="#000000" font-family="sans-serif" font-size="9.1" font-weight="bold" lengthAdjust="spacing" textLength="4.9" x="72.1" y="119.1449">2</text><text fill="#000000" font-family="sans-serif" font-size="9.1" lengthAdjust="spacing" textLength="143.5" x="79.8" y="113.0931">requests which is the minimum and</text><text fill="#000000" font-family="sans-serif" font-size="9.1" lengthAdjust="spacing" textLength="160.3" x="82.6" y="125.1968">maximum number of team collaborators</text><polygon fill="#181818" points="253.4,160.0881,260.4,162.8881,253.4,165.6881,256.2,162.8881" style="stroke:#181818;stroke-width:0.6999999999999998;"/><line style="stroke:#181818;stroke-width:0.6999999999999998;" x1="60.2" x2="257.6" y1="162.8881" y2="162.8881"/><text fill="#000000" font-family="sans-serif" font-size="9.1" font-weight="bold" lengthAdjust="spacing" textLength="4.9" x="65.1" y="153.1523">3</text><text fill="#000000" font-family="sans-serif" font-size="9.1" lengthAdjust="spacing" textLength="180.6" x="72.8" y="147.1005">types the minimum and maximum number of</text><text fill="#000000" font-family="sans-serif" font-size="9.1" lengthAdjust="spacing" textLength="74.9" x="75.6" y="159.2042">team collaborators</text><polygon fill="#181818" points="67.9,181.9918,60.9,184.7918,67.9,187.5918,65.1,184.7918" style="stroke:#181818;stroke-width:0.6999999999999998;"/><line style="stroke:#181818;stroke-width:0.6999999999999998;stroke-dasharray:2.0,2.0;" x1="63.7" x2="264.6" y1="184.7918" y2="184.7918"/><text fill="#000000" font-family="sans-serif" font-size="9.1" font-weight="bold" lengthAdjust="spacing" textLength="4.9" x="72.1" y="181.1079">4</text><text fill="#000000" font-family="sans-serif" font-size="9.1" lengthAdjust="spacing" textLength="147.7" x="79.8" y="181.1079">requests which are the skills needed</text><path d="M7,195.2918 L58.1,195.2918 L58.1,201.7955 L51.1,208.7955 L7,208.7955 L7,195.2918 " fill="#EEEEEE" style="stroke:#000000;stroke-width:1.0499999999999998;"/><rect fill="none" height="112.9912" style="stroke:#000000;stroke-width:1.0499999999999998;" width="466.2" x="7" y="195.2918"/><text fill="#000000" font-family="sans-serif" font-size="9.1" font-weight="bold" lengthAdjust="spacing" textLength="19.6" x="17.5" y="205.8116">loop</text><text fill="#000000" font-family="sans-serif" font-size="7.7" font-weight="bold" lengthAdjust="spacing" textLength="63" x="68.6" y="205.0009">[while intended]</text><polygon fill="#181818" points="253.4,222.2992,260.4,225.0992,253.4,227.8992,256.2,225.0992" style="stroke:#181818;stroke-width:0.6999999999999998;"/><line style="stroke:#181818;stroke-width:0.6999999999999998;" x1="60.2" x2="257.6" y1="225.0992" y2="225.0992"/><text fill="#000000" font-family="sans-serif" font-size="9.1" font-weight="bold" lengthAdjust="spacing" textLength="4.9" x="65.1" y="221.4153">5</text><text fill="#000000" font-family="sans-serif" font-size="9.1" lengthAdjust="spacing" textLength="56.7" x="72.8" y="221.4153">types the skill</text><polygon fill="#181818" points="401.1,244.2029,408.1,247.0029,401.1,249.8029,403.9,247.0029" style="stroke:#181818;stroke-width:0.6999999999999998;"/><line style="stroke:#181818;stroke-width:0.6999999999999998;" x1="268.8" x2="405.3" y1="247.0029" y2="247.0029"/><text fill="#000000" font-family="sans-serif" font-size="9.1" font-weight="bold" lengthAdjust="spacing" textLength="4.9" x="273.7" y="243.319">6</text><text fill="#000000" font-family="sans-serif" font-size="9.1" lengthAdjust="spacing" textLength="91" x="281.4" y="243.319">getRegistedSkillsList()</text><rect fill="none" height="30.2764" style="stroke:#000000;stroke-width:1.0499999999999998;" width="110.6" x="357.7" y="252.6029"/><path d="M357.7,252.6029 L401.1,252.6029 L401.1,258.9029 L394.1,265.9029 L357.7,265.9029 L357.7,252.6029 " fill="#EEEEEE" style="stroke:#000000;stroke-width:1.3999999999999997;"/><text fill="#000000" font-family="sans-serif" font-size="9.1" font-weight="bold" lengthAdjust="spacing" textLength="11.9" x="366.8" y="263.8228">ref</text><text fill="#000000" font-family="sans-serif" font-size="8.4" lengthAdjust="spacing" textLength="89.6" x="368.2" y="277.7674">Get Registed Skills List</text><polygon fill="#181818" points="276.5,299.883,269.5,302.683,276.5,305.483,273.7,302.683" style="stroke:#181818;stroke-width:0.6999999999999998;"/><line style="stroke:#181818;stroke-width:0.6999999999999998;stroke-dasharray:2.0,2.0;" x1="272.3" x2="412.3" y1="302.683" y2="302.683"/><text fill="#000000" font-family="sans-serif" font-size="9.1" font-weight="bold" lengthAdjust="spacing" textLength="4.9" x="280.7" y="298.9991">7</text><text fill="#000000" font-family="sans-serif" font-size="9.1" lengthAdjust="spacing" textLength="69.3" x="288.4" y="298.9991">registedSkillsList</text><polygon fill="#181818" points="401.1,326.6867,408.1,329.4867,401.1,332.2867,403.9,329.4867" style="stroke:#181818;stroke-width:0.6999999999999998;"/><line style="stroke:#181818;stroke-width:0.6999999999999998;" x1="268.8" x2="405.3" y1="329.4867" y2="329.4867"/><text fill="#000000" font-family="sans-serif" font-size="9.1" font-weight="bold" lengthAdjust="spacing" textLength="4.9" x="273.7" y="325.8028">8</text><text fill="#000000" font-family="sans-serif" font-size="9.1" lengthAdjust="spacing" textLength="119.7" x="281.4" y="325.8028">getCollaboratorsBySkillsList()</text><rect fill="none" height="30.2764" style="stroke:#000000;stroke-width:1.0499999999999998;" width="123.9" x="357.7" y="335.0867"/><path d="M357.7,335.0867 L401.1,335.0867 L401.1,341.3867 L394.1,348.3867 L357.7,348.3867 L357.7,335.0867 " fill="#EEEEEE" style="stroke:#000000;stroke-width:1.3999999999999997;"/><text fill="#000000" font-family="sans-serif" font-size="9.1" font-weight="bold" lengthAdjust="spacing" textLength="11.9" x="366.8" y="346.3065">ref</text><text fill="#000000" font-family="sans-serif" font-size="8.4" lengthAdjust="spacing" textLength="118.3" x="360.5" y="360.2512">Get Collaborators By Skills List</text><polygon fill="#181818" points="276.5,382.3668,269.5,385.1668,276.5,387.9668,273.7,385.1668" style="stroke:#181818;stroke-width:0.6999999999999998;"/><line style="stroke:#181818;stroke-width:0.6999999999999998;stroke-dasharray:2.0,2.0;" x1="272.3" x2="412.3" y1="385.1668" y2="385.1668"/><text fill="#000000" font-family="sans-serif" font-size="9.1" font-weight="bold" lengthAdjust="spacing" textLength="4.9" x="280.7" y="381.4829">9</text><text fill="#000000" font-family="sans-serif" font-size="9.1" lengthAdjust="spacing" textLength="100.1" x="288.4" y="381.4829">collaboratorsBySkillsList</text><polygon fill="#181818" points="401.1,404.2705,408.1,407.0705,401.1,409.8705,403.9,407.0705" style="stroke:#181818;stroke-width:0.6999999999999998;"/><line style="stroke:#181818;stroke-width:0.6999999999999998;" x1="268.8" x2="405.3" y1="407.0705" y2="407.0705"/><text fill="#000000" font-family="sans-serif" font-size="9.1" font-weight="bold" lengthAdjust="spacing" textLength="9.8" x="273.7" y="403.3866">10</text><text fill="#000000" font-family="sans-serif" font-size="9.1" lengthAdjust="spacing" textLength="76.3" x="286.3" y="403.3866">getProposalTeam()</text><rect fill="none" height="30.2764" style="stroke:#000000;stroke-width:1.0499999999999998;" width="110.6" x="357.7" y="412.6705"/><path d="M357.7,412.6705 L401.1,412.6705 L401.1,418.9705 L394.1,425.9705 L357.7,425.9705 L357.7,412.6705 " fill="#EEEEEE" style="stroke:#000000;stroke-width:1.3999999999999997;"/><text fill="#000000" font-family="sans-serif" font-size="9.1" font-weight="bold" lengthAdjust="spacing" textLength="11.9" x="366.8" y="423.8903">ref</text><text fill="#000000" font-family="sans-serif" font-size="8.4" lengthAdjust="spacing" textLength="74.9" x="375.55" y="437.835">Get Proposal Team</text><polygon fill="#181818" points="276.5,459.9506,269.5,462.7506,276.5,465.5506,273.7,462.7506" style="stroke:#181818;stroke-width:0.6999999999999998;"/><line style="stroke:#181818;stroke-width:0.6999999999999998;stroke-dasharray:2.0,2.0;" x1="272.3" x2="412.3" y1="462.7506" y2="462.7506"/><text fill="#000000" font-family="sans-serif" font-size="9.1" font-weight="bold" lengthAdjust="spacing" textLength="9.8" x="280.7" y="459.0667">11</text><text fill="#000000" font-family="sans-serif" font-size="9.1" lengthAdjust="spacing" textLength="56.7" x="293.3" y="459.0667">proposalTeam</text><polygon fill="#181818" points="67.9,481.8543,60.9,484.6543,67.9,487.4543,65.1,484.6543" style="stroke:#181818;stroke-width:0.6999999999999998;"/><line style="stroke:#181818;stroke-width:0.6999999999999998;stroke-dasharray:2.0,2.0;" x1="63.7" x2="264.6" y1="484.6543" y2="484.6543"/><text fill="#000000" font-family="sans-serif" font-size="9.1" font-weight="bold" lengthAdjust="spacing" textLength="9.8" x="72.1" y="480.9704">12</text><text fill="#000000" font-family="sans-serif" font-size="9.1" lengthAdjust="spacing" textLength="151.2" x="84.7" y="480.9704">shows and aks to confirm all the data</text><polygon fill="#181818" points="253.4,503.758,260.4,506.558,253.4,509.358,256.2,506.558" style="stroke:#181818;stroke-width:0.6999999999999998;"/><line style="stroke:#181818;stroke-width:0.6999999999999998;" x1="60.2" x2="257.6" y1="506.558" y2="506.558"/><text fill="#000000" font-family="sans-serif" font-size="9.1" font-weight="bold" lengthAdjust="spacing" textLength="9.8" x="65.1" y="502.8741">13</text><text fill="#000000" font-family="sans-serif" font-size="9.1" lengthAdjust="spacing" textLength="81.9" x="77.7" y="502.8741">confirms all the data</text><polygon fill="#181818" points="67.9,525.6617,60.9,528.4617,67.9,531.2617,65.1,528.4617" style="stroke:#181818;stroke-width:0.6999999999999998;"/><line style="stroke:#181818;stroke-width:0.6999999999999998;stroke-dasharray:2.0,2.0;" x1="63.7" x2="264.6" y1="528.4617" y2="528.4617"/><text fill="#000000" font-family="sans-serif" font-size="9.1" font-weight="bold" lengthAdjust="spacing" textLength="9.8" x="72.1" y="524.7778">14</text><text fill="#000000" font-family="sans-serif" font-size="9.1" lengthAdjust="spacing" textLength="110.6" x="84.7" y="524.7778">displays operation success</text><!--SRC=[dLGxSzim3DxrAt2UsY53LmyPug79NNBNSv8j2qB14iyKeH9K7FtxW9GVScIbbtAIOU1xW01bQtsB0HjesBEf0pS4CNHKoF6V5iqMAtgClIC8P2BwoeqJfCQITzPNi44dL1He8WTOt7ODUbYJS1SCoOj_GAz0OG4eSBj-ABGyMcDRz14MopLLLkBZrZedptSvwVdkYvmL-nZOkJtWwcbzhzHTPDyrhnJWLnPYtp1IPYj0Ztx0rRK2mrABjWAHeI9F8MKXH4g60xSiw791EaSOrPE3MdwbA0bigItvsv54WLrjJGrMCMk2ndhRT0sWBryyDFYUV-sbyMPWCYeVNrd9EKX6BkcCRA8vzYrD2ARmIZb3y6q_62ZpIMuwUAAIoajQKyWnjwbE9yNwI3wb7cddlMJiUNc7asHUvujUwgN5OHYe7CRXNhz__2ocACDW7CA1Di1lsgGS7gF_fWW7I1Wm8O4UazHEAZzX9OZSk6mdJEGS4qUTEgdv7DnJd6vaP7KrliURVkhu0lvbfydb6HhSz1EtPqxFNPev9SMiqKzU_kpNwqa7zB_a7m0W8VnBRpjYkonnkW5IyqxoOk7mGXZs6njqrvpByrfYnBaL64_ulawcXL-lO6cbTTWBS9jU9iiUf3FwXbvy93u0]--></g></svg>