<?xml version="1.0" encoding="us-ascii" standalone="no"?><svg xmlns="http://www.w3.org/2000/svg" xmlns:xlink="http://www.w3.org/1999/xlink" contentStyleType="text/css" height="927.5px" preserveAspectRatio="none" style="width:1305px;height:927px;background:#FFFFFF;" version="1.1" viewBox="0 0 1305 927" width="1305.5px" zoomAndPan="magnify"><defs/><g><rect fill="#FFFFFF" height="772.0262" style="stroke:#181818;stroke-width:0.6999999999999998;" width="7" x="42.7" y="78.5695"/><rect fill="#FFFFFF" height="34.0074" style="stroke:#181818;stroke-width:0.6999999999999998;" width="7" x="251.3" y="94.8732"/><rect fill="#FFFFFF" height="197.1334" style="stroke:#181818;stroke-width:0.6999999999999998;" width="7" x="251.3" y="162.8881"/><rect fill="#FFFFFF" height="418.5631" style="stroke:#181818;stroke-width:0.6999999999999998;" width="7" x="251.3" y="381.9252"/><rect fill="#FFFFFF" height="21.9037" style="stroke:#181818;stroke-width:0.6999999999999998;" width="7" x="251.3" y="822.392"/><rect fill="#FFFFFF" height="153.326" style="stroke:#181818;stroke-width:0.6999999999999998;" width="7" x="406" y="184.7918"/><rect fill="#FFFFFF" height="266.1408" style="stroke:#181818;stroke-width:0.6999999999999998;" width="7" x="406" y="424.8289"/><rect fill="#FFFFFF" height="65.7111" style="stroke:#181818;stroke-width:0.6999999999999998;" width="7" x="406" y="712.8734"/><rect fill="#FFFFFF" height="21.9037" style="stroke:#181818;stroke-width:0.6999999999999998;" width="7" x="500.15" y="206.6955"/><rect fill="#FFFFFF" height="21.9037" style="stroke:#181818;stroke-width:0.6999999999999998;" width="7" x="575.05" y="250.5029"/><rect fill="#FFFFFF" height="21.9037" style="stroke:#181818;stroke-width:0.6999999999999998;" width="7" x="676.9" y="294.3104"/><rect fill="#FFFFFF" height="222.3334" style="stroke:#181818;stroke-width:0.6999999999999998;" width="7" x="824.25" y="446.7326"/><rect fill="#FFFFFF" height="89.0148" style="stroke:#181818;stroke-width:0.6999999999999998;" width="7" x="968.8" y="487.04"/><rect fill="#FFFFFF" height="21.9037" style="stroke:#181818;stroke-width:0.6999999999999998;" width="7" x="1102.5" y="527.3475"/><rect fill="#FFFFFF" height="21" style="stroke:#181818;stroke-width:0.6999999999999998;" width="7" x="1221.85" y="616.3623"/><rect fill="#FFFFFF" height="21.9037" style="stroke:#181818;stroke-width:0.6999999999999998;" width="7" x="1221.85" y="734.7771"/><rect fill="none" height="190.6297" style="stroke:#000000;stroke-width:1.0499999999999998;" width="567.35" x="734.3" y="457.2326"/><rect fill="none" height="57.3111" style="stroke:#000000;stroke-width:1.0499999999999998;" width="255.85" x="907.2" y="497.54"/><rect fill="none" height="56.4074" style="stroke:#000000;stroke-width:1.0499999999999998;" width="553.35" x="741.3" y="586.5549"/><line style="stroke:#181818;stroke-width:0.3499999999999999;stroke-dasharray:5.0,5.0;" x1="46.2" x2="46.2" y1="71.5695" y2="856.8957"/><line style="stroke:#181818;stroke-width:0.3499999999999999;stroke-dasharray:5.0,5.0;" x1="254.8" x2="254.8" y1="71.5695" y2="856.8957"/><line style="stroke:#181818;stroke-width:0.3499999999999999;stroke-dasharray:5.0,5.0;" x1="409.5" x2="409.5" y1="71.5695" y2="856.8957"/><line style="stroke:#181818;stroke-width:0.3499999999999999;stroke-dasharray:5.0,5.0;" x1="503.3" x2="503.3" y1="71.5695" y2="856.8957"/><line style="stroke:#181818;stroke-width:0.3499999999999999;stroke-dasharray:5.0,5.0;" x1="578.2" x2="578.2" y1="71.5695" y2="856.8957"/><line style="stroke:#181818;stroke-width:0.3499999999999999;stroke-dasharray:5.0,5.0;" x1="680.4" x2="680.4" y1="71.5695" y2="856.8957"/><line style="stroke:#181818;stroke-width:0.3499999999999999;stroke-dasharray:5.0,5.0;" x1="827.4" x2="827.4" y1="71.5695" y2="856.8957"/><line style="stroke:#181818;stroke-width:0.3499999999999999;stroke-dasharray:5.0,5.0;" x1="972.3" x2="972.3" y1="71.5695" y2="856.8957"/><line style="stroke:#181818;stroke-width:0.3499999999999999;stroke-dasharray:5.0,5.0;" x1="1105.65" x2="1105.65" y1="71.5695" y2="856.8957"/><line style="stroke:#181818;stroke-width:0.3499999999999999;stroke-dasharray:5.0,5.0;" x1="1225.35" x2="1225.35" y1="71.5695" y2="856.8957"/><text fill="#000000" font-family="sans-serif" font-size="9.8" lengthAdjust="spacing" textLength="81.2" x="3.5" y="56.0752">Human Resources</text><text fill="#000000" font-family="sans-serif" font-size="9.8" lengthAdjust="spacing" textLength="39.2" x="24.5" y="69.11">Manager</text><ellipse cx="46.2" cy="9.45" fill="#E3E3E3" rx="5.6" ry="5.6" style="stroke:#181818;stroke-width:0.3499999999999999;"/><path d="M46.2,15.05 L46.2,33.95 M37.1,20.65 L55.3,20.65 M46.2,33.95 L37.1,44.45 M46.2,33.95 L55.3,44.45 " fill="none" style="stroke:#181818;stroke-width:0.3499999999999999;"/><text fill="#000000" font-family="sans-serif" font-size="9.8" lengthAdjust="spacing" textLength="81.2" x="3.5" y="866.7709">Human Resources</text><text fill="#000000" font-family="sans-serif" font-size="9.8" lengthAdjust="spacing" textLength="39.2" x="24.5" y="879.8057">Manager</text><ellipse cx="46.2" cy="888.2152" fill="#E3E3E3" rx="5.6" ry="5.6" style="stroke:#181818;stroke-width:0.3499999999999999;"/><path d="M46.2,893.8152 L46.2,912.7152 M37.1,899.4152 L55.3,899.4152 M46.2,912.7152 L37.1,923.2152 M46.2,912.7152 L55.3,923.2152 " fill="none" style="stroke:#181818;stroke-width:0.3499999999999999;"/><rect fill="#E3E3E3" height="22.8348" rx="1.75" ry="1.75" style="stroke:#181818;stroke-width:0.3499999999999999;" width="71.4" x="219.1" y="48.0348"/><text fill="#000000" font-family="sans-serif" font-size="9.8" lengthAdjust="spacing" textLength="61.6" x="224" y="63.51">:RegistSkillsUI</text><rect fill="#E3E3E3" height="22.8348" rx="1.75" ry="1.75" style="stroke:#181818;stroke-width:0.3499999999999999;" width="71.4" x="219.1" y="856.1957"/><text fill="#000000" font-family="sans-serif" font-size="9.8" lengthAdjust="spacing" textLength="61.6" x="224" y="871.6709">:RegistSkillsUI</text><rect fill="#E3E3E3" height="22.8348" rx="1.75" ry="1.75" style="stroke:#181818;stroke-width:0.3499999999999999;" width="106.4" x="356.3" y="48.0348"/><text fill="#000000" font-family="sans-serif" font-size="9.8" lengthAdjust="spacing" textLength="96.6" x="361.2" y="63.51">:RegistSkillsController</text><rect fill="#E3E3E3" height="22.8348" rx="1.75" ry="1.75" style="stroke:#181818;stroke-width:0.3499999999999999;" width="106.4" x="356.3" y="856.1957"/><text fill="#000000" font-family="sans-serif" font-size="9.8" lengthAdjust="spacing" textLength="96.6" x="361.2" y="871.6709">:RegistSkillsController</text><rect fill="#E3E3E3" height="22.8348" rx="1.75" ry="1.75" style="stroke:#181818;stroke-width:0.3499999999999999;" width="67.9" x="469.7" y="48.0348"/><text fill="#000000" font-family="sans-serif" font-size="9.8" lengthAdjust="spacing" textLength="58.1" x="474.6" y="63.51">:Repositories</text><rect fill="#E3E3E3" height="22.8348" rx="1.75" ry="1.75" style="stroke:#181818;stroke-width:0.3499999999999999;" width="67.9" x="469.7" y="856.1957"/><text fill="#000000" font-family="sans-serif" font-size="9.8" lengthAdjust="spacing" textLength="58.1" x="474.6" y="871.6709">:Repositories</text><rect fill="#E3E3E3" height="35.8695" rx="1.75" ry="1.75" style="stroke:#181818;stroke-width:0.3499999999999999;" width="67.9" x="544.6" y="35"/><text fill="#000000" font-family="sans-serif" font-size="9.8" lengthAdjust="spacing" textLength="51.8" x="552.65" y="50.4752">repositories</text><text fill="#000000" font-family="sans-serif" font-size="9.8" lengthAdjust="spacing" textLength="58.1" x="549.5" y="63.51">:Repositories</text><rect fill="#E3E3E3" height="35.8695" rx="1.75" ry="1.75" style="stroke:#181818;stroke-width:0.3499999999999999;" width="67.9" x="544.6" y="856.1957"/><text fill="#000000" font-family="sans-serif" font-size="9.8" lengthAdjust="spacing" textLength="51.8" x="552.65" y="871.6709">repositories</text><text fill="#000000" font-family="sans-serif" font-size="9.8" lengthAdjust="spacing" textLength="58.1" x="549.5" y="884.7057">:Repositories</text><rect fill="#E3E3E3" height="35.8695" rx="1.75" ry="1.75" style="stroke:#181818;stroke-width:0.3499999999999999;" width="121.8" x="619.5" y="35"/><text fill="#000000" font-family="sans-serif" font-size="9.8" lengthAdjust="spacing" textLength="105.7" x="627.55" y="50.4752">registedSkillsRepository</text><text fill="#000000" font-family="sans-serif" font-size="9.8" lengthAdjust="spacing" textLength="112" x="624.4" y="63.51">:RegistedSkillsRepository</text><rect fill="#E3E3E3" height="35.8695" rx="1.75" ry="1.75" style="stroke:#181818;stroke-width:0.3499999999999999;" width="121.8" x="619.5" y="856.1957"/><text fill="#000000" font-family="sans-serif" font-size="9.8" lengthAdjust="spacing" textLength="105.7" x="627.55" y="871.6709">registedSkillsRepository</text><text fill="#000000" font-family="sans-serif" font-size="9.8" lengthAdjust="spacing" textLength="112" x="624.4" y="884.7057">:RegistedSkillsRepository</text><rect fill="#E3E3E3" height="35.8695" rx="1.75" ry="1.75" style="stroke:#181818;stroke-width:0.3499999999999999;" width="158.9" x="748.3" y="35"/><text fill="#000000" font-family="sans-serif" font-size="9.8" lengthAdjust="spacing" textLength="142.8" x="756.35" y="50.4752">registedCollaboratorsRepository</text><text fill="#000000" font-family="sans-serif" font-size="9.8" lengthAdjust="spacing" textLength="149.1" x="753.2" y="63.51">:RegistedCollaboratorsRepository</text><rect fill="#E3E3E3" height="35.8695" rx="1.75" ry="1.75" style="stroke:#181818;stroke-width:0.3499999999999999;" width="158.9" x="748.3" y="856.1957"/><text fill="#000000" font-family="sans-serif" font-size="9.8" lengthAdjust="spacing" textLength="142.8" x="756.35" y="871.6709">registedCollaboratorsRepository</text><text fill="#000000" font-family="sans-serif" font-size="9.8" lengthAdjust="spacing" textLength="149.1" x="753.2" y="884.7057">:RegistedCollaboratorsRepository</text><rect fill="#E3E3E3" height="35.8695" rx="1.75" ry="1.75" style="stroke:#181818;stroke-width:0.3499999999999999;" width="116.2" x="914.2" y="35"/><text fill="#000000" font-family="sans-serif" font-size="9.8" lengthAdjust="spacing" textLength="77" x="933.8" y="50.4752">CollaboratorSkills</text><text fill="#000000" font-family="sans-serif" font-size="9.8" lengthAdjust="spacing" textLength="106.4" x="919.1" y="63.51">:List&lt;CollaboratorSkills&gt;</text><rect fill="#E3E3E3" height="35.8695" rx="1.75" ry="1.75" style="stroke:#181818;stroke-width:0.3499999999999999;" width="116.2" x="914.2" y="856.1957"/><text fill="#000000" font-family="sans-serif" font-size="9.8" lengthAdjust="spacing" textLength="77" x="933.8" y="871.6709">CollaboratorSkills</text><text fill="#000000" font-family="sans-serif" font-size="9.8" lengthAdjust="spacing" textLength="106.4" x="919.1" y="884.7057">:List&lt;CollaboratorSkills&gt;</text><rect fill="#E3E3E3" height="35.8695" rx="1.75" ry="1.75" style="stroke:#181818;stroke-width:0.3499999999999999;" width="100.1" x="1055.95" y="35"/><text fill="#000000" font-family="sans-serif" font-size="9.8" lengthAdjust="spacing" textLength="60.9" x="1075.55" y="50.4752">SkillsSelected</text><text fill="#000000" font-family="sans-serif" font-size="9.8" lengthAdjust="spacing" textLength="90.3" x="1060.85" y="63.51">:List&lt;SkillsSelected&gt;</text><rect fill="#E3E3E3" height="35.8695" rx="1.75" ry="1.75" style="stroke:#181818;stroke-width:0.3499999999999999;" width="100.1" x="1055.95" y="856.1957"/><text fill="#000000" font-family="sans-serif" font-size="9.8" lengthAdjust="spacing" textLength="60.9" x="1075.55" y="871.6709">SkillsSelected</text><text fill="#000000" font-family="sans-serif" font-size="9.8" lengthAdjust="spacing" textLength="90.3" x="1060.85" y="884.7057">:List&lt;SkillsSelected&gt;</text><rect fill="#E3E3E3" height="35.8695" rx="1.75" ry="1.75" style="stroke:#181818;stroke-width:0.3499999999999999;" width="124.6" x="1163.05" y="35"/><text fill="#000000" font-family="sans-serif" font-size="9.8" lengthAdjust="spacing" textLength="111.3" x="1169.7" y="50.4752">proposalTeamRepository</text><text fill="#000000" font-family="sans-serif" font-size="9.8" lengthAdjust="spacing" textLength="114.8" x="1167.95" y="63.51">:ProposalTeamRepository</text><rect fill="#E3E3E3" height="35.8695" rx="1.75" ry="1.75" style="stroke:#181818;stroke-width:0.3499999999999999;" width="124.6" x="1163.05" y="856.1957"/><text fill="#000000" font-family="sans-serif" font-size="9.8" lengthAdjust="spacing" textLength="111.3" x="1169.7" y="871.6709">proposalTeamRepository</text><text fill="#000000" font-family="sans-serif" font-size="9.8" lengthAdjust="spacing" textLength="114.8" x="1167.95" y="884.7057">:ProposalTeamRepository</text><rect fill="#FFFFFF" height="772.0262" style="stroke:#181818;stroke-width:0.6999999999999998;" width="7" x="42.7" y="78.5695"/><rect fill="#FFFFFF" height="34.0074" style="stroke:#181818;stroke-width:0.6999999999999998;" width="7" x="251.3" y="94.8732"/><rect fill="#FFFFFF" height="197.1334" style="stroke:#181818;stroke-width:0.6999999999999998;" width="7" x="251.3" y="162.8881"/><rect fill="#FFFFFF" height="418.5631" style="stroke:#181818;stroke-width:0.6999999999999998;" width="7" x="251.3" y="381.9252"/><rect fill="#FFFFFF" height="21.9037" style="stroke:#181818;stroke-width:0.6999999999999998;" width="7" x="251.3" y="822.392"/><rect fill="#FFFFFF" height="153.326" style="stroke:#181818;stroke-width:0.6999999999999998;" width="7" x="406" y="184.7918"/><rect fill="#FFFFFF" height="266.1408" style="stroke:#181818;stroke-width:0.6999999999999998;" width="7" x="406" y="424.8289"/><rect fill="#FFFFFF" height="65.7111" style="stroke:#181818;stroke-width:0.6999999999999998;" width="7" x="406" y="712.8734"/><rect fill="#FFFFFF" height="21.9037" style="stroke:#181818;stroke-width:0.6999999999999998;" width="7" x="500.15" y="206.6955"/><rect fill="#FFFFFF" height="21.9037" style="stroke:#181818;stroke-width:0.6999999999999998;" width="7" x="575.05" y="250.5029"/><rect fill="#FFFFFF" height="21.9037" style="stroke:#181818;stroke-width:0.6999999999999998;" width="7" x="676.9" y="294.3104"/><rect fill="#FFFFFF" height="222.3334" style="stroke:#181818;stroke-width:0.6999999999999998;" width="7" x="824.25" y="446.7326"/><rect fill="#FFFFFF" height="89.0148" style="stroke:#181818;stroke-width:0.6999999999999998;" width="7" x="968.8" y="487.04"/><rect fill="#FFFFFF" height="21.9037" style="stroke:#181818;stroke-width:0.6999999999999998;" width="7" x="1102.5" y="527.3475"/><rect fill="#FFFFFF" height="21" style="stroke:#181818;stroke-width:0.6999999999999998;" width="7" x="1221.85" y="616.3623"/><rect fill="#FFFFFF" height="21.9037" style="stroke:#181818;stroke-width:0.6999999999999998;" width="7" x="1221.85" y="734.7771"/><polygon fill="#181818" points="242.9,92.0732,249.9,94.8732,242.9,97.6732,245.7,94.8732" style="stroke:#181818;stroke-width:0.6999999999999998;"/><line style="stroke:#181818;stroke-width:0.6999999999999998;" x1="49.7" x2="247.1" y1="94.8732" y2="94.8732"/><text fill="#000000" font-family="sans-serif" font-size="9.1" font-weight="bold" lengthAdjust="spacing" textLength="4.9" x="54.6" y="91.1894">1</text><text fill="#000000" font-family="sans-serif" font-size="9.1" lengthAdjust="spacing" textLength="135.8" x="62.3" y="91.1894">asks to generate a team proposal</text><polygon fill="#181818" points="57.4,126.0807,50.4,128.8807,57.4,131.6807,54.6,128.8807" style="stroke:#181818;stroke-width:0.6999999999999998;"/><line style="stroke:#181818;stroke-width:0.6999999999999998;stroke-dasharray:2.0,2.0;" x1="53.2" x2="254.1" y1="128.8807" y2="128.8807"/><text fill="#000000" font-family="sans-serif" font-size="9.1" font-weight="bold" lengthAdjust="spacing" textLength="4.9" x="61.6" y="119.1449">2</text><text fill="#000000" font-family="sans-serif" font-size="9.1" lengthAdjust="spacing" textLength="143.5" x="69.3" y="113.0931">requests which is the minimum and</text><text fill="#000000" font-family="sans-serif" font-size="9.1" lengthAdjust="spacing" textLength="160.3" x="72.1" y="125.1968">maximum number of team collaborators</text><polygon fill="#181818" points="242.9,160.0881,249.9,162.8881,242.9,165.6881,245.7,162.8881" style="stroke:#181818;stroke-width:0.6999999999999998;"/><line style="stroke:#181818;stroke-width:0.6999999999999998;" x1="49.7" x2="247.1" y1="162.8881" y2="162.8881"/><text fill="#000000" font-family="sans-serif" font-size="9.1" font-weight="bold" lengthAdjust="spacing" textLength="4.9" x="54.6" y="153.1523">3</text><text fill="#000000" font-family="sans-serif" font-size="9.1" lengthAdjust="spacing" textLength="180.6" x="62.3" y="147.1005">types the minimum and maximum number of</text><text fill="#000000" font-family="sans-serif" font-size="9.1" lengthAdjust="spacing" textLength="74.9" x="65.1" y="159.2042">team collaborators</text><polygon fill="#181818" points="397.6,181.9918,404.6,184.7918,397.6,187.5918,400.4,184.7918" style="stroke:#181818;stroke-width:0.6999999999999998;"/><line style="stroke:#181818;stroke-width:0.6999999999999998;" x1="258.3" x2="401.8" y1="184.7918" y2="184.7918"/><text fill="#000000" font-family="sans-serif" font-size="9.1" font-weight="bold" lengthAdjust="spacing" textLength="4.9" x="263.2" y="181.1079">4</text><text fill="#000000" font-family="sans-serif" font-size="9.1" lengthAdjust="spacing" textLength="91" x="270.9" y="181.1079">getRegistedSkillsList()</text><polygon fill="#181818" points="491.75,203.8955,498.75,206.6955,491.75,209.4955,494.55,206.6955" style="stroke:#181818;stroke-width:0.6999999999999998;"/><line style="stroke:#181818;stroke-width:0.6999999999999998;" x1="413" x2="495.95" y1="206.6955" y2="206.6955"/><text fill="#000000" font-family="sans-serif" font-size="9.1" font-weight="bold" lengthAdjust="spacing" textLength="4.9" x="417.9" y="203.0116">5</text><text fill="#000000" font-family="sans-serif" font-size="9.1" lengthAdjust="spacing" textLength="52.5" x="425.6" y="203.0116">getInstance()</text><polygon fill="#181818" points="420.7,225.7992,413.7,228.5992,420.7,231.3992,417.9,228.5992" style="stroke:#181818;stroke-width:0.6999999999999998;"/><line style="stroke:#181818;stroke-width:0.6999999999999998;stroke-dasharray:2.0,2.0;" x1="416.5" x2="502.95" y1="228.5992" y2="228.5992"/><text fill="#000000" font-family="sans-serif" font-size="9.1" font-weight="bold" lengthAdjust="spacing" textLength="4.9" x="424.9" y="224.9153">6</text><text fill="#000000" font-family="sans-serif" font-size="9.1" lengthAdjust="spacing" textLength="46.9" x="432.6" y="224.9153">repositories</text><polygon fill="#181818" points="566.65,247.7029,573.65,250.5029,566.65,253.3029,569.45,250.5029" style="stroke:#181818;stroke-width:0.6999999999999998;"/><line style="stroke:#181818;stroke-width:0.6999999999999998;" x1="413" x2="570.85" y1="250.5029" y2="250.5029"/><text fill="#000000" font-family="sans-serif" font-size="9.1" font-weight="bold" lengthAdjust="spacing" textLength="4.9" x="417.9" y="246.819">7</text><text fill="#000000" font-family="sans-serif" font-size="9.1" lengthAdjust="spacing" textLength="119.7" x="425.6" y="246.819">getRegistedSkillsRepository()</text><polygon fill="#181818" points="420.7,269.6066,413.7,272.4066,420.7,275.2066,417.9,272.4066" style="stroke:#181818;stroke-width:0.6999999999999998;"/><line style="stroke:#181818;stroke-width:0.6999999999999998;stroke-dasharray:2.0,2.0;" x1="416.5" x2="577.85" y1="272.4066" y2="272.4066"/><text fill="#000000" font-family="sans-serif" font-size="9.1" font-weight="bold" lengthAdjust="spacing" textLength="4.9" x="424.9" y="268.7228">8</text><text fill="#000000" font-family="sans-serif" font-size="9.1" lengthAdjust="spacing" textLength="98" x="432.6" y="268.7228">registedSkillsRepository</text><polygon fill="#181818" points="668.5,291.5104,675.5,294.3104,668.5,297.1104,671.3,294.3104" style="stroke:#181818;stroke-width:0.6999999999999998;"/><line style="stroke:#181818;stroke-width:0.6999999999999998;" x1="413" x2="672.7" y1="294.3104" y2="294.3104"/><text fill="#000000" font-family="sans-serif" font-size="9.1" font-weight="bold" lengthAdjust="spacing" textLength="4.9" x="417.9" y="290.6265">9</text><text fill="#000000" font-family="sans-serif" font-size="9.1" lengthAdjust="spacing" textLength="91" x="425.6" y="290.6265">getRegistedSkillsList()</text><polygon fill="#181818" points="420.7,313.4141,413.7,316.2141,420.7,319.0141,417.9,316.2141" style="stroke:#181818;stroke-width:0.6999999999999998;"/><line style="stroke:#181818;stroke-width:0.6999999999999998;stroke-dasharray:2.0,2.0;" x1="416.5" x2="679.7" y1="316.2141" y2="316.2141"/><text fill="#000000" font-family="sans-serif" font-size="9.1" font-weight="bold" lengthAdjust="spacing" textLength="9.8" x="424.9" y="312.5302">10</text><text fill="#000000" font-family="sans-serif" font-size="9.1" lengthAdjust="spacing" textLength="69.3" x="437.5" y="312.5302">registedSkillsList</text><polygon fill="#181818" points="266,335.3178,259,338.1178,266,340.9178,263.2,338.1178" style="stroke:#181818;stroke-width:0.6999999999999998;"/><line style="stroke:#181818;stroke-width:0.6999999999999998;stroke-dasharray:2.0,2.0;" x1="261.8" x2="408.8" y1="338.1178" y2="338.1178"/><text fill="#000000" font-family="sans-serif" font-size="9.1" font-weight="bold" lengthAdjust="spacing" textLength="9.8" x="270.2" y="334.4339">11</text><text fill="#000000" font-family="sans-serif" font-size="9.1" lengthAdjust="spacing" textLength="69.3" x="282.8" y="334.4339">registedSkillsList</text><polygon fill="#181818" points="57.4,357.2215,50.4,360.0215,57.4,362.8215,54.6,360.0215" style="stroke:#181818;stroke-width:0.6999999999999998;"/><line style="stroke:#181818;stroke-width:0.6999999999999998;stroke-dasharray:2.0,2.0;" x1="53.2" x2="254.1" y1="360.0215" y2="360.0215"/><text fill="#000000" font-family="sans-serif" font-size="9.1" font-weight="bold" lengthAdjust="spacing" textLength="9.8" x="61.6" y="356.3376">12</text><text fill="#000000" font-family="sans-serif" font-size="9.1" lengthAdjust="spacing" textLength="149.1" x="74.2" y="356.3376">requests to selects the skills needed</text><polygon fill="#181818" points="242.9,379.1252,249.9,381.9252,242.9,384.7252,245.7,381.9252" style="stroke:#181818;stroke-width:0.6999999999999998;"/><line style="stroke:#181818;stroke-width:0.6999999999999998;" x1="49.7" x2="247.1" y1="381.9252" y2="381.9252"/><text fill="#000000" font-family="sans-serif" font-size="9.1" font-weight="bold" lengthAdjust="spacing" textLength="9.8" x="54.6" y="378.2413">13</text><text fill="#000000" font-family="sans-serif" font-size="9.1" lengthAdjust="spacing" textLength="68.6" x="67.2" y="378.2413">selects the skills</text><polygon fill="#181818" points="397.6,422.0289,404.6,424.8289,397.6,427.6289,400.4,424.8289" style="stroke:#181818;stroke-width:0.6999999999999998;"/><line style="stroke:#181818;stroke-width:0.6999999999999998;" x1="258.3" x2="401.8" y1="424.8289" y2="424.8289"/><text fill="#000000" font-family="sans-serif" font-size="9.1" font-weight="bold" lengthAdjust="spacing" textLength="9.8" x="263.2" y="421.145">14</text><text fill="#000000" font-family="sans-serif" font-size="9.1" lengthAdjust="spacing" textLength="121.8" x="275.8" y="421.145">getRegistedCollaboratorsList()</text><polygon fill="#181818" points="815.85,443.9326,822.85,446.7326,815.85,449.5326,818.65,446.7326" style="stroke:#181818;stroke-width:0.6999999999999998;"/><line style="stroke:#181818;stroke-width:0.6999999999999998;" x1="413" x2="820.05" y1="446.7326" y2="446.7326"/><text fill="#000000" font-family="sans-serif" font-size="9.1" font-weight="bold" lengthAdjust="spacing" textLength="9.8" x="417.9" y="443.0487">15</text><text fill="#000000" font-family="sans-serif" font-size="9.1" lengthAdjust="spacing" textLength="121.8" x="430.5" y="443.0487">getRegistedCollaboratorsList()</text><path d="M734.3,457.2326 L785.4,457.2326 L785.4,463.7363 L778.4,470.7363 L734.3,470.7363 L734.3,457.2326 " fill="#EEEEEE" style="stroke:#000000;stroke-width:1.0499999999999998;"/><rect fill="none" height="190.6297" style="stroke:#000000;stroke-width:1.0499999999999998;" width="567.35" x="734.3" y="457.2326"/><text fill="#000000" font-family="sans-serif" font-size="9.1" font-weight="bold" lengthAdjust="spacing" textLength="19.6" x="744.8" y="467.7524">loop</text><text fill="#000000" font-family="sans-serif" font-size="7.7" font-weight="bold" lengthAdjust="spacing" textLength="85.4" x="795.9" y="466.9417">[for each collaborator]</text><polygon fill="#181818" points="960.4,484.24,967.4,487.04,960.4,489.84,963.2,487.04" style="stroke:#181818;stroke-width:0.6999999999999998;"/><line style="stroke:#181818;stroke-width:0.6999999999999998;" x1="831.25" x2="964.6" y1="487.04" y2="487.04"/><text fill="#000000" font-family="sans-serif" font-size="9.1" font-weight="bold" lengthAdjust="spacing" textLength="9.8" x="836.15" y="483.3562">16</text><text fill="#000000" font-family="sans-serif" font-size="9.1" lengthAdjust="spacing" textLength="103.6" x="848.75" y="483.3562">getCollaboratorSkillsList()</text><path d="M907.2,497.54 L958.3,497.54 L958.3,504.0437 L951.3,511.0437 L907.2,511.0437 L907.2,497.54 " fill="#EEEEEE" style="stroke:#000000;stroke-width:1.0499999999999998;"/><rect fill="none" height="57.3111" style="stroke:#000000;stroke-width:1.0499999999999998;" width="255.85" x="907.2" y="497.54"/><text fill="#000000" font-family="sans-serif" font-size="9.1" font-weight="bold" lengthAdjust="spacing" textLength="19.6" x="917.7" y="508.0599">loop</text><text fill="#000000" font-family="sans-serif" font-size="7.7" font-weight="bold" lengthAdjust="spacing" textLength="131.6" x="968.8" y="507.2491">[for each Skill of that Collaborator]</text><polygon fill="#181818" points="1094.1,524.5475,1101.1,527.3475,1094.1,530.1475,1096.9,527.3475" style="stroke:#181818;stroke-width:0.6999999999999998;"/><line style="stroke:#181818;stroke-width:0.6999999999999998;" x1="975.8" x2="1098.3" y1="527.3475" y2="527.3475"/><text fill="#000000" font-family="sans-serif" font-size="9.1" font-weight="bold" lengthAdjust="spacing" textLength="9.8" x="980.7" y="523.6636">17</text><text fill="#000000" font-family="sans-serif" font-size="9.1" lengthAdjust="spacing" textLength="100.8" x="993.3" y="523.6636">e = equalSkill(skillName)</text><polygon fill="#181818" points="983.5,546.4512,976.5,549.2512,983.5,552.0512,980.7,549.2512" style="stroke:#181818;stroke-width:0.6999999999999998;"/><line style="stroke:#181818;stroke-width:0.6999999999999998;stroke-dasharray:2.0,2.0;" x1="979.3" x2="1105.3" y1="549.2512" y2="549.2512"/><text fill="#000000" font-family="sans-serif" font-size="9.1" font-weight="bold" lengthAdjust="spacing" textLength="9.8" x="987.7" y="545.5673">18</text><text fill="#000000" font-family="sans-serif" font-size="9.1" lengthAdjust="spacing" textLength="37.1" x="1000.3" y="545.5673">true/false</text><polygon fill="#181818" points="838.95,573.2549,831.95,576.0549,838.95,578.8549,836.15,576.0549" style="stroke:#181818;stroke-width:0.6999999999999998;"/><line style="stroke:#181818;stroke-width:0.6999999999999998;stroke-dasharray:2.0,2.0;" x1="834.75" x2="971.6" y1="576.0549" y2="576.0549"/><text fill="#000000" font-family="sans-serif" font-size="9.1" font-weight="bold" lengthAdjust="spacing" textLength="9.8" x="843.15" y="572.371">19</text><text fill="#000000" font-family="sans-serif" font-size="9.1" lengthAdjust="spacing" textLength="37.1" x="855.75" y="572.371">true/false</text><path d="M741.3,586.5549 L786.8,586.5549 L786.8,593.0586 L779.8,600.0586 L741.3,600.0586 L741.3,586.5549 " fill="#EEEEEE" style="stroke:#000000;stroke-width:1.0499999999999998;"/><rect fill="none" height="56.4074" style="stroke:#000000;stroke-width:1.0499999999999998;" width="553.35" x="741.3" y="586.5549"/><text fill="#000000" font-family="sans-serif" font-size="9.1" font-weight="bold" lengthAdjust="spacing" textLength="14" x="751.8" y="597.0747">opt</text><text fill="#000000" font-family="sans-serif" font-size="7.7" font-weight="bold" lengthAdjust="spacing" textLength="35" x="797.3" y="596.264">[e = true]</text><polygon fill="#181818" points="1213.45,613.5623,1220.45,616.3623,1213.45,619.1623,1216.25,616.3623" style="stroke:#181818;stroke-width:0.6999999999999998;"/><line style="stroke:#181818;stroke-width:0.6999999999999998;" x1="831.25" x2="1217.65" y1="616.3623" y2="616.3623"/><text fill="#000000" font-family="sans-serif" font-size="9.1" font-weight="bold" lengthAdjust="spacing" textLength="9.8" x="836.15" y="612.6784">20</text><text fill="#000000" font-family="sans-serif" font-size="9.1" lengthAdjust="spacing" textLength="69.3" x="848.75" y="612.6784">add(colllaborator)</text><polygon fill="#181818" points="420.7,666.266,413.7,669.066,420.7,671.866,417.9,669.066" style="stroke:#181818;stroke-width:0.6999999999999998;"/><line style="stroke:#181818;stroke-width:0.6999999999999998;stroke-dasharray:2.0,2.0;" x1="416.5" x2="827.05" y1="669.066" y2="669.066"/><text fill="#000000" font-family="sans-serif" font-size="9.1" font-weight="bold" lengthAdjust="spacing" textLength="9.8" x="424.9" y="665.3821">21</text><text fill="#000000" font-family="sans-serif" font-size="9.1" lengthAdjust="spacing" textLength="2.8" x="437.5" y="665.3821">&#160;</text><polygon fill="#181818" points="266,688.1697,259,690.9697,266,693.7697,263.2,690.9697" style="stroke:#181818;stroke-width:0.6999999999999998;"/><line style="stroke:#181818;stroke-width:0.6999999999999998;stroke-dasharray:2.0,2.0;" x1="261.8" x2="408.8" y1="690.9697" y2="690.9697"/><text fill="#000000" font-family="sans-serif" font-size="9.1" font-weight="bold" lengthAdjust="spacing" textLength="9.8" x="270.2" y="687.2858">22</text><text fill="#000000" font-family="sans-serif" font-size="9.1" lengthAdjust="spacing" textLength="2.8" x="282.8" y="687.2858">&#160;</text><polygon fill="#181818" points="397.6,710.0734,404.6,712.8734,397.6,715.6734,400.4,712.8734" style="stroke:#181818;stroke-width:0.6999999999999998;"/><line style="stroke:#181818;stroke-width:0.6999999999999998;" x1="258.3" x2="401.8" y1="712.8734" y2="712.8734"/><text fill="#000000" font-family="sans-serif" font-size="9.1" font-weight="bold" lengthAdjust="spacing" textLength="9.8" x="263.2" y="709.1896">23</text><text fill="#000000" font-family="sans-serif" font-size="9.1" lengthAdjust="spacing" textLength="76.3" x="275.8" y="709.1896">getProposalTeam()</text><polygon fill="#181818" points="1213.45,731.9771,1220.45,734.7771,1213.45,737.5771,1216.25,734.7771" style="stroke:#181818;stroke-width:0.6999999999999998;"/><line style="stroke:#181818;stroke-width:0.6999999999999998;" x1="413" x2="1217.65" y1="734.7771" y2="734.7771"/><text fill="#000000" font-family="sans-serif" font-size="9.1" font-weight="bold" lengthAdjust="spacing" textLength="9.8" x="417.9" y="731.0933">24</text><text fill="#000000" font-family="sans-serif" font-size="9.1" lengthAdjust="spacing" textLength="76.3" x="430.5" y="731.0933">getProposalTeam()</text><polygon fill="#181818" points="420.7,753.8809,413.7,756.6809,420.7,759.4809,417.9,756.6809" style="stroke:#181818;stroke-width:0.6999999999999998;"/><line style="stroke:#181818;stroke-width:0.6999999999999998;stroke-dasharray:2.0,2.0;" x1="416.5" x2="1224.65" y1="756.6809" y2="756.6809"/><text fill="#000000" font-family="sans-serif" font-size="9.1" font-weight="bold" lengthAdjust="spacing" textLength="9.8" x="424.9" y="752.997">25</text><text fill="#000000" font-family="sans-serif" font-size="9.1" lengthAdjust="spacing" textLength="56.7" x="437.5" y="752.997">proposalTeam</text><polygon fill="#181818" points="266,775.7846,259,778.5846,266,781.3846,263.2,778.5846" style="stroke:#181818;stroke-width:0.6999999999999998;"/><line style="stroke:#181818;stroke-width:0.6999999999999998;stroke-dasharray:2.0,2.0;" x1="261.8" x2="408.8" y1="778.5846" y2="778.5846"/><text fill="#000000" font-family="sans-serif" font-size="9.1" font-weight="bold" lengthAdjust="spacing" textLength="9.8" x="270.2" y="774.9007">26</text><text fill="#000000" font-family="sans-serif" font-size="9.1" lengthAdjust="spacing" textLength="56.7" x="282.8" y="774.9007">proposalTeam</text><polygon fill="#181818" points="57.4,797.6883,50.4,800.4883,57.4,803.2883,54.6,800.4883" style="stroke:#181818;stroke-width:0.6999999999999998;"/><line style="stroke:#181818;stroke-width:0.6999999999999998;stroke-dasharray:2.0,2.0;" x1="53.2" x2="254.1" y1="800.4883" y2="800.4883"/><text fill="#000000" font-family="sans-serif" font-size="9.1" font-weight="bold" lengthAdjust="spacing" textLength="9.8" x="61.6" y="796.8044">27</text><text fill="#000000" font-family="sans-serif" font-size="9.1" lengthAdjust="spacing" textLength="151.2" x="74.2" y="796.8044">shows and aks to confirm all the data</text><polygon fill="#181818" points="242.9,819.592,249.9,822.392,242.9,825.192,245.7,822.392" style="stroke:#181818;stroke-width:0.6999999999999998;"/><line style="stroke:#181818;stroke-width:0.6999999999999998;" x1="49.7" x2="247.1" y1="822.392" y2="822.392"/><text fill="#000000" font-family="sans-serif" font-size="9.1" font-weight="bold" lengthAdjust="spacing" textLength="9.8" x="54.6" y="818.7081">28</text><text fill="#000000" font-family="sans-serif" font-size="9.1" lengthAdjust="spacing" textLength="81.9" x="67.2" y="818.7081">confirms all the data</text><polygon fill="#181818" points="57.4,841.4957,50.4,844.2957,57.4,847.0957,54.6,844.2957" style="stroke:#181818;stroke-width:0.6999999999999998;"/><line style="stroke:#181818;stroke-width:0.6999999999999998;stroke-dasharray:2.0,2.0;" x1="53.2" x2="254.1" y1="844.2957" y2="844.2957"/><text fill="#000000" font-family="sans-serif" font-size="9.1" font-weight="bold" lengthAdjust="spacing" textLength="9.8" x="61.6" y="840.6118">29</text><text fill="#000000" font-family="sans-serif" font-size="9.1" lengthAdjust="spacing" textLength="110.6" x="74.2" y="840.6118">displays operation success</text><!--SRC=[bLSzRzim4DtvAmwPai4ekXffW29B32HjO2TR5aOwMuGbKYMfflxtFLAMJ5gabMWmRF7UkyVZVT1cBsJBDM-WKL8LbLODWjKTCZEkjBpOynrkxA56q5XOBdTrQ60gNgeF8NUmvRL1ndXXbOQhXwxX4jPeLASBD6_oYKiYqbV03JoidnZ1hIX4owM5g-KQTyBOpLxKjNbTUQFNrGMRUoMjLdLz9Bn_MJzEh5jb16aHQBpD-EAm4MuJLiaOeWF4cvmIF3_-V3b7E4LOzffE3ZmwlNIKabvCiz_JFlcxqfnCqauo5f6lZ4tiCZJgnP6NHyBVJbVk-iXFtiUC_RiDrfGxM0viyTkUoItytiOhCLUh5SdczGlo9eh3StAXFxJa4gLfH-VVDU-euRjFMl6NM_IPoUW35dUKWB0aYhq1gs274hMpu63H5SQHbm4z8vnobX5iGMX7igII-TEXiGO-Ab5K88YhGcY454tN09SK4MZuF__hA4TjUmz5U62inCX9fD4UMfmGJsd9LO8ugV_ELzIITctZN7M7T7qJ1CnNdYTntnmoKMVWcLRIKFieaF0ZF5MKBCMm63M5PHg69KaL2dFr2uazdO2XCb_jp6D2tvd23NJqm3WYQHJa0npiAkEHPLa7kN2krt774Sjnzyg7_BhCqcT0EkkfS8mlvJuzZIS0YLXIRP-bj8jOcDLJ88lian8IYHirla_bxyM62RFaa_ZcMgztMolLmfP69csdYchJBm_Fd2gtyqahxhLEtn-53jodO4oRUIGYrkejVBkgk8sm4MXu4l98TAhhaso47q19n6k_SktF_nTly6P2FOfFpW_s2HMtYqLEXhiDVUilDkT4GVebFOUsA4-_vmxIgKcUP49BM08NZawrrWVKt-s-cbNf0UecOrbUktGTWV7PdFfXUW9dOfcRrs4elx9_Rp-xpQ5lfBfZjdhZBZdRZyATpRIWRCodDBE1ot05GoAyLh5F74Ky77Ben5WmbVem_cx2-qjLeUHMQBgkK1znRRxabf-FXN0a7ErD3CZVlafXsfeV35M0kxm9kaUOhg2_8vFxr7y0]--></g></svg>