<?xml version="1.0" encoding="us-ascii" standalone="no"?><svg xmlns="http://www.w3.org/2000/svg" xmlns:xlink="http://www.w3.org/1999/xlink" contentStyleType="text/css" height="903px" preserveAspectRatio="none" style="width:706px;height:902px;background:#FFFFFF;" version="1.1" viewBox="0 0 706 902" width="706.3px" zoomAndPan="magnify"><defs/><g><!--class GenerateTeamProposalUI--><g id="elem_GenerateTeamProposalUI"><rect codeLine="8" fill="#F1F1F1" height="33.6" id="GenerateTeamProposalUI" rx="1.75" ry="1.75" style="stroke:#181818;stroke-width:0.3499999999999999;" width="137.2" x="4.9" y="37.45"/><ellipse cx="15.4" cy="48.65" fill="#ADD1B2" rx="7.7" ry="7.7" style="stroke:#181818;stroke-width:0.6999999999999998;"/><path d="M17.3359,45.7625 Q17.4453,45.6094 17.5766,45.5328 Q17.7078,45.4562 17.8609,45.4562 Q18.1234,45.4562 18.2875,45.6422 Q18.4516,45.8172 18.4516,46.2437 L18.4516,47.2609 Q18.4516,47.6875 18.2875,47.8734 Q18.1234,48.0594 17.8609,48.0594 Q17.6203,48.0594 17.4781,47.9172 Q17.3359,47.7859 17.2594,47.425 Q17.2266,47.1734 17.0953,47.0422 Q16.8656,46.7797 16.4391,46.6266 Q16.0125,46.4734 15.575,46.4734 Q15.0391,46.4734 14.5906,46.7031 Q14.1531,46.9328 13.8031,47.4578 Q13.4641,47.9828 13.4641,48.7047 L13.4641,49.4703 Q13.4641,50.3344 14.0875,50.9141 Q14.7109,51.4828 15.8266,51.4828 Q16.4828,51.4828 16.9422,51.3078 Q17.2156,51.1984 17.5109,50.8922 Q17.6969,50.7062 17.7953,50.6516 Q17.9047,50.5969 18.0469,50.5969 Q18.2766,50.5969 18.4516,50.7828 Q18.6375,50.9578 18.6375,51.1984 Q18.6375,51.4391 18.3969,51.7234 Q18.0469,52.1281 17.4891,52.3578 Q16.7344,52.675 15.8266,52.675 Q14.7656,52.675 13.9234,52.2375 Q13.2344,51.8875 12.7531,51.1437 Q12.2719,50.3891 12.2719,49.4922 L12.2719,48.6828 Q12.2719,47.7531 12.6984,46.9547 Q13.1359,46.1453 13.9016,45.7187 Q14.6672,45.2812 15.5312,45.2812 Q16.0453,45.2812 16.4937,45.4016 Q16.9531,45.5109 17.3359,45.7625 Z " fill="#000000"/><text fill="#000000" font-family="sans-serif" font-size="9.8" lengthAdjust="spacing" textLength="114.8" x="25.2" y="52.7078">GenerateTeamProposalUI</text><line style="stroke:#181818;stroke-width:0.3499999999999999;" x1="5.6" x2="141.4" y1="59.85" y2="59.85"/><line style="stroke:#181818;stroke-width:0.3499999999999999;" x1="5.6" x2="141.4" y1="65.45" y2="65.45"/></g><!--class GenerateTeamProposalController--><g id="elem_GenerateTeamProposalController"><rect codeLine="11" fill="#F1F1F1" height="98.7738" id="GenerateTeamProposalController" rx="1.75" ry="1.75" style="stroke:#181818;stroke-width:0.3499999999999999;" width="431.9" x="166.95" y="4.9"/><ellipse cx="305.025" cy="16.1" fill="#ADD1B2" rx="7.7" ry="7.7" style="stroke:#181818;stroke-width:0.6999999999999998;"/><path d="M306.9609,13.2125 Q307.0703,13.0594 307.2016,12.9828 Q307.3328,12.9062 307.4859,12.9062 Q307.7484,12.9062 307.9125,13.0922 Q308.0766,13.2672 308.0766,13.6937 L308.0766,14.7109 Q308.0766,15.1375 307.9125,15.3234 Q307.7484,15.5094 307.4859,15.5094 Q307.2453,15.5094 307.1031,15.3672 Q306.9609,15.2359 306.8844,14.875 Q306.8516,14.6234 306.7203,14.4922 Q306.4906,14.2297 306.0641,14.0766 Q305.6375,13.9234 305.2,13.9234 Q304.6641,13.9234 304.2156,14.1531 Q303.7781,14.3828 303.4281,14.9078 Q303.0891,15.4328 303.0891,16.1547 L303.0891,16.9203 Q303.0891,17.7844 303.7125,18.3641 Q304.3359,18.9328 305.4516,18.9328 Q306.1078,18.9328 306.5672,18.7578 Q306.8406,18.6484 307.1359,18.3422 Q307.3219,18.1562 307.4203,18.1016 Q307.5297,18.0469 307.6719,18.0469 Q307.9016,18.0469 308.0766,18.2328 Q308.2625,18.4078 308.2625,18.6484 Q308.2625,18.8891 308.0219,19.1734 Q307.6719,19.5781 307.1141,19.8078 Q306.3594,20.125 305.4516,20.125 Q304.3906,20.125 303.5484,19.6875 Q302.8594,19.3375 302.3781,18.5937 Q301.8969,17.8391 301.8969,16.9422 L301.8969,16.1328 Q301.8969,15.2031 302.3234,14.4047 Q302.7609,13.5953 303.5266,13.1687 Q304.2922,12.7312 305.1562,12.7312 Q305.6703,12.7312 306.1187,12.8516 Q306.5781,12.9609 306.9609,13.2125 Z " fill="#000000"/><text fill="#000000" font-family="sans-serif" font-size="9.8" lengthAdjust="spacing" textLength="149.8" x="319.375" y="20.1578">GenerateTeamProposalController</text><line style="stroke:#181818;stroke-width:0.3499999999999999;" x1="167.65" x2="598.15" y1="27.3" y2="27.3"/><line style="stroke:#181818;stroke-width:0.3499999999999999;" x1="167.65" x2="598.15" y1="32.9" y2="32.9"/><text fill="#000000" font-family="sans-serif" font-size="9.8" lengthAdjust="spacing" textLength="423.5" x="171.15" y="46.2752">+GenerateTeamProposalController(SkillsRepository, CollaboratorsRepository, TeamRepository)</text><text fill="#000000" font-family="sans-serif" font-size="9.8" lengthAdjust="spacing" textLength="64.4" x="171.15" y="59.31">+getSkillsList()</text><text fill="#000000" font-family="sans-serif" font-size="9.8" lengthAdjust="spacing" textLength="101.5" x="171.15" y="72.3447">+getCollaboratorsList()</text><text fill="#000000" font-family="sans-serif" font-size="9.8" lengthAdjust="spacing" textLength="119" x="171.15" y="85.3795">+getCollaboratorSkillsList()</text><text fill="#000000" font-family="sans-serif" font-size="9.8" lengthAdjust="spacing" textLength="49.7" x="171.15" y="98.4143">-getTeam()</text></g><!--class Collaborator--><g id="elem_Collaborator"><rect codeLine="19" fill="#F1F1F1" height="137.8781" id="Collaborator" rx="1.75" ry="1.75" style="stroke:#181818;stroke-width:0.3499999999999999;" width="371.7" x="87.85" y="543.2"/><ellipse cx="243.425" cy="554.4" fill="#ADD1B2" rx="7.7" ry="7.7" style="stroke:#181818;stroke-width:0.6999999999999998;"/><path d="M245.3609,551.5125 Q245.4703,551.3594 245.6016,551.2828 Q245.7328,551.2062 245.8859,551.2062 Q246.1484,551.2062 246.3125,551.3922 Q246.4766,551.5672 246.4766,551.9937 L246.4766,553.0109 Q246.4766,553.4375 246.3125,553.6234 Q246.1484,553.8094 245.8859,553.8094 Q245.6453,553.8094 245.5031,553.6672 Q245.3609,553.5359 245.2844,553.175 Q245.2516,552.9234 245.1203,552.7922 Q244.8906,552.5297 244.4641,552.3766 Q244.0375,552.2234 243.6,552.2234 Q243.0641,552.2234 242.6156,552.4531 Q242.1781,552.6828 241.8281,553.2078 Q241.4891,553.7328 241.4891,554.4547 L241.4891,555.2203 Q241.4891,556.0844 242.1125,556.6641 Q242.7359,557.2328 243.8516,557.2328 Q244.5078,557.2328 244.9672,557.0578 Q245.2406,556.9484 245.5359,556.6422 Q245.7219,556.4562 245.8203,556.4016 Q245.9297,556.3469 246.0719,556.3469 Q246.3016,556.3469 246.4766,556.5328 Q246.6625,556.7078 246.6625,556.9484 Q246.6625,557.1891 246.4219,557.4734 Q246.0719,557.8781 245.5141,558.1078 Q244.7594,558.425 243.8516,558.425 Q242.7906,558.425 241.9484,557.9875 Q241.2594,557.6375 240.7781,556.8937 Q240.2969,556.1391 240.2969,555.2422 L240.2969,554.4328 Q240.2969,553.5031 240.7234,552.7047 Q241.1609,551.8953 241.9266,551.4687 Q242.6922,551.0312 243.5562,551.0312 Q244.0703,551.0312 244.5187,551.1516 Q244.9781,551.2609 245.3609,551.5125 Z " fill="#000000"/><text fill="#000000" font-family="sans-serif" font-size="9.8" lengthAdjust="spacing" textLength="54.6" x="257.775" y="558.4578">Collaborator</text><line style="stroke:#181818;stroke-width:0.3499999999999999;" x1="88.55" x2="458.85" y1="565.6" y2="565.6"/><text fill="#000000" font-family="sans-serif" font-size="9.8" lengthAdjust="spacing" textLength="56.7" x="92.05" y="578.9752">-String name</text><text fill="#000000" font-family="sans-serif" font-size="9.8" lengthAdjust="spacing" textLength="68.6" x="92.05" y="592.01">-Date bornDate</text><text fill="#000000" font-family="sans-serif" font-size="9.8" lengthAdjust="spacing" textLength="67.2" x="92.05" y="605.0447">-Date admDate</text><text fill="#000000" font-family="sans-serif" font-size="9.8" lengthAdjust="spacing" textLength="79.1" x="92.05" y="618.0795">-int phoneNumber</text><text fill="#000000" font-family="sans-serif" font-size="9.8" lengthAdjust="spacing" textLength="55.3" x="92.05" y="631.1143">-String email</text><text fill="#000000" font-family="sans-serif" font-size="9.8" lengthAdjust="spacing" textLength="46.2" x="92.05" y="644.149">-int idCard</text><text fill="#000000" font-family="sans-serif" font-size="9.8" lengthAdjust="spacing" textLength="58.8" x="92.05" y="657.1838">-int idNumber</text><line style="stroke:#181818;stroke-width:0.3499999999999999;" x1="88.55" x2="458.85" y1="662.4434" y2="662.4434"/><text fill="#000000" font-family="sans-serif" font-size="9.8" lengthAdjust="spacing" textLength="363.3" x="92.05" y="675.8186">+Collaborator(name, bornDate, admDate, phoneNumber, email, idCard, idNumber)</text></g><!--class Repositories--><g id="elem_Repositories"><rect codeLine="31" fill="#F1F1F1" height="98.7738" id="Repositories" rx="1.75" ry="1.75" style="stroke:#181818;stroke-width:0.3499999999999999;" width="142.1" x="311.85" y="158.9"/><ellipse cx="352.275" cy="170.1" fill="#ADD1B2" rx="7.7" ry="7.7" style="stroke:#181818;stroke-width:0.6999999999999998;"/><path d="M354.2109,167.2125 Q354.3203,167.0594 354.4516,166.9828 Q354.5828,166.9062 354.7359,166.9062 Q354.9984,166.9062 355.1625,167.0922 Q355.3266,167.2672 355.3266,167.6937 L355.3266,168.7109 Q355.3266,169.1375 355.1625,169.3234 Q354.9984,169.5094 354.7359,169.5094 Q354.4953,169.5094 354.3531,169.3672 Q354.2109,169.2359 354.1344,168.875 Q354.1016,168.6234 353.9703,168.4922 Q353.7406,168.2297 353.3141,168.0766 Q352.8875,167.9234 352.45,167.9234 Q351.9141,167.9234 351.4656,168.1531 Q351.0281,168.3828 350.6781,168.9078 Q350.3391,169.4328 350.3391,170.1547 L350.3391,170.9203 Q350.3391,171.7844 350.9625,172.3641 Q351.5859,172.9328 352.7016,172.9328 Q353.3578,172.9328 353.8172,172.7578 Q354.0906,172.6484 354.3859,172.3422 Q354.5719,172.1562 354.6703,172.1016 Q354.7797,172.0469 354.9219,172.0469 Q355.1516,172.0469 355.3266,172.2328 Q355.5125,172.4078 355.5125,172.6484 Q355.5125,172.8891 355.2719,173.1734 Q354.9219,173.5781 354.3641,173.8078 Q353.6094,174.125 352.7016,174.125 Q351.6406,174.125 350.7984,173.6875 Q350.1094,173.3375 349.6281,172.5937 Q349.1469,171.8391 349.1469,170.9422 L349.1469,170.1328 Q349.1469,169.2031 349.5734,168.4047 Q350.0109,167.5953 350.7766,167.1687 Q351.5422,166.7312 352.4062,166.7312 Q352.9203,166.7312 353.3687,166.8516 Q353.8281,166.9609 354.2109,167.2125 Z " fill="#000000"/><text fill="#000000" font-family="sans-serif" font-size="9.8" lengthAdjust="spacing" textLength="55.3" x="366.625" y="174.1578">Repositories</text><line style="stroke:#181818;stroke-width:0.3499999999999999;" x1="312.55" x2="453.25" y1="181.3" y2="181.3"/><line style="stroke:#181818;stroke-width:0.3499999999999999;" x1="312.55" x2="453.25" y1="186.9" y2="186.9"/><text fill="#000000" font-family="sans-serif" font-size="9.8" lengthAdjust="spacing" textLength="65.8" x="316.05" y="200.2752">-Repositories()</text><text fill="#000000" font-family="sans-serif" font-size="9.8" lengthAdjust="spacing" textLength="127.4" x="316.05" y="213.31">+getInstance() : Repositories</text><text fill="#000000" font-family="sans-serif" font-size="9.8" lengthAdjust="spacing" textLength="96.6" x="316.05" y="226.3447">+getSkillsRepository()</text><text fill="#000000" font-family="sans-serif" font-size="9.8" lengthAdjust="spacing" textLength="133.7" x="316.05" y="239.3795">+getCollaboratorsRepository()</text><text fill="#000000" font-family="sans-serif" font-size="9.8" lengthAdjust="spacing" textLength="99.4" x="316.05" y="252.4143">+getTeamRepository()</text></g><!--class CollaboratorsRepository--><g id="elem_CollaboratorsRepository"><rect codeLine="39" fill="#F1F1F1" height="46.6348" id="CollaboratorsRepository" rx="1.75" ry="1.75" style="stroke:#181818;stroke-width:0.3499999999999999;" width="129.5" x="370.65" y="428.05"/><ellipse cx="381.15" cy="439.25" fill="#ADD1B2" rx="7.7" ry="7.7" style="stroke:#181818;stroke-width:0.6999999999999998;"/><path d="M383.0859,436.3625 Q383.1953,436.2094 383.3266,436.1328 Q383.4578,436.0562 383.6109,436.0562 Q383.8734,436.0562 384.0375,436.2422 Q384.2016,436.4172 384.2016,436.8437 L384.2016,437.8609 Q384.2016,438.2875 384.0375,438.4734 Q383.8734,438.6594 383.6109,438.6594 Q383.3703,438.6594 383.2281,438.5172 Q383.0859,438.3859 383.0094,438.025 Q382.9766,437.7734 382.8453,437.6422 Q382.6156,437.3797 382.1891,437.2266 Q381.7625,437.0734 381.325,437.0734 Q380.7891,437.0734 380.3406,437.3031 Q379.9031,437.5328 379.5531,438.0578 Q379.2141,438.5828 379.2141,439.3047 L379.2141,440.0703 Q379.2141,440.9344 379.8375,441.5141 Q380.4609,442.0828 381.5766,442.0828 Q382.2328,442.0828 382.6922,441.9078 Q382.9656,441.7984 383.2609,441.4922 Q383.4469,441.3062 383.5453,441.2516 Q383.6547,441.1969 383.7969,441.1969 Q384.0266,441.1969 384.2016,441.3828 Q384.3875,441.5578 384.3875,441.7984 Q384.3875,442.0391 384.1469,442.3234 Q383.7969,442.7281 383.2391,442.9578 Q382.4844,443.275 381.5766,443.275 Q380.5156,443.275 379.6734,442.8375 Q378.9844,442.4875 378.5031,441.7437 Q378.0219,440.9891 378.0219,440.0922 L378.0219,439.2828 Q378.0219,438.3531 378.4484,437.5547 Q378.8859,436.7453 379.6516,436.3187 Q380.4172,435.8812 381.2812,435.8812 Q381.7953,435.8812 382.2437,436.0016 Q382.7031,436.1109 383.0859,436.3625 Z " fill="#000000"/><text fill="#000000" font-family="sans-serif" font-size="9.8" lengthAdjust="spacing" textLength="107.1" x="390.95" y="443.3078">CollaboratorsRepository</text><line style="stroke:#181818;stroke-width:0.3499999999999999;" x1="371.35" x2="499.45" y1="450.45" y2="450.45"/><line style="stroke:#181818;stroke-width:0.3499999999999999;" x1="371.35" x2="499.45" y1="456.05" y2="456.05"/><text fill="#000000" font-family="sans-serif" font-size="9.8" lengthAdjust="spacing" textLength="101.5" x="374.85" y="469.4252">+getCollaboratorsList()</text></g><!--class CollaboratorSkills--><g id="elem_CollaboratorSkills"><rect codeLine="43" fill="#F1F1F1" height="46.6348" id="CollaboratorSkills" rx="1.75" ry="1.75" style="stroke:#181818;stroke-width:0.3499999999999999;" width="127.4" x="189.7" y="736.4"/><ellipse cx="212.8" cy="747.6" fill="#ADD1B2" rx="7.7" ry="7.7" style="stroke:#181818;stroke-width:0.6999999999999998;"/><path d="M214.7359,744.7125 Q214.8453,744.5594 214.9766,744.4828 Q215.1078,744.4062 215.2609,744.4062 Q215.5234,744.4062 215.6875,744.5922 Q215.8516,744.7672 215.8516,745.1937 L215.8516,746.2109 Q215.8516,746.6375 215.6875,746.8234 Q215.5234,747.0094 215.2609,747.0094 Q215.0203,747.0094 214.8781,746.8672 Q214.7359,746.7359 214.6594,746.375 Q214.6266,746.1234 214.4953,745.9922 Q214.2656,745.7297 213.8391,745.5766 Q213.4125,745.4234 212.975,745.4234 Q212.4391,745.4234 211.9906,745.6531 Q211.5531,745.8828 211.2031,746.4078 Q210.8641,746.9328 210.8641,747.6547 L210.8641,748.4203 Q210.8641,749.2844 211.4875,749.8641 Q212.1109,750.4328 213.2266,750.4328 Q213.8828,750.4328 214.3422,750.2578 Q214.6156,750.1484 214.9109,749.8422 Q215.0969,749.6562 215.1953,749.6016 Q215.3047,749.5469 215.4469,749.5469 Q215.6766,749.5469 215.8516,749.7328 Q216.0375,749.9078 216.0375,750.1484 Q216.0375,750.3891 215.7969,750.6734 Q215.4469,751.0781 214.8891,751.3078 Q214.1344,751.625 213.2266,751.625 Q212.1656,751.625 211.3234,751.1875 Q210.6344,750.8375 210.1531,750.0937 Q209.6719,749.3391 209.6719,748.4422 L209.6719,747.6328 Q209.6719,746.7031 210.0984,745.9047 Q210.5359,745.0953 211.3016,744.6687 Q212.0672,744.2312 212.9312,744.2312 Q213.4453,744.2312 213.8937,744.3516 Q214.3531,744.4609 214.7359,744.7125 Z " fill="#000000"/><text fill="#000000" font-family="sans-serif" font-size="9.8" lengthAdjust="spacing" textLength="77" x="225.4" y="751.6578">CollaboratorSkills</text><line style="stroke:#181818;stroke-width:0.3499999999999999;" x1="190.4" x2="316.4" y1="758.8" y2="758.8"/><line style="stroke:#181818;stroke-width:0.3499999999999999;" x1="190.4" x2="316.4" y1="764.4" y2="764.4"/><text fill="#000000" font-family="sans-serif" font-size="9.8" lengthAdjust="spacing" textLength="119" x="193.9" y="777.7752">+getCollaboratorSkillsList()</text></g><!--class SkillsRepository--><g id="elem_SkillsRepository"><rect codeLine="47" fill="#F1F1F1" height="46.6348" id="SkillsRepository" rx="1.75" ry="1.75" style="stroke:#181818;stroke-width:0.3499999999999999;" width="92.4" x="599.2" y="312.9"/><ellipse cx="609.7" cy="324.1" fill="#ADD1B2" rx="7.7" ry="7.7" style="stroke:#181818;stroke-width:0.6999999999999998;"/><path d="M611.6359,321.2125 Q611.7453,321.0594 611.8766,320.9828 Q612.0078,320.9062 612.1609,320.9062 Q612.4234,320.9062 612.5875,321.0922 Q612.7516,321.2672 612.7516,321.6937 L612.7516,322.7109 Q612.7516,323.1375 612.5875,323.3234 Q612.4234,323.5094 612.1609,323.5094 Q611.9203,323.5094 611.7781,323.3672 Q611.6359,323.2359 611.5594,322.875 Q611.5266,322.6234 611.3953,322.4922 Q611.1656,322.2297 610.7391,322.0766 Q610.3125,321.9234 609.875,321.9234 Q609.3391,321.9234 608.8906,322.1531 Q608.4531,322.3828 608.1031,322.9078 Q607.7641,323.4328 607.7641,324.1547 L607.7641,324.9203 Q607.7641,325.7844 608.3875,326.3641 Q609.0109,326.9328 610.1266,326.9328 Q610.7828,326.9328 611.2422,326.7578 Q611.5156,326.6484 611.8109,326.3422 Q611.9969,326.1562 612.0953,326.1016 Q612.2047,326.0469 612.3469,326.0469 Q612.5766,326.0469 612.7516,326.2328 Q612.9375,326.4078 612.9375,326.6484 Q612.9375,326.8891 612.6969,327.1734 Q612.3469,327.5781 611.7891,327.8078 Q611.0344,328.125 610.1266,328.125 Q609.0656,328.125 608.2234,327.6875 Q607.5344,327.3375 607.0531,326.5937 Q606.5719,325.8391 606.5719,324.9422 L606.5719,324.1328 Q606.5719,323.2031 606.9984,322.4047 Q607.4359,321.5953 608.2016,321.1687 Q608.9672,320.7312 609.8312,320.7312 Q610.3453,320.7312 610.7937,320.8516 Q611.2531,320.9609 611.6359,321.2125 Z " fill="#000000"/><text fill="#000000" font-family="sans-serif" font-size="9.8" lengthAdjust="spacing" textLength="70" x="619.5" y="328.1578">SkillsRepository</text><line style="stroke:#181818;stroke-width:0.3499999999999999;" x1="599.9" x2="690.9" y1="335.3" y2="335.3"/><line style="stroke:#181818;stroke-width:0.3499999999999999;" x1="599.9" x2="690.9" y1="340.9" y2="340.9"/><text fill="#000000" font-family="sans-serif" font-size="9.8" lengthAdjust="spacing" textLength="64.4" x="603.4" y="354.2752">+getSkillsList()</text></g><!--class SkillsSelected--><g id="elem_SkillsSelected"><rect codeLine="51" fill="#F1F1F1" height="46.6348" id="SkillsSelected" rx="1.75" ry="1.75" style="stroke:#181818;stroke-width:0.3499999999999999;" width="95.9" x="597.45" y="428.05"/><ellipse cx="613.62" cy="439.25" fill="#ADD1B2" rx="7.7" ry="7.7" style="stroke:#181818;stroke-width:0.6999999999999998;"/><path d="M615.5559,436.3625 Q615.6653,436.2094 615.7966,436.1328 Q615.9278,436.0562 616.0809,436.0562 Q616.3434,436.0562 616.5075,436.2422 Q616.6716,436.4172 616.6716,436.8437 L616.6716,437.8609 Q616.6716,438.2875 616.5075,438.4734 Q616.3434,438.6594 616.0809,438.6594 Q615.8403,438.6594 615.6981,438.5172 Q615.5559,438.3859 615.4794,438.025 Q615.4466,437.7734 615.3153,437.6422 Q615.0856,437.3797 614.6591,437.2266 Q614.2325,437.0734 613.795,437.0734 Q613.2591,437.0734 612.8106,437.3031 Q612.3731,437.5328 612.0231,438.0578 Q611.6841,438.5828 611.6841,439.3047 L611.6841,440.0703 Q611.6841,440.9344 612.3075,441.5141 Q612.9309,442.0828 614.0466,442.0828 Q614.7028,442.0828 615.1622,441.9078 Q615.4356,441.7984 615.7309,441.4922 Q615.9169,441.3062 616.0153,441.2516 Q616.1247,441.1969 616.2669,441.1969 Q616.4966,441.1969 616.6716,441.3828 Q616.8575,441.5578 616.8575,441.7984 Q616.8575,442.0391 616.6169,442.3234 Q616.2669,442.7281 615.7091,442.9578 Q614.9544,443.275 614.0466,443.275 Q612.9856,443.275 612.1434,442.8375 Q611.4544,442.4875 610.9731,441.7437 Q610.4919,440.9891 610.4919,440.0922 L610.4919,439.2828 Q610.4919,438.3531 610.9184,437.5547 Q611.3559,436.7453 612.1216,436.3187 Q612.8872,435.8812 613.7512,435.8812 Q614.2653,435.8812 614.7137,436.0016 Q615.1731,436.1109 615.5559,436.3625 Z " fill="#000000"/><text fill="#000000" font-family="sans-serif" font-size="9.8" lengthAdjust="spacing" textLength="60.9" x="624.68" y="443.3078">SkillsSelected</text><line style="stroke:#181818;stroke-width:0.3499999999999999;" x1="598.15" x2="692.65" y1="450.45" y2="450.45"/><line style="stroke:#181818;stroke-width:0.3499999999999999;" x1="598.15" x2="692.65" y1="456.05" y2="456.05"/><text fill="#000000" font-family="sans-serif" font-size="9.8" lengthAdjust="spacing" textLength="87.5" x="601.65" y="469.4252">+getSkillsSelected()</text></g><!--class Address--><g id="elem_Address"><rect codeLine="55" fill="#F1F1F1" height="46.6348" id="Address" rx="1.75" ry="1.75" style="stroke:#181818;stroke-width:0.3499999999999999;" width="79.8" x="341.6" y="736.4"/><ellipse cx="361.55" cy="747.6" fill="#ADD1B2" rx="7.7" ry="7.7" style="stroke:#181818;stroke-width:0.6999999999999998;"/><path d="M363.4859,744.7125 Q363.5953,744.5594 363.7266,744.4828 Q363.8578,744.4062 364.0109,744.4062 Q364.2734,744.4062 364.4375,744.5922 Q364.6016,744.7672 364.6016,745.1937 L364.6016,746.2109 Q364.6016,746.6375 364.4375,746.8234 Q364.2734,747.0094 364.0109,747.0094 Q363.7703,747.0094 363.6281,746.8672 Q363.4859,746.7359 363.4094,746.375 Q363.3766,746.1234 363.2453,745.9922 Q363.0156,745.7297 362.5891,745.5766 Q362.1625,745.4234 361.725,745.4234 Q361.1891,745.4234 360.7406,745.6531 Q360.3031,745.8828 359.9531,746.4078 Q359.6141,746.9328 359.6141,747.6547 L359.6141,748.4203 Q359.6141,749.2844 360.2375,749.8641 Q360.8609,750.4328 361.9766,750.4328 Q362.6328,750.4328 363.0922,750.2578 Q363.3656,750.1484 363.6609,749.8422 Q363.8469,749.6562 363.9453,749.6016 Q364.0547,749.5469 364.1969,749.5469 Q364.4266,749.5469 364.6016,749.7328 Q364.7875,749.9078 364.7875,750.1484 Q364.7875,750.3891 364.5469,750.6734 Q364.1969,751.0781 363.6391,751.3078 Q362.8844,751.625 361.9766,751.625 Q360.9156,751.625 360.0734,751.1875 Q359.3844,750.8375 358.9031,750.0937 Q358.4219,749.3391 358.4219,748.4422 L358.4219,747.6328 Q358.4219,746.7031 358.8484,745.9047 Q359.2859,745.0953 360.0516,744.6687 Q360.8172,744.2312 361.6812,744.2312 Q362.1953,744.2312 362.6437,744.3516 Q363.1031,744.4609 363.4859,744.7125 Z " fill="#000000"/><text fill="#000000" font-family="sans-serif" font-size="9.8" lengthAdjust="spacing" textLength="36.4" x="373.45" y="751.6578">Address</text><line style="stroke:#181818;stroke-width:0.3499999999999999;" x1="342.3" x2="420.7" y1="758.8" y2="758.8"/><text fill="#000000" font-family="sans-serif" font-size="9.8" lengthAdjust="spacing" textLength="71.4" x="345.8" y="772.1752">-int doorNumber</text><line style="stroke:#181818;stroke-width:0.3499999999999999;" x1="342.3" x2="420.7" y1="777.4348" y2="777.4348"/></g><!--class ZipCode--><g id="elem_ZipCode"><rect codeLine="59" fill="#F1F1F1" height="59.6695" id="ZipCode" rx="1.75" ry="1.75" style="stroke:#181818;stroke-width:0.3499999999999999;" width="59.5" x="351.75" y="838.6"/><ellipse cx="362.25" cy="849.8" fill="#ADD1B2" rx="7.7" ry="7.7" style="stroke:#181818;stroke-width:0.6999999999999998;"/><path d="M364.1859,846.9125 Q364.2953,846.7594 364.4266,846.6828 Q364.5578,846.6062 364.7109,846.6062 Q364.9734,846.6062 365.1375,846.7922 Q365.3016,846.9672 365.3016,847.3937 L365.3016,848.4109 Q365.3016,848.8375 365.1375,849.0234 Q364.9734,849.2094 364.7109,849.2094 Q364.4703,849.2094 364.3281,849.0672 Q364.1859,848.9359 364.1094,848.575 Q364.0766,848.3234 363.9453,848.1922 Q363.7156,847.9297 363.2891,847.7766 Q362.8625,847.6234 362.425,847.6234 Q361.8891,847.6234 361.4406,847.8531 Q361.0031,848.0828 360.6531,848.6078 Q360.3141,849.1328 360.3141,849.8547 L360.3141,850.6203 Q360.3141,851.4844 360.9375,852.0641 Q361.5609,852.6328 362.6766,852.6328 Q363.3328,852.6328 363.7922,852.4578 Q364.0656,852.3484 364.3609,852.0422 Q364.5469,851.8562 364.6453,851.8016 Q364.7547,851.7469 364.8969,851.7469 Q365.1266,851.7469 365.3016,851.9328 Q365.4875,852.1078 365.4875,852.3484 Q365.4875,852.5891 365.2469,852.8734 Q364.8969,853.2781 364.3391,853.5078 Q363.5844,853.825 362.6766,853.825 Q361.6156,853.825 360.7734,853.3875 Q360.0844,853.0375 359.6031,852.2937 Q359.1219,851.5391 359.1219,850.6422 L359.1219,849.8328 Q359.1219,848.9031 359.5484,848.1047 Q359.9859,847.2953 360.7516,846.8687 Q361.5172,846.4312 362.3812,846.4312 Q362.8953,846.4312 363.3437,846.5516 Q363.8031,846.6609 364.1859,846.9125 Z " fill="#000000"/><text fill="#000000" font-family="sans-serif" font-size="9.8" lengthAdjust="spacing" textLength="37.1" x="372.05" y="853.8578">ZipCode</text><line style="stroke:#181818;stroke-width:0.3499999999999999;" x1="352.45" x2="410.55" y1="861" y2="861"/><text fill="#000000" font-family="sans-serif" font-size="9.8" lengthAdjust="spacing" textLength="37.1" x="355.95" y="874.3752">-int local</text><text fill="#000000" font-family="sans-serif" font-size="9.8" lengthAdjust="spacing" textLength="42" x="355.95" y="887.41">-int street</text><line style="stroke:#181818;stroke-width:0.3499999999999999;" x1="352.45" x2="410.55" y1="892.6695" y2="892.6695"/></g><!--class TeamRepository--><g id="elem_TeamRepository"><rect codeLine="64" fill="#F1F1F1" height="46.6348" id="TeamRepository" rx="1.75" ry="1.75" style="stroke:#181818;stroke-width:0.3499999999999999;" width="95.2" x="232.4" y="312.9"/><ellipse cx="242.9" cy="324.1" fill="#ADD1B2" rx="7.7" ry="7.7" style="stroke:#181818;stroke-width:0.6999999999999998;"/><path d="M244.8359,321.2125 Q244.9453,321.0594 245.0766,320.9828 Q245.2078,320.9062 245.3609,320.9062 Q245.6234,320.9062 245.7875,321.0922 Q245.9516,321.2672 245.9516,321.6937 L245.9516,322.7109 Q245.9516,323.1375 245.7875,323.3234 Q245.6234,323.5094 245.3609,323.5094 Q245.1203,323.5094 244.9781,323.3672 Q244.8359,323.2359 244.7594,322.875 Q244.7266,322.6234 244.5953,322.4922 Q244.3656,322.2297 243.9391,322.0766 Q243.5125,321.9234 243.075,321.9234 Q242.5391,321.9234 242.0906,322.1531 Q241.6531,322.3828 241.3031,322.9078 Q240.9641,323.4328 240.9641,324.1547 L240.9641,324.9203 Q240.9641,325.7844 241.5875,326.3641 Q242.2109,326.9328 243.3266,326.9328 Q243.9828,326.9328 244.4422,326.7578 Q244.7156,326.6484 245.0109,326.3422 Q245.1969,326.1562 245.2953,326.1016 Q245.4047,326.0469 245.5469,326.0469 Q245.7766,326.0469 245.9516,326.2328 Q246.1375,326.4078 246.1375,326.6484 Q246.1375,326.8891 245.8969,327.1734 Q245.5469,327.5781 244.9891,327.8078 Q244.2344,328.125 243.3266,328.125 Q242.2656,328.125 241.4234,327.6875 Q240.7344,327.3375 240.2531,326.5937 Q239.7719,325.8391 239.7719,324.9422 L239.7719,324.1328 Q239.7719,323.2031 240.1984,322.4047 Q240.6359,321.5953 241.4016,321.1687 Q242.1672,320.7312 243.0312,320.7312 Q243.5453,320.7312 243.9937,320.8516 Q244.4531,320.9609 244.8359,321.2125 Z " fill="#000000"/><text fill="#000000" font-family="sans-serif" font-size="9.8" lengthAdjust="spacing" textLength="72.8" x="252.7" y="328.1578">TeamRepository</text><line style="stroke:#181818;stroke-width:0.3499999999999999;" x1="233.1" x2="326.9" y1="335.3" y2="335.3"/><line style="stroke:#181818;stroke-width:0.3499999999999999;" x1="233.1" x2="326.9" y1="340.9" y2="340.9"/><text fill="#000000" font-family="sans-serif" font-size="9.8" lengthAdjust="spacing" textLength="51.8" x="236.6" y="354.2752">+getTeam()</text></g><!--class Team--><g id="elem_Team"><rect codeLine="68" fill="#F1F1F1" height="72.7043" id="Team" rx="1.75" ry="1.75" style="stroke:#181818;stroke-width:0.3499999999999999;" width="144.9" x="201.25" y="415.1"/><ellipse cx="258.125" cy="426.3" fill="#ADD1B2" rx="7.7" ry="7.7" style="stroke:#181818;stroke-width:0.6999999999999998;"/><path d="M260.0609,423.4125 Q260.1703,423.2594 260.3016,423.1828 Q260.4328,423.1062 260.5859,423.1062 Q260.8484,423.1062 261.0125,423.2922 Q261.1766,423.4672 261.1766,423.8937 L261.1766,424.9109 Q261.1766,425.3375 261.0125,425.5234 Q260.8484,425.7094 260.5859,425.7094 Q260.3453,425.7094 260.2031,425.5672 Q260.0609,425.4359 259.9844,425.075 Q259.9516,424.8234 259.8203,424.6922 Q259.5906,424.4297 259.1641,424.2766 Q258.7375,424.1234 258.3,424.1234 Q257.7641,424.1234 257.3156,424.3531 Q256.8781,424.5828 256.5281,425.1078 Q256.1891,425.6328 256.1891,426.3547 L256.1891,427.1203 Q256.1891,427.9844 256.8125,428.5641 Q257.4359,429.1328 258.5516,429.1328 Q259.2078,429.1328 259.6672,428.9578 Q259.9406,428.8484 260.2359,428.5422 Q260.4219,428.3562 260.5203,428.3016 Q260.6297,428.2469 260.7719,428.2469 Q261.0016,428.2469 261.1766,428.4328 Q261.3625,428.6078 261.3625,428.8484 Q261.3625,429.0891 261.1219,429.3734 Q260.7719,429.7781 260.2141,430.0078 Q259.4594,430.325 258.5516,430.325 Q257.4906,430.325 256.6484,429.8875 Q255.9594,429.5375 255.4781,428.7937 Q254.9969,428.0391 254.9969,427.1422 L254.9969,426.3328 Q254.9969,425.4031 255.4234,424.6047 Q255.8609,423.7953 256.6266,423.3687 Q257.3922,422.9312 258.2562,422.9312 Q258.7703,422.9312 259.2187,423.0516 Q259.6781,423.1609 260.0609,423.4125 Z " fill="#000000"/><text fill="#000000" font-family="sans-serif" font-size="9.8" lengthAdjust="spacing" textLength="25.2" x="272.475" y="430.3578">Team</text><line style="stroke:#181818;stroke-width:0.3499999999999999;" x1="201.95" x2="345.45" y1="437.5" y2="437.5"/><text fill="#000000" font-family="sans-serif" font-size="9.8" lengthAdjust="spacing" textLength="56.7" x="205.45" y="450.8752">-String name</text><line style="stroke:#181818;stroke-width:0.3499999999999999;" x1="201.95" x2="345.45" y1="456.1348" y2="456.1348"/><text fill="#000000" font-family="sans-serif" font-size="9.8" lengthAdjust="spacing" textLength="136.5" x="205.45" y="469.51">+addCollaborator(collaborator)</text><text fill="#000000" font-family="sans-serif" font-size="9.8" lengthAdjust="spacing" textLength="62.3" x="205.45" y="482.5447">+Team(name)</text></g><!--link Repositories to Repositories--><g id="link_Repositories_Repositories"><path codeLine="75" d="M454.153,194.411 C468.335,195.965 478.45,200.578 478.45,208.25 C478.45,215.922 472.51,220.0775 458.328,221.6315 " fill="none" id="Repositories-to-Repositories" style="stroke:#181818;stroke-width:0.6999999999999998;"/><polygon fill="#181818" points="454.153,222.089,460.7205,224.1861,457.6322,221.7078,460.1105,218.6194,454.153,222.089" style="stroke:#181818;stroke-width:0.6999999999999998;"/><text fill="#000000" font-family="sans-serif" font-size="9.1" lengthAdjust="spacing" textLength="34.3" x="482.65" y="212.1198">instance</text></g><!--link GenerateTeamProposalUI to GenerateTeamProposalController--><g id="link_GenerateTeamProposalUI_GenerateTeamProposalController"><path codeLine="77" d="M142.289,54.25 C151.9,54.25 156.401,54.25 162.645,54.25 " fill="none" id="GenerateTeamProposalUI-to-GenerateTeamProposalController" style="stroke:#181818;stroke-width:0.6999999999999998;stroke-dasharray:7.0,7.0;"/><polygon fill="#181818" points="166.845,54.25,160.545,51.45,163.345,54.25,160.545,57.05,166.845,54.25" style="stroke:#181818;stroke-width:0.6999999999999998;"/></g><!--link Repositories to TeamRepository--><g id="link_Repositories_TeamRepository"><path codeLine="79" d="M343.266,257.754 C327.866,276.717 313.6224,294.2535 301.1694,309.5905 " fill="none" id="Repositories-to-TeamRepository" style="stroke:#181818;stroke-width:0.6999999999999998;"/><polygon fill="#181818" points="298.522,312.851,304.6668,309.7251,300.7282,310.1339,300.3194,306.1952,298.522,312.851" style="stroke:#181818;stroke-width:0.6999999999999998;"/><text fill="#000000" font-family="sans-serif" font-size="9.1" lengthAdjust="spacing" textLength="4.9" x="296.7862" y="305.0192">1</text></g><!--link Repositories to CollaboratorsRepository--><g id="link_Repositories_CollaboratorsRepository"><path codeLine="80" d="M393.463,257.6 C404.691,309.33 421.0761,384.8156 429.5181,423.7076 " fill="none" id="Repositories-to-CollaboratorsRepository" style="stroke:#181818;stroke-width:0.6999999999999998;"/><polygon fill="#181818" points="430.409,427.812,431.8089,421.0614,429.6666,424.3916,426.3363,422.2493,430.409,427.812" style="stroke:#181818;stroke-width:0.6999999999999998;"/><text fill="#000000" font-family="sans-serif" font-size="9.1" lengthAdjust="spacing" textLength="4.9" x="424.0906" y="420.1268">1</text></g><!--link Repositories to SkillsRepository--><g id="link_Repositories_SkillsRepository"><path codeLine="81" d="M454.055,253.099 C485.989,272.909 516.6,291.9 516.6,291.9 C516.6,291.9 558.179,306.0267 595.104,318.5637 " fill="none" id="Repositories-to-SkillsRepository" style="stroke:#181818;stroke-width:0.6999999999999998;"/><polygon fill="#181818" points="599.081,319.914,594.0157,315.2372,595.7668,318.7887,592.2153,320.5399,599.081,319.914" style="stroke:#181818;stroke-width:0.6999999999999998;"/><text fill="#000000" font-family="sans-serif" font-size="9.1" lengthAdjust="spacing" textLength="4.9" x="588.8469" y="315.411">1</text></g><!--link GenerateTeamProposalController to CollaboratorsRepository--><g id="link_GenerateTeamProposalController_CollaboratorsRepository"><path codeLine="83" d="M447.937,103.726 C483.952,130.739 521.5,158.9 521.5,158.9 C521.5,158.9 521.5,257.6 521.5,257.6 C521.5,257.6 470.1286,372.8687 447.3226,424.0457 " fill="none" id="GenerateTeamProposalController-to-CollaboratorsRepository" style="stroke:#181818;stroke-width:0.6999999999999998;stroke-dasharray:7.0,7.0;"/><polygon fill="#181818" points="445.613,427.882,450.7349,423.2672,447.0376,424.6851,445.6198,420.9878,445.613,427.882" style="stroke:#181818;stroke-width:0.6999999999999998;"/><text fill="#000000" font-family="sans-serif" font-size="9.1" lengthAdjust="spacing" textLength="96.6" x="512.4" y="289.1198">CollaboratorsRepository</text></g><!--link GenerateTeamProposalController to SkillsRepository--><g id="link_GenerateTeamProposalController_SkillsRepository"><path codeLine="84" d="M510.048,103.607 C540.75,115.36 564.9,124.6 564.9,124.6 C564.9,124.6 645.4,278.6 645.4,278.6 C645.4,278.6 645.4,292.705 645.4,308.574 " fill="none" id="GenerateTeamProposalController-to-SkillsRepository" style="stroke:#181818;stroke-width:0.6999999999999998;stroke-dasharray:7.0,7.0;"/><polygon fill="#181818" points="645.4,312.774,648.2,306.474,645.4,309.274,642.6,306.474,645.4,312.774" style="stroke:#181818;stroke-width:0.6999999999999998;"/><text fill="#000000" font-family="sans-serif" font-size="9.1" lengthAdjust="spacing" textLength="65.8" x="634.9" y="212.1198">SkillsRepository</text></g><!--link GenerateTeamProposalController to TeamRepository--><g id="link_GenerateTeamProposalController_TeamRepository"><path codeLine="85" d="M312.277,103.726 C273.175,130.739 232.4,158.9 232.4,158.9 C232.4,158.9 232.4,257.6 232.4,257.6 C232.4,257.6 249.8692,286.2422 263.9182,309.2792 " fill="none" id="GenerateTeamProposalController-to-TeamRepository" style="stroke:#181818;stroke-width:0.6999999999999998;stroke-dasharray:7.0,7.0;"/><polygon fill="#181818" points="266.105,312.865,265.2154,306.0284,264.2827,309.8768,260.4343,308.9442,266.105,312.865" style="stroke:#181818;stroke-width:0.6999999999999998;"/><text fill="#000000" font-family="sans-serif" font-size="9.1" lengthAdjust="spacing" textLength="65.8" x="233.1" y="212.1198">TeamRepository</text></g><!--link GenerateTeamProposalController to Repositories--><g id="link_GenerateTeamProposalController_Repositories"><path codeLine="86" d="M382.9,103.656 C382.9,121.275 382.9,136.962 382.9,154.588 " fill="none" id="GenerateTeamProposalController-to-Repositories" style="stroke:#181818;stroke-width:0.6999999999999998;stroke-dasharray:7.0,7.0;"/><polygon fill="#181818" points="382.9,158.788,385.7,152.488,382.9,155.288,380.1,152.488,382.9,158.788" style="stroke:#181818;stroke-width:0.6999999999999998;"/><text fill="#000000" font-family="sans-serif" font-size="9.1" lengthAdjust="spacing" textLength="46.9" x="383.6" y="135.1198">repositories</text></g><!--link GenerateTeamProposalController to Collaborator--><g id="link_GenerateTeamProposalController_Collaborator"><path codeLine="87" d="M294.707,103.705 C273.532,115.409 256.9,124.6 256.9,124.6 C256.9,124.6 158.2,207.55 158.2,207.55 C158.2,207.55 158.2,207.55 158.2,452.2 C158.2,452.2 190.2791,496.4281 221.5831,539.5901 " fill="none" id="GenerateTeamProposalController-to-Collaborator" style="stroke:#181818;stroke-width:0.6999999999999998;stroke-dasharray:7.0,7.0;"/><polygon fill="#181818" points="224.049,542.99,222.6168,536.2462,221.9941,540.1567,218.0836,539.534,224.049,542.99" style="stroke:#181818;stroke-width:0.6999999999999998;"/><text fill="#000000" font-family="sans-serif" font-size="9.1" lengthAdjust="spacing" textLength="48.3" x="158.9" y="340.2198">Collaborator</text><text fill="#000000" font-family="sans-serif" font-size="9.1" lengthAdjust="spacing" textLength="4.9" x="215.3228" y="535.4022">1</text></g><!--link TeamRepository to Team--><g id="link_TeamRepository_Team"><path codeLine="89" d="M278.726,360.066 C277.851,375.844 276.9071,392.8884 275.9131,410.8504 " fill="none" id="TeamRepository-to-Team" style="stroke:#181818;stroke-width:0.6999999999999998;"/><polygon fill="#181818" points="275.681,415.044,278.8248,408.9083,275.8744,411.5493,273.2334,408.5989,275.681,415.044" style="stroke:#181818;stroke-width:0.6999999999999998;"/><text fill="#000000" font-family="sans-serif" font-size="9.1" lengthAdjust="spacing" textLength="25.2" x="277.9" y="391.3198">teams</text><text fill="#000000" font-family="sans-serif" font-size="9.1" lengthAdjust="spacing" textLength="3.5" x="272.212" y="407.2856">*</text></g><!--reverse link Team to Collaborator--><g id="link_Team_Collaborator"><path codeLine="90" d="M273.7,496.342 C273.7,512.659 273.7,524.167 273.7,543.186 " fill="none" id="Team-backto-Collaborator" style="stroke:#181818;stroke-width:0.6999999999999998;"/><polygon fill="none" points="273.7,487.942,270.9,492.142,273.7,496.342,276.5,492.142,273.7,487.942" style="stroke:#181818;stroke-width:0.6999999999999998;"/><text fill="#000000" font-family="sans-serif" font-size="9.1" lengthAdjust="spacing" textLength="14.7" x="274.4" y="519.4198">has</text><text fill="#000000" font-family="sans-serif" font-size="9.1" lengthAdjust="spacing" textLength="3.5" x="270.066" y="535.3789">*</text></g><!--link SkillsRepository to SkillsSelected--><g id="link_SkillsRepository_SkillsSelected"><path codeLine="92" d="M645.4,360.066 C645.4,379.869 645.4,404.075 645.4,423.808 " fill="none" id="SkillsRepository-to-SkillsSelected" style="stroke:#181818;stroke-width:0.6999999999999998;"/><polygon fill="#181818" points="645.4,428.008,648.2,421.708,645.4,424.508,642.6,421.708,645.4,428.008" style="stroke:#181818;stroke-width:0.6999999999999998;"/><text fill="#000000" font-family="sans-serif" font-size="9.1" lengthAdjust="spacing" textLength="3.5" x="641.5555" y="420.1776">*</text></g><!--link CollaboratorsRepository to Collaborator--><g id="link_CollaboratorsRepository_Collaborator"><path codeLine="94" d="M412.23,475.02 C394.065,492.905 370.7936,515.8301 345.9996,540.2461 " fill="none" id="CollaboratorsRepository-to-Collaborator" style="stroke:#181818;stroke-width:0.6999999999999998;"/><polygon fill="#181818" points="343.007,543.193,349.4605,540.7676,345.5008,540.7372,345.5312,536.7775,343.007,543.193" style="stroke:#181818;stroke-width:0.6999999999999998;"/><text fill="#000000" font-family="sans-serif" font-size="9.1" lengthAdjust="spacing" textLength="3.5" x="344.6793" y="535.3864">*</text></g><!--reverse link Collaborator to Address--><g id="link_Collaborator_Address"><path codeLine="96" d="M329.1104,688.0518 C343.6844,707.8338 353.619,721.315 364.588,736.197 " fill="none" id="Collaborator-backto-Address" style="stroke:#181818;stroke-width:0.6999999999999998;"/><polygon fill="#181818" points="324.128,681.289,324.3649,686.3312,329.1104,688.0518,328.8735,683.0096,324.128,681.289" style="stroke:#181818;stroke-width:0.6999999999999998;"/><text fill="#000000" font-family="sans-serif" font-size="9.1" lengthAdjust="spacing" textLength="21" x="347.2" y="712.6198">owns</text><text fill="#000000" font-family="sans-serif" font-size="9.1" lengthAdjust="spacing" textLength="4.9" x="355.9971" y="728.5184">1</text></g><!--reverse link Address to ZipCode--><g id="link_Address_ZipCode"><path codeLine="97" d="M381.5,791.924 C381.5,808.031 381.5,821.282 381.5,838.586 " fill="none" id="Address-backto-ZipCode" style="stroke:#181818;stroke-width:0.6999999999999998;"/><polygon fill="#181818" points="381.5,783.524,378.7,787.724,381.5,791.924,384.3,787.724,381.5,783.524" style="stroke:#181818;stroke-width:0.6999999999999998;"/><text fill="#000000" font-family="sans-serif" font-size="9.1" lengthAdjust="spacing" textLength="21" x="382.2" y="814.8198">owns</text><text fill="#000000" font-family="sans-serif" font-size="9.1" lengthAdjust="spacing" textLength="4.9" x="376.2095" y="830.8166">1</text></g><!--reverse link Collaborator to CollaboratorSkills--><g id="link_Collaborator_CollaboratorSkills"><path codeLine="99" d="M263.0469,689.6093 C260.3029,709.3913 258.65,721.315 256.585,736.197 " fill="none" id="Collaborator-backto-CollaboratorSkills" style="stroke:#181818;stroke-width:0.6999999999999998;"/><polygon fill="#181818" points="264.201,681.289,260.8505,685.0645,263.0469,689.6093,266.3974,685.8339,264.201,681.289" style="stroke:#181818;stroke-width:0.6999999999999998;"/><text fill="#000000" font-family="sans-serif" font-size="9.1" lengthAdjust="spacing" textLength="3.5" x="253.3585" y="728.5184">*</text></g><!--SRC=[ZLHDZziW4BtpAz2Uihjsr5vzM6cLIbMagggQzj8RCTC41OC5h5PfrVzUy5S6R9BauZ3pvitN0tiIgcM6DRHbzOaTOEVE4gY1sZ5ra43i1B17nlMxK0VwcqcBFL8eSESMQAlbEHm8SjQIMVlgd17xDmVRMgkT-0Fq0o6aSz7FeC0m1p-0DT-CRhLbykUM_YN_hY4sMZcZfGJZaTJ_dc_0LhkJaD9-1syNJfjpGJVUmVRQnsWJEGB3vVmuy1_0zHnVX7KhP8ruhZbduML0X6p-FBMB8uRcIhhp0_IZLwo1mVB9jqezJ8K_sCPuWqn2ETeUjOAlRyqUJ4m73HCI0GNVCCCZmn0sD8HhMuLYYgc4OanSu7n5dwCOg8k94JKyZLg0dHh6HZpFhR9UcZMi7caLWT8jNHQOtTKo9Dv-RZCeU59WHWkByNsHkT18ALDysXYElXQn0-alDF0vVlJWc5VE3TZB9e8EkDPcKCA4-oNQZUOGuQIk6HQKTGR0NMBYsU9wqbiGpbdrFtkjyKYBDJgCk-meGqn7IoAPbI-nx2fVRYyiGZ8lqlhbnXEJfl0v7Zu-93qlOpBAMWQdCbYk6BsGwxMlFPEYokQ-XpGjfPeNTmzD8eigdTajZjao3NuOxgaWNGADvq98KcAtYwT-kHxh_CTs6AhBilCaR4Tc2PbTu94cles4v5wQ4H_N5gLw2lbzD-CrhgX-LvQCnz4ztjx1lS2HfEbB9EG_]--></g></svg>