<?xml version="1.0" encoding="us-ascii" standalone="no"?><svg xmlns="http://www.w3.org/2000/svg" xmlns:xlink="http://www.w3.org/1999/xlink" contentStyleType="text/css" height="839.7px" preserveAspectRatio="none" style="width:798px;height:839px;background:#FFFFFF;" version="1.1" viewBox="0 0 798 839" width="798.3px" zoomAndPan="magnify"><defs/><g><rect fill="#FFFFFF" height="639.8947" style="stroke:#181818;stroke-width:0.9;" width="9" x="54.9" y="101.018"/><rect fill="#FFFFFF" height="43.7238" style="stroke:#181818;stroke-width:0.9;" width="9" x="323.1" y="121.9799"/><rect fill="#FFFFFF" height="127.9125" style="stroke:#181818;stroke-width:0.9;" width="9" x="323.1" y="209.4275"/><rect fill="#FFFFFF" height="310.9869" style="stroke:#181818;stroke-width:0.9;" width="9" x="323.1" y="365.502"/><rect fill="#FFFFFF" height="28.1619" style="stroke:#181818;stroke-width:0.9;" width="9" x="323.1" y="704.6508"/><rect fill="#FFFFFF" height="71.5887" style="stroke:#181818;stroke-width:0.9;" width="9" x="518.4" y="237.5895"/><rect fill="#FFFFFF" height="127.9125" style="stroke:#181818;stroke-width:0.9;" width="9" x="518.4" y="420.6639"/><rect fill="#FFFFFF" height="71.5887" style="stroke:#181818;stroke-width:0.9;" width="9" x="518.4" y="576.7383"/><rect fill="#FFFFFF" height="71.5887" style="stroke:#181818;stroke-width:0.9;" width="9" x="708.75" y="448.8258"/><line style="stroke:#181818;stroke-width:0.45;stroke-dasharray:5.0,5.0;" x1="59.4" x2="59.4" y1="92.018" y2="749.0127"/><line style="stroke:#181818;stroke-width:0.45;stroke-dasharray:5.0,5.0;" x1="327.6" x2="327.6" y1="92.018" y2="749.0127"/><line style="stroke:#181818;stroke-width:0.45;stroke-dasharray:5.0,5.0;" x1="522.9" x2="522.9" y1="92.018" y2="749.0127"/><line style="stroke:#181818;stroke-width:0.45;stroke-dasharray:5.0,5.0;" x1="712.8" x2="712.8" y1="92.018" y2="749.0127"/><text fill="#000000" font-family="sans-serif" font-size="12.6" lengthAdjust="spacing" textLength="104.4" x="4.5" y="72.0967">Human Resources</text><text fill="#000000" font-family="sans-serif" font-size="12.6" lengthAdjust="spacing" textLength="50.4" x="31.5" y="88.8557">Manager</text><ellipse cx="59.4" cy="12.15" fill="#E3E3E3" rx="7.2" ry="7.2" style="stroke:#181818;stroke-width:0.45;"/><path d="M59.4,19.35 L59.4,43.65 M47.7,26.55 L71.1,26.55 M59.4,43.65 L47.7,57.15 M59.4,43.65 L71.1,57.15 " fill="none" style="stroke:#181818;stroke-width:0.45;"/><text fill="#000000" font-family="sans-serif" font-size="12.6" lengthAdjust="spacing" textLength="104.4" x="4.5" y="761.7094">Human Resources</text><text fill="#000000" font-family="sans-serif" font-size="12.6" lengthAdjust="spacing" textLength="50.4" x="31.5" y="778.4684">Manager</text><ellipse cx="59.4" cy="789.2807" fill="#E3E3E3" rx="7.2" ry="7.2" style="stroke:#181818;stroke-width:0.45;"/><path d="M59.4,796.4807 L59.4,820.7807 M47.7,803.6807 L71.1,803.6807 M59.4,820.7807 L47.7,834.2807 M59.4,820.7807 L71.1,834.2807 " fill="none" style="stroke:#181818;stroke-width:0.45;"/><rect fill="#E3E3E3" height="29.359" rx="2.25" ry="2.25" style="stroke:#181818;stroke-width:0.45;" width="163.8" x="245.7" y="61.759"/><text fill="#000000" font-family="sans-serif" font-size="12.6" lengthAdjust="spacing" textLength="151.2" x="252" y="81.6557">:GenerateTeamProposalUI</text><rect fill="#E3E3E3" height="29.359" rx="2.25" ry="2.25" style="stroke:#181818;stroke-width:0.45;" width="163.8" x="245.7" y="748.1127"/><text fill="#000000" font-family="sans-serif" font-size="12.6" lengthAdjust="spacing" textLength="151.2" x="252" y="768.0094">:GenerateTeamProposalUI</text><rect fill="#E3E3E3" height="29.359" rx="2.25" ry="2.25" style="stroke:#181818;stroke-width:0.45;" width="208.8" x="418.5" y="61.759"/><text fill="#000000" font-family="sans-serif" font-size="12.6" lengthAdjust="spacing" textLength="196.2" x="424.8" y="81.6557">:GenerateTeamProposalController</text><rect fill="#E3E3E3" height="29.359" rx="2.25" ry="2.25" style="stroke:#181818;stroke-width:0.45;" width="208.8" x="418.5" y="748.1127"/><text fill="#000000" font-family="sans-serif" font-size="12.6" lengthAdjust="spacing" textLength="196.2" x="424.8" y="768.0094">:GenerateTeamProposalController</text><rect fill="#E3E3E3" height="46.118" rx="2.25" ry="2.25" style="stroke:#181818;stroke-width:0.45;" width="153.9" x="636.3" y="45"/><text fill="#000000" font-family="sans-serif" font-size="12.6" lengthAdjust="spacing" textLength="31.5" x="697.5" y="64.8967">name</text><text fill="#000000" font-family="sans-serif" font-size="12.6" lengthAdjust="spacing" textLength="141.3" x="642.6" y="81.6557">:CollaboratorsRepository</text><rect fill="#E3E3E3" height="46.118" rx="2.25" ry="2.25" style="stroke:#181818;stroke-width:0.45;" width="153.9" x="636.3" y="748.1127"/><text fill="#000000" font-family="sans-serif" font-size="12.6" lengthAdjust="spacing" textLength="31.5" x="697.5" y="768.0094">name</text><text fill="#000000" font-family="sans-serif" font-size="12.6" lengthAdjust="spacing" textLength="141.3" x="642.6" y="784.7684">:CollaboratorsRepository</text><rect fill="#FFFFFF" height="639.8947" style="stroke:#181818;stroke-width:0.9;" width="9" x="54.9" y="101.018"/><rect fill="#FFFFFF" height="43.7238" style="stroke:#181818;stroke-width:0.9;" width="9" x="323.1" y="121.9799"/><rect fill="#FFFFFF" height="127.9125" style="stroke:#181818;stroke-width:0.9;" width="9" x="323.1" y="209.4275"/><rect fill="#FFFFFF" height="310.9869" style="stroke:#181818;stroke-width:0.9;" width="9" x="323.1" y="365.502"/><rect fill="#FFFFFF" height="28.1619" style="stroke:#181818;stroke-width:0.9;" width="9" x="323.1" y="704.6508"/><rect fill="#FFFFFF" height="71.5887" style="stroke:#181818;stroke-width:0.9;" width="9" x="518.4" y="237.5895"/><rect fill="#FFFFFF" height="127.9125" style="stroke:#181818;stroke-width:0.9;" width="9" x="518.4" y="420.6639"/><rect fill="#FFFFFF" height="71.5887" style="stroke:#181818;stroke-width:0.9;" width="9" x="518.4" y="576.7383"/><rect fill="#FFFFFF" height="71.5887" style="stroke:#181818;stroke-width:0.9;" width="9" x="708.75" y="448.8258"/><polygon fill="#181818" points="312.3,118.3799,321.3,121.9799,312.3,125.5799,315.9,121.9799" style="stroke:#181818;stroke-width:0.9;"/><line style="stroke:#181818;stroke-width:0.9;" x1="63.9" x2="317.7" y1="121.9799" y2="121.9799"/><text fill="#000000" font-family="sans-serif" font-size="11.7" font-weight="bold" lengthAdjust="spacing" textLength="6.3" x="70.2" y="117.2435">1</text><text fill="#000000" font-family="sans-serif" font-size="11.7" lengthAdjust="spacing" textLength="174.6" x="80.1" y="117.2435">asks to generate a team proposal</text><polygon fill="#181818" points="73.8,162.1037,64.8,165.7037,73.8,169.3037,70.2,165.7037" style="stroke:#181818;stroke-width:0.9;"/><line style="stroke:#181818;stroke-width:0.9;stroke-dasharray:2.0,2.0;" x1="68.4" x2="326.7" y1="165.7037" y2="165.7037"/><text fill="#000000" font-family="sans-serif" font-size="11.7" font-weight="bold" lengthAdjust="spacing" textLength="6.3" x="79.2" y="153.1863">2</text><text fill="#000000" font-family="sans-serif" font-size="11.7" lengthAdjust="spacing" textLength="184.5" x="89.1" y="145.4054">requests which is the minimum and</text><text fill="#000000" font-family="sans-serif" font-size="11.7" lengthAdjust="spacing" textLength="206.1" x="92.7" y="160.9673">maximum number of team collaborators</text><polygon fill="#181818" points="312.3,205.8275,321.3,209.4275,312.3,213.0275,315.9,209.4275" style="stroke:#181818;stroke-width:0.9;"/><line style="stroke:#181818;stroke-width:0.9;" x1="63.9" x2="317.7" y1="209.4275" y2="209.4275"/><text fill="#000000" font-family="sans-serif" font-size="11.7" font-weight="bold" lengthAdjust="spacing" textLength="6.3" x="70.2" y="196.9102">3</text><text fill="#000000" font-family="sans-serif" font-size="11.7" lengthAdjust="spacing" textLength="232.2" x="80.1" y="189.1292">types the minimum and maximum number of</text><text fill="#000000" font-family="sans-serif" font-size="11.7" lengthAdjust="spacing" textLength="96.3" x="83.7" y="204.6911">team collaborators</text><polygon fill="#181818" points="507.6,233.9895,516.6,237.5895,507.6,241.1895,511.2,237.5895" style="stroke:#181818;stroke-width:0.9;"/><line style="stroke:#181818;stroke-width:0.9;" x1="332.1" x2="513" y1="237.5895" y2="237.5895"/><text fill="#000000" font-family="sans-serif" font-size="11.7" font-weight="bold" lengthAdjust="spacing" textLength="6.3" x="338.4" y="232.853">4</text><text fill="#000000" font-family="sans-serif" font-size="11.7" lengthAdjust="spacing" textLength="71.1" x="348.3" y="232.853">getSkillsList()</text><rect fill="none" height="38.9268" style="stroke:#000000;stroke-width:1.35;" width="214.2" x="415.8" y="244.7895"/><path d="M415.8,244.7895 L471.6,244.7895 L471.6,252.8895 L462.6,261.8895 L415.8,261.8895 L415.8,244.7895 " fill="#EEEEEE" style="stroke:#000000;stroke-width:1.8;"/><text fill="#000000" font-family="sans-serif" font-size="11.7" font-weight="bold" lengthAdjust="spacing" textLength="15.3" x="427.5" y="259.2149">ref</text><text fill="#000000" font-family="sans-serif" font-size="10.8" lengthAdjust="spacing" textLength="67.5" x="489.15" y="277.1438">Get Skills List</text><polygon fill="#181818" points="342,305.5781,333,309.1781,342,312.7781,338.4,309.1781" style="stroke:#181818;stroke-width:0.9;"/><line style="stroke:#181818;stroke-width:0.9;stroke-dasharray:2.0,2.0;" x1="336.6" x2="522" y1="309.1781" y2="309.1781"/><text fill="#000000" font-family="sans-serif" font-size="11.7" font-weight="bold" lengthAdjust="spacing" textLength="6.3" x="347.4" y="304.4417">5</text><text fill="#000000" font-family="sans-serif" font-size="11.7" lengthAdjust="spacing" textLength="45.9" x="357.3" y="304.4417">skillsList</text><polygon fill="#181818" points="73.8,333.74,64.8,337.34,73.8,340.94,70.2,337.34" style="stroke:#181818;stroke-width:0.9;"/><line style="stroke:#181818;stroke-width:0.9;stroke-dasharray:2.0,2.0;" x1="68.4" x2="326.7" y1="337.34" y2="337.34"/><text fill="#000000" font-family="sans-serif" font-size="11.7" font-weight="bold" lengthAdjust="spacing" textLength="6.3" x="79.2" y="332.6036">6</text><text fill="#000000" font-family="sans-serif" font-size="11.7" lengthAdjust="spacing" textLength="191.7" x="89.1" y="332.6036">requests to selects the skills needed</text><polygon fill="#181818" points="312.3,361.902,321.3,365.502,312.3,369.102,315.9,365.502" style="stroke:#181818;stroke-width:0.9;"/><line style="stroke:#181818;stroke-width:0.9;" x1="63.9" x2="317.7" y1="365.502" y2="365.502"/><text fill="#000000" font-family="sans-serif" font-size="11.7" font-weight="bold" lengthAdjust="spacing" textLength="6.3" x="70.2" y="360.7655">7</text><text fill="#000000" font-family="sans-serif" font-size="11.7" lengthAdjust="spacing" textLength="88.2" x="80.1" y="360.7655">selects the skills</text><polygon fill="#181818" points="507.6,417.0639,516.6,420.6639,507.6,424.2639,511.2,420.6639" style="stroke:#181818;stroke-width:0.9;"/><line style="stroke:#181818;stroke-width:0.9;" x1="332.1" x2="513" y1="420.6639" y2="420.6639"/><text fill="#000000" font-family="sans-serif" font-size="11.7" font-weight="bold" lengthAdjust="spacing" textLength="6.3" x="338.4" y="415.9274">8</text><text fill="#000000" font-family="sans-serif" font-size="11.7" lengthAdjust="spacing" textLength="110.7" x="348.3" y="415.9274">getCollaboratorsList()</text><polygon fill="#181818" points="697.95,445.2258,706.95,448.8258,697.95,452.4258,701.55,448.8258" style="stroke:#181818;stroke-width:0.9;"/><line style="stroke:#181818;stroke-width:0.9;" x1="527.4" x2="703.35" y1="448.8258" y2="448.8258"/><text fill="#000000" font-family="sans-serif" font-size="11.7" font-weight="bold" lengthAdjust="spacing" textLength="6.3" x="533.7" y="444.0894">9</text><text fill="#000000" font-family="sans-serif" font-size="11.7" lengthAdjust="spacing" textLength="110.7" x="543.6" y="444.0894">getCollaboratorsList()</text><rect fill="none" height="38.9268" style="stroke:#000000;stroke-width:1.35;" width="159.3" x="633.6" y="456.0258"/><path d="M633.6,456.0258 L689.4,456.0258 L689.4,464.1258 L680.4,473.1258 L633.6,473.1258 L633.6,456.0258 " fill="#EEEEEE" style="stroke:#000000;stroke-width:1.8;"/><text fill="#000000" font-family="sans-serif" font-size="11.7" font-weight="bold" lengthAdjust="spacing" textLength="15.3" x="645.3" y="470.4513">ref</text><text fill="#000000" font-family="sans-serif" font-size="10.8" lengthAdjust="spacing" textLength="108" x="659.25" y="488.3801">Get Collaborators List</text><polygon fill="#181818" points="537.3,516.8145,528.3,520.4145,537.3,524.0145,533.7,520.4145" style="stroke:#181818;stroke-width:0.9;"/><line style="stroke:#181818;stroke-width:0.9;stroke-dasharray:2.0,2.0;" x1="531.9" x2="712.35" y1="520.4145" y2="520.4145"/><text fill="#000000" font-family="sans-serif" font-size="11.7" font-weight="bold" lengthAdjust="spacing" textLength="12.6" x="542.7" y="515.678">10</text><text fill="#000000" font-family="sans-serif" font-size="11.7" lengthAdjust="spacing" textLength="3.6" x="558.9" y="515.678">&#160;</text><polygon fill="#181818" points="342,544.9764,333,548.5764,342,552.1764,338.4,548.5764" style="stroke:#181818;stroke-width:0.9;"/><line style="stroke:#181818;stroke-width:0.9;stroke-dasharray:2.0,2.0;" x1="336.6" x2="522" y1="548.5764" y2="548.5764"/><text fill="#000000" font-family="sans-serif" font-size="11.7" font-weight="bold" lengthAdjust="spacing" textLength="12.6" x="347.4" y="543.8399">11</text><text fill="#000000" font-family="sans-serif" font-size="11.7" lengthAdjust="spacing" textLength="3.6" x="363.6" y="543.8399">&#160;</text><polygon fill="#181818" points="507.6,573.1383,516.6,576.7383,507.6,580.3383,511.2,576.7383" style="stroke:#181818;stroke-width:0.9;"/><line style="stroke:#181818;stroke-width:0.9;" x1="332.1" x2="513" y1="576.7383" y2="576.7383"/><text fill="#000000" font-family="sans-serif" font-size="11.7" font-weight="bold" lengthAdjust="spacing" textLength="12.6" x="338.4" y="572.0019">12</text><text fill="#000000" font-family="sans-serif" font-size="11.7" lengthAdjust="spacing" textLength="52.2" x="354.6" y="572.0019">getTeam()</text><rect fill="none" height="38.9268" style="stroke:#000000;stroke-width:1.35;" width="214.2" x="415.8" y="583.9383"/><path d="M415.8,583.9383 L471.6,583.9383 L471.6,592.0383 L462.6,601.0383 L415.8,601.0383 L415.8,583.9383 " fill="#EEEEEE" style="stroke:#000000;stroke-width:1.8;"/><text fill="#000000" font-family="sans-serif" font-size="11.7" font-weight="bold" lengthAdjust="spacing" textLength="15.3" x="427.5" y="598.3638">ref</text><text fill="#000000" font-family="sans-serif" font-size="10.8" lengthAdjust="spacing" textLength="48.6" x="498.6" y="616.2926">Get Team</text><polygon fill="#181818" points="342,644.727,333,648.327,342,651.927,338.4,648.327" style="stroke:#181818;stroke-width:0.9;"/><line style="stroke:#181818;stroke-width:0.9;stroke-dasharray:2.0,2.0;" x1="336.6" x2="522" y1="648.327" y2="648.327"/><text fill="#000000" font-family="sans-serif" font-size="11.7" font-weight="bold" lengthAdjust="spacing" textLength="12.6" x="347.4" y="643.5905">13</text><text fill="#000000" font-family="sans-serif" font-size="11.7" lengthAdjust="spacing" textLength="26.1" x="363.6" y="643.5905">team</text><polygon fill="#181818" points="73.8,672.8889,64.8,676.4889,73.8,680.0889,70.2,676.4889" style="stroke:#181818;stroke-width:0.9;"/><line style="stroke:#181818;stroke-width:0.9;stroke-dasharray:2.0,2.0;" x1="68.4" x2="326.7" y1="676.4889" y2="676.4889"/><text fill="#000000" font-family="sans-serif" font-size="11.7" font-weight="bold" lengthAdjust="spacing" textLength="12.6" x="79.2" y="671.7524">14</text><text fill="#000000" font-family="sans-serif" font-size="11.7" lengthAdjust="spacing" textLength="194.4" x="95.4" y="671.7524">shows and aks to confirm all the data</text><polygon fill="#181818" points="312.3,701.0508,321.3,704.6508,312.3,708.2508,315.9,704.6508" style="stroke:#181818;stroke-width:0.9;"/><line style="stroke:#181818;stroke-width:0.9;" x1="63.9" x2="317.7" y1="704.6508" y2="704.6508"/><text fill="#000000" font-family="sans-serif" font-size="11.7" font-weight="bold" lengthAdjust="spacing" textLength="12.6" x="70.2" y="699.9144">15</text><text fill="#000000" font-family="sans-serif" font-size="11.7" lengthAdjust="spacing" textLength="105.3" x="86.4" y="699.9144">confirms all the data</text><polygon fill="#181818" points="73.8,729.2127,64.8,732.8127,73.8,736.4127,70.2,732.8127" style="stroke:#181818;stroke-width:0.9;"/><line style="stroke:#181818;stroke-width:0.9;stroke-dasharray:2.0,2.0;" x1="68.4" x2="326.7" y1="732.8127" y2="732.8127"/><text fill="#000000" font-family="sans-serif" font-size="11.7" font-weight="bold" lengthAdjust="spacing" textLength="12.6" x="79.2" y="728.0763">16</text><text fill="#000000" font-family="sans-serif" font-size="11.7" lengthAdjust="spacing" textLength="142.2" x="95.4" y="728.0763">displays operation success</text><!--SRC=[ZLIxRkD03EptAmXNTuMBQrMuSP44I830IJetZ4HR2-z3jrp5yT-7MWa-hINbeaBGWqCEXyFbatOD1hHWlVDb7RmbYA4bnTS_3POdFD9Bl1Y2G6L4TpJZ0AwnycVjZd10mwGKbj47MDst5XtiY7qRIkAzUq8dYS8AaE5-zwG47dMf6tGHLiKTEGeOwPNGFWVVU4Rpzf22tnv-4BlrBWPlp51W-xfxp54EBUrTiPKOVFS2zu5t95WjJvSUDFzFMcgZTwrzfm1_KeFwGygdBfJSOBqHab18ZXD3z70S2092f4x4WQG2kQvmwKi9R2teBaaXylvjYIF3kTPb3LforGHMEsrR2-YglGEBd-bjeECFVOLoJ5rLb1N9ECPBGvF4qxHIQYRnBFzDKhkGhkFBIHl3ZvhZhzyZeT8q4ZZG0Vo7L4YVOBZkA48FXGwRlfEmacYbkiWaKgBFrmhZBli2ysBAF9YCEBVlkay0ZgYYwbQfhl1Oh2bGPV6p54PwP8xwHfQ-nysI0s4nsRzSIzxDLL-86WyYYvcRnmB7zT1u9ieIgz5Gfo9svMw4x5OzQ_S7Zkemtrcfy_T_JCIrFtDQ4Emtk_Jke8FiZ37951L6l3NHs413FEU0vIEWqjmOl33ufZj1j7V0RIddvsIflm00]--></g></svg>