<?xml version="1.0" encoding="us-ascii" standalone="no"?><svg xmlns="http://www.w3.org/2000/svg" xmlns:xlink="http://www.w3.org/1999/xlink" contentStyleType="text/css" height="653.1px" preserveAspectRatio="none" style="width:620px;height:653px;background:#FFFFFF;" version="1.1" viewBox="0 0 620 653" width="620.9px" zoomAndPan="magnify"><defs/><g><rect fill="#FFFFFF" height="497.6959" style="stroke:#181818;stroke-width:0.6999999999999998;" width="7" x="42.7" y="78.5695"/><rect fill="#FFFFFF" height="34.0074" style="stroke:#181818;stroke-width:0.6999999999999998;" width="7" x="251.3" y="94.8732"/><rect fill="#FFFFFF" height="99.4875" style="stroke:#181818;stroke-width:0.6999999999999998;" width="7" x="251.3" y="162.8881"/><rect fill="#FFFFFF" height="241.8787" style="stroke:#181818;stroke-width:0.6999999999999998;" width="7" x="251.3" y="284.2793"/><rect fill="#FFFFFF" height="21.9037" style="stroke:#181818;stroke-width:0.6999999999999998;" width="7" x="251.3" y="548.0617"/><rect fill="#FFFFFF" height="55.6801" style="stroke:#181818;stroke-width:0.6999999999999998;" width="7" x="403.2" y="184.7918"/><rect fill="#FFFFFF" height="99.4875" style="stroke:#181818;stroke-width:0.6999999999999998;" width="7" x="403.2" y="327.183"/><rect fill="#FFFFFF" height="55.6801" style="stroke:#181818;stroke-width:0.6999999999999998;" width="7" x="403.2" y="448.5742"/><rect fill="#FFFFFF" height="55.6801" style="stroke:#181818;stroke-width:0.6999999999999998;" width="7" x="551.25" y="349.0867"/><line style="stroke:#181818;stroke-width:0.3499999999999999;stroke-dasharray:5.0,5.0;" x1="46.2" x2="46.2" y1="71.5695" y2="582.5654"/><line style="stroke:#181818;stroke-width:0.3499999999999999;stroke-dasharray:5.0,5.0;" x1="254.8" x2="254.8" y1="71.5695" y2="582.5654"/><line style="stroke:#181818;stroke-width:0.3499999999999999;stroke-dasharray:5.0,5.0;" x1="406.7" x2="406.7" y1="71.5695" y2="582.5654"/><line style="stroke:#181818;stroke-width:0.3499999999999999;stroke-dasharray:5.0,5.0;" x1="554.4" x2="554.4" y1="71.5695" y2="582.5654"/><text fill="#000000" font-family="sans-serif" font-size="9.8" lengthAdjust="spacing" textLength="81.2" x="3.5" y="56.0752">Human Resources</text><text fill="#000000" font-family="sans-serif" font-size="9.8" lengthAdjust="spacing" textLength="39.2" x="24.5" y="69.11">Manager</text><ellipse cx="46.2" cy="9.45" fill="#E3E3E3" rx="5.6" ry="5.6" style="stroke:#181818;stroke-width:0.3499999999999999;"/><path d="M46.2,15.05 L46.2,33.95 M37.1,20.65 L55.3,20.65 M46.2,33.95 L37.1,44.45 M46.2,33.95 L55.3,44.45 " fill="none" style="stroke:#181818;stroke-width:0.3499999999999999;"/><text fill="#000000" font-family="sans-serif" font-size="9.8" lengthAdjust="spacing" textLength="81.2" x="3.5" y="592.4406">Human Resources</text><text fill="#000000" font-family="sans-serif" font-size="9.8" lengthAdjust="spacing" textLength="39.2" x="24.5" y="605.4754">Manager</text><ellipse cx="46.2" cy="613.885" fill="#E3E3E3" rx="5.6" ry="5.6" style="stroke:#181818;stroke-width:0.3499999999999999;"/><path d="M46.2,619.485 L46.2,638.385 M37.1,625.085 L55.3,625.085 M46.2,638.385 L37.1,648.885 M46.2,638.385 L55.3,648.885 " fill="none" style="stroke:#181818;stroke-width:0.3499999999999999;"/><rect fill="#E3E3E3" height="22.8348" rx="1.75" ry="1.75" style="stroke:#181818;stroke-width:0.3499999999999999;" width="127.4" x="191.1" y="48.0348"/><text fill="#000000" font-family="sans-serif" font-size="9.8" lengthAdjust="spacing" textLength="117.6" x="196" y="63.51">:GenerateTeamProposalUI</text><rect fill="#E3E3E3" height="22.8348" rx="1.75" ry="1.75" style="stroke:#181818;stroke-width:0.3499999999999999;" width="127.4" x="191.1" y="581.8654"/><text fill="#000000" font-family="sans-serif" font-size="9.8" lengthAdjust="spacing" textLength="117.6" x="196" y="597.3406">:GenerateTeamProposalUI</text><rect fill="#E3E3E3" height="22.8348" rx="1.75" ry="1.75" style="stroke:#181818;stroke-width:0.3499999999999999;" width="162.4" x="325.5" y="48.0348"/><text fill="#000000" font-family="sans-serif" font-size="9.8" lengthAdjust="spacing" textLength="152.6" x="330.4" y="63.51">:GenerateTeamProposalController</text><rect fill="#E3E3E3" height="22.8348" rx="1.75" ry="1.75" style="stroke:#181818;stroke-width:0.3499999999999999;" width="162.4" x="325.5" y="581.8654"/><text fill="#000000" font-family="sans-serif" font-size="9.8" lengthAdjust="spacing" textLength="152.6" x="330.4" y="597.3406">:GenerateTeamProposalController</text><rect fill="#E3E3E3" height="35.8695" rx="1.75" ry="1.75" style="stroke:#181818;stroke-width:0.3499999999999999;" width="119.7" x="494.9" y="35"/><text fill="#000000" font-family="sans-serif" font-size="9.8" lengthAdjust="spacing" textLength="24.5" x="542.5" y="50.4752">name</text><text fill="#000000" font-family="sans-serif" font-size="9.8" lengthAdjust="spacing" textLength="109.9" x="499.8" y="63.51">:CollaboratorsRepository</text><rect fill="#E3E3E3" height="35.8695" rx="1.75" ry="1.75" style="stroke:#181818;stroke-width:0.3499999999999999;" width="119.7" x="494.9" y="581.8654"/><text fill="#000000" font-family="sans-serif" font-size="9.8" lengthAdjust="spacing" textLength="24.5" x="542.5" y="597.3406">name</text><text fill="#000000" font-family="sans-serif" font-size="9.8" lengthAdjust="spacing" textLength="109.9" x="499.8" y="610.3754">:CollaboratorsRepository</text><rect fill="#FFFFFF" height="497.6959" style="stroke:#181818;stroke-width:0.6999999999999998;" width="7" x="42.7" y="78.5695"/><rect fill="#FFFFFF" height="34.0074" style="stroke:#181818;stroke-width:0.6999999999999998;" width="7" x="251.3" y="94.8732"/><rect fill="#FFFFFF" height="99.4875" style="stroke:#181818;stroke-width:0.6999999999999998;" width="7" x="251.3" y="162.8881"/><rect fill="#FFFFFF" height="241.8787" style="stroke:#181818;stroke-width:0.6999999999999998;" width="7" x="251.3" y="284.2793"/><rect fill="#FFFFFF" height="21.9037" style="stroke:#181818;stroke-width:0.6999999999999998;" width="7" x="251.3" y="548.0617"/><rect fill="#FFFFFF" height="55.6801" style="stroke:#181818;stroke-width:0.6999999999999998;" width="7" x="403.2" y="184.7918"/><rect fill="#FFFFFF" height="99.4875" style="stroke:#181818;stroke-width:0.6999999999999998;" width="7" x="403.2" y="327.183"/><rect fill="#FFFFFF" height="55.6801" style="stroke:#181818;stroke-width:0.6999999999999998;" width="7" x="403.2" y="448.5742"/><rect fill="#FFFFFF" height="55.6801" style="stroke:#181818;stroke-width:0.6999999999999998;" width="7" x="551.25" y="349.0867"/><polygon fill="#181818" points="242.9,92.0732,249.9,94.8732,242.9,97.6732,245.7,94.8732" style="stroke:#181818;stroke-width:0.6999999999999998;"/><line style="stroke:#181818;stroke-width:0.6999999999999998;" x1="49.7" x2="247.1" y1="94.8732" y2="94.8732"/><text fill="#000000" font-family="sans-serif" font-size="9.1" font-weight="bold" lengthAdjust="spacing" textLength="4.9" x="54.6" y="91.1894">1</text><text fill="#000000" font-family="sans-serif" font-size="9.1" lengthAdjust="spacing" textLength="135.8" x="62.3" y="91.1894">asks to generate a team proposal</text><polygon fill="#181818" points="57.4,126.0807,50.4,128.8807,57.4,131.6807,54.6,128.8807" style="stroke:#181818;stroke-width:0.6999999999999998;"/><line style="stroke:#181818;stroke-width:0.6999999999999998;stroke-dasharray:2.0,2.0;" x1="53.2" x2="254.1" y1="128.8807" y2="128.8807"/><text fill="#000000" font-family="sans-serif" font-size="9.1" font-weight="bold" lengthAdjust="spacing" textLength="4.9" x="61.6" y="119.1449">2</text><text fill="#000000" font-family="sans-serif" font-size="9.1" lengthAdjust="spacing" textLength="143.5" x="69.3" y="113.0931">requests which is the minimum and</text><text fill="#000000" font-family="sans-serif" font-size="9.1" lengthAdjust="spacing" textLength="160.3" x="72.1" y="125.1968">maximum number of team collaborators</text><polygon fill="#181818" points="242.9,160.0881,249.9,162.8881,242.9,165.6881,245.7,162.8881" style="stroke:#181818;stroke-width:0.6999999999999998;"/><line style="stroke:#181818;stroke-width:0.6999999999999998;" x1="49.7" x2="247.1" y1="162.8881" y2="162.8881"/><text fill="#000000" font-family="sans-serif" font-size="9.1" font-weight="bold" lengthAdjust="spacing" textLength="4.9" x="54.6" y="153.1523">3</text><text fill="#000000" font-family="sans-serif" font-size="9.1" lengthAdjust="spacing" textLength="180.6" x="62.3" y="147.1005">types the minimum and maximum number of</text><text fill="#000000" font-family="sans-serif" font-size="9.1" lengthAdjust="spacing" textLength="74.9" x="65.1" y="159.2042">team collaborators</text><polygon fill="#181818" points="394.8,181.9918,401.8,184.7918,394.8,187.5918,397.6,184.7918" style="stroke:#181818;stroke-width:0.6999999999999998;"/><line style="stroke:#181818;stroke-width:0.6999999999999998;" x1="258.3" x2="399" y1="184.7918" y2="184.7918"/><text fill="#000000" font-family="sans-serif" font-size="9.1" font-weight="bold" lengthAdjust="spacing" textLength="4.9" x="263.2" y="181.1079">4</text><text fill="#000000" font-family="sans-serif" font-size="9.1" lengthAdjust="spacing" textLength="55.3" x="270.9" y="181.1079">getSkillsList()</text><rect fill="none" height="30.2764" style="stroke:#000000;stroke-width:1.0499999999999998;" width="166.6" x="323.4" y="190.3918"/><path d="M323.4,190.3918 L366.8,190.3918 L366.8,196.6918 L359.8,203.6918 L323.4,203.6918 L323.4,190.3918 " fill="#EEEEEE" style="stroke:#000000;stroke-width:1.3999999999999997;"/><text fill="#000000" font-family="sans-serif" font-size="9.1" font-weight="bold" lengthAdjust="spacing" textLength="11.9" x="332.5" y="201.6116">ref</text><text fill="#000000" font-family="sans-serif" font-size="8.4" lengthAdjust="spacing" textLength="52.5" x="380.45" y="215.5562">Get Skills List</text><polygon fill="#181818" points="266,237.6719,259,240.4719,266,243.2719,263.2,240.4719" style="stroke:#181818;stroke-width:0.6999999999999998;"/><line style="stroke:#181818;stroke-width:0.6999999999999998;stroke-dasharray:2.0,2.0;" x1="261.8" x2="406" y1="240.4719" y2="240.4719"/><text fill="#000000" font-family="sans-serif" font-size="9.1" font-weight="bold" lengthAdjust="spacing" textLength="4.9" x="270.2" y="236.788">5</text><text fill="#000000" font-family="sans-serif" font-size="9.1" lengthAdjust="spacing" textLength="35.7" x="277.9" y="236.788">skillsList</text><polygon fill="#181818" points="57.4,259.5756,50.4,262.3756,57.4,265.1756,54.6,262.3756" style="stroke:#181818;stroke-width:0.6999999999999998;"/><line style="stroke:#181818;stroke-width:0.6999999999999998;stroke-dasharray:2.0,2.0;" x1="53.2" x2="254.1" y1="262.3756" y2="262.3756"/><text fill="#000000" font-family="sans-serif" font-size="9.1" font-weight="bold" lengthAdjust="spacing" textLength="4.9" x="61.6" y="258.6917">6</text><text fill="#000000" font-family="sans-serif" font-size="9.1" lengthAdjust="spacing" textLength="149.1" x="69.3" y="258.6917">requests to selects the skills needed</text><polygon fill="#181818" points="242.9,281.4793,249.9,284.2793,242.9,287.0793,245.7,284.2793" style="stroke:#181818;stroke-width:0.6999999999999998;"/><line style="stroke:#181818;stroke-width:0.6999999999999998;" x1="49.7" x2="247.1" y1="284.2793" y2="284.2793"/><text fill="#000000" font-family="sans-serif" font-size="9.1" font-weight="bold" lengthAdjust="spacing" textLength="4.9" x="54.6" y="280.5954">7</text><text fill="#000000" font-family="sans-serif" font-size="9.1" lengthAdjust="spacing" textLength="68.6" x="62.3" y="280.5954">selects the skills</text><polygon fill="#181818" points="394.8,324.383,401.8,327.183,394.8,329.983,397.6,327.183" style="stroke:#181818;stroke-width:0.6999999999999998;"/><line style="stroke:#181818;stroke-width:0.6999999999999998;" x1="258.3" x2="399" y1="327.183" y2="327.183"/><text fill="#000000" font-family="sans-serif" font-size="9.1" font-weight="bold" lengthAdjust="spacing" textLength="4.9" x="263.2" y="323.4991">8</text><text fill="#000000" font-family="sans-serif" font-size="9.1" lengthAdjust="spacing" textLength="86.1" x="270.9" y="323.4991">getCollaboratorsList()</text><polygon fill="#181818" points="542.85,346.2867,549.85,349.0867,542.85,351.8867,545.65,349.0867" style="stroke:#181818;stroke-width:0.6999999999999998;"/><line style="stroke:#181818;stroke-width:0.6999999999999998;" x1="410.2" x2="547.05" y1="349.0867" y2="349.0867"/><text fill="#000000" font-family="sans-serif" font-size="9.1" font-weight="bold" lengthAdjust="spacing" textLength="4.9" x="415.1" y="345.4028">9</text><text fill="#000000" font-family="sans-serif" font-size="9.1" lengthAdjust="spacing" textLength="86.1" x="422.8" y="345.4028">getCollaboratorsList()</text><rect fill="none" height="30.2764" style="stroke:#000000;stroke-width:1.0499999999999998;" width="123.9" x="492.8" y="354.6867"/><path d="M492.8,354.6867 L536.2,354.6867 L536.2,360.9867 L529.2,367.9867 L492.8,367.9867 L492.8,354.6867 " fill="#EEEEEE" style="stroke:#000000;stroke-width:1.3999999999999997;"/><text fill="#000000" font-family="sans-serif" font-size="9.1" font-weight="bold" lengthAdjust="spacing" textLength="11.9" x="501.9" y="365.9065">ref</text><text fill="#000000" font-family="sans-serif" font-size="8.4" lengthAdjust="spacing" textLength="84" x="512.75" y="379.8512">Get Collaborators List</text><polygon fill="#181818" points="417.9,401.9668,410.9,404.7668,417.9,407.5668,415.1,404.7668" style="stroke:#181818;stroke-width:0.6999999999999998;"/><line style="stroke:#181818;stroke-width:0.6999999999999998;stroke-dasharray:2.0,2.0;" x1="413.7" x2="554.05" y1="404.7668" y2="404.7668"/><text fill="#000000" font-family="sans-serif" font-size="9.1" font-weight="bold" lengthAdjust="spacing" textLength="9.8" x="422.1" y="401.0829">10</text><text fill="#000000" font-family="sans-serif" font-size="9.1" lengthAdjust="spacing" textLength="2.8" x="434.7" y="401.0829">&#160;</text><polygon fill="#181818" points="266,423.8705,259,426.6705,266,429.4705,263.2,426.6705" style="stroke:#181818;stroke-width:0.6999999999999998;"/><line style="stroke:#181818;stroke-width:0.6999999999999998;stroke-dasharray:2.0,2.0;" x1="261.8" x2="406" y1="426.6705" y2="426.6705"/><text fill="#000000" font-family="sans-serif" font-size="9.1" font-weight="bold" lengthAdjust="spacing" textLength="9.8" x="270.2" y="422.9866">11</text><text fill="#000000" font-family="sans-serif" font-size="9.1" lengthAdjust="spacing" textLength="2.8" x="282.8" y="422.9866">&#160;</text><polygon fill="#181818" points="394.8,445.7742,401.8,448.5742,394.8,451.3742,397.6,448.5742" style="stroke:#181818;stroke-width:0.6999999999999998;"/><line style="stroke:#181818;stroke-width:0.6999999999999998;" x1="258.3" x2="399" y1="448.5742" y2="448.5742"/><text fill="#000000" font-family="sans-serif" font-size="9.1" font-weight="bold" lengthAdjust="spacing" textLength="9.8" x="263.2" y="444.8903">12</text><text fill="#000000" font-family="sans-serif" font-size="9.1" lengthAdjust="spacing" textLength="40.6" x="275.8" y="444.8903">getTeam()</text><rect fill="none" height="30.2764" style="stroke:#000000;stroke-width:1.0499999999999998;" width="166.6" x="323.4" y="454.1742"/><path d="M323.4,454.1742 L366.8,454.1742 L366.8,460.4742 L359.8,467.4742 L323.4,467.4742 L323.4,454.1742 " fill="#EEEEEE" style="stroke:#000000;stroke-width:1.3999999999999997;"/><text fill="#000000" font-family="sans-serif" font-size="9.1" font-weight="bold" lengthAdjust="spacing" textLength="11.9" x="332.5" y="465.394">ref</text><text fill="#000000" font-family="sans-serif" font-size="8.4" lengthAdjust="spacing" textLength="37.8" x="387.8" y="479.3387">Get Team</text><polygon fill="#181818" points="266,501.4543,259,504.2543,266,507.0543,263.2,504.2543" style="stroke:#181818;stroke-width:0.6999999999999998;"/><line style="stroke:#181818;stroke-width:0.6999999999999998;stroke-dasharray:2.0,2.0;" x1="261.8" x2="406" y1="504.2543" y2="504.2543"/><text fill="#000000" font-family="sans-serif" font-size="9.1" font-weight="bold" lengthAdjust="spacing" textLength="9.8" x="270.2" y="500.5704">13</text><text fill="#000000" font-family="sans-serif" font-size="9.1" lengthAdjust="spacing" textLength="20.3" x="282.8" y="500.5704">team</text><polygon fill="#181818" points="57.4,523.358,50.4,526.158,57.4,528.958,54.6,526.158" style="stroke:#181818;stroke-width:0.6999999999999998;"/><line style="stroke:#181818;stroke-width:0.6999999999999998;stroke-dasharray:2.0,2.0;" x1="53.2" x2="254.1" y1="526.158" y2="526.158"/><text fill="#000000" font-family="sans-serif" font-size="9.1" font-weight="bold" lengthAdjust="spacing" textLength="9.8" x="61.6" y="522.4741">14</text><text fill="#000000" font-family="sans-serif" font-size="9.1" lengthAdjust="spacing" textLength="151.2" x="74.2" y="522.4741">shows and aks to confirm all the data</text><polygon fill="#181818" points="242.9,545.2617,249.9,548.0617,242.9,550.8617,245.7,548.0617" style="stroke:#181818;stroke-width:0.6999999999999998;"/><line style="stroke:#181818;stroke-width:0.6999999999999998;" x1="49.7" x2="247.1" y1="548.0617" y2="548.0617"/><text fill="#000000" font-family="sans-serif" font-size="9.1" font-weight="bold" lengthAdjust="spacing" textLength="9.8" x="54.6" y="544.3778">15</text><text fill="#000000" font-family="sans-serif" font-size="9.1" lengthAdjust="spacing" textLength="81.9" x="67.2" y="544.3778">confirms all the data</text><polygon fill="#181818" points="57.4,567.1654,50.4,569.9654,57.4,572.7654,54.6,569.9654" style="stroke:#181818;stroke-width:0.6999999999999998;"/><line style="stroke:#181818;stroke-width:0.6999999999999998;stroke-dasharray:2.0,2.0;" x1="53.2" x2="254.1" y1="569.9654" y2="569.9654"/><text fill="#000000" font-family="sans-serif" font-size="9.1" font-weight="bold" lengthAdjust="spacing" textLength="9.8" x="61.6" y="566.2815">16</text><text fill="#000000" font-family="sans-serif" font-size="9.1" lengthAdjust="spacing" textLength="110.6" x="74.2" y="566.2815">displays operation success</text><!--SRC=[ZLGzSzim3DtvAt2Usi53LmrUF2IvI-voJh9vGIJOufaVAa75zRylIAck64jDDVWiwJtWuV51VDAkmu0Mh7U-ReEt137qfFZwfiFwX4TwYHT34AYEw8vc2k0M6t_MxWW7D4nAOHrzWDLzRz71ZjZteIRUkoTqKYYi01dkTqzAw57NkaCNOLNTaQE0aLu9xNFmdMSqRmyP_FRm7zYjTp5uOyO6szVTOyboQ6dlggrWyDqBtGVUaN2r_BiCfFbtCb8VlUljEmNuaGVK7z8-Jw7a1zOR4GcLr3WnH0_7KI0WH4ecZY8Lo7MbornAQ6jXfoALsFkp9uuCvrRNBMYfrH9OxRJjBQ1hzWui_iftenn_63hKK-cgeQ99eJ5UEhefV5jMMiqKdjM_oMvNCdLyEMbZ-55p_FPzObG-ZKmET03_8Hto8nYlEuemK25nytCILO9MAY6pILa-NpjCfnmQp9ifvy5a9Bd3r4C1S4GDDP-TIesdPjqILO6VbJ3neqZKFsmPPjmi9H0MY_sjjPJTqlK5rFGW2ipCUQWbaUi_anUsBEagp_LB9zEkpvXtcwSqGWAhYU0YGIdMNsI7Mt_cl1SuB7JjtK47MHLZSXOQZFWvEzFSZ7Wk2SkRtsZk35uOV9S-7DexuBwMp-RDBly6]--></g></svg>