<?xml version="1.0" encoding="us-ascii" standalone="no"?><svg xmlns="http://www.w3.org/2000/svg" xmlns:xlink="http://www.w3.org/1999/xlink" contentStyleType="text/css" height="456.8px" preserveAspectRatio="none" style="width:799px;height:456px;background:#FFFFFF;" version="1.1" viewBox="0 0 799 456" width="799.2px" zoomAndPan="magnify"><defs/><g><rect fill="#FFFFFF" height="332.3938" style="stroke:#181818;stroke-width:0.8000000000000002;" width="8" x="133.6" y="72.4266"/><rect fill="#FFFFFF" height="254.0953" style="stroke:#181818;stroke-width:0.8000000000000002;" width="8" x="302.8" y="118.4922"/><rect fill="#FFFFFF" height="101.7313" style="stroke:#181818;stroke-width:0.8000000000000002;" width="8" x="458.8" y="164.5578"/><rect fill="#FFFFFF" height="25.0328" style="stroke:#181818;stroke-width:0.8000000000000002;" width="8" x="611.6" y="210.6234"/><rect fill="#FFFFFF" height="24" style="stroke:#181818;stroke-width:0.8000000000000002;" width="8" x="725.6" y="312.3547"/><rect fill="none" height="217.8625" style="stroke:#000000;stroke-width:1.2000000000000002;" width="572" x="222.4" y="130.4922"/><rect fill="none" height="65.4984" style="stroke:#000000;stroke-width:1.2000000000000002;" width="292.4" x="388.4" y="176.5578"/><rect fill="none" height="64.4656" style="stroke:#000000;stroke-width:1.2000000000000002;" width="556" x="230.4" y="278.2891"/><line style="stroke:#181818;stroke-width:0.4000000000000001;stroke-dasharray:5.0,5.0;" x1="137.6" x2="137.6" y1="45.7938" y2="412.0203"/><line style="stroke:#181818;stroke-width:0.4000000000000001;stroke-dasharray:5.0,5.0;" x1="306.4" x2="306.4" y1="45.7938" y2="412.0203"/><line style="stroke:#181818;stroke-width:0.4000000000000001;stroke-dasharray:5.0,5.0;" x1="462.8" x2="462.8" y1="45.7938" y2="412.0203"/><line style="stroke:#181818;stroke-width:0.4000000000000001;stroke-dasharray:5.0,5.0;" x1="615.2" x2="615.2" y1="45.7938" y2="412.0203"/><line style="stroke:#181818;stroke-width:0.4000000000000001;stroke-dasharray:5.0,5.0;" x1="729.6" x2="729.6" y1="45.7938" y2="412.0203"/><rect fill="#E3E3E3" height="26.0969" rx="2" ry="2" style="stroke:#181818;stroke-width:0.4000000000000001;" width="185.6" x="44.8" y="18.8969"/><text fill="#000000" font-family="sans-serif" font-size="11.2" lengthAdjust="spacing" textLength="174.4" x="50.4" y="36.5828">:GenerateTeamProposalController</text><rect fill="#E3E3E3" height="26.0969" rx="2" ry="2" style="stroke:#181818;stroke-width:0.4000000000000001;" width="185.6" x="44.8" y="411.2203"/><text fill="#000000" font-family="sans-serif" font-size="11.2" lengthAdjust="spacing" textLength="174.4" x="50.4" y="428.9063">:GenerateTeamProposalController</text><rect fill="#E3E3E3" height="40.9938" rx="2" ry="2" style="stroke:#181818;stroke-width:0.4000000000000001;" width="136.8" x="238.4" y="4"/><text fill="#000000" font-family="sans-serif" font-size="11.2" lengthAdjust="spacing" textLength="28" x="292.8" y="21.6859">name</text><text fill="#000000" font-family="sans-serif" font-size="11.2" lengthAdjust="spacing" textLength="125.6" x="244" y="36.5828">:CollaboratorsRepository</text><rect fill="#E3E3E3" height="40.9938" rx="2" ry="2" style="stroke:#181818;stroke-width:0.4000000000000001;" width="136.8" x="238.4" y="411.2203"/><text fill="#000000" font-family="sans-serif" font-size="11.2" lengthAdjust="spacing" textLength="28" x="292.8" y="428.9063">name</text><text fill="#000000" font-family="sans-serif" font-size="11.2" lengthAdjust="spacing" textLength="125.6" x="244" y="443.8031">:CollaboratorsRepository</text><rect fill="#E3E3E3" height="40.9938" rx="2" ry="2" style="stroke:#181818;stroke-width:0.4000000000000001;" width="132.8" x="396.4" y="4"/><text fill="#000000" font-family="sans-serif" font-size="11.2" lengthAdjust="spacing" textLength="88" x="418.8" y="21.6859">CollaboratorSkills</text><text fill="#000000" font-family="sans-serif" font-size="11.2" lengthAdjust="spacing" textLength="121.6" x="402" y="36.5828">:List&lt;CollaboratorSkills&gt;</text><rect fill="#E3E3E3" height="40.9938" rx="2" ry="2" style="stroke:#181818;stroke-width:0.4000000000000001;" width="132.8" x="396.4" y="411.2203"/><text fill="#000000" font-family="sans-serif" font-size="11.2" lengthAdjust="spacing" textLength="88" x="418.8" y="428.9063">CollaboratorSkills</text><text fill="#000000" font-family="sans-serif" font-size="11.2" lengthAdjust="spacing" textLength="121.6" x="402" y="443.8031">:List&lt;CollaboratorSkills&gt;</text><rect fill="#E3E3E3" height="40.9938" rx="2" ry="2" style="stroke:#181818;stroke-width:0.4000000000000001;" width="114.4" x="558.4" y="4"/><text fill="#000000" font-family="sans-serif" font-size="11.2" lengthAdjust="spacing" textLength="69.6" x="580.8" y="21.6859">SkillsSelected</text><text fill="#000000" font-family="sans-serif" font-size="11.2" lengthAdjust="spacing" textLength="103.2" x="564" y="36.5828">:List&lt;SkillsSelected&gt;</text><rect fill="#E3E3E3" height="40.9938" rx="2" ry="2" style="stroke:#181818;stroke-width:0.4000000000000001;" width="114.4" x="558.4" y="411.2203"/><text fill="#000000" font-family="sans-serif" font-size="11.2" lengthAdjust="spacing" textLength="69.6" x="580.8" y="428.9063">SkillsSelected</text><text fill="#000000" font-family="sans-serif" font-size="11.2" lengthAdjust="spacing" textLength="103.2" x="564" y="443.8031">:List&lt;SkillsSelected&gt;</text><rect fill="#E3E3E3" height="40.9938" rx="2" ry="2" style="stroke:#181818;stroke-width:0.4000000000000001;" width="97.6" x="680.8" y="4"/><text fill="#000000" font-family="sans-serif" font-size="11.2" lengthAdjust="spacing" textLength="24.8" x="717.2" y="21.6859">team</text><text fill="#000000" font-family="sans-serif" font-size="11.2" lengthAdjust="spacing" textLength="86.4" x="686.4" y="36.5828">:TeamRepository</text><rect fill="#E3E3E3" height="40.9938" rx="2" ry="2" style="stroke:#181818;stroke-width:0.4000000000000001;" width="97.6" x="680.8" y="411.2203"/><text fill="#000000" font-family="sans-serif" font-size="11.2" lengthAdjust="spacing" textLength="24.8" x="717.2" y="428.9063">team</text><text fill="#000000" font-family="sans-serif" font-size="11.2" lengthAdjust="spacing" textLength="86.4" x="686.4" y="443.8031">:TeamRepository</text><rect fill="#FFFFFF" height="332.3938" style="stroke:#181818;stroke-width:0.8000000000000002;" width="8" x="133.6" y="72.4266"/><rect fill="#FFFFFF" height="254.0953" style="stroke:#181818;stroke-width:0.8000000000000002;" width="8" x="302.8" y="118.4922"/><rect fill="#FFFFFF" height="101.7313" style="stroke:#181818;stroke-width:0.8000000000000002;" width="8" x="458.8" y="164.5578"/><rect fill="#FFFFFF" height="25.0328" style="stroke:#181818;stroke-width:0.8000000000000002;" width="8" x="611.6" y="210.6234"/><rect fill="#FFFFFF" height="24" style="stroke:#181818;stroke-width:0.8000000000000002;" width="8" x="725.6" y="312.3547"/><polygon fill="#181818" points="124,69.2266,132,72.4266,124,75.6266,127.2,72.4266" style="stroke:#181818;stroke-width:0.8000000000000002;"/><line style="stroke:#181818;stroke-width:0.8000000000000002;" x1="0" x2="128.8" y1="72.4266" y2="72.4266"/><text fill="#000000" font-family="sans-serif" font-size="10.4" font-weight="bold" lengthAdjust="spacing" textLength="11.2" x="5.6" y="68.2164">14</text><text fill="#000000" font-family="sans-serif" font-size="10.4" lengthAdjust="spacing" textLength="98.4" x="20" y="68.2164">getCollaboratorsList()</text><polygon fill="#181818" points="293.2,115.2922,301.2,118.4922,293.2,121.6922,296.4,118.4922" style="stroke:#181818;stroke-width:0.8000000000000002;"/><line style="stroke:#181818;stroke-width:0.8000000000000002;" x1="141.6" x2="298" y1="118.4922" y2="118.4922"/><text fill="#000000" font-family="sans-serif" font-size="10.4" font-weight="bold" lengthAdjust="spacing" textLength="11.2" x="147.2" y="114.282">15</text><text fill="#000000" font-family="sans-serif" font-size="10.4" lengthAdjust="spacing" textLength="98.4" x="161.6" y="114.282">getCollaboratorsList()</text><path d="M222.4,130.4922 L280.8,130.4922 L280.8,137.925 L272.8,145.925 L222.4,145.925 L222.4,130.4922 " fill="#EEEEEE" style="stroke:#000000;stroke-width:1.2000000000000002;"/><rect fill="none" height="217.8625" style="stroke:#000000;stroke-width:1.2000000000000002;" width="572" x="222.4" y="130.4922"/><text fill="#000000" font-family="sans-serif" font-size="10.4" font-weight="bold" lengthAdjust="spacing" textLength="22.4" x="234.4" y="142.5148">loop</text><text fill="#000000" font-family="sans-serif" font-size="8.8" font-weight="bold" lengthAdjust="spacing" textLength="97.6" x="292.8" y="141.5883">[for each collaborator]</text><polygon fill="#181818" points="449.2,161.3578,457.2,164.5578,449.2,167.7578,452.4,164.5578" style="stroke:#181818;stroke-width:0.8000000000000002;"/><line style="stroke:#181818;stroke-width:0.8000000000000002;" x1="310.8" x2="454" y1="164.5578" y2="164.5578"/><text fill="#000000" font-family="sans-serif" font-size="10.4" font-weight="bold" lengthAdjust="spacing" textLength="11.2" x="316.4" y="160.3477">16</text><text fill="#000000" font-family="sans-serif" font-size="10.4" lengthAdjust="spacing" textLength="118.4" x="330.8" y="160.3477">getCollaboratorSkillsList()</text><path d="M388.4,176.5578 L446.8,176.5578 L446.8,183.9906 L438.8,191.9906 L388.4,191.9906 L388.4,176.5578 " fill="#EEEEEE" style="stroke:#000000;stroke-width:1.2000000000000002;"/><rect fill="none" height="65.4984" style="stroke:#000000;stroke-width:1.2000000000000002;" width="292.4" x="388.4" y="176.5578"/><text fill="#000000" font-family="sans-serif" font-size="10.4" font-weight="bold" lengthAdjust="spacing" textLength="22.4" x="400.4" y="188.5805">loop</text><text fill="#000000" font-family="sans-serif" font-size="8.8" font-weight="bold" lengthAdjust="spacing" textLength="150.4" x="458.8" y="187.6539">[for each Skill of that Collaborator]</text><polygon fill="#181818" points="602,207.4234,610,210.6234,602,213.8234,605.2,210.6234" style="stroke:#181818;stroke-width:0.8000000000000002;"/><line style="stroke:#181818;stroke-width:0.8000000000000002;" x1="466.8" x2="606.8" y1="210.6234" y2="210.6234"/><text fill="#000000" font-family="sans-serif" font-size="10.4" font-weight="bold" lengthAdjust="spacing" textLength="11.2" x="472.4" y="206.4133">17</text><text fill="#000000" font-family="sans-serif" font-size="10.4" lengthAdjust="spacing" textLength="115.2" x="486.8" y="206.4133">e = equalSkill(skillName)</text><polygon fill="#181818" points="475.6,232.4563,467.6,235.6563,475.6,238.8563,472.4,235.6563" style="stroke:#181818;stroke-width:0.8000000000000002;"/><line style="stroke:#181818;stroke-width:0.8000000000000002;stroke-dasharray:2.0,2.0;" x1="470.8" x2="614.8" y1="235.6563" y2="235.6563"/><text fill="#000000" font-family="sans-serif" font-size="10.4" font-weight="bold" lengthAdjust="spacing" textLength="11.2" x="480.4" y="231.4461">18</text><text fill="#000000" font-family="sans-serif" font-size="10.4" lengthAdjust="spacing" textLength="42.4" x="494.8" y="231.4461">true/false</text><polygon fill="#181818" points="319.6,263.0891,311.6,266.2891,319.6,269.4891,316.4,266.2891" style="stroke:#181818;stroke-width:0.8000000000000002;"/><line style="stroke:#181818;stroke-width:0.8000000000000002;stroke-dasharray:2.0,2.0;" x1="314.8" x2="462" y1="266.2891" y2="266.2891"/><text fill="#000000" font-family="sans-serif" font-size="10.4" font-weight="bold" lengthAdjust="spacing" textLength="11.2" x="324.4" y="262.0789">19</text><text fill="#000000" font-family="sans-serif" font-size="10.4" lengthAdjust="spacing" textLength="42.4" x="338.8" y="262.0789">true/false</text><path d="M230.4,278.2891 L282.4,278.2891 L282.4,285.7219 L274.4,293.7219 L230.4,293.7219 L230.4,278.2891 " fill="#EEEEEE" style="stroke:#000000;stroke-width:1.2000000000000002;"/><rect fill="none" height="64.4656" style="stroke:#000000;stroke-width:1.2000000000000002;" width="556" x="230.4" y="278.2891"/><text fill="#000000" font-family="sans-serif" font-size="10.4" font-weight="bold" lengthAdjust="spacing" textLength="16" x="242.4" y="290.3117">opt</text><text fill="#000000" font-family="sans-serif" font-size="8.8" font-weight="bold" lengthAdjust="spacing" textLength="40" x="294.4" y="289.3852">[e = true]</text><polygon fill="#181818" points="716,309.1547,724,312.3547,716,315.5547,719.2,312.3547" style="stroke:#181818;stroke-width:0.8000000000000002;"/><line style="stroke:#181818;stroke-width:0.8000000000000002;" x1="310.8" x2="720.8" y1="312.3547" y2="312.3547"/><text fill="#000000" font-family="sans-serif" font-size="10.4" font-weight="bold" lengthAdjust="spacing" textLength="11.2" x="316.4" y="308.1445">20</text><text fill="#000000" font-family="sans-serif" font-size="10.4" lengthAdjust="spacing" textLength="79.2" x="330.8" y="308.1445">add(colllaborator)</text><polygon fill="#181818" points="150.4,369.3875,142.4,372.5875,150.4,375.7875,147.2,372.5875" style="stroke:#181818;stroke-width:0.8000000000000002;"/><line style="stroke:#181818;stroke-width:0.8000000000000002;stroke-dasharray:2.0,2.0;" x1="145.6" x2="306" y1="372.5875" y2="372.5875"/><text fill="#000000" font-family="sans-serif" font-size="10.4" font-weight="bold" lengthAdjust="spacing" textLength="11.2" x="155.2" y="368.3773">21</text><text fill="#000000" font-family="sans-serif" font-size="10.4" lengthAdjust="spacing" textLength="3.2" x="169.6" y="368.3773">&#160;</text><polygon fill="#181818" points="8.8,394.4203,0.8,397.6203,8.8,400.8203,5.6,397.6203" style="stroke:#181818;stroke-width:0.8000000000000002;"/><line style="stroke:#181818;stroke-width:0.8000000000000002;stroke-dasharray:2.0,2.0;" x1="4" x2="132.8" y1="397.6203" y2="397.6203"/><text fill="#000000" font-family="sans-serif" font-size="10.4" font-weight="bold" lengthAdjust="spacing" textLength="11.2" x="13.6" y="393.4102">22</text><text fill="#000000" font-family="sans-serif" font-size="10.4" lengthAdjust="spacing" textLength="3.2" x="28" y="393.4102">&#160;</text><!--SRC=[bLGzRy8m4DtzAqvCCA2gKYT46Sh0KhLLOUno94U8S7ofxRJYtzTsWCOXHcs6ABcFTy_lxcmEfQfHOmKLAyxscYi2gniIvkAfCJjWGMjxb0IQCekgaDq0iyUSlqjLm0wb8I6miQoQQajQ21TYowoiKLaOpLQaIAEb3M7rfhbcWtB9ocgMalG8qC1oy_uSPociw4FDbYu6j-pIMPjtShcb-pgsISE-6ASRj3wKKXg7-bmQEx_sBAvWMtkCsDhM99qgb9_HOckBv1slkzWJOradYKFmolGE5vj4Lr-uVn1Ykl2QpQ0W6-dWQuudBZopvPSJlPLM59gR6bPaOzNWwGWjlq1M272Fpu3f8gKl98l-ranq9i1BvXfsh84msqFM2GtkyvEgtYDsOd_5gRMVY9qn1mcUUXmLZpc62E0Ts3t60aP9GynFz1pfeM5mj0aUWJuRbC4pDlxzucP_SWLz8JyuLk8FBERJQOg6N_-xTfFxG3dThjoD9VNxdsgWPp7OmG4EdTgtMiQr3KA6I-olKnHlcAkFUJxsutX9Y7jmOT9RpOHM_GNkIlIVyuNuv37yDlXxG2IGekqBollbdlq0]--></g></svg>