<?xml version="1.0" encoding="us-ascii" standalone="no"?><svg xmlns="http://www.w3.org/2000/svg" xmlns:xlink="http://www.w3.org/1999/xlink" contentStyleType="text/css" height="417px" preserveAspectRatio="none" style="width:610px;height:417px;background:#FFFFFF;" version="1.1" viewBox="0 0 610 417" width="610px" zoomAndPan="magnify"><defs/><g><rect fill="#FFFFFF" height="245.3281" style="stroke:#181818;stroke-width:1.0;" width="10" x="131" y="90.5332"/><rect fill="#FFFFFF" height="31.291" style="stroke:#181818;stroke-width:1.0;" width="10" x="305.5" y="148.1152"/><rect fill="#FFFFFF" height="31.291" style="stroke:#181818;stroke-width:1.0;" width="10" x="412.5" y="210.6973"/><rect fill="#FFFFFF" height="31.291" style="stroke:#181818;stroke-width:1.0;" width="10" x="530" y="273.2793"/><rect fill="none" height="238.3281" style="stroke:#000000;stroke-width:1.5;" width="594" x="10" y="105.5332"/><line style="stroke:#181818;stroke-width:0.5;stroke-dasharray:5.0,5.0;" x1="136" x2="136" y1="57.2422" y2="360.8613"/><line style="stroke:#181818;stroke-width:0.5;stroke-dasharray:5.0,5.0;" x1="310" x2="310" y1="57.2422" y2="360.8613"/><line style="stroke:#181818;stroke-width:0.5;stroke-dasharray:5.0,5.0;" x1="417" x2="417" y1="57.2422" y2="360.8613"/><line style="stroke:#181818;stroke-width:0.5;stroke-dasharray:5.0,5.0;" x1="535" x2="535" y1="57.2422" y2="360.8613"/><rect fill="#E3E3E3" height="32.6211" rx="2.5" ry="2.5" style="stroke:#181818;stroke-width:0.5;" width="232" x="20" y="23.6211"/><text fill="#000000" font-family="sans-serif" font-size="14" lengthAdjust="spacing" textLength="218" x="27" y="45.7285">:GenerateTeamProposalController</text><rect fill="#E3E3E3" height="32.6211" rx="2.5" ry="2.5" style="stroke:#181818;stroke-width:0.5;" width="232" x="20" y="359.8613"/><text fill="#000000" font-family="sans-serif" font-size="14" lengthAdjust="spacing" textLength="218" x="27" y="381.9688">:GenerateTeamProposalController</text><rect fill="#E3E3E3" height="32.6211" rx="2.5" ry="2.5" style="stroke:#181818;stroke-width:0.5;" width="97" x="262" y="23.6211"/><text fill="#000000" font-family="sans-serif" font-size="14" lengthAdjust="spacing" textLength="83" x="269" y="45.7285">:Repositories</text><rect fill="#E3E3E3" height="32.6211" rx="2.5" ry="2.5" style="stroke:#181818;stroke-width:0.5;" width="97" x="262" y="359.8613"/><text fill="#000000" font-family="sans-serif" font-size="14" lengthAdjust="spacing" textLength="83" x="269" y="381.9688">:Repositories</text><rect fill="#E3E3E3" height="51.2422" rx="2.5" ry="2.5" style="stroke:#181818;stroke-width:0.5;" width="97" x="369" y="5"/><text fill="#000000" font-family="sans-serif" font-size="14" lengthAdjust="spacing" textLength="74" x="380.5" y="27.1074">repositories</text><text fill="#000000" font-family="sans-serif" font-size="14" lengthAdjust="spacing" textLength="83" x="376" y="45.7285">:Repositories</text><rect fill="#E3E3E3" height="51.2422" rx="2.5" ry="2.5" style="stroke:#181818;stroke-width:0.5;" width="97" x="369" y="359.8613"/><text fill="#000000" font-family="sans-serif" font-size="14" lengthAdjust="spacing" textLength="74" x="380.5" y="381.9688">repositories</text><text fill="#000000" font-family="sans-serif" font-size="14" lengthAdjust="spacing" textLength="83" x="376" y="400.5898">:Repositories</text><rect fill="#E3E3E3" height="51.2422" rx="2.5" ry="2.5" style="stroke:#181818;stroke-width:0.5;" width="118" x="476" y="5"/><text fill="#000000" font-family="sans-serif" font-size="14" lengthAdjust="spacing" textLength="59" x="505.5" y="27.1074">skillName</text><text fill="#000000" font-family="sans-serif" font-size="14" lengthAdjust="spacing" textLength="104" x="483" y="45.7285">:SkillsRepository</text><rect fill="#E3E3E3" height="51.2422" rx="2.5" ry="2.5" style="stroke:#181818;stroke-width:0.5;" width="118" x="476" y="359.8613"/><text fill="#000000" font-family="sans-serif" font-size="14" lengthAdjust="spacing" textLength="59" x="505.5" y="381.9688">skillName</text><text fill="#000000" font-family="sans-serif" font-size="14" lengthAdjust="spacing" textLength="104" x="483" y="400.5898">:SkillsRepository</text><rect fill="#FFFFFF" height="245.3281" style="stroke:#181818;stroke-width:1.0;" width="10" x="131" y="90.5332"/><rect fill="#FFFFFF" height="31.291" style="stroke:#181818;stroke-width:1.0;" width="10" x="305.5" y="148.1152"/><rect fill="#FFFFFF" height="31.291" style="stroke:#181818;stroke-width:1.0;" width="10" x="412.5" y="210.6973"/><rect fill="#FFFFFF" height="31.291" style="stroke:#181818;stroke-width:1.0;" width="10" x="530" y="273.2793"/><polygon fill="#181818" points="119,86.5332,129,90.5332,119,94.5332,123,90.5332" style="stroke:#181818;stroke-width:1.0;"/><line style="stroke:#181818;stroke-width:1.0;" x1="0" x2="125" y1="90.5332" y2="90.5332"/><text fill="#000000" font-family="sans-serif" font-size="13" font-weight="bold" lengthAdjust="spacing" textLength="7" x="7" y="85.2705">4</text><text fill="#000000" font-family="sans-serif" font-size="13" lengthAdjust="spacing" textLength="59" x="18" y="85.2705">skillsList()</text><path d="M10,105.5332 L141,105.5332 L141,114.8242 L131,124.8242 L10,124.8242 L10,105.5332 " fill="#EEEEEE" style="stroke:#000000;stroke-width:1.5;"/><rect fill="none" height="238.3281" style="stroke:#000000;stroke-width:1.5;" width="594" x="10" y="105.5332"/><text fill="#000000" font-family="sans-serif" font-size="13" font-weight="bold" lengthAdjust="spacing" textLength="86" x="25" y="120.5615">Get Skills List</text><polygon fill="#181818" points="293.5,144.1152,303.5,148.1152,293.5,152.1152,297.5,148.1152" style="stroke:#181818;stroke-width:1.0;"/><line style="stroke:#181818;stroke-width:1.0;" x1="141" x2="299.5" y1="148.1152" y2="148.1152"/><text fill="#000000" font-family="sans-serif" font-size="13" font-weight="bold" lengthAdjust="spacing" textLength="7" x="148" y="142.8525">5</text><text fill="#000000" font-family="sans-serif" font-size="13" lengthAdjust="spacing" textLength="75" x="159" y="142.8525">getInstance()</text><polygon fill="#181818" points="152,175.4063,142,179.4063,152,183.4063,148,179.4063" style="stroke:#181818;stroke-width:1.0;"/><line style="stroke:#181818;stroke-width:1.0;stroke-dasharray:2.0,2.0;" x1="146" x2="309.5" y1="179.4063" y2="179.4063"/><text fill="#000000" font-family="sans-serif" font-size="13" font-weight="bold" lengthAdjust="spacing" textLength="7" x="158" y="174.1436">6</text><text fill="#000000" font-family="sans-serif" font-size="13" lengthAdjust="spacing" textLength="67" x="169" y="174.1436">repositories</text><polygon fill="#181818" points="400.5,206.6973,410.5,210.6973,400.5,214.6973,404.5,210.6973" style="stroke:#181818;stroke-width:1.0;"/><line style="stroke:#181818;stroke-width:1.0;" x1="141" x2="406.5" y1="210.6973" y2="210.6973"/><text fill="#000000" font-family="sans-serif" font-size="13" font-weight="bold" lengthAdjust="spacing" textLength="7" x="148" y="205.4346">7</text><text fill="#000000" font-family="sans-serif" font-size="13" lengthAdjust="spacing" textLength="120" x="159" y="205.4346">getSkillsRepository()</text><polygon fill="#181818" points="152,237.9883,142,241.9883,152,245.9883,148,241.9883" style="stroke:#181818;stroke-width:1.0;"/><line style="stroke:#181818;stroke-width:1.0;stroke-dasharray:2.0,2.0;" x1="146" x2="416.5" y1="241.9883" y2="241.9883"/><text fill="#000000" font-family="sans-serif" font-size="13" font-weight="bold" lengthAdjust="spacing" textLength="7" x="158" y="236.7256">8</text><text fill="#000000" font-family="sans-serif" font-size="13" lengthAdjust="spacing" textLength="94" x="169" y="236.7256">SkillsRepository</text><polygon fill="#181818" points="518,269.2793,528,273.2793,518,277.2793,522,273.2793" style="stroke:#181818;stroke-width:1.0;"/><line style="stroke:#181818;stroke-width:1.0;" x1="141" x2="524" y1="273.2793" y2="273.2793"/><text fill="#000000" font-family="sans-serif" font-size="13" font-weight="bold" lengthAdjust="spacing" textLength="7" x="148" y="268.0166">9</text><text fill="#000000" font-family="sans-serif" font-size="13" lengthAdjust="spacing" textLength="59" x="159" y="268.0166">skillsList()</text><polygon fill="#181818" points="152,300.5703,142,304.5703,152,308.5703,148,304.5703" style="stroke:#181818;stroke-width:1.0;"/><line style="stroke:#181818;stroke-width:1.0;stroke-dasharray:2.0,2.0;" x1="146" x2="534" y1="304.5703" y2="304.5703"/><text fill="#000000" font-family="sans-serif" font-size="13" font-weight="bold" lengthAdjust="spacing" textLength="14" x="158" y="299.3076">10</text><text fill="#000000" font-family="sans-serif" font-size="13" lengthAdjust="spacing" textLength="51" x="176" y="299.3076">skillsList</text><polygon fill="#181818" points="11,331.8613,1,335.8613,11,339.8613,7,335.8613" style="stroke:#181818;stroke-width:1.0;"/><line style="stroke:#181818;stroke-width:1.0;stroke-dasharray:2.0,2.0;" x1="5" x2="135" y1="335.8613" y2="335.8613"/><text fill="#000000" font-family="sans-serif" font-size="13" font-weight="bold" lengthAdjust="spacing" textLength="14" x="17" y="330.5986">11</text><text fill="#000000" font-family="sans-serif" font-size="13" lengthAdjust="spacing" textLength="51" x="35" y="330.5986">skillsList</text><!--SRC=[VL4zQyCm4DtlLnoPsi5R9rCA9KCeX19YZrskzjKHaIKZdLloxolBmL5i4qr2Ub_tpf-LwSXHYwqrjZevspAAwndyzDDHTQQ62xbeHiULa6bq2l0dgksVCWt-aFOCGBrOqxVVx002H5IbEZA2ctp7XXq9bqpjmTdEUj9RQyHPhTbja3nko-D-nZfo02gnJh6FcEdXKgWXJB2xfxY4yMMM0eVzUtdF2EDe_Kaj1tWntFtD95BcZ-cO-0BPMqoEEKOblrTUdfu3g1Br6oOUvuB6sRx37SjL3mSS08OJwK5cPRYWsh1y61-whpZ8JgfhJS2QGdODc6FQ3TJyM2eDDfGs9fbtaIQArKB4tZmNvIM-8o4rcgFdfKxKvKuMr6njCQdzKkCronvJnbMogU4V]--></g></svg>