<?xml version="1.0" encoding="us-ascii" standalone="no"?><svg xmlns="http://www.w3.org/2000/svg" xmlns:xlink="http://www.w3.org/1999/xlink" contentStyleType="text/css" height="1060px" preserveAspectRatio="none" style="width:1385px;height:1060px;background:#FFFFFF;" version="1.1" viewBox="0 0 1385 1060" width="1385.6px" zoomAndPan="magnify"><defs/><g><rect fill="#FFFFFF" height="882.3156" style="stroke:#181818;stroke-width:0.8000000000000002;" width="8" x="48.8" y="89.7938"/><rect fill="#FFFFFF" height="38.8656" style="stroke:#181818;stroke-width:0.8000000000000002;" width="8" x="287.2" y="108.4266"/><rect fill="#FFFFFF" height="225.2953" style="stroke:#181818;stroke-width:0.8000000000000002;" width="8" x="287.2" y="186.1578"/><rect fill="#FFFFFF" height="478.3578" style="stroke:#181818;stroke-width:0.8000000000000002;" width="8" x="287.2" y="436.4859"/><rect fill="#FFFFFF" height="25.0328" style="stroke:#181818;stroke-width:0.8000000000000002;" width="8" x="287.2" y="939.8766"/><rect fill="#FFFFFF" height="175.2297" style="stroke:#181818;stroke-width:0.8000000000000002;" width="8" x="460.8" y="211.1906"/><rect fill="#FFFFFF" height="304.1609" style="stroke:#181818;stroke-width:0.8000000000000002;" width="8" x="460.8" y="485.5188"/><rect fill="#FFFFFF" height="75.0984" style="stroke:#181818;stroke-width:0.8000000000000002;" width="8" x="460.8" y="814.7125"/><rect fill="#FFFFFF" height="25.0328" style="stroke:#181818;stroke-width:0.8000000000000002;" width="8" x="600.4" y="236.2234"/><rect fill="#FFFFFF" height="25.0328" style="stroke:#181818;stroke-width:0.8000000000000002;" width="8" x="686" y="286.2891"/><rect fill="#FFFFFF" height="25.0328" style="stroke:#181818;stroke-width:0.8000000000000002;" width="8" x="780" y="336.3547"/><rect fill="#FFFFFF" height="254.0953" style="stroke:#181818;stroke-width:0.8000000000000002;" width="8" x="903.6" y="510.5516"/><rect fill="#FFFFFF" height="101.7313" style="stroke:#181818;stroke-width:0.8000000000000002;" width="8" x="1059.6" y="556.6172"/><rect fill="#FFFFFF" height="25.0328" style="stroke:#181818;stroke-width:0.8000000000000002;" width="8" x="1198" y="602.6828"/><rect fill="#FFFFFF" height="24" style="stroke:#181818;stroke-width:0.8000000000000002;" width="8" x="1312" y="704.4141"/><rect fill="#FFFFFF" height="25.0328" style="stroke:#181818;stroke-width:0.8000000000000002;" width="8" x="1312" y="839.7453"/><rect fill="none" height="217.8625" style="stroke:#000000;stroke-width:1.2000000000000002;" width="557.6" x="823.2" y="522.5516"/><rect fill="none" height="65.4984" style="stroke:#000000;stroke-width:1.2000000000000002;" width="278" x="989.2" y="568.6172"/><rect fill="none" height="64.4656" style="stroke:#000000;stroke-width:1.2000000000000002;" width="541.6" x="831.2" y="670.3484"/><line style="stroke:#181818;stroke-width:0.4000000000000001;stroke-dasharray:5.0,5.0;" x1="52.8" x2="52.8" y1="81.7938" y2="979.3094"/><line style="stroke:#181818;stroke-width:0.4000000000000001;stroke-dasharray:5.0,5.0;" x1="291.2" x2="291.2" y1="81.7938" y2="979.3094"/><line style="stroke:#181818;stroke-width:0.4000000000000001;stroke-dasharray:5.0,5.0;" x1="464.8" x2="464.8" y1="81.7938" y2="979.3094"/><line style="stroke:#181818;stroke-width:0.4000000000000001;stroke-dasharray:5.0,5.0;" x1="604" x2="604" y1="81.7938" y2="979.3094"/><line style="stroke:#181818;stroke-width:0.4000000000000001;stroke-dasharray:5.0,5.0;" x1="689.6" x2="689.6" y1="81.7938" y2="979.3094"/><line style="stroke:#181818;stroke-width:0.4000000000000001;stroke-dasharray:5.0,5.0;" x1="784" x2="784" y1="81.7938" y2="979.3094"/><line style="stroke:#181818;stroke-width:0.4000000000000001;stroke-dasharray:5.0,5.0;" x1="907.2" x2="907.2" y1="81.7938" y2="979.3094"/><line style="stroke:#181818;stroke-width:0.4000000000000001;stroke-dasharray:5.0,5.0;" x1="1063.6" x2="1063.6" y1="81.7938" y2="979.3094"/><line style="stroke:#181818;stroke-width:0.4000000000000001;stroke-dasharray:5.0,5.0;" x1="1201.6" x2="1201.6" y1="81.7938" y2="979.3094"/><line style="stroke:#181818;stroke-width:0.4000000000000001;stroke-dasharray:5.0,5.0;" x1="1316" x2="1316" y1="81.7938" y2="979.3094"/><text fill="#000000" font-family="sans-serif" font-size="11.2" lengthAdjust="spacing" textLength="92.8" x="4" y="64.0859">Human Resources</text><text fill="#000000" font-family="sans-serif" font-size="11.2" lengthAdjust="spacing" textLength="44.8" x="28" y="78.9828">Manager</text><ellipse cx="52.8" cy="10.8" fill="#E3E3E3" rx="6.4" ry="6.4" style="stroke:#181818;stroke-width:0.4000000000000001;"/><path d="M52.8,17.2 L52.8,38.8 M42.4,23.6 L63.2,23.6 M52.8,38.8 L42.4,50.8 M52.8,38.8 L63.2,50.8 " fill="none" style="stroke:#181818;stroke-width:0.4000000000000001;"/><text fill="#000000" font-family="sans-serif" font-size="11.2" lengthAdjust="spacing" textLength="92.8" x="4" y="990.5953">Human Resources</text><text fill="#000000" font-family="sans-serif" font-size="11.2" lengthAdjust="spacing" textLength="44.8" x="28" y="1005.4922">Manager</text><ellipse cx="52.8" cy="1015.1031" fill="#E3E3E3" rx="6.4" ry="6.4" style="stroke:#181818;stroke-width:0.4000000000000001;"/><path d="M52.8,1021.5031 L52.8,1043.1031 M42.4,1027.9031 L63.2,1027.9031 M52.8,1043.1031 L42.4,1055.1031 M52.8,1043.1031 L63.2,1055.1031 " fill="none" style="stroke:#181818;stroke-width:0.4000000000000001;"/><rect fill="#E3E3E3" height="26.0969" rx="2" ry="2" style="stroke:#181818;stroke-width:0.4000000000000001;" width="145.6" x="218.4" y="54.8969"/><text fill="#000000" font-family="sans-serif" font-size="11.2" lengthAdjust="spacing" textLength="134.4" x="224" y="72.5828">:GenerateTeamProposalUI</text><rect fill="#E3E3E3" height="26.0969" rx="2" ry="2" style="stroke:#181818;stroke-width:0.4000000000000001;" width="145.6" x="218.4" y="978.5094"/><text fill="#000000" font-family="sans-serif" font-size="11.2" lengthAdjust="spacing" textLength="134.4" x="224" y="996.1953">:GenerateTeamProposalUI</text><rect fill="#E3E3E3" height="26.0969" rx="2" ry="2" style="stroke:#181818;stroke-width:0.4000000000000001;" width="185.6" x="372" y="54.8969"/><text fill="#000000" font-family="sans-serif" font-size="11.2" lengthAdjust="spacing" textLength="174.4" x="377.6" y="72.5828">:GenerateTeamProposalController</text><rect fill="#E3E3E3" height="26.0969" rx="2" ry="2" style="stroke:#181818;stroke-width:0.4000000000000001;" width="185.6" x="372" y="978.5094"/><text fill="#000000" font-family="sans-serif" font-size="11.2" lengthAdjust="spacing" textLength="174.4" x="377.6" y="996.1953">:GenerateTeamProposalController</text><rect fill="#E3E3E3" height="26.0969" rx="2" ry="2" style="stroke:#181818;stroke-width:0.4000000000000001;" width="77.6" x="565.6" y="54.8969"/><text fill="#000000" font-family="sans-serif" font-size="11.2" lengthAdjust="spacing" textLength="66.4" x="571.2" y="72.5828">:Repositories</text><rect fill="#E3E3E3" height="26.0969" rx="2" ry="2" style="stroke:#181818;stroke-width:0.4000000000000001;" width="77.6" x="565.6" y="978.5094"/><text fill="#000000" font-family="sans-serif" font-size="11.2" lengthAdjust="spacing" textLength="66.4" x="571.2" y="996.1953">:Repositories</text><rect fill="#E3E3E3" height="40.9938" rx="2" ry="2" style="stroke:#181818;stroke-width:0.4000000000000001;" width="77.6" x="651.2" y="40"/><text fill="#000000" font-family="sans-serif" font-size="11.2" lengthAdjust="spacing" textLength="59.2" x="660.4" y="57.6859">repositories</text><text fill="#000000" font-family="sans-serif" font-size="11.2" lengthAdjust="spacing" textLength="66.4" x="656.8" y="72.5828">:Repositories</text><rect fill="#E3E3E3" height="40.9938" rx="2" ry="2" style="stroke:#181818;stroke-width:0.4000000000000001;" width="77.6" x="651.2" y="978.5094"/><text fill="#000000" font-family="sans-serif" font-size="11.2" lengthAdjust="spacing" textLength="59.2" x="660.4" y="996.1953">repositories</text><text fill="#000000" font-family="sans-serif" font-size="11.2" lengthAdjust="spacing" textLength="66.4" x="656.8" y="1011.0922">:Repositories</text><rect fill="#E3E3E3" height="40.9938" rx="2" ry="2" style="stroke:#181818;stroke-width:0.4000000000000001;" width="94.4" x="736.8" y="40"/><text fill="#000000" font-family="sans-serif" font-size="11.2" lengthAdjust="spacing" textLength="28" x="770" y="57.6859">name</text><text fill="#000000" font-family="sans-serif" font-size="11.2" lengthAdjust="spacing" textLength="83.2" x="742.4" y="72.5828">:SkillsRepository</text><rect fill="#E3E3E3" height="40.9938" rx="2" ry="2" style="stroke:#181818;stroke-width:0.4000000000000001;" width="94.4" x="736.8" y="978.5094"/><text fill="#000000" font-family="sans-serif" font-size="11.2" lengthAdjust="spacing" textLength="28" x="770" y="996.1953">name</text><text fill="#000000" font-family="sans-serif" font-size="11.2" lengthAdjust="spacing" textLength="83.2" x="742.4" y="1011.0922">:SkillsRepository</text><rect fill="#E3E3E3" height="40.9938" rx="2" ry="2" style="stroke:#181818;stroke-width:0.4000000000000001;" width="136.8" x="839.2" y="40"/><text fill="#000000" font-family="sans-serif" font-size="11.2" lengthAdjust="spacing" textLength="28" x="893.6" y="57.6859">name</text><text fill="#000000" font-family="sans-serif" font-size="11.2" lengthAdjust="spacing" textLength="125.6" x="844.8" y="72.5828">:CollaboratorsRepository</text><rect fill="#E3E3E3" height="40.9938" rx="2" ry="2" style="stroke:#181818;stroke-width:0.4000000000000001;" width="136.8" x="839.2" y="978.5094"/><text fill="#000000" font-family="sans-serif" font-size="11.2" lengthAdjust="spacing" textLength="28" x="893.6" y="996.1953">name</text><text fill="#000000" font-family="sans-serif" font-size="11.2" lengthAdjust="spacing" textLength="125.6" x="844.8" y="1011.0922">:CollaboratorsRepository</text><rect fill="#E3E3E3" height="40.9938" rx="2" ry="2" style="stroke:#181818;stroke-width:0.4000000000000001;" width="132.8" x="997.2" y="40"/><text fill="#000000" font-family="sans-serif" font-size="11.2" lengthAdjust="spacing" textLength="88" x="1019.6" y="57.6859">CollaboratorSkills</text><text fill="#000000" font-family="sans-serif" font-size="11.2" lengthAdjust="spacing" textLength="121.6" x="1002.8" y="72.5828">:List&lt;CollaboratorSkills&gt;</text><rect fill="#E3E3E3" height="40.9938" rx="2" ry="2" style="stroke:#181818;stroke-width:0.4000000000000001;" width="132.8" x="997.2" y="978.5094"/><text fill="#000000" font-family="sans-serif" font-size="11.2" lengthAdjust="spacing" textLength="88" x="1019.6" y="996.1953">CollaboratorSkills</text><text fill="#000000" font-family="sans-serif" font-size="11.2" lengthAdjust="spacing" textLength="121.6" x="1002.8" y="1011.0922">:List&lt;CollaboratorSkills&gt;</text><rect fill="#E3E3E3" height="40.9938" rx="2" ry="2" style="stroke:#181818;stroke-width:0.4000000000000001;" width="114.4" x="1144.8" y="40"/><text fill="#000000" font-family="sans-serif" font-size="11.2" lengthAdjust="spacing" textLength="69.6" x="1167.2" y="57.6859">SkillsSelected</text><text fill="#000000" font-family="sans-serif" font-size="11.2" lengthAdjust="spacing" textLength="103.2" x="1150.4" y="72.5828">:List&lt;SkillsSelected&gt;</text><rect fill="#E3E3E3" height="40.9938" rx="2" ry="2" style="stroke:#181818;stroke-width:0.4000000000000001;" width="114.4" x="1144.8" y="978.5094"/><text fill="#000000" font-family="sans-serif" font-size="11.2" lengthAdjust="spacing" textLength="69.6" x="1167.2" y="996.1953">SkillsSelected</text><text fill="#000000" font-family="sans-serif" font-size="11.2" lengthAdjust="spacing" textLength="103.2" x="1150.4" y="1011.0922">:List&lt;SkillsSelected&gt;</text><rect fill="#E3E3E3" height="40.9938" rx="2" ry="2" style="stroke:#181818;stroke-width:0.4000000000000001;" width="97.6" x="1267.2" y="40"/><text fill="#000000" font-family="sans-serif" font-size="11.2" lengthAdjust="spacing" textLength="24.8" x="1303.6" y="57.6859">team</text><text fill="#000000" font-family="sans-serif" font-size="11.2" lengthAdjust="spacing" textLength="86.4" x="1272.8" y="72.5828">:TeamRepository</text><rect fill="#E3E3E3" height="40.9938" rx="2" ry="2" style="stroke:#181818;stroke-width:0.4000000000000001;" width="97.6" x="1267.2" y="978.5094"/><text fill="#000000" font-family="sans-serif" font-size="11.2" lengthAdjust="spacing" textLength="24.8" x="1303.6" y="996.1953">team</text><text fill="#000000" font-family="sans-serif" font-size="11.2" lengthAdjust="spacing" textLength="86.4" x="1272.8" y="1011.0922">:TeamRepository</text><rect fill="#FFFFFF" height="882.3156" style="stroke:#181818;stroke-width:0.8000000000000002;" width="8" x="48.8" y="89.7938"/><rect fill="#FFFFFF" height="38.8656" style="stroke:#181818;stroke-width:0.8000000000000002;" width="8" x="287.2" y="108.4266"/><rect fill="#FFFFFF" height="225.2953" style="stroke:#181818;stroke-width:0.8000000000000002;" width="8" x="287.2" y="186.1578"/><rect fill="#FFFFFF" height="478.3578" style="stroke:#181818;stroke-width:0.8000000000000002;" width="8" x="287.2" y="436.4859"/><rect fill="#FFFFFF" height="25.0328" style="stroke:#181818;stroke-width:0.8000000000000002;" width="8" x="287.2" y="939.8766"/><rect fill="#FFFFFF" height="175.2297" style="stroke:#181818;stroke-width:0.8000000000000002;" width="8" x="460.8" y="211.1906"/><rect fill="#FFFFFF" height="304.1609" style="stroke:#181818;stroke-width:0.8000000000000002;" width="8" x="460.8" y="485.5188"/><rect fill="#FFFFFF" height="75.0984" style="stroke:#181818;stroke-width:0.8000000000000002;" width="8" x="460.8" y="814.7125"/><rect fill="#FFFFFF" height="25.0328" style="stroke:#181818;stroke-width:0.8000000000000002;" width="8" x="600.4" y="236.2234"/><rect fill="#FFFFFF" height="25.0328" style="stroke:#181818;stroke-width:0.8000000000000002;" width="8" x="686" y="286.2891"/><rect fill="#FFFFFF" height="25.0328" style="stroke:#181818;stroke-width:0.8000000000000002;" width="8" x="780" y="336.3547"/><rect fill="#FFFFFF" height="254.0953" style="stroke:#181818;stroke-width:0.8000000000000002;" width="8" x="903.6" y="510.5516"/><rect fill="#FFFFFF" height="101.7313" style="stroke:#181818;stroke-width:0.8000000000000002;" width="8" x="1059.6" y="556.6172"/><rect fill="#FFFFFF" height="25.0328" style="stroke:#181818;stroke-width:0.8000000000000002;" width="8" x="1198" y="602.6828"/><rect fill="#FFFFFF" height="24" style="stroke:#181818;stroke-width:0.8000000000000002;" width="8" x="1312" y="704.4141"/><rect fill="#FFFFFF" height="25.0328" style="stroke:#181818;stroke-width:0.8000000000000002;" width="8" x="1312" y="839.7453"/><polygon fill="#181818" points="277.6,105.2266,285.6,108.4266,277.6,111.6266,280.8,108.4266" style="stroke:#181818;stroke-width:0.8000000000000002;"/><line style="stroke:#181818;stroke-width:0.8000000000000002;" x1="56.8" x2="282.4" y1="108.4266" y2="108.4266"/><text fill="#000000" font-family="sans-serif" font-size="10.4" font-weight="bold" lengthAdjust="spacing" textLength="5.6" x="62.4" y="104.2164">1</text><text fill="#000000" font-family="sans-serif" font-size="10.4" lengthAdjust="spacing" textLength="155.2" x="71.2" y="104.2164">asks to generate a team proposal</text><polygon fill="#181818" points="65.6,144.0922,57.6,147.2922,65.6,150.4922,62.4,147.2922" style="stroke:#181818;stroke-width:0.8000000000000002;"/><line style="stroke:#181818;stroke-width:0.8000000000000002;stroke-dasharray:2.0,2.0;" x1="60.8" x2="290.4" y1="147.2922" y2="147.2922"/><text fill="#000000" font-family="sans-serif" font-size="10.4" font-weight="bold" lengthAdjust="spacing" textLength="5.6" x="70.4" y="136.1656">2</text><text fill="#000000" font-family="sans-serif" font-size="10.4" lengthAdjust="spacing" textLength="164" x="79.2" y="129.2492">requests which is the minimum and</text><text fill="#000000" font-family="sans-serif" font-size="10.4" lengthAdjust="spacing" textLength="183.2" x="82.4" y="143.082">maximum number of team collaborators</text><polygon fill="#181818" points="277.6,182.9578,285.6,186.1578,277.6,189.3578,280.8,186.1578" style="stroke:#181818;stroke-width:0.8000000000000002;"/><line style="stroke:#181818;stroke-width:0.8000000000000002;" x1="56.8" x2="282.4" y1="186.1578" y2="186.1578"/><text fill="#000000" font-family="sans-serif" font-size="10.4" font-weight="bold" lengthAdjust="spacing" textLength="5.6" x="62.4" y="175.0313">3</text><text fill="#000000" font-family="sans-serif" font-size="10.4" lengthAdjust="spacing" textLength="206.4" x="71.2" y="168.1148">types the minimum and maximum number of</text><text fill="#000000" font-family="sans-serif" font-size="10.4" lengthAdjust="spacing" textLength="85.6" x="74.4" y="181.9477">team collaborators</text><polygon fill="#181818" points="451.2,207.9906,459.2,211.1906,451.2,214.3906,454.4,211.1906" style="stroke:#181818;stroke-width:0.8000000000000002;"/><line style="stroke:#181818;stroke-width:0.8000000000000002;" x1="295.2" x2="456" y1="211.1906" y2="211.1906"/><text fill="#000000" font-family="sans-serif" font-size="10.4" font-weight="bold" lengthAdjust="spacing" textLength="5.6" x="300.8" y="206.9805">4</text><text fill="#000000" font-family="sans-serif" font-size="10.4" lengthAdjust="spacing" textLength="63.2" x="309.6" y="206.9805">getSkillsList()</text><polygon fill="#181818" points="590.8,233.0234,598.8,236.2234,590.8,239.4234,594,236.2234" style="stroke:#181818;stroke-width:0.8000000000000002;"/><line style="stroke:#181818;stroke-width:0.8000000000000002;" x1="468.8" x2="595.6" y1="236.2234" y2="236.2234"/><text fill="#000000" font-family="sans-serif" font-size="10.4" font-weight="bold" lengthAdjust="spacing" textLength="5.6" x="474.4" y="232.0133">5</text><text fill="#000000" font-family="sans-serif" font-size="10.4" lengthAdjust="spacing" textLength="60" x="483.2" y="232.0133">getInstance()</text><polygon fill="#181818" points="477.6,258.0563,469.6,261.2563,477.6,264.4563,474.4,261.2563" style="stroke:#181818;stroke-width:0.8000000000000002;"/><line style="stroke:#181818;stroke-width:0.8000000000000002;stroke-dasharray:2.0,2.0;" x1="472.8" x2="603.6" y1="261.2563" y2="261.2563"/><text fill="#000000" font-family="sans-serif" font-size="10.4" font-weight="bold" lengthAdjust="spacing" textLength="5.6" x="482.4" y="257.0461">6</text><text fill="#000000" font-family="sans-serif" font-size="10.4" lengthAdjust="spacing" textLength="53.6" x="491.2" y="257.0461">repositories</text><polygon fill="#181818" points="676.4,283.0891,684.4,286.2891,676.4,289.4891,679.6,286.2891" style="stroke:#181818;stroke-width:0.8000000000000002;"/><line style="stroke:#181818;stroke-width:0.8000000000000002;" x1="468.8" x2="681.2" y1="286.2891" y2="286.2891"/><text fill="#000000" font-family="sans-serif" font-size="10.4" font-weight="bold" lengthAdjust="spacing" textLength="5.6" x="474.4" y="282.0789">7</text><text fill="#000000" font-family="sans-serif" font-size="10.4" lengthAdjust="spacing" textLength="96" x="483.2" y="282.0789">getSkillsRepository()</text><polygon fill="#181818" points="477.6,308.1219,469.6,311.3219,477.6,314.5219,474.4,311.3219" style="stroke:#181818;stroke-width:0.8000000000000002;"/><line style="stroke:#181818;stroke-width:0.8000000000000002;stroke-dasharray:2.0,2.0;" x1="472.8" x2="689.2" y1="311.3219" y2="311.3219"/><text fill="#000000" font-family="sans-serif" font-size="10.4" font-weight="bold" lengthAdjust="spacing" textLength="5.6" x="482.4" y="307.1117">8</text><text fill="#000000" font-family="sans-serif" font-size="10.4" lengthAdjust="spacing" textLength="75.2" x="491.2" y="307.1117">SkillsRepository</text><polygon fill="#181818" points="770.4,333.1547,778.4,336.3547,770.4,339.5547,773.6,336.3547" style="stroke:#181818;stroke-width:0.8000000000000002;"/><line style="stroke:#181818;stroke-width:0.8000000000000002;" x1="468.8" x2="775.2" y1="336.3547" y2="336.3547"/><text fill="#000000" font-family="sans-serif" font-size="10.4" font-weight="bold" lengthAdjust="spacing" textLength="5.6" x="474.4" y="332.1445">9</text><text fill="#000000" font-family="sans-serif" font-size="10.4" lengthAdjust="spacing" textLength="63.2" x="483.2" y="332.1445">getSkillsList()</text><polygon fill="#181818" points="477.6,358.1875,469.6,361.3875,477.6,364.5875,474.4,361.3875" style="stroke:#181818;stroke-width:0.8000000000000002;"/><line style="stroke:#181818;stroke-width:0.8000000000000002;stroke-dasharray:2.0,2.0;" x1="472.8" x2="783.2" y1="361.3875" y2="361.3875"/><text fill="#000000" font-family="sans-serif" font-size="10.4" font-weight="bold" lengthAdjust="spacing" textLength="11.2" x="482.4" y="357.1773">10</text><text fill="#000000" font-family="sans-serif" font-size="10.4" lengthAdjust="spacing" textLength="40.8" x="496.8" y="357.1773">skillsList</text><polygon fill="#181818" points="304,383.2203,296,386.4203,304,389.6203,300.8,386.4203" style="stroke:#181818;stroke-width:0.8000000000000002;"/><line style="stroke:#181818;stroke-width:0.8000000000000002;stroke-dasharray:2.0,2.0;" x1="299.2" x2="464" y1="386.4203" y2="386.4203"/><text fill="#000000" font-family="sans-serif" font-size="10.4" font-weight="bold" lengthAdjust="spacing" textLength="11.2" x="308.8" y="382.2102">11</text><text fill="#000000" font-family="sans-serif" font-size="10.4" lengthAdjust="spacing" textLength="40.8" x="323.2" y="382.2102">skillsList</text><polygon fill="#181818" points="65.6,408.2531,57.6,411.4531,65.6,414.6531,62.4,411.4531" style="stroke:#181818;stroke-width:0.8000000000000002;"/><line style="stroke:#181818;stroke-width:0.8000000000000002;stroke-dasharray:2.0,2.0;" x1="60.8" x2="290.4" y1="411.4531" y2="411.4531"/><text fill="#000000" font-family="sans-serif" font-size="10.4" font-weight="bold" lengthAdjust="spacing" textLength="11.2" x="70.4" y="407.243">12</text><text fill="#000000" font-family="sans-serif" font-size="10.4" lengthAdjust="spacing" textLength="170.4" x="84.8" y="407.243">requests to selects the skills needed</text><polygon fill="#181818" points="277.6,433.2859,285.6,436.4859,277.6,439.6859,280.8,436.4859" style="stroke:#181818;stroke-width:0.8000000000000002;"/><line style="stroke:#181818;stroke-width:0.8000000000000002;" x1="56.8" x2="282.4" y1="436.4859" y2="436.4859"/><text fill="#000000" font-family="sans-serif" font-size="10.4" font-weight="bold" lengthAdjust="spacing" textLength="11.2" x="62.4" y="432.2758">13</text><text fill="#000000" font-family="sans-serif" font-size="10.4" lengthAdjust="spacing" textLength="78.4" x="76.8" y="432.2758">selects the skills</text><polygon fill="#181818" points="451.2,482.3188,459.2,485.5188,451.2,488.7188,454.4,485.5188" style="stroke:#181818;stroke-width:0.8000000000000002;"/><line style="stroke:#181818;stroke-width:0.8000000000000002;" x1="295.2" x2="456" y1="485.5188" y2="485.5188"/><text fill="#000000" font-family="sans-serif" font-size="10.4" font-weight="bold" lengthAdjust="spacing" textLength="11.2" x="300.8" y="481.3086">14</text><text fill="#000000" font-family="sans-serif" font-size="10.4" lengthAdjust="spacing" textLength="98.4" x="315.2" y="481.3086">getCollaboratorsList()</text><polygon fill="#181818" points="894,507.3516,902,510.5516,894,513.7516,897.2,510.5516" style="stroke:#181818;stroke-width:0.8000000000000002;"/><line style="stroke:#181818;stroke-width:0.8000000000000002;" x1="468.8" x2="898.8" y1="510.5516" y2="510.5516"/><text fill="#000000" font-family="sans-serif" font-size="10.4" font-weight="bold" lengthAdjust="spacing" textLength="11.2" x="474.4" y="506.3414">15</text><text fill="#000000" font-family="sans-serif" font-size="10.4" lengthAdjust="spacing" textLength="98.4" x="488.8" y="506.3414">getCollaboratorsList()</text><path d="M823.2,522.5516 L881.6,522.5516 L881.6,529.9844 L873.6,537.9844 L823.2,537.9844 L823.2,522.5516 " fill="#EEEEEE" style="stroke:#000000;stroke-width:1.2000000000000002;"/><rect fill="none" height="217.8625" style="stroke:#000000;stroke-width:1.2000000000000002;" width="557.6" x="823.2" y="522.5516"/><text fill="#000000" font-family="sans-serif" font-size="10.4" font-weight="bold" lengthAdjust="spacing" textLength="22.4" x="835.2" y="534.5742">loop</text><text fill="#000000" font-family="sans-serif" font-size="8.8" font-weight="bold" lengthAdjust="spacing" textLength="97.6" x="893.6" y="533.6477">[for each collaborator]</text><polygon fill="#181818" points="1050,553.4172,1058,556.6172,1050,559.8172,1053.2,556.6172" style="stroke:#181818;stroke-width:0.8000000000000002;"/><line style="stroke:#181818;stroke-width:0.8000000000000002;" x1="911.6" x2="1054.8" y1="556.6172" y2="556.6172"/><text fill="#000000" font-family="sans-serif" font-size="10.4" font-weight="bold" lengthAdjust="spacing" textLength="11.2" x="917.2" y="552.407">16</text><text fill="#000000" font-family="sans-serif" font-size="10.4" lengthAdjust="spacing" textLength="118.4" x="931.6" y="552.407">getCollaboratorSkillsList()</text><path d="M989.2,568.6172 L1047.6,568.6172 L1047.6,576.05 L1039.6,584.05 L989.2,584.05 L989.2,568.6172 " fill="#EEEEEE" style="stroke:#000000;stroke-width:1.2000000000000002;"/><rect fill="none" height="65.4984" style="stroke:#000000;stroke-width:1.2000000000000002;" width="278" x="989.2" y="568.6172"/><text fill="#000000" font-family="sans-serif" font-size="10.4" font-weight="bold" lengthAdjust="spacing" textLength="22.4" x="1001.2" y="580.6398">loop</text><text fill="#000000" font-family="sans-serif" font-size="8.8" font-weight="bold" lengthAdjust="spacing" textLength="150.4" x="1059.6" y="579.7133">[for each Skill of that Collaborator]</text><polygon fill="#181818" points="1188.4,599.4828,1196.4,602.6828,1188.4,605.8828,1191.6,602.6828" style="stroke:#181818;stroke-width:0.8000000000000002;"/><line style="stroke:#181818;stroke-width:0.8000000000000002;" x1="1067.6" x2="1193.2" y1="602.6828" y2="602.6828"/><text fill="#000000" font-family="sans-serif" font-size="10.4" font-weight="bold" lengthAdjust="spacing" textLength="11.2" x="1073.2" y="598.4727">17</text><text fill="#000000" font-family="sans-serif" font-size="10.4" lengthAdjust="spacing" textLength="100.8" x="1087.6" y="598.4727">e = equalsSkill(name)</text><polygon fill="#181818" points="1076.4,624.5156,1068.4,627.7156,1076.4,630.9156,1073.2,627.7156" style="stroke:#181818;stroke-width:0.8000000000000002;"/><line style="stroke:#181818;stroke-width:0.8000000000000002;stroke-dasharray:2.0,2.0;" x1="1071.6" x2="1201.2" y1="627.7156" y2="627.7156"/><text fill="#000000" font-family="sans-serif" font-size="10.4" font-weight="bold" lengthAdjust="spacing" textLength="11.2" x="1081.2" y="623.5055">18</text><text fill="#000000" font-family="sans-serif" font-size="10.4" lengthAdjust="spacing" textLength="42.4" x="1095.6" y="623.5055">true/false</text><polygon fill="#181818" points="920.4,655.1484,912.4,658.3484,920.4,661.5484,917.2,658.3484" style="stroke:#181818;stroke-width:0.8000000000000002;"/><line style="stroke:#181818;stroke-width:0.8000000000000002;stroke-dasharray:2.0,2.0;" x1="915.6" x2="1062.8" y1="658.3484" y2="658.3484"/><text fill="#000000" font-family="sans-serif" font-size="10.4" font-weight="bold" lengthAdjust="spacing" textLength="11.2" x="925.2" y="654.1383">19</text><text fill="#000000" font-family="sans-serif" font-size="10.4" lengthAdjust="spacing" textLength="42.4" x="939.6" y="654.1383">true/false</text><path d="M831.2,670.3484 L883.2,670.3484 L883.2,677.7813 L875.2,685.7813 L831.2,685.7813 L831.2,670.3484 " fill="#EEEEEE" style="stroke:#000000;stroke-width:1.2000000000000002;"/><rect fill="none" height="64.4656" style="stroke:#000000;stroke-width:1.2000000000000002;" width="541.6" x="831.2" y="670.3484"/><text fill="#000000" font-family="sans-serif" font-size="10.4" font-weight="bold" lengthAdjust="spacing" textLength="16" x="843.2" y="682.3711">opt</text><text fill="#000000" font-family="sans-serif" font-size="8.8" font-weight="bold" lengthAdjust="spacing" textLength="44.8" x="895.2" y="681.4445">[e == true]</text><polygon fill="#181818" points="1302.4,701.2141,1310.4,704.4141,1302.4,707.6141,1305.6,704.4141" style="stroke:#181818;stroke-width:0.8000000000000002;"/><line style="stroke:#181818;stroke-width:0.8000000000000002;" x1="911.6" x2="1307.2" y1="704.4141" y2="704.4141"/><text fill="#000000" font-family="sans-serif" font-size="10.4" font-weight="bold" lengthAdjust="spacing" textLength="11.2" x="917.2" y="700.2039">20</text><text fill="#000000" font-family="sans-serif" font-size="10.4" lengthAdjust="spacing" textLength="134.4" x="931.6" y="700.2039">addCollaborator(colllaborator)</text><polygon fill="#181818" points="477.6,761.4469,469.6,764.6469,477.6,767.8469,474.4,764.6469" style="stroke:#181818;stroke-width:0.8000000000000002;"/><line style="stroke:#181818;stroke-width:0.8000000000000002;stroke-dasharray:2.0,2.0;" x1="472.8" x2="906.8" y1="764.6469" y2="764.6469"/><text fill="#000000" font-family="sans-serif" font-size="10.4" font-weight="bold" lengthAdjust="spacing" textLength="11.2" x="482.4" y="760.4367">21</text><text fill="#000000" font-family="sans-serif" font-size="10.4" lengthAdjust="spacing" textLength="3.2" x="496.8" y="760.4367">&#160;</text><polygon fill="#181818" points="304,786.4797,296,789.6797,304,792.8797,300.8,789.6797" style="stroke:#181818;stroke-width:0.8000000000000002;"/><line style="stroke:#181818;stroke-width:0.8000000000000002;stroke-dasharray:2.0,2.0;" x1="299.2" x2="464" y1="789.6797" y2="789.6797"/><text fill="#000000" font-family="sans-serif" font-size="10.4" font-weight="bold" lengthAdjust="spacing" textLength="11.2" x="308.8" y="785.4695">22</text><text fill="#000000" font-family="sans-serif" font-size="10.4" lengthAdjust="spacing" textLength="3.2" x="323.2" y="785.4695">&#160;</text><polygon fill="#181818" points="451.2,811.5125,459.2,814.7125,451.2,817.9125,454.4,814.7125" style="stroke:#181818;stroke-width:0.8000000000000002;"/><line style="stroke:#181818;stroke-width:0.8000000000000002;" x1="295.2" x2="456" y1="814.7125" y2="814.7125"/><text fill="#000000" font-family="sans-serif" font-size="10.4" font-weight="bold" lengthAdjust="spacing" textLength="11.2" x="300.8" y="810.5023">23</text><text fill="#000000" font-family="sans-serif" font-size="10.4" lengthAdjust="spacing" textLength="46.4" x="315.2" y="810.5023">getTeam()</text><polygon fill="#181818" points="1302.4,836.5453,1310.4,839.7453,1302.4,842.9453,1305.6,839.7453" style="stroke:#181818;stroke-width:0.8000000000000002;"/><line style="stroke:#181818;stroke-width:0.8000000000000002;" x1="468.8" x2="1307.2" y1="839.7453" y2="839.7453"/><text fill="#000000" font-family="sans-serif" font-size="10.4" font-weight="bold" lengthAdjust="spacing" textLength="11.2" x="474.4" y="835.5352">24</text><text fill="#000000" font-family="sans-serif" font-size="10.4" lengthAdjust="spacing" textLength="46.4" x="488.8" y="835.5352">getTeam()</text><polygon fill="#181818" points="477.6,861.5781,469.6,864.7781,477.6,867.9781,474.4,864.7781" style="stroke:#181818;stroke-width:0.8000000000000002;"/><line style="stroke:#181818;stroke-width:0.8000000000000002;stroke-dasharray:2.0,2.0;" x1="472.8" x2="1315.2" y1="864.7781" y2="864.7781"/><text fill="#000000" font-family="sans-serif" font-size="10.4" font-weight="bold" lengthAdjust="spacing" textLength="11.2" x="482.4" y="860.568">25</text><text fill="#000000" font-family="sans-serif" font-size="10.4" lengthAdjust="spacing" textLength="23.2" x="496.8" y="860.568">team</text><polygon fill="#181818" points="304,886.6109,296,889.8109,304,893.0109,300.8,889.8109" style="stroke:#181818;stroke-width:0.8000000000000002;"/><line style="stroke:#181818;stroke-width:0.8000000000000002;stroke-dasharray:2.0,2.0;" x1="299.2" x2="464" y1="889.8109" y2="889.8109"/><text fill="#000000" font-family="sans-serif" font-size="10.4" font-weight="bold" lengthAdjust="spacing" textLength="11.2" x="308.8" y="885.6008">26</text><text fill="#000000" font-family="sans-serif" font-size="10.4" lengthAdjust="spacing" textLength="23.2" x="323.2" y="885.6008">team</text><polygon fill="#181818" points="65.6,911.6438,57.6,914.8438,65.6,918.0438,62.4,914.8438" style="stroke:#181818;stroke-width:0.8000000000000002;"/><line style="stroke:#181818;stroke-width:0.8000000000000002;stroke-dasharray:2.0,2.0;" x1="60.8" x2="290.4" y1="914.8438" y2="914.8438"/><text fill="#000000" font-family="sans-serif" font-size="10.4" font-weight="bold" lengthAdjust="spacing" textLength="11.2" x="70.4" y="910.6336">27</text><text fill="#000000" font-family="sans-serif" font-size="10.4" lengthAdjust="spacing" textLength="172.8" x="84.8" y="910.6336">shows and aks to confirm all the data</text><polygon fill="#181818" points="277.6,936.6766,285.6,939.8766,277.6,943.0766,280.8,939.8766" style="stroke:#181818;stroke-width:0.8000000000000002;"/><line style="stroke:#181818;stroke-width:0.8000000000000002;" x1="56.8" x2="282.4" y1="939.8766" y2="939.8766"/><text fill="#000000" font-family="sans-serif" font-size="10.4" font-weight="bold" lengthAdjust="spacing" textLength="11.2" x="62.4" y="935.6664">28</text><text fill="#000000" font-family="sans-serif" font-size="10.4" lengthAdjust="spacing" textLength="93.6" x="76.8" y="935.6664">confirms all the data</text><polygon fill="#181818" points="65.6,961.7094,57.6,964.9094,65.6,968.1094,62.4,964.9094" style="stroke:#181818;stroke-width:0.8000000000000002;"/><line style="stroke:#181818;stroke-width:0.8000000000000002;stroke-dasharray:2.0,2.0;" x1="60.8" x2="290.4" y1="964.9094" y2="964.9094"/><text fill="#000000" font-family="sans-serif" font-size="10.4" font-weight="bold" lengthAdjust="spacing" textLength="11.2" x="70.4" y="960.6992">29</text><text fill="#000000" font-family="sans-serif" font-size="10.4" lengthAdjust="spacing" textLength="126.4" x="84.8" y="960.6992">displays operation success</text><!--SRC=[bLR1RkCW4Btp5QEUsaEqsclKLbhriAtKQgkalVL2xKcCOeCNy7Rpzpj0ue31RJQ7gePvZmUycS7iXEovvXrqIgggqQf3i7f0PiQPdbSxliMrtRS86YlBvRQD0qp3Q_KXv1Osl3N86A-iqd1nFtHSmWgD6dI5vaq-SKb4-WAuWVlL4oEu5PNekRHmiVo94ZMt-8AyUzQgLuQthmy- -FNXZDWx9QrMRNjOuEvbzJX1hP021MaJQ7pCEB1V2xSfgsGAqH7YJUO4puy_NbA4v1rIv7edsjQS-7tqTB28lACjy7T5krDwIZ0pb_B4GM55OdqKnbxdCxSPRHXF6SFO6bkwVAoFREbeO78JlpRfJCfbwSQ8mLtSP7Ff4BbeeEiOkdVKyDrxIloX6_V6OVG75hVa2rWIT6V0AjWUF04St2BG7tp1W7uZdAp42BOWj2DPagD_3sYiWOz6L0q8uceGEY55DtJ09UqNElxNVntag4rOeOglWzMOB99ejFiUC-ASbfOg41Vrttg3BsdNDXotE_hBg-YWV09uiFlF8Gfs1y_m80rbTOM47-6bt60bXiMe9SwM-3YALB4mbqOGxUK4Y1NvP6C-zhHcbbFHkW4GBpIDXlm0HtJ6p3BqKGRHc94ZLf1p12L7NvHHuURABYMZ6vzOmKw102HYJPaszQ3RUcp37CcI-AA6o6b9_Jd3S3Fr2cR9JbmpbSxJjqhriA4MGtAR95dyzF4tj_f4MBYZN5FYYYDdKU2XPYQBfnfzXAyR3RS9DW6Lb1_aaUXISINP23T0xg3MwwSkNH-vocX7uSKIpSvGSBrOp4bmBuPleVbFYI9B5LUEOr6UlkSkpwaetbv1GspdJwvBzTOTuaru-9nheRHTkJvKrt7ufVFb-9LUo2XhqlDc3cxQ6UFp-f_D-lZPBHqJdSqm9McOrh4l2uVRmHUr8ZlF4sps82QOg1oxDie-ESAq34-Z2mNODEh3-AxDmtEZKd8ZD3LoIcnNJsjk-RJ-nhNt46zImFoxf1QcR_dUa3tTiqPGfpL3HU_exANn3m00]--></g></svg>