<?xml version="1.0" encoding="us-ascii" standalone="no"?><svg xmlns="http://www.w3.org/2000/svg" xmlns:xlink="http://www.w3.org/1999/xlink" contentStyleType="text/css" height="615px" preserveAspectRatio="none" style="width:857px;height:615px;background:#FFFFFF;" version="1.1" viewBox="0 0 857 615" width="857.5px" zoomAndPan="magnify"><defs/><g><rect fill="#FFFFFF" height="503.8018" style="stroke:#181818;stroke-width:0.5;" width="5" x="38" y="56.1211"/><rect fill="#FFFFFF" height="24.291" style="stroke:#181818;stroke-width:0.5;" width="5" x="187" y="67.7666"/><rect fill="#FFFFFF" height="15.6455" style="stroke:#181818;stroke-width:0.5;" width="5" x="187" y="116.3486"/><rect fill="#FFFFFF" height="363.3467" style="stroke:#181818;stroke-width:0.5;" width="5" x="187" y="160.7852"/><rect fill="#FFFFFF" height="15.6455" style="stroke:#181818;stroke-width:0.5;" width="5" x="187" y="539.7773"/><rect fill="#FFFFFF" height="109.5186" style="stroke:#181818;stroke-width:0.5;" width="5" x="296" y="176.4307"/><rect fill="#FFFFFF" height="109.5186" style="stroke:#181818;stroke-width:0.5;" width="5" x="296" y="305.0947"/><rect fill="#FFFFFF" height="78.2275" style="stroke:#181818;stroke-width:0.5;" width="5" x="296" y="430.2588"/><rect fill="#FFFFFF" height="15.6455" style="stroke:#181818;stroke-width:0.5;" width="5" x="363.25" y="192.0762"/><rect fill="#FFFFFF" height="15.6455" style="stroke:#181818;stroke-width:0.5;" width="5" x="416.75" y="223.3672"/><rect fill="#FFFFFF" height="15.6455" style="stroke:#181818;stroke-width:0.5;" width="5" x="489.5" y="254.6582"/><rect fill="#FFFFFF" height="15.6455" style="stroke:#181818;stroke-width:0.5;" width="5" x="489.5" y="320.7402"/><rect fill="#FFFFFF" height="15.6455" style="stroke:#181818;stroke-width:0.5;" width="5" x="594.75" y="352.0313"/><rect fill="#FFFFFF" height="15.6455" style="stroke:#181818;stroke-width:0.5;" width="5" x="707.25" y="383.3223"/><rect fill="#FFFFFF" height="15.6455" style="stroke:#181818;stroke-width:0.5;" width="5" x="707.25" y="445.9043"/><rect fill="#FFFFFF" height="15.6455" style="stroke:#181818;stroke-width:0.5;" width="5" x="807.5" y="477.1953"/><rect fill="none" height="150.4551" style="stroke:#000000;stroke-width:0.75;" width="535.5" x="5" y="139.4941"/><line style="stroke:#181818;stroke-width:0.25;stroke-dasharray:5.0,5.0;" x1="40.5" x2="40.5" y1="51.1211" y2="564.4229"/><line style="stroke:#181818;stroke-width:0.25;stroke-dasharray:5.0,5.0;" x1="189.5" x2="189.5" y1="51.1211" y2="564.4229"/><line style="stroke:#181818;stroke-width:0.25;stroke-dasharray:5.0,5.0;" x1="298.5" x2="298.5" y1="51.1211" y2="564.4229"/><line style="stroke:#181818;stroke-width:0.25;stroke-dasharray:5.0,5.0;" x1="365.5" x2="365.5" y1="51.1211" y2="564.4229"/><line style="stroke:#181818;stroke-width:0.25;stroke-dasharray:5.0,5.0;" x1="419" x2="419" y1="51.1211" y2="564.4229"/><line style="stroke:#181818;stroke-width:0.25;stroke-dasharray:5.0,5.0;" x1="492" x2="492" y1="51.1211" y2="564.4229"/><line style="stroke:#181818;stroke-width:0.25;stroke-dasharray:5.0,5.0;" x1="597" x2="597" y1="51.1211" y2="564.4229"/><line style="stroke:#181818;stroke-width:0.25;stroke-dasharray:5.0,5.0;" x1="709.5" x2="709.5" y1="51.1211" y2="564.4229"/><line style="stroke:#181818;stroke-width:0.25;stroke-dasharray:5.0,5.0;" x1="810" x2="810" y1="51.1211" y2="564.4229"/><text fill="#000000" font-family="sans-serif" font-size="7" lengthAdjust="spacing" textLength="58" x="10" y="40.0537">Human Resources</text><text fill="#000000" font-family="sans-serif" font-size="7" lengthAdjust="spacing" textLength="28" x="25" y="49.3643">Manager</text><ellipse cx="40.5" cy="6.75" fill="#E3E3E3" rx="4" ry="4" style="stroke:#181818;stroke-width:0.25;"/><path d="M40.5,10.75 L40.5,24.25 M34,14.75 L47,14.75 M40.5,24.25 L34,31.75 M40.5,24.25 L47,31.75 " fill="none" style="stroke:#181818;stroke-width:0.25;"/><text fill="#000000" font-family="sans-serif" font-size="7" lengthAdjust="spacing" textLength="58" x="10" y="571.4766">Human Resources</text><text fill="#000000" font-family="sans-serif" font-size="7" lengthAdjust="spacing" textLength="28" x="25" y="580.7871">Manager</text><ellipse cx="40.5" cy="586.7939" fill="#E3E3E3" rx="4" ry="4" style="stroke:#181818;stroke-width:0.25;"/><path d="M40.5,590.7939 L40.5,604.2939 M34,594.7939 L47,594.7939 M40.5,604.2939 L34,611.7939 M40.5,604.2939 L47,611.7939 " fill="none" style="stroke:#181818;stroke-width:0.25;"/><rect fill="#E3E3E3" height="16.3105" rx="1.25" ry="1.25" style="stroke:#181818;stroke-width:0.25;" width="51" x="164" y="34.3105"/><text fill="#000000" font-family="sans-serif" font-size="7" lengthAdjust="spacing" textLength="44" x="167.5" y="45.3643">:RegistSkillsUI</text><rect fill="#E3E3E3" height="16.3105" rx="1.25" ry="1.25" style="stroke:#181818;stroke-width:0.25;" width="51" x="164" y="563.9229"/><text fill="#000000" font-family="sans-serif" font-size="7" lengthAdjust="spacing" textLength="44" x="167.5" y="574.9766">:RegistSkillsUI</text><rect fill="#E3E3E3" height="16.3105" rx="1.25" ry="1.25" style="stroke:#181818;stroke-width:0.25;" width="76" x="260.5" y="34.3105"/><text fill="#000000" font-family="sans-serif" font-size="7" lengthAdjust="spacing" textLength="69" x="264" y="45.3643">:RegistSkillsController</text><rect fill="#E3E3E3" height="16.3105" rx="1.25" ry="1.25" style="stroke:#181818;stroke-width:0.25;" width="76" x="260.5" y="563.9229"/><text fill="#000000" font-family="sans-serif" font-size="7" lengthAdjust="spacing" textLength="69" x="264" y="574.9766">:RegistSkillsController</text><rect fill="#E3E3E3" height="16.3105" rx="1.25" ry="1.25" style="stroke:#181818;stroke-width:0.25;" width="48.5" x="341.5" y="34.3105"/><text fill="#000000" font-family="sans-serif" font-size="7" lengthAdjust="spacing" textLength="41.5" x="345" y="45.3643">:Repositories</text><rect fill="#E3E3E3" height="16.3105" rx="1.25" ry="1.25" style="stroke:#181818;stroke-width:0.25;" width="48.5" x="341.5" y="563.9229"/><text fill="#000000" font-family="sans-serif" font-size="7" lengthAdjust="spacing" textLength="41.5" x="345" y="574.9766">:Repositories</text><rect fill="#E3E3E3" height="25.6211" rx="1.25" ry="1.25" style="stroke:#181818;stroke-width:0.25;" width="48.5" x="395" y="25"/><text fill="#000000" font-family="sans-serif" font-size="7" lengthAdjust="spacing" textLength="37" x="400.75" y="36.0537">repositories</text><text fill="#000000" font-family="sans-serif" font-size="7" lengthAdjust="spacing" textLength="41.5" x="398.5" y="45.3643">:Repositories</text><rect fill="#E3E3E3" height="25.6211" rx="1.25" ry="1.25" style="stroke:#181818;stroke-width:0.25;" width="48.5" x="395" y="563.9229"/><text fill="#000000" font-family="sans-serif" font-size="7" lengthAdjust="spacing" textLength="37" x="400.75" y="574.9766">repositories</text><text fill="#000000" font-family="sans-serif" font-size="7" lengthAdjust="spacing" textLength="41.5" x="398.5" y="584.2871">:Repositories</text><rect fill="#E3E3E3" height="25.6211" rx="1.25" ry="1.25" style="stroke:#181818;stroke-width:0.25;" width="87" x="448.5" y="25"/><text fill="#000000" font-family="sans-serif" font-size="7" lengthAdjust="spacing" textLength="75.5" x="454.25" y="36.0537">registedSkillsRepository</text><text fill="#000000" font-family="sans-serif" font-size="7" lengthAdjust="spacing" textLength="80" x="452" y="45.3643">:RegistedSkillsRepository</text><rect fill="#E3E3E3" height="25.6211" rx="1.25" ry="1.25" style="stroke:#181818;stroke-width:0.25;" width="87" x="448.5" y="563.9229"/><text fill="#000000" font-family="sans-serif" font-size="7" lengthAdjust="spacing" textLength="75.5" x="454.25" y="574.9766">registedSkillsRepository</text><text fill="#000000" font-family="sans-serif" font-size="7" lengthAdjust="spacing" textLength="80" x="452" y="584.2871">:RegistedSkillsRepository</text><rect fill="#E3E3E3" height="25.6211" rx="1.25" ry="1.25" style="stroke:#181818;stroke-width:0.25;" width="113.5" x="540.5" y="25"/><text fill="#000000" font-family="sans-serif" font-size="7" lengthAdjust="spacing" textLength="102" x="546.25" y="36.0537">registedCollaboratorsRepository</text><text fill="#000000" font-family="sans-serif" font-size="7" lengthAdjust="spacing" textLength="106.5" x="544" y="45.3643">:RegistedCollaboratorsRepository</text><rect fill="#E3E3E3" height="25.6211" rx="1.25" ry="1.25" style="stroke:#181818;stroke-width:0.25;" width="113.5" x="540.5" y="563.9229"/><text fill="#000000" font-family="sans-serif" font-size="7" lengthAdjust="spacing" textLength="102" x="546.25" y="574.9766">registedCollaboratorsRepository</text><text fill="#000000" font-family="sans-serif" font-size="7" lengthAdjust="spacing" textLength="106.5" x="544" y="584.2871">:RegistedCollaboratorsRepository</text><rect fill="#E3E3E3" height="25.6211" rx="1.25" ry="1.25" style="stroke:#181818;stroke-width:0.25;" width="101.5" x="659" y="25"/><text fill="#000000" font-family="sans-serif" font-size="7" lengthAdjust="spacing" textLength="91" x="664.25" y="36.0537">collaboratorsSkillsRepository</text><text fill="#000000" font-family="sans-serif" font-size="7" lengthAdjust="spacing" textLength="94.5" x="662.5" y="45.3643">:CollaboratorsSkillsRepository</text><rect fill="#E3E3E3" height="25.6211" rx="1.25" ry="1.25" style="stroke:#181818;stroke-width:0.25;" width="101.5" x="659" y="563.9229"/><text fill="#000000" font-family="sans-serif" font-size="7" lengthAdjust="spacing" textLength="91" x="664.25" y="574.9766">collaboratorsSkillsRepository</text><text fill="#000000" font-family="sans-serif" font-size="7" lengthAdjust="spacing" textLength="94.5" x="662.5" y="584.2871">:CollaboratorsSkillsRepository</text><rect fill="#E3E3E3" height="25.6211" rx="1.25" ry="1.25" style="stroke:#181818;stroke-width:0.25;" width="89" x="765.5" y="25"/><text fill="#000000" font-family="sans-serif" font-size="7" lengthAdjust="spacing" textLength="79.5" x="770.25" y="36.0537">proposalTeamRepository</text><text fill="#000000" font-family="sans-serif" font-size="7" lengthAdjust="spacing" textLength="82" x="769" y="45.3643">:ProposalTeamRepository</text><rect fill="#E3E3E3" height="25.6211" rx="1.25" ry="1.25" style="stroke:#181818;stroke-width:0.25;" width="89" x="765.5" y="563.9229"/><text fill="#000000" font-family="sans-serif" font-size="7" lengthAdjust="spacing" textLength="79.5" x="770.25" y="574.9766">proposalTeamRepository</text><text fill="#000000" font-family="sans-serif" font-size="7" lengthAdjust="spacing" textLength="82" x="769" y="584.2871">:ProposalTeamRepository</text><rect fill="#FFFFFF" height="503.8018" style="stroke:#181818;stroke-width:0.5;" width="5" x="38" y="56.1211"/><rect fill="#FFFFFF" height="24.291" style="stroke:#181818;stroke-width:0.5;" width="5" x="187" y="67.7666"/><rect fill="#FFFFFF" height="15.6455" style="stroke:#181818;stroke-width:0.5;" width="5" x="187" y="116.3486"/><rect fill="#FFFFFF" height="363.3467" style="stroke:#181818;stroke-width:0.5;" width="5" x="187" y="160.7852"/><rect fill="#FFFFFF" height="15.6455" style="stroke:#181818;stroke-width:0.5;" width="5" x="187" y="539.7773"/><rect fill="#FFFFFF" height="109.5186" style="stroke:#181818;stroke-width:0.5;" width="5" x="296" y="176.4307"/><rect fill="#FFFFFF" height="109.5186" style="stroke:#181818;stroke-width:0.5;" width="5" x="296" y="305.0947"/><rect fill="#FFFFFF" height="78.2275" style="stroke:#181818;stroke-width:0.5;" width="5" x="296" y="430.2588"/><rect fill="#FFFFFF" height="15.6455" style="stroke:#181818;stroke-width:0.5;" width="5" x="363.25" y="192.0762"/><rect fill="#FFFFFF" height="15.6455" style="stroke:#181818;stroke-width:0.5;" width="5" x="416.75" y="223.3672"/><rect fill="#FFFFFF" height="15.6455" style="stroke:#181818;stroke-width:0.5;" width="5" x="489.5" y="254.6582"/><rect fill="#FFFFFF" height="15.6455" style="stroke:#181818;stroke-width:0.5;" width="5" x="489.5" y="320.7402"/><rect fill="#FFFFFF" height="15.6455" style="stroke:#181818;stroke-width:0.5;" width="5" x="594.75" y="352.0313"/><rect fill="#FFFFFF" height="15.6455" style="stroke:#181818;stroke-width:0.5;" width="5" x="707.25" y="383.3223"/><rect fill="#FFFFFF" height="15.6455" style="stroke:#181818;stroke-width:0.5;" width="5" x="707.25" y="445.9043"/><rect fill="#FFFFFF" height="15.6455" style="stroke:#181818;stroke-width:0.5;" width="5" x="807.5" y="477.1953"/><polygon fill="#181818" points="181,65.7666,186,67.7666,181,69.7666,183,67.7666" style="stroke:#181818;stroke-width:0.5;"/><line style="stroke:#181818;stroke-width:0.5;" x1="43" x2="184" y1="67.7666" y2="67.7666"/><text fill="#000000" font-family="sans-serif" font-size="6.5" font-weight="bold" lengthAdjust="spacing" textLength="3.5" x="46.5" y="65.1353">1</text><text fill="#000000" font-family="sans-serif" font-size="6.5" lengthAdjust="spacing" textLength="97" x="52" y="65.1353">asks to generate a team proposal</text><polygon fill="#181818" points="48.5,90.0576,43.5,92.0576,48.5,94.0576,46.5,92.0576" style="stroke:#181818;stroke-width:0.5;"/><line style="stroke:#181818;stroke-width:0.5;stroke-dasharray:2.0,2.0;" x1="45.5" x2="189" y1="92.0576" y2="92.0576"/><text fill="#000000" font-family="sans-serif" font-size="6.5" font-weight="bold" lengthAdjust="spacing" textLength="3.5" x="51.5" y="85.1035">2</text><text fill="#000000" font-family="sans-serif" font-size="6.5" lengthAdjust="spacing" textLength="102.5" x="57" y="80.7808">requests which is the minimum and</text><text fill="#000000" font-family="sans-serif" font-size="6.5" lengthAdjust="spacing" textLength="114.5" x="59" y="89.4263">maximum number of team collaborators</text><polygon fill="#181818" points="181,114.3486,186,116.3486,181,118.3486,183,116.3486" style="stroke:#181818;stroke-width:0.5;"/><line style="stroke:#181818;stroke-width:0.5;" x1="43" x2="184" y1="116.3486" y2="116.3486"/><text fill="#000000" font-family="sans-serif" font-size="6.5" font-weight="bold" lengthAdjust="spacing" textLength="3.5" x="46.5" y="109.3945">3</text><text fill="#000000" font-family="sans-serif" font-size="6.5" lengthAdjust="spacing" textLength="129" x="52" y="105.0718">types the minimum and maximum number of</text><text fill="#000000" font-family="sans-serif" font-size="6.5" lengthAdjust="spacing" textLength="53.5" x="54" y="113.7173">team collaborators</text><polygon fill="#181818" points="48.5,129.9941,43.5,131.9941,48.5,133.9941,46.5,131.9941" style="stroke:#181818;stroke-width:0.5;"/><line style="stroke:#181818;stroke-width:0.5;stroke-dasharray:2.0,2.0;" x1="45.5" x2="189" y1="131.9941" y2="131.9941"/><text fill="#000000" font-family="sans-serif" font-size="6.5" font-weight="bold" lengthAdjust="spacing" textLength="3.5" x="51.5" y="129.3628">4</text><text fill="#000000" font-family="sans-serif" font-size="6.5" lengthAdjust="spacing" textLength="105.5" x="57" y="129.3628">requests which are the skills needed</text><path d="M5,139.4941 L41.5,139.4941 L41.5,144.1396 L36.5,149.1396 L5,149.1396 L5,139.4941 " fill="#EEEEEE" style="stroke:#000000;stroke-width:0.75;"/><rect fill="none" height="150.4551" style="stroke:#000000;stroke-width:0.75;" width="535.5" x="5" y="139.4941"/><text fill="#000000" font-family="sans-serif" font-size="6.5" font-weight="bold" lengthAdjust="spacing" textLength="14" x="12.5" y="147.0083">loop</text><text fill="#000000" font-family="sans-serif" font-size="5.5" font-weight="bold" lengthAdjust="spacing" textLength="45" x="49" y="146.4292">[while intended]</text><polygon fill="#181818" points="181,158.7852,186,160.7852,181,162.7852,183,160.7852" style="stroke:#181818;stroke-width:0.5;"/><line style="stroke:#181818;stroke-width:0.5;" x1="43" x2="184" y1="160.7852" y2="160.7852"/><text fill="#000000" font-family="sans-serif" font-size="6.5" font-weight="bold" lengthAdjust="spacing" textLength="3.5" x="46.5" y="158.1538">5</text><text fill="#000000" font-family="sans-serif" font-size="6.5" lengthAdjust="spacing" textLength="40.5" x="52" y="158.1538">types the skill</text><polygon fill="#181818" points="290,174.4307,295,176.4307,290,178.4307,292,176.4307" style="stroke:#181818;stroke-width:0.5;"/><line style="stroke:#181818;stroke-width:0.5;" x1="192" x2="293" y1="176.4307" y2="176.4307"/><text fill="#000000" font-family="sans-serif" font-size="6.5" font-weight="bold" lengthAdjust="spacing" textLength="3.5" x="195.5" y="173.7993">6</text><text fill="#000000" font-family="sans-serif" font-size="6.5" lengthAdjust="spacing" textLength="65" x="201" y="173.7993">getRegistedSkillsList()</text><polygon fill="#181818" points="357.25,190.0762,362.25,192.0762,357.25,194.0762,359.25,192.0762" style="stroke:#181818;stroke-width:0.5;"/><line style="stroke:#181818;stroke-width:0.5;" x1="301" x2="360.25" y1="192.0762" y2="192.0762"/><text fill="#000000" font-family="sans-serif" font-size="6.5" font-weight="bold" lengthAdjust="spacing" textLength="3.5" x="304.5" y="189.4448">7</text><text fill="#000000" font-family="sans-serif" font-size="6.5" lengthAdjust="spacing" textLength="37.5" x="310" y="189.4448">getInstance()</text><polygon fill="#181818" points="306.5,205.7217,301.5,207.7217,306.5,209.7217,304.5,207.7217" style="stroke:#181818;stroke-width:0.5;"/><line style="stroke:#181818;stroke-width:0.5;stroke-dasharray:2.0,2.0;" x1="303.5" x2="365.25" y1="207.7217" y2="207.7217"/><text fill="#000000" font-family="sans-serif" font-size="6.5" font-weight="bold" lengthAdjust="spacing" textLength="3.5" x="309.5" y="205.0903">8</text><text fill="#000000" font-family="sans-serif" font-size="6.5" lengthAdjust="spacing" textLength="33.5" x="315" y="205.0903">repositories</text><polygon fill="#181818" points="410.75,221.3672,415.75,223.3672,410.75,225.3672,412.75,223.3672" style="stroke:#181818;stroke-width:0.5;"/><line style="stroke:#181818;stroke-width:0.5;" x1="301" x2="413.75" y1="223.3672" y2="223.3672"/><text fill="#000000" font-family="sans-serif" font-size="6.5" font-weight="bold" lengthAdjust="spacing" textLength="3.5" x="304.5" y="220.7358">9</text><text fill="#000000" font-family="sans-serif" font-size="6.5" lengthAdjust="spacing" textLength="85.5" x="310" y="220.7358">getRegistedSkillsRepository()</text><polygon fill="#181818" points="306.5,237.0127,301.5,239.0127,306.5,241.0127,304.5,239.0127" style="stroke:#181818;stroke-width:0.5;"/><line style="stroke:#181818;stroke-width:0.5;stroke-dasharray:2.0,2.0;" x1="303.5" x2="418.75" y1="239.0127" y2="239.0127"/><text fill="#000000" font-family="sans-serif" font-size="6.5" font-weight="bold" lengthAdjust="spacing" textLength="7" x="309.5" y="236.3813">10</text><text fill="#000000" font-family="sans-serif" font-size="6.5" lengthAdjust="spacing" textLength="70" x="318.5" y="236.3813">registedSkillsRepository</text><polygon fill="#181818" points="483.5,252.6582,488.5,254.6582,483.5,256.6582,485.5,254.6582" style="stroke:#181818;stroke-width:0.5;"/><line style="stroke:#181818;stroke-width:0.5;" x1="301" x2="486.5" y1="254.6582" y2="254.6582"/><text fill="#000000" font-family="sans-serif" font-size="6.5" font-weight="bold" lengthAdjust="spacing" textLength="7" x="304.5" y="252.0269">11</text><text fill="#000000" font-family="sans-serif" font-size="6.5" lengthAdjust="spacing" textLength="65" x="313.5" y="252.0269">getRegistedSkillsList()</text><polygon fill="#181818" points="306.5,268.3037,301.5,270.3037,306.5,272.3037,304.5,270.3037" style="stroke:#181818;stroke-width:0.5;"/><line style="stroke:#181818;stroke-width:0.5;stroke-dasharray:2.0,2.0;" x1="303.5" x2="491.5" y1="270.3037" y2="270.3037"/><text fill="#000000" font-family="sans-serif" font-size="6.5" font-weight="bold" lengthAdjust="spacing" textLength="7" x="309.5" y="267.6724">12</text><text fill="#000000" font-family="sans-serif" font-size="6.5" lengthAdjust="spacing" textLength="49.5" x="318.5" y="267.6724">registedSkillsList</text><polygon fill="#181818" points="197.5,283.9492,192.5,285.9492,197.5,287.9492,195.5,285.9492" style="stroke:#181818;stroke-width:0.5;"/><line style="stroke:#181818;stroke-width:0.5;stroke-dasharray:2.0,2.0;" x1="194.5" x2="298" y1="285.9492" y2="285.9492"/><text fill="#000000" font-family="sans-serif" font-size="6.5" font-weight="bold" lengthAdjust="spacing" textLength="7" x="200.5" y="283.3179">13</text><text fill="#000000" font-family="sans-serif" font-size="6.5" lengthAdjust="spacing" textLength="49.5" x="209.5" y="283.3179">registedSkillsList</text><polygon fill="#181818" points="290,303.0947,295,305.0947,290,307.0947,292,305.0947" style="stroke:#181818;stroke-width:0.5;"/><line style="stroke:#181818;stroke-width:0.5;" x1="192" x2="293" y1="305.0947" y2="305.0947"/><text fill="#000000" font-family="sans-serif" font-size="6.5" font-weight="bold" lengthAdjust="spacing" textLength="7" x="195.5" y="302.4634">14</text><text fill="#000000" font-family="sans-serif" font-size="6.5" lengthAdjust="spacing" textLength="85.5" x="204.5" y="302.4634">getCollaboratorsBySkillsList()</text><polygon fill="#181818" points="483.5,318.7402,488.5,320.7402,483.5,322.7402,485.5,320.7402" style="stroke:#181818;stroke-width:0.5;"/><line style="stroke:#181818;stroke-width:0.5;" x1="301" x2="486.5" y1="320.7402" y2="320.7402"/><text fill="#000000" font-family="sans-serif" font-size="6.5" font-weight="bold" lengthAdjust="spacing" textLength="7" x="304.5" y="318.1089">15</text><text fill="#000000" font-family="sans-serif" font-size="6.5" lengthAdjust="spacing" textLength="65" x="313.5" y="318.1089">getRegistedSkillsList()</text><polygon fill="#181818" points="306.5,334.3857,301.5,336.3857,306.5,338.3857,304.5,336.3857" style="stroke:#181818;stroke-width:0.5;"/><line style="stroke:#181818;stroke-width:0.5;stroke-dasharray:2.0,2.0;" x1="303.5" x2="491.5" y1="336.3857" y2="336.3857"/><text fill="#000000" font-family="sans-serif" font-size="6.5" font-weight="bold" lengthAdjust="spacing" textLength="7" x="309.5" y="333.7544">16</text><text fill="#000000" font-family="sans-serif" font-size="6.5" lengthAdjust="spacing" textLength="49.5" x="318.5" y="333.7544">registedSkillsList</text><polygon fill="#181818" points="588.75,350.0313,593.75,352.0313,588.75,354.0313,590.75,352.0313" style="stroke:#181818;stroke-width:0.5;"/><line style="stroke:#181818;stroke-width:0.5;" x1="301" x2="591.75" y1="352.0313" y2="352.0313"/><text fill="#000000" font-family="sans-serif" font-size="6.5" font-weight="bold" lengthAdjust="spacing" textLength="7" x="304.5" y="349.3999">17</text><text fill="#000000" font-family="sans-serif" font-size="6.5" lengthAdjust="spacing" textLength="87" x="313.5" y="349.3999">getRegistedCollaboratorsList()</text><polygon fill="#181818" points="306.5,365.6768,301.5,367.6768,306.5,369.6768,304.5,367.6768" style="stroke:#181818;stroke-width:0.5;"/><line style="stroke:#181818;stroke-width:0.5;stroke-dasharray:2.0,2.0;" x1="303.5" x2="596.75" y1="367.6768" y2="367.6768"/><text fill="#000000" font-family="sans-serif" font-size="6.5" font-weight="bold" lengthAdjust="spacing" textLength="7" x="309.5" y="365.0454">18</text><text fill="#000000" font-family="sans-serif" font-size="6.5" lengthAdjust="spacing" textLength="71.5" x="318.5" y="365.0454">registedCollaboratorsList</text><polygon fill="#181818" points="701.25,381.3223,706.25,383.3223,701.25,385.3223,703.25,383.3223" style="stroke:#181818;stroke-width:0.5;"/><line style="stroke:#181818;stroke-width:0.5;" x1="301" x2="704.25" y1="383.3223" y2="383.3223"/><text fill="#000000" font-family="sans-serif" font-size="6.5" font-weight="bold" lengthAdjust="spacing" textLength="7" x="304.5" y="380.6909">19</text><text fill="#000000" font-family="sans-serif" font-size="6.5" lengthAdjust="spacing" textLength="85.5" x="313.5" y="380.6909">getCollaboratorsBySkillsList()</text><polygon fill="#181818" points="306.5,396.9678,301.5,398.9678,306.5,400.9678,304.5,398.9678" style="stroke:#181818;stroke-width:0.5;"/><line style="stroke:#181818;stroke-width:0.5;stroke-dasharray:2.0,2.0;" x1="303.5" x2="709.25" y1="398.9678" y2="398.9678"/><text fill="#000000" font-family="sans-serif" font-size="6.5" font-weight="bold" lengthAdjust="spacing" textLength="7" x="309.5" y="396.3364">20</text><text fill="#000000" font-family="sans-serif" font-size="6.5" lengthAdjust="spacing" textLength="71.5" x="318.5" y="396.3364">collaboratorsBySkillsList</text><polygon fill="#181818" points="197.5,412.6133,192.5,414.6133,197.5,416.6133,195.5,414.6133" style="stroke:#181818;stroke-width:0.5;"/><line style="stroke:#181818;stroke-width:0.5;stroke-dasharray:2.0,2.0;" x1="194.5" x2="298" y1="414.6133" y2="414.6133"/><text fill="#000000" font-family="sans-serif" font-size="6.5" font-weight="bold" lengthAdjust="spacing" textLength="7" x="200.5" y="411.9819">21</text><text fill="#000000" font-family="sans-serif" font-size="6.5" lengthAdjust="spacing" textLength="71.5" x="209.5" y="411.9819">collaboratorsBySkillsList</text><polygon fill="#181818" points="290,428.2588,295,430.2588,290,432.2588,292,430.2588" style="stroke:#181818;stroke-width:0.5;"/><line style="stroke:#181818;stroke-width:0.5;" x1="192" x2="293" y1="430.2588" y2="430.2588"/><text fill="#000000" font-family="sans-serif" font-size="6.5" font-weight="bold" lengthAdjust="spacing" textLength="7" x="195.5" y="427.6274">22</text><text fill="#000000" font-family="sans-serif" font-size="6.5" lengthAdjust="spacing" textLength="54.5" x="204.5" y="427.6274">getProposalTeam()</text><polygon fill="#181818" points="701.25,443.9043,706.25,445.9043,701.25,447.9043,703.25,445.9043" style="stroke:#181818;stroke-width:0.5;"/><line style="stroke:#181818;stroke-width:0.5;" x1="301" x2="704.25" y1="445.9043" y2="445.9043"/><text fill="#000000" font-family="sans-serif" font-size="6.5" font-weight="bold" lengthAdjust="spacing" textLength="7" x="304.5" y="443.2729">23</text><text fill="#000000" font-family="sans-serif" font-size="6.5" lengthAdjust="spacing" textLength="85.5" x="313.5" y="443.2729">getCollaboratorsBySkillsList()</text><polygon fill="#181818" points="306.5,459.5498,301.5,461.5498,306.5,463.5498,304.5,461.5498" style="stroke:#181818;stroke-width:0.5;"/><line style="stroke:#181818;stroke-width:0.5;stroke-dasharray:2.0,2.0;" x1="303.5" x2="709.25" y1="461.5498" y2="461.5498"/><text fill="#000000" font-family="sans-serif" font-size="6.5" font-weight="bold" lengthAdjust="spacing" textLength="7" x="309.5" y="458.9185">24</text><text fill="#000000" font-family="sans-serif" font-size="6.5" lengthAdjust="spacing" textLength="47.5" x="318.5" y="458.9185">collaboratorsList</text><polygon fill="#181818" points="801.5,475.1953,806.5,477.1953,801.5,479.1953,803.5,477.1953" style="stroke:#181818;stroke-width:0.5;"/><line style="stroke:#181818;stroke-width:0.5;" x1="301" x2="804.5" y1="477.1953" y2="477.1953"/><text fill="#000000" font-family="sans-serif" font-size="6.5" font-weight="bold" lengthAdjust="spacing" textLength="7" x="304.5" y="474.564">25</text><text fill="#000000" font-family="sans-serif" font-size="6.5" lengthAdjust="spacing" textLength="54.5" x="313.5" y="474.564">getProposalTeam()</text><polygon fill="#181818" points="306.5,490.8408,301.5,492.8408,306.5,494.8408,304.5,492.8408" style="stroke:#181818;stroke-width:0.5;"/><line style="stroke:#181818;stroke-width:0.5;stroke-dasharray:2.0,2.0;" x1="303.5" x2="809.5" y1="492.8408" y2="492.8408"/><text fill="#000000" font-family="sans-serif" font-size="6.5" font-weight="bold" lengthAdjust="spacing" textLength="7" x="309.5" y="490.2095">26</text><text fill="#000000" font-family="sans-serif" font-size="6.5" lengthAdjust="spacing" textLength="40.5" x="318.5" y="490.2095">proposalTeam</text><polygon fill="#181818" points="197.5,506.4863,192.5,508.4863,197.5,510.4863,195.5,508.4863" style="stroke:#181818;stroke-width:0.5;"/><line style="stroke:#181818;stroke-width:0.5;stroke-dasharray:2.0,2.0;" x1="194.5" x2="298" y1="508.4863" y2="508.4863"/><text fill="#000000" font-family="sans-serif" font-size="6.5" font-weight="bold" lengthAdjust="spacing" textLength="7" x="200.5" y="505.855">27</text><text fill="#000000" font-family="sans-serif" font-size="6.5" lengthAdjust="spacing" textLength="40.5" x="209.5" y="505.855">proposalTeam</text><polygon fill="#181818" points="48.5,522.1318,43.5,524.1318,48.5,526.1318,46.5,524.1318" style="stroke:#181818;stroke-width:0.5;"/><line style="stroke:#181818;stroke-width:0.5;stroke-dasharray:2.0,2.0;" x1="45.5" x2="189" y1="524.1318" y2="524.1318"/><text fill="#000000" font-family="sans-serif" font-size="6.5" font-weight="bold" lengthAdjust="spacing" textLength="7" x="51.5" y="521.5005">28</text><text fill="#000000" font-family="sans-serif" font-size="6.5" lengthAdjust="spacing" textLength="108" x="60.5" y="521.5005">shows and aks to confirm all the data</text><polygon fill="#181818" points="181,537.7773,186,539.7773,181,541.7773,183,539.7773" style="stroke:#181818;stroke-width:0.5;"/><line style="stroke:#181818;stroke-width:0.5;" x1="43" x2="184" y1="539.7773" y2="539.7773"/><text fill="#000000" font-family="sans-serif" font-size="6.5" font-weight="bold" lengthAdjust="spacing" textLength="7" x="46.5" y="537.146">29</text><text fill="#000000" font-family="sans-serif" font-size="6.5" lengthAdjust="spacing" textLength="58.5" x="55.5" y="537.146">confirms all the data</text><polygon fill="#181818" points="48.5,553.4229,43.5,555.4229,48.5,557.4229,46.5,555.4229" style="stroke:#181818;stroke-width:0.5;"/><line style="stroke:#181818;stroke-width:0.5;stroke-dasharray:2.0,2.0;" x1="45.5" x2="189" y1="555.4229" y2="555.4229"/><text fill="#000000" font-family="sans-serif" font-size="6.5" font-weight="bold" lengthAdjust="spacing" textLength="7" x="51.5" y="552.7915">30</text><text fill="#000000" font-family="sans-serif" font-size="6.5" lengthAdjust="spacing" textLength="79" x="60.5" y="552.7915">displays operation success</text><!--SRC=[pLV1Rjim3BtdAuYUjaCFk-PGOCkb1LgWIDjRBwpD9a9ioPFaTVdxKNBYI9RaP1impATK8jyZgIUADJiXEzJOGgkaghPQjGHMzxGmuqw7rGutz6Jt3O6cogBSDA61sMAjFeJSm3isXXOBhApIS7NRjoXXJKRrkYBpAXzGCf2-0ZHmktvOiBiLbUXGMhXQhcaZZ7tQYQOnBtVUwELkncQbfDMgQGw0g-VrVMBTAICu5a76sumB-oVXah1AnYuwy7YLAS3Z_TVdgOUBYEeXfXE1zyvl7KB9R-RHLvmdlYcDR98dALX4N0MRcB8AZJ9PhURsXvEOiuZ9Egru0vjdmZPYUSnk36UGtMBLzNoSVVj66hvu3OeVQCaBRG7yyG-ulc5DmP9XTWQiWWr9qiuAmPBJ-W7RExXlX64f-aLslsOK1xRas_2z9sCDV6n5jGN1c5k2LaZHzYsWh5ybjFZJ_tK8JRqFJ56PFN9D4LaIizrtb12ay4nP8FZjV52JvpF-344IrLJdOdLBZLATy-Cc8QGbwKn7sd8k7hiStl5pOTxuExxaGxFnxRddtvy-Br8KtnCY7BVYa3AT03podJJSu2fYl0Gkrpv6gnpYzHXps5X6bw2Aiz1XuAu3GQO69u1SvBvlZSiU8uojq8eoSSP0SKNpA50-i4o12v44LIwm7DE1QJwEAr_nSrn3PaV9NePwKjnqqQtnhJZTka3EKSVyjazLdS7_oxh_cvfVNEzfDeMdAaugCZgdgTBZbwHPeaulJC8_fxEp_CSIp3wVS5OliLncd-AXyhDqmH5N9T94xXUGHbVhSkHH_PCB5Cu4CtVclo_pf1P_MDtelSXEIv2hMlnY5AOi_txaCGEjX7FTD84vv5WNSoZ3eQOZZDcg3-Cd8nn6l4h9Tw5vM6eQFt3KQB4qmuGZoi7Ff8xpCrGjJDVWte3gt6WfU0mmVSN__sIdl5y0]--></g></svg>