<?xml version="1.0" encoding="us-ascii" standalone="no"?><svg xmlns="http://www.w3.org/2000/svg" xmlns:xlink="http://www.w3.org/1999/xlink" contentStyleType="text/css" height="1325px" preserveAspectRatio="none" style="width:1783px;height:1325px;background:#FFFFFF;" version="1.1" viewBox="0 0 1783 1325" width="1783px" zoomAndPan="magnify"><defs/><g><rect fill="#FFFFFF" height="1102.8945" style="stroke:#181818;stroke-width:1.0;" width="10" x="61" y="112.2422"/><rect fill="#FFFFFF" height="48.582" style="stroke:#181818;stroke-width:1.0;" width="10" x="359" y="135.5332"/><rect fill="#FFFFFF" height="281.6191" style="stroke:#181818;stroke-width:1.0;" width="10" x="359" y="232.6973"/><rect fill="#FFFFFF" height="597.9473" style="stroke:#181818;stroke-width:1.0;" width="10" x="359" y="545.6074"/><rect fill="#FFFFFF" height="31.291" style="stroke:#181818;stroke-width:1.0;" width="10" x="359" y="1174.8457"/><rect fill="#FFFFFF" height="219.0371" style="stroke:#181818;stroke-width:1.0;" width="10" x="576" y="263.9883"/><rect fill="#FFFFFF" height="380.2012" style="stroke:#181818;stroke-width:1.0;" width="10" x="576" y="606.8984"/><rect fill="#FFFFFF" height="93.873" style="stroke:#181818;stroke-width:1.0;" width="10" x="576" y="1018.3906"/><rect fill="#FFFFFF" height="31.291" style="stroke:#181818;stroke-width:1.0;" width="10" x="750.5" y="295.2793"/><rect fill="#FFFFFF" height="31.291" style="stroke:#181818;stroke-width:1.0;" width="10" x="857.5" y="357.8613"/><rect fill="#FFFFFF" height="31.291" style="stroke:#181818;stroke-width:1.0;" width="10" x="975" y="420.4434"/><rect fill="#FFFFFF" height="317.6191" style="stroke:#181818;stroke-width:1.0;" width="10" x="1129.5" y="638.1895"/><rect fill="#FFFFFF" height="127.1641" style="stroke:#181818;stroke-width:1.0;" width="10" x="1324.5" y="695.7715"/><rect fill="#FFFFFF" height="31.291" style="stroke:#181818;stroke-width:1.0;" width="10" x="1504" y="753.3535"/><rect fill="#FFFFFF" height="30" style="stroke:#181818;stroke-width:1.0;" width="10" x="1691" y="880.5176"/><rect fill="#FFFFFF" height="31.291" style="stroke:#181818;stroke-width:1.0;" width="10" x="1691" y="1049.6816"/><rect fill="none" height="272.3281" style="stroke:#000000;stroke-width:1.5;" width="748" x="1029" y="653.1895"/><rect fill="none" height="81.873" style="stroke:#000000;stroke-width:1.5;" width="369" x="1266" y="710.7715"/><rect fill="none" height="80.582" style="stroke:#000000;stroke-width:1.5;" width="728" x="1039" y="837.9355"/><line style="stroke:#181818;stroke-width:0.5;stroke-dasharray:5.0,5.0;" x1="66" x2="66" y1="102.2422" y2="1224.1367"/><line style="stroke:#181818;stroke-width:0.5;stroke-dasharray:5.0,5.0;" x1="364" x2="364" y1="102.2422" y2="1224.1367"/><line style="stroke:#181818;stroke-width:0.5;stroke-dasharray:5.0,5.0;" x1="581" x2="581" y1="102.2422" y2="1224.1367"/><line style="stroke:#181818;stroke-width:0.5;stroke-dasharray:5.0,5.0;" x1="755" x2="755" y1="102.2422" y2="1224.1367"/><line style="stroke:#181818;stroke-width:0.5;stroke-dasharray:5.0,5.0;" x1="862" x2="862" y1="102.2422" y2="1224.1367"/><line style="stroke:#181818;stroke-width:0.5;stroke-dasharray:5.0,5.0;" x1="980" x2="980" y1="102.2422" y2="1224.1367"/><line style="stroke:#181818;stroke-width:0.5;stroke-dasharray:5.0,5.0;" x1="1134" x2="1134" y1="102.2422" y2="1224.1367"/><line style="stroke:#181818;stroke-width:0.5;stroke-dasharray:5.0,5.0;" x1="1329" x2="1329" y1="102.2422" y2="1224.1367"/><line style="stroke:#181818;stroke-width:0.5;stroke-dasharray:5.0,5.0;" x1="1509" x2="1509" y1="102.2422" y2="1224.1367"/><line style="stroke:#181818;stroke-width:0.5;stroke-dasharray:5.0,5.0;" x1="1696" x2="1696" y1="102.2422" y2="1224.1367"/><text fill="#000000" font-family="sans-serif" font-size="14" lengthAdjust="spacing" textLength="116" x="5" y="80.1074">Human Resources</text><text fill="#000000" font-family="sans-serif" font-size="14" lengthAdjust="spacing" textLength="56" x="35" y="98.7285">Manager</text><ellipse cx="66" cy="13.5" fill="#E3E3E3" rx="8" ry="8" style="stroke:#181818;stroke-width:0.5;"/><path d="M66,21.5 L66,48.5 M53,29.5 L79,29.5 M66,48.5 L53,63.5 M66,48.5 L79,63.5 " fill="none" style="stroke:#181818;stroke-width:0.5;"/><text fill="#000000" font-family="sans-serif" font-size="14" lengthAdjust="spacing" textLength="116" x="5" y="1238.2441">Human Resources</text><text fill="#000000" font-family="sans-serif" font-size="14" lengthAdjust="spacing" textLength="56" x="35" y="1256.8652">Manager</text><ellipse cx="66" cy="1268.8789" fill="#E3E3E3" rx="8" ry="8" style="stroke:#181818;stroke-width:0.5;"/><path d="M66,1276.8789 L66,1303.8789 M53,1284.8789 L79,1284.8789 M66,1303.8789 L53,1318.8789 M66,1303.8789 L79,1318.8789 " fill="none" style="stroke:#181818;stroke-width:0.5;"/><rect fill="#E3E3E3" height="32.6211" rx="2.5" ry="2.5" style="stroke:#181818;stroke-width:0.5;" width="182" x="273" y="68.6211"/><text fill="#000000" font-family="sans-serif" font-size="14" lengthAdjust="spacing" textLength="168" x="280" y="90.7285">:GenerateTeamProposalUI</text><rect fill="#E3E3E3" height="32.6211" rx="2.5" ry="2.5" style="stroke:#181818;stroke-width:0.5;" width="182" x="273" y="1223.1367"/><text fill="#000000" font-family="sans-serif" font-size="14" lengthAdjust="spacing" textLength="168" x="280" y="1245.2441">:GenerateTeamProposalUI</text><rect fill="#E3E3E3" height="32.6211" rx="2.5" ry="2.5" style="stroke:#181818;stroke-width:0.5;" width="232" x="465" y="68.6211"/><text fill="#000000" font-family="sans-serif" font-size="14" lengthAdjust="spacing" textLength="218" x="472" y="90.7285">:GenerateTeamProposalController</text><rect fill="#E3E3E3" height="32.6211" rx="2.5" ry="2.5" style="stroke:#181818;stroke-width:0.5;" width="232" x="465" y="1223.1367"/><text fill="#000000" font-family="sans-serif" font-size="14" lengthAdjust="spacing" textLength="218" x="472" y="1245.2441">:GenerateTeamProposalController</text><rect fill="#E3E3E3" height="32.6211" rx="2.5" ry="2.5" style="stroke:#181818;stroke-width:0.5;" width="97" x="707" y="68.6211"/><text fill="#000000" font-family="sans-serif" font-size="14" lengthAdjust="spacing" textLength="83" x="714" y="90.7285">:Repositories</text><rect fill="#E3E3E3" height="32.6211" rx="2.5" ry="2.5" style="stroke:#181818;stroke-width:0.5;" width="97" x="707" y="1223.1367"/><text fill="#000000" font-family="sans-serif" font-size="14" lengthAdjust="spacing" textLength="83" x="714" y="1245.2441">:Repositories</text><rect fill="#E3E3E3" height="51.2422" rx="2.5" ry="2.5" style="stroke:#181818;stroke-width:0.5;" width="97" x="814" y="50"/><text fill="#000000" font-family="sans-serif" font-size="14" lengthAdjust="spacing" textLength="74" x="825.5" y="72.1074">repositories</text><text fill="#000000" font-family="sans-serif" font-size="14" lengthAdjust="spacing" textLength="83" x="821" y="90.7285">:Repositories</text><rect fill="#E3E3E3" height="51.2422" rx="2.5" ry="2.5" style="stroke:#181818;stroke-width:0.5;" width="97" x="814" y="1223.1367"/><text fill="#000000" font-family="sans-serif" font-size="14" lengthAdjust="spacing" textLength="74" x="825.5" y="1245.2441">repositories</text><text fill="#000000" font-family="sans-serif" font-size="14" lengthAdjust="spacing" textLength="83" x="821" y="1263.8652">:Repositories</text><rect fill="#E3E3E3" height="51.2422" rx="2.5" ry="2.5" style="stroke:#181818;stroke-width:0.5;" width="118" x="921" y="50"/><text fill="#000000" font-family="sans-serif" font-size="14" lengthAdjust="spacing" textLength="35" x="962.5" y="72.1074">name</text><text fill="#000000" font-family="sans-serif" font-size="14" lengthAdjust="spacing" textLength="104" x="928" y="90.7285">:SkillsRepository</text><rect fill="#E3E3E3" height="51.2422" rx="2.5" ry="2.5" style="stroke:#181818;stroke-width:0.5;" width="118" x="921" y="1223.1367"/><text fill="#000000" font-family="sans-serif" font-size="14" lengthAdjust="spacing" textLength="35" x="962.5" y="1245.2441">name</text><text fill="#000000" font-family="sans-serif" font-size="14" lengthAdjust="spacing" textLength="104" x="928" y="1263.8652">:SkillsRepository</text><rect fill="#E3E3E3" height="51.2422" rx="2.5" ry="2.5" style="stroke:#181818;stroke-width:0.5;" width="171" x="1049" y="50"/><text fill="#000000" font-family="sans-serif" font-size="14" lengthAdjust="spacing" textLength="35" x="1117" y="72.1074">name</text><text fill="#000000" font-family="sans-serif" font-size="14" lengthAdjust="spacing" textLength="157" x="1056" y="90.7285">:CollaboratorsRepository</text><rect fill="#E3E3E3" height="51.2422" rx="2.5" ry="2.5" style="stroke:#181818;stroke-width:0.5;" width="171" x="1049" y="1223.1367"/><text fill="#000000" font-family="sans-serif" font-size="14" lengthAdjust="spacing" textLength="35" x="1117" y="1245.2441">name</text><text fill="#000000" font-family="sans-serif" font-size="14" lengthAdjust="spacing" textLength="157" x="1056" y="1263.8652">:CollaboratorsRepository</text><rect fill="#E3E3E3" height="51.2422" rx="2.5" ry="2.5" style="stroke:#181818;stroke-width:0.5;" width="107" x="1276" y="50"/><text fill="#000000" font-family="sans-serif" font-size="14" lengthAdjust="spacing" textLength="82" x="1288.5" y="72.1074">Collaborator:</text><text fill="#000000" font-family="sans-serif" font-size="14" lengthAdjust="spacing" textLength="93" x="1283" y="90.7285">List&lt;Skill&gt;skills</text><rect fill="#E3E3E3" height="51.2422" rx="2.5" ry="2.5" style="stroke:#181818;stroke-width:0.5;" width="107" x="1276" y="1223.1367"/><text fill="#000000" font-family="sans-serif" font-size="14" lengthAdjust="spacing" textLength="82" x="1288.5" y="1245.2441">Collaborator:</text><text fill="#000000" font-family="sans-serif" font-size="14" lengthAdjust="spacing" textLength="93" x="1283" y="1263.8652">List&lt;Skill&gt;skills</text><rect fill="#E3E3E3" height="51.2422" rx="2.5" ry="2.5" style="stroke:#181818;stroke-width:0.5;" width="232" x="1393" y="50"/><text fill="#000000" font-family="sans-serif" font-size="14" lengthAdjust="spacing" textLength="218" x="1400" y="72.1074">:GenerateTeamProposalController</text><text fill="#000000" font-family="sans-serif" font-size="14" lengthAdjust="spacing" textLength="152" x="1433" y="90.7285">List&lt;Skill&gt; skillsSelected</text><rect fill="#E3E3E3" height="51.2422" rx="2.5" ry="2.5" style="stroke:#181818;stroke-width:0.5;" width="232" x="1393" y="1223.1367"/><text fill="#000000" font-family="sans-serif" font-size="14" lengthAdjust="spacing" textLength="218" x="1400" y="1245.2441">:GenerateTeamProposalController</text><text fill="#000000" font-family="sans-serif" font-size="14" lengthAdjust="spacing" textLength="152" x="1433" y="1263.8652">List&lt;Skill&gt; skillsSelected</text><rect fill="#E3E3E3" height="51.2422" rx="2.5" ry="2.5" style="stroke:#181818;stroke-width:0.5;" width="122" x="1635" y="50"/><text fill="#000000" font-family="sans-serif" font-size="14" lengthAdjust="spacing" textLength="31" x="1680.5" y="72.1074">team</text><text fill="#000000" font-family="sans-serif" font-size="14" lengthAdjust="spacing" textLength="108" x="1642" y="90.7285">:TeamRepository</text><rect fill="#E3E3E3" height="51.2422" rx="2.5" ry="2.5" style="stroke:#181818;stroke-width:0.5;" width="122" x="1635" y="1223.1367"/><text fill="#000000" font-family="sans-serif" font-size="14" lengthAdjust="spacing" textLength="31" x="1680.5" y="1245.2441">team</text><text fill="#000000" font-family="sans-serif" font-size="14" lengthAdjust="spacing" textLength="108" x="1642" y="1263.8652">:TeamRepository</text><rect fill="#FFFFFF" height="1102.8945" style="stroke:#181818;stroke-width:1.0;" width="10" x="61" y="112.2422"/><rect fill="#FFFFFF" height="48.582" style="stroke:#181818;stroke-width:1.0;" width="10" x="359" y="135.5332"/><rect fill="#FFFFFF" height="281.6191" style="stroke:#181818;stroke-width:1.0;" width="10" x="359" y="232.6973"/><rect fill="#FFFFFF" height="597.9473" style="stroke:#181818;stroke-width:1.0;" width="10" x="359" y="545.6074"/><rect fill="#FFFFFF" height="31.291" style="stroke:#181818;stroke-width:1.0;" width="10" x="359" y="1174.8457"/><rect fill="#FFFFFF" height="219.0371" style="stroke:#181818;stroke-width:1.0;" width="10" x="576" y="263.9883"/><rect fill="#FFFFFF" height="380.2012" style="stroke:#181818;stroke-width:1.0;" width="10" x="576" y="606.8984"/><rect fill="#FFFFFF" height="93.873" style="stroke:#181818;stroke-width:1.0;" width="10" x="576" y="1018.3906"/><rect fill="#FFFFFF" height="31.291" style="stroke:#181818;stroke-width:1.0;" width="10" x="750.5" y="295.2793"/><rect fill="#FFFFFF" height="31.291" style="stroke:#181818;stroke-width:1.0;" width="10" x="857.5" y="357.8613"/><rect fill="#FFFFFF" height="31.291" style="stroke:#181818;stroke-width:1.0;" width="10" x="975" y="420.4434"/><rect fill="#FFFFFF" height="317.6191" style="stroke:#181818;stroke-width:1.0;" width="10" x="1129.5" y="638.1895"/><rect fill="#FFFFFF" height="127.1641" style="stroke:#181818;stroke-width:1.0;" width="10" x="1324.5" y="695.7715"/><rect fill="#FFFFFF" height="31.291" style="stroke:#181818;stroke-width:1.0;" width="10" x="1504" y="753.3535"/><rect fill="#FFFFFF" height="30" style="stroke:#181818;stroke-width:1.0;" width="10" x="1691" y="880.5176"/><rect fill="#FFFFFF" height="31.291" style="stroke:#181818;stroke-width:1.0;" width="10" x="1691" y="1049.6816"/><polygon fill="#181818" points="347,131.5332,357,135.5332,347,139.5332,351,135.5332" style="stroke:#181818;stroke-width:1.0;"/><line style="stroke:#181818;stroke-width:1.0;" x1="71" x2="353" y1="135.5332" y2="135.5332"/><text fill="#000000" font-family="sans-serif" font-size="13" font-weight="bold" lengthAdjust="spacing" textLength="7" x="78" y="130.2705">1</text><text fill="#000000" font-family="sans-serif" font-size="13" lengthAdjust="spacing" textLength="194" x="89" y="130.2705">asks to generate a team proposal</text><polygon fill="#181818" points="82,180.1152,72,184.1152,82,188.1152,78,184.1152" style="stroke:#181818;stroke-width:1.0;"/><line style="stroke:#181818;stroke-width:1.0;stroke-dasharray:2.0,2.0;" x1="76" x2="363" y1="184.1152" y2="184.1152"/><text fill="#000000" font-family="sans-serif" font-size="13" font-weight="bold" lengthAdjust="spacing" textLength="7" x="88" y="170.207">2</text><text fill="#000000" font-family="sans-serif" font-size="13" lengthAdjust="spacing" textLength="205" x="99" y="161.5615">requests which is the minimum and</text><text fill="#000000" font-family="sans-serif" font-size="13" lengthAdjust="spacing" textLength="229" x="103" y="178.8525">maximum number of team collaborators</text><polygon fill="#181818" points="347,228.6973,357,232.6973,347,236.6973,351,232.6973" style="stroke:#181818;stroke-width:1.0;"/><line style="stroke:#181818;stroke-width:1.0;" x1="71" x2="353" y1="232.6973" y2="232.6973"/><text fill="#000000" font-family="sans-serif" font-size="13" font-weight="bold" lengthAdjust="spacing" textLength="7" x="78" y="218.7891">3</text><text fill="#000000" font-family="sans-serif" font-size="13" lengthAdjust="spacing" textLength="258" x="89" y="210.1436">types the minimum and maximum number of</text><text fill="#000000" font-family="sans-serif" font-size="13" lengthAdjust="spacing" textLength="107" x="93" y="227.4346">team collaborators</text><polygon fill="#181818" points="564,259.9883,574,263.9883,564,267.9883,568,263.9883" style="stroke:#181818;stroke-width:1.0;"/><line style="stroke:#181818;stroke-width:1.0;" x1="369" x2="570" y1="263.9883" y2="263.9883"/><text fill="#000000" font-family="sans-serif" font-size="13" font-weight="bold" lengthAdjust="spacing" textLength="7" x="376" y="258.7256">4</text><text fill="#000000" font-family="sans-serif" font-size="13" lengthAdjust="spacing" textLength="79" x="387" y="258.7256">getSkillsList()</text><polygon fill="#181818" points="738.5,291.2793,748.5,295.2793,738.5,299.2793,742.5,295.2793" style="stroke:#181818;stroke-width:1.0;"/><line style="stroke:#181818;stroke-width:1.0;" x1="586" x2="744.5" y1="295.2793" y2="295.2793"/><text fill="#000000" font-family="sans-serif" font-size="13" font-weight="bold" lengthAdjust="spacing" textLength="7" x="593" y="290.0166">5</text><text fill="#000000" font-family="sans-serif" font-size="13" lengthAdjust="spacing" textLength="75" x="604" y="290.0166">getInstance()</text><polygon fill="#181818" points="597,322.5703,587,326.5703,597,330.5703,593,326.5703" style="stroke:#181818;stroke-width:1.0;"/><line style="stroke:#181818;stroke-width:1.0;stroke-dasharray:2.0,2.0;" x1="591" x2="754.5" y1="326.5703" y2="326.5703"/><text fill="#000000" font-family="sans-serif" font-size="13" font-weight="bold" lengthAdjust="spacing" textLength="7" x="603" y="321.3076">6</text><text fill="#000000" font-family="sans-serif" font-size="13" lengthAdjust="spacing" textLength="67" x="614" y="321.3076">repositories</text><polygon fill="#181818" points="845.5,353.8613,855.5,357.8613,845.5,361.8613,849.5,357.8613" style="stroke:#181818;stroke-width:1.0;"/><line style="stroke:#181818;stroke-width:1.0;" x1="586" x2="851.5" y1="357.8613" y2="357.8613"/><text fill="#000000" font-family="sans-serif" font-size="13" font-weight="bold" lengthAdjust="spacing" textLength="7" x="593" y="352.5986">7</text><text fill="#000000" font-family="sans-serif" font-size="13" lengthAdjust="spacing" textLength="120" x="604" y="352.5986">getSkillsRepository()</text><polygon fill="#181818" points="597,385.1523,587,389.1523,597,393.1523,593,389.1523" style="stroke:#181818;stroke-width:1.0;"/><line style="stroke:#181818;stroke-width:1.0;stroke-dasharray:2.0,2.0;" x1="591" x2="861.5" y1="389.1523" y2="389.1523"/><text fill="#000000" font-family="sans-serif" font-size="13" font-weight="bold" lengthAdjust="spacing" textLength="7" x="603" y="383.8896">8</text><text fill="#000000" font-family="sans-serif" font-size="13" lengthAdjust="spacing" textLength="94" x="614" y="383.8896">SkillsRepository</text><polygon fill="#181818" points="963,416.4434,973,420.4434,963,424.4434,967,420.4434" style="stroke:#181818;stroke-width:1.0;"/><line style="stroke:#181818;stroke-width:1.0;" x1="586" x2="969" y1="420.4434" y2="420.4434"/><text fill="#000000" font-family="sans-serif" font-size="13" font-weight="bold" lengthAdjust="spacing" textLength="7" x="593" y="415.1807">9</text><text fill="#000000" font-family="sans-serif" font-size="13" lengthAdjust="spacing" textLength="79" x="604" y="415.1807">getSkillsList()</text><polygon fill="#181818" points="597,447.7344,587,451.7344,597,455.7344,593,451.7344" style="stroke:#181818;stroke-width:1.0;"/><line style="stroke:#181818;stroke-width:1.0;stroke-dasharray:2.0,2.0;" x1="591" x2="979" y1="451.7344" y2="451.7344"/><text fill="#000000" font-family="sans-serif" font-size="13" font-weight="bold" lengthAdjust="spacing" textLength="14" x="603" y="446.4717">10</text><text fill="#000000" font-family="sans-serif" font-size="13" lengthAdjust="spacing" textLength="51" x="621" y="446.4717">skillsList</text><polygon fill="#181818" points="380,479.0254,370,483.0254,380,487.0254,376,483.0254" style="stroke:#181818;stroke-width:1.0;"/><line style="stroke:#181818;stroke-width:1.0;stroke-dasharray:2.0,2.0;" x1="374" x2="580" y1="483.0254" y2="483.0254"/><text fill="#000000" font-family="sans-serif" font-size="13" font-weight="bold" lengthAdjust="spacing" textLength="14" x="386" y="477.7627">11</text><text fill="#000000" font-family="sans-serif" font-size="13" lengthAdjust="spacing" textLength="51" x="404" y="477.7627">skillsList</text><polygon fill="#181818" points="82,510.3164,72,514.3164,82,518.3164,78,514.3164" style="stroke:#181818;stroke-width:1.0;"/><line style="stroke:#181818;stroke-width:1.0;stroke-dasharray:2.0,2.0;" x1="76" x2="363" y1="514.3164" y2="514.3164"/><text fill="#000000" font-family="sans-serif" font-size="13" font-weight="bold" lengthAdjust="spacing" textLength="14" x="88" y="509.0537">12</text><text fill="#000000" font-family="sans-serif" font-size="13" lengthAdjust="spacing" textLength="213" x="106" y="509.0537">requests to selects the skills needed</text><polygon fill="#181818" points="347,541.6074,357,545.6074,347,549.6074,351,545.6074" style="stroke:#181818;stroke-width:1.0;"/><line style="stroke:#181818;stroke-width:1.0;" x1="71" x2="353" y1="545.6074" y2="545.6074"/><text fill="#000000" font-family="sans-serif" font-size="13" font-weight="bold" lengthAdjust="spacing" textLength="14" x="78" y="540.3447">13</text><text fill="#000000" font-family="sans-serif" font-size="13" lengthAdjust="spacing" textLength="98" x="96" y="540.3447">selects the skills</text><polygon fill="#181818" points="564,602.8984,574,606.8984,564,610.8984,568,606.8984" style="stroke:#181818;stroke-width:1.0;"/><line style="stroke:#181818;stroke-width:1.0;" x1="369" x2="570" y1="606.8984" y2="606.8984"/><text fill="#000000" font-family="sans-serif" font-size="13" font-weight="bold" lengthAdjust="spacing" textLength="14" x="376" y="601.6357">14</text><text fill="#000000" font-family="sans-serif" font-size="13" lengthAdjust="spacing" textLength="123" x="394" y="601.6357">getCollaboratorsList()</text><polygon fill="#181818" points="1117.5,634.1895,1127.5,638.1895,1117.5,642.1895,1121.5,638.1895" style="stroke:#181818;stroke-width:1.0;"/><line style="stroke:#181818;stroke-width:1.0;" x1="586" x2="1123.5" y1="638.1895" y2="638.1895"/><text fill="#000000" font-family="sans-serif" font-size="13" font-weight="bold" lengthAdjust="spacing" textLength="14" x="593" y="632.9268">15</text><text fill="#000000" font-family="sans-serif" font-size="13" lengthAdjust="spacing" textLength="123" x="611" y="632.9268">getCollaboratorsList()</text><path d="M1029,653.1895 L1102,653.1895 L1102,662.4805 L1092,672.4805 L1029,672.4805 L1029,653.1895 " fill="#EEEEEE" style="stroke:#000000;stroke-width:1.5;"/><rect fill="none" height="272.3281" style="stroke:#000000;stroke-width:1.5;" width="748" x="1029" y="653.1895"/><text fill="#000000" font-family="sans-serif" font-size="13" font-weight="bold" lengthAdjust="spacing" textLength="28" x="1044" y="668.2178">loop</text><text fill="#000000" font-family="sans-serif" font-size="11" font-weight="bold" lengthAdjust="spacing" textLength="122" x="1117" y="667.0596">[for each collaborator]</text><polygon fill="#181818" points="1312.5,691.7715,1322.5,695.7715,1312.5,699.7715,1316.5,695.7715" style="stroke:#181818;stroke-width:1.0;"/><line style="stroke:#181818;stroke-width:1.0;" x1="1139.5" x2="1318.5" y1="695.7715" y2="695.7715"/><text fill="#000000" font-family="sans-serif" font-size="13" font-weight="bold" lengthAdjust="spacing" textLength="14" x="1146.5" y="690.5088">16</text><text fill="#000000" font-family="sans-serif" font-size="13" lengthAdjust="spacing" textLength="148" x="1164.5" y="690.5088">getCollaboratorSkillsList()</text><path d="M1266,710.7715 L1339,710.7715 L1339,720.0625 L1329,730.0625 L1266,730.0625 L1266,710.7715 " fill="#EEEEEE" style="stroke:#000000;stroke-width:1.5;"/><rect fill="none" height="81.873" style="stroke:#000000;stroke-width:1.5;" width="369" x="1266" y="710.7715"/><text fill="#000000" font-family="sans-serif" font-size="13" font-weight="bold" lengthAdjust="spacing" textLength="28" x="1281" y="725.7998">loop</text><text fill="#000000" font-family="sans-serif" font-size="11" font-weight="bold" lengthAdjust="spacing" textLength="188" x="1354" y="724.6416">[for each Skill of that Collaborator]</text><polygon fill="#181818" points="1492,749.3535,1502,753.3535,1492,757.3535,1496,753.3535" style="stroke:#181818;stroke-width:1.0;"/><line style="stroke:#181818;stroke-width:1.0;" x1="1334.5" x2="1498" y1="753.3535" y2="753.3535"/><text fill="#000000" font-family="sans-serif" font-size="13" font-weight="bold" lengthAdjust="spacing" textLength="14" x="1341.5" y="748.0908">17</text><text fill="#000000" font-family="sans-serif" font-size="13" lengthAdjust="spacing" textLength="126" x="1359.5" y="748.0908">e = equalsSkill(name)</text><polygon fill="#181818" points="1345.5,780.6445,1335.5,784.6445,1345.5,788.6445,1341.5,784.6445" style="stroke:#181818;stroke-width:1.0;"/><line style="stroke:#181818;stroke-width:1.0;stroke-dasharray:2.0,2.0;" x1="1339.5" x2="1508" y1="784.6445" y2="784.6445"/><text fill="#000000" font-family="sans-serif" font-size="13" font-weight="bold" lengthAdjust="spacing" textLength="14" x="1351.5" y="779.3818">18</text><text fill="#000000" font-family="sans-serif" font-size="13" lengthAdjust="spacing" textLength="53" x="1369.5" y="779.3818">true/false</text><polygon fill="#181818" points="1150.5,818.9355,1140.5,822.9355,1150.5,826.9355,1146.5,822.9355" style="stroke:#181818;stroke-width:1.0;"/><line style="stroke:#181818;stroke-width:1.0;stroke-dasharray:2.0,2.0;" x1="1144.5" x2="1328.5" y1="822.9355" y2="822.9355"/><text fill="#000000" font-family="sans-serif" font-size="13" font-weight="bold" lengthAdjust="spacing" textLength="14" x="1156.5" y="817.6729">19</text><text fill="#000000" font-family="sans-serif" font-size="13" lengthAdjust="spacing" textLength="53" x="1174.5" y="817.6729">true/false</text><path d="M1039,837.9355 L1104,837.9355 L1104,847.2266 L1094,857.2266 L1039,857.2266 L1039,837.9355 " fill="#EEEEEE" style="stroke:#000000;stroke-width:1.5;"/><rect fill="none" height="80.582" style="stroke:#000000;stroke-width:1.5;" width="728" x="1039" y="837.9355"/><text fill="#000000" font-family="sans-serif" font-size="13" font-weight="bold" lengthAdjust="spacing" textLength="20" x="1054" y="852.9639">opt</text><text fill="#000000" font-family="sans-serif" font-size="11" font-weight="bold" lengthAdjust="spacing" textLength="56" x="1119" y="851.8057">[e == true]</text><polygon fill="#181818" points="1679,876.5176,1689,880.5176,1679,884.5176,1683,880.5176" style="stroke:#181818;stroke-width:1.0;"/><line style="stroke:#181818;stroke-width:1.0;" x1="1139.5" x2="1685" y1="880.5176" y2="880.5176"/><text fill="#000000" font-family="sans-serif" font-size="13" font-weight="bold" lengthAdjust="spacing" textLength="14" x="1146.5" y="875.2549">20</text><text fill="#000000" font-family="sans-serif" font-size="13" lengthAdjust="spacing" textLength="168" x="1164.5" y="875.2549">addCollaborator(colllaborator)</text><polygon fill="#181818" points="597,951.8086,587,955.8086,597,959.8086,593,955.8086" style="stroke:#181818;stroke-width:1.0;"/><line style="stroke:#181818;stroke-width:1.0;stroke-dasharray:2.0,2.0;" x1="591" x2="1133.5" y1="955.8086" y2="955.8086"/><text fill="#000000" font-family="sans-serif" font-size="13" font-weight="bold" lengthAdjust="spacing" textLength="14" x="603" y="950.5459">21</text><text fill="#000000" font-family="sans-serif" font-size="13" lengthAdjust="spacing" textLength="4" x="621" y="950.5459">&#160;</text><polygon fill="#181818" points="380,983.0996,370,987.0996,380,991.0996,376,987.0996" style="stroke:#181818;stroke-width:1.0;"/><line style="stroke:#181818;stroke-width:1.0;stroke-dasharray:2.0,2.0;" x1="374" x2="580" y1="987.0996" y2="987.0996"/><text fill="#000000" font-family="sans-serif" font-size="13" font-weight="bold" lengthAdjust="spacing" textLength="14" x="386" y="981.8369">22</text><text fill="#000000" font-family="sans-serif" font-size="13" lengthAdjust="spacing" textLength="4" x="404" y="981.8369">&#160;</text><polygon fill="#181818" points="564,1014.3906,574,1018.3906,564,1022.3906,568,1018.3906" style="stroke:#181818;stroke-width:1.0;"/><line style="stroke:#181818;stroke-width:1.0;" x1="369" x2="570" y1="1018.3906" y2="1018.3906"/><text fill="#000000" font-family="sans-serif" font-size="13" font-weight="bold" lengthAdjust="spacing" textLength="14" x="376" y="1013.1279">23</text><text fill="#000000" font-family="sans-serif" font-size="13" lengthAdjust="spacing" textLength="58" x="394" y="1013.1279">getTeam()</text><polygon fill="#181818" points="1679,1045.6816,1689,1049.6816,1679,1053.6816,1683,1049.6816" style="stroke:#181818;stroke-width:1.0;"/><line style="stroke:#181818;stroke-width:1.0;" x1="586" x2="1685" y1="1049.6816" y2="1049.6816"/><text fill="#000000" font-family="sans-serif" font-size="13" font-weight="bold" lengthAdjust="spacing" textLength="14" x="593" y="1044.4189">24</text><text fill="#000000" font-family="sans-serif" font-size="13" lengthAdjust="spacing" textLength="58" x="611" y="1044.4189">getTeam()</text><polygon fill="#181818" points="597,1076.9727,587,1080.9727,597,1084.9727,593,1080.9727" style="stroke:#181818;stroke-width:1.0;"/><line style="stroke:#181818;stroke-width:1.0;stroke-dasharray:2.0,2.0;" x1="591" x2="1695" y1="1080.9727" y2="1080.9727"/><text fill="#000000" font-family="sans-serif" font-size="13" font-weight="bold" lengthAdjust="spacing" textLength="14" x="603" y="1075.71">25</text><text fill="#000000" font-family="sans-serif" font-size="13" lengthAdjust="spacing" textLength="29" x="621" y="1075.71">team</text><polygon fill="#181818" points="380,1108.2637,370,1112.2637,380,1116.2637,376,1112.2637" style="stroke:#181818;stroke-width:1.0;"/><line style="stroke:#181818;stroke-width:1.0;stroke-dasharray:2.0,2.0;" x1="374" x2="580" y1="1112.2637" y2="1112.2637"/><text fill="#000000" font-family="sans-serif" font-size="13" font-weight="bold" lengthAdjust="spacing" textLength="14" x="386" y="1107.001">26</text><text fill="#000000" font-family="sans-serif" font-size="13" lengthAdjust="spacing" textLength="29" x="404" y="1107.001">team</text><polygon fill="#181818" points="82,1139.5547,72,1143.5547,82,1147.5547,78,1143.5547" style="stroke:#181818;stroke-width:1.0;"/><line style="stroke:#181818;stroke-width:1.0;stroke-dasharray:2.0,2.0;" x1="76" x2="363" y1="1143.5547" y2="1143.5547"/><text fill="#000000" font-family="sans-serif" font-size="13" font-weight="bold" lengthAdjust="spacing" textLength="14" x="88" y="1138.292">27</text><text fill="#000000" font-family="sans-serif" font-size="13" lengthAdjust="spacing" textLength="216" x="106" y="1138.292">shows and aks to confirm all the data</text><polygon fill="#181818" points="347,1170.8457,357,1174.8457,347,1178.8457,351,1174.8457" style="stroke:#181818;stroke-width:1.0;"/><line style="stroke:#181818;stroke-width:1.0;" x1="71" x2="353" y1="1174.8457" y2="1174.8457"/><text fill="#000000" font-family="sans-serif" font-size="13" font-weight="bold" lengthAdjust="spacing" textLength="14" x="78" y="1169.583">28</text><text fill="#000000" font-family="sans-serif" font-size="13" lengthAdjust="spacing" textLength="117" x="96" y="1169.583">confirms all the data</text><polygon fill="#181818" points="82,1202.1367,72,1206.1367,82,1210.1367,78,1206.1367" style="stroke:#181818;stroke-width:1.0;"/><line style="stroke:#181818;stroke-width:1.0;stroke-dasharray:2.0,2.0;" x1="76" x2="363" y1="1206.1367" y2="1206.1367"/><text fill="#000000" font-family="sans-serif" font-size="13" font-weight="bold" lengthAdjust="spacing" textLength="14" x="88" y="1200.874">29</text><text fill="#000000" font-family="sans-serif" font-size="13" lengthAdjust="spacing" textLength="158" x="106" y="1200.874">displays operation success</text><!--SRC=[bLR1JkCm4BtxAqQSu52jk5Q0jEAm884MjN3hnIJJncfYPsrdsVxzZfqqjMC7IW-89FFUF8_VZ6tsGhPSymOQ9LLHQTKWMDqXC-ENbXTxliErFTG86WlBvQuE0qp5I_KXv0wsl3R862-iqd3nq3LSmWgDwdI1PYEVkIGYVG7SmCFgcH7SYaAqN5guMFv2YPfRV4NUl6ZLAiFhjqSV_FPuHkozabQhkXuItB-kdYQe5LAW86q2ZOyPNnpMmYtAAXb3T83Oo9JWvUddQuoGl46ANEz5NPiJlu-UlimYxsa9_5tHwfIU4inyYtd2eEL6FWbZRtpcE-Fp9qozh6zLEAA5ddUDDPa3Iy_lFl_UhgCFSGPBnBHSnpzPPVoAxDJHldJDEsguzkOIVqcOTn2ZFx2u8uF0ag1x0rR1Rf0E75mIQ0Vv3EWtmibJZ60BGZkI9LdxJuV66lYeH5618AuAeH5ID5q3N9OR2Gt_vvy6EMhRPoZ2VM4bHaaYZVRGOaASqbAg375M_vrt-f9MRVjokz9VNWM5yftWmUu_XyZu7Zp3epJKtWKIVeJdceJb61QZbh1jmd9agK9XhfyWMCi942hoNSTyx2bdqbn1tXuG9ff6Grh04PqmimHzb44qPkG85QGSlPAZB_AeVkVoBYMZ6zzOlPrw0f289NNQr8DkwQ4DKoIBuhCQ0gT5W-WCmyqCBfWbEt7DZ3nFNolLmfRE6f9RHStYFnz_SzadmlezIZL5hZXoPWKEapHA7clq4NvkLDn6s0YKKpx88z6vuKgo4Mw1t45diFzqwGwKguHs59uTqUmC1JUBnPm4TtNuqTy2faI1fRAPmrYKf-UvpNCgihkNqH3Q-PFjKgrrHRpjRq3dMYW-hjmvL9PX-ANpvVWKRyWeQtBcpHHkUZA6zVhEOdtyx9AEZSvccA8sZEVObuF3hU2BMP7KymIRBSG44unZTuooJqeOZ-5fT6O0cqfz67zgy_wwKIYv5PeEScfiDqzBRlbq_eQpTuWtCM3-Nb8AqzRyOCYUxbeZwAGrNK4NwkIcyHy0]--></g></svg>