<?xml version="1.0" encoding="UTF-8" standalone="no"?><svg xmlns="http://www.w3.org/2000/svg" xmlns:xlink="http://www.w3.org/1999/xlink" contentStyleType="text/css" height="3359px" preserveAspectRatio="none" style="width:1479px;height:3359px;background:#FFFFFF;" version="1.1" viewBox="0 0 1479 3359" width="1479px" zoomAndPan="magnify"><defs/><g><!--class GenerateTeamProposalUI--><g id="elem_GenerateTeamProposalUI"><rect codeLine="8" fill="#F1F1F1" height="53.24" id="GenerateTeamProposalUI" rx="2.5" ry="2.5" style="stroke:#181818;stroke-width:0.5;" width="276" x="7" y="88.72"/><ellipse cx="23" cy="107.34" fill="#ADD1B2" rx="12" ry="12" style="stroke:#181818;stroke-width:1.0;"/><path d="M22.5156,114.5431 Q20.4531,114.5431 19.125,113.6681 Q17.7969,112.7931 17.1406,111.215 Q16.5,109.6212 16.5,107.4962 Q16.5,105.1212 17.2656,103.4181 Q18.0469,101.6994 19.5469,100.7775 Q21.0625,99.8556 23.2656,99.8556 Q24.2969,99.8556 25.0781,100.0744 Q25.875,100.2775 26.7031,100.6837 L25.7344,103.0587 Q25,102.6837 24.3594,102.5431 Q23.7344,102.4025 23.1563,102.4025 Q21.7813,102.4025 20.9531,103.0275 Q20.1406,103.6369 19.7813,104.7619 Q19.4375,105.8869 19.4375,107.3869 Q19.4375,109.7462 20.2813,110.8712 Q21.125,111.9962 23,111.9962 Q23.7031,111.9962 24.4219,111.8244 Q25.1563,111.6369 26.1406,111.1994 L26.1406,113.7931 Q25.2813,114.1837 24.3438,114.3556 Q23.4219,114.5431 22.5156,114.5431 Z " fill="#000000"/><text fill="#000000" font-family="sans-serif" font-size="20" lengthAdjust="spacing" textLength="242" x="38" y="115.1">GenerateTeamProposalUI</text><line style="stroke:#181818;stroke-width:0.5;" x1="8" x2="282" y1="125.96" y2="125.96"/><line style="stroke:#181818;stroke-width:0.5;" x1="8" x2="282" y1="133.96" y2="133.96"/></g><!--class GenerateTeamProposalController--><g id="elem_GenerateTeamProposalController"><rect codeLine="11" fill="#F1F1F1" height="216.6798" id="GenerateTeamProposalController" rx="2.5" ry="2.5" style="stroke:#181818;stroke-width:0.5;" width="890" x="318" y="7"/><ellipse cx="602" cy="25.62" fill="#ADD1B2" rx="12" ry="12" style="stroke:#181818;stroke-width:1.0;"/><path d="M601.5156,32.8231 Q599.4531,32.8231 598.125,31.9481 Q596.7969,31.0731 596.1406,29.495 Q595.5,27.9012 595.5,25.7762 Q595.5,23.4012 596.2656,21.6981 Q597.0469,19.9794 598.5469,19.0575 Q600.0625,18.1356 602.2656,18.1356 Q603.2969,18.1356 604.0781,18.3544 Q604.875,18.5575 605.7031,18.9637 L604.7344,21.3387 Q604,20.9637 603.3594,20.8231 Q602.7344,20.6825 602.1563,20.6825 Q600.7813,20.6825 599.9531,21.3075 Q599.1406,21.9169 598.7813,23.0419 Q598.4375,24.1669 598.4375,25.6669 Q598.4375,28.0262 599.2813,29.1512 Q600.125,30.2762 602,30.2762 Q602.7031,30.2762 603.4219,30.1044 Q604.1563,29.9169 605.1406,29.4794 L605.1406,32.0731 Q604.2813,32.4637 603.3438,32.6356 Q602.4219,32.8231 601.5156,32.8231 Z " fill="#000000"/><text fill="#000000" font-family="sans-serif" font-size="20" lengthAdjust="spacing" textLength="313" x="624" y="33.38">GenerateTeamProposalController</text><line style="stroke:#181818;stroke-width:0.5;" x1="319" x2="1207" y1="44.24" y2="44.24"/><text fill="#000000" font-family="sans-serif" font-size="20" lengthAdjust="spacing" textLength="226" x="324" y="69.62">-List&lt;Skill&gt; skillsSelected</text><line style="stroke:#181818;stroke-width:0.5;" x1="319" x2="1207" y1="79.4799" y2="79.4799"/><text fill="#000000" font-family="sans-serif" font-size="20" lengthAdjust="spacing" textLength="878" x="324" y="104.8599">+GenerateTeamProposalController(SkillsRepository, CollaboratorsRepository, TeamRepository)</text><text fill="#000000" font-family="sans-serif" font-size="20" lengthAdjust="spacing" textLength="132" x="324" y="132.0999">+getSkillsList()</text><text fill="#000000" font-family="sans-serif" font-size="20" lengthAdjust="spacing" textLength="211" x="324" y="159.3399">+getCollaboratorsList()</text><text fill="#000000" font-family="sans-serif" font-size="20" lengthAdjust="spacing" textLength="248" x="324" y="186.5799">+getCollaboratorSkillsList()</text><text fill="#000000" font-family="sans-serif" font-size="20" lengthAdjust="spacing" textLength="105" x="324" y="213.8198">+getTeam()</text></g><!--class Collaborator--><g id="elem_Collaborator"><rect codeLine="20" fill="#F1F1F1" height="1033.8791" id="Collaborator" rx="2.5" ry="2.5" style="stroke:#181818;stroke-width:0.5;" width="836" x="241" y="1519.12"/><ellipse cx="596.5" cy="1537.74" fill="#ADD1B2" rx="12" ry="12" style="stroke:#181818;stroke-width:1.0;"/><path d="M596.0156,1544.9431 Q593.9531,1544.9431 592.625,1544.0681 Q591.2969,1543.1931 590.6406,1541.615 Q590,1540.0212 590,1537.8962 Q590,1535.5212 590.7656,1533.8181 Q591.5469,1532.0994 593.0469,1531.1775 Q594.5625,1530.2556 596.7656,1530.2556 Q597.7969,1530.2556 598.5781,1530.4744 Q599.375,1530.6775 600.2031,1531.0837 L599.2344,1533.4587 Q598.5,1533.0837 597.8594,1532.9431 Q597.2344,1532.8025 596.6563,1532.8025 Q595.2813,1532.8025 594.4531,1533.4275 Q593.6406,1534.0369 593.2813,1535.1619 Q592.9375,1536.2869 592.9375,1537.7869 Q592.9375,1540.1462 593.7813,1541.2712 Q594.625,1542.3962 596.5,1542.3962 Q597.2031,1542.3962 597.9219,1542.2244 Q598.6563,1542.0369 599.6406,1541.5994 L599.6406,1544.1931 Q598.7813,1544.5837 597.8438,1544.7556 Q596.9219,1544.9431 596.0156,1544.9431 Z " fill="#000000"/><text fill="#000000" font-family="sans-serif" font-size="20" lengthAdjust="spacing" textLength="116" x="618.5" y="1545.5">Collaborator</text><line style="stroke:#181818;stroke-width:0.5;" x1="242" x2="1076" y1="1556.36" y2="1556.36"/><text fill="#000000" font-family="sans-serif" font-size="20" lengthAdjust="spacing" textLength="119" x="247" y="1581.74">-String name</text><text fill="#000000" font-family="sans-serif" font-size="20" lengthAdjust="spacing" textLength="143" x="247" y="1608.9799">-Date bornDate</text><text fill="#000000" font-family="sans-serif" font-size="20" lengthAdjust="spacing" textLength="141" x="247" y="1636.2199">-Date admDate</text><text fill="#000000" font-family="sans-serif" font-size="20" lengthAdjust="spacing" textLength="171" x="247" y="1663.4599">-int phoneNumber</text><text fill="#000000" font-family="sans-serif" font-size="20" lengthAdjust="spacing" textLength="117" x="247" y="1690.6999">-String email</text><text fill="#000000" font-family="sans-serif" font-size="20" lengthAdjust="spacing" textLength="96" x="247" y="1717.9398">-int idCard</text><text fill="#000000" font-family="sans-serif" font-size="20" lengthAdjust="spacing" textLength="129" x="247" y="1745.1798">-int idNumber</text><text fill="#000000" font-family="sans-serif" font-size="20" lengthAdjust="spacing" textLength="148" x="247" y="1772.4198">-List&lt;Skill&gt; skills</text><text fill="#000000" font-family="sans-serif" font-size="20" lengthAdjust="spacing" textLength="137" x="247" y="1799.6598">+getIdNumber</text><line style="stroke:#181818;stroke-width:0.5;" x1="242" x2="1076" y1="1809.5197" y2="1809.5197"/><text fill="#000000" font-family="sans-serif" font-size="20" lengthAdjust="spacing" textLength="768" x="247" y="1834.8997">+Collaborator(name, bornDate, admDate, phoneNumber, email, idCard, idNumber)</text><text fill="#000000" font-family="sans-serif" font-size="20" lengthAdjust="spacing" textLength="824" x="247" y="1862.1397">+Collaborator(name, bornDate, admDate, phoneNumber, email, idCard, idNumber, skills)</text><text fill="#000000" font-family="sans-serif" font-size="20" lengthAdjust="spacing" textLength="190" x="247" y="1889.3797">+Collaborator(email)</text><text fill="#000000" font-family="sans-serif" font-size="20" lengthAdjust="spacing" textLength="109" x="247" y="1916.6197">+getName()</text><text fill="#000000" font-family="sans-serif" font-size="20" lengthAdjust="spacing" textLength="160" x="247" y="1943.8596">+setName(name)</text><text fill="#000000" font-family="sans-serif" font-size="20" lengthAdjust="spacing" textLength="142" x="247" y="1971.0996">+getBornDate()</text><text fill="#000000" font-family="sans-serif" font-size="20" lengthAdjust="spacing" textLength="228" x="247" y="1998.3396">+setBornDate(bornDate)</text><text fill="#000000" font-family="sans-serif" font-size="20" lengthAdjust="spacing" textLength="141" x="247" y="2025.5796">+getAdmDate()</text><text fill="#000000" font-family="sans-serif" font-size="20" lengthAdjust="spacing" textLength="225" x="247" y="2052.8195">+setAdmDate(admDate)</text><text fill="#000000" font-family="sans-serif" font-size="20" lengthAdjust="spacing" textLength="129" x="247" y="2080.0595">+getAddress()</text><text fill="#000000" font-family="sans-serif" font-size="20" lengthAdjust="spacing" textLength="201" x="247" y="2107.2995">+setAddress(address)</text><text fill="#000000" font-family="sans-serif" font-size="20" lengthAdjust="spacing" textLength="189" x="247" y="2134.5395">+getPhoneNumber()</text><text fill="#000000" font-family="sans-serif" font-size="20" lengthAdjust="spacing" textLength="323" x="247" y="2161.7794">+setPhoneNumber(phoneNumber)</text><text fill="#000000" font-family="sans-serif" font-size="20" lengthAdjust="spacing" textLength="104" x="247" y="2189.0194">+getEmail()</text><text fill="#000000" font-family="sans-serif" font-size="20" lengthAdjust="spacing" textLength="153" x="247" y="2216.2594">+setEmail(email)</text><text fill="#000000" font-family="sans-serif" font-size="20" lengthAdjust="spacing" textLength="116" x="247" y="2243.4994">+getIdCard()</text><text fill="#000000" font-family="sans-serif" font-size="20" lengthAdjust="spacing" textLength="175" x="247" y="2270.7393">+setIdCard(idCard)</text><text fill="#000000" font-family="sans-serif" font-size="20" lengthAdjust="spacing" textLength="241" x="247" y="2297.9793">+setIdNumber(idNumber)</text><text fill="#000000" font-family="sans-serif" font-size="20" lengthAdjust="spacing" textLength="100" x="247" y="2325.2193">+getSkills()</text><text fill="#000000" font-family="sans-serif" font-size="20" lengthAdjust="spacing" textLength="144" x="247" y="2352.4593">+setSkills(skills)</text><text fill="#000000" font-family="sans-serif" font-size="20" lengthAdjust="spacing" textLength="84" x="247" y="2379.6992">+equals()</text><text fill="#000000" font-family="sans-serif" font-size="20" lengthAdjust="spacing" textLength="97" x="247" y="2406.9392">+toString()</text><text fill="#000000" font-family="sans-serif" font-size="20" lengthAdjust="spacing" textLength="116" x="247" y="2434.1792">+hashCode()</text><text fill="#000000" font-family="sans-serif" font-size="20" lengthAdjust="spacing" textLength="158" x="247" y="2461.4192">+hasEmail(email)</text><text fill="#000000" font-family="sans-serif" font-size="20" lengthAdjust="spacing" textLength="73" x="247" y="2488.6591">+clone()</text><text fill="#000000" font-family="sans-serif" font-size="20" lengthAdjust="spacing" textLength="175" x="247" y="2515.8991">+void addSkill(skill)</text><text fill="#000000" font-family="sans-serif" font-size="20" lengthAdjust="spacing" textLength="211" x="247" y="2543.1391">+void removeSkill(skill)</text></g><!--class Repositories--><g id="elem_Repositories"><rect codeLine="59" fill="#F1F1F1" height="189.4398" id="Repositories" rx="2.5" ry="2.5" style="stroke:#181818;stroke-width:0.5;" width="290" x="618" y="312.68"/><ellipse cx="701" cy="331.3" fill="#ADD1B2" rx="12" ry="12" style="stroke:#181818;stroke-width:1.0;"/><path d="M700.5156,338.5031 Q698.4531,338.5031 697.125,337.6281 Q695.7969,336.7531 695.1406,335.175 Q694.5,333.5812 694.5,331.4562 Q694.5,329.0812 695.2656,327.3781 Q696.0469,325.6594 697.5469,324.7375 Q699.0625,323.8156 701.2656,323.8156 Q702.2969,323.8156 703.0781,324.0344 Q703.875,324.2375 704.7031,324.6437 L703.7344,327.0187 Q703,326.6437 702.3594,326.5031 Q701.7344,326.3625 701.1563,326.3625 Q699.7813,326.3625 698.9531,326.9875 Q698.1406,327.5969 697.7813,328.7219 Q697.4375,329.8469 697.4375,331.3469 Q697.4375,333.7062 698.2813,334.8312 Q699.125,335.9562 701,335.9562 Q701.7031,335.9562 702.4219,335.7844 Q703.1563,335.5969 704.1406,335.1594 L704.1406,337.7531 Q703.2813,338.1437 702.3438,338.3156 Q701.4219,338.5031 700.5156,338.5031 Z " fill="#000000"/><text fill="#000000" font-family="sans-serif" font-size="20" lengthAdjust="spacing" textLength="115" x="723" y="339.06">Repositories</text><line style="stroke:#181818;stroke-width:0.5;" x1="619" x2="907" y1="349.92" y2="349.92"/><line style="stroke:#181818;stroke-width:0.5;" x1="619" x2="907" y1="357.92" y2="357.92"/><text fill="#000000" font-family="sans-serif" font-size="20" lengthAdjust="spacing" textLength="133" x="624" y="383.3">-Repositories()</text><text fill="#000000" font-family="sans-serif" font-size="20" lengthAdjust="spacing" textLength="263" x="624" y="410.5399">+getInstance() : Repositories</text><text fill="#000000" font-family="sans-serif" font-size="20" lengthAdjust="spacing" textLength="199" x="624" y="437.7799">+getSkillsRepository()</text><text fill="#000000" font-family="sans-serif" font-size="20" lengthAdjust="spacing" textLength="278" x="624" y="465.0199">+getCollaboratorsRepository()</text><text fill="#000000" font-family="sans-serif" font-size="20" lengthAdjust="spacing" textLength="204" x="624" y="492.2599">+getTeamRepository()</text></g><!--class CollaboratorsRepository--><g id="elem_CollaboratorsRepository"><rect codeLine="67" fill="#F1F1F1" height="189.4398" id="CollaboratorsRepository" rx="2.5" ry="2.5" style="stroke:#181818;stroke-width:0.5;" width="415" x="982.5" y="1065.12"/><ellipse cx="1073" cy="1083.74" fill="#ADD1B2" rx="12" ry="12" style="stroke:#181818;stroke-width:1.0;"/><path d="M1072.5156,1090.9431 Q1070.4531,1090.9431 1069.125,1090.0681 Q1067.7969,1089.1931 1067.1406,1087.615 Q1066.5,1086.0212 1066.5,1083.8962 Q1066.5,1081.5212 1067.2656,1079.8181 Q1068.0469,1078.0994 1069.5469,1077.1775 Q1071.0625,1076.2556 1073.2656,1076.2556 Q1074.2969,1076.2556 1075.0781,1076.4744 Q1075.875,1076.6775 1076.7031,1077.0837 L1075.7344,1079.4587 Q1075,1079.0837 1074.3594,1078.9431 Q1073.7344,1078.8025 1073.1563,1078.8025 Q1071.7813,1078.8025 1070.9531,1079.4275 Q1070.1406,1080.0369 1069.7813,1081.1619 Q1069.4375,1082.2869 1069.4375,1083.7869 Q1069.4375,1086.1462 1070.2813,1087.2712 Q1071.125,1088.3962 1073,1088.3962 Q1073.7031,1088.3962 1074.4219,1088.2244 Q1075.1563,1088.0369 1076.1406,1087.5994 L1076.1406,1090.1931 Q1075.2813,1090.5837 1074.3438,1090.7556 Q1073.4219,1090.9431 1072.5156,1090.9431 Z " fill="#000000"/><text fill="#000000" font-family="sans-serif" font-size="20" lengthAdjust="spacing" textLength="225" x="1095" y="1091.5">CollaboratorsRepository</text><line style="stroke:#181818;stroke-width:0.5;" x1="983.5" x2="1396.5" y1="1102.36" y2="1102.36"/><text fill="#000000" font-family="sans-serif" font-size="20" lengthAdjust="spacing" textLength="336" x="988.5" y="1127.74">-List&lt;Collaborator&gt; collaboratorsList</text><line style="stroke:#181818;stroke-width:0.5;" x1="983.5" x2="1396.5" y1="1137.5999" y2="1137.5999"/><text fill="#000000" font-family="sans-serif" font-size="20" lengthAdjust="spacing" textLength="403" x="988.5" y="1162.9799">+CollaboratorsRepository(collaboratorsList)</text><text fill="#000000" font-family="sans-serif" font-size="20" lengthAdjust="spacing" textLength="394" x="988.5" y="1190.2199">+Optional&lt;Collaborator&gt; add(collaborator)</text><text fill="#000000" font-family="sans-serif" font-size="20" lengthAdjust="spacing" textLength="319" x="988.5" y="1217.4599">-validateCollaborator(collaborator)</text><text fill="#000000" font-family="sans-serif" font-size="20" lengthAdjust="spacing" textLength="211" x="988.5" y="1244.6999">+getCollaboratorsList()</text></g><!--class SkillsRepository--><g id="elem_SkillsRepository"><rect codeLine="75" fill="#F1F1F1" height="189.4398" id="SkillsRepository" rx="2.5" ry="2.5" style="stroke:#181818;stroke-width:0.5;" width="250" x="958" y="611.12"/><ellipse cx="1005.5" cy="629.74" fill="#ADD1B2" rx="12" ry="12" style="stroke:#181818;stroke-width:1.0;"/><path d="M1005.0156,636.9431 Q1002.9531,636.9431 1001.625,636.0681 Q1000.2969,635.1931 999.6406,633.615 Q999,632.0212 999,629.8962 Q999,627.5212 999.7656,625.8181 Q1000.5469,624.0994 1002.0469,623.1775 Q1003.5625,622.2556 1005.7656,622.2556 Q1006.7969,622.2556 1007.5781,622.4744 Q1008.375,622.6775 1009.2031,623.0837 L1008.2344,625.4587 Q1007.5,625.0837 1006.8594,624.9431 Q1006.2344,624.8025 1005.6563,624.8025 Q1004.2813,624.8025 1003.4531,625.4275 Q1002.6406,626.0369 1002.2813,627.1619 Q1001.9375,628.2869 1001.9375,629.7869 Q1001.9375,632.1462 1002.7813,633.2712 Q1003.625,634.3962 1005.5,634.3962 Q1006.2031,634.3962 1006.9219,634.2244 Q1007.6563,634.0369 1008.6406,633.5994 L1008.6406,636.1931 Q1007.7813,636.5837 1006.8438,636.7556 Q1005.9219,636.9431 1005.0156,636.9431 Z " fill="#000000"/><text fill="#000000" font-family="sans-serif" font-size="20" lengthAdjust="spacing" textLength="146" x="1027.5" y="637.5">SkillsRepository</text><line style="stroke:#181818;stroke-width:0.5;" x1="959" x2="1207" y1="648.36" y2="648.36"/><text fill="#000000" font-family="sans-serif" font-size="20" lengthAdjust="spacing" textLength="180" x="964" y="673.74">-List&lt;Skill&gt; skillsList</text><line style="stroke:#181818;stroke-width:0.5;" x1="959" x2="1207" y1="683.5999" y2="683.5999"/><text fill="#000000" font-family="sans-serif" font-size="20" lengthAdjust="spacing" textLength="169" x="964" y="708.9799">+SkillsRepository()</text><text fill="#000000" font-family="sans-serif" font-size="20" lengthAdjust="spacing" textLength="238" x="964" y="736.2199">+Optional&lt;Skill&gt; add(skill)</text><text fill="#000000" font-family="sans-serif" font-size="20" lengthAdjust="spacing" textLength="163" x="964" y="763.4599">-validateSkill(skill)</text><text fill="#000000" font-family="sans-serif" font-size="20" lengthAdjust="spacing" textLength="132" x="964" y="790.6999">+getSkillsList()</text></g><!--class Address--><g id="elem_Address"><rect codeLine="83" fill="#F1F1F1" height="271.1598" id="Address" rx="2.5" ry="2.5" style="stroke:#181818;stroke-width:0.5;" width="316" x="501" y="2681.12"/><ellipse cx="616.5" cy="2699.74" fill="#ADD1B2" rx="12" ry="12" style="stroke:#181818;stroke-width:1.0;"/><path d="M616.0156,2706.9431 Q613.9531,2706.9431 612.625,2706.0681 Q611.2969,2705.1931 610.6406,2703.615 Q610,2702.0212 610,2699.8962 Q610,2697.5212 610.7656,2695.8181 Q611.5469,2694.0994 613.0469,2693.1775 Q614.5625,2692.2556 616.7656,2692.2556 Q617.7969,2692.2556 618.5781,2692.4744 Q619.375,2692.6775 620.2031,2693.0837 L619.2344,2695.4587 Q618.5,2695.0837 617.8594,2694.9431 Q617.2344,2694.8025 616.6563,2694.8025 Q615.2813,2694.8025 614.4531,2695.4275 Q613.6406,2696.0369 613.2813,2697.1619 Q612.9375,2698.2869 612.9375,2699.7869 Q612.9375,2702.1462 613.7813,2703.2712 Q614.625,2704.3962 616.5,2704.3962 Q617.2031,2704.3962 617.9219,2704.2244 Q618.6563,2704.0369 619.6406,2703.5994 L619.6406,2706.1931 Q618.7813,2706.5837 617.8438,2706.7556 Q616.9219,2706.9431 616.0156,2706.9431 Z " fill="#000000"/><text fill="#000000" font-family="sans-serif" font-size="20" lengthAdjust="spacing" textLength="76" x="638.5" y="2707.5">Address</text><line style="stroke:#181818;stroke-width:0.5;" x1="502" x2="816" y1="2718.36" y2="2718.36"/><text fill="#000000" font-family="sans-serif" font-size="20" lengthAdjust="spacing" textLength="156" x="507" y="2743.74">-int doorNumber</text><text fill="#000000" font-family="sans-serif" font-size="20" lengthAdjust="spacing" textLength="161" x="507" y="2770.9799">-ZipCode zipCode</text><line style="stroke:#181818;stroke-width:0.5;" x1="502" x2="816" y1="2780.8399" y2="2780.8399"/><text fill="#000000" font-family="sans-serif" font-size="20" lengthAdjust="spacing" textLength="304" x="507" y="2806.2199">+Address(doorNumber, zipCode)</text><text fill="#000000" font-family="sans-serif" font-size="20" lengthAdjust="spacing" textLength="173" x="507" y="2833.4599">+Address(address)</text><text fill="#000000" font-family="sans-serif" font-size="20" lengthAdjust="spacing" textLength="177" x="507" y="2860.6999">+getDoorNumber()</text><text fill="#000000" font-family="sans-serif" font-size="20" lengthAdjust="spacing" textLength="175" x="507" y="2887.9398">+setDoorNumber()</text><text fill="#000000" font-family="sans-serif" font-size="20" lengthAdjust="spacing" textLength="129" x="507" y="2915.1798">+getZipCode()</text><text fill="#000000" font-family="sans-serif" font-size="20" lengthAdjust="spacing" textLength="127" x="507" y="2942.4198">+setZipCode()</text></g><!--class ZipCode--><g id="elem_ZipCode"><rect codeLine="94" fill="#F1F1F1" height="271.1598" id="ZipCode" rx="2.5" ry="2.5" style="stroke:#181818;stroke-width:0.5;" width="218" x="550" y="3081.12"/><ellipse cx="616.5" cy="3099.74" fill="#ADD1B2" rx="12" ry="12" style="stroke:#181818;stroke-width:1.0;"/><path d="M616.0156,3106.9431 Q613.9531,3106.9431 612.625,3106.0681 Q611.2969,3105.1931 610.6406,3103.615 Q610,3102.0212 610,3099.8962 Q610,3097.5212 610.7656,3095.8181 Q611.5469,3094.0994 613.0469,3093.1775 Q614.5625,3092.2556 616.7656,3092.2556 Q617.7969,3092.2556 618.5781,3092.4744 Q619.375,3092.6775 620.2031,3093.0837 L619.2344,3095.4587 Q618.5,3095.0837 617.8594,3094.9431 Q617.2344,3094.8025 616.6563,3094.8025 Q615.2813,3094.8025 614.4531,3095.4275 Q613.6406,3096.0369 613.2813,3097.1619 Q612.9375,3098.2869 612.9375,3099.7869 Q612.9375,3102.1462 613.7813,3103.2712 Q614.625,3104.3962 616.5,3104.3962 Q617.2031,3104.3962 617.9219,3104.2244 Q618.6563,3104.0369 619.6406,3103.5994 L619.6406,3106.1931 Q618.7813,3106.5837 617.8438,3106.7556 Q616.9219,3106.9431 616.0156,3106.9431 Z " fill="#000000"/><text fill="#000000" font-family="sans-serif" font-size="20" lengthAdjust="spacing" textLength="76" x="638.5" y="3107.5">ZipCode</text><line style="stroke:#181818;stroke-width:0.5;" x1="551" x2="767" y1="3118.36" y2="3118.36"/><text fill="#000000" font-family="sans-serif" font-size="20" lengthAdjust="spacing" textLength="78" x="556" y="3143.74">-int local</text><text fill="#000000" font-family="sans-serif" font-size="20" lengthAdjust="spacing" textLength="89" x="556" y="3170.9799">-int street</text><line style="stroke:#181818;stroke-width:0.5;" x1="551" x2="767" y1="3180.8399" y2="3180.8399"/><text fill="#000000" font-family="sans-serif" font-size="20" lengthAdjust="spacing" textLength="206" x="556" y="3206.2199">+ZipCode(local, street)</text><text fill="#000000" font-family="sans-serif" font-size="20" lengthAdjust="spacing" textLength="173" x="556" y="3233.4599">+ZipCode(zipCode)</text><text fill="#000000" font-family="sans-serif" font-size="20" lengthAdjust="spacing" textLength="101" x="556" y="3260.6999">+getLocal()</text><text fill="#000000" font-family="sans-serif" font-size="20" lengthAdjust="spacing" textLength="99" x="556" y="3287.9398">+setLocal()</text><text fill="#000000" font-family="sans-serif" font-size="20" lengthAdjust="spacing" textLength="108" x="556" y="3315.1798">+getStreet()</text><text fill="#000000" font-family="sans-serif" font-size="20" lengthAdjust="spacing" textLength="106" x="556" y="3342.4198">+setStreet()</text></g><!--class TeamRepository--><g id="elem_TeamRepository"><rect codeLine="105" fill="#F1F1F1" height="189.4398" id="TeamRepository" rx="2.5" ry="2.5" style="stroke:#181818;stroke-width:0.5;" width="277" x="520.5" y="611.12"/><ellipse cx="579" cy="629.74" fill="#ADD1B2" rx="12" ry="12" style="stroke:#181818;stroke-width:1.0;"/><path d="M578.5156,636.9431 Q576.4531,636.9431 575.125,636.0681 Q573.7969,635.1931 573.1406,633.615 Q572.5,632.0212 572.5,629.8962 Q572.5,627.5212 573.2656,625.8181 Q574.0469,624.0994 575.5469,623.1775 Q577.0625,622.2556 579.2656,622.2556 Q580.2969,622.2556 581.0781,622.4744 Q581.875,622.6775 582.7031,623.0837 L581.7344,625.4587 Q581,625.0837 580.3594,624.9431 Q579.7344,624.8025 579.1563,624.8025 Q577.7813,624.8025 576.9531,625.4275 Q576.1406,626.0369 575.7813,627.1619 Q575.4375,628.2869 575.4375,629.7869 Q575.4375,632.1462 576.2813,633.2712 Q577.125,634.3962 579,634.3962 Q579.7031,634.3962 580.4219,634.2244 Q581.1563,634.0369 582.1406,633.5994 L582.1406,636.1931 Q581.2813,636.5837 580.3438,636.7556 Q579.4219,636.9431 578.5156,636.9431 Z " fill="#000000"/><text fill="#000000" font-family="sans-serif" font-size="20" lengthAdjust="spacing" textLength="151" x="601" y="637.5">TeamRepository</text><line style="stroke:#181818;stroke-width:0.5;" x1="521.5" x2="796.5" y1="648.36" y2="648.36"/><text fill="#000000" font-family="sans-serif" font-size="20" lengthAdjust="spacing" textLength="207" x="526.5" y="673.74">-List&lt;Team&gt; teamsList</text><line style="stroke:#181818;stroke-width:0.5;" x1="521.5" x2="796.5" y1="683.5999" y2="683.5999"/><text fill="#000000" font-family="sans-serif" font-size="20" lengthAdjust="spacing" textLength="174" x="526.5" y="708.9799">+TeamRepository()</text><text fill="#000000" font-family="sans-serif" font-size="20" lengthAdjust="spacing" textLength="265" x="526.5" y="736.2199">+Optional&lt;Team&gt; add(team)</text><text fill="#000000" font-family="sans-serif" font-size="20" lengthAdjust="spacing" textLength="195" x="526.5" y="763.4599">+validateTeam(team)</text><text fill="#000000" font-family="sans-serif" font-size="20" lengthAdjust="spacing" textLength="105" x="526.5" y="790.6999">+getTeam()</text></g><!--class Team--><g id="elem_Team"><rect codeLine="113" fill="#F1F1F1" height="461.8396" id="Team" rx="2.5" ry="2.5" style="stroke:#181818;stroke-width:0.5;" width="480" x="419" y="929.12"/><ellipse cx="628.5" cy="947.74" fill="#ADD1B2" rx="12" ry="12" style="stroke:#181818;stroke-width:1.0;"/><path d="M628.0156,954.9431 Q625.9531,954.9431 624.625,954.0681 Q623.2969,953.1931 622.6406,951.615 Q622,950.0212 622,947.8962 Q622,945.5212 622.7656,943.8181 Q623.5469,942.0994 625.0469,941.1775 Q626.5625,940.2556 628.7656,940.2556 Q629.7969,940.2556 630.5781,940.4744 Q631.375,940.6775 632.2031,941.0837 L631.2344,943.4587 Q630.5,943.0837 629.8594,942.9431 Q629.2344,942.8025 628.6563,942.8025 Q627.2813,942.8025 626.4531,943.4275 Q625.6406,944.0369 625.2813,945.1619 Q624.9375,946.2869 624.9375,947.7869 Q624.9375,950.1462 625.7813,951.2712 Q626.625,952.3962 628.5,952.3962 Q629.2031,952.3962 629.9219,952.2244 Q630.6563,952.0369 631.6406,951.5994 L631.6406,954.1931 Q630.7813,954.5837 629.8438,954.7556 Q628.9219,954.9431 628.0156,954.9431 Z " fill="#000000"/><text fill="#000000" font-family="sans-serif" font-size="20" lengthAdjust="spacing" textLength="52" x="650.5" y="955.5">Team</text><line style="stroke:#181818;stroke-width:0.5;" x1="420" x2="898" y1="966.36" y2="966.36"/><text fill="#000000" font-family="sans-serif" font-size="20" lengthAdjust="spacing" textLength="119" x="425" y="991.74">-String name</text><text fill="#000000" font-family="sans-serif" font-size="20" lengthAdjust="spacing" textLength="336" x="425" y="1018.9799">-List&lt;Collaborator&gt; collaboratorsList</text><text fill="#000000" font-family="sans-serif" font-size="20" lengthAdjust="spacing" textLength="231" x="425" y="1046.2199">-List&lt;Skill&gt; skillsSelected;</text><line style="stroke:#181818;stroke-width:0.5;" x1="420" x2="898" y1="1056.0799" y2="1056.0799"/><text fill="#000000" font-family="sans-serif" font-size="20" lengthAdjust="spacing" textLength="427" x="425" y="1081.4599">+Team(name, collaboratorsList, skillsSelected)</text><text fill="#000000" font-family="sans-serif" font-size="20" lengthAdjust="spacing" textLength="109" x="425" y="1108.6999">+getName()</text><text fill="#000000" font-family="sans-serif" font-size="20" lengthAdjust="spacing" textLength="160" x="425" y="1135.9398">+setName(name)</text><text fill="#000000" font-family="sans-serif" font-size="20" lengthAdjust="spacing" textLength="211" x="425" y="1163.1798">+getCollaboratorsList()</text><text fill="#000000" font-family="sans-serif" font-size="20" lengthAdjust="spacing" textLength="364" x="425" y="1190.4198">+setCollaboratorsList(collaboratorsList)</text><text fill="#000000" font-family="sans-serif" font-size="20" lengthAdjust="spacing" textLength="178" x="425" y="1217.6598">+getSkillsSelected()</text><text fill="#000000" font-family="sans-serif" font-size="20" lengthAdjust="spacing" textLength="300" x="425" y="1244.8997">+setSkillsSelected(skillsSelected)</text><text fill="#000000" font-family="sans-serif" font-size="20" lengthAdjust="spacing" textLength="287" x="425" y="1272.1397">+addCollaborator(collaborator)</text><text fill="#000000" font-family="sans-serif" font-size="20" lengthAdjust="spacing" textLength="96" x="425" y="1299.3797">+equals(o)</text><text fill="#000000" font-family="sans-serif" font-size="20" lengthAdjust="spacing" textLength="468" x="425" y="1326.6197">+hashCode(name, collaboratorsList, skillsSelected)</text><text fill="#000000" font-family="sans-serif" font-size="20" lengthAdjust="spacing" textLength="97" x="425" y="1353.8596">+toString()</text><text fill="#000000" font-family="sans-serif" font-size="20" lengthAdjust="spacing" textLength="73" x="425" y="1381.0996">+clone()</text></g><!--link Repositories to Repositories--><g id="link_Repositories_Repositories"><path codeLine="132" d="M908.49,383.97 C929.14,387.76 943,395.57 943,407.4 C943,418.03 931.81,425.41 914.56,429.55 " fill="none" id="Repositories-to-Repositories" style="stroke:#181818;stroke-width:1.0;"/><polygon fill="#181818" points="909.97,430.51,919.5998,432.5758,914.8634,429.4828,917.9563,424.7464,909.97,430.51" style="stroke:#181818;stroke-width:1.0;"/><text fill="#000000" font-family="sans-serif" font-size="20" lengthAdjust="spacing" textLength="78" x="949" y="415.28">instance</text></g><!--link GenerateTeamProposalUI to GenerateTeamProposalController--><g id="link_GenerateTeamProposalUI_GenerateTeamProposalController"><path codeLine="134" d="M283.31,115.34 C292.35,115.34 301.69,115.34 311.25,115.34 " fill="none" id="GenerateTeamProposalUI-to-GenerateTeamProposalController" style="stroke:#181818;stroke-width:1.0;stroke-dasharray:7.0,7.0;"/><polygon fill="#181818" points="316.06,115.34,307.06,111.34,311.06,115.34,307.06,119.34,316.06,115.34" style="stroke:#181818;stroke-width:1.0;"/></g><!--link Repositories to TeamRepository--><g id="link_Repositories_TeamRepository"><path codeLine="136" d="M729.95,502.53 C718.47,535.23 705.57,571.99 693.94,605.1 " fill="none" id="Repositories-to-TeamRepository" style="stroke:#181818;stroke-width:1.0;"/><polygon fill="#181818" points="692.29,609.81,699.0483,602.6458,693.9481,605.0929,691.501,599.9928,692.29,609.81" style="stroke:#181818;stroke-width:1.0;"/><text fill="#000000" font-family="sans-serif" font-size="20" lengthAdjust="spacing" textLength="11" x="682.8686" y="597.3528">1</text></g><!--link Repositories to CollaboratorsRepository--><g id="link_Repositories_CollaboratorsRepository"><path codeLine="137" d="M802.11,502.44 C820.73,547.21 839,591.12 839,591.12 C839,591.12 917,820.12 917,820.12 C917,820.12 1030.02,960.26 1110.63,1060.2 " fill="none" id="Repositories-to-CollaboratorsRepository" style="stroke:#181818;stroke-width:1.0;"/><polygon fill="#181818" points="1113.73,1064.05,1111.1802,1054.5369,1110.5857,1060.1624,1104.9601,1059.5679,1113.73,1064.05" style="stroke:#181818;stroke-width:1.0;"/><text fill="#000000" font-family="sans-serif" font-size="20" lengthAdjust="spacing" textLength="11" x="1097.4922" y="1051.342">1</text></g><!--link Repositories to SkillsRepository--><g id="link_Repositories_SkillsRepository"><path codeLine="138" d="M883.16,502.49 C904.99,519.58 921,532.12 921,532.12 C921,532.12 954.69,568 991.35,607.02 " fill="none" id="Repositories-to-SkillsRepository" style="stroke:#181818;stroke-width:1.0;"/><polygon fill="#181818" points="994.33,610.2,991.0939,600.898,990.9108,606.5519,985.2569,606.3687,994.33,610.2" style="stroke:#181818;stroke-width:1.0;"/><text fill="#000000" font-family="sans-serif" font-size="20" lengthAdjust="spacing" textLength="11" x="977.229" y="597.4174">1</text></g><!--link GenerateTeamProposalController to CollaboratorsRepository--><g id="link_GenerateTeamProposalController_CollaboratorsRepository"><path codeLine="140" d="M1010.05,224.13 C1114.74,269.81 1213,312.68 1213,312.68 C1213,312.68 1250,591.12 1250,591.12 C1250,591.12 1250,820.12 1250,820.12 C1250,820.12 1225.36,959.15 1207.66,1059.01 " fill="none" id="GenerateTeamProposalController-to-CollaboratorsRepository" style="stroke:#181818;stroke-width:1.0;stroke-dasharray:7.0,7.0;"/><polygon fill="#181818" points="1206.82,1063.74,1212.33,1055.5767,1207.693,1058.8168,1204.4529,1054.1798,1206.82,1063.74" style="stroke:#181818;stroke-width:1.0;"/><text fill="#000000" font-family="sans-serif" font-size="20" lengthAdjust="spacing" textLength="225" x="1246" y="554.5">CollaboratorsRepository</text></g><!--link GenerateTeamProposalController to SkillsRepository--><g id="link_GenerateTeamProposalController_SkillsRepository"><path codeLine="141" d="M911.58,223.99 C974.7,269.72 1034,312.68 1034,312.68 C1034,312.68 1056.04,488.95 1070.55,605.06 " fill="none" id="GenerateTeamProposalController-to-SkillsRepository" style="stroke:#181818;stroke-width:1.0;stroke-dasharray:7.0,7.0;"/><polygon fill="#181818" points="1071.14,609.74,1074.0028,600.3164,1070.5251,604.778,1066.0636,601.3002,1071.14,609.74" style="stroke:#181818;stroke-width:1.0;"/><text fill="#000000" font-family="sans-serif" font-size="20" lengthAdjust="spacing" textLength="146" x="1058" y="415.28">SkillsRepository</text></g><!--link GenerateTeamProposalController to TeamRepository--><g id="link_GenerateTeamProposalController_TeamRepository"><path codeLine="142" d="M589.75,223.99 C516.14,269.72 447,312.68 447,312.68 C447,312.68 447,502.12 447,502.12 C447,502.12 502.57,555.2 556.81,607.01 " fill="none" id="GenerateTeamProposalController-to-TeamRepository" style="stroke:#181818;stroke-width:1.0;stroke-dasharray:7.0,7.0;"/><polygon fill="#181818" points="560.28,610.33,556.5411,601.2184,556.6668,606.8739,551.0113,606.9996,560.28,610.33" style="stroke:#181818;stroke-width:1.0;"/><text fill="#000000" font-family="sans-serif" font-size="20" lengthAdjust="spacing" textLength="151" x="448" y="415.28">TeamRepository</text></g><!--link GenerateTeamProposalController to Repositories--><g id="link_GenerateTeamProposalController_Repositories"><path codeLine="143" d="M763,223.94 C763,250.8 763,279.51 763,306.01 " fill="none" id="GenerateTeamProposalController-to-Repositories" style="stroke:#181818;stroke-width:1.0;stroke-dasharray:7.0,7.0;"/><polygon fill="#181818" points="763,310.83,767,301.83,763,305.83,759,301.83,763,310.83" style="stroke:#181818;stroke-width:1.0;"/><text fill="#000000" font-family="sans-serif" font-size="20" lengthAdjust="spacing" textLength="111" x="764" y="276.06">repositories</text></g><!--link GenerateTeamProposalController to Collaborator--><g id="link_GenerateTeamProposalController_Collaborator"><path codeLine="144" d="M549.69,224.05 C515.45,241.34 491,253.68 491,253.68 C491,253.68 342,406.4 342,406.4 C342,406.4 342,406.4 342,1160.62 C342,1160.62 377,1410.12 377,1410.12 C377,1410.12 395.82,1451.79 423.73,1513.61 " fill="none" id="GenerateTeamProposalController-to-Collaborator" style="stroke:#181818;stroke-width:1.0;stroke-dasharray:7.0,7.0;"/><polygon fill="#181818" points="425.66,1517.88,425.6029,1508.0313,423.6028,1513.3228,418.3113,1511.3228,425.66,1517.88" style="stroke:#181818;stroke-width:1.0;"/><text fill="#000000" font-family="sans-serif" font-size="20" lengthAdjust="spacing" textLength="116" x="343" y="713.5">Collaborator</text><text fill="#000000" font-family="sans-serif" font-size="20" lengthAdjust="spacing" textLength="11" x="411.1856" y="1504.5275">1</text></g><!--link TeamRepository to Team--><g id="link_TeamRepository_Team"><path codeLine="146" d="M659,800 C659,836.1 659,879.18 659,922.75 " fill="none" id="TeamRepository-to-Team" style="stroke:#181818;stroke-width:1.0;"/><polygon fill="#181818" points="659,927.67,663,918.67,659,922.67,655,918.67,659,927.67" style="stroke:#181818;stroke-width:1.0;"/><text fill="#000000" font-family="sans-serif" font-size="20" lengthAdjust="spacing" textLength="58" x="660" y="872.5">teams</text><text fill="#000000" font-family="sans-serif" font-size="20" lengthAdjust="spacing" textLength="11" x="647.8195" y="915.5459">*</text></g><!--reverse link Team to Collaborator--><g id="link_Team_Collaborator"><path codeLine="147" d="M659,1404.41 C659,1440.97 659,1479.8 659,1519.52 " fill="none" id="Team-backto-Collaborator" style="stroke:#181818;stroke-width:1.0;"/><polygon fill="none" points="659,1391.48,655,1397.48,659,1403.48,663,1397.48,659,1391.48" style="stroke:#181818;stroke-width:1.0;"/><text fill="#000000" font-family="sans-serif" font-size="20" lengthAdjust="spacing" textLength="33" x="660" y="1462.5">has</text><text fill="#000000" font-family="sans-serif" font-size="20" lengthAdjust="spacing" textLength="11" x="647.9055" y="1504.792">*</text></g><!--link CollaboratorsRepository to Collaborator--><g id="link_CollaboratorsRepository_Collaborator"><path codeLine="149" d="M1133.43,1253.74 C1093.42,1319.58 1036.25,1413.68 975.38,1513.87 " fill="none" id="CollaboratorsRepository-to-Collaborator" style="stroke:#181818;stroke-width:1.0;"/><polygon fill="#181818" points="972.9,1517.96,980.9963,1512.352,975.4997,1513.689,974.1627,1508.1924,972.9,1517.96" style="stroke:#181818;stroke-width:1.0;"/><text fill="#000000" font-family="sans-serif" font-size="20" lengthAdjust="spacing" textLength="11" x="966.397" y="1504.5275">*</text></g><!--reverse link Collaborator to Address--><g id="link_Collaborator_Address"><path codeLine="151" d="M659,2566.38 C659,2607.95 659,2647.06 659,2681.43 " fill="none" id="Collaborator-backto-Address" style="stroke:#181818;stroke-width:1.0;"/><polygon fill="#181818" points="659,2553.4,655,2559.4,659,2565.4,663,2559.4,659,2553.4" style="stroke:#181818;stroke-width:1.0;"/><text fill="#000000" font-family="sans-serif" font-size="20" lengthAdjust="spacing" textLength="50" x="660" y="2624.5">owns</text><text fill="#000000" font-family="sans-serif" font-size="20" lengthAdjust="spacing" textLength="11" x="647.682" y="2667.2162">1</text></g><!--reverse link Address to ZipCode--><g id="link_Address_ZipCode"><path codeLine="152" d="M659,2966.38 C659,3004.04 659,3044.27 659,3081.17 " fill="none" id="Address-backto-ZipCode" style="stroke:#181818;stroke-width:1.0;"/><polygon fill="#181818" points="659,2953.6,655,2959.6,659,2965.6,663,2959.6,659,2953.6" style="stroke:#181818;stroke-width:1.0;"/><text fill="#000000" font-family="sans-serif" font-size="20" lengthAdjust="spacing" textLength="50" x="660" y="3024.5">owns</text><text fill="#000000" font-family="sans-serif" font-size="20" lengthAdjust="spacing" textLength="11" x="647.6992" y="3067.4065">1</text></g><!--SRC=[hLR1Rjim3BtxAuIUciufkXsp8K2NRaE0eYkMxhARQhE94CNo9AL5EkpV9zcIGibsaWBROQd9H_AH4acfDQjgAkc6Ys8D9IdXYMwv_YeglM2lG3vSPSf3I4sBDLt2Gkyu40c5fjMI0mAe5It52wkMv8boXJMSLQ1tDP1Qy9tzo92ou5IfQwqbUzngc1UYQc9VPLdMgCWtg41I3Gz0D_TIr49H_dDE_cH_3o5c9WafE0TfaCJy6vDRflIdnPfnFYNA_gW5S9C8b0tWtH4_vusf-W56phIGkvpCZ88-2cCZPAIm7lRV8-T_2RhrOPcS8sdavv2otzn6Cz-X7jWYPBym5JPdKz4DECcDIPKOM6N_m39QRf28LPhKAr71tNRp239s1nlAE0AoSaPb6GaYi-uPk3GmvtDBCW_KSayenppoDdRkGkOXqkY_UymTrLxFZGqwZ3iJAHoESjysFC9yTZmmBiWyIOI_RjbYk1UvH29mAK6f6DoAQFkBmFVxzB415gCA8SClDcriqWhIQioRKcASaxGrZf3eeZYaOv2UREWZxDT9ufE2trkAO5gqrpO8LbIjPg84BEX9fE2c107pB5XfBb3PH6m3HYe96_4CaJQqPXWA35HeJIp4VJslb9coXObC9X4ehSD-r0nEbNv8FAU6PWWoZeSf1ar9aKwnddR1F3fuJ-nxhPceA4_ycv97DYD7vPboLfeUYDgo2noSj27dj9W7DWTAR_08GXhEql97jsLFlESYfQiYS7Ij7AZP6LiA8QCf-ulLzbQJr_RN-VHJO0_FFMAKGBg3uYOOuQRhaHgi2u-1Ur78n9F4cPY72CNhH6a9u0ljVJIWtEb6YJ99oB2vjN3C9HROIZUUec7Y9O5jt2dnpR2wAT7cVtmlEhsLt8hMobuAQnacYBiJpKx7YfuzRxyFxFUJM_JGq-WZoiPjqOwJFB5vupOSVlseFkNWs0WzutbqrqFGz1CsXt5qYBYL8Zehv8t5wUmYlsJCyMRHcXXFuxKnCQtHBeOi6tWSNqwFF6RJ42R6sVkpvCxsOmR6UJyu7OxzZD5Z_VBIS1y8CHcCVOhJbCgaI-uKDyaWcAGrE-QZSvWIB_PJ6AI7GEAwP5b2iJcBY_Pm3RQPKms6YF6uqIJUp9NEig47WFSMXumyN5YtXgJVLHCYNYgL-K-lzWl0gVy1]--></g></svg>