<?xml version="1.0" encoding="us-ascii" standalone="no"?><svg xmlns="http://www.w3.org/2000/svg" xmlns:xlink="http://www.w3.org/1999/xlink" contentStyleType="text/css" height="1232px" preserveAspectRatio="none" style="width:1588px;height:1232px;background:#FFFFFF;" version="1.1" viewBox="0 0 1588 1232" width="1588px" zoomAndPan="magnify"><defs/><g><rect fill="#FFFFFF" height="1037.8848" style="stroke:#181818;stroke-width:1.0;" width="10" x="106" y="93.6211"/><rect fill="#FFFFFF" height="288.9492" style="stroke:#181818;stroke-width:1.0;" width="10" x="449" y="116.9121"/><rect fill="#FFFFFF" height="234.3281" style="stroke:#181818;stroke-width:1.0;" width="10" x="449" y="437.1523"/><rect fill="#FFFFFF" height="314.2793" style="stroke:#181818;stroke-width:1.0;" width="10" x="449" y="754.6445"/><rect fill="#FFFFFF" height="31.291" style="stroke:#181818;stroke-width:1.0;" width="10" x="449" y="1100.2148"/><rect fill="#FFFFFF" height="156.4551" style="stroke:#181818;stroke-width:1.0;" width="10" x="649" y="191.8242"/><rect fill="#FFFFFF" height="119.873" style="stroke:#181818;stroke-width:1.0;" width="10" x="649" y="468.4434"/><rect fill="#FFFFFF" height="42.291" style="stroke:#181818;stroke-width:1.0;" width="10" x="654" y="507.7344"/><rect fill="#FFFFFF" height="251.6973" style="stroke:#181818;stroke-width:1.0;" width="10" x="649" y="785.9355"/><rect fill="#FFFFFF" height="31.291" style="stroke:#181818;stroke-width:1.0;" width="10" x="806.5" y="223.1152"/><rect fill="#FFFFFF" height="31.291" style="stroke:#181818;stroke-width:1.0;" width="10" x="913.5" y="285.6973"/><rect fill="#FFFFFF" height="189.1152" style="stroke:#181818;stroke-width:1.0;" width="10" x="1083.5" y="817.2266"/><rect fill="none" height="612.7715" style="stroke:#000000;stroke-width:1.5;" width="1572.5" x="10" y="363.2793"/><line style="stroke:#181818;stroke-width:0.5;stroke-dasharray:5.0,5.0;" x1="111" x2="111" y1="83.6211" y2="1149.5059"/><line style="stroke:#181818;stroke-width:0.5;stroke-dasharray:5.0,5.0;" x1="454" x2="454" y1="83.6211" y2="1149.5059"/><line style="stroke:#181818;stroke-width:0.5;stroke-dasharray:5.0,5.0;" x1="654" x2="654" y1="156.7227" y2="1149.5059"/><line style="stroke:#181818;stroke-width:0.5;stroke-dasharray:5.0,5.0;" x1="811" x2="811" y1="83.6211" y2="1149.5059"/><line style="stroke:#181818;stroke-width:0.5;stroke-dasharray:5.0,5.0;" x1="918" x2="918" y1="83.6211" y2="1149.5059"/><line style="stroke:#181818;stroke-width:0.5;stroke-dasharray:5.0,5.0;" x1="1088" x2="1088" y1="83.6211" y2="1149.5059"/><line style="stroke:#181818;stroke-width:0.5;stroke-dasharray:5.0,5.0;" x1="1479.5" x2="1479.5" y1="866.3477" y2="1149.5059"/><text fill="#000000" font-family="sans-serif" font-size="14" lengthAdjust="spacing" textLength="176" x="20" y="80.1074">Human Resources Manager</text><ellipse cx="111" cy="13.5" fill="#E3E3E3" rx="8" ry="8" style="stroke:#181818;stroke-width:0.5;"/><path d="M111,21.5 L111,48.5 M98,29.5 L124,29.5 M111,48.5 L98,63.5 M111,48.5 L124,63.5 " fill="none" style="stroke:#181818;stroke-width:0.5;"/><text fill="#000000" font-family="sans-serif" font-size="14" lengthAdjust="spacing" textLength="176" x="20" y="1163.6133">Human Resources Manager</text><ellipse cx="111" cy="1175.627" fill="#E3E3E3" rx="8" ry="8" style="stroke:#181818;stroke-width:0.5;"/><path d="M111,1183.627 L111,1210.627 M98,1191.627 L124,1191.627 M111,1210.627 L98,1225.627 M111,1210.627 L124,1225.627 " fill="none" style="stroke:#181818;stroke-width:0.5;"/><rect fill="#E3E3E3" height="32.6211" rx="2.5" ry="2.5" style="stroke:#181818;stroke-width:0.5;" width="148" x="380" y="50"/><text fill="#000000" font-family="sans-serif" font-size="14" lengthAdjust="spacing" textLength="134" x="387" y="72.1074">:RegistCollaboratorUI</text><rect fill="#E3E3E3" height="32.6211" rx="2.5" ry="2.5" style="stroke:#181818;stroke-width:0.5;" width="148" x="380" y="1148.5059"/><text fill="#000000" font-family="sans-serif" font-size="14" lengthAdjust="spacing" textLength="134" x="387" y="1170.6133">:RegistCollaboratorUI</text><rect fill="#E3E3E3" height="32.6211" rx="2.5" ry="2.5" style="stroke:#181818;stroke-width:0.5;" width="198" x="555" y="1148.5059"/><text fill="#000000" font-family="sans-serif" font-size="14" lengthAdjust="spacing" textLength="184" x="562" y="1170.6133">:RegistCollaboratorController</text><rect fill="#E3E3E3" height="32.6211" rx="2.5" ry="2.5" style="stroke:#181818;stroke-width:0.5;" width="97" x="763" y="50"/><text fill="#000000" font-family="sans-serif" font-size="14" lengthAdjust="spacing" textLength="83" x="770" y="72.1074">:Repositories</text><rect fill="#E3E3E3" height="32.6211" rx="2.5" ry="2.5" style="stroke:#181818;stroke-width:0.5;" width="97" x="763" y="1148.5059"/><text fill="#000000" font-family="sans-serif" font-size="14" lengthAdjust="spacing" textLength="83" x="770" y="1170.6133">:Repositories</text><rect fill="#E3E3E3" height="51.2422" rx="2.5" ry="2.5" style="stroke:#181818;stroke-width:0.5;" width="97" x="870" y="31.3789"/><text fill="#000000" font-family="sans-serif" font-size="14" lengthAdjust="spacing" textLength="74" x="881.5" y="53.4863">repositories</text><text fill="#000000" font-family="sans-serif" font-size="14" lengthAdjust="spacing" textLength="83" x="877" y="72.1074">:Repositories</text><rect fill="#E3E3E3" height="51.2422" rx="2.5" ry="2.5" style="stroke:#181818;stroke-width:0.5;" width="97" x="870" y="1148.5059"/><text fill="#000000" font-family="sans-serif" font-size="14" lengthAdjust="spacing" textLength="74" x="881.5" y="1170.6133">repositories</text><text fill="#000000" font-family="sans-serif" font-size="14" lengthAdjust="spacing" textLength="83" x="877" y="1189.2344">:Repositories</text><rect fill="#E3E3E3" height="51.2422" rx="2.5" ry="2.5" style="stroke:#181818;stroke-width:0.5;" width="223" x="977" y="31.3789"/><text fill="#000000" font-family="sans-serif" font-size="14" lengthAdjust="spacing" textLength="208" x="984.5" y="53.4863">CollaboratorsRepository:</text><text fill="#000000" font-family="sans-serif" font-size="14" lengthAdjust="spacing" textLength="209" x="984" y="72.1074">CollaboratorsRepository</text><rect fill="#E3E3E3" height="51.2422" rx="2.5" ry="2.5" style="stroke:#181818;stroke-width:0.5;" width="223" x="977" y="1148.5059"/><text fill="#000000" font-family="sans-serif" font-size="14" lengthAdjust="spacing" textLength="208" x="984.5" y="1170.6133">CollaboratorsRepository:</text><text fill="#000000" font-family="sans-serif" font-size="14" lengthAdjust="spacing" textLength="209" x="984" y="1189.2344">CollaboratorsRepository</text><rect fill="#E3E3E3" height="51.2422" rx="2.5" ry="2.5" style="stroke:#181818;stroke-width:0.5;" width="186" x="1386.5" y="1148.5059"/><text fill="#000000" font-family="sans-serif" font-size="14" lengthAdjust="spacing" textLength="172" x="1393.5" y="1170.6133">fundamentalCharacteristics</text><text fill="#000000" font-family="sans-serif" font-size="14" lengthAdjust="spacing" textLength="82" x="1438.5" y="1189.2344">:Collaborator</text><rect fill="#FFFFFF" height="1037.8848" style="stroke:#181818;stroke-width:1.0;" width="10" x="106" y="93.6211"/><rect fill="#FFFFFF" height="288.9492" style="stroke:#181818;stroke-width:1.0;" width="10" x="449" y="116.9121"/><rect fill="#FFFFFF" height="234.3281" style="stroke:#181818;stroke-width:1.0;" width="10" x="449" y="437.1523"/><rect fill="#FFFFFF" height="314.2793" style="stroke:#181818;stroke-width:1.0;" width="10" x="449" y="754.6445"/><rect fill="#FFFFFF" height="31.291" style="stroke:#181818;stroke-width:1.0;" width="10" x="449" y="1100.2148"/><rect fill="#FFFFFF" height="156.4551" style="stroke:#181818;stroke-width:1.0;" width="10" x="649" y="191.8242"/><rect fill="#FFFFFF" height="119.873" style="stroke:#181818;stroke-width:1.0;" width="10" x="649" y="468.4434"/><rect fill="#FFFFFF" height="42.291" style="stroke:#181818;stroke-width:1.0;" width="10" x="654" y="507.7344"/><rect fill="#FFFFFF" height="251.6973" style="stroke:#181818;stroke-width:1.0;" width="10" x="649" y="785.9355"/><rect fill="#FFFFFF" height="31.291" style="stroke:#181818;stroke-width:1.0;" width="10" x="806.5" y="223.1152"/><rect fill="#FFFFFF" height="31.291" style="stroke:#181818;stroke-width:1.0;" width="10" x="913.5" y="285.6973"/><rect fill="#FFFFFF" height="189.1152" style="stroke:#181818;stroke-width:1.0;" width="10" x="1083.5" y="817.2266"/><polygon fill="#181818" points="437,112.9121,447,116.9121,437,120.9121,441,116.9121" style="stroke:#181818;stroke-width:1.0;"/><line style="stroke:#181818;stroke-width:1.0;" x1="116" x2="443" y1="116.9121" y2="116.9121"/><text fill="#000000" font-family="sans-serif" font-size="13" font-weight="bold" lengthAdjust="spacing" textLength="7" x="123" y="111.6494">1</text><text fill="#000000" font-family="sans-serif" font-size="13" lengthAdjust="spacing" textLength="188" x="134" y="111.6494">asks to regist a new collaborator</text><polygon fill="#181818" points="543,144.2031,553,148.2031,543,152.2031,547,148.2031" style="stroke:#181818;stroke-width:1.0;"/><line style="stroke:#181818;stroke-width:1.0;" x1="459" x2="549" y1="148.2031" y2="148.2031"/><text fill="#000000" font-family="sans-serif" font-size="13" font-weight="bold" lengthAdjust="spacing" textLength="7" x="466" y="142.9404">2</text><text fill="#000000" font-family="sans-serif" font-size="13" lengthAdjust="spacing" textLength="36" x="477" y="142.9404">create</text><rect fill="#E3E3E3" height="32.6211" rx="2.5" ry="2.5" style="stroke:#181818;stroke-width:0.5;" width="198" x="555" y="124.9121"/><text fill="#000000" font-family="sans-serif" font-size="14" lengthAdjust="spacing" textLength="184" x="562" y="147.0195">:RegistCollaboratorController</text><polygon fill="#181818" points="637,187.8242,647,191.8242,637,195.8242,641,191.8242" style="stroke:#181818;stroke-width:1.0;"/><line style="stroke:#181818;stroke-width:1.0;" x1="459" x2="643" y1="191.8242" y2="191.8242"/><text fill="#000000" font-family="sans-serif" font-size="13" font-weight="bold" lengthAdjust="spacing" textLength="7" x="466" y="186.5615">3</text><text fill="#000000" font-family="sans-serif" font-size="13" lengthAdjust="spacing" textLength="53" x="477" y="186.5615">getJobs()</text><polygon fill="#181818" points="794.5,219.1152,804.5,223.1152,794.5,227.1152,798.5,223.1152" style="stroke:#181818;stroke-width:1.0;"/><line style="stroke:#181818;stroke-width:1.0;" x1="659" x2="800.5" y1="223.1152" y2="223.1152"/><text fill="#000000" font-family="sans-serif" font-size="13" font-weight="bold" lengthAdjust="spacing" textLength="7" x="666" y="217.8525">4</text><text fill="#000000" font-family="sans-serif" font-size="13" lengthAdjust="spacing" textLength="75" x="677" y="217.8525">getInstance()</text><polygon fill="#181818" points="670,250.4063,660,254.4063,670,258.4063,666,254.4063" style="stroke:#181818;stroke-width:1.0;"/><line style="stroke:#181818;stroke-width:1.0;stroke-dasharray:2.0,2.0;" x1="664" x2="810.5" y1="254.4063" y2="254.4063"/><text fill="#000000" font-family="sans-serif" font-size="13" font-weight="bold" lengthAdjust="spacing" textLength="7" x="676" y="249.1436">5</text><text fill="#000000" font-family="sans-serif" font-size="13" lengthAdjust="spacing" textLength="67" x="687" y="249.1436">repositories</text><polygon fill="#181818" points="901.5,281.6973,911.5,285.6973,901.5,289.6973,905.5,285.6973" style="stroke:#181818;stroke-width:1.0;"/><line style="stroke:#181818;stroke-width:1.0;" x1="659" x2="907.5" y1="285.6973" y2="285.6973"/><text fill="#000000" font-family="sans-serif" font-size="13" font-weight="bold" lengthAdjust="spacing" textLength="7" x="666" y="280.4346">6</text><text fill="#000000" font-family="sans-serif" font-size="13" lengthAdjust="spacing" textLength="166" x="677" y="280.4346">getRegistedJobsRepository()</text><polygon fill="#181818" points="670,312.9883,660,316.9883,670,320.9883,666,316.9883" style="stroke:#181818;stroke-width:1.0;"/><line style="stroke:#181818;stroke-width:1.0;stroke-dasharray:2.0,2.0;" x1="664" x2="917.5" y1="316.9883" y2="316.9883"/><text fill="#000000" font-family="sans-serif" font-size="13" font-weight="bold" lengthAdjust="spacing" textLength="7" x="676" y="311.7256">7</text><text fill="#000000" font-family="sans-serif" font-size="13" lengthAdjust="spacing" textLength="135" x="687" y="311.7256">registedJobsRepository</text><polygon fill="#181818" points="470,344.2793,460,348.2793,470,352.2793,466,348.2793" style="stroke:#181818;stroke-width:1.0;"/><line style="stroke:#181818;stroke-width:1.0;stroke-dasharray:2.0,2.0;" x1="464" x2="653" y1="348.2793" y2="348.2793"/><text fill="#000000" font-family="sans-serif" font-size="13" font-weight="bold" lengthAdjust="spacing" textLength="7" x="476" y="343.0166">8</text><text fill="#000000" font-family="sans-serif" font-size="13" lengthAdjust="spacing" textLength="24" x="487" y="343.0166">jobs</text><path d="M10,363.2793 L83,363.2793 L83,372.5703 L73,382.5703 L10,382.5703 L10,363.2793 " fill="#EEEEEE" style="stroke:#000000;stroke-width:1.5;"/><rect fill="none" height="612.7715" style="stroke:#000000;stroke-width:1.5;" width="1572.5" x="10" y="363.2793"/><text fill="#000000" font-family="sans-serif" font-size="13" font-weight="bold" lengthAdjust="spacing" textLength="28" x="25" y="378.3076">loop</text><text fill="#000000" font-family="sans-serif" font-size="11" font-weight="bold" lengthAdjust="spacing" textLength="90" x="98" y="377.1494">[while intended]</text><polygon fill="#181818" points="127,401.8613,117,405.8613,127,409.8613,123,405.8613" style="stroke:#181818;stroke-width:1.0;"/><line style="stroke:#181818;stroke-width:1.0;stroke-dasharray:2.0,2.0;" x1="121" x2="453" y1="405.8613" y2="405.8613"/><text fill="#000000" font-family="sans-serif" font-size="13" font-weight="bold" lengthAdjust="spacing" textLength="7" x="133" y="400.5986">9</text><text fill="#000000" font-family="sans-serif" font-size="13" lengthAdjust="spacing" textLength="106" x="144" y="400.5986">Shows all the jobs</text><polygon fill="#181818" points="437,433.1523,447,437.1523,437,441.1523,441,437.1523" style="stroke:#181818;stroke-width:1.0;"/><line style="stroke:#181818;stroke-width:1.0;" x1="116" x2="443" y1="437.1523" y2="437.1523"/><text fill="#000000" font-family="sans-serif" font-size="13" font-weight="bold" lengthAdjust="spacing" textLength="14" x="123" y="431.8896">10</text><text fill="#000000" font-family="sans-serif" font-size="13" lengthAdjust="spacing" textLength="69" x="141" y="431.8896">Select a job</text><polygon fill="#181818" points="637,464.4434,647,468.4434,637,472.4434,641,468.4434" style="stroke:#181818;stroke-width:1.0;"/><line style="stroke:#181818;stroke-width:1.0;" x1="459" x2="643" y1="468.4434" y2="468.4434"/><text fill="#000000" font-family="sans-serif" font-size="13" font-weight="bold" lengthAdjust="spacing" textLength="14" x="466" y="463.1807">11</text><text fill="#000000" font-family="sans-serif" font-size="13" lengthAdjust="spacing" textLength="68" x="484" y="463.1807">jobSelected</text><line style="stroke:#181818;stroke-width:1.0;" x1="659" x2="706" y1="494.7344" y2="494.7344"/><line style="stroke:#181818;stroke-width:1.0;" x1="706" x2="706" y1="494.7344" y2="507.7344"/><line style="stroke:#181818;stroke-width:1.0;" x1="665" x2="706" y1="507.7344" y2="507.7344"/><polygon fill="#181818" points="675,503.7344,665,507.7344,675,511.7344,671,507.7344" style="stroke:#181818;stroke-width:1.0;"/><text fill="#000000" font-family="sans-serif" font-size="13" font-weight="bold" lengthAdjust="spacing" textLength="14" x="671" y="489.4717">12</text><text fill="#000000" font-family="sans-serif" font-size="13" lengthAdjust="spacing" textLength="57" x="689" y="489.4717">storeJob()</text><line style="stroke:#181818;stroke-width:1.0;stroke-dasharray:2.0,2.0;" x1="664" x2="706" y1="549.0254" y2="549.0254"/><line style="stroke:#181818;stroke-width:1.0;stroke-dasharray:2.0,2.0;" x1="706" x2="706" y1="549.0254" y2="562.0254"/><line style="stroke:#181818;stroke-width:1.0;stroke-dasharray:2.0,2.0;" x1="659" x2="706" y1="562.0254" y2="562.0254"/><polygon fill="#181818" points="669,558.0254,659,562.0254,669,566.0254,665,562.0254" style="stroke:#181818;stroke-width:1.0;"/><text fill="#000000" font-family="sans-serif" font-size="13" font-weight="bold" lengthAdjust="spacing" textLength="14" x="671" y="543.7627">13</text><text fill="#000000" font-family="sans-serif" font-size="13" lengthAdjust="spacing" textLength="49" x="689" y="543.7627">success</text><polygon fill="#181818" points="470,584.3164,460,588.3164,470,592.3164,466,588.3164" style="stroke:#181818;stroke-width:1.0;"/><line style="stroke:#181818;stroke-width:1.0;stroke-dasharray:2.0,2.0;" x1="464" x2="653" y1="588.3164" y2="588.3164"/><text fill="#000000" font-family="sans-serif" font-size="13" font-weight="bold" lengthAdjust="spacing" textLength="14" x="476" y="583.0537">14</text><text fill="#000000" font-family="sans-serif" font-size="13" lengthAdjust="spacing" textLength="49" x="494" y="583.0537">success</text><polygon fill="#181818" points="127,667.4805,117,671.4805,127,675.4805,123,671.4805" style="stroke:#181818;stroke-width:1.0;"/><line style="stroke:#181818;stroke-width:1.0;stroke-dasharray:2.0,2.0;" x1="121" x2="453" y1="671.4805" y2="671.4805"/><text fill="#000000" font-family="sans-serif" font-size="13" font-weight="bold" lengthAdjust="spacing" textLength="14" x="133" y="640.2813">15</text><text fill="#000000" font-family="sans-serif" font-size="13" lengthAdjust="spacing" textLength="240" x="151" y="614.3447">Requests the fundamental characteristics</text><text fill="#000000" font-family="sans-serif" font-size="13" lengthAdjust="spacing" textLength="274" x="155" y="631.6357">(i.e. name, birth date, admission date, address,</text><text fill="#000000" font-family="sans-serif" font-size="13" lengthAdjust="spacing" textLength="286" x="155" y="648.9268">contact info (mobile and email), taxpayer number,</text><text fill="#000000" font-family="sans-serif" font-size="13" lengthAdjust="spacing" textLength="204" x="151" y="666.2178">ID doc type and respective number)</text><polygon fill="#181818" points="437,750.6445,447,754.6445,437,758.6445,441,754.6445" style="stroke:#181818;stroke-width:1.0;"/><line style="stroke:#181818;stroke-width:1.0;" x1="116" x2="443" y1="754.6445" y2="754.6445"/><text fill="#000000" font-family="sans-serif" font-size="13" font-weight="bold" lengthAdjust="spacing" textLength="14" x="123" y="723.4453">16</text><text fill="#000000" font-family="sans-serif" font-size="13" lengthAdjust="spacing" textLength="220" x="141" y="697.5088">Types the fundamental characteristics</text><text fill="#000000" font-family="sans-serif" font-size="13" lengthAdjust="spacing" textLength="274" x="145" y="714.7998">(i.e. name, birth date, admission date, address,</text><text fill="#000000" font-family="sans-serif" font-size="13" lengthAdjust="spacing" textLength="286" x="145" y="732.0908">contact info (mobile and email), taxpayer number,</text><text fill="#000000" font-family="sans-serif" font-size="13" lengthAdjust="spacing" textLength="204" x="141" y="749.3818">ID doc type and respective number)</text><polygon fill="#181818" points="637,781.9355,647,785.9355,637,789.9355,641,785.9355" style="stroke:#181818;stroke-width:1.0;"/><line style="stroke:#181818;stroke-width:1.0;" x1="459" x2="643" y1="785.9355" y2="785.9355"/><text fill="#000000" font-family="sans-serif" font-size="13" font-weight="bold" lengthAdjust="spacing" textLength="14" x="466" y="780.6729">17</text><text fill="#000000" font-family="sans-serif" font-size="13" lengthAdjust="spacing" textLength="36" x="484" y="780.6729">create</text><polygon fill="#181818" points="1071.5,813.2266,1081.5,817.2266,1071.5,821.2266,1075.5,817.2266" style="stroke:#181818;stroke-width:1.0;"/><line style="stroke:#181818;stroke-width:1.0;" x1="659" x2="1077.5" y1="817.2266" y2="817.2266"/><text fill="#000000" font-family="sans-serif" font-size="13" font-weight="bold" lengthAdjust="spacing" textLength="14" x="666" y="811.9639">18</text><text fill="#000000" font-family="sans-serif" font-size="13" lengthAdjust="spacing" textLength="36" x="684" y="811.9639">create</text><polygon fill="#181818" points="1374.5,844.5176,1384.5,848.5176,1374.5,852.5176,1378.5,848.5176" style="stroke:#181818;stroke-width:1.0;"/><line style="stroke:#181818;stroke-width:1.0;" x1="1093.5" x2="1380.5" y1="848.5176" y2="848.5176"/><text fill="#000000" font-family="sans-serif" font-size="13" font-weight="bold" lengthAdjust="spacing" textLength="14" x="1100.5" y="843.2549">19</text><text fill="#000000" font-family="sans-serif" font-size="13" lengthAdjust="spacing" textLength="36" x="1118.5" y="843.2549">create</text><rect fill="#E3E3E3" height="51.2422" rx="2.5" ry="2.5" style="stroke:#181818;stroke-width:0.5;" width="186" x="1386.5" y="825.2266"/><text fill="#000000" font-family="sans-serif" font-size="14" lengthAdjust="spacing" textLength="172" x="1393.5" y="847.334">fundamentalCharacteristics</text><text fill="#000000" font-family="sans-serif" font-size="14" lengthAdjust="spacing" textLength="82" x="1438.5" y="865.9551">:Collaborator</text><line style="stroke:#181818;stroke-width:1.0;" x1="1093.5" x2="1135.5" y1="910.7598" y2="910.7598"/><line style="stroke:#181818;stroke-width:1.0;" x1="1135.5" x2="1135.5" y1="910.7598" y2="923.7598"/><line style="stroke:#181818;stroke-width:1.0;" x1="1094.5" x2="1135.5" y1="923.7598" y2="923.7598"/><polygon fill="#181818" points="1104.5,919.7598,1094.5,923.7598,1104.5,927.7598,1100.5,923.7598" style="stroke:#181818;stroke-width:1.0;"/><text fill="#000000" font-family="sans-serif" font-size="13" font-weight="bold" lengthAdjust="spacing" textLength="14" x="1100.5" y="905.4971">20</text><text fill="#000000" font-family="sans-serif" font-size="13" lengthAdjust="spacing" textLength="327" x="1118.5" y="905.4971">addCollaborator(jobSelected,fundamentalCharacteristics)</text><line style="stroke:#181818;stroke-width:1.0;" x1="1093.5" x2="1135.5" y1="955.0508" y2="955.0508"/><line style="stroke:#181818;stroke-width:1.0;" x1="1135.5" x2="1135.5" y1="955.0508" y2="968.0508"/><line style="stroke:#181818;stroke-width:1.0;" x1="1094.5" x2="1135.5" y1="968.0508" y2="968.0508"/><polygon fill="#181818" points="1104.5,964.0508,1094.5,968.0508,1104.5,972.0508,1100.5,968.0508" style="stroke:#181818;stroke-width:1.0;"/><text fill="#000000" font-family="sans-serif" font-size="13" font-weight="bold" lengthAdjust="spacing" textLength="14" x="1100.5" y="949.7881">21</text><text fill="#000000" font-family="sans-serif" font-size="13" lengthAdjust="spacing" textLength="349" x="1118.5" y="949.7881">validateCollaborator(jobSelected,fundamentalCharacteristics)</text><polygon fill="#181818" points="670,1002.3418,660,1006.3418,670,1010.3418,666,1006.3418" style="stroke:#181818;stroke-width:1.0;"/><line style="stroke:#181818;stroke-width:1.0;stroke-dasharray:2.0,2.0;" x1="664" x2="1087.5" y1="1006.3418" y2="1006.3418"/><text fill="#000000" font-family="sans-serif" font-size="13" font-weight="bold" lengthAdjust="spacing" textLength="14" x="676" y="1001.0791">22</text><text fill="#000000" font-family="sans-serif" font-size="13" lengthAdjust="spacing" textLength="143" x="694" y="1001.0791">registedCollaboratorsList</text><polygon fill="#181818" points="470,1033.6328,460,1037.6328,470,1041.6328,466,1037.6328" style="stroke:#181818;stroke-width:1.0;"/><line style="stroke:#181818;stroke-width:1.0;stroke-dasharray:2.0,2.0;" x1="464" x2="653" y1="1037.6328" y2="1037.6328"/><text fill="#000000" font-family="sans-serif" font-size="13" font-weight="bold" lengthAdjust="spacing" textLength="14" x="476" y="1032.3701">23</text><text fill="#000000" font-family="sans-serif" font-size="13" lengthAdjust="spacing" textLength="148" x="494" y="1032.3701">RegistedCollaboratorsList</text><polygon fill="#181818" points="127,1064.9238,117,1068.9238,127,1072.9238,123,1068.9238" style="stroke:#181818;stroke-width:1.0;"/><line style="stroke:#181818;stroke-width:1.0;stroke-dasharray:2.0,2.0;" x1="121" x2="453" y1="1068.9238" y2="1068.9238"/><text fill="#000000" font-family="sans-serif" font-size="13" font-weight="bold" lengthAdjust="spacing" textLength="14" x="133" y="1063.6611">24</text><text fill="#000000" font-family="sans-serif" font-size="13" lengthAdjust="spacing" textLength="291" x="151" y="1063.6611">list all registered collaborators and asks to confirm</text><polygon fill="#181818" points="437,1096.2148,447,1100.2148,437,1104.2148,441,1100.2148" style="stroke:#181818;stroke-width:1.0;"/><line style="stroke:#181818;stroke-width:1.0;" x1="116" x2="443" y1="1100.2148" y2="1100.2148"/><text fill="#000000" font-family="sans-serif" font-size="13" font-weight="bold" lengthAdjust="spacing" textLength="14" x="123" y="1094.9521">25</text><text fill="#000000" font-family="sans-serif" font-size="13" lengthAdjust="spacing" textLength="144" x="141" y="1094.9521">confirms all collaborators</text><polygon fill="#181818" points="122,1127.5059,112,1131.5059,122,1135.5059,118,1131.5059" style="stroke:#181818;stroke-width:1.0;"/><line style="stroke:#181818;stroke-width:1.0;stroke-dasharray:2.0,2.0;" x1="116" x2="453" y1="1131.5059" y2="1131.5059"/><text fill="#000000" font-family="sans-serif" font-size="13" font-weight="bold" lengthAdjust="spacing" textLength="14" x="128" y="1126.2432">26</text><text fill="#000000" font-family="sans-serif" font-size="13" lengthAdjust="spacing" textLength="158" x="146" y="1126.2432">displays operation success</text><!--SRC=[rLPDRzim3BthLn2zD0dI_e0S2XJfeHbQO4ZQMo-AnCHQRScJvARvzwDi9x7YZwmRTfXFjaK-FehaazoxqZctF8FCQ2CIQp84RmjaxhYIS_7EjxZo-nJ1el1SRzEcWKkuD3kbjx3XgKF6UE6DBh8rMiQk4oKHDiRujVbaN7XZuUgnoBY69JfJM84Edhcc2FOAk8FxXsT6k5u9bNFjuMgsnAroVcxIbA-DvOJmkYXDNnSNBUT6UqlVDVZyPVdKyicDKsIgq9Ksnn_xbGgPKYwnYsrulEasmFUd-vTpZy0BPPEPEyMPlUdbi4LDRD0c3hafjEGPQi_JUK9b4XujUIiHA3SHIkW7xZaBrL4Vt6DP0mRrGnzmSqUR3JCoVNVW3LG90GUDEn0Dj9FR4OognAwXyH3I3G46t1aX_IpGUGUIAC38uWOjQe5JaEY4LRbNHay1bDuOc_4KtdIyub4aMWbQYNxBWlYKRy8uFsPD0jV2Oc1MTiCvixlozsH2t2eprcD21blqtypQZMBuO-ObVhGKdjANC3hwh89SQ4Sp9l0CDeBkQjAMTNYwejpK6OJTF_LkortYry8T4WlzNsLowDYmIIU8eRpAsUbCf4HjCk-27igX6xeYVUZl7uJ6UloZRacDoM6NA994fJrgYPBrzlWgCJi7F4t19nZ7QE27EJcVjnMc9BWqP-J4MbFLsvTaNNcUiMftPryDQo17cugqnLIoBm95Utj0AmIf_M2Z3OtCOLEwO0OXec8i3u8JQj5GIH3dCWaZTOkteCbW2cjbVH94Yjwvp9Hp92x7Rsc9q9HS19qt15BA5OmoimuTmhK4pBXAnoHN_3FdUxHG7P3aitW0QGJuVLvP4bIE8HciRSQ_soql1F7VvTNCgDtCRH7kRxkJi0wUapt2tj2wuMEshR33uOXHE5udasFSFq2uO38BjMgkZHeICEs_2up_2PSFdghGGNz5Y3Jrw-HEMjDvvNgYNwptY1ikE-iNf6LlB7PHdo9jIijB5PqJDNkBChfTkNAG3fSmcicDibc5TK4QQjlg58eWMUSKHhIaSddAzmvCZjMjAjBWiz2Dpt2F_0K0]--></g></svg>