<?xml version="1.0" encoding="us-ascii" standalone="no"?><svg xmlns="http://www.w3.org/2000/svg" xmlns:xlink="http://www.w3.org/1999/xlink" contentStyleType="text/css" height="408px" preserveAspectRatio="none" style="width:1337px;height:408px;background:#FFFFFF;" version="1.1" viewBox="0 0 1337 408" width="1337px" zoomAndPan="magnify"><defs/><g><!--class RegistCollaboratorUI--><g id="elem_RegistCollaboratorUI"><rect codeLine="11" fill="#F1F1F1" height="48" id="RegistCollaboratorUI" rx="2.5" ry="2.5" style="stroke:#181818;stroke-width:0.5;" width="162" x="421.5" y="7"/><ellipse cx="436.5" cy="23" fill="#ADD1B2" rx="11" ry="11" style="stroke:#181818;stroke-width:1.0;"/><path d="M439.2656,18.875 Q439.4219,18.6563 439.6094,18.5469 Q439.7969,18.4375 440.0156,18.4375 Q440.3906,18.4375 440.625,18.7031 Q440.8594,18.9531 440.8594,19.5625 L440.8594,21.0156 Q440.8594,21.625 440.625,21.8906 Q440.3906,22.1563 440.0156,22.1563 Q439.6719,22.1563 439.4688,21.9531 Q439.2656,21.7656 439.1563,21.25 Q439.1094,20.8906 438.9219,20.7031 Q438.5938,20.3281 437.9844,20.1094 Q437.375,19.8906 436.75,19.8906 Q435.9844,19.8906 435.3438,20.2188 Q434.7188,20.5469 434.2188,21.2969 Q433.7344,22.0469 433.7344,23.0781 L433.7344,24.1719 Q433.7344,25.4063 434.625,26.2344 Q435.5156,27.0469 437.1094,27.0469 Q438.0469,27.0469 438.7031,26.7969 Q439.0938,26.6406 439.5156,26.2031 Q439.7813,25.9375 439.9219,25.8594 Q440.0781,25.7813 440.2813,25.7813 Q440.6094,25.7813 440.8594,26.0469 Q441.125,26.2969 441.125,26.6406 Q441.125,26.9844 440.7813,27.3906 Q440.2813,27.9688 439.4844,28.2969 Q438.4063,28.75 437.1094,28.75 Q435.5938,28.75 434.3906,28.125 Q433.4063,27.625 432.7188,26.5625 Q432.0313,25.4844 432.0313,24.2031 L432.0313,23.0469 Q432.0313,21.7188 432.6406,20.5781 Q433.2656,19.4219 434.3594,18.8125 Q435.4531,18.1875 436.6875,18.1875 Q437.4219,18.1875 438.0625,18.3594 Q438.7188,18.5156 439.2656,18.875 Z " fill="#000000"/><text fill="#000000" font-family="sans-serif" font-size="14" lengthAdjust="spacing" textLength="130" x="450.5" y="28.7969">RegistCollaboratorUI</text><line style="stroke:#181818;stroke-width:0.5;" x1="422.5" x2="582.5" y1="39" y2="39"/><line style="stroke:#181818;stroke-width:0.5;" x1="422.5" x2="582.5" y1="47" y2="47"/></g><!--class RegistCollaboratorController--><g id="elem_RegistCollaboratorController"><rect codeLine="16" fill="#F1F1F1" height="103.8633" id="RegistCollaboratorController" rx="2.5" ry="2.5" style="stroke:#181818;stroke-width:0.5;" width="212" x="396.5" y="115"/><ellipse cx="411.5" cy="131" fill="#ADD1B2" rx="11" ry="11" style="stroke:#181818;stroke-width:1.0;"/><path d="M414.2656,126.875 Q414.4219,126.6563 414.6094,126.5469 Q414.7969,126.4375 415.0156,126.4375 Q415.3906,126.4375 415.625,126.7031 Q415.8594,126.9531 415.8594,127.5625 L415.8594,129.0156 Q415.8594,129.625 415.625,129.8906 Q415.3906,130.1563 415.0156,130.1563 Q414.6719,130.1563 414.4688,129.9531 Q414.2656,129.7656 414.1563,129.25 Q414.1094,128.8906 413.9219,128.7031 Q413.5938,128.3281 412.9844,128.1094 Q412.375,127.8906 411.75,127.8906 Q410.9844,127.8906 410.3438,128.2188 Q409.7188,128.5469 409.2188,129.2969 Q408.7344,130.0469 408.7344,131.0781 L408.7344,132.1719 Q408.7344,133.4063 409.625,134.2344 Q410.5156,135.0469 412.1094,135.0469 Q413.0469,135.0469 413.7031,134.7969 Q414.0938,134.6406 414.5156,134.2031 Q414.7813,133.9375 414.9219,133.8594 Q415.0781,133.7813 415.2813,133.7813 Q415.6094,133.7813 415.8594,134.0469 Q416.125,134.2969 416.125,134.6406 Q416.125,134.9844 415.7813,135.3906 Q415.2813,135.9688 414.4844,136.2969 Q413.4063,136.75 412.1094,136.75 Q410.5938,136.75 409.3906,136.125 Q408.4063,135.625 407.7188,134.5625 Q407.0313,133.4844 407.0313,132.2031 L407.0313,131.0469 Q407.0313,129.7188 407.6406,128.5781 Q408.2656,127.4219 409.3594,126.8125 Q410.4531,126.1875 411.6875,126.1875 Q412.4219,126.1875 413.0625,126.3594 Q413.7188,126.5156 414.2656,126.875 Z " fill="#000000"/><text fill="#000000" font-family="sans-serif" font-size="14" lengthAdjust="spacing" textLength="180" x="425.5" y="136.7969">RegistCollaboratorController</text><line style="stroke:#181818;stroke-width:0.5;" x1="397.5" x2="607.5" y1="147" y2="147"/><text fill="#000000" font-family="sans-serif" font-size="14" lengthAdjust="spacing" textLength="79" x="402.5" y="166.1074">-jobSelected</text><line style="stroke:#181818;stroke-width:0.5;" x1="397.5" x2="607.5" y1="173.6211" y2="173.6211"/><text fill="#000000" font-family="sans-serif" font-size="14" lengthAdjust="spacing" textLength="67" x="402.5" y="192.7285">+getJobs()</text><text fill="#000000" font-family="sans-serif" font-size="14" lengthAdjust="spacing" textLength="72" x="402.5" y="211.3496">+storeJob()</text></g><!--class Repositories--><g id="elem_Repositories"><rect codeLine="23" fill="#F1F1F1" height="122.4844" id="Repositories" rx="2.5" ry="2.5" style="stroke:#181818;stroke-width:0.5;" width="203" x="7" y="279"/><ellipse cx="64.75" cy="295" fill="#ADD1B2" rx="11" ry="11" style="stroke:#181818;stroke-width:1.0;"/><path d="M67.5156,290.875 Q67.6719,290.6563 67.8594,290.5469 Q68.0469,290.4375 68.2656,290.4375 Q68.6406,290.4375 68.875,290.7031 Q69.1094,290.9531 69.1094,291.5625 L69.1094,293.0156 Q69.1094,293.625 68.875,293.8906 Q68.6406,294.1563 68.2656,294.1563 Q67.9219,294.1563 67.7188,293.9531 Q67.5156,293.7656 67.4063,293.25 Q67.3594,292.8906 67.1719,292.7031 Q66.8438,292.3281 66.2344,292.1094 Q65.625,291.8906 65,291.8906 Q64.2344,291.8906 63.5938,292.2188 Q62.9688,292.5469 62.4688,293.2969 Q61.9844,294.0469 61.9844,295.0781 L61.9844,296.1719 Q61.9844,297.4063 62.875,298.2344 Q63.7656,299.0469 65.3594,299.0469 Q66.2969,299.0469 66.9531,298.7969 Q67.3438,298.6406 67.7656,298.2031 Q68.0313,297.9375 68.1719,297.8594 Q68.3281,297.7813 68.5313,297.7813 Q68.8594,297.7813 69.1094,298.0469 Q69.375,298.2969 69.375,298.6406 Q69.375,298.9844 69.0313,299.3906 Q68.5313,299.9688 67.7344,300.2969 Q66.6563,300.75 65.3594,300.75 Q63.8438,300.75 62.6406,300.125 Q61.6563,299.625 60.9688,298.5625 Q60.2813,297.4844 60.2813,296.2031 L60.2813,295.0469 Q60.2813,293.7188 60.8906,292.5781 Q61.5156,291.4219 62.6094,290.8125 Q63.7031,290.1875 64.9375,290.1875 Q65.6719,290.1875 66.3125,290.3594 Q66.9688,290.5156 67.5156,290.875 Z " fill="#000000"/><text fill="#000000" font-family="sans-serif" font-size="14" lengthAdjust="spacing" textLength="79" x="85.25" y="300.7969">Repositories</text><line style="stroke:#181818;stroke-width:0.5;" x1="8" x2="209" y1="311" y2="311"/><line style="stroke:#181818;stroke-width:0.5;" x1="8" x2="209" y1="319" y2="319"/><text fill="#000000" font-family="sans-serif" font-size="14" lengthAdjust="spacing" textLength="94" x="13" y="338.1074">-Repositories()</text><text fill="#000000" font-family="sans-serif" font-size="14" lengthAdjust="spacing" textLength="182" x="13" y="356.7285">+getInstance() : Repositories</text><text fill="#000000" font-family="sans-serif" font-size="14" lengthAdjust="spacing" textLength="191" x="13" y="375.3496">+getRegistedJobsRepository()</text><text fill="#000000" font-family="sans-serif" font-size="14" lengthAdjust="spacing" textLength="191" x="13" y="393.9707">+getCollaboratorsRepository()</text></g><!--class CollaboratorsRepository--><g id="elem_CollaboratorsRepository"><rect codeLine="30" fill="#F1F1F1" height="103.8633" id="CollaboratorsRepository" rx="2.5" ry="2.5" style="stroke:#181818;stroke-width:0.5;" width="407" x="465" y="288"/><ellipse cx="587.75" cy="304" fill="#ADD1B2" rx="11" ry="11" style="stroke:#181818;stroke-width:1.0;"/><path d="M590.5156,299.875 Q590.6719,299.6563 590.8594,299.5469 Q591.0469,299.4375 591.2656,299.4375 Q591.6406,299.4375 591.875,299.7031 Q592.1094,299.9531 592.1094,300.5625 L592.1094,302.0156 Q592.1094,302.625 591.875,302.8906 Q591.6406,303.1563 591.2656,303.1563 Q590.9219,303.1563 590.7188,302.9531 Q590.5156,302.7656 590.4063,302.25 Q590.3594,301.8906 590.1719,301.7031 Q589.8438,301.3281 589.2344,301.1094 Q588.625,300.8906 588,300.8906 Q587.2344,300.8906 586.5938,301.2188 Q585.9688,301.5469 585.4688,302.2969 Q584.9844,303.0469 584.9844,304.0781 L584.9844,305.1719 Q584.9844,306.4063 585.875,307.2344 Q586.7656,308.0469 588.3594,308.0469 Q589.2969,308.0469 589.9531,307.7969 Q590.3438,307.6406 590.7656,307.2031 Q591.0313,306.9375 591.1719,306.8594 Q591.3281,306.7813 591.5313,306.7813 Q591.8594,306.7813 592.1094,307.0469 Q592.375,307.2969 592.375,307.6406 Q592.375,307.9844 592.0313,308.3906 Q591.5313,308.9688 590.7344,309.2969 Q589.6563,309.75 588.3594,309.75 Q586.8438,309.75 585.6406,309.125 Q584.6563,308.625 583.9688,307.5625 Q583.2813,306.4844 583.2813,305.2031 L583.2813,304.0469 Q583.2813,302.7188 583.8906,301.5781 Q584.5156,300.4219 585.6094,299.8125 Q586.7031,299.1875 587.9375,299.1875 Q588.6719,299.1875 589.3125,299.3594 Q589.9688,299.5156 590.5156,299.875 Z " fill="#000000"/><text fill="#000000" font-family="sans-serif" font-size="14" lengthAdjust="spacing" textLength="153" x="608.25" y="309.7969">CollaboratorsRepository</text><line style="stroke:#181818;stroke-width:0.5;" x1="466" x2="871" y1="320" y2="320"/><text fill="#000000" font-family="sans-serif" font-size="14" lengthAdjust="spacing" textLength="155" x="471" y="339.1074">-collaboratorsRepository</text><line style="stroke:#181818;stroke-width:0.5;" x1="466" x2="871" y1="346.6211" y2="346.6211"/><text fill="#000000" font-family="sans-serif" font-size="14" lengthAdjust="spacing" textLength="370" x="471" y="365.7285">+addCollaborator(jobSelected,fundamentalCharacteristics)</text><text fill="#000000" font-family="sans-serif" font-size="14" lengthAdjust="spacing" textLength="395" x="471" y="384.3496">+validateCollaborator(jobSelected,fundamentalCharacteristics)</text></g><!--class RegistedJobsRepository--><g id="elem_RegistedJobsRepository"><rect codeLine="37" fill="#F1F1F1" height="85.2422" id="RegistedJobsRepository" rx="2.5" ry="2.5" style="stroke:#181818;stroke-width:0.5;" width="185" x="245" y="297.5"/><ellipse cx="260" cy="313.5" fill="#ADD1B2" rx="11" ry="11" style="stroke:#181818;stroke-width:1.0;"/><path d="M262.7656,309.375 Q262.9219,309.1563 263.1094,309.0469 Q263.2969,308.9375 263.5156,308.9375 Q263.8906,308.9375 264.125,309.2031 Q264.3594,309.4531 264.3594,310.0625 L264.3594,311.5156 Q264.3594,312.125 264.125,312.3906 Q263.8906,312.6563 263.5156,312.6563 Q263.1719,312.6563 262.9688,312.4531 Q262.7656,312.2656 262.6563,311.75 Q262.6094,311.3906 262.4219,311.2031 Q262.0938,310.8281 261.4844,310.6094 Q260.875,310.3906 260.25,310.3906 Q259.4844,310.3906 258.8438,310.7188 Q258.2188,311.0469 257.7188,311.7969 Q257.2344,312.5469 257.2344,313.5781 L257.2344,314.6719 Q257.2344,315.9063 258.125,316.7344 Q259.0156,317.5469 260.6094,317.5469 Q261.5469,317.5469 262.2031,317.2969 Q262.5938,317.1406 263.0156,316.7031 Q263.2813,316.4375 263.4219,316.3594 Q263.5781,316.2813 263.7813,316.2813 Q264.1094,316.2813 264.3594,316.5469 Q264.625,316.7969 264.625,317.1406 Q264.625,317.4844 264.2813,317.8906 Q263.7813,318.4688 262.9844,318.7969 Q261.9063,319.25 260.6094,319.25 Q259.0938,319.25 257.8906,318.625 Q256.9063,318.125 256.2188,317.0625 Q255.5313,315.9844 255.5313,314.7031 L255.5313,313.5469 Q255.5313,312.2188 256.1406,311.0781 Q256.7656,309.9219 257.8594,309.3125 Q258.9531,308.6875 260.1875,308.6875 Q260.9219,308.6875 261.5625,308.8594 Q262.2188,309.0156 262.7656,309.375 Z " fill="#000000"/><text fill="#000000" font-family="sans-serif" font-size="14" lengthAdjust="spacing" textLength="153" x="274" y="319.2969">RegistedJobsRepository</text><line style="stroke:#181818;stroke-width:0.5;" x1="246" x2="429" y1="329.5" y2="329.5"/><text fill="#000000" font-family="sans-serif" font-size="14" lengthAdjust="spacing" textLength="158" x="251" y="348.6074">-RegistedJobsRepository</text><line style="stroke:#181818;stroke-width:0.5;" x1="246" x2="429" y1="356.1211" y2="356.1211"/><text fill="#000000" font-family="sans-serif" font-size="14" lengthAdjust="spacing" textLength="82" x="251" y="375.2285">+getAllJobs()</text></g><!--class Collaborator--><g id="elem_Collaborator"><rect codeLine="42" fill="#F1F1F1" height="85.2422" id="Collaborator" rx="2.5" ry="2.5" style="stroke:#181818;stroke-width:0.5;" width="423" x="907" y="297.5"/><ellipse cx="1075.25" cy="313.5" fill="#ADD1B2" rx="11" ry="11" style="stroke:#181818;stroke-width:1.0;"/><path d="M1078.0156,309.375 Q1078.1719,309.1563 1078.3594,309.0469 Q1078.5469,308.9375 1078.7656,308.9375 Q1079.1406,308.9375 1079.375,309.2031 Q1079.6094,309.4531 1079.6094,310.0625 L1079.6094,311.5156 Q1079.6094,312.125 1079.375,312.3906 Q1079.1406,312.6563 1078.7656,312.6563 Q1078.4219,312.6563 1078.2188,312.4531 Q1078.0156,312.2656 1077.9063,311.75 Q1077.8594,311.3906 1077.6719,311.2031 Q1077.3438,310.8281 1076.7344,310.6094 Q1076.125,310.3906 1075.5,310.3906 Q1074.7344,310.3906 1074.0938,310.7188 Q1073.4688,311.0469 1072.9688,311.7969 Q1072.4844,312.5469 1072.4844,313.5781 L1072.4844,314.6719 Q1072.4844,315.9063 1073.375,316.7344 Q1074.2656,317.5469 1075.8594,317.5469 Q1076.7969,317.5469 1077.4531,317.2969 Q1077.8438,317.1406 1078.2656,316.7031 Q1078.5313,316.4375 1078.6719,316.3594 Q1078.8281,316.2813 1079.0313,316.2813 Q1079.3594,316.2813 1079.6094,316.5469 Q1079.875,316.7969 1079.875,317.1406 Q1079.875,317.4844 1079.5313,317.8906 Q1079.0313,318.4688 1078.2344,318.7969 Q1077.1563,319.25 1075.8594,319.25 Q1074.3438,319.25 1073.1406,318.625 Q1072.1563,318.125 1071.4688,317.0625 Q1070.7813,315.9844 1070.7813,314.7031 L1070.7813,313.5469 Q1070.7813,312.2188 1071.3906,311.0781 Q1072.0156,309.9219 1073.1094,309.3125 Q1074.2031,308.6875 1075.4375,308.6875 Q1076.1719,308.6875 1076.8125,308.8594 Q1077.4688,309.0156 1078.0156,309.375 Z " fill="#000000"/><text fill="#000000" font-family="sans-serif" font-size="14" lengthAdjust="spacing" textLength="78" x="1095.75" y="319.2969">Collaborator</text><line style="stroke:#181818;stroke-width:0.5;" x1="908" x2="1329" y1="329.5" y2="329.5"/><text fill="#000000" font-family="sans-serif" font-size="14" lengthAdjust="spacing" textLength="87" x="913" y="348.6074">-collaborators</text><line style="stroke:#181818;stroke-width:0.5;" x1="908" x2="1329" y1="356.1211" y2="356.1211"/><text fill="#000000" font-family="sans-serif" font-size="14" lengthAdjust="spacing" textLength="411" x="913" y="375.2285">+validatefundamentalCharacteristics(fundamentalCharacteristics)</text></g><!--link RegistCollaboratorUI to RegistCollaboratorController--><g id="link_RegistCollaboratorUI_RegistCollaboratorController"><path codeLine="47" d="M502.5,55.04 C502.5,71.5 502.5,94.3 502.5,114.96 " fill="none" id="RegistCollaboratorUI-RegistCollaboratorController" style="stroke:#181818;stroke-width:1.0;"/></g><!--link RegistCollaboratorController to Repositories--><g id="link_RegistCollaboratorController_Repositories"><path codeLine="49" d="M396.18,210.92 C318.79,242.15 227.5,279 227.5,279 C227.5,279 220.63,282.46 210.2,287.72 " fill="none" id="RegistCollaboratorController-Repositories" style="stroke:#181818;stroke-width:1.0;"/></g><!--link RegistCollaboratorController to CollaboratorsRepository--><g id="link_RegistCollaboratorController_CollaboratorsRepository"><path codeLine="51" d="M552.31,219.31 C573.32,240.95 597.72,266.09 618.73,287.73 " fill="none" id="RegistCollaboratorController-CollaboratorsRepository" style="stroke:#181818;stroke-width:1.0;"/></g><!--link RegistCollaboratorController to RegistedJobsRepository--><g id="link_RegistCollaboratorController_RegistedJobsRepository"><path codeLine="53" d="M452.99,219.31 C428.88,244.29 400.27,273.95 377.56,297.49 " fill="none" id="RegistCollaboratorController-RegistedJobsRepository" style="stroke:#181818;stroke-width:1.0;"/></g><!--link RegistCollaboratorController to Collaborator--><g id="link_RegistCollaboratorController_Collaborator"><path codeLine="55" d="M608.74,197.49 C708.12,225.08 857.54,266.56 968.95,297.49 " fill="none" id="RegistCollaboratorController-Collaborator" style="stroke:#181818;stroke-width:1.0;"/></g><!--reverse link Repositories to CollaboratorsRepository--><g id="link_Repositories_CollaboratorsRepository"><path codeLine="57" d="M210.2858,272.1455 C234.9858,255.6855 245,249 245,249 C245,249 430,249 430,249 C430,249 478.76,267.6 532.18,287.99 " fill="none" id="Repositories-backto-CollaboratorsRepository" style="stroke:#181818;stroke-width:1.0;"/><polygon fill="#181818" points="200.3,278.8,207.5111,278.8013,210.2858,272.1455,203.0747,272.1441,200.3,278.8" style="stroke:#181818;stroke-width:1.0;"/></g><!--reverse link Repositories to RegistedJobsRepository--><g id="link_Repositories_RegistedJobsRepository"><path codeLine="59" d="M222.25,340 C233.7,340 234.88,340 244.96,340 " fill="none" id="Repositories-backto-RegistedJobsRepository" style="stroke:#181818;stroke-width:1.0;"/><polygon fill="#181818" points="210.25,340,216.25,344,222.25,340,216.25,336,210.25,340" style="stroke:#181818;stroke-width:1.0;"/></g><!--reverse link CollaboratorsRepository to Collaborator--><g id="link_CollaboratorsRepository_Collaborator"><path codeLine="61" d="M884.23,340 C895.49,340 895.46,340 906.98,340 " fill="none" id="CollaboratorsRepository-backto-Collaborator" style="stroke:#181818;stroke-width:1.0;"/><polygon fill="none" points="872.23,340,878.23,344,884.23,340,878.23,336,872.23,340" style="stroke:#181818;stroke-width:1.0;"/></g><!--SRC=[dLFBKiCm3BpxAtHh2dI6CxTEJ-L8XmzmR3KnTQoChS84Xd_7wIDrCaaBv2RjIbgjbLdO6LTBBokeo94gFLK8xFSeBaWjrKuMkE768dXKB5rXKq8efQOFumhOIXjIn1g7tDG8DTcc3SHi12JF998gPMK8IsPlyZtZMf7Rc4-4Ho5c5hSCJE1DKJ9eqyenv8GurC0B5YRmYgoLENd9v5_Nuak8xsd2YXpx6AEFH8ZV0juetw2DdL4VClTG83zJ7hBvAGwn46Cc9fBMDGKJ0OC1pgtIP5STkwrTY3OgpERmr2DTA4UfgDl17QD9cwHhz2cTg0bAfq-DuwSPKkkqGPOOyx3TEoqhT2pjgepF5fC-wZKgd1M-IskqPFnNYxX1xyc6FYGEZy4NavRMdfvkr9Hn9mORJ0lDRkmmTf2mM5o_Gt4DFLOd1tEJFN43lnapQksV1hRivB-ukogdJvmQFtNJD9Zy0m00]--></g></svg>