<?xml version="1.0" encoding="us-ascii" standalone="no"?><svg xmlns="http://www.w3.org/2000/svg" xmlns:xlink="http://www.w3.org/1999/xlink" contentStyleType="text/css" height="1433px" preserveAspectRatio="none" style="width:2047px;height:1433px;background:#FFFFFF;" version="1.1" viewBox="0 0 2047 1433" width="2047px" zoomAndPan="magnify"><defs/><g><rect fill="#FFFFFF" height="1238.6309" style="stroke:#181818;stroke-width:1.0;" width="10" x="106" y="93.6211"/><rect fill="#FFFFFF" height="414.1133" style="stroke:#181818;stroke-width:1.0;" width="10" x="449" y="116.9121"/><rect fill="#FFFFFF" height="234.3281" style="stroke:#181818;stroke-width:1.0;" width="10" x="449" y="562.3164"/><rect fill="#FFFFFF" height="389.8613" style="stroke:#181818;stroke-width:1.0;" width="10" x="449" y="879.8086"/><rect fill="#FFFFFF" height="31.291" style="stroke:#181818;stroke-width:1.0;" width="10" x="449" y="1300.9609"/><rect fill="#FFFFFF" height="281.6191" style="stroke:#181818;stroke-width:1.0;" width="10" x="649" y="191.8242"/><rect fill="#FFFFFF" height="119.873" style="stroke:#181818;stroke-width:1.0;" width="10" x="649" y="593.6074"/><rect fill="#FFFFFF" height="42.291" style="stroke:#181818;stroke-width:1.0;" width="10" x="654" y="632.8984"/><rect fill="#FFFFFF" height="327.2793" style="stroke:#181818;stroke-width:1.0;" width="10" x="649" y="911.0996"/><rect fill="#FFFFFF" height="31.291" style="stroke:#181818;stroke-width:1.0;" width="10" x="806.5" y="223.1152"/><rect fill="#FFFFFF" height="31.291" style="stroke:#181818;stroke-width:1.0;" width="10" x="913.5" y="285.6973"/><rect fill="#FFFFFF" height="31.291" style="stroke:#181818;stroke-width:1.0;" width="10" x="913.5" y="348.2793"/><rect fill="#FFFFFF" height="31.291" style="stroke:#181818;stroke-width:1.0;" width="10" x="1057.5" y="410.8613"/><rect fill="#FFFFFF" height="264.6973" style="stroke:#181818;stroke-width:1.0;" width="10" x="1238.5" y="942.3906"/><rect fill="#FFFFFF" height="96.5332" style="stroke:#181818;stroke-width:1.0;" width="10" x="1629.5" y="983.6816"/><rect fill="none" height="688.3535" style="stroke:#000000;stroke-width:1.5;" width="2031.5" x="10" y="488.4434"/><line style="stroke:#181818;stroke-width:0.5;stroke-dasharray:5.0,5.0;" x1="111" x2="111" y1="83.6211" y2="1350.252"/><line style="stroke:#181818;stroke-width:0.5;stroke-dasharray:5.0,5.0;" x1="454" x2="454" y1="83.6211" y2="1350.252"/><line style="stroke:#181818;stroke-width:0.5;stroke-dasharray:5.0,5.0;" x1="654" x2="654" y1="156.7227" y2="1350.252"/><line style="stroke:#181818;stroke-width:0.5;stroke-dasharray:5.0,5.0;" x1="811" x2="811" y1="83.6211" y2="1350.252"/><line style="stroke:#181818;stroke-width:0.5;stroke-dasharray:5.0,5.0;" x1="918" x2="918" y1="83.6211" y2="1350.252"/><line style="stroke:#181818;stroke-width:0.5;stroke-dasharray:5.0,5.0;" x1="1062" x2="1062" y1="83.6211" y2="1350.252"/><line style="stroke:#181818;stroke-width:0.5;stroke-dasharray:5.0,5.0;" x1="1243" x2="1243" y1="83.6211" y2="1350.252"/><line style="stroke:#181818;stroke-width:0.5;stroke-dasharray:5.0,5.0;" x1="1634.5" x2="1634.5" y1="991.5117" y2="1350.252"/><text fill="#000000" font-family="sans-serif" font-size="14" lengthAdjust="spacing" textLength="176" x="20" y="80.1074">Human Resources Manager</text><ellipse cx="111" cy="13.5" fill="#E3E3E3" rx="8" ry="8" style="stroke:#181818;stroke-width:0.5;"/><path d="M111,21.5 L111,48.5 M98,29.5 L124,29.5 M111,48.5 L98,63.5 M111,48.5 L124,63.5 " fill="none" style="stroke:#181818;stroke-width:0.5;"/><text fill="#000000" font-family="sans-serif" font-size="14" lengthAdjust="spacing" textLength="176" x="20" y="1364.3594">Human Resources Manager</text><ellipse cx="111" cy="1376.373" fill="#E3E3E3" rx="8" ry="8" style="stroke:#181818;stroke-width:0.5;"/><path d="M111,1384.373 L111,1411.373 M98,1392.373 L124,1392.373 M111,1411.373 L98,1426.373 M111,1411.373 L124,1426.373 " fill="none" style="stroke:#181818;stroke-width:0.5;"/><rect fill="#E3E3E3" height="32.6211" rx="2.5" ry="2.5" style="stroke:#181818;stroke-width:0.5;" width="148" x="380" y="50"/><text fill="#000000" font-family="sans-serif" font-size="14" lengthAdjust="spacing" textLength="134" x="387" y="72.1074">:RegistCollaboratorUI</text><rect fill="#E3E3E3" height="32.6211" rx="2.5" ry="2.5" style="stroke:#181818;stroke-width:0.5;" width="148" x="380" y="1349.252"/><text fill="#000000" font-family="sans-serif" font-size="14" lengthAdjust="spacing" textLength="134" x="387" y="1371.3594">:RegistCollaboratorUI</text><rect fill="#E3E3E3" height="32.6211" rx="2.5" ry="2.5" style="stroke:#181818;stroke-width:0.5;" width="198" x="555" y="1349.252"/><text fill="#000000" font-family="sans-serif" font-size="14" lengthAdjust="spacing" textLength="184" x="562" y="1371.3594">:RegistCollaboratorController</text><rect fill="#E3E3E3" height="32.6211" rx="2.5" ry="2.5" style="stroke:#181818;stroke-width:0.5;" width="97" x="763" y="50"/><text fill="#000000" font-family="sans-serif" font-size="14" lengthAdjust="spacing" textLength="83" x="770" y="72.1074">:Repositories</text><rect fill="#E3E3E3" height="32.6211" rx="2.5" ry="2.5" style="stroke:#181818;stroke-width:0.5;" width="97" x="763" y="1349.252"/><text fill="#000000" font-family="sans-serif" font-size="14" lengthAdjust="spacing" textLength="83" x="770" y="1371.3594">:Repositories</text><rect fill="#E3E3E3" height="51.2422" rx="2.5" ry="2.5" style="stroke:#181818;stroke-width:0.5;" width="97" x="870" y="31.3789"/><text fill="#000000" font-family="sans-serif" font-size="14" lengthAdjust="spacing" textLength="74" x="881.5" y="53.4863">repositories</text><text fill="#000000" font-family="sans-serif" font-size="14" lengthAdjust="spacing" textLength="83" x="877" y="72.1074">:Repositories</text><rect fill="#E3E3E3" height="51.2422" rx="2.5" ry="2.5" style="stroke:#181818;stroke-width:0.5;" width="97" x="870" y="1349.252"/><text fill="#000000" font-family="sans-serif" font-size="14" lengthAdjust="spacing" textLength="74" x="881.5" y="1371.3594">repositories</text><text fill="#000000" font-family="sans-serif" font-size="14" lengthAdjust="spacing" textLength="83" x="877" y="1389.9805">:Repositories</text><rect fill="#E3E3E3" height="51.2422" rx="2.5" ry="2.5" style="stroke:#181818;stroke-width:0.5;" width="171" x="977" y="31.3789"/><text fill="#000000" font-family="sans-serif" font-size="14" lengthAdjust="spacing" textLength="157" x="984" y="53.4863">RegistedJobsRepository:</text><text fill="#000000" font-family="sans-serif" font-size="14" lengthAdjust="spacing" textLength="153" x="986" y="72.1074">RegistedJobsRepository</text><rect fill="#E3E3E3" height="51.2422" rx="2.5" ry="2.5" style="stroke:#181818;stroke-width:0.5;" width="171" x="977" y="1349.252"/><text fill="#000000" font-family="sans-serif" font-size="14" lengthAdjust="spacing" textLength="157" x="984" y="1371.3594">RegistedJobsRepository:</text><text fill="#000000" font-family="sans-serif" font-size="14" lengthAdjust="spacing" textLength="153" x="986" y="1389.9805">RegistedJobsRepository</text><rect fill="#E3E3E3" height="51.2422" rx="2.5" ry="2.5" style="stroke:#181818;stroke-width:0.5;" width="171" x="1158" y="31.3789"/><text fill="#000000" font-family="sans-serif" font-size="14" lengthAdjust="spacing" textLength="157" x="1165" y="53.4863">CollaboratorsRepository:</text><text fill="#000000" font-family="sans-serif" font-size="14" lengthAdjust="spacing" textLength="153" x="1167" y="72.1074">CollaboratorsRepository</text><rect fill="#E3E3E3" height="51.2422" rx="2.5" ry="2.5" style="stroke:#181818;stroke-width:0.5;" width="171" x="1158" y="1349.252"/><text fill="#000000" font-family="sans-serif" font-size="14" lengthAdjust="spacing" textLength="157" x="1165" y="1371.3594">CollaboratorsRepository:</text><text fill="#000000" font-family="sans-serif" font-size="14" lengthAdjust="spacing" textLength="153" x="1167" y="1389.9805">CollaboratorsRepository</text><rect fill="#E3E3E3" height="51.2422" rx="2.5" ry="2.5" style="stroke:#181818;stroke-width:0.5;" width="186" x="1541.5" y="1349.252"/><text fill="#000000" font-family="sans-serif" font-size="14" lengthAdjust="spacing" textLength="172" x="1548.5" y="1371.3594">fundamentalCharacteristics</text><text fill="#000000" font-family="sans-serif" font-size="14" lengthAdjust="spacing" textLength="82" x="1593.5" y="1389.9805">:Collaborator</text><rect fill="#FFFFFF" height="1238.6309" style="stroke:#181818;stroke-width:1.0;" width="10" x="106" y="93.6211"/><rect fill="#FFFFFF" height="414.1133" style="stroke:#181818;stroke-width:1.0;" width="10" x="449" y="116.9121"/><rect fill="#FFFFFF" height="234.3281" style="stroke:#181818;stroke-width:1.0;" width="10" x="449" y="562.3164"/><rect fill="#FFFFFF" height="389.8613" style="stroke:#181818;stroke-width:1.0;" width="10" x="449" y="879.8086"/><rect fill="#FFFFFF" height="31.291" style="stroke:#181818;stroke-width:1.0;" width="10" x="449" y="1300.9609"/><rect fill="#FFFFFF" height="281.6191" style="stroke:#181818;stroke-width:1.0;" width="10" x="649" y="191.8242"/><rect fill="#FFFFFF" height="119.873" style="stroke:#181818;stroke-width:1.0;" width="10" x="649" y="593.6074"/><rect fill="#FFFFFF" height="42.291" style="stroke:#181818;stroke-width:1.0;" width="10" x="654" y="632.8984"/><rect fill="#FFFFFF" height="327.2793" style="stroke:#181818;stroke-width:1.0;" width="10" x="649" y="911.0996"/><rect fill="#FFFFFF" height="31.291" style="stroke:#181818;stroke-width:1.0;" width="10" x="806.5" y="223.1152"/><rect fill="#FFFFFF" height="31.291" style="stroke:#181818;stroke-width:1.0;" width="10" x="913.5" y="285.6973"/><rect fill="#FFFFFF" height="31.291" style="stroke:#181818;stroke-width:1.0;" width="10" x="913.5" y="348.2793"/><rect fill="#FFFFFF" height="31.291" style="stroke:#181818;stroke-width:1.0;" width="10" x="1057.5" y="410.8613"/><rect fill="#FFFFFF" height="264.6973" style="stroke:#181818;stroke-width:1.0;" width="10" x="1238.5" y="942.3906"/><rect fill="#FFFFFF" height="96.5332" style="stroke:#181818;stroke-width:1.0;" width="10" x="1629.5" y="983.6816"/><polygon fill="#181818" points="437,112.9121,447,116.9121,437,120.9121,441,116.9121" style="stroke:#181818;stroke-width:1.0;"/><line style="stroke:#181818;stroke-width:1.0;" x1="116" x2="443" y1="116.9121" y2="116.9121"/><text fill="#000000" font-family="sans-serif" font-size="13" font-weight="bold" lengthAdjust="spacing" textLength="7" x="123" y="111.6494">1</text><text fill="#000000" font-family="sans-serif" font-size="13" lengthAdjust="spacing" textLength="188" x="134" y="111.6494">asks to regist a new collaborator</text><polygon fill="#181818" points="543,144.2031,553,148.2031,543,152.2031,547,148.2031" style="stroke:#181818;stroke-width:1.0;"/><line style="stroke:#181818;stroke-width:1.0;" x1="459" x2="549" y1="148.2031" y2="148.2031"/><text fill="#000000" font-family="sans-serif" font-size="13" font-weight="bold" lengthAdjust="spacing" textLength="7" x="466" y="142.9404">2</text><text fill="#000000" font-family="sans-serif" font-size="13" lengthAdjust="spacing" textLength="36" x="477" y="142.9404">create</text><rect fill="#E3E3E3" height="32.6211" rx="2.5" ry="2.5" style="stroke:#181818;stroke-width:0.5;" width="198" x="555" y="124.9121"/><text fill="#000000" font-family="sans-serif" font-size="14" lengthAdjust="spacing" textLength="184" x="562" y="147.0195">:RegistCollaboratorController</text><polygon fill="#181818" points="637,187.8242,647,191.8242,637,195.8242,641,191.8242" style="stroke:#181818;stroke-width:1.0;"/><line style="stroke:#181818;stroke-width:1.0;" x1="459" x2="643" y1="191.8242" y2="191.8242"/><text fill="#000000" font-family="sans-serif" font-size="13" font-weight="bold" lengthAdjust="spacing" textLength="7" x="466" y="186.5615">3</text><text fill="#000000" font-family="sans-serif" font-size="13" lengthAdjust="spacing" textLength="53" x="477" y="186.5615">getJobs()</text><polygon fill="#181818" points="794.5,219.1152,804.5,223.1152,794.5,227.1152,798.5,223.1152" style="stroke:#181818;stroke-width:1.0;"/><line style="stroke:#181818;stroke-width:1.0;" x1="659" x2="800.5" y1="223.1152" y2="223.1152"/><text fill="#000000" font-family="sans-serif" font-size="13" font-weight="bold" lengthAdjust="spacing" textLength="7" x="666" y="217.8525">4</text><text fill="#000000" font-family="sans-serif" font-size="13" lengthAdjust="spacing" textLength="75" x="677" y="217.8525">getInstance()</text><polygon fill="#181818" points="670,250.4063,660,254.4063,670,258.4063,666,254.4063" style="stroke:#181818;stroke-width:1.0;"/><line style="stroke:#181818;stroke-width:1.0;stroke-dasharray:2.0,2.0;" x1="664" x2="810.5" y1="254.4063" y2="254.4063"/><text fill="#000000" font-family="sans-serif" font-size="13" font-weight="bold" lengthAdjust="spacing" textLength="7" x="676" y="249.1436">5</text><text fill="#000000" font-family="sans-serif" font-size="13" lengthAdjust="spacing" textLength="67" x="687" y="249.1436">repositories</text><polygon fill="#181818" points="901.5,281.6973,911.5,285.6973,901.5,289.6973,905.5,285.6973" style="stroke:#181818;stroke-width:1.0;"/><line style="stroke:#181818;stroke-width:1.0;" x1="659" x2="907.5" y1="285.6973" y2="285.6973"/><text fill="#000000" font-family="sans-serif" font-size="13" font-weight="bold" lengthAdjust="spacing" textLength="7" x="666" y="280.4346">6</text><text fill="#000000" font-family="sans-serif" font-size="13" lengthAdjust="spacing" textLength="166" x="677" y="280.4346">getRegistedJobsRepository()</text><polygon fill="#181818" points="670,312.9883,660,316.9883,670,320.9883,666,316.9883" style="stroke:#181818;stroke-width:1.0;"/><line style="stroke:#181818;stroke-width:1.0;stroke-dasharray:2.0,2.0;" x1="664" x2="917.5" y1="316.9883" y2="316.9883"/><text fill="#000000" font-family="sans-serif" font-size="13" font-weight="bold" lengthAdjust="spacing" textLength="7" x="676" y="311.7256">7</text><text fill="#000000" font-family="sans-serif" font-size="13" lengthAdjust="spacing" textLength="135" x="687" y="311.7256">registedJobsRepository</text><polygon fill="#181818" points="901.5,344.2793,911.5,348.2793,901.5,352.2793,905.5,348.2793" style="stroke:#181818;stroke-width:1.0;"/><line style="stroke:#181818;stroke-width:1.0;" x1="659" x2="907.5" y1="348.2793" y2="348.2793"/><text fill="#000000" font-family="sans-serif" font-size="13" font-weight="bold" lengthAdjust="spacing" textLength="7" x="666" y="343.0166">8</text><text fill="#000000" font-family="sans-serif" font-size="13" lengthAdjust="spacing" textLength="164" x="677" y="343.0166">getCollaboratorsRepository()</text><polygon fill="#181818" points="670,375.5703,660,379.5703,670,383.5703,666,379.5703" style="stroke:#181818;stroke-width:1.0;"/><line style="stroke:#181818;stroke-width:1.0;stroke-dasharray:2.0,2.0;" x1="664" x2="917.5" y1="379.5703" y2="379.5703"/><text fill="#000000" font-family="sans-serif" font-size="13" font-weight="bold" lengthAdjust="spacing" textLength="7" x="676" y="374.3076">9</text><text fill="#000000" font-family="sans-serif" font-size="13" lengthAdjust="spacing" textLength="138" x="687" y="374.3076">CollaboratorsRepository</text><polygon fill="#181818" points="1045.5,406.8613,1055.5,410.8613,1045.5,414.8613,1049.5,410.8613" style="stroke:#181818;stroke-width:1.0;"/><line style="stroke:#181818;stroke-width:1.0;" x1="659" x2="1051.5" y1="410.8613" y2="410.8613"/><text fill="#000000" font-family="sans-serif" font-size="13" font-weight="bold" lengthAdjust="spacing" textLength="14" x="666" y="405.5986">10</text><text fill="#000000" font-family="sans-serif" font-size="13" lengthAdjust="spacing" textLength="68" x="684" y="405.5986">getAllJobs()</text><polygon fill="#181818" points="670,438.1523,660,442.1523,670,446.1523,666,442.1523" style="stroke:#181818;stroke-width:1.0;"/><line style="stroke:#181818;stroke-width:1.0;stroke-dasharray:2.0,2.0;" x1="664" x2="1061.5" y1="442.1523" y2="442.1523"/><text fill="#000000" font-family="sans-serif" font-size="13" font-weight="bold" lengthAdjust="spacing" textLength="14" x="676" y="436.8896">11</text><text fill="#000000" font-family="sans-serif" font-size="13" lengthAdjust="spacing" textLength="40" x="694" y="436.8896">allJobs</text><polygon fill="#181818" points="470,469.4434,460,473.4434,470,477.4434,466,473.4434" style="stroke:#181818;stroke-width:1.0;"/><line style="stroke:#181818;stroke-width:1.0;stroke-dasharray:2.0,2.0;" x1="464" x2="653" y1="473.4434" y2="473.4434"/><text fill="#000000" font-family="sans-serif" font-size="13" font-weight="bold" lengthAdjust="spacing" textLength="14" x="476" y="468.1807">12</text><text fill="#000000" font-family="sans-serif" font-size="13" lengthAdjust="spacing" textLength="24" x="494" y="468.1807">jobs</text><path d="M10,488.4434 L83,488.4434 L83,497.7344 L73,507.7344 L10,507.7344 L10,488.4434 " fill="#EEEEEE" style="stroke:#000000;stroke-width:1.5;"/><rect fill="none" height="688.3535" style="stroke:#000000;stroke-width:1.5;" width="2031.5" x="10" y="488.4434"/><text fill="#000000" font-family="sans-serif" font-size="13" font-weight="bold" lengthAdjust="spacing" textLength="28" x="25" y="503.4717">loop</text><text fill="#000000" font-family="sans-serif" font-size="11" font-weight="bold" lengthAdjust="spacing" textLength="90" x="98" y="502.3135">[while intended]</text><polygon fill="#181818" points="127,527.0254,117,531.0254,127,535.0254,123,531.0254" style="stroke:#181818;stroke-width:1.0;"/><line style="stroke:#181818;stroke-width:1.0;stroke-dasharray:2.0,2.0;" x1="121" x2="453" y1="531.0254" y2="531.0254"/><text fill="#000000" font-family="sans-serif" font-size="13" font-weight="bold" lengthAdjust="spacing" textLength="14" x="133" y="525.7627">13</text><text fill="#000000" font-family="sans-serif" font-size="13" lengthAdjust="spacing" textLength="106" x="151" y="525.7627">Shows all the jobs</text><polygon fill="#181818" points="437,558.3164,447,562.3164,437,566.3164,441,562.3164" style="stroke:#181818;stroke-width:1.0;"/><line style="stroke:#181818;stroke-width:1.0;" x1="116" x2="443" y1="562.3164" y2="562.3164"/><text fill="#000000" font-family="sans-serif" font-size="13" font-weight="bold" lengthAdjust="spacing" textLength="14" x="123" y="557.0537">14</text><text fill="#000000" font-family="sans-serif" font-size="13" lengthAdjust="spacing" textLength="69" x="141" y="557.0537">Select a job</text><polygon fill="#181818" points="637,589.6074,647,593.6074,637,597.6074,641,593.6074" style="stroke:#181818;stroke-width:1.0;"/><line style="stroke:#181818;stroke-width:1.0;" x1="459" x2="643" y1="593.6074" y2="593.6074"/><text fill="#000000" font-family="sans-serif" font-size="13" font-weight="bold" lengthAdjust="spacing" textLength="14" x="466" y="588.3447">15</text><text fill="#000000" font-family="sans-serif" font-size="13" lengthAdjust="spacing" textLength="68" x="484" y="588.3447">jobSelected</text><line style="stroke:#181818;stroke-width:1.0;" x1="659" x2="706" y1="619.8984" y2="619.8984"/><line style="stroke:#181818;stroke-width:1.0;" x1="706" x2="706" y1="619.8984" y2="632.8984"/><line style="stroke:#181818;stroke-width:1.0;" x1="665" x2="706" y1="632.8984" y2="632.8984"/><polygon fill="#181818" points="675,628.8984,665,632.8984,675,636.8984,671,632.8984" style="stroke:#181818;stroke-width:1.0;"/><text fill="#000000" font-family="sans-serif" font-size="13" font-weight="bold" lengthAdjust="spacing" textLength="14" x="671" y="614.6357">16</text><text fill="#000000" font-family="sans-serif" font-size="13" lengthAdjust="spacing" textLength="57" x="689" y="614.6357">storeJob()</text><line style="stroke:#181818;stroke-width:1.0;stroke-dasharray:2.0,2.0;" x1="664" x2="706" y1="674.1895" y2="674.1895"/><line style="stroke:#181818;stroke-width:1.0;stroke-dasharray:2.0,2.0;" x1="706" x2="706" y1="674.1895" y2="687.1895"/><line style="stroke:#181818;stroke-width:1.0;stroke-dasharray:2.0,2.0;" x1="659" x2="706" y1="687.1895" y2="687.1895"/><polygon fill="#181818" points="669,683.1895,659,687.1895,669,691.1895,665,687.1895" style="stroke:#181818;stroke-width:1.0;"/><text fill="#000000" font-family="sans-serif" font-size="13" font-weight="bold" lengthAdjust="spacing" textLength="14" x="671" y="668.9268">17</text><text fill="#000000" font-family="sans-serif" font-size="13" lengthAdjust="spacing" textLength="49" x="689" y="668.9268">success</text><polygon fill="#181818" points="470,709.4805,460,713.4805,470,717.4805,466,713.4805" style="stroke:#181818;stroke-width:1.0;"/><line style="stroke:#181818;stroke-width:1.0;stroke-dasharray:2.0,2.0;" x1="464" x2="653" y1="713.4805" y2="713.4805"/><text fill="#000000" font-family="sans-serif" font-size="13" font-weight="bold" lengthAdjust="spacing" textLength="14" x="476" y="708.2178">18</text><text fill="#000000" font-family="sans-serif" font-size="13" lengthAdjust="spacing" textLength="49" x="494" y="708.2178">success</text><polygon fill="#181818" points="127,792.6445,117,796.6445,127,800.6445,123,796.6445" style="stroke:#181818;stroke-width:1.0;"/><line style="stroke:#181818;stroke-width:1.0;stroke-dasharray:2.0,2.0;" x1="121" x2="453" y1="796.6445" y2="796.6445"/><text fill="#000000" font-family="sans-serif" font-size="13" font-weight="bold" lengthAdjust="spacing" textLength="14" x="133" y="765.4453">19</text><text fill="#000000" font-family="sans-serif" font-size="13" lengthAdjust="spacing" textLength="240" x="151" y="739.5088">Requests the fundamental characteristics</text><text fill="#000000" font-family="sans-serif" font-size="13" lengthAdjust="spacing" textLength="274" x="155" y="756.7998">(i.e. name, birth date, admission date, address,</text><text fill="#000000" font-family="sans-serif" font-size="13" lengthAdjust="spacing" textLength="286" x="155" y="774.0908">contact info (mobile and email), taxpayer number,</text><text fill="#000000" font-family="sans-serif" font-size="13" lengthAdjust="spacing" textLength="204" x="151" y="791.3818">ID doc type and respective number)</text><polygon fill="#181818" points="437,875.8086,447,879.8086,437,883.8086,441,879.8086" style="stroke:#181818;stroke-width:1.0;"/><line style="stroke:#181818;stroke-width:1.0;" x1="116" x2="443" y1="879.8086" y2="879.8086"/><text fill="#000000" font-family="sans-serif" font-size="13" font-weight="bold" lengthAdjust="spacing" textLength="14" x="123" y="848.6094">20</text><text fill="#000000" font-family="sans-serif" font-size="13" lengthAdjust="spacing" textLength="220" x="141" y="822.6729">Types the fundamental characteristics</text><text fill="#000000" font-family="sans-serif" font-size="13" lengthAdjust="spacing" textLength="274" x="145" y="839.9639">(i.e. name, birth date, admission date, address,</text><text fill="#000000" font-family="sans-serif" font-size="13" lengthAdjust="spacing" textLength="286" x="145" y="857.2549">contact info (mobile and email), taxpayer number,</text><text fill="#000000" font-family="sans-serif" font-size="13" lengthAdjust="spacing" textLength="204" x="141" y="874.5459">ID doc type and respective number)</text><polygon fill="#181818" points="637,907.0996,647,911.0996,637,915.0996,641,911.0996" style="stroke:#181818;stroke-width:1.0;"/><line style="stroke:#181818;stroke-width:1.0;" x1="459" x2="643" y1="911.0996" y2="911.0996"/><text fill="#000000" font-family="sans-serif" font-size="13" font-weight="bold" lengthAdjust="spacing" textLength="14" x="466" y="905.8369">21</text><text fill="#000000" font-family="sans-serif" font-size="13" lengthAdjust="spacing" textLength="36" x="484" y="905.8369">create</text><polygon fill="#181818" points="1226.5,938.3906,1236.5,942.3906,1226.5,946.3906,1230.5,942.3906" style="stroke:#181818;stroke-width:1.0;"/><line style="stroke:#181818;stroke-width:1.0;" x1="659" x2="1232.5" y1="942.3906" y2="942.3906"/><text fill="#000000" font-family="sans-serif" font-size="13" font-weight="bold" lengthAdjust="spacing" textLength="14" x="666" y="937.1279">22</text><text fill="#000000" font-family="sans-serif" font-size="13" lengthAdjust="spacing" textLength="36" x="684" y="937.1279">create</text><polygon fill="#181818" points="1529.5,969.6816,1539.5,973.6816,1529.5,977.6816,1533.5,973.6816" style="stroke:#181818;stroke-width:1.0;"/><line style="stroke:#181818;stroke-width:1.0;" x1="1248.5" x2="1535.5" y1="973.6816" y2="973.6816"/><text fill="#000000" font-family="sans-serif" font-size="13" font-weight="bold" lengthAdjust="spacing" textLength="14" x="1255.5" y="968.4189">23</text><text fill="#000000" font-family="sans-serif" font-size="13" lengthAdjust="spacing" textLength="36" x="1273.5" y="968.4189">create</text><rect fill="#E3E3E3" height="51.2422" rx="2.5" ry="2.5" style="stroke:#181818;stroke-width:0.5;" width="186" x="1541.5" y="950.3906"/><text fill="#000000" font-family="sans-serif" font-size="14" lengthAdjust="spacing" textLength="172" x="1548.5" y="972.498">fundamentalCharacteristics</text><text fill="#000000" font-family="sans-serif" font-size="14" lengthAdjust="spacing" textLength="82" x="1593.5" y="991.1191">:Collaborator</text><line style="stroke:#181818;stroke-width:1.0;" x1="1639.5" x2="1681.5" y1="1035.9238" y2="1035.9238"/><line style="stroke:#181818;stroke-width:1.0;" x1="1681.5" x2="1681.5" y1="1035.9238" y2="1048.9238"/><line style="stroke:#181818;stroke-width:1.0;" x1="1640.5" x2="1681.5" y1="1048.9238" y2="1048.9238"/><polygon fill="#181818" points="1650.5,1044.9238,1640.5,1048.9238,1650.5,1052.9238,1646.5,1048.9238" style="stroke:#181818;stroke-width:1.0;"/><text fill="#000000" font-family="sans-serif" font-size="13" font-weight="bold" lengthAdjust="spacing" textLength="14" x="1646.5" y="1030.6611">24</text><text fill="#000000" font-family="sans-serif" font-size="13" lengthAdjust="spacing" textLength="365" x="1664.5" y="1030.6611">validatefundamentalCharacteristics(fundamentalCharacteristics)</text><polygon fill="#181818" points="1259.5,1076.2148,1249.5,1080.2148,1259.5,1084.2148,1255.5,1080.2148" style="stroke:#181818;stroke-width:1.0;"/><line style="stroke:#181818;stroke-width:1.0;stroke-dasharray:2.0,2.0;" x1="1253.5" x2="1633.5" y1="1080.2148" y2="1080.2148"/><text fill="#000000" font-family="sans-serif" font-size="13" font-weight="bold" lengthAdjust="spacing" textLength="14" x="1265.5" y="1074.9521">25</text><text fill="#000000" font-family="sans-serif" font-size="13" lengthAdjust="spacing" textLength="157" x="1283.5" y="1074.9521">fundamentalCharacteristics</text><line style="stroke:#181818;stroke-width:1.0;" x1="1248.5" x2="1290.5" y1="1111.5059" y2="1111.5059"/><line style="stroke:#181818;stroke-width:1.0;" x1="1290.5" x2="1290.5" y1="1111.5059" y2="1124.5059"/><line style="stroke:#181818;stroke-width:1.0;" x1="1249.5" x2="1290.5" y1="1124.5059" y2="1124.5059"/><polygon fill="#181818" points="1259.5,1120.5059,1249.5,1124.5059,1259.5,1128.5059,1255.5,1124.5059" style="stroke:#181818;stroke-width:1.0;"/><text fill="#000000" font-family="sans-serif" font-size="13" font-weight="bold" lengthAdjust="spacing" textLength="14" x="1255.5" y="1106.2432">26</text><text fill="#000000" font-family="sans-serif" font-size="13" lengthAdjust="spacing" textLength="349" x="1273.5" y="1106.2432">validateCollaborator(jobSelected,fundamentalCharacteristics)</text><line style="stroke:#181818;stroke-width:1.0;" x1="1248.5" x2="1290.5" y1="1155.7969" y2="1155.7969"/><line style="stroke:#181818;stroke-width:1.0;" x1="1290.5" x2="1290.5" y1="1155.7969" y2="1168.7969"/><line style="stroke:#181818;stroke-width:1.0;" x1="1249.5" x2="1290.5" y1="1168.7969" y2="1168.7969"/><polygon fill="#181818" points="1259.5,1164.7969,1249.5,1168.7969,1259.5,1172.7969,1255.5,1168.7969" style="stroke:#181818;stroke-width:1.0;"/><text fill="#000000" font-family="sans-serif" font-size="13" font-weight="bold" lengthAdjust="spacing" textLength="14" x="1255.5" y="1150.5342">27</text><text fill="#000000" font-family="sans-serif" font-size="13" lengthAdjust="spacing" textLength="327" x="1273.5" y="1150.5342">addCollaborator(jobSelected,fundamentalCharacteristics)</text><polygon fill="#181818" points="670,1203.0879,660,1207.0879,670,1211.0879,666,1207.0879" style="stroke:#181818;stroke-width:1.0;"/><line style="stroke:#181818;stroke-width:1.0;stroke-dasharray:2.0,2.0;" x1="664" x2="1242.5" y1="1207.0879" y2="1207.0879"/><text fill="#000000" font-family="sans-serif" font-size="13" font-weight="bold" lengthAdjust="spacing" textLength="14" x="676" y="1201.8252">28</text><text fill="#000000" font-family="sans-serif" font-size="13" lengthAdjust="spacing" textLength="143" x="694" y="1201.8252">registedCollaboratorsList</text><polygon fill="#181818" points="470,1234.3789,460,1238.3789,470,1242.3789,466,1238.3789" style="stroke:#181818;stroke-width:1.0;"/><line style="stroke:#181818;stroke-width:1.0;stroke-dasharray:2.0,2.0;" x1="464" x2="653" y1="1238.3789" y2="1238.3789"/><text fill="#000000" font-family="sans-serif" font-size="13" font-weight="bold" lengthAdjust="spacing" textLength="14" x="476" y="1233.1162">29</text><text fill="#000000" font-family="sans-serif" font-size="13" lengthAdjust="spacing" textLength="148" x="494" y="1233.1162">RegistedCollaboratorsList</text><polygon fill="#181818" points="127,1265.6699,117,1269.6699,127,1273.6699,123,1269.6699" style="stroke:#181818;stroke-width:1.0;"/><line style="stroke:#181818;stroke-width:1.0;stroke-dasharray:2.0,2.0;" x1="121" x2="453" y1="1269.6699" y2="1269.6699"/><text fill="#000000" font-family="sans-serif" font-size="13" font-weight="bold" lengthAdjust="spacing" textLength="14" x="133" y="1264.4072">30</text><text fill="#000000" font-family="sans-serif" font-size="13" lengthAdjust="spacing" textLength="291" x="151" y="1264.4072">list all registered collaborators and asks to confirm</text><polygon fill="#181818" points="437,1296.9609,447,1300.9609,437,1304.9609,441,1300.9609" style="stroke:#181818;stroke-width:1.0;"/><line style="stroke:#181818;stroke-width:1.0;" x1="116" x2="443" y1="1300.9609" y2="1300.9609"/><text fill="#000000" font-family="sans-serif" font-size="13" font-weight="bold" lengthAdjust="spacing" textLength="14" x="123" y="1295.6982">31</text><text fill="#000000" font-family="sans-serif" font-size="13" lengthAdjust="spacing" textLength="144" x="141" y="1295.6982">confirms all collaborators</text><polygon fill="#181818" points="122,1328.252,112,1332.252,122,1336.252,118,1332.252" style="stroke:#181818;stroke-width:1.0;"/><line style="stroke:#181818;stroke-width:1.0;stroke-dasharray:2.0,2.0;" x1="116" x2="453" y1="1332.252" y2="1332.252"/><text fill="#000000" font-family="sans-serif" font-size="13" font-weight="bold" lengthAdjust="spacing" textLength="14" x="128" y="1326.9893">32</text><text fill="#000000" font-family="sans-serif" font-size="13" lengthAdjust="spacing" textLength="158" x="146" y="1326.9893">displays operation success</text><!--SRC=[rLVDKjim4BxhANQu49Z00-J030E7qe6PJe0R5qNUn2gsv4eoaBVloeuJovPCQ7kfJh6q- -t_J-ohL1Ktl8HIAoroeqi4PsfaTlzISV7AD_ZejWM2GU6usXHz0flpJBzBjO4rBomonckdLLskq31sciiCOQsrM-aFneNJ1aw-rILNi4IhQoFGmWDN9C6S0BTmVVl02DT98Ikk79mibhYHrjteek0hRJWXFDyrfCztdrBUQEKCVU_0RvwMzoEUIbj9f19jGxE_s3vARodP4hAO7iUB6WFykBz-2ZbQlJ3xhbVs0BzuKV67dHgnfn2tRsa8d7XfdH1_2w7NjSfuYShnuYQdC0k7XlIHmflSHsWWRxdZp4TNld67JGmPx0vzmCKL1GiMHFfgmMbA8sySS53u3gA7Tc3RWr6KsIdq3Y5T4A37NH3Ihngjiv2H2Z0pk4Q3Ik0SChJ2oCf9hUO0KgsrANa1BofySIXo9GMz1DTPJVeqluIsxepr5JWL1hrcJJODDRjghi_FIRUMZ2L8Y623peTt5iBlBM_mWoT_6bx2YEHf2tcdBDMem05i01rByX6rFp4f5piBlFSFkJzYp_1huZh3VFsqbiHhOCgkflQYXZIeVSsZvJLXGnnwh7IYlBwkzK3ZLDd-iSfnxxP6N1T593C7ANIK1ziaYagwE5G2R-LDvr1KNiAyhkFy7ABs48FwBRIku3sNDEIaSgWop5Yowppc-jrwfS7b6CheuVlEDUo0ZrZG2ANEHqnirEUIdOAeMyw1LkD-aOhs3iYIqv1SI97z8b3Wsmwj5ZI_9yCsrSGwfyHW9Y62O2ox4U1ZqPjR88Q32sRo4Yz14S4SLjAut8yD-ispKbfBxNx_dHbIQ4uiWZO80ca62CnAlV8PmbK6M79PdD40uHyLtwA1TkKXdhjRoBG0jwrQIeAgq1k3EvgpOxFbYI3-Exlw5esJUJmMqsctpzruwqkCs0FU4Hqp1KrI_L9pVhwNCO9lbvxksdzrN0juuuNqBa-lKRFqqzaGTT85QPne2VSohZ40ZZWJJagje7iFz0bclJOsdxB_NoX0kVvNica47A_7eILsYqL0UazNoUwMo5AMxfVBf0psQViCMcVHRE4qndPQ6yo2TTmsTTvjxTGorjAKBTOddMj7smx90995cqIWLYPjLV2j1LrXkuO78s8WklVf_tZy1W00]--></g></svg>