<?xml version="1.0" encoding="UTF-8" standalone="no"?><svg xmlns="http://www.w3.org/2000/svg" xmlns:xlink="http://www.w3.org/1999/xlink" contentStyleType="text/css" height="484px" preserveAspectRatio="none" style="width:1873px;height:484px;background:#FFFFFF;" version="1.1" viewBox="0 0 1873 484" width="1873px" zoomAndPan="magnify"><defs/><g><!--class RegistCollaboratorUI--><g id="elem_RegistCollaboratorUI"><rect codeLine="11" fill="#F1F1F1" height="53.24" id="RegistCollaboratorUI" rx="2.5" ry="2.5" style="stroke:#181818;stroke-width:0.5;" width="229" x="571.5" y="7"/><ellipse cx="587.5" cy="25.62" fill="#ADD1B2" rx="12" ry="12" style="stroke:#181818;stroke-width:1.0;"/><path d="M587.0156,32.8231 Q584.9531,32.8231 583.625,31.9481 Q582.2969,31.0731 581.6406,29.495 Q581,27.9012 581,25.7762 Q581,23.4012 581.7656,21.6981 Q582.5469,19.9794 584.0469,19.0575 Q585.5625,18.1356 587.7656,18.1356 Q588.7969,18.1356 589.5781,18.3544 Q590.375,18.5575 591.2031,18.9637 L590.2344,21.3387 Q589.5,20.9637 588.8594,20.8231 Q588.2344,20.6825 587.6563,20.6825 Q586.2813,20.6825 585.4531,21.3075 Q584.6406,21.9169 584.2813,23.0419 Q583.9375,24.1669 583.9375,25.6669 Q583.9375,28.0262 584.7813,29.1512 Q585.625,30.2762 587.5,30.2762 Q588.2031,30.2762 588.9219,30.1044 Q589.6563,29.9169 590.6406,29.4794 L590.6406,32.0731 Q589.7813,32.4637 588.8438,32.6356 Q587.9219,32.8231 587.0156,32.8231 Z " fill="#000000"/><text fill="#000000" font-family="sans-serif" font-size="20" lengthAdjust="spacing" textLength="195" x="602.5" y="33.38">RegistCollaboratorUI</text><line style="stroke:#181818;stroke-width:0.5;" x1="572.5" x2="799.5" y1="44.24" y2="44.24"/><line style="stroke:#181818;stroke-width:0.5;" x1="572.5" x2="799.5" y1="52.24" y2="52.24"/></g><!--class RegistCollaboratorController--><g id="elem_RegistCollaboratorController"><rect codeLine="16" fill="#F1F1F1" height="134.9599" id="RegistCollaboratorController" rx="2.5" ry="2.5" style="stroke:#181818;stroke-width:0.5;" width="300" x="536" y="120.24"/><ellipse cx="552" cy="138.86" fill="#ADD1B2" rx="12" ry="12" style="stroke:#181818;stroke-width:1.0;"/><path d="M551.5156,146.0631 Q549.4531,146.0631 548.125,145.1881 Q546.7969,144.3131 546.1406,142.735 Q545.5,141.1412 545.5,139.0162 Q545.5,136.6412 546.2656,134.9381 Q547.0469,133.2194 548.5469,132.2975 Q550.0625,131.3756 552.2656,131.3756 Q553.2969,131.3756 554.0781,131.5944 Q554.875,131.7975 555.7031,132.2037 L554.7344,134.5787 Q554,134.2037 553.3594,134.0631 Q552.7344,133.9225 552.1563,133.9225 Q550.7813,133.9225 549.9531,134.5475 Q549.1406,135.1569 548.7813,136.2819 Q548.4375,137.4069 548.4375,138.9069 Q548.4375,141.2662 549.2813,142.3912 Q550.125,143.5162 552,143.5162 Q552.7031,143.5162 553.4219,143.3444 Q554.1563,143.1569 555.1406,142.7194 L555.1406,145.3131 Q554.2813,145.7037 553.3438,145.8756 Q552.4219,146.0631 551.5156,146.0631 Z " fill="#000000"/><text fill="#000000" font-family="sans-serif" font-size="20" lengthAdjust="spacing" textLength="266" x="567" y="146.62">RegistCollaboratorController</text><line style="stroke:#181818;stroke-width:0.5;" x1="537" x2="835" y1="157.48" y2="157.48"/><text fill="#000000" font-family="sans-serif" font-size="20" lengthAdjust="spacing" textLength="113" x="542" y="182.86">-jobSelected</text><line style="stroke:#181818;stroke-width:0.5;" x1="537" x2="835" y1="192.7199" y2="192.7199"/><text fill="#000000" font-family="sans-serif" font-size="20" lengthAdjust="spacing" textLength="92" x="542" y="218.0999">+getJobs()</text><text fill="#000000" font-family="sans-serif" font-size="20" lengthAdjust="spacing" textLength="100" x="542" y="245.3399">+storeJob()</text></g><!--class Repositories--><g id="elem_Repositories"><rect codeLine="23" fill="#F1F1F1" height="162.1999" id="Repositories" rx="2.5" ry="2.5" style="stroke:#181818;stroke-width:0.5;" width="290" x="7" y="315.2"/><ellipse cx="90" cy="333.82" fill="#ADD1B2" rx="12" ry="12" style="stroke:#181818;stroke-width:1.0;"/><path d="M89.5156,341.0231 Q87.4531,341.0231 86.125,340.1481 Q84.7969,339.2731 84.1406,337.695 Q83.5,336.1012 83.5,333.9762 Q83.5,331.6012 84.2656,329.8981 Q85.0469,328.1794 86.5469,327.2575 Q88.0625,326.3356 90.2656,326.3356 Q91.2969,326.3356 92.0781,326.5544 Q92.875,326.7575 93.7031,327.1637 L92.7344,329.5387 Q92,329.1637 91.3594,329.0231 Q90.7344,328.8825 90.1563,328.8825 Q88.7813,328.8825 87.9531,329.5075 Q87.1406,330.1169 86.7813,331.2419 Q86.4375,332.3669 86.4375,333.8669 Q86.4375,336.2262 87.2813,337.3512 Q88.125,338.4762 90,338.4762 Q90.7031,338.4762 91.4219,338.3044 Q92.1563,338.1169 93.1406,337.6794 L93.1406,340.2731 Q92.2813,340.6637 91.3438,340.8356 Q90.4219,341.0231 89.5156,341.0231 Z " fill="#000000"/><text fill="#000000" font-family="sans-serif" font-size="20" lengthAdjust="spacing" textLength="115" x="112" y="341.58">Repositories</text><line style="stroke:#181818;stroke-width:0.5;" x1="8" x2="296" y1="352.44" y2="352.44"/><line style="stroke:#181818;stroke-width:0.5;" x1="8" x2="296" y1="360.44" y2="360.44"/><text fill="#000000" font-family="sans-serif" font-size="20" lengthAdjust="spacing" textLength="133" x="13" y="385.82">-Repositories()</text><text fill="#000000" font-family="sans-serif" font-size="20" lengthAdjust="spacing" textLength="263" x="13" y="413.0599">+getInstance() : Repositories</text><text fill="#000000" font-family="sans-serif" font-size="20" lengthAdjust="spacing" textLength="271" x="13" y="440.2999">+getRegistedJobsRepository()</text><text fill="#000000" font-family="sans-serif" font-size="20" lengthAdjust="spacing" textLength="278" x="13" y="467.5399">+getCollaboratorsRepository()</text></g><!--class CollaboratorsRepository--><g id="elem_CollaboratorsRepository"><rect codeLine="30" fill="#F1F1F1" height="134.9599" id="CollaboratorsRepository" rx="2.5" ry="2.5" style="stroke:#181818;stroke-width:0.5;" width="592" x="619" y="328.82"/><ellipse cx="798" cy="347.44" fill="#ADD1B2" rx="12" ry="12" style="stroke:#181818;stroke-width:1.0;"/><path d="M797.5156,354.6431 Q795.4531,354.6431 794.125,353.7681 Q792.7969,352.8931 792.1406,351.315 Q791.5,349.7212 791.5,347.5962 Q791.5,345.2212 792.2656,343.5181 Q793.0469,341.7994 794.5469,340.8775 Q796.0625,339.9556 798.2656,339.9556 Q799.2969,339.9556 800.0781,340.1744 Q800.875,340.3775 801.7031,340.7837 L800.7344,343.1587 Q800,342.7837 799.3594,342.6431 Q798.7344,342.5025 798.1563,342.5025 Q796.7813,342.5025 795.9531,343.1275 Q795.1406,343.7369 794.7813,344.8619 Q794.4375,345.9869 794.4375,347.4869 Q794.4375,349.8462 795.2813,350.9712 Q796.125,352.0962 798,352.0962 Q798.7031,352.0962 799.4219,351.9244 Q800.1563,351.7369 801.1406,351.2994 L801.1406,353.8931 Q800.2813,354.2837 799.3438,354.4556 Q798.4219,354.6431 797.5156,354.6431 Z " fill="#000000"/><text fill="#000000" font-family="sans-serif" font-size="20" lengthAdjust="spacing" textLength="225" x="820" y="355.2">CollaboratorsRepository</text><line style="stroke:#181818;stroke-width:0.5;" x1="620" x2="1210" y1="366.06" y2="366.06"/><text fill="#000000" font-family="sans-serif" font-size="20" lengthAdjust="spacing" textLength="228" x="625" y="391.44">-collaboratorsRepository</text><line style="stroke:#181818;stroke-width:0.5;" x1="620" x2="1210" y1="401.2999" y2="401.2999"/><text fill="#000000" font-family="sans-serif" font-size="20" lengthAdjust="spacing" textLength="543" x="625" y="426.6799">+addCollaborator(jobSelected,fundamentalCharacteristics)</text><text fill="#000000" font-family="sans-serif" font-size="20" lengthAdjust="spacing" textLength="580" x="625" y="453.9199">+validateCollaborator(jobSelected,fundamentalCharacteristics)</text></g><!--class RegistedJobsRepository--><g id="elem_RegistedJobsRepository"><rect codeLine="37" fill="#F1F1F1" height="107.7199" id="RegistedJobsRepository" rx="2.5" ry="2.5" style="stroke:#181818;stroke-width:0.5;" width="252" x="332" y="342.44"/><ellipse cx="348" cy="361.06" fill="#ADD1B2" rx="12" ry="12" style="stroke:#181818;stroke-width:1.0;"/><path d="M347.5156,368.2631 Q345.4531,368.2631 344.125,367.3881 Q342.7969,366.5131 342.1406,364.935 Q341.5,363.3412 341.5,361.2162 Q341.5,358.8412 342.2656,357.1381 Q343.0469,355.4194 344.5469,354.4975 Q346.0625,353.5756 348.2656,353.5756 Q349.2969,353.5756 350.0781,353.7944 Q350.875,353.9975 351.7031,354.4037 L350.7344,356.7787 Q350,356.4037 349.3594,356.2631 Q348.7344,356.1225 348.1563,356.1225 Q346.7813,356.1225 345.9531,356.7475 Q345.1406,357.3569 344.7813,358.4819 Q344.4375,359.6069 344.4375,361.1069 Q344.4375,363.4662 345.2813,364.5912 Q346.125,365.7162 348,365.7162 Q348.7031,365.7162 349.4219,365.5444 Q350.1563,365.3569 351.1406,364.9194 L351.1406,367.5131 Q350.2813,367.9037 349.3438,368.0756 Q348.4219,368.2631 347.5156,368.2631 Z " fill="#000000"/><text fill="#000000" font-family="sans-serif" font-size="20" lengthAdjust="spacing" textLength="218" x="363" y="368.82">RegistedJobsRepository</text><line style="stroke:#181818;stroke-width:0.5;" x1="333" x2="583" y1="379.68" y2="379.68"/><text fill="#000000" font-family="sans-serif" font-size="20" lengthAdjust="spacing" textLength="224" x="338" y="405.06">-RegistedJobsRepository</text><line style="stroke:#181818;stroke-width:0.5;" x1="333" x2="583" y1="414.9199" y2="414.9199"/><text fill="#000000" font-family="sans-serif" font-size="20" lengthAdjust="spacing" textLength="115" x="338" y="440.2999">+getAllJobs()</text></g><!--class Collaborator--><g id="elem_Collaborator"><rect codeLine="42" fill="#F1F1F1" height="107.7199" id="Collaborator" rx="2.5" ry="2.5" style="stroke:#181818;stroke-width:0.5;" width="621" x="1245.5" y="342.44"/><ellipse cx="1493.5" cy="361.06" fill="#ADD1B2" rx="12" ry="12" style="stroke:#181818;stroke-width:1.0;"/><path d="M1493.0156,368.2631 Q1490.9531,368.2631 1489.625,367.3881 Q1488.2969,366.5131 1487.6406,364.935 Q1487,363.3412 1487,361.2162 Q1487,358.8412 1487.7656,357.1381 Q1488.5469,355.4194 1490.0469,354.4975 Q1491.5625,353.5756 1493.7656,353.5756 Q1494.7969,353.5756 1495.5781,353.7944 Q1496.375,353.9975 1497.2031,354.4037 L1496.2344,356.7787 Q1495.5,356.4037 1494.8594,356.2631 Q1494.2344,356.1225 1493.6563,356.1225 Q1492.2813,356.1225 1491.4531,356.7475 Q1490.6406,357.3569 1490.2813,358.4819 Q1489.9375,359.6069 1489.9375,361.1069 Q1489.9375,363.4662 1490.7813,364.5912 Q1491.625,365.7162 1493.5,365.7162 Q1494.2031,365.7162 1494.9219,365.5444 Q1495.6563,365.3569 1496.6406,364.9194 L1496.6406,367.5131 Q1495.7813,367.9037 1494.8438,368.0756 Q1493.9219,368.2631 1493.0156,368.2631 Z " fill="#000000"/><text fill="#000000" font-family="sans-serif" font-size="20" lengthAdjust="spacing" textLength="116" x="1515.5" y="368.82">Collaborator</text><line style="stroke:#181818;stroke-width:0.5;" x1="1246.5" x2="1865.5" y1="379.68" y2="379.68"/><text fill="#000000" font-family="sans-serif" font-size="20" lengthAdjust="spacing" textLength="129" x="1251.5" y="405.06">-collaborators</text><line style="stroke:#181818;stroke-width:0.5;" x1="1246.5" x2="1865.5" y1="414.9199" y2="414.9199"/><text fill="#000000" font-family="sans-serif" font-size="20" lengthAdjust="spacing" textLength="609" x="1251.5" y="440.2999">+validatefundamentalCharacteristics(fundamentalCharacteristics)</text></g><!--link RegistCollaboratorUI to RegistCollaboratorController--><g id="link_RegistCollaboratorUI_RegistCollaboratorController"><path codeLine="47" d="M686,60.42 C686,76.78 686,98.75 686,119.78 " fill="none" id="RegistCollaboratorUI-RegistCollaboratorController" style="stroke:#181818;stroke-width:1.0;"/></g><!--link RegistCollaboratorController to Repositories--><g id="link_RegistCollaboratorController_Repositories"><path codeLine="49" d="M535.77,239.8 C432.52,274.9 314,315.2 314,315.2 C314,315.2 307.57,318.38 297.27,323.47 " fill="none" id="RegistCollaboratorController-Repositories" style="stroke:#181818;stroke-width:1.0;"/></g><!--link RegistCollaboratorController to CollaboratorsRepository--><g id="link_RegistCollaboratorController_CollaboratorsRepository"><path codeLine="51" d="M760.03,255.51 C785.91,278.85 814.94,305.04 840.83,328.39 " fill="none" id="RegistCollaboratorController-CollaboratorsRepository" style="stroke:#181818;stroke-width:1.0;"/></g><!--link RegistCollaboratorController to RegistedJobsRepository--><g id="link_RegistCollaboratorController_RegistedJobsRepository"><path codeLine="53" d="M612.29,255.51 C581.32,283.56 545.81,315.74 516.66,342.15 " fill="none" id="RegistCollaboratorController-RegistedJobsRepository" style="stroke:#181818;stroke-width:1.0;"/></g><!--link RegistCollaboratorController to Collaborator--><g id="link_RegistCollaboratorController_Collaborator"><path codeLine="55" d="M836.26,223.78 C996.66,261.22 1228,315.2 1228,315.2 C1228,315.2 1277.3,327.24 1337.68,341.98 " fill="none" id="RegistCollaboratorController-Collaborator" style="stroke:#181818;stroke-width:1.0;"/></g><!--reverse link Repositories to CollaboratorsRepository--><g id="link_Repositories_CollaboratorsRepository"><path codeLine="57" d="M295.69,307.37 C316.74,294.33 331.5,285.2 331.5,285.2 C331.5,285.2 583.5,285.2 583.5,285.2 C583.5,285.2 643.6,305.34 712.62,328.47 " fill="none" id="Repositories-backto-CollaboratorsRepository" style="stroke:#181818;stroke-width:1.0;"/><polygon fill="#181818" points="284.68,314.18,291.8871,314.4197,294.8804,307.8592,287.6733,307.6195,284.68,314.18" style="stroke:#181818;stroke-width:1.0;"/></g><!--reverse link Repositories to RegistedJobsRepository--><g id="link_Repositories_RegistedJobsRepository"><path codeLine="59" d="M311.66,396.3 C318.64,396.3 325.45,396.3 331.56,396.3 " fill="none" id="Repositories-backto-RegistedJobsRepository" style="stroke:#181818;stroke-width:1.0;"/><polygon fill="#181818" points="298.77,396.3,304.77,400.3,310.77,396.3,304.77,392.3,298.77,396.3" style="stroke:#181818;stroke-width:1.0;"/></g><!--reverse link CollaboratorsRepository to Collaborator--><g id="link_CollaboratorsRepository_Collaborator"><path codeLine="61" d="M1225.55,396.3 C1232.13,396.3 1238.76,396.3 1245.34,396.3 " fill="none" id="CollaboratorsRepository-backto-Collaborator" style="stroke:#181818;stroke-width:1.0;"/><polygon fill="none" points="1212.79,396.3,1218.79,400.3,1224.79,396.3,1218.79,392.3,1212.79,396.3" style="stroke:#181818;stroke-width:1.0;"/></g><!--SRC=[dLDDJyCm3BtdL_X61qoQE7AR9Y6D8nC_84kyDYoDgyG55SH_9zr7bqxj1lHc-zdl-SKDM-CgwMLfIMrHWyQDh2q_aUEL-KHuc8cRSCH0IOvKuQb4O5-ZE5KggROonnKt5i6ZOkbocm928JLz69V3HjgGLgnno4s5K95jsY1bx8hacKJIfQmCOSxipRfcN2foExqp8MuiRXYOm9kyOD2cbMF82R7hWHVCJU05MIlNv2MJVrsABo6-nm6BQ8UFCVe8XFXDuOtMAxHnCkfTvWvov6TQXsnoY4Din9Y9YMHqHS74Wi40nr5fikkEqvOkH1iLPXDux85EaBrKr2rnXsZI8UaQVKWdQWJIwLF3zGE7r3eTa2N6t6zgfsM9ZgLT5F7POj97lKQ5ey9tQOsMZFyQ4JVeFTcv3ud3G-MJINDh3qytQCgm4sSRZ0lDhkmmT90mdLw-Gt6fkkzE3kOgUkG6VaCpQEsV25jqyb_SNfJJ1uxHZzqqdJ7_0000]--></g></svg>