<?xml version="1.0" encoding="us-ascii" standalone="no"?><svg xmlns="http://www.w3.org/2000/svg" xmlns:xlink="http://www.w3.org/1999/xlink" contentStyleType="text/css" height="318px" preserveAspectRatio="none" style="width:749px;height:318px;background:#FFFFFF;" version="1.1" viewBox="0 0 749 318" width="749px" zoomAndPan="magnify"><defs/><g><!--class VehiclesRepository--><g id="elem_VehiclesRepository"><rect codeLine="11" fill="#F1F1F1" height="85.2422" id="VehiclesRepository" rx="2.5" ry="2.5" style="stroke:#181818;stroke-width:0.5;" width="153" x="213" y="207.5"/><ellipse cx="228" cy="223.5" fill="#ADD1B2" rx="11" ry="11" style="stroke:#181818;stroke-width:1.0;"/><path d="M230.7656,219.375 Q230.9219,219.1563 231.1094,219.0469 Q231.2969,218.9375 231.5156,218.9375 Q231.8906,218.9375 232.125,219.2031 Q232.3594,219.4531 232.3594,220.0625 L232.3594,221.5156 Q232.3594,222.125 232.125,222.3906 Q231.8906,222.6563 231.5156,222.6563 Q231.1719,222.6563 230.9688,222.4531 Q230.7656,222.2656 230.6563,221.75 Q230.6094,221.3906 230.4219,221.2031 Q230.0938,220.8281 229.4844,220.6094 Q228.875,220.3906 228.25,220.3906 Q227.4844,220.3906 226.8438,220.7188 Q226.2188,221.0469 225.7188,221.7969 Q225.2344,222.5469 225.2344,223.5781 L225.2344,224.6719 Q225.2344,225.9063 226.125,226.7344 Q227.0156,227.5469 228.6094,227.5469 Q229.5469,227.5469 230.2031,227.2969 Q230.5938,227.1406 231.0156,226.7031 Q231.2813,226.4375 231.4219,226.3594 Q231.5781,226.2813 231.7813,226.2813 Q232.1094,226.2813 232.3594,226.5469 Q232.625,226.7969 232.625,227.1406 Q232.625,227.4844 232.2813,227.8906 Q231.7813,228.4688 230.9844,228.7969 Q229.9063,229.25 228.6094,229.25 Q227.0938,229.25 225.8906,228.625 Q224.9063,228.125 224.2188,227.0625 Q223.5313,225.9844 223.5313,224.7031 L223.5313,223.5469 Q223.5313,222.2188 224.1406,221.0781 Q224.7656,219.9219 225.8594,219.3125 Q226.9531,218.6875 228.1875,218.6875 Q228.9219,218.6875 229.5625,218.8594 Q230.2188,219.0156 230.7656,219.375 Z " fill="#000000"/><text fill="#000000" font-family="sans-serif" font-size="14" lengthAdjust="spacing" textLength="121" x="242" y="229.2969">VehiclesRepository</text><line style="stroke:#181818;stroke-width:0.5;" x1="214" x2="365" y1="239.5" y2="239.5"/><text fill="#000000" font-family="sans-serif" font-size="14" lengthAdjust="spacing" textLength="56" x="219" y="258.6074">-vehicles</text><line style="stroke:#181818;stroke-width:0.5;" x1="214" x2="365" y1="266.1211" y2="266.1211"/><text fill="#000000" font-family="sans-serif" font-size="14" lengthAdjust="spacing" textLength="91" x="219" y="285.2285">+getVehicles()</text></g><!--class Vehicle--><g id="elem_Vehicle"><rect codeLine="15" fill="#F1F1F1" height="122.4844" id="Vehicle" rx="2.5" ry="2.5" style="stroke:#181818;stroke-width:0.5;" width="131" x="401" y="189"/><ellipse cx="439.85" cy="205" fill="#ADD1B2" rx="11" ry="11" style="stroke:#181818;stroke-width:1.0;"/><path d="M442.6156,200.875 Q442.7719,200.6563 442.9594,200.5469 Q443.1469,200.4375 443.3656,200.4375 Q443.7406,200.4375 443.975,200.7031 Q444.2094,200.9531 444.2094,201.5625 L444.2094,203.0156 Q444.2094,203.625 443.975,203.8906 Q443.7406,204.1563 443.3656,204.1563 Q443.0219,204.1563 442.8188,203.9531 Q442.6156,203.7656 442.5063,203.25 Q442.4594,202.8906 442.2719,202.7031 Q441.9438,202.3281 441.3344,202.1094 Q440.725,201.8906 440.1,201.8906 Q439.3344,201.8906 438.6938,202.2188 Q438.0688,202.5469 437.5688,203.2969 Q437.0844,204.0469 437.0844,205.0781 L437.0844,206.1719 Q437.0844,207.4063 437.975,208.2344 Q438.8656,209.0469 440.4594,209.0469 Q441.3969,209.0469 442.0531,208.7969 Q442.4438,208.6406 442.8656,208.2031 Q443.1313,207.9375 443.2719,207.8594 Q443.4281,207.7813 443.6313,207.7813 Q443.9594,207.7813 444.2094,208.0469 Q444.475,208.2969 444.475,208.6406 Q444.475,208.9844 444.1313,209.3906 Q443.6313,209.9688 442.8344,210.2969 Q441.7563,210.75 440.4594,210.75 Q438.9438,210.75 437.7406,210.125 Q436.7563,209.625 436.0688,208.5625 Q435.3813,207.4844 435.3813,206.2031 L435.3813,205.0469 Q435.3813,203.7188 435.9906,202.5781 Q436.6156,201.4219 437.7094,200.8125 Q438.8031,200.1875 440.0375,200.1875 Q440.7719,200.1875 441.4125,200.3594 Q442.0688,200.5156 442.6156,200.875 Z " fill="#000000"/><text fill="#000000" font-family="sans-serif" font-size="14" lengthAdjust="spacing" textLength="46" x="459.15" y="210.7969">Vehicle</text><line style="stroke:#181818;stroke-width:0.5;" x1="402" x2="531" y1="221" y2="221"/><text fill="#000000" font-family="sans-serif" font-size="14" lengthAdjust="spacing" textLength="70" x="407" y="240.1074">-currentKm</text><text fill="#000000" font-family="sans-serif" font-size="14" lengthAdjust="spacing" textLength="86" x="407" y="258.7285">-maintenance</text><line style="stroke:#181818;stroke-width:0.5;" x1="402" x2="531" y1="266.2422" y2="266.2422"/><text fill="#000000" font-family="sans-serif" font-size="14" lengthAdjust="spacing" textLength="106" x="407" y="285.3496">+getCurrentKm()</text><text fill="#000000" font-family="sans-serif" font-size="14" lengthAdjust="spacing" textLength="119" x="407" y="303.9707">+getMaintenance()</text></g><!--class Repositories--><g id="elem_Repositories"><rect codeLine="22" fill="#F1F1F1" height="122.4844" id="Repositories" rx="2.5" ry="2.5" style="stroke:#181818;stroke-width:0.5;" width="171" x="7" y="189"/><ellipse cx="49" cy="205" fill="#ADD1B2" rx="11" ry="11" style="stroke:#181818;stroke-width:1.0;"/><path d="M51.7656,200.875 Q51.9219,200.6563 52.1094,200.5469 Q52.2969,200.4375 52.5156,200.4375 Q52.8906,200.4375 53.125,200.7031 Q53.3594,200.9531 53.3594,201.5625 L53.3594,203.0156 Q53.3594,203.625 53.125,203.8906 Q52.8906,204.1563 52.5156,204.1563 Q52.1719,204.1563 51.9688,203.9531 Q51.7656,203.7656 51.6563,203.25 Q51.6094,202.8906 51.4219,202.7031 Q51.0938,202.3281 50.4844,202.1094 Q49.875,201.8906 49.25,201.8906 Q48.4844,201.8906 47.8438,202.2188 Q47.2188,202.5469 46.7188,203.2969 Q46.2344,204.0469 46.2344,205.0781 L46.2344,206.1719 Q46.2344,207.4063 47.125,208.2344 Q48.0156,209.0469 49.6094,209.0469 Q50.5469,209.0469 51.2031,208.7969 Q51.5938,208.6406 52.0156,208.2031 Q52.2813,207.9375 52.4219,207.8594 Q52.5781,207.7813 52.7813,207.7813 Q53.1094,207.7813 53.3594,208.0469 Q53.625,208.2969 53.625,208.6406 Q53.625,208.9844 53.2813,209.3906 Q52.7813,209.9688 51.9844,210.2969 Q50.9063,210.75 49.6094,210.75 Q48.0938,210.75 46.8906,210.125 Q45.9063,209.625 45.2188,208.5625 Q44.5313,207.4844 44.5313,206.2031 L44.5313,205.0469 Q44.5313,203.7188 45.1406,202.5781 Q45.7656,201.4219 46.8594,200.8125 Q47.9531,200.1875 49.1875,200.1875 Q49.9219,200.1875 50.5625,200.3594 Q51.2188,200.5156 51.7656,200.875 Z " fill="#000000"/><text fill="#000000" font-family="sans-serif" font-size="14" lengthAdjust="spacing" textLength="79" x="69" y="210.7969">Repositories</text><line style="stroke:#181818;stroke-width:0.5;" x1="8" x2="177" y1="221" y2="221"/><text fill="#000000" font-family="sans-serif" font-size="14" lengthAdjust="spacing" textLength="58" x="13" y="240.1074">-instance</text><line style="stroke:#181818;stroke-width:0.5;" x1="8" x2="177" y1="247.6211" y2="247.6211"/><text fill="#000000" font-family="sans-serif" font-size="14" lengthAdjust="spacing" textLength="94" x="13" y="266.7285">-Repositories()</text><text fill="#000000" font-family="sans-serif" font-size="14" lengthAdjust="spacing" textLength="91" x="13" y="285.3496">+getInstance()</text><text fill="#000000" font-family="sans-serif" font-size="14" lengthAdjust="spacing" textLength="159" x="13" y="303.9707">+getVehiclesRepository()</text></g><!--class ListVehiclesCheckupController--><g id="elem_ListVehiclesCheckupController"><rect codeLine="29" fill="#F1F1F1" height="122.4844" id="ListVehiclesCheckupController" rx="2.5" ry="2.5" style="stroke:#181818;stroke-width:0.5;" width="252" x="251.5" y="7"/><ellipse cx="278.65" cy="23" fill="#ADD1B2" rx="11" ry="11" style="stroke:#181818;stroke-width:1.0;"/><path d="M281.4156,18.875 Q281.5719,18.6563 281.7594,18.5469 Q281.9469,18.4375 282.1656,18.4375 Q282.5406,18.4375 282.775,18.7031 Q283.0094,18.9531 283.0094,19.5625 L283.0094,21.0156 Q283.0094,21.625 282.775,21.8906 Q282.5406,22.1563 282.1656,22.1563 Q281.8219,22.1563 281.6188,21.9531 Q281.4156,21.7656 281.3063,21.25 Q281.2594,20.8906 281.0719,20.7031 Q280.7438,20.3281 280.1344,20.1094 Q279.525,19.8906 278.9,19.8906 Q278.1344,19.8906 277.4938,20.2188 Q276.8688,20.5469 276.3688,21.2969 Q275.8844,22.0469 275.8844,23.0781 L275.8844,24.1719 Q275.8844,25.4063 276.775,26.2344 Q277.6656,27.0469 279.2594,27.0469 Q280.1969,27.0469 280.8531,26.7969 Q281.2438,26.6406 281.6656,26.2031 Q281.9313,25.9375 282.0719,25.8594 Q282.2281,25.7813 282.4313,25.7813 Q282.7594,25.7813 283.0094,26.0469 Q283.275,26.2969 283.275,26.6406 Q283.275,26.9844 282.9313,27.3906 Q282.4313,27.9688 281.6344,28.2969 Q280.5563,28.75 279.2594,28.75 Q277.7438,28.75 276.5406,28.125 Q275.5563,27.625 274.8688,26.5625 Q274.1813,25.4844 274.1813,24.2031 L274.1813,23.0469 Q274.1813,21.7188 274.7906,20.5781 Q275.4156,19.4219 276.5094,18.8125 Q277.6031,18.1875 278.8375,18.1875 Q279.5719,18.1875 280.2125,18.3594 Q280.8688,18.5156 281.4156,18.875 Z " fill="#000000"/><text fill="#000000" font-family="sans-serif" font-size="14" lengthAdjust="spacing" textLength="193" x="295.35" y="28.7969">ListVehiclesCheckupController</text><line style="stroke:#181818;stroke-width:0.5;" x1="252.5" x2="502.5" y1="39" y2="39"/><line style="stroke:#181818;stroke-width:0.5;" x1="252.5" x2="502.5" y1="47" y2="47"/><text fill="#000000" font-family="sans-serif" font-size="14" lengthAdjust="spacing" textLength="199" x="257.5" y="66.1074">+getVehiclesNeedingCheckup()</text><text fill="#000000" font-family="sans-serif" font-size="14" lengthAdjust="spacing" textLength="180" x="257.5" y="84.7285">+didVehExceededCheckup()</text><text fill="#000000" font-family="sans-serif" font-size="14" lengthAdjust="spacing" textLength="229" x="257.5" y="103.3496">+isVehicleCloseToExceedCheckup()</text><text fill="#000000" font-family="sans-serif" font-size="14" lengthAdjust="spacing" textLength="240" x="257.5" y="121.9707">+isVehicleNeedingOrAlmostCheckup()</text></g><!--class ListVehiclesCheckupUI--><g id="elem_ListVehiclesCheckupUI"><rect codeLine="36" fill="#F1F1F1" height="48" id="ListVehiclesCheckupUI" rx="2.5" ry="2.5" style="stroke:#181818;stroke-width:0.5;" width="175" x="567" y="226"/><ellipse cx="582" cy="242" fill="#ADD1B2" rx="11" ry="11" style="stroke:#181818;stroke-width:1.0;"/><path d="M584.7656,237.875 Q584.9219,237.6563 585.1094,237.5469 Q585.2969,237.4375 585.5156,237.4375 Q585.8906,237.4375 586.125,237.7031 Q586.3594,237.9531 586.3594,238.5625 L586.3594,240.0156 Q586.3594,240.625 586.125,240.8906 Q585.8906,241.1563 585.5156,241.1563 Q585.1719,241.1563 584.9688,240.9531 Q584.7656,240.7656 584.6563,240.25 Q584.6094,239.8906 584.4219,239.7031 Q584.0938,239.3281 583.4844,239.1094 Q582.875,238.8906 582.25,238.8906 Q581.4844,238.8906 580.8438,239.2188 Q580.2188,239.5469 579.7188,240.2969 Q579.2344,241.0469 579.2344,242.0781 L579.2344,243.1719 Q579.2344,244.4063 580.125,245.2344 Q581.0156,246.0469 582.6094,246.0469 Q583.5469,246.0469 584.2031,245.7969 Q584.5938,245.6406 585.0156,245.2031 Q585.2813,244.9375 585.4219,244.8594 Q585.5781,244.7813 585.7813,244.7813 Q586.1094,244.7813 586.3594,245.0469 Q586.625,245.2969 586.625,245.6406 Q586.625,245.9844 586.2813,246.3906 Q585.7813,246.9688 584.9844,247.2969 Q583.9063,247.75 582.6094,247.75 Q581.0938,247.75 579.8906,247.125 Q578.9063,246.625 578.2188,245.5625 Q577.5313,244.4844 577.5313,243.2031 L577.5313,242.0469 Q577.5313,240.7188 578.1406,239.5781 Q578.7656,238.4219 579.8594,237.8125 Q580.9531,237.1875 582.1875,237.1875 Q582.9219,237.1875 583.5625,237.3594 Q584.2188,237.5156 584.7656,237.875 Z " fill="#000000"/><text fill="#000000" font-family="sans-serif" font-size="14" lengthAdjust="spacing" textLength="143" x="596" y="247.7969">ListVehiclesCheckupUI</text><line style="stroke:#181818;stroke-width:0.5;" x1="568" x2="741" y1="258" y2="258"/><line style="stroke:#181818;stroke-width:0.5;" x1="568" x2="741" y1="266" y2="266"/></g><!--reverse link Repositories to VehiclesRepository--><g id="link_Repositories_VehiclesRepository"><path codeLine="39" d="M190.23,250 C201.54,250 203.25,250 212.67,250 " fill="none" id="Repositories-backto-VehiclesRepository" style="stroke:#181818;stroke-width:1.0;"/><polygon fill="none" points="178.23,250,184.23,254,190.23,250,184.23,246,178.23,250" style="stroke:#181818;stroke-width:1.0;"/><text fill="#000000" font-family="sans-serif" font-size="13" lengthAdjust="spacing" textLength="7" x="198.0135" y="246.2205">1</text></g><!--reverse link VehiclesRepository to Vehicle--><g id="link_VehiclesRepository_Vehicle"><path codeLine="41" d="M378.2,250 C389.88,250 392.51,250 400.85,250 " fill="none" id="VehiclesRepository-backto-Vehicle" style="stroke:#181818;stroke-width:1.0;"/><polygon fill="none" points="366.2,250,372.2,254,378.2,250,372.2,246,366.2,250" style="stroke:#181818;stroke-width:1.0;"/><text fill="#000000" font-family="sans-serif" font-size="13" lengthAdjust="spacing" textLength="5" x="387.9702" y="246.0343">*</text></g><!--link ListVehiclesCheckupController to ListVehiclesCheckupUI--><g id="link_ListVehiclesCheckupController_ListVehiclesCheckupUI"><path codeLine="43" d="M470.12,129.19 C521.08,162.3 581.38,201.48 618.79,225.8 " fill="none" id="ListVehiclesCheckupController-ListVehiclesCheckupUI" style="stroke:#181818;stroke-width:1.0;stroke-dasharray:7.0,7.0;"/></g><!--link ListVehiclesCheckupController to Repositories--><g id="link_ListVehiclesCheckupController_Repositories"><path codeLine="44" d="M282.2,129.19 C248.54,150.45 210.93,174.21 178.12,194.93 " fill="none" id="ListVehiclesCheckupController-Repositories" style="stroke:#181818;stroke-width:1.0;stroke-dasharray:7.0,7.0;"/></g><!--link ListVehiclesCheckupController to VehiclesRepository--><g id="link_ListVehiclesCheckupController_VehiclesRepository"><path codeLine="45" d="M348.07,129.19 C335.53,154.84 321.21,184.14 309.87,207.34 " fill="none" id="ListVehiclesCheckupController-VehiclesRepository" style="stroke:#181818;stroke-width:1.0;stroke-dasharray:7.0,7.0;"/></g><!--link ListVehiclesCheckupController to Vehicle--><g id="link_ListVehiclesCheckupController_Vehicle"><path codeLine="46" d="M407.26,129.19 C416.76,148.4 427.27,169.66 436.77,188.87 " fill="none" id="ListVehiclesCheckupController-Vehicle" style="stroke:#181818;stroke-width:1.0;stroke-dasharray:7.0,7.0;"/></g><!--SRC=[ZPBDJiCm48JlVWgBI_bHAtY4Ak9GyITHu6wSRRAguuti3H0GxqvQNCU1q9ARFT_iZErC_1fjhPogP4MMTEce0ick0T4hjT9hLS2IMmFIWMPb2vC2lbGvlQ8jv4ePdoe6BN1RWwp9j9k5c8o8v9X4uj96UJzdTlZSC2mqsIM-WpmNOc9WnP99EYnAbZbkwY1P8ROU-GGbQWF-7chooEHQ-I5azqtbIv2sopDP0E_WunFnEVH7aswS0yjNLLXN2Ys3LLP3FoVRGTsWk7dJazlv8I0MG_0n1QtdE78wODAHYu2bUxyFdAPTeuz4Le9UDtL6bXqP0ox43yRS0kJTEmOs1kMOTyJbc-vao7-gw8CzC-JXWRwvFwcGSUVcfYBFFRUlzkEYgzi1W_kZgJowE1fvT256VeGDVHff8VPVpcmsNkEmBQruc1uf_r-F-080]--></g></svg>