<?xml version="1.0" encoding="UTF-8" standalone="no"?><svg xmlns="http://www.w3.org/2000/svg" xmlns:xlink="http://www.w3.org/1999/xlink" contentStyleType="text/css" height="1906px" preserveAspectRatio="none" style="width:1987px;height:1906px;background:#FFFFFF;" version="1.1" viewBox="0 0 1987 1906" width="1987px" zoomAndPan="magnify"><defs/><g><rect fill="#FFFFFF" height="1640.359" style="stroke:#181818;stroke-width:1.0;" width="10" x="109" y="129.4799"/><rect fill="#FFFFFF" height="1607.119" style="stroke:#181818;stroke-width:1.0;" width="10" x="748" y="162.7199"/><rect fill="#FFFFFF" height="1472.3991" style="stroke:#181818;stroke-width:1.0;" width="10" x="1069" y="256.1999"/><rect fill="#FFFFFF" height="1086.9994" style="stroke:#181818;stroke-width:1.0;" width="10" x="1074" y="601.3596"/><rect fill="#FFFFFF" height="343.9198" style="stroke:#181818;stroke-width:1.0;" width="10" x="1079" y="655.5996"/><rect fill="#FFFFFF" height="383.1598" style="stroke:#181818;stroke-width:1.0;" width="10" x="1079" y="1040.7594"/><rect fill="#FFFFFF" height="41.24" style="stroke:#181818;stroke-width:1.0;" width="10" x="1461" y="297.4398"/><rect fill="#FFFFFF" height="41.24" style="stroke:#181818;stroke-width:1.0;" width="10" x="1605" y="379.9198"/><rect fill="#FFFFFF" height="41.24" style="stroke:#181818;stroke-width:1.0;" width="10" x="1779" y="462.3997"/><rect fill="#FFFFFF" height="41.24" style="stroke:#181818;stroke-width:1.0;" width="10" x="1926" y="701.8396"/><rect fill="#FFFFFF" height="41.24" style="stroke:#181818;stroke-width:1.0;" width="10" x="1926" y="784.3195"/><rect fill="#FFFFFF" height="41.24" style="stroke:#181818;stroke-width:1.0;" width="10" x="1926" y="1086.9994"/><rect fill="#FFFFFF" height="41.24" style="stroke:#181818;stroke-width:1.0;" width="10" x="1926" y="1169.4793"/><rect fill="none" height="1169.7193" style="stroke:#000000;stroke-width:1.5;" width="1077.5" x="903.5" y="518.6397"/><rect fill="none" height="151.9599" style="stroke:#000000;stroke-width:1.5;" width="471" x="913.5" y="840.5595"/><rect fill="none" height="151.9599" style="stroke:#000000;stroke-width:1.5;" width="607" x="913.5" y="1225.7193"/><rect fill="none" height="235.4398" style="stroke:#000000;stroke-width:1.5;" width="446" x="913.5" y="1445.9192"/><line style="stroke:#181818;stroke-width:0.5;stroke-dasharray:5.0,5.0;" x1="114" x2="114" y1="119.4799" y2="1787.839"/><line style="stroke:#181818;stroke-width:0.5;stroke-dasharray:5.0,5.0;" x1="753" x2="753" y1="119.4799" y2="1787.839"/><line style="stroke:#181818;stroke-width:0.5;stroke-dasharray:5.0,5.0;" x1="1073.5" x2="1073.5" y1="206.8399" y2="1787.839"/><line style="stroke:#181818;stroke-width:0.5;stroke-dasharray:5.0,5.0;" x1="1466" x2="1466" y1="119.4799" y2="1787.839"/><line style="stroke:#181818;stroke-width:0.5;stroke-dasharray:5.0,5.0;" x1="1610" x2="1610" y1="119.4799" y2="1787.839"/><line style="stroke:#181818;stroke-width:0.5;stroke-dasharray:5.0,5.0;" x1="1784" x2="1784" y1="119.4799" y2="1787.839"/><line style="stroke:#181818;stroke-width:0.5;stroke-dasharray:5.0,5.0;" x1="1931" x2="1931" y1="119.4799" y2="1787.839"/><text fill="#000000" font-family="sans-serif" font-size="20" lengthAdjust="spacing" textLength="212" x="5" y="86.38">Vehicle and Equipment</text><text fill="#000000" font-family="sans-serif" font-size="20" lengthAdjust="spacing" textLength="132" x="45" y="113.62">Fleet Manager</text><ellipse cx="114" cy="13.5" fill="#E3E3E3" rx="8" ry="8" style="stroke:#181818;stroke-width:0.5;"/><path d="M114,21.5 L114,48.5 M101,29.5 L127,29.5 M114,48.5 L101,63.5 M114,48.5 L127,63.5 " fill="none" style="stroke:#181818;stroke-width:0.5;"/><text fill="#000000" font-family="sans-serif" font-size="20" lengthAdjust="spacing" textLength="212" x="5" y="1808.219">Vehicle and Equipment</text><text fill="#000000" font-family="sans-serif" font-size="20" lengthAdjust="spacing" textLength="132" x="45" y="1835.4589">Fleet Manager</text><ellipse cx="114" cy="1849.8189" fill="#E3E3E3" rx="8" ry="8" style="stroke:#181818;stroke-width:0.5;"/><path d="M114,1857.8189 L114,1884.8189 M101,1865.8189 L127,1865.8189 M114,1884.8189 L101,1899.8189 M114,1884.8189 L127,1899.8189 " fill="none" style="stroke:#181818;stroke-width:0.5;"/><rect fill="#E3E3E3" height="41.24" rx="2.5" ry="2.5" style="stroke:#181818;stroke-width:0.5;" width="230" x="638" y="77.24"/><text fill="#000000" font-family="sans-serif" font-size="20" lengthAdjust="spacing" textLength="216" x="645" y="105.62">:ListVehiclesCheckupUI</text><rect fill="#E3E3E3" height="41.24" rx="2.5" ry="2.5" style="stroke:#181818;stroke-width:0.5;" width="230" x="638" y="1786.839"/><text fill="#000000" font-family="sans-serif" font-size="20" lengthAdjust="spacing" textLength="216" x="645" y="1815.219">:ListVehiclesCheckupUI</text><rect fill="#E3E3E3" height="41.24" rx="2.5" ry="2.5" style="stroke:#181818;stroke-width:0.5;" width="301" x="923.5" y="1786.839"/><text fill="#000000" font-family="sans-serif" font-size="20" lengthAdjust="spacing" textLength="287" x="930.5" y="1815.219">:ListVehiclesCheckupController</text><rect fill="#E3E3E3" height="41.24" rx="2.5" ry="2.5" style="stroke:#181818;stroke-width:0.5;" width="134" x="1399" y="77.24"/><text fill="#000000" font-family="sans-serif" font-size="20" lengthAdjust="spacing" textLength="120" x="1406" y="105.62">:Repositories</text><rect fill="#E3E3E3" height="41.24" rx="2.5" ry="2.5" style="stroke:#181818;stroke-width:0.5;" width="134" x="1399" y="1786.839"/><text fill="#000000" font-family="sans-serif" font-size="20" lengthAdjust="spacing" textLength="120" x="1406" y="1815.219">:Repositories</text><rect fill="#E3E3E3" height="68.4799" rx="2.5" ry="2.5" style="stroke:#181818;stroke-width:0.5;" width="134" x="1543" y="50"/><text fill="#000000" font-family="sans-serif" font-size="20" lengthAdjust="spacing" textLength="111" x="1554.5" y="78.38">repositories</text><text fill="#000000" font-family="sans-serif" font-size="20" lengthAdjust="spacing" textLength="120" x="1550" y="105.62">:Repositories</text><rect fill="#E3E3E3" height="68.4799" rx="2.5" ry="2.5" style="stroke:#181818;stroke-width:0.5;" width="134" x="1543" y="1786.839"/><text fill="#000000" font-family="sans-serif" font-size="20" lengthAdjust="spacing" textLength="111" x="1554.5" y="1815.219">repositories</text><text fill="#000000" font-family="sans-serif" font-size="20" lengthAdjust="spacing" textLength="120" x="1550" y="1842.4589">:Repositories</text><rect fill="#E3E3E3" height="68.4799" rx="2.5" ry="2.5" style="stroke:#181818;stroke-width:0.5;" width="194" x="1687" y="50"/><text fill="#000000" font-family="sans-serif" font-size="20" lengthAdjust="spacing" textLength="173" x="1697.5" y="78.38">vehiclesRepository</text><text fill="#000000" font-family="sans-serif" font-size="20" lengthAdjust="spacing" textLength="180" x="1694" y="105.62">:VehiclesRepository</text><rect fill="#E3E3E3" height="68.4799" rx="2.5" ry="2.5" style="stroke:#181818;stroke-width:0.5;" width="194" x="1687" y="1786.839"/><text fill="#000000" font-family="sans-serif" font-size="20" lengthAdjust="spacing" textLength="173" x="1697.5" y="1815.219">vehiclesRepository</text><text fill="#000000" font-family="sans-serif" font-size="20" lengthAdjust="spacing" textLength="180" x="1694" y="1842.4589">:VehiclesRepository</text><rect fill="#E3E3E3" height="41.24" rx="2.5" ry="2.5" style="stroke:#181818;stroke-width:0.5;" width="80" x="1891" y="77.24"/><text fill="#000000" font-family="sans-serif" font-size="20" lengthAdjust="spacing" textLength="66" x="1898" y="105.62">Vehicle</text><rect fill="#E3E3E3" height="41.24" rx="2.5" ry="2.5" style="stroke:#181818;stroke-width:0.5;" width="80" x="1891" y="1786.839"/><text fill="#000000" font-family="sans-serif" font-size="20" lengthAdjust="spacing" textLength="66" x="1898" y="1815.219">Vehicle</text><rect fill="#FFFFFF" height="1640.359" style="stroke:#181818;stroke-width:1.0;" width="10" x="109" y="129.4799"/><rect fill="#FFFFFF" height="1607.119" style="stroke:#181818;stroke-width:1.0;" width="10" x="748" y="162.7199"/><rect fill="#FFFFFF" height="1472.3991" style="stroke:#181818;stroke-width:1.0;" width="10" x="1069" y="256.1999"/><rect fill="#FFFFFF" height="1086.9994" style="stroke:#181818;stroke-width:1.0;" width="10" x="1074" y="601.3596"/><rect fill="#FFFFFF" height="343.9198" style="stroke:#181818;stroke-width:1.0;" width="10" x="1079" y="655.5996"/><rect fill="#FFFFFF" height="383.1598" style="stroke:#181818;stroke-width:1.0;" width="10" x="1079" y="1040.7594"/><rect fill="#FFFFFF" height="41.24" style="stroke:#181818;stroke-width:1.0;" width="10" x="1461" y="297.4398"/><rect fill="#FFFFFF" height="41.24" style="stroke:#181818;stroke-width:1.0;" width="10" x="1605" y="379.9198"/><rect fill="#FFFFFF" height="41.24" style="stroke:#181818;stroke-width:1.0;" width="10" x="1779" y="462.3997"/><rect fill="#FFFFFF" height="41.24" style="stroke:#181818;stroke-width:1.0;" width="10" x="1926" y="701.8396"/><rect fill="#FFFFFF" height="41.24" style="stroke:#181818;stroke-width:1.0;" width="10" x="1926" y="784.3195"/><rect fill="#FFFFFF" height="41.24" style="stroke:#181818;stroke-width:1.0;" width="10" x="1926" y="1086.9994"/><rect fill="#FFFFFF" height="41.24" style="stroke:#181818;stroke-width:1.0;" width="10" x="1926" y="1169.4793"/><polygon fill="#181818" points="736,158.7199,746,162.7199,736,166.7199,740,162.7199" style="stroke:#181818;stroke-width:1.0;"/><line style="stroke:#181818;stroke-width:1.0;" x1="119" x2="742" y1="162.7199" y2="162.7199"/><text fill="#000000" font-family="sans-serif" font-size="20" font-weight="bold" lengthAdjust="spacing" textLength="11" x="126" y="154.8599">1</text><text fill="#000000" font-family="sans-serif" font-size="20" lengthAdjust="spacing" textLength="397" x="141" y="154.8599">asks to list the vehicles needing a check-up</text><polygon fill="#181818" points="911.5,199.9599,921.5,203.9599,911.5,207.9599,915.5,203.9599" style="stroke:#181818;stroke-width:1.0;"/><line style="stroke:#181818;stroke-width:1.0;" x1="758" x2="917.5" y1="203.9599" y2="203.9599"/><text fill="#000000" font-family="sans-serif" font-size="20" font-weight="bold" lengthAdjust="spacing" textLength="11" x="765" y="196.0999">2</text><text fill="#000000" font-family="sans-serif" font-size="20" lengthAdjust="spacing" textLength="58" x="780" y="196.0999">create</text><rect fill="#E3E3E3" height="41.24" rx="2.5" ry="2.5" style="stroke:#181818;stroke-width:0.5;" width="301" x="923.5" y="170.7199"/><text fill="#000000" font-family="sans-serif" font-size="20" lengthAdjust="spacing" textLength="287" x="930.5" y="199.0999">:ListVehiclesCheckupController</text><polygon fill="#181818" points="1057,252.1999,1067,256.1999,1057,260.1999,1061,256.1999" style="stroke:#181818;stroke-width:1.0;"/><line style="stroke:#181818;stroke-width:1.0;" x1="758" x2="1063" y1="256.1999" y2="256.1999"/><text fill="#000000" font-family="sans-serif" font-size="20" font-weight="bold" lengthAdjust="spacing" textLength="11" x="765" y="248.3399">3</text><text fill="#000000" font-family="sans-serif" font-size="20" lengthAdjust="spacing" textLength="277" x="780" y="248.3399">getVehiclesNeedingCheckup()</text><polygon fill="#181818" points="1449,293.4398,1459,297.4398,1449,301.4398,1453,297.4398" style="stroke:#181818;stroke-width:1.0;"/><line style="stroke:#181818;stroke-width:1.0;" x1="1079" x2="1455" y1="297.4398" y2="297.4398"/><text fill="#000000" font-family="sans-serif" font-size="20" font-weight="bold" lengthAdjust="spacing" textLength="11" x="1086" y="289.5799">4</text><text fill="#000000" font-family="sans-serif" font-size="20" lengthAdjust="spacing" textLength="122" x="1101" y="289.5799">getInstance()</text><polygon fill="#181818" points="1090,334.6798,1080,338.6798,1090,342.6798,1086,338.6798" style="stroke:#181818;stroke-width:1.0;"/><line style="stroke:#181818;stroke-width:1.0;stroke-dasharray:2.0,2.0;" x1="1084" x2="1465" y1="338.6798" y2="338.6798"/><text fill="#000000" font-family="sans-serif" font-size="20" font-weight="bold" lengthAdjust="spacing" textLength="11" x="1096" y="330.8198">5</text><text fill="#000000" font-family="sans-serif" font-size="20" lengthAdjust="spacing" textLength="111" x="1111" y="330.8198">repositories</text><polygon fill="#181818" points="1593,375.9198,1603,379.9198,1593,383.9198,1597,379.9198" style="stroke:#181818;stroke-width:1.0;"/><line style="stroke:#181818;stroke-width:1.0;" x1="1079" x2="1599" y1="379.9198" y2="379.9198"/><text fill="#000000" font-family="sans-serif" font-size="20" font-weight="bold" lengthAdjust="spacing" textLength="11" x="1086" y="372.0598">6</text><text fill="#000000" font-family="sans-serif" font-size="20" lengthAdjust="spacing" textLength="217" x="1101" y="372.0598">getVehiclesRepository()</text><polygon fill="#181818" points="1090,417.1598,1080,421.1598,1090,425.1598,1086,421.1598" style="stroke:#181818;stroke-width:1.0;"/><line style="stroke:#181818;stroke-width:1.0;stroke-dasharray:2.0,2.0;" x1="1084" x2="1609" y1="421.1598" y2="421.1598"/><text fill="#000000" font-family="sans-serif" font-size="20" font-weight="bold" lengthAdjust="spacing" textLength="11" x="1096" y="413.2998">7</text><text fill="#000000" font-family="sans-serif" font-size="20" lengthAdjust="spacing" textLength="173" x="1111" y="413.2998">vehiclesRepository</text><polygon fill="#181818" points="1767,458.3997,1777,462.3997,1767,466.3997,1771,462.3997" style="stroke:#181818;stroke-width:1.0;"/><line style="stroke:#181818;stroke-width:1.0;" x1="1079" x2="1773" y1="462.3997" y2="462.3997"/><text fill="#000000" font-family="sans-serif" font-size="20" font-weight="bold" lengthAdjust="spacing" textLength="11" x="1086" y="454.5398">8</text><text fill="#000000" font-family="sans-serif" font-size="20" lengthAdjust="spacing" textLength="118" x="1101" y="454.5398">getVehicles()</text><polygon fill="#181818" points="1090,499.6397,1080,503.6397,1090,507.6397,1086,503.6397" style="stroke:#181818;stroke-width:1.0;"/><line style="stroke:#181818;stroke-width:1.0;stroke-dasharray:2.0,2.0;" x1="1084" x2="1783" y1="503.6397" y2="503.6397"/><text fill="#000000" font-family="sans-serif" font-size="20" font-weight="bold" lengthAdjust="spacing" textLength="11" x="1096" y="495.7797">9</text><text fill="#000000" font-family="sans-serif" font-size="20" lengthAdjust="spacing" textLength="74" x="1111" y="495.7797">vehicles</text><path d="M903.5,518.6397 L991.5,518.6397 L991.5,537.8797 L981.5,547.8797 L903.5,547.8797 L903.5,518.6397 " fill="#EEEEEE" style="stroke:#000000;stroke-width:1.5;"/><rect fill="none" height="1169.7193" style="stroke:#000000;stroke-width:1.5;" width="1077.5" x="903.5" y="518.6397"/><text fill="#000000" font-family="sans-serif" font-size="20" font-weight="bold" lengthAdjust="spacing" textLength="43" x="918.5" y="541.0197">loop</text><text fill="#000000" font-family="sans-serif" font-size="20" font-weight="bold" lengthAdjust="spacing" textLength="434" x="1006.5" y="542.0197">[as long as VehiclesRepository doesn't end.]</text><line style="stroke:#181818;stroke-width:1.0;" x1="1079" x2="1126" y1="588.3596" y2="588.3596"/><line style="stroke:#181818;stroke-width:1.0;" x1="1126" x2="1126" y1="588.3596" y2="601.3596"/><line style="stroke:#181818;stroke-width:1.0;" x1="1085" x2="1126" y1="601.3596" y2="601.3596"/><polygon fill="#181818" points="1095,597.3596,1085,601.3596,1095,605.3596,1091,601.3596" style="stroke:#181818;stroke-width:1.0;"/><text fill="#000000" font-family="sans-serif" font-size="20" font-weight="bold" lengthAdjust="spacing" textLength="22" x="1091" y="580.4997">10</text><text fill="#000000" font-family="sans-serif" font-size="20" lengthAdjust="spacing" textLength="342" x="1117" y="580.4997">isVehicleNeedingOrAlmostCheckup()</text><line style="stroke:#181818;stroke-width:1.0;" x1="1084" x2="1131" y1="642.5996" y2="642.5996"/><line style="stroke:#181818;stroke-width:1.0;" x1="1131" x2="1131" y1="642.5996" y2="655.5996"/><line style="stroke:#181818;stroke-width:1.0;" x1="1090" x2="1131" y1="655.5996" y2="655.5996"/><polygon fill="#181818" points="1100,651.5996,1090,655.5996,1100,659.5996,1096,655.5996" style="stroke:#181818;stroke-width:1.0;"/><text fill="#000000" font-family="sans-serif" font-size="20" font-weight="bold" lengthAdjust="spacing" textLength="22" x="1096" y="634.7396">11</text><text fill="#000000" font-family="sans-serif" font-size="20" lengthAdjust="spacing" textLength="246" x="1122" y="634.7396">didVehExceededCheckup()</text><polygon fill="#181818" points="1914,697.8396,1924,701.8396,1914,705.8396,1918,701.8396" style="stroke:#181818;stroke-width:1.0;"/><line style="stroke:#181818;stroke-width:1.0;" x1="1089" x2="1920" y1="701.8396" y2="701.8396"/><text fill="#000000" font-family="sans-serif" font-size="20" font-weight="bold" lengthAdjust="spacing" textLength="22" x="1096" y="693.9796">12</text><text fill="#000000" font-family="sans-serif" font-size="20" lengthAdjust="spacing" textLength="162" x="1122" y="693.9796">getMaintenance()</text><polygon fill="#181818" points="1100,739.0796,1090,743.0796,1100,747.0796,1096,743.0796" style="stroke:#181818;stroke-width:1.0;"/><line style="stroke:#181818;stroke-width:1.0;stroke-dasharray:2.0,2.0;" x1="1094" x2="1930" y1="743.0796" y2="743.0796"/><text fill="#000000" font-family="sans-serif" font-size="20" font-weight="bold" lengthAdjust="spacing" textLength="22" x="1106" y="735.2196">13</text><text fill="#000000" font-family="sans-serif" font-size="20" lengthAdjust="spacing" textLength="121" x="1132" y="735.2196">maintenance</text><polygon fill="#181818" points="1914,780.3195,1924,784.3195,1914,788.3195,1918,784.3195" style="stroke:#181818;stroke-width:1.0;"/><line style="stroke:#181818;stroke-width:1.0;" x1="1089" x2="1920" y1="784.3195" y2="784.3195"/><text fill="#000000" font-family="sans-serif" font-size="20" font-weight="bold" lengthAdjust="spacing" textLength="22" x="1096" y="776.4596">14</text><text fill="#000000" font-family="sans-serif" font-size="20" lengthAdjust="spacing" textLength="144" x="1122" y="776.4596">getCurrentKm()</text><polygon fill="#181818" points="1100,821.5595,1090,825.5595,1100,829.5595,1096,825.5595" style="stroke:#181818;stroke-width:1.0;"/><line style="stroke:#181818;stroke-width:1.0;stroke-dasharray:2.0,2.0;" x1="1094" x2="1930" y1="825.5595" y2="825.5595"/><text fill="#000000" font-family="sans-serif" font-size="20" font-weight="bold" lengthAdjust="spacing" textLength="22" x="1106" y="817.6995">15</text><text fill="#000000" font-family="sans-serif" font-size="20" lengthAdjust="spacing" textLength="99" x="1132" y="817.6995">currentKm</text><path d="M913.5,840.5595 L985.5,840.5595 L985.5,859.7995 L975.5,869.7995 L913.5,869.7995 L913.5,840.5595 " fill="#EEEEEE" style="stroke:#000000;stroke-width:1.5;"/><rect fill="none" height="151.9599" style="stroke:#000000;stroke-width:1.5;" width="471" x="913.5" y="840.5595"/><text fill="#000000" font-family="sans-serif" font-size="20" font-weight="bold" lengthAdjust="spacing" textLength="27" x="928.5" y="862.9395">alt</text><text fill="#000000" font-family="sans-serif" font-size="20" font-weight="bold" lengthAdjust="spacing" textLength="379" x="1000.5" y="863.9395">[if currentKm exceeded maintenance]</text><line style="stroke:#181818;stroke-width:1.0;stroke-dasharray:2.0,2.0;" x1="1089" x2="1131" y1="915.2794" y2="915.2794"/><line style="stroke:#181818;stroke-width:1.0;stroke-dasharray:2.0,2.0;" x1="1131" x2="1131" y1="915.2794" y2="928.2794"/><line style="stroke:#181818;stroke-width:1.0;stroke-dasharray:2.0,2.0;" x1="1090" x2="1131" y1="928.2794" y2="928.2794"/><polygon fill="#181818" points="1100,924.2794,1090,928.2794,1100,932.2794,1096,928.2794" style="stroke:#181818;stroke-width:1.0;"/><text fill="#000000" font-family="sans-serif" font-size="20" font-weight="bold" lengthAdjust="spacing" textLength="22" x="1096" y="907.4195">16</text><text fill="#000000" font-family="sans-serif" font-size="20" lengthAdjust="spacing" textLength="38" x="1122" y="907.4195">true</text><line style="stroke:#000000;stroke-width:1.0;stroke-dasharray:2.0,2.0;" x1="913.5" x2="1384.5" y1="937.2794" y2="937.2794"/><line style="stroke:#181818;stroke-width:1.0;stroke-dasharray:2.0,2.0;" x1="1089" x2="1131" y1="971.5194" y2="971.5194"/><line style="stroke:#181818;stroke-width:1.0;stroke-dasharray:2.0,2.0;" x1="1131" x2="1131" y1="971.5194" y2="984.5194"/><line style="stroke:#181818;stroke-width:1.0;stroke-dasharray:2.0,2.0;" x1="1090" x2="1131" y1="984.5194" y2="984.5194"/><polygon fill="#181818" points="1100,980.5194,1090,984.5194,1100,988.5194,1096,984.5194" style="stroke:#181818;stroke-width:1.0;"/><text fill="#000000" font-family="sans-serif" font-size="20" font-weight="bold" lengthAdjust="spacing" textLength="22" x="1096" y="963.6594">17</text><text fill="#000000" font-family="sans-serif" font-size="20" lengthAdjust="spacing" textLength="44" x="1122" y="963.6594">false</text><line style="stroke:#181818;stroke-width:1.0;" x1="1084" x2="1131" y1="1027.7594" y2="1027.7594"/><line style="stroke:#181818;stroke-width:1.0;" x1="1131" x2="1131" y1="1027.7594" y2="1040.7594"/><line style="stroke:#181818;stroke-width:1.0;" x1="1090" x2="1131" y1="1040.7594" y2="1040.7594"/><polygon fill="#181818" points="1100,1036.7594,1090,1040.7594,1100,1044.7594,1096,1040.7594" style="stroke:#181818;stroke-width:1.0;"/><text fill="#000000" font-family="sans-serif" font-size="20" font-weight="bold" lengthAdjust="spacing" textLength="22" x="1096" y="1019.8994">18</text><text fill="#000000" font-family="sans-serif" font-size="20" lengthAdjust="spacing" textLength="314" x="1122" y="1019.8994">isVehicleCloseToExceedCheckup()</text><polygon fill="#181818" points="1914,1082.9994,1924,1086.9994,1914,1090.9994,1918,1086.9994" style="stroke:#181818;stroke-width:1.0;"/><line style="stroke:#181818;stroke-width:1.0;" x1="1089" x2="1920" y1="1086.9994" y2="1086.9994"/><text fill="#000000" font-family="sans-serif" font-size="20" font-weight="bold" lengthAdjust="spacing" textLength="22" x="1096" y="1079.1394">19</text><text fill="#000000" font-family="sans-serif" font-size="20" lengthAdjust="spacing" textLength="162" x="1122" y="1079.1394">getMaintenance()</text><polygon fill="#181818" points="1100,1124.2393,1090,1128.2393,1100,1132.2393,1096,1128.2393" style="stroke:#181818;stroke-width:1.0;"/><line style="stroke:#181818;stroke-width:1.0;stroke-dasharray:2.0,2.0;" x1="1094" x2="1930" y1="1128.2393" y2="1128.2393"/><text fill="#000000" font-family="sans-serif" font-size="20" font-weight="bold" lengthAdjust="spacing" textLength="22" x="1106" y="1120.3794">20</text><text fill="#000000" font-family="sans-serif" font-size="20" lengthAdjust="spacing" textLength="121" x="1132" y="1120.3794">maintenance</text><polygon fill="#181818" points="1914,1165.4793,1924,1169.4793,1914,1173.4793,1918,1169.4793" style="stroke:#181818;stroke-width:1.0;"/><line style="stroke:#181818;stroke-width:1.0;" x1="1089" x2="1920" y1="1169.4793" y2="1169.4793"/><text fill="#000000" font-family="sans-serif" font-size="20" font-weight="bold" lengthAdjust="spacing" textLength="22" x="1096" y="1161.6193">21</text><text fill="#000000" font-family="sans-serif" font-size="20" lengthAdjust="spacing" textLength="144" x="1122" y="1161.6193">getCurrentKm()</text><polygon fill="#181818" points="1100,1206.7193,1090,1210.7193,1100,1214.7193,1096,1210.7193" style="stroke:#181818;stroke-width:1.0;"/><line style="stroke:#181818;stroke-width:1.0;stroke-dasharray:2.0,2.0;" x1="1094" x2="1930" y1="1210.7193" y2="1210.7193"/><text fill="#000000" font-family="sans-serif" font-size="20" font-weight="bold" lengthAdjust="spacing" textLength="22" x="1106" y="1202.8593">22</text><text fill="#000000" font-family="sans-serif" font-size="20" lengthAdjust="spacing" textLength="99" x="1132" y="1202.8593">currentKm</text><path d="M913.5,1225.7193 L985.5,1225.7193 L985.5,1244.9593 L975.5,1254.9593 L913.5,1254.9593 L913.5,1225.7193 " fill="#EEEEEE" style="stroke:#000000;stroke-width:1.5;"/><rect fill="none" height="151.9599" style="stroke:#000000;stroke-width:1.5;" width="607" x="913.5" y="1225.7193"/><text fill="#000000" font-family="sans-serif" font-size="20" font-weight="bold" lengthAdjust="spacing" textLength="27" x="928.5" y="1248.0993">alt</text><text fill="#000000" font-family="sans-serif" font-size="20" font-weight="bold" lengthAdjust="spacing" textLength="515" x="1000.5" y="1249.0993">[if currentKm is 5% almost exceeding maintenance]</text><line style="stroke:#181818;stroke-width:1.0;stroke-dasharray:2.0,2.0;" x1="1089" x2="1131" y1="1300.4392" y2="1300.4392"/><line style="stroke:#181818;stroke-width:1.0;stroke-dasharray:2.0,2.0;" x1="1131" x2="1131" y1="1300.4392" y2="1313.4392"/><line style="stroke:#181818;stroke-width:1.0;stroke-dasharray:2.0,2.0;" x1="1090" x2="1131" y1="1313.4392" y2="1313.4392"/><polygon fill="#181818" points="1100,1309.4392,1090,1313.4392,1100,1317.4392,1096,1313.4392" style="stroke:#181818;stroke-width:1.0;"/><text fill="#000000" font-family="sans-serif" font-size="20" font-weight="bold" lengthAdjust="spacing" textLength="22" x="1096" y="1292.5792">23</text><text fill="#000000" font-family="sans-serif" font-size="20" lengthAdjust="spacing" textLength="38" x="1122" y="1292.5792">true</text><line style="stroke:#000000;stroke-width:1.0;stroke-dasharray:2.0,2.0;" x1="913.5" x2="1520.5" y1="1322.4392" y2="1322.4392"/><line style="stroke:#181818;stroke-width:1.0;stroke-dasharray:2.0,2.0;" x1="1089" x2="1131" y1="1356.6792" y2="1356.6792"/><line style="stroke:#181818;stroke-width:1.0;stroke-dasharray:2.0,2.0;" x1="1131" x2="1131" y1="1356.6792" y2="1369.6792"/><line style="stroke:#181818;stroke-width:1.0;stroke-dasharray:2.0,2.0;" x1="1090" x2="1131" y1="1369.6792" y2="1369.6792"/><polygon fill="#181818" points="1100,1365.6792,1090,1369.6792,1100,1373.6792,1096,1369.6792" style="stroke:#181818;stroke-width:1.0;"/><text fill="#000000" font-family="sans-serif" font-size="20" font-weight="bold" lengthAdjust="spacing" textLength="22" x="1096" y="1348.8192">24</text><text fill="#000000" font-family="sans-serif" font-size="20" lengthAdjust="spacing" textLength="44" x="1122" y="1348.8192">false</text><line style="stroke:#181818;stroke-width:1.0;stroke-dasharray:2.0,2.0;" x1="1089" x2="1131" y1="1422.9192" y2="1422.9192"/><line style="stroke:#181818;stroke-width:1.0;stroke-dasharray:2.0,2.0;" x1="1131" x2="1131" y1="1422.9192" y2="1435.9192"/><line style="stroke:#181818;stroke-width:1.0;stroke-dasharray:2.0,2.0;" x1="1084" x2="1131" y1="1435.9192" y2="1435.9192"/><polygon fill="#181818" points="1094,1431.9192,1084,1435.9192,1094,1439.9192,1090,1435.9192" style="stroke:#181818;stroke-width:1.0;"/><text fill="#000000" font-family="sans-serif" font-size="20" font-weight="bold" lengthAdjust="spacing" textLength="22" x="1096" y="1415.0592">25</text><text fill="#000000" font-family="sans-serif" font-size="20" lengthAdjust="spacing" textLength="89" x="1122" y="1415.0592">true/false</text><path d="M913.5,1445.9192 L985.5,1445.9192 L985.5,1465.1591 L975.5,1475.1591 L913.5,1475.1591 L913.5,1445.9192 " fill="#EEEEEE" style="stroke:#000000;stroke-width:1.5;"/><rect fill="none" height="235.4398" style="stroke:#000000;stroke-width:1.5;" width="446" x="913.5" y="1445.9192"/><text fill="#000000" font-family="sans-serif" font-size="20" font-weight="bold" lengthAdjust="spacing" textLength="27" x="928.5" y="1468.2992">alt</text><text fill="#000000" font-family="sans-serif" font-size="20" font-weight="bold" lengthAdjust="spacing" textLength="354" x="1000.5" y="1469.2992">[didVehExceededCheckup() == true]</text><line style="stroke:#181818;stroke-width:1.0;stroke-dasharray:2.0,2.0;" x1="1084" x2="1126" y1="1520.6391" y2="1520.6391"/><line style="stroke:#181818;stroke-width:1.0;stroke-dasharray:2.0,2.0;" x1="1126" x2="1126" y1="1520.6391" y2="1533.6391"/><line style="stroke:#181818;stroke-width:1.0;stroke-dasharray:2.0,2.0;" x1="1085" x2="1126" y1="1533.6391" y2="1533.6391"/><polygon fill="#181818" points="1095,1529.6391,1085,1533.6391,1095,1537.6391,1091,1533.6391" style="stroke:#181818;stroke-width:1.0;"/><text fill="#000000" font-family="sans-serif" font-size="20" font-weight="bold" lengthAdjust="spacing" textLength="22" x="1091" y="1512.7791">26</text><text fill="#000000" font-family="sans-serif" font-size="20" lengthAdjust="spacing" textLength="38" x="1117" y="1512.7791">true</text><line style="stroke:#000000;stroke-width:1.0;stroke-dasharray:2.0,2.0;" x1="913.5" x2="1359.5" y1="1542.6391" y2="1542.6391"/><text fill="#000000" font-family="sans-serif" font-size="20" font-weight="bold" lengthAdjust="spacing" textLength="424" x="918.5" y="1564.0191">[isVehicleCloseToExceedCheckup() == true]</text><line style="stroke:#181818;stroke-width:1.0;stroke-dasharray:2.0,2.0;" x1="1084" x2="1126" y1="1604.119" y2="1604.119"/><line style="stroke:#181818;stroke-width:1.0;stroke-dasharray:2.0,2.0;" x1="1126" x2="1126" y1="1604.119" y2="1617.119"/><line style="stroke:#181818;stroke-width:1.0;stroke-dasharray:2.0,2.0;" x1="1085" x2="1126" y1="1617.119" y2="1617.119"/><polygon fill="#181818" points="1095,1613.119,1085,1617.119,1095,1621.119,1091,1617.119" style="stroke:#181818;stroke-width:1.0;"/><text fill="#000000" font-family="sans-serif" font-size="20" font-weight="bold" lengthAdjust="spacing" textLength="22" x="1091" y="1596.2591">27</text><text fill="#000000" font-family="sans-serif" font-size="20" lengthAdjust="spacing" textLength="38" x="1117" y="1596.2591">true</text><line style="stroke:#000000;stroke-width:1.0;stroke-dasharray:2.0,2.0;" x1="913.5" x2="1359.5" y1="1626.119" y2="1626.119"/><line style="stroke:#181818;stroke-width:1.0;stroke-dasharray:2.0,2.0;" x1="1084" x2="1126" y1="1660.359" y2="1660.359"/><line style="stroke:#181818;stroke-width:1.0;stroke-dasharray:2.0,2.0;" x1="1126" x2="1126" y1="1660.359" y2="1673.359"/><line style="stroke:#181818;stroke-width:1.0;stroke-dasharray:2.0,2.0;" x1="1085" x2="1126" y1="1673.359" y2="1673.359"/><polygon fill="#181818" points="1095,1669.359,1085,1673.359,1095,1677.359,1091,1673.359" style="stroke:#181818;stroke-width:1.0;"/><text fill="#000000" font-family="sans-serif" font-size="20" font-weight="bold" lengthAdjust="spacing" textLength="22" x="1091" y="1652.499">28</text><text fill="#000000" font-family="sans-serif" font-size="20" lengthAdjust="spacing" textLength="44" x="1117" y="1652.499">false</text><polygon fill="#181818" points="769,1724.599,759,1728.599,769,1732.599,765,1728.599" style="stroke:#181818;stroke-width:1.0;"/><line style="stroke:#181818;stroke-width:1.0;stroke-dasharray:2.0,2.0;" x1="763" x2="1073" y1="1728.599" y2="1728.599"/><text fill="#000000" font-family="sans-serif" font-size="20" font-weight="bold" lengthAdjust="spacing" textLength="22" x="775" y="1720.739">29</text><text fill="#000000" font-family="sans-serif" font-size="20" lengthAdjust="spacing" textLength="233" x="801" y="1720.739">vehiclesNeedingCheckup</text><polygon fill="#181818" points="125,1765.839,115,1769.839,125,1773.839,121,1769.839" style="stroke:#181818;stroke-width:1.0;"/><line style="stroke:#181818;stroke-width:1.0;stroke-dasharray:2.0,2.0;" x1="119" x2="752" y1="1769.839" y2="1769.839"/><text fill="#000000" font-family="sans-serif" font-size="20" font-weight="bold" lengthAdjust="spacing" textLength="22" x="131" y="1761.979">30</text><text fill="#000000" font-family="sans-serif" font-size="20" lengthAdjust="spacing" textLength="579" x="157" y="1761.979">Shows the list of vehicles needing or almost needing check-up.</text><!--SRC=[xLTDQzmm4BthLmo1aZQmQIdqif10s2OGchGbkyaf5yMUNOkL9TUIyz5Vtv5M_hOt6z922_KbH9vvy-RDiprhra9bFEUfrD4QOuXnoGjfpxIoS_4JuUC7PieGIBNIKPBh5C7c1JRkP3nQynNExPD4o36oNAraCy0aFDOFGgrWoQL1ndXXjIhIEymPsqz4ZB3KsjxfHyOZgtFOky54H8J6LGodFmgHfQZihJgJY1OkkQ9o-Hvm0oUVBnaLiI8I6LSMzgONmjYGRcO9HkiYkpxtiTVdpuVEgFTSIndWPukhYqxI5MRQ268fqFYOwk1fBbpZr5ex9MzatAe-mFUBaqKxupwGgg4fxwPtwBFfs9sq0K9i6S2ShkAUM_I20Ltq5oR7f0bCAMXjm6gGf0VO1A6i3menTdFZ43bz9aN6V7O5Hvf2k0YA09rY1mS46kL80GDtwTuAAzs_RYe4-T- -OrL6LSCFeJfsbuSXk07fD-Zdof0B8spYjJ27XWQTQmXz4fgOGdEghTGOjrOPRCHPeArBdJhQW_TDbxH7gbdsdJJ6rQCDaWiEQ_CRPLNwiKkiH9dKDYZ9ZL4geLhtfTQPixNKpfVUtfqE8TPerBu5LF4Xwn4fsmeaX0a8mOdVyXEPQcC77Bc3CqUAn2AcAgUF4TN0k8OUIjq1lJETpMGkkL0MLR3zM5fJtD6WCA_chD8QVJIjFReNK9yLUKul-2_f7o0UbTYlfisb1R6i0G73F7SIfswyvkO_f6F1w3wLBq7RV5n7uLGyt5gZ_PtzN3qqCwaDBlJ6sLiUcRwn__lwh_MrCF3f3Hsxrs0mkLi2_XMNluJN-t6udPuBfzt8onsEZhQtlhDEJgFd7hdVMuszVXg3xvkjclOogc9-IxqVt1ZPiz1kyoGCj_1EOPxe1-DtNB_iwcL_rwNV7y7wvKcv-nwoJY7QVbdZNxTR_m80]--></g></svg>