<?xml version="1.0" encoding="us-ascii" standalone="no"?><svg xmlns="http://www.w3.org/2000/svg" xmlns:xlink="http://www.w3.org/1999/xlink" contentStyleType="text/css" height="282px" preserveAspectRatio="none" style="width:871px;height:282px;background:#FFFFFF;" version="1.1" viewBox="0 0 871 282" width="871px" zoomAndPan="magnify"><defs/><g><!--class VehiclesRepository--><g id="elem_VehiclesRepository"><rect codeLine="11" fill="#F1F1F1" height="85.2422" id="VehiclesRepository" rx="2.5" ry="2.5" style="stroke:#181818;stroke-width:0.5;" width="153" x="213" y="162"/><ellipse cx="228" cy="178" fill="#ADD1B2" rx="11" ry="11" style="stroke:#181818;stroke-width:1.0;"/><path d="M230.7656,173.875 Q230.9219,173.6563 231.1094,173.5469 Q231.2969,173.4375 231.5156,173.4375 Q231.8906,173.4375 232.125,173.7031 Q232.3594,173.9531 232.3594,174.5625 L232.3594,176.0156 Q232.3594,176.625 232.125,176.8906 Q231.8906,177.1563 231.5156,177.1563 Q231.1719,177.1563 230.9688,176.9531 Q230.7656,176.7656 230.6563,176.25 Q230.6094,175.8906 230.4219,175.7031 Q230.0938,175.3281 229.4844,175.1094 Q228.875,174.8906 228.25,174.8906 Q227.4844,174.8906 226.8438,175.2188 Q226.2188,175.5469 225.7188,176.2969 Q225.2344,177.0469 225.2344,178.0781 L225.2344,179.1719 Q225.2344,180.4063 226.125,181.2344 Q227.0156,182.0469 228.6094,182.0469 Q229.5469,182.0469 230.2031,181.7969 Q230.5938,181.6406 231.0156,181.2031 Q231.2813,180.9375 231.4219,180.8594 Q231.5781,180.7813 231.7813,180.7813 Q232.1094,180.7813 232.3594,181.0469 Q232.625,181.2969 232.625,181.6406 Q232.625,181.9844 232.2813,182.3906 Q231.7813,182.9688 230.9844,183.2969 Q229.9063,183.75 228.6094,183.75 Q227.0938,183.75 225.8906,183.125 Q224.9063,182.625 224.2188,181.5625 Q223.5313,180.4844 223.5313,179.2031 L223.5313,178.0469 Q223.5313,176.7188 224.1406,175.5781 Q224.7656,174.4219 225.8594,173.8125 Q226.9531,173.1875 228.1875,173.1875 Q228.9219,173.1875 229.5625,173.3594 Q230.2188,173.5156 230.7656,173.875 Z " fill="#000000"/><text fill="#000000" font-family="sans-serif" font-size="14" lengthAdjust="spacing" textLength="121" x="242" y="183.7969">VehiclesRepository</text><line style="stroke:#181818;stroke-width:0.5;" x1="214" x2="365" y1="194" y2="194"/><text fill="#000000" font-family="sans-serif" font-size="14" lengthAdjust="spacing" textLength="56" x="219" y="213.1074">-vehicles</text><line style="stroke:#181818;stroke-width:0.5;" x1="214" x2="365" y1="220.6211" y2="220.6211"/><text fill="#000000" font-family="sans-serif" font-size="14" lengthAdjust="spacing" textLength="91" x="219" y="239.7285">+getVehicles()</text></g><!--class Vehicle--><g id="elem_Vehicle"><rect codeLine="15" fill="#F1F1F1" height="141.1055" id="Vehicle" rx="2.5" ry="2.5" style="stroke:#181818;stroke-width:0.5;" width="252" x="401.5" y="134"/><ellipse cx="500.25" cy="150" fill="#ADD1B2" rx="11" ry="11" style="stroke:#181818;stroke-width:1.0;"/><path d="M503.0156,145.875 Q503.1719,145.6563 503.3594,145.5469 Q503.5469,145.4375 503.7656,145.4375 Q504.1406,145.4375 504.375,145.7031 Q504.6094,145.9531 504.6094,146.5625 L504.6094,148.0156 Q504.6094,148.625 504.375,148.8906 Q504.1406,149.1563 503.7656,149.1563 Q503.4219,149.1563 503.2188,148.9531 Q503.0156,148.7656 502.9063,148.25 Q502.8594,147.8906 502.6719,147.7031 Q502.3438,147.3281 501.7344,147.1094 Q501.125,146.8906 500.5,146.8906 Q499.7344,146.8906 499.0938,147.2188 Q498.4688,147.5469 497.9688,148.2969 Q497.4844,149.0469 497.4844,150.0781 L497.4844,151.1719 Q497.4844,152.4063 498.375,153.2344 Q499.2656,154.0469 500.8594,154.0469 Q501.7969,154.0469 502.4531,153.7969 Q502.8438,153.6406 503.2656,153.2031 Q503.5313,152.9375 503.6719,152.8594 Q503.8281,152.7813 504.0313,152.7813 Q504.3594,152.7813 504.6094,153.0469 Q504.875,153.2969 504.875,153.6406 Q504.875,153.9844 504.5313,154.3906 Q504.0313,154.9688 503.2344,155.2969 Q502.1563,155.75 500.8594,155.75 Q499.3438,155.75 498.1406,155.125 Q497.1563,154.625 496.4688,153.5625 Q495.7813,152.4844 495.7813,151.2031 L495.7813,150.0469 Q495.7813,148.7188 496.3906,147.5781 Q497.0156,146.4219 498.1094,145.8125 Q499.2031,145.1875 500.4375,145.1875 Q501.1719,145.1875 501.8125,145.3594 Q502.4688,145.5156 503.0156,145.875 Z " fill="#000000"/><text fill="#000000" font-family="sans-serif" font-size="14" lengthAdjust="spacing" textLength="46" x="520.75" y="155.7969">Vehicle</text><line style="stroke:#181818;stroke-width:0.5;" x1="402.5" x2="652.5" y1="166" y2="166"/><text fill="#000000" font-family="sans-serif" font-size="14" lengthAdjust="spacing" textLength="70" x="407.5" y="185.1074">-currentKm</text><text fill="#000000" font-family="sans-serif" font-size="14" lengthAdjust="spacing" textLength="86" x="407.5" y="203.7285">-maintenance</text><line style="stroke:#181818;stroke-width:0.5;" x1="402.5" x2="652.5" y1="211.2422" y2="211.2422"/><text fill="#000000" font-family="sans-serif" font-size="14" lengthAdjust="spacing" textLength="180" x="407.5" y="230.3496">+didVehExceededCheckup()</text><text fill="#000000" font-family="sans-serif" font-size="14" lengthAdjust="spacing" textLength="229" x="407.5" y="248.9707">+isVehicleCloseToExceedCheckup()</text><text fill="#000000" font-family="sans-serif" font-size="14" lengthAdjust="spacing" textLength="240" x="407.5" y="267.5918">+isVehicleNeedingOrAlmostCheckup()</text></g><!--class Repositories--><g id="elem_Repositories"><rect codeLine="23" fill="#F1F1F1" height="122.4844" id="Repositories" rx="2.5" ry="2.5" style="stroke:#181818;stroke-width:0.5;" width="171" x="7" y="143.5"/><ellipse cx="49" cy="159.5" fill="#ADD1B2" rx="11" ry="11" style="stroke:#181818;stroke-width:1.0;"/><path d="M51.7656,155.375 Q51.9219,155.1563 52.1094,155.0469 Q52.2969,154.9375 52.5156,154.9375 Q52.8906,154.9375 53.125,155.2031 Q53.3594,155.4531 53.3594,156.0625 L53.3594,157.5156 Q53.3594,158.125 53.125,158.3906 Q52.8906,158.6563 52.5156,158.6563 Q52.1719,158.6563 51.9688,158.4531 Q51.7656,158.2656 51.6563,157.75 Q51.6094,157.3906 51.4219,157.2031 Q51.0938,156.8281 50.4844,156.6094 Q49.875,156.3906 49.25,156.3906 Q48.4844,156.3906 47.8438,156.7188 Q47.2188,157.0469 46.7188,157.7969 Q46.2344,158.5469 46.2344,159.5781 L46.2344,160.6719 Q46.2344,161.9063 47.125,162.7344 Q48.0156,163.5469 49.6094,163.5469 Q50.5469,163.5469 51.2031,163.2969 Q51.5938,163.1406 52.0156,162.7031 Q52.2813,162.4375 52.4219,162.3594 Q52.5781,162.2813 52.7813,162.2813 Q53.1094,162.2813 53.3594,162.5469 Q53.625,162.7969 53.625,163.1406 Q53.625,163.4844 53.2813,163.8906 Q52.7813,164.4688 51.9844,164.7969 Q50.9063,165.25 49.6094,165.25 Q48.0938,165.25 46.8906,164.625 Q45.9063,164.125 45.2188,163.0625 Q44.5313,161.9844 44.5313,160.7031 L44.5313,159.5469 Q44.5313,158.2188 45.1406,157.0781 Q45.7656,155.9219 46.8594,155.3125 Q47.9531,154.6875 49.1875,154.6875 Q49.9219,154.6875 50.5625,154.8594 Q51.2188,155.0156 51.7656,155.375 Z " fill="#000000"/><text fill="#000000" font-family="sans-serif" font-size="14" lengthAdjust="spacing" textLength="79" x="69" y="165.2969">Repositories</text><line style="stroke:#181818;stroke-width:0.5;" x1="8" x2="177" y1="175.5" y2="175.5"/><text fill="#000000" font-family="sans-serif" font-size="14" lengthAdjust="spacing" textLength="58" x="13" y="194.6074">-instance</text><line style="stroke:#181818;stroke-width:0.5;" x1="8" x2="177" y1="202.1211" y2="202.1211"/><text fill="#000000" font-family="sans-serif" font-size="14" lengthAdjust="spacing" textLength="94" x="13" y="221.2285">-Repositories()</text><text fill="#000000" font-family="sans-serif" font-size="14" lengthAdjust="spacing" textLength="91" x="13" y="239.8496">+getInstance()</text><text fill="#000000" font-family="sans-serif" font-size="14" lengthAdjust="spacing" textLength="159" x="13" y="258.4707">+getVehiclesRepository()</text></g><!--class ListVehiclesCheckupController--><g id="elem_ListVehiclesCheckupController"><rect codeLine="30" fill="#F1F1F1" height="66.6211" id="ListVehiclesCheckupController" rx="2.5" ry="2.5" style="stroke:#181818;stroke-width:0.5;" width="225" x="296" y="7"/><ellipse cx="311" cy="23" fill="#ADD1B2" rx="11" ry="11" style="stroke:#181818;stroke-width:1.0;"/><path d="M313.7656,18.875 Q313.9219,18.6563 314.1094,18.5469 Q314.2969,18.4375 314.5156,18.4375 Q314.8906,18.4375 315.125,18.7031 Q315.3594,18.9531 315.3594,19.5625 L315.3594,21.0156 Q315.3594,21.625 315.125,21.8906 Q314.8906,22.1563 314.5156,22.1563 Q314.1719,22.1563 313.9688,21.9531 Q313.7656,21.7656 313.6563,21.25 Q313.6094,20.8906 313.4219,20.7031 Q313.0938,20.3281 312.4844,20.1094 Q311.875,19.8906 311.25,19.8906 Q310.4844,19.8906 309.8438,20.2188 Q309.2188,20.5469 308.7188,21.2969 Q308.2344,22.0469 308.2344,23.0781 L308.2344,24.1719 Q308.2344,25.4063 309.125,26.2344 Q310.0156,27.0469 311.6094,27.0469 Q312.5469,27.0469 313.2031,26.7969 Q313.5938,26.6406 314.0156,26.2031 Q314.2813,25.9375 314.4219,25.8594 Q314.5781,25.7813 314.7813,25.7813 Q315.1094,25.7813 315.3594,26.0469 Q315.625,26.2969 315.625,26.6406 Q315.625,26.9844 315.2813,27.3906 Q314.7813,27.9688 313.9844,28.2969 Q312.9063,28.75 311.6094,28.75 Q310.0938,28.75 308.8906,28.125 Q307.9063,27.625 307.2188,26.5625 Q306.5313,25.4844 306.5313,24.2031 L306.5313,23.0469 Q306.5313,21.7188 307.1406,20.5781 Q307.7656,19.4219 308.8594,18.8125 Q309.9531,18.1875 311.1875,18.1875 Q311.9219,18.1875 312.5625,18.3594 Q313.2188,18.5156 313.7656,18.875 Z " fill="#000000"/><text fill="#000000" font-family="sans-serif" font-size="14" lengthAdjust="spacing" textLength="193" x="325" y="28.7969">ListVehiclesCheckupController</text><line style="stroke:#181818;stroke-width:0.5;" x1="297" x2="520" y1="39" y2="39"/><line style="stroke:#181818;stroke-width:0.5;" x1="297" x2="520" y1="47" y2="47"/><text fill="#000000" font-family="sans-serif" font-size="14" lengthAdjust="spacing" textLength="199" x="302" y="66.1074">+getVehiclesNeedingCheckup()</text></g><!--class ListVehiclesCheckupUI--><g id="elem_ListVehiclesCheckupUI"><rect codeLine="34" fill="#F1F1F1" height="48" id="ListVehiclesCheckupUI" rx="2.5" ry="2.5" style="stroke:#181818;stroke-width:0.5;" width="175" x="689" y="180.5"/><ellipse cx="704" cy="196.5" fill="#ADD1B2" rx="11" ry="11" style="stroke:#181818;stroke-width:1.0;"/><path d="M706.7656,192.375 Q706.9219,192.1563 707.1094,192.0469 Q707.2969,191.9375 707.5156,191.9375 Q707.8906,191.9375 708.125,192.2031 Q708.3594,192.4531 708.3594,193.0625 L708.3594,194.5156 Q708.3594,195.125 708.125,195.3906 Q707.8906,195.6563 707.5156,195.6563 Q707.1719,195.6563 706.9688,195.4531 Q706.7656,195.2656 706.6563,194.75 Q706.6094,194.3906 706.4219,194.2031 Q706.0938,193.8281 705.4844,193.6094 Q704.875,193.3906 704.25,193.3906 Q703.4844,193.3906 702.8438,193.7188 Q702.2188,194.0469 701.7188,194.7969 Q701.2344,195.5469 701.2344,196.5781 L701.2344,197.6719 Q701.2344,198.9063 702.125,199.7344 Q703.0156,200.5469 704.6094,200.5469 Q705.5469,200.5469 706.2031,200.2969 Q706.5938,200.1406 707.0156,199.7031 Q707.2813,199.4375 707.4219,199.3594 Q707.5781,199.2813 707.7813,199.2813 Q708.1094,199.2813 708.3594,199.5469 Q708.625,199.7969 708.625,200.1406 Q708.625,200.4844 708.2813,200.8906 Q707.7813,201.4688 706.9844,201.7969 Q705.9063,202.25 704.6094,202.25 Q703.0938,202.25 701.8906,201.625 Q700.9063,201.125 700.2188,200.0625 Q699.5313,198.9844 699.5313,197.7031 L699.5313,196.5469 Q699.5313,195.2188 700.1406,194.0781 Q700.7656,192.9219 701.8594,192.3125 Q702.9531,191.6875 704.1875,191.6875 Q704.9219,191.6875 705.5625,191.8594 Q706.2188,192.0156 706.7656,192.375 Z " fill="#000000"/><text fill="#000000" font-family="sans-serif" font-size="14" lengthAdjust="spacing" textLength="143" x="718" y="202.2969">ListVehiclesCheckupUI</text><line style="stroke:#181818;stroke-width:0.5;" x1="690" x2="863" y1="212.5" y2="212.5"/><line style="stroke:#181818;stroke-width:0.5;" x1="690" x2="863" y1="220.5" y2="220.5"/></g><!--reverse link Repositories to VehiclesRepository--><g id="link_Repositories_VehiclesRepository"><path codeLine="37" d="M190.23,204.5 C201.54,204.5 203.25,204.5 212.67,204.5 " fill="none" id="Repositories-backto-VehiclesRepository" style="stroke:#181818;stroke-width:1.0;"/><polygon fill="#181818" points="178.23,204.5,184.23,208.5,190.23,204.5,184.23,200.5,178.23,204.5" style="stroke:#181818;stroke-width:1.0;"/></g><!--reverse link VehiclesRepository to Vehicle--><g id="link_VehiclesRepository_Vehicle"><path codeLine="39" d="M378.19,204.5 C378.19,204.5 384.02,204.5 401.1,204.5 " fill="none" id="VehiclesRepository-backto-Vehicle" style="stroke:#181818;stroke-width:1.0;"/><polygon fill="none" points="366.19,204.5,372.19,208.5,378.19,204.5,372.19,200.5,366.19,204.5" style="stroke:#181818;stroke-width:1.0;"/></g><!--link ListVehiclesCheckupController to ListVehiclesCheckupUI--><g id="link_ListVehiclesCheckupController_ListVehiclesCheckupUI"><path codeLine="41" d="M501.22,74.11 C576.94,100.74 671.5,134 671.5,134 C671.5,134 710.99,160.14 741.54,180.36 " fill="none" id="ListVehiclesCheckupController-ListVehiclesCheckupUI" style="stroke:#181818;stroke-width:1.0;"/></g><!--link ListVehiclesCheckupController to Repositories--><g id="link_ListVehiclesCheckupController_Repositories"><path codeLine="42" d="M333.4,74.11 C272.08,100.74 195.5,134 195.5,134 C195.5,134 188.44,138.76 178.03,145.79 " fill="none" id="ListVehiclesCheckupController-Repositories" style="stroke:#181818;stroke-width:1.0;"/></g><!--link ListVehiclesCheckupController to VehiclesRepository--><g id="link_ListVehiclesCheckupController_VehiclesRepository"><path codeLine="43" d="M384.42,74.28 C365.88,99.52 340.12,134.58 320.12,161.82 " fill="none" id="ListVehiclesCheckupController-VehiclesRepository" style="stroke:#181818;stroke-width:1.0;"/></g><!--link ListVehiclesCheckupController to Vehicle--><g id="link_ListVehiclesCheckupController_Vehicle"><path codeLine="44" d="M432.58,74.28 C445.21,91.48 461.19,113.24 476.42,133.97 " fill="none" id="ListVehiclesCheckupController-Vehicle" style="stroke:#181818;stroke-width:1.0;"/></g><!--SRC=[ZP7DJiCm48JlVegzbHz5uXMgYaC50ea2T-DiarKTRsHlW83wxhYjcoR2_EJcp3Upi_OiRCYrski66dPiQiyDWlWErKbfjTde2bVIMmIFHhIhx1W8jIxvZLm5Qst3MB7aKFeMeMNRxmvgbX7P2wkHorWTmbp4qqidk3JiLlI1SANKpE9QG1WyLRL0IRiwn4wflGUUiIPZCJnWou64VG-V2k9Nm6kIziTBg52EyDcvsaxzWybqtgEJcoQT6qrEq6bdCEMKL4RJzRj1BB5Sr6WsNHiJ3og5bBYm7F2H3zoFr5qKupNU-xbjECY9snuN71OZ34DBSa66IiM46MR4VPS96__xVc7ZQRSK1YALMR0JpzQYJ-CdCMc1JF5CrDCoHaHWijD5aNb4fJ8FomEfrEz5Yo8__c_RkDhVTARuVptg2m00]--></g></svg>