<?xml version="1.0" encoding="us-ascii" standalone="no"?><svg xmlns="http://www.w3.org/2000/svg" xmlns:xlink="http://www.w3.org/1999/xlink" contentStyleType="text/css" height="968px" preserveAspectRatio="none" style="width:1474px;height:968px;background:#FFFFFF;" version="1.1" viewBox="0 0 1474 968" width="1474px" zoomAndPan="magnify"><defs/><g><rect fill="#FFFFFF" height="736.0723" style="stroke:#181818;stroke-width:1.0;" width="10" x="75.5" y="112.2422"/><rect fill="#FFFFFF" height="712.7813" style="stroke:#181818;stroke-width:1.0;" width="10" x="490.5" y="135.5332"/><rect fill="#FFFFFF" height="606.5781" style="stroke:#181818;stroke-width:1.0;" width="10" x="704.5" y="210.4453"/><rect fill="#FFFFFF" height="31.291" style="stroke:#181818;stroke-width:1.0;" width="10" x="868.5" y="241.7363"/><rect fill="#FFFFFF" height="31.291" style="stroke:#181818;stroke-width:1.0;" width="10" x="975.5" y="304.3184"/><rect fill="#FFFFFF" height="31.291" style="stroke:#181818;stroke-width:1.0;" width="10" x="1103.5" y="366.9004"/><rect fill="#FFFFFF" height="330.959" style="stroke:#181818;stroke-width:1.0;" width="10" x="1213" y="455.7734"/><rect fill="#FFFFFF" height="42.291" style="stroke:#181818;stroke-width:1.0;" width="10" x="1218" y="495.0645"/><rect fill="#FFFFFF" height="42.291" style="stroke:#181818;stroke-width:1.0;" width="10" x="1218" y="583.6465"/><rect fill="none" height="373.541" style="stroke:#000000;stroke-width:1.5;" width="884" x="584" y="413.1914"/><rect fill="none" height="131.7949" style="stroke:#000000;stroke-width:1.5;" width="664" x="594" y="647.9375"/><line style="stroke:#181818;stroke-width:0.5;stroke-dasharray:5.0,5.0;" x1="80" x2="80" y1="102.2422" y2="866.3145"/><line style="stroke:#181818;stroke-width:0.5;stroke-dasharray:5.0,5.0;" x1="495" x2="495" y1="102.2422" y2="866.3145"/><line style="stroke:#181818;stroke-width:0.5;stroke-dasharray:5.0,5.0;" x1="709" x2="709" y1="175.3438" y2="866.3145"/><line style="stroke:#181818;stroke-width:0.5;stroke-dasharray:5.0,5.0;" x1="873" x2="873" y1="102.2422" y2="866.3145"/><line style="stroke:#181818;stroke-width:0.5;stroke-dasharray:5.0,5.0;" x1="980" x2="980" y1="102.2422" y2="866.3145"/><line style="stroke:#181818;stroke-width:0.5;stroke-dasharray:5.0,5.0;" x1="1108" x2="1108" y1="102.2422" y2="866.3145"/><line style="stroke:#181818;stroke-width:0.5;stroke-dasharray:5.0,5.0;" x1="1218" x2="1218" y1="102.2422" y2="866.3145"/><text fill="#000000" font-family="sans-serif" font-size="14" lengthAdjust="spacing" textLength="145" x="5" y="80.1074">Vehicle and Equipment</text><text fill="#000000" font-family="sans-serif" font-size="14" lengthAdjust="spacing" textLength="92" x="31.5" y="98.7285">Fleet Manager</text><ellipse cx="80.5" cy="13.5" fill="#E3E3E3" rx="8" ry="8" style="stroke:#181818;stroke-width:0.5;"/><path d="M80.5,21.5 L80.5,48.5 M67.5,29.5 L93.5,29.5 M80.5,48.5 L67.5,63.5 M80.5,48.5 L93.5,63.5 " fill="none" style="stroke:#181818;stroke-width:0.5;"/><text fill="#000000" font-family="sans-serif" font-size="14" lengthAdjust="spacing" textLength="145" x="5" y="880.4219">Vehicle and Equipment</text><text fill="#000000" font-family="sans-serif" font-size="14" lengthAdjust="spacing" textLength="92" x="31.5" y="899.043">Fleet Manager</text><ellipse cx="80.5" cy="911.0566" fill="#E3E3E3" rx="8" ry="8" style="stroke:#181818;stroke-width:0.5;"/><path d="M80.5,919.0566 L80.5,946.0566 M67.5,927.0566 L93.5,927.0566 M80.5,946.0566 L67.5,961.0566 M80.5,946.0566 L93.5,961.0566 " fill="none" style="stroke:#181818;stroke-width:0.5;"/><rect fill="#E3E3E3" height="32.6211" rx="2.5" ry="2.5" style="stroke:#181818;stroke-width:0.5;" width="161" x="415" y="68.6211"/><text fill="#000000" font-family="sans-serif" font-size="14" lengthAdjust="spacing" textLength="147" x="422" y="90.7285">:ListVehiclesCheckupUI</text><rect fill="#E3E3E3" height="32.6211" rx="2.5" ry="2.5" style="stroke:#181818;stroke-width:0.5;" width="161" x="415" y="865.3145"/><text fill="#000000" font-family="sans-serif" font-size="14" lengthAdjust="spacing" textLength="147" x="422" y="887.4219">:ListVehiclesCheckupUI</text><rect fill="#E3E3E3" height="32.6211" rx="2.5" ry="2.5" style="stroke:#181818;stroke-width:0.5;" width="211" x="604" y="865.3145"/><text fill="#000000" font-family="sans-serif" font-size="14" lengthAdjust="spacing" textLength="197" x="611" y="887.4219">:ListVehiclesCheckupController</text><rect fill="#E3E3E3" height="32.6211" rx="2.5" ry="2.5" style="stroke:#181818;stroke-width:0.5;" width="97" x="825" y="68.6211"/><text fill="#000000" font-family="sans-serif" font-size="14" lengthAdjust="spacing" textLength="83" x="832" y="90.7285">:Repositories</text><rect fill="#E3E3E3" height="32.6211" rx="2.5" ry="2.5" style="stroke:#181818;stroke-width:0.5;" width="97" x="825" y="865.3145"/><text fill="#000000" font-family="sans-serif" font-size="14" lengthAdjust="spacing" textLength="83" x="832" y="887.4219">:Repositories</text><rect fill="#E3E3E3" height="51.2422" rx="2.5" ry="2.5" style="stroke:#181818;stroke-width:0.5;" width="97" x="932" y="50"/><text fill="#000000" font-family="sans-serif" font-size="14" lengthAdjust="spacing" textLength="74" x="943.5" y="72.1074">repositories</text><text fill="#000000" font-family="sans-serif" font-size="14" lengthAdjust="spacing" textLength="83" x="939" y="90.7285">:Repositories</text><rect fill="#E3E3E3" height="51.2422" rx="2.5" ry="2.5" style="stroke:#181818;stroke-width:0.5;" width="97" x="932" y="865.3145"/><text fill="#000000" font-family="sans-serif" font-size="14" lengthAdjust="spacing" textLength="74" x="943.5" y="887.4219">repositories</text><text fill="#000000" font-family="sans-serif" font-size="14" lengthAdjust="spacing" textLength="83" x="939" y="906.043">:Repositories</text><rect fill="#E3E3E3" height="51.2422" rx="2.5" ry="2.5" style="stroke:#181818;stroke-width:0.5;" width="139" x="1039" y="50"/><text fill="#000000" font-family="sans-serif" font-size="14" lengthAdjust="spacing" textLength="119" x="1049" y="72.1074">vehiclesRepository</text><text fill="#000000" font-family="sans-serif" font-size="14" lengthAdjust="spacing" textLength="125" x="1046" y="90.7285">:VehiclesRepository</text><rect fill="#E3E3E3" height="51.2422" rx="2.5" ry="2.5" style="stroke:#181818;stroke-width:0.5;" width="139" x="1039" y="865.3145"/><text fill="#000000" font-family="sans-serif" font-size="14" lengthAdjust="spacing" textLength="119" x="1049" y="887.4219">vehiclesRepository</text><text fill="#000000" font-family="sans-serif" font-size="14" lengthAdjust="spacing" textLength="125" x="1046" y="906.043">:VehiclesRepository</text><rect fill="#E3E3E3" height="32.6211" rx="2.5" ry="2.5" style="stroke:#181818;stroke-width:0.5;" width="60" x="1188" y="68.6211"/><text fill="#000000" font-family="sans-serif" font-size="14" lengthAdjust="spacing" textLength="46" x="1195" y="90.7285">Vehicle</text><rect fill="#E3E3E3" height="32.6211" rx="2.5" ry="2.5" style="stroke:#181818;stroke-width:0.5;" width="60" x="1188" y="865.3145"/><text fill="#000000" font-family="sans-serif" font-size="14" lengthAdjust="spacing" textLength="46" x="1195" y="887.4219">Vehicle</text><rect fill="#FFFFFF" height="736.0723" style="stroke:#181818;stroke-width:1.0;" width="10" x="75.5" y="112.2422"/><rect fill="#FFFFFF" height="712.7813" style="stroke:#181818;stroke-width:1.0;" width="10" x="490.5" y="135.5332"/><rect fill="#FFFFFF" height="606.5781" style="stroke:#181818;stroke-width:1.0;" width="10" x="704.5" y="210.4453"/><rect fill="#FFFFFF" height="31.291" style="stroke:#181818;stroke-width:1.0;" width="10" x="868.5" y="241.7363"/><rect fill="#FFFFFF" height="31.291" style="stroke:#181818;stroke-width:1.0;" width="10" x="975.5" y="304.3184"/><rect fill="#FFFFFF" height="31.291" style="stroke:#181818;stroke-width:1.0;" width="10" x="1103.5" y="366.9004"/><rect fill="#FFFFFF" height="330.959" style="stroke:#181818;stroke-width:1.0;" width="10" x="1213" y="455.7734"/><rect fill="#FFFFFF" height="42.291" style="stroke:#181818;stroke-width:1.0;" width="10" x="1218" y="495.0645"/><rect fill="#FFFFFF" height="42.291" style="stroke:#181818;stroke-width:1.0;" width="10" x="1218" y="583.6465"/><polygon fill="#181818" points="478.5,131.5332,488.5,135.5332,478.5,139.5332,482.5,135.5332" style="stroke:#181818;stroke-width:1.0;"/><line style="stroke:#181818;stroke-width:1.0;" x1="85.5" x2="484.5" y1="135.5332" y2="135.5332"/><text fill="#000000" font-family="sans-serif" font-size="13" font-weight="bold" lengthAdjust="spacing" textLength="7" x="92.5" y="130.2705">1</text><text fill="#000000" font-family="sans-serif" font-size="13" lengthAdjust="spacing" textLength="253" x="103.5" y="130.2705">asks to list the vehicles needing a check-up</text><polygon fill="#181818" points="592,162.8242,602,166.8242,592,170.8242,596,166.8242" style="stroke:#181818;stroke-width:1.0;"/><line style="stroke:#181818;stroke-width:1.0;" x1="500.5" x2="598" y1="166.8242" y2="166.8242"/><text fill="#000000" font-family="sans-serif" font-size="13" font-weight="bold" lengthAdjust="spacing" textLength="7" x="507.5" y="161.5615">2</text><text fill="#000000" font-family="sans-serif" font-size="13" lengthAdjust="spacing" textLength="36" x="518.5" y="161.5615">create</text><rect fill="#E3E3E3" height="32.6211" rx="2.5" ry="2.5" style="stroke:#181818;stroke-width:0.5;" width="211" x="604" y="143.5332"/><text fill="#000000" font-family="sans-serif" font-size="14" lengthAdjust="spacing" textLength="197" x="611" y="165.6406">:ListVehiclesCheckupController</text><polygon fill="#181818" points="692.5,206.4453,702.5,210.4453,692.5,214.4453,696.5,210.4453" style="stroke:#181818;stroke-width:1.0;"/><line style="stroke:#181818;stroke-width:1.0;" x1="500.5" x2="698.5" y1="210.4453" y2="210.4453"/><text fill="#000000" font-family="sans-serif" font-size="13" font-weight="bold" lengthAdjust="spacing" textLength="7" x="507.5" y="205.1826">3</text><text fill="#000000" font-family="sans-serif" font-size="13" lengthAdjust="spacing" textLength="174" x="518.5" y="205.1826">getVehiclesNeedingCheckup()</text><polygon fill="#181818" points="856.5,237.7363,866.5,241.7363,856.5,245.7363,860.5,241.7363" style="stroke:#181818;stroke-width:1.0;"/><line style="stroke:#181818;stroke-width:1.0;" x1="714.5" x2="862.5" y1="241.7363" y2="241.7363"/><text fill="#000000" font-family="sans-serif" font-size="13" font-weight="bold" lengthAdjust="spacing" textLength="7" x="721.5" y="236.4736">4</text><text fill="#000000" font-family="sans-serif" font-size="13" lengthAdjust="spacing" textLength="75" x="732.5" y="236.4736">getInstance()</text><polygon fill="#181818" points="725.5,269.0273,715.5,273.0273,725.5,277.0273,721.5,273.0273" style="stroke:#181818;stroke-width:1.0;"/><line style="stroke:#181818;stroke-width:1.0;stroke-dasharray:2.0,2.0;" x1="719.5" x2="872.5" y1="273.0273" y2="273.0273"/><text fill="#000000" font-family="sans-serif" font-size="13" font-weight="bold" lengthAdjust="spacing" textLength="7" x="731.5" y="267.7646">5</text><text fill="#000000" font-family="sans-serif" font-size="13" lengthAdjust="spacing" textLength="67" x="742.5" y="267.7646">repositories</text><polygon fill="#181818" points="963.5,300.3184,973.5,304.3184,963.5,308.3184,967.5,304.3184" style="stroke:#181818;stroke-width:1.0;"/><line style="stroke:#181818;stroke-width:1.0;" x1="714.5" x2="969.5" y1="304.3184" y2="304.3184"/><text fill="#000000" font-family="sans-serif" font-size="13" font-weight="bold" lengthAdjust="spacing" textLength="7" x="721.5" y="299.0557">6</text><text fill="#000000" font-family="sans-serif" font-size="13" lengthAdjust="spacing" textLength="138" x="732.5" y="299.0557">getVehiclesRepository()</text><polygon fill="#181818" points="725.5,331.6094,715.5,335.6094,725.5,339.6094,721.5,335.6094" style="stroke:#181818;stroke-width:1.0;"/><line style="stroke:#181818;stroke-width:1.0;stroke-dasharray:2.0,2.0;" x1="719.5" x2="979.5" y1="335.6094" y2="335.6094"/><text fill="#000000" font-family="sans-serif" font-size="13" font-weight="bold" lengthAdjust="spacing" textLength="7" x="731.5" y="330.3467">7</text><text fill="#000000" font-family="sans-serif" font-size="13" lengthAdjust="spacing" textLength="108" x="742.5" y="330.3467">vehiclesRepository</text><polygon fill="#181818" points="1091.5,362.9004,1101.5,366.9004,1091.5,370.9004,1095.5,366.9004" style="stroke:#181818;stroke-width:1.0;"/><line style="stroke:#181818;stroke-width:1.0;" x1="714.5" x2="1097.5" y1="366.9004" y2="366.9004"/><text fill="#000000" font-family="sans-serif" font-size="13" font-weight="bold" lengthAdjust="spacing" textLength="7" x="721.5" y="361.6377">8</text><text fill="#000000" font-family="sans-serif" font-size="13" lengthAdjust="spacing" textLength="76" x="732.5" y="361.6377">getVehicles()</text><polygon fill="#181818" points="725.5,394.1914,715.5,398.1914,725.5,402.1914,721.5,398.1914" style="stroke:#181818;stroke-width:1.0;"/><line style="stroke:#181818;stroke-width:1.0;stroke-dasharray:2.0,2.0;" x1="719.5" x2="1107.5" y1="398.1914" y2="398.1914"/><text fill="#000000" font-family="sans-serif" font-size="13" font-weight="bold" lengthAdjust="spacing" textLength="7" x="731.5" y="392.9287">9</text><text fill="#000000" font-family="sans-serif" font-size="13" lengthAdjust="spacing" textLength="46" x="742.5" y="392.9287">vehicles</text><path d="M584,413.1914 L657,413.1914 L657,422.4824 L647,432.4824 L584,432.4824 L584,413.1914 " fill="#EEEEEE" style="stroke:#000000;stroke-width:1.5;"/><rect fill="none" height="373.541" style="stroke:#000000;stroke-width:1.5;" width="884" x="584" y="413.1914"/><text fill="#000000" font-family="sans-serif" font-size="13" font-weight="bold" lengthAdjust="spacing" textLength="28" x="599" y="428.2197">loop</text><text fill="#000000" font-family="sans-serif" font-size="11" font-weight="bold" lengthAdjust="spacing" textLength="247" x="672" y="427.0615">[as long as VehiclesRepository doesn't end.]</text><polygon fill="#181818" points="1201,451.7734,1211,455.7734,1201,459.7734,1205,455.7734" style="stroke:#181818;stroke-width:1.0;"/><line style="stroke:#181818;stroke-width:1.0;" x1="714.5" x2="1207" y1="455.7734" y2="455.7734"/><text fill="#000000" font-family="sans-serif" font-size="13" font-weight="bold" lengthAdjust="spacing" textLength="14" x="721.5" y="450.5107">10</text><text fill="#000000" font-family="sans-serif" font-size="13" lengthAdjust="spacing" textLength="214" x="739.5" y="450.5107">isVehicleNeedingOrAlmostCheckup()</text><line style="stroke:#181818;stroke-width:1.0;" x1="1223" x2="1270" y1="482.0645" y2="482.0645"/><line style="stroke:#181818;stroke-width:1.0;" x1="1270" x2="1270" y1="482.0645" y2="495.0645"/><line style="stroke:#181818;stroke-width:1.0;" x1="1229" x2="1270" y1="495.0645" y2="495.0645"/><polygon fill="#181818" points="1239,491.0645,1229,495.0645,1239,499.0645,1235,495.0645" style="stroke:#181818;stroke-width:1.0;"/><text fill="#000000" font-family="sans-serif" font-size="13" font-weight="bold" lengthAdjust="spacing" textLength="14" x="1235" y="476.8018">11</text><text fill="#000000" font-family="sans-serif" font-size="13" lengthAdjust="spacing" textLength="157" x="1253" y="476.8018">didVehExceededCheckup()</text><line style="stroke:#181818;stroke-width:1.0;stroke-dasharray:2.0,2.0;" x1="1228" x2="1270" y1="536.3555" y2="536.3555"/><line style="stroke:#181818;stroke-width:1.0;stroke-dasharray:2.0,2.0;" x1="1270" x2="1270" y1="536.3555" y2="549.3555"/><line style="stroke:#181818;stroke-width:1.0;stroke-dasharray:2.0,2.0;" x1="1223" x2="1270" y1="549.3555" y2="549.3555"/><polygon fill="#181818" points="1233,545.3555,1223,549.3555,1233,553.3555,1229,549.3555" style="stroke:#181818;stroke-width:1.0;"/><text fill="#000000" font-family="sans-serif" font-size="13" font-weight="bold" lengthAdjust="spacing" textLength="14" x="1235" y="531.0928">12</text><text fill="#000000" font-family="sans-serif" font-size="13" lengthAdjust="spacing" textLength="53" x="1253" y="531.0928">true/false</text><line style="stroke:#181818;stroke-width:1.0;" x1="1223" x2="1270" y1="570.6465" y2="570.6465"/><line style="stroke:#181818;stroke-width:1.0;" x1="1270" x2="1270" y1="570.6465" y2="583.6465"/><line style="stroke:#181818;stroke-width:1.0;" x1="1229" x2="1270" y1="583.6465" y2="583.6465"/><polygon fill="#181818" points="1239,579.6465,1229,583.6465,1239,587.6465,1235,583.6465" style="stroke:#181818;stroke-width:1.0;"/><text fill="#000000" font-family="sans-serif" font-size="13" font-weight="bold" lengthAdjust="spacing" textLength="14" x="1235" y="565.3838">13</text><text fill="#000000" font-family="sans-serif" font-size="13" lengthAdjust="spacing" textLength="203" x="1253" y="565.3838">isVehicleCloseToExceedCheckup()</text><line style="stroke:#181818;stroke-width:1.0;stroke-dasharray:2.0,2.0;" x1="1228" x2="1270" y1="624.9375" y2="624.9375"/><line style="stroke:#181818;stroke-width:1.0;stroke-dasharray:2.0,2.0;" x1="1270" x2="1270" y1="624.9375" y2="637.9375"/><line style="stroke:#181818;stroke-width:1.0;stroke-dasharray:2.0,2.0;" x1="1223" x2="1270" y1="637.9375" y2="637.9375"/><polygon fill="#181818" points="1233,633.9375,1223,637.9375,1233,641.9375,1229,637.9375" style="stroke:#181818;stroke-width:1.0;"/><text fill="#000000" font-family="sans-serif" font-size="13" font-weight="bold" lengthAdjust="spacing" textLength="14" x="1235" y="619.6748">14</text><text fill="#000000" font-family="sans-serif" font-size="13" lengthAdjust="spacing" textLength="53" x="1253" y="619.6748">true/false</text><path d="M594,647.9375 L655,647.9375 L655,657.2285 L645,667.2285 L594,667.2285 L594,647.9375 " fill="#EEEEEE" style="stroke:#000000;stroke-width:1.5;"/><rect fill="none" height="131.7949" style="stroke:#000000;stroke-width:1.5;" width="664" x="594" y="647.9375"/><text fill="#000000" font-family="sans-serif" font-size="13" font-weight="bold" lengthAdjust="spacing" textLength="16" x="609" y="662.9658">alt</text><text fill="#000000" font-family="sans-serif" font-size="11" font-weight="bold" lengthAdjust="spacing" textLength="198" x="670" y="661.8076">[didVehExceededCheckup() == true]</text><polygon fill="#181818" points="725.5,686.5195,715.5,690.5195,725.5,694.5195,721.5,690.5195" style="stroke:#181818;stroke-width:1.0;"/><line style="stroke:#181818;stroke-width:1.0;stroke-dasharray:2.0,2.0;" x1="719.5" x2="1212" y1="690.5195" y2="690.5195"/><text fill="#000000" font-family="sans-serif" font-size="13" font-weight="bold" lengthAdjust="spacing" textLength="14" x="731.5" y="685.2568">15</text><text fill="#000000" font-family="sans-serif" font-size="13" lengthAdjust="spacing" textLength="22" x="749.5" y="685.2568">true</text><line style="stroke:#000000;stroke-width:1.0;stroke-dasharray:2.0,2.0;" x1="594" x2="1258" y1="699.5195" y2="699.5195"/><text fill="#000000" font-family="sans-serif" font-size="11" font-weight="bold" lengthAdjust="spacing" textLength="242" x="599" y="711.3896">[isVehicleCloseToExceedCheckup() == true]</text><polygon fill="#181818" points="725.5,734.4414,715.5,738.4414,725.5,742.4414,721.5,738.4414" style="stroke:#181818;stroke-width:1.0;"/><line style="stroke:#181818;stroke-width:1.0;stroke-dasharray:2.0,2.0;" x1="719.5" x2="1212" y1="738.4414" y2="738.4414"/><text fill="#000000" font-family="sans-serif" font-size="13" font-weight="bold" lengthAdjust="spacing" textLength="14" x="731.5" y="733.1787">16</text><text fill="#000000" font-family="sans-serif" font-size="13" lengthAdjust="spacing" textLength="22" x="749.5" y="733.1787">true</text><line style="stroke:#000000;stroke-width:1.0;stroke-dasharray:2.0,2.0;" x1="594" x2="1258" y1="747.4414" y2="747.4414"/><polygon fill="#181818" points="725.5,767.7324,715.5,771.7324,725.5,775.7324,721.5,771.7324" style="stroke:#181818;stroke-width:1.0;"/><line style="stroke:#181818;stroke-width:1.0;stroke-dasharray:2.0,2.0;" x1="719.5" x2="1212" y1="771.7324" y2="771.7324"/><text fill="#000000" font-family="sans-serif" font-size="13" font-weight="bold" lengthAdjust="spacing" textLength="14" x="731.5" y="766.4697">17</text><text fill="#000000" font-family="sans-serif" font-size="13" lengthAdjust="spacing" textLength="27" x="749.5" y="766.4697">false</text><polygon fill="#181818" points="511.5,813.0234,501.5,817.0234,511.5,821.0234,507.5,817.0234" style="stroke:#181818;stroke-width:1.0;"/><line style="stroke:#181818;stroke-width:1.0;stroke-dasharray:2.0,2.0;" x1="505.5" x2="708.5" y1="817.0234" y2="817.0234"/><text fill="#000000" font-family="sans-serif" font-size="13" font-weight="bold" lengthAdjust="spacing" textLength="14" x="517.5" y="811.7607">18</text><text fill="#000000" font-family="sans-serif" font-size="13" lengthAdjust="spacing" textLength="144" x="535.5" y="811.7607">vehiclesNeedingCheckup</text><polygon fill="#181818" points="91.5,844.3145,81.5,848.3145,91.5,852.3145,87.5,848.3145" style="stroke:#181818;stroke-width:1.0;"/><line style="stroke:#181818;stroke-width:1.0;stroke-dasharray:2.0,2.0;" x1="85.5" x2="494.5" y1="848.3145" y2="848.3145"/><text fill="#000000" font-family="sans-serif" font-size="13" font-weight="bold" lengthAdjust="spacing" textLength="14" x="97.5" y="843.0518">19</text><text fill="#000000" font-family="sans-serif" font-size="13" lengthAdjust="spacing" textLength="363" x="115.5" y="843.0518">Shows the list of vehicles needing or almost needing check-up.</text><!--SRC=[nLLDRzim3BthLn2vT2kGxXwW0uAq0mAasz2aFVMYsamin9OyIqxRVpzAbh_bf8S1qoM9H3u-Fhs8-YXapWkUGQQaYf92PGYcA97fvYJdqP4VS6i-KeG28yFb8Uq6w8J7wat80-nvgf4nNXebo-mL2yQk4X4Zx9Koh-gTySYe0cRFc8Y8qBYCuVvFAV8CfNcHFr940mzSKhbY1bp3ykw1KH4Z8f5pQM2ss0XjVBfU9HWTo_nfxMAVrfT3LqgQGgMfXr_j7ZU3f4VCbHR4Kg1sCSt6nrROngcrVahHoNYHOu3Vc-Mkdt7of5feodiURRfishOxVG0VMmSmgwiuSODECA15dp3_Jfh0WeAE6eo2bFG0ao3KzK4YnlRUE4HMdtcPCvVTm96cu1T14Q1LxFgQGAC2AI1mIcS7R7J_MLNmyd_vofgCfeQxX6RRBWT3S07fA_IrrEJ22BjuFSpGfS5WXT3dlea5T6-rbnhZsIh1Hgm5-hgqgPCzEDyCIJkabkNOILDS7LgGd7TOdzyagzgFGs8rohorGKrkYb8DrJjFbSgjhLDbVUdiFUWGOeLQNXb06T-m4P5EMyH1Q0_WZVYhMAQPqYPWo52hurFVQriX5Z5zkN-Fg036BMueiGSD4ykXD_3sCVvMlQkXuBwSdw3R2B9AbSQTgeYVaUF_yUQfcL8NRc-hCNM9ZBVYP2mImKkQ_DDYdmMPbeviFzRhd9wZXEelKe-7K_2fPW7a_ajjdtp2i9Dc0Tj4lMatNDoKKVlnaA71pzr_hzcfXyuD6nIYiSCwF-rG-mi0]--></g></svg>