<?xml version="1.0" encoding="UTF-8" standalone="no"?><svg xmlns="http://www.w3.org/2000/svg" xmlns:xlink="http://www.w3.org/1999/xlink" contentStyleType="text/css" height="418px" preserveAspectRatio="none" style="width:1093px;height:418px;background:#FFFFFF;" version="1.1" viewBox="0 0 1093 418" width="1093px" zoomAndPan="magnify"><defs/><g><!--class VehiclesRepository--><g id="elem_VehiclesRepository"><rect codeLine="11" fill="#F1F1F1" height="107.7199" id="VehiclesRepository" rx="2.5" ry="2.5" style="stroke:#181818;stroke-width:0.5;" width="209" x="305.5" y="276.7"/><ellipse cx="321.5" cy="295.32" fill="#ADD1B2" rx="12" ry="12" style="stroke:#181818;stroke-width:1.0;"/><path d="M321.0156,302.5231 Q318.9531,302.5231 317.625,301.6481 Q316.2969,300.7731 315.6406,299.195 Q315,297.6012 315,295.4762 Q315,293.1012 315.7656,291.3981 Q316.5469,289.6794 318.0469,288.7575 Q319.5625,287.8356 321.7656,287.8356 Q322.7969,287.8356 323.5781,288.0544 Q324.375,288.2575 325.2031,288.6637 L324.2344,291.0387 Q323.5,290.6637 322.8594,290.5231 Q322.2344,290.3825 321.6563,290.3825 Q320.2813,290.3825 319.4531,291.0075 Q318.6406,291.6169 318.2813,292.7419 Q317.9375,293.8669 317.9375,295.3669 Q317.9375,297.7262 318.7813,298.8512 Q319.625,299.9762 321.5,299.9762 Q322.2031,299.9762 322.9219,299.8044 Q323.6563,299.6169 324.6406,299.1794 L324.6406,301.7731 Q323.7813,302.1637 322.8438,302.3356 Q321.9219,302.5231 321.0156,302.5231 Z " fill="#000000"/><text fill="#000000" font-family="sans-serif" font-size="20" lengthAdjust="spacing" textLength="175" x="336.5" y="303.08">VehiclesRepository</text><line style="stroke:#181818;stroke-width:0.5;" x1="306.5" x2="513.5" y1="313.94" y2="313.94"/><text fill="#000000" font-family="sans-serif" font-size="20" lengthAdjust="spacing" textLength="80" x="311.5" y="339.32">-vehicles</text><line style="stroke:#181818;stroke-width:0.5;" x1="306.5" x2="513.5" y1="349.1799" y2="349.1799"/><text fill="#000000" font-family="sans-serif" font-size="20" lengthAdjust="spacing" textLength="129" x="311.5" y="374.5599">+getVehicles()</text></g><!--class Vehicle--><g id="elem_Vehicle"><rect codeLine="15" fill="#F1F1F1" height="162.1999" id="Vehicle" rx="2.5" ry="2.5" style="stroke:#181818;stroke-width:0.5;" width="185" x="597.5" y="249.2"/><ellipse cx="652.5" cy="267.82" fill="#ADD1B2" rx="12" ry="12" style="stroke:#181818;stroke-width:1.0;"/><path d="M652.0156,275.0231 Q649.9531,275.0231 648.625,274.1481 Q647.2969,273.2731 646.6406,271.695 Q646,270.1012 646,267.9762 Q646,265.6012 646.7656,263.8981 Q647.5469,262.1794 649.0469,261.2575 Q650.5625,260.3356 652.7656,260.3356 Q653.7969,260.3356 654.5781,260.5544 Q655.375,260.7575 656.2031,261.1637 L655.2344,263.5387 Q654.5,263.1637 653.8594,263.0231 Q653.2344,262.8825 652.6563,262.8825 Q651.2813,262.8825 650.4531,263.5075 Q649.6406,264.1169 649.2813,265.2419 Q648.9375,266.3669 648.9375,267.8669 Q648.9375,270.2262 649.7813,271.3512 Q650.625,272.4762 652.5,272.4762 Q653.2031,272.4762 653.9219,272.3044 Q654.6563,272.1169 655.6406,271.6794 L655.6406,274.2731 Q654.7813,274.6637 653.8438,274.8356 Q652.9219,275.0231 652.0156,275.0231 Z " fill="#000000"/><text fill="#000000" font-family="sans-serif" font-size="20" lengthAdjust="spacing" textLength="66" x="674.5" y="275.58">Vehicle</text><line style="stroke:#181818;stroke-width:0.5;" x1="598.5" x2="781.5" y1="286.44" y2="286.44"/><text fill="#000000" font-family="sans-serif" font-size="20" lengthAdjust="spacing" textLength="105" x="603.5" y="311.82">-currentKm</text><text fill="#000000" font-family="sans-serif" font-size="20" lengthAdjust="spacing" textLength="127" x="603.5" y="339.0599">-maintenance</text><line style="stroke:#181818;stroke-width:0.5;" x1="598.5" x2="781.5" y1="348.9199" y2="348.9199"/><text fill="#000000" font-family="sans-serif" font-size="20" lengthAdjust="spacing" textLength="155" x="603.5" y="374.2999">+getCurrentKm()</text><text fill="#000000" font-family="sans-serif" font-size="20" lengthAdjust="spacing" textLength="173" x="603.5" y="401.5399">+getMaintenance()</text></g><!--class Repositories--><g id="elem_Repositories"><rect codeLine="22" fill="#F1F1F1" height="162.1999" id="Repositories" rx="2.5" ry="2.5" style="stroke:#181818;stroke-width:0.5;" width="240" x="7" y="249.1"/><ellipse cx="65" cy="267.72" fill="#ADD1B2" rx="12" ry="12" style="stroke:#181818;stroke-width:1.0;"/><path d="M64.5156,274.9231 Q62.4531,274.9231 61.125,274.0481 Q59.7969,273.1731 59.1406,271.595 Q58.5,270.0012 58.5,267.8762 Q58.5,265.5012 59.2656,263.7981 Q60.0469,262.0794 61.5469,261.1575 Q63.0625,260.2356 65.2656,260.2356 Q66.2969,260.2356 67.0781,260.4544 Q67.875,260.6575 68.7031,261.0637 L67.7344,263.4387 Q67,263.0637 66.3594,262.9231 Q65.7344,262.7825 65.1563,262.7825 Q63.7813,262.7825 62.9531,263.4075 Q62.1406,264.0169 61.7813,265.1419 Q61.4375,266.2669 61.4375,267.7669 Q61.4375,270.1262 62.2813,271.2512 Q63.125,272.3762 65,272.3762 Q65.7031,272.3762 66.4219,272.2044 Q67.1563,272.0169 68.1406,271.5794 L68.1406,274.1731 Q67.2813,274.5637 66.3438,274.7356 Q65.4219,274.9231 64.5156,274.9231 Z " fill="#000000"/><text fill="#000000" font-family="sans-serif" font-size="20" lengthAdjust="spacing" textLength="115" x="87" y="275.48">Repositories</text><line style="stroke:#181818;stroke-width:0.5;" x1="8" x2="246" y1="286.34" y2="286.34"/><text fill="#000000" font-family="sans-serif" font-size="20" lengthAdjust="spacing" textLength="84" x="13" y="311.72">-instance</text><line style="stroke:#181818;stroke-width:0.5;" x1="8" x2="246" y1="321.5799" y2="321.5799"/><text fill="#000000" font-family="sans-serif" font-size="20" lengthAdjust="spacing" textLength="133" x="13" y="346.9599">-Repositories()</text><text fill="#000000" font-family="sans-serif" font-size="20" lengthAdjust="spacing" textLength="133" x="13" y="374.1999">+getInstance()</text><text fill="#000000" font-family="sans-serif" font-size="20" lengthAdjust="spacing" textLength="228" x="13" y="401.4399">+getVehiclesRepository()</text></g><!--class ListVehiclesCheckupController--><g id="elem_ListVehiclesCheckupController"><rect codeLine="29" fill="#F1F1F1" height="162.1999" id="ListVehiclesCheckupController" rx="2.5" ry="2.5" style="stroke:#181818;stroke-width:0.5;" width="365" x="367.5" y="7"/><ellipse cx="405.55" cy="25.62" fill="#ADD1B2" rx="12" ry="12" style="stroke:#181818;stroke-width:1.0;"/><path d="M405.0656,32.8231 Q403.0031,32.8231 401.675,31.9481 Q400.3469,31.0731 399.6906,29.495 Q399.05,27.9012 399.05,25.7762 Q399.05,23.4012 399.8156,21.6981 Q400.5969,19.9794 402.0969,19.0575 Q403.6125,18.1356 405.8156,18.1356 Q406.8469,18.1356 407.6281,18.3544 Q408.425,18.5575 409.2531,18.9637 L408.2844,21.3387 Q407.55,20.9637 406.9094,20.8231 Q406.2844,20.6825 405.7063,20.6825 Q404.3313,20.6825 403.5031,21.3075 Q402.6906,21.9169 402.3313,23.0419 Q401.9875,24.1669 401.9875,25.6669 Q401.9875,28.0262 402.8313,29.1512 Q403.675,30.2762 405.55,30.2762 Q406.2531,30.2762 406.9719,30.1044 Q407.7063,29.9169 408.6906,29.4794 L408.6906,32.0731 Q407.8313,32.4637 406.8938,32.6356 Q405.9719,32.8231 405.0656,32.8231 Z " fill="#000000"/><text fill="#000000" font-family="sans-serif" font-size="20" lengthAdjust="spacing" textLength="282" x="425.45" y="33.38">ListVehiclesCheckupController</text><line style="stroke:#181818;stroke-width:0.5;" x1="368.5" x2="731.5" y1="44.24" y2="44.24"/><line style="stroke:#181818;stroke-width:0.5;" x1="368.5" x2="731.5" y1="52.24" y2="52.24"/><text fill="#000000" font-family="sans-serif" font-size="20" lengthAdjust="spacing" textLength="288" x="373.5" y="77.62">+getVehiclesNeedingCheckup()</text><text fill="#000000" font-family="sans-serif" font-size="20" lengthAdjust="spacing" textLength="257" x="373.5" y="104.8599">+didVehExceededCheckup()</text><text fill="#000000" font-family="sans-serif" font-size="20" lengthAdjust="spacing" textLength="325" x="373.5" y="132.0999">+isVehicleCloseToExceedCheckup()</text><text fill="#000000" font-family="sans-serif" font-size="20" lengthAdjust="spacing" textLength="353" x="373.5" y="159.3399">+isVehicleNeedingOrAlmostCheckup()</text></g><!--class ListVehiclesCheckupUI--><g id="elem_ListVehiclesCheckupUI"><rect codeLine="36" fill="#F1F1F1" height="53.24" id="ListVehiclesCheckupUI" rx="2.5" ry="2.5" style="stroke:#181818;stroke-width:0.5;" width="245" x="841.5" y="303.58"/><ellipse cx="857.5" cy="322.2" fill="#ADD1B2" rx="12" ry="12" style="stroke:#181818;stroke-width:1.0;"/><path d="M857.0156,329.4031 Q854.9531,329.4031 853.625,328.5281 Q852.2969,327.6531 851.6406,326.075 Q851,324.4812 851,322.3562 Q851,319.9812 851.7656,318.2781 Q852.5469,316.5594 854.0469,315.6375 Q855.5625,314.7156 857.7656,314.7156 Q858.7969,314.7156 859.5781,314.9344 Q860.375,315.1375 861.2031,315.5437 L860.2344,317.9187 Q859.5,317.5437 858.8594,317.4031 Q858.2344,317.2625 857.6563,317.2625 Q856.2813,317.2625 855.4531,317.8875 Q854.6406,318.4969 854.2813,319.6219 Q853.9375,320.7469 853.9375,322.2469 Q853.9375,324.6062 854.7813,325.7312 Q855.625,326.8562 857.5,326.8562 Q858.2031,326.8562 858.9219,326.6844 Q859.6563,326.4969 860.6406,326.0594 L860.6406,328.6531 Q859.7813,329.0437 858.8438,329.2156 Q857.9219,329.4031 857.0156,329.4031 Z " fill="#000000"/><text fill="#000000" font-family="sans-serif" font-size="20" lengthAdjust="spacing" textLength="211" x="872.5" y="329.96">ListVehiclesCheckupUI</text><line style="stroke:#181818;stroke-width:0.5;" x1="842.5" x2="1085.5" y1="340.82" y2="340.82"/><line style="stroke:#181818;stroke-width:0.5;" x1="842.5" x2="1085.5" y1="348.82" y2="348.82"/></g><!--reverse link Repositories to VehiclesRepository--><g id="link_Repositories_VehiclesRepository"><path codeLine="39" d="M247.17,330.2 C266.62,330.2 286.62,330.2 305.64,330.2 " fill="none" id="Repositories-backto-VehiclesRepository" style="stroke:#181818;stroke-width:1.0;"/><polygon fill="none" points="294.64,303.2,298.6874,309.1682,305.7531,307.7276,301.7057,301.7594,294.64,303.2" style="stroke:#181818;stroke-width:1.0;"/><text fill="#000000" font-family="sans-serif" font-size="20" lengthAdjust="spacing" textLength="11" x="286.5722" y="323.571">1</text></g><!--reverse link VehiclesRepository to Vehicle--><g id="link_VehiclesRepository_Vehicle"><path codeLine="41" d="M514.12,330.2 C541.63,330.2 571.14,330.2 597.95,330.2 " fill="none" id="VehiclesRepository-backto-Vehicle" style="stroke:#181818;stroke-width:1.0;"/><polygon fill="none" points="586.95,303.2,590.9974,309.1682,598.0631,307.7276,594.0157,301.7594,586.95,303.2" style="stroke:#181818;stroke-width:1.0;"/><text fill="#000000" font-family="sans-serif" font-size="20" lengthAdjust="spacing" textLength="11" x="578.5668" y="323.4215">*</text></g><!--link ListVehiclesCheckupController to ListVehiclesCheckupUI--><g id="link_ListVehiclesCheckupController_ListVehiclesCheckupUI"><path codeLine="43" d="M707.4,169.58 C768.47,200.81 824,229.2 824,229.2 C824,229.2 886.1,273.56 927.58,303.19 " fill="none" id="ListVehiclesCheckupController-ListVehiclesCheckupUI" style="stroke:#181818;stroke-width:1.0;stroke-dasharray:7.0,7.0;"/></g><!--link ListVehiclesCheckupController to Repositories--><g id="link_ListVehiclesCheckupController_Repositories"><path codeLine="44" d="M385.7,169.58 C321.97,200.81 264,229.2 264,229.2 C264,229.2 253.01,237.22 237.26,248.72 " fill="none" id="ListVehiclesCheckupController-Repositories" style="stroke:#181818;stroke-width:1.0;stroke-dasharray:7.0,7.0;"/></g><!--link ListVehiclesCheckupController to VehiclesRepository--><g id="link_ListVehiclesCheckupController_VehiclesRepository"><path codeLine="45" d="M503.19,169.38 C482.52,204.83 458.81,245.49 440.48,276.92 " fill="none" id="ListVehiclesCheckupController-VehiclesRepository" style="stroke:#181818;stroke-width:1.0;stroke-dasharray:7.0,7.0;"/></g><!--link ListVehiclesCheckupController to Vehicle--><g id="link_ListVehiclesCheckupController_Vehicle"><path codeLine="46" d="M596.81,169.38 C611.84,195.15 628.47,223.67 643.47,249.4 " fill="none" id="ListVehiclesCheckupController-Vehicle" style="stroke:#181818;stroke-width:1.0;stroke-dasharray:7.0,7.0;"/></g><!--SRC=[ZPBBJiCm44Nt_Wghc_9Ggy8VL1585I-90dlZJ1ChZYUo9q10_3jkI1q7GajsupbtxhKdhb2c4bQK6cK1AKzX8sfDbsXehTw1do_OrEqONg91cLiiWPEjWVMTIiX2PB2cHWEt84cOJCU0oqMAhyfaV2EqYpjQ6Q2c0bwXRhP5x1YQQ0bPf99QEBSaikgv9bX9D6tU1MDJ3HlYXDogB2UUgcqSXOQnLiEV85TIWxk72fqYj0t_ODn_C_xIjThob6T0E_Zec7qEzK4aQsl1q5NPrQLGXi088w6Va-mWFoWStlHaExyp2C4KkE2YZACmSZPWuf6h3elFVbyuThjMBX193hAegyHltwBMO3lxmPXRWDJliME3KQfIJroyIT-6z6TNkKwUQ7JmWD_SdrJdSMUNkaH7FRSlzkFAn_N0uFrmnYTdav6bCpRo8spfaq0pjlznvlFn68TbSSJ3z4Zu_shO5m00]--></g></svg>