<?xml version="1.0" encoding="us-ascii" standalone="no"?><svg xmlns="http://www.w3.org/2000/svg" xmlns:xlink="http://www.w3.org/1999/xlink" contentStyleType="text/css" height="1473px" preserveAspectRatio="none" style="width:1356px;height:1473px;background:#FFFFFF;" version="1.1" viewBox="0 0 1356 1473" width="1356px" zoomAndPan="magnify"><defs/><g><rect fill="#FFFFFF" height="1241.8555" style="stroke:#181818;stroke-width:1.0;" width="10" x="75.5" y="112.2422"/><rect fill="#FFFFFF" height="1218.5645" style="stroke:#181818;stroke-width:1.0;" width="10" x="490.5" y="135.5332"/><rect fill="#FFFFFF" height="1112.3613" style="stroke:#181818;stroke-width:1.0;" width="10" x="704.5" y="210.4453"/><rect fill="#FFFFFF" height="828.7422" style="stroke:#181818;stroke-width:1.0;" width="10" x="709.5" y="463.7734"/><rect fill="#FFFFFF" height="262.0371" style="stroke:#181818;stroke-width:1.0;" width="10" x="714.5" y="508.0645"/><rect fill="#FFFFFF" height="291.3281" style="stroke:#181818;stroke-width:1.0;" width="10" x="714.5" y="801.3926"/><rect fill="#FFFFFF" height="31.291" style="stroke:#181818;stroke-width:1.0;" width="10" x="960.5" y="241.7363"/><rect fill="#FFFFFF" height="31.291" style="stroke:#181818;stroke-width:1.0;" width="10" x="1067.5" y="304.3184"/><rect fill="#FFFFFF" height="31.291" style="stroke:#181818;stroke-width:1.0;" width="10" x="1195.5" y="366.9004"/><rect fill="#FFFFFF" height="31.291" style="stroke:#181818;stroke-width:1.0;" width="10" x="1305" y="544.3555"/><rect fill="#FFFFFF" height="31.291" style="stroke:#181818;stroke-width:1.0;" width="10" x="1305" y="606.9375"/><rect fill="#FFFFFF" height="31.291" style="stroke:#181818;stroke-width:1.0;" width="10" x="1305" y="837.6836"/><rect fill="#FFFFFF" height="31.291" style="stroke:#181818;stroke-width:1.0;" width="10" x="1305" y="900.2656"/><rect fill="none" height="879.3242" style="stroke:#000000;stroke-width:1.5;" width="766" x="584" y="413.1914"/><rect fill="none" height="109.873" style="stroke:#000000;stroke-width:1.5;" width="289" x="594" y="653.2285"/><rect fill="none" height="109.873" style="stroke:#000000;stroke-width:1.5;" width="364" x="594" y="946.5566"/><rect fill="none" height="170.7949" style="stroke:#000000;stroke-width:1.5;" width="279" x="594" y="1114.7207"/><line style="stroke:#181818;stroke-width:0.5;stroke-dasharray:5.0,5.0;" x1="80" x2="80" y1="102.2422" y2="1372.0977"/><line style="stroke:#181818;stroke-width:0.5;stroke-dasharray:5.0,5.0;" x1="495" x2="495" y1="102.2422" y2="1372.0977"/><line style="stroke:#181818;stroke-width:0.5;stroke-dasharray:5.0,5.0;" x1="709" x2="709" y1="175.3438" y2="1372.0977"/><line style="stroke:#181818;stroke-width:0.5;stroke-dasharray:5.0,5.0;" x1="965" x2="965" y1="102.2422" y2="1372.0977"/><line style="stroke:#181818;stroke-width:0.5;stroke-dasharray:5.0,5.0;" x1="1072" x2="1072" y1="102.2422" y2="1372.0977"/><line style="stroke:#181818;stroke-width:0.5;stroke-dasharray:5.0,5.0;" x1="1200" x2="1200" y1="102.2422" y2="1372.0977"/><line style="stroke:#181818;stroke-width:0.5;stroke-dasharray:5.0,5.0;" x1="1310" x2="1310" y1="102.2422" y2="1372.0977"/><text fill="#000000" font-family="sans-serif" font-size="14" lengthAdjust="spacing" textLength="145" x="5" y="80.1074">Vehicle and Equipment</text><text fill="#000000" font-family="sans-serif" font-size="14" lengthAdjust="spacing" textLength="92" x="31.5" y="98.7285">Fleet Manager</text><ellipse cx="80.5" cy="13.5" fill="#E3E3E3" rx="8" ry="8" style="stroke:#181818;stroke-width:0.5;"/><path d="M80.5,21.5 L80.5,48.5 M67.5,29.5 L93.5,29.5 M80.5,48.5 L67.5,63.5 M80.5,48.5 L93.5,63.5 " fill="none" style="stroke:#181818;stroke-width:0.5;"/><text fill="#000000" font-family="sans-serif" font-size="14" lengthAdjust="spacing" textLength="145" x="5" y="1386.2051">Vehicle and Equipment</text><text fill="#000000" font-family="sans-serif" font-size="14" lengthAdjust="spacing" textLength="92" x="31.5" y="1404.8262">Fleet Manager</text><ellipse cx="80.5" cy="1416.8398" fill="#E3E3E3" rx="8" ry="8" style="stroke:#181818;stroke-width:0.5;"/><path d="M80.5,1424.8398 L80.5,1451.8398 M67.5,1432.8398 L93.5,1432.8398 M80.5,1451.8398 L67.5,1466.8398 M80.5,1451.8398 L93.5,1466.8398 " fill="none" style="stroke:#181818;stroke-width:0.5;"/><rect fill="#E3E3E3" height="32.6211" rx="2.5" ry="2.5" style="stroke:#181818;stroke-width:0.5;" width="161" x="415" y="68.6211"/><text fill="#000000" font-family="sans-serif" font-size="14" lengthAdjust="spacing" textLength="147" x="422" y="90.7285">:ListVehiclesCheckupUI</text><rect fill="#E3E3E3" height="32.6211" rx="2.5" ry="2.5" style="stroke:#181818;stroke-width:0.5;" width="161" x="415" y="1371.0977"/><text fill="#000000" font-family="sans-serif" font-size="14" lengthAdjust="spacing" textLength="147" x="422" y="1393.2051">:ListVehiclesCheckupUI</text><rect fill="#E3E3E3" height="32.6211" rx="2.5" ry="2.5" style="stroke:#181818;stroke-width:0.5;" width="211" x="604" y="1371.0977"/><text fill="#000000" font-family="sans-serif" font-size="14" lengthAdjust="spacing" textLength="197" x="611" y="1393.2051">:ListVehiclesCheckupController</text><rect fill="#E3E3E3" height="32.6211" rx="2.5" ry="2.5" style="stroke:#181818;stroke-width:0.5;" width="97" x="917" y="68.6211"/><text fill="#000000" font-family="sans-serif" font-size="14" lengthAdjust="spacing" textLength="83" x="924" y="90.7285">:Repositories</text><rect fill="#E3E3E3" height="32.6211" rx="2.5" ry="2.5" style="stroke:#181818;stroke-width:0.5;" width="97" x="917" y="1371.0977"/><text fill="#000000" font-family="sans-serif" font-size="14" lengthAdjust="spacing" textLength="83" x="924" y="1393.2051">:Repositories</text><rect fill="#E3E3E3" height="51.2422" rx="2.5" ry="2.5" style="stroke:#181818;stroke-width:0.5;" width="97" x="1024" y="50"/><text fill="#000000" font-family="sans-serif" font-size="14" lengthAdjust="spacing" textLength="74" x="1035.5" y="72.1074">repositories</text><text fill="#000000" font-family="sans-serif" font-size="14" lengthAdjust="spacing" textLength="83" x="1031" y="90.7285">:Repositories</text><rect fill="#E3E3E3" height="51.2422" rx="2.5" ry="2.5" style="stroke:#181818;stroke-width:0.5;" width="97" x="1024" y="1371.0977"/><text fill="#000000" font-family="sans-serif" font-size="14" lengthAdjust="spacing" textLength="74" x="1035.5" y="1393.2051">repositories</text><text fill="#000000" font-family="sans-serif" font-size="14" lengthAdjust="spacing" textLength="83" x="1031" y="1411.8262">:Repositories</text><rect fill="#E3E3E3" height="51.2422" rx="2.5" ry="2.5" style="stroke:#181818;stroke-width:0.5;" width="139" x="1131" y="50"/><text fill="#000000" font-family="sans-serif" font-size="14" lengthAdjust="spacing" textLength="119" x="1141" y="72.1074">vehiclesRepository</text><text fill="#000000" font-family="sans-serif" font-size="14" lengthAdjust="spacing" textLength="125" x="1138" y="90.7285">:VehiclesRepository</text><rect fill="#E3E3E3" height="51.2422" rx="2.5" ry="2.5" style="stroke:#181818;stroke-width:0.5;" width="139" x="1131" y="1371.0977"/><text fill="#000000" font-family="sans-serif" font-size="14" lengthAdjust="spacing" textLength="119" x="1141" y="1393.2051">vehiclesRepository</text><text fill="#000000" font-family="sans-serif" font-size="14" lengthAdjust="spacing" textLength="125" x="1138" y="1411.8262">:VehiclesRepository</text><rect fill="#E3E3E3" height="32.6211" rx="2.5" ry="2.5" style="stroke:#181818;stroke-width:0.5;" width="60" x="1280" y="68.6211"/><text fill="#000000" font-family="sans-serif" font-size="14" lengthAdjust="spacing" textLength="46" x="1287" y="90.7285">Vehicle</text><rect fill="#E3E3E3" height="32.6211" rx="2.5" ry="2.5" style="stroke:#181818;stroke-width:0.5;" width="60" x="1280" y="1371.0977"/><text fill="#000000" font-family="sans-serif" font-size="14" lengthAdjust="spacing" textLength="46" x="1287" y="1393.2051">Vehicle</text><rect fill="#FFFFFF" height="1241.8555" style="stroke:#181818;stroke-width:1.0;" width="10" x="75.5" y="112.2422"/><rect fill="#FFFFFF" height="1218.5645" style="stroke:#181818;stroke-width:1.0;" width="10" x="490.5" y="135.5332"/><rect fill="#FFFFFF" height="1112.3613" style="stroke:#181818;stroke-width:1.0;" width="10" x="704.5" y="210.4453"/><rect fill="#FFFFFF" height="828.7422" style="stroke:#181818;stroke-width:1.0;" width="10" x="709.5" y="463.7734"/><rect fill="#FFFFFF" height="262.0371" style="stroke:#181818;stroke-width:1.0;" width="10" x="714.5" y="508.0645"/><rect fill="#FFFFFF" height="291.3281" style="stroke:#181818;stroke-width:1.0;" width="10" x="714.5" y="801.3926"/><rect fill="#FFFFFF" height="31.291" style="stroke:#181818;stroke-width:1.0;" width="10" x="960.5" y="241.7363"/><rect fill="#FFFFFF" height="31.291" style="stroke:#181818;stroke-width:1.0;" width="10" x="1067.5" y="304.3184"/><rect fill="#FFFFFF" height="31.291" style="stroke:#181818;stroke-width:1.0;" width="10" x="1195.5" y="366.9004"/><rect fill="#FFFFFF" height="31.291" style="stroke:#181818;stroke-width:1.0;" width="10" x="1305" y="544.3555"/><rect fill="#FFFFFF" height="31.291" style="stroke:#181818;stroke-width:1.0;" width="10" x="1305" y="606.9375"/><rect fill="#FFFFFF" height="31.291" style="stroke:#181818;stroke-width:1.0;" width="10" x="1305" y="837.6836"/><rect fill="#FFFFFF" height="31.291" style="stroke:#181818;stroke-width:1.0;" width="10" x="1305" y="900.2656"/><polygon fill="#181818" points="478.5,131.5332,488.5,135.5332,478.5,139.5332,482.5,135.5332" style="stroke:#181818;stroke-width:1.0;"/><line style="stroke:#181818;stroke-width:1.0;" x1="85.5" x2="484.5" y1="135.5332" y2="135.5332"/><text fill="#000000" font-family="sans-serif" font-size="13" font-weight="bold" lengthAdjust="spacing" textLength="7" x="92.5" y="130.2705">1</text><text fill="#000000" font-family="sans-serif" font-size="13" lengthAdjust="spacing" textLength="253" x="103.5" y="130.2705">asks to list the vehicles needing a check-up</text><polygon fill="#181818" points="592,162.8242,602,166.8242,592,170.8242,596,166.8242" style="stroke:#181818;stroke-width:1.0;"/><line style="stroke:#181818;stroke-width:1.0;" x1="500.5" x2="598" y1="166.8242" y2="166.8242"/><text fill="#000000" font-family="sans-serif" font-size="13" font-weight="bold" lengthAdjust="spacing" textLength="7" x="507.5" y="161.5615">2</text><text fill="#000000" font-family="sans-serif" font-size="13" lengthAdjust="spacing" textLength="36" x="518.5" y="161.5615">create</text><rect fill="#E3E3E3" height="32.6211" rx="2.5" ry="2.5" style="stroke:#181818;stroke-width:0.5;" width="211" x="604" y="143.5332"/><text fill="#000000" font-family="sans-serif" font-size="14" lengthAdjust="spacing" textLength="197" x="611" y="165.6406">:ListVehiclesCheckupController</text><polygon fill="#181818" points="692.5,206.4453,702.5,210.4453,692.5,214.4453,696.5,210.4453" style="stroke:#181818;stroke-width:1.0;"/><line style="stroke:#181818;stroke-width:1.0;" x1="500.5" x2="698.5" y1="210.4453" y2="210.4453"/><text fill="#000000" font-family="sans-serif" font-size="13" font-weight="bold" lengthAdjust="spacing" textLength="7" x="507.5" y="205.1826">3</text><text fill="#000000" font-family="sans-serif" font-size="13" lengthAdjust="spacing" textLength="174" x="518.5" y="205.1826">getVehiclesNeedingCheckup()</text><polygon fill="#181818" points="948.5,237.7363,958.5,241.7363,948.5,245.7363,952.5,241.7363" style="stroke:#181818;stroke-width:1.0;"/><line style="stroke:#181818;stroke-width:1.0;" x1="714.5" x2="954.5" y1="241.7363" y2="241.7363"/><text fill="#000000" font-family="sans-serif" font-size="13" font-weight="bold" lengthAdjust="spacing" textLength="7" x="721.5" y="236.4736">4</text><text fill="#000000" font-family="sans-serif" font-size="13" lengthAdjust="spacing" textLength="75" x="732.5" y="236.4736">getInstance()</text><polygon fill="#181818" points="725.5,269.0273,715.5,273.0273,725.5,277.0273,721.5,273.0273" style="stroke:#181818;stroke-width:1.0;"/><line style="stroke:#181818;stroke-width:1.0;stroke-dasharray:2.0,2.0;" x1="719.5" x2="964.5" y1="273.0273" y2="273.0273"/><text fill="#000000" font-family="sans-serif" font-size="13" font-weight="bold" lengthAdjust="spacing" textLength="7" x="731.5" y="267.7646">5</text><text fill="#000000" font-family="sans-serif" font-size="13" lengthAdjust="spacing" textLength="67" x="742.5" y="267.7646">repositories</text><polygon fill="#181818" points="1055.5,300.3184,1065.5,304.3184,1055.5,308.3184,1059.5,304.3184" style="stroke:#181818;stroke-width:1.0;"/><line style="stroke:#181818;stroke-width:1.0;" x1="714.5" x2="1061.5" y1="304.3184" y2="304.3184"/><text fill="#000000" font-family="sans-serif" font-size="13" font-weight="bold" lengthAdjust="spacing" textLength="7" x="721.5" y="299.0557">6</text><text fill="#000000" font-family="sans-serif" font-size="13" lengthAdjust="spacing" textLength="138" x="732.5" y="299.0557">getVehiclesRepository()</text><polygon fill="#181818" points="725.5,331.6094,715.5,335.6094,725.5,339.6094,721.5,335.6094" style="stroke:#181818;stroke-width:1.0;"/><line style="stroke:#181818;stroke-width:1.0;stroke-dasharray:2.0,2.0;" x1="719.5" x2="1071.5" y1="335.6094" y2="335.6094"/><text fill="#000000" font-family="sans-serif" font-size="13" font-weight="bold" lengthAdjust="spacing" textLength="7" x="731.5" y="330.3467">7</text><text fill="#000000" font-family="sans-serif" font-size="13" lengthAdjust="spacing" textLength="108" x="742.5" y="330.3467">vehiclesRepository</text><polygon fill="#181818" points="1183.5,362.9004,1193.5,366.9004,1183.5,370.9004,1187.5,366.9004" style="stroke:#181818;stroke-width:1.0;"/><line style="stroke:#181818;stroke-width:1.0;" x1="714.5" x2="1189.5" y1="366.9004" y2="366.9004"/><text fill="#000000" font-family="sans-serif" font-size="13" font-weight="bold" lengthAdjust="spacing" textLength="7" x="721.5" y="361.6377">8</text><text fill="#000000" font-family="sans-serif" font-size="13" lengthAdjust="spacing" textLength="76" x="732.5" y="361.6377">getVehicles()</text><polygon fill="#181818" points="725.5,394.1914,715.5,398.1914,725.5,402.1914,721.5,398.1914" style="stroke:#181818;stroke-width:1.0;"/><line style="stroke:#181818;stroke-width:1.0;stroke-dasharray:2.0,2.0;" x1="719.5" x2="1199.5" y1="398.1914" y2="398.1914"/><text fill="#000000" font-family="sans-serif" font-size="13" font-weight="bold" lengthAdjust="spacing" textLength="7" x="731.5" y="392.9287">9</text><text fill="#000000" font-family="sans-serif" font-size="13" lengthAdjust="spacing" textLength="46" x="742.5" y="392.9287">vehicles</text><path d="M584,413.1914 L657,413.1914 L657,422.4824 L647,432.4824 L584,432.4824 L584,413.1914 " fill="#EEEEEE" style="stroke:#000000;stroke-width:1.5;"/><rect fill="none" height="879.3242" style="stroke:#000000;stroke-width:1.5;" width="766" x="584" y="413.1914"/><text fill="#000000" font-family="sans-serif" font-size="13" font-weight="bold" lengthAdjust="spacing" textLength="28" x="599" y="428.2197">loop</text><text fill="#000000" font-family="sans-serif" font-size="11" font-weight="bold" lengthAdjust="spacing" textLength="247" x="672" y="427.0615">[as long as VehiclesRepository doesn't end.]</text><line style="stroke:#181818;stroke-width:1.0;" x1="714.5" x2="761.5" y1="450.7734" y2="450.7734"/><line style="stroke:#181818;stroke-width:1.0;" x1="761.5" x2="761.5" y1="450.7734" y2="463.7734"/><line style="stroke:#181818;stroke-width:1.0;" x1="720.5" x2="761.5" y1="463.7734" y2="463.7734"/><polygon fill="#181818" points="730.5,459.7734,720.5,463.7734,730.5,467.7734,726.5,463.7734" style="stroke:#181818;stroke-width:1.0;"/><text fill="#000000" font-family="sans-serif" font-size="13" font-weight="bold" lengthAdjust="spacing" textLength="14" x="726.5" y="445.5107">10</text><text fill="#000000" font-family="sans-serif" font-size="13" lengthAdjust="spacing" textLength="214" x="744.5" y="445.5107">isVehicleNeedingOrAlmostCheckup()</text><line style="stroke:#181818;stroke-width:1.0;" x1="719.5" x2="766.5" y1="495.0645" y2="495.0645"/><line style="stroke:#181818;stroke-width:1.0;" x1="766.5" x2="766.5" y1="495.0645" y2="508.0645"/><line style="stroke:#181818;stroke-width:1.0;" x1="725.5" x2="766.5" y1="508.0645" y2="508.0645"/><polygon fill="#181818" points="735.5,504.0645,725.5,508.0645,735.5,512.0645,731.5,508.0645" style="stroke:#181818;stroke-width:1.0;"/><text fill="#000000" font-family="sans-serif" font-size="13" font-weight="bold" lengthAdjust="spacing" textLength="14" x="731.5" y="489.8018">11</text><text fill="#000000" font-family="sans-serif" font-size="13" lengthAdjust="spacing" textLength="157" x="749.5" y="489.8018">didVehExceededCheckup()</text><polygon fill="#181818" points="1293,540.3555,1303,544.3555,1293,548.3555,1297,544.3555" style="stroke:#181818;stroke-width:1.0;"/><line style="stroke:#181818;stroke-width:1.0;" x1="724.5" x2="1299" y1="544.3555" y2="544.3555"/><text fill="#000000" font-family="sans-serif" font-size="13" font-weight="bold" lengthAdjust="spacing" textLength="14" x="731.5" y="539.0928">12</text><text fill="#000000" font-family="sans-serif" font-size="13" lengthAdjust="spacing" textLength="100" x="749.5" y="539.0928">getMaintenance()</text><polygon fill="#181818" points="735.5,571.6465,725.5,575.6465,735.5,579.6465,731.5,575.6465" style="stroke:#181818;stroke-width:1.0;"/><line style="stroke:#181818;stroke-width:1.0;stroke-dasharray:2.0,2.0;" x1="729.5" x2="1309" y1="575.6465" y2="575.6465"/><text fill="#000000" font-family="sans-serif" font-size="13" font-weight="bold" lengthAdjust="spacing" textLength="14" x="741.5" y="570.3838">13</text><text fill="#000000" font-family="sans-serif" font-size="13" lengthAdjust="spacing" textLength="74" x="759.5" y="570.3838">maintenance</text><polygon fill="#181818" points="1293,602.9375,1303,606.9375,1293,610.9375,1297,606.9375" style="stroke:#181818;stroke-width:1.0;"/><line style="stroke:#181818;stroke-width:1.0;" x1="724.5" x2="1299" y1="606.9375" y2="606.9375"/><text fill="#000000" font-family="sans-serif" font-size="13" font-weight="bold" lengthAdjust="spacing" textLength="14" x="731.5" y="601.6748">14</text><text fill="#000000" font-family="sans-serif" font-size="13" lengthAdjust="spacing" textLength="88" x="749.5" y="601.6748">getCurrentKm()</text><polygon fill="#181818" points="735.5,634.2285,725.5,638.2285,735.5,642.2285,731.5,638.2285" style="stroke:#181818;stroke-width:1.0;"/><line style="stroke:#181818;stroke-width:1.0;stroke-dasharray:2.0,2.0;" x1="729.5" x2="1309" y1="638.2285" y2="638.2285"/><text fill="#000000" font-family="sans-serif" font-size="13" font-weight="bold" lengthAdjust="spacing" textLength="14" x="741.5" y="632.9658">15</text><text fill="#000000" font-family="sans-serif" font-size="13" lengthAdjust="spacing" textLength="60" x="759.5" y="632.9658">currentKm</text><path d="M594,653.2285 L655,653.2285 L655,662.5195 L645,672.5195 L594,672.5195 L594,653.2285 " fill="#EEEEEE" style="stroke:#000000;stroke-width:1.5;"/><rect fill="none" height="109.873" style="stroke:#000000;stroke-width:1.5;" width="289" x="594" y="653.2285"/><text fill="#000000" font-family="sans-serif" font-size="13" font-weight="bold" lengthAdjust="spacing" textLength="16" x="609" y="668.2568">alt</text><text fill="#000000" font-family="sans-serif" font-size="11" font-weight="bold" lengthAdjust="spacing" textLength="208" x="670" y="667.0986">[if currentKm exceeded maintenance]</text><line style="stroke:#181818;stroke-width:1.0;stroke-dasharray:2.0,2.0;" x1="724.5" x2="766.5" y1="695.8105" y2="695.8105"/><line style="stroke:#181818;stroke-width:1.0;stroke-dasharray:2.0,2.0;" x1="766.5" x2="766.5" y1="695.8105" y2="708.8105"/><line style="stroke:#181818;stroke-width:1.0;stroke-dasharray:2.0,2.0;" x1="725.5" x2="766.5" y1="708.8105" y2="708.8105"/><polygon fill="#181818" points="735.5,704.8105,725.5,708.8105,735.5,712.8105,731.5,708.8105" style="stroke:#181818;stroke-width:1.0;"/><text fill="#000000" font-family="sans-serif" font-size="13" font-weight="bold" lengthAdjust="spacing" textLength="14" x="731.5" y="690.5479">16</text><text fill="#000000" font-family="sans-serif" font-size="13" lengthAdjust="spacing" textLength="22" x="749.5" y="690.5479">true</text><line style="stroke:#000000;stroke-width:1.0;stroke-dasharray:2.0,2.0;" x1="594" x2="883" y1="717.8105" y2="717.8105"/><line style="stroke:#181818;stroke-width:1.0;stroke-dasharray:2.0,2.0;" x1="724.5" x2="766.5" y1="742.1016" y2="742.1016"/><line style="stroke:#181818;stroke-width:1.0;stroke-dasharray:2.0,2.0;" x1="766.5" x2="766.5" y1="742.1016" y2="755.1016"/><line style="stroke:#181818;stroke-width:1.0;stroke-dasharray:2.0,2.0;" x1="725.5" x2="766.5" y1="755.1016" y2="755.1016"/><polygon fill="#181818" points="735.5,751.1016,725.5,755.1016,735.5,759.1016,731.5,755.1016" style="stroke:#181818;stroke-width:1.0;"/><text fill="#000000" font-family="sans-serif" font-size="13" font-weight="bold" lengthAdjust="spacing" textLength="14" x="731.5" y="736.8389">17</text><text fill="#000000" font-family="sans-serif" font-size="13" lengthAdjust="spacing" textLength="27" x="749.5" y="736.8389">false</text><line style="stroke:#181818;stroke-width:1.0;" x1="719.5" x2="766.5" y1="788.3926" y2="788.3926"/><line style="stroke:#181818;stroke-width:1.0;" x1="766.5" x2="766.5" y1="788.3926" y2="801.3926"/><line style="stroke:#181818;stroke-width:1.0;" x1="725.5" x2="766.5" y1="801.3926" y2="801.3926"/><polygon fill="#181818" points="735.5,797.3926,725.5,801.3926,735.5,805.3926,731.5,801.3926" style="stroke:#181818;stroke-width:1.0;"/><text fill="#000000" font-family="sans-serif" font-size="13" font-weight="bold" lengthAdjust="spacing" textLength="14" x="731.5" y="783.1299">18</text><text fill="#000000" font-family="sans-serif" font-size="13" lengthAdjust="spacing" textLength="203" x="749.5" y="783.1299">isVehicleCloseToExceedCheckup()</text><polygon fill="#181818" points="1293,833.6836,1303,837.6836,1293,841.6836,1297,837.6836" style="stroke:#181818;stroke-width:1.0;"/><line style="stroke:#181818;stroke-width:1.0;" x1="724.5" x2="1299" y1="837.6836" y2="837.6836"/><text fill="#000000" font-family="sans-serif" font-size="13" font-weight="bold" lengthAdjust="spacing" textLength="14" x="731.5" y="832.4209">19</text><text fill="#000000" font-family="sans-serif" font-size="13" lengthAdjust="spacing" textLength="100" x="749.5" y="832.4209">getMaintenance()</text><polygon fill="#181818" points="735.5,864.9746,725.5,868.9746,735.5,872.9746,731.5,868.9746" style="stroke:#181818;stroke-width:1.0;"/><line style="stroke:#181818;stroke-width:1.0;stroke-dasharray:2.0,2.0;" x1="729.5" x2="1309" y1="868.9746" y2="868.9746"/><text fill="#000000" font-family="sans-serif" font-size="13" font-weight="bold" lengthAdjust="spacing" textLength="14" x="741.5" y="863.7119">20</text><text fill="#000000" font-family="sans-serif" font-size="13" lengthAdjust="spacing" textLength="74" x="759.5" y="863.7119">maintenance</text><polygon fill="#181818" points="1293,896.2656,1303,900.2656,1293,904.2656,1297,900.2656" style="stroke:#181818;stroke-width:1.0;"/><line style="stroke:#181818;stroke-width:1.0;" x1="724.5" x2="1299" y1="900.2656" y2="900.2656"/><text fill="#000000" font-family="sans-serif" font-size="13" font-weight="bold" lengthAdjust="spacing" textLength="14" x="731.5" y="895.0029">21</text><text fill="#000000" font-family="sans-serif" font-size="13" lengthAdjust="spacing" textLength="88" x="749.5" y="895.0029">getCurrentKm()</text><polygon fill="#181818" points="735.5,927.5566,725.5,931.5566,735.5,935.5566,731.5,931.5566" style="stroke:#181818;stroke-width:1.0;"/><line style="stroke:#181818;stroke-width:1.0;stroke-dasharray:2.0,2.0;" x1="729.5" x2="1309" y1="931.5566" y2="931.5566"/><text fill="#000000" font-family="sans-serif" font-size="13" font-weight="bold" lengthAdjust="spacing" textLength="14" x="741.5" y="926.2939">22</text><text fill="#000000" font-family="sans-serif" font-size="13" lengthAdjust="spacing" textLength="60" x="759.5" y="926.2939">currentKm</text><path d="M594,946.5566 L655,946.5566 L655,955.8477 L645,965.8477 L594,965.8477 L594,946.5566 " fill="#EEEEEE" style="stroke:#000000;stroke-width:1.5;"/><rect fill="none" height="109.873" style="stroke:#000000;stroke-width:1.5;" width="364" x="594" y="946.5566"/><text fill="#000000" font-family="sans-serif" font-size="13" font-weight="bold" lengthAdjust="spacing" textLength="16" x="609" y="961.585">alt</text><text fill="#000000" font-family="sans-serif" font-size="11" font-weight="bold" lengthAdjust="spacing" textLength="283" x="670" y="960.4268">[if currentKm is 5% almost exceeding maintenance]</text><line style="stroke:#181818;stroke-width:1.0;stroke-dasharray:2.0,2.0;" x1="724.5" x2="766.5" y1="989.1387" y2="989.1387"/><line style="stroke:#181818;stroke-width:1.0;stroke-dasharray:2.0,2.0;" x1="766.5" x2="766.5" y1="989.1387" y2="1002.1387"/><line style="stroke:#181818;stroke-width:1.0;stroke-dasharray:2.0,2.0;" x1="725.5" x2="766.5" y1="1002.1387" y2="1002.1387"/><polygon fill="#181818" points="735.5,998.1387,725.5,1002.1387,735.5,1006.1387,731.5,1002.1387" style="stroke:#181818;stroke-width:1.0;"/><text fill="#000000" font-family="sans-serif" font-size="13" font-weight="bold" lengthAdjust="spacing" textLength="14" x="731.5" y="983.876">23</text><text fill="#000000" font-family="sans-serif" font-size="13" lengthAdjust="spacing" textLength="22" x="749.5" y="983.876">true</text><line style="stroke:#000000;stroke-width:1.0;stroke-dasharray:2.0,2.0;" x1="594" x2="958" y1="1011.1387" y2="1011.1387"/><line style="stroke:#181818;stroke-width:1.0;stroke-dasharray:2.0,2.0;" x1="724.5" x2="766.5" y1="1035.4297" y2="1035.4297"/><line style="stroke:#181818;stroke-width:1.0;stroke-dasharray:2.0,2.0;" x1="766.5" x2="766.5" y1="1035.4297" y2="1048.4297"/><line style="stroke:#181818;stroke-width:1.0;stroke-dasharray:2.0,2.0;" x1="725.5" x2="766.5" y1="1048.4297" y2="1048.4297"/><polygon fill="#181818" points="735.5,1044.4297,725.5,1048.4297,735.5,1052.4297,731.5,1048.4297" style="stroke:#181818;stroke-width:1.0;"/><text fill="#000000" font-family="sans-serif" font-size="13" font-weight="bold" lengthAdjust="spacing" textLength="14" x="731.5" y="1030.167">24</text><text fill="#000000" font-family="sans-serif" font-size="13" lengthAdjust="spacing" textLength="27" x="749.5" y="1030.167">false</text><line style="stroke:#181818;stroke-width:1.0;stroke-dasharray:2.0,2.0;" x1="724.5" x2="766.5" y1="1091.7207" y2="1091.7207"/><line style="stroke:#181818;stroke-width:1.0;stroke-dasharray:2.0,2.0;" x1="766.5" x2="766.5" y1="1091.7207" y2="1104.7207"/><line style="stroke:#181818;stroke-width:1.0;stroke-dasharray:2.0,2.0;" x1="719.5" x2="766.5" y1="1104.7207" y2="1104.7207"/><polygon fill="#181818" points="729.5,1100.7207,719.5,1104.7207,729.5,1108.7207,725.5,1104.7207" style="stroke:#181818;stroke-width:1.0;"/><text fill="#000000" font-family="sans-serif" font-size="13" font-weight="bold" lengthAdjust="spacing" textLength="14" x="731.5" y="1086.458">25</text><text fill="#000000" font-family="sans-serif" font-size="13" lengthAdjust="spacing" textLength="53" x="749.5" y="1086.458">true/false</text><path d="M594,1114.7207 L655,1114.7207 L655,1124.0117 L645,1134.0117 L594,1134.0117 L594,1114.7207 " fill="#EEEEEE" style="stroke:#000000;stroke-width:1.5;"/><rect fill="none" height="170.7949" style="stroke:#000000;stroke-width:1.5;" width="279" x="594" y="1114.7207"/><text fill="#000000" font-family="sans-serif" font-size="13" font-weight="bold" lengthAdjust="spacing" textLength="16" x="609" y="1129.749">alt</text><text fill="#000000" font-family="sans-serif" font-size="11" font-weight="bold" lengthAdjust="spacing" textLength="198" x="670" y="1128.5908">[didVehExceededCheckup() == true]</text><line style="stroke:#181818;stroke-width:1.0;stroke-dasharray:2.0,2.0;" x1="719.5" x2="761.5" y1="1157.3027" y2="1157.3027"/><line style="stroke:#181818;stroke-width:1.0;stroke-dasharray:2.0,2.0;" x1="761.5" x2="761.5" y1="1157.3027" y2="1170.3027"/><line style="stroke:#181818;stroke-width:1.0;stroke-dasharray:2.0,2.0;" x1="720.5" x2="761.5" y1="1170.3027" y2="1170.3027"/><polygon fill="#181818" points="730.5,1166.3027,720.5,1170.3027,730.5,1174.3027,726.5,1170.3027" style="stroke:#181818;stroke-width:1.0;"/><text fill="#000000" font-family="sans-serif" font-size="13" font-weight="bold" lengthAdjust="spacing" textLength="14" x="726.5" y="1152.04">26</text><text fill="#000000" font-family="sans-serif" font-size="13" lengthAdjust="spacing" textLength="22" x="744.5" y="1152.04">true</text><line style="stroke:#000000;stroke-width:1.0;stroke-dasharray:2.0,2.0;" x1="594" x2="873" y1="1179.3027" y2="1179.3027"/><text fill="#000000" font-family="sans-serif" font-size="11" font-weight="bold" lengthAdjust="spacing" textLength="242" x="599" y="1191.1729">[isVehicleCloseToExceedCheckup() == true]</text><line style="stroke:#181818;stroke-width:1.0;stroke-dasharray:2.0,2.0;" x1="719.5" x2="761.5" y1="1218.2246" y2="1218.2246"/><line style="stroke:#181818;stroke-width:1.0;stroke-dasharray:2.0,2.0;" x1="761.5" x2="761.5" y1="1218.2246" y2="1231.2246"/><line style="stroke:#181818;stroke-width:1.0;stroke-dasharray:2.0,2.0;" x1="720.5" x2="761.5" y1="1231.2246" y2="1231.2246"/><polygon fill="#181818" points="730.5,1227.2246,720.5,1231.2246,730.5,1235.2246,726.5,1231.2246" style="stroke:#181818;stroke-width:1.0;"/><text fill="#000000" font-family="sans-serif" font-size="13" font-weight="bold" lengthAdjust="spacing" textLength="14" x="726.5" y="1212.9619">27</text><text fill="#000000" font-family="sans-serif" font-size="13" lengthAdjust="spacing" textLength="22" x="744.5" y="1212.9619">true</text><line style="stroke:#000000;stroke-width:1.0;stroke-dasharray:2.0,2.0;" x1="594" x2="873" y1="1240.2246" y2="1240.2246"/><line style="stroke:#181818;stroke-width:1.0;stroke-dasharray:2.0,2.0;" x1="719.5" x2="761.5" y1="1264.5156" y2="1264.5156"/><line style="stroke:#181818;stroke-width:1.0;stroke-dasharray:2.0,2.0;" x1="761.5" x2="761.5" y1="1264.5156" y2="1277.5156"/><line style="stroke:#181818;stroke-width:1.0;stroke-dasharray:2.0,2.0;" x1="720.5" x2="761.5" y1="1277.5156" y2="1277.5156"/><polygon fill="#181818" points="730.5,1273.5156,720.5,1277.5156,730.5,1281.5156,726.5,1277.5156" style="stroke:#181818;stroke-width:1.0;"/><text fill="#000000" font-family="sans-serif" font-size="13" font-weight="bold" lengthAdjust="spacing" textLength="14" x="726.5" y="1259.2529">28</text><text fill="#000000" font-family="sans-serif" font-size="13" lengthAdjust="spacing" textLength="27" x="744.5" y="1259.2529">false</text><polygon fill="#181818" points="511.5,1318.8066,501.5,1322.8066,511.5,1326.8066,507.5,1322.8066" style="stroke:#181818;stroke-width:1.0;"/><line style="stroke:#181818;stroke-width:1.0;stroke-dasharray:2.0,2.0;" x1="505.5" x2="708.5" y1="1322.8066" y2="1322.8066"/><text fill="#000000" font-family="sans-serif" font-size="13" font-weight="bold" lengthAdjust="spacing" textLength="14" x="517.5" y="1317.5439">29</text><text fill="#000000" font-family="sans-serif" font-size="13" lengthAdjust="spacing" textLength="144" x="535.5" y="1317.5439">vehiclesNeedingCheckup</text><polygon fill="#181818" points="91.5,1350.0977,81.5,1354.0977,91.5,1358.0977,87.5,1354.0977" style="stroke:#181818;stroke-width:1.0;"/><line style="stroke:#181818;stroke-width:1.0;stroke-dasharray:2.0,2.0;" x1="85.5" x2="494.5" y1="1354.0977" y2="1354.0977"/><text fill="#000000" font-family="sans-serif" font-size="13" font-weight="bold" lengthAdjust="spacing" textLength="14" x="97.5" y="1348.835">30</text><text fill="#000000" font-family="sans-serif" font-size="13" lengthAdjust="spacing" textLength="363" x="115.5" y="1348.835">Shows the list of vehicles needing or almost needing check-up.</text><!--SRC=[xLTDJzj04BtlhnX5gcYHGa-zHA8I2bH2XROYWHENnPx4gzYxxkuwmB_lx6RzROSWMgcLwWjYFVFcpPjdUs8sGkPSymmo9LMKQ9KXM5qWCzMTd4SRliQ5VKuHD4QMotNQ3309ZzMZa6jOyTGWOxomIXRP0sh6ZX8H8woKiW_gYV78AWsJEqn4H6XSnd3nin1vXjBUooyfeeLhBgcSdW0tS7P-pQY85P78kRGmcLq9OqEwcISOROhyzjB7tbw-73fNqcgLfW5-lhovwYJTOAwC89O2ZO-f3fuNmZLEhRLJT2FZNlO1VboTBTiPsq2gXgQykzwXpwPZTz862B5b07EwYYstw0K3kkWlJ3-J9Z2Ze8q1go0bFS0c26Lza8Yncnk7oEapBNBcioiuqXJ2HL04w1GxFYRGI2C53DobUskiTF-sgn3aV_-1LHbL3J-4wjXT7eRW1gJVeLzAGowCi8dNmXmQ6dIk8VHfQ686pQcsKcFSMsMm4MU1jYvrwcWFtZTTqXwfPjbtqXXNZpP8BZYipM-KLUd7Bh4IPLhRe2GtHgc4QjrFbSgThLFbVEdjtUaGOeL67bb06P-m7f6ohK12c80GdFXTdwMPCdR0aGSuSwH8B6AgSl4KKGsCQ-YXr0FGEzFPJUQQ2sbH1jkFfJN57GqAyshEAglHHzFQeti5zNcXDRtWlsP_W7XKOh-PDayjY5KD21ZcUP0uTUCrD_yX7Gj6zwby3ThkupeA9-FXrXhj7-pdwg6PfyhWKksSlUUHwHlxlw__MbyB0v_UqR5x3GQJkoNWNt7vQtXz78SxwBbmsesytE7qT7_h1-laD7hfaVkzrTZRfp7uljchQI-ZAkQtrEtWniXUX7QR9s6uXNS6YqGz6h_Z-cLNhVgxBlt-2DOlJyhTzuHr2j7sonh_kjtw5m00]--></g></svg>