<?xml version="1.0" encoding="UTF-8" standalone="no"?><svg xmlns="http://www.w3.org/2000/svg" xmlns:xlink="http://www.w3.org/1999/xlink" contentStyleType="text/css" height="417px" preserveAspectRatio="none" style="width:549px;height:417px;background:#FFFFFF;" version="1.1" viewBox="0 0 549 417" width="549px" zoomAndPan="magnify"><defs/><g><rect fill="#FFFFFF" height="216.1999" style="stroke:#181818;stroke-width:1.0;" width="10" x="127.5" y="117.7199"/><rect fill="#FFFFFF" height="41.24" style="stroke:#181818;stroke-width:1.0;" width="10" x="317" y="195.1999"/><rect fill="#FFFFFF" height="41.24" style="stroke:#181818;stroke-width:1.0;" width="10" x="461" y="277.6798"/><rect fill="none" height="194.1999" style="stroke:#000000;stroke-width:1.5;" width="533" x="10" y="132.7199"/><line style="stroke:#181818;stroke-width:0.5;stroke-dasharray:5.0,5.0;" x1="132" x2="132" y1="74.4799" y2="343.9198"/><line style="stroke:#181818;stroke-width:0.5;stroke-dasharray:5.0,5.0;" x1="322" x2="322" y1="74.4799" y2="343.9198"/><line style="stroke:#181818;stroke-width:0.5;stroke-dasharray:5.0,5.0;" x1="466" x2="466" y1="74.4799" y2="343.9198"/><rect fill="#E3E3E3" height="41.24" rx="2.5" ry="2.5" style="stroke:#181818;stroke-width:0.5;" width="225" x="20" y="32.24"/><text fill="#000000" font-family="sans-serif" font-size="20" lengthAdjust="spacing" textLength="211" x="27" y="60.62">:RegisterSkillController</text><rect fill="#E3E3E3" height="41.24" rx="2.5" ry="2.5" style="stroke:#181818;stroke-width:0.5;" width="225" x="20" y="342.9198"/><text fill="#000000" font-family="sans-serif" font-size="20" lengthAdjust="spacing" textLength="211" x="27" y="371.2998">:RegisterSkillController</text><rect fill="#E3E3E3" height="41.24" rx="2.5" ry="2.5" style="stroke:#181818;stroke-width:0.5;" width="134" x="255" y="32.24"/><text fill="#000000" font-family="sans-serif" font-size="20" lengthAdjust="spacing" textLength="120" x="262" y="60.62">:Repositories</text><rect fill="#E3E3E3" height="41.24" rx="2.5" ry="2.5" style="stroke:#181818;stroke-width:0.5;" width="134" x="255" y="342.9198"/><text fill="#000000" font-family="sans-serif" font-size="20" lengthAdjust="spacing" textLength="120" x="262" y="371.2998">:Repositories</text><rect fill="#E3E3E3" height="68.4799" rx="2.5" ry="2.5" style="stroke:#181818;stroke-width:0.5;" width="134" x="399" y="5"/><text fill="#000000" font-family="sans-serif" font-size="20" lengthAdjust="spacing" textLength="111" x="410.5" y="33.38">repositories</text><text fill="#000000" font-family="sans-serif" font-size="20" lengthAdjust="spacing" textLength="120" x="406" y="60.62">:Repositories</text><rect fill="#E3E3E3" height="68.4799" rx="2.5" ry="2.5" style="stroke:#181818;stroke-width:0.5;" width="134" x="399" y="342.9198"/><text fill="#000000" font-family="sans-serif" font-size="20" lengthAdjust="spacing" textLength="111" x="410.5" y="371.2998">repositories</text><text fill="#000000" font-family="sans-serif" font-size="20" lengthAdjust="spacing" textLength="120" x="406" y="398.5398">:Repositories</text><rect fill="#FFFFFF" height="216.1999" style="stroke:#181818;stroke-width:1.0;" width="10" x="127.5" y="117.7199"/><rect fill="#FFFFFF" height="41.24" style="stroke:#181818;stroke-width:1.0;" width="10" x="317" y="195.1999"/><rect fill="#FFFFFF" height="41.24" style="stroke:#181818;stroke-width:1.0;" width="10" x="461" y="277.6798"/><polygon fill="#181818" points="115.5,113.7199,125.5,117.7199,115.5,121.7199,119.5,117.7199" style="stroke:#181818;stroke-width:1.0;"/><line style="stroke:#181818;stroke-width:1.0;" x1="0" x2="121.5" y1="117.7199" y2="117.7199"/><text fill="#000000" font-family="sans-serif" font-size="20" font-weight="bold" lengthAdjust="spacing" textLength="11" x="7" y="109.8599">2</text><text fill="#000000" font-family="sans-serif" font-size="20" lengthAdjust="spacing" textLength="58" x="22" y="109.8599">create</text><path d="M10,132.7199 L351,132.7199 L351,151.9599 L341,161.9599 L10,161.9599 L10,132.7199 " fill="#EEEEEE" style="stroke:#000000;stroke-width:1.5;"/><rect fill="none" height="194.1999" style="stroke:#000000;stroke-width:1.5;" width="533" x="10" y="132.7199"/><text fill="#000000" font-family="sans-serif" font-size="20" font-weight="bold" lengthAdjust="spacing" textLength="296" x="25" y="155.0999">Get Registed Skills Repository</text><polygon fill="#181818" points="305,191.1999,315,195.1999,305,199.1999,309,195.1999" style="stroke:#181818;stroke-width:1.0;"/><line style="stroke:#181818;stroke-width:1.0;" x1="137.5" x2="311" y1="195.1999" y2="195.1999"/><text fill="#000000" font-family="sans-serif" font-size="20" font-weight="bold" lengthAdjust="spacing" textLength="11" x="144.5" y="187.3399">3</text><text fill="#000000" font-family="sans-serif" font-size="20" lengthAdjust="spacing" textLength="122" x="159.5" y="187.3399">getInstance()</text><polygon fill="#181818" points="148.5,232.4398,138.5,236.4398,148.5,240.4398,144.5,236.4398" style="stroke:#181818;stroke-width:1.0;"/><line style="stroke:#181818;stroke-width:1.0;stroke-dasharray:2.0,2.0;" x1="142.5" x2="321" y1="236.4398" y2="236.4398"/><text fill="#000000" font-family="sans-serif" font-size="20" font-weight="bold" lengthAdjust="spacing" textLength="11" x="154.5" y="228.5799">4</text><text fill="#000000" font-family="sans-serif" font-size="20" lengthAdjust="spacing" textLength="111" x="169.5" y="228.5799">repositories</text><polygon fill="#181818" points="449,273.6798,459,277.6798,449,281.6798,453,277.6798" style="stroke:#181818;stroke-width:1.0;"/><line style="stroke:#181818;stroke-width:1.0;" x1="137.5" x2="455" y1="277.6798" y2="277.6798"/><text fill="#000000" font-family="sans-serif" font-size="20" font-weight="bold" lengthAdjust="spacing" textLength="11" x="144.5" y="269.8198">5</text><text fill="#000000" font-family="sans-serif" font-size="20" lengthAdjust="spacing" textLength="188" x="159.5" y="269.8198">getSkillsRepository()</text><polygon fill="#181818" points="148.5,314.9198,138.5,318.9198,148.5,322.9198,144.5,318.9198" style="stroke:#181818;stroke-width:1.0;"/><line style="stroke:#181818;stroke-width:1.0;stroke-dasharray:2.0,2.0;" x1="142.5" x2="465" y1="318.9198" y2="318.9198"/><text fill="#000000" font-family="sans-serif" font-size="20" font-weight="bold" lengthAdjust="spacing" textLength="11" x="154.5" y="311.0598">6</text><text fill="#000000" font-family="sans-serif" font-size="20" lengthAdjust="spacing" textLength="145" x="169.5" y="311.0598">skillsRepository</text><!--SRC=[ZL6zQiCm4Dxr54UcTWYKZ1uA9T1Io53YZ5skqiKHbYKZdLlIfwyi9x6SED2RXFJzdaAjROiU6-DaJGeKxR4p_Eeib_gNOFKamXa2ZRDE7hnh2DXtbBsqA6kigEIZ8V0a6MrbSa0ue78_sbQmHnD82EpOsQxv8Yz4XB2MkaNBi2YsLEd0vCjQ6xEEGRmpXlm2CC1wjztSm5iND3klAIJCvU9OwZv5z9bIVCRujBS27vkNNHuGLaB0yZcPGm7I4p89bAo_us78174gxxeMteZXL451wf174WbvdgGObMSYHwEA-Ds6k4f93uyJtiLxhki4sS-S-lBKfu1y6nEgel_Rd8lqgnkI3yr7uhq6mxAl8oUTCMEu4hkNSnGZgqJsaFv8_040]--></g></svg>