<?xml version="1.0" encoding="us-ascii" standalone="no"?><svg xmlns="http://www.w3.org/2000/svg" xmlns:xlink="http://www.w3.org/1999/xlink" contentStyleType="text/css" height="632px" preserveAspectRatio="none" style="width:641px;height:632px;background:#FFFFFF;" version="1.1" viewBox="0 0 641 632" width="641px" zoomAndPan="magnify"><defs/><g><!--class RegisterSkillUI--><g id="elem_RegisterSkillUI"><rect codeLine="7" fill="#F1F1F1" height="48" id="RegisterSkillUI" rx="2.5" ry="2.5" style="stroke:#181818;stroke-width:0.5;" width="122" x="7" y="35"/><ellipse cx="22" cy="51" fill="#ADD1B2" rx="11" ry="11" style="stroke:#181818;stroke-width:1.0;"/><path d="M24.7656,46.875 Q24.9219,46.6563 25.1094,46.5469 Q25.2969,46.4375 25.5156,46.4375 Q25.8906,46.4375 26.125,46.7031 Q26.3594,46.9531 26.3594,47.5625 L26.3594,49.0156 Q26.3594,49.625 26.125,49.8906 Q25.8906,50.1563 25.5156,50.1563 Q25.1719,50.1563 24.9688,49.9531 Q24.7656,49.7656 24.6563,49.25 Q24.6094,48.8906 24.4219,48.7031 Q24.0938,48.3281 23.4844,48.1094 Q22.875,47.8906 22.25,47.8906 Q21.4844,47.8906 20.8438,48.2188 Q20.2188,48.5469 19.7188,49.2969 Q19.2344,50.0469 19.2344,51.0781 L19.2344,52.1719 Q19.2344,53.4063 20.125,54.2344 Q21.0156,55.0469 22.6094,55.0469 Q23.5469,55.0469 24.2031,54.7969 Q24.5938,54.6406 25.0156,54.2031 Q25.2813,53.9375 25.4219,53.8594 Q25.5781,53.7813 25.7813,53.7813 Q26.1094,53.7813 26.3594,54.0469 Q26.625,54.2969 26.625,54.6406 Q26.625,54.9844 26.2813,55.3906 Q25.7813,55.9688 24.9844,56.2969 Q23.9063,56.75 22.6094,56.75 Q21.0938,56.75 19.8906,56.125 Q18.9063,55.625 18.2188,54.5625 Q17.5313,53.4844 17.5313,52.2031 L17.5313,51.0469 Q17.5313,49.7188 18.1406,48.5781 Q18.7656,47.4219 19.8594,46.8125 Q20.9531,46.1875 22.1875,46.1875 Q22.9219,46.1875 23.5625,46.3594 Q24.2188,46.5156 24.7656,46.875 Z " fill="#000000"/><text fill="#000000" font-family="sans-serif" font-size="14" lengthAdjust="spacing" textLength="90" x="36" y="56.7969">RegisterSkillUI</text><line style="stroke:#181818;stroke-width:0.5;" x1="8" x2="128" y1="67" y2="67"/><line style="stroke:#181818;stroke-width:0.5;" x1="8" x2="128" y1="75" y2="75"/></g><!--class RegisterSkillController--><g id="elem_RegisterSkillController"><rect codeLine="10" fill="#F1F1F1" height="85.2422" id="RegisterSkillController" rx="2.5" ry="2.5" style="stroke:#181818;stroke-width:0.5;" width="172" x="164" y="16.5"/><ellipse cx="179" cy="32.5" fill="#ADD1B2" rx="11" ry="11" style="stroke:#181818;stroke-width:1.0;"/><path d="M181.7656,28.375 Q181.9219,28.1563 182.1094,28.0469 Q182.2969,27.9375 182.5156,27.9375 Q182.8906,27.9375 183.125,28.2031 Q183.3594,28.4531 183.3594,29.0625 L183.3594,30.5156 Q183.3594,31.125 183.125,31.3906 Q182.8906,31.6563 182.5156,31.6563 Q182.1719,31.6563 181.9688,31.4531 Q181.7656,31.2656 181.6563,30.75 Q181.6094,30.3906 181.4219,30.2031 Q181.0938,29.8281 180.4844,29.6094 Q179.875,29.3906 179.25,29.3906 Q178.4844,29.3906 177.8438,29.7188 Q177.2188,30.0469 176.7188,30.7969 Q176.2344,31.5469 176.2344,32.5781 L176.2344,33.6719 Q176.2344,34.9063 177.125,35.7344 Q178.0156,36.5469 179.6094,36.5469 Q180.5469,36.5469 181.2031,36.2969 Q181.5938,36.1406 182.0156,35.7031 Q182.2813,35.4375 182.4219,35.3594 Q182.5781,35.2813 182.7813,35.2813 Q183.1094,35.2813 183.3594,35.5469 Q183.625,35.7969 183.625,36.1406 Q183.625,36.4844 183.2813,36.8906 Q182.7813,37.4688 181.9844,37.7969 Q180.9063,38.25 179.6094,38.25 Q178.0938,38.25 176.8906,37.625 Q175.9063,37.125 175.2188,36.0625 Q174.5313,34.9844 174.5313,33.7031 L174.5313,32.5469 Q174.5313,31.2188 175.1406,30.0781 Q175.7656,28.9219 176.8594,28.3125 Q177.9531,27.6875 179.1875,27.6875 Q179.9219,27.6875 180.5625,27.8594 Q181.2188,28.0156 181.7656,28.375 Z " fill="#000000"/><text fill="#000000" font-family="sans-serif" font-size="14" lengthAdjust="spacing" textLength="140" x="193" y="38.2969">RegisterSkillController</text><line style="stroke:#181818;stroke-width:0.5;" x1="165" x2="335" y1="48.5" y2="48.5"/><line style="stroke:#181818;stroke-width:0.5;" x1="165" x2="335" y1="56.5" y2="56.5"/><text fill="#000000" font-family="sans-serif" font-size="14" lengthAdjust="spacing" textLength="158" x="170" y="75.6074">+RegisterSkillController()</text><text fill="#000000" font-family="sans-serif" font-size="14" lengthAdjust="spacing" textLength="92" x="170" y="94.2285">+getSkillsList()</text></g><!--class Skill--><g id="elem_Skill"><rect codeLine="15" fill="#F1F1F1" height="196.9688" id="Skill" rx="2.5" ry="2.5" style="stroke:#181818;stroke-width:0.5;" width="139" x="200.5" y="429"/><ellipse cx="253.25" cy="445" fill="#ADD1B2" rx="11" ry="11" style="stroke:#181818;stroke-width:1.0;"/><path d="M256.0156,440.875 Q256.1719,440.6563 256.3594,440.5469 Q256.5469,440.4375 256.7656,440.4375 Q257.1406,440.4375 257.375,440.7031 Q257.6094,440.9531 257.6094,441.5625 L257.6094,443.0156 Q257.6094,443.625 257.375,443.8906 Q257.1406,444.1563 256.7656,444.1563 Q256.4219,444.1563 256.2188,443.9531 Q256.0156,443.7656 255.9063,443.25 Q255.8594,442.8906 255.6719,442.7031 Q255.3438,442.3281 254.7344,442.1094 Q254.125,441.8906 253.5,441.8906 Q252.7344,441.8906 252.0938,442.2188 Q251.4688,442.5469 250.9688,443.2969 Q250.4844,444.0469 250.4844,445.0781 L250.4844,446.1719 Q250.4844,447.4063 251.375,448.2344 Q252.2656,449.0469 253.8594,449.0469 Q254.7969,449.0469 255.4531,448.7969 Q255.8438,448.6406 256.2656,448.2031 Q256.5313,447.9375 256.6719,447.8594 Q256.8281,447.7813 257.0313,447.7813 Q257.3594,447.7813 257.6094,448.0469 Q257.875,448.2969 257.875,448.6406 Q257.875,448.9844 257.5313,449.3906 Q257.0313,449.9688 256.2344,450.2969 Q255.1563,450.75 253.8594,450.75 Q252.3438,450.75 251.1406,450.125 Q250.1563,449.625 249.4688,448.5625 Q248.7813,447.4844 248.7813,446.2031 L248.7813,445.0469 Q248.7813,443.7188 249.3906,442.5781 Q250.0156,441.4219 251.1094,440.8125 Q252.2031,440.1875 253.4375,440.1875 Q254.1719,440.1875 254.8125,440.3594 Q255.4688,440.5156 256.0156,440.875 Z " fill="#000000"/><text fill="#000000" font-family="sans-serif" font-size="14" lengthAdjust="spacing" textLength="25" x="273.75" y="450.7969">Skill</text><line style="stroke:#181818;stroke-width:0.5;" x1="201.5" x2="338.5" y1="461" y2="461"/><text fill="#000000" font-family="sans-serif" font-size="14" lengthAdjust="spacing" textLength="81" x="206.5" y="480.1074">-String name</text><line style="stroke:#181818;stroke-width:0.5;" x1="201.5" x2="338.5" y1="487.6211" y2="487.6211"/><text fill="#000000" font-family="sans-serif" font-size="14" lengthAdjust="spacing" textLength="78" x="206.5" y="506.7285">+Skill(name)</text><text fill="#000000" font-family="sans-serif" font-size="14" lengthAdjust="spacing" textLength="74" x="206.5" y="525.3496">+getName()</text><text fill="#000000" font-family="sans-serif" font-size="14" lengthAdjust="spacing" textLength="73" x="206.5" y="543.9707">+setName()</text><text fill="#000000" font-family="sans-serif" font-size="14" lengthAdjust="spacing" textLength="60" x="206.5" y="562.5918">+equals()</text><text fill="#000000" font-family="sans-serif" font-size="14" lengthAdjust="spacing" textLength="67" x="206.5" y="581.2129">+toString()</text><text fill="#000000" font-family="sans-serif" font-size="14" lengthAdjust="spacing" textLength="52" x="206.5" y="599.834">+clone()</text><text fill="#000000" font-family="sans-serif" font-size="14" lengthAdjust="spacing" textLength="127" x="206.5" y="618.4551">+validateSkill(name)</text></g><!--class SkillsRepository--><g id="elem_SkillsRepository"><rect codeLine="26" fill="#F1F1F1" height="178.3477" id="SkillsRepository" rx="2.5" ry="2.5" style="stroke:#181818;stroke-width:0.5;" width="175" x="312.5" y="190"/><ellipse cx="346.85" cy="206" fill="#ADD1B2" rx="11" ry="11" style="stroke:#181818;stroke-width:1.0;"/><path d="M349.6156,201.875 Q349.7719,201.6563 349.9594,201.5469 Q350.1469,201.4375 350.3656,201.4375 Q350.7406,201.4375 350.975,201.7031 Q351.2094,201.9531 351.2094,202.5625 L351.2094,204.0156 Q351.2094,204.625 350.975,204.8906 Q350.7406,205.1563 350.3656,205.1563 Q350.0219,205.1563 349.8188,204.9531 Q349.6156,204.7656 349.5063,204.25 Q349.4594,203.8906 349.2719,203.7031 Q348.9438,203.3281 348.3344,203.1094 Q347.725,202.8906 347.1,202.8906 Q346.3344,202.8906 345.6938,203.2188 Q345.0688,203.5469 344.5688,204.2969 Q344.0844,205.0469 344.0844,206.0781 L344.0844,207.1719 Q344.0844,208.4063 344.975,209.2344 Q345.8656,210.0469 347.4594,210.0469 Q348.3969,210.0469 349.0531,209.7969 Q349.4438,209.6406 349.8656,209.2031 Q350.1313,208.9375 350.2719,208.8594 Q350.4281,208.7813 350.6313,208.7813 Q350.9594,208.7813 351.2094,209.0469 Q351.475,209.2969 351.475,209.6406 Q351.475,209.9844 351.1313,210.3906 Q350.6313,210.9688 349.8344,211.2969 Q348.7563,211.75 347.4594,211.75 Q345.9438,211.75 344.7406,211.125 Q343.7563,210.625 343.0688,209.5625 Q342.3813,208.4844 342.3813,207.2031 L342.3813,206.0469 Q342.3813,204.7188 342.9906,203.5781 Q343.6156,202.4219 344.7094,201.8125 Q345.8031,201.1875 347.0375,201.1875 Q347.7719,201.1875 348.4125,201.3594 Q349.0688,201.5156 349.6156,201.875 Z " fill="#000000"/><text fill="#000000" font-family="sans-serif" font-size="14" lengthAdjust="spacing" textLength="100" x="365.15" y="211.7969">SkillsRepository</text><line style="stroke:#181818;stroke-width:0.5;" x1="313.5" x2="486.5" y1="222" y2="222"/><text fill="#000000" font-family="sans-serif" font-size="14" lengthAdjust="spacing" textLength="124" x="318.5" y="241.1074">-List&lt;Skill&gt; skillsList</text><line style="stroke:#181818;stroke-width:0.5;" x1="313.5" x2="486.5" y1="248.6211" y2="248.6211"/><text fill="#000000" font-family="sans-serif" font-size="14" lengthAdjust="spacing" textLength="118" x="318.5" y="267.7285">+SkillsRepository()</text><text fill="#000000" font-family="sans-serif" font-size="14" lengthAdjust="spacing" textLength="163" x="318.5" y="286.3496">+Optional&lt;Skill&gt; add(skill)</text><text fill="#000000" font-family="sans-serif" font-size="14" lengthAdjust="spacing" textLength="102" x="318.5" y="304.9707">+addSkill(name)</text><text fill="#000000" font-family="sans-serif" font-size="14" lengthAdjust="spacing" textLength="112" x="318.5" y="323.5918">-validateSkill(skill)</text><text fill="#000000" font-family="sans-serif" font-size="14" lengthAdjust="spacing" textLength="92" x="318.5" y="342.2129">+getSkillsList()</text><text fill="#000000" font-family="sans-serif" font-size="14" lengthAdjust="spacing" textLength="88" x="318.5" y="360.834">+remove(skill)</text></g><!--class Repositories--><g id="elem_Repositories"><rect codeLine="36" fill="#F1F1F1" height="103.8633" id="Repositories" rx="2.5" ry="2.5" style="stroke:#181818;stroke-width:0.5;" width="194" x="440" y="7"/><ellipse cx="493.25" cy="23" fill="#ADD1B2" rx="11" ry="11" style="stroke:#181818;stroke-width:1.0;"/><path d="M496.0156,18.875 Q496.1719,18.6563 496.3594,18.5469 Q496.5469,18.4375 496.7656,18.4375 Q497.1406,18.4375 497.375,18.7031 Q497.6094,18.9531 497.6094,19.5625 L497.6094,21.0156 Q497.6094,21.625 497.375,21.8906 Q497.1406,22.1563 496.7656,22.1563 Q496.4219,22.1563 496.2188,21.9531 Q496.0156,21.7656 495.9063,21.25 Q495.8594,20.8906 495.6719,20.7031 Q495.3438,20.3281 494.7344,20.1094 Q494.125,19.8906 493.5,19.8906 Q492.7344,19.8906 492.0938,20.2188 Q491.4688,20.5469 490.9688,21.2969 Q490.4844,22.0469 490.4844,23.0781 L490.4844,24.1719 Q490.4844,25.4063 491.375,26.2344 Q492.2656,27.0469 493.8594,27.0469 Q494.7969,27.0469 495.4531,26.7969 Q495.8438,26.6406 496.2656,26.2031 Q496.5313,25.9375 496.6719,25.8594 Q496.8281,25.7813 497.0313,25.7813 Q497.3594,25.7813 497.6094,26.0469 Q497.875,26.2969 497.875,26.6406 Q497.875,26.9844 497.5313,27.3906 Q497.0313,27.9688 496.2344,28.2969 Q495.1563,28.75 493.8594,28.75 Q492.3438,28.75 491.1406,28.125 Q490.1563,27.625 489.4688,26.5625 Q488.7813,25.4844 488.7813,24.2031 L488.7813,23.0469 Q488.7813,21.7188 489.3906,20.5781 Q490.0156,19.4219 491.1094,18.8125 Q492.2031,18.1875 493.4375,18.1875 Q494.1719,18.1875 494.8125,18.3594 Q495.4688,18.5156 496.0156,18.875 Z " fill="#000000"/><text fill="#000000" font-family="sans-serif" font-size="14" lengthAdjust="spacing" textLength="79" x="513.75" y="28.7969">Repositories</text><line style="stroke:#181818;stroke-width:0.5;" x1="441" x2="633" y1="39" y2="39"/><line style="stroke:#181818;stroke-width:0.5;" x1="441" x2="633" y1="47" y2="47"/><text fill="#000000" font-family="sans-serif" font-size="14" lengthAdjust="spacing" textLength="94" x="446" y="66.1074">-Repositories()</text><text fill="#000000" font-family="sans-serif" font-size="14" lengthAdjust="spacing" textLength="182" x="446" y="84.7285">+getInstance() : Repositories</text><text fill="#000000" font-family="sans-serif" font-size="14" lengthAdjust="spacing" textLength="138" x="446" y="103.3496">+getSkillsRepository()</text></g><!--link RegisterSkillUI to RegisterSkillController--><g id="link_RegisterSkillUI_RegisterSkillController"><path codeLine="43" d="M129.05,59 C131.8,59 142.64,59 157.82,59 " fill="none" id="RegisterSkillUI-to-RegisterSkillController" style="stroke:#181818;stroke-width:1.0;stroke-dasharray:7.0,7.0;"/><polygon fill="#181818" points="163.82,59,154.82,55,158.82,59,154.82,63,163.82,59" style="stroke:#181818;stroke-width:1.0;"/></g><!--link RegisterSkillController to Repositories--><g id="link_RegisterSkillController_Repositories"><path codeLine="45" d="M336.11,59 C368.8,59 400.25,59 433.89,59 " fill="none" id="RegisterSkillController-to-Repositories" style="stroke:#181818;stroke-width:1.0;stroke-dasharray:7.0,7.0;"/><polygon fill="#181818" points="439.89,59,430.89,55,434.89,59,430.89,63,439.89,59" style="stroke:#181818;stroke-width:1.0;"/><text fill="#000000" font-family="sans-serif" font-size="13" lengthAdjust="spacing" textLength="67" x="354.5" y="52.0283">repositories</text></g><!--link Repositories to SkillsRepository--><g id="link_Repositories_SkillsRepository"><path codeLine="47" d="M504.88,111.11 C490.17,134.52 475.5031,157.8603 458.7131,184.5703 " fill="none" id="Repositories-to-SkillsRepository" style="stroke:#181818;stroke-width:1.0;"/><polygon fill="#181818" points="455.52,189.65,463.6962,184.1591,458.181,185.4169,456.9232,179.9016,455.52,189.65" style="stroke:#181818;stroke-width:1.0;"/><text fill="#000000" font-family="sans-serif" font-size="13" lengthAdjust="spacing" textLength="7" x="452.6653" y="178.8786">1</text></g><!--link RegisterSkillController to Skill--><g id="link_RegisterSkillController_Skill"><path codeLine="49" d="M251.79,101.81 C254.93,174.94 261.2336,321.8955 265.5536,422.8755 " fill="none" id="RegisterSkillController-to-Skill" style="stroke:#181818;stroke-width:1.0;stroke-dasharray:7.0,7.0;"/><polygon fill="#181818" points="265.81,428.87,269.4217,419.7073,265.5963,423.8746,261.429,420.0492,265.81,428.87" style="stroke:#181818;stroke-width:1.0;"/><text fill="#000000" font-family="sans-serif" font-size="13" lengthAdjust="spacing" textLength="25" x="264" y="284.5283">Skill</text></g><!--link RegisterSkillController to SkillsRepository--><g id="link_RegisterSkillController_SkillsRepository"><path codeLine="50" d="M278.57,101.52 C295.74,126.47 314.8588,154.2671 335.8388,184.7571 " fill="none" id="RegisterSkillController-to-SkillsRepository" style="stroke:#181818;stroke-width:1.0;stroke-dasharray:7.0,7.0;"/><polygon fill="#181818" points="339.24,189.7,337.4335,180.0182,336.4057,185.5809,330.843,184.5531,339.24,189.7" style="stroke:#181818;stroke-width:1.0;"/><text fill="#000000" font-family="sans-serif" font-size="13" lengthAdjust="spacing" textLength="94" x="318" y="156.0283">SkillsRepository</text></g><!--link SkillsRepository to Skill--><g id="link_SkillsRepository_Skill"><path codeLine="52" d="M353.43,368.3 C343.09,387.91 334.8585,403.5126 324.3285,423.4826 " fill="none" id="SkillsRepository-to-Skill" style="stroke:#181818;stroke-width:1.0;"/><polygon fill="#181818" points="321.53,428.79,329.266,422.6946,323.8621,424.3672,322.1895,418.9633,321.53,428.79" style="stroke:#181818;stroke-width:1.0;"/><text fill="#000000" font-family="sans-serif" font-size="13" lengthAdjust="spacing" textLength="7" x="342.2836" y="390.425">1</text><text fill="#000000" font-family="sans-serif" font-size="13" lengthAdjust="spacing" textLength="5" x="320.2839" y="417.6224">*</text></g><!--SRC=[XL9DJyCm3BtdLqGx3L0HN2jK2N6QX41QnGy8hIdHigJ4sL11_7VSj0rfza4lbVsUdvyTuqRgLbYnvQseDgA1qdKAk8NA2TqeO1W8-2vgyobrmz-4mXXHKeFhMk2jKLqVH5Yb1EAzSrQ-xXoiAgDB-GNyXZ7c8Rw6Hg83MswaKYyh_ir-Za8FHZjhb09B54xVrIbyUJ7Y3JWFuIFHA1k4VNQKoNX9vcWgBROm5dfysISYgISAWpGcCNpiQ2aXT6OG3ObA6Vt7tWibQ-4WxZCtXsje3KfdR1TyzbFSURJW6EQABKTLeTTpwwJHGasLegwNldeYK2ATDqiSplZfLeUiXQtPmyICdd0q9073874oVgoLHhgwYlR4ynafxJmRatgnz8YkYrF7aN2Zg_8raTkSPeeii1cOPGLVt2uErdv6dlI7kyk7___C-0Zo8wqEIBqZx-noTCROBm00]--></g></svg>