<?xml version="1.0" encoding="UTF-8" standalone="no"?><svg xmlns="http://www.w3.org/2000/svg" xmlns:xlink="http://www.w3.org/1999/xlink" contentStyleType="text/css" height="1362px" preserveAspectRatio="none" style="width:1621px;height:1362px;background:#FFFFFF;" version="1.1" viewBox="0 0 1621 1362" width="1621px" zoomAndPan="magnify"><defs/><g><rect fill="#FFFFFF" height="1105.2393" style="stroke:#181818;stroke-width:1.0;" width="10" x="103" y="129.4799"/><rect fill="#FFFFFF" height="306.9198" style="stroke:#181818;stroke-width:1.0;" width="10" x="455" y="162.7199"/><rect fill="#FFFFFF" height="632.3596" style="stroke:#181818;stroke-width:1.0;" width="10" x="455" y="510.8797"/><rect fill="#FFFFFF" height="41.24" style="stroke:#181818;stroke-width:1.0;" width="10" x="455" y="1184.4793"/><rect fill="#FFFFFF" height="165.9599" style="stroke:#181818;stroke-width:1.0;" width="10" x="669.5" y="213.9599"/><rect fill="#FFFFFF" height="522.6397" style="stroke:#181818;stroke-width:1.0;" width="10" x="669.5" y="552.1197"/><rect fill="#FFFFFF" height="41.24" style="stroke:#181818;stroke-width:1.0;" width="10" x="859" y="256.1999"/><rect fill="#FFFFFF" height="41.24" style="stroke:#181818;stroke-width:1.0;" width="10" x="1003" y="338.6798"/><rect fill="#FFFFFF" height="440.1598" style="stroke:#181818;stroke-width:1.0;" width="10" x="1162.5" y="593.3596"/><rect fill="#FFFFFF" height="170.9599" style="stroke:#181818;stroke-width:1.0;" width="10" x="1386.5" y="644.5996"/><rect fill="none" height="598.3596" style="stroke:#000000;stroke-width:1.5;" width="1605.5" x="10" y="394.9198"/><line style="stroke:#181818;stroke-width:0.5;stroke-dasharray:5.0,5.0;" x1="108" x2="108" y1="119.4799" y2="1243.7193"/><line style="stroke:#181818;stroke-width:0.5;stroke-dasharray:5.0,5.0;" x1="460" x2="460" y1="119.4799" y2="1243.7193"/><line style="stroke:#181818;stroke-width:0.5;stroke-dasharray:5.0,5.0;" x1="674" x2="674" y1="206.8399" y2="1243.7193"/><line style="stroke:#181818;stroke-width:0.5;stroke-dasharray:5.0,5.0;" x1="864" x2="864" y1="119.4799" y2="1243.7193"/><line style="stroke:#181818;stroke-width:0.5;stroke-dasharray:5.0,5.0;" x1="1008" x2="1008" y1="119.4799" y2="1243.7193"/><line style="stroke:#181818;stroke-width:0.5;stroke-dasharray:5.0,5.0;" x1="1167" x2="1167" y1="119.4799" y2="1243.7193"/><line style="stroke:#181818;stroke-width:0.5;stroke-dasharray:5.0,5.0;" x1="1391" x2="1391" y1="651.0996" y2="1243.7193"/><text fill="#000000" font-family="sans-serif" font-size="20" lengthAdjust="spacing" textLength="170" x="20" y="86.38">Human Resources</text><text fill="#000000" font-family="sans-serif" font-size="20" lengthAdjust="spacing" textLength="83" x="63.5" y="113.62">Manager</text><ellipse cx="108" cy="13.5" fill="#E3E3E3" rx="8" ry="8" style="stroke:#181818;stroke-width:0.5;"/><path d="M108,21.5 L108,48.5 M95,29.5 L121,29.5 M108,48.5 L95,63.5 M108,48.5 L121,63.5 " fill="none" style="stroke:#181818;stroke-width:0.5;"/><text fill="#000000" font-family="sans-serif" font-size="20" lengthAdjust="spacing" textLength="170" x="20" y="1264.0993">Human Resources</text><text fill="#000000" font-family="sans-serif" font-size="20" lengthAdjust="spacing" textLength="83" x="63.5" y="1291.3393">Manager</text><ellipse cx="108" cy="1305.6992" fill="#E3E3E3" rx="8" ry="8" style="stroke:#181818;stroke-width:0.5;"/><path d="M108,1313.6992 L108,1340.6992 M95,1321.6992 L121,1321.6992 M108,1340.6992 L95,1355.6992 M108,1340.6992 L121,1355.6992 " fill="none" style="stroke:#181818;stroke-width:0.5;"/><rect fill="#E3E3E3" height="41.24" rx="2.5" ry="2.5" style="stroke:#181818;stroke-width:0.5;" width="154" x="383" y="77.24"/><text fill="#000000" font-family="sans-serif" font-size="20" lengthAdjust="spacing" textLength="140" x="390" y="105.62">:RegisterSkillUI</text><rect fill="#E3E3E3" height="41.24" rx="2.5" ry="2.5" style="stroke:#181818;stroke-width:0.5;" width="154" x="383" y="1242.7193"/><text fill="#000000" font-family="sans-serif" font-size="20" lengthAdjust="spacing" textLength="140" x="390" y="1271.0993">:RegisterSkillUI</text><rect fill="#E3E3E3" height="41.24" rx="2.5" ry="2.5" style="stroke:#181818;stroke-width:0.5;" width="225" x="562" y="1242.7193"/><text fill="#000000" font-family="sans-serif" font-size="20" lengthAdjust="spacing" textLength="211" x="569" y="1271.0993">:RegisterSkillController</text><rect fill="#E3E3E3" height="41.24" rx="2.5" ry="2.5" style="stroke:#181818;stroke-width:0.5;" width="134" x="797" y="77.24"/><text fill="#000000" font-family="sans-serif" font-size="20" lengthAdjust="spacing" textLength="120" x="804" y="105.62">:Repositories</text><rect fill="#E3E3E3" height="41.24" rx="2.5" ry="2.5" style="stroke:#181818;stroke-width:0.5;" width="134" x="797" y="1242.7193"/><text fill="#000000" font-family="sans-serif" font-size="20" lengthAdjust="spacing" textLength="120" x="804" y="1271.0993">:Repositories</text><rect fill="#E3E3E3" height="68.4799" rx="2.5" ry="2.5" style="stroke:#181818;stroke-width:0.5;" width="134" x="941" y="50"/><text fill="#000000" font-family="sans-serif" font-size="20" lengthAdjust="spacing" textLength="111" x="952.5" y="78.38">repositories</text><text fill="#000000" font-family="sans-serif" font-size="20" lengthAdjust="spacing" textLength="120" x="948" y="105.62">:Repositories</text><rect fill="#E3E3E3" height="68.4799" rx="2.5" ry="2.5" style="stroke:#181818;stroke-width:0.5;" width="134" x="941" y="1242.7193"/><text fill="#000000" font-family="sans-serif" font-size="20" lengthAdjust="spacing" textLength="111" x="952.5" y="1271.0993">repositories</text><text fill="#000000" font-family="sans-serif" font-size="20" lengthAdjust="spacing" textLength="120" x="948" y="1298.3393">:Repositories</text><rect fill="#E3E3E3" height="68.4799" rx="2.5" ry="2.5" style="stroke:#181818;stroke-width:0.5;" width="165" x="1085" y="50"/><text fill="#000000" font-family="sans-serif" font-size="20" lengthAdjust="spacing" textLength="145" x="1095" y="78.38">skillsRepository</text><text fill="#000000" font-family="sans-serif" font-size="20" lengthAdjust="spacing" textLength="151" x="1092" y="105.62">:SkillsRepository</text><rect fill="#E3E3E3" height="68.4799" rx="2.5" ry="2.5" style="stroke:#181818;stroke-width:0.5;" width="165" x="1085" y="1242.7193"/><text fill="#000000" font-family="sans-serif" font-size="20" lengthAdjust="spacing" textLength="145" x="1095" y="1271.0993">skillsRepository</text><text fill="#000000" font-family="sans-serif" font-size="20" lengthAdjust="spacing" textLength="151" x="1092" y="1298.3393">:SkillsRepository</text><rect fill="#E3E3E3" height="68.4799" rx="2.5" ry="2.5" style="stroke:#181818;stroke-width:0.5;" width="67" x="1358" y="1242.7193"/><text fill="#000000" font-family="sans-serif" font-size="20" lengthAdjust="spacing" textLength="53" x="1365" y="1271.0993">name</text><text fill="#000000" font-family="sans-serif" font-size="20" lengthAdjust="spacing" textLength="42" x="1370.5" y="1298.3393">:Skill</text><rect fill="#FFFFFF" height="1105.2393" style="stroke:#181818;stroke-width:1.0;" width="10" x="103" y="129.4799"/><rect fill="#FFFFFF" height="306.9198" style="stroke:#181818;stroke-width:1.0;" width="10" x="455" y="162.7199"/><rect fill="#FFFFFF" height="632.3596" style="stroke:#181818;stroke-width:1.0;" width="10" x="455" y="510.8797"/><rect fill="#FFFFFF" height="41.24" style="stroke:#181818;stroke-width:1.0;" width="10" x="455" y="1184.4793"/><rect fill="#FFFFFF" height="165.9599" style="stroke:#181818;stroke-width:1.0;" width="10" x="669.5" y="213.9599"/><rect fill="#FFFFFF" height="522.6397" style="stroke:#181818;stroke-width:1.0;" width="10" x="669.5" y="552.1197"/><rect fill="#FFFFFF" height="41.24" style="stroke:#181818;stroke-width:1.0;" width="10" x="859" y="256.1999"/><rect fill="#FFFFFF" height="41.24" style="stroke:#181818;stroke-width:1.0;" width="10" x="1003" y="338.6798"/><rect fill="#FFFFFF" height="440.1598" style="stroke:#181818;stroke-width:1.0;" width="10" x="1162.5" y="593.3596"/><rect fill="#FFFFFF" height="170.9599" style="stroke:#181818;stroke-width:1.0;" width="10" x="1386.5" y="644.5996"/><polygon fill="#181818" points="443,158.7199,453,162.7199,443,166.7199,447,162.7199" style="stroke:#181818;stroke-width:1.0;"/><line style="stroke:#181818;stroke-width:1.0;" x1="113" x2="449" y1="162.7199" y2="162.7199"/><text fill="#000000" font-family="sans-serif" font-size="20" font-weight="bold" lengthAdjust="spacing" textLength="11" x="120" y="154.8599">1</text><text fill="#000000" font-family="sans-serif" font-size="20" lengthAdjust="spacing" textLength="225" x="135" y="154.8599">asks to regist a new skill</text><polygon fill="#181818" points="550,199.9599,560,203.9599,550,207.9599,554,203.9599" style="stroke:#181818;stroke-width:1.0;"/><line style="stroke:#181818;stroke-width:1.0;" x1="465" x2="556" y1="203.9599" y2="203.9599"/><text fill="#000000" font-family="sans-serif" font-size="20" font-weight="bold" lengthAdjust="spacing" textLength="11" x="472" y="196.0999">2</text><text fill="#000000" font-family="sans-serif" font-size="20" lengthAdjust="spacing" textLength="58" x="487" y="196.0999">create</text><rect fill="#E3E3E3" height="41.24" rx="2.5" ry="2.5" style="stroke:#181818;stroke-width:0.5;" width="225" x="562" y="170.7199"/><text fill="#000000" font-family="sans-serif" font-size="20" lengthAdjust="spacing" textLength="211" x="569" y="199.0999">:RegisterSkillController</text><polygon fill="#181818" points="847,252.1999,857,256.1999,847,260.1999,851,256.1999" style="stroke:#181818;stroke-width:1.0;"/><line style="stroke:#181818;stroke-width:1.0;" x1="679.5" x2="853" y1="256.1999" y2="256.1999"/><text fill="#000000" font-family="sans-serif" font-size="20" font-weight="bold" lengthAdjust="spacing" textLength="11" x="686.5" y="248.3399">3</text><text fill="#000000" font-family="sans-serif" font-size="20" lengthAdjust="spacing" textLength="122" x="701.5" y="248.3399">getInstance()</text><polygon fill="#181818" points="690.5,293.4398,680.5,297.4398,690.5,301.4398,686.5,297.4398" style="stroke:#181818;stroke-width:1.0;"/><line style="stroke:#181818;stroke-width:1.0;stroke-dasharray:2.0,2.0;" x1="684.5" x2="863" y1="297.4398" y2="297.4398"/><text fill="#000000" font-family="sans-serif" font-size="20" font-weight="bold" lengthAdjust="spacing" textLength="11" x="696.5" y="289.5799">4</text><text fill="#000000" font-family="sans-serif" font-size="20" lengthAdjust="spacing" textLength="111" x="711.5" y="289.5799">repositories</text><polygon fill="#181818" points="991,334.6798,1001,338.6798,991,342.6798,995,338.6798" style="stroke:#181818;stroke-width:1.0;"/><line style="stroke:#181818;stroke-width:1.0;" x1="679.5" x2="997" y1="338.6798" y2="338.6798"/><text fill="#000000" font-family="sans-serif" font-size="20" font-weight="bold" lengthAdjust="spacing" textLength="11" x="686.5" y="330.8198">5</text><text fill="#000000" font-family="sans-serif" font-size="20" lengthAdjust="spacing" textLength="188" x="701.5" y="330.8198">getSkillsRepository()</text><polygon fill="#181818" points="685.5,375.9198,675.5,379.9198,685.5,383.9198,681.5,379.9198" style="stroke:#181818;stroke-width:1.0;"/><line style="stroke:#181818;stroke-width:1.0;stroke-dasharray:2.0,2.0;" x1="679.5" x2="1007" y1="379.9198" y2="379.9198"/><text fill="#000000" font-family="sans-serif" font-size="20" font-weight="bold" lengthAdjust="spacing" textLength="11" x="691.5" y="372.0598">6</text><text fill="#000000" font-family="sans-serif" font-size="20" lengthAdjust="spacing" textLength="146" x="706.5" y="372.0598">SkillsRepository</text><path d="M10,394.9198 L98,394.9198 L98,414.1598 L88,424.1598 L10,424.1598 L10,394.9198 " fill="#EEEEEE" style="stroke:#000000;stroke-width:1.5;"/><rect fill="none" height="598.3596" style="stroke:#000000;stroke-width:1.5;" width="1605.5" x="10" y="394.9198"/><text fill="#000000" font-family="sans-serif" font-size="20" font-weight="bold" lengthAdjust="spacing" textLength="43" x="25" y="417.2998">loop</text><text fill="#000000" font-family="sans-serif" font-size="20" font-weight="bold" lengthAdjust="spacing" textLength="164" x="113" y="418.2998">[while intended]</text><polygon fill="#181818" points="124,465.6397,114,469.6397,124,473.6397,120,469.6397" style="stroke:#181818;stroke-width:1.0;"/><line style="stroke:#181818;stroke-width:1.0;stroke-dasharray:2.0,2.0;" x1="118" x2="459" y1="469.6397" y2="469.6397"/><text fill="#000000" font-family="sans-serif" font-size="20" font-weight="bold" lengthAdjust="spacing" textLength="11" x="130" y="461.7797">7</text><text fill="#000000" font-family="sans-serif" font-size="20" lengthAdjust="spacing" textLength="215" x="145" y="461.7797">requests the skill name</text><polygon fill="#181818" points="443,506.8797,453,510.8797,443,514.8797,447,510.8797" style="stroke:#181818;stroke-width:1.0;"/><line style="stroke:#181818;stroke-width:1.0;" x1="113" x2="449" y1="510.8797" y2="510.8797"/><text fill="#000000" font-family="sans-serif" font-size="20" font-weight="bold" lengthAdjust="spacing" textLength="11" x="120" y="503.0197">8</text><text fill="#000000" font-family="sans-serif" font-size="20" lengthAdjust="spacing" textLength="228" x="135" y="503.0197">types the new skill name</text><polygon fill="#181818" points="657.5,548.1197,667.5,552.1197,657.5,556.1197,661.5,552.1197" style="stroke:#181818;stroke-width:1.0;"/><line style="stroke:#181818;stroke-width:1.0;" x1="465" x2="663.5" y1="552.1197" y2="552.1197"/><text fill="#000000" font-family="sans-serif" font-size="20" font-weight="bold" lengthAdjust="spacing" textLength="11" x="472" y="544.2597">9</text><text fill="#000000" font-family="sans-serif" font-size="20" lengthAdjust="spacing" textLength="58" x="487" y="544.2597">create</text><polygon fill="#181818" points="1150.5,589.3596,1160.5,593.3596,1150.5,597.3596,1154.5,593.3596" style="stroke:#181818;stroke-width:1.0;"/><line style="stroke:#181818;stroke-width:1.0;" x1="679.5" x2="1156.5" y1="593.3596" y2="593.3596"/><text fill="#000000" font-family="sans-serif" font-size="20" font-weight="bold" lengthAdjust="spacing" textLength="22" x="686.5" y="585.4997">10</text><text fill="#000000" font-family="sans-serif" font-size="20" lengthAdjust="spacing" textLength="58" x="712.5" y="585.4997">create</text><polygon fill="#181818" points="1346,630.5996,1356,634.5996,1346,638.5996,1350,634.5996" style="stroke:#181818;stroke-width:1.0;"/><line style="stroke:#181818;stroke-width:1.0;" x1="1172.5" x2="1352" y1="634.5996" y2="634.5996"/><text fill="#000000" font-family="sans-serif" font-size="20" font-weight="bold" lengthAdjust="spacing" textLength="22" x="1179.5" y="626.7396">11</text><text fill="#000000" font-family="sans-serif" font-size="20" lengthAdjust="spacing" textLength="58" x="1205.5" y="626.7396">create</text><rect fill="#E3E3E3" height="68.4799" rx="2.5" ry="2.5" style="stroke:#181818;stroke-width:0.5;" width="67" x="1358" y="601.3596"/><text fill="#000000" font-family="sans-serif" font-size="20" lengthAdjust="spacing" textLength="53" x="1365" y="629.7396">name</text><text fill="#000000" font-family="sans-serif" font-size="20" lengthAdjust="spacing" textLength="42" x="1370.5" y="656.9796">:Skill</text><line style="stroke:#181818;stroke-width:1.0;" x1="1396.5" x2="1438.5" y1="714.0796" y2="714.0796"/><line style="stroke:#181818;stroke-width:1.0;" x1="1438.5" x2="1438.5" y1="714.0796" y2="727.0796"/><line style="stroke:#181818;stroke-width:1.0;" x1="1397.5" x2="1438.5" y1="727.0796" y2="727.0796"/><polygon fill="#181818" points="1407.5,723.0796,1397.5,727.0796,1407.5,731.0796,1403.5,727.0796" style="stroke:#181818;stroke-width:1.0;"/><text fill="#000000" font-family="sans-serif" font-size="20" font-weight="bold" lengthAdjust="spacing" textLength="22" x="1403.5" y="706.2196">12</text><text fill="#000000" font-family="sans-serif" font-size="20" lengthAdjust="spacing" textLength="174" x="1429.5" y="706.2196">validateSkill(name)</text><polygon fill="#181818" points="1183.5,764.3195,1173.5,768.3195,1183.5,772.3195,1179.5,768.3195" style="stroke:#181818;stroke-width:1.0;"/><line style="stroke:#181818;stroke-width:1.0;stroke-dasharray:2.0,2.0;" x1="1177.5" x2="1385.5" y1="768.3195" y2="768.3195"/><text fill="#000000" font-family="sans-serif" font-size="20" font-weight="bold" lengthAdjust="spacing" textLength="22" x="1189.5" y="760.4596">13</text><text fill="#000000" font-family="sans-serif" font-size="20" lengthAdjust="spacing" textLength="53" x="1215.5" y="760.4596">name</text><line style="stroke:#181818;stroke-width:1.0;" x1="1172.5" x2="1214.5" y1="814.5595" y2="814.5595"/><line style="stroke:#181818;stroke-width:1.0;" x1="1214.5" x2="1214.5" y1="814.5595" y2="827.5595"/><line style="stroke:#181818;stroke-width:1.0;" x1="1167.5" x2="1214.5" y1="827.5595" y2="827.5595"/><polygon fill="#181818" points="1177.5,823.5595,1167.5,827.5595,1177.5,831.5595,1173.5,827.5595" style="stroke:#181818;stroke-width:1.0;"/><text fill="#000000" font-family="sans-serif" font-size="20" font-weight="bold" lengthAdjust="spacing" textLength="22" x="1179.5" y="806.6995">14</text><text fill="#000000" font-family="sans-serif" font-size="20" lengthAdjust="spacing" textLength="174" x="1205.5" y="806.6995">validateSkill(name)</text><line style="stroke:#181818;stroke-width:1.0;" x1="1172.5" x2="1214.5" y1="863.7995" y2="863.7995"/><line style="stroke:#181818;stroke-width:1.0;" x1="1214.5" x2="1214.5" y1="863.7995" y2="876.7995"/><line style="stroke:#181818;stroke-width:1.0;" x1="1173.5" x2="1214.5" y1="876.7995" y2="876.7995"/><polygon fill="#181818" points="1183.5,872.7995,1173.5,876.7995,1183.5,880.7995,1179.5,876.7995" style="stroke:#181818;stroke-width:1.0;"/><text fill="#000000" font-family="sans-serif" font-size="20" font-weight="bold" lengthAdjust="spacing" textLength="22" x="1179.5" y="855.9395">15</text><text fill="#000000" font-family="sans-serif" font-size="20" lengthAdjust="spacing" textLength="137" x="1205.5" y="855.9395">addSkill(name)</text><line style="stroke:#181818;stroke-width:1.0;" x1="1172.5" x2="1214.5" y1="918.0395" y2="918.0395"/><line style="stroke:#181818;stroke-width:1.0;" x1="1214.5" x2="1214.5" y1="918.0395" y2="931.0395"/><line style="stroke:#181818;stroke-width:1.0;" x1="1173.5" x2="1214.5" y1="931.0395" y2="931.0395"/><polygon fill="#181818" points="1183.5,927.0395,1173.5,931.0395,1183.5,935.0395,1179.5,931.0395" style="stroke:#181818;stroke-width:1.0;"/><text fill="#000000" font-family="sans-serif" font-size="20" font-weight="bold" lengthAdjust="spacing" textLength="22" x="1179.5" y="910.1795">16</text><text fill="#000000" font-family="sans-serif" font-size="20" lengthAdjust="spacing" textLength="89" x="1205.5" y="910.1795">true/false</text><line style="stroke:#181818;stroke-width:1.0;" x1="1172.5" x2="1214.5" y1="972.2794" y2="972.2794"/><line style="stroke:#181818;stroke-width:1.0;" x1="1214.5" x2="1214.5" y1="972.2794" y2="985.2794"/><line style="stroke:#181818;stroke-width:1.0;" x1="1173.5" x2="1214.5" y1="985.2794" y2="985.2794"/><polygon fill="#181818" points="1183.5,981.2794,1173.5,985.2794,1183.5,989.2794,1179.5,985.2794" style="stroke:#181818;stroke-width:1.0;"/><text fill="#000000" font-family="sans-serif" font-size="20" font-weight="bold" lengthAdjust="spacing" textLength="22" x="1179.5" y="964.4195">17</text><text fill="#000000" font-family="sans-serif" font-size="20" lengthAdjust="spacing" textLength="89" x="1205.5" y="964.4195">true/false</text><polygon fill="#181818" points="690.5,1029.5194,680.5,1033.5194,690.5,1037.5194,686.5,1033.5194" style="stroke:#181818;stroke-width:1.0;"/><line style="stroke:#181818;stroke-width:1.0;stroke-dasharray:2.0,2.0;" x1="684.5" x2="1166.5" y1="1033.5194" y2="1033.5194"/><text fill="#000000" font-family="sans-serif" font-size="20" font-weight="bold" lengthAdjust="spacing" textLength="22" x="696.5" y="1025.6594">18</text><text fill="#000000" font-family="sans-serif" font-size="20" lengthAdjust="spacing" textLength="78" x="722.5" y="1025.6594">skillsList</text><polygon fill="#181818" points="476,1070.7594,466,1074.7594,476,1078.7594,472,1074.7594" style="stroke:#181818;stroke-width:1.0;"/><line style="stroke:#181818;stroke-width:1.0;stroke-dasharray:2.0,2.0;" x1="470" x2="673.5" y1="1074.7594" y2="1074.7594"/><text fill="#000000" font-family="sans-serif" font-size="20" font-weight="bold" lengthAdjust="spacing" textLength="22" x="482" y="1066.8994">19</text><text fill="#000000" font-family="sans-serif" font-size="20" lengthAdjust="spacing" textLength="78" x="508" y="1066.8994">skillsList</text><polygon fill="#181818" points="124,1139.2393,114,1143.2393,124,1147.2393,120,1143.2393" style="stroke:#181818;stroke-width:1.0;"/><line style="stroke:#181818;stroke-width:1.0;stroke-dasharray:2.0,2.0;" x1="118" x2="459" y1="1143.2393" y2="1143.2393"/><text fill="#000000" font-family="sans-serif" font-size="20" font-weight="bold" lengthAdjust="spacing" textLength="22" x="130" y="1121.7594">20</text><text fill="#000000" font-family="sans-serif" font-size="20" lengthAdjust="spacing" textLength="243" x="156" y="1108.1394">show all the skills registed</text><text fill="#000000" font-family="sans-serif" font-size="20" lengthAdjust="spacing" textLength="174" x="161" y="1135.3794">and aks to confirm</text><polygon fill="#181818" points="443,1180.4793,453,1184.4793,443,1188.4793,447,1184.4793" style="stroke:#181818;stroke-width:1.0;"/><line style="stroke:#181818;stroke-width:1.0;" x1="113" x2="449" y1="1184.4793" y2="1184.4793"/><text fill="#000000" font-family="sans-serif" font-size="20" font-weight="bold" lengthAdjust="spacing" textLength="22" x="120" y="1176.6193">21</text><text fill="#000000" font-family="sans-serif" font-size="20" lengthAdjust="spacing" textLength="297" x="146" y="1176.6193">confirm the set of skills registed</text><polygon fill="#181818" points="124,1221.7193,114,1225.7193,124,1229.7193,120,1225.7193" style="stroke:#181818;stroke-width:1.0;"/><line style="stroke:#181818;stroke-width:1.0;stroke-dasharray:2.0,2.0;" x1="118" x2="459" y1="1225.7193" y2="1225.7193"/><text fill="#000000" font-family="sans-serif" font-size="20" font-weight="bold" lengthAdjust="spacing" textLength="22" x="130" y="1217.8593">22</text><text fill="#000000" font-family="sans-serif" font-size="20" lengthAdjust="spacing" textLength="248" x="156" y="1217.8593">displays operation success</text><!--SRC=[dLNBRjim4BphAnO-9GQ2Feu-53221Z7W08Njt7nXnRLDc29LaehXVdsNfDwYqxGwIUJES3Zxa3qBLJB32gdpCtBWU62LT4zQkQtuZV3rSsQR42Yqqld9w0B1cGfxEoNBp-o8MtUL20PpnzHHzWFiYN5z4Ue81oOjPXdBdJOmUwuAfc23LbScHxjNBqmHaPa1i_2yUSa8xaGkIgOSp1ORF0hhq6pFGihNLOXwNRqNz4WtCLhAcl9njrbFmajj1QaHQ4DCkt3T2dyDfzKGOdg8lPeI_5WlTqE4zL9iHqoexMWf8CUBGnR52coG8Nott7n_MfAP5MciYfzeu4kmLhmnXy6_3EYX5tZuHax1Wc1d2qvJbhnBm43X1OA-4Dg2oTQmu1y24jnxDvyJHMwG8hhj5XFSRPVzbySb_2II8xgLibGeETxTJwbIIMYZ_9DYVQXLBg2VeXR6yMFqZN2VnwXqd9UKuf3rWSI0xpHDaflGDIJfRNJMIgrBk9m4TPfG3XL7FZZL9ulEz3dtFlogq3hA-0bZbi5NKUg4ViB7HUEk9KQEjbg6F3TPkj9fw-OlPTFFmDWok4qoSNT0E24YyjWzy_bjpgQ_cetutM4NyCQau1GQ-E-y9VVJyFH51lwbz8tNqgSbCbdB_ZTkndcAzcDW_plu52VxVmEZRrJFyMMAh-k8h8lZT4tpAnjTFLq5iPoQOhwDxWfnq4Jsf2_0gEJR9hBr-4I-Ly0K1nQ7QgxLGPWYInBVwBT-dzNuU10wq8VnUUaXFP3BXIqbkrhG9Hhc10r6M-NqTxKf2Ny0]--></g></svg>