<?xml version="1.0" encoding="UTF-8" standalone="no"?><svg xmlns="http://www.w3.org/2000/svg" xmlns:xlink="http://www.w3.org/1999/xlink" contentStyleType="text/css" height="1739px" preserveAspectRatio="none" style="width:2371px;height:1739px;background:#FFFFFF;" version="1.1" viewBox="0 0 2371 1739" width="2371px" zoomAndPan="magnify"><defs/><g><rect fill="#FFFFFF" height="1527.8791" style="stroke:#181818;stroke-width:1.0;" width="10" x="132" y="102.24"/><rect fill="#FFFFFF" height="423.3997" style="stroke:#181818;stroke-width:1.0;" width="10" x="727" y="135.4799"/><rect fill="#FFFFFF" height="123.7199" style="stroke:#181818;stroke-width:1.0;" width="10" x="727" y="600.1197"/><rect fill="#FFFFFF" height="288.6798" style="stroke:#181818;stroke-width:1.0;" width="10" x="727" y="765.0796"/><rect fill="#FFFFFF" height="232.1999" style="stroke:#181818;stroke-width:1.0;" width="10" x="727" y="1094.9994"/><rect fill="#FFFFFF" height="261.6798" style="stroke:#181818;stroke-width:1.0;" width="10" x="727" y="1368.4392"/><rect fill="#FFFFFF" height="288.6798" style="stroke:#181818;stroke-width:1.0;" width="10" x="1207" y="228.9599"/><rect fill="#FFFFFF" height="41.24" style="stroke:#181818;stroke-width:1.0;" width="10" x="1207" y="641.3596"/><rect fill="#FFFFFF" height="206.1999" style="stroke:#181818;stroke-width:1.0;" width="10" x="1207" y="806.3195"/><rect fill="#FFFFFF" height="149.7199" style="stroke:#181818;stroke-width:1.0;" width="10" x="1207" y="1136.2393"/><rect fill="#FFFFFF" height="52.24" style="stroke:#181818;stroke-width:1.0;" width="10" x="1212" y="1185.4793"/><rect fill="#FFFFFF" height="179.1999" style="stroke:#181818;stroke-width:1.0;" width="10" x="1207" y="1409.6792"/><rect fill="#FFFFFF" height="41.24" style="stroke:#181818;stroke-width:1.0;" width="10" x="1495" y="270.1999"/><rect fill="#FFFFFF" height="41.24" style="stroke:#181818;stroke-width:1.0;" width="10" x="1639" y="352.6798"/><rect fill="#FFFFFF" height="41.24" style="stroke:#181818;stroke-width:1.0;" width="10" x="1639" y="847.5595"/><rect fill="#FFFFFF" height="41.24" style="stroke:#181818;stroke-width:1.0;" width="10" x="1838" y="435.1598"/><rect fill="#FFFFFF" height="41.24" style="stroke:#181818;stroke-width:1.0;" width="10" x="2052.5" y="930.0395"/><rect fill="#FFFFFF" height="41.24" style="stroke:#181818;stroke-width:1.0;" width="10" x="2247.5" y="1499.3991"/><rect fill="none" height="123.9599" style="stroke:#000000;stroke-width:1.5;" width="1268.5" x="1096.5" y="1424.6792"/><line style="stroke:#181818;stroke-width:0.5;stroke-dasharray:5.0,5.0;" x1="137" x2="137" y1="92.24" y2="1648.119"/><line style="stroke:#181818;stroke-width:0.5;stroke-dasharray:5.0,5.0;" x1="732" x2="732" y1="92.24" y2="1648.119"/><line style="stroke:#181818;stroke-width:0.5;stroke-dasharray:5.0,5.0;" x1="1211.5" x2="1211.5" y1="179.5999" y2="1648.119"/><line style="stroke:#181818;stroke-width:0.5;stroke-dasharray:5.0,5.0;" x1="1500" x2="1500" y1="92.24" y2="1648.119"/><line style="stroke:#181818;stroke-width:0.5;stroke-dasharray:5.0,5.0;" x1="1644" x2="1644" y1="92.24" y2="1648.119"/><line style="stroke:#181818;stroke-width:0.5;stroke-dasharray:5.0,5.0;" x1="1843" x2="1843" y1="92.24" y2="1648.119"/><line style="stroke:#181818;stroke-width:0.5;stroke-dasharray:5.0,5.0;" x1="2057" x2="2057" y1="92.24" y2="1648.119"/><line style="stroke:#181818;stroke-width:0.5;stroke-dasharray:5.0,5.0;" x1="2252" x2="2252" y1="92.24" y2="1648.119"/><text fill="#000000" font-family="sans-serif" font-size="20" lengthAdjust="spacing" textLength="258" x="5" y="86.38">Human Resources Manager</text><ellipse cx="137" cy="13.5" fill="#E3E3E3" rx="8" ry="8" style="stroke:#181818;stroke-width:0.5;"/><path d="M137,21.5 L137,48.5 M124,29.5 L150,29.5 M137,48.5 L124,63.5 M137,48.5 L150,63.5 " fill="none" style="stroke:#181818;stroke-width:0.5;"/><text fill="#000000" font-family="sans-serif" font-size="20" lengthAdjust="spacing" textLength="258" x="5" y="1668.499">Human Resources Manager</text><ellipse cx="137" cy="1682.859" fill="#E3E3E3" rx="8" ry="8" style="stroke:#181818;stroke-width:0.5;"/><path d="M137,1690.859 L137,1717.859 M124,1698.859 L150,1698.859 M137,1717.859 L124,1732.859 M137,1717.859 L150,1732.859 " fill="none" style="stroke:#181818;stroke-width:0.5;"/><rect fill="#E3E3E3" height="41.24" rx="2.5" ry="2.5" style="stroke:#181818;stroke-width:0.5;" width="140" x="662" y="50"/><text fill="#000000" font-family="sans-serif" font-size="20" lengthAdjust="spacing" textLength="126" x="669" y="78.38">:AssignSkillUI</text><rect fill="#E3E3E3" height="41.24" rx="2.5" ry="2.5" style="stroke:#181818;stroke-width:0.5;" width="140" x="662" y="1647.119"/><text fill="#000000" font-family="sans-serif" font-size="20" lengthAdjust="spacing" textLength="126" x="669" y="1675.499">:AssignSkillUI</text><rect fill="#E3E3E3" height="41.24" rx="2.5" ry="2.5" style="stroke:#181818;stroke-width:0.5;" width="211" x="1106.5" y="1647.119"/><text fill="#000000" font-family="sans-serif" font-size="20" lengthAdjust="spacing" textLength="197" x="1113.5" y="1675.499">:AssignSkillController</text><rect fill="#E3E3E3" height="41.24" rx="2.5" ry="2.5" style="stroke:#181818;stroke-width:0.5;" width="134" x="1433" y="50"/><text fill="#000000" font-family="sans-serif" font-size="20" lengthAdjust="spacing" textLength="120" x="1440" y="78.38">:Repositories</text><rect fill="#E3E3E3" height="41.24" rx="2.5" ry="2.5" style="stroke:#181818;stroke-width:0.5;" width="134" x="1433" y="1647.119"/><text fill="#000000" font-family="sans-serif" font-size="20" lengthAdjust="spacing" textLength="120" x="1440" y="1675.499">:Repositories</text><rect fill="#E3E3E3" height="68.4799" rx="2.5" ry="2.5" style="stroke:#181818;stroke-width:0.5;" width="134" x="1577" y="22.76"/><text fill="#000000" font-family="sans-serif" font-size="20" lengthAdjust="spacing" textLength="111" x="1588.5" y="51.14">repositories</text><text fill="#000000" font-family="sans-serif" font-size="20" lengthAdjust="spacing" textLength="120" x="1584" y="78.38">:Repositories</text><rect fill="#E3E3E3" height="68.4799" rx="2.5" ry="2.5" style="stroke:#181818;stroke-width:0.5;" width="134" x="1577" y="1647.119"/><text fill="#000000" font-family="sans-serif" font-size="20" lengthAdjust="spacing" textLength="111" x="1588.5" y="1675.499">repositories</text><text fill="#000000" font-family="sans-serif" font-size="20" lengthAdjust="spacing" textLength="120" x="1584" y="1702.739">:Repositories</text><rect fill="#E3E3E3" height="68.4799" rx="2.5" ry="2.5" style="stroke:#181818;stroke-width:0.5;" width="244" x="1721" y="22.76"/><text fill="#000000" font-family="sans-serif" font-size="20" lengthAdjust="spacing" textLength="222" x="1732" y="51.14">collaboratorsRepository</text><text fill="#000000" font-family="sans-serif" font-size="20" lengthAdjust="spacing" textLength="230" x="1728" y="78.38">:CollaboratorsRepository</text><rect fill="#E3E3E3" height="68.4799" rx="2.5" ry="2.5" style="stroke:#181818;stroke-width:0.5;" width="244" x="1721" y="1647.119"/><text fill="#000000" font-family="sans-serif" font-size="20" lengthAdjust="spacing" textLength="222" x="1732" y="1675.499">collaboratorsRepository</text><text fill="#000000" font-family="sans-serif" font-size="20" lengthAdjust="spacing" textLength="230" x="1728" y="1702.739">:CollaboratorsRepository</text><rect fill="#E3E3E3" height="68.4799" rx="2.5" ry="2.5" style="stroke:#181818;stroke-width:0.5;" width="165" x="1975" y="22.76"/><text fill="#000000" font-family="sans-serif" font-size="20" lengthAdjust="spacing" textLength="145" x="1985" y="51.14">skillsRepository</text><text fill="#000000" font-family="sans-serif" font-size="20" lengthAdjust="spacing" textLength="151" x="1982" y="78.38">:SkillsRepository</text><rect fill="#E3E3E3" height="68.4799" rx="2.5" ry="2.5" style="stroke:#181818;stroke-width:0.5;" width="165" x="1975" y="1647.119"/><text fill="#000000" font-family="sans-serif" font-size="20" lengthAdjust="spacing" textLength="145" x="1985" y="1675.499">skillsRepository</text><text fill="#000000" font-family="sans-serif" font-size="20" lengthAdjust="spacing" textLength="151" x="1982" y="1702.739">:SkillsRepository</text><rect fill="#E3E3E3" height="68.4799" rx="2.5" ry="2.5" style="stroke:#181818;stroke-width:0.5;" width="205" x="2150" y="22.76"/><text fill="#000000" font-family="sans-serif" font-size="20" lengthAdjust="spacing" textLength="191" x="2157" y="51.14">collaboratorSelected</text><text fill="#000000" font-family="sans-serif" font-size="20" lengthAdjust="spacing" textLength="121" x="2192" y="78.38">:Collaborator</text><rect fill="#E3E3E3" height="68.4799" rx="2.5" ry="2.5" style="stroke:#181818;stroke-width:0.5;" width="205" x="2150" y="1647.119"/><text fill="#000000" font-family="sans-serif" font-size="20" lengthAdjust="spacing" textLength="191" x="2157" y="1675.499">collaboratorSelected</text><text fill="#000000" font-family="sans-serif" font-size="20" lengthAdjust="spacing" textLength="121" x="2192" y="1702.739">:Collaborator</text><rect fill="#FFFFFF" height="1527.8791" style="stroke:#181818;stroke-width:1.0;" width="10" x="132" y="102.24"/><rect fill="#FFFFFF" height="423.3997" style="stroke:#181818;stroke-width:1.0;" width="10" x="727" y="135.4799"/><rect fill="#FFFFFF" height="123.7199" style="stroke:#181818;stroke-width:1.0;" width="10" x="727" y="600.1197"/><rect fill="#FFFFFF" height="288.6798" style="stroke:#181818;stroke-width:1.0;" width="10" x="727" y="765.0796"/><rect fill="#FFFFFF" height="232.1999" style="stroke:#181818;stroke-width:1.0;" width="10" x="727" y="1094.9994"/><rect fill="#FFFFFF" height="261.6798" style="stroke:#181818;stroke-width:1.0;" width="10" x="727" y="1368.4392"/><rect fill="#FFFFFF" height="288.6798" style="stroke:#181818;stroke-width:1.0;" width="10" x="1207" y="228.9599"/><rect fill="#FFFFFF" height="41.24" style="stroke:#181818;stroke-width:1.0;" width="10" x="1207" y="641.3596"/><rect fill="#FFFFFF" height="206.1999" style="stroke:#181818;stroke-width:1.0;" width="10" x="1207" y="806.3195"/><rect fill="#FFFFFF" height="149.7199" style="stroke:#181818;stroke-width:1.0;" width="10" x="1207" y="1136.2393"/><rect fill="#FFFFFF" height="52.24" style="stroke:#181818;stroke-width:1.0;" width="10" x="1212" y="1185.4793"/><rect fill="#FFFFFF" height="179.1999" style="stroke:#181818;stroke-width:1.0;" width="10" x="1207" y="1409.6792"/><rect fill="#FFFFFF" height="41.24" style="stroke:#181818;stroke-width:1.0;" width="10" x="1495" y="270.1999"/><rect fill="#FFFFFF" height="41.24" style="stroke:#181818;stroke-width:1.0;" width="10" x="1639" y="352.6798"/><rect fill="#FFFFFF" height="41.24" style="stroke:#181818;stroke-width:1.0;" width="10" x="1639" y="847.5595"/><rect fill="#FFFFFF" height="41.24" style="stroke:#181818;stroke-width:1.0;" width="10" x="1838" y="435.1598"/><rect fill="#FFFFFF" height="41.24" style="stroke:#181818;stroke-width:1.0;" width="10" x="2052.5" y="930.0395"/><rect fill="#FFFFFF" height="41.24" style="stroke:#181818;stroke-width:1.0;" width="10" x="2247.5" y="1499.3991"/><polygon fill="#181818" points="715,131.4799,725,135.4799,715,139.4799,719,135.4799" style="stroke:#181818;stroke-width:1.0;"/><line style="stroke:#181818;stroke-width:1.0;" x1="142" x2="721" y1="135.4799" y2="135.4799"/><text fill="#000000" font-family="sans-serif" font-size="20" font-weight="bold" lengthAdjust="spacing" textLength="11" x="149" y="127.62">1</text><text fill="#000000" font-family="sans-serif" font-size="20" lengthAdjust="spacing" textLength="302" x="164" y="127.62">Asks to assign collaborator skills</text><polygon fill="#181818" points="1094.5,172.7199,1104.5,176.7199,1094.5,180.7199,1098.5,176.7199" style="stroke:#181818;stroke-width:1.0;"/><line style="stroke:#181818;stroke-width:1.0;" x1="737" x2="1100.5" y1="176.7199" y2="176.7199"/><text fill="#000000" font-family="sans-serif" font-size="20" font-weight="bold" lengthAdjust="spacing" textLength="11" x="744" y="168.8599">2</text><text fill="#000000" font-family="sans-serif" font-size="20" lengthAdjust="spacing" textLength="58" x="759" y="168.8599">create</text><rect fill="#E3E3E3" height="41.24" rx="2.5" ry="2.5" style="stroke:#181818;stroke-width:0.5;" width="211" x="1106.5" y="143.4799"/><text fill="#000000" font-family="sans-serif" font-size="20" lengthAdjust="spacing" textLength="197" x="1113.5" y="171.8599">:AssignSkillController</text><polygon fill="#181818" points="1195,224.9599,1205,228.9599,1195,232.9599,1199,228.9599" style="stroke:#181818;stroke-width:1.0;"/><line style="stroke:#181818;stroke-width:1.0;" x1="737" x2="1201" y1="228.9599" y2="228.9599"/><text fill="#000000" font-family="sans-serif" font-size="20" font-weight="bold" lengthAdjust="spacing" textLength="11" x="744" y="221.0999">3</text><text fill="#000000" font-family="sans-serif" font-size="20" lengthAdjust="spacing" textLength="168" x="759" y="221.0999">getCollaborators()</text><polygon fill="#181818" points="1483,266.1999,1493,270.1999,1483,274.1999,1487,270.1999" style="stroke:#181818;stroke-width:1.0;"/><line style="stroke:#181818;stroke-width:1.0;" x1="1217" x2="1489" y1="270.1999" y2="270.1999"/><text fill="#000000" font-family="sans-serif" font-size="20" font-weight="bold" lengthAdjust="spacing" textLength="11" x="1224" y="262.3399">4</text><text fill="#000000" font-family="sans-serif" font-size="20" lengthAdjust="spacing" textLength="122" x="1239" y="262.3399">getInstance()</text><polygon fill="#181818" points="1228,307.4398,1218,311.4398,1228,315.4398,1224,311.4398" style="stroke:#181818;stroke-width:1.0;"/><line style="stroke:#181818;stroke-width:1.0;stroke-dasharray:2.0,2.0;" x1="1222" x2="1499" y1="311.4398" y2="311.4398"/><text fill="#000000" font-family="sans-serif" font-size="20" font-weight="bold" lengthAdjust="spacing" textLength="11" x="1234" y="303.5799">5</text><text fill="#000000" font-family="sans-serif" font-size="20" lengthAdjust="spacing" textLength="111" x="1249" y="303.5799">repositories</text><polygon fill="#181818" points="1627,348.6798,1637,352.6798,1627,356.6798,1631,352.6798" style="stroke:#181818;stroke-width:1.0;"/><line style="stroke:#181818;stroke-width:1.0;" x1="1217" x2="1633" y1="352.6798" y2="352.6798"/><text fill="#000000" font-family="sans-serif" font-size="20" font-weight="bold" lengthAdjust="spacing" textLength="11" x="1224" y="344.8198">6</text><text fill="#000000" font-family="sans-serif" font-size="20" lengthAdjust="spacing" textLength="267" x="1239" y="344.8198">getCollaboratorsRepository()</text><polygon fill="#181818" points="1228,389.9198,1218,393.9198,1228,397.9198,1224,393.9198" style="stroke:#181818;stroke-width:1.0;"/><line style="stroke:#181818;stroke-width:1.0;stroke-dasharray:2.0,2.0;" x1="1222" x2="1643" y1="393.9198" y2="393.9198"/><text fill="#000000" font-family="sans-serif" font-size="20" font-weight="bold" lengthAdjust="spacing" textLength="11" x="1234" y="386.0598">7</text><text fill="#000000" font-family="sans-serif" font-size="20" lengthAdjust="spacing" textLength="222" x="1249" y="386.0598">collaboratorsRepository</text><polygon fill="#181818" points="1826,431.1598,1836,435.1598,1826,439.1598,1830,435.1598" style="stroke:#181818;stroke-width:1.0;"/><line style="stroke:#181818;stroke-width:1.0;" x1="1217" x2="1832" y1="435.1598" y2="435.1598"/><text fill="#000000" font-family="sans-serif" font-size="20" font-weight="bold" lengthAdjust="spacing" textLength="11" x="1224" y="427.2998">8</text><text fill="#000000" font-family="sans-serif" font-size="20" lengthAdjust="spacing" textLength="200" x="1239" y="427.2998">getCollaboratorsList()</text><polygon fill="#181818" points="1228,472.3997,1218,476.3997,1228,480.3997,1224,476.3997" style="stroke:#181818;stroke-width:1.0;"/><line style="stroke:#181818;stroke-width:1.0;stroke-dasharray:2.0,2.0;" x1="1222" x2="1842" y1="476.3997" y2="476.3997"/><text fill="#000000" font-family="sans-serif" font-size="20" font-weight="bold" lengthAdjust="spacing" textLength="11" x="1234" y="468.5398">9</text><text fill="#000000" font-family="sans-serif" font-size="20" lengthAdjust="spacing" textLength="155" x="1249" y="468.5398">collaboratorsList</text><polygon fill="#181818" points="748,513.6397,738,517.6397,748,521.6397,744,517.6397" style="stroke:#181818;stroke-width:1.0;"/><line style="stroke:#181818;stroke-width:1.0;stroke-dasharray:2.0,2.0;" x1="742" x2="1211" y1="517.6397" y2="517.6397"/><text fill="#000000" font-family="sans-serif" font-size="20" font-weight="bold" lengthAdjust="spacing" textLength="22" x="754" y="509.7797">10</text><text fill="#000000" font-family="sans-serif" font-size="20" lengthAdjust="spacing" textLength="123" x="780" y="509.7797">collaborators</text><polygon fill="#181818" points="153,554.8797,143,558.8797,153,562.8797,149,558.8797" style="stroke:#181818;stroke-width:1.0;"/><line style="stroke:#181818;stroke-width:1.0;stroke-dasharray:2.0,2.0;" x1="147" x2="731" y1="558.8797" y2="558.8797"/><text fill="#000000" font-family="sans-serif" font-size="20" font-weight="bold" lengthAdjust="spacing" textLength="22" x="159" y="551.0197">11</text><text fill="#000000" font-family="sans-serif" font-size="20" lengthAdjust="spacing" textLength="250" x="185" y="551.0197">Shows all the collaborators</text><polygon fill="#181818" points="715,596.1197,725,600.1197,715,604.1197,719,600.1197" style="stroke:#181818;stroke-width:1.0;"/><line style="stroke:#181818;stroke-width:1.0;" x1="142" x2="721" y1="600.1197" y2="600.1197"/><text fill="#000000" font-family="sans-serif" font-size="20" font-weight="bold" lengthAdjust="spacing" textLength="22" x="149" y="592.2597">12</text><text fill="#000000" font-family="sans-serif" font-size="20" lengthAdjust="spacing" textLength="292" x="175" y="592.2597">Selects one of the collaborators</text><polygon fill="#181818" points="1195,637.3596,1205,641.3596,1195,645.3596,1199,641.3596" style="stroke:#181818;stroke-width:1.0;"/><line style="stroke:#181818;stroke-width:1.0;" x1="737" x2="1201" y1="641.3596" y2="641.3596"/><text fill="#000000" font-family="sans-serif" font-size="20" font-weight="bold" lengthAdjust="spacing" textLength="22" x="744" y="633.4997">13</text><text fill="#000000" font-family="sans-serif" font-size="20" lengthAdjust="spacing" textLength="425" x="770" y="633.4997">setCollaboratorSelected(collaboratorSelected)</text><polygon fill="#181818" points="748,678.5996,738,682.5996,748,686.5996,744,682.5996" style="stroke:#181818;stroke-width:1.0;"/><line style="stroke:#181818;stroke-width:1.0;stroke-dasharray:2.0,2.0;" x1="742" x2="1211" y1="682.5996" y2="682.5996"/><text fill="#000000" font-family="sans-serif" font-size="20" font-weight="bold" lengthAdjust="spacing" textLength="22" x="754" y="674.7396">14</text><text fill="#000000" font-family="sans-serif" font-size="20" lengthAdjust="spacing" textLength="73" x="780" y="674.7396">success</text><polygon fill="#181818" points="153,719.8396,143,723.8396,153,727.8396,149,723.8396" style="stroke:#181818;stroke-width:1.0;"/><line style="stroke:#181818;stroke-width:1.0;stroke-dasharray:2.0,2.0;" x1="147" x2="731" y1="723.8396" y2="723.8396"/><text fill="#000000" font-family="sans-serif" font-size="20" font-weight="bold" lengthAdjust="spacing" textLength="22" x="159" y="715.9796">15</text><text fill="#000000" font-family="sans-serif" font-size="20" lengthAdjust="spacing" textLength="535" x="185" y="715.9796">Shows collaborator information and request confirmation</text><polygon fill="#181818" points="715,761.0796,725,765.0796,715,769.0796,719,765.0796" style="stroke:#181818;stroke-width:1.0;"/><line style="stroke:#181818;stroke-width:1.0;" x1="142" x2="721" y1="765.0796" y2="765.0796"/><text fill="#000000" font-family="sans-serif" font-size="20" font-weight="bold" lengthAdjust="spacing" textLength="22" x="149" y="757.2196">16</text><text fill="#000000" font-family="sans-serif" font-size="20" lengthAdjust="spacing" textLength="103" x="175" y="757.2196">Confirms it</text><polygon fill="#181818" points="1195,802.3195,1205,806.3195,1195,810.3195,1199,806.3195" style="stroke:#181818;stroke-width:1.0;"/><line style="stroke:#181818;stroke-width:1.0;" x1="737" x2="1201" y1="806.3195" y2="806.3195"/><text fill="#000000" font-family="sans-serif" font-size="20" font-weight="bold" lengthAdjust="spacing" textLength="22" x="744" y="798.4596">17</text><text fill="#000000" font-family="sans-serif" font-size="20" lengthAdjust="spacing" textLength="89" x="770" y="798.4596">getSkills()</text><polygon fill="#181818" points="1627,843.5595,1637,847.5595,1627,851.5595,1631,847.5595" style="stroke:#181818;stroke-width:1.0;"/><line style="stroke:#181818;stroke-width:1.0;" x1="1217" x2="1633" y1="847.5595" y2="847.5595"/><text fill="#000000" font-family="sans-serif" font-size="20" font-weight="bold" lengthAdjust="spacing" textLength="22" x="1224" y="839.6995">18</text><text fill="#000000" font-family="sans-serif" font-size="20" lengthAdjust="spacing" textLength="188" x="1250" y="839.6995">getSkillsRepository()</text><polygon fill="#181818" points="1228,884.7995,1218,888.7995,1228,892.7995,1224,888.7995" style="stroke:#181818;stroke-width:1.0;"/><line style="stroke:#181818;stroke-width:1.0;stroke-dasharray:2.0,2.0;" x1="1222" x2="1643" y1="888.7995" y2="888.7995"/><text fill="#000000" font-family="sans-serif" font-size="20" font-weight="bold" lengthAdjust="spacing" textLength="22" x="1234" y="880.9395">19</text><text fill="#000000" font-family="sans-serif" font-size="20" lengthAdjust="spacing" textLength="145" x="1260" y="880.9395">skillsRepository</text><polygon fill="#181818" points="2040.5,926.0395,2050.5,930.0395,2040.5,934.0395,2044.5,930.0395" style="stroke:#181818;stroke-width:1.0;"/><line style="stroke:#181818;stroke-width:1.0;" x1="1217" x2="2046.5" y1="930.0395" y2="930.0395"/><text fill="#000000" font-family="sans-serif" font-size="20" font-weight="bold" lengthAdjust="spacing" textLength="22" x="1224" y="922.1795">20</text><text fill="#000000" font-family="sans-serif" font-size="20" lengthAdjust="spacing" textLength="121" x="1250" y="922.1795">getSkillsList()</text><polygon fill="#181818" points="1228,967.2794,1218,971.2794,1228,975.2794,1224,971.2794" style="stroke:#181818;stroke-width:1.0;"/><line style="stroke:#181818;stroke-width:1.0;stroke-dasharray:2.0,2.0;" x1="1222" x2="2056.5" y1="971.2794" y2="971.2794"/><text fill="#000000" font-family="sans-serif" font-size="20" font-weight="bold" lengthAdjust="spacing" textLength="22" x="1234" y="963.4195">21</text><text fill="#000000" font-family="sans-serif" font-size="20" lengthAdjust="spacing" textLength="78" x="1260" y="963.4195">skillsList</text><polygon fill="#181818" points="748,1008.5194,738,1012.5194,748,1016.5194,744,1012.5194" style="stroke:#181818;stroke-width:1.0;"/><line style="stroke:#181818;stroke-width:1.0;stroke-dasharray:2.0,2.0;" x1="742" x2="1211" y1="1012.5194" y2="1012.5194"/><text fill="#000000" font-family="sans-serif" font-size="20" font-weight="bold" lengthAdjust="spacing" textLength="22" x="754" y="1004.6594">22</text><text fill="#000000" font-family="sans-serif" font-size="20" lengthAdjust="spacing" textLength="46" x="780" y="1004.6594">skills</text><polygon fill="#181818" points="153,1049.7594,143,1053.7594,153,1057.7594,149,1053.7594" style="stroke:#181818;stroke-width:1.0;"/><line style="stroke:#181818;stroke-width:1.0;stroke-dasharray:2.0,2.0;" x1="147" x2="731" y1="1053.7594" y2="1053.7594"/><text fill="#000000" font-family="sans-serif" font-size="20" font-weight="bold" lengthAdjust="spacing" textLength="22" x="159" y="1045.8994">23</text><text fill="#000000" font-family="sans-serif" font-size="20" lengthAdjust="spacing" textLength="322" x="185" y="1045.8994">Shows the skills available to assign</text><polygon fill="#181818" points="715,1090.9994,725,1094.9994,715,1098.9994,719,1094.9994" style="stroke:#181818;stroke-width:1.0;"/><line style="stroke:#181818;stroke-width:1.0;" x1="142" x2="721" y1="1094.9994" y2="1094.9994"/><text fill="#000000" font-family="sans-serif" font-size="20" font-weight="bold" lengthAdjust="spacing" textLength="22" x="149" y="1087.1394">24</text><text fill="#000000" font-family="sans-serif" font-size="20" lengthAdjust="spacing" textLength="444" x="175" y="1087.1394">Selects the skills which are going to be assigned</text><polygon fill="#181818" points="1195,1132.2393,1205,1136.2393,1195,1140.2393,1199,1136.2393" style="stroke:#181818;stroke-width:1.0;"/><line style="stroke:#181818;stroke-width:1.0;" x1="737" x2="1201" y1="1136.2393" y2="1136.2393"/><text fill="#000000" font-family="sans-serif" font-size="20" font-weight="bold" lengthAdjust="spacing" textLength="22" x="744" y="1128.3794">25</text><text fill="#000000" font-family="sans-serif" font-size="20" lengthAdjust="spacing" textLength="131" x="770" y="1128.3794">skillsToAssign</text><line style="stroke:#181818;stroke-width:1.0;" x1="1217" x2="1264" y1="1172.4793" y2="1172.4793"/><line style="stroke:#181818;stroke-width:1.0;" x1="1264" x2="1264" y1="1172.4793" y2="1185.4793"/><line style="stroke:#181818;stroke-width:1.0;" x1="1223" x2="1264" y1="1185.4793" y2="1185.4793"/><polygon fill="#181818" points="1233,1181.4793,1223,1185.4793,1233,1189.4793,1229,1185.4793" style="stroke:#181818;stroke-width:1.0;"/><text fill="#000000" font-family="sans-serif" font-size="20" font-weight="bold" lengthAdjust="spacing" textLength="22" x="1229" y="1164.6193">26</text><text fill="#000000" font-family="sans-serif" font-size="20" lengthAdjust="spacing" textLength="238" x="1255" y="1164.6193">storeSkills(skillsToAssign)</text><line style="stroke:#181818;stroke-width:1.0;stroke-dasharray:2.0,2.0;" x1="1222" x2="1264" y1="1236.7193" y2="1236.7193"/><line style="stroke:#181818;stroke-width:1.0;stroke-dasharray:2.0,2.0;" x1="1264" x2="1264" y1="1236.7193" y2="1249.7193"/><line style="stroke:#181818;stroke-width:1.0;stroke-dasharray:2.0,2.0;" x1="1217" x2="1264" y1="1249.7193" y2="1249.7193"/><polygon fill="#181818" points="1227,1245.7193,1217,1249.7193,1227,1253.7193,1223,1249.7193" style="stroke:#181818;stroke-width:1.0;"/><text fill="#000000" font-family="sans-serif" font-size="20" font-weight="bold" lengthAdjust="spacing" textLength="22" x="1229" y="1228.8593">27</text><text fill="#000000" font-family="sans-serif" font-size="20" lengthAdjust="spacing" textLength="73" x="1255" y="1228.8593">success</text><polygon fill="#181818" points="748,1281.9593,738,1285.9593,748,1289.9593,744,1285.9593" style="stroke:#181818;stroke-width:1.0;"/><line style="stroke:#181818;stroke-width:1.0;stroke-dasharray:2.0,2.0;" x1="742" x2="1211" y1="1285.9593" y2="1285.9593"/><text fill="#000000" font-family="sans-serif" font-size="20" font-weight="bold" lengthAdjust="spacing" textLength="22" x="754" y="1278.0993">28</text><text fill="#000000" font-family="sans-serif" font-size="20" lengthAdjust="spacing" textLength="74" x="780" y="1278.0993">Success</text><polygon fill="#181818" points="153,1323.1992,143,1327.1992,153,1331.1992,149,1327.1992" style="stroke:#181818;stroke-width:1.0;"/><line style="stroke:#181818;stroke-width:1.0;stroke-dasharray:2.0,2.0;" x1="147" x2="731" y1="1327.1992" y2="1327.1992"/><text fill="#000000" font-family="sans-serif" font-size="20" font-weight="bold" lengthAdjust="spacing" textLength="22" x="159" y="1319.3393">29</text><text fill="#000000" font-family="sans-serif" font-size="20" lengthAdjust="spacing" textLength="356" x="185" y="1319.3393">Shows them and request confirmation</text><polygon fill="#181818" points="715,1364.4392,725,1368.4392,715,1372.4392,719,1368.4392" style="stroke:#181818;stroke-width:1.0;"/><line style="stroke:#181818;stroke-width:1.0;" x1="142" x2="721" y1="1368.4392" y2="1368.4392"/><text fill="#000000" font-family="sans-serif" font-size="20" font-weight="bold" lengthAdjust="spacing" textLength="22" x="149" y="1360.5792">30</text><text fill="#000000" font-family="sans-serif" font-size="20" lengthAdjust="spacing" textLength="103" x="175" y="1360.5792">Confirms it</text><polygon fill="#181818" points="1195,1405.6792,1205,1409.6792,1195,1413.6792,1199,1409.6792" style="stroke:#181818;stroke-width:1.0;"/><line style="stroke:#181818;stroke-width:1.0;" x1="737" x2="1201" y1="1409.6792" y2="1409.6792"/><text fill="#000000" font-family="sans-serif" font-size="20" font-weight="bold" lengthAdjust="spacing" textLength="22" x="744" y="1401.8192">31</text><text fill="#000000" font-family="sans-serif" font-size="20" lengthAdjust="spacing" textLength="169" x="770" y="1401.8192">Confirms changes</text><path d="M1096.5,1424.6792 L1184.5,1424.6792 L1184.5,1443.9192 L1174.5,1453.9192 L1096.5,1453.9192 L1096.5,1424.6792 " fill="#EEEEEE" style="stroke:#000000;stroke-width:1.5;"/><rect fill="none" height="123.9599" style="stroke:#000000;stroke-width:1.5;" width="1268.5" x="1096.5" y="1424.6792"/><text fill="#000000" font-family="sans-serif" font-size="20" font-weight="bold" lengthAdjust="spacing" textLength="43" x="1111.5" y="1447.0592">loop</text><text fill="#000000" font-family="sans-serif" font-size="20" font-weight="bold" lengthAdjust="spacing" textLength="419" x="1199.5" y="1448.0592">[as long as skillsToAssign still unassigned]</text><polygon fill="#181818" points="2235.5,1495.3991,2245.5,1499.3991,2235.5,1503.3991,2239.5,1499.3991" style="stroke:#181818;stroke-width:1.0;"/><line style="stroke:#181818;stroke-width:1.0;" x1="1217" x2="2241.5" y1="1499.3991" y2="1499.3991"/><text fill="#000000" font-family="sans-serif" font-size="20" font-weight="bold" lengthAdjust="spacing" textLength="22" x="1224" y="1491.5391">32</text><text fill="#000000" font-family="sans-serif" font-size="20" lengthAdjust="spacing" textLength="120" x="1250" y="1491.5391">addSkill(skill)</text><polygon fill="#181818" points="1228,1536.6391,1218,1540.6391,1228,1544.6391,1224,1540.6391" style="stroke:#181818;stroke-width:1.0;"/><line style="stroke:#181818;stroke-width:1.0;stroke-dasharray:2.0,2.0;" x1="1222" x2="2251.5" y1="1540.6391" y2="1540.6391"/><text fill="#000000" font-family="sans-serif" font-size="20" font-weight="bold" lengthAdjust="spacing" textLength="22" x="1234" y="1532.7791">33</text><text fill="#000000" font-family="sans-serif" font-size="20" lengthAdjust="spacing" textLength="74" x="1260" y="1532.7791">Success</text><polygon fill="#181818" points="748,1584.8791,738,1588.8791,748,1592.8791,744,1588.8791" style="stroke:#181818;stroke-width:1.0;"/><line style="stroke:#181818;stroke-width:1.0;stroke-dasharray:2.0,2.0;" x1="742" x2="1211" y1="1588.8791" y2="1588.8791"/><text fill="#000000" font-family="sans-serif" font-size="20" font-weight="bold" lengthAdjust="spacing" textLength="22" x="754" y="1581.0191">34</text><text fill="#000000" font-family="sans-serif" font-size="20" lengthAdjust="spacing" textLength="73" x="780" y="1581.0191">success</text><polygon fill="#181818" points="148,1626.119,138,1630.119,148,1634.119,144,1630.119" style="stroke:#181818;stroke-width:1.0;"/><line style="stroke:#181818;stroke-width:1.0;stroke-dasharray:2.0,2.0;" x1="142" x2="731" y1="1630.119" y2="1630.119"/><text fill="#000000" font-family="sans-serif" font-size="20" font-weight="bold" lengthAdjust="spacing" textLength="22" x="154" y="1622.2591">35</text><text fill="#000000" font-family="sans-serif" font-size="20" lengthAdjust="spacing" textLength="251" x="180" y="1622.2591">Displays operation success</text><!--SRC=[nLR1Rjim3BtxAuXUrWqeCEpOmu0YnR02xQLkRxieDXCBaILFajjrNp_AJcp9bXnaMJ5V35la4wdtIChik6oOPhLGnGvBA773Mc6_AMbp_XlXo-VC74oWLb8LbLOrWjKjUYiDAtPiYxbz4mWQ2ylaLlW6fcAbUkLo2nic36OPQwsIRRr6dMKVAbuYR9IoQ_KhOuLL6Yw-jpMJy8X6jRf00mzCqWxw0fY1czk7Z70jBtZ3f8MBwnjZ-5RcEox4yrrdytoNDbbHUbe9iOTRFJtUJumViL66Ko0SJMVZ_mXjjRVoGyOzxwIX8oamz2me1BPMcf6r6VpU26GLN-cZzTRSKeXfN7uXM3xvrQ5qF-VkVaWv2c8Ioqayio0oHnb_OHOxOZBOF_G1Lr-92BY66xCpO1MvEXB0tmRwa4U_0Oqe1EyX889pP7twH925HZ9AMD3w5crmZ9SViy1usAQZFrXoJuT2Q3wVFUg1J0ASEWsOWLmWyWImLsFKUicnnFW6Yy4VmeqSoQY9wU7CaXaKd4fcsCPB9Y7mOtaDUoNpcjP09BTxRkmIGxCoYYKssoULdDjjAQtPRedK3lKIW6Sfq9bmNG4GXAkyQyWhzMg02G6smWIYXqRL5YtTlWqOK191RI9OqS9DrwK9YJfqcSjOwraisUKJD6r1O-EyimlQ59SRfMjckPB0P4cL-hD5Oyb8RlX-uPHpNVL-1hWzfVVrKkzx-XajBUmAqn7nFkrWEflExmF35FFJs5T-Ee5nziMY7p5deH-hyX7uc3ZxaNUEDbqTzZ30NXWddTBLQvYmVrFW7k9hnOiAc4ROAdTf8zmrxg6nF56kFUQJwYzWfrVq24IYmRtoGz0bjgF80IK7-4Z7EChCdDly7pGUegB-pqrcy2mgkinFBYCdS2YKQjoDKIZI4Rr3ueXJ-eHM3jfACnMEVGgHbMMdXbuC4Gqa1txKSZhmVMta2MqiZFbvE2ZBTnrQjzmqWhtHg6vGzuDg2ZYHZFVfhkv_0000]--></g></svg>