<?xml version="1.0" encoding="us-ascii" standalone="no"?><svg xmlns="http://www.w3.org/2000/svg" xmlns:xlink="http://www.w3.org/1999/xlink" contentStyleType="text/css" height="651.2px" preserveAspectRatio="none" style="width:821px;height:651px;background:#FFFFFF;" version="1.1" viewBox="0 0 821 651" width="821.6px" zoomAndPan="magnify"><defs/><g><rect fill="#FFFFFF" height="472.9828" style="stroke:#181818;stroke-width:0.8000000000000002;" width="8" x="60.8" y="89.7938"/><rect fill="#FFFFFF" height="397.0844" style="stroke:#181818;stroke-width:0.8000000000000002;" width="8" x="245.6" y="108.4266"/><rect fill="#FFFFFF" height="25.0328" style="stroke:#181818;stroke-width:0.8000000000000002;" width="8" x="245.6" y="530.5438"/><rect fill="#FFFFFF" height="148.0609" style="stroke:#181818;stroke-width:0.8000000000000002;" width="8" x="367.2" y="141.4594"/><rect fill="#FFFFFF" height="190.9578" style="stroke:#181818;stroke-width:0.8000000000000002;" width="8" x="367.2" y="314.5531"/><rect fill="#FFFFFF" height="25.0328" style="stroke:#181818;stroke-width:0.8000000000000002;" width="8" x="474.8" y="168.3563"/><rect fill="#FFFFFF" height="25.0328" style="stroke:#181818;stroke-width:0.8000000000000002;" width="8" x="560.4" y="218.4219"/><rect fill="#FFFFFF" height="140.8922" style="stroke:#181818;stroke-width:0.8000000000000002;" width="8" x="675.2" y="339.5859"/><rect fill="none" height="200.7906" style="stroke:#000000;stroke-width:1.2000000000000002;" width="809.2" x="8" y="255.4547"/><line style="stroke:#181818;stroke-width:0.4000000000000001;stroke-dasharray:5.0,5.0;" x1="64.8" x2="64.8" y1="81.7938" y2="569.9766"/><line style="stroke:#181818;stroke-width:0.4000000000000001;stroke-dasharray:5.0,5.0;" x1="249.6" x2="249.6" y1="81.7938" y2="569.9766"/><line style="stroke:#181818;stroke-width:0.4000000000000001;stroke-dasharray:5.0,5.0;" x1="371.2" x2="371.2" y1="140.275" y2="569.9766"/><line style="stroke:#181818;stroke-width:0.4000000000000001;stroke-dasharray:5.0,5.0;" x1="478.4" x2="478.4" y1="81.7938" y2="569.9766"/><line style="stroke:#181818;stroke-width:0.4000000000000001;stroke-dasharray:5.0,5.0;" x1="564" x2="564" y1="81.7938" y2="569.9766"/><line style="stroke:#181818;stroke-width:0.4000000000000001;stroke-dasharray:5.0,5.0;" x1="679.2" x2="679.2" y1="81.7938" y2="569.9766"/><line style="stroke:#181818;stroke-width:0.4000000000000001;stroke-dasharray:5.0,5.0;" x1="791.6" x2="791.6" y1="378.8828" y2="569.9766"/><text fill="#000000" font-family="sans-serif" font-size="11.2" lengthAdjust="spacing" textLength="92.8" x="16" y="64.0859">Human Resources</text><text fill="#000000" font-family="sans-serif" font-size="11.2" lengthAdjust="spacing" textLength="44.8" x="40" y="78.9828">Manager</text><ellipse cx="64.8" cy="10.8" fill="#E3E3E3" rx="6.4" ry="6.4" style="stroke:#181818;stroke-width:0.4000000000000001;"/><path d="M64.8,17.2 L64.8,38.8 M54.4,23.6 L75.2,23.6 M64.8,38.8 L54.4,50.8 M64.8,38.8 L75.2,50.8 " fill="none" style="stroke:#181818;stroke-width:0.4000000000000001;"/><text fill="#000000" font-family="sans-serif" font-size="11.2" lengthAdjust="spacing" textLength="92.8" x="16" y="581.2625">Human Resources</text><text fill="#000000" font-family="sans-serif" font-size="11.2" lengthAdjust="spacing" textLength="44.8" x="40" y="596.1594">Manager</text><ellipse cx="64.8" cy="605.7703" fill="#E3E3E3" rx="6.4" ry="6.4" style="stroke:#181818;stroke-width:0.4000000000000001;"/><path d="M64.8,612.1703 L64.8,633.7703 M54.4,618.5703 L75.2,618.5703 M64.8,633.7703 L54.4,645.7703 M64.8,633.7703 L75.2,645.7703 " fill="none" style="stroke:#181818;stroke-width:0.4000000000000001;"/><rect fill="#E3E3E3" height="26.0969" rx="2" ry="2" style="stroke:#181818;stroke-width:0.4000000000000001;" width="81.6" x="208.8" y="54.8969"/><text fill="#000000" font-family="sans-serif" font-size="11.2" lengthAdjust="spacing" textLength="70.4" x="214.4" y="72.5828">:RegistSkillsUI</text><rect fill="#E3E3E3" height="26.0969" rx="2" ry="2" style="stroke:#181818;stroke-width:0.4000000000000001;" width="81.6" x="208.8" y="569.1766"/><text fill="#000000" font-family="sans-serif" font-size="11.2" lengthAdjust="spacing" textLength="70.4" x="214.4" y="586.8625">:RegistSkillsUI</text><rect fill="#E3E3E3" height="26.0969" rx="2" ry="2" style="stroke:#181818;stroke-width:0.4000000000000001;" width="121.6" x="310.4" y="569.1766"/><text fill="#000000" font-family="sans-serif" font-size="11.2" lengthAdjust="spacing" textLength="110.4" x="316" y="586.8625">:RegistSkillsController</text><rect fill="#E3E3E3" height="26.0969" rx="2" ry="2" style="stroke:#181818;stroke-width:0.4000000000000001;" width="77.6" x="440" y="54.8969"/><text fill="#000000" font-family="sans-serif" font-size="11.2" lengthAdjust="spacing" textLength="66.4" x="445.6" y="72.5828">:Repositories</text><rect fill="#E3E3E3" height="26.0969" rx="2" ry="2" style="stroke:#181818;stroke-width:0.4000000000000001;" width="77.6" x="440" y="569.1766"/><text fill="#000000" font-family="sans-serif" font-size="11.2" lengthAdjust="spacing" textLength="66.4" x="445.6" y="586.8625">:Repositories</text><rect fill="#E3E3E3" height="40.9938" rx="2" ry="2" style="stroke:#181818;stroke-width:0.4000000000000001;" width="77.6" x="525.6" y="40"/><text fill="#000000" font-family="sans-serif" font-size="11.2" lengthAdjust="spacing" textLength="59.2" x="534.8" y="57.6859">repositories</text><text fill="#000000" font-family="sans-serif" font-size="11.2" lengthAdjust="spacing" textLength="66.4" x="531.2" y="72.5828">:Repositories</text><rect fill="#E3E3E3" height="40.9938" rx="2" ry="2" style="stroke:#181818;stroke-width:0.4000000000000001;" width="77.6" x="525.6" y="569.1766"/><text fill="#000000" font-family="sans-serif" font-size="11.2" lengthAdjust="spacing" textLength="59.2" x="534.8" y="586.8625">repositories</text><text fill="#000000" font-family="sans-serif" font-size="11.2" lengthAdjust="spacing" textLength="66.4" x="531.2" y="601.7594">:Repositories</text><rect fill="#E3E3E3" height="40.9938" rx="2" ry="2" style="stroke:#181818;stroke-width:0.4000000000000001;" width="136" x="611.2" y="40"/><text fill="#000000" font-family="sans-serif" font-size="11.2" lengthAdjust="spacing" textLength="124" x="617.2" y="57.6859">registedSkillsRepository:</text><text fill="#000000" font-family="sans-serif" font-size="11.2" lengthAdjust="spacing" textLength="124.8" x="616.8" y="72.5828">RegistedSkillsRepository</text><rect fill="#E3E3E3" height="40.9938" rx="2" ry="2" style="stroke:#181818;stroke-width:0.4000000000000001;" width="136" x="611.2" y="569.1766"/><text fill="#000000" font-family="sans-serif" font-size="11.2" lengthAdjust="spacing" textLength="124" x="617.2" y="586.8625">registedSkillsRepository:</text><text fill="#000000" font-family="sans-serif" font-size="11.2" lengthAdjust="spacing" textLength="124.8" x="616.8" y="601.7594">RegistedSkillsRepository</text><rect fill="#E3E3E3" height="40.9938" rx="2" ry="2" style="stroke:#181818;stroke-width:0.4000000000000001;" width="34.4" x="774.8" y="569.1766"/><text fill="#000000" font-family="sans-serif" font-size="11.2" lengthAdjust="spacing" textLength="18.4" x="782.8" y="586.8625">skill</text><text fill="#000000" font-family="sans-serif" font-size="11.2" lengthAdjust="spacing" textLength="23.2" x="780.4" y="601.7594">:Skill</text><rect fill="#FFFFFF" height="472.9828" style="stroke:#181818;stroke-width:0.8000000000000002;" width="8" x="60.8" y="89.7938"/><rect fill="#FFFFFF" height="397.0844" style="stroke:#181818;stroke-width:0.8000000000000002;" width="8" x="245.6" y="108.4266"/><rect fill="#FFFFFF" height="25.0328" style="stroke:#181818;stroke-width:0.8000000000000002;" width="8" x="245.6" y="530.5438"/><rect fill="#FFFFFF" height="148.0609" style="stroke:#181818;stroke-width:0.8000000000000002;" width="8" x="367.2" y="141.4594"/><rect fill="#FFFFFF" height="190.9578" style="stroke:#181818;stroke-width:0.8000000000000002;" width="8" x="367.2" y="314.5531"/><rect fill="#FFFFFF" height="25.0328" style="stroke:#181818;stroke-width:0.8000000000000002;" width="8" x="474.8" y="168.3563"/><rect fill="#FFFFFF" height="25.0328" style="stroke:#181818;stroke-width:0.8000000000000002;" width="8" x="560.4" y="218.4219"/><rect fill="#FFFFFF" height="140.8922" style="stroke:#181818;stroke-width:0.8000000000000002;" width="8" x="675.2" y="339.5859"/><polygon fill="#181818" points="236,105.2266,244,108.4266,236,111.6266,239.2,108.4266" style="stroke:#181818;stroke-width:0.8000000000000002;"/><line style="stroke:#181818;stroke-width:0.8000000000000002;" x1="68.8" x2="240.8" y1="108.4266" y2="108.4266"/><text fill="#000000" font-family="sans-serif" font-size="10.4" font-weight="bold" lengthAdjust="spacing" textLength="5.6" x="74.4" y="104.2164">1</text><text fill="#000000" font-family="sans-serif" font-size="10.4" lengthAdjust="spacing" textLength="115.2" x="83.2" y="104.2164">asks to regist a new skill</text><polygon fill="#181818" points="300.8,130.2594,308.8,133.4594,300.8,136.6594,304,133.4594" style="stroke:#181818;stroke-width:0.8000000000000002;"/><line style="stroke:#181818;stroke-width:0.8000000000000002;" x1="253.6" x2="305.6" y1="133.4594" y2="133.4594"/><text fill="#000000" font-family="sans-serif" font-size="10.4" font-weight="bold" lengthAdjust="spacing" textLength="5.6" x="259.2" y="129.2492">2</text><text fill="#000000" font-family="sans-serif" font-size="10.4" lengthAdjust="spacing" textLength="28.8" x="268" y="129.2492">create</text><rect fill="#E3E3E3" height="26.0969" rx="2" ry="2" style="stroke:#181818;stroke-width:0.4000000000000001;" width="121.6" x="310.4" y="114.8266"/><text fill="#000000" font-family="sans-serif" font-size="11.2" lengthAdjust="spacing" textLength="110.4" x="316" y="132.5125">:RegistSkillsController</text><polygon fill="#181818" points="465.2,165.1563,473.2,168.3563,465.2,171.5563,468.4,168.3563" style="stroke:#181818;stroke-width:0.8000000000000002;"/><line style="stroke:#181818;stroke-width:0.8000000000000002;" x1="375.2" x2="470" y1="168.3563" y2="168.3563"/><text fill="#000000" font-family="sans-serif" font-size="10.4" font-weight="bold" lengthAdjust="spacing" textLength="5.6" x="380.8" y="164.1461">3</text><text fill="#000000" font-family="sans-serif" font-size="10.4" lengthAdjust="spacing" textLength="60" x="389.6" y="164.1461">getInstance()</text><polygon fill="#181818" points="384,190.1891,376,193.3891,384,196.5891,380.8,193.3891" style="stroke:#181818;stroke-width:0.8000000000000002;"/><line style="stroke:#181818;stroke-width:0.8000000000000002;stroke-dasharray:2.0,2.0;" x1="379.2" x2="478" y1="193.3891" y2="193.3891"/><text fill="#000000" font-family="sans-serif" font-size="10.4" font-weight="bold" lengthAdjust="spacing" textLength="5.6" x="388.8" y="189.1789">4</text><text fill="#000000" font-family="sans-serif" font-size="10.4" lengthAdjust="spacing" textLength="53.6" x="397.6" y="189.1789">repositories</text><polygon fill="#181818" points="550.8,215.2219,558.8,218.4219,550.8,221.6219,554,218.4219" style="stroke:#181818;stroke-width:0.8000000000000002;"/><line style="stroke:#181818;stroke-width:0.8000000000000002;" x1="375.2" x2="555.6" y1="218.4219" y2="218.4219"/><text fill="#000000" font-family="sans-serif" font-size="10.4" font-weight="bold" lengthAdjust="spacing" textLength="5.6" x="380.8" y="214.2117">5</text><text fill="#000000" font-family="sans-serif" font-size="10.4" lengthAdjust="spacing" textLength="136.8" x="389.6" y="214.2117">getRegistedSkillsRepository()</text><polygon fill="#181818" points="384,240.2547,376,243.4547,384,246.6547,380.8,243.4547" style="stroke:#181818;stroke-width:0.8000000000000002;"/><line style="stroke:#181818;stroke-width:0.8000000000000002;stroke-dasharray:2.0,2.0;" x1="379.2" x2="563.6" y1="243.4547" y2="243.4547"/><text fill="#000000" font-family="sans-serif" font-size="10.4" font-weight="bold" lengthAdjust="spacing" textLength="5.6" x="388.8" y="239.2445">6</text><text fill="#000000" font-family="sans-serif" font-size="10.4" lengthAdjust="spacing" textLength="112" x="397.6" y="239.2445">registedSkillsRepository</text><path d="M8,255.4547 L66.4,255.4547 L66.4,262.8875 L58.4,270.8875 L8,270.8875 L8,255.4547 " fill="#EEEEEE" style="stroke:#000000;stroke-width:1.2000000000000002;"/><rect fill="none" height="200.7906" style="stroke:#000000;stroke-width:1.2000000000000002;" width="809.2" x="8" y="255.4547"/><text fill="#000000" font-family="sans-serif" font-size="10.4" font-weight="bold" lengthAdjust="spacing" textLength="22.4" x="20" y="267.4773">loop</text><text fill="#000000" font-family="sans-serif" font-size="8.8" font-weight="bold" lengthAdjust="spacing" textLength="72" x="78.4" y="266.5508">[while intended]</text><polygon fill="#181818" points="77.6,286.3203,69.6,289.5203,77.6,292.7203,74.4,289.5203" style="stroke:#181818;stroke-width:0.8000000000000002;"/><line style="stroke:#181818;stroke-width:0.8000000000000002;stroke-dasharray:2.0,2.0;" x1="72.8" x2="370.4" y1="289.5203" y2="289.5203"/><text fill="#000000" font-family="sans-serif" font-size="10.4" font-weight="bold" lengthAdjust="spacing" textLength="5.6" x="82.4" y="285.3102">7</text><text fill="#000000" font-family="sans-serif" font-size="10.4" lengthAdjust="spacing" textLength="108" x="91.2" y="285.3102">requests the skill name</text><polygon fill="#181818" points="357.6,311.3531,365.6,314.5531,357.6,317.7531,360.8,314.5531" style="stroke:#181818;stroke-width:0.8000000000000002;"/><line style="stroke:#181818;stroke-width:0.8000000000000002;" x1="68.8" x2="362.4" y1="314.5531" y2="314.5531"/><text fill="#000000" font-family="sans-serif" font-size="10.4" font-weight="bold" lengthAdjust="spacing" textLength="5.6" x="74.4" y="310.343">8</text><text fill="#000000" font-family="sans-serif" font-size="10.4" lengthAdjust="spacing" textLength="115.2" x="83.2" y="310.343">types the new skill name</text><polygon fill="#181818" points="665.6,336.3859,673.6,339.5859,665.6,342.7859,668.8,339.5859" style="stroke:#181818;stroke-width:0.8000000000000002;"/><line style="stroke:#181818;stroke-width:0.8000000000000002;stroke-dasharray:2.0,2.0;" x1="375.2" x2="670.4" y1="339.5859" y2="339.5859"/><text fill="#000000" font-family="sans-serif" font-size="10.4" font-weight="bold" lengthAdjust="spacing" textLength="5.6" x="380.8" y="335.3758">9</text><text fill="#000000" font-family="sans-serif" font-size="10.4" lengthAdjust="spacing" textLength="3.2" x="389.6" y="335.3758">&#160;</text><polygon fill="#181818" points="765.2,361.4188,773.2,364.6188,765.2,367.8188,768.4,364.6188" style="stroke:#181818;stroke-width:0.8000000000000002;"/><line style="stroke:#181818;stroke-width:0.8000000000000002;" x1="683.2" x2="770" y1="364.6188" y2="364.6188"/><text fill="#000000" font-family="sans-serif" font-size="10.4" font-weight="bold" lengthAdjust="spacing" textLength="11.2" x="688.8" y="360.4086">10</text><text fill="#000000" font-family="sans-serif" font-size="10.4" lengthAdjust="spacing" textLength="50.4" x="703.2" y="360.4086">create skill</text><rect fill="#E3E3E3" height="40.9938" rx="2" ry="2" style="stroke:#181818;stroke-width:0.4000000000000001;" width="34.4" x="774.8" y="345.9859"/><text fill="#000000" font-family="sans-serif" font-size="11.2" lengthAdjust="spacing" textLength="18.4" x="782.8" y="363.6719">skill</text><text fill="#000000" font-family="sans-serif" font-size="11.2" lengthAdjust="spacing" textLength="23.2" x="780.4" y="378.5688">:Skill</text><polygon fill="#181818" points="692,411.2125,684,414.4125,692,417.6125,688.8,414.4125" style="stroke:#181818;stroke-width:0.8000000000000002;"/><line style="stroke:#181818;stroke-width:0.8000000000000002;" x1="687.2" x2="791.2" y1="414.4125" y2="414.4125"/><text fill="#000000" font-family="sans-serif" font-size="10.4" font-weight="bold" lengthAdjust="spacing" textLength="11.2" x="696.8" y="410.2023">11</text><text fill="#000000" font-family="sans-serif" font-size="10.4" lengthAdjust="spacing" textLength="64.8" x="711.2" y="410.2023">addSkill (skill)</text><line style="stroke:#181818;stroke-width:0.8000000000000002;" x1="683.2" x2="716.8" y1="439.4453" y2="439.4453"/><line style="stroke:#181818;stroke-width:0.8000000000000002;" x1="716.8" x2="716.8" y1="439.4453" y2="449.8453"/><line style="stroke:#181818;stroke-width:0.8000000000000002;" x1="684" x2="716.8" y1="449.8453" y2="449.8453"/><polygon fill="#181818" points="692,446.6453,684,449.8453,692,453.0453,688.8,449.8453" style="stroke:#181818;stroke-width:0.8000000000000002;"/><text fill="#000000" font-family="sans-serif" font-size="10.4" font-weight="bold" lengthAdjust="spacing" textLength="11.2" x="688.8" y="435.2352">12</text><text fill="#000000" font-family="sans-serif" font-size="10.4" lengthAdjust="spacing" textLength="79.2" x="703.2" y="435.2352">validateSkill(skill)</text><polygon fill="#181818" points="384,477.2781,376,480.4781,384,483.6781,380.8,480.4781" style="stroke:#181818;stroke-width:0.8000000000000002;"/><line style="stroke:#181818;stroke-width:0.8000000000000002;stroke-dasharray:2.0,2.0;" x1="379.2" x2="678.4" y1="480.4781" y2="480.4781"/><text fill="#000000" font-family="sans-serif" font-size="10.4" font-weight="bold" lengthAdjust="spacing" textLength="11.2" x="388.8" y="476.268">17</text><text fill="#000000" font-family="sans-serif" font-size="10.4" lengthAdjust="spacing" textLength="79.2" x="403.2" y="476.268">registedSkillsList</text><polygon fill="#181818" points="77.6,502.3109,69.6,505.5109,77.6,508.7109,74.4,505.5109" style="stroke:#181818;stroke-width:0.8000000000000002;"/><line style="stroke:#181818;stroke-width:0.8000000000000002;stroke-dasharray:2.0,2.0;" x1="72.8" x2="370.4" y1="505.5109" y2="505.5109"/><text fill="#000000" font-family="sans-serif" font-size="10.4" font-weight="bold" lengthAdjust="spacing" textLength="11.2" x="82.4" y="501.3008">18</text><text fill="#000000" font-family="sans-serif" font-size="10.4" lengthAdjust="spacing" textLength="211.2" x="96.8" y="501.3008">show all the skills registed and aks to confirm</text><polygon fill="#181818" points="236,527.3438,244,530.5438,236,533.7438,239.2,530.5438" style="stroke:#181818;stroke-width:0.8000000000000002;"/><line style="stroke:#181818;stroke-width:0.8000000000000002;" x1="68.8" x2="240.8" y1="530.5438" y2="530.5438"/><text fill="#000000" font-family="sans-serif" font-size="10.4" font-weight="bold" lengthAdjust="spacing" textLength="11.2" x="74.4" y="526.3336">19</text><text fill="#000000" font-family="sans-serif" font-size="10.4" lengthAdjust="spacing" textLength="147.2" x="88.8" y="526.3336">confirm the set of skills registed</text><polygon fill="#181818" points="77.6,552.3766,69.6,555.5766,77.6,558.7766,74.4,555.5766" style="stroke:#181818;stroke-width:0.8000000000000002;"/><line style="stroke:#181818;stroke-width:0.8000000000000002;stroke-dasharray:2.0,2.0;" x1="72.8" x2="248.8" y1="555.5766" y2="555.5766"/><text fill="#000000" font-family="sans-serif" font-size="10.4" font-weight="bold" lengthAdjust="spacing" textLength="11.2" x="82.4" y="551.3664">20</text><text fill="#000000" font-family="sans-serif" font-size="10.4" lengthAdjust="spacing" textLength="126.4" x="96.8" y="551.3664">displays operation success</text><!--SRC=[bLN1QkCm4BtxAuQSsa0FUrhmOI6KNHf8ON7IMovQUsABo99NaXlozpkI7CLAxBOh23YQDs-UPvvaS-IoOvgrq2gfoaQh5i7g7ZCJ8nqhZwp6hJqB18sbPR8MOu1fMALENDPmOC9Wbh7IAWsBbxvb4WeqgjSbchryPPA8z0AOWPVYDQDqoqlUCMbXaHTOSsEtHow4ULjxqDlw0yopabOh8GR2vrsnkKDtod3Imj5uJDmuRxbx2Qjacg976NjvJ_1xizhTPZX5M0LDrmBvNXOpeK7AT31bDovAGZpAv-rMnSzVA-fnJ-BxzWzg-EOxpj-PHT_M36ZH0ppze0v2Jcb70rP1q0eC99x0KtjeJAPs-mstA97INLENIw8eDHBY6euvlkrns_rpUHED9f8QxLeQya-93u_tL5FJYIYtfbYV1fKvZ6SNqohy6lr5k1jmK3ete2dbtXQ9LCyprZOpxGcTLpAXL0UdXjEvuzAYhB1AYWJHLCGDsnNvswEnDEe6mtX1iXQdQgHJ6xpYwNAmvmu3HxH9oZF3aYYQjNS27ytcA_3WWMcaUu5mDfRBYrr77X-l08CFLDAHgS8cF7YEntiXducPvtvdWbSapqTc-SS7_7i8amF-en_NYQRksz1pMYuv99yDuiPqfb4dODIeQ3eJwm6Jz0jtJwdaWUjsjh3tqapiSY-DxxI1BvH52-fmMttwRdFtMXHVSTC9TZQWEjJCShfFJ5_IjofS83SI_W40]--></g></svg>