<?xml version="1.0" encoding="us-ascii" standalone="no"?><svg xmlns="http://www.w3.org/2000/svg" xmlns:xlink="http://www.w3.org/1999/xlink" contentStyleType="text/css" height="609px" preserveAspectRatio="none" style="width:634px;height:609px;background:#FFFFFF;" version="1.1" viewBox="0 0 634 609" width="634px" zoomAndPan="magnify"><defs/><g><text fill="#000000" font-family="sans-serif" font-size="14" font-weight="bold" lengthAdjust="spacing" textLength="228" x="204.75" y="30.1074">System Sequence Diagram (SSD)</text><rect fill="#FFFFFF" height="347.2012" style="stroke:#181818;stroke-width:1.0;" width="10" x="92.5" y="151.8633"/><rect fill="#FFFFFF" height="57.582" style="stroke:#181818;stroke-width:1.0;" width="10" x="583.5" y="175.1543"/><rect fill="#FFFFFF" height="31.291" style="stroke:#181818;stroke-width:1.0;" width="10" x="583.5" y="264.0273"/><rect fill="#FFFFFF" height="31.291" style="stroke:#181818;stroke-width:1.0;" width="10" x="583.5" y="326.6094"/><rect fill="#FFFFFF" height="38.291" style="stroke:#181818;stroke-width:1.0;" width="10" x="583.5" y="389.1914"/><rect fill="#FFFFFF" height="31.291" style="stroke:#181818;stroke-width:1.0;" width="10" x="583.5" y="458.7734"/><rect fill="none" height="207.0371" style="stroke:#000000;stroke-width:1.5;" width="618.5" x="10" y="190.1543"/><line style="stroke:#181818;stroke-width:0.5;stroke-dasharray:5.0,5.0;" x1="97" x2="97" y1="141.8633" y2="508.0645"/><line style="stroke:#181818;stroke-width:0.5;stroke-dasharray:5.0,5.0;" x1="588.5" x2="588.5" y1="141.8633" y2="508.0645"/><text fill="#000000" font-family="sans-serif" font-size="14" lengthAdjust="spacing" textLength="145" x="20" y="119.7285">Vehicle and Equipment</text><text fill="#000000" font-family="sans-serif" font-size="14" lengthAdjust="spacing" textLength="92" x="48.5" y="138.3496">Fleet Manager</text><ellipse cx="97.5" cy="53.1211" fill="#E3E3E3" rx="8" ry="8" style="stroke:#181818;stroke-width:0.5;"/><path d="M97.5,61.1211 L97.5,88.1211 M84.5,69.1211 L110.5,69.1211 M97.5,88.1211 L84.5,103.1211 M97.5,88.1211 L110.5,103.1211 " fill="none" style="stroke:#181818;stroke-width:0.5;"/><text fill="#000000" font-family="sans-serif" font-size="14" lengthAdjust="spacing" textLength="145" x="20" y="522.1719">Vehicle and Equipment</text><text fill="#000000" font-family="sans-serif" font-size="14" lengthAdjust="spacing" textLength="92" x="48.5" y="540.793">Fleet Manager</text><ellipse cx="97.5" cy="552.8066" fill="#E3E3E3" rx="8" ry="8" style="stroke:#181818;stroke-width:0.5;"/><path d="M97.5,560.8066 L97.5,587.8066 M84.5,568.8066 L110.5,568.8066 M97.5,587.8066 L84.5,602.8066 M97.5,587.8066 L110.5,602.8066 " fill="none" style="stroke:#181818;stroke-width:0.5;"/><rect fill="#E3E3E3" height="32.6211" rx="2.5" ry="2.5" style="stroke:#181818;stroke-width:0.5;" width="60" x="558.5" y="108.2422"/><text fill="#000000" font-family="sans-serif" font-size="14" lengthAdjust="spacing" textLength="46" x="565.5" y="130.3496">System</text><rect fill="#E3E3E3" height="32.6211" rx="2.5" ry="2.5" style="stroke:#181818;stroke-width:0.5;" width="60" x="558.5" y="507.0645"/><text fill="#000000" font-family="sans-serif" font-size="14" lengthAdjust="spacing" textLength="46" x="565.5" y="529.1719">System</text><rect fill="#FFFFFF" height="347.2012" style="stroke:#181818;stroke-width:1.0;" width="10" x="92.5" y="151.8633"/><rect fill="#FFFFFF" height="57.582" style="stroke:#181818;stroke-width:1.0;" width="10" x="583.5" y="175.1543"/><rect fill="#FFFFFF" height="31.291" style="stroke:#181818;stroke-width:1.0;" width="10" x="583.5" y="264.0273"/><rect fill="#FFFFFF" height="31.291" style="stroke:#181818;stroke-width:1.0;" width="10" x="583.5" y="326.6094"/><rect fill="#FFFFFF" height="38.291" style="stroke:#181818;stroke-width:1.0;" width="10" x="583.5" y="389.1914"/><rect fill="#FFFFFF" height="31.291" style="stroke:#181818;stroke-width:1.0;" width="10" x="583.5" y="458.7734"/><polygon fill="#181818" points="571.5,171.1543,581.5,175.1543,571.5,179.1543,575.5,175.1543" style="stroke:#181818;stroke-width:1.0;"/><line style="stroke:#181818;stroke-width:1.0;" x1="102.5" x2="577.5" y1="175.1543" y2="175.1543"/><text fill="#000000" font-family="sans-serif" font-size="13" font-weight="bold" lengthAdjust="spacing" textLength="7" x="109.5" y="169.8916">1</text><text fill="#000000" font-family="sans-serif" font-size="13" lengthAdjust="spacing" textLength="201" x="120.5" y="169.8916">asks to register a vehicle check-up</text><path d="M10,190.1543 L83,190.1543 L83,199.4453 L73,209.4453 L10,209.4453 L10,190.1543 " fill="#EEEEEE" style="stroke:#000000;stroke-width:1.5;"/><rect fill="none" height="207.0371" style="stroke:#000000;stroke-width:1.5;" width="618.5" x="10" y="190.1543"/><text fill="#000000" font-family="sans-serif" font-size="13" font-weight="bold" lengthAdjust="spacing" textLength="28" x="25" y="205.1826">loop</text><text fill="#000000" font-family="sans-serif" font-size="11" font-weight="bold" lengthAdjust="spacing" textLength="90" x="98" y="204.0244">[while intended]</text><polygon fill="#181818" points="113.5,228.7363,103.5,232.7363,113.5,236.7363,109.5,232.7363" style="stroke:#181818;stroke-width:1.0;"/><line style="stroke:#181818;stroke-width:1.0;stroke-dasharray:2.0,2.0;" x1="107.5" x2="587.5" y1="232.7363" y2="232.7363"/><text fill="#000000" font-family="sans-serif" font-size="13" font-weight="bold" lengthAdjust="spacing" textLength="7" x="119.5" y="227.4736">2</text><text fill="#000000" font-family="sans-serif" font-size="13" lengthAdjust="spacing" textLength="115" x="130.5" y="227.4736">requests the vehicle</text><polygon fill="#181818" points="571.5,260.0273,581.5,264.0273,571.5,268.0273,575.5,264.0273" style="stroke:#181818;stroke-width:1.0;"/><line style="stroke:#181818;stroke-width:1.0;" x1="102.5" x2="577.5" y1="264.0273" y2="264.0273"/><text fill="#000000" font-family="sans-serif" font-size="13" font-weight="bold" lengthAdjust="spacing" textLength="7" x="109.5" y="258.7646">3</text><text fill="#000000" font-family="sans-serif" font-size="13" lengthAdjust="spacing" textLength="82" x="120.5" y="258.7646">Type a vehicle</text><polygon fill="#181818" points="113.5,291.3184,103.5,295.3184,113.5,299.3184,109.5,295.3184" style="stroke:#181818;stroke-width:1.0;"/><line style="stroke:#181818;stroke-width:1.0;stroke-dasharray:2.0,2.0;" x1="107.5" x2="587.5" y1="295.3184" y2="295.3184"/><text fill="#000000" font-family="sans-serif" font-size="13" font-weight="bold" lengthAdjust="spacing" textLength="7" x="119.5" y="290.0557">4</text><text fill="#000000" font-family="sans-serif" font-size="13" lengthAdjust="spacing" textLength="352" x="130.5" y="290.0557">requests the information about the check-up (i.e. date, place)</text><polygon fill="#181818" points="571.5,322.6094,581.5,326.6094,571.5,330.6094,575.5,326.6094" style="stroke:#181818;stroke-width:1.0;"/><line style="stroke:#181818;stroke-width:1.0;" x1="102.5" x2="577.5" y1="326.6094" y2="326.6094"/><text fill="#000000" font-family="sans-serif" font-size="13" font-weight="bold" lengthAdjust="spacing" textLength="7" x="109.5" y="321.3467">5</text><text fill="#000000" font-family="sans-serif" font-size="13" lengthAdjust="spacing" textLength="232" x="120.5" y="321.3467">Type the information about the check-up</text><polygon fill="#181818" points="113.5,353.9004,103.5,357.9004,113.5,361.9004,109.5,357.9004" style="stroke:#181818;stroke-width:1.0;"/><line style="stroke:#181818;stroke-width:1.0;stroke-dasharray:2.0,2.0;" x1="107.5" x2="587.5" y1="357.9004" y2="357.9004"/><text fill="#000000" font-family="sans-serif" font-size="13" font-weight="bold" lengthAdjust="spacing" textLength="7" x="119.5" y="352.6377">6</text><text fill="#000000" font-family="sans-serif" font-size="13" lengthAdjust="spacing" textLength="122" x="130.5" y="352.6377">Request confirmation</text><polygon fill="#181818" points="571.5,385.1914,581.5,389.1914,571.5,393.1914,575.5,389.1914" style="stroke:#181818;stroke-width:1.0;"/><line style="stroke:#181818;stroke-width:1.0;" x1="102.5" x2="577.5" y1="389.1914" y2="389.1914"/><text fill="#000000" font-family="sans-serif" font-size="13" font-weight="bold" lengthAdjust="spacing" textLength="7" x="109.5" y="383.9287">7</text><text fill="#000000" font-family="sans-serif" font-size="13" lengthAdjust="spacing" textLength="245" x="120.5" y="383.9287">Confirms it and regist the vehicle check-up</text><polygon fill="#181818" points="113.5,423.4824,103.5,427.4824,113.5,431.4824,109.5,427.4824" style="stroke:#181818;stroke-width:1.0;"/><line style="stroke:#181818;stroke-width:1.0;stroke-dasharray:2.0,2.0;" x1="107.5" x2="587.5" y1="427.4824" y2="427.4824"/><text fill="#000000" font-family="sans-serif" font-size="13" font-weight="bold" lengthAdjust="spacing" textLength="7" x="119.5" y="422.2197">8</text><text fill="#000000" font-family="sans-serif" font-size="13" lengthAdjust="spacing" textLength="224" x="130.5" y="422.2197">shows all registered vehicle check-up's</text><polygon fill="#181818" points="571.5,454.7734,581.5,458.7734,571.5,462.7734,575.5,458.7734" style="stroke:#181818;stroke-width:1.0;"/><line style="stroke:#181818;stroke-width:1.0;" x1="102.5" x2="577.5" y1="458.7734" y2="458.7734"/><text fill="#000000" font-family="sans-serif" font-size="13" font-weight="bold" lengthAdjust="spacing" textLength="7" x="109.5" y="453.5107">9</text><text fill="#000000" font-family="sans-serif" font-size="13" lengthAdjust="spacing" textLength="451" x="120.5" y="453.5107">confirms the set of registered vehicle check-up's and the new vehicle check-up</text><polygon fill="#181818" points="113.5,486.0645,103.5,490.0645,113.5,494.0645,109.5,490.0645" style="stroke:#181818;stroke-width:1.0;"/><line style="stroke:#181818;stroke-width:1.0;stroke-dasharray:2.0,2.0;" x1="107.5" x2="587.5" y1="490.0645" y2="490.0645"/><text fill="#000000" font-family="sans-serif" font-size="13" font-weight="bold" lengthAdjust="spacing" textLength="14" x="119.5" y="484.8018">10</text><text fill="#000000" font-family="sans-serif" font-size="13" lengthAdjust="spacing" textLength="158" x="137.5" y="484.8018">displays operation success</text><!--SRC=[dLExRiCm3Dpz5KIMfa2J3yZGfOyjIrrqwiBAZ4t4bXIHRf2_Bst7Rj4cVMaIgEFTKJh9bdt4X0qqmGTNfT0GQ6efa-aaejjYIRaUQe94Jj6NzKU0L5Y4FViIDbWBPPco6ZG_Y583EUrQyexWbh7iuFCylxtCCcmr-BPveMHxfo71x8agTjQ9le2xNSkn8Q_mxEzh8eKrUhEHPe02J_VhpCIL7KSqp6mGwy-6RK_AhwZKWpEmPHjON8_6LWRU2cYmeKgsKWA4rwC5Lv7RBjhOzqrC8tLNh4E8iA_OmEoLV455Nn_NKMLXWftkobJi8aHDiQ9HP-eewBF8UFBPzECXqhlH2NRIuyy-s6z2Qb0vUC2Nq6fV7QU7EIzf2ONnNa6iqT7bVnt_B7PsbBEJF0oJW0j-mqVYV_Yx6Te5MFle3N7u-4o_ysWP-ERQfGfx0QphAMvKVE6_aEoqzvFvTQFnpghO5mcRxydxyJgmf_qVelvbbeB5qd0G297Iy9xIEaTonluR]--></g></svg>