<?xml version="1.0" encoding="UTF-8" standalone="no"?><svg xmlns="http://www.w3.org/2000/svg" xmlns:xlink="http://www.w3.org/1999/xlink" contentStyleType="text/css" height="1159px" preserveAspectRatio="none" style="width:1566px;height:1159px;background:#FFFFFF;" version="1.1" viewBox="0 0 1566 1159" width="1566px" zoomAndPan="magnify"><defs/><g><rect fill="#FFFFFF" height="469.3997" style="stroke:#181818;stroke-width:1.0;" width="10" x="123" y="117.7199"/><rect fill="#FFFFFF" height="41.24" style="stroke:#181818;stroke-width:1.0;" width="10" x="123" y="1027.2794"/><rect fill="#FFFFFF" height="170.9599" style="stroke:#181818;stroke-width:1.0;" width="10" x="387" y="205.1999"/><rect fill="#FFFFFF" height="440.1598" style="stroke:#181818;stroke-width:1.0;" width="10" x="651" y="587.1197"/><rect fill="#FFFFFF" height="170.9599" style="stroke:#181818;stroke-width:1.0;" width="10" x="1103" y="638.3596"/><rect fill="none" height="854.3195" style="stroke:#000000;stroke-width:1.5;" width="1557" x="3" y="132.7199"/><line style="stroke:#181818;stroke-width:0.5;stroke-dasharray:5.0,5.0;" x1="128" x2="128" y1="74.4799" y2="1086.5194"/><line style="stroke:#181818;stroke-width:0.5;stroke-dasharray:5.0,5.0;" x1="391.5" x2="391.5" y1="211.6999" y2="1086.5194"/><line style="stroke:#181818;stroke-width:0.5;stroke-dasharray:5.0,5.0;" x1="655.5" x2="655.5" y1="74.4799" y2="1086.5194"/><line style="stroke:#181818;stroke-width:0.5;stroke-dasharray:5.0,5.0;" x1="1108" x2="1108" y1="644.8596" y2="1086.5194"/><rect fill="#E3E3E3" height="68.4799" rx="2.5" ry="2.5" style="stroke:#181818;stroke-width:0.5;" width="194" x="31" y="5"/><text fill="#000000" font-family="sans-serif" font-size="20" lengthAdjust="spacing" textLength="180" x="38" y="33.38">VehiclesRepository:</text><text fill="#000000" font-family="sans-serif" font-size="20" lengthAdjust="spacing" textLength="175" x="40.5" y="60.62">VehiclesRepository</text><rect fill="#E3E3E3" height="68.4799" rx="2.5" ry="2.5" style="stroke:#181818;stroke-width:0.5;" width="194" x="31" y="1085.5194"/><text fill="#000000" font-family="sans-serif" font-size="20" lengthAdjust="spacing" textLength="180" x="38" y="1113.8994">VehiclesRepository:</text><text fill="#000000" font-family="sans-serif" font-size="20" lengthAdjust="spacing" textLength="175" x="40.5" y="1141.1394">VehiclesRepository</text><rect fill="#E3E3E3" height="68.4799" rx="2.5" ry="2.5" style="stroke:#181818;stroke-width:0.5;" width="85" x="349.5" y="1085.5194"/><text fill="#000000" font-family="sans-serif" font-size="20" lengthAdjust="spacing" textLength="64" x="360" y="1113.8994">vehicle</text><text fill="#000000" font-family="sans-serif" font-size="20" lengthAdjust="spacing" textLength="71" x="356.5" y="1141.1394">:Vehicle</text><rect fill="#E3E3E3" height="68.4799" rx="2.5" ry="2.5" style="stroke:#181818;stroke-width:0.5;" width="287" x="512.5" y="5"/><text fill="#000000" font-family="sans-serif" font-size="20" lengthAdjust="spacing" textLength="273" x="519.5" y="33.38">PlateCertificationsRepository:</text><text fill="#000000" font-family="sans-serif" font-size="20" lengthAdjust="spacing" textLength="268" x="522" y="60.62">PlateCertificationsRepository</text><rect fill="#E3E3E3" height="68.4799" rx="2.5" ry="2.5" style="stroke:#181818;stroke-width:0.5;" width="287" x="512.5" y="1085.5194"/><text fill="#000000" font-family="sans-serif" font-size="20" lengthAdjust="spacing" textLength="273" x="519.5" y="1113.8994">PlateCertificationsRepository:</text><text fill="#000000" font-family="sans-serif" font-size="20" lengthAdjust="spacing" textLength="268" x="522" y="1141.1394">PlateCertificationsRepository</text><rect fill="#E3E3E3" height="68.4799" rx="2.5" ry="2.5" style="stroke:#181818;stroke-width:0.5;" width="178" x="1019" y="1085.5194"/><text fill="#000000" font-family="sans-serif" font-size="20" lengthAdjust="spacing" textLength="159" x="1028.5" y="1113.8994">plateCertification</text><text fill="#000000" font-family="sans-serif" font-size="20" lengthAdjust="spacing" textLength="164" x="1026" y="1141.1394">:PlateCertification</text><rect fill="#FFFFFF" height="469.3997" style="stroke:#181818;stroke-width:1.0;" width="10" x="123" y="117.7199"/><rect fill="#FFFFFF" height="41.24" style="stroke:#181818;stroke-width:1.0;" width="10" x="123" y="1027.2794"/><rect fill="#FFFFFF" height="170.9599" style="stroke:#181818;stroke-width:1.0;" width="10" x="387" y="205.1999"/><rect fill="#FFFFFF" height="440.1598" style="stroke:#181818;stroke-width:1.0;" width="10" x="651" y="587.1197"/><rect fill="#FFFFFF" height="170.9599" style="stroke:#181818;stroke-width:1.0;" width="10" x="1103" y="638.3596"/><polygon fill="#181818" points="111,113.7199,121,117.7199,111,121.7199,115,117.7199" style="stroke:#181818;stroke-width:1.0;"/><line style="stroke:#181818;stroke-width:1.0;" x1="0" x2="117" y1="117.7199" y2="117.7199"/><text fill="#000000" font-family="sans-serif" font-size="20" font-weight="bold" lengthAdjust="spacing" textLength="22" x="7" y="109.8599">12</text><text fill="#000000" font-family="sans-serif" font-size="20" lengthAdjust="spacing" textLength="58" x="33" y="109.8599">create</text><path d="M3,132.7199 L192,132.7199 L192,151.9599 L182,161.9599 L3,161.9599 L3,132.7199 " fill="#EEEEEE" style="stroke:#000000;stroke-width:1.5;"/><rect fill="none" height="854.3195" style="stroke:#000000;stroke-width:1.5;" width="1557" x="3" y="132.7199"/><text fill="#000000" font-family="sans-serif" font-size="20" font-weight="bold" lengthAdjust="spacing" textLength="144" x="18" y="155.0999">Create Vehicle</text><polygon fill="#181818" points="337.5,191.1999,347.5,195.1999,337.5,199.1999,341.5,195.1999" style="stroke:#181818;stroke-width:1.0;"/><line style="stroke:#181818;stroke-width:1.0;" x1="133" x2="343.5" y1="195.1999" y2="195.1999"/><text fill="#000000" font-family="sans-serif" font-size="20" font-weight="bold" lengthAdjust="spacing" textLength="22" x="140" y="187.3399">13</text><text fill="#000000" font-family="sans-serif" font-size="20" lengthAdjust="spacing" textLength="58" x="166" y="187.3399">create</text><rect fill="#E3E3E3" height="68.4799" rx="2.5" ry="2.5" style="stroke:#181818;stroke-width:0.5;" width="85" x="349.5" y="161.9599"/><text fill="#000000" font-family="sans-serif" font-size="20" lengthAdjust="spacing" textLength="64" x="360" y="190.3399">vehicle</text><text fill="#000000" font-family="sans-serif" font-size="20" lengthAdjust="spacing" textLength="71" x="356.5" y="217.5799">:Vehicle</text><line style="stroke:#181818;stroke-width:1.0;" x1="397" x2="439" y1="274.6798" y2="274.6798"/><line style="stroke:#181818;stroke-width:1.0;" x1="439" x2="439" y1="274.6798" y2="287.6798"/><line style="stroke:#181818;stroke-width:1.0;" x1="398" x2="439" y1="287.6798" y2="287.6798"/><polygon fill="#181818" points="408,283.6798,398,287.6798,408,291.6798,404,287.6798" style="stroke:#181818;stroke-width:1.0;"/><text fill="#000000" font-family="sans-serif" font-size="20" font-weight="bold" lengthAdjust="spacing" textLength="22" x="404" y="266.8198">14</text><text fill="#000000" font-family="sans-serif" font-size="20" lengthAdjust="spacing" textLength="214" x="430" y="266.8198">validateVehicle(vehicle)</text><polygon fill="#181818" points="144,324.9198,134,328.9198,144,332.9198,140,328.9198" style="stroke:#181818;stroke-width:1.0;"/><line style="stroke:#181818;stroke-width:1.0;stroke-dasharray:2.0,2.0;" x1="138" x2="386" y1="328.9198" y2="328.9198"/><text fill="#000000" font-family="sans-serif" font-size="20" font-weight="bold" lengthAdjust="spacing" textLength="22" x="150" y="321.0598">15</text><text fill="#000000" font-family="sans-serif" font-size="20" lengthAdjust="spacing" textLength="64" x="176" y="321.0598">vehicle</text><line style="stroke:#181818;stroke-width:1.0;" x1="133" x2="175" y1="375.1598" y2="375.1598"/><line style="stroke:#181818;stroke-width:1.0;" x1="175" x2="175" y1="375.1598" y2="388.1598"/><line style="stroke:#181818;stroke-width:1.0;" x1="128" x2="175" y1="388.1598" y2="388.1598"/><polygon fill="#181818" points="138,384.1598,128,388.1598,138,392.1598,134,388.1598" style="stroke:#181818;stroke-width:1.0;"/><text fill="#000000" font-family="sans-serif" font-size="20" font-weight="bold" lengthAdjust="spacing" textLength="22" x="140" y="367.2998">16</text><text fill="#000000" font-family="sans-serif" font-size="20" lengthAdjust="spacing" textLength="214" x="166" y="367.2998">validateVehicle(vehicle)</text><line style="stroke:#181818;stroke-width:1.0;" x1="133" x2="175" y1="424.3997" y2="424.3997"/><line style="stroke:#181818;stroke-width:1.0;" x1="175" x2="175" y1="424.3997" y2="437.3997"/><line style="stroke:#181818;stroke-width:1.0;" x1="134" x2="175" y1="437.3997" y2="437.3997"/><polygon fill="#181818" points="144,433.3997,134,437.3997,144,441.3997,140,437.3997" style="stroke:#181818;stroke-width:1.0;"/><text fill="#000000" font-family="sans-serif" font-size="20" font-weight="bold" lengthAdjust="spacing" textLength="22" x="140" y="416.5398">17</text><text fill="#000000" font-family="sans-serif" font-size="20" lengthAdjust="spacing" textLength="177" x="166" y="416.5398">addVehicle(vehicle)</text><line style="stroke:#181818;stroke-width:1.0;" x1="133" x2="175" y1="478.6397" y2="478.6397"/><line style="stroke:#181818;stroke-width:1.0;" x1="175" x2="175" y1="478.6397" y2="491.6397"/><line style="stroke:#181818;stroke-width:1.0;" x1="134" x2="175" y1="491.6397" y2="491.6397"/><polygon fill="#181818" points="144,487.6397,134,491.6397,144,495.6397,140,491.6397" style="stroke:#181818;stroke-width:1.0;"/><text fill="#000000" font-family="sans-serif" font-size="20" font-weight="bold" lengthAdjust="spacing" textLength="22" x="140" y="470.7797">18</text><text fill="#000000" font-family="sans-serif" font-size="20" lengthAdjust="spacing" textLength="89" x="166" y="470.7797">true/false</text><line style="stroke:#181818;stroke-width:1.0;" x1="133" x2="175" y1="532.8797" y2="532.8797"/><line style="stroke:#181818;stroke-width:1.0;" x1="175" x2="175" y1="532.8797" y2="545.8797"/><line style="stroke:#181818;stroke-width:1.0;" x1="134" x2="175" y1="545.8797" y2="545.8797"/><polygon fill="#181818" points="144,541.8797,134,545.8797,144,549.8797,140,545.8797" style="stroke:#181818;stroke-width:1.0;"/><text fill="#000000" font-family="sans-serif" font-size="20" font-weight="bold" lengthAdjust="spacing" textLength="22" x="140" y="525.0197">19</text><text fill="#000000" font-family="sans-serif" font-size="20" lengthAdjust="spacing" textLength="89" x="166" y="525.0197">true/false</text><polygon fill="#181818" points="639,583.1197,649,587.1197,639,591.1197,643,587.1197" style="stroke:#181818;stroke-width:1.0;"/><line style="stroke:#181818;stroke-width:1.0;" x1="0" x2="645" y1="587.1197" y2="587.1197"/><text fill="#000000" font-family="sans-serif" font-size="20" font-weight="bold" lengthAdjust="spacing" textLength="22" x="7" y="579.2597">20</text><text fill="#000000" font-family="sans-serif" font-size="20" lengthAdjust="spacing" textLength="58" x="33" y="579.2597">create</text><polygon fill="#181818" points="1007,624.3596,1017,628.3596,1007,632.3596,1011,628.3596" style="stroke:#181818;stroke-width:1.0;"/><line style="stroke:#181818;stroke-width:1.0;" x1="661" x2="1013" y1="628.3596" y2="628.3596"/><text fill="#000000" font-family="sans-serif" font-size="20" font-weight="bold" lengthAdjust="spacing" textLength="22" x="668" y="620.4997">21</text><text fill="#000000" font-family="sans-serif" font-size="20" lengthAdjust="spacing" textLength="58" x="694" y="620.4997">create</text><rect fill="#E3E3E3" height="68.4799" rx="2.5" ry="2.5" style="stroke:#181818;stroke-width:0.5;" width="178" x="1019" y="595.1197"/><text fill="#000000" font-family="sans-serif" font-size="20" lengthAdjust="spacing" textLength="159" x="1028.5" y="623.4997">plateCertification</text><text fill="#000000" font-family="sans-serif" font-size="20" lengthAdjust="spacing" textLength="164" x="1026" y="650.7396">:PlateCertification</text><line style="stroke:#181818;stroke-width:1.0;" x1="1113" x2="1155" y1="707.8396" y2="707.8396"/><line style="stroke:#181818;stroke-width:1.0;" x1="1155" x2="1155" y1="707.8396" y2="720.8396"/><line style="stroke:#181818;stroke-width:1.0;" x1="1114" x2="1155" y1="720.8396" y2="720.8396"/><polygon fill="#181818" points="1124,716.8396,1114,720.8396,1124,724.8396,1120,720.8396" style="stroke:#181818;stroke-width:1.0;"/><text fill="#000000" font-family="sans-serif" font-size="20" font-weight="bold" lengthAdjust="spacing" textLength="22" x="1120" y="699.9796">22</text><text fill="#000000" font-family="sans-serif" font-size="20" lengthAdjust="spacing" textLength="402" x="1146" y="699.9796">validatePlateCertification(plateCertification)</text><polygon fill="#181818" points="672,758.0796,662,762.0796,672,766.0796,668,762.0796" style="stroke:#181818;stroke-width:1.0;"/><line style="stroke:#181818;stroke-width:1.0;stroke-dasharray:2.0,2.0;" x1="666" x2="1102" y1="762.0796" y2="762.0796"/><text fill="#000000" font-family="sans-serif" font-size="20" font-weight="bold" lengthAdjust="spacing" textLength="22" x="678" y="754.2196">23</text><text fill="#000000" font-family="sans-serif" font-size="20" lengthAdjust="spacing" textLength="159" x="704" y="754.2196">plateCertification</text><line style="stroke:#181818;stroke-width:1.0;" x1="661" x2="703" y1="808.3195" y2="808.3195"/><line style="stroke:#181818;stroke-width:1.0;" x1="703" x2="703" y1="808.3195" y2="821.3195"/><line style="stroke:#181818;stroke-width:1.0;" x1="656" x2="703" y1="821.3195" y2="821.3195"/><polygon fill="#181818" points="666,817.3195,656,821.3195,666,825.3195,662,821.3195" style="stroke:#181818;stroke-width:1.0;"/><text fill="#000000" font-family="sans-serif" font-size="20" font-weight="bold" lengthAdjust="spacing" textLength="22" x="668" y="800.4596">24</text><text fill="#000000" font-family="sans-serif" font-size="20" lengthAdjust="spacing" textLength="402" x="694" y="800.4596">validatePlateCertification(plateCertification)</text><line style="stroke:#181818;stroke-width:1.0;" x1="661" x2="703" y1="857.5595" y2="857.5595"/><line style="stroke:#181818;stroke-width:1.0;" x1="703" x2="703" y1="857.5595" y2="870.5595"/><line style="stroke:#181818;stroke-width:1.0;" x1="662" x2="703" y1="870.5595" y2="870.5595"/><polygon fill="#181818" points="672,866.5595,662,870.5595,672,874.5595,668,870.5595" style="stroke:#181818;stroke-width:1.0;"/><text fill="#000000" font-family="sans-serif" font-size="20" font-weight="bold" lengthAdjust="spacing" textLength="22" x="668" y="849.6995">25</text><text fill="#000000" font-family="sans-serif" font-size="20" lengthAdjust="spacing" textLength="365" x="694" y="849.6995">addPlateCertification(plateCertification)</text><line style="stroke:#181818;stroke-width:1.0;" x1="661" x2="703" y1="911.7995" y2="911.7995"/><line style="stroke:#181818;stroke-width:1.0;" x1="703" x2="703" y1="911.7995" y2="924.7995"/><line style="stroke:#181818;stroke-width:1.0;" x1="662" x2="703" y1="924.7995" y2="924.7995"/><polygon fill="#181818" points="672,920.7995,662,924.7995,672,928.7995,668,924.7995" style="stroke:#181818;stroke-width:1.0;"/><text fill="#000000" font-family="sans-serif" font-size="20" font-weight="bold" lengthAdjust="spacing" textLength="22" x="668" y="903.9395">26</text><text fill="#000000" font-family="sans-serif" font-size="20" lengthAdjust="spacing" textLength="89" x="694" y="903.9395">true/false</text><line style="stroke:#181818;stroke-width:1.0;" x1="661" x2="703" y1="966.0395" y2="966.0395"/><line style="stroke:#181818;stroke-width:1.0;" x1="703" x2="703" y1="966.0395" y2="979.0395"/><line style="stroke:#181818;stroke-width:1.0;" x1="662" x2="703" y1="979.0395" y2="979.0395"/><polygon fill="#181818" points="672,975.0395,662,979.0395,672,983.0395,668,979.0395" style="stroke:#181818;stroke-width:1.0;"/><text fill="#000000" font-family="sans-serif" font-size="20" font-weight="bold" lengthAdjust="spacing" textLength="22" x="668" y="958.1795">27</text><text fill="#000000" font-family="sans-serif" font-size="20" lengthAdjust="spacing" textLength="89" x="694" y="958.1795">true/false</text><polygon fill="#181818" points="11,1023.2794,1,1027.2794,11,1031.2794,7,1027.2794" style="stroke:#181818;stroke-width:1.0;"/><line style="stroke:#181818;stroke-width:1.0;stroke-dasharray:2.0,2.0;" x1="5" x2="655" y1="1027.2794" y2="1027.2794"/><text fill="#000000" font-family="sans-serif" font-size="20" font-weight="bold" lengthAdjust="spacing" textLength="22" x="17" y="1019.4195">28</text><text fill="#000000" font-family="sans-serif" font-size="20" lengthAdjust="spacing" textLength="201" x="43" y="1019.4195">plateCertificationsList</text><polygon fill="#181818" points="11,1064.5194,1,1068.5194,11,1072.5194,7,1068.5194" style="stroke:#181818;stroke-width:1.0;"/><line style="stroke:#181818;stroke-width:1.0;stroke-dasharray:2.0,2.0;" x1="5" x2="127" y1="1068.5194" y2="1068.5194"/><text fill="#000000" font-family="sans-serif" font-size="20" font-weight="bold" lengthAdjust="spacing" textLength="22" x="17" y="1060.6594">29</text><text fill="#000000" font-family="sans-serif" font-size="20" lengthAdjust="spacing" textLength="71" x="43" y="1060.6594">jobsList</text><!--SRC=[jLNVQy8m47xlNt7uv0JPvcCP0oaAWioXRa_2YEcfcMrIcjJX_lgbjcfBqjOVB4zozzttVRdUHRbbF28n2GD1j-Y3ZokI16eek9gnNuJUaoEF40W55tGJYn11nGaMCX6XMxB6cTe7235IHVWwA0BaXlZYX_4rh4WWqN5qM37A8i8Lj3vnmsY0SegHa4o9UEykk1bi0P5WXijSkoo_u6wEpAe68-zZF2b3tmEYq4CTMJ5A51EyxA0sVw2jHPJ58WEgBPhr6UsuFnzyUOFfV3GSUVtvQFBcE2HHWYVX4cDuxZdTLqidNA0nQaODfehjz2zRkq2VTIoI2Bm3-eXn3fdqc4MGwcKzx7HECaVyMIrlyvaf2nJANTYHWFaQdQkqyo_sOAcotX8qHUwumR2bGPNYHoeVZTjShq9ylrBWSfPqoHwpVRch-5IjeRKJ2-S1ihN372Lp0ketueIljv7wD5UWC7WMNSlAGE5OyXKovnanJRRDBIwCRQNE1NqtYSkqZVsgVSkklL9HkZ01ZKs-qwLUcniCtgjgMRD_e4NkP_GltUuDqo37J2h7-23DszRqJv3QiRwntsAPYJOy0Ny0]--></g></svg>