<?xml version="1.0" encoding="us-ascii" standalone="no"?><svg xmlns="http://www.w3.org/2000/svg" xmlns:xlink="http://www.w3.org/1999/xlink" contentStyleType="text/css" height="614px" preserveAspectRatio="none" style="width:577px;height:614px;background:#FFFFFF;" version="1.1" viewBox="0 0 577 614" width="577px" zoomAndPan="magnify"><defs/><g><text fill="#000000" font-family="sans-serif" font-size="14" font-weight="bold" lengthAdjust="spacing" textLength="228" x="175.5" y="30.1074">System Sequence Diagram (SSD)</text><rect fill="#FFFFFF" height="351.832" style="stroke:#181818;stroke-width:1.0;" width="10" x="88" y="151.8633"/><rect fill="#FFFFFF" height="48.582" style="stroke:#181818;stroke-width:1.0;" width="10" x="515" y="175.1543"/><rect fill="#FFFFFF" height="31.291" style="stroke:#181818;stroke-width:1.0;" width="10" x="515" y="255.0273"/><rect fill="#FFFFFF" height="31.291" style="stroke:#181818;stroke-width:1.0;" width="10" x="515" y="370.1914"/><rect fill="#FFFFFF" height="31.291" style="stroke:#181818;stroke-width:1.0;" width="10" x="515" y="456.4043"/><rect fill="none" height="194.377" style="stroke:#000000;stroke-width:1.5;" width="560" x="10" y="301.3184"/><rect fill="none" height="81.873" style="stroke:#000000;stroke-width:1.5;" width="540" x="20" y="327.6094"/><line style="stroke:#181818;stroke-width:0.5;stroke-dasharray:5.0,5.0;" x1="93" x2="93" y1="141.8633" y2="512.6953"/><line style="stroke:#181818;stroke-width:0.5;stroke-dasharray:5.0,5.0;" x1="520" x2="520" y1="141.8633" y2="512.6953"/><text fill="#000000" font-family="sans-serif" font-size="14" lengthAdjust="spacing" textLength="116" x="30" y="119.7285">Human Resources</text><text fill="#000000" font-family="sans-serif" font-size="14" lengthAdjust="spacing" textLength="56" x="62" y="138.3496">Manager</text><ellipse cx="93" cy="53.1211" fill="#E3E3E3" rx="8" ry="8" style="stroke:#181818;stroke-width:0.5;"/><path d="M93,61.1211 L93,88.1211 M80,69.1211 L106,69.1211 M93,88.1211 L80,103.1211 M93,88.1211 L106,103.1211 " fill="none" style="stroke:#181818;stroke-width:0.5;"/><text fill="#000000" font-family="sans-serif" font-size="14" lengthAdjust="spacing" textLength="116" x="30" y="526.8027">Human Resources</text><text fill="#000000" font-family="sans-serif" font-size="14" lengthAdjust="spacing" textLength="56" x="62" y="545.4238">Manager</text><ellipse cx="93" cy="557.4375" fill="#E3E3E3" rx="8" ry="8" style="stroke:#181818;stroke-width:0.5;"/><path d="M93,565.4375 L93,592.4375 M80,573.4375 L106,573.4375 M93,592.4375 L80,607.4375 M93,592.4375 L106,607.4375 " fill="none" style="stroke:#181818;stroke-width:0.5;"/><rect fill="#E3E3E3" height="32.6211" rx="2.5" ry="2.5" style="stroke:#181818;stroke-width:0.5;" width="60" x="490" y="108.2422"/><text fill="#000000" font-family="sans-serif" font-size="14" lengthAdjust="spacing" textLength="46" x="497" y="130.3496">System</text><rect fill="#E3E3E3" height="32.6211" rx="2.5" ry="2.5" style="stroke:#181818;stroke-width:0.5;" width="60" x="490" y="511.6953"/><text fill="#000000" font-family="sans-serif" font-size="14" lengthAdjust="spacing" textLength="46" x="497" y="533.8027">System</text><rect fill="#FFFFFF" height="351.832" style="stroke:#181818;stroke-width:1.0;" width="10" x="88" y="151.8633"/><rect fill="#FFFFFF" height="48.582" style="stroke:#181818;stroke-width:1.0;" width="10" x="515" y="175.1543"/><rect fill="#FFFFFF" height="31.291" style="stroke:#181818;stroke-width:1.0;" width="10" x="515" y="255.0273"/><rect fill="#FFFFFF" height="31.291" style="stroke:#181818;stroke-width:1.0;" width="10" x="515" y="370.1914"/><rect fill="#FFFFFF" height="31.291" style="stroke:#181818;stroke-width:1.0;" width="10" x="515" y="456.4043"/><polygon fill="#181818" points="503,171.1543,513,175.1543,503,179.1543,507,175.1543" style="stroke:#181818;stroke-width:1.0;"/><line style="stroke:#181818;stroke-width:1.0;" x1="98" x2="509" y1="175.1543" y2="175.1543"/><text fill="#000000" font-family="sans-serif" font-size="13" font-weight="bold" lengthAdjust="spacing" textLength="7" x="105" y="169.8916">1</text><text fill="#000000" font-family="sans-serif" font-size="13" lengthAdjust="spacing" textLength="138" x="116" y="169.8916">asks to regist a new job</text><polygon fill="#181818" points="109,219.7363,99,223.7363,109,227.7363,105,223.7363" style="stroke:#181818;stroke-width:1.0;"/><line style="stroke:#181818;stroke-width:1.0;stroke-dasharray:2.0,2.0;" x1="103" x2="519" y1="223.7363" y2="223.7363"/><text fill="#000000" font-family="sans-serif" font-size="13" font-weight="bold" lengthAdjust="spacing" textLength="7" x="115" y="209.8281">2</text><text fill="#000000" font-family="sans-serif" font-size="13" lengthAdjust="spacing" textLength="277" x="126" y="201.1826">requests the job name (i.e.  designer, budgetist,</text><text fill="#000000" font-family="sans-serif" font-size="13" lengthAdjust="spacing" textLength="208" x="130" y="218.4736">gardener, electrician or bricklayer...)</text><polygon fill="#181818" points="503,251.0273,513,255.0273,503,259.0273,507,255.0273" style="stroke:#181818;stroke-width:1.0;"/><line style="stroke:#181818;stroke-width:1.0;" x1="98" x2="509" y1="255.0273" y2="255.0273"/><text fill="#000000" font-family="sans-serif" font-size="13" font-weight="bold" lengthAdjust="spacing" textLength="7" x="105" y="249.7646">3</text><text fill="#000000" font-family="sans-serif" font-size="13" lengthAdjust="spacing" textLength="102" x="116" y="249.7646">types the new job</text><polygon fill="#181818" points="109,282.3184,99,286.3184,109,290.3184,105,286.3184" style="stroke:#181818;stroke-width:1.0;"/><line style="stroke:#181818;stroke-width:1.0;stroke-dasharray:2.0,2.0;" x1="103" x2="519" y1="286.3184" y2="286.3184"/><text fill="#000000" font-family="sans-serif" font-size="13" font-weight="bold" lengthAdjust="spacing" textLength="7" x="115" y="281.0557">4</text><text fill="#000000" font-family="sans-serif" font-size="13" lengthAdjust="spacing" textLength="123" x="126" y="281.0557">list all registered jobs</text><path d="M10,301.3184 L71,301.3184 L71,310.6094 L61,320.6094 L10,320.6094 L10,301.3184 " fill="#EEEEEE" style="stroke:#000000;stroke-width:1.5;"/><rect fill="none" height="194.377" style="stroke:#000000;stroke-width:1.5;" width="560" x="10" y="301.3184"/><text fill="#000000" font-family="sans-serif" font-size="13" font-weight="bold" lengthAdjust="spacing" textLength="16" x="25" y="316.3467">alt</text><text fill="#000000" font-family="sans-serif" font-size="11" font-weight="bold" lengthAdjust="spacing" textLength="234" x="86" y="315.1885">[some invalid job name or duplicate name]</text><path d="M20,327.6094 L93,327.6094 L93,336.9004 L83,346.9004 L20,346.9004 L20,327.6094 " fill="#EEEEEE" style="stroke:#000000;stroke-width:1.5;"/><rect fill="none" height="81.873" style="stroke:#000000;stroke-width:1.5;" width="540" x="20" y="327.6094"/><text fill="#000000" font-family="sans-serif" font-size="13" font-weight="bold" lengthAdjust="spacing" textLength="28" x="35" y="342.6377">loop</text><text fill="#000000" font-family="sans-serif" font-size="11" font-weight="bold" lengthAdjust="spacing" textLength="226" x="108" y="341.4795">[as long as the job name remains invalid]</text><polygon fill="#181818" points="503,366.1914,513,370.1914,503,374.1914,507,370.1914" style="stroke:#181818;stroke-width:1.0;"/><line style="stroke:#181818;stroke-width:1.0;" x1="98" x2="509" y1="370.1914" y2="370.1914"/><text fill="#000000" font-family="sans-serif" font-size="13" font-weight="bold" lengthAdjust="spacing" textLength="7" x="105" y="364.9287">5</text><text fill="#000000" font-family="sans-serif" font-size="13" lengthAdjust="spacing" textLength="184" x="116" y="364.9287">writes the name of the job again</text><polygon fill="#181818" points="109,397.4824,99,401.4824,109,405.4824,105,401.4824" style="stroke:#181818;stroke-width:1.0;"/><line style="stroke:#181818;stroke-width:1.0;stroke-dasharray:2.0,2.0;" x1="103" x2="519" y1="401.4824" y2="401.4824"/><text fill="#000000" font-family="sans-serif" font-size="13" font-weight="bold" lengthAdjust="spacing" textLength="7" x="115" y="396.2197">6</text><text fill="#000000" font-family="sans-serif" font-size="13" lengthAdjust="spacing" textLength="129" x="126" y="396.2197">validates the job name</text><line style="stroke:#000000;stroke-width:1.0;stroke-dasharray:2.0,2.0;" x1="10" x2="570" y1="417.4824" y2="417.4824"/><text fill="#000000" font-family="sans-serif" font-size="11" font-weight="bold" lengthAdjust="spacing" textLength="87" x="15" y="429.3525">[valid job name]</text><polygon fill="#181818" points="503,452.4043,513,456.4043,503,460.4043,507,456.4043" style="stroke:#181818;stroke-width:1.0;"/><line style="stroke:#181818;stroke-width:1.0;" x1="98" x2="509" y1="456.4043" y2="456.4043"/><text fill="#000000" font-family="sans-serif" font-size="13" font-weight="bold" lengthAdjust="spacing" textLength="7" x="105" y="451.1416">7</text><text fill="#000000" font-family="sans-serif" font-size="13" lengthAdjust="spacing" textLength="212" x="116" y="451.1416">confirms the registration of a new job</text><polygon fill="#181818" points="109,483.6953,99,487.6953,109,491.6953,105,487.6953" style="stroke:#181818;stroke-width:1.0;"/><line style="stroke:#181818;stroke-width:1.0;stroke-dasharray:2.0,2.0;" x1="103" x2="519" y1="487.6953" y2="487.6953"/><text fill="#000000" font-family="sans-serif" font-size="13" font-weight="bold" lengthAdjust="spacing" textLength="7" x="115" y="482.4326">8</text><text fill="#000000" font-family="sans-serif" font-size="13" lengthAdjust="spacing" textLength="382" x="126" y="482.4326">show an alert saying that the job has been successfully registered</text><!--SRC=[dPEzKkmm38LxFuLcAvY1F035hIXeQ4YxZU9e4zzrv63BxEJjhvoGN23ypE3AOqj7-exbT7OyOiG1Xi31zZ4C118pcRJTZ6ZFs54jaoU8P0Mvysy3Kezjk3Zku8G-aJ7YH4FhAGaDKDDp9hO4zmwx4dvLr_VNnc2Mm7beAEhUIeXmUCW3CZnH2ZbQId3aHsGj7G-02HwU7eqM56VTY2nmM0hCTyjs5d8lA3G76z2b6xZzipPpfy7d118Kf7D9087f0dz3CmUNjKcickNmDVrMbOhWdQOhLHALwgca0wCwT-KggW1QIgvZYZVGvBOZqK8tHuOEOqlpCNcrCIg8uYfuezkpnubYLLNNMoSjVThBHoAPHbhw-1sAdttm_jKIYjGMbVHJ7-W5KfaNno_eNVlV1aLgy-YTBIdbP9Fo8OpblNpGQS4FxaKQq75QzRQapw0lqSbAFPSyRLhOgSgxv2-zMDVEaxa1N2ki7Uv4zywiDyHB_wGV0jxROxvYie5FBWvBpUKn8eeBNEZsW_ejrOuezU42EcxeAUgxuLJ-g_Ge6s6lxz4GCQHizVUbK_P-UZCKvcVoGct-0G00]--></g></svg>