<?xml version="1.0" encoding="us-ascii" standalone="no"?><svg xmlns="http://www.w3.org/2000/svg" xmlns:xlink="http://www.w3.org/1999/xlink" contentStyleType="text/css" height="501px" preserveAspectRatio="none" style="width:521px;height:501px;background:#FFFFFF;" version="1.1" viewBox="0 0 521 501" width="521px" zoomAndPan="magnify"><defs/><g><text fill="#000000" font-family="sans-serif" font-size="14" font-weight="bold" lengthAdjust="spacing" textLength="228" x="148" y="30.1074">System Sequence Diagram (SSD)</text><rect fill="#FFFFFF" height="239.3281" style="stroke:#181818;stroke-width:1.0;" width="10" x="78" y="151.8633"/><rect fill="#FFFFFF" height="74.873" style="stroke:#181818;stroke-width:1.0;" width="10" x="470" y="175.1543"/><rect fill="#FFFFFF" height="38.291" style="stroke:#181818;stroke-width:1.0;" width="10" x="470" y="281.3184"/><rect fill="#FFFFFF" height="31.291" style="stroke:#181818;stroke-width:1.0;" width="10" x="470" y="350.9004"/><rect fill="none" height="99.1641" style="stroke:#000000;stroke-width:1.5;" width="505" x="10" y="190.1543"/><line style="stroke:#181818;stroke-width:0.5;stroke-dasharray:5.0,5.0;" x1="83" x2="83" y1="141.8633" y2="400.1914"/><line style="stroke:#181818;stroke-width:0.5;stroke-dasharray:5.0,5.0;" x1="475" x2="475" y1="141.8633" y2="400.1914"/><text fill="#000000" font-family="sans-serif" font-size="14" lengthAdjust="spacing" textLength="116" x="20" y="119.7285">Human Resources</text><text fill="#000000" font-family="sans-serif" font-size="14" lengthAdjust="spacing" textLength="56" x="54" y="138.3496">Manager</text><ellipse cx="83" cy="53.1211" fill="#E3E3E3" rx="8" ry="8" style="stroke:#181818;stroke-width:0.5;"/><path d="M83,61.1211 L83,88.1211 M70,69.1211 L96,69.1211 M83,88.1211 L70,103.1211 M83,88.1211 L96,103.1211 " fill="none" style="stroke:#181818;stroke-width:0.5;"/><text fill="#000000" font-family="sans-serif" font-size="14" lengthAdjust="spacing" textLength="116" x="20" y="414.2988">Human Resources</text><text fill="#000000" font-family="sans-serif" font-size="14" lengthAdjust="spacing" textLength="56" x="54" y="432.9199">Manager</text><ellipse cx="83" cy="444.9336" fill="#E3E3E3" rx="8" ry="8" style="stroke:#181818;stroke-width:0.5;"/><path d="M83,452.9336 L83,479.9336 M70,460.9336 L96,460.9336 M83,479.9336 L70,494.9336 M83,479.9336 L96,494.9336 " fill="none" style="stroke:#181818;stroke-width:0.5;"/><rect fill="#E3E3E3" height="32.6211" rx="2.5" ry="2.5" style="stroke:#181818;stroke-width:0.5;" width="60" x="445" y="108.2422"/><text fill="#000000" font-family="sans-serif" font-size="14" lengthAdjust="spacing" textLength="46" x="452" y="130.3496">System</text><rect fill="#E3E3E3" height="32.6211" rx="2.5" ry="2.5" style="stroke:#181818;stroke-width:0.5;" width="60" x="445" y="399.1914"/><text fill="#000000" font-family="sans-serif" font-size="14" lengthAdjust="spacing" textLength="46" x="452" y="421.2988">System</text><rect fill="#FFFFFF" height="239.3281" style="stroke:#181818;stroke-width:1.0;" width="10" x="78" y="151.8633"/><rect fill="#FFFFFF" height="74.873" style="stroke:#181818;stroke-width:1.0;" width="10" x="470" y="175.1543"/><rect fill="#FFFFFF" height="38.291" style="stroke:#181818;stroke-width:1.0;" width="10" x="470" y="281.3184"/><rect fill="#FFFFFF" height="31.291" style="stroke:#181818;stroke-width:1.0;" width="10" x="470" y="350.9004"/><polygon fill="#181818" points="458,171.1543,468,175.1543,458,179.1543,462,175.1543" style="stroke:#181818;stroke-width:1.0;"/><line style="stroke:#181818;stroke-width:1.0;" x1="88" x2="464" y1="175.1543" y2="175.1543"/><text fill="#000000" font-family="sans-serif" font-size="13" font-weight="bold" lengthAdjust="spacing" textLength="7" x="95" y="169.8916">1</text><text fill="#000000" font-family="sans-serif" font-size="13" lengthAdjust="spacing" textLength="138" x="106" y="169.8916">asks to regist a new job</text><path d="M10,190.1543 L83,190.1543 L83,199.4453 L73,209.4453 L10,209.4453 L10,190.1543 " fill="#EEEEEE" style="stroke:#000000;stroke-width:1.5;"/><rect fill="none" height="99.1641" style="stroke:#000000;stroke-width:1.5;" width="505" x="10" y="190.1543"/><text fill="#000000" font-family="sans-serif" font-size="13" font-weight="bold" lengthAdjust="spacing" textLength="28" x="25" y="205.1826">loop</text><text fill="#000000" font-family="sans-serif" font-size="11" font-weight="bold" lengthAdjust="spacing" textLength="90" x="98" y="204.0244">[while intended]</text><polygon fill="#181818" points="99,246.0273,89,250.0273,99,254.0273,95,250.0273" style="stroke:#181818;stroke-width:1.0;"/><line style="stroke:#181818;stroke-width:1.0;stroke-dasharray:2.0,2.0;" x1="93" x2="474" y1="250.0273" y2="250.0273"/><text fill="#000000" font-family="sans-serif" font-size="13" font-weight="bold" lengthAdjust="spacing" textLength="7" x="105" y="236.1191">2</text><text fill="#000000" font-family="sans-serif" font-size="13" lengthAdjust="spacing" textLength="277" x="116" y="227.4736">requests the job name (i.e.  designer, budgetist,</text><text fill="#000000" font-family="sans-serif" font-size="13" lengthAdjust="spacing" textLength="208" x="120" y="244.7646">gardener, electrician or bricklayer...)</text><polygon fill="#181818" points="458,277.3184,468,281.3184,458,285.3184,462,281.3184" style="stroke:#181818;stroke-width:1.0;"/><line style="stroke:#181818;stroke-width:1.0;" x1="88" x2="464" y1="281.3184" y2="281.3184"/><text fill="#000000" font-family="sans-serif" font-size="13" font-weight="bold" lengthAdjust="spacing" textLength="7" x="95" y="276.0557">3</text><text fill="#000000" font-family="sans-serif" font-size="13" lengthAdjust="spacing" textLength="95" x="106" y="276.0557">type the new job</text><polygon fill="#181818" points="99,315.6094,89,319.6094,99,323.6094,95,319.6094" style="stroke:#181818;stroke-width:1.0;"/><line style="stroke:#181818;stroke-width:1.0;stroke-dasharray:2.0,2.0;" x1="93" x2="474" y1="319.6094" y2="319.6094"/><text fill="#000000" font-family="sans-serif" font-size="13" font-weight="bold" lengthAdjust="spacing" textLength="7" x="105" y="314.3467">4</text><text fill="#000000" font-family="sans-serif" font-size="13" lengthAdjust="spacing" textLength="347" x="116" y="314.3467">list all registered jobs and asks to confirm the new typed job</text><polygon fill="#181818" points="458,346.9004,468,350.9004,458,354.9004,462,350.9004" style="stroke:#181818;stroke-width:1.0;"/><line style="stroke:#181818;stroke-width:1.0;" x1="88" x2="464" y1="350.9004" y2="350.9004"/><text fill="#000000" font-family="sans-serif" font-size="13" font-weight="bold" lengthAdjust="spacing" textLength="7" x="95" y="345.6377">5</text><text fill="#000000" font-family="sans-serif" font-size="13" lengthAdjust="spacing" textLength="327" x="106" y="345.6377">confirms the set of registered jobs and the new typed job</text><polygon fill="#181818" points="99,378.1914,89,382.1914,99,386.1914,95,382.1914" style="stroke:#181818;stroke-width:1.0;"/><line style="stroke:#181818;stroke-width:1.0;stroke-dasharray:2.0,2.0;" x1="93" x2="474" y1="382.1914" y2="382.1914"/><text fill="#000000" font-family="sans-serif" font-size="13" font-weight="bold" lengthAdjust="spacing" textLength="7" x="105" y="376.9287">6</text><text fill="#000000" font-family="sans-serif" font-size="13" lengthAdjust="spacing" textLength="158" x="116" y="376.9287">displays operation success</text><!--SRC=[TPAnai8m34JxV8M62cOW7q1n5GKD3Mcl4RO8FXmvPod7yFUd1CWnHt2biPLzkpkHS-0MCpRG94xkb5D3eBcZGiQN5jqPQwhq6WaoEKMku_E2dD2dI-0QZXY5YaA3scfr5QK6AlhkY1t19c3Thy-hQhCe2kmqSTSSADliD6MORRi66VOagSkE13uPTiZ6pZD0WUr-LnXHWmijiiBiHXZURkEW57vGQLWkm8uDiFfuk5dRybb0aoMfWoWWC5tWAns6vV7pXrv_6LDguN8AbYcm4dlom_tZtALNHkbXQvEsoAA6EL4l3OnMwpoKL09uab0pvIKSEb-Jcecb1QqnUngkALh7sK9Q5zRAmSPpn2lbiYmN8zZJfDUfn7fjQR3od7GgRNzdyVwKNfB5eR8Ox-rH9jyh2Y3xiLcN-1XoCo9xlX_1Rup_DtqNkNKef92Eaz1fo2JY9OqFqbgp0gcbZ1eIWtJE_Znvu_GN]--></g></svg>