<?xml version="1.0" encoding="us-ascii" standalone="no"?><svg xmlns="http://www.w3.org/2000/svg" xmlns:xlink="http://www.w3.org/1999/xlink" contentStyleType="text/css" height="484px" preserveAspectRatio="none" style="width:438px;height:484px;background:#FFFFFF;" version="1.1" viewBox="0 0 438 484" width="438px" zoomAndPan="magnify"><defs/><g><text fill="#000000" font-family="sans-serif" font-size="14" font-weight="bold" lengthAdjust="spacing" textLength="228" x="106.5" y="30.1074">System Sequence Diagram (SSD)</text><rect fill="#FFFFFF" height="222.0371" style="stroke:#181818;stroke-width:1.0;" width="10" x="76" y="151.8633"/><rect fill="#FFFFFF" height="57.582" style="stroke:#181818;stroke-width:1.0;" width="10" x="385" y="175.1543"/><rect fill="#FFFFFF" height="38.291" style="stroke:#181818;stroke-width:1.0;" width="10" x="385" y="264.0273"/><rect fill="#FFFFFF" height="31.291" style="stroke:#181818;stroke-width:1.0;" width="10" x="385" y="333.6094"/><rect fill="none" height="81.873" style="stroke:#000000;stroke-width:1.5;" width="422" x="10" y="190.1543"/><line style="stroke:#181818;stroke-width:0.5;stroke-dasharray:5.0,5.0;" x1="81" x2="81" y1="141.8633" y2="382.9004"/><line style="stroke:#181818;stroke-width:0.5;stroke-dasharray:5.0,5.0;" x1="390" x2="390" y1="141.8633" y2="382.9004"/><text fill="#000000" font-family="sans-serif" font-size="14" lengthAdjust="spacing" textLength="116" x="20" y="119.7285">Human Resources</text><text fill="#000000" font-family="sans-serif" font-size="14" lengthAdjust="spacing" textLength="56" x="50" y="138.3496">Manager</text><ellipse cx="81" cy="53.1211" fill="#E3E3E3" rx="8" ry="8" style="stroke:#181818;stroke-width:0.5;"/><path d="M81,61.1211 L81,88.1211 M68,69.1211 L94,69.1211 M81,88.1211 L68,103.1211 M81,88.1211 L94,103.1211 " fill="none" style="stroke:#181818;stroke-width:0.5;"/><text fill="#000000" font-family="sans-serif" font-size="14" lengthAdjust="spacing" textLength="116" x="20" y="397.0078">Human Resources</text><text fill="#000000" font-family="sans-serif" font-size="14" lengthAdjust="spacing" textLength="56" x="50" y="415.6289">Manager</text><ellipse cx="81" cy="427.6426" fill="#E3E3E3" rx="8" ry="8" style="stroke:#181818;stroke-width:0.5;"/><path d="M81,435.6426 L81,462.6426 M68,443.6426 L94,443.6426 M81,462.6426 L68,477.6426 M81,462.6426 L94,477.6426 " fill="none" style="stroke:#181818;stroke-width:0.5;"/><rect fill="#E3E3E3" height="32.6211" rx="2.5" ry="2.5" style="stroke:#181818;stroke-width:0.5;" width="64" x="358" y="108.2422"/><text fill="#000000" font-family="sans-serif" font-size="14" lengthAdjust="spacing" textLength="50" x="365" y="130.3496">:System</text><rect fill="#E3E3E3" height="32.6211" rx="2.5" ry="2.5" style="stroke:#181818;stroke-width:0.5;" width="64" x="358" y="381.9004"/><text fill="#000000" font-family="sans-serif" font-size="14" lengthAdjust="spacing" textLength="50" x="365" y="404.0078">:System</text><rect fill="#FFFFFF" height="222.0371" style="stroke:#181818;stroke-width:1.0;" width="10" x="76" y="151.8633"/><rect fill="#FFFFFF" height="57.582" style="stroke:#181818;stroke-width:1.0;" width="10" x="385" y="175.1543"/><rect fill="#FFFFFF" height="38.291" style="stroke:#181818;stroke-width:1.0;" width="10" x="385" y="264.0273"/><rect fill="#FFFFFF" height="31.291" style="stroke:#181818;stroke-width:1.0;" width="10" x="385" y="333.6094"/><polygon fill="#181818" points="373,171.1543,383,175.1543,373,179.1543,377,175.1543" style="stroke:#181818;stroke-width:1.0;"/><line style="stroke:#181818;stroke-width:1.0;" x1="86" x2="379" y1="175.1543" y2="175.1543"/><text fill="#000000" font-family="sans-serif" font-size="13" font-weight="bold" lengthAdjust="spacing" textLength="7" x="93" y="169.8916">1</text><text fill="#000000" font-family="sans-serif" font-size="13" lengthAdjust="spacing" textLength="144" x="104" y="169.8916">asks to regist a new skill</text><path d="M10,190.1543 L83,190.1543 L83,199.4453 L73,209.4453 L10,209.4453 L10,190.1543 " fill="#EEEEEE" style="stroke:#000000;stroke-width:1.5;"/><rect fill="none" height="81.873" style="stroke:#000000;stroke-width:1.5;" width="422" x="10" y="190.1543"/><text fill="#000000" font-family="sans-serif" font-size="13" font-weight="bold" lengthAdjust="spacing" textLength="28" x="25" y="205.1826">loop</text><text fill="#000000" font-family="sans-serif" font-size="11" font-weight="bold" lengthAdjust="spacing" textLength="90" x="98" y="204.0244">[while intended]</text><polygon fill="#181818" points="97,228.7363,87,232.7363,97,236.7363,93,232.7363" style="stroke:#181818;stroke-width:1.0;"/><line style="stroke:#181818;stroke-width:1.0;stroke-dasharray:2.0,2.0;" x1="91" x2="389" y1="232.7363" y2="232.7363"/><text fill="#000000" font-family="sans-serif" font-size="13" font-weight="bold" lengthAdjust="spacing" textLength="7" x="103" y="227.4736">2</text><text fill="#000000" font-family="sans-serif" font-size="13" lengthAdjust="spacing" textLength="135" x="114" y="227.4736">requests the skill name</text><polygon fill="#181818" points="373,260.0273,383,264.0273,373,268.0273,377,264.0273" style="stroke:#181818;stroke-width:1.0;"/><line style="stroke:#181818;stroke-width:1.0;" x1="86" x2="379" y1="264.0273" y2="264.0273"/><text fill="#000000" font-family="sans-serif" font-size="13" font-weight="bold" lengthAdjust="spacing" textLength="7" x="93" y="258.7646">3</text><text fill="#000000" font-family="sans-serif" font-size="13" lengthAdjust="spacing" textLength="144" x="104" y="258.7646">types the new skill name</text><polygon fill="#181818" points="97,298.3184,87,302.3184,97,306.3184,93,302.3184" style="stroke:#181818;stroke-width:1.0;"/><line style="stroke:#181818;stroke-width:1.0;stroke-dasharray:2.0,2.0;" x1="91" x2="389" y1="302.3184" y2="302.3184"/><text fill="#000000" font-family="sans-serif" font-size="13" font-weight="bold" lengthAdjust="spacing" textLength="7" x="103" y="297.0557">4</text><text fill="#000000" font-family="sans-serif" font-size="13" lengthAdjust="spacing" textLength="264" x="114" y="297.0557">show all the skills registed and aks to confirm</text><polygon fill="#181818" points="373,329.6094,383,333.6094,373,337.6094,377,333.6094" style="stroke:#181818;stroke-width:1.0;"/><line style="stroke:#181818;stroke-width:1.0;" x1="86" x2="379" y1="333.6094" y2="333.6094"/><text fill="#000000" font-family="sans-serif" font-size="13" font-weight="bold" lengthAdjust="spacing" textLength="7" x="93" y="328.3467">5</text><text fill="#000000" font-family="sans-serif" font-size="13" lengthAdjust="spacing" textLength="184" x="104" y="328.3467">confirm the set of skills registed</text><polygon fill="#181818" points="97,360.9004,87,364.9004,97,368.9004,93,364.9004" style="stroke:#181818;stroke-width:1.0;"/><line style="stroke:#181818;stroke-width:1.0;stroke-dasharray:2.0,2.0;" x1="91" x2="389" y1="364.9004" y2="364.9004"/><text fill="#000000" font-family="sans-serif" font-size="13" font-weight="bold" lengthAdjust="spacing" textLength="7" x="103" y="359.6377">6</text><text fill="#000000" font-family="sans-serif" font-size="13" lengthAdjust="spacing" textLength="158" x="114" y="359.6377">displays operation success</text><!--SRC=[TPA_ReD03CPtdiBAr0vzWGoTCcJ94jOkxk70AM3JiodYxMkuXBRvSnAIvVlkztssq7Fa7XDsq0bBQ99q19O6AdIzwJ6SiQRIffOWKJ3aklqhq0Oh6IFNSC9MgIWicalBIOqwAEbh80u4kuZrB7yfozrhKU1WmaFtISdhO99WinywP3YIof02wGSVaDqvRG0LziT3uNuMG-oH3JRRRB1Svd81nMyqMjG5-F42tjwlOROkFYkO-21rL0C4fX5ybhPTv2lWIfoRhKWFOnDzgCX6N56rzA_d0dzpdzbkwt2VMSsD6ifmOEneVLJHGvz7UMtgANFMeFzPjwIvvn5_YNVfj94Hq3bhEhsiWof0zY-lA0YVOih49ublqrwUP38PoEdMuFcMxt9MKViM9mNfAQ55OT0X-8-XpoBz0000]--></g></svg>