<?xml version="1.0" encoding="UTF-8" standalone="no"?><svg xmlns="http://www.w3.org/2000/svg" xmlns:xlink="http://www.w3.org/1999/xlink" contentStyleType="text/css" height="601px" preserveAspectRatio="none" style="width:638px;height:601px;background:#FFFFFF;" version="1.1" viewBox="0 0 638 601" width="638px" zoomAndPan="magnify"><defs/><g><text fill="#000000" font-family="sans-serif" font-size="14" font-weight="bold" lengthAdjust="spacing" textLength="224" x="208.75" y="29.9659">System Sequence Diagram (SSD)</text><rect fill="#FFFFFF" height="303.9198" style="stroke:#181818;stroke-width:1.0;" width="10" x="103" y="169.5479"/><rect fill="#FFFFFF" height="89.7199" style="stroke:#181818;stroke-width:1.0;" width="10" x="574" y="202.7878"/><rect fill="#FFFFFF" height="48.24" style="stroke:#181818;stroke-width:1.0;" width="10" x="574" y="333.7477"/><rect fill="#FFFFFF" height="41.24" style="stroke:#181818;stroke-width:1.0;" width="10" x="574" y="423.2277"/><rect fill="none" height="123.9599" style="stroke:#000000;stroke-width:1.5;" width="622.5" x="10" y="217.7878"/><line style="stroke:#181818;stroke-width:0.5;stroke-dasharray:5.0,5.0;" x1="108" x2="108" y1="159.5479" y2="482.4677"/><line style="stroke:#181818;stroke-width:0.5;stroke-dasharray:5.0,5.0;" x1="578.5" x2="578.5" y1="159.5479" y2="482.4677"/><text fill="#000000" font-family="sans-serif" font-size="20" lengthAdjust="spacing" textLength="170" x="20" y="126.4479">Human Resources</text><text fill="#000000" font-family="sans-serif" font-size="20" lengthAdjust="spacing" textLength="83" x="63.5" y="153.6879">Manager</text><ellipse cx="108" cy="53.5679" fill="#E3E3E3" rx="8" ry="8" style="stroke:#181818;stroke-width:0.5;"/><path d="M108,61.5679 L108,88.5679 M95,69.5679 L121,69.5679 M108,88.5679 L95,103.5679 M108,88.5679 L121,103.5679 " fill="none" style="stroke:#181818;stroke-width:0.5;"/><text fill="#000000" font-family="sans-serif" font-size="20" lengthAdjust="spacing" textLength="170" x="20" y="502.8476">Human Resources</text><text fill="#000000" font-family="sans-serif" font-size="20" lengthAdjust="spacing" textLength="83" x="63.5" y="530.0876">Manager</text><ellipse cx="108" cy="544.4476" fill="#E3E3E3" rx="8" ry="8" style="stroke:#181818;stroke-width:0.5;"/><path d="M108,552.4476 L108,579.4476 M95,560.4476 L121,560.4476 M108,579.4476 L95,594.4476 M108,579.4476 L121,594.4476 " fill="none" style="stroke:#181818;stroke-width:0.5;"/><rect fill="#E3E3E3" height="41.24" rx="2.5" ry="2.5" style="stroke:#181818;stroke-width:0.5;" width="87" x="535.5" y="117.3079"/><text fill="#000000" font-family="sans-serif" font-size="20" lengthAdjust="spacing" textLength="73" x="542.5" y="145.6879">:System</text><rect fill="#E3E3E3" height="41.24" rx="2.5" ry="2.5" style="stroke:#181818;stroke-width:0.5;" width="87" x="535.5" y="481.4677"/><text fill="#000000" font-family="sans-serif" font-size="20" lengthAdjust="spacing" textLength="73" x="542.5" y="509.8476">:System</text><rect fill="#FFFFFF" height="303.9198" style="stroke:#181818;stroke-width:1.0;" width="10" x="103" y="169.5479"/><rect fill="#FFFFFF" height="89.7199" style="stroke:#181818;stroke-width:1.0;" width="10" x="574" y="202.7878"/><rect fill="#FFFFFF" height="48.24" style="stroke:#181818;stroke-width:1.0;" width="10" x="574" y="333.7477"/><rect fill="#FFFFFF" height="41.24" style="stroke:#181818;stroke-width:1.0;" width="10" x="574" y="423.2277"/><polygon fill="#181818" points="562,198.7878,572,202.7878,562,206.7878,566,202.7878" style="stroke:#181818;stroke-width:1.0;"/><line style="stroke:#181818;stroke-width:1.0;" x1="113" x2="568" y1="202.7878" y2="202.7878"/><text fill="#000000" font-family="sans-serif" font-size="20" font-weight="bold" lengthAdjust="spacing" textLength="11" x="120" y="194.9278">1</text><text fill="#000000" font-family="sans-serif" font-size="20" lengthAdjust="spacing" textLength="225" x="135" y="194.9278">asks to regist a new skill</text><path d="M10,217.7878 L98,217.7878 L98,237.0278 L88,247.0278 L10,247.0278 L10,217.7878 " fill="#EEEEEE" style="stroke:#000000;stroke-width:1.5;"/><rect fill="none" height="123.9599" style="stroke:#000000;stroke-width:1.5;" width="622.5" x="10" y="217.7878"/><text fill="#000000" font-family="sans-serif" font-size="20" font-weight="bold" lengthAdjust="spacing" textLength="43" x="25" y="240.1678">loop</text><text fill="#000000" font-family="sans-serif" font-size="20" font-weight="bold" lengthAdjust="spacing" textLength="164" x="113" y="241.1678">[while intended]</text><polygon fill="#181818" points="124,288.5078,114,292.5078,124,296.5078,120,292.5078" style="stroke:#181818;stroke-width:1.0;"/><line style="stroke:#181818;stroke-width:1.0;stroke-dasharray:2.0,2.0;" x1="118" x2="578" y1="292.5078" y2="292.5078"/><text fill="#000000" font-family="sans-serif" font-size="20" font-weight="bold" lengthAdjust="spacing" textLength="11" x="130" y="284.6478">2</text><text fill="#000000" font-family="sans-serif" font-size="20" lengthAdjust="spacing" textLength="215" x="145" y="284.6478">requests the skill name</text><polygon fill="#181818" points="562,329.7477,572,333.7477,562,337.7477,566,333.7477" style="stroke:#181818;stroke-width:1.0;"/><line style="stroke:#181818;stroke-width:1.0;" x1="113" x2="568" y1="333.7477" y2="333.7477"/><text fill="#000000" font-family="sans-serif" font-size="20" font-weight="bold" lengthAdjust="spacing" textLength="11" x="120" y="325.8877">3</text><text fill="#000000" font-family="sans-serif" font-size="20" lengthAdjust="spacing" textLength="228" x="135" y="325.8877">types the new skill name</text><polygon fill="#181818" points="124,377.9877,114,381.9877,124,385.9877,120,381.9877" style="stroke:#181818;stroke-width:1.0;"/><line style="stroke:#181818;stroke-width:1.0;stroke-dasharray:2.0,2.0;" x1="118" x2="578" y1="381.9877" y2="381.9877"/><text fill="#000000" font-family="sans-serif" font-size="20" font-weight="bold" lengthAdjust="spacing" textLength="11" x="130" y="374.1277">4</text><text fill="#000000" font-family="sans-serif" font-size="20" lengthAdjust="spacing" textLength="422" x="145" y="374.1277">show all the skills registed and aks to confirm</text><polygon fill="#181818" points="562,419.2277,572,423.2277,562,427.2277,566,423.2277" style="stroke:#181818;stroke-width:1.0;"/><line style="stroke:#181818;stroke-width:1.0;" x1="113" x2="568" y1="423.2277" y2="423.2277"/><text fill="#000000" font-family="sans-serif" font-size="20" font-weight="bold" lengthAdjust="spacing" textLength="11" x="120" y="415.3677">5</text><text fill="#000000" font-family="sans-serif" font-size="20" lengthAdjust="spacing" textLength="297" x="135" y="415.3677">confirm the set of skills registed</text><polygon fill="#181818" points="124,460.4677,114,464.4677,124,468.4677,120,464.4677" style="stroke:#181818;stroke-width:1.0;"/><line style="stroke:#181818;stroke-width:1.0;stroke-dasharray:2.0,2.0;" x1="118" x2="578" y1="464.4677" y2="464.4677"/><text fill="#000000" font-family="sans-serif" font-size="20" font-weight="bold" lengthAdjust="spacing" textLength="11" x="130" y="456.6077">6</text><text fill="#000000" font-family="sans-serif" font-size="20" lengthAdjust="spacing" textLength="248" x="145" y="456.6077">displays operation success</text><!--SRC=[TPAzRiCm38HtFmMHgHq251qpT0gAB5dYjGihCxOGcNH5kaRwz6Ni94tp8q20G9s-EnBINUGECxP9meugg6YBVR9tOIlZ3y7hIw4d2RJ24feiBO7bdYvkEWmxhAcqVIB850ovJfS2RR2I8N8DMqnAHM7HN5hkrQY5ahvwua2mZ5WVv4zbkNmk2knDk6y_AVivc6IOhVeM6JQaqkT0-i5hP7VECq25rMPTk9_543jaWzbYCXWlf-C8YjzeDAeByEK7cB-TmYnSl5CmyKRgg0O8J0DuBocDyZFWH3mKaqW7GnEzgSX6N54rra_h29-xpy5kuN3lMSsD6fhWmDZI-L55TttkvRLzHnFd7FG_wvfqg7d4F-9DEcra07JEEPqUn-6V1DdtDA8Wl8rv8Zv8V9ts-6GYau5ihmqUJ_acPnMrIxXNa8uoMXG6xOD_37qKwHS0]--></g></svg>