<?xml version="1.0" encoding="UTF-8" standalone="no"?><svg xmlns="http://www.w3.org/2000/svg" xmlns:xlink="http://www.w3.org/1999/xlink" contentStyleType="text/css" height="1856px" preserveAspectRatio="none" style="width:3062px;height:1856px;background:#FFFFFF;" version="1.1" viewBox="0 0 3062 1856" width="3062px" zoomAndPan="magnify"><defs/><g><rect fill="#FFFFFF" height="1644.839" style="stroke:#181818;stroke-width:1.0;" width="10" x="147" y="102.24"/><rect fill="#FFFFFF" height="554.3596" style="stroke:#181818;stroke-width:1.0;" width="10" x="677" y="135.4799"/><rect fill="#FFFFFF" height="313.9198" style="stroke:#181818;stroke-width:1.0;" width="10" x="677" y="731.0796"/><rect fill="#FFFFFF" height="496.6397" style="stroke:#181818;stroke-width:1.0;" width="10" x="677" y="1167.9593"/><rect fill="#FFFFFF" height="41.24" style="stroke:#181818;stroke-width:1.0;" width="10" x="677" y="1705.839"/><rect fill="#FFFFFF" height="371.1598" style="stroke:#181818;stroke-width:1.0;" width="10" x="975" y="228.9599"/><rect fill="#FFFFFF" height="149.7199" style="stroke:#181818;stroke-width:1.0;" width="10" x="975" y="772.3195"/><rect fill="#FFFFFF" height="52.24" style="stroke:#181818;stroke-width:1.0;" width="10" x="980" y="821.5595"/><rect fill="#FFFFFF" height="414.1598" style="stroke:#181818;stroke-width:1.0;" width="10" x="975" y="1209.1992"/><rect fill="#FFFFFF" height="41.24" style="stroke:#181818;stroke-width:1.0;" width="10" x="1194.5" y="270.1999"/><rect fill="#FFFFFF" height="41.24" style="stroke:#181818;stroke-width:1.0;" width="10" x="1338.5" y="352.6798"/><rect fill="#FFFFFF" height="41.24" style="stroke:#181818;stroke-width:1.0;" width="10" x="1338.5" y="435.1598"/><rect fill="#FFFFFF" height="41.24" style="stroke:#181818;stroke-width:1.0;" width="10" x="1534" y="517.6397"/><rect fill="#FFFFFF" height="331.6798" style="stroke:#181818;stroke-width:1.0;" width="10" x="1784.5" y="1250.4392"/><rect fill="#FFFFFF" height="123.7199" style="stroke:#181818;stroke-width:1.0;" width="10" x="2403.5" y="1301.6792"/><rect fill="none" height="926.7594" style="stroke:#000000;stroke-width:1.5;" width="3046.5" x="10" y="615.1197"/><line style="stroke:#181818;stroke-width:0.5;stroke-dasharray:5.0,5.0;" x1="152" x2="152" y1="92.24" y2="1765.0789"/><line style="stroke:#181818;stroke-width:0.5;stroke-dasharray:5.0,5.0;" x1="682" x2="682" y1="92.24" y2="1765.0789"/><line style="stroke:#181818;stroke-width:0.5;stroke-dasharray:5.0,5.0;" x1="979.5" x2="979.5" y1="179.5999" y2="1765.0789"/><line style="stroke:#181818;stroke-width:0.5;stroke-dasharray:5.0,5.0;" x1="1199.5" x2="1199.5" y1="92.24" y2="1765.0789"/><line style="stroke:#181818;stroke-width:0.5;stroke-dasharray:5.0,5.0;" x1="1343.5" x2="1343.5" y1="92.24" y2="1765.0789"/><line style="stroke:#181818;stroke-width:0.5;stroke-dasharray:5.0,5.0;" x1="1538.5" x2="1538.5" y1="92.24" y2="1765.0789"/><line style="stroke:#181818;stroke-width:0.5;stroke-dasharray:5.0,5.0;" x1="1789.5" x2="1789.5" y1="92.24" y2="1765.0789"/><line style="stroke:#181818;stroke-width:0.5;stroke-dasharray:5.0,5.0;" x1="2408" x2="2408" y1="1308.1792" y2="1765.0789"/><text fill="#000000" font-family="sans-serif" font-size="20" lengthAdjust="spacing" textLength="258" x="20" y="86.38">Human Resources Manager</text><ellipse cx="152" cy="13.5" fill="#E3E3E3" rx="8" ry="8" style="stroke:#181818;stroke-width:0.5;"/><path d="M152,21.5 L152,48.5 M139,29.5 L165,29.5 M152,48.5 L139,63.5 M152,48.5 L165,63.5 " fill="none" style="stroke:#181818;stroke-width:0.5;"/><text fill="#000000" font-family="sans-serif" font-size="20" lengthAdjust="spacing" textLength="258" x="20" y="1785.4589">Human Resources Manager</text><ellipse cx="152" cy="1799.8189" fill="#E3E3E3" rx="8" ry="8" style="stroke:#181818;stroke-width:0.5;"/><path d="M152,1807.8189 L152,1834.8189 M139,1815.8189 L165,1815.8189 M152,1834.8189 L139,1849.8189 M152,1834.8189 L165,1849.8189 " fill="none" style="stroke:#181818;stroke-width:0.5;"/><rect fill="#E3E3E3" height="41.24" rx="2.5" ry="2.5" style="stroke:#181818;stroke-width:0.5;" width="214" x="575" y="50"/><text fill="#000000" font-family="sans-serif" font-size="20" lengthAdjust="spacing" textLength="200" x="582" y="78.38">:RegistCollaboratorUI</text><rect fill="#E3E3E3" height="41.24" rx="2.5" ry="2.5" style="stroke:#181818;stroke-width:0.5;" width="214" x="575" y="1764.0789"/><text fill="#000000" font-family="sans-serif" font-size="20" lengthAdjust="spacing" textLength="200" x="582" y="1792.4589">:RegistCollaboratorUI</text><rect fill="#E3E3E3" height="41.24" rx="2.5" ry="2.5" style="stroke:#181818;stroke-width:0.5;" width="285" x="837.5" y="1764.0789"/><text fill="#000000" font-family="sans-serif" font-size="20" lengthAdjust="spacing" textLength="271" x="844.5" y="1792.4589">:RegistCollaboratorController</text><rect fill="#E3E3E3" height="41.24" rx="2.5" ry="2.5" style="stroke:#181818;stroke-width:0.5;" width="134" x="1132.5" y="50"/><text fill="#000000" font-family="sans-serif" font-size="20" lengthAdjust="spacing" textLength="120" x="1139.5" y="78.38">:Repositories</text><rect fill="#E3E3E3" height="41.24" rx="2.5" ry="2.5" style="stroke:#181818;stroke-width:0.5;" width="134" x="1132.5" y="1764.0789"/><text fill="#000000" font-family="sans-serif" font-size="20" lengthAdjust="spacing" textLength="120" x="1139.5" y="1792.4589">:Repositories</text><rect fill="#E3E3E3" height="68.4799" rx="2.5" ry="2.5" style="stroke:#181818;stroke-width:0.5;" width="134" x="1276.5" y="22.76"/><text fill="#000000" font-family="sans-serif" font-size="20" lengthAdjust="spacing" textLength="111" x="1288" y="51.14">repositories</text><text fill="#000000" font-family="sans-serif" font-size="20" lengthAdjust="spacing" textLength="120" x="1283.5" y="78.38">:Repositories</text><rect fill="#E3E3E3" height="68.4799" rx="2.5" ry="2.5" style="stroke:#181818;stroke-width:0.5;" width="134" x="1276.5" y="1764.0789"/><text fill="#000000" font-family="sans-serif" font-size="20" lengthAdjust="spacing" textLength="111" x="1288" y="1792.4589">repositories</text><text fill="#000000" font-family="sans-serif" font-size="20" lengthAdjust="spacing" textLength="120" x="1283.5" y="1819.6989">:Repositories</text><rect fill="#E3E3E3" height="68.4799" rx="2.5" ry="2.5" style="stroke:#181818;stroke-width:0.5;" width="237" x="1420.5" y="22.76"/><text fill="#000000" font-family="sans-serif" font-size="20" lengthAdjust="spacing" textLength="223" x="1427.5" y="51.14">RegistedJobsRepository:</text><text fill="#000000" font-family="sans-serif" font-size="20" lengthAdjust="spacing" textLength="218" x="1430" y="78.38">RegistedJobsRepository</text><rect fill="#E3E3E3" height="68.4799" rx="2.5" ry="2.5" style="stroke:#181818;stroke-width:0.5;" width="237" x="1420.5" y="1764.0789"/><text fill="#000000" font-family="sans-serif" font-size="20" lengthAdjust="spacing" textLength="223" x="1427.5" y="1792.4589">RegistedJobsRepository:</text><text fill="#000000" font-family="sans-serif" font-size="20" lengthAdjust="spacing" textLength="218" x="1430" y="1819.6989">RegistedJobsRepository</text><rect fill="#E3E3E3" height="68.4799" rx="2.5" ry="2.5" style="stroke:#181818;stroke-width:0.5;" width="244" x="1667.5" y="22.76"/><text fill="#000000" font-family="sans-serif" font-size="20" lengthAdjust="spacing" textLength="230" x="1674.5" y="51.14">CollaboratorsRepository:</text><text fill="#000000" font-family="sans-serif" font-size="20" lengthAdjust="spacing" textLength="225" x="1677" y="78.38">CollaboratorsRepository</text><rect fill="#E3E3E3" height="68.4799" rx="2.5" ry="2.5" style="stroke:#181818;stroke-width:0.5;" width="244" x="1667.5" y="1764.0789"/><text fill="#000000" font-family="sans-serif" font-size="20" lengthAdjust="spacing" textLength="230" x="1674.5" y="1792.4589">CollaboratorsRepository:</text><text fill="#000000" font-family="sans-serif" font-size="20" lengthAdjust="spacing" textLength="225" x="1677" y="1819.6989">CollaboratorsRepository</text><rect fill="#E3E3E3" height="68.4799" rx="2.5" ry="2.5" style="stroke:#181818;stroke-width:0.5;" width="271" x="2273" y="1764.0789"/><text fill="#000000" font-family="sans-serif" font-size="20" lengthAdjust="spacing" textLength="257" x="2280" y="1792.4589">fundamentalCharacteristics</text><text fill="#000000" font-family="sans-serif" font-size="20" lengthAdjust="spacing" textLength="121" x="2348" y="1819.6989">:Collaborator</text><rect fill="#FFFFFF" height="1644.839" style="stroke:#181818;stroke-width:1.0;" width="10" x="147" y="102.24"/><rect fill="#FFFFFF" height="554.3596" style="stroke:#181818;stroke-width:1.0;" width="10" x="677" y="135.4799"/><rect fill="#FFFFFF" height="313.9198" style="stroke:#181818;stroke-width:1.0;" width="10" x="677" y="731.0796"/><rect fill="#FFFFFF" height="496.6397" style="stroke:#181818;stroke-width:1.0;" width="10" x="677" y="1167.9593"/><rect fill="#FFFFFF" height="41.24" style="stroke:#181818;stroke-width:1.0;" width="10" x="677" y="1705.839"/><rect fill="#FFFFFF" height="371.1598" style="stroke:#181818;stroke-width:1.0;" width="10" x="975" y="228.9599"/><rect fill="#FFFFFF" height="149.7199" style="stroke:#181818;stroke-width:1.0;" width="10" x="975" y="772.3195"/><rect fill="#FFFFFF" height="52.24" style="stroke:#181818;stroke-width:1.0;" width="10" x="980" y="821.5595"/><rect fill="#FFFFFF" height="414.1598" style="stroke:#181818;stroke-width:1.0;" width="10" x="975" y="1209.1992"/><rect fill="#FFFFFF" height="41.24" style="stroke:#181818;stroke-width:1.0;" width="10" x="1194.5" y="270.1999"/><rect fill="#FFFFFF" height="41.24" style="stroke:#181818;stroke-width:1.0;" width="10" x="1338.5" y="352.6798"/><rect fill="#FFFFFF" height="41.24" style="stroke:#181818;stroke-width:1.0;" width="10" x="1338.5" y="435.1598"/><rect fill="#FFFFFF" height="41.24" style="stroke:#181818;stroke-width:1.0;" width="10" x="1534" y="517.6397"/><rect fill="#FFFFFF" height="331.6798" style="stroke:#181818;stroke-width:1.0;" width="10" x="1784.5" y="1250.4392"/><rect fill="#FFFFFF" height="123.7199" style="stroke:#181818;stroke-width:1.0;" width="10" x="2403.5" y="1301.6792"/><polygon fill="#181818" points="665,131.4799,675,135.4799,665,139.4799,669,135.4799" style="stroke:#181818;stroke-width:1.0;"/><line style="stroke:#181818;stroke-width:1.0;" x1="157" x2="671" y1="135.4799" y2="135.4799"/><text fill="#000000" font-family="sans-serif" font-size="20" font-weight="bold" lengthAdjust="spacing" textLength="11" x="164" y="127.62">1</text><text fill="#000000" font-family="sans-serif" font-size="20" lengthAdjust="spacing" textLength="302" x="179" y="127.62">asks to regist a new collaborator</text><polygon fill="#181818" points="825.5,172.7199,835.5,176.7199,825.5,180.7199,829.5,176.7199" style="stroke:#181818;stroke-width:1.0;"/><line style="stroke:#181818;stroke-width:1.0;" x1="687" x2="831.5" y1="176.7199" y2="176.7199"/><text fill="#000000" font-family="sans-serif" font-size="20" font-weight="bold" lengthAdjust="spacing" textLength="11" x="694" y="168.8599">2</text><text fill="#000000" font-family="sans-serif" font-size="20" lengthAdjust="spacing" textLength="58" x="709" y="168.8599">create</text><rect fill="#E3E3E3" height="41.24" rx="2.5" ry="2.5" style="stroke:#181818;stroke-width:0.5;" width="285" x="837.5" y="143.4799"/><text fill="#000000" font-family="sans-serif" font-size="20" lengthAdjust="spacing" textLength="271" x="844.5" y="171.8599">:RegistCollaboratorController</text><polygon fill="#181818" points="963,224.9599,973,228.9599,963,232.9599,967,228.9599" style="stroke:#181818;stroke-width:1.0;"/><line style="stroke:#181818;stroke-width:1.0;" x1="687" x2="969" y1="228.9599" y2="228.9599"/><text fill="#000000" font-family="sans-serif" font-size="20" font-weight="bold" lengthAdjust="spacing" textLength="11" x="694" y="221.0999">3</text><text fill="#000000" font-family="sans-serif" font-size="20" lengthAdjust="spacing" textLength="81" x="709" y="221.0999">getJobs()</text><polygon fill="#181818" points="1182.5,266.1999,1192.5,270.1999,1182.5,274.1999,1186.5,270.1999" style="stroke:#181818;stroke-width:1.0;"/><line style="stroke:#181818;stroke-width:1.0;" x1="985" x2="1188.5" y1="270.1999" y2="270.1999"/><text fill="#000000" font-family="sans-serif" font-size="20" font-weight="bold" lengthAdjust="spacing" textLength="11" x="992" y="262.3399">4</text><text fill="#000000" font-family="sans-serif" font-size="20" lengthAdjust="spacing" textLength="122" x="1007" y="262.3399">getInstance()</text><polygon fill="#181818" points="996,307.4398,986,311.4398,996,315.4398,992,311.4398" style="stroke:#181818;stroke-width:1.0;"/><line style="stroke:#181818;stroke-width:1.0;stroke-dasharray:2.0,2.0;" x1="990" x2="1198.5" y1="311.4398" y2="311.4398"/><text fill="#000000" font-family="sans-serif" font-size="20" font-weight="bold" lengthAdjust="spacing" textLength="11" x="1002" y="303.5799">5</text><text fill="#000000" font-family="sans-serif" font-size="20" lengthAdjust="spacing" textLength="111" x="1017" y="303.5799">repositories</text><polygon fill="#181818" points="1326.5,348.6798,1336.5,352.6798,1326.5,356.6798,1330.5,352.6798" style="stroke:#181818;stroke-width:1.0;"/><line style="stroke:#181818;stroke-width:1.0;" x1="985" x2="1332.5" y1="352.6798" y2="352.6798"/><text fill="#000000" font-family="sans-serif" font-size="20" font-weight="bold" lengthAdjust="spacing" textLength="11" x="992" y="344.8198">6</text><text fill="#000000" font-family="sans-serif" font-size="20" lengthAdjust="spacing" textLength="260" x="1007" y="344.8198">getRegistedJobsRepository()</text><polygon fill="#181818" points="996,389.9198,986,393.9198,996,397.9198,992,393.9198" style="stroke:#181818;stroke-width:1.0;"/><line style="stroke:#181818;stroke-width:1.0;stroke-dasharray:2.0,2.0;" x1="990" x2="1342.5" y1="393.9198" y2="393.9198"/><text fill="#000000" font-family="sans-serif" font-size="20" font-weight="bold" lengthAdjust="spacing" textLength="11" x="1002" y="386.0598">7</text><text fill="#000000" font-family="sans-serif" font-size="20" lengthAdjust="spacing" textLength="214" x="1017" y="386.0598">registedJobsRepository</text><polygon fill="#181818" points="1326.5,431.1598,1336.5,435.1598,1326.5,439.1598,1330.5,435.1598" style="stroke:#181818;stroke-width:1.0;"/><line style="stroke:#181818;stroke-width:1.0;" x1="985" x2="1332.5" y1="435.1598" y2="435.1598"/><text fill="#000000" font-family="sans-serif" font-size="20" font-weight="bold" lengthAdjust="spacing" textLength="11" x="992" y="427.2998">8</text><text fill="#000000" font-family="sans-serif" font-size="20" lengthAdjust="spacing" textLength="267" x="1007" y="427.2998">getCollaboratorsRepository()</text><polygon fill="#181818" points="996,472.3997,986,476.3997,996,480.3997,992,476.3997" style="stroke:#181818;stroke-width:1.0;"/><line style="stroke:#181818;stroke-width:1.0;stroke-dasharray:2.0,2.0;" x1="990" x2="1342.5" y1="476.3997" y2="476.3997"/><text fill="#000000" font-family="sans-serif" font-size="20" font-weight="bold" lengthAdjust="spacing" textLength="11" x="1002" y="468.5398">9</text><text fill="#000000" font-family="sans-serif" font-size="20" lengthAdjust="spacing" textLength="225" x="1017" y="468.5398">CollaboratorsRepository</text><polygon fill="#181818" points="1522,513.6397,1532,517.6397,1522,521.6397,1526,517.6397" style="stroke:#181818;stroke-width:1.0;"/><line style="stroke:#181818;stroke-width:1.0;" x1="985" x2="1528" y1="517.6397" y2="517.6397"/><text fill="#000000" font-family="sans-serif" font-size="20" font-weight="bold" lengthAdjust="spacing" textLength="22" x="992" y="509.7797">10</text><text fill="#000000" font-family="sans-serif" font-size="20" lengthAdjust="spacing" textLength="104" x="1018" y="509.7797">getAllJobs()</text><polygon fill="#181818" points="996,554.8797,986,558.8797,996,562.8797,992,558.8797" style="stroke:#181818;stroke-width:1.0;"/><line style="stroke:#181818;stroke-width:1.0;stroke-dasharray:2.0,2.0;" x1="990" x2="1538" y1="558.8797" y2="558.8797"/><text fill="#000000" font-family="sans-serif" font-size="20" font-weight="bold" lengthAdjust="spacing" textLength="22" x="1002" y="551.0197">11</text><text fill="#000000" font-family="sans-serif" font-size="20" lengthAdjust="spacing" textLength="60" x="1028" y="551.0197">allJobs</text><polygon fill="#181818" points="698,596.1197,688,600.1197,698,604.1197,694,600.1197" style="stroke:#181818;stroke-width:1.0;"/><line style="stroke:#181818;stroke-width:1.0;stroke-dasharray:2.0,2.0;" x1="692" x2="979" y1="600.1197" y2="600.1197"/><text fill="#000000" font-family="sans-serif" font-size="20" font-weight="bold" lengthAdjust="spacing" textLength="22" x="704" y="592.2597">12</text><text fill="#000000" font-family="sans-serif" font-size="20" lengthAdjust="spacing" textLength="39" x="730" y="592.2597">jobs</text><path d="M10,615.1197 L98,615.1197 L98,634.3596 L88,644.3596 L10,644.3596 L10,615.1197 " fill="#EEEEEE" style="stroke:#000000;stroke-width:1.5;"/><rect fill="none" height="926.7594" style="stroke:#000000;stroke-width:1.5;" width="3046.5" x="10" y="615.1197"/><text fill="#000000" font-family="sans-serif" font-size="20" font-weight="bold" lengthAdjust="spacing" textLength="43" x="25" y="637.4997">loop</text><text fill="#000000" font-family="sans-serif" font-size="20" font-weight="bold" lengthAdjust="spacing" textLength="164" x="113" y="638.4997">[while intended]</text><polygon fill="#181818" points="168,685.8396,158,689.8396,168,693.8396,164,689.8396" style="stroke:#181818;stroke-width:1.0;"/><line style="stroke:#181818;stroke-width:1.0;stroke-dasharray:2.0,2.0;" x1="162" x2="681" y1="689.8396" y2="689.8396"/><text fill="#000000" font-family="sans-serif" font-size="20" font-weight="bold" lengthAdjust="spacing" textLength="22" x="174" y="681.9796">13</text><text fill="#000000" font-family="sans-serif" font-size="20" lengthAdjust="spacing" textLength="166" x="200" y="681.9796">Shows all the jobs</text><polygon fill="#181818" points="665,727.0796,675,731.0796,665,735.0796,669,731.0796" style="stroke:#181818;stroke-width:1.0;"/><line style="stroke:#181818;stroke-width:1.0;" x1="157" x2="671" y1="731.0796" y2="731.0796"/><text fill="#000000" font-family="sans-serif" font-size="20" font-weight="bold" lengthAdjust="spacing" textLength="22" x="164" y="723.2196">14</text><text fill="#000000" font-family="sans-serif" font-size="20" lengthAdjust="spacing" textLength="105" x="190" y="723.2196">Select a job</text><polygon fill="#181818" points="963,768.3195,973,772.3195,963,776.3195,967,772.3195" style="stroke:#181818;stroke-width:1.0;"/><line style="stroke:#181818;stroke-width:1.0;" x1="687" x2="969" y1="772.3195" y2="772.3195"/><text fill="#000000" font-family="sans-serif" font-size="20" font-weight="bold" lengthAdjust="spacing" textLength="22" x="694" y="764.4596">15</text><text fill="#000000" font-family="sans-serif" font-size="20" lengthAdjust="spacing" textLength="107" x="720" y="764.4596">jobSelected</text><line style="stroke:#181818;stroke-width:1.0;" x1="985" x2="1032" y1="808.5595" y2="808.5595"/><line style="stroke:#181818;stroke-width:1.0;" x1="1032" x2="1032" y1="808.5595" y2="821.5595"/><line style="stroke:#181818;stroke-width:1.0;" x1="991" x2="1032" y1="821.5595" y2="821.5595"/><polygon fill="#181818" points="1001,817.5595,991,821.5595,1001,825.5595,997,821.5595" style="stroke:#181818;stroke-width:1.0;"/><text fill="#000000" font-family="sans-serif" font-size="20" font-weight="bold" lengthAdjust="spacing" textLength="22" x="997" y="800.6995">16</text><text fill="#000000" font-family="sans-serif" font-size="20" lengthAdjust="spacing" textLength="89" x="1023" y="800.6995">storeJob()</text><line style="stroke:#181818;stroke-width:1.0;stroke-dasharray:2.0,2.0;" x1="990" x2="1032" y1="872.7995" y2="872.7995"/><line style="stroke:#181818;stroke-width:1.0;stroke-dasharray:2.0,2.0;" x1="1032" x2="1032" y1="872.7995" y2="885.7995"/><line style="stroke:#181818;stroke-width:1.0;stroke-dasharray:2.0,2.0;" x1="985" x2="1032" y1="885.7995" y2="885.7995"/><polygon fill="#181818" points="995,881.7995,985,885.7995,995,889.7995,991,885.7995" style="stroke:#181818;stroke-width:1.0;"/><text fill="#000000" font-family="sans-serif" font-size="20" font-weight="bold" lengthAdjust="spacing" textLength="22" x="997" y="864.9395">17</text><text fill="#000000" font-family="sans-serif" font-size="20" lengthAdjust="spacing" textLength="73" x="1023" y="864.9395">success</text><polygon fill="#181818" points="698,918.0395,688,922.0395,698,926.0395,694,922.0395" style="stroke:#181818;stroke-width:1.0;"/><line style="stroke:#181818;stroke-width:1.0;stroke-dasharray:2.0,2.0;" x1="692" x2="979" y1="922.0395" y2="922.0395"/><text fill="#000000" font-family="sans-serif" font-size="20" font-weight="bold" lengthAdjust="spacing" textLength="22" x="704" y="914.1795">18</text><text fill="#000000" font-family="sans-serif" font-size="20" lengthAdjust="spacing" textLength="73" x="730" y="914.1795">success</text><polygon fill="#181818" points="168,1040.9994,158,1044.9994,168,1048.9994,164,1044.9994" style="stroke:#181818;stroke-width:1.0;"/><line style="stroke:#181818;stroke-width:1.0;stroke-dasharray:2.0,2.0;" x1="162" x2="681" y1="1044.9994" y2="1044.9994"/><text fill="#000000" font-family="sans-serif" font-size="20" font-weight="bold" lengthAdjust="spacing" textLength="22" x="174" y="996.2794">19</text><text fill="#000000" font-family="sans-serif" font-size="20" lengthAdjust="spacing" textLength="384" x="200" y="955.4195">Requests the fundamental characteristics</text><text fill="#000000" font-family="sans-serif" font-size="20" lengthAdjust="spacing" textLength="431" x="205" y="982.6594">(i.e. name, birth date, admission date, address,</text><text fill="#000000" font-family="sans-serif" font-size="20" lengthAdjust="spacing" textLength="462" x="205" y="1009.8994">contact info (mobile and email), taxpayer number,</text><text fill="#000000" font-family="sans-serif" font-size="20" lengthAdjust="spacing" textLength="331" x="200" y="1037.1394">ID doc type and respective number)</text><polygon fill="#181818" points="665,1163.9593,675,1167.9593,665,1171.9593,669,1167.9593" style="stroke:#181818;stroke-width:1.0;"/><line style="stroke:#181818;stroke-width:1.0;" x1="157" x2="671" y1="1167.9593" y2="1167.9593"/><text fill="#000000" font-family="sans-serif" font-size="20" font-weight="bold" lengthAdjust="spacing" textLength="22" x="164" y="1119.2393">20</text><text fill="#000000" font-family="sans-serif" font-size="20" lengthAdjust="spacing" textLength="353" x="190" y="1078.3794">Types the fundamental characteristics</text><text fill="#000000" font-family="sans-serif" font-size="20" lengthAdjust="spacing" textLength="431" x="195" y="1105.6193">(i.e. name, birth date, admission date, address,</text><text fill="#000000" font-family="sans-serif" font-size="20" lengthAdjust="spacing" textLength="462" x="195" y="1132.8593">contact info (mobile and email), taxpayer number,</text><text fill="#000000" font-family="sans-serif" font-size="20" lengthAdjust="spacing" textLength="331" x="190" y="1160.0993">ID doc type and respective number)</text><polygon fill="#181818" points="963,1205.1992,973,1209.1992,963,1213.1992,967,1209.1992" style="stroke:#181818;stroke-width:1.0;"/><line style="stroke:#181818;stroke-width:1.0;" x1="687" x2="969" y1="1209.1992" y2="1209.1992"/><text fill="#000000" font-family="sans-serif" font-size="20" font-weight="bold" lengthAdjust="spacing" textLength="22" x="694" y="1201.3393">21</text><text fill="#000000" font-family="sans-serif" font-size="20" lengthAdjust="spacing" textLength="58" x="720" y="1201.3393">create</text><polygon fill="#181818" points="1772.5,1246.4392,1782.5,1250.4392,1772.5,1254.4392,1776.5,1250.4392" style="stroke:#181818;stroke-width:1.0;"/><line style="stroke:#181818;stroke-width:1.0;" x1="985" x2="1778.5" y1="1250.4392" y2="1250.4392"/><text fill="#000000" font-family="sans-serif" font-size="20" font-weight="bold" lengthAdjust="spacing" textLength="22" x="992" y="1242.5792">22</text><text fill="#000000" font-family="sans-serif" font-size="20" lengthAdjust="spacing" textLength="58" x="1018" y="1242.5792">create</text><polygon fill="#181818" points="2261,1287.6792,2271,1291.6792,2261,1295.6792,2265,1291.6792" style="stroke:#181818;stroke-width:1.0;"/><line style="stroke:#181818;stroke-width:1.0;" x1="1794.5" x2="2267" y1="1291.6792" y2="1291.6792"/><text fill="#000000" font-family="sans-serif" font-size="20" font-weight="bold" lengthAdjust="spacing" textLength="22" x="1801.5" y="1283.8192">23</text><text fill="#000000" font-family="sans-serif" font-size="20" lengthAdjust="spacing" textLength="58" x="1827.5" y="1283.8192">create</text><rect fill="#E3E3E3" height="68.4799" rx="2.5" ry="2.5" style="stroke:#181818;stroke-width:0.5;" width="271" x="2273" y="1258.4392"/><text fill="#000000" font-family="sans-serif" font-size="20" lengthAdjust="spacing" textLength="257" x="2280" y="1286.8192">fundamentalCharacteristics</text><text fill="#000000" font-family="sans-serif" font-size="20" lengthAdjust="spacing" textLength="121" x="2348" y="1314.0592">:Collaborator</text><line style="stroke:#181818;stroke-width:1.0;" x1="2413.5" x2="2455.5" y1="1371.1591" y2="1371.1591"/><line style="stroke:#181818;stroke-width:1.0;" x1="2455.5" x2="2455.5" y1="1371.1591" y2="1384.1591"/><line style="stroke:#181818;stroke-width:1.0;" x1="2414.5" x2="2455.5" y1="1384.1591" y2="1384.1591"/><polygon fill="#181818" points="2424.5,1380.1591,2414.5,1384.1591,2424.5,1388.1591,2420.5,1384.1591" style="stroke:#181818;stroke-width:1.0;"/><text fill="#000000" font-family="sans-serif" font-size="20" font-weight="bold" lengthAdjust="spacing" textLength="22" x="2420.5" y="1363.2992">24</text><text fill="#000000" font-family="sans-serif" font-size="20" lengthAdjust="spacing" textLength="598" x="2446.5" y="1363.2992">validatefundamentalCharacteristics(fundamentalCharacteristics)</text><polygon fill="#181818" points="1805.5,1421.3991,1795.5,1425.3991,1805.5,1429.3991,1801.5,1425.3991" style="stroke:#181818;stroke-width:1.0;"/><line style="stroke:#181818;stroke-width:1.0;stroke-dasharray:2.0,2.0;" x1="1799.5" x2="2407.5" y1="1425.3991" y2="1425.3991"/><text fill="#000000" font-family="sans-serif" font-size="20" font-weight="bold" lengthAdjust="spacing" textLength="22" x="1811.5" y="1417.5391">25</text><text fill="#000000" font-family="sans-serif" font-size="20" lengthAdjust="spacing" textLength="257" x="1837.5" y="1417.5391">fundamentalCharacteristics</text><line style="stroke:#181818;stroke-width:1.0;" x1="1794.5" x2="1836.5" y1="1466.6391" y2="1466.6391"/><line style="stroke:#181818;stroke-width:1.0;" x1="1836.5" x2="1836.5" y1="1466.6391" y2="1479.6391"/><line style="stroke:#181818;stroke-width:1.0;" x1="1795.5" x2="1836.5" y1="1479.6391" y2="1479.6391"/><polygon fill="#181818" points="1805.5,1475.6391,1795.5,1479.6391,1805.5,1483.6391,1801.5,1479.6391" style="stroke:#181818;stroke-width:1.0;"/><text fill="#000000" font-family="sans-serif" font-size="20" font-weight="bold" lengthAdjust="spacing" textLength="22" x="1801.5" y="1458.7791">26</text><text fill="#000000" font-family="sans-serif" font-size="20" lengthAdjust="spacing" textLength="569" x="1827.5" y="1458.7791">validateCollaborator(jobSelected,fundamentalCharacteristics)</text><line style="stroke:#181818;stroke-width:1.0;" x1="1794.5" x2="1836.5" y1="1520.8791" y2="1520.8791"/><line style="stroke:#181818;stroke-width:1.0;" x1="1836.5" x2="1836.5" y1="1520.8791" y2="1533.8791"/><line style="stroke:#181818;stroke-width:1.0;" x1="1795.5" x2="1836.5" y1="1533.8791" y2="1533.8791"/><polygon fill="#181818" points="1805.5,1529.8791,1795.5,1533.8791,1805.5,1537.8791,1801.5,1533.8791" style="stroke:#181818;stroke-width:1.0;"/><text fill="#000000" font-family="sans-serif" font-size="20" font-weight="bold" lengthAdjust="spacing" textLength="22" x="1801.5" y="1513.0191">27</text><text fill="#000000" font-family="sans-serif" font-size="20" lengthAdjust="spacing" textLength="532" x="1827.5" y="1513.0191">addCollaborator(jobSelected,fundamentalCharacteristics)</text><polygon fill="#181818" points="996,1578.119,986,1582.119,996,1586.119,992,1582.119" style="stroke:#181818;stroke-width:1.0;"/><line style="stroke:#181818;stroke-width:1.0;stroke-dasharray:2.0,2.0;" x1="990" x2="1788.5" y1="1582.119" y2="1582.119"/><text fill="#000000" font-family="sans-serif" font-size="20" font-weight="bold" lengthAdjust="spacing" textLength="22" x="1002" y="1574.2591">28</text><text fill="#000000" font-family="sans-serif" font-size="20" lengthAdjust="spacing" textLength="234" x="1028" y="1574.2591">registedCollaboratorsList</text><polygon fill="#181818" points="698,1619.359,688,1623.359,698,1627.359,694,1623.359" style="stroke:#181818;stroke-width:1.0;"/><line style="stroke:#181818;stroke-width:1.0;stroke-dasharray:2.0,2.0;" x1="692" x2="979" y1="1623.359" y2="1623.359"/><text fill="#000000" font-family="sans-serif" font-size="20" font-weight="bold" lengthAdjust="spacing" textLength="22" x="704" y="1615.499">29</text><text fill="#000000" font-family="sans-serif" font-size="20" lengthAdjust="spacing" textLength="238" x="730" y="1615.499">RegistedCollaboratorsList</text><polygon fill="#181818" points="168,1660.599,158,1664.599,168,1668.599,164,1664.599" style="stroke:#181818;stroke-width:1.0;"/><line style="stroke:#181818;stroke-width:1.0;stroke-dasharray:2.0,2.0;" x1="162" x2="681" y1="1664.599" y2="1664.599"/><text fill="#000000" font-family="sans-serif" font-size="20" font-weight="bold" lengthAdjust="spacing" textLength="22" x="174" y="1656.739">30</text><text fill="#000000" font-family="sans-serif" font-size="20" lengthAdjust="spacing" textLength="470" x="200" y="1656.739">list all registered collaborators and asks to confirm</text><polygon fill="#181818" points="665,1701.839,675,1705.839,665,1709.839,669,1705.839" style="stroke:#181818;stroke-width:1.0;"/><line style="stroke:#181818;stroke-width:1.0;" x1="157" x2="671" y1="1705.839" y2="1705.839"/><text fill="#000000" font-family="sans-serif" font-size="20" font-weight="bold" lengthAdjust="spacing" textLength="22" x="164" y="1697.979">31</text><text fill="#000000" font-family="sans-serif" font-size="20" lengthAdjust="spacing" textLength="237" x="190" y="1697.979">confirms all collaborators</text><polygon fill="#181818" points="163,1743.0789,153,1747.0789,163,1751.0789,159,1747.0789" style="stroke:#181818;stroke-width:1.0;"/><line style="stroke:#181818;stroke-width:1.0;stroke-dasharray:2.0,2.0;" x1="157" x2="681" y1="1747.0789" y2="1747.0789"/><text fill="#000000" font-family="sans-serif" font-size="20" font-weight="bold" lengthAdjust="spacing" textLength="22" x="169" y="1739.219">32</text><text fill="#000000" font-family="sans-serif" font-size="20" lengthAdjust="spacing" textLength="248" x="195" y="1739.219">displays operation success</text><!--SRC=[rLVDRzCm5B_dhtZQPTtK8SIn1wHf4s9eIAWTjrrSvxKnI-nWEupor_ESDAsTs5a7NF2fiT_xlU-FcYSXQwPPLIh-X3dak65DQJyeQLVY5yAxjvdfIQ1IKl52gmh1wWQzbvhn9xR5bTsL21gvPN9R-WIcOBbw5d8B6rOQp3BMM2MRQeqwoyuBaIDibB9hzJDZt2eDPn-RYabOeb6DvcZWCvCaGPy1Ct1z-paZN2kug9cqSBPOubOOUwFAagsLPeJmzQub_Nht8kKD6QlfUmz-yx2y7_7KoWWY5MXQciF5RYMSfMHBoA8zZaSv1lXoV_qGSdHwOVv9hSqHVl4eumzxDM9F8QvlQGYSUEcS47yBeJUDp5c5qhBofg0mSukQz17ScUmZj92tpBBCHLVyO1RR66QmF_G1L-yfMB0WqYS3Lb4QEUE0WSHdu1xQaUq0Hb7Epi4xX7H5W0vtGKZV6pJMG4ugm4pZ1ZLAZdDATyErgArGSWuWv4RfYfNmACCNYxoGWjDBS9qtf4_xYojZBp9VWNEkqMdMPjDGi_VjzUKbwTQHPGaI8jYYTU6TXV07orlyuCcTbfSm8ddQGTv9GpNASG0RGCUIV4JjJapArTu2v_rZxe_OStoTkDumLp-T9V4QcBAhhRse8Isghtcql2PiY4EFbKwKr-kr7cYSAji_LZdktSw8wxACPEOWXKxoO9T4KKbNnqfWdRpf78hAIvZNTvnlGrGFCQZVKgaQdWj1Gqv8YpB7F4jsdLMXderJ6co1eGmFttMkOGTSOKaZb3eVCMMZFfVi54JTSGwq6lUBLBJtG8QSXkH2YkmhWGBVzcWDf_az6RQf9jOx9GOp2H44OzcF01SBRsu17mukc8at-0Oa4SnXBRGjtDYWtoolX37KxW_VkIQ5viJ2QOCWa7Q0mAnIQvSXJEQ05HFb1GqGzhDcEzJGhJp4StSBkU9WTtL7IL0rEcDmJtDnQhOy4CH_PvTlqJYPnsCndNQ7t8stliI8FUATq35Jq2JLBJMNbmSP8_XkwUcltLVFjO0Vh1JEvUarQfP-kXYYJheWZHCjOI_ZMWFWX3FXfDGAUl20Jp3psjXyolv_eG3b-b_9fX5mkXx7bjWl5W7fFLqbkriYIxDqlrmcPMGlji-WTPRj5avZRA-rfh-9_ZfksZhljtPg6HkXgmxhXSwrf-s6P02PHPj4e5OkJ5sodG5LOxU61oDY8DhxT7yyVWC0]--></g></svg>