<?xml version="1.0" encoding="UTF-8" standalone="no"?><svg xmlns="http://www.w3.org/2000/svg" xmlns:xlink="http://www.w3.org/1999/xlink" contentStyleType="text/css" height="682px" preserveAspectRatio="none" style="width:611px;height:682px;background:#FFFFFF;" version="1.1" viewBox="0 0 611 682" width="611px" zoomAndPan="magnify"><defs/><g><text fill="#000000" font-family="sans-serif" font-size="14" font-weight="bold" lengthAdjust="spacing" textLength="224" x="192.75" y="29.9659">System Sequence Diagram (SSD)</text><rect fill="#FFFFFF" height="385.3997" style="stroke:#181818;stroke-width:1.0;" width="10" x="88" y="169.5479"/><rect fill="#FFFFFF" height="68.4799" style="stroke:#181818;stroke-width:1.0;" width="10" x="557" y="202.7878"/><rect fill="#FFFFFF" height="41.24" style="stroke:#181818;stroke-width:1.0;" width="10" x="557" y="339.7477"/><rect fill="#FFFFFF" height="41.24" style="stroke:#181818;stroke-width:1.0;" width="10" x="557" y="422.2277"/><rect fill="#FFFFFF" height="41.24" style="stroke:#181818;stroke-width:1.0;" width="10" x="557" y="504.7076"/><line style="stroke:#181818;stroke-width:0.5;stroke-dasharray:5.0,5.0;" x1="93" x2="93" y1="159.5479" y2="563.9476"/><line style="stroke:#181818;stroke-width:0.5;stroke-dasharray:5.0,5.0;" x1="561.5" x2="561.5" y1="159.5479" y2="563.9476"/><text fill="#000000" font-family="sans-serif" font-size="20" lengthAdjust="spacing" textLength="170" x="5" y="126.4479">Human Resources</text><text fill="#000000" font-family="sans-serif" font-size="20" lengthAdjust="spacing" textLength="83" x="48.5" y="153.6879">Manager</text><ellipse cx="93" cy="53.5679" fill="#E3E3E3" rx="8" ry="8" style="stroke:#181818;stroke-width:0.5;"/><path d="M93,61.5679 L93,88.5679 M80,69.5679 L106,69.5679 M93,88.5679 L80,103.5679 M93,88.5679 L106,103.5679 " fill="none" style="stroke:#181818;stroke-width:0.5;"/><text fill="#000000" font-family="sans-serif" font-size="20" lengthAdjust="spacing" textLength="170" x="5" y="584.3276">Human Resources</text><text fill="#000000" font-family="sans-serif" font-size="20" lengthAdjust="spacing" textLength="83" x="48.5" y="611.5676">Manager</text><ellipse cx="93" cy="625.9276" fill="#E3E3E3" rx="8" ry="8" style="stroke:#181818;stroke-width:0.5;"/><path d="M93,633.9276 L93,660.9276 M80,641.9276 L106,641.9276 M93,660.9276 L80,675.9276 M93,660.9276 L106,675.9276 " fill="none" style="stroke:#181818;stroke-width:0.5;"/><rect fill="#E3E3E3" height="41.24" rx="2.5" ry="2.5" style="stroke:#181818;stroke-width:0.5;" width="87" x="518.5" y="117.3079"/><text fill="#000000" font-family="sans-serif" font-size="20" lengthAdjust="spacing" textLength="73" x="525.5" y="145.6879">:System</text><rect fill="#E3E3E3" height="41.24" rx="2.5" ry="2.5" style="stroke:#181818;stroke-width:0.5;" width="87" x="518.5" y="562.9476"/><text fill="#000000" font-family="sans-serif" font-size="20" lengthAdjust="spacing" textLength="73" x="525.5" y="591.3276">:System</text><rect fill="#FFFFFF" height="385.3997" style="stroke:#181818;stroke-width:1.0;" width="10" x="88" y="169.5479"/><rect fill="#FFFFFF" height="68.4799" style="stroke:#181818;stroke-width:1.0;" width="10" x="557" y="202.7878"/><rect fill="#FFFFFF" height="41.24" style="stroke:#181818;stroke-width:1.0;" width="10" x="557" y="339.7477"/><rect fill="#FFFFFF" height="41.24" style="stroke:#181818;stroke-width:1.0;" width="10" x="557" y="422.2277"/><rect fill="#FFFFFF" height="41.24" style="stroke:#181818;stroke-width:1.0;" width="10" x="557" y="504.7076"/><polygon fill="#181818" points="545,198.7878,555,202.7878,545,206.7878,549,202.7878" style="stroke:#181818;stroke-width:1.0;"/><line style="stroke:#181818;stroke-width:1.0;" x1="98" x2="551" y1="202.7878" y2="202.7878"/><text fill="#000000" font-family="sans-serif" font-size="20" font-weight="bold" lengthAdjust="spacing" textLength="11" x="105" y="194.9278">1</text><text fill="#000000" font-family="sans-serif" font-size="20" lengthAdjust="spacing" textLength="310" x="120" y="194.9278">asks to generate a team proposal</text><polygon fill="#181818" points="109,267.2678,99,271.2678,109,275.2678,105,271.2678" style="stroke:#181818;stroke-width:1.0;"/><line style="stroke:#181818;stroke-width:1.0;stroke-dasharray:2.0,2.0;" x1="103" x2="561" y1="271.2678" y2="271.2678"/><text fill="#000000" font-family="sans-serif" font-size="20" font-weight="bold" lengthAdjust="spacing" textLength="11" x="115" y="249.7878">2</text><text fill="#000000" font-family="sans-serif" font-size="20" lengthAdjust="spacing" textLength="332" x="130" y="236.1678">requests which is the minimum and</text><text fill="#000000" font-family="sans-serif" font-size="20" lengthAdjust="spacing" textLength="380" x="135" y="263.4078">maximum number of team collaborators</text><polygon fill="#181818" points="545,335.7477,555,339.7477,545,343.7477,549,339.7477" style="stroke:#181818;stroke-width:1.0;"/><line style="stroke:#181818;stroke-width:1.0;" x1="98" x2="551" y1="339.7477" y2="339.7477"/><text fill="#000000" font-family="sans-serif" font-size="20" font-weight="bold" lengthAdjust="spacing" textLength="11" x="105" y="318.2678">3</text><text fill="#000000" font-family="sans-serif" font-size="20" lengthAdjust="spacing" textLength="425" x="120" y="304.6478">types the minimum and maximum number of</text><text fill="#000000" font-family="sans-serif" font-size="20" lengthAdjust="spacing" textLength="176" x="125" y="331.8877">team collaborators</text><polygon fill="#181818" points="109,376.9877,99,380.9877,109,384.9877,105,380.9877" style="stroke:#181818;stroke-width:1.0;"/><line style="stroke:#181818;stroke-width:1.0;stroke-dasharray:2.0,2.0;" x1="103" x2="561" y1="380.9877" y2="380.9877"/><text fill="#000000" font-family="sans-serif" font-size="20" font-weight="bold" lengthAdjust="spacing" textLength="11" x="115" y="373.1277">4</text><text fill="#000000" font-family="sans-serif" font-size="20" lengthAdjust="spacing" textLength="334" x="130" y="373.1277">requests to selects the skills needed</text><polygon fill="#181818" points="545,418.2277,555,422.2277,545,426.2277,549,422.2277" style="stroke:#181818;stroke-width:1.0;"/><line style="stroke:#181818;stroke-width:1.0;" x1="98" x2="551" y1="422.2277" y2="422.2277"/><text fill="#000000" font-family="sans-serif" font-size="20" font-weight="bold" lengthAdjust="spacing" textLength="11" x="105" y="414.3677">5</text><text fill="#000000" font-family="sans-serif" font-size="20" lengthAdjust="spacing" textLength="150" x="120" y="414.3677">selects the skills</text><polygon fill="#181818" points="109,459.4677,99,463.4677,109,467.4677,105,463.4677" style="stroke:#181818;stroke-width:1.0;"/><line style="stroke:#181818;stroke-width:1.0;stroke-dasharray:2.0,2.0;" x1="103" x2="561" y1="463.4677" y2="463.4677"/><text fill="#000000" font-family="sans-serif" font-size="20" font-weight="bold" lengthAdjust="spacing" textLength="11" x="115" y="455.6077">6</text><text fill="#000000" font-family="sans-serif" font-size="20" lengthAdjust="spacing" textLength="346" x="130" y="455.6077">shows and aks to confirm all the data</text><polygon fill="#181818" points="545,500.7076,555,504.7076,545,508.7076,549,504.7076" style="stroke:#181818;stroke-width:1.0;"/><line style="stroke:#181818;stroke-width:1.0;" x1="98" x2="551" y1="504.7076" y2="504.7076"/><text fill="#000000" font-family="sans-serif" font-size="20" font-weight="bold" lengthAdjust="spacing" textLength="11" x="105" y="496.8476">7</text><text fill="#000000" font-family="sans-serif" font-size="20" lengthAdjust="spacing" textLength="190" x="120" y="496.8476">confirms all the data</text><polygon fill="#181818" points="109,541.9476,99,545.9476,109,549.9476,105,545.9476" style="stroke:#181818;stroke-width:1.0;"/><line style="stroke:#181818;stroke-width:1.0;stroke-dasharray:2.0,2.0;" x1="103" x2="561" y1="545.9476" y2="545.9476"/><text fill="#000000" font-family="sans-serif" font-size="20" font-weight="bold" lengthAdjust="spacing" textLength="11" x="115" y="538.0876">8</text><text fill="#000000" font-family="sans-serif" font-size="20" lengthAdjust="spacing" textLength="248" x="130" y="538.0876">displays operation success</text><!--SRC=[dL8zRnin3DtlLn2UcY50qT53fY38aYMtPc4a-awmH5v4ggxxwykxiuEWZe6ccYZmwNsGqdtY2IkMB65F4IBji6Lx4BO-_IRuyRtJCmIAi8InIY6mskX3PyAmnu5wEsQ2Ii6GX_mHe2D6EIGUO8TPgUiicKFxeneLwEcj4GU2-uJ33F_Mz_StNOVDX5jvfUfrCAcmUMm56Pv9fTL0-i9FoAvSDu0AZyzFdUjP2cb2DjXiLu6bkPOBKVg9HWkw0pzUmEtTsSpMmNi54nY8gSv81ACvPPL95FFow9tcp0kdSwAvTSQPUElpy7Hg2eSnXH6ISuy49N4ghG1oV64e-6kvhMb1TgjYa9pnLTo4L5qK8dqg_7S4EqvqeNEfuifNTFuZdazCAVloLs5VViuAJ1GfViNx9SddZgvRqb4EkYJ6TPD1U9Ug3o7dXJQYuLSidTxh9S6_poacdJ8U5MIQVrKI1ct1__3LnVu1]--></g></svg>