<?xml version="1.0" encoding="us-ascii" standalone="no"?><svg xmlns="http://www.w3.org/2000/svg" xmlns:xlink="http://www.w3.org/1999/xlink" contentStyleType="text/css" height="665px" preserveAspectRatio="none" style="width:718px;height:664px;background:#FFFFFF;" version="1.1" viewBox="0 0 718 664" width="718.2px" zoomAndPan="magnify"><defs/><g><!--class MusgoSublime--><g id="elem_MusgoSublime"><rect codeLine="9" fill="#F1F1F1" height="90.8086" id="MusgoSublime" rx="1.75" ry="1.75" style="stroke:#181818;stroke-width:0.3499999999999999;" width="70.7" x="239.218" y="58.6339"/><text fill="#000000" font-family="sans-serif" font-size="9.8" lengthAdjust="spacing" textLength="64.4" x="242.368" y="72.7091">MusgoSublime</text><line style="stroke:#181818;stroke-width:0.3499999999999999;" x1="239.918" x2="309.218" y1="78.6687" y2="78.6687"/><text fill="#000000" font-family="sans-serif" font-size="9.8" lengthAdjust="spacing" textLength="24.5" x="243.418" y="92.0438">name</text><text fill="#000000" font-family="sans-serif" font-size="9.8" lengthAdjust="spacing" textLength="47.6" x="243.418" y="105.0786">vatNumber</text><text fill="#000000" font-family="sans-serif" font-size="9.8" lengthAdjust="spacing" textLength="32.9" x="243.418" y="118.1134">website</text><text fill="#000000" font-family="sans-serif" font-size="9.8" lengthAdjust="spacing" textLength="62.3" x="243.418" y="131.1481">phoneNumber</text><text fill="#000000" font-family="sans-serif" font-size="9.8" lengthAdjust="spacing" textLength="23.1" x="243.418" y="144.1829">email</text></g><!--class HumanResourceManager--><g id="elem_HumanResourceManager"><rect codeLine="17" fill="#F1F1F1" height="129.9129" id="HumanResourceManager" rx="1.75" ry="1.75" style="stroke:#181818;stroke-width:0.3499999999999999;" width="116.9" x="457.618" y="39.0339"/><text fill="#000000" font-family="sans-serif" font-size="9.8" lengthAdjust="spacing" textLength="112.7" x="459.718" y="53.1091">HumanResourceManager</text><line style="stroke:#181818;stroke-width:0.3499999999999999;" x1="458.318" x2="573.818" y1="59.0687" y2="59.0687"/><text fill="#000000" font-family="sans-serif" font-size="9.8" lengthAdjust="spacing" textLength="24.5" x="461.818" y="72.4438">name</text><text fill="#000000" font-family="sans-serif" font-size="9.8" lengthAdjust="spacing" textLength="41.3" x="461.818" y="85.4786">bornDate</text><text fill="#000000" font-family="sans-serif" font-size="9.8" lengthAdjust="spacing" textLength="39.9" x="461.818" y="98.5134">admDate</text><text fill="#000000" font-family="sans-serif" font-size="9.8" lengthAdjust="spacing" textLength="35.7" x="461.818" y="111.5481">address</text><text fill="#000000" font-family="sans-serif" font-size="9.8" lengthAdjust="spacing" textLength="62.3" x="461.818" y="124.5829">phoneNumber</text><text fill="#000000" font-family="sans-serif" font-size="9.8" lengthAdjust="spacing" textLength="23.1" x="461.818" y="137.6177">email</text><text fill="#000000" font-family="sans-serif" font-size="9.8" lengthAdjust="spacing" textLength="29.4" x="461.818" y="150.6524">idCard</text><text fill="#000000" font-family="sans-serif" font-size="9.8" lengthAdjust="spacing" textLength="42" x="461.818" y="163.6872">idNumber</text></g><!--class Collaborator--><g id="elem_Collaborator"><rect codeLine="28" fill="#F1F1F1" height="129.9129" id="Collaborator" rx="1.75" ry="1.75" style="stroke:#181818;stroke-width:0.3499999999999999;" width="70.7" x="454.118" y="435.9339"/><text fill="#000000" font-family="sans-serif" font-size="9.8" lengthAdjust="spacing" textLength="54.6" x="462.168" y="450.0091">Collaborator</text><line style="stroke:#181818;stroke-width:0.3499999999999999;" x1="454.818" x2="524.118" y1="455.9687" y2="455.9687"/><text fill="#000000" font-family="sans-serif" font-size="9.8" lengthAdjust="spacing" textLength="24.5" x="458.318" y="469.3438">name</text><text fill="#000000" font-family="sans-serif" font-size="9.8" lengthAdjust="spacing" textLength="41.3" x="458.318" y="482.3786">bornDate</text><text fill="#000000" font-family="sans-serif" font-size="9.8" lengthAdjust="spacing" textLength="39.9" x="458.318" y="495.4134">admDate</text><text fill="#000000" font-family="sans-serif" font-size="9.8" lengthAdjust="spacing" textLength="35.7" x="458.318" y="508.4481">address</text><text fill="#000000" font-family="sans-serif" font-size="9.8" lengthAdjust="spacing" textLength="62.3" x="458.318" y="521.4829">phoneNumber</text><text fill="#000000" font-family="sans-serif" font-size="9.8" lengthAdjust="spacing" textLength="23.1" x="458.318" y="534.5177">email</text><text fill="#000000" font-family="sans-serif" font-size="9.8" lengthAdjust="spacing" textLength="29.4" x="458.318" y="547.5524">idCard</text><text fill="#000000" font-family="sans-serif" font-size="9.8" lengthAdjust="spacing" textLength="42" x="458.318" y="560.5872">idNumber</text></g><!--class FleetManager--><g id="elem_FleetManager"><rect codeLine="39" fill="#F1F1F1" height="129.9129" id="FleetManager" rx="1.75" ry="1.75" style="stroke:#181818;stroke-width:0.3499999999999999;" width="70.7" x="359.618" y="39.0339"/><text fill="#000000" font-family="sans-serif" font-size="9.8" lengthAdjust="spacing" textLength="61.6" x="364.168" y="53.1091">FleetManager</text><line style="stroke:#181818;stroke-width:0.3499999999999999;" x1="360.318" x2="429.618" y1="59.0687" y2="59.0687"/><text fill="#000000" font-family="sans-serif" font-size="9.8" lengthAdjust="spacing" textLength="24.5" x="363.818" y="72.4438">name</text><text fill="#000000" font-family="sans-serif" font-size="9.8" lengthAdjust="spacing" textLength="41.3" x="363.818" y="85.4786">bornDate</text><text fill="#000000" font-family="sans-serif" font-size="9.8" lengthAdjust="spacing" textLength="39.9" x="363.818" y="98.5134">admDate</text><text fill="#000000" font-family="sans-serif" font-size="9.8" lengthAdjust="spacing" textLength="35.7" x="363.818" y="111.5481">address</text><text fill="#000000" font-family="sans-serif" font-size="9.8" lengthAdjust="spacing" textLength="62.3" x="363.818" y="124.5829">phoneNumber</text><text fill="#000000" font-family="sans-serif" font-size="9.8" lengthAdjust="spacing" textLength="23.1" x="363.818" y="137.6177">email</text><text fill="#000000" font-family="sans-serif" font-size="9.8" lengthAdjust="spacing" textLength="29.4" x="363.818" y="150.6524">idCard</text><text fill="#000000" font-family="sans-serif" font-size="9.8" lengthAdjust="spacing" textLength="42" x="363.818" y="163.6872">idNumber</text></g><!--class Skill--><g id="elem_Skill"><rect codeLine="50" fill="#F1F1F1" height="38.6695" id="Skill" rx="1.75" ry="1.75" style="stroke:#181818;stroke-width:0.3499999999999999;" width="49.7" x="505.918" y="621.4339"/><text fill="#000000" font-family="sans-serif" font-size="9.8" lengthAdjust="spacing" textLength="17.5" x="522.018" y="635.5091">Skill</text><line style="stroke:#181818;stroke-width:0.3499999999999999;" x1="506.618" x2="554.918" y1="641.4687" y2="641.4687"/><text fill="#000000" font-family="sans-serif" font-size="9.8" lengthAdjust="spacing" textLength="41.3" x="510.118" y="654.8438">skillName</text></g><!--class Job--><g id="elem_Job"><rect codeLine="54" fill="#F1F1F1" height="38.6695" id="Job" rx="1.75" ry="1.75" style="stroke:#181818;stroke-width:0.3499999999999999;" width="46.9" x="421.918" y="621.4339"/><text fill="#000000" font-family="sans-serif" font-size="9.8" lengthAdjust="spacing" textLength="15.4" x="437.668" y="635.5091">Job</text><line style="stroke:#181818;stroke-width:0.3499999999999999;" x1="422.618" x2="468.118" y1="641.4687" y2="641.4687"/><text fill="#000000" font-family="sans-serif" font-size="9.8" lengthAdjust="spacing" textLength="38.5" x="426.118" y="654.8438">jobName</text></g><!--class Team--><g id="elem_Team"><rect codeLine="58" fill="#F1F1F1" height="51.7043" id="Team" rx="1.75" ry="1.75" style="stroke:#181818;stroke-width:0.3499999999999999;" width="74.2" x="452.368" y="276.6839"/><text fill="#000000" font-family="sans-serif" font-size="9.8" lengthAdjust="spacing" textLength="25.2" x="476.868" y="290.7591">Team</text><line style="stroke:#181818;stroke-width:0.3499999999999999;" x1="453.068" x2="525.868" y1="296.7187" y2="296.7187"/><text fill="#000000" font-family="sans-serif" font-size="9.8" lengthAdjust="spacing" textLength="65.8" x="456.568" y="310.0938">membersName</text><text fill="#000000" font-family="sans-serif" font-size="9.8" lengthAdjust="spacing" textLength="46.2" x="456.568" y="323.1286">skillsName</text></g><!--class Vehicle--><g id="elem_Vehicle"><rect codeLine="63" fill="#F1F1F1" height="155.9824" id="Vehicle" rx="1.75" ry="1.75" style="stroke:#181818;stroke-width:0.3499999999999999;" width="76.3" x="195.118" y="224.5339"/><text fill="#000000" font-family="sans-serif" font-size="9.8" lengthAdjust="spacing" textLength="32.2" x="217.168" y="238.6091">Vehicle</text><line style="stroke:#181818;stroke-width:0.3499999999999999;" x1="195.818" x2="270.718" y1="244.5687" y2="244.5687"/><text fill="#000000" font-family="sans-serif" font-size="9.8" lengthAdjust="spacing" textLength="25.9" x="199.318" y="257.9438">brand</text><text fill="#000000" font-family="sans-serif" font-size="9.8" lengthAdjust="spacing" textLength="26.6" x="199.318" y="270.9786">model</text><text fill="#000000" font-family="sans-serif" font-size="9.8" lengthAdjust="spacing" textLength="18.9" x="199.318" y="284.0134">type</text><text fill="#000000" font-family="sans-serif" font-size="9.8" lengthAdjust="spacing" textLength="17.5" x="199.318" y="297.0481">tare</text><text fill="#000000" font-family="sans-serif" font-size="9.8" lengthAdjust="spacing" textLength="55.3" x="199.318" y="310.0829">grossWeight</text><text fill="#000000" font-family="sans-serif" font-size="9.8" lengthAdjust="spacing" textLength="45.5" x="199.318" y="323.1177">currentKm</text><text fill="#000000" font-family="sans-serif" font-size="9.8" lengthAdjust="spacing" textLength="54.6" x="199.318" y="336.1524">registerDate</text><text fill="#000000" font-family="sans-serif" font-size="9.8" lengthAdjust="spacing" textLength="67.9" x="199.318" y="349.1872">acquisitionDate</text><text fill="#000000" font-family="sans-serif" font-size="9.8" lengthAdjust="spacing" textLength="56.7" x="199.318" y="362.222">maintenance</text><text fill="#000000" font-family="sans-serif" font-size="9.8" lengthAdjust="spacing" textLength="21.7" x="199.318" y="375.2567">plate</text></g><!--class VehicleCheckUp--><g id="elem_VehicleCheckUp"><rect codeLine="76" fill="#F1F1F1" height="51.7043" id="VehicleCheckUp" rx="1.75" ry="1.75" style="stroke:#181818;stroke-width:0.3499999999999999;" width="76.3" x="274.218" y="475.1339"/><text fill="#000000" font-family="sans-serif" font-size="9.8" lengthAdjust="spacing" textLength="72.1" x="276.318" y="489.2091">VehicleCheckUp</text><line style="stroke:#181818;stroke-width:0.3499999999999999;" x1="274.918" x2="349.818" y1="495.1687" y2="495.1687"/><text fill="#000000" font-family="sans-serif" font-size="9.8" lengthAdjust="spacing" textLength="21" x="278.418" y="508.5438">Date</text><text fill="#000000" font-family="sans-serif" font-size="9.8" lengthAdjust="spacing" textLength="24.5" x="278.418" y="521.5786">Place</text></g><!--link MusgoSublime to HumanResourceManager--><g id="link_MusgoSublime_HumanResourceManager"><path codeLine="102" d="M309.925,61.4549 C326.221,45.1379 346.997,28.4569 369.768,20.1339 C400.169,9.0249 431.578,23.1579 457.471,42.8069 " fill="none" id="MusgoSublime-HumanResourceManager" style="stroke:#181818;stroke-width:0.6999999999999998;"/><polygon fill="#000000" points="376.7404,11.0469,370.2008,9.7998,370.7167,13.8818,376.7404,11.0469" style="stroke:#000000;stroke-width:0.6999999999999998;"/><text fill="#000000" font-family="sans-serif" font-size="9.1" lengthAdjust="spacing" textLength="14.7" x="379.568" y="15.2537">has</text><text fill="#000000" font-family="sans-serif" font-size="9.1" lengthAdjust="spacing" textLength="4.9" x="315.4779" y="52.2613">1</text><text fill="#000000" font-family="sans-serif" font-size="9.1" lengthAdjust="spacing" textLength="14" x="438.0387" y="35.1757">1..*</text></g><!--link MusgoSublime to Collaborator--><g id="link_MusgoSublime_Collaborator"><path codeLine="103" d="M282.835,149.7949 C285.187,162.8289 287.721,177.0949 289.968,190.2339 C304.423,274.7309 275.45,307.8689 320.768,380.6339 C329.196,394.1579 407.036,446.4759 453.985,477.2899 " fill="none" id="MusgoSublime-Collaborator" style="stroke:#181818;stroke-width:0.6999999999999998;"/><polygon fill="#000000" points="325.8891,305.7877,324.7798,299.2234,321.1332,301.1291,325.8891,305.7877" style="stroke:#000000;stroke-width:0.6999999999999998;"/><text fill="#000000" font-family="sans-serif" font-size="9.1" lengthAdjust="spacing" textLength="14.7" x="330.568" y="306.4537">has</text><text fill="#000000" font-family="sans-serif" font-size="9.1" lengthAdjust="spacing" textLength="4.9" x="278.5349" y="164.9575">1</text><text fill="#000000" font-family="sans-serif" font-size="9.1" lengthAdjust="spacing" textLength="14" x="434.5419" y="471.4366">1..*</text></g><!--link MusgoSublime to FleetManager--><g id="link_MusgoSublime_FleetManager"><path codeLine="104" d="M310.044,104.1339 C325.647,104.1339 343.938,104.1339 359.541,104.1339 " fill="none" id="MusgoSublime-FleetManager" style="stroke:#181818;stroke-width:0.6999999999999998;"/><polygon fill="#000000" points="329.168,95.4857,322.8364,93.4285,322.8364,97.543,329.168,95.4857" style="stroke:#000000;stroke-width:0.6999999999999998;"/><text fill="#000000" font-family="sans-serif" font-size="9.1" lengthAdjust="spacing" textLength="14.7" x="331.968" y="99.2537">has</text><text fill="#000000" font-family="sans-serif" font-size="9.1" lengthAdjust="spacing" textLength="4.9" x="315.6144" y="101.2088">1</text><text fill="#000000" font-family="sans-serif" font-size="9.1" lengthAdjust="spacing" textLength="14" x="340.105" y="114.7475">1..*</text></g><!--link MusgoSublime to Skill--><g id="link_MusgoSublime_Skill"><path codeLine="105" d="M239.148,138.3429 C218.365,160.5399 194.047,191.5569 182.868,224.5339 C132.832,372.1219 143.535,464.8509 261.968,566.1339 C338.296,631.4089 385.189,591.5439 481.068,621.4339 C489.16,623.9539 497.854,627.0619 505.673,630.0019 " fill="none" id="MusgoSublime-Skill" style="stroke:#181818;stroke-width:0.6999999999999998;"/><polygon fill="#000000" points="164.936,411.4627,163.7272,404.916,160.11,406.8768,164.936,411.4627" style="stroke:#000000;stroke-width:0.6999999999999998;"/><text fill="#000000" font-family="sans-serif" font-size="9.1" lengthAdjust="spacing" textLength="21" x="169.568" y="412.1537">owns</text><text fill="#000000" font-family="sans-serif" font-size="9.1" lengthAdjust="spacing" textLength="4.9" x="228.6858" y="140.4423">1</text><text fill="#000000" font-family="sans-serif" font-size="9.1" lengthAdjust="spacing" textLength="14" x="486.3573" y="625.1699">1..*</text></g><!--link MusgoSublime to Job--><g id="link_MusgoSublime_Job"><path codeLine="106" d="M239.197,117.8329 C208.005,131.1609 163.849,154.9679 139.468,190.2339 C35.812,340.2089 4.2,478.2069 139.468,600.4339 C180.845,637.8139 357.329,640.5509 421.729,640.2709 " fill="none" id="MusgoSublime-Job" style="stroke:#181818;stroke-width:0.6999999999999998;"/><polygon fill="#000000" points="55.2224,411.6899,55.0762,405.0341,51.1919,406.3912,55.2224,411.6899" style="stroke:#000000;stroke-width:0.6999999999999998;"/><text fill="#000000" font-family="sans-serif" font-size="9.1" lengthAdjust="spacing" textLength="21" x="60.368" y="412.1537">owns</text><text fill="#000000" font-family="sans-serif" font-size="9.1" lengthAdjust="spacing" textLength="4.9" x="228.742" y="116.9199">1</text><text fill="#000000" font-family="sans-serif" font-size="9.1" lengthAdjust="spacing" textLength="14" x="402.2714" y="637.0603">1..*</text></g><!--link MusgoSublime to Team--><g id="link_MusgoSublime_Team"><path codeLine="107" d="M309.932,138.0629 C321.545,148.4369 334.719,159.6649 347.368,169.2339 C383.642,196.6669 400.428,193.2859 433.468,224.5339 C449.673,239.8569 464.303,260.4299 474.551,276.5089 " fill="none" id="MusgoSublime-Team" style="stroke:#181818;stroke-width:0.6999999999999998;"/><polygon fill="#000000" points="411.6466,199.2385,408.1251,193.5888,405.4768,196.7377,411.6466,199.2385" style="stroke:#000000;stroke-width:0.6999999999999998;"/><text fill="#000000" font-family="sans-serif" font-size="9.1" lengthAdjust="spacing" textLength="21" x="415.268" y="200.7537">owns</text><text fill="#000000" font-family="sans-serif" font-size="9.1" lengthAdjust="spacing" textLength="4.9" x="315.4859" y="140.1211">1</text><text fill="#000000" font-family="sans-serif" font-size="9.1" lengthAdjust="spacing" textLength="14" x="456.647" y="268.7509">1..*</text></g><!--link MusgoSublime to Vehicle--><g id="link_MusgoSublime_Vehicle"><path codeLine="108" d="M264.446,149.7809 C261.562,162.8219 258.447,177.0879 255.668,190.2339 C253.344,201.2589 250.943,212.9139 248.619,224.3659 " fill="none" id="MusgoSublime-Vehicle" style="stroke:#181818;stroke-width:0.6999999999999998;"/><polygon fill="#000000" points="258.4415,200.4095,261.7682,194.6429,257.7433,193.7888,258.4415,200.4095" style="stroke:#000000;stroke-width:0.6999999999999998;"/><text fill="#000000" font-family="sans-serif" font-size="9.1" lengthAdjust="spacing" textLength="21" x="265.468" y="200.7537">owns</text><text fill="#000000" font-family="sans-serif" font-size="9.1" lengthAdjust="spacing" textLength="4.9" x="258.2495" y="164.942">1</text><text fill="#000000" font-family="sans-serif" font-size="9.1" lengthAdjust="spacing" textLength="14" x="235.1801" y="216.6415">1..*</text></g><!--link HumanResourceManager to Skill--><g id="link_HumanResourceManager_Skill"><path codeLine="109" d="M574.637,123.3559 C606.571,136.6699 643.601,158.0409 663.768,190.2339 C713.783,270.0689 675.745,307.4909 679.168,401.6339 C682.101,482.2389 683.788,575.8009 663.768,600.4339 C637.567,632.6829 586.292,639.4309 555.625,640.3969 " fill="none" id="HumanResourceManager-Skill" style="stroke:#181818;stroke-width:0.6999999999999998;"/><polygon fill="#000000" points="682.5394,411.8834,684.8279,405.6317,680.7162,405.4805,682.5394,411.8834" style="stroke:#000000;stroke-width:0.6999999999999998;"/><text fill="#000000" font-family="sans-serif" font-size="9.1" lengthAdjust="spacing" textLength="22.4" x="688.968" y="412.1537">regist</text><text fill="#000000" font-family="sans-serif" font-size="9.1" lengthAdjust="spacing" textLength="4.9" x="580.0715" y="122.4796">1</text><text fill="#000000" font-family="sans-serif" font-size="9.1" lengthAdjust="spacing" textLength="14" x="561.2995" y="637.2088">1..*</text></g><!--link HumanResourceManager to Job--><g id="link_HumanResourceManager_Job"><path codeLine="110" d="M564.326,169.5279 C574.469,186.5729 583.667,205.5289 588.868,224.5339 C601.111,269.2499 585.718,594.8689 581.168,600.4339 C555.863,631.4019 531.867,609.5759 493.668,621.4339 C485.52,623.9679 476.77,627.1739 468.986,630.2049 " fill="none" id="HumanResourceManager-Job" style="stroke:#181818;stroke-width:0.6999999999999998;"/><polygon fill="#000000" points="594.4587,411.8131,597.7564,406.0299,593.7273,405.196,594.4587,411.8131" style="stroke:#000000;stroke-width:0.6999999999999998;"/><text fill="#000000" font-family="sans-serif" font-size="9.1" lengthAdjust="spacing" textLength="22.4" x="601.468" y="412.1537">regist</text><text fill="#000000" font-family="sans-serif" font-size="9.1" lengthAdjust="spacing" textLength="4.9" x="562.6469" y="184.3813">1</text><text fill="#000000" font-family="sans-serif" font-size="9.1" lengthAdjust="spacing" textLength="14" x="474.4398" y="625.2013">1..*</text></g><!--link HumanResourceManager to Collaborator--><g id="link_HumanResourceManager_Collaborator"><path codeLine="111" d="M544.936,169.3319 C547.148,176.2759 549.038,183.3319 550.368,190.2339 C551.495,196.0369 550.557,197.6259 550.368,203.5339 C547.883,282.3609 557.025,303.8159 539.168,380.6339 C534.891,399.0439 528.073,418.2589 520.835,435.7729 " fill="none" id="HumanResourceManager-Collaborator" style="stroke:#181818;stroke-width:0.6999999999999998;"/><polygon fill="#000000" points="553.5527,306.1715,556.172,300.051,552.0742,299.6804,553.5527,306.1715" style="stroke:#000000;stroke-width:0.6999999999999998;"/><text fill="#000000" font-family="sans-serif" font-size="9.1" lengthAdjust="spacing" textLength="22.4" x="560.168" y="306.4537">regist</text><text fill="#000000" font-family="sans-serif" font-size="9.1" lengthAdjust="spacing" textLength="4.9" x="541.9761" y="184.3947">1</text><text fill="#000000" font-family="sans-serif" font-size="9.1" lengthAdjust="spacing" textLength="14" x="508.7767" y="428.0376">1..*</text></g><!--link HumanResourceManager to Team--><g id="link_HumanResourceManager_Team"><path codeLine="112" d="M507.36,169.3529 C502.418,205.9489 496.517,249.6709 492.884,276.6069 " fill="none" id="HumanResourceManager-Team" style="stroke:#181818;stroke-width:0.6999999999999998;"/><polygon fill="#000000" points="507.1999,200.4543,510.0855,194.4548,506.008,193.9045,507.1999,200.4543" style="stroke:#000000;stroke-width:0.6999999999999998;"/><text fill="#000000" font-family="sans-serif" font-size="9.1" lengthAdjust="spacing" textLength="30.1" x="513.968" y="200.7537">creates</text><text fill="#000000" font-family="sans-serif" font-size="9.1" lengthAdjust="spacing" textLength="4.9" x="501.6406" y="184.4172">1</text><text fill="#000000" font-family="sans-serif" font-size="9.1" lengthAdjust="spacing" textLength="14" x="478.2456" y="268.8664">1..*</text></g><!--link Collaborator to Job--><g id="link_Collaborator_Job"><path codeLine="113" d="M458.521,566.2809 C455.91,573.2179 453.558,580.2529 451.668,587.1339 C448.616,598.2709 447.041,611.1369 446.229,621.3779 " fill="none" id="Collaborator-Job" style="stroke:#181818;stroke-width:0.6999999999999998;"/><polygon fill="#000000" points="455.9301,590.4697,452.5436,596.2014,456.5593,597.0973,455.9301,590.4697" style="stroke:#000000;stroke-width:0.6999999999999998;"/><text fill="#000000" font-family="sans-serif" font-size="9.1" lengthAdjust="spacing" textLength="46.9" x="461.468" y="597.6537">assigned to</text><text fill="#000000" font-family="sans-serif" font-size="9.1" lengthAdjust="spacing" textLength="14" x="441.7343" y="581.3473">1..*</text><text fill="#000000" font-family="sans-serif" font-size="9.1" lengthAdjust="spacing" textLength="4.9" x="440.9615" y="613.4612">1</text></g><!--link Collaborator to Skill--><g id="link_Collaborator_Skill"><path codeLine="114" d="M508.732,566.2039 C514.745,586.3359 520.919,606.9999 525.196,621.3149 " fill="none" id="Collaborator-Skill" style="stroke:#181818;stroke-width:0.6999999999999998;"/><polygon fill="#000000" points="520.6662,590.5322,520.5073,597.1877,524.4497,596.0099,520.6662,590.5322" style="stroke:#000000;stroke-width:0.6999999999999998;"/><text fill="#000000" font-family="sans-serif" font-size="9.1" lengthAdjust="spacing" textLength="46.9" x="527.968" y="597.6537">assigned to</text><text fill="#000000" font-family="sans-serif" font-size="9.1" lengthAdjust="spacing" textLength="14" x="495.6326" y="581.2646">1..*</text><text fill="#000000" font-family="sans-serif" font-size="9.1" lengthAdjust="spacing" textLength="3.5" x="520.0943" y="613.6999">*</text></g><!--link Team to Collaborator--><g id="link_Team_Collaborator"><path codeLine="115" d="M489.468,328.6379 C489.468,355.6159 489.468,399.3519 489.468,435.9269 " fill="none" id="Team-Collaborator" style="stroke:#181818;stroke-width:0.6999999999999998;"/><polygon fill="#000000" points="492.968,411.8857,495.0252,405.5542,490.9108,405.5542,492.968,411.8857" style="stroke:#000000;stroke-width:0.6999999999999998;"/><text fill="#000000" font-family="sans-serif" font-size="9.1" lengthAdjust="spacing" textLength="14.7" x="499.268" y="412.1537">has</text><text fill="#000000" font-family="sans-serif" font-size="9.1" lengthAdjust="spacing" textLength="4.9" x="484.1622" y="343.7832">1</text><text fill="#000000" font-family="sans-serif" font-size="9.1" lengthAdjust="spacing" textLength="14" x="474.8883" y="427.9826">1..*</text></g><!--link FleetManager to Vehicle--><g id="link_FleetManager_Vehicle"><path codeLine="116" d="M359.408,144.0689 C338.863,167.1199 312.788,197.0449 290.668,224.5339 C284.326,232.4159 277.774,240.8929 271.474,249.2439 " fill="none" id="FleetManager-Vehicle" style="stroke:#181818;stroke-width:0.6999999999999998;"/><polygon fill="#000000" points="319.223,199.6709,324.8625,196.133,321.7059,193.4938,319.223,199.6709" style="stroke:#000000;stroke-width:0.6999999999999998;"/><text fill="#000000" font-family="sans-serif" font-size="9.1" lengthAdjust="spacing" textLength="22.4" x="327.768" y="200.7537">regist</text><text fill="#000000" font-family="sans-serif" font-size="9.1" lengthAdjust="spacing" textLength="4.9" x="349.1628" y="146.8024">1</text><text fill="#000000" font-family="sans-serif" font-size="9.1" lengthAdjust="spacing" textLength="14" x="276.9835" y="239.9573">1..*</text></g><!--link FleetManager to VehicleCheckUp--><g id="link_FleetManager_VehicleCheckUp"><path codeLine="117" d="M387.758,169.4929 C380.779,225.7519 368.732,309.2339 351.568,380.6339 C347.823,396.2299 345.359,399.6949 340.368,414.9339 C333.746,435.1779 326.228,458.1099 320.649,475.1129 " fill="none" id="FleetManager-VehicleCheckUp" style="stroke:#181818;stroke-width:0.6999999999999998;"/><polygon fill="#000000" points="382.3173,306.1043,385.6847,300.3613,381.6659,299.4788,382.3173,306.1043" style="stroke:#000000;stroke-width:0.6999999999999998;"/><text fill="#000000" font-family="sans-serif" font-size="9.1" lengthAdjust="spacing" textLength="22.4" x="389.368" y="306.4537">regist</text><text fill="#000000" font-family="sans-serif" font-size="9.1" lengthAdjust="spacing" textLength="4.9" x="382.1788" y="184.3439">1</text><text fill="#000000" font-family="sans-serif" font-size="9.1" lengthAdjust="spacing" textLength="14" x="306.8852" y="467.1841">1..*</text></g><!--link Vehicle to VehicleCheckUp--><g id="link_Vehicle_VehicleCheckUp"><path codeLine="118" d="M264.418,380.8789 C277.865,414.3739 292.67,451.2499 302.218,475.0429 " fill="none" id="Vehicle-VehicleCheckUp" style="stroke:#181818;stroke-width:0.6999999999999998;"/><polygon fill="#000000" points="279.5641,405.1377,280.0137,411.7799,283.832,410.2471,279.5641,405.1377" style="stroke:#000000;stroke-width:0.6999999999999998;"/><text fill="#000000" font-family="sans-serif" font-size="9.1" lengthAdjust="spacing" textLength="46.9" x="287.168" y="412.1537">assigned to</text><text fill="#000000" font-family="sans-serif" font-size="9.1" lengthAdjust="spacing" textLength="4.9" x="261.2669" y="395.8422">1</text><text fill="#000000" font-family="sans-serif" font-size="9.1" lengthAdjust="spacing" textLength="3.5" x="296.5983" y="467.2999">*</text></g><!--SRC=[nLLBRzD04BxxLwnwCI28u1eXf2XLnKEjAbBWF5vFxINhNRCxRfLM_7VsvSHRGffo01-YiUVxvh7xpSIkXUh1GCSwhJHlZUwGaHcmi5jF3tmD3Qve8v4Pv0IgaLE0RQ7Mjq8rx1gadNgu16iNH4PK0-47hjLAt25xNRIYHiQ5uIvGi3kaLjUsA8h0OUU3RVHggAHm1TqNp3qAEWp63T35q5LemjijLbPGzFIjLZZnOGT25Z_7eE-73jHdj7em7Cz1kQxCm-2LDkeKKZoekubT6xJsG1vlYNe9favcGcppBxMKu180wN-QzqmYqd_eTxKMKgQ4rjiNFklM_L5NoVbTLxdh2frwegz37zHUZ0M7G3Q7VyLME2abHcL0nP8wNMEiapPzf1EOQ3H6M_iDHTDIUEU3CQZeKnVU33R24fhTSV0VWt124tftNEuK5A42nPFyfFSyh6hP8bz_wLDnM_Ab1Ex1PL6EFVDM2Guo7DjzKOPkMste52qtelUvuzVhGShieykPeYmuYHj1cuL1-DiOPmWq6BnQfG1kQcglsSqKTAajWLn4bOoPo3YbHVjEz4jt_F65kue2kSW6- -JD2NlbVcUp5oTxftFEMh3itG7MTAOUHqyduN5qk8WvqxVgCCu9-GYKr_GHiAIQBNBlqWgCl4usJw8zZkE7xscCR7izZHh6USwuqoIXRogBbK01FXRc52OQXJKZpTx-4JxfFIU4X0VBZtUVRSOSF-wKIQUFeyTPdv36E2D-7pWltZrblWm2AnxFTBv35hT-_LylA9Uht7yNaHpk8OiwPw5GjzXCk9NosJx-omUqvsossn15-RkI9LvJiB8LuL99pTtzrspXp-KN]--></g></svg>