<?xml version="1.0" encoding="us-ascii" standalone="no"?><svg xmlns="http://www.w3.org/2000/svg" xmlns:xlink="http://www.w3.org/1999/xlink" contentStyleType="text/css" height="665px" preserveAspectRatio="none" style="width:718px;height:664px;background:#FFFFFF;" version="1.1" viewBox="0 0 718 664" width="718.2px" zoomAndPan="magnify"><defs/><g><!--class MusgoSublime--><g id="elem_MusgoSublime"><rect codeLine="9" fill="#F1F1F1" height="90.8086" id="MusgoSublime" rx="1.75" ry="1.75" style="stroke:#181818;stroke-width:0.3499999999999999;" width="70.7" x="211.323" y="58.6339"/><text fill="#000000" font-family="sans-serif" font-size="9.8" lengthAdjust="spacing" textLength="64.4" x="214.473" y="72.7091">MusgoSublime</text><line style="stroke:#181818;stroke-width:0.3499999999999999;" x1="212.023" x2="281.323" y1="78.6687" y2="78.6687"/><text fill="#000000" font-family="sans-serif" font-size="9.8" lengthAdjust="spacing" textLength="24.5" x="215.523" y="92.0438">name</text><text fill="#000000" font-family="sans-serif" font-size="9.8" lengthAdjust="spacing" textLength="47.6" x="215.523" y="105.0786">vatNumber</text><text fill="#000000" font-family="sans-serif" font-size="9.8" lengthAdjust="spacing" textLength="32.9" x="215.523" y="118.1134">website</text><text fill="#000000" font-family="sans-serif" font-size="9.8" lengthAdjust="spacing" textLength="62.3" x="215.523" y="131.1481">phoneNumber</text><text fill="#000000" font-family="sans-serif" font-size="9.8" lengthAdjust="spacing" textLength="23.1" x="215.523" y="144.1829">email</text></g><!--class HumanResourceManager--><g id="elem_HumanResourceManager"><rect codeLine="17" fill="#F1F1F1" height="129.9129" id="HumanResourceManager" rx="1.75" ry="1.75" style="stroke:#181818;stroke-width:0.3499999999999999;" width="116.9" x="486.423" y="39.0339"/><text fill="#000000" font-family="sans-serif" font-size="9.8" lengthAdjust="spacing" textLength="112.7" x="488.523" y="53.1091">HumanResourceManager</text><line style="stroke:#181818;stroke-width:0.3499999999999999;" x1="487.123" x2="602.623" y1="59.0687" y2="59.0687"/><text fill="#000000" font-family="sans-serif" font-size="9.8" lengthAdjust="spacing" textLength="24.5" x="490.623" y="72.4438">name</text><text fill="#000000" font-family="sans-serif" font-size="9.8" lengthAdjust="spacing" textLength="41.3" x="490.623" y="85.4786">bornDate</text><text fill="#000000" font-family="sans-serif" font-size="9.8" lengthAdjust="spacing" textLength="39.9" x="490.623" y="98.5134">admDate</text><text fill="#000000" font-family="sans-serif" font-size="9.8" lengthAdjust="spacing" textLength="35.7" x="490.623" y="111.5481">address</text><text fill="#000000" font-family="sans-serif" font-size="9.8" lengthAdjust="spacing" textLength="62.3" x="490.623" y="124.5829">phoneNumber</text><text fill="#000000" font-family="sans-serif" font-size="9.8" lengthAdjust="spacing" textLength="23.1" x="490.623" y="137.6177">email</text><text fill="#000000" font-family="sans-serif" font-size="9.8" lengthAdjust="spacing" textLength="29.4" x="490.623" y="150.6524">idCard</text><text fill="#000000" font-family="sans-serif" font-size="9.8" lengthAdjust="spacing" textLength="42" x="490.623" y="163.6872">idNumber</text></g><!--class Collaborator--><g id="elem_Collaborator"><rect codeLine="28" fill="#F1F1F1" height="129.9129" id="Collaborator" rx="1.75" ry="1.75" style="stroke:#181818;stroke-width:0.3499999999999999;" width="70.7" x="452.123" y="435.9339"/><text fill="#000000" font-family="sans-serif" font-size="9.8" lengthAdjust="spacing" textLength="54.6" x="460.173" y="450.0091">Collaborator</text><line style="stroke:#181818;stroke-width:0.3499999999999999;" x1="452.823" x2="522.123" y1="455.9687" y2="455.9687"/><text fill="#000000" font-family="sans-serif" font-size="9.8" lengthAdjust="spacing" textLength="24.5" x="456.323" y="469.3438">name</text><text fill="#000000" font-family="sans-serif" font-size="9.8" lengthAdjust="spacing" textLength="41.3" x="456.323" y="482.3786">bornDate</text><text fill="#000000" font-family="sans-serif" font-size="9.8" lengthAdjust="spacing" textLength="39.9" x="456.323" y="495.4134">admDate</text><text fill="#000000" font-family="sans-serif" font-size="9.8" lengthAdjust="spacing" textLength="35.7" x="456.323" y="508.4481">address</text><text fill="#000000" font-family="sans-serif" font-size="9.8" lengthAdjust="spacing" textLength="62.3" x="456.323" y="521.4829">phoneNumber</text><text fill="#000000" font-family="sans-serif" font-size="9.8" lengthAdjust="spacing" textLength="23.1" x="456.323" y="534.5177">email</text><text fill="#000000" font-family="sans-serif" font-size="9.8" lengthAdjust="spacing" textLength="29.4" x="456.323" y="547.5524">idCard</text><text fill="#000000" font-family="sans-serif" font-size="9.8" lengthAdjust="spacing" textLength="42" x="456.323" y="560.5872">idNumber</text></g><!--class FleetManager--><g id="elem_FleetManager"><rect codeLine="39" fill="#F1F1F1" height="129.9129" id="FleetManager" rx="1.75" ry="1.75" style="stroke:#181818;stroke-width:0.3499999999999999;" width="70.7" x="331.723" y="39.0339"/><text fill="#000000" font-family="sans-serif" font-size="9.8" lengthAdjust="spacing" textLength="61.6" x="336.273" y="53.1091">FleetManager</text><line style="stroke:#181818;stroke-width:0.3499999999999999;" x1="332.423" x2="401.723" y1="59.0687" y2="59.0687"/><text fill="#000000" font-family="sans-serif" font-size="9.8" lengthAdjust="spacing" textLength="24.5" x="335.923" y="72.4438">name</text><text fill="#000000" font-family="sans-serif" font-size="9.8" lengthAdjust="spacing" textLength="41.3" x="335.923" y="85.4786">bornDate</text><text fill="#000000" font-family="sans-serif" font-size="9.8" lengthAdjust="spacing" textLength="39.9" x="335.923" y="98.5134">admDate</text><text fill="#000000" font-family="sans-serif" font-size="9.8" lengthAdjust="spacing" textLength="35.7" x="335.923" y="111.5481">address</text><text fill="#000000" font-family="sans-serif" font-size="9.8" lengthAdjust="spacing" textLength="62.3" x="335.923" y="124.5829">phoneNumber</text><text fill="#000000" font-family="sans-serif" font-size="9.8" lengthAdjust="spacing" textLength="23.1" x="335.923" y="137.6177">email</text><text fill="#000000" font-family="sans-serif" font-size="9.8" lengthAdjust="spacing" textLength="29.4" x="335.923" y="150.6524">idCard</text><text fill="#000000" font-family="sans-serif" font-size="9.8" lengthAdjust="spacing" textLength="42" x="335.923" y="163.6872">idNumber</text></g><!--class Skill--><g id="elem_Skill"><rect codeLine="50" fill="#F1F1F1" height="38.6695" id="Skill" rx="1.75" ry="1.75" style="stroke:#181818;stroke-width:0.3499999999999999;" width="49.7" x="418.523" y="621.4339"/><text fill="#000000" font-family="sans-serif" font-size="9.8" lengthAdjust="spacing" textLength="17.5" x="434.623" y="635.5091">Skill</text><line style="stroke:#181818;stroke-width:0.3499999999999999;" x1="419.223" x2="467.523" y1="641.4687" y2="641.4687"/><text fill="#000000" font-family="sans-serif" font-size="9.8" lengthAdjust="spacing" textLength="41.3" x="422.723" y="654.8438">skillName</text></g><!--class Job--><g id="elem_Job"><rect codeLine="54" fill="#F1F1F1" height="38.6695" id="Job" rx="1.75" ry="1.75" style="stroke:#181818;stroke-width:0.3499999999999999;" width="46.9" x="505.323" y="621.4339"/><text fill="#000000" font-family="sans-serif" font-size="9.8" lengthAdjust="spacing" textLength="15.4" x="521.073" y="635.5091">Job</text><line style="stroke:#181818;stroke-width:0.3499999999999999;" x1="506.023" x2="551.523" y1="641.4687" y2="641.4687"/><text fill="#000000" font-family="sans-serif" font-size="9.8" lengthAdjust="spacing" textLength="38.5" x="509.523" y="654.8438">jobName</text></g><!--class GenerateTeam--><g id="elem_GenerateTeam"><rect codeLine="58" fill="#F1F1F1" height="51.7043" id="GenerateTeam" rx="1.75" ry="1.75" style="stroke:#181818;stroke-width:0.3499999999999999;" width="74.2" x="450.373" y="276.6839"/><text fill="#000000" font-family="sans-serif" font-size="9.8" lengthAdjust="spacing" textLength="67.2" x="453.873" y="290.7591">GenerateTeam</text><line style="stroke:#181818;stroke-width:0.3499999999999999;" x1="451.073" x2="523.873" y1="296.7187" y2="296.7187"/><text fill="#000000" font-family="sans-serif" font-size="9.8" lengthAdjust="spacing" textLength="65.8" x="454.573" y="310.0938">membersName</text><text fill="#000000" font-family="sans-serif" font-size="9.8" lengthAdjust="spacing" textLength="46.2" x="454.573" y="323.1286">skillsName</text></g><!--class Vehicle--><g id="elem_Vehicle"><rect codeLine="63" fill="#F1F1F1" height="155.9824" id="Vehicle" rx="1.75" ry="1.75" style="stroke:#181818;stroke-width:0.3499999999999999;" width="76.3" x="267.323" y="224.5339"/><text fill="#000000" font-family="sans-serif" font-size="9.8" lengthAdjust="spacing" textLength="32.2" x="289.373" y="238.6091">Vehicle</text><line style="stroke:#181818;stroke-width:0.3499999999999999;" x1="268.023" x2="342.923" y1="244.5687" y2="244.5687"/><text fill="#000000" font-family="sans-serif" font-size="9.8" lengthAdjust="spacing" textLength="25.9" x="271.523" y="257.9438">brand</text><text fill="#000000" font-family="sans-serif" font-size="9.8" lengthAdjust="spacing" textLength="26.6" x="271.523" y="270.9786">model</text><text fill="#000000" font-family="sans-serif" font-size="9.8" lengthAdjust="spacing" textLength="18.9" x="271.523" y="284.0134">type</text><text fill="#000000" font-family="sans-serif" font-size="9.8" lengthAdjust="spacing" textLength="17.5" x="271.523" y="297.0481">tare</text><text fill="#000000" font-family="sans-serif" font-size="9.8" lengthAdjust="spacing" textLength="55.3" x="271.523" y="310.0829">grossWeight</text><text fill="#000000" font-family="sans-serif" font-size="9.8" lengthAdjust="spacing" textLength="45.5" x="271.523" y="323.1177">currentKm</text><text fill="#000000" font-family="sans-serif" font-size="9.8" lengthAdjust="spacing" textLength="54.6" x="271.523" y="336.1524">registerDate</text><text fill="#000000" font-family="sans-serif" font-size="9.8" lengthAdjust="spacing" textLength="67.9" x="271.523" y="349.1872">acquisitionDate</text><text fill="#000000" font-family="sans-serif" font-size="9.8" lengthAdjust="spacing" textLength="56.7" x="271.523" y="362.222">maintenance</text><text fill="#000000" font-family="sans-serif" font-size="9.8" lengthAdjust="spacing" textLength="21.7" x="271.523" y="375.2567">plate</text></g><!--class VehicleCheckUp--><g id="elem_VehicleCheckUp"><rect codeLine="76" fill="#F1F1F1" height="51.7043" id="VehicleCheckUp" rx="1.75" ry="1.75" style="stroke:#181818;stroke-width:0.3499999999999999;" width="76.3" x="316.323" y="475.1339"/><text fill="#000000" font-family="sans-serif" font-size="9.8" lengthAdjust="spacing" textLength="72.1" x="318.423" y="489.2091">VehicleCheckUp</text><line style="stroke:#181818;stroke-width:0.3499999999999999;" x1="317.023" x2="391.923" y1="495.1687" y2="495.1687"/><text fill="#000000" font-family="sans-serif" font-size="9.8" lengthAdjust="spacing" textLength="21" x="320.523" y="508.5438">Date</text><text fill="#000000" font-family="sans-serif" font-size="9.8" lengthAdjust="spacing" textLength="24.5" x="320.523" y="521.5786">Place</text></g><!--link MusgoSublime to HumanResourceManager--><g id="link_MusgoSublime_HumanResourceManager"><path codeLine="102" d="M282.247,64.1079 C301.462,46.0059 326.872,27.1129 354.473,20.1339 C400.54,8.4929 449.519,30.9769 486.262,55.5959 " fill="none" id="MusgoSublime-HumanResourceManager" style="stroke:#181818;stroke-width:0.6999999999999998;"/><polygon fill="#000000" points="361.47,11.3398,355.0581,9.5483,355.2297,13.6592,361.47,11.3398" style="stroke:#000000;stroke-width:0.6999999999999998;"/><text fill="#000000" font-family="sans-serif" font-size="9.1" lengthAdjust="spacing" textLength="14.7" x="364.273" y="15.2537">has</text><text fill="#000000" font-family="sans-serif" font-size="9.1" lengthAdjust="spacing" textLength="4.9" x="287.5941" y="55.5901">1</text><text fill="#000000" font-family="sans-serif" font-size="9.1" lengthAdjust="spacing" textLength="14" x="466.8286" y="49.0237">1..*</text></g><!--link MusgoSublime to Collaborator--><g id="link_MusgoSublime_Collaborator"><path codeLine="103" d="M228.599,149.8649 C208.362,208.2239 184.009,310.7529 229.873,380.6339 C274.631,448.8279 331.037,401.2699 404.873,435.9339 C421.666,443.8159 438.186,455.6389 451.99,467.0139 " fill="none" id="MusgoSublime-Collaborator" style="stroke:#181818;stroke-width:0.6999999999999998;"/><polygon fill="#000000" points="235.3885,305.5472,233.4243,299.1861,230.0605,301.5555,235.3885,305.5472" style="stroke:#000000;stroke-width:0.6999999999999998;"/><text fill="#000000" font-family="sans-serif" font-size="9.1" lengthAdjust="spacing" textLength="14.7" x="239.673" y="306.4537">has</text><text fill="#000000" font-family="sans-serif" font-size="9.1" lengthAdjust="spacing" textLength="4.9" x="221.6787" y="164.7915">1</text><text fill="#000000" font-family="sans-serif" font-size="9.1" lengthAdjust="spacing" textLength="14" x="432.5469" y="459.844">1..*</text></g><!--link MusgoSublime to FleetManager--><g id="link_MusgoSublime_FleetManager"><path codeLine="104" d="M282.149,104.1339 C297.752,104.1339 316.043,104.1339 331.646,104.1339 " fill="none" id="MusgoSublime-FleetManager" style="stroke:#181818;stroke-width:0.6999999999999998;"/><polygon fill="#000000" points="301.273,95.4857,294.9414,93.4285,294.9414,97.543,301.273,95.4857" style="stroke:#000000;stroke-width:0.6999999999999998;"/><text fill="#000000" font-family="sans-serif" font-size="9.1" lengthAdjust="spacing" textLength="14.7" x="304.073" y="99.2537">has</text><text fill="#000000" font-family="sans-serif" font-size="9.1" lengthAdjust="spacing" textLength="4.9" x="287.7194" y="101.2088">1</text><text fill="#000000" font-family="sans-serif" font-size="9.1" lengthAdjust="spacing" textLength="14" x="312.21" y="114.7475">1..*</text></g><!--link MusgoSublime to Skill--><g id="link_MusgoSublime_Skill"><path codeLine="105" d="M211.197,123.2789 C186.508,138.0209 154.994,161.0299 137.473,190.2339 C43.68,346.5649 4.2,476.0299 137.473,600.4339 C177.989,638.2549 352.989,640.7679 418.495,640.3479 " fill="none" id="MusgoSublime-Skill" style="stroke:#181818;stroke-width:0.6999999999999998;"/><polygon fill="#000000" points="57.5754,411.6344,57.1288,404.992,53.3098,406.5231,57.5754,411.6344" style="stroke:#000000;stroke-width:0.6999999999999998;"/><text fill="#000000" font-family="sans-serif" font-size="9.1" lengthAdjust="spacing" textLength="14.7" x="62.573" y="412.1537">has</text><text fill="#000000" font-family="sans-serif" font-size="9.1" lengthAdjust="spacing" textLength="4.9" x="200.7266" y="123.1657">1</text><text fill="#000000" font-family="sans-serif" font-size="9.1" lengthAdjust="spacing" textLength="14" x="399.016" y="637.1902">1..*</text></g><!--link MusgoSublime to Job--><g id="link_MusgoSublime_Job"><path codeLine="106" d="M225.547,149.8439 C219.814,162.7589 213.829,176.9409 208.873,190.2339 C179.27,269.6419 176.673,298.7059 198.373,380.6339 C222.677,472.3619 230.195,506.5919 304.073,566.1339 C368.046,617.6889 402.885,594.3999 480.473,621.4339 C488.621,624.2689 497.448,627.5869 505.302,630.6249 " fill="none" id="MusgoSublime-Job" style="stroke:#181818;stroke-width:0.6999999999999998;"/><polygon fill="#000000" points="212.7333,411.4109,211.3271,404.9037,207.7708,406.973,212.7333,411.4109" style="stroke:#000000;stroke-width:0.6999999999999998;"/><text fill="#000000" font-family="sans-serif" font-size="9.1" lengthAdjust="spacing" textLength="14.7" x="217.273" y="412.1537">has</text><text fill="#000000" font-family="sans-serif" font-size="9.1" lengthAdjust="spacing" textLength="4.9" x="218.2157" y="165.0115">1</text><text fill="#000000" font-family="sans-serif" font-size="9.1" lengthAdjust="spacing" textLength="14" x="485.6839" y="625.5962">1..*</text></g><!--link MusgoSublime to GenerateTeam--><g id="link_MusgoSublime_GenerateTeam"><path codeLine="107" d="M263.179,149.6479 C272.629,169.1779 286.454,190.5419 305.473,203.5339 C352.352,235.5589 383.215,194.6369 431.473,224.5339 C451.346,236.8469 466.319,259.0579 475.755,276.5369 " fill="none" id="MusgoSublime-GenerateTeam" style="stroke:#181818;stroke-width:0.6999999999999998;"/><polygon fill="#000000" points="311.9783,198.7796,307.5961,193.768,305.4872,197.3009,311.9783,198.7796" style="stroke:#000000;stroke-width:0.6999999999999998;"/><text fill="#000000" font-family="sans-serif" font-size="9.1" lengthAdjust="spacing" textLength="14.7" x="315.273" y="200.7537">has</text><text fill="#000000" font-family="sans-serif" font-size="9.1" lengthAdjust="spacing" textLength="4.9" x="259.7285" y="164.7953">1</text><text fill="#000000" font-family="sans-serif" font-size="9.1" lengthAdjust="spacing" textLength="14" x="458.4209" y="268.7839">1..*</text></g><!--link HumanResourceManager to Skill--><g id="link_HumanResourceManager_Skill"><path codeLine="108" d="M574.847,169.3179 C618.177,273.2259 682.458,478.3889 579.173,600.4339 C553.728,630.4989 530.726,609.8629 493.073,621.4339 C484.974,623.9259 476.28,627.0199 468.461,629.9669 " fill="none" id="HumanResourceManager-Skill" style="stroke:#181818;stroke-width:0.6999999999999998;"/><polygon fill="#000000" points="637.1854,411.796,640.6147,406.0897,636.6057,405.1639,637.1854,411.796" style="stroke:#000000;stroke-width:0.6999999999999998;"/><text fill="#000000" font-family="sans-serif" font-size="9.1" lengthAdjust="spacing" textLength="22.4" x="644.273" y="412.1537">regist</text><text fill="#000000" font-family="sans-serif" font-size="9.1" lengthAdjust="spacing" textLength="4.9" x="571.9683" y="184.3796">1</text><text fill="#000000" font-family="sans-serif" font-size="9.1" lengthAdjust="spacing" textLength="14" x="473.7756" y="625.1291">1..*</text></g><!--link HumanResourceManager to Job--><g id="link_HumanResourceManager_Job"><path codeLine="109" d="M603.407,133.4639 C625.534,147.4079 648.55,166.3849 661.773,190.2339 C710.318,277.7759 681.317,314.9179 677.173,414.9339 C673.75,497.5899 713.944,536.2229 661.773,600.4339 C635.194,633.1519 582.799,639.6199 552.307,640.4389 " fill="none" id="HumanResourceManager-Job" style="stroke:#181818;stroke-width:0.6999999999999998;"/><polygon fill="#000000" points="680.322,411.8681,683.0038,405.7748,678.9101,405.3621,680.322,411.8681" style="stroke:#000000;stroke-width:0.6999999999999998;"/><text fill="#000000" font-family="sans-serif" font-size="9.1" lengthAdjust="spacing" textLength="22.4" x="686.973" y="412.1537">regist</text><text fill="#000000" font-family="sans-serif" font-size="9.1" lengthAdjust="spacing" textLength="4.9" x="608.8384" y="133.4878">1</text><text fill="#000000" font-family="sans-serif" font-size="9.1" lengthAdjust="spacing" textLength="14" x="557.7459" y="637.2583">1..*</text></g><!--link HumanResourceManager to Collaborator--><g id="link_HumanResourceManager_Collaborator"><path codeLine="110" d="M557.2,169.4719 C558.32,180.7979 558.831,192.4879 558.173,203.5339 C553.497,282.6619 557.228,303.9489 537.173,380.6339 C532.364,399.0299 525.315,418.3219 518.028,435.9129 " fill="none" id="HumanResourceManager-Collaborator" style="stroke:#181818;stroke-width:0.6999999999999998;"/><polygon fill="#000000" points="559.7639,306.1485,562.7202,300.1835,558.6495,299.5851,559.7639,306.1485" style="stroke:#000000;stroke-width:0.6999999999999998;"/><text fill="#000000" font-family="sans-serif" font-size="9.1" lengthAdjust="spacing" textLength="22.4" x="566.573" y="306.4537">regist</text><text fill="#000000" font-family="sans-serif" font-size="9.1" lengthAdjust="spacing" textLength="4.9" x="552.9945" y="184.3214">1</text><text fill="#000000" font-family="sans-serif" font-size="9.1" lengthAdjust="spacing" textLength="14" x="505.9786" y="427.9675">1..*</text></g><!--link HumanResourceManager to GenerateTeam--><g id="link_HumanResourceManager_GenerateTeam"><path codeLine="111" d="M521.353,169.4299 C519.029,176.4159 516.796,183.4509 514.773,190.2339 C506.037,219.5919 497.959,253.8849 492.898,276.6419 " fill="none" id="HumanResourceManager-GenerateTeam" style="stroke:#181818;stroke-width:0.6999999999999998;"/><polygon fill="#000000" points="517.3752,200.3686,520.9878,194.7767,517.011,193.7212,517.3752,200.3686" style="stroke:#000000;stroke-width:0.6999999999999998;"/><text fill="#000000" font-family="sans-serif" font-size="9.1" lengthAdjust="spacing" textLength="30.1" x="524.573" y="200.7537">creates</text><text fill="#000000" font-family="sans-serif" font-size="9.1" lengthAdjust="spacing" textLength="4.9" x="514.627" y="184.2765">1</text><text fill="#000000" font-family="sans-serif" font-size="9.1" lengthAdjust="spacing" textLength="14" x="478.6076" y="268.7092">1..*</text></g><!--link Collaborator to Job--><g id="link_Collaborator_Job"><path codeLine="112" d="M506.737,566.2039 C512.75,586.3359 518.924,606.9999 523.201,621.3149 " fill="none" id="Collaborator-Job" style="stroke:#181818;stroke-width:0.6999999999999998;"/><polygon fill="#000000" points="518.6712,590.5322,518.5123,597.1877,522.4547,596.0099,518.6712,590.5322" style="stroke:#000000;stroke-width:0.6999999999999998;"/><text fill="#000000" font-family="sans-serif" font-size="9.1" lengthAdjust="spacing" textLength="46.9" x="525.973" y="597.6537">assigned to</text><text fill="#000000" font-family="sans-serif" font-size="9.1" lengthAdjust="spacing" textLength="4.9" x="503.0718" y="581.2646">1</text><text fill="#000000" font-family="sans-serif" font-size="9.1" lengthAdjust="spacing" textLength="14" x="506.4509" y="613.6999">1..*</text></g><!--link Collaborator to Skill--><g id="link_Collaborator_Skill"><path codeLine="113" d="M456.526,566.2809 C453.915,573.2179 451.563,580.2529 449.673,587.1339 C446.621,598.2709 445.046,611.1369 444.234,621.3779 " fill="none" id="Collaborator-Skill" style="stroke:#181818;stroke-width:0.6999999999999998;"/><polygon fill="#000000" points="453.9351,590.4697,450.5486,596.2014,454.5643,597.0973,453.9351,590.4697" style="stroke:#000000;stroke-width:0.6999999999999998;"/><text fill="#000000" font-family="sans-serif" font-size="9.1" lengthAdjust="spacing" textLength="46.9" x="459.473" y="597.6537">assigned to</text><text fill="#000000" font-family="sans-serif" font-size="9.1" lengthAdjust="spacing" textLength="4.9" x="449.1734" y="581.3473">1</text><text fill="#000000" font-family="sans-serif" font-size="9.1" lengthAdjust="spacing" textLength="14" x="428.8144" y="613.4612">1..*</text></g><!--link GenerateTeam to Collaborator--><g id="link_GenerateTeam_Collaborator"><path codeLine="114" d="M487.473,328.6379 C487.473,355.6159 487.473,399.3519 487.473,435.9269 " fill="none" id="GenerateTeam-Collaborator" style="stroke:#181818;stroke-width:0.6999999999999998;"/><polygon fill="#000000" points="490.973,411.8857,493.0302,405.5542,488.9158,405.5542,490.973,411.8857" style="stroke:#000000;stroke-width:0.6999999999999998;"/><text fill="#000000" font-family="sans-serif" font-size="9.1" lengthAdjust="spacing" textLength="14.7" x="497.273" y="412.1537">has</text><text fill="#000000" font-family="sans-serif" font-size="9.1" lengthAdjust="spacing" textLength="4.9" x="482.1672" y="343.7832">1</text><text fill="#000000" font-family="sans-serif" font-size="9.1" lengthAdjust="spacing" textLength="14" x="472.8933" y="427.9826">1..*</text></g><!--link FleetManager to Vehicle--><g id="link_FleetManager_Vehicle"><path codeLine="115" d="M346.906,169.3529 C341.397,186.9789 335.37,206.2569 329.665,224.5129 " fill="none" id="FleetManager-Vehicle" style="stroke:#181818;stroke-width:0.6999999999999998;"/><polygon fill="#000000" points="342.9288,200.3264,346.7813,194.8969,342.8542,193.6694,342.9288,200.3264" style="stroke:#000000;stroke-width:0.6999999999999998;"/><text fill="#000000" font-family="sans-serif" font-size="9.1" lengthAdjust="spacing" textLength="22.4" x="350.273" y="200.7537">regist</text><text fill="#000000" font-family="sans-serif" font-size="9.1" lengthAdjust="spacing" textLength="4.9" x="340.3451" y="184.4172">1</text><text fill="#000000" font-family="sans-serif" font-size="9.1" lengthAdjust="spacing" textLength="14" x="316.8738" y="216.5363">1..*</text></g><!--link FleetManager to VehicleCheckUp--><g id="link_FleetManager_VehicleCheckUp"><path codeLine="116" d="M375.858,169.3389 C376.558,176.3809 377.16,183.4509 377.573,190.2339 C383.677,289.9139 390.726,315.9399 377.573,414.9339 C374.836,435.5629 368.522,458.2779 363.188,475.0919 " fill="none" id="FleetManager-VehicleCheckUp" style="stroke:#181818;stroke-width:0.6999999999999998;"/><polygon fill="#000000" points="388.6281,306.1827,390.9457,299.9418,386.8348,299.7714,388.6281,306.1827" style="stroke:#000000;stroke-width:0.6999999999999998;"/><text fill="#000000" font-family="sans-serif" font-size="9.1" lengthAdjust="spacing" textLength="22.4" x="395.073" y="306.4537">regist</text><text fill="#000000" font-family="sans-serif" font-size="9.1" lengthAdjust="spacing" textLength="4.9" x="371.4232" y="184.4022">1</text><text fill="#000000" font-family="sans-serif" font-size="9.1" lengthAdjust="spacing" textLength="14" x="349.5042" y="467.1592">1..*</text></g><!--link Vehicle to VehicleCheckUp--><g id="link_Vehicle_VehicleCheckUp"><path codeLine="117" d="M310.639,380.7179 C312.305,392.2959 314.489,403.9999 317.373,414.9339 C322.924,435.9549 332.885,458.4599 341.089,475.0919 " fill="none" id="Vehicle-VehicleCheckUp" style="stroke:#181818;stroke-width:0.6999999999999998;"/><polygon fill="#000000" points="319.7983,405.0548,319.7846,411.7122,323.7003,410.4488,319.7983,405.0548" style="stroke:#000000;stroke-width:0.6999999999999998;"/><text fill="#000000" font-family="sans-serif" font-size="9.1" lengthAdjust="spacing" textLength="46.9" x="327.173" y="412.1537">assigned to</text><text fill="#000000" font-family="sans-serif" font-size="9.1" lengthAdjust="spacing" textLength="4.9" x="305.913" y="395.9346">1</text><text fill="#000000" font-family="sans-serif" font-size="9.1" lengthAdjust="spacing" textLength="14" x="323.3307" y="467.1592">1..*</text></g><!--SRC=[nLLBRzim3BxxLmYvU2ksOhi6mu0WHVT2YsBfjZCjixOMMV8akaLQxB-FbkpKoe9atM7pmQ3Cx-DB9EtNohJWe16DDLRMpZOeo7MO-Qsc1Rc62bUqqIWSIW9JwId0rr3QEsKgSGFQJpLIW_SB8gUAZl23j6Qbxb6yocfLef3AIJOKv0QfjgNFiYnmn4NdAxlg2gque8TCy6EWmI3S0brsJO4kdEwmy8gYfgsjmOaE6r0w-paQVTyrO3wZjvsJU066itAxnWlhp1aCzg1i9dBfqFi3Vdf9bKjmvI0EYAt_fTKQs06G_QT-ppKY_OTyLskbzU3Gz_9bxtMh_cYBGVdT5gdg7HhaCk4rSXT5J8EzSNyv1XuC-fJs5Ml5BJKm2WScXjRO4cEyj6aZdS15eNBM-s-egfh2MNREeQ5FJJWvh9GdT8zbaJywnGsdx6FPk1g6q82HGnlgNhCRrR96kVxI3i5joLSQP0_Eipp2hr7MHadGeNmFMHwohQsZC_JIgRRt7R_UT5ed7zddO6KXITqgsYmSmj_QE4UWpk7rQZ30qrFslRkPWgwi9z2Bs2sZ9tBSSL6-L-sIonyFaYCAv2mPyDdhcNZ9xzFJazdUAPsB6hnuUu0rdQtZwEb474U7YpWEutu-3ffszeZUkvS2Amr1p8T-_3DEFrzFOoGBwcdKP6BdGdBR4VR99JRt1SXDf2g3fI0htXo2ZpL82OdZW-d4OYVBCCMFwsEI-N7qEDOJqcZd23xDWvyy7NqnEucDCqkcEJZYfTl_SC6mktp_zKGoltUipaM8bTUO2nUKFzl7Vx53UovE7_T1bl_Uu1flA4Z9Gc1Nsag-db8i-jBy0W00]--></g></svg>